<?xml version="1.0" encoding="UTF-8" standalone="no"?>
<!-- Created with Inkscape (http://www.inkscape.org/) -->

<svg
   xmlns:dc="http://purl.org/dc/elements/1.1/"
   xmlns:cc="http://creativecommons.org/ns#"
   xmlns:rdf="http://www.w3.org/1999/02/22-rdf-syntax-ns#"
   xmlns:svg="http://www.w3.org/2000/svg"
   xmlns="http://www.w3.org/2000/svg"
   xmlns:sodipodi="http://sodipodi.sourceforge.net/DTD/sodipodi-0.dtd"   
   width="220"
   height="235"
   viewBox="0 0 58.208332 62.177085"
   version="1.1"
   id="svg8"   
   sodipodi:docname="belt.svg" >
  <defs
     id="defs2" />
  <sodipodi:namedview
     id="base"
     pagecolor="#000000"
     bordercolor="#666666"
     borderopacity="1.0"
     showgrid="false"
     units="px" />
  <metadata
     id="metadata5">
    <rdf:RDF>
      <cc:Work
         rdf:about="">
        <dc:format>image/svg+xml</dc:format>
        <dc:type
           rdf:resource="http://purl.org/dc/dcmitype/StillImage" />
        <dc:title></dc:title>
      </cc:Work>
    </rdf:RDF>
  </metadata>
  <g     
     id="layer1"
     transform="translate(0,-234.8229)">
    <path
       style="fill:none;stroke:#ffffff;stroke-width:0.40000001;stroke-miterlimit:4;stroke-dasharray:none;stroke-opacity:1"
       d="m 21.547187,281.59959 c -0.853192,-0.0952 -0.973023,-0.16485 -1.0608,-0.6169 -0.03768,-0.19404 -0.206865,-0.7551 -0.375975,-1.24682 -0.382507,-1.11221 -0.741036,-1.37269 -1.243623,-0.90353 -0.801423,0.74812 -2.226401,1.02564 -4.280258,0.83358 -1.402251,-0.13112 -1.463405,-0.14418 -3.767695,-0.80474 -2.6377357,-0.75614 -7.7684597,-2.58447 -8.4294017,-3.00381 -0.443925,-0.28165 -0.506703,-0.39693 -0.508937,-0.93456 -0.0011,-0.25885 -0.06416,-0.63242 -0.140189,-0.83017 -0.3214071,-0.83597 -0.3633191,-1.75497 -0.184646,-4.0487 0.09912,-1.27249 0.213966,-2.85961 0.255209,-3.52694 0.148627,-2.40486 0.356151,-4.5365 0.453837,-4.66172 0.08443,-0.10822 0.704485,-1.94931 1.009709,-2.99806 0.07506,-0.25791 0.219293,-0.34296 0.784875,-0.4628 3.10879,-0.65873 4.181688,-1.02004 7.5568047,-2.5449 2.01777,-0.91161 2.801591,-1.12257 8.33461,-2.24322 2.358086,-0.47761 3.80974,-0.67055 7.726967,-1.02698 2.769819,-0.25203 8.437891,0.17316 11.111507,0.83352 1.33303,0.32925 3.317084,1.02484 4.444499,1.55819 0.65495,0.30984 1.581951,0.66973 3.410188,1.32394 1.170341,0.4188 3.057032,1.17722 3.53471,1.42091 0.400721,0.20444 2.317681,0.79767 3.605335,1.11573 0.204031,0.0504 0.417378,0.17661 0.474103,0.28047 0.350563,0.64184 1.134567,2.4405 1.134567,2.60293 0,0.10683 0.122328,0.69936 0.271839,1.31672 0.250945,1.03621 0.349287,1.80199 0.562399,4.37931 0.04356,0.52683 0.222865,1.84872 0.398451,2.93752 0.392494,2.43385 0.342671,3.75461 -0.159431,4.22631 -0.197505,0.18555 -0.306947,0.43111 -0.306947,0.6887 0,0.60135 -0.240662,0.82173 -1.121784,1.02729 -0.51345,0.11977 -1.11951,0.39721 -1.692846,0.77493 -0.59098,0.38934 -1.35352,0.73445 -2.254337,1.02028 -2.040989,0.64761 -5.123551,1.3305 -6.005848,1.3305 -0.768815,0 -2.286798,-0.38034 -2.786443,-0.69816 -0.216165,-0.1375 -0.416575,-0.12494 -1.2061,0.0756 -0.946661,0.24041 -1.147261,0.3744 -1.150933,0.7688 -0.001,0.11553 -0.117829,0.58521 -0.259452,1.04373 l -0.257497,0.83368 -0.823259,0.0882 c -1.761675,0.18866 -4.300788,0.13494 -5.239249,-0.11084 -0.556834,-0.14584 -1.56842,-0.25989 -2.682088,-0.3024 -1.59579,-0.0609 -1.890024,-0.0378 -2.73631,0.21427 l -0.948251,0.28251 -0.230305,-0.29941 c -0.194009,-0.25223 -0.230752,-0.2637 -0.233143,-0.0727 -0.0015,0.12467 -0.150265,0.28272 -0.330452,0.35123 -0.349911,0.13304 -3.486023,0.13886 -4.65341,0.009 z"
       id="path1042"       
       sodipodi:nodetypes="ccssccccccscccccccsccccsccscscccsccccccccccccccc" />
  </g>
</svg>
