<?xml version="1.0" encoding="UTF-8" standalone="no"?>
<!-- Created with Inkscape (http://www.inkscape.org/) -->

<svg
   xmlns:dc="http://purl.org/dc/elements/1.1/"
   xmlns:cc="http://creativecommons.org/ns#"
   xmlns:rdf="http://www.w3.org/1999/02/22-rdf-syntax-ns#"
   xmlns:svg="http://www.w3.org/2000/svg"
   xmlns="http://www.w3.org/2000/svg"
   xmlns:sodipodi="http://sodipodi.sourceforge.net/DTD/sodipodi-0.dtd"   
   width="220"
   height="235"
   viewBox="0 0 58.208332 62.177085"
   version="1.1"
   id="svg8"
   sodipodi:docname="chest-rig.svg" >
  <defs
     id="defs2" />
  <sodipodi:namedview
     id="base"
     pagecolor="#000000"
     bordercolor="#666666"
     borderopacity="1.0"
     showgrid="false"
     units="px" />
  <metadata
     id="metadata5">
    <rdf:RDF>
      <cc:Work
         rdf:about="">
        <dc:format>image/svg+xml</dc:format>
        <dc:type
           rdf:resource="http://purl.org/dc/dcmitype/StillImage" />
        <dc:title></dc:title>
      </cc:Work>
    </rdf:RDF>
  </metadata>
  <g
     id="layer1"
     transform="translate(0,-234.8229)">
    <path
       style="fill:none;stroke:#ffffff;stroke-width:0.4;stroke-opacity:1;stroke-miterlimit:4;stroke-dasharray:none"
       d="m 47.328002,295.43204 c -0.341502,-0.14055 -0.628108,-0.89235 -0.8169,-2.14284 -0.09932,-0.65786 -0.25008,-1.32892 -0.335025,-1.49127 -0.08495,-0.16233 -0.154444,-0.44178 -0.154444,-0.621 0,-0.43603 -0.29589,-0.60337 -0.412885,-0.2335 -0.28147,0.88984 -0.441449,1.18748 -0.638268,1.18748 -0.156459,0 -0.218869,-0.22877 -0.218869,-0.80227 0,-0.44126 -0.06881,-0.84578 -0.152913,-0.89894 -0.08411,-0.0532 -0.744913,0.048 -1.468463,0.22483 -0.723552,0.17681 -1.958497,0.43869 -2.744323,0.58196 -0.785825,0.14325 -1.928845,0.36612 -2.540043,0.49526 -3.101658,0.65535 -8.836155,0.92481 -11.985828,0.56321 -3.161855,-0.36299 -5.724437,-0.8302 -6.985118,-1.27352 -1.704731,-0.59945 -3.516359,-1.33343 -3.756243,-1.52185 -0.27976,-0.21974 -0.33023,0.002 -0.310269,1.36563 0.01787,1.22014 0.0095,1.24882 -0.338875,1.15959 -0.257361,-0.066 -0.357195,-0.0198 -0.357195,0.16487 0,0.39707 -0.766186,2.01555 -0.990555,2.09243 -0.579455,0.19858 -2.607136,-0.66246 -3.2686315,-1.38799 -0.3576333,-0.39226 -0.3691999,-0.49283 -0.3530815,-3.06987 0.0092,-1.46538 -0.031059,-2.71313 -0.089387,-2.7728 -0.058328,-0.0596 -0.3894552,0.18139 -0.7358314,0.53566 -0.7309625,0.74763 -1.0701362,0.70234 -0.5975324,-0.0798 l 0.3254397,-0.53859 -0.490922,-0.17503 c -0.6152508,-0.21937 -0.4641946,-0.569 0.1830181,-0.42361 0.2536296,0.057 0.4611447,0.0661 0.4611447,0.0202 0,-0.0459 0.101805,-0.58146 0.2262338,-1.1901 0.1244288,-0.60864 0.299636,-1.78453 0.3893519,-2.61306 0.1451679,-1.34067 0.1305964,-1.58404 -0.1324235,-2.21163 -0.4617098,-1.10167 -0.8303829,-2.73016 -0.657998,-2.90647 0.094685,-0.0969 0.2211139,0.10917 0.3413278,0.55622 0.4342032,1.61469 0.8144778,2.44588 1.0194448,2.22826 0.02945,-0.0313 0.09904,-0.97206 0.154645,-2.09065 0.05561,-1.11857 0.1989585,-2.32417 0.3185645,-2.67912 0.408904,-1.21347 0.03662,-0.96152 -0.8598961,0.58194 -0.3680127,0.63358 -0.7043065,1.11596 -0.7473221,1.07196 -0.043014,-0.044 0.1757693,-0.59759 0.4861853,-1.2302 0.3104151,-0.63263 0.5364641,-1.15024 0.5023323,-1.15024 -0.034129,0 -0.7966268,0.44357 -1.6944321,0.98569 -0.897805,0.54213 -1.8859089,1.09823 -2.1957848,1.23577 -0.7058034,0.31331 -1.4365516,0.4206 -1.4365516,0.21095 0,-0.0875 0.11411,-0.15921 0.2535757,-0.15921 0.4451158,0 2.6496348,-1.26597 3.6561001,-2.09956 0.5350125,-0.44311 1.2851184,-0.98333 1.6669028,-1.20047 0.3817825,-0.21714 0.7860295,-0.5836 0.8983235,-0.81433 0.247493,-0.50854 1.133705,-0.73134 1.833829,-0.46105 0.258058,0.0996 0.518733,0.14983 0.579281,0.11155 0.219279,-0.1386 0.160729,-1.72693 -0.0929,-2.52001 -0.190796,-0.59662 -0.213523,-0.8689 -0.08568,-1.02645 0.167008,-0.20583 -0.107161,-1.48886 -0.579987,-2.71417 -0.217466,-0.56357 -0.4084,-2.49458 -0.293113,-2.96439 0.05152,-0.20997 0.278619,-0.46794 0.504658,-0.57329 0.514131,-0.23958 0.41749,-0.73095 -0.260688,-1.32548 -0.283691,-0.2487 -0.462492,-0.56319 -0.461614,-0.81192 7.92e-4,-0.2233 -0.110695,-0.91744 -0.247738,-1.54254 -0.39203,-1.78817 -0.421259,-3.25753 -0.149517,-7.51576 0.307847,-4.82398 0.80996,-7.55748 1.748695,-9.51993 0.786485,-1.64414 2.093781,-2.83027 4.1466,-3.76222 0.447372,-0.20309 1.169661,-0.59347 1.605084,-0.8675 0.435424,-0.27402 1.001668,-0.49823 1.258319,-0.49823 0.256651,0 0.534504,-0.0636 0.617452,-0.14141 0.201169,-0.18862 0.953581,-0.36356 1.066579,-0.24798 0.115166,0.11779 -0.437319,1.09766 -1.089277,1.93192 -1.494891,1.91289 -2.483612,4.69923 -2.914401,8.21313 -0.267263,2.18006 -0.215228,8.17129 0.08103,9.32947 0.332423,1.29957 0.700529,3.45206 0.693086,4.0528 -0.0033,0.26792 -0.09214,0.74286 -0.19738,1.05542 -0.183638,0.54541 -0.114548,2.2248 0.133596,3.24743 0.05418,0.22326 0.19429,1.20967 0.311365,2.19201 0.117076,0.98235 0.293856,2.15143 0.392846,2.59795 0.09899,0.44652 0.1588,1.2497 0.132914,1.78485 l -0.04707,0.97299 1.428774,0.20125 c 0.785825,0.11069 2.536075,0.22085 3.889441,0.2448 l 2.460666,0.0436 0.04819,-1.05121 c 0.02691,-0.58708 0.13205,-1.10573 0.238128,-1.1747 0.28609,-0.18602 2.534403,-0.15302 3.090808,0.0453 0.449697,0.16034 0.497829,0.2518 0.619524,1.17719 l 0.131944,1.00336 2.460157,-0.0204 c 2.165075,-0.0179 4.772214,-0.34186 5.05175,-0.62776 0.04019,-0.0411 -0.01202,-0.1796 -0.116015,-0.30777 -0.264252,-0.32566 0.07795,-0.51938 0.415697,-0.23532 0.231549,0.19473 0.247268,0.16179 0.15358,-0.32195 -0.09518,-0.49146 0.04457,-1.51151 0.300556,-2.1938 0.06995,-0.18645 0.0191,-0.27119 -0.162743,-0.27119 -0.145465,0 -0.218187,-0.0766 -0.161604,-0.17025 0.07073,-0.11703 0.17072,-0.11266 0.31992,0.014 0.225858,0.19171 0.548455,0.087 0.548455,-0.17806 0,-0.0841 -0.142877,-0.15279 -0.317505,-0.15279 -0.174627,0 -0.317505,-0.0816 -0.317505,-0.1813 0,-0.10136 0.13999,-0.14387 0.317505,-0.0963 0.252546,0.0675 0.317505,0.005 0.317505,-0.30581 0,-0.2149 -0.005,-0.409 -0.01116,-0.43132 -0.0061,-0.0224 0.06009,-0.23226 0.147159,-0.4665 0.08708,-0.23425 0.09817,-0.48998 0.02466,-0.5683 -0.07352,-0.0784 -0.02003,-0.78775 0.118854,-1.57654 0.19175,-1.089 0.207438,-1.46262 0.06519,-1.55254 -0.17909,-0.11321 -0.20765,-0.99126 -0.03225,-0.99156 0.176041,-3.3e-4 0.183674,-10.7636 0.0096,-13.55788 -0.242376,-3.89099 -0.54049,-5.83477 -1.140718,-7.43775 -0.497336,-1.32822 -1.701755,-3.67395 -2.163361,-4.2134 -0.616846,-0.72085 0.508742,-0.46441 3.458282,0.78787 2.486146,1.05556 3.239989,1.55489 3.871296,2.56428 1.293701,2.06849 1.935397,5.4676 2.379018,12.60185 0.24088,3.87379 0.237528,5.0684 -0.01817,6.47583 -0.08734,0.48071 -0.123869,1.01059 -0.08119,1.17752 0.04425,0.17304 -0.09069,0.53019 -0.313924,0.83089 -0.215336,0.29005 -0.439023,0.78919 -0.497079,1.10917 -0.09453,0.521 -0.06141,0.60236 0.316935,0.77868 l 0.422493,0.19689 -0.105679,1.64935 c -0.06514,1.01664 -0.19591,1.79019 -0.340895,2.0165 -0.295676,0.46156 -0.29177,0.85671 0.01254,1.26849 0.233194,0.31553 0.188015,1.08989 -0.08544,1.4645 -0.217274,0.29763 -0.324343,1.03417 -0.164979,1.13492 0.08649,0.0547 0.272309,0.50421 0.412936,0.99897 0.228679,0.80456 0.291782,0.88751 0.597409,0.78523 0.551955,-0.18469 1.054639,-0.12932 1.355694,0.14935 0.198227,0.18348 0.590849,0.26014 1.332316,0.26014 0.578196,0 1.429836,0.0777 1.892532,0.17272 0.930086,0.19097 3.418184,1.16781 3.180721,1.24876 -0.129438,0.0441 -2.160128,-0.3852 -3.371343,-0.71277 l -0.396882,-0.10734 0.327884,0.3894 c 0.7375,0.87584 0.89602,1.27598 0.715417,1.80587 -0.09359,0.27459 -0.170161,1.35055 -0.170161,2.391 0,1.04047 -0.06778,1.96117 -0.150627,2.04601 -0.392018,0.40146 1.251139,4.08466 2.278159,5.10658 1.055094,1.04986 1.565474,1.7655 1.459863,2.047 -0.07593,0.20236 -0.184261,0.17298 -0.622506,-0.16891 -0.71677,-0.55918 -2.287966,-2.82002 -2.726172,-3.92278 -0.195679,-0.49242 -0.418738,-0.88411 -0.495689,-0.87042 -0.07695,0.0137 -0.112447,0.10893 -0.07888,0.21162 0.03357,0.10271 0.119535,1.24621 0.191043,2.54112 0.178219,3.2273 -0.164265,6.23383 -0.892312,7.83327 -0.213702,0.46949 -0.389248,1.08572 -0.3901,1.36942 -0.0014,0.46826 -0.08381,0.55431 -0.893874,0.93363 -0.821831,0.38482 -1.751578,0.51278 -2.246383,0.30916 z"
       id="path1016"       
       sodipodi:nodetypes="cscscsscccccccscscccccccccsssccsccccccsccssccccccccccccssccsscccsccccsccccccsccccccccccsccssscsccsccccccccssccscccccccsccsccccscscsccsccsccccc" />
  </g>
</svg>
