<?xml version="1.0" encoding="UTF-8" standalone="no"?>
<!-- Created with Inkscape (http://www.inkscape.org/) -->

<svg
   xmlns:dc="http://purl.org/dc/elements/1.1/"
   xmlns:cc="http://creativecommons.org/ns#"
   xmlns:rdf="http://www.w3.org/1999/02/22-rdf-syntax-ns#"
   xmlns:svg="http://www.w3.org/2000/svg"
   xmlns="http://www.w3.org/2000/svg"
   xmlns:sodipodi="http://sodipodi.sourceforge.net/DTD/sodipodi-0.dtd"
   width="220"
   height="235"
   viewBox="0 0 58.208332 62.177085"
   version="1.1"
   id="svg8"   
   sodipodi:docname="plate-carrier.svg" >
  <defs
     id="defs2" />
  <sodipodi:namedview
     id="base"
     pagecolor="#000000"
     bordercolor="#666666"
     borderopacity="1.0"
     showgrid="false"
     units="px" />
  <metadata
     id="metadata5">
    <rdf:RDF>
      <cc:Work
         rdf:about="">
        <dc:format>image/svg+xml</dc:format>
        <dc:type
           rdf:resource="http://purl.org/dc/dcmitype/StillImage" />
        <dc:title></dc:title>
      </cc:Work>
    </rdf:RDF>
  </metadata>
  <g     
     id="layer1"
     transform="translate(0,-234.8229)">
    <path
       style="fill:none;stroke:#ffffff;stroke-width:0.4;stroke-opacity:1;stroke-miterlimit:4;stroke-dasharray:none"
       d="m 28.148943,294.68875 c -12.706344,-0.30108 -13.355071,-0.32987 -14.873382,-0.65982 -2.231569,-0.48497 -4.1475436,-1.68624 -4.3032717,-2.69806 -0.031973,-0.20773 -0.1204389,-0.60304 -0.1965919,-0.87845 -0.5853341,-2.11686 -0.8197513,-5.26801 -0.9051961,-12.16806 -0.027624,-2.23081 -0.055171,-4.16005 -0.061216,-4.2872 -0.00604,-0.12715 0.061215,-0.31097 0.1494641,-0.40849 0.088249,-0.0975 0.1608938,-0.33148 0.1614317,-0.51993 0.00212,-0.7479 0.6079435,-1.59024 1.7949644,-2.49583 l 0.3281815,-0.25037 -0.06555,-1.40209 c -0.107642,-2.3024 -0.139544,-9.66251 -0.05151,-11.88404 0.05791,-1.46127 0.124308,-2.15295 0.225938,-2.3535 0.126114,-0.24886 0.12214,-0.50719 -0.0321,-2.08669 -0.09682,-0.99148 -0.203243,-2.09562 -0.236499,-2.45365 -0.1377829,-1.48334 -0.3633288,-3.63002 -0.4233257,-4.0291 -0.080891,-0.53806 -0.3954771,-1.30923 -0.7471374,-1.83152 -0.2879494,-0.42767 -0.4920147,-1.03184 -0.4929341,-1.45942 -4.921e-4,-0.21547 -0.06798,-0.27976 -0.3975303,-0.37849 -0.5581616,-0.16723 -0.6604394,-0.36709 -0.6912361,-1.35077 -0.026409,-0.84354 -0.024396,-0.85131 0.2787958,-1.07548 0.2685029,-0.19851 0.2984783,-0.26906 0.2481164,-0.58401 -0.070944,-0.44366 0.161518,-0.77252 0.8180435,-1.15727 0.4404531,-0.25813 0.4705359,-0.2623 0.7916906,-0.1099 0.1836118,0.0871 0.3762289,0.15841 0.4280377,0.15841 0.1054826,0 0.3262006,-0.66301 0.3262006,-0.97987 0,-0.42651 0.104242,-0.52235 0.568116,-0.52235 0.245596,0 0.522443,0.0406 0.615215,0.0902 0.195609,0.10466 0.770426,0.17588 2.17165,0.26909 1.402971,0.0933 1.360743,0.0862 2.014239,0.33793 1.224259,0.47152 1.225476,0.47231 1.29662,0.85155 0.03666,0.19543 0.03516,0.50151 -0.0034,0.68015 -0.03851,0.17865 -0.105933,1.06843 -0.149832,1.97728 -0.0439,0.90885 -0.111092,1.90032 -0.149316,2.20328 -0.136928,1.08522 0.892437,5.90254 1.947382,9.11352 0.243184,0.7402 0.470533,1.82115 0.42435,2.01763 -0.03726,0.15852 3.697905,0.20652 10.840254,0.13926 4.243357,-0.04 7.850395,-0.0839 8.015641,-0.0976 0.165245,-0.0138 0.808415,-0.032 1.429267,-0.0407 1.072386,-0.0148 1.132972,-0.027 1.211893,-0.241 0.217854,-0.59092 0.451317,-1.32454 0.75693,-2.37854 0.183669,-0.63344 0.539686,-1.80518 0.791148,-2.60387 0.425054,-1.35004 0.809451,-2.88948 1.050297,-4.20624 0.10966,-0.59954 0.09375,-6.12256 -0.01864,-6.4714 -0.131968,-0.4096 0.08323,-0.67363 0.884526,-1.08524 0.74163,-0.38095 0.819437,-0.39865 2.047905,-0.4657 0.702342,-0.0383 1.611312,-0.12302 2.019934,-0.18818 0.408621,-0.0652 0.945748,-0.10346 1.193616,-0.0851 0.420102,0.0311 0.452691,0.054 0.480477,0.33774 0.03136,0.3202 0.420861,0.69101 0.420861,0.40066 0,-0.27387 0.589376,0.11037 1.477193,0.96303 0.256552,0.24639 0.30559,0.79459 0.08729,0.97577 -0.113628,0.0943 -0.0782,0.17443 0.200296,0.45291 0.341134,0.34114 0.385908,0.51169 0.357005,1.35987 -0.02019,0.5926 -0.09973,0.755 -0.45207,0.92301 -0.286195,0.13648 -0.35003,0.23005 -0.40654,0.59589 -0.129974,0.84146 -0.371174,1.42926 -0.714614,1.7415 -0.378946,0.34452 -0.372691,0.31702 -0.94369,4.1506 -0.182179,1.22313 -0.436075,2.71011 -0.846447,4.95732 -0.120868,0.66189 -0.123467,0.82728 -0.01496,0.95141 0.172848,0.19774 0.289898,1.38818 0.403733,4.10615 0.03345,0.79868 0.106352,2.17322 0.162001,3.05453 0.05565,0.88131 0.0904,3.21733 0.07723,5.19115 l -0.02396,3.58878 0.694317,0.33057 c 1.117966,0.53227 1.74588,1.34391 1.74588,2.25668 0,0.22404 0.07455,0.52111 0.165665,0.66018 0.148063,0.22597 0.158829,0.54216 0.101327,2.9759 -0.03539,1.49768 -0.09011,3.84973 -0.121608,5.22677 -0.0315,1.37705 -0.122162,3.16887 -0.201476,3.98183 -0.07931,0.81296 -0.144483,1.73683 -0.144822,2.05305 -3e-4,0.31622 -0.06794,0.70403 -0.150223,0.86179 -0.08228,0.15778 -0.149607,0.38485 -0.149607,0.50462 0,0.11976 -0.092,0.39627 -0.204436,0.61447 -0.112441,0.2182 -0.242971,0.69734 -0.290067,1.06476 -0.108364,0.84537 -0.27877,1.12296 -1.042934,1.69888 -0.815627,0.61471 -1.449783,0.92278 -2.527788,1.22798 -2.033794,0.57579 -3.962468,0.7099 -11.708195,0.81417 -2.313435,0.0312 -4.251312,0.0664 -4.306394,0.0783 -0.05508,0.012 -1.47469,-0.0109 -3.154684,-0.0507 z"
       id="path1029" />       
  </g>
</svg>
