<?xml version="1.0" encoding="UTF-8" standalone="no"?>
<!-- Created with Inkscape (http://www.inkscape.org/) -->

<svg
   xmlns:dc="http://purl.org/dc/elements/1.1/"
   xmlns:cc="http://creativecommons.org/ns#"
   xmlns:rdf="http://www.w3.org/1999/02/22-rdf-syntax-ns#"
   xmlns:svg="http://www.w3.org/2000/svg"
   xmlns="http://www.w3.org/2000/svg"
   xmlns:sodipodi="http://sodipodi.sourceforge.net/DTD/sodipodi-0.dtd"   
   width="220"
   height="235"
   viewBox="0 0 58.208332 62.177085"
   version="1.1"
   id="svg8"   
   sodipodi:docname="1911.svg" >
  <defs
     id="defs2" />
  <sodipodi:namedview
     id="base"
     pagecolor="#000000"
     bordercolor="#666666"
     borderopacity="1.0"
     showgrid="false"
     units="px"
     showguides="false" />
  <metadata
     id="metadata5">
    <rdf:RDF>
      <cc:Work
         rdf:about="">
        <dc:format>image/svg+xml</dc:format>
        <dc:type
           rdf:resource="http://purl.org/dc/dcmitype/StillImage" />
        <dc:title></dc:title>
      </cc:Work>
    </rdf:RDF>
  </metadata>
  <g
     id="layer1"
     transform="translate(0,-234.8229)">
    <path
       style="fill:none;stroke:#fffffd;stroke-width:0.4;stroke-opacity:1;stroke-miterlimit:4;stroke-dasharray:none"
       d="m 38.43254,287.98212 c -0.27333,0.214 -1.068838,0.8205 -1.767797,1.34776 -2.294689,1.73102 -4.053227,3.05939 -5.259484,3.97292 -2.8811,2.18195 -2.896383,2.19292 -3.040109,2.18562 -0.04769,-0.004 -0.246441,-0.0363 -0.441659,-0.075 l -0.35494,-0.0705 -0.08791,-0.22987 c -0.04836,-0.12647 -0.190927,-0.47415 -0.316848,-0.77275 -0.125921,-0.2985 -0.245085,-0.59673 -0.264802,-0.66269 -0.01973,-0.0659 -0.04482,-0.1309 -0.05579,-0.14431 -0.02577,-0.0316 -0.06749,-0.12523 -0.19366,-0.43485 -0.05661,-0.13898 -0.122605,-0.27234 -0.146662,-0.29642 -0.02405,-0.0238 -0.03089,-0.0565 -0.01516,-0.0722 0.01572,-0.0156 0.01612,-0.0412 0.0015,-0.0563 -0.01523,-0.015 -0.09681,-0.19735 -0.181302,-0.40466 -0.08451,-0.20732 -0.221096,-0.52819 -0.303556,-0.71301 -0.08245,-0.18477 -0.151367,-0.35897 -0.153123,-0.38704 -0.0029,-0.0283 -0.02118,-0.0693 -0.04318,-0.0911 -0.02201,-0.0222 -0.06222,-0.0988 -0.08936,-0.17078 -0.159503,-0.42241 -0.294628,-0.73651 -0.339169,-0.78823 -0.02803,-0.0328 -0.04188,-0.0686 -0.03078,-0.0795 0.01112,-0.0118 -0.0253,-0.10975 -0.08089,-0.21924 -0.05562,-0.10943 -0.104676,-0.22118 -0.109033,-0.24827 -0.0049,-0.0273 -0.03281,-0.10152 -0.0632,-0.16544 -0.03038,-0.0639 -0.118087,-0.27111 -0.194857,-0.46038 -0.07678,-0.1893 -0.14808,-0.3527 -0.158467,-0.3631 -0.01037,-0.0108 -0.05324,-0.11001 -0.09518,-0.22133 -0.04197,-0.1114 -0.08201,-0.20972 -0.08898,-0.21845 -0.01325,-0.0167 -0.211986,-0.48667 -0.299851,-0.70925 -0.02805,-0.071 -0.05831,-0.13642 -0.0672,-0.14532 -0.0089,-0.01 -0.08957,-0.1945 -0.17921,-0.41242 -0.08966,-0.21786 -0.190904,-0.4583 -0.225025,-0.53424 -0.109497,-0.24365 -0.304947,-0.69019 -0.356782,-0.81513 -0.02765,-0.0666 -0.09244,-0.2077 -0.143916,-0.31339 -0.05149,-0.10576 -0.118609,-0.26613 -0.149143,-0.35645 -0.03053,-0.0904 -0.06633,-0.17511 -0.07956,-0.18833 -0.0132,-0.0134 -0.04521,-0.0752 -0.07116,-0.13781 -0.05581,-0.13475 -0.05017,-0.12323 -0.127802,-0.26121 -0.03384,-0.0603 -0.06153,-0.14388 -0.06153,-0.18602 0,-0.0423 -0.02406,-0.0826 -0.05347,-0.0901 -0.04039,-0.0108 -0.03536,-0.0155 0.02042,-0.022 0.04843,-0.009 0.113504,-0.0627 0.188899,-0.16563 0.174636,-0.23849 0.137968,-0.25453 -0.08551,-0.0374 -0.110286,0.10718 -0.279574,0.25717 -0.376185,0.33332 -0.160914,0.12681 -0.18813,0.13407 -0.324254,0.0869 -0.08172,-0.0286 -0.166742,-0.0849 -0.188912,-0.12549 -0.02217,-0.0408 -0.172485,-0.4564 -0.334029,-0.92366 -0.161544,-0.46728 -0.341862,-0.98153 -0.400714,-1.14278 -0.05886,-0.16125 -0.174648,-0.48276 -0.25733,-0.7145 -0.359661,-1.00798 -0.46542,-1.22156 -0.814039,-1.64415 -0.213828,-0.25913 -0.622383,-0.58032 -1.008135,-0.79256 -0.308595,-0.1698 -0.650234,-0.2818 -0.665269,-0.21811 -0.0049,0.0228 -0.02066,0.0175 -0.03391,-0.0127 -0.03287,-0.0738 -0.503129,-0.12729 -0.919697,-0.10452 -0.394363,0.0218 -0.927371,0.18303 -1.29968,0.39376 -0.15944,0.0903 -0.546121,0.38953 -1.018404,0.78825 -1.196224,1.0098 -1.271783,1.06079 -1.551194,1.04686 -0.06226,-0.005 -0.116223,0.01 -0.119922,0.0228 -0.0046,0.0156 -0.03746,0.006 -0.07504,-0.0264 -0.03759,-0.0302 -0.138606,-0.10912 -0.224506,-0.17546 -0.09758,-0.0752 -0.156188,-0.1444 -0.156188,-0.18396 -1e-6,-0.0346 -0.01993,-0.0832 -0.04429,-0.10764 -0.138799,-0.13886 -0.248015,-0.90082 -0.15488,-1.08057 0.01939,-0.0374 0.02536,-0.0778 0.01324,-0.0901 -0.01211,-0.0123 0.01377,-0.12647 0.05751,-0.25418 0.137996,-0.40277 0.496608,-0.92224 1.168523,-1.6925 0.131829,-0.15117 0.261351,-0.33275 0.287813,-0.40355 0.02646,-0.0708 0.132487,-0.26433 0.235603,-0.43014 0.229808,-0.36958 0.295413,-0.54083 0.346965,-0.90581 0.04775,-0.33804 0.02447,-0.57982 -0.08957,-0.92945 -0.09485,-0.29079 -0.149647,-0.37003 -0.595036,-0.86047 -0.172095,-0.18949 -0.362925,-0.40837 -0.424065,-0.48642 -0.06113,-0.078 -0.117767,-0.15006 -0.125838,-0.15999 -0.0078,-0.0106 -0.03019,-0.0285 -0.04906,-0.0409 -0.01893,-0.0127 -0.09722,-0.0886 -0.173999,-0.16903 -0.120457,-0.12618 -0.189875,-0.15861 -0.506512,-0.23666 -0.201806,-0.0498 -0.379702,-0.0708 -0.395322,-0.0463 -0.01561,0.0242 -0.03289,0.0251 -0.03835,0.003 -0.01316,-0.0558 -0.148555,-0.0421 -0.151387,0.0152 -0.0014,0.0245 -0.0082,0.0224 -0.01578,-0.008 -0.01744,-0.0635 -0.169195,-0.0549 -0.61129,0.035 -0.732342,0.14933 -1.199722,0.31641 -1.714896,0.61302 -0.1552067,0.0895 -0.3303352,0.18324 -0.389172,0.20855 -0.1469354,0.0633 -0.4444609,0.005 -0.5614244,-0.11425 -0.1180131,-0.118 -0.1894038,-0.39621 -0.1156142,-0.45053 0.02972,-0.0223 0.065871,-0.0809 0.080349,-0.13112 0.039801,-0.13815 0.3301192,-0.49977 0.4567369,-0.56895 0.061002,-0.0334 0.1654006,-0.0789 0.2319939,-0.10134 0.066592,-0.0225 0.1351,-0.0548 0.15224,-0.0719 0.017132,-0.0172 0.073821,-0.0332 0.1259628,-0.0358 0.05214,-0.004 0.116731,-0.0214 0.143536,-0.0412 0.0268,-0.0202 0.0799,-0.04 0.117989,-0.0442 0.08139,-0.01 0.233082,-0.10027 0.399187,-0.23919 0.06534,-0.0546 0.134022,-0.0994 0.152634,-0.0994 0.01863,0 0.03652,-0.0289 0.0398,-0.0639 0.0035,-0.0351 0.06076,-0.15738 0.127753,-0.27155 0.06698,-0.11418 0.175762,-0.40244 0.241707,-0.64055 0.130371,-0.47069 0.233423,-0.62163 0.498732,-0.73055 l 0.137675,-0.0565 -0.169031,-0.49144 c -0.09295,-0.27032 -0.199198,-0.62503 -0.236069,-0.78834 -0.05788,-0.25625 -0.0554,-0.3085 0.01803,-0.38194 0.04679,-0.0468 0.09589,-0.12082 0.109122,-0.16454 0.01324,-0.0436 0.299501,-0.35747 0.636153,-0.6973 l 0.612083,-0.61776 -0.130543,-0.27993 c -0.09917,-0.21267 -0.184254,-0.33359 -0.354079,-0.5032 -0.336101,-0.33568 -0.339234,-0.31407 0.106223,-0.73374 0.207257,-0.19523 0.397379,-0.36519 0.422503,-0.37765 0.02512,-0.0126 0.102425,0.0186 0.171788,0.0687 0.06938,0.0503 0.160616,0.10144 0.202775,0.11389 0.04216,0.0125 0.160176,0.1061 0.262254,0.20821 0.102082,0.10206 0.256349,0.21589 0.342816,0.25297 l 0.15721,0.0673 1.217592,-1.19361 c 0.669676,-0.65643 2.357514,-2.3284 3.750759,-3.71545 1.39324,-1.38702 2.5688,-2.54325 2.61235,-2.56932 0.05035,-0.0304 0.113764,-0.0243 0.174071,0.0157 0.09278,0.0619 0.100716,0.0585 0.360164,-0.16703 1.275143,-0.91577 1.469443,-1.20966 2.31302,-2.04964 1.100726,-1.09639 1.243003,-1.22829 1.249464,-1.1588 -5.77e-4,-0.01 0.03993,-0.0246 0.03891,-0.0391 -0.02253,-0.0507 0.08032,-0.16614 0.69604,-0.78213 0.41719,-0.41738 0.757981,-0.78391 0.806514,-0.86743 0.118031,-0.20309 0.206487,-0.4545 0.215729,-0.61317 l 0.0076,-0.13505 3.262019,-3.22638 c 10.990188,-10.87018 10.109729,-9.99061 10.076227,-10.06588 -0.01685,-0.0378 -0.05276,-0.0739 -0.07974,-0.0805 -0.02769,-0.01 -0.02748,-0.0167 4.29e-4,-0.0231 0.02965,-0.01 0.02046,-0.0573 -0.02279,-0.12488 -0.111354,-0.17402 -0.272272,-0.59185 -0.263663,-0.68459 0.0075,-0.0838 0.199388,-0.27216 1.343292,-1.31986 0.529352,-0.48488 0.516966,-0.48347 0.898384,-0.10205 0.295822,0.29583 0.300329,0.29858 0.367071,0.23182 0.136291,-0.13624 0.530209,-0.0953 0.802827,0.0832 0.09403,0.0617 0.117752,0.0567 0.257054,-0.0537 0.175433,-0.13901 0.311588,-0.14107 0.547872,-0.01 0.08049,0.0452 0.233301,0.11112 0.339605,0.14631 0.322247,0.10664 0.623809,0.33748 1.214199,0.92952 0.410212,0.41132 0.589044,0.61553 0.734005,0.8381 0.10992,0.16876 0.454618,0.58817 0.808258,0.98349 0.633563,0.70823 0.66361,0.75602 0.541662,0.86109 -0.02533,0.0221 -0.06989,0.0673 -0.09896,0.10114 -0.05077,0.0588 -0.04808,0.0611 0.06614,0.0508 0.06548,-0.01 0.114703,0.01 0.109358,0.0306 -0.01046,0.0442 0.166084,0.31675 0.226925,0.35012 0.08816,0.0485 0.321836,0.28326 0.314189,0.31567 -0.0049,0.0199 0.04385,0.0791 0.107701,0.1321 0.07719,0.0639 0.138554,0.16409 0.18301,0.29827 0.03678,0.11102 0.08191,0.20189 0.100248,0.20189 0.01834,0 4.56e-4,0.033 -0.03968,0.0729 -0.061,0.061 -0.05949,0.0929 0.0091,0.19317 0.151925,0.22216 0.227969,0.47372 0.184481,0.61036 -0.03686,0.11577 -0.395688,0.48471 -3.179783,3.26917 -1.72603,1.72625 -3.21685,3.23365 -3.312945,3.34977 -0.143783,0.17382 -0.165745,0.22015 -0.12405,0.26186 0.06121,0.0612 0.211645,0.42766 0.198477,0.48349 -0.0049,0.0219 -1.540165,1.57867 -3.41112,3.45953 -1.87095,1.88092 -3.506858,3.54623 -3.635345,3.70068 -0.37332,0.4489 -0.569864,0.82533 -0.695746,1.33249 -0.06219,0.25065 -0.07054,0.38763 -0.02371,0.39 0.02372,0.002 0.01989,0.01 -0.0084,0.016 -0.0802,0.0221 -0.03166,0.65833 0.0727,0.95323 0.176933,0.50001 0.362052,0.75743 1.015276,1.41161 0.50181,0.50254 0.611659,0.62984 0.754813,0.87443 0.569559,0.97327 0.709698,1.99676 0.407424,2.97547 -0.142608,0.46173 -0.300551,0.76566 -0.572603,1.10177 -0.129547,0.16005 -1.157397,1.21334 -2.284115,2.34058 -1.747468,1.74836 -2.070686,2.08467 -2.198934,2.28866 -0.273774,0.43532 -0.465012,0.92606 -0.541065,1.38847 -0.04657,0.28302 -0.06062,0.90892 -0.02618,1.16483 0.01317,0.0979 0.02418,0.21221 0.02444,0.25398 0.0038,0.37927 0.25679,1.15251 0.57797,1.75646 0.11462,0.21557 0.229395,0.43518 0.255079,0.48815 0.0673,0.13872 0.447837,0.85684 0.480627,0.90699 0.01522,0.0233 0.03917,0.0695 0.05317,0.10269 0.01403,0.0332 0.08386,0.1691 0.155232,0.30207 0.07136,0.13301 0.258085,0.48653 0.414931,0.78559 0.156851,0.29908 0.534249,1.01499 0.838666,1.5909 0.805166,1.52336 0.794698,1.50349 0.986271,1.87205 0.09677,0.18618 0.270498,0.51411 0.386038,0.72878 0.115544,0.21456 0.244443,0.45862 0.286443,0.54245 0.04202,0.0835 0.178973,0.34549 0.304376,0.58167 0.125405,0.2362 0.343426,0.64845 0.484499,0.91609 0.141068,0.26769 0.35048,0.66281 0.465361,0.87808 0.373534,0.69989 0.582558,1.09563 0.733212,1.3882 0.08131,0.15794 0.154466,0.29374 0.162518,0.30181 0.0079,0.01 0.07139,-0.0253 0.140733,-0.0737 0.337503,-0.23633 0.548683,-0.20645 0.618245,0.0874 0.03539,0.1495 0.03446,0.15132 -0.18951,0.36906 -0.123786,0.12033 -0.448709,0.39389 -0.722043,0.60793 z M 36.462852,265.8372 c 0.52826,-0.78235 0.658494,-1.63071 0.387068,-2.52147 -0.230923,-0.75775 -1.124226,-1.58103 -2.052141,-1.89115 -0.874951,-0.29244 -1.470778,-0.22992 -2.254532,0.23668 -0.312467,0.18604 -0.38153,0.24851 -1.576184,1.42575 -0.988966,0.97452 -1.278464,1.27694 -1.38908,1.45047 -0.127615,0.20036 -0.131216,0.21654 -0.04169,0.18699 0.128786,-0.0425 0.200483,0.0543 0.281563,0.37959 0.236936,0.95077 1.063594,2.13607 1.843654,2.64341 0.301885,0.19635 0.795399,0.44677 1.024305,0.51967 0.09538,0.0304 0.180495,0.0611 0.189156,0.0682 0.0086,0.01 0.137729,0.0452 0.286813,0.0848 0.330228,0.0876 0.450105,0.14917 0.458108,0.23523 0.0087,0.0942 0.109279,0.004 1.441678,-1.31636 1.058106,-1.04728 1.189399,-1.18809 1.401264,-1.50173 z"
       id="path885"       
       sodipodi:nodetypes="cccccccccccssssccsccsccscscccscccccscsccccccccccsscccscccccccccsccccccccccccccccccssccscsscccscccccccscccscccccsccsccsccccscccsccccccssccccccscccccccccsccccscsccccscsccccccccccccssscscscssccccccsssccccscccccc" />
  </g>
</svg>
