<?xml version="1.0" encoding="UTF-8" standalone="no"?>
<!-- Created with Inkscape (http://www.inkscape.org/) -->

<svg
   xmlns:dc="http://purl.org/dc/elements/1.1/"
   xmlns:cc="http://creativecommons.org/ns#"
   xmlns:rdf="http://www.w3.org/1999/02/22-rdf-syntax-ns#"
   xmlns:svg="http://www.w3.org/2000/svg"
   xmlns="http://www.w3.org/2000/svg"
   xmlns:sodipodi="http://sodipodi.sourceforge.net/DTD/sodipodi-0.dtd"   
   width="220"
   height="235"
   viewBox="0 0 58.208332 62.177085"
   version="1.1"
   id="svg8"   
   sodipodi:docname="cz p-09.svg" >
  <defs
     id="defs2" />
  <sodipodi:namedview
     id="base"
     pagecolor="#000000"
     bordercolor="#666666"
     borderopacity="1.0"
     showgrid="false"
     units="px"
     showguides="false" />
  <metadata
     id="metadata5">
    <rdf:RDF>
      <cc:Work
         rdf:about="">
        <dc:format>image/svg+xml</dc:format>
        <dc:type
           rdf:resource="http://purl.org/dc/dcmitype/StillImage" />
        <dc:title></dc:title>
      </cc:Work>
    </rdf:RDF>
  </metadata>
  <g
     id="layer1"
     transform="translate(0,-234.8229)">
    <path
       style="fill:none;stroke:#fffffd;stroke-width:0.4;stroke-opacity:1;stroke-miterlimit:4;stroke-dasharray:none"
       d="m 32.811257,294.62963 c -0.396557,0.0481 -1.093923,-0.54693 -1.422143,-1.2135 -0.09978,-0.20264 -0.195305,-0.38232 -0.212273,-0.39929 -0.01697,-0.017 -0.120113,0.0584 -0.229211,0.16751 l -0.198358,0.19836 0.184005,0.35835 c 0.129456,0.25211 0.181953,0.43159 0.177084,0.60541 -0.0122,0.4354 -0.3375,0.75956 -0.75563,0.75308 -0.282991,-0.004 -0.49706,-0.11035 -0.765515,-0.3788 -0.177679,-0.17768 -0.203837,-0.18722 -0.349016,-0.12708 -0.246358,0.10205 -0.337732,0.0708 -0.591379,-0.20231 -0.14199,-0.15287 -0.24574,-0.23332 -0.269819,-0.20924 -0.03876,0.0387 -0.274849,-0.23534 -0.346183,-0.40189 -0.0185,-0.0432 -0.241757,-0.35858 -0.496113,-0.70081 -0.327996,-0.44132 -0.492039,-0.62952 -0.564179,-0.64726 -0.07551,-0.0186 -0.1034,-0.0588 -0.10826,-0.1563 -0.0084,-0.16932 -0.328197,-0.6872 -0.439751,-0.71223 -0.120598,-0.0271 -0.138443,-0.0546 -0.13473,-0.20798 0.0042,-0.17214 -0.253072,-0.63895 -0.40966,-0.74339 -0.07962,-0.0531 -0.117572,-0.12425 -0.117138,-0.2195 7.4e-4,-0.16014 -0.267608,-0.69552 -0.35948,-0.7172 -0.08839,-0.0209 -0.170011,-0.20273 -0.115467,-0.25727 0.06205,-0.062 -0.207075,-0.59008 -0.370268,-0.72648 -0.09775,-0.0817 -0.11686,-0.13072 -0.07929,-0.20324 0.06004,-0.11587 -0.177754,-0.61234 -0.368811,-0.77001 -0.09768,-0.0806 -0.117686,-0.12981 -0.08133,-0.19998 0.05865,-0.11319 -0.180852,-0.61512 -0.368263,-0.77177 -0.09668,-0.0808 -0.116785,-0.13087 -0.08058,-0.20073 0.05607,-0.1082 -0.17838,-0.61517 -0.348581,-0.75376 -0.07005,-0.0571 -0.102103,-0.1329 -0.08887,-0.21035 0.02481,-0.14529 -0.206402,-0.6397 -0.355238,-0.75962 -0.06467,-0.0521 -0.103292,-0.14098 -0.09896,-0.22776 0.0087,-0.17412 -0.204834,-0.61444 -0.334869,-0.69056 -0.05683,-0.0333 -0.09498,-0.11147 -0.09499,-0.19468 2e-6,-0.21375 -0.248222,-0.76091 -0.359432,-0.79231 -0.06745,-0.019 -0.09169,-0.0745 -0.0876,-0.20023 0.0069,-0.2114 -0.218038,-0.67573 -0.371976,-0.7679 -0.08042,-0.0482 -0.105681,-0.10285 -0.08948,-0.1945 0.02739,-0.15546 -0.228108,-0.69847 -0.368423,-0.78303 -0.07015,-0.0423 -0.09627,-0.10879 -0.08437,-0.21485 0.02062,-0.18369 -0.169865,-0.63157 -0.325853,-0.76617 -0.07203,-0.0622 -0.09795,-0.12638 -0.07333,-0.18166 0.05148,-0.11559 -0.189637,-0.74424 -0.313181,-0.81657 -0.06792,-0.0398 -0.088,-0.0975 -0.06555,-0.18841 0.03967,-0.16071 -0.142363,-0.7417 -0.273461,-0.87279 -0.05266,-0.0527 -0.0804,-0.13022 -0.06164,-0.17234 0.01876,-0.0421 0.01,-0.17536 -0.0195,-0.29608 -0.02949,-0.12072 -0.05105,-0.23889 -0.04793,-0.26258 0.01436,-0.1089 -0.317505,-0.76974 -0.531719,-1.05881 -0.307245,-0.4146 -0.766009,-0.72461 -1.393595,-0.94171 -0.489111,-0.16921 -0.923941,-0.19644 -1.422509,-0.0891 -0.65366,0.14072 -1.002453,0.33295 -1.71748,0.94657 -0.325835,0.27962 -0.627695,0.49356 -0.884401,0.6268 -0.478634,0.24844 -1.17805,0.42395 -1.390888,0.34903 -0.210408,-0.0741 -0.362627,-0.30902 -0.378069,-0.58356 l -0.01246,-0.22156 0.609216,-0.61772 c 0.582185,-0.59033 0.617713,-0.63632 0.800844,-1.03675 0.40201,-0.87901 0.432719,-1.58671 0.109397,-2.52107 -0.158307,-0.45749 -0.214459,-0.55814 -0.469329,-0.84125 l -0.289505,-0.32158 -1.314958,-0.32936 -1.314956,-0.32937 -0.224832,-0.26141 c -0.2790936,-0.32452 -0.4251106,-0.58953 -0.4251126,-0.77155 0,-0.11486 0.04745,-0.18272 0.2673396,-0.38237 0.147041,-0.1335 0.270405,-0.23966 0.274153,-0.23591 0.0124,0.0124 0.452351,-0.36531 0.601813,-0.51669 0.08073,-0.0819 0.18686,-0.15246 0.235736,-0.157 0.06825,-0.006 0.06988,-0.0272 0.007,-0.0901 -0.101363,-0.10136 -0.166996,-0.30214 -0.136807,-0.41853 0.01495,-0.0576 5.99e-4,-0.0823 -0.0422,-0.0722 -0.03861,0.009 -0.250826,-0.16158 -0.52377,-0.42128 l -0.45886,-0.43661 0.228479,-0.22037 c 0.198917,-0.19185 1.229928,-0.93518 2.80074,-2.01924 0.457195,-0.31552 0.465041,-0.31846 0.799838,-0.30022 0.185962,0.0101 0.359907,0.0387 0.386544,0.0635 0.03802,0.0354 0.444966,-0.35018 1.893534,-1.79409 3.127793,-3.11772 6.163731,-6.05979 6.26472,-6.071 0.09333,-0.0104 2.129663,-1.9505 3.918844,-3.73372 0.829265,-0.82643 0.895778,-0.90321 0.878674,-1.01346 -0.01785,-0.11504 0.20337,-0.34115 6.223124,-6.36091 3.432896,-3.43289 6.241655,-6.26283 6.241687,-6.28874 2.9e-5,-0.0259 -0.120344,-0.17439 -0.2675,-0.32995 l -0.267548,-0.28285 0.308942,-0.28952 c 0.169919,-0.15923 0.426557,-0.38668 0.5703,-0.50544 0.33958,-0.28057 0.549067,-0.29341 0.983907,-0.0603 0.321996,0.1726 0.700987,0.33888 1.143887,0.50187 0.224549,0.0826 0.314769,0.15929 1.031338,0.87625 0.60981,0.6101 0.834842,0.86429 1.007117,1.1374 0.126031,0.1998 0.283585,0.39287 0.364787,0.447 0.07862,0.0524 0.26157,0.25764 0.406571,0.45606 0.236349,0.32343 0.292178,0.37565 0.539444,0.50459 0.361365,0.18843 1.018222,0.87577 1.029525,1.0773 0.004,0.0713 0.09259,0.23889 0.196859,0.3724 0.104274,0.13352 0.224761,0.34967 0.267747,0.48033 0.06462,0.19643 0.05913,0.26067 -0.03169,0.37087 l -0.109844,0.13328 0.287367,0.28765 c 0.216517,0.21674 0.298601,0.33398 0.332928,0.47558 0.05313,0.21916 -0.01276,0.33169 -0.473428,0.8085 -0.386155,0.3997 -0.705518,0.53691 -0.896614,0.38522 -0.111621,-0.0886 -0.122392,-0.0844 -0.339693,0.13291 l -0.224423,0.22442 0.163058,0.22968 0.163054,0.22969 -0.393543,0.39354 c -0.354035,0.35404 -0.419375,0.40029 -0.650882,0.46071 -0.208843,0.0545 -0.277587,0.0469 -0.364781,-0.0403 -0.105866,-0.10587 -0.111163,-0.1041 -0.360172,0.1202 l -0.252724,0.22764 0.168346,0.25059 0.168345,0.25059 -0.358803,0.40536 c -0.348988,0.39427 -0.365519,0.40658 -0.604373,0.44989 -0.135064,0.0245 -0.268087,0.0322 -0.295607,0.0171 -0.02752,-0.0151 -0.107453,-0.0641 -0.17763,-0.10903 -0.12491,-0.0799 -0.132238,-0.0765 -0.348378,0.16136 l -0.220778,0.243 0.155993,0.21804 c 0.08579,0.11993 0.156159,0.24925 0.156364,0.28737 2e-4,0.0381 -0.153358,0.23718 -0.341252,0.44233 -0.335293,0.36609 -0.347715,0.37449 -0.669951,0.45353 -0.290823,0.0713 -0.342373,0.0665 -0.451333,-0.0425 l -0.12301,-0.12302 -0.224423,0.22443 -0.224422,0.22442 0.126238,0.12624 c 0.06943,0.0694 0.168925,0.19027 0.2211,0.26853 l 0.09486,0.14229 -0.441242,0.39032 c -0.601358,0.53195 -0.853506,0.61391 -1.107428,0.35999 -0.0869,-0.0869 -0.100545,-0.0804 -0.347899,0.167 l -0.25745,0.25745 0.129592,0.11353 c 0.07128,0.0624 0.153877,0.18532 0.18356,0.27307 l 0.05397,0.15953 -1.497073,1.47058 -1.497073,1.47058 -0.119448,0.3294 c -0.139884,0.38576 -0.156937,0.65514 -0.06165,0.97381 0.06682,0.22345 0.117572,0.28015 1.695945,1.89481 0.894884,0.91545 1.755813,1.77136 1.913176,1.90201 0.157523,0.13077 0.445168,0.30553 0.640007,0.38883 0.399659,0.17086 0.490258,0.27942 0.448504,0.53743 -0.02682,0.16573 -0.130385,0.27619 -2.633409,2.80874 l -2.605492,2.63623 -1.215994,0.61679 c -2.243993,1.13822 -2.341679,1.19212 -2.652791,1.4636 -0.328698,0.28683 -0.469394,0.51602 -0.653163,1.06397 -0.191798,0.57189 -0.09063,1.28947 0.270165,1.91628 0.06764,0.11751 0.144811,0.2848 0.171493,0.37176 0.02668,0.087 0.09095,0.18009 0.142818,0.20696 0.06019,0.0312 0.08444,0.0838 0.06707,0.14532 -0.01498,0.053 0.02085,0.14963 0.07963,0.21463 0.05878,0.065 0.111568,0.16881 0.117319,0.23069 0.0058,0.0619 0.05674,0.15869 0.113302,0.21515 0.05655,0.0565 0.112856,0.15903 0.125094,0.22795 0.01224,0.0689 0.05024,0.1533 0.08446,0.18752 0.03422,0.0342 0.08528,0.13557 0.11347,0.22522 0.02819,0.0897 0.07869,0.19065 0.112211,0.22442 0.03354,0.0338 0.08357,0.13281 0.111214,0.22006 0.02764,0.0873 0.07314,0.16405 0.101096,0.17065 0.02796,0.007 0.07249,0.10375 0.09897,0.21589 0.02711,0.11484 0.08567,0.22061 0.13409,0.24218 0.04888,0.0218 0.08133,0.0817 0.07524,0.13891 -0.0117,0.10992 0.207861,0.56413 0.333366,0.68963 0.04314,0.0431 0.09247,0.14575 0.109602,0.22802 0.01825,0.0876 0.07296,0.17123 0.132116,0.20188 0.05553,0.0288 0.0857,0.0676 0.06704,0.0862 -0.04542,0.0454 0.05651,0.3109 0.125628,0.32722 0.03008,0.007 0.06763,0.0992 0.08344,0.20478 0.0169,0.11276 0.0642,0.20765 0.114724,0.23015 0.0495,0.0221 0.09417,0.10699 0.105309,0.20021 0.01165,0.0975 0.05905,0.18517 0.119118,0.22034 0.06426,0.0376 0.09011,0.0926 0.0726,0.15464 -0.01656,0.0586 0.02032,0.14374 0.0944,0.21781 0.06686,0.0669 0.121572,0.16149 0.121572,0.21027 10e-7,0.12508 0.275529,0.63298 0.364995,0.67283 0.04091,0.0182 0.06654,0.0836 0.05696,0.14536 -0.0096,0.0617 0.03124,0.16604 0.09071,0.23181 0.05947,0.0658 0.113292,0.16123 0.119602,0.21214 0.01866,0.15057 0.08995,0.26784 0.15368,0.25279 0.03382,-0.008 0.06685,0.0721 0.07663,0.18562 0.01066,0.12382 0.05287,0.22054 0.111113,0.25464 0.05372,0.0315 0.09392,0.10922 0.09392,0.18168 0,0.0739 0.04305,0.15594 0.103233,0.1968 0.06435,0.0437 0.100698,0.12093 0.0965,0.20508 -0.0047,0.0951 0.02899,0.15784 0.114221,0.21237 0.07974,0.051 0.117607,0.11342 0.111128,0.18311 -0.0054,0.0581 0.02624,0.14177 0.07031,0.18584 0.04407,0.0441 0.108953,0.17553 0.144176,0.29212 0.04148,0.13729 0.08629,0.20675 0.127159,0.1971 0.04092,-0.01 0.06524,0.0277 0.06916,0.10626 0.01873,0.37551 0.848882,1.59149 1.574502,2.30627 l 0.349561,0.34434 -0.04984,0.24487 c -0.02741,0.13468 -0.04409,0.25062 -0.03707,0.25764 0.007,0.007 0.08628,-0.0106 0.176132,-0.0392 0.08985,-0.0286 0.193072,-0.0384 0.229387,-0.0218 0.03631,0.0166 0.315683,0.30238 0.620821,0.63497 0.603462,0.65777 0.651508,0.74784 0.574888,1.07782 -0.115611,0.49791 -0.443184,0.8601 -4.452343,4.92281 -1.175045,1.19074 -2.151581,2.20034 -2.170085,2.24356 -0.0185,0.0432 -0.100004,0.0866 -0.181129,0.0965 z m -2.138969,-0.32402 c 0.03739,-0.19952 0.02321,-0.27141 -0.07278,-0.36881 -0.112032,-0.11372 -0.295249,-0.0841 -0.514279,0.083 -0.370997,0.28314 -0.219152,0.73589 0.220809,0.65838 0.188559,-0.0332 0.32952,-0.17663 0.366249,-0.37261 z m 7.662675,-31.42218 c 0.109214,-0.28805 0.111937,-0.64674 0.0074,-0.96999 -0.08532,-0.26375 -0.08616,-0.26469 -1.531944,-1.72218 -1.609944,-1.62298 -1.583887,-1.60305 -2.131615,-1.63084 -0.519253,-0.0263 -0.561156,0.006 -2.111941,1.60634 -1.593765,1.64517 -1.475201,1.4102 -1.096861,2.1738 0.32949,0.665 0.72352,1.07273 1.464183,1.51507 0.878098,0.52442 1.314476,0.61415 1.957547,0.40253 0.372923,-0.12272 0.65053,-0.10712 0.769052,0.0432 0.105506,0.13382 0.02331,0.27273 -0.31236,0.52785 -0.393121,0.2988 -0.862465,0.41078 -1.409832,0.33639 -0.616495,-0.0838 -0.914236,-0.19422 -1.56909,-0.58197 -0.669133,-0.3962 -1.016927,-0.72161 -1.19504,-1.11813 -0.18923,-0.42127 -0.233483,-0.44455 -0.90701,-0.47707 l -0.609004,-0.0294 -0.503475,0.54399 c -0.675057,0.72939 -0.777671,0.91188 -0.783396,1.39317 l -0.0046,0.38478 0.711335,1.39215 c 0.77342,1.51366 0.921783,1.72195 1.334423,1.87342 0.399412,0.14661 0.581297,0.1026 1.427158,-0.34536 0.427951,-0.22664 1.159332,-0.60311 1.625289,-0.83661 0.465958,-0.23349 0.936873,-0.48634 1.046479,-0.56188 0.109607,-0.0755 0.996182,-0.93946 1.970168,-1.91982 1.617964,-1.62854 1.777992,-1.8012 1.853149,-1.99944 z m -26.233024,6.4952 c -0.161948,-0.27158 -0.312214,-0.53368 -0.333925,-0.58243 -0.07259,-0.163 -0.353746,-0.11159 -0.640903,0.1172 -0.338807,0.26994 -0.410862,0.45393 -0.252807,0.64555 0.0894,0.1084 0.228478,0.16339 0.669757,0.26482 0.646453,0.14859 0.793637,0.16603 0.827615,0.0981 0.0136,-0.0272 -0.107792,-0.27163 -0.269737,-0.54322 z"
       id="path1052" />       
  </g>
</svg>
