<?xml version="1.0" encoding="UTF-8" standalone="no"?>
<!-- Created with Inkscape (http://www.inkscape.org/) -->

<svg
   xmlns:dc="http://purl.org/dc/elements/1.1/"
   xmlns:cc="http://creativecommons.org/ns#"
   xmlns:rdf="http://www.w3.org/1999/02/22-rdf-syntax-ns#"
   xmlns:svg="http://www.w3.org/2000/svg"
   xmlns="http://www.w3.org/2000/svg"
   xmlns:sodipodi="http://sodipodi.sourceforge.net/DTD/sodipodi-0.dtd"
   width="220"
   height="235"
   viewBox="0 0 58.208332 62.177085"
   version="1.1"
   id="svg8"
   sodipodi:docname="cz-shadow-2.svg">
  <defs
     id="defs2" />
  <sodipodi:namedview
     id="base"
     pagecolor="#000000"
     bordercolor="#666666"
     borderopacity="1.0"
     showgrid="false"
     units="px"/>
  <metadata
     id="metadata5">
    <rdf:RDF>
      <cc:Work
         rdf:about="">
        <dc:format>image/svg+xml</dc:format>
        <dc:type
           rdf:resource="http://purl.org/dc/dcmitype/StillImage" />
        <dc:title></dc:title>
      </cc:Work>
    </rdf:RDF>
  </metadata>
  <g
     id="layer1"
     transform="translate(0,-234.8229)">
    <path
       style="fill:none;stroke:#ffffff;stroke-width:0.4;stroke-opacity:1;stroke-miterlimit:4;stroke-dasharray:none"
       d="m 31.273842,295.32882 c -0.06027,-0.006 -0.239895,-0.1186 -0.399153,-0.25112 -0.23271,-0.19363 -0.338325,-0.32303 -0.537921,-0.65902 -0.30212,-0.50859 -0.271299,-0.47738 -0.404205,-0.40926 -0.104358,0.0535 -0.105725,0.0494 -0.02762,-0.0829 0.072,-0.12201 0.07074,-0.1289 -0.01017,-0.0557 -0.05079,0.046 -0.167884,0.12818 -0.260209,0.18265 -0.09233,0.0545 -0.312257,0.18714 -0.488739,0.29481 -0.176481,0.10769 -0.474132,0.25136 -0.661442,0.31926 -0.427046,0.15481 -1.18735,0.1882 -1.437082,0.0631 -0.211932,-0.10615 -0.821801,-0.7246 -1.083455,-1.09869 -0.09816,-0.14034 -0.251707,-0.30723 -0.341207,-0.37085 -0.09884,-0.0702 -0.156782,-0.14087 -0.147584,-0.17984 0.0083,-0.0353 -0.03533,-0.0944 -0.09701,-0.1313 -0.07875,-0.0471 -0.101326,-0.0915 -0.0758,-0.1488 0.02435,-0.0547 0.0024,-0.10195 -0.06612,-0.14302 -0.06318,-0.0379 -0.09868,-0.10222 -0.09259,-0.16784 0.0068,-0.0742 -0.01503,-0.10879 -0.07219,-0.11411 -0.0576,-0.005 -0.08015,-0.0465 -0.07559,-0.1379 0.0042,-0.0841 -0.03187,-0.15632 -0.101751,-0.20377 -0.06946,-0.0472 -0.09629,-0.10034 -0.0749,-0.14837 0.02127,-0.0477 -0.0055,-0.10119 -0.07381,-0.14762 -0.0716,-0.0486 -0.09504,-0.1 -0.0706,-0.15483 0.02581,-0.0579 0.0033,-0.10194 -0.07642,-0.1497 -0.07983,-0.0478 -0.108035,-0.10323 -0.0962,-0.18899 0.0092,-0.0667 -0.0029,-0.10268 -0.02709,-0.0798 -0.05601,0.053 -0.167235,-0.13069 -0.129891,-0.21455 0.01563,-0.0351 -0.01886,-0.0935 -0.07956,-0.1347 -0.06759,-0.0459 -0.0951,-0.0998 -0.0745,-0.14606 0.02165,-0.0486 -0.0096,-0.10469 -0.09269,-0.16656 -0.08056,-0.06 -0.109299,-0.1093 -0.08025,-0.13834 0.02959,-0.0296 0.0057,-0.0687 -0.06951,-0.11371 -0.08439,-0.0505 -0.107429,-0.0997 -0.08739,-0.18636 0.02044,-0.0884 0.0052,-0.11978 -0.06126,-0.12595 -0.06525,-0.006 -0.09009,-0.0409 -0.09467,-0.13253 -0.0037,-0.0745 -0.04719,-0.1483 -0.108666,-0.18429 -0.06906,-0.0404 -0.09057,-0.0867 -0.06594,-0.14202 0.02451,-0.055 0.0028,-0.10223 -0.06595,-0.14339 -0.06105,-0.0366 -0.09877,-0.10128 -0.09332,-0.16003 0.0053,-0.0569 -0.03201,-0.12277 -0.08811,-0.15562 -0.06226,-0.0364 -0.08759,-0.0913 -0.07039,-0.15224 0.01869,-0.0662 -0.0074,-0.11585 -0.08565,-0.16268 -0.07915,-0.0474 -0.101753,-0.0916 -0.07618,-0.14903 0.02531,-0.0568 0.0028,-0.10172 -0.07381,-0.14762 -0.07594,-0.0455 -0.09913,-0.0908 -0.07463,-0.14578 0.02512,-0.0564 -3.74e-4,-0.10378 -0.08693,-0.16147 -0.08417,-0.0562 -0.111984,-0.1052 -0.08898,-0.15686 0.02201,-0.0494 -0.0052,-0.10145 -0.07933,-0.1518 -0.07398,-0.0503 -0.101343,-0.10238 -0.07947,-0.15148 0.02075,-0.0466 -0.0054,-0.10116 -0.0692,-0.14449 -0.0564,-0.0383 -0.09563,-0.099 -0.08712,-0.13496 0.0085,-0.0359 -0.03164,-0.1124 -0.08916,-0.16993 -0.06217,-0.0622 -0.08972,-0.13798 -0.06791,-0.18694 0.02889,-0.0649 0.0163,-0.0842 -0.0593,-0.0913 -0.07589,-0.007 -0.09599,-0.0409 -0.09598,-0.16148 -10e-7,-0.0839 -0.01661,-0.13595 -0.03691,-0.11565 -0.06352,0.0635 -0.148252,-0.0678 -0.120693,-0.18697 0.0215,-0.093 0.0059,-0.11874 -0.0856,-0.14096 -0.0899,-0.0218 -0.108723,-0.0487 -0.09574,-0.13663 0.0098,-0.066 -0.02067,-0.13104 -0.07671,-0.16384 -0.05307,-0.031 -0.08867,-0.0995 -0.08307,-0.1597 0.0061,-0.0652 -0.02972,-0.129 -0.09409,-0.16754 -0.07006,-0.042 -0.09205,-0.0888 -0.06751,-0.14385 0.02595,-0.0583 0.0031,-0.10155 -0.07964,-0.15111 -0.08278,-0.0496 -0.105586,-0.0928 -0.07964,-0.15111 0.02435,-0.0547 0.0024,-0.10193 -0.06612,-0.14301 -0.06105,-0.0366 -0.09878,-0.10127 -0.09332,-0.16004 0.0053,-0.0569 -0.03201,-0.12277 -0.08812,-0.15562 -0.06227,-0.0365 -0.08759,-0.0913 -0.07037,-0.15229 0.02082,-0.0738 0.0023,-0.1028 -0.08208,-0.12834 -0.08552,-0.0259 -0.103526,-0.0566 -0.0836,-0.14282 0.01787,-0.0774 -0.01064,-0.13664 -0.09645,-0.20048 -0.0906,-0.0674 -0.106798,-0.10568 -0.06321,-0.14927 0.04546,-0.0455 0.02878,-0.0786 -0.07423,-0.1472 -0.08464,-0.0564 -0.117788,-0.10364 -0.09134,-0.13009 0.02283,-0.0228 0.0032,-0.0797 -0.04347,-0.12651 -0.04674,-0.0468 -0.140195,-0.32695 -0.207668,-0.62269 -0.06747,-0.29574 -0.138385,-0.57181 -0.157582,-0.6135 -0.0192,-0.0417 -0.0336,-0.0937 -0.032,-0.11562 0.0074,-0.10145 -0.07034,-0.51816 -0.102696,-0.55052 -0.01997,-0.02 -0.02811,-0.0556 -0.01811,-0.079 0.01001,-0.0235 -0.02274,-0.25098 -0.07276,-0.50545 -0.05003,-0.25446 -0.153164,-0.83036 -0.229198,-1.27976 -0.15153,-0.89562 -0.303363,-1.49246 -0.411731,-1.61849 -0.03847,-0.0447 -0.06001,-0.0913 -0.04787,-0.1034 0.02246,-0.0225 -0.182387,-0.36816 -0.329564,-0.55615 -0.04456,-0.0569 -0.212785,-0.23059 -0.373825,-0.38591 -0.544768,-0.52547 -1.200196,-0.78552 -1.989237,-0.78929 -0.585484,-0.003 -0.724713,0.0159 -1.08208,0.14517 -0.500845,0.18119 -0.951682,0.4944 -1.649462,1.14591 -0.777414,0.72588 -0.764763,0.7159 -1.217369,0.96002 -0.326407,0.17606 -1.14121,0.47036 -1.335674,0.48245 -0.04329,0.003 -0.203404,0.0178 -0.355822,0.0336 -0.396925,0.0412 -0.481071,0.005 -0.497193,-0.21345 l -0.01325,-0.17957 0.596613,-0.3629 c 0.328136,-0.19961 0.672196,-0.40358 0.764577,-0.45329 0.244706,-0.13165 1.019107,-0.9396 1.206134,-1.25836 0.281174,-0.47924 0.406477,-0.95876 0.406711,-1.55646 3.75e-4,-0.95544 -0.267015,-1.57735 -1.009658,-2.34834 l -0.398418,-0.41363 -0.896111,-0.32161 c -1.7324231,-0.62176 -1.6982105,-0.60543 -2.069945,-0.98832 -0.3039569,-0.31307 -0.3287156,-0.35312 -0.3188029,-0.51573 0.013255,-0.21743 0.1262913,-0.41879 0.2223661,-0.3961 0.046516,0.0109 0.1135632,-0.0434 0.1992929,-0.16184 0.1089086,-0.15036 0.1390214,-0.16855 0.1917584,-0.11581 0.041645,0.0417 0.0783,0.0351 0.1096354,-0.0196 0.1636853,-0.28544 0.2058179,-0.3293 0.2622175,-0.27289 0.047455,0.0474 0.084893,0.0213 0.217378,-0.15167 0.12104,-0.15807 0.1717617,-0.1973 0.2081383,-0.16091 0.030952,0.0309 0.050243,-0.009 0.054117,-0.11196 0.0033,-0.088 0.06385,-0.26829 0.134531,-0.40058 0.08983,-0.16816 0.0993,-0.2129 0.03147,-0.14866 -0.08838,0.0836 -0.11923,0.0759 -0.345912,-0.0875 -0.1368858,-0.0987 -0.5137083,-0.44431 -0.8373859,-0.76799 l -0.588504,-0.5885 0.1263676,-0.14921 c 0.069505,-0.0821 0.3907881,-0.30825 0.7139628,-0.50263 0.6585552,-0.3961 0.8142895,-0.47417 0.9037475,-0.45305 0.03399,0.008 0.73542,-0.4302 1.558735,-0.97383 0.823316,-0.54363 1.552507,-1.00619 1.620426,-1.02792 0.203259,-0.065 0.442401,-0.0595 0.623045,0.0145 l 0.170193,0.0696 4.077364,-4.06392 c 4.879175,-4.86307 3.789957,-3.76987 13.438315,-13.48752 4.318045,-4.34906 7.856227,-7.92705 7.862624,-7.9511 0.0064,-0.0241 -0.0062,-0.0615 -0.02789,-0.0833 -0.0251,-0.0251 -0.09411,0.029 -0.189123,0.14808 -0.131651,0.16509 -0.162925,0.18162 -0.260649,0.13773 -0.06108,-0.0274 -0.204756,-0.14847 -0.319279,-0.26898 -0.128684,-0.1354 -0.24047,-0.21612 -0.292644,-0.21126 -0.105115,0.01 -0.168041,-0.0514 -0.233792,-0.22719 -0.04069,-0.1088 -0.02463,-0.16336 0.0784,-0.26639 0.07126,-0.0712 0.186198,-0.13238 0.255417,-0.13584 0.103692,-0.005 0.254633,-0.12854 0.857184,-0.70064 0.643073,-0.61056 0.730107,-0.70756 0.721155,-0.80382 -0.01271,-0.13668 0.06609,-0.21715 0.311251,-0.3178 0.180836,-0.0743 0.200395,-0.0694 0.340671,0.0837 0.210171,0.22951 0.832772,0.57353 1.464029,0.80898 0.275537,0.10277 0.331957,0.10518 0.41924,0.0179 0.199902,-0.1999 0.540425,0.0166 1.398598,0.88951 0.962231,0.97866 1.207737,1.34628 1.053561,1.57754 -0.04682,0.0702 -0.06226,0.17687 -0.03584,0.24751 0.02784,0.0744 0.373292,0.45222 0.863129,0.94389 1.210932,1.21548 1.373709,1.4242 1.380406,1.77002 0.0039,0.2032 0.03404,0.26422 0.256007,0.519 0.146178,0.1678 0.280326,0.37587 0.32026,0.4968 0.03779,0.11443 0.07656,0.20022 0.08616,0.19063 0.0096,-0.01 0.02042,0.0609 0.02407,0.15665 0.0061,0.15968 -0.02664,0.21068 -0.395158,0.61619 -0.383209,0.42169 -4.140082,4.27903 -4.458767,4.578 -0.08379,0.0786 -0.193428,0.16478 -0.243659,0.1915 -0.131793,0.0701 -0.443652,0.0387 -0.539378,-0.0542 -0.237452,-0.0872 -1.013394,0.41929 -0.665742,0.78642 0.103489,0.10929 0.187234,0.22625 0.186096,0.25991 -0.0035,0.10308 -0.875659,1.02519 -2.600223,2.74911 l -1.646884,1.64633 -0.377146,0.19542 c -0.535045,0.27725 -0.927352,0.58664 -1.215909,0.95895 -0.304919,0.39342 -0.314919,0.41247 -0.508085,0.96787 -0.115327,0.33159 -0.160704,0.59 -0.159865,0.91037 0.0011,0.42747 0.108327,0.93348 0.234296,1.10586 0.03245,0.0444 0.06583,0.10714 0.07416,0.13939 0.05211,0.20159 0.693272,1.01158 0.78381,0.9902 0.02848,-0.007 0.07576,0.0374 0.105073,0.0979 0.02932,0.0605 0.133754,0.17917 0.232075,0.26353 0.09831,0.0843 0.417945,0.37919 0.710281,0.6552 0.29234,0.27599 0.757342,0.70778 1.03335,0.95951 0.276005,0.25173 0.536791,0.49312 0.579517,0.53641 0.103244,0.10464 0.125605,0.7081 0.047,1.26915 -0.08658,0.61801 -0.357346,1.17841 -0.901682,1.86618 -0.258623,0.32677 -2.578771,2.61871 -3.057121,3.01995 -0.254058,0.2131 -0.609713,0.4831 -0.790342,0.59999 -0.180631,0.11689 -0.36641,0.24237 -0.412842,0.27884 -0.04644,0.0365 -0.112042,0.0729 -0.145796,0.0808 -0.03375,0.008 -0.109261,0.0473 -0.167791,0.0875 -0.05853,0.0401 -0.222425,0.123 -0.364213,0.18419 -0.141786,0.0611 -0.27827,0.12399 -0.303295,0.13955 -0.08245,0.0513 -0.242904,0.11691 -0.812045,0.33202 -0.722935,0.27322 -1.037195,0.4271 -1.381006,0.6762 -0.805598,0.58366 -1.211091,1.81451 -0.925971,2.81074 0.140537,0.49105 0.349091,0.85075 0.576856,0.99495 0.100113,0.0634 0.190539,0.1513 0.200945,0.19538 0.01041,0.0441 0.06219,0.10605 0.115064,0.13772 0.05602,0.0336 0.09207,0.10137 0.08639,0.16254 -0.0061,0.065 0.02985,0.1287 0.09412,0.16719 0.06805,0.0408 0.09213,0.0885 0.06984,0.13863 -0.02229,0.0501 0.0015,0.0972 0.06888,0.13669 0.06855,0.0401 0.09694,0.0988 0.08502,0.17551 -0.01384,0.0892 0.0032,0.11723 0.07527,0.12393 0.0722,0.007 0.09158,0.0402 0.08617,0.14877 -0.0051,0.10295 0.01596,0.14224 0.07954,0.14815 0.06321,0.006 0.08653,0.0442 0.08653,0.14215 0,0.0738 0.04276,0.16622 0.09502,0.20549 0.05751,0.0432 0.0807,0.10354 0.05872,0.15287 -0.02832,0.0636 -0.0155,0.0834 0.05839,0.0903 0.07356,0.007 0.09617,0.0387 0.101375,0.14304 0.0042,0.0841 0.04355,0.15335 0.105365,0.18538 0.06891,0.0357 0.09029,0.0874 0.07091,0.17122 -0.02189,0.0947 -0.0077,0.12195 0.06718,0.12892 0.07493,0.007 0.09168,0.0397 0.07951,0.15559 -0.01388,0.13208 -0.0047,0.14578 0.09146,0.13685 0.09644,-0.009 0.105481,0.003 0.09253,0.12662 -0.0096,0.091 0.01869,0.15592 0.08455,0.19447 0.0653,0.0383 0.0865,0.0858 0.06237,0.13993 -0.02451,0.0551 -0.0028,0.10224 0.06595,0.1434 0.0603,0.0361 0.09881,0.10095 0.09355,0.15755 -0.0052,0.0561 0.03663,0.12714 0.100134,0.17027 0.07355,0.0499 0.09717,0.10078 0.07252,0.15613 -0.02548,0.0572 -0.0032,0.10203 0.07362,0.14803 0.07738,0.0464 0.0991,0.0909 0.07297,0.14951 -0.02472,0.0555 -0.0053,0.10005 0.05776,0.13274 0.05778,0.0299 0.09761,0.10229 0.101724,0.18477 0.0037,0.0745 0.02542,0.11691 0.04823,0.0941 0.05028,-0.0503 0.130401,0.10544 0.105931,0.20589 -0.0095,0.0389 0.03248,0.10448 0.09324,0.14574 0.07165,0.0486 0.09874,0.1013 0.07712,0.14986 -0.02075,0.0466 0.0054,0.10117 0.0692,0.14449 0.0564,0.0383 0.0956,0.099 0.08712,0.13496 -0.0085,0.0359 0.03342,0.11419 0.09311,0.17388 0.05969,0.0597 0.09013,0.12695 0.06763,0.14945 -0.02512,0.0251 0.0033,0.0674 0.0737,0.10951 0.08414,0.0504 0.107443,0.0996 0.08766,0.18521 -0.01983,0.0858 -0.0016,0.12427 0.06927,0.14571 0.06705,0.0204 0.09328,0.0608 0.08653,0.13335 -0.0062,0.0662 0.02983,0.12787 0.09863,0.16908 0.07307,0.0437 0.09708,0.0901 0.07381,0.14234 -0.02258,0.0507 9.28e-4,0.0987 0.06798,0.13885 0.06279,0.0376 0.09871,0.10203 0.09273,0.16635 -0.0061,0.065 0.02985,0.1287 0.09412,0.16719 0.07041,0.0422 0.09202,0.0888 0.06709,0.1448 -0.02906,0.0652 -0.01311,0.0898 0.07607,0.11677 0.0913,0.0277 0.107599,0.0569 0.08532,0.15331 -0.01849,0.08 0.0044,0.13826 0.06969,0.17736 0.05552,0.0333 0.0933,0.10053 0.08805,0.15688 -0.0051,0.0543 0.02959,0.12136 0.07698,0.1491 0.04738,0.0278 0.07926,0.0796 0.07083,0.11534 -0.0084,0.0357 0.03403,0.11428 0.09437,0.17461 0.06033,0.0604 0.09548,0.14162 0.07809,0.18066 -0.01911,0.0429 0.0064,0.0931 0.06439,0.12715 0.06078,0.0356 0.08616,0.0911 0.06918,0.15114 -0.04429,0.15684 0.05701,0.38468 0.332131,0.7471 0.316668,0.41714 0.736827,0.78915 1.297984,1.14924 0.231775,0.14872 0.434769,0.30041 0.451103,0.33709 0.01634,0.0367 0.08828,0.0852 0.159876,0.10779 0.08949,0.0283 0.253104,0.17568 0.523395,0.47156 0.3918,0.42891 0.39323,0.4314 0.398142,0.69338 0.0082,0.43803 -0.07745,0.5806 -1.108019,1.84403 -0.06383,0.0783 -0.412622,0.46018 -0.775096,0.84872 -1.238536,1.32761 -4.016347,4.34771 -4.016648,4.367 -1.6e-4,0.0106 -0.283274,0.31351 -0.62913,0.67313 -0.54575,0.56748 -0.643302,0.65254 -0.738415,0.6437 z m 6.702105,-31.17842 c 0.32124,-0.52815 0.323029,-1.22903 0.0044,-1.73469 -0.190401,-0.30218 -2.208403,-2.27533 -2.575049,-2.51781 -0.80107,-0.52979 -1.81534,-0.6801 -2.625225,-0.38906 -0.21669,0.0779 -0.489824,0.20047 -0.606964,0.27246 -0.316816,0.1947 -0.933272,0.87121 -1.032535,1.13313 -0.04463,0.11775 -0.09681,0.23832 -0.115965,0.26793 -0.01915,0.0297 -0.08599,0.19528 -0.148511,0.36816 -0.06253,0.17288 -0.152051,0.3756 -0.198947,0.45049 -0.05401,0.0863 -0.06137,0.1532 -0.02006,0.18264 0.03586,0.0255 0.161733,0.21315 0.279711,0.41688 0.457615,0.79021 0.884155,1.24603 1.576163,1.68435 0.08078,0.0512 0.158612,0.0813 0.172977,0.0669 0.01437,-0.0144 0.06385,0.006 0.109968,0.046 0.226722,0.19495 1.320075,0.31083 1.82288,0.19318 0.141894,-0.0332 0.422637,-0.13063 0.623871,-0.2165 0.451229,-0.19257 0.628163,-0.21536 0.640512,-0.0825 0.01465,0.15763 -0.244643,0.45849 -0.557618,0.647 -0.156423,0.0942 -0.315003,0.19051 -0.352403,0.21401 -0.03739,0.0235 -0.08562,0.0417 -0.107158,0.0405 -0.02153,-9.8e-4 -0.199067,0.0376 -0.394511,0.0862 -0.651671,0.1621 -1.448569,0.1069 -2.127658,-0.14739 -0.501295,-0.18772 -0.695624,-0.30685 -1.278359,-0.78374 -0.256739,-0.2101 -0.500932,-0.39769 -0.542647,-0.41688 -0.04171,-0.0192 -0.102479,-0.0524 -0.135028,-0.074 -0.03255,-0.0215 -0.364512,-0.0404 -0.737694,-0.042 l -0.678512,-0.003 -0.213593,0.27896 c -0.117477,0.15342 -0.228423,0.31394 -0.246546,0.35671 -0.01813,0.0427 -0.05756,0.10835 -0.08764,0.14574 -0.09678,0.1203 -0.128132,0.22892 -0.08023,0.27804 0.02568,0.0263 0.0027,0.25038 -0.05099,0.49787 -0.216891,0.99902 -0.06452,1.93849 0.432186,2.66469 0.205429,0.30034 0.705111,0.7581 1.011065,0.92623 1.099974,0.60448 2.339727,0.524 3.53827,-0.22968 0.381503,-0.23989 0.543039,-0.39046 2.502265,-2.33226 1.180586,-1.1701 2.14029,-2.15122 2.199548,-2.24863 z"
       id="path846"
       sodipodi:nodetypes="csccccsscsccccccccccccccccccccsccccccscccccccccccccscccsccsccccsccccccccscsssccsccscsccccccccccccccscsccccscscscsccsccccscccsscscccccscccccsscccccccsccccccccccccscccccccccscsccccccssccccccscccccccccccccccccscscscccscccccsscccccccsccccccccscccssccccccccccccscccccccscscccccccsscssccccccscccccc" />
  </g>
</svg>
