<?xml version="1.0" encoding="UTF-8" standalone="no"?>
<!-- Created with Inkscape (http://www.inkscape.org/) -->

<svg
   xmlns:dc="http://purl.org/dc/elements/1.1/"
   xmlns:cc="http://creativecommons.org/ns#"
   xmlns:rdf="http://www.w3.org/1999/02/22-rdf-syntax-ns#"
   xmlns:svg="http://www.w3.org/2000/svg"
   xmlns="http://www.w3.org/2000/svg"
   xmlns:sodipodi="http://sodipodi.sourceforge.net/DTD/sodipodi-0.dtd"   
   width="220"
   height="235"
   viewBox="0 0 58.208332 62.177085"
   version="1.1"
   id="svg8"   
   sodipodi:docname="desert-eagle.svg" >
  <defs
     id="defs2" />
  <sodipodi:namedview
     id="base"
     pagecolor="#000000"
     bordercolor="#666666"
     borderopacity="1.0"
     showgrid="false"
     units="px"
     showguides="false" />
  <metadata
     id="metadata5">
    <rdf:RDF>
      <cc:Work
         rdf:about="">
        <dc:format>image/svg+xml</dc:format>
        <dc:type
           rdf:resource="http://purl.org/dc/dcmitype/StillImage" />
        <dc:title></dc:title>
      </cc:Work>
    </rdf:RDF>
  </metadata>
  <g
     id="layer1"
     transform="translate(0,-234.8229)">
    <path
       style="fill:none;stroke:#fffffd;stroke-width:0.4;stroke-miterlimit:4;stroke-dasharray:none;stroke-opacity:1"
       d="m 37.58786,287.19195 c 0.172344,-0.21577 0.258333,-0.37389 0.245952,-0.45228 -0.01615,-0.10233 0.06133,-0.19556 0.51175,-0.61602 0.452614,-0.42251 0.530783,-0.51686 0.530788,-0.64054 -1e-6,-0.32811 -0.260478,-0.19261 -0.99325,0.5167 -0.309349,0.29946 -0.442301,0.39819 -0.501359,0.37233 -0.198133,-0.0868 -0.133841,-0.21932 0.349717,-0.72118 0.582122,-0.60415 0.651627,-0.70498 0.552898,-0.80202 -0.04216,-0.0414 -0.541444,-0.30227 -1.109535,-0.57962 -0.691634,-0.33767 -1.101504,-0.57172 -1.240569,-0.70841 -0.187257,-0.18407 -0.674809,-0.86926 -1.906096,-2.67873 -0.229208,-0.33684 -0.456437,-0.66925 -0.504953,-0.73866 -0.645859,-0.92421 -2.383466,-3.54434 -2.487187,-3.75044 -0.336758,-0.66914 -0.421895,-1.31298 -0.264821,-2.0027 0.173684,-0.76266 0.57642,-1.28309 1.575124,-2.03542 0.691644,-0.52103 3.979042,-3.89621 4.086124,-4.19523 0.114058,-0.31851 0.01056,-0.48496 -0.513842,-0.8267 -0.656692,-0.42793 -1.616519,-1.39229 -1.949259,-1.95848 -0.558324,-0.95003 -0.783383,-2.13804 -0.619607,-3.27065 0.03317,-0.22938 0.07646,-0.43294 0.09621,-0.45235 0.01975,-0.0194 0.03978,-0.0921 0.04451,-0.16132 0.01056,-0.15484 0.454786,-1.17987 0.636227,-1.46806 0.309497,-0.4916 1.639159,-1.84702 7.409274,-7.55285 3.898733,-3.85532 6.111921,-6.07412 6.135691,-6.1513 0.02045,-0.0664 0.376306,-0.45689 0.790787,-0.86777 l 0.753597,-0.74705 -0.01454,-0.36083 c -0.0112,-0.2779 -0.111205,-0.58602 -0.43503,-1.34042 -1.022289,-2.38155 -1.425503,-3.17087 -1.835053,-3.59224 -0.139712,-0.14374 -0.581392,-0.4953 -0.981516,-0.78124 -0.555174,-0.39677 -0.808561,-0.61253 -1.069736,-0.91092 -0.310535,-0.35479 -0.361672,-0.3933 -0.551962,-0.41564 -0.190368,-0.0223 -0.236471,0.002 -0.499607,0.25916 -0.428953,0.42005 -0.508399,0.45228 -0.685064,0.27862 -0.19729,-0.19393 -0.518493,-0.31777 -0.729467,-0.28123 -0.254365,0.0441 -0.419645,0.24526 -0.537397,0.65423 -0.05782,0.20081 -0.171784,0.58706 -0.253251,0.85831 -0.08147,0.27126 -0.145684,0.58002 -0.142703,0.68611 0.003,0.1061 -0.02799,0.22897 -0.06881,0.27305 -0.04082,0.0441 -0.437205,0.46343 -0.880841,0.93186 l -0.806612,0.85169 0.01421,0.35054 c 0.01328,0.32748 1.93e-4,0.36261 -0.198872,0.53407 -0.198337,0.17082 -0.226955,0.17653 -0.413498,0.0824 l -0.200418,-0.10106 -0.408267,0.37696 -0.408268,0.37695 0.03637,0.30801 c 0.03446,0.29188 0.02406,0.32011 -0.198274,0.53867 -0.176312,0.17331 -0.250297,0.21527 -0.29759,0.16877 -0.03462,-0.034 -0.13523,-0.0884 -0.223575,-0.12092 -0.154467,-0.0568 -0.175291,-0.0446 -0.543046,0.31687 l -0.38242,0.3759 0.06285,0.27333 c 0.05317,0.23123 0.03782,0.30662 -0.09972,0.48951 -0.196132,0.26083 -0.404148,0.33892 -0.54195,0.20346 -0.166846,-0.16401 -0.282766,-0.11937 -0.664555,0.25592 -0.351892,0.34591 -0.357364,0.35582 -0.297699,0.54009 0.101063,0.3121 0.07461,0.44578 -0.127541,0.64449 -0.245717,0.24153 -0.359034,0.28676 -0.462837,0.18471 -0.211365,-0.20776 -0.32176,-0.18011 -0.675732,0.16921 -0.183503,0.18103 -0.339857,0.36354 -0.347527,0.4055 -0.0077,0.042 0.02392,0.16411 0.07022,0.27145 0.09579,0.22211 0.04092,0.343 -0.282677,0.62279 -0.214017,0.18504 -0.233835,0.18903 -0.415367,0.0837 -0.247405,-0.14351 -0.301334,-0.12693 -0.628964,0.19357 -0.324727,0.31759 -0.378824,0.45487 -0.257789,0.65358 0.04937,0.081 0.08146,0.18408 0.07131,0.22895 -0.03216,0.14212 -0.554009,0.62172 -0.63224,0.58105 -0.03896,-0.0202 -0.1362,-0.078 -0.216087,-0.12829 l -0.145246,-0.0914 -0.388268,0.38167 c -0.387781,0.38118 -0.388155,0.38183 -0.297586,0.52674 0.04987,0.0798 0.09586,0.18792 0.102184,0.24025 0.01577,0.1305 -0.560847,0.69731 -0.657986,0.6468 -0.03896,-0.0202 -0.137141,-0.0785 -0.218176,-0.12951 l -0.147334,-0.0927 -0.359777,0.37821 -0.359776,0.37822 0.102734,0.19711 0.102734,0.19712 -0.323761,0.34314 c -0.341624,0.36208 -0.327067,0.35781 -0.610065,0.17914 l -0.139561,-0.0881 -0.73393,0.66325 c -0.40366,0.3648 -1.885923,1.7699 -3.293911,3.12247 -1.810487,1.73921 -2.578715,2.44997 -2.623971,2.42771 -0.0352,-0.0173 -0.127827,-0.0412 -0.205848,-0.0532 -0.134632,-0.0206 -0.235934,0.0695 -1.989169,1.76797 -2.332469,2.25966 -4.418477,4.43888 -4.655569,4.86359 -0.100298,0.17968 -0.408583,0.55721 -0.759371,0.92996 l -0.590518,0.62749 -0.220649,-0.0529 c -0.238496,-0.0571 -1.440238,0.0219 -1.734874,0.11408 -0.105784,0.0331 -0.306641,0.18035 -0.484572,0.35526 -0.372668,0.36633 -0.368713,0.39105 0.144377,0.90096 0.207211,0.20595 0.384244,0.40562 0.393404,0.44373 0.0092,0.0381 -0.06485,0.14984 -0.164458,0.24826 -0.149147,0.14725 -0.18323,0.23732 -0.193123,0.50924 -0.0066,0.18166 -0.03181,0.67432 -0.05602,1.09479 -0.0615,1.06887 -0.05052,1.17989 0.153874,1.55531 0.193467,0.35535 0.189299,0.42459 -0.02179,0.36176 -0.09384,-0.028 -0.177359,0.004 -0.283589,0.10841 -0.234254,0.23028 -1.0682583,0.73096 -1.3266559,0.79646 -0.1941258,0.0491 -0.2517627,0.0919 -0.3475523,0.25798 -0.2378618,0.41217 -0.016025,0.82586 0.4950581,0.9232 0.1552748,0.0296 0.3054988,0.0501 0.3338358,0.0458 0.123311,-0.0193 0.7769223,0.13326 1.1043193,0.25772 0.408028,0.15511 1.033397,0.51859 1.448453,0.84188 l 0.283831,0.22108 -0.05299,-0.21376 c -0.02915,-0.11757 -0.02792,-0.23841 0.0027,-0.26853 0.03326,-0.0327 -0.02494,-0.17288 -0.144382,-0.34782 -0.110052,-0.16119 -0.243248,-0.40396 -0.295988,-0.5395 -0.05274,-0.13554 -0.107702,-0.26037 -0.122146,-0.27741 -0.06744,-0.0796 -0.01649,-0.14899 0.05611,-0.0765 0.09349,0.0935 0.536033,0.80701 0.735585,1.18625 0.07311,0.13893 0.237785,0.437 0.365947,0.66236 0.128161,0.22536 0.254769,0.46503 0.281353,0.53259 0.02659,0.0676 0.07983,0.16536 0.118326,0.21733 0.03849,0.052 0.05594,0.12209 0.03875,0.15583 -0.01952,0.0383 -0.07313,0.006 -0.143126,-0.0864 -0.147337,-0.19467 -0.196364,-0.13358 -0.234391,0.29198 -0.06716,0.7517 -0.167129,1.00056 -0.628342,1.56423 -0.752491,0.91966 -1.283864,1.9201 -1.521631,2.86485 -0.131426,0.52221 -0.0672,0.64063 0.38605,0.71184 0.557615,0.0876 0.466725,0.15042 2.192597,-1.51521 1.455846,-1.40504 1.573919,-1.50803 1.926843,-1.68082 1.051148,-0.51462 2.268593,-0.5081 3.269121,0.0175 0.315851,0.16592 1.063651,0.88121 1.285056,1.22919 0.10903,0.17136 0.188439,0.24579 0.296605,0.27797 0.240974,0.0717 0.68093,1.05886 1.398799,3.13851 0.351878,1.01937 0.651012,1.86447 0.664745,1.87796 0.01374,0.0134 0.08404,0.17842 0.156227,0.36651 0.07219,0.18807 0.189859,0.49461 0.261484,0.6812 0.268885,0.70044 0.898222,2.07661 1.142414,2.49811 0.622336,1.07423 0.964172,1.60936 1.512463,2.36773 0.709967,0.98198 1.055538,1.37358 1.265045,1.43352 0.08063,0.0231 0.231033,0.12436 0.334235,0.22509 0.103165,0.10074 0.223259,0.19 0.266804,0.19838 0.150152,0.0289 0.865909,-0.12249 1.487658,-0.31467 l 0.623482,-0.19272 0.518008,-0.5092 c 0.474058,-0.46598 0.52477,-0.50254 0.597701,-0.43085 0.04383,0.0431 0.05316,0.14808 0.02073,0.23332 -0.04555,0.11972 -0.02656,0.18653 0.08343,0.29365 0.07828,0.0763 0.180551,0.14702 0.227193,0.15722 0.102077,0.0224 6.396902,-6.08946 6.829122,-6.63058 z m -6.480417,-14.9426 c -0.459188,0.24467 -1.074048,0.39277 -1.484795,0.35764 -0.131525,-0.0112 -0.424674,-0.0774 -0.651443,-0.14702 -0.48912,-0.15015 -0.948536,-0.51296 -1.337027,-1.05589 -0.231537,-0.32358 -0.458589,-0.80698 -0.431675,-0.91904 0.0069,-0.0285 0.28988,0.22084 0.628952,0.55414 l 0.616499,0.606 0.568649,0.18857 c 0.961033,0.31866 1.953584,0.23787 2.401311,-0.19547 0.277191,-0.26829 0.239475,-0.32236 -0.299571,-0.42944 -1.422013,-0.2825 -2.590109,-1.26061 -3.14735,-2.63544 -0.138301,-0.34122 -0.143207,-0.32687 0.37376,-1.09311 0.341609,-0.50634 1.25222,-1.40352 1.742971,-1.71728 0.436296,-0.27895 1.042126,-0.43899 1.366894,-0.3611 0.12607,0.0302 0.412473,0.0559 0.636449,0.0571 0.223976,0.001 0.506709,0.0521 0.6283,0.11315 0.321333,0.1613 2.041289,1.79823 2.186066,2.08055 0.126531,0.24672 0.118118,0.68354 -0.01718,0.8917 -0.05075,0.0781 -0.105266,0.16752 -0.121143,0.19876 -0.01588,0.0312 -0.779252,0.79744 -1.696398,1.70266 -1.393422,1.37535 -1.716141,1.67178 -1.963272,1.80347 z"
       id="path1065"  />       
  </g>
</svg>
