<?xml version="1.0" encoding="UTF-8" standalone="no"?>
<!-- Created with Inkscape (http://www.inkscape.org/) -->

<svg
   xmlns:dc="http://purl.org/dc/elements/1.1/"
   xmlns:cc="http://creativecommons.org/ns#"
   xmlns:rdf="http://www.w3.org/1999/02/22-rdf-syntax-ns#"
   xmlns:svg="http://www.w3.org/2000/svg"
   xmlns="http://www.w3.org/2000/svg"
   xmlns:sodipodi="http://sodipodi.sourceforge.net/DTD/sodipodi-0.dtd"   
   width="220"
   height="235"
   viewBox="0 0 58.208332 62.177085"
   version="1.1"
   id="svg8"   
   sodipodi:docname="f228.svg" >   
  <defs
     id="defs2" />
  <sodipodi:namedview
     id="base"
     pagecolor="#000000"
     bordercolor="#666666"
     borderopacity="1.0"
     showgrid="false"
     units="px"
     showguides="false" />
  <metadata
     id="metadata5">
    <rdf:RDF>
      <cc:Work
         rdf:about="">
        <dc:format>image/svg+xml</dc:format>
        <dc:type
           rdf:resource="http://purl.org/dc/dcmitype/StillImage" />
        <dc:title></dc:title>
      </cc:Work>
    </rdf:RDF>
  </metadata>
  <g
     id="layer1"
     transform="translate(0,-234.8229)">
    <path
       style="fill:none;stroke:#fffffd;stroke-width:0.4;stroke-opacity:1;stroke-miterlimit:4;stroke-dasharray:none"
       d="m 41.453231,286.57867 c 0.939816,-1.27844 1.254226,-2.06386 0.94855,-2.36954 -0.06871,-0.0687 -0.369829,-0.12769 -0.669168,-0.1311 -0.29934,-0.004 -0.621186,-0.0831 -0.715222,-0.17715 -0.09403,-0.094 -0.235652,-0.1557 -0.31471,-0.13704 -0.08642,0.0204 -0.173039,-0.12963 -0.217226,-0.37626 -0.04372,-0.24405 -1.267508,-2.37636 -3.021332,-5.26433 -1.621313,-2.66977 -3.080025,-5.08067 -3.241581,-5.35757 -0.38676,-0.66289 -0.416348,-1.99527 -0.05825,-2.6231 0.367359,-0.64404 1.065364,-1.31082 1.943558,-1.85661 0.989546,-0.61499 2.187501,-1.91669 4.152715,-4.51233 1.906263,-2.51777 2.186126,-3.0146 2.22414,-3.94843 0.04098,-1.00654 -0.181609,-1.4662 -1.51706,-3.13297 -1.625911,-2.0293 -1.828009,-2.74482 -1.104611,-3.9108 0.167289,-0.26964 1.423063,-1.73602 2.790609,-3.25863 1.367544,-1.52262 2.517006,-2.83701 2.554356,-2.92088 0.03736,-0.0839 0.0066,-0.41226 -0.06836,-0.72977 -0.148343,-0.62838 -0.178371,-0.57665 0.989871,-1.7057 1.140692,-1.10239 1.048008,-1.28661 -2.26283,-4.49812 -3.145155,-3.0508 -3.547556,-3.32026 -4.113343,-2.75448 -0.179189,0.1792 -0.415814,0.26079 -0.697106,0.24038 -0.329223,-0.0239 -0.577077,0.0824 -1.092448,0.46831 -0.940481,0.7043 -0.988629,0.76568 -0.833197,1.06213 0.07634,0.14562 0.124945,0.34089 0.108006,0.43397 -0.01694,0.0931 -2.146421,2.23034 -4.732194,4.74948 -3.603276,3.51045 -4.676508,4.60514 -4.594881,4.68677 0.133627,0.13363 -5.001884,5.06777 -5.225609,5.02073 -0.08915,-0.0188 -0.704261,0.57861 -1.637824,1.59057 -0.82229,0.89133 -3.098328,3.2861 -5.057858,5.32172 -1.95953,2.0356 -3.604333,3.77425 -3.655115,3.86365 -0.0631,0.11111 -0.275427,0.0618 -0.67076,-0.15581 -0.671499,-0.36958 -0.764112,-0.3655 -1.071069,0.0471 -0.195715,0.26304 -0.186472,0.38214 0.06521,0.84101 0.24398,0.44482 0.258541,0.58726 0.08673,0.84846 -0.47735,0.72566 -0.457036,0.81419 0.642996,2.80213 0.105408,0.19048 0.08587,0.20709 -0.297765,0.2529 -0.523805,0.0626 -0.924438,0.46197 -0.92439,0.92166 -2e-6,0.48959 0.27531,0.72545 0.797586,0.68329 0.240729,-0.0194 0.711421,0.007 1.04598,0.058 0.527913,0.081 0.610637,0.12861 0.626041,0.36042 0.0098,0.14689 0.08861,0.39801 0.175233,0.55799 0.08661,0.16 0.359327,0.8923 0.606021,1.62732 0.440524,1.31254 0.599126,2.09432 0.638816,3.14883 0.01784,0.47396 0.06542,0.56054 0.445243,0.81025 0.413274,0.27169 0.468716,0.26502 1.964785,-0.23623 1.305287,-0.43733 1.727032,-0.51117 2.772078,-0.48529 0.67791,0.0167 1.195145,0.0679 1.149408,0.11367 -0.04998,0.05 0.04353,0.14005 0.234329,0.22574 0.765924,0.34394 1.956513,1.98127 2.054367,2.82521 0.03454,0.29784 3.409821,8.13079 3.971829,9.21735 0.262569,0.50763 0.863804,1.48025 1.33608,2.16136 0.725304,1.04604 1.061362,1.42322 2.16354,2.4283 0.717675,0.65445 1.459174,1.24466 1.647778,1.31159 0.267659,0.095 0.482514,0.0357 0.979035,-0.27013 0.661746,-0.40761 0.716008,-0.48083 0.815926,-1.10097 0.0594,-0.36868 0.06311,-0.37081 0.209767,-0.12028 0.101127,0.17274 0.221969,0.23163 0.374479,0.18251 0.123848,-0.0399 1.199855,-0.99452 2.391128,-2.12142 1.191251,-1.12692 2.727059,-2.57738 3.41287,-3.22329 0.685822,-0.64589 1.34951,-1.31392 1.474871,-1.48449 z M 35.65411,267.65842 c -0.44181,0.2999 -0.983896,0.60275 -1.204637,0.67301 -0.498339,0.15861 -1.336793,0.0947 -1.713029,-0.13056 -0.417989,-0.25026 -1.696272,-2.34821 -1.986657,-3.26054 -0.232402,-0.73017 -0.07322,-0.93812 0.900037,-1.17578 1.082866,-0.26442 1.831419,-0.19851 2.954316,0.26019 1.476089,0.60299 3.078835,0.42798 3.936636,-0.42982 0.546459,-0.54645 0.461264,-0.68461 -0.22265,-0.36106 -0.797683,0.37739 -1.657288,0.42434 -2.496858,0.1364 -0.597349,-0.20485 -0.85292,-0.37747 -1.523321,-1.02883 -0.681133,-0.66179 -0.832669,-0.87342 -0.981137,-1.37024 -0.208333,-0.69716 -0.191273,-0.84844 0.08196,-0.72676 0.183094,0.0816 0.374289,-0.0932 1.922626,-1.75645 1.278798,-1.37377 1.843815,-1.91409 2.205247,-2.10888 0.601568,-0.3242 1.637382,-0.26999 2.17009,0.11357 0.435997,0.31393 1.862934,2.35803 1.918625,2.74844 0.175954,1.23352 0.181965,1.22162 -2.218343,4.3864 -1.837418,2.42261 -2.62823,3.27427 -3.742901,4.03091 z"
       id="path959" />       
  </g>
</svg>
