<?xml version="1.0" encoding="UTF-8" standalone="no"?>
<!-- Created with Inkscape (http://www.inkscape.org/) -->

<svg
   xmlns:dc="http://purl.org/dc/elements/1.1/"
   xmlns:cc="http://creativecommons.org/ns#"
   xmlns:rdf="http://www.w3.org/1999/02/22-rdf-syntax-ns#"
   xmlns:svg="http://www.w3.org/2000/svg"
   xmlns="http://www.w3.org/2000/svg"
   xmlns:sodipodi="http://sodipodi.sourceforge.net/DTD/sodipodi-0.dtd"   
   width="220"
   height="235"
   viewBox="0 0 58.208332 62.177085"
   version="1.1"
   id="svg8"   
   sodipodi:docname="g18.svg" >
  <defs
     id="defs2" />
  <sodipodi:namedview
     id="base"
     pagecolor="#000000"
     bordercolor="#666666"
     borderopacity="1.0"
     showgrid="false"
     units="px"     
     showguides="false" />
  <metadata
     id="metadata5">
    <rdf:RDF>
      <cc:Work
         rdf:about="">
        <dc:format>image/svg+xml</dc:format>
        <dc:type
           rdf:resource="http://purl.org/dc/dcmitype/StillImage" />
        <dc:title></dc:title>
      </cc:Work>
    </rdf:RDF>
  </metadata>
  <g    
     id="layer1"
     transform="translate(0,-234.8229)">
    <path
       style="fill:none;stroke:#fffffd;stroke-width:0.40000001;stroke-miterlimit:4;stroke-dasharray:none;stroke-opacity:1"
       d="m 34.343948,294.3918 c 0.29236,-0.3058 1.400915,-1.43554 2.463452,-2.51062 2.330328,-2.35782 2.795203,-2.83942 3.143508,-3.25686 0.357353,-0.4282 0.50926,-0.65237 0.563512,-0.83153 0.03218,-0.10637 0.03811,-0.78878 0.0074,-0.88944 -0.02325,-0.0768 -0.0418,-0.1012 -0.0911,-0.11968 -0.03742,-0.0137 -0.192063,-0.15328 -0.391504,-0.35271 -0.248509,-0.24853 -0.351253,-0.33848 -0.417837,-0.36582 -0.117121,-0.0482 -0.129781,-0.0867 -0.07916,-0.24128 0.0234,-0.0717 0.04589,-0.18107 0.0499,-0.24348 0.0049,-0.0625 0.02034,-0.16306 0.03618,-0.22363 0.08433,-0.32192 0.100491,-0.47321 0.06853,-0.64092 -0.09394,-0.49315 -0.286977,-0.82964 -0.532143,-0.92765 -0.07882,-0.0317 -0.157985,-0.1027 -0.469366,-0.42206 l -0.374537,-0.38414 -0.11639,-0.26931 c -0.105646,-0.24442 -0.124001,-0.27311 -0.19878,-0.31077 -0.106729,-0.0537 -0.121736,-0.0924 -0.07758,-0.19999 0.02417,-0.0589 0.02448,-0.1241 7.61e-4,-0.19674 -0.04171,-0.12893 -0.08584,-0.1787 -0.152554,-0.17248 -0.02687,0.004 -0.06869,-0.0147 -0.09274,-0.0394 -0.03411,-0.0343 -0.03479,-0.0646 -0.004,-0.1372 0.07238,-0.16591 -0.05306,-0.43231 -0.21401,-0.45456 -0.07908,-0.0116 -0.09999,-0.0844 -0.04664,-0.16453 0.04837,-0.0727 0.03313,-0.17027 -0.04875,-0.3118 -0.0546,-0.0943 -0.06522,-0.10238 -0.140041,-0.10472 -0.139764,-0.006 -0.168625,-0.0762 -0.0835,-0.20748 0.03181,-0.0491 0.03789,-0.11659 0.02125,-0.23556 -0.03758,-0.26894 -0.01301,-0.40925 0.154258,-0.88406 0.08811,-0.25 0.08939,-0.3333 0.0074,-0.47414 -0.07531,-0.12934 -0.208499,-0.23446 -0.329117,-0.25986 -0.225161,-0.0475 -0.568143,-0.25389 -0.70322,-0.4233 -0.06415,-0.0804 -0.08181,-0.0889 -0.17888,-0.0861 -0.132569,0.005 -0.157235,-0.0185 -0.120035,-0.10721 0.05914,-0.14162 0.06582,-0.212 0.02935,-0.30682 -0.04974,-0.12884 -0.07886,-0.15724 -0.188829,-0.18402 -0.104695,-0.0254 -0.127455,-0.0804 -0.06098,-0.1468 0.04057,-0.0408 0.04628,-0.14849 0.01318,-0.25158 -0.02926,-0.0915 -0.132565,-0.18033 -0.222206,-0.19102 -0.11435,-0.0135 -0.125416,-0.0353 -0.06854,-0.13417 0.06169,-0.10718 0.05938,-0.17996 -0.01009,-0.32136 -0.05298,-0.10783 -0.05591,-0.11003 -0.173074,-0.13388 -0.06553,-0.0135 -0.122267,-0.0376 -0.12609,-0.0536 -0.0049,-0.0158 0.01747,-0.0645 0.04736,-0.10758 0.0418,-0.0603 0.05405,-0.14021 0.05353,-0.34906 -3.74e-4,-0.24979 0.01587,-0.34923 0.08626,-0.51729 0.01447,-0.0343 0.03097,-0.0822 0.03666,-0.10589 0.005,-0.0236 0.03482,-0.10936 0.06461,-0.19035 0.07556,-0.20526 0.05313,-0.34502 -0.0792,-0.49541 -0.09226,-0.10478 -0.1248,-0.1241 -0.336074,-0.19994 -0.263736,-0.0946 -0.421271,-0.19471 -0.63036,-0.4006 -0.07997,-0.0788 -0.170873,-0.14892 -0.204947,-0.15818 -0.09266,-0.0251 -0.09951,-0.0422 -0.07354,-0.1827 0.03219,-0.17394 -0.02457,-0.33106 -0.136728,-0.37887 -0.15401,-0.0655 -0.160502,-0.0731 -0.123677,-0.13424 0.08036,-0.13418 -0.0075,-0.38708 -0.165759,-0.4758 -0.09707,-0.0543 -0.09555,-0.0482 -0.06074,-0.24815 0.01663,-0.0953 -0.100136,-0.33086 -0.167155,-0.33706 -0.06246,-0.008 -0.0806,-0.0593 -0.0546,-0.16049 0.02364,-0.0919 -0.0096,-0.19887 -0.223974,-0.7248 -0.07231,-0.17714 -0.08662,-0.26301 -0.08892,-0.53207 -0.003,-0.26825 0.05597,-0.57596 0.121419,-0.6414 0.02681,-0.0267 0.0953,-0.1274 0.15236,-0.22369 0.07799,-0.13154 0.16212,-0.23343 0.338467,-0.40982 0.313501,-0.31344 0.441636,-0.38022 1.059932,-0.55214 0.156475,-0.0435 0.292727,-0.0873 0.302784,-0.0974 0.01007,-0.0105 0.06808,-0.037 0.128967,-0.0601 0.06083,-0.0229 0.163664,-0.0692 0.228448,-0.10232 0.50605,-0.25998 0.476805,-0.23977 0.832923,-0.5755 0.329103,-0.31029 1.049533,-1.07625 1.500108,-1.59491 0.121258,-0.13961 0.446232,-0.49652 0.722169,-0.79323 0.275939,-0.2967 0.578169,-0.63145 0.671624,-0.7439 0.09348,-0.11246 0.47072,-0.52143 0.838369,-0.90881 0.367637,-0.38735 0.860731,-0.91318 1.095747,-1.16841 0.235026,-0.25527 0.66806,-0.72078 0.962308,-1.0345 0.679833,-0.72477 0.754474,-0.8462 0.716326,-1.16559 -0.0298,-0.24907 -0.297199,-0.60046 -0.547539,-0.7194 -0.669377,-0.31805 -1.520019,-0.83022 -2.110719,-1.27092 -0.538067,-0.40141 -1.391367,-1.18981 -1.687757,-1.55939 -0.256987,-0.32045 -0.310444,-0.49367 -0.247548,-0.80209 0.05167,-0.25354 0.124982,-0.36324 0.506883,-0.75893 0.431428,-0.44701 1.327608,-1.41271 1.364407,-1.47028 0.04475,-0.0701 0.666403,-0.78381 0.946067,-1.08634 0.14131,-0.15286 0.674171,-0.71109 1.184128,-1.2405 0.509961,-0.52943 1.07203,-1.12264 1.249031,-1.31824 0.177004,-0.19562 0.576012,-0.62742 0.886683,-0.95957 l 0.564849,-0.60393 0.09686,-0.24977 c 0.07407,-0.19111 0.125977,-0.28451 0.220935,-0.39782 0.123843,-0.14781 0.124344,-0.14813 0.269498,-0.1676 0.17768,-0.0237 0.194334,-0.0394 0.770236,-0.7134 0.221348,-0.25911 0.513964,-0.59227 0.650238,-0.74036 0.26,-0.28253 0.569662,-0.65609 0.961553,-1.16 0.128688,-0.16548 0.328724,-0.40669 0.444532,-0.53602 0.257055,-0.28707 0.396264,-0.52981 0.430001,-0.7498 0.03841,-0.25029 -0.03511,-0.78533 -0.186761,-1.35915 -0.05244,-0.19864 -0.06422,-0.21962 -0.230333,-0.4115 -0.09629,-0.11118 -0.192134,-0.23903 -0.213019,-0.28408 -0.03002,-0.0647 -0.157649,-0.1925 -0.611551,-0.61205 -0.315465,-0.29162 -0.655547,-0.62355 -0.755736,-0.7376 -0.115546,-0.13159 -0.196925,-0.20905 -0.222545,-0.21184 -0.05266,-0.008 -0.269813,-0.19008 -0.576707,-0.48942 -0.21037,-0.20518 -0.248732,-0.25203 -0.263197,-0.32147 -0.0431,-0.2072 -0.74951,-1.00046 -1.17828,-1.32332 -0.267805,-0.20167 -0.499757,-0.32037 -0.636577,-0.32583 -0.08457,-0.005 -0.219849,-0.10578 -0.678909,-0.51386 -0.237466,-0.21112 -0.29183,-0.24958 -0.386306,-0.27333 -0.236434,-0.0595 -0.476226,-0.0333 -0.648656,0.0709 -0.06192,0.0374 -0.255161,0.21371 -0.475445,0.43379 -0.430642,0.43024 -0.507011,0.4913 -0.571859,0.45771 -0.06215,-0.0322 -0.349077,-0.0242 -0.466284,0.013 -0.07256,0.023 -0.126452,0.0638 -0.229812,0.17417 -0.126139,0.13471 -0.135137,0.15192 -0.136853,0.26153 -0.002,0.0881 0.01626,0.14115 0.07093,0.21331 l 0.07276,0.0959 -6.838453,6.84208 c -3.761147,3.76312 -7.638781,7.64626 -8.616959,8.62919 -2.523901,2.53615 -5.999276,6.01331 -6.487816,6.49108 -0.228026,0.22307 -0.707536,0.71429 -1.065581,1.09166 -0.793764,0.83661 -4.80006,4.89086 -4.880762,4.93919 -0.04544,0.0274 -0.06884,0.0237 -0.108848,-0.0159 -0.05838,-0.0585 -0.134019,-0.0599 -0.171138,-0.005 -0.01905,0.0291 -0.01007,0.0519 0.03636,0.0915 0.06412,0.0546 0.06283,0.0726 -0.0067,0.0882 -0.0266,0.008 -0.09716,-0.0384 -0.20231,-0.12698 -0.152354,-0.12852 -0.439909,-0.28235 -0.546263,-0.29226 -0.06624,-0.008 -0.61512,0.54782 -0.630755,0.63661 -0.0061,0.0355 0.01616,0.16171 0.0497,0.28047 0.03354,0.11875 0.07158,0.2534 0.08435,0.29925 0.01281,0.0458 0.04703,0.15132 0.076,0.23444 0.02897,0.0831 0.0459,0.16925 0.03759,0.19146 -0.0084,0.0222 -0.262748,0.29818 -0.565339,0.61334 -0.59362,0.6183 -0.6307537,0.66859 -0.6613927,0.89625 -0.01494,0.11082 0.03186,0.36943 0.08431,0.46578 0.04063,0.0747 1.550143,1.6732 2.259924,2.39324 0.301794,0.30613 0.668168,0.6859 0.814164,0.8439 l 0.265441,0.2873 0.0027,0.23725 c 0.0036,0.40803 0.09876,0.62616 0.426502,0.97153 0.223693,0.23573 0.495893,0.41816 0.684673,0.45885 0.152665,0.0331 0.514711,0.0753 0.595427,0.07 0.100263,-0.009 0.411803,-0.19789 0.959021,-0.58791 0.325719,-0.23216 0.493966,-0.32395 0.834514,-0.45506 0.48782,-0.18789 1.31501,-0.20997 1.806445,-0.0485 0.0443,0.014 0.116824,0.0383 0.16123,0.0526 0.171755,0.0558 0.26807,0.0998 0.46516,0.21232 0.449194,0.25646 0.528737,0.31835 0.872348,0.6787 0.296732,0.31118 0.823871,0.94444 0.996161,1.19673 0.03979,0.0583 0.130686,0.17596 0.20199,0.26152 0.07126,0.0856 0.1498,0.19764 0.174437,0.24901 0.02464,0.0515 0.06975,0.11852 0.100318,0.14927 0.116273,0.11707 0.690264,1.02859 1.028073,1.63277 0.05277,0.0943 0.124824,0.22281 0.160175,0.28552 0.03538,0.0627 0.08773,0.16275 0.116395,0.22235 0.02867,0.0597 0.100674,0.20419 0.160024,0.32135 0.150936,0.29794 0.207294,0.41708 0.242218,0.51194 0.01663,0.045 0.04118,0.0931 0.05458,0.10644 0.01332,0.0134 0.03818,0.0703 0.05518,0.12652 0.017,0.0562 0.04101,0.11233 0.05345,0.12478 0.01241,0.0129 0.03599,0.0652 0.0523,0.11717 0.01633,0.0519 0.06517,0.1517 0.108624,0.22148 0.07866,0.12645 0.07931,0.12692 0.180772,0.12908 0.128953,0.004 0.150727,0.0507 0.07287,0.16011 -0.06732,0.0945 -0.07508,0.19335 -0.02526,0.31838 0.05505,0.138 0.12533,0.18896 0.242539,0.17592 0.101003,-0.0119 0.104031,-0.01 0.09595,0.0492 -0.0049,0.0336 -0.03454,0.087 -0.06647,0.11901 -0.154039,0.15405 0.01999,0.58921 0.198631,0.49665 0.07501,-0.039 0.142277,0.0473 0.09467,0.1214 -0.130461,0.20294 -0.137655,0.23605 -0.08849,0.40726 0.02623,0.0915 0.05244,0.17111 0.05816,0.17705 0.0049,0.008 0.06739,0.0122 0.137067,0.0129 0.131787,0.002 0.178922,0.0226 0.143063,0.0629 -0.158835,0.17805 -0.180731,0.2381 -0.149128,0.40908 0.0379,0.2049 0.07502,0.24929 0.204703,0.24485 0.06039,-0.002 0.112529,0.01 0.115869,0.022 0.0049,0.0138 -0.02074,0.0609 -0.05353,0.10377 -0.107681,0.14106 -0.121419,0.40915 -0.02875,0.5611 0.03553,0.0583 0.04797,0.0617 0.187872,0.0497 0.08057,-0.009 0.107322,0.0573 0.05161,0.12401 -0.116355,0.13922 -0.158307,0.24604 -0.144914,0.36907 0.02409,0.22081 0.08457,0.30133 0.221385,0.29451 0.113697,-0.007 0.119305,0.0333 0.02265,0.15727 -0.101077,0.12974 -0.124268,0.24687 -0.08718,0.44056 0.02279,0.11911 0.09063,0.21776 0.134585,0.19577 0.01288,-0.008 0.05032,-0.0146 0.08317,-0.0198 0.05861,-0.01 0.05969,-0.008 0.05199,0.0536 -0.0049,0.0336 -0.02995,0.0833 -0.05694,0.11043 -0.0674,0.0674 -0.101346,0.21613 -0.08455,0.37056 0.01745,0.15984 0.08396,0.22312 0.199617,0.18972 0.04384,-0.0129 0.08852,-0.0157 0.09932,-0.01 0.02592,0.0208 -0.02843,0.1739 -0.10877,0.30765 -0.05252,0.0874 -0.05992,0.1306 -0.04034,0.23657 0.0132,0.0716 0.04195,0.15654 0.06396,0.18941 0.03345,0.0503 0.05398,0.0562 0.126923,0.0373 0.139257,-0.0362 0.200725,0.0734 0.0985,0.17583 -0.08477,0.0846 -0.119802,0.24569 -0.08657,0.39794 0.03697,0.16926 0.08823,0.20854 0.214112,0.16396 0.144043,-0.0511 0.154496,-0.003 0.0448,0.20803 -0.0907,0.17401 -0.100348,0.2333 -0.05929,0.36377 0.04879,0.15509 0.09173,0.19058 0.179312,0.14824 0.134234,-0.0648 0.228765,0.0492 0.126648,0.15265 -0.07975,0.0808 -0.12023,0.26503 -0.08407,0.38258 0.04697,0.15281 0.07677,0.17592 0.207918,0.16118 0.06166,-0.009 0.118033,-0.009 0.125175,3.7e-4 0.0063,0.009 -0.01776,0.0985 -0.05542,0.20311 -0.05771,0.1604 -0.06275,0.20884 -0.0324,0.30998 0.04841,0.16101 0.110936,0.20454 0.217487,0.15151 0.06914,-0.0345 0.09191,-0.0328 0.134044,0.01 0.04536,0.0452 0.04429,0.0617 -0.01043,0.15386 -0.102765,0.17314 -0.11388,0.26671 -0.04742,0.39925 l 0.05946,0.11857 0.121248,-0.01 c 0.147868,-0.0114 0.189877,0.0234 0.133028,0.10889 -0.06312,0.0947 -0.0984,0.28551 -0.06953,0.3762 0.0401,0.12609 0.134209,0.20527 0.222181,0.18698 0.09741,-0.0206 0.114796,0.035 0.07447,0.23732 -0.02539,0.12733 -0.02013,0.17253 0.03239,0.27882 l 0.06267,0.12686 0.09585,-0.0243 c 0.138158,-0.0356 0.165143,0.0121 0.119815,0.20915 -0.03089,0.13491 -0.02935,0.19265 0.0073,0.2748 0.02554,0.0574 0.05986,0.11736 0.07617,0.1337 0.03501,0.0348 0.150769,0.0198 0.196593,-0.0265 0.04833,-0.0485 0.09629,-0.0135 0.137099,0.0995 0.03446,0.0952 0.03171,0.10675 -0.04652,0.19553 -0.103466,0.11738 -0.105927,0.14474 -0.02646,0.29428 0.03521,0.0661 0.08143,0.15419 0.102773,0.19536 0.04201,0.0813 0.200633,0.30441 0.523173,0.73592 0.495897,0.66352 0.524714,0.69233 0.793082,0.79365 0.181537,0.0686 0.432201,0.0951 0.843996,0.0901 0.338746,-0.006 0.464672,-0.0165 0.769837,-0.0751 0.329728,-0.0633 0.366669,-0.0865 0.815098,-0.5116 0.311514,-0.29533 0.405451,-0.3739 0.450729,-0.37705 0.03849,-0.003 0.06938,-0.024 0.09448,-0.0661 0.120466,-0.2005 0.185309,-0.23793 0.15962,-0.0922 -0.01265,0.072 0.05875,0.33608 0.103049,0.38035 0.0248,0.0245 0.09542,0.15751 0.241455,0.45383 0.180427,0.36611 0.218767,0.43414 0.276274,0.49034 0.07299,0.0715 0.223368,0.0917 0.357068,0.0483 0.0953,-0.031 0.149196,-0.0839 1.121083,-1.10031 z m 0.501583,-27.34609 c -0.22744,0.1207 -0.41293,0.19116 -0.790317,0.30016 -0.21971,0.0633 -0.722403,0.0712 -1.050047,0.0154 -0.382612,-0.0645 -0.61043,-0.15661 -0.985825,-0.3988 -0.119208,-0.0768 -0.246883,-0.15781 -0.28373,-0.1798 -0.03684,-0.0222 -0.156209,-0.14183 -0.26531,-0.26626 -0.17594,-0.20079 -0.204193,-0.24489 -0.250636,-0.39119 -0.02874,-0.0907 -0.05131,-0.17391 -0.05009,-0.18496 0.0049,-0.0446 -0.0314,-0.34806 -0.04826,-0.40225 -0.0244,-0.0782 0.02928,-0.16068 0.124017,-0.19049 0.04255,-0.0134 0.08699,-0.0339 0.0987,-0.0452 0.03866,-0.0382 0.08349,-0.01 0.113286,0.0772 0.114985,0.32739 0.15872,0.36785 0.397673,0.36785 0.155736,0 0.175165,0.01 0.504697,0.19758 0.04975,0.0289 0.138215,0.0696 0.196575,0.091 0.0583,0.0214 0.117662,0.0504 0.131793,0.0644 0.0141,0.0138 0.06568,0.0337 0.1146,0.0435 0.04889,0.0103 0.106026,0.0351 0.126948,0.0558 0.02086,0.0212 0.0586,0.0358 0.08379,0.0335 0.02517,-0.003 0.06899,0.01 0.09745,0.0268 0.05113,0.0306 0.210152,0.072 0.507635,0.13154 0.135098,0.0274 0.60989,0.0749 0.815601,0.0823 0.102061,0.005 0.640684,-0.0675 0.949803,-0.12494 0.233931,-0.0435 0.312304,-0.1995 0.22475,-0.44683 -0.0261,-0.0736 -0.04535,-0.15598 -0.0429,-0.18281 0.01002,-0.10748 -0.06915,-0.21017 -0.247683,-0.32135 -0.0921,-0.0575 -0.194121,-0.10934 -0.226688,-0.11548 -0.03257,-0.008 -0.07422,-0.0263 -0.09265,-0.0444 -0.01841,-0.0187 -0.07062,-0.0468 -0.116079,-0.0631 -0.04545,-0.016 -0.130221,-0.0543 -0.188404,-0.0844 -0.05814,-0.0301 -0.183162,-0.0897 -0.277741,-0.13232 -0.09458,-0.0427 -0.211685,-0.10144 -0.260228,-0.13058 -0.04858,-0.0291 -0.105497,-0.0544 -0.126556,-0.0565 -0.02103,-0.002 -0.08851,-0.0315 -0.149865,-0.0654 -0.146307,-0.0812 -0.327769,-0.17167 -0.43697,-0.21787 -0.07,-0.0297 -0.168063,-0.12079 -0.485489,-0.45124 -0.218784,-0.22782 -0.400252,-0.4246 -0.403253,-0.43732 -0.004,-0.013 -0.06584,-0.10067 -0.139635,-0.19537 -0.126055,-0.16184 -0.279725,-0.42985 -0.336953,-0.58772 -0.02934,-0.0808 0.02403,-0.16352 0.258675,-0.40136 0.07779,-0.079 0.167003,-0.19005 0.198197,-0.24711 0.0312,-0.057 0.127905,-0.18497 0.214911,-0.28428 0.08702,-0.0993 0.254736,-0.30061 0.372738,-0.44734 0.117994,-0.14679 0.305884,-0.352 0.417536,-0.45608 0.268448,-0.25024 0.676519,-0.70761 0.812934,-0.91118 0.06014,-0.0899 0.257101,-0.32842 0.437637,-0.53033 0.18053,-0.20185 0.352935,-0.40648 0.383121,-0.45477 0.170154,-0.27202 0.561369,-0.55623 0.93514,-0.67939 0.311877,-0.10274 0.823578,-0.11278 1.140512,-0.0225 0.04573,0.0132 0.134456,0.0382 0.197059,0.0555 0.354545,0.0994 0.861094,0.47169 1.488103,1.09395 0.433242,0.42995 0.599076,0.64757 0.680796,0.89342 0.152637,0.45926 0.123157,1.01418 -0.07836,1.47568 -0.166176,0.38051 -0.227657,0.46147 -0.863105,1.1364 -0.326152,0.34637 -0.690135,0.74126 -0.808854,0.87745 -0.118724,0.13623 -0.411195,0.4535 -0.649952,0.70502 -0.238752,0.25149 -0.537931,0.5781 -0.66484,0.72573 -0.392054,0.45615 -0.77615,0.86846 -1.160742,1.24607 -0.327826,0.32187 -0.388249,0.37247 -0.543523,0.45488 z"
       id="path844"       
       sodipodi:nodetypes="ccccccscccccccccccccscccccccccccccccsccccccccccccccccccccccccscscsccccscccsccccccccccsccccscccccccccccccccccccsccccccsscscccsccscccssccscccccscsccscscccccccscscccccccsccccccccscccccccccccscccccccsccccccccscccscccccccccccccssccccscccccccccccccccccccccccccccccccccsccccccsccccccscccccccccccccccccccsccccc" />
  </g>
</svg>
