<?xml version="1.0" encoding="UTF-8" standalone="no"?>
<!-- Created with Inkscape (http://www.inkscape.org/) -->

<svg
   xmlns:dc="http://purl.org/dc/elements/1.1/"
   xmlns:cc="http://creativecommons.org/ns#"
   xmlns:rdf="http://www.w3.org/1999/02/22-rdf-syntax-ns#"
   xmlns:svg="http://www.w3.org/2000/svg"
   xmlns="http://www.w3.org/2000/svg"
   xmlns:sodipodi="http://sodipodi.sourceforge.net/DTD/sodipodi-0.dtd"   
   width="220"
   height="235"
   viewBox="0 0 58.208332 62.177085"
   version="1.1"
   id="svg8"   
   sodipodi:docname="hi capa.svg" >
  <defs
     id="defs2" />
  <sodipodi:namedview
     id="base"
     pagecolor="#000000"
     bordercolor="#666666"
     borderopacity="1.0"
     showgrid="false"
     units="px"
     showguides="false" />
  <metadata
     id="metadata5">
    <rdf:RDF>
      <cc:Work
         rdf:about="">
        <dc:format>image/svg+xml</dc:format>
        <dc:type
           rdf:resource="http://purl.org/dc/dcmitype/StillImage" />
        <dc:title></dc:title>
      </cc:Work>
    </rdf:RDF>
  </metadata>
  <g
     id="layer1"
     transform="translate(0,-234.8229)">
    <path
       style="fill:none;stroke:#fffffd;stroke-width:0.4;stroke-opacity:1;stroke-miterlimit:4;stroke-dasharray:none"
       d="m 40.20355,290.08468 c 0.447768,-0.85582 0.587038,-1.59331 0.370211,-1.96042 -0.18164,-0.30753 -0.164844,-0.38075 0.18631,-0.81202 0.357026,-0.43844 0.370013,-0.50097 0.173239,-0.83419 -0.188315,-0.31892 -0.306019,-0.37322 -1.026206,-0.47377 -0.845658,-0.11808 -0.866576,-0.13241 -1.276767,-0.87632 -0.604497,-1.09628 -1.204088,-2.15537 -1.273047,-2.24861 -0.04116,-0.0556 -0.06809,-0.14964 -0.05985,-0.20882 0.0081,-0.0591 -0.09562,-0.26555 -0.230871,-0.45864 -0.135243,-0.19306 -0.258331,-0.40374 -0.273539,-0.46818 -0.02384,-0.10098 -0.567292,-1.0719 -0.874938,-1.56312 -0.05597,-0.0892 -0.214554,-0.40611 -0.35247,-0.70402 -0.137911,-0.29788 -0.30811,-0.62925 -0.378219,-0.73638 -0.07009,-0.10709 -0.177241,-0.29076 -0.238068,-0.40814 -0.06082,-0.11741 -0.16824,-0.30079 -0.238691,-0.40756 -0.07045,-0.10677 -0.400475,-0.71411 -0.733387,-1.34968 -0.671596,-1.28206 -1.078869,-2.04514 -1.133619,-2.12389 -0.01987,-0.0289 -0.07231,-0.13456 -0.116574,-0.2356 -0.279254,-0.63734 -0.761688,-1.48415 -0.906703,-1.59146 -0.232404,-0.17201 -0.530586,-1.1288 -0.425389,-1.36504 0.04682,-0.10512 1.880682,-2.04086 4.075246,-4.30163 2.75354,-2.8366 4.001499,-4.18382 4.026857,-4.34717 0.06411,-0.41295 -0.78489,-1.47756 -2.268614,-2.84477 -1.565056,-1.44216 -1.798694,-1.80946 -1.738695,-2.73314 0.05774,-0.88843 0.530401,-1.60518 2.081568,-3.15637 1.103551,-1.10354 1.358056,-1.40821 1.339863,-1.60398 -0.02866,-0.30836 0.173963,-0.51058 0.529531,-0.5282 0.241632,-0.0125 0.503428,-0.26042 1.947547,-1.84796 1.085041,-1.19278 1.734916,-1.84019 1.858652,-1.85172 0.215673,-0.0203 4.982453,-4.83817 4.98224,-5.03587 -7.5e-5,-0.0671 -0.696295,-0.83676 -1.547151,-1.71043 -0.858728,-0.88172 -1.706714,-1.84642 -1.905971,-2.16837 -0.459192,-0.74197 -2.502161,-2.69607 -2.818549,-2.69599 -0.121035,1e-5 -0.292489,-0.0723 -0.381021,-0.16096 -0.08854,-0.0886 -0.589328,-0.14636 -1.112891,-0.12849 -0.815772,0.0279 -1.044651,0.0948 -1.600159,0.46883 -0.932035,0.62742 -1.170725,0.88232 -0.992829,1.06018 0.08132,0.0814 0.235794,0.33481 0.343307,0.56338 l 0.195482,0.4156 -12.01401,11.90906 c -10.641843,10.54886 -12.046579,11.91067 -12.299242,11.92327 -0.173572,0.01 -0.903847,0.45971 -1.865418,1.15219 -0.869098,0.62592 -1.854319,1.33413 -2.189377,1.57369 -0.3350596,0.23971 -0.6088386,0.45378 -0.6083956,0.47587 4.32e-4,0.0222 0.131167,0.37639 0.290493,0.78747 0.224667,0.57958 0.3400576,0.75205 0.5140996,0.7682 0.376597,0.0347 0.697777,0.82685 0.520989,1.28443 -0.13145,0.34024 -0.204337,0.39785 -0.668248,0.52786 -0.7190516,0.20167 -0.9945006,0.51587 -0.9945013,1.13455 -1.8e-6,0.37942 0.083818,0.59851 0.3189187,0.83361 0.335736,0.33572 0.5922756,0.37209 1.6855576,0.23874 1.129576,-0.13765 2.420075,0.64145 2.525586,1.52479 0.02758,0.23096 0.19004,0.60317 0.361013,0.82709 0.418046,0.5476 0.247099,0.95961 -0.855617,2.06236 l -0.826019,0.82596 0.06823,0.97967 c 0.07961,1.14293 -0.04329,1.12613 1.708396,0.2335 1.790584,-0.91247 2.74584,-1.07939 3.956568,-0.69126 0.67258,0.2156 1.559144,0.81274 1.86529,1.25644 0.346112,0.50158 0.566493,1.44319 0.446729,1.90872 -0.07707,0.29945 0.02754,0.77554 0.390016,1.77549 0.451854,1.24648 0.520679,1.368 0.784712,1.38504 0.187477,0.0125 0.43655,-0.11907 0.707158,-0.37259 0.273947,-0.25666 0.346184,-0.29433 0.209818,-0.10955 -0.208741,0.28292 -0.105152,1.20529 0.183197,1.63114 0.07111,0.10504 0.628072,1.38224 1.237718,2.83819 0.609641,1.45602 1.157951,2.6968 1.218471,2.7573 0.06051,0.0606 0.08364,0.13654 0.05133,0.16877 -0.03226,0.0324 -0.0053,0.11117 0.05784,0.17527 0.112101,0.11213 0.66571,1.39845 1.17489,2.72994 0.133951,0.35032 0.33996,0.87284 0.457804,1.16118 l 0.214263,0.52434 0.641709,0.14444 c 0.7756,0.17449 1.084775,0.0733 2.645035,-0.86419 0.665402,-0.39993 1.234721,-0.72791 1.265156,-0.72894 0.03044,-0.002 0.268037,0.42867 0.528019,0.95483 0.311247,0.62997 0.53211,0.95675 0.646636,0.95675 0.09565,0 0.452607,-0.19174 0.793196,-0.42603 0.340598,-0.23433 1.792804,-1.17257 3.227125,-2.085 2.757891,-1.75445 3.025644,-1.96739 3.419149,-2.71951 z m -6.046587,-23.63823 c -0.21527,0.0859 -0.230321,0.0771 -0.103861,-0.0601 0.197609,-0.21408 0.171923,-0.22871 -0.653722,-0.37073 -0.954787,-0.16426 -1.394837,-0.40048 -2.136973,-1.14721 -0.706346,-0.71074 -0.998685,-1.34163 -1.092973,-2.35863 l -0.05919,-0.6386 1.011809,-1.0131 c 0.87794,-0.87929 1.097742,-1.0446 1.662217,-1.25035 1.118035,-0.40759 2.406541,-0.12863 3.244542,0.70238 1.036147,1.0276 1.222475,2.64582 0.439058,3.81323 -0.401209,0.59787 -1.989967,2.19494 -2.310855,2.3229 z m -23.046432,4.13125 c -0.800446,0.26207 -1.093013,0.23633 -1.3030286,-0.1144 -0.248335,-0.41476 0.02976,-0.75742 0.8263716,-1.01824 0.373622,-0.12229 0.70813,-0.19312 0.74336,-0.15733 0.19982,0.20288 0.527826,0.92191 0.454164,0.99557 -0.04774,0.0476 -0.372147,0.18021 -0.720867,0.2944 z"
       id="path907"       
       sodipodi:nodetypes="cccccscccccccccsccccscssscccccsscsscsccscccccccccscccsccssscsccccscssssccccccccccccccccccscccssccss" />
  </g>
</svg>
