<?xml version="1.0" encoding="UTF-8" standalone="no"?>
<!-- Created with Inkscape (http://www.inkscape.org/) -->

<svg
   xmlns:dc="http://purl.org/dc/elements/1.1/"
   xmlns:cc="http://creativecommons.org/ns#"
   xmlns:rdf="http://www.w3.org/1999/02/22-rdf-syntax-ns#"
   xmlns:svg="http://www.w3.org/2000/svg"
   xmlns="http://www.w3.org/2000/svg"
   xmlns:sodipodi="http://sodipodi.sourceforge.net/DTD/sodipodi-0.dtd"   
   width="220"
   height="235"
   viewBox="0 0 58.208332 62.177085"
   version="1.1"
   id="svg8"   
   sodipodi:docname="luger.svg" >
  <defs
     id="defs2" />
  <sodipodi:namedview
     id="base"
     pagecolor="#000000"
     bordercolor="#666666"
     borderopacity="1.0"
     showgrid="false"
     units="px"
     showguides="false" />
  <metadata
     id="metadata5">
    <rdf:RDF>
      <cc:Work
         rdf:about="">
        <dc:format>image/svg+xml</dc:format>
        <dc:type
           rdf:resource="http://purl.org/dc/dcmitype/StillImage" />
        <dc:title></dc:title>
      </cc:Work>
    </rdf:RDF>
  </metadata>
  <g
     id="layer1"
     transform="translate(0,-234.8229)">
    <path
       style="fill:none;stroke:#fffffd;stroke-width:0.4;stroke-opacity:1;stroke-miterlimit:4;stroke-dasharray:none"
       d="m 35.545699,292.30071 c 0.336566,-0.78882 0.825929,-1.73329 1.087481,-2.09882 0.737274,-1.03033 0.618599,-1.97056 -0.52499,-4.15936 -0.722884,-1.38359 -1.144047,-2.56703 -1.517682,-4.2646 -0.993687,-4.51471 -1.876941,-9.56602 -1.905908,-10.8999 -0.0263,-1.21095 0.04552,-1.44028 0.722703,-2.30743 0.648036,-0.82983 0.934302,-1.03904 2.07217,-1.5144 0.877158,-0.36644 1.590639,-0.82195 2.1259,-1.35721 1.923567,-1.92356 1.924772,-4.05237 0.0034,-5.97376 -1.057425,-1.05742 -1.093861,-1.41269 -0.233162,-2.27339 0.28791,-0.28791 0.454714,-0.71791 0.454714,-1.17219 0,-0.59937 -0.141731,-0.85923 -0.86092,-1.57842 -1.407698,-1.40769 -1.560671,-1.13391 3.736273,-6.68665 2.499317,-2.62002 5.278626,-5.44091 6.176212,-6.26868 l 1.632035,-1.50499 -0.242575,-0.54018 c -0.428778,-0.95482 -1.305667,-1.64116 -2.694227,-2.10877 -1.002279,-0.33753 -1.452868,-0.37568 -1.822613,-0.1543 -0.426414,0.25532 -0.481263,0.47906 -0.416739,1.69636 l 0.07443,1.40228 -5.048822,4.82821 c -4.702398,4.49693 -5.081571,4.82312 -5.526056,4.75395 -0.396517,-0.0617 -0.716029,0.14823 -1.88928,1.2414 -0.786569,0.73288 -1.525457,1.5702 -1.668087,1.89026 -0.140814,0.31603 -0.910681,1.28286 -1.710808,2.14851 -1.43025,1.54737 -1.473686,1.57776 -2.576051,1.80164 -1.087759,0.22092 -1.151643,0.26447 -2.13759,1.45695 -0.558976,0.67608 -2.074402,2.29781 -3.367619,3.60386 -1.865657,1.88421 -2.467286,2.39945 -2.912988,2.49472 -0.946652,0.20236 -1.537963,0.66939 -1.86934,1.47644 -0.344259,0.83841 -3.969222,4.62064 -4.203741,4.38611 -0.178943,-0.17894 -0.8130832,0.12306 -0.7762127,0.36966 0.016393,0.10963 -0.068642,0.49549 -0.1889605,0.85749 -0.1350653,0.40636 -0.081561,1.0654 0.1398509,1.7226 0.3023746,0.89752 0.4332043,1.08167 0.8343103,1.17439 0.261631,0.0605 1.013028,0.57559 1.669768,1.14471 0.656741,0.56912 1.34515,1.08091 1.529801,1.13731 0.208679,0.0638 0.34506,0.2895 0.360372,0.59654 0.03345,0.67076 0.588666,0.69524 0.788643,0.0348 0.09707,-0.3206 0.214381,-0.44143 0.388609,-0.40032 0.137275,0.0324 1.063419,-0.23067 2.058101,-0.58462 1.570986,-0.55903 1.952127,-0.60627 2.901993,-0.3597 0.838456,0.21764 1.281843,0.4722 1.901143,1.0915 0.954818,0.95482 1.251743,1.98763 2.184889,7.5998 1.101755,6.62625 0.89381,5.96159 2.36885,7.57156 l 1.300622,1.41959 2.073657,-0.006 c 1.14051,-0.003 2.192205,0.1082 2.337108,0.24799 0.51161,0.49355 1.789043,0.37273 2.310627,-0.21856 0.136844,-0.15507 0.524123,-0.9274 0.860683,-1.71623 z m -0.253042,-25.78458 c -1.275173,0.42506 -2.05924,0.23578 -3.006541,-0.72576 -0.542456,-0.55064 -0.887132,-1.09598 -1.031831,-1.63262 -0.168719,-0.62572 -0.155841,-0.70392 0.05763,-0.34993 0.780082,1.29358 1.307947,1.77474 2.292556,2.08972 1.085083,0.3471 2.449626,0.1835 2.991849,-0.35873 0.486068,-0.48606 0.209294,-0.64387 -0.737341,-0.4204 -0.939441,0.22178 -1.980906,-0.20876 -2.511673,-1.03829 -0.194353,-0.30376 -0.353376,-1.06506 -0.353378,-1.69177 5e-6,-0.96923 0.0934,-1.23287 0.625175,-1.76464 0.776632,-0.77663 1.39561,-0.8942 2.726027,-0.51776 1.16891,0.33074 1.666965,0.87235 1.989581,2.16356 0.229695,0.91932 0.09536,1.42507 -0.653392,2.46001 -0.69072,0.95473 -1.332013,1.43443 -2.388662,1.78661 z"
       id="path1026" />       
  </g>
</svg>
