<?xml version="1.0" encoding="UTF-8" standalone="no"?>
<!-- Created with Inkscape (http://www.inkscape.org/) -->

<svg
   xmlns:dc="http://purl.org/dc/elements/1.1/"
   xmlns:cc="http://creativecommons.org/ns#"
   xmlns:rdf="http://www.w3.org/1999/02/22-rdf-syntax-ns#"
   xmlns:svg="http://www.w3.org/2000/svg"
   xmlns="http://www.w3.org/2000/svg"
   xmlns:sodipodi="http://sodipodi.sourceforge.net/DTD/sodipodi-0.dtd"   
   width="220"
   height="235"
   viewBox="0 0 58.208332 62.177085"
   version="1.1"
   id="svg8"
   sodipodi:docname="m&amp;p.svg" >
  <defs
     id="defs2" />
  <sodipodi:namedview
     id="base"
     pagecolor="#000000"
     bordercolor="#666666"
     borderopacity="1.0"
     showgrid="false"
     units="px"
     showguides="false" />
  <metadata
     id="metadata5">
    <rdf:RDF>
      <cc:Work
         rdf:about="">
        <dc:format>image/svg+xml</dc:format>
        <dc:type
           rdf:resource="http://purl.org/dc/dcmitype/StillImage" />
        <dc:title />
      </cc:Work>
    </rdf:RDF>
  </metadata>
  <g     
     id="layer1"
     transform="translate(0,-234.8229)">
    <path
       style="fill:none;stroke:#fffffd;stroke-width:0.4;stroke-opacity:1;stroke-miterlimit:4;stroke-dasharray:none"
       d="m 43.414459,286.60266 c 0.230074,-0.61201 0.202449,-0.78393 -0.158427,-0.98569 -1.595441,-0.89204 -3.095251,-1.99192 -3.539555,-2.59564 -1.030214,-1.39987 -5.464621,-10.51863 -5.464625,-11.23726 4e-6,-0.97345 0.46938,-1.65137 1.664565,-2.40409 2.237316,-1.409 3.062232,-2.08368 4.673504,-3.82225 1.82578,-1.97009 2.228939,-2.75648 1.993238,-3.88807 -0.07505,-0.36028 -0.728862,-1.86079 -1.45293,-3.33451 -0.724069,-1.47368 -1.318795,-2.92951 -1.321625,-3.23509 -0.0049,-0.47667 0.225293,-0.78082 1.615356,-2.1391 1.479814,-1.44592 1.608168,-1.62424 1.478162,-2.05352 -0.182953,-0.60428 0.304908,-1.0961 0.799652,-0.80652 0.274236,0.16052 0.509613,0.0963 0.833196,-0.22723 0.323586,-0.32359 0.387777,-0.55898 0.227242,-0.83322 -0.288059,-0.49204 0.114748,-0.89485 0.71356,-0.71357 0.661018,0.20014 1.64636,-0.77749 1.216508,-1.20735 -0.323854,-0.32386 0.07401,-0.62554 0.830789,-0.62999 0.218914,-0.002 0.647073,-0.25485 0.951458,-0.56347 0.534844,-0.5417 0.535052,-0.61211 0.01349,-2.05858 -0.51639,-1.43216 -0.644852,-1.61098 -2.943626,-4.09764 -2.464585,-2.66598 -2.97484,-3.08021 -3.342045,-2.71298 -0.116067,0.11604 -0.339026,0.083 -0.495463,-0.0735 -0.398486,-0.39851 -0.842477,-0.28781 -1.621767,0.40428 -0.604178,0.53665 -0.649428,0.6673 -0.449009,1.29701 l 0.222884,0.70026 -5.220701,5.30407 c -2.871407,2.91721 -8.958586,8.97382 -13.527167,13.45903 -7.999536,7.85362 -8.325274,8.15205 -8.815496,8.07581 -0.581382,-0.0905 -0.677055,-0.0334 -2.4043347,1.43394 l -1.2695925,1.07854 0.4834903,0.48346 c 0.265921,0.26592 0.9232039,1.26717 1.4606209,2.22499 0.537421,0.95782 1.262586,2.10001 1.611476,2.53812 0.348898,0.43815 0.850697,1.15879 1.115118,1.60148 0.570062,0.95436 1.09421,1.10281 1.715696,0.4859 0.669395,-0.66481 2.598927,-1.23489 3.681986,-1.0883 0.860895,0.11649 1.137432,0.26883 1.871061,1.03075 0.751421,0.78043 0.982817,1.27045 1.820126,3.85442 0.527589,1.62814 1.469232,4.00702 2.09255,5.28643 1.333501,2.73712 4.660561,8.15689 5.066066,8.25263 0.155114,0.0367 0.635997,0.45039 1.068634,0.9195 0.437469,0.47437 0.96113,0.86915 1.179797,0.8895 0.580042,0.0537 0.957019,-0.43401 0.856205,-1.10818 l -0.0887,-0.59304 0.287815,0.46966 c 0.158298,0.25829 0.393329,0.65651 0.522285,0.88494 0.215934,0.38251 0.329387,0.34643 1.435281,-0.45599 1.779335,-1.29105 4.118877,-3.22976 6.352185,-5.26386 1.587567,-1.44594 2.037505,-1.95276 2.260718,-2.54653 z m -7.318668,-19.08883 c -1.673337,1.05318 -3.002163,1.15297 -3.864898,0.29026 -0.349247,-0.34926 -0.498986,-0.66496 -0.410084,-0.86457 0.08499,-0.1908 -0.05476,-0.50925 -0.355423,-0.80989 -0.579183,-0.57919 -0.616444,-1.35064 -0.06524,-1.35064 0.265668,0 0.306647,0.0442 0.168954,0.18182 -0.340725,0.34072 0.05315,0.41906 0.680784,0.1354 0.449114,-0.20297 0.726218,-0.18304 0.980597,0.0706 0.466594,0.46511 1.781439,0.78059 3.173953,0.76155 0.990992,-0.0135 1.169535,-0.0874 1.52976,-0.63287 0.532656,-0.80654 0.209562,-1.32882 -0.529508,-0.85595 -0.297727,0.19054 -0.847767,0.33682 -1.222255,0.32513 -3.230951,-0.10087 -2.753309,-4.66597 0.691965,-6.61345 1.293872,-0.73136 2.799549,-0.3046 3.344679,0.94802 0.116066,0.26672 0.423971,0.93113 0.684236,1.47653 0.730447,1.5307 0.498176,2.12475 -1.684882,4.3092 -1.110797,1.11141 -2.292897,2.10668 -3.122626,2.62894 z"
       id="path920" />       
  </g>
</svg>
