<?xml version="1.0" encoding="UTF-8" standalone="no"?>
<!-- Created with Inkscape (http://www.inkscape.org/) -->

<svg
   xmlns:dc="http://purl.org/dc/elements/1.1/"
   xmlns:cc="http://creativecommons.org/ns#"
   xmlns:rdf="http://www.w3.org/1999/02/22-rdf-syntax-ns#"
   xmlns:svg="http://www.w3.org/2000/svg"
   xmlns="http://www.w3.org/2000/svg"
   xmlns:sodipodi="http://sodipodi.sourceforge.net/DTD/sodipodi-0.dtd"   
   width="220"
   height="235"
   viewBox="0 0 58.208332 62.177085"
   version="1.1"
   id="svg8"
   sodipodi:docname="makarov.svg" >
  <defs
     id="defs2" />
  <sodipodi:namedview
     id="base"
     pagecolor="#000000"
     bordercolor="#666666"
     borderopacity="1.0"
     showgrid="false"
     units="px"
     showguides="false" />
  <metadata
     id="metadata5">
    <rdf:RDF>
      <cc:Work
         rdf:about="">
        <dc:format>image/svg+xml</dc:format>
        <dc:type
           rdf:resource="http://purl.org/dc/dcmitype/StillImage" />
        <dc:title></dc:title>
      </cc:Work>
    </rdf:RDF>
  </metadata>
  <g
     id="layer1"
     transform="translate(0,-234.8229)">
    <path
       style="fill:none;stroke:#fffffd;stroke-width:0.4;stroke-miterlimit:4;stroke-dasharray:none;stroke-opacity:1"
       d="m 36.987398,292.36622 c -0.311514,-0.0444 -0.658632,0.0118 -0.771383,0.12465 -0.11275,0.11293 -0.531086,0.38133 -0.929631,0.59646 -0.670959,0.36217 -0.706698,0.35928 -0.482525,-0.039 0.16565,-0.29436 -0.0082,-0.18815 -0.550625,0.33637 l -0.792739,0.76657 -1.748446,-1.891 c -3.007284,-3.25246 -5.011522,-6.09107 -5.826475,-8.2521 -0.165531,-0.43895 -0.637601,-1.7382 -1.049035,-2.88721 -0.411438,-1.14902 -0.832372,-2.17357 -0.935416,-2.27676 -0.103044,-0.10321 -0.163765,-0.28774 -0.134933,-0.41005 0.07868,-0.33386 -1.493092,-1.83583 -1.921148,-1.83583 -0.370948,0 -0.517028,-0.0564 -0.74996,-0.28974 -0.220195,-0.22054 -1.941169,-0.2655 -2.563927,-0.067 -0.320785,0.10228 -0.961966,0.4313 -1.424844,0.73117 -0.950834,0.616 -0.798897,0.68445 -2.534621,-1.14207 -1.009763,-1.06259 -1.188373,-1.33473 -1.122343,-1.71013 0.04319,-0.24554 -0.0094,-0.7231 -0.116846,-1.06125 -0.181181,-0.57014 -0.236317,-0.61624 -0.758902,-0.63477 -1.002235,-0.0356 -1.931952,-0.89167 -1.931947,-1.77905 -2e-6,-0.18885 0.07645,-0.34335 0.169892,-0.34335 0.09345,1e-5 0.09828,-0.0717 0.01079,-0.15936 -0.234043,-0.23441 0.924446,-1.24683 1.303922,-1.13952 0.791726,0.2239 0.701505,-1.85618 -0.09594,-2.2119 -0.186241,-0.083 -0.147409,-0.23259 0.133484,-0.51392 0.534805,-0.53566 0.702955,-0.9591 0.472518,-1.1899 -0.271422,-0.27186 -0.0078,-0.46635 0.632192,-0.46635 0.541153,0 0.731865,-0.18325 13.516606,-12.98829 8.553655,-8.56722 12.920978,-13.03508 12.83048,-13.12573 -0.07547,-0.0755 0.09278,-0.3678 0.373884,-0.64935 0.416861,-0.41753 0.691318,-0.50235 1.488447,-0.46 1.332034,0.0707 1.766966,0.29091 3.00326,1.52003 0.939814,0.93435 1.117521,1.22047 1.526256,2.45716 l 0.462607,1.39965 -1.762439,1.93893 c -0.969365,1.06638 -1.86601,2.05727 -1.992603,2.20193 -0.126589,0.14466 -0.230171,0.58267 -0.230169,0.97338 -10e-7,0.62449 -0.172796,0.9292 -1.429473,2.52082 -1.867668,2.36546 -2.014611,2.63041 -1.766149,3.18458 0.223813,0.49919 0.694452,0.85233 1.816016,1.36264 0.925845,0.42127 1.391188,0.90265 1.972604,2.04057 0.942882,1.84536 0.687115,3.83329 -0.740023,5.75182 -0.401413,0.53961 -1.01282,1.37803 -1.358679,1.86313 -1.023473,1.43557 -3.063752,3.41557 -3.85474,3.74088 -1.481331,0.60921 -2.516951,2.26706 -2.184508,3.49703 0.120774,0.44686 0.856512,1.51452 2.258358,3.2772 1.143571,1.43793 2.636261,3.35532 3.317089,4.26087 2.433707,3.237 3.01049,3.96101 3.189194,4.00326 0.09967,0.0235 0.1029,0.12633 0.0072,0.22836 -0.09569,0.10206 0.219676,0.15466 0.700897,0.11694 0.481219,-0.0377 0.872876,-0.0165 0.87035,0.0471 -0.01703,0.42888 -1.411294,1.98233 -3.998186,4.45467 -1.648078,1.57505 -2.996308,2.92542 -2.996067,3.00082 2.44e-4,0.0754 -0.04848,0.20146 -0.108234,0.2802 -0.05974,0.0788 -0.108448,0.17428 -0.108283,0.21224 0.0017,0.33831 -0.618097,0.70075 -1.084804,0.63425 z m 3.872675,-28.85264 c 2.091455,-2.75807 2.213789,-3.01271 2.164577,-4.50558 -0.07241,-2.19666 -2.097938,-3.85225 -4.414004,-3.60786 -1.087759,0.1148 -1.733713,0.57183 -3.109232,2.19992 l -1.075687,1.2732 0.820898,0.82219 c 1.362726,1.3649 3.182024,1.61978 4.894653,0.68576 0.889758,-0.48524 1.489754,-0.25179 0.890189,0.34636 -1.350978,1.34793 -4.119065,1.6877 -5.61429,0.68931 -0.583617,-0.38969 -0.826952,-0.37872 -1.714673,0.0773 -0.366158,0.18813 -0.818438,0.32782 -1.005064,0.31045 -0.805355,-0.075 -1.114631,1.63499 -0.551017,3.04653 0.484679,1.21384 0.872318,1.54395 2.429439,2.06887 1.176503,0.3966 1.46773,0.40628 2.457096,0.0817 1.322486,-0.43389 1.933043,-0.99037 3.827115,-3.48816 z"
       id="path1143" />       
  </g>
</svg>
