<?xml version="1.0" encoding="UTF-8" standalone="no"?>
<!-- Created with Inkscape (http://www.inkscape.org/) -->

<svg
   xmlns:dc="http://purl.org/dc/elements/1.1/"
   xmlns:cc="http://creativecommons.org/ns#"
   xmlns:rdf="http://www.w3.org/1999/02/22-rdf-syntax-ns#"
   xmlns:svg="http://www.w3.org/2000/svg"
   xmlns="http://www.w3.org/2000/svg"
   xmlns:sodipodi="http://sodipodi.sourceforge.net/DTD/sodipodi-0.dtd"   
   width="220"
   height="235"
   viewBox="0 0 58.208332 62.177085"
   version="1.1"
   id="svg8"   
   sodipodi:docname="p226.svg" >
  <defs
     id="defs2" />
  <sodipodi:namedview
     id="base"
     pagecolor="#000000"
     bordercolor="#666666"
     borderopacity="1.0"
     showgrid="false"
     units="px"
     showguides="false" />
  <metadata
     id="metadata5">
    <rdf:RDF>
      <cc:Work
         rdf:about="">
        <dc:format>image/svg+xml</dc:format>
        <dc:type
           rdf:resource="http://purl.org/dc/dcmitype/StillImage" />
        <dc:title></dc:title>
      </cc:Work>
    </rdf:RDF>
  </metadata>
  <g
     id="layer1"
     transform="translate(0,-234.8229)">
    <path
       style="fill:none;stroke:#fffffd;stroke-width:0.4;stroke-opacity:1;stroke-miterlimit:4;stroke-dasharray:none"
       d="m 40.526746,285.79675 c 0.279615,-0.45247 0.315354,-0.83401 0.08326,-0.88877 -0.09726,-0.023 -0.164308,0.0459 -0.218322,0.22462 -0.04291,0.14171 -0.09651,0.25146 -0.119082,0.24385 -0.02259,-0.01 -0.171103,-0.0507 -0.330048,-0.0955 -0.158943,-0.0447 -0.39247,-0.18443 -0.518958,-0.30992 -0.126484,-0.12549 -0.45788,-0.34995 -0.736432,-0.49885 -0.555463,-0.29676 -1.117983,-0.96651 -1.72639,-2.05538 -0.557721,-0.9981 -1.537053,-2.7015 -2.995679,-5.21037 -0.770982,-1.32609 -1.517873,-2.73138 -1.659761,-3.12287 -0.592466,-1.6347 -0.04612,-2.83554 1.738513,-3.82124 1.181037,-0.65232 2.504904,-1.93182 4.909433,-4.74508 1.731115,-2.02533 2.056973,-2.45292 2.026977,-2.6599 -0.01965,-0.13566 -0.118612,-0.27776 -0.219894,-0.31591 -0.363182,-0.13662 -1.678665,-1.41933 -2.26243,-2.2061 -0.993508,-1.33901 -1.251532,-2.50178 -0.783295,-3.52981 0.231815,-0.50901 0.478619,-0.81954 1.320193,-1.6611 l 1.035079,-1.0351 -0.202204,-0.30327 c -0.194153,-0.29127 -0.186012,-0.31756 0.204725,-0.66063 0.373047,-0.32757 0.430629,-0.34059 0.691588,-0.15642 0.26906,0.18993 0.307684,0.17854 0.704983,-0.20762 0.415561,-0.40394 0.417567,-0.41195 0.172918,-0.7086 -0.245071,-0.29714 -0.243494,-0.30342 0.165778,-0.66308 0.377411,-0.33168 0.435199,-0.34564 0.667364,-0.16139 0.241689,0.19181 0.275788,0.1801 0.694194,-0.2383 0.422604,-0.42262 0.432156,-0.45186 0.24109,-0.73846 -0.173783,-0.26066 -0.163878,-0.33198 0.07835,-0.56401 0.269429,-0.2581 0.849454,-0.56457 0.653529,-0.3453 -0.141588,0.15842 0.04982,0.30403 0.346329,0.26346 0.307787,-0.0423 0.699541,-0.40501 0.801753,-0.74261 0.0619,-0.2044 -0.01638,-0.33703 -0.46134,-0.782 l -0.535865,-0.53589 1.780207,-1.78017 1.78021,-1.78027 -0.07129,-0.3422 c -0.07788,-0.37386 -2.075195,-2.61574 -4.550184,-5.10735 -1.160324,-1.16808 -1.286515,-1.26828 -1.597446,-1.26828 -0.185684,0 -0.351334,0.0581 -0.368112,0.12921 -0.01676,0.0711 -0.120181,0.04 -0.229774,-0.0702 -0.346181,-0.34614 -0.688861,-0.23095 -1.57246,0.52862 l -0.81427,0.69993 0.123543,0.38816 c 0.06793,0.21353 0.172023,0.43664 0.231279,0.4959 0.08754,0.0876 -0.943598,1.15081 -5.499195,5.67089 l -5.606937,5.56318 0.126854,0.21668 c 0.119477,0.20413 0.08379,0.25385 -0.614337,0.85617 -2.085469,1.79929 -7.41152,6.83622 -13.915828,13.16051 -0.693423,0.67427 -1.153301,1.0723 -1.021932,0.88454 0.201959,-0.28866 0.205375,-0.38345 0.02211,-0.61381 -0.317989,-0.39961 -0.615868,-0.30402 -1.354534,0.43462 l -0.627818,0.62785 0.267247,0.56163 0.267247,0.56163 -0.439358,0.43937 -0.43936,0.43936 0.371272,0.66484 c 0.671849,1.20308 0.666596,1.16502 0.270785,1.96115 -0.329118,0.66193 -0.395889,0.74025 -0.718672,0.84301 -0.7355761,0.2341 -0.9858084,0.82598 -0.5383836,1.27338 0.2581134,0.25812 0.6534246,0.26528 1.5197166,0.0277 0.322031,-0.0883 0.726105,-0.15372 0.897945,-0.14513 0.300792,0.0147 0.325418,0.0423 0.660784,0.72406 0.487574,0.99165 0.760367,2.07884 0.860413,3.42914 0.08273,1.11634 0.100946,1.17111 0.512103,1.53844 l 0.426338,0.38085 1.38655,-0.77708 c 1.562232,-0.8755 2.090498,-1.03989 3.039787,-0.94564 0.602787,0.06 0.722726,0.11924 1.358274,0.67329 0.795805,0.6937 0.937148,0.9322 1.554322,2.62299 0.478803,1.31172 0.420334,1.16301 1.192804,3.03457 0.31965,0.77451 0.850977,2.06693 1.180723,2.87196 1.186946,2.89798 2.654894,4.95504 4.801766,6.72873 1.000406,0.82653 1.503941,1.1078 2.075276,1.15921 0.811756,0.073 1.455978,-0.44814 5.647934,-4.56934 2.177988,-2.14119 3.698314,-3.70206 3.858073,-3.96037 z m -6.262969,-16.68301 c -0.997899,0.64898 -1.853723,0.91237 -2.553,0.78555 -0.508241,-0.0922 -0.658166,-0.18096 -1.170235,-0.69301 -0.790409,-0.79041 -1.386256,-1.96501 -1.37462,-2.70984 l 0.0085,-0.55056 0.689801,-0.0416 c 0.379388,-0.0231 0.975025,-0.0728 1.323632,-0.11089 0.466776,-0.0511 0.894168,0.027 1.62157,0.29605 1.758113,0.65059 3.051741,0.51272 3.992829,-0.42543 0.380782,-0.37958 0.518771,-0.59804 0.545714,-0.86345 0.03503,-0.34521 0.02967,-0.35223 -0.187611,-0.24744 -0.941311,0.45404 -1.506865,0.57964 -2.15455,0.47843 -0.930238,-0.14531 -1.50639,-0.52728 -2.203235,-1.46072 -0.301553,-0.40402 -0.558527,-0.82459 -0.571046,-0.93472 -0.01798,-0.15805 0.250764,-0.45631 1.275872,-1.416 1.198847,-1.12236 1.339828,-1.22513 1.834641,-1.33697 0.731566,-0.16536 1.417836,-0.0879 1.85193,0.20904 0.495,0.33865 1.606606,1.8148 1.788018,2.37442 0.331137,1.02152 0.108364,1.52795 -1.459339,3.31791 -0.670837,0.76589 -1.243277,1.44357 -1.272089,1.50594 -0.134788,0.29183 -1.357631,1.41386 -1.986884,1.82316 z"
       id="path933" />       
  </g>
</svg>
