<?xml version="1.0" encoding="UTF-8" standalone="no"?>
<!-- Created with Inkscape (http://www.inkscape.org/) -->

<svg
   xmlns:dc="http://purl.org/dc/elements/1.1/"
   xmlns:cc="http://creativecommons.org/ns#"
   xmlns:rdf="http://www.w3.org/1999/02/22-rdf-syntax-ns#"
   xmlns:svg="http://www.w3.org/2000/svg"
   xmlns="http://www.w3.org/2000/svg"
   xmlns:sodipodi="http://sodipodi.sourceforge.net/DTD/sodipodi-0.dtd"   
   width="220"
   height="235"
   viewBox="0 0 58.208332 62.177085"
   version="1.1"
   id="svg8"   
   sodipodi:docname="revolver.svg" >
  <defs
     id="defs2" />
  <sodipodi:namedview
     id="base"
     pagecolor="#000000"
     bordercolor="#666666"
     borderopacity="1.0"
     showgrid="false"
     units="px"
     showguides="false" />
  <metadata
     id="metadata5">
    <rdf:RDF>
      <cc:Work
         rdf:about="">
        <dc:format>image/svg+xml</dc:format>
        <dc:type
           rdf:resource="http://purl.org/dc/dcmitype/StillImage" />
        <dc:title></dc:title>
      </cc:Work>
    </rdf:RDF>
  </metadata>
  <g
     id="layer1"
     transform="translate(0,-234.8229)">
    <path
       style="fill:none;stroke:#fffffd;stroke-width:0.4;stroke-opacity:1;stroke-miterlimit:4;stroke-dasharray:none"
       d="m 27.586373,290.91927 c 0.769317,-0.89395 1.477844,-1.82488 1.851692,-2.43293 0.216996,-0.35295 0.530288,-1.25472 0.510228,-1.46863 -0.02462,-0.26255 -0.407499,-0.55317 -1.950057,-1.48016 -2.057497,-1.23644 -3.250071,-2.11239 -4.419416,-3.24609 -1.305444,-1.26564 -1.577144,-2.21554 -0.964654,-3.37259 0.426796,-0.80624 0.986772,-1.34937 2.226802,-2.1598 0.04817,-0.0315 0.28853,0.033 0.5341,0.14345 1.106261,0.49731 2.379289,0.41503 3.764615,-0.24332 0.596385,-0.28342 0.653535,-0.32783 1.514889,-1.17709 0.796304,-0.78514 0.924853,-0.93899 1.164418,-1.3938 0.374496,-0.71095 0.505424,-1.1492 0.534446,-1.78893 0.03652,-0.80521 -0.225923,-1.55509 -0.963443,-2.75277 -0.720096,-1.16938 -0.804751,-1.4721 -0.594637,-2.12638 0.07516,-0.23406 0.930144,-1.24501 1.79262,-2.11964 0.179918,-0.18245 0.265545,-0.3242 0.255687,-0.42325 -0.0081,-0.0819 -0.01904,-0.23143 -0.02419,-0.33226 -0.01031,-0.20172 -0.496749,-1.07027 -1.143752,-2.04217 -0.229642,-0.34497 -0.514031,-0.78921 -0.631979,-0.98723 -0.117945,-0.19801 -0.39435,-0.64169 -0.61423,-0.98595 -0.219883,-0.34425 -0.380781,-0.66107 -0.357554,-0.70402 0.02322,-0.043 1.541025,-1.59074 3.372884,-3.43954 10.279045,-10.3741 14.508998,-14.6765 14.544886,-14.79398 0.05295,-0.17333 -0.124157,-0.42626 -0.69394,-0.99098 -0.424736,-0.42097 -0.467829,-0.4867 -0.460336,-0.70189 0.01219,-0.3493 -0.238239,-0.7279 -0.942426,-1.42484 -0.61669,-0.61043 -0.999769,-0.86142 -1.231608,-0.80718 -0.05367,0.0126 -0.249353,-0.13241 -0.458359,-0.33956 -0.260905,-0.25859 -0.448005,-0.38642 -0.657363,-0.44911 -0.160957,-0.0482 -0.435298,-0.1976 -0.609646,-0.33202 -0.264702,-0.20408 -0.37502,-0.24065 -0.668718,-0.22174 -0.348001,0.0224 -0.356201,0.0277 -0.775378,0.49479 -0.428622,0.47768 -0.543026,0.69481 -1.209628,2.29572 l -0.214786,0.51583 -2.090706,2.19603 c -2.458972,2.58288 -7.40928,7.84353 -8.084605,8.59145 -0.259178,0.28706 -1.372724,1.44599 -2.474531,2.57542 -2.000495,2.05065 -2.003586,2.0535 -2.22002,2.0459 -0.211693,-0.007 -0.251792,0.0272 -1.723868,1.48753 -0.828906,0.82233 -2.656793,2.58085 -4.061935,3.90785 l -2.554801,2.41273 -0.370379,0.10137 c -0.295351,0.0808 -0.425967,0.16225 -0.644806,0.40193 -0.150925,0.16533 -0.436032,0.46833 -0.633556,0.67335 l -0.359124,0.37278 -0.289157,-0.22758 c -0.159035,-0.12515 -0.326434,-0.20909 -0.371998,-0.18651 -0.04556,0.0226 -0.116321,0.008 -0.157242,-0.0327 -0.09842,-0.0975 -0.27518,0.0836 -0.258198,0.26459 0.0074,0.0786 -0.0187,0.1747 -0.05795,0.2136 -0.03924,0.0389 -0.02797,0.13312 0.02504,0.2094 0.502222,0.72264 0.635068,0.90254 0.752134,1.01857 0.08756,0.0868 0.118683,0.21272 0.08829,0.35732 -0.04822,0.22946 0.139335,0.80355 0.420875,1.28825 0.08759,0.15079 0.13074,0.30266 0.09589,0.33748 -0.03483,0.0348 -0.07071,0.23432 -0.07968,0.44333 -0.02705,0.63057 -0.284594,0.82772 -1.106006,0.84667 -0.539779,0.0125 -0.667186,0.0451 -0.90705,0.2325 -0.153488,0.1199 -0.383864,0.2526 -0.511953,0.29487 -0.943305,0.3113 -1.402582,0.68792 -1.667689,1.36752 -0.131239,0.33643 -0.06356,0.76026 0.135429,0.8481 0.145091,0.064 0.57484,-0.12735 0.972244,-0.433 0.817161,-0.62848 1.55227,-0.93397 2.300793,-0.95614 0.445989,-0.0132 1.628148,0.16561 1.724191,0.2608 0.05507,0.0546 -0.05006,0.21665 -0.437104,0.67383 -0.161684,0.19098 -0.364705,0.48941 -0.451165,0.6632 -0.167547,0.33678 -0.337945,1.07121 -0.3498,1.50766 -0.0072,0.26452 -0.155778,0.50059 -0.842817,1.33903 -0.575774,0.70264 -0.915914,1.30144 -0.938953,1.65299 -0.0248,0.37831 0.190169,0.99997 0.63871,1.84707 0.47608,0.89912 0.940195,2.02131 1.05514,2.55125 0.873382,4.02654 1.49269,5.98145 2.542307,8.02505 0.52175,1.01584 1.570383,2.66211 2.284357,3.58625 0.281066,0.36379 0.715297,0.93383 0.964959,1.26674 0.530165,0.70696 1.276595,1.46643 1.643048,1.67176 0.220329,0.12346 0.314708,0.12311 0.653416,-0.002 0.21774,-0.0807 0.576712,-0.27203 0.797716,-0.42514 0.599901,-0.41565 3.134033,-2.89573 4.069382,-3.98261 z m 1.19146,-15.11109 c -0.527296,0.31362 -0.69323,0.38028 -1.246845,0.50085 -1.646653,0.35861 -2.908557,-0.55773 -3.082608,-2.23849 -0.02627,-0.25367 0.19,-0.41736 0.584993,-0.44279 0.431785,-0.0278 0.795383,-0.16981 1.17083,-0.45728 l 0.286503,-0.21937 0.612947,0.58967 c 0.561031,0.53972 0.64969,0.601 1.0468,0.72352 0.653834,0.20171 1.458851,0.17579 1.899927,-0.0612 0.416121,-0.22356 0.80187,-0.58064 0.870714,-0.806 0.05655,-0.18511 -0.173163,-0.44933 -0.289988,-0.33354 -0.04307,0.0427 -0.31587,0.16757 -0.606219,0.27751 -0.714277,0.27046 -1.112575,0.20602 -1.578064,-0.25534 -0.289912,-0.28734 -0.337042,-0.376 -0.401788,-0.7558 -0.167735,-0.98392 -0.279607,-1.43703 -0.398394,-1.61363 -0.06917,-0.10283 -0.121098,-0.23668 -0.1154,-0.29744 0.0057,-0.0608 0.204491,-0.31483 0.441765,-0.56461 0.346454,-0.3647 0.500339,-0.47999 0.781427,-0.58553 0.689942,-0.25898 1.305595,-0.0864 1.954719,0.54782 0.381305,0.37257 0.443701,0.47018 0.595983,0.93225 0.09355,0.28387 0.184814,0.66759 0.202803,0.85271 0.04821,0.4961 -0.146057,1.33454 -0.43231,1.86579 -0.452564,0.8399 -1.404197,1.80937 -2.297795,2.34087 z"
       id="path974"       
       sodipodi:nodetypes="cccsscccccccsccccccscscscccscsccccccsccscccccccscscscccccccccccsccscccssccscsccccccccscccscscscscccccc" />
  </g>
</svg>
