<?xml version="1.0" encoding="UTF-8" standalone="no"?>
<!-- Created with Inkscape (http://www.inkscape.org/) -->

<svg
   xmlns:dc="http://purl.org/dc/elements/1.1/"
   xmlns:cc="http://creativecommons.org/ns#"
   xmlns:rdf="http://www.w3.org/1999/02/22-rdf-syntax-ns#"
   xmlns:svg="http://www.w3.org/2000/svg"
   xmlns="http://www.w3.org/2000/svg"
   xmlns:sodipodi="http://sodipodi.sourceforge.net/DTD/sodipodi-0.dtd"   
   width="220"
   height="235"
   viewBox="0 0 58.208332 62.177085"
   version="1.1"
   id="svg8"   
   sodipodi:docname="usp.svg" >
  <defs
     id="defs2" />
  <sodipodi:namedview
     id="base"
     pagecolor="#000000"
     bordercolor="#666666"
     borderopacity="1.0"
     showgrid="false"
     units="px"
     showguides="false" />
  <metadata
     id="metadata5">
    <rdf:RDF>
      <cc:Work
         rdf:about="">
        <dc:format>image/svg+xml</dc:format>
        <dc:type
           rdf:resource="http://purl.org/dc/dcmitype/StillImage" />
        <dc:title></dc:title>
      </cc:Work>
    </rdf:RDF>
  </metadata>
  <g
     id="layer1"
     transform="translate(0,-234.8229)">
    <path
       style="fill:none;stroke:#fffffd;stroke-width:0.4;stroke-opacity:1;stroke-miterlimit:4;stroke-dasharray:none"
       d="m 34.794995,292.12987 c 1.66e-4,-0.0129 0.990861,-1.02846 2.20154,-2.2567 2.048632,-2.07836 3.415186,-3.49972 3.751217,-3.9017 0.383374,-0.4586 0.641071,-1.09595 0.51498,-1.27368 -0.03978,-0.0561 -0.253971,-0.1853 -0.648283,-0.39113 -0.517445,-0.2701 -0.59569,-0.32024 -0.645044,-0.4133 -0.0389,-0.0734 -0.139225,-0.17379 -0.326423,-0.32696 -0.179212,-0.14648 -0.439794,-0.40516 -0.772971,-0.76735 -0.276441,-0.30051 -0.554571,-0.58558 -0.618066,-0.63349 -0.106556,-0.0804 -0.116896,-0.10412 -0.134226,-0.30787 l -0.01877,-0.22075 -0.123662,-0.0438 c -0.06802,-0.0241 -0.137089,-0.0572 -0.153495,-0.0736 -0.0164,-0.0164 -0.0027,-0.1206 0.03053,-0.23155 0.03319,-0.11095 0.05423,-0.20794 0.04673,-0.21552 -0.0075,-0.008 -0.116557,-0.0645 -0.242367,-0.12643 l -0.228748,-0.11263 0.0298,-0.18167 c 0.0327,-0.19933 0.02301,-0.21613 -0.197819,-0.34318 l -0.151341,-0.0871 -0.0041,-0.19302 -0.0041,-0.19302 -0.149948,-0.1059 c -0.149904,-0.10587 -0.14995,-0.10595 -0.154987,-0.30021 l -0.005,-0.19432 -0.18089,-0.1081 -0.18089,-0.10809 0.05473,-0.20109 c 0.0301,-0.1106 0.05108,-0.21653 0.04663,-0.23539 -0.0045,-0.0188 -0.0988,-0.0726 -0.209666,-0.11937 l -0.201571,-0.0851 0.03874,-0.17166 c 0.04501,-0.19945 0.0079,-0.24623 -0.365179,-0.46035 -0.06824,-0.0391 -0.0705,-0.0612 -0.02095,-0.20444 0.04972,-0.14368 0.04734,-0.16619 -0.02269,-0.21451 -0.376183,-0.25955 -0.353841,-0.23476 -0.319436,-0.35439 0.06841,-0.23786 0.07266,-0.22586 -0.121299,-0.34286 l -0.175672,-0.10596 -0.01845,-0.20683 -0.01845,-0.20684 -0.176288,-0.11832 -0.17629,-0.11833 0.0096,-0.18106 c 0.0053,-0.0996 -0.0019,-0.20176 -0.01596,-0.22706 -0.01404,-0.0253 -0.101088,-0.0831 -0.193438,-0.12841 -0.09235,-0.0453 -0.158129,-0.0922 -0.146178,-0.10415 0.01195,-0.0119 0.02635,-0.0929 0.03201,-0.17999 0.01151,-0.17717 -0.02866,-0.23338 -0.238531,-0.33378 l -0.140544,-0.0672 0.0076,-0.18954 c 0.0061,-0.15368 -0.0063,-0.19785 -0.06558,-0.23334 -0.04022,-0.0241 -0.12741,-0.085 -0.193752,-0.13533 l -0.120622,-0.0915 0.05674,-0.16398 c 0.03121,-0.0902 0.04855,-0.17217 0.03853,-0.18219 -0.01001,-0.01 -0.0941,-0.0511 -0.186859,-0.0915 -0.09276,-0.0403 -0.181609,-0.0864 -0.197446,-0.10233 -0.01591,-0.0159 -0.0079,-0.12401 0.0176,-0.24009 0.04442,-0.20209 0.04226,-0.21407 -0.05118,-0.28258 -0.05367,-0.0394 -0.104793,-0.0722 -0.113624,-0.0729 -0.0088,-7.7e-4 -0.08634,-0.21287 -0.172243,-0.47134 l -0.156191,-0.46995 -0.242346,-0.12268 -0.242346,-0.12267 0.05176,-0.1368 c 0.04439,-0.1173 0.05973,-0.135 0.107662,-0.12423 0.03074,0.007 0.06781,0.0242 0.08238,0.0383 0.05135,0.05 0.193461,0.0164 0.31208,-0.0736 0.103587,-0.0786 0.138786,-0.13987 0.257383,-0.44729 0.180899,-0.46909 0.332359,-0.74341 0.566493,-1.02601 0.189145,-0.22831 0.196836,-0.23396 0.464219,-0.34106 0.50152,-0.20088 1.488252,-0.76031 1.915613,-1.08606 0.935893,-0.71336 3.64023,-3.2959 4.91238,-4.69112 0.815489,-0.89438 1.870347,-2.19557 2.040684,-2.51721 0.110254,-0.2082 0.20219,-0.67543 0.171137,-0.86973 -0.01477,-0.0924 -0.09434,-0.30293 -0.176821,-0.46782 -0.09742,-0.19459 -0.137909,-0.31187 -0.115481,-0.33429 0.05186,-0.0518 0.0026,-0.12947 -0.112456,-0.17712 -0.09276,-0.0384 -0.100922,-0.0508 -0.08674,-0.13126 0.01362,-0.0773 -2.93e-4,-0.10065 -0.106933,-0.17948 -0.109771,-0.0812 -0.118679,-0.0973 -0.08521,-0.15446 0.04242,-0.0724 0.007,-0.12145 -0.108511,-0.15012 -0.07041,-0.0175 -0.0774,-0.0349 -0.06256,-0.156 0.01592,-0.1298 0.01229,-0.13722 -0.07618,-0.15565 -0.122806,-0.0256 -0.162651,-0.11159 -0.107857,-0.23283 0.04592,-0.1016 0.01913,-0.17681 -0.04142,-0.11627 -0.01878,0.0188 -0.06437,0.0185 -0.101295,-6.4e-4 -0.0516,-0.0267 -0.06351,-0.0648 -0.05134,-0.1644 0.01544,-0.12668 0.01317,-0.1307 -0.100587,-0.17741 -0.150491,-0.0618 -0.146135,-0.0543 -0.105979,-0.18052 0.03414,-0.10728 0.03314,-0.10918 -0.08301,-0.15687 -0.112338,-0.0461 -0.117375,-0.0534 -0.113219,-0.16347 0.004,-0.10461 -0.0045,-0.11853 -0.09255,-0.15144 -0.08889,-0.0332 -0.09589,-0.0456 -0.0847,-0.1499 0.01121,-0.10455 0.0047,-0.11596 -0.08098,-0.14231 -0.110984,-0.0342 -0.123464,-0.073 -0.07332,-0.22858 0.04564,-0.14155 0.03641,-0.15346 -0.106474,-0.13735 l -0.111511,0.0125 -0.566751,-1.10032 c -0.311714,-0.60517 -0.579364,-1.15291 -0.594779,-1.21717 -0.03745,-0.15614 -0.02353,-0.71344 0.02262,-0.90532 l 0.03698,-0.15376 4.256101,-4.27994 4.256102,-4.27995 0.08376,-0.2462 c 0.05578,-0.16396 0.08375,-0.35463 0.08375,-0.57085 v -0.32464 l -1.204981,-1.20498 -1.204979,-1.20499 0.09247,-0.27088 0.09248,-0.27089 -0.314786,-0.28124 c -0.497589,-0.44455 -0.648928,-0.58248 -1.34705,-1.22776 -0.361149,-0.33381 -0.732594,-0.67045 -0.825433,-0.74807 -0.136373,-0.11402 -1.444317,-1.00003 -1.62072,-1.09788 -0.02557,-0.0142 -0.165529,0.003 -0.311032,0.0369 l -0.264548,0.0627 -0.551796,0.5518 c -0.344887,0.34488 -0.560561,0.54302 -0.575185,0.5284 -0.06368,-0.0637 -0.690785,-0.58785 -0.747996,-0.62522 l -0.06578,-0.043 -0.561583,0.56628 c -0.432028,0.43565 -0.568797,0.58894 -0.592843,0.66449 -0.01924,0.0604 0.01179,0.29446 0.08065,0.60845 l 0.111911,0.51024 -5.243995,5.21171 -5.243996,5.21171 -0.0029,0.13475 -0.0029,0.13476 -0.368399,0.33882 c -0.202621,0.18635 -0.464715,0.42488 -0.582437,0.53007 -0.117719,0.1052 -0.509954,0.46395 -0.871629,0.79723 -0.361675,0.33329 -0.705297,0.6441 -0.763604,0.69069 -0.05831,0.0466 -2.987187,2.95395 -6.508621,6.46081 -3.521432,3.50685 -6.418889,6.38468 -6.438793,6.39517 -0.0199,0.0105 -0.138635,-0.0355 -0.263854,-0.1021 -0.595518,-0.31699 -0.711807,-0.37043 -0.796769,-0.36619 -0.07453,0.003 -0.145525,0.055 -0.385648,0.27858 -0.161859,0.15073 -0.409132,0.40418 -0.549482,0.56324 l -0.255186,0.2892 0.284001,0.36727 c 0.156199,0.202 0.308775,0.40686 0.339058,0.45525 l 0.05505,0.088 -0.900704,0.88403 -0.9007025,0.88404 -0.026177,0.13888 c -0.02161,0.11464 -0.00463,0.17958 0.097558,0.37208 0.068059,0.12827 0.1401851,0.25967 0.1602873,0.29202 0.020104,0.0324 0.1430359,0.26345 0.2731826,0.51357 0.1301476,0.25011 0.3118186,0.58341 0.4037146,0.74064 0.0919,0.15724 0.307823,0.55283 0.479838,0.8791 0.172016,0.32625 0.386593,0.71623 0.476837,0.86662 0.09024,0.1504 0.150466,0.27665 0.133823,0.28058 -0.01664,0.004 -0.01611,0.0211 0.0012,0.0381 0.05026,0.0495 0.580562,1.22109 0.561576,1.24068 -0.0094,0.01 -0.264759,0.0549 -0.567337,0.10021 -0.607068,0.091 -0.881282,0.14358 -0.950931,0.18234 -0.165151,0.0919 -0.26999,0.2161 -0.338972,0.40158 -0.08512,0.22886 -0.08483,0.31616 0.0034,1.01482 l 0.0661,0.52381 -0.260359,0.22767 -0.2603561,0.22767 0.036036,0.11322 c 0.030223,0.0949 0.022232,0.12703 -0.04957,0.19883 -0.075183,0.0752 -0.077942,0.0901 -0.02256,0.12252 0.088884,0.0521 0.1120936,0.12171 0.058419,0.1754 -0.058209,0.0582 -0.021719,0.14379 0.064736,0.15183 0.054482,0.005 0.066747,0.0248 0.069463,0.11181 0.00446,0.14353 0.061784,0.19096 0.3052511,0.25265 0.319798,0.081 0.37132,0.0552 1.580103,-0.79206 0.578178,-0.40526 1.075638,-0.75534 1.105466,-0.77796 0.165541,-0.12555 0.270511,-0.17888 0.313975,-0.15953 0.0269,0.012 0.333085,0.52052 0.680411,1.13009 0.529236,0.92881 0.659423,1.13622 0.803898,1.2807 0.294947,0.29494 0.506986,0.29664 0.996558,0.008 0.280369,-0.16531 2.180538,-1.03411 2.552839,-1.16723 0.667424,-0.23863 1.332472,-0.23046 2.083991,0.0256 0.479384,0.16335 0.769681,0.36442 1.213831,0.84074 0.370764,0.39762 0.466707,0.56555 0.770109,1.34796 0.185063,0.47724 0.199604,0.50378 0.249468,0.45529 0.04772,-0.0464 0.05123,-0.045 0.03545,0.0148 -0.0096,0.0365 -0.03515,0.0705 -0.05673,0.0756 -0.02158,0.005 -0.02841,0.0162 -0.0152,0.0246 0.01321,0.008 0.03561,0.0446 0.04976,0.0803 0.01483,0.0375 0.08155,0.0973 0.157484,0.1412 0.186809,0.10797 0.187629,0.1098 0.123361,0.27603 -0.09483,0.24527 -0.08439,0.26705 0.219899,0.45906 0.07562,0.0477 0.07646,0.0635 0.01191,0.22249 -0.05455,0.13435 -0.05889,0.19908 -0.02023,0.30125 0.04761,0.12581 0.05329,0.13082 0.170734,0.15058 0.151164,0.0254 0.177702,0.0508 0.132956,0.12726 -0.02235,0.0382 -0.04696,0.0484 -0.06733,0.028 -0.04796,-0.048 -0.119646,-0.0197 -0.105853,0.0418 0.01818,0.081 0.04262,0.0944 0.08964,0.0493 0.03227,-0.031 0.03615,-0.0186 0.01602,0.0515 -0.03126,0.10875 0.02561,0.21928 0.134707,0.26178 0.06206,0.0242 0.07581,0.0469 0.06806,0.11205 -0.0095,0.0802 -0.0089,0.0808 0.03136,0.0274 0.02443,-0.0323 0.05477,-0.0406 0.07485,-0.0205 0.05405,0.0541 0.0088,0.0995 -0.07886,0.0792 -0.0612,-0.0141 -0.08196,-0.0332 -0.08623,-0.0791 -0.0031,-0.0333 -0.02413,-0.0696 -0.04674,-0.0807 -0.06407,-0.0313 0.01187,0.2309 0.0781,0.26968 0.03283,0.0193 0.04557,0.0461 0.02979,0.0619 -0.01542,0.0154 -0.01067,0.0321 0.01055,0.0372 0.02121,0.005 0.02838,0.0193 0.01591,0.0318 -0.01247,0.0125 -0.0026,0.0562 0.02198,0.0972 0.02455,0.041 0.03412,0.0851 0.02126,0.0979 -0.01286,0.0129 -0.0061,0.0406 0.01493,0.0617 0.02426,0.0242 0.0464,0.0202 0.06035,-0.0112 0.01212,-0.0272 0.03376,-0.0405 0.04811,-0.0294 0.01435,0.011 0.03726,0.0286 0.05091,0.039 0.01367,0.0103 0.04093,0.0188 0.0606,0.0188 0.05318,0 0.103082,0.0598 0.07408,0.0888 -0.01389,0.0139 -0.02852,0.0113 -0.03251,-0.006 -0.004,-0.0169 -0.02809,-0.0357 -0.05352,-0.0417 -0.03582,-0.009 -0.05376,0.01 -0.07952,0.0818 -0.03169,0.0883 0.0052,0.2211 0.04927,0.17709 0.01149,-0.0115 0.03345,0.0447 0.04881,0.12494 0.01993,0.10407 0.04339,0.14726 0.08195,0.15084 0.07278,0.007 0.201139,0.16052 0.177785,0.21296 -0.01028,0.0231 -0.0032,0.0457 0.01567,0.0501 0.0189,0.004 0.01955,0.0478 0.0014,0.0962 -0.03973,0.10624 -0.0024,0.18737 0.126694,0.27571 0.06258,0.0428 0.08735,0.0754 0.0703,0.0924 -0.01449,0.0145 -0.03043,0.009 -0.03544,-0.0123 -0.005,-0.0212 -0.01941,-0.0283 -0.03202,-0.0156 -0.02084,0.0209 0.04745,0.19797 0.09443,0.24496 0.01074,0.0108 0.02984,-0.003 0.04242,-0.0318 0.01258,-0.0283 0.0025,-0.0605 -0.02234,-0.0715 -0.05173,-0.0231 -0.03486,-0.0481 0.04433,-0.0659 0.04137,-0.009 0.04324,0.0226 0.0077,0.13205 -0.04842,0.14928 -0.0057,0.32951 0.08803,0.37125 0.02755,0.0123 0.03934,0.0331 0.02622,0.0462 -0.03018,0.0302 0.03005,0.16497 0.08468,0.18949 0.05791,0.026 0.114978,-0.0405 0.0718,-0.0837 -0.01967,-0.0197 -0.02503,-0.0465 -0.01192,-0.0596 0.0435,-0.0435 0.07072,0.0214 0.05023,0.11966 -0.0111,0.0533 -0.04207,0.1028 -0.06883,0.10997 -0.02676,0.008 -0.03352,0.0139 -0.01503,0.0149 0.01849,8.4e-4 0.03362,0.043 0.03362,0.0932 -1e-6,0.0503 0.0216,0.11298 0.04801,0.13939 0.0264,0.0264 0.05601,0.0772 0.0658,0.113 0.04325,0.15794 0.25017,0.58304 0.288158,0.59201 0.02502,0.006 0.02397,0.0141 -0.0026,0.0204 -0.02449,0.006 -0.03317,0.0219 -0.01929,0.0358 0.01389,0.0139 0.04475,0.008 0.06858,-0.0149 0.03514,-0.0325 0.03823,-0.0255 0.01633,0.0374 -0.03382,0.0971 -0.0041,0.16695 0.08211,0.19306 0.05136,0.0156 0.06294,0.0387 0.05056,0.10095 -0.01468,0.0738 0.113019,0.33887 0.129538,0.26888 0.004,-0.0167 0.02749,-0.0214 0.05231,-0.0103 0.02586,0.0115 0.03359,0.0582 0.0181,0.10937 -0.01972,0.0651 -0.01364,0.0863 0.02243,0.0782 0.03886,-0.009 0.04252,-0.004 0.01711,0.022 -0.02519,0.0257 -0.01869,0.0343 0.0292,0.0388 0.04208,0.004 0.05854,0.0185 0.05201,0.0462 -0.0052,0.0222 -0.0227,0.0273 -0.03877,0.0112 -0.03506,-0.0351 -0.03929,0.0227 -0.0052,0.0713 0.01319,0.0188 0.06872,0.13434 0.123383,0.25669 0.06892,0.15423 0.108698,0.21359 0.12972,0.19358 0.01664,-0.0159 0.02248,8.4e-4 0.0129,0.0372 -0.0096,0.0363 -2.03e-4,0.0833 0.02085,0.1043 0.03421,0.0342 0.0389,0.03 0.04416,-0.0393 0.0062,-0.0815 0.05206,-0.19827 0.07062,-0.17972 0.006,0.006 -0.0038,0.0767 -0.02168,0.15712 -0.02339,0.10509 -0.01255,0.18793 0.03853,0.29434 0.03911,0.0814 0.08294,0.14809 0.09741,0.14809 0.04005,0 0.130007,0.0851 0.110538,0.10456 -0.0094,0.009 -0.0074,0.0637 0.0045,0.12062 0.01186,0.057 0.02581,0.0855 0.03099,0.0636 0.0052,-0.022 0.02614,0.01 0.04657,0.0712 0.02989,0.0894 0.05459,0.11761 0.126563,0.14453 0.07662,0.0287 0.08044,0.0343 0.02667,0.0393 -0.07318,0.007 -0.05735,0.0746 0.03156,0.13531 0.02895,0.0198 0.06151,0.0432 0.07236,0.052 0.01083,0.009 0.03864,-0.003 0.06179,-0.0253 0.03531,-0.0347 0.04002,-0.0322 0.02917,0.016 -0.0082,0.0361 -0.02712,0.054 -0.05128,0.0483 -0.05952,-0.014 -0.03501,0.0849 0.05958,0.24047 0.104043,0.17114 0.106285,0.1734 0.132037,0.13294 0.01147,-0.018 0.03919,-0.0243 0.06159,-0.0139 0.02334,0.0109 0.02179,0.0378 -0.0036,0.0632 -0.03365,0.0337 -0.02,0.0894 0.05639,0.23026 0.05542,0.10224 0.12357,0.21111 0.151423,0.24196 0.02784,0.0309 0.05405,0.0811 0.05822,0.11174 0.0053,0.0388 0.02283,0.0521 0.05794,0.0437 0.04043,-0.01 0.04744,-7.7e-4 0.03554,0.0442 -0.0082,0.0309 0.0027,0.0896 0.02419,0.1304 0.04203,0.0799 0.05585,0.0596 0.07788,-0.11478 0.0061,-0.048 0.0095,-0.0108 0.0076,0.0829 -0.0032,0.15595 0.01851,0.20677 0.25658,0.60169 0.386696,0.64148 0.41407,0.6826 0.438276,0.6584 0.01202,-0.012 0.0311,0.0225 0.04239,0.0767 0.02002,0.0961 0.09957,0.17433 0.240454,0.23645 0.06596,0.0291 0.06591,0.0292 -0.01805,0.0186 -0.08119,-0.0102 -0.08176,-0.007 -0.01596,0.0892 0.03753,0.0548 0.08109,0.10761 0.09677,0.11719 0.01569,0.01 0.04443,0.0552 0.06389,0.10127 0.01946,0.0461 0.08956,0.15192 0.155791,0.23514 0.09889,0.12425 0.131267,0.14825 0.181076,0.13417 0.04145,-0.0117 0.0574,-0.003 0.05038,0.0264 -0.0056,0.024 -0.02163,0.0322 -0.03552,0.0183 -0.05754,-0.0575 -0.06251,0.0236 -0.0068,0.11131 0.205561,0.32418 0.197973,0.31719 0.283102,0.26044 0.07281,-0.0485 0.157362,-0.0146 0.148018,0.0595 -0.0053,0.0422 0.486425,0.70606 0.806388,1.08851 0.169685,0.20282 0.388913,0.43095 0.534743,0.55643 0.24131,0.20765 0.251738,0.21287 0.440939,0.22057 0.170122,0.007 0.229531,-0.012 0.486497,-0.15541 0.263496,-0.147 0.837469,-0.57722 1.33359,-0.99957 0.244553,-0.2082 2.068516,-1.97838 2.068898,-2.0079 z m 1.13785,-24.63412 c -0.619869,0.53429 -1.342088,0.90324 -2.024906,1.03444 -0.550907,0.10586 -1.285795,0.0671 -1.638734,-0.0864 -0.293312,-0.1276 -0.763742,-0.43984 -1.097597,-0.7285 -0.247892,-0.21434 -0.302784,-0.27886 -0.537028,-0.63118 -0.314988,-0.47377 -0.805774,-1.38699 -0.870087,-1.61901 -0.06845,-0.24693 -0.110098,-0.59499 -0.08737,-0.73012 0.03031,-0.18022 0.168009,-0.3966 0.523398,-0.82246 0.319711,-0.38312 0.323672,-0.38974 0.31218,-0.52226 l -0.01164,-0.13421 0.396077,-0.36314 0.396076,-0.36314 -0.03095,0.239 c -0.02909,0.22454 -0.0057,0.29832 0.07041,0.22221 0.08,-0.08 0.111709,0.02 0.18035,0.56871 0.09515,0.76057 0.18203,1.15102 0.327982,1.47393 0.305198,0.67524 0.550383,1.01713 1.005631,1.40229 0.403699,0.34155 0.491829,0.39081 1.02461,0.57273 0.676429,0.23097 1.33837,0.26257 1.978864,0.0945 0.334915,-0.0879 0.454519,-0.16021 0.582119,-0.35193 0.151712,-0.22797 0.132838,-0.26534 -0.127098,-0.25171 -0.257801,0.0136 -0.810932,-0.063 -1.151776,-0.15936 -0.71324,-0.20162 -1.11325,-0.45088 -1.559737,-0.97196 -0.334465,-0.39033 -0.504393,-0.6751 -0.628394,-1.05309 -0.224875,-0.68547 -0.263881,-1.22034 -0.123181,-1.6891 0.07118,-0.23714 0.07082,-0.241 -0.06506,-0.69785 l -0.136639,-0.45937 2.444836,-2.45699 c 2.693223,-2.70659 2.549179,-2.57621 2.977937,-2.69561 0.246611,-0.0686 0.504535,-0.0539 0.78202,0.0448 0.229829,0.0817 0.596691,0.32588 0.758476,0.50486 0.134846,0.14917 1.412583,2.40357 1.742113,3.07373 0.252845,0.51421 0.418844,0.94458 0.429621,1.11383 0.0089,0.13997 -0.08016,0.48836 -0.159356,0.62328 -0.04478,0.0763 -0.440772,0.50307 -0.989755,1.06674 -0.961846,0.98755 -1.00171,1.02264 -1.688937,1.48678 -0.774141,0.52285 -0.756679,0.50425 -1.466229,1.56157 -0.384423,0.57283 -0.454429,0.66129 -0.800477,1.01142 -0.208565,0.21104 -0.540545,0.52276 -0.737736,0.69272 z"
       id="path1013"       
       sodipodi:nodetypes="csccccccccccssccccccccccccccccccccccccccccsccsccccccccsccsccsccccccccccsssccsccccccccsccccccccscccsccccccsccccccsscccssccccccccccccscscccccccccccccccccccccccccccccscscccsccsscccccccccccccccccscccsccsccccscscsscccsscccsccccccscsscccccscsscccsscccscccccccccccscsccscscccscccccccccccccscccccccccscccccccccsccccsccccccscccscscccccsccccccccsscccccccsccscscc" />
  </g>
</svg>
