<?xml version="1.0" encoding="UTF-8" standalone="no"?>
<!-- Created with Inkscape (http://www.inkscape.org/) -->

<svg
   xmlns:dc="http://purl.org/dc/elements/1.1/"
   xmlns:cc="http://creativecommons.org/ns#"
   xmlns:rdf="http://www.w3.org/1999/02/22-rdf-syntax-ns#"
   xmlns:svg="http://www.w3.org/2000/svg"
   xmlns="http://www.w3.org/2000/svg"
   xmlns:sodipodi="http://sodipodi.sourceforge.net/DTD/sodipodi-0.dtd"   
   width="220"
   height="235"
   viewBox="0 0 58.208331 62.177086"
   version="1.1"
   id="svg8"   
   sodipodi:docname="aa-12.svg" >
  <defs
     id="defs2" />
  <sodipodi:namedview
     id="base"
     pagecolor="#000000"
     bordercolor="#666666"
     borderopacity="1.0"
     showgrid="false"
     fit-margin-top="0"
     fit-margin-left="0"
     fit-margin-right="0"
     fit-margin-bottom="0"
     units="px" />
  <metadata
     id="metadata5">
    <rdf:RDF>
      <cc:Work
         rdf:about="">
        <dc:format>image/svg+xml</dc:format>
        <dc:type
           rdf:resource="http://purl.org/dc/dcmitype/StillImage" />
        <dc:title></dc:title>
      </cc:Work>
    </rdf:RDF>
  </metadata>
  <g
     id="layer1"
     transform="translate(56.057826,-205.94221)">
    <path
       style="fill:none;stroke:#ffffff;stroke-width:0.4;stroke-opacity:1;stroke-miterlimit:4;stroke-dasharray:none"
       d="m -18.414108,240.39012 c -2.57679,-2.50522 -4.650099,-4.59187 -4.607355,-4.637 0.04292,-0.045 3.661383,-3.96128 8.041436,-8.70256 8.2355426,-8.91475 8.1741675,-8.83913 7.6270749,-9.39684 -0.1815693,-0.18513 0.100665,-0.55182 2.0111572,-2.61297 1.2223196,-1.31868 3.1152388,-3.29085 4.2065109,-4.38257 1.98092956,-1.98175 1.98345506,-1.98547 1.64002514,-2.24346 l -0.34409715,-0.25851 -4.28712819,4.21638 -4.2871292,4.21637 -0.747183,-0.74719 c -0.6345549,-0.63456 -0.7173628,-0.7981 -0.5493895,-1.08504 0.1087885,-0.18583 0.1515838,-0.38407 0.095118,-0.44054 -0.056476,-0.0565 -0.2547177,-0.0137 -0.4405431,0.0951 -0.309714,0.18132 -0.450489,0.0852 -1.689534,-1.15387 l -1.351675,-1.35167 -0.338986,0.33898 c -0.186443,0.18644 -0.286155,0.4368 -0.221587,0.55637 0.06457,0.11957 0.421677,0.74406 0.793577,1.38778 l 0.676172,1.17039 -4.03581,3.86508 c -2.219714,2.12578 -4.978039,4.80645 -6.12966,5.95701 l -2.093902,2.09188 -0.564467,-0.23381 c -0.310461,-0.1286 -0.678188,-0.42373 -0.817177,-0.65588 -0.202379,-0.338 -0.302418,-0.37233 -0.502326,-0.17243 -0.288915,0.28892 -0.293291,1.0974 -0.0074,1.36762 0.107613,0.10175 0.119862,-0.0706 0.0272,-0.38308 -0.233434,-0.78707 -0.05404,-0.86665 0.552288,-0.24497 0.439265,0.45038 0.464779,0.54387 0.172743,0.63288 -0.228929,0.0698 -0.306035,0.17822 -0.232306,0.32675 0.08732,0.17592 0.03177,0.22984 -0.266322,0.25822 -0.315542,0.0302 -0.34327,0.0929 -0.17124,0.38672 0.203912,0.34832 0.168783,0.38681 -5.330273,5.84042 -3.044521,3.01943 -5.672227,5.56983 -5.8393,5.66764 -0.263131,0.15404 -0.538349,-0.0311 -2.057318,-1.38447 -1.199775,-1.06892 -1.793058,-1.50444 -1.87865,-1.37908 -0.0688,0.10079 -0.222176,0.0694 -0.340838,-0.0697 -0.118667,-0.13911 -0.253328,-0.21352 -0.299255,-0.16534 -0.221887,0.23282 -0.134945,0.65646 0.318583,1.55211 0.272343,0.53782 0.603713,1.29116 0.736372,1.67407 0.132658,0.3829 0.413341,1.02426 0.623738,1.42525 0.397048,0.75672 0.293998,1.10829 -0.601885,2.05346 -0.273451,0.28854 -0.274413,0.33151 -0.0046,0.21437 0.185636,-0.0806 -2.878465,3.06216 -6.80912,6.98395 -3.930778,3.92168 -7.198635,7.2285 -7.262137,7.34828 -0.06356,0.11974 -0.02753,0.23851 0.07999,0.26389 0.107527,0.0254 0.137439,0.17652 0.06648,0.33585 -0.112306,0.25217 0.310052,0.72876 3.260493,3.67921 1.864231,1.86423 3.52141,3.44825 3.682618,3.52004 0.497359,0.22151 1.065542,-0.55811 4.189623,-5.74864 6.181942,-10.27105 7.078303,-11.52576 8.576319,-12.00497 1.390197,-0.44472 1.888193,-0.37238 2.644745,0.38418 0.757361,0.75735 0.947819,1.21109 0.981511,2.33828 0.04743,1.58699 1.643144,4.79315 2.605943,5.23598 0.223947,0.103 0.595443,0.056 0.854131,-0.10803 0.251791,-0.15968 1.728314,-1.02998 3.28115,-1.934 2.758673,-1.60605 2.868475,-1.68947 4.794283,-3.64226 l 1.97094,-1.99858 -2.387575,1.76375 c -1.313169,0.97005 -2.658986,1.96708 -2.990701,2.21562 -0.331733,0.24852 -0.686693,0.43591 -0.788832,0.41639 -0.314684,-0.0601 -0.818179,0.24344 -0.766539,0.4622 0.0269,0.11397 -0.09689,0.35303 -0.275093,0.53123 -0.284456,0.28445 -0.345263,0.27167 -0.498002,-0.10461 -0.09569,-0.23575 -0.562055,-1.00473 -1.036354,-1.70886 -1.416441,-2.1028 -1.72601,-2.85521 -1.638526,-3.98243 0.07176,-0.92472 0.155455,-1.09627 0.896129,-1.83694 0.784775,-0.78478 0.838792,-0.80711 1.370355,-0.56688 0.71748,0.32426 1.024399,7.2e-4 0.678593,-0.71513 -0.266353,-0.55144 -0.25487,-0.58067 0.433532,-1.1031 0.388907,-0.29517 0.810746,-0.64027 0.937385,-0.7669 0.207218,-0.20722 0.517879,0.038 3.105706,2.45169 1.581502,1.47507 2.950894,2.64669 3.043097,2.60358 0.09219,-0.0431 0.25301,0.007 0.357349,0.11136 0.1544,0.15439 0.529682,-0.15027 2.016199,-1.63678 l 1.826485,-1.82649 z m -8.578131,5.0787 c -1.356836,1.1804 -1.653287,1.2605 -2.323082,0.62774 -0.473686,-0.44749 -0.573211,-0.93975 -0.288367,-1.42632 0.152351,-0.26026 0.262427,-0.26445 0.506519,-0.0204 0.424496,0.4245 1.760648,0.51581 2.109712,0.14416 l 0.280342,-0.29845 -0.429808,0.14955 c -0.429272,0.14936 -0.915772,-0.0332 -1.42531,-0.53472 -0.25558,-0.25163 -0.193033,-0.33814 1.178529,-1.62999 l 1.448483,-1.36427 0.935428,0.93543 0.935428,0.93543 -0.841001,0.699 c -0.462574,0.38443 -1.401638,1.18672 -2.086859,1.78284 z m -12.681872,-3.23059 c -0.316467,-0.0747 -0.495148,-0.84952 -0.251984,-1.0927 0.158808,-0.1588 0.102075,-0.28625 -0.226845,-0.5096 -0.473636,-0.32161 -1.027442,-1.45003 -0.815614,-1.66185 0.464346,-0.46435 0.726445,-0.38045 1.628124,0.52124 1.270497,1.27049 1.296188,1.37533 0.525853,2.14566 -0.356036,0.35603 -0.742825,0.6248 -0.859534,0.59725 z"
       id="path840" />       
  </g>
</svg>
