<?xml version="1.0" encoding="UTF-8" standalone="no"?>
<!-- Created with Inkscape (http://www.inkscape.org/) -->

<svg
   xmlns:dc="http://purl.org/dc/elements/1.1/"
   xmlns:cc="http://creativecommons.org/ns#"
   xmlns:rdf="http://www.w3.org/1999/02/22-rdf-syntax-ns#"
   xmlns:svg="http://www.w3.org/2000/svg"
   xmlns="http://www.w3.org/2000/svg"
   xmlns:sodipodi="http://sodipodi.sourceforge.net/DTD/sodipodi-0.dtd"   
   width="220"
   height="235"
   viewBox="0 0 58.208331 62.177086"
   version="1.1"
   id="svg8"   
   sodipodi:docname="benelli-m4.svg" >
  <defs
     id="defs2" />
  <sodipodi:namedview
     id="base"
     pagecolor="#000000"
     bordercolor="#666666"
     borderopacity="1.0"
     showgrid="false"
     fit-margin-top="0"
     fit-margin-left="0"
     fit-margin-right="0"
     fit-margin-bottom="0"
     units="px" />
  <metadata
     id="metadata5">
    <rdf:RDF>
      <cc:Work
         rdf:about="">
        <dc:format>image/svg+xml</dc:format>
        <dc:type
           rdf:resource="http://purl.org/dc/dcmitype/StillImage" />
        <dc:title></dc:title>
      </cc:Work>
    </rdf:RDF>
  </metadata>
  <g
     id="layer1"
     transform="translate(56.057826,-205.94221)">
    <path
       style="fill:none;stroke:#ffffff;stroke-width:0.40000001;stroke-miterlimit:4;stroke-dasharray:none;stroke-opacity:1"
       d="m -45.191758,267.325 c 0.002,-0.028 0.0696,-0.18932 0.15082,-0.35851 0.0812,-0.1692 0.15152,-0.32937 0.15626,-0.35593 0.005,-0.0265 0.0773,-0.1909 0.16124,-0.36517 0.0839,-0.17428 0.14205,-0.32745 0.12912,-0.34038 -0.0129,-0.0129 -0.005,-0.0279 0.0173,-0.0331 0.04,-0.01 0.14121,-0.18179 0.2024,-0.34478 0.0287,-0.0766 0.26613,-0.59009 0.39579,-0.8562 0.0307,-0.0631 0.0778,-0.16973 0.1046,-0.23686 0.0267,-0.0671 0.0722,-0.16262 0.10084,-0.21216 0.0287,-0.0496 0.0995,-0.19642 0.15735,-0.32638 0.15951,-0.35836 0.26189,-0.57957 0.76526,-1.65337 0.25475,-0.54342 0.62909,-1.34632 0.83189,-1.78423 0.20278,-0.43791 0.39659,-0.84592 0.43068,-0.90668 0.0341,-0.0607 0.0756,-0.14802 0.0923,-0.19392 0.0167,-0.0459 0.10478,-0.23952 0.19573,-0.43027 0.42519,-0.89171 1.07936,-2.27245 1.35382,-2.85746 0.1,-0.21305 0.24534,-0.51582 0.32308,-0.67283 0.0777,-0.157 0.15582,-0.32222 0.17351,-0.36712 0.0553,-0.14042 0.92893,-1.90679 1.00328,-2.02851 0.13518,-0.22131 0.38236,-0.28393 0.58191,-0.14741 0.12401,0.0849 0.10961,0.09 0.53958,-0.19515 0.43704,-0.28989 1.75382,-1.60739 1.92725,-1.92834 l 0.11481,-0.21242 -0.17554,-0.17856 c -0.32274,-0.32826 -0.77567,-1.07274 -0.8942,-1.4698 -0.34834,-1.1668 -0.23528,-2.12955 0.38475,-3.27637 0.0887,-0.1641 0.21262,-0.31349 0.47731,-0.57551 0.74877,-0.74122 1.13652,-0.83774 1.91459,-0.47664 0.23901,0.11093 0.64051,0.19639 0.76889,0.16367 0.0336,-0.009 0.0765,-1.6e-4 0.0953,0.0186 0.0188,0.0188 0.14383,-0.005 0.27782,-0.0532 0.31154,-0.11169 0.6597,-0.40946 1.12525,-0.96242 0.77005,-0.9146 0.92649,-1.31868 0.83081,-2.14602 -0.0243,-0.21042 -0.0415,-0.46623 -0.0382,-0.56849 0.01,-0.28876 0.15991,-0.72697 0.35461,-1.03246 0.0975,-0.15293 0.17446,-0.30904 0.1711,-0.34692 -0.005,-0.0557 0.37011,-0.44542 1.96773,-2.04437 1.09973,-1.10057 2.05497,-2.033 2.157,-2.10534 0.37452,-0.2656 0.63279,-0.50628 0.60655,-0.56521 -0.0208,-0.0468 4.6e-4,-0.0683 0.14568,-0.14633 0.11772,-0.0633 0.32849,-0.24975 0.68387,-0.60514 l 0.51371,-0.51371 0.13582,0.0153 0.13581,0.0153 0.90185,-0.84457 c 0.97616,-0.91416 7.80289,-7.84468 8.44803,-8.57648 0.19064,-0.21625 0.52519,-0.5916 0.74343,-0.83411 0.36753,-0.40838 0.3965,-0.45046 0.39276,-0.57038 -0.004,-0.12518 0.0108,-0.14428 0.44312,-0.57664 l 0.44717,-0.44717 0.36099,0.32005 c 0.3202,0.28391 0.36919,0.31581 0.43367,0.28239 0.15391,-0.0797 0.0608,-0.49936 -0.15969,-0.71987 -0.0986,-0.0986 -0.16883,-0.21724 -0.22375,-0.37789 l -0.0801,-0.23419 1.08956,-1.08958 c 0.59927,-0.59926 1.0991796,-1.07996 1.1109096,-1.06821 -0.8254936,0.80468 3.12256,-3.13023 3.17401,-3.2401 0.0229,-0.0491 0.0124,-0.14039 -0.0246,-0.21402 -0.0496,-0.0985 -0.0488,-0.14438 0.004,-0.19659 0.053,-0.053 0.094,-0.0529 0.18455,4.5e-4 0.10653,0.0627 0.12597,0.059 0.22845,-0.0435 0.10181,-0.10181 0.10607,-0.12291 0.0468,-0.23171 -0.0518,-0.0951 -0.0501,-0.13482 0.009,-0.1933 0.0585,-0.0585 0.0982,-0.0601 0.1933,-0.009 0.10377,0.0566 0.13489,0.0524 0.23392,-0.0315 0.10633,-0.09 0.1094,-0.10488 0.0443,-0.21505 -0.0585,-0.099 -0.0565,-0.13461 0.012,-0.21809 0.0673,-0.0819 0.092,-0.0896 0.13831,-0.0433 0.15395,0.15396 0.0817,0.21108 1.40072,-1.10791 l 1.21977,-1.21977 0.12951,0.0412 c 0.0712,0.0227 0.14567,0.0261 0.16543,0.008 0.0199,-0.0185 0.43423,-0.42933 0.92104,-0.91281 l 0.88512997,-0.87906 0.0841,-0.25736 c 0.12437,-0.38059 0.10915,-0.46818 -0.13141,-0.75642 -0.11186,-0.13402 -0.22684997,-0.30073 -0.25551997,-0.37048 -0.0314,-0.0765 -0.11178,-0.1743 -0.20236,-0.24648 -0.13034,-0.10385 -0.18244,-0.11712 -0.39367,-0.10019 -0.89574,0.0718 -0.94262,0.0854 -1.20941,0.35159 -0.084,0.0839 -0.14121,0.11889 -0.14787,0.0906 -0.007,-0.0277 0.17625,-0.23316 0.4584,-0.51531 l 0.46928,-0.46927 -0.0601,-0.15331 c -0.0903,-0.2303 -0.82522,-0.96395 -1.02523,-1.02351 l -0.14254,-0.0424 -0.37983,0.37983 c -0.37272,0.37272 -0.38305,0.38011 -0.55161,0.3951 -0.39858,0.0354 -0.6541,0.0156 -0.80723,-0.0627 -0.18702,-0.0957 -0.33325,-0.0831 -0.30898,0.0265 0.0115,0.052 -0.0103,0.0444 -0.0853,-0.0301 -0.11117,-0.1101 -0.26651,-0.15242 -0.40557,-0.11031 -0.16328,0.0494 -0.71478,0.38002 -0.8375,0.50201 -0.074,0.0735 -0.11733,0.15049 -0.1128,0.20019 0.004,0.0444 0.008,0.1237 0.009,0.1762 7.5e-4,0.0525 0.0398,0.1619 0.0868,0.2431 0.047,0.0812 0.10358,0.24227 0.1258,0.35792 0.0222,0.11566 0.0687,0.23908 0.10334,0.27427 0.0866,0.0881 0.20815,0.38076 0.21319,0.51354 0.004,0.10507 -0.0548,0.1715 -1.40331,1.58709 -0.8523,0.89465 -3.6099896,3.68602 -6.9910996,7.07647 -4.50244,4.51486 -6.1555,6.15116 -8.53696,8.45044 -1.62432,1.56827 -3.06791,2.94169 -3.20795,3.05205 -0.14005,0.11035 -0.3615,0.29225 -0.49211,0.40422 -0.2365,0.20273 -0.23781,0.20324 -0.31873,0.12231 -0.0447,-0.0447 -0.10197,-0.0764 -0.12729,-0.0704 -0.0253,0.006 -0.14773,-0.0908 -0.27201,-0.21509 l -0.22595,-0.22596 -0.1281,0.12811 c -0.10908,0.10907 -0.11962,0.13647 -0.0711,0.18495 0.0485,0.0485 0.0379,0.0759 -0.0711,0.18495 -0.10908,0.10908 -0.13648,0.11962 -0.18496,0.0711 -0.0485,-0.0485 -0.0759,-0.0379 -0.18495,0.0711 -0.10908,0.10907 -0.11962,0.13648 -0.0711,0.18495 0.0485,0.0485 0.0379,0.0759 -0.0711,0.18496 -0.10908,0.10907 -0.13647,0.11961 -0.18496,0.0711 -0.0485,-0.0485 -0.0759,-0.0379 -0.18495,0.0711 -0.10907,0.10907 -0.11961,0.13648 -0.0711,0.18495 0.0485,0.0485 0.0379,0.0759 -0.0711,0.18496 -0.10907,0.10908 -0.13647,0.11962 -0.18495,0.0711 -0.0485,-0.0485 -0.0759,-0.0379 -0.18495,0.0711 -0.11762,0.11762 -0.12225,0.13385 -0.0569,0.19919 0.0654,0.0653 0.0607,0.0815 -0.0569,0.19918 -0.11762,0.11761 -0.13384,0.12225 -0.19919,0.0569 -0.0653,-0.0653 -0.0816,-0.0607 -0.19917,0.0569 -0.10644,0.10643 -0.119,0.13709 -0.0745,0.18164 0.0543,0.0543 0.0159,0.15917 -0.1018,0.27838 -0.0426,0.043 -0.0843,0.0454 -0.13477,0.008 -0.0635,-0.0476 -0.09,-0.038 -0.20116,0.0731 -0.11202,0.11202 -0.121,0.13742 -0.0718,0.20289 0.0499,0.0664 0.0419,0.0873 -0.0711,0.18496 -0.10395,0.0898 -0.13786,0.0996 -0.1843,0.0532 -0.0485,-0.0485 -0.0759,-0.0379 -0.18495,0.0711 -0.11113,0.11112 -0.12079,0.13772 -0.0731,0.20116 0.0463,0.0616 0.0374,0.0907 -0.0564,0.18442 -0.0959,0.0959 -0.12399,0.1037 -0.20324,0.0562 -0.0725,-0.0433 -0.1013,-0.0388 -0.13609,0.0215 -0.0242,0.0421 -0.0663,0.0991 -0.0935,0.12672 -0.0305,0.0309 -0.0276,0.072 0.008,0.1071 0.0485,0.0485 0.0379,0.0759 -0.0711,0.18495 -0.10908,0.10908 -0.13648,0.11962 -0.18496,0.0711 -0.0493,-0.0494 -0.0759,-0.0379 -0.19918,0.0853 -0.1233,0.12331 -0.13468,0.14987 -0.0854,0.19919 0.0485,0.0485 0.0379,0.0759 -0.0711,0.18495 -0.10908,0.10908 -0.13648,0.11962 -0.18496,0.0711 -0.0485,-0.0485 -0.0759,-0.0379 -0.18495,0.0711 -0.10908,0.10907 -0.11962,0.13648 -0.0711,0.18495 0.0399,0.0399 0.0379,0.0761 -0.007,0.12132 -0.035,0.0354 -0.0848,0.10095 -0.11049,0.1456 -0.0401,0.0694 -0.058,0.0701 -0.12297,0.005 -0.0719,-0.0719 -0.0822,-0.069 -0.18827,0.0536 -0.0933,0.1078 -0.10291,0.14202 -0.0573,0.2028 0.0473,0.0631 0.0379,0.0902 -0.0692,0.1972 -0.10702,0.10702 -0.13414,0.11653 -0.1972,0.0692 -0.0608,-0.0456 -0.095,-0.036 -0.20279,0.0573 -0.12121,0.10485 -0.12493,0.11694 -0.0569,0.18495 0.0671,0.0671 0.063,0.0826 -0.0533,0.19884 -0.10906,0.10907 -0.13593,0.11865 -0.19918,0.0711 -0.0608,-0.0456 -0.095,-0.036 -0.20279,0.0573 -0.12121,0.10485 -0.12493,0.11694 -0.0569,0.18495 0.0671,0.0671 0.063,0.0826 -0.0533,0.19885 -0.10908,0.10907 -0.13593,0.11865 -0.19918,0.0711 -0.0635,-0.0476 -0.09,-0.038 -0.20116,0.0731 l -0.12805,0.12804 c 0.17236,0.23238 0.58327,0.36623 0.38586,0.59926 -0.095,0.11209 -0.1007,0.11274 -0.1925,0.0218 -0.0934,-0.0925 -0.45163,-0.29564 -0.56513,-0.32038 -0.042,-0.01 -0.16798,0.0966 -0.4484,0.37641 -0.51928,0.5182 -0.86187,0.69636 -1.37225,0.71372 -0.3354,0.0115 -0.48122,0.0598 -0.63091,0.20922 -0.17928,0.17907 -0.21451,0.3441 -0.17942,0.8416 0.0293,0.41504 0.1123,0.63199 0.37189,0.97177 0.0727,0.0952 0.08,0.13342 0.0342,0.17927 -0.0888,0.0888 -0.18877,0.39944 -0.48965,1.52156 -0.26872,1.0023 -0.55501,2.02713 -0.57062,2.04275 -0.004,0.004 -0.0867,0.22751 -0.18308,0.49607 -0.0964,0.26857 -0.18167,0.49467 -0.18944,0.50245 -0.0128,0.0128 -0.11581,0.26694 -0.19515,0.48132 -0.0577,0.15584 -0.60586,1.32763 -0.789,1.68656 -0.37851,0.74181 -0.412,0.79326 -0.71035,1.09161 -0.27582,0.27583 -0.2989,0.29093 -0.49878,0.32642 -0.13612,0.0241 -0.29923,0.01 -0.46545,-0.0407 -0.14074,-0.0428 -0.28979,-0.0682 -0.33122,-0.0565 -0.0481,0.0136 -0.14815,0.11642 -0.277,0.28473 -0.11093,0.14491 -0.32972,0.41714 -0.48621,0.60496 -0.15647,0.18782 -0.52733,0.63645 -0.82412,0.99696 -0.29679,0.36051 -0.72492,0.87992 -0.9514,1.15425 -0.22647,0.27433 -0.57311,0.69596 -0.77032,0.93695 -0.1972,0.241 -0.55676,0.67532 -0.79901,0.96517 -0.24226,0.28985 -0.48432,0.58558 -0.53792,0.65717 -0.0537,0.0716 -0.27747,0.34711 -0.49746,0.61227 -0.22,0.26515 -0.57276,0.69347 -0.78392,0.95181 -0.21116,0.25834 -0.6272,0.76423 -0.92454,1.1242 -0.29733,0.35996 -0.71354,0.86569 -0.9249,1.12382 -0.21136,0.25814 -0.64039,0.77665 -0.95339,1.15225 -0.79904,0.95882 -1.04313,1.26449 -1.11176,1.39224 -0.0328,0.0611 -0.198,0.29285 -0.36707,0.51503 -0.4839,0.63594 -0.49332,0.75962 -0.0886,1.16177 0.14308,0.14222 0.4651,0.42497 0.71551,0.6284 0.92131,0.74849 1.65508,1.35602 3.31563,2.74519 0.28973,0.24239 0.74331,0.62109 1.00796,0.8416 0.26465,0.22049 0.68805,0.57818 0.94089,0.79484 0.25283,0.21667 0.51839,0.41847 0.59014,0.44844 0.11056,0.0462 0.14498,0.04 0.2258,-0.0409 0.0524,-0.0524 0.0968,-0.11825 0.0985,-0.14624 z m 12.76451,-22.95881 c -0.12515,0.0771 -0.29624,0.12082 -0.47278,0.12082 -0.28005,0 -0.6503,-0.23476 -0.73735,-0.46752 -0.0333,-0.0892 -0.0254,-0.10576 0.0712,-0.14944 0.1006,-0.0454 0.12379,-0.0361 0.30936,0.12452 0.23661,0.20482 0.58402,0.30984 0.83164,0.25139 0.30217,-0.0713 0.33299,-0.23436 0.0464,-0.24526 -0.47191,-0.0179 -0.91966,-0.55683 -0.86221,-1.03775 0.0151,-0.12602 0.0519,-0.16995 0.62175,-0.73974 l 0.60576,-0.60574 0.1635,-0.014 c 0.34484,-0.0297 0.72622,0.20979 0.82758,0.51969 0.0666,0.2037 0.0376,0.55808 -0.0618,0.75314 -0.17462,0.34294 -1.04059,1.30358 -1.34316,1.48998 z m 25.2447896,-30.45363 c -0.0391,-0.0391 -0.0583,-0.0839 -0.0427,-0.0996 0.0156,-0.0157 0.009,-0.0483 -0.0157,-0.0727 -0.0375,-0.0375 -0.0998,0.0104 -0.41013,0.31547 -1.19308,1.17262 -2.30965,2.29944 -3.8794696,3.91505 l -1.77289,1.8246 -0.1003,-0.0451 c -0.0552,-0.0248 -0.11649,-0.0379 -0.13629,-0.0292 -0.0198,0.009 -0.0772,-0.01 -0.12762,-0.0398 l -0.0916,-0.0557 2.29983,-2.33512 c 3.0869496,-3.13433 6.1929596,-6.18546 6.2443596,-6.13406 0.0469,0.0469 0.11939,-7.5e-4 0.47753,-0.3131 0.34481,-0.3008 0.37379,-0.31521 0.46015,-0.22886 l 0.0678,0.0678 -1.20874,1.22357 -1.20874,1.22358 0.0705,0.10015 c 0.0596,0.0845 0.0576,0.11314 -0.0127,0.18342 -0.0701,0.0701 -0.10174,0.0725 -0.19971,0.0148 -0.10607,-0.0624 -0.12623,-0.0587 -0.2264,0.0414 -0.11283,0.11283 -0.1128,0.17621 9e-5,0.28911 0.0417,0.0417 0.0344,0.0747 -0.0307,0.13995 -0.0721,0.0721 -0.0964,0.0743 -0.15651,0.0142 z"
       id="path892"       
       sodipodi:nodetypes="ccscsccccccccssccccccsccccccscsccsscccsccscccccccsccssccscccscscsccccssccccccccccccsccccsccccccccccccsssccscscssssssssssssssssssccsccsscscccsssssssssccsccsccssccsscscccccccccscscscsscccccccsccscscccsccssccsccssscccccscccscscscscccccsscsccccscsssssc" />
  </g>
</svg>
