<?xml version="1.0" encoding="UTF-8" standalone="no"?>
<!-- Created with Inkscape (http://www.inkscape.org/) -->

<svg
   xmlns:dc="http://purl.org/dc/elements/1.1/"
   xmlns:cc="http://creativecommons.org/ns#"
   xmlns:rdf="http://www.w3.org/1999/02/22-rdf-syntax-ns#"
   xmlns:svg="http://www.w3.org/2000/svg"
   xmlns="http://www.w3.org/2000/svg"
   xmlns:sodipodi="http://sodipodi.sourceforge.net/DTD/sodipodi-0.dtd"   
   width="220"
   height="235"
   viewBox="0 0 58.208331 62.177086"
   version="1.1"
   id="svg8"   
   sodipodi:docname="ksg.svg" >
  <defs
     id="defs2" />
  <sodipodi:namedview
     id="base"
     pagecolor="#000000"
     bordercolor="#666666"
     borderopacity="1.0"     
     showgrid="false"
     fit-margin-top="0"
     fit-margin-left="0"
     fit-margin-right="0"
     fit-margin-bottom="0"
     units="px" />
  <metadata
     id="metadata5">
    <rdf:RDF>
      <cc:Work
         rdf:about="">
        <dc:format>image/svg+xml</dc:format>
        <dc:type
           rdf:resource="http://purl.org/dc/dcmitype/StillImage" />
        <dc:title></dc:title>
      </cc:Work>
    </rdf:RDF>
  </metadata>
  <g
     id="layer1"
     transform="translate(56.057826,-205.94221)">
    <path
       style="fill:none;stroke:#ffffff;stroke-width:0.4;stroke-opacity:1;stroke-miterlimit:4;stroke-dasharray:none"
       d="m -20.173393,252.74149 c -2.300501,1.89648 -2.596126,2.10401 -2.841496,1.99473 -0.119668,-0.0533 -0.490292,-0.7 -0.82361,-1.43712 -0.333317,-0.73712 -0.665104,-1.39997 -0.737304,-1.473 -0.07218,-0.073 -0.08374,-0.18031 -0.02565,-0.2384 0.05809,-0.0581 0.04556,-0.16568 -0.02784,-0.23909 -0.07341,-0.0734 -0.483917,-1.19686 -0.912248,-2.49657 -0.428326,-1.2997 -0.893453,-2.47777 -1.033612,-2.61793 -0.303288,-0.30329 -1.160575,-0.59763 -1.577488,-0.54162 -0.210251,0.0282 -0.919578,0.66028 -2.423097,2.15904 -1.993842,1.98746 -2.124557,2.14412 -2.10575,2.52152 0.01104,0.22133 -0.09139,0.51388 -0.227616,0.6501 -0.136224,0.13622 -0.200154,0.29521 -0.142063,0.35331 0.0581,0.0581 -0.01422,0.22546 -0.160694,0.37194 -0.338963,0.33896 -1.011159,0.14128 -1.053074,-0.3097 -0.03997,-0.43001 -0.704848,-0.34116 -2.219868,0.29665 l -1.256678,0.52906 -1.905306,1.9069 -1.905305,1.9069 -0.02036,0.76101 c -0.0112,0.41855 -0.137503,0.9367 -0.280671,1.15146 -0.205387,0.30808 -0.207554,0.8444 -0.01028,2.54204 0.137513,1.18338 0.292852,2.24775 0.345193,2.36527 0.05234,0.11753 0.02911,0.34116 -0.05161,0.49696 -0.196141,0.37853 -3.213428,3.39434 -3.452413,3.45082 -0.118054,0.0278 -0.612539,-0.38011 -1.327321,-1.09489 -1.435983,-1.43599 -4.465884,-4.10153 -5.517351,-4.85387 -1.461496,-1.04572 -2.394915,-1.92735 -2.366321,-2.23502 0.03644,-0.392 3.664795,-4.06212 15.989399,-16.17338 l 10.333933,-10.15507 -0.405295,-0.0202 c -0.222914,-0.0111 -0.500458,-0.14678 -0.616763,-0.30147 -0.166514,-0.22146 -0.142892,-0.36432 0.111136,-0.67204 0.177422,-0.21495 0.417778,-0.3908 0.53409,-0.39081 0.141162,0 0.236177,-0.10679 0.285709,-0.32115 0.05784,-0.25022 0.157767,-0.34046 0.452496,-0.40859 0.269054,-0.0622 0.355172,-0.13363 0.298244,-0.24746 -0.106517,-0.21304 0.215064,-0.52069 0.554602,-0.53057 0.217583,-0.006 0.255255,-0.044 0.188358,-0.18836 -0.10276,-0.22175 0.197577,-0.54307 0.507612,-0.54306 0.163953,-1e-5 0.251425,-0.0988 0.309373,-0.34945 0.06642,-0.28736 0.140543,-0.35518 0.417028,-0.38159 0.258874,-0.0247 0.316104,-0.0727 0.248661,-0.20858 -0.110605,-0.22282 0.196534,-0.53909 0.523536,-0.5391 0.190505,0 0.252962,-0.0894 0.267615,-0.38326 0.01792,-0.3592 0.04143,-0.38325 0.374649,-0.38327 0.265358,0 0.355549,-0.0609 0.355552,-0.23991 -3e-6,-0.29626 0.341974,-0.65841 0.485861,-0.51453 0.161492,0.1615 0.400026,-0.14872 0.369221,-0.48017 -0.02446,-0.26316 0.01269,-0.29679 0.346164,-0.31343 0.347713,-0.0173 0.374833,-0.0441 0.392047,-0.38646 0.02276,-0.4562 0.113566,-0.55634 0.318586,-0.35131 0.189173,0.18917 0.433047,-0.0166 0.43304,-0.36542 -2e-6,-0.19147 0.100685,-0.27992 0.43447,-0.3817 0.338845,-0.10329 0.415184,-0.17127 0.346802,-0.3088 -0.107024,-0.21521 0.235417,-0.58513 0.486753,-0.52579 0.119163,0.0281 0.188622,-0.0891 0.20111,-0.33947 0.01787,-0.35834 0.04261,-0.38361 0.392625,-0.40108 0.333478,-0.0167 0.370623,-0.0502 0.346164,-0.31343 -0.03487,-0.37525 0.157283,-0.56741 0.53253,-0.53253 0.263164,0.0244 0.296796,-0.0127 0.31343,-0.34616 0.01746,-0.35007 0.0428,-0.37478 0.402806,-0.39275 0.364358,-0.0182 0.379897,-0.0344 0.300955,-0.31397 -0.07272,-0.25755 -0.03301,-0.31002 0.31412,-0.41512 0.324352,-0.0982 0.412356,-0.18517 0.478917,-0.47334 0.06527,-0.28236 0.139691,-0.35838 0.372024,-0.38 0.232031,-0.0216 0.306402,-0.0959 0.369675,-0.36968 0.06448,-0.27898 0.141717,-0.34864 0.415487,-0.37477 0.258874,-0.0247 0.316104,-0.0727 0.24866,-0.20858 -0.103499,-0.20851 0.336455,-0.69196 0.577832,-0.63499 0.105401,0.0249 0.196096,-0.0846 0.244898,-0.29568 0.06188,-0.2677 0.153668,-0.35282 0.455765,-0.42263 0.269054,-0.0622 0.355172,-0.13364 0.298244,-0.24747 -0.101494,-0.20299 0.211167,-0.52264 0.511222,-0.52264 0.163953,0 0.252337,-0.10275 0.312599,-0.36338 0.06972,-0.30162 0.146244,-0.37777 0.450292,-0.44789 0.21436,-0.0496 0.352342,-0.1524 0.33283,-0.24809 -0.03797,-0.18621 1.10634,-1.34173 1.328643,-1.34166 0.08028,3e-5 0.179734,-0.14604 0.220996,-0.32462 0.05797,-0.25081 0.151303,-0.34229 0.410274,-0.40213 0.2110608,-0.0488 0.3205748,-0.13948 0.2956768,-0.2449 -0.05309,-0.22489 0.377558,-0.64079 0.663534,-0.64077 0.165371,0 0.217374,-0.052 0.18579,-0.1858 -0.05604,-0.2374 0.40296,-0.70226 0.638514,-0.64665 0.111117,0.0263 0.188931,-0.0412 0.204804,-0.17734 0.01409,-0.1208 0.38209,-0.5561 0.817772,-0.96733 0.435677,-0.41125 0.777571,-0.80943 0.759784,-0.88483 -0.0178,-0.0754 0.137296,-0.2133 0.344661,-0.30641 0.255369,-0.11468 0.384453,-0.24931 0.40006,-0.41723 0.01268,-0.13636 0.177893,-0.34064 0.367157,-0.45396 0.363379,-0.21757 0.789056,-0.0565 1.16179,0.43959 0.17249,0.22958 0.151384,0.3372 -0.110695,0.56444 -0.314389,0.27263 -0.3124,0.28134 0.06929,0.30039 0.216211,0.0108 0.457038,-0.0443 0.535173,-0.12246 0.104146,-0.10415 0.321773,0.0377 0.815395,0.53127 0.960282,0.96028 1.214686,1.38995 1.029435,1.73864 -0.121159,0.22804 -0.106779,0.27345 0.06293,0.19869 0.337263,-0.14855 0.569384,-0.0578 1.03021095,0.40261 0.724512,0.72387 0.806827,0.9976 0.517605,1.72079 -0.147404,0.36858 -0.380084,0.78222 -0.517069,0.9192 -0.136984,0.13699 -0.23090895,0.32597 -0.208721,0.41997 0.02219,0.094 -0.04686,0.25811 -0.15345595,0.3647 -0.125864,0.12587 -0.105168,0.45692 0.05904,0.94436 0.30336295,0.90051 0.08239,1.59332 -0.480316,1.50596 -0.311873,-0.0484 -0.338141,-0.0259 -0.338129,0.29014 0,0.44629 -0.214779,0.65023 -0.535679,0.50862 -0.244278,-0.1078 -0.254172,-0.0979 -0.207782,0.20777 0.06236,0.41096 -0.204277,0.6776 -0.582888,0.58289 -0.281624,-0.0704 -0.292184,-0.0599 -0.221739,0.22174 0.09205,0.36798 -0.237408,0.71984 -0.545503,0.58263 -0.209349,-0.0932 -0.230087,-0.0725 -0.230088,0.23009 -10e-7,0.42001 -0.242905,0.67014 -0.527617,0.54334 -0.120574,-0.0537 -0.261675,-0.0552 -0.313552,-0.003 -0.05187,0.0519 -0.02302,0.16561 0.06411,0.25275 0.20815,0.20815 -0.155425,0.56274 -0.540313,0.52698 -0.27399,-0.0255 -0.29536,-0.004 -0.229424,0.22942 0.09254,0.32774 -0.248495,0.67726 -0.535916,0.54926 -0.120575,-0.0537 -0.268251,-0.0486 -0.328167,0.0113 -0.05992,0.0599 -0.03764,0.18023 0.0495,0.26737 0.216801,0.2168 -0.114275,0.51403 -0.516562,0.46371 -0.312938,-0.0391 -0.32506,-0.027 -0.254542,0.25454 0.04073,0.16259 0.0075,0.3622 -0.07389,0.44356 -0.08137,0.0814 -0.28097,0.11461 -0.443565,0.0739 -0.281551,-0.0705 -0.293673,-0.0584 -0.254541,0.25454 0.05175,0.41384 -0.110409,0.5811 -0.46601,0.4807 -0.259309,-0.0732 -0.276846,-0.0557 -0.276847,0.27685 4e-6,0.19526 -0.04074,0.39576 -0.09053,0.44555 -0.04979,0.0498 -0.250288,0.0905 -0.445549,0.0905 -0.332526,0 -0.350063,0.0176 -0.276847,0.27685 0.100412,0.35561 -0.06687,0.51779 -0.4806228,0.46593 -0.311663,-0.0391 -0.326211,-0.0232 -0.283775,0.31028 0.04485,0.3524 -0.306452,0.65429 -0.516698,0.44405 -0.05992,-0.0599 -0.180232,-0.0377 -0.267369,0.0495 -0.08714,0.0871 -0.08714,0.22972 10e-7,0.31686 0.11697,0.11697 0.03606,0.28081 -0.3092,0.62606 -0.373003,0.37301 -0.563093,0.45623 -0.939389,0.41129 l -0.471755,-0.0564 -3.568503,3.58336 c -1.962688,1.97083 -3.622721,3.71925 -3.688976,3.88536 -0.116147,0.29118 -0.111898,0.29398 0.118367,0.078 0.321125,-0.30117 0.515276,-0.23173 0.892022,0.31902 0.336156,0.49141 0.502413,2.10376 0.243615,2.36256 -0.07974,0.0797 -0.05272,0.23724 0.06003,0.34999 0.112759,0.11276 0.188253,0.276 0.167773,0.36276 -0.02049,0.0868 0.06788,0.32205 0.196356,0.52285 0.128478,0.2008 0.195571,0.63168 0.149095,0.95751 -0.08126,0.56966 -0.151276,0.65918 -1.823428,2.33133 l -1.738923,1.73892 0.860313,1.78023 c 1.785102,3.69385 1.922263,3.92406 2.396871,4.02292 0.39926,0.0832 0.419215,0.11139 0.351295,0.49692 -0.03961,0.22482 -0.102511,0.42839 -0.139789,0.4524 -0.03727,0.024 -0.797249,0.64502 -1.688825,1.38001 z m 1.226961,-12.3565 c -0.01247,-0.13417 -0.193253,-0.61848 -0.401736,-1.07623 l -0.379065,-0.83229 -0.543115,-0.0914 c -0.525595,-0.0884 -0.570199,-0.0643 -1.38245,0.74799 -0.833592,0.8336 -0.838369,0.84316 -0.705357,1.3919 0.164906,0.68014 0.442073,0.97112 1.09282,1.14728 0.275807,0.0747 0.501461,0.20083 0.50146,0.28038 2e-6,0.27799 -0.627924,0.5175 -1.034233,0.39448 -0.508146,-0.15386 -0.666543,-0.0298 -0.270056,0.21153 0.666669,0.40576 0.908427,0.30622 2.064679,-0.85003 0.740466,-0.74046 1.072598,-1.15637 1.057051,-1.32366 z"
       id="path879"       
       sodipodi:nodetypes="ccscsscscccssscccccccscccsscsccccccccccccccccccscccscccccccccccccccccccccccccscccccccccccccccssccccscsccccccscscssccsssccsccccsccccssssccccccsscccscccccccccccscccccscc" />
  </g>
</svg>
