<?xml version="1.0" encoding="UTF-8" standalone="no"?>
<!-- Created with Inkscape (http://www.inkscape.org/) -->

<svg
   xmlns:dc="http://purl.org/dc/elements/1.1/"
   xmlns:cc="http://creativecommons.org/ns#"
   xmlns:rdf="http://www.w3.org/1999/02/22-rdf-syntax-ns#"
   xmlns:svg="http://www.w3.org/2000/svg"
   xmlns="http://www.w3.org/2000/svg"
   xmlns:sodipodi="http://sodipodi.sourceforge.net/DTD/sodipodi-0.dtd"
   width="220"
   height="235"
   viewBox="0 0 58.208331 62.177086"
   version="1.1"
   id="svg8"   
   sodipodi:docname="sas-12.svg" >
  <defs
     id="defs2" />
  <sodipodi:namedview
     id="base"
     pagecolor="#000000"
     bordercolor="#666666"
     borderopacity="1.0"
     showgrid="false"
     fit-margin-top="0"
     fit-margin-left="0"
     fit-margin-right="0"
     fit-margin-bottom="0"
     units="px" />
  <metadata
     id="metadata5">
    <rdf:RDF>
      <cc:Work
         rdf:about="">
        <dc:format>image/svg+xml</dc:format>
        <dc:type
           rdf:resource="http://purl.org/dc/dcmitype/StillImage" />
        <dc:title></dc:title>
      </cc:Work>
    </rdf:RDF>
  </metadata>
  <g
     id="layer1"
     transform="translate(56.057826,-205.94221)">
    <path
       style="fill:none;stroke:#ffffff;stroke-width:0.4;stroke-opacity:1;stroke-miterlimit:4;stroke-dasharray:none"
       d="m -35.848712,263.314 c -10e-7,-0.41555 -0.199185,-0.58166 -0.896127,-0.74731 -0.322336,-0.0766 -0.722545,-0.27536 -0.88935,-0.44165 -0.255924,-0.25517 -1.146845,-1.89126 -1.512675,-2.77794 -0.05826,-0.14121 -0.208029,-0.48107 -0.332812,-0.75524 -0.124782,-0.27417 -0.396574,-0.96157 -0.603979,-1.52756 -0.207405,-0.56598 -0.416296,-1.06826 -0.464201,-1.11616 -0.199527,-0.19953 0.158921,-0.73358 1.507147,-2.24547 1.684054,-1.88848 1.883672,-2.30177 1.712438,-3.54537 -0.131692,-0.95642 0.03993,-1.69534 0.622249,-2.67903 0.35631,-0.60191 0.905965,-1.19958 3.171003,-3.448 3.152199,-3.1291 3.938374,-3.84114 4.370631,-3.95869 0.226248,-0.0615 1.255979,-1.00549 3.801152,-3.48455 l 3.49084,-3.40017 0.318377,0.2622 c 0.364829,0.30046 0.377912,0.29551 1.602615,-0.60799 0.654362,-0.48274 2.02095,-1.80361 5.21007,-5.03578 7.5413325,-7.64312 9.5037295,-9.84462 9.2660035,-10.39502 -0.04403,-0.10194 -0.018,-0.24569 0.05785,-0.31945 0.107832,-0.10509 0.315184,0.0234 0.95395,0.59126 l 0.816041,0.72537 0.485455,-0.4834 c 0.609333,-0.60659 0.571387,-0.7698 -0.357363,-1.5406 l -0.69814,-0.5794 0.588331,-0.58833 c 0.460755,-0.46075 0.584816,-0.65878 0.572127,-0.9132 -0.01379,-0.27664 0.147373,-0.49972 1.085546,-1.50251 0.950311,-1.01577 1.09547399,-1.21808 1.05606899,-1.47187 -0.11457199,-0.73796 -1.02567799,-1.54267 -1.74663899,-1.54267 -0.407147,0 -0.496574,0.0635 -1.492608,1.05951 -0.902725,0.90273 -1.100811,1.05386 -1.338637,1.02129 -0.153519,-0.021 -0.317003,-0.0735 -0.363293,-0.11662 -0.04833,-0.045 0.590561,-0.71195 1.500817,-1.56669 1.498304,-1.40685 1.584061,-1.50708 1.567842,-1.83232 -0.02559,-0.51315 -1.104134,-1.56802 -1.630673,-1.59489 -0.341123,-0.0174 -0.434749,0.045 -0.87131,0.5808 -0.420222,0.51575 -0.527437,0.59145 -0.761144,0.53743 -0.319926,-0.0739 -1.125525,0.18994 -1.391344,0.45576 -0.120897,0.1209 -0.13165,0.33872 -0.03071,0.62198 l 0.155345,0.43591 -2.266874,2.2213 c -1.2467905,1.22171 -6.1134725,6.01648 -10.8148615,10.65503 l -8.547982,8.43375 -0.314009,-0.11743 c -0.199429,-0.0746 -0.390819,-0.0406 -0.5245,0.0931 -0.115768,0.11577 -0.31045,0.21049 -0.432626,0.21049 -0.175289,0 -0.236222,0.0609 -0.288918,0.28892 -0.03673,0.1589 -0.149811,0.37195 -0.251295,0.47343 -0.110814,0.11081 -0.133155,0.32186 -0.05593,0.52835 0.120901,0.32329 0.09515,0.37276 -0.430889,0.82783 -0.350709,0.30341 -0.68483,0.49025 -0.895453,0.50075 -0.31458,0.0157 -0.779882,0.46058 -7.303912,6.98359 -3.832332,3.8318 -8.283785,8.26864 -9.892067,9.85972 l -2.924131,2.89288 -0.0776,0.57628 c -0.04268,0.31696 -0.119679,0.61838 -0.171121,0.66982 -0.129131,0.12913 0.02521,0.58771 0.285365,0.84787 0.118719,0.11872 0.577306,1.07088 1.019073,2.11591 1.273274,3.01198 2.337501,4.04698 3.586727,3.48822 0.502088,-0.22457 0.566272,-0.2889 0.907047,-0.9091 0.34388,-0.62576 0.387094,-0.6684 0.6929,-0.68365 0.504339,-0.0251 1.079556,0.35741 1.488857,0.99021 0.194933,0.30137 0.801304,1.88722 1.34749,3.52411 0.863555,2.58803 1.040827,3.00884 1.359294,3.22669 0.401209,0.27445 0.619118,0.20568 1.211228,-0.38222 0.192029,-0.19066 0.99027,-0.65728 1.773881,-1.03693 1.715249,-0.831 2.989422,-1.83369 2.989423,-2.35248 z m -4.260594,-9.72426 c -0.51258,-0.35064 -0.92756,-0.94678 -0.99884,-1.43489 -0.05333,-0.36518 0.0061,-0.46816 0.695347,-1.20523 l 0.753653,-0.80595 0.411111,0.13085 c 0.22611,0.072 0.484389,0.20444 0.573947,0.29437 0.230105,0.23099 0.404862,1.039 0.299818,1.38592 -0.109252,0.36084 -0.591745,1.09011 -1.026171,1.55101 -0.306387,0.32503 -0.349003,0.33009 -0.708876,0.0839 z"
       id="path866"       
       sodipodi:nodetypes="cscccssssccccccssccsccscscsccscccccccscccsccsccscccccccsscccccsccscccccccccccc" />
  </g>
</svg>
