<?xml version="1.0" encoding="UTF-8" standalone="no"?>
<!-- Created with Inkscape (http://www.inkscape.org/) -->

<svg
   xmlns:dc="http://purl.org/dc/elements/1.1/"
   xmlns:cc="http://creativecommons.org/ns#"
   xmlns:rdf="http://www.w3.org/1999/02/22-rdf-syntax-ns#"
   xmlns:svg="http://www.w3.org/2000/svg"
   xmlns="http://www.w3.org/2000/svg"
   xmlns:sodipodi="http://sodipodi.sourceforge.net/DTD/sodipodi-0.dtd"   
   width="220"
   height="235"
   viewBox="0 0 58.208331 62.177086"
   version="1.1"
   id="svg8"   
   sodipodi:docname="spas-12.svg" >
  <defs
     id="defs2" />
  <sodipodi:namedview
     id="base"
     pagecolor="#000000"
     bordercolor="#666666"
     borderopacity="1.0"
     showgrid="false"
     fit-margin-top="0"
     fit-margin-left="0"
     fit-margin-right="0"
     fit-margin-bottom="0"
     units="px" />
  <metadata
     id="metadata5">
    <rdf:RDF>
      <cc:Work
         rdf:about="">
        <dc:format>image/svg+xml</dc:format>
        <dc:type
           rdf:resource="http://purl.org/dc/dcmitype/StillImage" />
        <dc:title></dc:title>
      </cc:Work>
    </rdf:RDF>
  </metadata>
  <g
     id="layer1"
     transform="translate(56.057826,-205.94221)">
    <path
       style="fill:none;stroke:#ffffff;stroke-width:0.4;stroke-opacity:1;stroke-miterlimit:4;stroke-dasharray:none"
       d="m -39.69066,263.46648 c 0.0438,-0.50901 -0.0787,-0.70976 -0.46128,-0.75545 -0.39096,-0.0467 -0.50962,-0.16481 -1.02274,-1.01818 -0.88381,-1.46954 -1.63215,-3.45585 -1.69933,-4.51058 -0.0198,-0.31046 -0.0639,-0.59237 -0.0979,-0.62646 -0.1203,-0.1203 0.40099,-0.4826 1.22328,-0.85017 1.08365,-0.4844 1.57524,-0.95082 1.76388,-1.67359 0.0712,-0.27263 0.0991,-0.66086 0.0622,-0.86273 -0.037,-0.20188 -0.07,-0.38356 -0.0734,-0.40375 -0.004,-0.0202 0.32882,-0.62331 0.73829,-1.34026 0.68617,-1.20141 0.73897,-1.33181 0.67392,-1.66418 -0.0388,-0.19834 -0.1864,-0.51729 -0.32794,-0.70878 l -0.25736,-0.34816 2.26232,-2.26232 2.262314,-2.26231 0.276775,0.0576 c 0.244885,0.051 0.323529,0.0109 0.682545,-0.34812 0.330636,-0.33064 0.452525,-0.40086 0.658241,-0.37923 0.244274,0.0257 0.326897,-0.0454 2.545932,-2.19094 l 2.293462,-2.21748 0.352812,0.35281 c 0.343539,0.34354 0.67262,0.45342 0.844167,0.28188 0.113268,-0.11327 0.249821,-0.79314 0.17444,-0.86852 -0.03772,-0.0377 -0.0063,-0.0963 0.06977,-0.13021 0.0761,-0.0339 0.217149,-0.2586 0.313433,-0.49939 0.14257,-0.3565 0.321058,-0.58174 0.961324,-1.21314 4.81823,-4.7515 5.308431,-5.21483 5.923804,-5.59913 0.341236,-0.2131 0.707764,-0.42052 0.814502,-0.46093 0.703639,-0.2664 1.192573,-0.64722 2.744783,-2.13785 1.56513,-1.50306 1.628212,-1.5748 2.628676,-2.98971 0.886369,-1.25355 1.123148,-1.53598 1.749967,-2.08738 0.703762,-0.61909 0.723296,-0.6451 0.669885,-0.89202 -0.03025,-0.13989 -0.149273,-0.39079 -0.264484,-0.55756 l -0.209474,-0.30322 0.325987,-0.29246 c 0.179303,-0.16085 0.356591,-0.37126 0.393969,-0.46757 0.04049,-0.1043 0.129259,-0.17512 0.219508,-0.17512 0.200841,0 0.6999948,-0.50557 0.6999898,-0.70899 3e-6,-0.12485 0.04081,-0.11972 0.183623,0.0231 0.175489,0.17549 0.192752,0.17056 0.390038,-0.1116 0.259106,-0.37059 0.462081,-0.90908 0.375352,-0.9958 -0.04264,-0.0426 1.389048,-1.50567 4.069024,-4.15812 l 4.13480901,-4.09234 -0.04828,-0.28214 c -0.06521,-0.38114 -0.90054901,-1.20568 -1.30728901,-1.29041 l -0.282431,-0.0588 -4.095904,4.09591 c -3.9329448,3.93294 -4.1039228,4.09396 -4.2996368,4.04872 -0.112097,-0.0259 -0.336893,0.0439 -0.499549,0.15519 -0.233083,0.15944 -0.306045,0.27116 -0.344434,0.52721 -0.02678,0.1787 -0.09169,0.31475 -0.14425,0.30234 -0.127169,-0.03 -1.655346,1.4964 -1.576881,1.57486 0.121992,0.12199 -0.257098,0.37211 -0.550116,0.36296 -0.565549,-0.0177 -0.528595,-0.10776 0.392005,-0.95583 0.46912,-0.43216 2.553197,-2.45351 4.6312798,-4.4919 3.163177,-3.10276 3.811456,-3.70781 3.98179,-3.71631 0.224163,-0.0112 1.372237,-1.10193 2.310826,-2.19545 0.484073,-0.56397 0.500806,-0.6007 0.39266,-0.86179 -0.131547,-0.31758 -1.173727,-1.28364 -1.384784,-1.28365 -0.07861,0 -0.711811,0.54512 -1.490783,1.28341 -1.209783,1.14658 -1.355413,1.30889 -1.366069,1.52265 -0.01133,0.22724 -0.02149,0.23295 -0.202398,0.11371 -0.104748,-0.0691 -0.458933,-0.2935 -0.787053,-0.49879 l -0.596588,-0.37325 -0.427551,0.42755 -0.42755,0.42756 0.496169,0.49616 c 0.272896,0.2729 0.525504,0.56206 0.561371,0.64257 0.05697,0.12792 -0.139326,0.35093 -1.5554,1.767 -0.8913298,0.89133 -2.7316578,2.69172 -4.0896278,4.00084 l -2.469031,2.38024 -0.217328,-0.0976 c -0.119529,-0.0537 -0.321928,-0.0506 -0.449771,0.007 -0.127844,0.0574 -0.278336,0.0585 -0.334428,0.002 -0.07903,-0.079 -0.184794,-0.0192 -0.469854,0.26589 -0.230094,0.23009 -0.339403,0.39634 -0.29186,0.44388 0.07491,0.0749 -2.220485,2.34619 -9.27896,9.18143 -2.341841,2.26778 -2.433259,2.34699 -3.117707,2.70133 -0.655574,0.33939 -0.836644,0.48987 -2.576669,2.14137 -1.569134,1.48931 -1.901611,1.77286 -2.057635,1.75484 -0.102347,-0.0118 -0.404032,0.0916 -0.670411,0.22993 -0.564775,0.29319 -1.037776,0.28823 -1.347026,-0.0141 -0.26704,-0.26108 -0.3843,-0.24038 -0.44035,0.0777 -0.0382,0.21708 0.0191,0.30848 0.48795,0.7773 l 0.53129,0.53129 -0.72537,0.72538 c -0.65746,0.65745 -0.72388,0.75072 -0.70936,0.99621 l 0.016,0.27085 -5.91516,5.83202 -5.91517,5.83203 -0.69439,1.1612 -0.6944,1.1612 -0.41569,0.0796 c -0.31016,0.0594 -0.5024,0.16642 -0.75726,0.42165 -0.4539,0.45441 -0.56452,0.92793 -0.34796,1.48808 0.0918,0.23735 0.13921,0.4592 0.10543,0.49298 -0.12444,0.12444 -0.11326,0.92979 0.0159,1.14549 0.0733,0.12244 0.14904,0.35457 0.16831,0.51586 0.0246,0.20599 0.14538,0.40679 0.40589,0.67483 0.20398,0.20985 0.44365,0.45928 0.53264,0.55423 0.31706,0.33835 0.86473,0.689 1.20598,0.77215 0.19063,0.0464 0.62919,0.0202 0.97458,-0.0583 0.84988,-0.19321 1.27452,-0.19746 1.63406,-0.0163 0.48746,0.24555 0.65049,0.59983 0.78308,1.70169 0.15794,1.31249 0.43869,2.44628 0.9222,3.72423 0.47002,1.24225 0.88679,1.73507 1.64712,1.94761 0.90798,0.25382 1.3233,0.0262 2.98525,-1.63569 1.0694,-1.0694 1.08994,-1.09615 1.12141,-1.46171 z m -2.29432,-8.1197 -0.80435,0.36954 -0.49072,-0.23539 c -1.08683,-0.5213 -1.19697,-1.01005 -0.12484,-0.55396 0.77375,0.32917 1.11386,0.3772 1.30655,0.18451 0.13802,-0.13802 0.15413,-0.1241 -0.32298,-0.27899 -0.51418,-0.16693 -0.77431,-0.43622 -0.95026,-0.98373 l -0.14256,-0.44353 0.71426,-0.68347 c 0.98934,-0.94667 1.39032,-1.02443 2.02256,-0.39219 0.51819,0.51818 0.63709,1.21094 0.32307,1.88219 -0.2057,0.4397 -0.51257,0.66724 -1.53072,1.13501 z"
       id="path853" />       
  </g>
</svg>
