<?xml version="1.0" encoding="UTF-8" standalone="no"?>
<!-- Created with Inkscape (http://www.inkscape.org/) -->

<svg
   xmlns:dc="http://purl.org/dc/elements/1.1/"
   xmlns:cc="http://creativecommons.org/ns#"
   xmlns:rdf="http://www.w3.org/1999/02/22-rdf-syntax-ns#"
   xmlns:svg="http://www.w3.org/2000/svg"
   xmlns="http://www.w3.org/2000/svg"
   xmlns:sodipodi="http://sodipodi.sourceforge.net/DTD/sodipodi-0.dtd"   
   width="220"
   height="235"
   viewBox="0 0 58.208332 62.177085"
   version="1.1"
   id="svg8"   
   sodipodi:docname="stf12.svg" >
  <defs
     id="defs2" />
  <sodipodi:namedview
     id="base"
     pagecolor="#000000"
     bordercolor="#666666"
     borderopacity="1.0"
     showgrid="false"
     units="px" />
  <metadata
     id="metadata5">
    <rdf:RDF>
      <cc:Work
         rdf:about="">
        <dc:format>image/svg+xml</dc:format>
        <dc:type
           rdf:resource="http://purl.org/dc/dcmitype/StillImage" />
        <dc:title />
      </cc:Work>
    </rdf:RDF>
  </metadata>
  <g
     id="layer1"
     transform="translate(0,-234.8229)">
    <path
       style="fill:none;stroke:#ffffee;stroke-width:0.4;stroke-miterlimit:4;stroke-dasharray:none;stroke-opacity:1"
       d="m 27.602079,281.25112 c -1.199825,1.01571 -2.445073,1.95979 -2.678055,2.03032 -0.114607,0.0348 -0.264436,0.01 -0.332956,-0.0616 -0.157775,-0.15778 -0.754277,-1.63839 -0.76759,-1.90528 -0.0055,-0.11014 -0.05299,-0.24327 -0.105544,-0.29582 -0.05256,-0.0527 -0.132912,-0.29616 -0.178573,-0.54135 -0.04566,-0.24519 -0.158818,-0.65484 -0.251455,-0.91034 -0.09264,-0.25552 -0.140113,-0.52817 -0.105494,-0.60591 0.03462,-0.0778 0.01692,-0.18736 -0.03931,-0.24358 -0.05624,-0.0561 -0.1253,-0.33445 -0.153466,-0.61824 -0.02815,-0.28382 -0.0789,-0.54369 -0.112744,-0.57753 -0.03386,-0.0339 -0.05553,-0.18141 -0.04815,-0.32789 0.0073,-0.1465 -0.0434,-0.44147 -0.11278,-0.6555 -0.15754,-0.48598 -0.42094,-0.67732 -1.362136,-0.98949 -0.467903,-0.1552 -0.726889,-0.29098 -0.790999,-0.41469 -0.09515,-0.18364 -0.09744,-0.1817 -1.275896,1.07365 -1.278915,1.36236 -1.58403,1.79227 -2.339874,3.29698 -0.587002,1.16854 -1.097799,2.67917 -1.471452,4.35158 -0.153294,0.68615 -0.385565,1.71292 -0.516153,2.28175 -0.130591,0.56881 -0.51512,2.32273 -0.854514,3.8976 -0.775642,3.59922 -0.802653,3.69075 -1.441615,4.88571 -0.553841,1.03579 -0.753924,1.23459 -1.123467,1.11644 -0.09949,-0.0316 -1.097492,-0.93398 -2.2177783,-2.00483 -2.0922576,-1.99993 -2.3715633,-2.25382 -3.9548453,-3.59482 -1.2842029,-1.08769 -1.619405,-1.63256 -1.3732253,-2.23208 0.2224277,-0.54171 1.2340537,-1.69776 5.6180971,-6.42015 2.6641568,-2.86978 4.5268778,-4.93546 4.8681998,-5.39863 0.909839,-1.23462 1.364651,-2.28258 1.614099,-3.71909 l 0.156664,-0.90216 1.132455,-1.13244 c 0.691899,-0.69193 1.544901,-1.64842 2.192648,-2.45876 1.496077,-1.87155 1.414448,-1.7024 1.014471,-2.10237 -0.301768,-0.30177 -0.318083,-0.34406 -0.166937,-0.43252 0.09213,-0.054 0.139347,-0.12625 0.104887,-0.16071 -0.08859,-0.0886 1.063929,-1.10707 1.184529,-1.04675 0.05321,0.0266 0.151896,-0.01 0.219272,-0.0741 0.09403,-0.0941 0.05785,-0.22439 -0.155599,-0.56096 -0.218447,-0.34439 -0.284225,-0.59197 -0.30665,-1.15409 -0.03674,-0.92077 0.110766,-1.08955 1.056078,-1.20849 0.699014,-0.0879 0.900598,-0.1968 1.674767,-0.90449 0.403521,-0.36891 0.401423,-0.36896 1.02939,0.0321 0.205893,0.13148 0.503575,0.0297 0.353131,-0.12073 -0.03653,-0.0365 0.0083,-0.14111 0.0996,-0.2324 0.0913,-0.0913 0.195877,-0.1361 0.232395,-0.0996 0.03653,0.0365 0.126155,0.01 0.199192,-0.0664 0.07304,-0.073 0.10292,-0.16267 0.0664,-0.19918 -0.03654,-0.0366 0.0083,-0.14111 0.09959,-0.2324 0.0913,-0.0914 0.195875,-0.13614 0.232395,-0.0996 0.03653,0.0366 0.126156,0.009 0.199194,-0.0665 0.07303,-0.073 0.102916,-0.16267 0.0664,-0.19919 -0.03653,-0.0365 0.0083,-0.14109 0.0996,-0.23239 0.0913,-0.0913 0.195875,-0.13612 0.232393,-0.0996 0.03653,0.0366 0.126153,0.01 0.199192,-0.0664 0.07303,-0.073 0.10292,-0.16268 0.0664,-0.19921 -0.03653,-0.0365 0.0083,-0.14108 0.0996,-0.23238 0.0913,-0.0913 0.195874,-0.13611 0.232394,-0.0996 0.03653,0.0366 0.126156,0.01 0.199193,-0.0665 0.07303,-0.073 0.102918,-0.16268 0.0664,-0.19919 -0.03653,-0.0365 0.0083,-0.14109 0.0996,-0.2324 0.0913,-0.0913 0.195876,-0.13611 0.232394,-0.0996 0.03653,0.0365 0.126156,0.01 0.199195,-0.0664 0.07303,-0.073 0.102916,-0.16267 0.0664,-0.1992 -0.03653,-0.0365 0.0083,-0.1411 0.0996,-0.23239 0.0913,-0.0913 0.195876,-0.13613 0.232394,-0.0996 0.03654,0.0365 0.126154,0.009 0.199194,-0.0664 0.07304,-0.0731 0.102917,-0.16268 0.0664,-0.1992 -0.08645,-0.0865 0.225304,-0.3982 0.365189,-0.36517 0.139732,0.033 0.385149,-0.21246 0.298792,-0.2988 -0.09538,-0.0953 0.0726,-0.23627 0.407025,-0.34138 0.25677,-0.0808 0.280638,-0.10456 0.211651,-0.21165 -0.101064,-0.15687 0.141501,-0.39886 0.319961,-0.31948 0.07579,0.0338 0.194375,0.01 0.263506,-0.0643 0.06912,-0.0691 0.08087,-0.17049 0.02609,-0.22528 -0.129981,-0.12998 0.12812,-0.38806 0.307979,-0.30796 0.17929,0.0798 0.419176,-0.16003 0.289605,-0.2896 -0.06197,-0.062 -0.03689,-0.16231 0.0664,-0.2656 0.103285,-0.10329 0.203621,-0.12836 0.265591,-0.0665 0.05534,0.0553 0.158616,0.0405 0.232394,-0.0331 0.07377,-0.0738 0.08854,-0.17706 0.03319,-0.23238 -0.06198,-0.0619 -0.03689,-0.16231 0.0664,-0.2656 0.103284,-0.10328 0.203619,-0.12837 0.265592,-0.0664 0.05478,0.0546 0.156159,0.0431 0.225287,-0.026 0.06913,-0.069 0.09807,-0.18769 0.0643,-0.26346 -0.07769,-0.17447 0.176674,-0.43931 0.301756,-0.31423 0.06069,0.0606 0.127712,0.0348 0.191448,-0.0741 0.05393,-0.0921 0.07169,-0.19391 0.03942,-0.22615 -0.08611,-0.0861 0.174283,-0.31718 0.432305,-0.38364 0.178857,-0.046 0.212981,-0.0801 0.170629,-0.17061 -0.06257,-0.13363 0.304087,-0.53067 0.400789,-0.43398 0.03654,0.0365 0.126155,0.009 0.199193,-0.0664 0.07304,-0.073 0.102918,-0.16268 0.0664,-0.19919 -0.03653,-0.0365 0.0083,-0.1411 0.09959,-0.23238 0.0913,-0.0914 0.195876,-0.13612 0.232395,-0.0996 0.03654,0.0365 0.126157,0.009 0.199193,-0.0664 0.07303,-0.073 0.102917,-0.16267 0.0664,-0.19921 -0.03653,-0.0365 0.0083,-0.14108 0.0996,-0.23237 0.09131,-0.0913 0.195877,-0.13611 0.232396,-0.0996 0.03653,0.0365 0.126155,0.009 0.199193,-0.0665 0.07303,-0.073 0.102916,-0.16267 0.0664,-0.19917 -0.03654,-0.0365 0.0083,-0.14111 0.0996,-0.23241 0.0913,-0.0914 0.195877,-0.13611 0.232396,-0.0996 0.03654,0.0365 0.126154,0.01 0.199192,-0.0664 0.07303,-0.073 0.102918,-0.16269 0.0664,-0.19919 -0.03653,-0.0365 0.0083,-0.1411 0.0996,-0.23239 0.0913,-0.0914 0.195875,-0.13612 0.232392,-0.0996 0.03653,0.0365 0.126158,0.01 0.199195,-0.0664 0.07303,-0.073 0.102917,-0.16268 0.0664,-0.1992 -0.03654,-0.0366 0.0083,-0.1411 0.0996,-0.23239 0.0913,-0.0914 0.195874,-0.13612 0.232394,-0.0996 0.03653,0.0365 0.126154,0.009 0.199191,-0.0664 0.07303,-0.073 0.102918,-0.16267 0.0664,-0.19921 -0.09266,-0.0927 0.156491,-0.32232 0.424552,-0.39137 0.178855,-0.046 0.212982,-0.0801 0.170629,-0.17062 -0.06257,-0.13362 0.304086,-0.53067 0.400787,-0.43396 0.03654,0.0366 0.126156,0.009 0.199194,-0.0664 0.07304,-0.0731 0.102918,-0.16269 0.0664,-0.19919 -0.03653,-0.0366 0.0083,-0.14111 0.0996,-0.2324 0.0913,-0.0913 0.195877,-0.13611 0.232394,-0.0996 0.03653,0.0365 0.126156,0.009 0.199193,-0.0664 0.07304,-0.073 0.102919,-0.16268 0.0664,-0.19919 -0.03654,-0.0366 0.0083,-0.14109 0.0996,-0.23239 0.0913,-0.0913 0.195877,-0.13612 0.232396,-0.0996 0.03653,0.0365 0.126156,0.009 0.199193,-0.0665 0.07303,-0.0731 0.102917,-0.16267 0.0664,-0.1992 -0.03654,-0.0365 0.0083,-0.14108 0.09959,-0.23239 0.103286,-0.10328 0.203619,-0.12838 0.265594,-0.0664 0.05534,0.0553 0.158616,0.0405 0.232392,-0.0331 0.07377,-0.0739 0.08854,-0.17708 0.03319,-0.2324 -0.05534,-0.0553 -0.04058,-0.15859 0.03319,-0.2324 0.103087,-0.10307 0.08854,-0.17705 -0.06505,-0.33061 -0.108821,-0.10884 -0.269911,-0.36605 -0.357983,-0.57163 l -0.160124,-0.37373 0.509126,-0.50561 c 0.50326,-0.49976 0.51607,-0.50599 1.10525,-0.54029 0.364012,-0.0211 0.652017,0.0213 0.739751,0.10897 0.313637,0.31363 0.688326,0.2892 0.543735,-0.0354 -0.04584,-0.10294 0.04781,-0.24699 0.370048,-0.56925 0.405275,-0.40528 0.462591,-0.43271 0.945518,-0.45299 0.282756,-0.0118 0.565724,0.0299 0.628821,0.0931 0.08089,0.0809 0.184482,0.0573 0.351323,-0.0802 0.208037,-0.17146 0.265156,-0.17146 0.473199,0 l 0.236595,0.19498 0.38356,-0.38356 c 0.210959,-0.21096 0.557455,-0.67697 0.76999,-1.03561 0.522696,-0.88192 0.964955,-1.3166 1.351848,-1.32869 0.250433,-0.009 0.28049,-0.0268 0.18814,-0.1192 -0.153352,-0.15335 0.08733,-0.51803 0.413087,-0.62586 0.146846,-0.0487 0.30032,-0.0999 0.341054,-0.11396 0.04072,-0.014 0.03285,-0.0667 -0.01751,-0.1171 -0.139758,-0.13977 0.282514,-0.574 0.558187,-0.574 0.196779,1e-5 0.225296,-0.0235 0.207229,-0.17073 -0.03047,-0.24835 0.269101,-0.59384 0.446413,-0.51485 0.173281,0.0772 0.365138,-0.085 0.243939,-0.20616 -0.125733,-0.12574 0.253327,-0.53208 0.425011,-0.45562 0.152098,0.0677 0.336333,-0.062 0.275393,-0.19408 -0.03928,-0.085 0.132531,-0.31812 0.448909,-0.60898 0.153506,-0.14112 0.209335,-0.13715 0.354719,0.0254 0.09491,0.10595 0.185801,0.25162 0.202013,0.32375 0.01622,0.0722 0.12582,0.15339 0.243553,0.1806 0.177748,0.0412 0.216151,0.091 0.226273,0.2939 0.01071,0.21517 0.02918,0.23686 0.153973,0.18129 0.182605,-0.0814 0.367857,0.10274 0.286821,0.2848 -0.0542,0.12167 -0.03385,0.13756 0.151496,0.11828 0.15593,-0.016 0.200832,0.01 0.16535,0.0958 -0.02679,0.065 -0.0046,0.12855 0.04956,0.14132 0.141266,0.0333 -4.61367,4.77254 -4.931667,4.91536 -0.137553,0.0618 -0.547371,0.37294 -0.910713,0.69148 -0.550033,0.48224 -0.644494,0.59531 -0.564287,0.67552 0.218418,0.21842 0.407063,0.10431 1.294218,-0.78284 0.514492,-0.51451 0.923737,-0.86865 0.986606,-0.85379 0.06695,0.0158 0.7287,-0.59593 1.756363,-1.62357 1.442353,-1.44238 1.667124,-1.64083 1.794257,-1.58421 0.225403,0.10037 1.176471,1.08149 1.287008,1.32765 l 0.09883,0.22007 -2.489577,2.57863 c -2.603465,2.69663 -2.667284,2.77851 -2.385234,3.06056 0.06007,0.0602 0.04801,0.16067 -0.02843,0.23713 -0.07303,0.0731 -0.176192,0.0893 -0.229227,0.0362 -0.07191,-0.072 -0.206965,0.01 -0.531183,0.2988 -0.390492,0.35495 -0.452128,0.38218 -0.605368,0.26703 -0.368233,-0.27663 -0.246694,0.009 0.278247,0.64586 l 0.550871,0.67202 -0.420222,0.44294 c -0.253494,0.26719 -0.468937,0.43218 -0.543016,0.4157 -0.09016,-0.02 -0.136337,0.0304 -0.173715,0.18969 -0.06103,0.25998 -0.291882,0.51074 -0.384727,0.41791 -0.03654,-0.0365 -0.126154,-0.01 -0.199193,0.0664 -0.07303,0.073 -0.102916,0.16268 -0.0664,0.19918 0.03653,0.0365 -0.0083,0.14111 -0.0996,0.2324 -0.0913,0.0913 -0.195876,0.13612 -0.232394,0.0996 -0.03653,-0.0366 -0.126154,-0.01 -0.199192,0.0664 -0.07304,0.073 -0.102914,0.16267 -0.0664,0.19918 0.03654,0.0365 -0.0083,0.14111 -0.0996,0.23242 -0.0913,0.0913 -0.195871,0.1361 -0.232392,0.0996 -0.08637,-0.0864 -0.331775,0.15906 -0.298791,0.2988 0.033,0.13973 -0.212429,0.38513 -0.298789,0.29879 -0.03653,-0.0365 -0.124802,-0.009 -0.196186,0.0635 -0.09595,0.0959 -0.08019,0.20229 0.06048,0.40792 0.210627,0.3079 0.177043,0.54971 -0.117213,0.84399 -0.410581,0.41058 -0.673032,0.52254 -0.952983,0.40657 -0.227069,-0.0941 -0.754157,-0.10004 -1.269723,-0.0145 -0.06264,0.0104 -1.758292,1.67485 -3.768113,3.69876 -3.929783,3.95732 -4.218342,4.20816 -4.553185,3.9579 -0.1518,-0.11346 -0.206085,-0.0873 -0.563871,0.27035 -0.217746,0.21776 -0.547989,0.45835 -0.733869,0.53469 -0.454931,0.18677 -0.546778,0.29591 -0.385138,0.45754 0.116549,0.11653 0.09996,0.16116 -0.117034,0.31457 -1.142979,0.80804 -1.960607,1.49155 -2.856568,2.38797 -0.983426,0.98394 -1.055537,1.07594 -1.206854,1.53886 -0.08851,0.27079 -0.232325,0.56376 -0.319587,0.65102 -0.08758,0.0876 -0.111106,0.16988 -0.05252,0.18373 0.05838,0.0139 0.03541,0.22941 -0.05103,0.47924 -0.12717,0.36749 -0.184729,0.44768 -0.301585,0.42009 -0.10269,-0.0243 -0.09744,0.0591 0.0182,0.28876 0.08945,0.17758 0.17042,0.50712 0.179943,0.7323 0.0095,0.22522 0.07156,0.65404 0.137849,0.95292 0.06629,0.29888 0.11216,0.62607 0.101914,0.72703 -0.05243,0.51696 -2.207084,1.68402 -3.352616,1.81594 -0.28546,0.033 -0.285563,0.0331 -0.259786,0.42092 0.01419,0.21341 0.151155,0.69853 0.304383,1.07806 0.153221,0.37952 0.298084,0.80071 0.321915,0.93602 0.02383,0.13525 0.09228,0.29487 0.152087,0.35467 0.05982,0.0599 0.144132,0.29353 0.187366,0.51937 0.04323,0.22581 0.125532,0.45752 0.182876,0.51486 0.05734,0.0572 0.170571,0.31495 0.251608,0.57245 0.08105,0.25752 0.237892,0.66152 0.348557,0.89779 0.110664,0.23626 0.182662,0.44812 0.159996,0.4708 -0.06237,0.0624 0.297464,0.71077 0.508745,0.91669 0.102305,0.0997 0.303391,0.21329 0.44688,0.2524 0.338831,0.0924 0.552321,0.30374 0.531624,0.52642 -0.02351,0.25324 -0.363355,0.62627 -1.268553,1.39257 z m -14.93635,7.53673 c 0.07634,-0.34509 0.327537,-1.46833 0.558232,-2.49607 0.230692,-1.02778 0.496038,-2.21937 0.589655,-2.64801 0.09361,-0.42862 0.226379,-0.99889 0.295025,-1.26719 0.06864,-0.26833 0.08509,-0.5941 0.03654,-0.72393 -0.102636,-0.27443 -0.44168,-0.50596 -0.62282,-0.42526 -0.223995,0.0997 -5.3349757,5.75311 -5.402354,5.97564 -0.035119,0.11598 -0.022611,0.30047 0.027795,0.40996 0.1065813,0.23148 2.425993,2.39814 2.567229,2.39814 0.229034,0 1.625423,-0.40292 1.714011,-0.49458 0.05377,-0.0558 0.160362,-0.38364 0.236695,-0.7287 z M 28.425824,270.3108 c 0.09016,-0.4628 -0.0103,-0.79093 -0.34555,-1.12874 -0.277628,-0.27975 -0.863481,-0.46646 -1.171235,-0.37327 -0.246013,0.0744 -1.043651,0.87652 -1.270055,1.27706 -0.223239,0.39493 -0.175829,0.8212 0.138643,1.24665 0.447934,0.60597 0.550123,0.60204 1.73247,-0.0667 0.735783,-0.41614 0.829875,-0.51426 0.915733,-0.95503 z m -3.395282,0.79906 c -0.04372,0 -0.09854,0.0827 -0.121771,0.18374 -0.06579,0.28605 0.257204,0.60909 0.657412,0.65753 l 0.347276,0.042 -0.401706,-0.44162 c -0.22094,-0.24293 -0.43748,-0.44165 -0.481211,-0.44164 z m 3.711365,-4.05683 c -0.06068,-0.0606 -0.216586,0.32162 -0.200694,0.49212 0.01478,0.15879 0.03362,0.13727 0.121737,-0.13952 0.05732,-0.18005 0.09285,-0.33872 0.07894,-0.3526 z m 4.70974,-5.58196 c -0.05909,-0.0139 -0.152251,0.0194 -0.207032,0.0743 -0.05478,0.0546 -0.05124,0.11103 0.0078,0.12498 0.0591,0.0139 0.152255,-0.0196 0.207032,-0.0743 0.05478,-0.0546 0.05124,-0.11103 -0.0078,-0.12496 z"
       id="path825"       
       sodipodi:nodetypes="csscscccssscscccssccscsscscccscscscscccccssssssssssssssssssssssssscscccsscsssssssscscsccsssssssssssssssssssssssccssssssssssssssssscccsscscscccsccsccscccsccccccccccccccsscsccccssscccccccssssssssscsscsccscscscccscccccccccccscsccsccccccccccccccccccccscccsccccsccccccscsc" />
  </g>
</svg>
