<?xml version="1.0" encoding="UTF-8" standalone="no"?>
<!-- Created with Inkscape (http://www.inkscape.org/) -->

<svg
   xmlns:dc="http://purl.org/dc/elements/1.1/"
   xmlns:cc="http://creativecommons.org/ns#"
   xmlns:rdf="http://www.w3.org/1999/02/22-rdf-syntax-ns#"
   xmlns:svg="http://www.w3.org/2000/svg"
   xmlns="http://www.w3.org/2000/svg"
   xmlns:sodipodi="http://sodipodi.sourceforge.net/DTD/sodipodi-0.dtd"
   width="220"
   height="235"
   viewBox="0 0 58.208332 62.177085"
   version="1.1"
   id="svg8"
   sodipodi:docname="flashlight.svg">
  <defs
     id="defs2" />
  <sodipodi:namedview
     id="base"
     pagecolor="#000000"
     bordercolor="#666666"
     borderopacity="1.0"
     showgrid="false"
     fit-margin-top="0"
     fit-margin-left="0"
     fit-margin-right="0"
     fit-margin-bottom="0"
     units="px" />
  <metadata
     id="metadata5">
    <rdf:RDF>
      <cc:Work
         rdf:about="">
        <dc:format>image/svg+xml</dc:format>
        <dc:type
           rdf:resource="http://purl.org/dc/dcmitype/StillImage" />
        <dc:title />
      </cc:Work>
    </rdf:RDF>
  </metadata>
  <g
     id="layer1"
     transform="translate(0.1032419,-276.41944)">
    <path
       style="fill:none;stroke:#ffffff;stroke-width:0.47965378;stroke-miterlimit:4;stroke-dasharray:none;stroke-opacity:1"
       d="m 26.454261,324.70976 c 2.423548,-3.64048 5.36576,-7.75749 6.53247,-9.1408 0.778841,-0.92356 0.824347,-0.94734 2.544325,-1.3285 0.5356,-0.11867 1.085496,-0.27599 1.22201,-0.34951 0.294588,-0.15869 0.333164,-0.62727 0.0735,-0.89313 -0.190042,-0.19458 -0.877183,-0.45412 -1.276022,-0.48195 -0.207769,-0.0146 -0.310205,-0.13069 -0.607331,-0.68883 -0.439927,-0.82644 -0.28462,-1.13273 0.342782,-0.67604 0.469809,0.34199 0.779462,0.34968 1.014565,0.0253 0.125709,-0.17332 0.09369,-0.36343 -0.131692,-0.78314 -0.173662,-0.3234 -0.245694,-0.60737 -0.172956,-0.68184 0.07322,-0.0749 0.346631,-4.7e-4 0.662568,0.18054 0.486696,0.27881 0.562851,0.28261 0.799865,0.0399 0.236256,-0.24189 0.232931,-0.32343 -0.03387,-0.83096 -0.374632,-0.71266 -0.167805,-0.90331 0.517137,-0.47664 0.463513,0.28874 0.511753,0.28891 0.791172,0.002 0.283984,-0.29077 0.282206,-0.33254 -0.03944,-0.91569 -0.185342,-0.33605 -0.285871,-0.63717 -0.223385,-0.66916 0.06245,-0.032 0.376366,0.0769 0.697499,0.2419 0.486669,0.25011 0.627883,0.26436 0.848149,0.0855 0.287831,-0.23361 0.248808,-0.58716 -0.129679,-1.17552 -0.237624,-0.36938 -0.148277,-0.70345 0.115805,-0.43306 0.26325,0.26954 0.986256,0.43296 1.243589,0.28111 0.347992,-0.2053 1.19156,-1.10486 1.238811,-1.32089 0.02322,-0.10617 -0.162539,-0.45085 -0.412746,-0.766 -0.482153,-0.60727 -0.490153,-0.79975 -0.04462,-1.07286 0.222218,-0.13624 0.344294,-0.0966 0.786435,0.25558 0.287861,0.22926 0.613864,0.43871 0.724436,0.46545 0.17243,0.0416 1.030252,-0.83241 6.02774,-6.14195 3.204633,-3.40483 5.880996,-6.31437 5.947388,-6.46572 0.134783,-0.30737 -0.09882,-1.01476 -0.377018,-1.14162 -0.108529,-0.0495 -0.38096,0.0748 -0.683557,0.31211 -0.276702,0.21689 -0.58496,0.3866 -0.685065,0.37708 -0.109607,-0.0109 -0.416113,-0.3172 -0.770174,-0.77076 -0.323491,-0.4144 -1.30433,-1.54554 -2.179637,-2.51363 -0.990092,-1.09505 -1.584288,-1.82854 -1.572471,-1.94109 0.01043,-0.0995 0.162275,-0.44107 0.337396,-0.75902 0.45648,-0.82882 0.357947,-1.04036 -1.046338,-2.24638 -1.286691,-1.10505 -2.524717,-1.9683 -3.145894,-2.1936 -0.398486,-0.14451 -0.468181,-0.12097 -1.007827,0.33963 -0.345002,0.29455 -0.740731,0.52083 -0.977393,0.559 -0.372789,0.0601 -0.622658,0.29175 -3.995401,3.70391 -4.506762,4.55925 -7.062985,7.34071 -7.062976,7.68486 0,0.13574 0.191271,0.49855 0.425039,0.80624 0.420494,0.55347 0.421868,0.56271 0.127835,0.86377 -0.237251,0.24292 -0.3455,0.27172 -0.536725,0.14267 -0.131721,-0.0889 -0.431876,-0.29015 -0.666995,-0.44724 l -0.427485,-0.28559 -0.671403,0.63406 c -0.783509,0.73992 -0.828932,0.91032 -0.426276,1.60011 0.407475,0.698 0.202682,0.80197 -0.706049,0.35841 -0.800855,-0.3909 -1.043125,0.0288 -0.527028,0.91282 0.369766,0.63342 0.153042,0.82476 -0.555645,0.49065 -0.718131,-0.33859 -0.942394,-0.32157 -0.942391,0.0715 -1e-6,0.17193 0.10636,0.50644 0.236351,0.74336 0.349983,0.63783 0.124833,0.83576 -0.574565,0.50505 -0.319187,-0.15092 -0.637961,-0.2791 -0.708399,-0.28483 -0.351577,-0.0286 -0.277634,0.80104 0.106455,1.19428 0.08891,0.0911 0.152109,0.27056 0.140456,0.39895 -0.02484,0.27358 -0.135272,0.26583 -0.89454,-0.0626 -0.377674,-0.1634 -0.547389,-0.16551 -0.700514,-0.008 -0.165011,0.16896 -0.146679,0.31612 0.09976,0.80198 0.177533,0.34998 0.249683,0.64848 0.175195,0.72474 -0.07278,0.0745 -0.379386,0.004 -0.720727,-0.16618 -0.476239,-0.23717 -0.633516,-0.25548 -0.792922,-0.0923 -0.159723,0.16355 -0.14175,0.32084 0.09137,0.79948 0.440498,0.90445 0.234987,1.04567 -0.772469,0.53077 l -0.530116,-0.27094 -0.698701,0.66236 c -0.797172,0.75597 -0.795404,0.69136 -0.04523,1.65 l 0.503932,0.64397 -0.438096,0.50947 c -0.26384,0.30687 -0.532919,0.51854 -0.676609,0.53215 -0.185917,0.0178 -1.435736,1.27737 -5.669414,5.71413 -3.084465,3.23256 -5.432109,5.76443 -5.433692,5.86039 -0.0015,0.0928 -0.1855586,0.3561 -0.4089643,0.58483 l -0.4061942,0.41589 -0.6356206,-0.42798 c -0.8845018,-0.59555 -1.0651391,-0.54304 -2.2282319,0.64782 -0.6095005,0.62405 -0.9482274,1.04963 -0.973478,1.22276 -0.021301,0.14604 0.1101929,0.56068 0.2921338,0.92134 l 0.3307953,0.65574 -1.3644198,1.39708 -1.3644198,1.39709 0.092606,0.4913 c 0.146032,0.77472 2.5678547,4.10813 2.8068742,3.86341 0.055768,-0.0572 0.2814931,0.1002 0.5517667,0.38441 0.3554606,0.37371 0.3993534,0.45978 0.1971251,0.38585 -0.3202671,-0.1171 1.7601225,1.87321 2.9215609,2.79509 0.9030696,0.71678 1.7874346,1.20669 2.1210076,1.17494 0.240756,-0.0229 2.345137,-2.12101 2.779659,-2.77136 0.22402,-0.33524 0.255723,-0.34006 0.669245,-0.10071 0.238747,0.1382 0.513957,0.33222 0.611592,0.43117 0.197258,0.19991 1.28018,0.28318 1.322042,0.10173 0.01457,-0.0634 0.100918,-0.004 0.191729,0.13364 0.231599,0.34922 0.647253,0.31137 1.203433,-0.10957 0.408257,-0.30904 0.468899,-0.40596 0.43852,-0.70176 -0.01939,-0.18875 0.01436,-0.34322 0.07498,-0.34323 0.06066,3e-5 0.04926,-0.0623 -0.02541,-0.13888 -0.15863,-0.16241 0.273241,-0.83088 1.103892,-1.70865 0.490889,-0.51805 0.66278,-0.60927 1.922971,-1.01473 2.506702,-0.80654 2.851282,-1.05208 4.092387,-2.91639 z"
       id="path2591"
       sodipodi:nodetypes="csccscccccscsscscsccssccscccscccccsccsccsccssccccccsccsccsccscscsssccscccscsccsscccccsccscccccscccscscc" />
  </g>
</svg>
