<?xml version="1.0" encoding="UTF-8" standalone="no"?>
<!-- Created with Inkscape (http://www.inkscape.org/) -->

<svg
   xmlns:dc="http://purl.org/dc/elements/1.1/"
   xmlns:cc="http://creativecommons.org/ns#"
   xmlns:rdf="http://www.w3.org/1999/02/22-rdf-syntax-ns#"
   xmlns:svg="http://www.w3.org/2000/svg"
   xmlns="http://www.w3.org/2000/svg"
   xmlns:sodipodi="http://sodipodi.sourceforge.net/DTD/sodipodi-0.dtd"   
   width="220"
   height="79"
   viewBox="0 0 58.208336 20.902083"
   version="1.1"
   id="svg8"   
   sodipodi:docname="flashlight.svg" >
  <defs
     id="defs2" />
  <sodipodi:namedview
     id="base"
     pagecolor="#000000"
     bordercolor="#666666"
     borderopacity="1.0"
     showgrid="false"
     fit-margin-top="0"
     fit-margin-left="0"
     fit-margin-right="0"
     fit-margin-bottom="0"
     units="px" />
  <metadata
     id="metadata5">
    <rdf:RDF>
      <cc:Work
         rdf:about="">
        <dc:format>image/svg+xml</dc:format>
        <dc:type
           rdf:resource="http://purl.org/dc/dcmitype/StillImage" />
        <dc:title />
      </cc:Work>
    </rdf:RDF>
  </metadata>
  <g id="layer1"
     transform="translate(0.1032419,-276.41944)">
    <path
       style="fill:none;stroke:#ffffff;stroke-width:0.40000001;stroke-miterlimit:4;stroke-dasharray:none;stroke-opacity:1"
       d="m 17.547663,295.13271 c 3.567631,-0.67548 7.722441,-1.31919 9.22474,-1.42919 1.002933,-0.0735 1.043938,-0.0602 2.292341,0.74394 0.388759,0.2504 0.808532,0.48685 0.932831,0.52546 0.268247,0.0833 0.564341,-0.16676 0.564341,-0.47663 0,-0.22679 -0.258751,-0.78804 -0.480508,-1.04224 -0.115522,-0.13242 -0.108935,-0.26125 0.03905,-0.76381 0.219121,-0.74411 0.490288,-0.82994 0.598499,-0.18944 0.08103,0.47962 0.261306,0.66887 0.590667,0.62007 0.176016,-0.026 0.267701,-0.15589 0.377814,-0.53497 0.08484,-0.29208 0.207349,-0.50055 0.294151,-0.50055 0.08737,0 0.207095,0.20656 0.290129,0.50055 0.127912,0.45289 0.17114,0.50054 0.453983,0.50054 0.281937,0 0.327469,-0.0495 0.464052,-0.50447 0.191781,-0.63885 0.426288,-0.62654 0.586329,0.0308 0.108304,0.44483 0.136991,0.47371 0.470437,0.47371 0.338894,0 0.362171,-0.0254 0.510095,-0.55716 0.08525,-0.30643 0.200753,-0.5419 0.256681,-0.52326 0.05593,0.0186 0.179769,0.26937 0.275205,0.55716 0.144628,0.43614 0.220585,0.5287 0.456221,0.55592 0.307884,0.0356 0.490627,-0.19371 0.607677,-0.76243 0.07348,-0.35705 0.321473,-0.49842 0.321473,-0.18327 0,0.31415 0.336162,0.84079 0.578201,0.90584 0.327279,0.088 1.354852,0.0671 1.50894,-0.0306 0.0757,-0.048 0.165755,-0.35972 0.200119,-0.69267 0.06621,-0.64159 0.173603,-0.75853 0.598611,-0.65185 0.211985,0.0532 0.261702,0.14916 0.320305,0.61819 0.03815,0.30537 0.110606,0.62195 0.161008,0.7035 0.0786,0.12717 1.099825,0.12963 7.175929,0.0173 3.896361,-0.0721 7.18887,-0.17076 7.31669,-0.21935 0.259542,-0.0987 0.5324,-0.65033 0.440333,-0.89025 -0.03592,-0.0936 -0.27093,-0.18369 -0.589745,-0.22598 -0.291504,-0.0387 -0.574335,-0.12373 -0.628515,-0.18901 -0.0593,-0.0715 -0.06343,-0.43314 -0.01037,-0.90872 0.04848,-0.43452 0.122421,-1.67895 0.164321,-2.7654 0.0474,-1.22893 0.120303,-2.01092 0.192944,-2.06946 0.06422,-0.0518 0.353863,-0.16021 0.643653,-0.24102 0.755373,-0.21063 0.819858,-0.3927 0.684789,-1.93344 -0.123758,-1.41172 -0.359381,-2.6535 -0.598736,-3.15543 -0.153545,-0.32199 -0.208815,-0.34989 -0.799264,-0.40343 -0.377509,-0.0342 -0.745503,-0.13845 -0.908957,-0.25742 -0.257469,-0.1874 -0.54155,-0.2015 -4.542477,-0.22545 -5.346064,-0.0321 -8.492243,0.0636 -8.692803,0.26417 -0.0791,0.0791 -0.176405,0.40466 -0.216238,0.72346 -0.07165,0.57345 -0.07621,0.57965 -0.427097,0.57965 -0.283124,0 -0.364503,-0.0478 -0.403393,-0.23711 -0.02679,-0.1304 -0.0886,-0.42678 -0.137352,-0.65861 l -0.08863,-0.42151 -0.770121,-0.0311 c -0.898705,-0.0363 -1.025111,0.0359 -1.186839,0.67814 -0.163647,0.64991 -0.346428,0.5883 -0.630156,-0.21241 -0.250052,-0.70565 -0.639148,-0.60567 -0.846422,0.21749 -0.148507,0.58977 -0.389336,0.57197 -0.61748,-0.0456 -0.231174,-0.62581 -0.37491,-0.7497 -0.604017,-0.52059 -0.100202,0.1002 -0.231682,0.3586 -0.29218,0.57423 -0.162885,0.58054 -0.412569,0.56154 -0.637158,-0.0485 -0.102493,-0.27841 -0.218004,-0.54331 -0.256692,-0.58868 -0.193106,-0.22645 -0.632475,0.30116 -0.632475,0.75951 0,0.10609 -0.06691,0.24843 -0.148686,0.3163 -0.174259,0.14461 -0.235629,0.0742 -0.497254,-0.57025 -0.130128,-0.32057 -0.230168,-0.42306 -0.4129,-0.42306 -0.196918,0 -0.271741,0.0967 -0.407846,0.52689 -0.09803,0.30989 -0.228931,0.52689 -0.317821,0.52689 -0.08684,0 -0.22859,-0.22415 -0.333192,-0.52689 -0.145942,-0.42238 -0.229119,-0.52689 -0.419347,-0.52689 -0.190605,0 -0.271548,0.10239 -0.41139,0.52042 -0.26425,0.78992 -0.469168,0.74959 -0.770228,-0.1516 l -0.158416,-0.4742 -0.802898,-0.0309 c -0.916209,-0.0351 -0.877499,-0.0717 -0.988555,0.93458 l -0.0746,0.67597 -0.558304,0.0355 c -0.336254,0.0214 -0.620162,-0.0158 -0.713835,-0.0936 -0.121244,-0.10062 -1.601081,-0.11226 -6.712818,-0.0528 -3.724259,0.0434 -6.600537,0.11811 -6.657395,0.17308 -0.05506,0.0532 -0.31824,0.0968 -0.584843,0.0968 h -0.484733 l -0.12985,-0.62867 c -0.180694,-0.87483 -0.319079,-0.95201 -1.7070601,-0.95201 -0.72735,0 -1.177471,0.0459 -1.293434,0.13173 -0.09782,0.0724 -0.261001,0.3925 -0.362621,0.71124 l -0.184764,0.57952 -1.628296,6e-5 -1.628296,6e-5 -0.231059,0.34157 c -0.364342,0.53861 -0.8619,3.92626 -0.576665,3.92626 0.06655,0 0.109591,0.22633 0.105213,0.55324 -0.0057,0.42989 -0.02967,0.50624 -0.10724,0.34248 -0.122852,-0.25934 -0.04143,2.14188 0.114338,3.37212 0.12112,0.95656 0.363301,1.76974 0.580831,1.95028 0.157008,0.1303 2.635351,0.16323 3.273619,0.0435 0.329035,-0.0617 0.350768,-0.0456 0.458006,0.34064 0.06192,0.22299 0.113062,0.50027 0.113654,0.61619 0.0012,0.2342 0.598831,0.92888 0.729596,0.84807 0.0457,-0.0283 0.06213,0.0583 0.03652,0.19228 -0.06532,0.3417 0.204742,0.56766 0.781922,0.6542 0.423696,0.0635 0.516363,0.0432 0.67062,-0.14731 0.09844,-0.12157 0.208586,-0.19145 0.244761,-0.15528 0.03618,0.0362 0.06577,-0.007 0.06577,-0.0961 0,-0.1893 0.647244,-0.32117 1.654414,-0.33708 0.594804,-0.009 0.750532,0.0404 1.738747,0.55604 1.965713,1.02567 2.31441,1.08818 4.141407,0.74226 z"
       id="path2591"       
       sodipodi:nodetypes="csccscccccscsscscsccssccscccscccccsccsccsccssccccccsccsccsccscscsssccscccscsccsscccccsccscccccscccscscc" />
  </g>
</svg>
