<?xml version="1.0" encoding="UTF-8" standalone="no"?>
<!-- Created with Inkscape (http://www.inkscape.org/) -->

<svg
   xmlns:dc="http://purl.org/dc/elements/1.1/"
   xmlns:cc="http://creativecommons.org/ns#"
   xmlns:rdf="http://www.w3.org/1999/02/22-rdf-syntax-ns#"
   xmlns:svg="http://www.w3.org/2000/svg"
   xmlns="http://www.w3.org/2000/svg"
   xmlns:sodipodi="http://sodipodi.sourceforge.net/DTD/sodipodi-0.dtd"   
   width="220"
   height="79"
   viewBox="0 0 58.208336 20.902083"
   version="1.1"
   id="svg8"   
   sodipodi:docname="peqbox.svg" >
  <defs
     id="defs2" />
  <sodipodi:namedview
     id="base"
     pagecolor="#000000"
     bordercolor="#666666"
     borderopacity="1.0"
     showgrid="false"
     fit-margin-top="0"
     fit-margin-left="0"
     fit-margin-right="0"
     fit-margin-bottom="0"
     units="px" />
  <metadata
     id="metadata5">
    <rdf:RDF>
      <cc:Work
         rdf:about="">
        <dc:format>image/svg+xml</dc:format>
        <dc:type
           rdf:resource="http://purl.org/dc/dcmitype/StillImage" />
        <dc:title />
      </cc:Work>
    </rdf:RDF>
  </metadata>
  <g id="layer1"
     transform="translate(0.1032419,-276.41944)">
    <path
       style="fill:none;stroke:#ffffff;stroke-width:0.4;stroke-opacity:1;stroke-miterlimit:4;stroke-dasharray:none"
       d="m 29.556471,296.05948 c -0.175313,-0.18835 -0.305287,-0.21625 -1.11684,-0.23968 -6.515554,-0.18812 -8.266619,-0.25986 -8.710491,-0.35684 -0.129879,-0.0283 -0.213156,-0.11686 -0.213156,-0.22649 0,-0.45297 -0.06099,-0.47962 -1.09742,-0.47962 -0.914916,0 -0.991851,-0.0146 -1.119846,-0.21316 -0.311142,-0.48256 -0.451881,-2.31926 -0.25589,-3.33945 0.143457,-0.74674 0.774072,-2.92393 0.886161,-3.05948 0.07342,-0.0888 0.362726,-0.11561 1.047436,-0.0972 0.929452,0.025 0.947565,0.0213 1.035188,-0.20893 0.04906,-0.12889 0.07383,-0.94693 0.05506,-1.81785 -0.03195,-1.48306 -0.04725,-1.59572 -0.241077,-1.77631 -0.113827,-0.10604 -0.294675,-0.1928 -0.401885,-0.1928 -0.230864,0 -0.949778,0.21461 -0.949952,0.28358 -6.7e-5,0.0264 -0.615248,0.0613 -1.367071,0.0775 -1.096722,0.0238 -1.423509,2.8e-4 -1.653057,-0.11842 -0.15736,-0.0814 -0.476973,-0.14796 -0.710251,-0.14796 -0.342264,0 -0.460979,-0.0469 -0.614968,-0.24259 -0.360909,-0.45882 -0.574026,-2.27431 -0.392979,-3.34768 0.146357,-0.86771 0.326395,-1.098 0.842295,-1.07743 0.213824,0.009 0.506488,-0.0458 0.650366,-0.12095 0.185973,-0.097 0.597082,-0.13663 1.422114,-0.13705 0.638285,-3.2e-4 1.160519,-0.035 1.160519,-0.0772 0,-0.0955 0.862009,-0.0821 1.020471,0.0158 0.064,0.0395 0.116364,0.13336 0.116364,0.20844 0,0.0819 0.09336,0.13651 0.233573,0.13651 0.307526,0 0.808525,-0.49354 0.808525,-0.79648 0,-0.12894 0.05246,-0.26686 0.116571,-0.30648 0.06411,-0.0396 1.733028,-0.10388 3.708698,-0.14277 2.60706,-0.0514 3.880184,-0.11508 4.642552,-0.23248 0.91142,-0.14035 1.144634,-0.14549 1.762319,-0.0388 0.535855,0.0925 2.003017,0.11783 5.933197,0.10233 5.867019,-0.0231 5.341782,-0.094 5.341782,0.72042 0,0.32703 0.04993,0.46871 0.213156,0.60489 0.279033,0.23277 0.517206,0.23062 0.592102,-0.006 0.05476,-0.17254 0.143338,-0.18947 0.990978,-0.18947 1.05987,0 1.04585,-0.0109 1.04585,0.80624 0,0.32317 0.05126,0.5578 0.14163,0.64816 0.0779,0.0779 0.210337,0.45397 0.294313,0.8357 0.08398,0.38175 0.190227,0.75804 0.236111,0.8362 0.390062,0.66441 0.383647,0.61565 0.170895,1.29897 -0.110132,0.35371 -0.216393,0.69842 -0.236136,0.76603 -0.01974,0.0676 -0.159521,0.16601 -0.310618,0.21868 -0.19457,0.0678 -0.290982,0.17707 -0.330457,0.37446 l -0.05574,0.27868 h -0.997098 c -0.823153,0 -0.9971,-0.0248 -0.9971,-0.14211 0,-0.19236 -0.332492,-0.18002 -0.567334,0.021 -0.148833,0.12744 -0.190555,0.27939 -0.190555,0.694 0,0.62988 0.204246,0.88011 0.805258,0.98651 0.62518,0.11068 0.710521,0.24943 0.710521,1.15521 0,0.66425 -0.03027,0.82085 -0.189472,0.98005 -0.172845,0.17284 -0.189472,0.31578 -0.189472,1.62884 0,1.81645 -0.172245,4.07923 -0.317602,4.1723 -0.05979,0.0383 -0.247264,0.0702 -0.416604,0.071 -0.300929,0.002 -0.307892,0.011 -0.307892,0.42217 0,0.2314 -0.04126,0.44622 -0.09169,0.47739 -0.05043,0.0312 -2.251506,0.055 -4.891282,0.0529 -4.8535,-0.004 -5.532747,0.0382 -5.532747,0.34296 0,0.0942 -0.171009,0.1271 -0.659463,0.1271 -0.561945,0 -0.688803,-0.0315 -0.857867,-0.21315 z"
       id="path2604" 
     />    
  </g>
</svg>
