<?xml version="1.0" encoding="UTF-8" standalone="no"?>
<!-- Created with Inkscape (http://www.inkscape.org/) -->

<svg
   xmlns:dc="http://purl.org/dc/elements/1.1/"
   xmlns:cc="http://creativecommons.org/ns#"
   xmlns:rdf="http://www.w3.org/1999/02/22-rdf-syntax-ns#"
   xmlns:svg="http://www.w3.org/2000/svg"
   xmlns="http://www.w3.org/2000/svg"
   xmlns:sodipodi="http://sodipodi.sourceforge.net/DTD/sodipodi-0.dtd"
   xmlns:inkscape="http://www.inkscape.org/namespaces/inkscape"
   width="220"
   height="235"
   viewBox="0 0 58.208332 62.177085"
   version="1.1"
   id="svg8"
   inkscape:version="0.92.3 (2405546, 2018-03-11)"
   sodipodi:docname="pistol-torch.svg"
   inkscape:export-filename="D:\Projects\images\torch.png"
   inkscape:export-xdpi="96"
   inkscape:export-ydpi="96">
  <defs
     id="defs2" />
  <sodipodi:namedview
     id="base"
     pagecolor="#000000"
     bordercolor="#666666"
     borderopacity="1.0"
     inkscape:pageopacity="0"
     inkscape:pageshadow="2"
     inkscape:zoom="2.8284271"
     inkscape:cx="-190.25068"
     inkscape:cy="78.086488"
     inkscape:document-units="mm"
     inkscape:current-layer="layer1"
     showgrid="false"
     fit-margin-top="0"
     fit-margin-left="0"
     fit-margin-right="0"
     fit-margin-bottom="0"
     inkscape:window-width="3440"
     inkscape:window-height="1377"
     inkscape:window-x="-8"
     inkscape:window-y="-8"
     inkscape:window-maximized="1"
     units="px" />
  <metadata
     id="metadata5">
    <rdf:RDF>
      <cc:Work
         rdf:about="">
        <dc:format>image/svg+xml</dc:format>
        <dc:type
           rdf:resource="http://purl.org/dc/dcmitype/StillImage" />
        <dc:title />
      </cc:Work>
    </rdf:RDF>
  </metadata>
  <g
     inkscape:label="Layer 1"
     inkscape:groupmode="layer"
     id="layer1"
     transform="translate(0.1032419,-276.41944)">
    <path
       style="fill:none;stroke:#ffffff;stroke-width:0.55850363;stroke-miterlimit:4;stroke-dasharray:none;stroke-opacity:1"
       d="m 23.629897,328.87576 c -0.05303,-0.0126 -0.146767,0.0565 -0.214562,0.15831 -0.06633,0.0993 -0.161168,0.17103 -0.211728,0.159 -0.05083,-0.0126 -0.145661,0.0598 -0.21349,0.16135 -0.07442,0.11198 -0.143564,0.16133 -0.179735,0.12524 -0.03408,-0.034 -0.113543,0.0177 -0.194181,0.12568 -0.079,0.10624 -0.189623,0.17776 -0.261085,0.17181 -0.07456,-0.007 -0.171544,0.0588 -0.241176,0.1628 -0.110305,0.16538 -0.139837,0.16313 -0.569852,-0.0437 -0.249461,-0.11994 -0.523838,-0.24318 -0.609803,-0.27375 -0.142467,-0.0507 -0.143158,-0.0478 -0.007,0.0332 0.146259,0.0869 0.139763,0.0987 -0.296028,0.53439 -0.570218,0.57021 -0.694001,0.57749 -1.273491,0.074 l -0.40363,-0.35071 -0.263768,0.17708 c -0.298953,0.20062 -0.479197,0.20736 -0.68351,0.0254 -0.07731,-0.0694 -0.158087,-0.10891 -0.17888,-0.0882 -0.02081,0.0207 -0.161917,-0.0294 -0.313751,-0.11129 -0.151906,-0.0818 -0.335921,-0.14319 -0.408894,-0.13642 -0.110458,0.01 -0.09952,0.0272 0.06547,0.10138 0.109175,0.049 0.210732,0.10136 0.225658,0.11644 0.01491,0.015 -0.403778,0.44228 -0.930185,0.94993 -1.065819,1.02634 -1.218935,1.11271 -2.048008,1.15469 -0.533322,0.0271 -0.936094,-0.13027 -1.667592,-0.65132 -0.632201,-0.45033 -0.73201,-0.48165 -0.925996,-0.29049 -0.114354,0.11267 -0.822177,0.37129 -0.956104,0.34935 -0.04143,-0.007 -0.164487,0.0225 -0.273443,0.0648 l -0.198179,0.0774 -0.377123,-0.50627 c -1.0967835,-1.47212 -2.1346201,-2.41314 -2.6544626,-2.40688 -0.1542154,0.002 -0.3468111,-0.0152 -0.4278933,-0.0381 -0.1156103,-0.0328 -0.3024856,0.0779 -0.8656361,0.51133 -0.3950589,0.30403 -0.7833739,0.55498 -0.8629634,0.55758 -0.120902,0.005 -0.2200323,-0.0899 -0.604664,-0.57366 -0.2529756,-0.31814 -0.6590329,-0.80832 -0.9023184,-1.08931 -0.4499849,-0.51968 -0.6948902,-0.98909 -0.6671996,-1.27887 0.00838,-0.0882 -0.014102,-0.19026 -0.050265,-0.2264 -0.041469,-0.0414 -0.00698,-0.10512 0.093145,-0.17331 0.08721,-0.0594 0.4587408,-0.44295 0.8266579,-0.85134 l 0.6678963,-0.74352 -0.4968742,-0.89667 c -0.835552,-1.5079 -1.1262476,-2.57169 -0.9867613,-3.6111 0.1601439,-1.19334 0.4174912,-1.6265 1.8855334,-3.17345 l 1.1603136,-1.22251 -0.1419241,-0.43121 c -0.2568068,-0.78024 -0.1795909,-1.23528 0.3153537,-1.85841 l 0.2929519,-0.36859 -0.2448187,-0.0292 c -0.1345854,-0.016 -0.3746024,0.0179 -0.5331894,0.0755 -0.1586207,0.0575 -0.2533513,0.0658 -0.2106076,0.0182 0.042279,-0.0482 0.1410626,-0.0899 0.2182144,-0.0944 0.1169925,-0.007 0.1166015,-0.0112 -0.00279,-0.0287 -0.1573862,-0.0228 -0.8573281,0.19195 -0.9598415,0.29445 -0.035325,0.0354 -0.086107,0.0148 -0.113069,-0.0455 -0.031514,-0.0708 -0.056967,-0.0747 -0.072186,-0.01 -0.015624,0.0662 -0.042279,0.0581 -0.077339,-0.0218 -0.030424,-0.0682 -0.1080705,-0.11003 -0.1770443,-0.0965 -0.083105,0.0166 -0.064647,-0.0111 0.056269,-0.0873 0.195891,-0.12203 0.1506438,-0.26891 -0.04704,-0.15292 -0.087853,0.0515 -0.088955,0.0374 -0.00419,-0.0569 0.061589,-0.0696 0.094387,-0.14394 0.071614,-0.16679 -0.0228,-0.0228 0.015205,-0.10821 0.084446,-0.18988 0.068543,-0.0824 0.1358701,-0.19155 0.1483345,-0.24409 0.012566,-0.0525 0.087978,-0.17527 0.1679239,-0.2728 0.312413,-0.38073 0.7423085,-1.01176 0.7286642,-1.06963 -0.00838,-0.0335 0.081974,-0.16945 0.1998607,-0.30215 0.1780103,-0.20032 0.6077678,-0.96414 0.7943332,-1.41182 0.025733,-0.0617 0.063809,-0.14277 0.084613,-0.18017 0.020246,-0.0379 0.2009761,-0.35776 0.4003801,-0.71183 0.1993118,-0.35411 0.4446359,-0.79994 0.5449878,-0.99084 0.1002654,-0.1909 0.2131725,-0.38793 0.2506579,-0.43785 0.036722,-0.0505 0.1100251,-0.19178 0.1613978,-0.31522 0.051257,-0.12357 0.1128177,-0.25262 0.1366936,-0.28697 0.023191,-0.035 0.056145,-0.12134 0.071489,-0.19331 0.028218,-0.13167 1.9527976,-2.22888 2.9907006,-3.25866 0.307822,-0.30387 1.477522,-1.44593 2.60097,-2.5362 1.766293,-1.71437 2.09243,-2.0559 2.410637,-2.52597 0.242534,-0.35823 0.494518,-0.64792 0.739123,-0.84969 0.204014,-0.16847 0.984855,-0.89263 1.734909,-1.60952 1.124087,-1.07433 1.420637,-1.38944 1.686329,-1.79395 0.409471,-0.62297 0.874562,-1.08841 1.349805,-1.35059 0.205258,-0.11325 0.621386,-0.37453 0.924732,-0.5805 l 0.551509,-0.3746 1.841314,0.30965 c 1.012751,0.17033 2.120168,0.34308 2.460968,0.38395 0.452201,0.0541 0.675107,0.123 0.824946,0.25467 0.112958,0.0991 0.264283,0.23149 0.336206,0.29415 0.07228,0.0624 0.14005,0.0751 0.151157,0.0279 0.01116,-0.0471 0.04495,-0.0607 0.07624,-0.0296 0.0309,0.0308 0.03238,0.0801 0.0028,0.10918 -0.03296,0.0329 0.242205,0.34688 0.729924,0.83241 l 0.783148,0.77921 0.498284,-0.11296 c 0.637918,-0.14454 1.152954,-0.47341 1.442511,-0.92105 0.322339,-0.49849 0.36081,-0.7539 0.163111,-1.08467 -0.105557,-0.17665 -0.149675,-0.35293 -0.11603,-0.46385 0.04048,-0.13347 1.226346,-1.35034 4.665194,-4.78761 4.040199,-4.03626 4.701091,-4.67621 5.336067,-5.1544 0.43139,-0.32495 0.792754,-0.54921 0.892428,-0.55419 3.129536,-0.21861 -0.277531,-1.65462 9.674791,8.24247 0.304643,0.13027 1.912747,2.33589 2.167537,2.97298 0.133482,0.33377 0.131109,0.34557 -0.162932,0.81643 -0.164067,0.26279 -0.401331,0.59069 -0.52721,0.72868 -0.124965,0.13878 -0.238229,0.28779 -0.249627,0.33296 -0.01116,0.0451 -0.657734,0.72387 -1.436094,1.50855 -0.777551,0.78545 -1.424562,1.46624 -1.436025,1.51462 -0.01257,0.0557 -0.05014,0.0324 -0.0976,-0.0602 -0.06685,-0.12888 -0.09774,-0.12735 -0.236586,0.0112 -0.126362,0.12636 -1.495336,1.06279 -2.245482,1.536 -0.115765,0.0731 -0.106381,0.13558 0.06646,0.43717 0.145784,0.25438 0.180716,0.39715 0.125942,0.51542 -0.06967,0.15085 -0.08588,0.14907 -0.205339,-0.0215 l -0.129559,-0.18508 -0.450915,0.45089 c -0.309272,0.30927 -0.431472,0.47036 -0.388906,0.5129 0.142318,0.14234 0.08238,0.40545 -0.123847,0.54351 -0.11152,0.075 -0.76906,0.70191 -1.460852,1.3937 l -1.257788,1.25778 -0.190292,-0.18043 c -0.164593,-0.15472 -0.177813,-0.15728 -0.098,-0.0158 0.110862,0.19693 0.05907,0.33926 -0.09803,0.26924 -0.07386,-0.0328 -0.08256,-0.0807 -0.02485,-0.13865 0.06046,-0.0605 -0.03367,-0.0828 -0.299623,-0.0711 -0.213252,0.01 -0.422033,0.0514 -0.463979,0.0933 -0.04203,0.0419 -0.144164,0.0967 -0.227141,0.12189 -0.289906,0.0878 -0.572374,0.35363 -0.959909,0.90363 -0.357474,0.50715 -0.445293,0.76429 -0.308107,0.90148 0.07621,0.0762 -0.400635,0.60864 -2.243219,2.50513 -1.86346,1.91817 -1.897387,1.94953 -1.966934,1.81548 -0.03881,-0.075 -0.107792,-0.12762 -0.153536,-0.11658 -0.04568,0.0112 -0.04857,0.0859 -0.007,0.16707 0.0835,0.1611 0.08014,0.16424 -0.607243,0.55511 -0.356847,0.20303 -0.744045,0.57226 -3.252174,3.10311 -1.565035,1.58083 -4.699205,4.72644 -6.962848,6.99225 -2.262745,2.2667 -4.100213,4.13517 -4.08117,4.15424 0.01898,0.0191 -0.01422,0.13584 -0.07413,0.25955 -0.132352,0.27432 -0.132938,0.2749 -0.199011,0.20887 -0.02922,-0.0291 -0.01984,-0.0862 0.02071,-0.12677 0.04049,-0.0406 0.05154,-0.12385 0.02402,-0.18535 -0.03897,-0.0874 -0.05905,-0.0805 -0.09301,0.0314 -0.133761,0.4417 0.01425,1.35533 0.291006,1.79682 0.109885,0.17523 0.228382,0.40905 0.263435,0.51966 0.03505,0.11072 0.176587,0.42189 0.314504,0.69176 0.13795,0.26985 0.257002,0.54401 0.264611,0.60924 0.01701,0.14651 -0.09411,0.26571 -0.219208,0.23699 z"
       id="path2578"
       inkscape:connector-curvature="0"
       sodipodi:nodetypes="ccccsccccccsscccscsssccsccccssccccccscccscscscccccccscccccccscccccccssccccccccscccccccccssccccsccccccccccccscccccsscsccccscscsssccccccccssccccsccc" />
  </g>
</svg>
