<?xml version="1.0" encoding="UTF-8" standalone="no"?>
<!-- Created with Inkscape (http://www.inkscape.org/) -->

<svg
   xmlns:dc="http://purl.org/dc/elements/1.1/"
   xmlns:cc="http://creativecommons.org/ns#"
   xmlns:rdf="http://www.w3.org/1999/02/22-rdf-syntax-ns#"
   xmlns:svg="http://www.w3.org/2000/svg"
   xmlns="http://www.w3.org/2000/svg"
   xmlns:sodipodi="http://sodipodi.sourceforge.net/DTD/sodipodi-0.dtd"   
   width="220"
   height="79"
   viewBox="0 0 58.208336 20.902083"
   version="1.1"
   id="svg8"
   sodipodi:docname="torch.svg" >
  <defs
     id="defs2" />
  <sodipodi:namedview
     id="base"
     pagecolor="#000000"
     bordercolor="#666666"
     borderopacity="1.0"
     showgrid="false"
     fit-margin-top="0"
     fit-margin-left="0"
     fit-margin-right="0"
     fit-margin-bottom="0"
     units="px" />
  <metadata
     id="metadata5">
    <rdf:RDF>
      <cc:Work
         rdf:about="">
        <dc:format>image/svg+xml</dc:format>
        <dc:type
           rdf:resource="http://purl.org/dc/dcmitype/StillImage" />
        <dc:title />
      </cc:Work>
    </rdf:RDF>
  </metadata>
  <g id="layer1"
     transform="translate(0.1032419,-276.41944)">
    <path
       style="fill:none;stroke:#ffffff;stroke-width:0.4;stroke-opacity:1;stroke-miterlimit:4;stroke-dasharray:none"
       d="m 17.135555,296.82435 c -0.02059,-0.0332 -0.102901,-0.0457 -0.188831,-0.0285 -0.08391,0.0167 -0.168243,0.005 -0.187747,-0.0267 -0.01966,-0.0318 -0.10406,-0.0435 -0.189825,-0.0264 -0.09447,0.0189 -0.15442,0.009 -0.15442,-0.0276 0,-0.0345 -0.0664,-0.0486 -0.161943,-0.0347 -0.09379,0.0138 -0.186058,-0.006 -0.219246,-0.0452 -0.03421,-0.0413 -0.116672,-0.0571 -0.204572,-0.0397 -0.139655,0.0279 -0.15343,0.0118 -0.26645,-0.31072 -0.06555,-0.18709 -0.142133,-0.38844 -0.170186,-0.44745 -0.04651,-0.0978 -0.04831,-0.0967 -0.02029,0.0134 0.03004,0.11803 0.02078,0.12069 -0.420537,0.12069 -0.577555,0 -0.643951,-0.059 -0.68245,-0.60742 l -0.02681,-0.38202 -0.223253,-0.0439 c -0.253005,-0.0498 -0.347703,-0.13768 -0.358997,-0.33331 -0.0042,-0.0743 -0.02494,-0.13524 -0.04588,-0.13526 -0.02095,-2e-5 -0.06709,-0.0969 -0.102556,-0.21524 -0.03546,-0.11836 -0.09755,-0.24264 -0.137966,-0.27619 -0.06111,-0.0507 -0.06417,-0.0366 -0.01814,0.0845 0.03045,0.0801 0.05534,0.15804 0.05534,0.17327 0,0.0152 -0.428464,0.0195 -0.952142,0.01 -1.059532,-0.02 -1.180814,-0.0538 -1.621946,-0.45238 -0.283797,-0.2564 -0.408094,-0.54003 -0.514662,-1.17439 -0.0921,-0.54822 -0.126784,-0.61463 -0.321821,-0.61606 -0.1149813,-8.1e-4 -0.6044377,-0.22834 -0.6611401,-0.30728 -0.017535,-0.0245 -0.09466,-0.0719 -0.1713854,-0.10555 l -0.1395011,-0.0612 0.06536,-0.44736 c 0.1900788,-1.30098 0.1410587,-2.30312 -0.1253807,-2.56322 -0.079065,-0.0772 -0.1678891,-0.18337 -0.1973919,-0.236 -0.042062,-0.0751 -0.1926295,-0.11375 -0.6973435,-0.17943 -0.354036,-0.0461 -0.6777639,-0.11567 -0.7193988,-0.15465 -0.063304,-0.0592 -0.06587,-0.15698 -0.015672,-0.59674 0.033012,-0.28923 0.075641,-0.74311 0.094722,-1.00863 0.035287,-0.49106 0.1489943,-0.85281 0.3097776,-0.98554 0.049048,-0.0404 0.089179,-0.10352 0.089179,-0.14008 0,-0.042 0.049518,-0.057 0.1349888,-0.0406 0.074241,0.0142 0.4566444,0.008 0.8497807,-0.0125 l 0.7147934,-0.0383 0.2024668,-0.70572 c 0.3404882,-1.18679 0.7320012,-1.87274 1.3290372,-2.32849 0.685443,-0.52324 1.03515,-0.61228 2.562028,-0.65224 l 1.206722,-0.0315 0.146508,-0.29027 c 0.265089,-0.52521 0.534639,-0.71655 1.100868,-0.78147 l 0.335033,-0.0383 -0.109188,-0.1388 c -0.06005,-0.0763 -0.198747,-0.18066 -0.308211,-0.23181 -0.109465,-0.0512 -0.16161,-0.095 -0.115881,-0.0974 0.04573,-0.003 0.116983,0.0259 0.158339,0.0627 0.06269,0.0559 0.06485,0.0533 0.01299,-0.0161 -0.0682,-0.0912 -0.531387,-0.33696 -0.635215,-0.33696 -0.03574,0 -0.05111,-0.0361 -0.03416,-0.0803 0.0199,-0.0518 0.0088,-0.0668 -0.03132,-0.0419 -0.04141,0.0256 -0.05079,0.008 -0.02813,-0.0502 0.01917,-0.05 0.0013,-0.11041 -0.04085,-0.13851 -0.0505,-0.0336 -0.02685,-0.0387 0.07265,-0.0157 0.161014,0.0374 0.21248,-0.0599 0.05363,-0.10131 -0.07063,-0.0184 -0.064,-0.0261 0.02682,-0.0308 0.06638,-0.004 0.120693,-0.0251 0.120693,-0.0482 0,-0.023 0.0625,-0.0471 0.138896,-0.0534 0.0764,-0.007 0.165822,-0.0282 0.198731,-0.0485 0.0329,-0.0203 0.133342,-0.0442 0.223185,-0.0531 0.35104,-0.0346 0.888322,-0.13646 0.910705,-0.17268 0.01297,-0.021 0.127367,-0.0443 0.254227,-0.0518 0.191606,-0.0113 0.796077,-0.18048 1.117271,-0.3127 0.04426,-0.0182 0.1046,-0.04 0.134103,-0.0484 0.0295,-0.009 0.282959,-0.0794 0.563239,-0.15772 0.280278,-0.0784 0.630291,-0.17995 0.777805,-0.22581 0.147515,-0.0459 0.304417,-0.0885 0.348672,-0.0948 0.04426,-0.007 0.152878,-0.0414 0.241388,-0.0779 0.0885,-0.0366 0.185064,-0.0708 0.214567,-0.0761 0.02951,-0.006 0.08985,-0.033 0.134103,-0.0617 0.081,-0.0524 2.117727,-0.13981 3.164865,-0.1357 0.309782,0.002 1.480513,0.016 2.601626,0.0328 1.762697,0.0263 2.100823,0.0185 2.500026,-0.0584 0.304256,-0.0586 0.578572,-0.0777 0.804627,-0.056 0.188642,0.018 0.950817,0.0467 1.69372,0.0635 1.113347,0.0252 1.423101,0.0158 1.762506,-0.0545 0.522874,-0.10813 0.994108,-0.1083 1.367568,-4.1e-4 0.16132,0.0466 0.504358,0.12503 0.762306,0.17433 l 0.468999,0.0896 0.77568,1.08931 c 0.426624,0.59913 0.899959,1.24745 1.051857,1.44074 0.201548,0.25646 0.279591,0.40421 0.288811,0.54676 0.007,0.10744 0.01656,0.25108 0.02135,0.31921 0.0047,0.0682 0.03286,0.10894 0.06235,0.0907 0.0295,-0.0182 0.05363,-0.008 0.05363,0.0236 0,0.0313 -0.02414,0.0569 -0.05363,0.0569 -0.03341,0 -0.05297,0.29832 -0.05188,0.79121 l 0.0018,0.79122 0.309518,0.19516 c 0.396271,0.24986 0.823644,0.34415 1.196997,0.26408 0.41567,-0.0892 0.564522,-0.19907 0.631909,-0.4667 0.03597,-0.14288 0.102927,-0.25454 0.176098,-0.29369 0.08804,-0.0471 1.304908,-0.0628 4.787184,-0.062 4.090157,0.002 4.748933,0.0126 5.312689,0.092 0.38303,0.0539 0.679608,0.12332 0.732613,0.17129 1.695596,1.47418 0.697391,-0.9785 0.725378,9.07384 0.08832,0.22027 -0.214306,2.15163 -0.407915,2.6033 -0.101431,0.23663 -0.108608,0.24142 -0.495979,0.33095 -0.216181,0.05 -0.502388,0.0959 -0.636019,0.10204 -0.133628,0.007 -0.266391,0.0251 -0.29503,0.0422 -0.02864,0.0171 -0.699701,0.0335 -1.491258,0.0367 -0.791554,0.004 -1.463992,0.0211 -1.494306,0.0398 -0.03491,0.0215 -0.04186,-0.009 -0.01894,-0.0799 0.03144,-0.0991 0.01496,-0.11401 -0.125644,-0.11401 -0.127987,0 -1.295499,-0.21904 -1.915046,-0.35928 -0.09574,-0.0216 -0.122595,0.0148 -0.187746,0.25503 -0.05497,0.20265 -0.1096,0.29265 -0.197213,0.32484 -0.11169,0.0411 -0.118985,0.032 -0.0931,-0.11485 l 0.02808,-0.15939 H 44.17513 c -0.31324,0 -0.456721,0.0197 -0.456721,0.0628 0,0.14416 -0.163588,0.24706 -0.337919,0.21255 -0.09443,-0.0187 -0.744957,-0.034 -1.445633,-0.034 H 40.6609 l -0.0054,-0.18775 c -0.0046,-0.1617 -0.01043,-0.1697 -0.04174,-0.0576 -0.04355,0.15583 -0.141919,0.20168 -0.186038,0.0867 -0.02077,-0.054 -8.9e-4,-0.0827 0.05752,-0.0827 0.06122,0 0.02487,-0.059 -0.115709,-0.18775 -0.112734,-0.10326 -0.239732,-0.18774 -0.282217,-0.18774 -0.04248,0 -0.12203,-0.024 -0.176765,-0.0533 -0.191273,-0.10237 -0.46895,-0.11076 -0.943752,-0.0285 -0.437873,0.0758 -0.612572,0.16154 -0.612572,0.30049 0,0.0772 -0.511126,0.10535 -2.404712,0.13264 -1.91511,0.0277 -1.948185,0.0264 -1.915512,-0.0767 0.01828,-0.0576 0.0099,-0.11919 -0.01872,-0.13686 -0.02858,-0.0177 -0.06814,0.0189 -0.08793,0.0812 -0.03932,0.12388 -0.04258,0.12373 -0.588642,-0.0264 -0.283543,-0.0779 -0.666625,-0.087 -3.218507,-0.0755 -1.59316,0.008 -4.773434,0.0138 -7.067278,0.0149 -2.293843,0.002 -4.170634,0.0177 -4.170647,0.037 -1.4e-5,0.0193 -0.07605,0.0616 -0.168953,0.0939 -0.205897,0.0719 -0.206563,0.0719 -0.206563,0.005 0,-0.0295 0.03362,-0.0537 0.07472,-0.0537 0.0411,0 0.08882,-0.0367 0.106076,-0.0817 0.02456,-0.064 0.01092,-0.0707 -0.06304,-0.0312 -0.291416,0.15596 -0.679177,0.69359 -0.762591,1.05734 -0.0331,0.14437 -0.0915,0.32283 -0.129757,0.39658 -0.03827,0.0738 -0.124231,0.30309 -0.191042,0.50961 -0.06681,0.20652 -0.145359,0.40565 -0.174547,0.44253 -0.06557,0.0828 -0.18226,0.0869 -0.23102,0.009 z"
       id="path2578"       
       sodipodi:nodetypes="ccccsccccccsscccscsssccsccccssccccccscccscscscccccccscccccccscccccccssccccccccscccccccccssccccsccccccccccccscccccsscsccccscscsssccccccccssccccsccc" />
  </g>
</svg>
