<?xml version="1.0" encoding="UTF-8" standalone="no"?>
<!-- Created with Inkscape (http://www.inkscape.org/) -->

<svg
   xmlns:dc="http://purl.org/dc/elements/1.1/"
   xmlns:cc="http://creativecommons.org/ns#"
   xmlns:rdf="http://www.w3.org/1999/02/22-rdf-syntax-ns#"
   xmlns:svg="http://www.w3.org/2000/svg"
   xmlns="http://www.w3.org/2000/svg"
   xmlns:sodipodi="http://sodipodi.sourceforge.net/DTD/sodipodi-0.dtd"   
   width="220"
   height="235"
   viewBox="0 0 58.208332 62.177085"
   version="1.1"
   id="svg8"   
   sodipodi:docname="bazooka.svg" >
  <defs
     id="defs2" />
  <sodipodi:namedview
     id="base"
     pagecolor="#000000"
     bordercolor="#666666"
     borderopacity="1.0"
     showgrid="false"
     units="px" />
  <metadata
     id="metadata5">
    <rdf:RDF>
      <cc:Work
         rdf:about="">
        <dc:format>image/svg+xml</dc:format>
        <dc:type
           rdf:resource="http://purl.org/dc/dcmitype/StillImage" />
        <dc:title></dc:title>
      </cc:Work>
    </rdf:RDF>
  </metadata>
  <g 
     id="layer1"
     transform="translate(0,-234.8229)">
    <path
       style="fill:none;stroke:#ffffff;stroke-width:0.4;stroke-opacity:1;stroke-miterlimit:4;stroke-dasharray:none"
       d="m 24.911975,282.79261 c -0.02052,-0.41152 -1.214863,-1.89242 -3.207526,-3.97711 l -1.295187,-1.355 0.312168,-0.31369 c 0.171804,-0.1724 0.431824,-0.30242 0.577893,-0.28885 0.152606,0.0142 0.498319,-0.18256 0.812681,-0.46249 l 0.547086,-0.48719 0.406252,0.34414 c 0.40462,0.34278 0.408197,0.34232 0.888374,-0.11216 0.265177,-0.25095 0.630645,-0.57793 0.812134,-0.72662 0.1815,-0.14867 0.695418,-0.6852 1.142017,-1.19231 0.726467,-0.82488 0.795677,-0.95053 0.65707,-1.19283 -0.146573,-0.25622 -0.123487,-0.2672 0.428178,-0.20359 0.32071,0.037 0.647379,0.003 0.725935,-0.0756 0.07856,-0.0786 0.213495,-0.0722 0.299869,0.0142 0.262762,0.26276 0.561914,-0.30169 0.354168,-0.66825 l -0.180967,-0.3193 0.272545,0.25259 c 0.149892,0.13893 0.397444,0.52172 0.550105,0.85064 0.152661,0.32893 0.431242,0.86858 0.619067,1.19921 l 0.341499,0.60115 0.516813,-0.11335 c 0.28425,-0.0623 0.654209,-0.13611 0.82213,-0.16392 0.250444,-0.0415 0.295706,-0.092 0.251831,-0.28125 -0.03911,-0.16876 0.131569,-0.40275 0.636094,-0.87196 0.67194,-0.6249 0.689041,-0.6594 0.668826,-1.34947 -0.01141,-0.38948 -0.06862,-0.75604 -0.127153,-0.81457 -0.05853,-0.0585 -0.0809,0.10714 -0.04974,0.36814 0.07517,0.62928 -0.139335,1.26292 -0.575023,1.69861 -0.409466,0.40946 -0.391783,0.42098 -1.112219,-0.72365 -0.408196,-0.64855 -0.511061,-0.92859 -0.406623,-1.107 0.0769,-0.13135 0.06026,-0.31837 -0.03696,-0.41559 -0.09874,-0.0987 -0.104027,-0.30278 -0.01198,-0.46222 0.245335,-0.42497 0.264353,-0.43219 0.603358,-0.22922 0.172106,0.10305 0.359121,0.14115 0.415596,0.0847 0.113132,-0.11314 -0.656652,-0.70272 -0.965975,-0.73985 -0.23189,-0.0279 -1.475274,-0.63744 -1.474609,-0.72297 0.0016,-0.19776 0.687023,-0.48345 0.897862,-0.3742 0.136987,0.071 0.336082,0.042 0.442434,-0.0643 0.158928,-0.15893 0.271202,-0.11974 0.63043,0.22003 0.240386,0.22736 0.608961,0.51164 0.81905,0.63173 0.302824,0.17309 -0.893548,-0.95337 -1.431222,-1.3476 -0.0563,-0.0413 -0.01431,-0.23249 0.09331,-0.42492 0.107621,-0.19243 5.79248,-5.97599 12.633021,-12.85236 l 12.437325,-12.50252 0.514374,0.058 c 0.59321,0.0669 0.724543,-0.17639 0.315867,-0.58506 -0.218862,-0.21887 -0.240738,-0.35469 -0.09606,-0.59633 0.149024,-0.24889 0.124421,-0.37585 -0.120268,-0.62054 -0.21941,-0.21941 -0.377245,-0.26686 -0.550433,-0.16548 -0.203156,0.11893 -0.378428,0.0276 -1.073195,-0.55895 -1.173787,-0.99104 -1.20201,-0.99791 -1.216958,-0.29627 l -0.01267,0.59474 -3.671525,3.76947 c -2.01935,2.0732 -7.655688,7.75459 -12.525224,12.62529 l -8.85362,8.85588 -0.257093,-0.19314 c -0.2301,-0.17287 -0.313402,-0.13684 -0.79347,0.34323 -0.480068,0.48007 -0.5161,0.56337 -0.343231,0.79347 l 0.193147,0.25709 -5.059936,5.04549 C 9.031512,284.48155 5.2277472,288.19292 5.0858934,288.05106 c -0.07495,-0.075 -0.0875,-0.18505 -0.027884,-0.24467 0.059616,-0.0596 0.033269,-0.14582 -0.058549,-0.19158 -0.2109925,-0.10515 -1.0298665,0.7846 -1.9787985,2.15009 l -0.6879711,0.98996 -0.530942,0.0114 c -0.6048521,0.0129 -0.6431743,0.16539 -0.2339907,0.93063 0.6800225,1.27176 2.1430885,2.56578 2.9009769,2.56578 0.3621035,0 0.377359,-0.0164 0.5951326,-0.64135 0.1229233,-0.35274 0.295071,-0.71292 0.3825487,-0.8004 0.087479,-0.0875 0.1890323,-0.32921 0.2256672,-0.53718 0.062182,-0.35294 0.079931,-0.36481 0.2664938,-0.17825 0.2996205,0.29963 0.479104,0.18682 0.5421149,-0.34072 0.031852,-0.26667 0.1530321,-0.51614 0.2776672,-0.57166 0.1216328,-0.0542 0.2314002,-0.20878 0.2439293,-0.34358 0.014145,-0.15218 0.2044321,-0.37425 0.5019268,-0.58574 0.3621742,-0.25749 0.5623429,-0.30329 0.819957,-0.1876 0.4575299,0.20546 0.9281687,-0.32673 0.634555,-0.71755 -0.1923266,-0.25601 -0.1853796,-0.26484 1.6289135,-2.07308 1.286995,-1.28245 1.800605,-1.73458 1.748953,-1.5389 -0.101795,0.3858 0.241472,0.67861 0.680621,0.58057 0.202439,-0.0452 1.030441,-0.45536 1.840008,-0.91147 1.863237,-1.04976 2.114033,-1.12627 3.089444,-0.9426 1.119054,0.21072 1.268911,0.16807 2.018879,-0.57472 0.95643,-0.94728 1.889327,-1.11352 3.468831,-0.61812 1.004878,0.31516 1.509223,0.14866 1.477481,-0.48778 z m -0.589936,0.40477 c -0.101823,0.021 -0.48841,-0.0611 -0.859082,-0.18227 -1.693893,-0.55394 -2.613306,-0.39445 -3.639021,0.63127 -0.533167,0.53316 -0.746671,0.66656 -1.066788,0.66657 -0.220117,0 -0.44367,-0.0435 -0.496785,-0.0966 -0.05312,-0.0531 -0.384987,-0.11531 -0.737498,-0.13821 -0.670837,-0.0436 -1.298645,0.20275 -3.326799,1.30528 -1.143499,0.62162 -1.603939,0.66453 -1.443465,0.13452 0.118813,-0.39241 0.139688,-0.40374 0.430532,-0.23347 0.381618,0.2234 0.927794,-0.3639 0.664444,-0.71444 l -0.193147,-0.2571 2.812792,-2.86596 c 2.921722,-2.97693 3.106749,-3.12089 3.502852,-2.72478 0.296013,0.29601 0.834257,-0.30993 0.592517,-0.66702 -0.09997,-0.14766 0.138845,0.0413 0.530693,0.41982 0.8189,0.79113 3.452875,3.77913 3.632942,4.12123 0.124101,0.23577 -0.07615,0.53365 -0.404141,0.60118 z"
       id="path823"  />
  </g>
</svg>
