<?xml version="1.0" encoding="UTF-8" standalone="no"?>
<!-- Created with Inkscape (http://www.inkscape.org/) -->

<svg
   xmlns:dc="http://purl.org/dc/elements/1.1/"
   xmlns:cc="http://creativecommons.org/ns#"
   xmlns:rdf="http://www.w3.org/1999/02/22-rdf-syntax-ns#"
   xmlns:svg="http://www.w3.org/2000/svg"
   xmlns="http://www.w3.org/2000/svg"
   xmlns:sodipodi="http://sodipodi.sourceforge.net/DTD/sodipodi-0.dtd"   
   width="220"
   height="235"
   viewBox="0 0 58.208332 62.177085"
   version="1.1"
   id="svg8"   
   sodipodi:docname="m79.svg" >
  <defs
     id="defs2" />
  <sodipodi:namedview
     id="base"
     pagecolor="#000000"
     bordercolor="#666666"
     borderopacity="1.0"
     showgrid="false"
     units="px" />
  <metadata
     id="metadata5">
    <rdf:RDF>
      <cc:Work
         rdf:about="">
        <dc:format>image/svg+xml</dc:format>
        <dc:type
           rdf:resource="http://purl.org/dc/dcmitype/StillImage" />
        <dc:title></dc:title>
      </cc:Work>
    </rdf:RDF>
  </metadata>
  <g          
     id="layer1"
     transform="translate(0,-234.8229)">
    <path
       style="fill:none;stroke:#ffffff;stroke-width:0.4;stroke-opacity:1;stroke-miterlimit:4;stroke-dasharray:none"
       d="m 34.1241,272.37664 c -0.815969,0.54361 -1.256959,0.42025 -2.396605,-0.67037 l -0.869911,-0.83249 -0.4125,0.50767 c -1.00298,1.23439 -1.431077,2.22481 -1.860801,4.30503 -0.164092,0.79433 -0.332913,1.4788 -0.375158,1.52104 -0.165004,0.16501 -0.739742,0.20252 -1.572657,0.10265 -1.246277,-0.14943 -1.452958,-0.0646 -2.501585,1.02688 -0.475297,0.49472 -1.590129,1.76082 -2.477402,2.81358 -2.405659,2.85432 -3.177199,3.70282 -3.515615,3.86628 -0.1644,0.0794 -0.546824,0.42629 -0.849828,0.77086 l -0.550919,0.62648 0.303598,0.0632 c 0.214579,0.0447 0.397735,0.18129 0.624642,0.46584 0.256719,0.32195 0.312647,0.49587 0.279145,0.86807 -0.05406,0.60059 -0.305276,0.86402 -0.635443,0.66633 -0.231807,-0.13879 -0.429996,-0.37377 -0.943389,-1.11855 l -0.219362,-0.31822 -0.728849,0.76618 c -0.550491,0.57865 -0.744443,0.84789 -0.792556,1.1001 -0.04988,0.26143 -0.286093,0.57764 -1.088121,1.45658 -1.358854,1.48916 -2.471727,2.6029 -2.912713,2.91503 l -0.359232,0.25422 -1.5068023,-1.40481 c -0.8287478,-0.77264 -1.9405053,-1.76476 -2.4705787,-2.2047 -1.1614847,-0.96397 -3.1571655,-2.94873 -4.1053385,-4.08285 -0.934079,-1.11728 -0.933181,-1.12832 0.185222,-2.2755 0.478863,-0.49115 0.894186,-0.90399 0.923069,-0.91728 0.02881,-0.0134 0.379948,-0.26394 0.780363,-0.55679 0.9606323,-0.70256 2.072553,-1.08694 3.5459897,-1.22581 1.6757217,-0.15794 2.5183598,-0.34581 3.2252858,-0.71909 0.642777,-0.33941 2.007648,-1.27338 4.902774,-3.35492 2.106202,-1.51432 2.898848,-1.92729 4.948869,-2.57835 1.968766,-0.62527 2.670239,-1.05885 3.461414,-2.13951 0.442022,-0.60375 1.194937,-2.33238 1.070208,-2.45711 -0.02594,-0.0259 0.0081,-0.23144 0.07568,-0.45668 0.06756,-0.22524 0.08125,-0.41934 0.03043,-0.43134 -0.05082,-0.012 -0.08366,-0.11583 -0.07298,-0.23075 0.01068,-0.11491 -0.06262,-0.29097 -0.162894,-0.39124 -0.217204,-0.21721 -0.218279,-0.21573 0.287886,-0.39503 0.344005,-0.12185 0.446882,-0.21435 0.7497,-0.67409 0.56613,-0.85951 0.949026,-1.42647 1.221792,-1.80912 0.167126,-0.23446 0.191608,-0.31823 0.07088,-0.24257 -0.101425,0.0636 -0.411219,0.46286 -0.688426,0.88731 -0.482434,0.7387 -0.516362,0.77235 -0.792557,0.78613 -0.411671,0.0205 -0.736902,-0.34362 -0.65558,-0.73404 0.06192,-0.29728 0.09234,-0.32251 0.52252,-0.43344 0.362697,-0.0935 0.51733,-0.19757 0.750806,-0.50522 0.161728,-0.21308 0.300131,-0.50967 0.307584,-0.65905 0.01203,-0.24118 0.323211,-0.58889 2.776406,-3.10226 l 2.762862,-2.83063 0.99715,-0.26424 c 0.63208,-0.1675 1.118988,-0.36789 1.329939,-0.54738 0.748194,-0.63658 7.60817,-7.45244 7.732539,-7.68281 0.07393,-0.13694 0.09187,-0.21331 0.03987,-0.16971 -0.107077,0.0897 -0.566731,-0.18671 -0.534864,-0.3217 0.01142,-0.0483 -0.133456,-0.22964 -0.321929,-0.40288 -0.188471,-0.17325 -0.751389,-0.71253 -1.250928,-1.1984 -0.819189,-0.79678 -0.927149,-0.87362 -1.100959,-0.78356 -0.246673,0.12782 -0.458202,0.0312 -0.688628,-0.3144 -0.127668,-0.1915 -0.138362,-0.32005 -0.0352,-0.42321 0.143813,-0.14381 0.07075,-0.22476 -2.488791,-2.75733 l -2.636957,-2.60918 0.190701,-0.47227 c 0.104887,-0.25974 0.271604,-0.53291 0.370484,-0.60703 0.177072,-0.13273 0.222675,-0.0925 3.017918,2.66313 l 2.838137,2.79791 0.190758,-0.19075 c 0.166888,-0.16689 0.224341,-0.15718 0.45914,0.0776 0.236001,0.236 0.244974,0.29179 0.07439,0.46238 l -0.193992,0.19399 0.999143,0.95622 0.999143,0.95622 0.365635,-0.2208 c 0.257429,-0.15545 0.381769,-0.29058 0.420149,-0.45661 0.08119,-0.35124 0.540623,-0.52665 0.772399,-0.29487 0.09994,0.0999 0.315674,0.17503 0.479398,0.16686 0.221322,-0.011 0.340837,0.0526 0.46588,0.24802 l 0.168196,0.26288 3.715097,-3.7151 3.715083,-3.71508 -0.240025,-0.33509 c -0.132011,-0.18429 -0.432709,-0.52852 -0.668212,-0.76496 -0.580186,-0.58244 -0.570186,-0.85048 0.04937,-1.32491 0.641138,-0.49096 0.769808,-0.46475 1.550331,0.31577 0.530047,0.53005 0.763627,0.6955 1.183076,0.83802 0.405293,0.1377 0.693156,0.33645 1.282114,0.88521 0.832741,0.77591 1.190797,1.30499 1.256729,1.85698 l 0.04304,0.36038 -2.783702,2.7837 -2.783702,2.7837 0.183661,0.27549 c 0.226526,0.33979 0.28361,1.44356 0.101137,1.9556 -0.102562,0.28781 -0.37928,0.62391 -1.139877,1.3845 -0.552438,0.55244 -0.98942,1.01945 -0.971084,1.03779 0.01835,0.0184 0.16754,0.0934 0.331549,0.16687 1.245185,0.55756 1.634361,1.37189 0.613639,1.284 -0.441324,-0.038 -1.332062,-0.52039 -1.450039,-0.78529 -0.06232,-0.13992 -0.910844,0.68222 -7.235974,7.01094 l -7.16539,7.16945 0.228426,0.22843 c 0.224814,0.22481 0.417036,0.17789 0.437619,-0.10682 0.0054,-0.0747 0.205418,-0.30259 0.444481,-0.50636 l 0.43466,-0.37049 0.346318,0.34632 0.346314,0.34631 -0.583758,0.52132 c -0.677442,0.60498 -0.752784,0.90226 -0.334836,1.32117 0.344677,0.34544 0.476706,0.9945 0.29324,1.44132 -0.162935,0.39681 -1.531288,1.81488 -2.147186,2.22519 z m 1.937985,-2.9048 c -0.02579,-0.59017 -0.340529,-1.05242 -0.629078,-0.92392 -0.116861,0.0521 -0.280716,-0.0507 -0.616557,-0.38651 -0.440117,-0.44012 -0.45064,-0.46657 -0.278469,-0.70022 0.09842,-0.13354 -0.304117,0.22989 -0.894501,0.80764 l -1.073414,1.05046 0.01561,0.45837 c 0.02118,0.62214 0.352646,1.18315 0.872493,1.47674 0.569928,0.32187 0.651403,0.39513 0.587826,0.5286 -0.03097,0.0651 -0.27971,0.0406 -0.552722,-0.0543 -0.583464,-0.20283 -1.224002,-0.79627 -1.447834,-1.34139 -0.170966,-0.41638 -0.278476,-0.41828 -0.68461,-0.0121 -0.21467,0.21467 -0.214109,0.21584 0.296604,0.7058 0.360113,0.34548 0.499617,0.54158 0.471142,0.66228 -0.05629,0.23857 0.51207,0.61285 0.984581,0.64838 0.510309,0.0384 0.884564,-0.21788 2.0043,-1.37229 l 0.968641,-0.9986 z"
       id="path875"       
       sodipodi:nodetypes="cscccsssscccccccscccsccccccccccsccscccsccccscccccscccccccccssscccscssscccccsccccccccscsccccccsscscscscsccccccccccsccccccccsccsccc" />
  </g>
</svg>
