<?xml version="1.0" encoding="UTF-8" standalone="no"?>
<!-- Created with Inkscape (http://www.inkscape.org/) -->

<svg
   xmlns:dc="http://purl.org/dc/elements/1.1/"
   xmlns:cc="http://creativecommons.org/ns#"
   xmlns:rdf="http://www.w3.org/1999/02/22-rdf-syntax-ns#"
   xmlns:svg="http://www.w3.org/2000/svg"
   xmlns="http://www.w3.org/2000/svg"
   xmlns:sodipodi="http://sodipodi.sourceforge.net/DTD/sodipodi-0.dtd"   
   width="220"
   height="235"
   viewBox="0 0 58.208332 62.177085"
   version="1.1"
   id="svg8"   
   sodipodi:docname="rpg7.svg" >
  <defs
     id="defs2" />
  <sodipodi:namedview
     id="base"
     pagecolor="#000000"
     bordercolor="#666666"
     borderopacity="1.0"
     showgrid="false"
     units="px" />     
  <metadata
     id="metadata5">
    <rdf:RDF>
      <cc:Work
         rdf:about="">
        <dc:format>image/svg+xml</dc:format>
        <dc:type
           rdf:resource="http://purl.org/dc/dcmitype/StillImage" />
        <dc:title></dc:title>
      </cc:Work>
    </rdf:RDF>
  </metadata>
  <g    
     id="layer1"
     transform="translate(0,-234.8229)">
    <path
       style="fill:none;stroke:#ffffff;stroke-width:0.4;stroke-opacity:1;stroke-miterlimit:4;stroke-dasharray:none"
       d="m 46.849032,263.97845 c 4e-6,-0.0756 -0.684527,-0.82192 -1.521172,-1.65857 -1.742083,-1.74208 -1.754421,-1.77282 -1.111207,-2.76725 0.48664,-0.75236 0.706315,-1.38724 0.685314,-1.98063 -0.01336,-0.37746 -0.152715,-0.57088 -1.077902,-1.49607 l -1.062565,-1.06257 1.005487,-1.00393 c 0.990605,-0.98904 1.011524,-1.00171 1.411679,-0.85535 0.786704,0.28771 0.83165,0.46522 0.262008,1.03486 l -0.515234,0.51524 0.566759,0.56675 0.566759,0.56676 0.509153,-0.50915 c 0.280035,-0.28003 0.56534,-0.49578 0.634012,-0.47944 0.06867,0.0164 0.827853,-0.75564 1.687046,-1.71555 l 1.562184,-1.74528 -0.230115,-0.35965 c -0.126566,-0.1978 -0.403693,-0.47071 -0.615845,-0.60645 -0.367084,-0.23486 -0.408119,-0.22282 -0.849169,0.2492 -0.83014,0.88849 -0.932176,0.95469 -1.144394,0.74247 -0.127839,-0.12784 -0.127837,-0.29354 1e-6,-0.4637 0.127854,-0.17016 0.127841,-0.35941 0,-0.52957 -0.175577,-0.23371 -0.139288,-0.32443 0.309142,-0.77285 0.382918,-0.38293 0.546158,-0.46998 0.662637,-0.3535 0.216595,0.21659 0.416559,-0.0299 0.812507,-1.00135 l 0.342584,-0.84057 1.127263,-0.62021 c 2.200713,-1.21082 2.324027,-1.34192 4.128899,-4.38958 0.882818,-1.49071 1.755594,-2.86085 1.939501,-3.04475 0.388515,-0.38852 0.259873,-0.73055 -0.44926,-1.19451 l -0.433035,-0.28331 -0.992561,0.7518 c -1.02363,0.77534 -2.828935,1.94875 -4.14067,2.69132 -0.8926,0.50531 -1.498189,1.29144 -2.426009,3.14925 l -0.586178,1.17372 -0.790895,0.31405 c -0.926944,0.36807 -1.219377,0.6069 -1.00527,0.821 0.118663,0.11867 0.0229,0.28625 -0.412187,0.72134 l -0.566758,0.56675 -0.612198,-0.61219 c -0.336712,-0.33672 -0.687231,-0.59449 -0.778935,-0.57285 -0.09169,0.0216 -0.408081,-0.20072 -0.703056,-0.49414 -0.857065,-0.85255 -1.069186,-0.92807 -1.472948,-0.52431 l -0.348646,0.34865 0.768682,0.76868 0.768688,0.76869 -0.820227,0.88005 -0.820226,0.88005 0.468749,0.45867 c 0.257809,0.25228 0.559227,0.5073 0.669805,0.56676 0.168518,0.0906 0.03661,0.27713 -0.815183,1.15279 -0.55893,0.57459 -0.887202,0.85651 -0.729519,0.62648 0.216971,-0.31651 0.239619,-0.51214 0.0931,-0.80427 -0.23441,-0.46738 -1.086665,-1.12099 -1.551606,-1.18995 -0.295047,-0.0438 -0.349469,-0.004 -0.425561,0.31161 -0.06258,0.25949 -0.150307,0.36179 -0.310283,0.36177 -0.271872,0 -1.8568,1.564 -1.934452,1.90891 -0.03538,0.1571 -0.145457,0.25504 -0.30314,0.26972 -0.176839,0.0164 -0.285266,0.12367 -0.379188,0.37529 -0.09443,0.25251 -0.195992,0.35216 -0.359036,0.35202 -0.165554,0 -0.260814,0.11099 -0.351031,0.40899 -0.09586,0.31658 -0.169572,0.39818 -0.326338,0.36116 -0.144732,-0.0342 -0.198016,0.0957 -0.18679,0.45526 0.01259,0.4032 0.131758,0.62196 0.600384,1.10209 l 0.584686,0.59903 -0.923546,0.98282 -0.923546,0.98282 -0.611123,-0.61112 c -0.462207,-0.46221 -0.666087,-0.58665 -0.836671,-0.51068 -0.124039,0.0553 -0.736178,0.61109 -1.360283,1.23519 -1.048074,1.04807 -1.154587,1.12312 -1.394726,0.98253 -0.303658,-0.17776 -0.513702,-0.0418 -0.286466,0.18545 0.08557,0.0856 0.142244,0.32772 0.125948,0.53813 -0.01977,0.25521 0.09789,0.51008 0.353436,0.76562 0.366716,0.36672 0.400584,0.36829 0.79351,0.0366 0.225758,-0.19056 0.479163,-0.3117 0.56316,-0.26919 0.225197,0.11397 -0.555976,1.06909 -2.152595,2.63192 l -1.393808,1.36429 -0.303735,-0.24052 c -0.436998,-0.34605 -0.80491,-0.0511 -0.502296,0.40272 l 0.232946,0.34931 -4.996966,4.93169 c -4.183664,4.12907 -5.080548,5.06614 -5.510552,5.75772 -0.807286,1.29836 -0.927647,1.42113 -1.20811,1.23226 -0.463869,-0.31238 -0.959681,0.10355 -0.578196,0.48503 0.103942,0.10394 0.173538,0.25444 0.154655,0.33443 -0.0189,0.08 -0.878968,0.93108 -1.911275,1.89133 -1.798508,1.67295 -1.887241,1.73818 -2.123571,1.56092 -0.34319,-0.2574 -0.72377,0.14071 -0.464532,0.48596 0.387353,0.51586 -0.208296,1.069 -5.9793087,5.55262 -1.761867,1.36883 -2.176722,1.63753 -2.46303,1.59525 -0.516293,-0.0762 -0.565983,0.41856 -0.119229,1.18722 0.475964,0.81892 2.946297,3.1757 3.549178,3.38604 0.463412,0.16168 0.828933,-0.081 0.71734,-0.47619 -0.05696,-0.20172 0.48762,-0.95626 2.649078,-3.67043 1.4964227,-1.87909 2.9358767,-3.6314 3.1987797,-3.89405 3.205363,-3.20225 6.713714,-6.49079 7.088722,-6.64465 0.330868,-0.13574 1.736474,-1.47372 5.730001,-5.45428 4.880702,-4.86489 5.315425,-5.27072 5.598625,-5.22675 0.346919,0.0539 0.613772,-0.35605 0.382408,-0.58741 -0.07895,-0.0789 -0.09718,-0.18992 -0.0405,-0.2466 0.05668,-0.0567 0.207383,10e-4 0.334905,0.12881 0.141465,0.14146 0.484662,0.20343 0.880294,0.15896 l 0.648432,-0.0729 1.901975,1.90197 1.901979,1.90198 1.133517,-1.13351 1.133517,-1.13352 -1.939933,-1.93993 -1.939929,-1.93993 0.01608,-0.51508 c 0.01169,-0.37427 -0.07286,-0.58125 -0.309257,-0.75714 l -0.325335,-0.24205 1.542259,-1.54226 c 1.34797,-1.34797 1.58221,-1.5368 1.859482,-1.49882 0.174473,0.0239 0.411677,0.13446 0.527121,0.24572 0.115458,0.11125 0.509628,0.27353 0.87596,0.36061 0.366336,0.0871 0.821266,0.31062 1.010957,0.49677 0.189714,0.18614 0.487141,0.38154 0.660995,0.43417 0.226803,0.0687 0.322771,0.16744 0.339706,0.34958 0.03017,0.3246 2.911512,3.1696 3.243337,3.20243 0.249766,0.0247 2.441873,-2.05948 2.441875,-2.32165 z m -3.675344,-4.06005 c -0.13602,0 -0.479744,-0.23243 -0.763826,-0.51651 l -0.516514,-0.51652 0.978614,-0.007 c 0.538235,-0.004 1.042169,-0.071 1.119851,-0.14866 0.114925,-0.11493 0.07902,-0.14624 -0.192662,-0.168 -0.356754,-0.0286 -0.980194,-0.29201 -1.48502,-0.62745 -0.252327,-0.16766 -0.285048,-0.31922 -0.177017,-0.81988 0.106767,-0.4948 0.211063,-0.65785 0.536491,-0.83871 0.389404,-0.21642 0.428589,-0.20211 1.087405,0.39696 0.747379,0.67961 0.836944,0.95918 0.612088,1.91063 -0.133441,0.56465 -0.825756,1.33555 -1.19941,1.33554 z"
       id="path888" />       
  </g>
</svg>
