<?xml version="1.0" encoding="UTF-8" standalone="no"?>
<svg
   xmlns:dc="http://purl.org/dc/elements/1.1/"
   xmlns:cc="http://creativecommons.org/ns#"
   xmlns:rdf="http://www.w3.org/1999/02/22-rdf-syntax-ns#"
   xmlns:svg="http://www.w3.org/2000/svg"
   xmlns="http://www.w3.org/2000/svg"
   xmlns:sodipodi="http://sodipodi.sourceforge.net/DTD/sodipodi-0.dtd"
   xmlns:inkscape="http://www.inkscape.org/namespaces/inkscape"
   width="220"
   height="235"
   viewBox="0 0 58.208332 62.177085"
   version="1.1"
   id="svg8"
   sodipodi:docname="holographic-flat.svg"
   inkscape:version="1.0.2-2 (e86c870879, 2021-01-15)">
  <defs
     id="defs2" />
  <sodipodi:namedview
     id="base"
     pagecolor="#000000"
     bordercolor="#666666"
     borderopacity="1.0"
     showgrid="false"
     fit-margin-top="0"
     fit-margin-left="0"
     fit-margin-right="0"
     fit-margin-bottom="0"
     units="px"
     inkscape:document-rotation="0"
     inkscape:zoom="1.5165184"
     inkscape:cx="10.60847"
     inkscape:cy="102.50919"
     inkscape:window-width="1258"
     inkscape:window-height="1198"
     inkscape:window-x="26"
     inkscape:window-y="355"
     inkscape:window-maximized="0"
     inkscape:current-layer="svg8" />
  <metadata
     id="metadata5">
    <rdf:RDF>
      <cc:Work
         rdf:about="">
        <dc:format>image/svg+xml</dc:format>
        <dc:type
           rdf:resource="http://purl.org/dc/dcmitype/StillImage" />
        <dc:title></dc:title>
      </cc:Work>
    </rdf:RDF>
  </metadata>
  <g
     id="layer1"
     transform="matrix(0.65753329,0.65753329,-0.65753329,0.65753329,214.2062,-186.57918)">
    <path
       style="fill:none;stroke:#ffffff;stroke-width:0.559356;stroke-miterlimit:4;stroke-dasharray:none;stroke-opacity:1"
       d="m 31.197587,317.92449 c 0,-0.0112 2.035102,-2.06851 4.521013,-4.57064 2.486119,-2.50194 5.939947,-5.98187 7.675509,-7.73286 1.735363,-1.75118 4.840516,-4.88226 6.899667,-6.95859 3.416333,-3.44483 3.746745,-3.78473 3.776438,-3.88403 0.05429,-0.18186 0.0072,-0.25849 -0.472652,-0.7674 -0.326178,-0.34596 -0.43121,-0.47255 -0.41182,-0.49626 0.01399,-0.0179 0.106893,-0.11677 0.207265,-0.21915 0.166111,-0.17202 0.181802,-0.19959 0.190871,-0.33325 0.0094,-0.14485 -0.05495,-0.2965 -0.26251,-0.61885 -0.09673,-0.15012 -1.058671,-1.08062 -1.258332,-1.2172 -0.07564,-0.0518 -0.196537,-0.12851 -0.268729,-0.17084 -0.07218,-0.0424 -0.143823,-0.0857 -0.159199,-0.0963 -0.05795,-0.0402 -0.340576,-0.0599 -0.434552,-0.0299 -0.0539,0.0171 -0.138497,0.0719 -0.188261,0.12166 l -0.09048,0.0905 -0.124037,-0.0958 c -0.117647,-0.0908 -0.627262,-0.44888 -0.80949,-0.56868 -0.07604,-0.0499 -0.08059,-0.0667 -0.04152,-0.1667 0.02383,-0.061 0.0267,-0.13494 0.0069,-0.16385 -0.01958,-0.0295 -0.03639,-0.0827 -0.03629,-0.119 0,-0.0383 -0.02531,-0.0792 -0.06062,-0.0975 -0.03323,-0.0175 -0.160988,-0.13215 -0.283641,-0.25517 -0.158319,-0.15882 -0.392972,-0.34234 -0.809085,-0.63248 -0.667715,-0.46555 -0.742914,-0.50642 -0.809262,-0.44008 -0.02847,0.0285 -0.0621,0.0316 -0.08584,0.008 -0.02145,-0.0214 -0.101062,-0.0615 -0.176929,-0.0891 -0.106599,-0.0387 -0.214404,-0.12082 -0.474312,-0.36159 -0.454883,-0.42127 -1.004009,-0.80499 -1.715894,-1.19923 -0.381078,-0.21101 -0.693839,-0.25314 -0.83691,-0.11257 -0.108837,0.10725 -0.303308,0.0312 -0.781359,-0.30503 -0.656195,-0.4616 -0.675081,-0.46774 -1.26201,-0.41154 -0.517019,0.0495 -1.35657,0.0597 -1.631459,0.0197 -0.0888,-0.0126 -0.201371,-0.0253 -0.250021,-0.0275 -0.501317,-0.0236 -1.657386,-0.33555 -2.23774,-0.60379 -0.114695,-0.053 -0.238757,-0.10782 -0.275679,-0.1218 -0.182695,-0.0693 -0.65756,-0.34015 -1.016647,-0.57971 -0.482491,-0.32191 -0.673044,-0.4832 -1.240147,-1.0503 -0.680303,-0.6803 -0.846413,-0.89447 -1.384395,-1.78517 -0.345599,-0.57213 -0.36768,-0.60171 -0.679125,-0.90961 -0.63196,-0.62405 -1.516847,-1.27083 -1.918838,-1.40121 -0.17158,-0.0556 -0.406481,-0.0203 -0.62657,0.0945 -0.158646,0.0827 -0.502178,0.42109 -5.659876,5.57522 -4.518908,4.51496 -5.495299,5.50321 -5.517756,5.57512 -0.03688,0.12194 0.02213,0.37049 0.141746,0.59721 0.257735,0.48846 1.473963,2.22225 3.046627,4.34311 0.141341,0.19059 0.166881,0.22542 0.567153,0.77472 0.171647,0.23553 0.400409,0.54814 0.508476,0.69458 0.681004,0.92382 0.985458,1.41588 1.313349,2.12253 0.225567,0.48615 0.512808,1.2863 0.614161,1.71076 0.09545,0.39989 0.223738,1.16439 0.199432,1.18869 -0.01133,0.0112 -0.0092,0.0319 0.0051,0.0462 0.0258,0.0258 0.04203,0.15335 0.05847,0.4615 l 0.0089,0.16879 -0.82817,0.89166 c -0.455446,0.49043 -0.880664,0.94493 -0.944927,1.00998 -0.101943,0.10334 -0.112753,0.13061 -0.08864,0.21106 l 0.02808,0.0927 -0.141301,-0.0126 -0.141301,-0.0126 -0.287961,0.30181 c -0.15823,0.16613 -0.508002,0.53983 -0.77598,0.83175 -0.267879,0.29199 -0.541937,0.58564 -0.608722,0.65282 l -0.121436,0.12221 -0.03046,-0.14951 -0.03046,-0.1493 -0.260424,-0.16135 c -0.204732,-0.12683 -0.269025,-0.15275 -0.300568,-0.12124 -0.02205,0.0221 -0.08495,0.22299 -0.1397,0.4464 -0.122932,0.50163 -0.2748,0.93114 -0.462248,1.30705 -0.139877,0.28049 -0.153543,0.29772 -0.575518,0.72009 -0.237682,0.23803 -0.812902,0.83288 -1.278207,1.32191 -0.465304,0.48903 -1.142117,1.1969 -1.503913,1.57314 -0.362093,0.37593 -0.840142,0.87652 -1.062962,1.1118 -0.56032,0.59137 -1.249956,1.31185 -2.093471,2.18662 -0.393903,0.40775 -0.893075,0.92887 -1.109921,1.15737 -0.216747,0.22863 -0.894449,0.9356 -1.505692,1.57137 -4.0237105,4.18547 -4.0117851,4.17255 -5.0639395,5.48592 -0.1132136,0.14128 -0.2767498,0.36613 -0.3635269,0.49958 -0.206959,0.31869 -0.5819262,1.06168 -0.6881926,1.36379 -0.098978,0.28131 -0.2860939,1.52859 -0.2916902,1.94426 -0.00727,0.53969 0.1565386,1.09137 0.4621204,1.55634 0.3682339,0.56027 1.2652341,1.60083 2.3142632,2.68452 0.4193548,0.43319 1.0573563,1.09434 1.4177966,1.46922 0.645063,0.67097 1.20291,1.18313 1.699629,1.56278 0.268918,0.20523 0.323896,0.20424 0.643232,-0.0112 0.329333,-0.22156 1.526635,-1.37219 2.819595,-2.70984 1.576759,-1.63094 5.191704,-5.30167 7.231769,-7.34371 1.894078,-1.89566 1.893011,-1.89459 2.409704,-2.14583 0.357039,-0.17351 0.976985,-0.35287 1.287244,-0.37235 0.513371,-0.0323 0.339519,0.10153 1.850135,-1.42391 l 1.325155,-1.33899 0.130904,0.0882 c 0.225003,0.15163 0.25634,0.13326 0.998748,-0.58292 0.347547,-0.3337 0.631298,-0.61746 0.631357,-0.62978 z"
       id="path827" />
  </g>
</svg>
