<?xml version="1.0" encoding="UTF-8" standalone="no"?>
<svg
   xmlns:dc="http://purl.org/dc/elements/1.1/"
   xmlns:cc="http://creativecommons.org/ns#"
   xmlns:rdf="http://www.w3.org/1999/02/22-rdf-syntax-ns#"
   xmlns:svg="http://www.w3.org/2000/svg"
   xmlns="http://www.w3.org/2000/svg"
   xmlns:sodipodi="http://sodipodi.sourceforge.net/DTD/sodipodi-0.dtd"
   xmlns:inkscape="http://www.inkscape.org/namespaces/inkscape"
   width="220"
   height="235"
   viewBox="0 0 58.208332 62.177085"
   version="1.1"
   id="svg8"
   sodipodi:docname="telescopic.svg"
   inkscape:version="1.0.2-2 (e86c870879, 2021-01-15)">
  <defs
     id="defs2" />
  <sodipodi:namedview
     id="base"
     pagecolor="#000000"
     bordercolor="#666666"
     borderopacity="1.0"
     showgrid="false"
     fit-margin-top="0"
     fit-margin-left="0"
     fit-margin-right="0"
     fit-margin-bottom="0"
     units="px"
     inkscape:document-rotation="0"
     inkscape:zoom="2.1446809"
     inkscape:cx="73.19018"
     inkscape:cy="119.32752"
     inkscape:window-width="1258"
     inkscape:window-height="1198"
     inkscape:window-x="78"
     inkscape:window-y="407"
     inkscape:window-maximized="0"
     inkscape:current-layer="svg8" />
  <metadata
     id="metadata5">
    <rdf:RDF>
      <cc:Work
         rdf:about="">
        <dc:format>image/svg+xml</dc:format>
        <dc:type
           rdf:resource="http://purl.org/dc/dcmitype/StillImage" />
        <dc:title />
      </cc:Work>
    </rdf:RDF>
  </metadata>
  <g
     id="layer1"
     transform="matrix(1.0572472,0,0,1.0572472,-1.5420456,-293.97355)">
    <path
       style="fill:none;stroke:#ffffff;stroke-width:0.462825;stroke-miterlimit:4;stroke-dasharray:none;stroke-opacity:1"
       d="m 46.759118,305.90913 c 0.06783,-0.0977 0.12331,-0.20072 0.12326,-0.22914 3.2e-5,-0.0982 -0.306032,-0.13018 -0.416748,-0.0435 l -0.107884,0.0845 0.04673,-0.19383 c 0.02566,-0.10668 0.09364,-0.24927 0.151044,-0.31694 0.154819,-0.18263 0.145849,-0.30245 -0.02675,-0.35665 -0.07569,-0.0238 -0.170809,-0.0741 -0.211397,-0.11166 l -0.0738,-0.0684 0.04054,0.1017 c 0.03868,0.097 0.03675,0.0981 -0.04197,0.0242 -0.07175,-0.0675 -0.0646,-0.0953 0.0556,-0.21546 0.113091,-0.11305 0.127421,-0.15639 0.07944,-0.23948 -0.03214,-0.0558 -0.430716,-0.47402 -0.885593,-0.92944 -0.854758,-0.85575 -1.011565,-0.97422 -1.25904,-0.95112 -0.138606,0.013 -0.191419,-0.0396 -0.08671,-0.0862 0.06775,-0.0301 0.06049,-0.0491 -0.04565,-0.1165 -0.06967,-0.0442 -0.236915,-0.15752 -0.371644,-0.25174 -0.45112,-0.3155 -0.95649,-0.42121 -1.299648,-0.27183 -0.05449,0.0237 -0.846337,0.7529 -1.75951,1.62058 l -1.660521,1.57739 -0.391714,0.13805 c -0.215393,0.076 -0.535253,0.14646 -0.710673,0.15676 -0.175429,0.0104 -0.306248,0.0327 -0.2907,0.0498 0.0155,0.017 -0.04021,0.0104 -0.12378,-0.014 -0.08356,-0.0248 -0.160402,-0.076 -0.170589,-0.11374 -0.01018,-0.0377 -0.01978,-0.0429 -0.02128,-0.0116 -0.0054,0.11467 -0.324488,-0.0773 -0.620788,-0.37361 l -0.301846,-0.30186 0.555277,-0.52991 0.555276,-0.52991 0.455147,-0.11247 c 0.250329,-0.0619 0.491632,-0.12395 0.536239,-0.138 0.04463,-0.014 0.119789,0.003 0.167168,0.0382 0.0513,0.0381 0.355354,0.0358 0.754601,-0.006 l 0.668521,-0.0694 0.460666,-0.41403 c 0.253307,-0.22778 0.651746,-0.57484 0.885361,-0.77131 0.233615,-0.19647 0.710768,-0.60947 1.060413,-0.91772 l 0.635637,-0.56053 0.157428,-0.55577 0.157418,-0.55579 0.364045,-0.35096 c 0.315327,-0.30387 0.361393,-0.3663 0.346707,-0.46304 -0.0096,-0.0617 -0.04869,-0.14677 -0.08692,-0.18903 -0.03927,-0.0434 0.0046,-0.0338 0.100919,0.0221 0.141846,0.0824 0.216896,0.0842 0.448227,0.0116 l 0.277859,-0.0877 1.517318,-1.46838 c 0.834487,-0.80765 2.134611,-2.06671 2.889266,-2.7978 2.678288,-2.59533 3.329127,-3.20346 3.436204,-3.21115 0.08703,-0.006 0.793085,-0.65761 1.375265,-1.26875 0.06043,-0.0637 0.09238,-0.19007 0.08993,-0.35761 -0.0021,-0.14257 0.01297,-0.22161 0.03344,-0.17564 0.03354,0.0753 0.07261,0.0484 0.389816,-0.26889 0.305611,-0.30561 0.353238,-0.37254 0.357894,-0.50271 0.02482,-0.70148 -1.30523,-2.52077 -3.316349,-4.53621 -1.728485,-1.73224 -3.016825,-2.6901 -3.618109,-2.6901 -0.187132,0 -0.212396,0.0161 -0.537273,0.34091 l -0.340912,0.34091 0.133427,0.0977 c 0.126644,0.0927 0.121383,0.0936 -0.10343,0.02 -0.378753,-0.12416 -0.486495,-0.0675 -1.202203,0.63321 -0.411981,0.40379 -0.616534,0.62961 -0.621944,0.68919 -0.0081,0.0886 -1.180487,1.28259 -1.883456,1.91814 -0.174513,0.15783 -1.562047,1.51182 -3.08328,3.00899 l -2.766017,2.72201 -0.118538,0.31154 c -0.08946,0.23494 -0.100665,0.33059 -0.04582,0.38907 0.07135,0.0761 0.07052,0.0767 -0.04589,0.0361 -0.111934,-0.0391 -0.139701,-0.0204 -0.496704,0.33667 l -0.378112,0.37812 -0.552117,0.12032 -0.552126,0.12031 -0.584042,0.62446 c -0.321211,0.34346 -0.940858,1.01939 -1.377111,1.50196 l -0.79307,0.8775 -0.09773,0.66648 c -0.08484,0.57856 -0.0842,0.68 0.0047,0.76898 0.08466,0.0847 0.08696,0.1105 0.01321,0.14878 -0.05879,0.0304 -0.127907,0.1981 -0.202361,0.49075 -0.123107,0.48395 -0.130584,0.49404 -0.938146,1.26399 l -0.260138,0.24704 -0.626069,-0.63573 -0.626087,-0.63573 -0.480859,0.46106 -0.48086,0.46106 0.120991,0.12099 c 0.06652,0.0665 0.157807,0.17617 0.202782,0.24359 l 0.08178,0.1226 -0.281014,0.26464 c -0.154151,0.14598 -0.366543,0.35003 -0.471549,0.45389 l -0.191514,0.18824 -0.20999,-0.2343 -0.209999,-0.23431 -0.405686,0.38573 -0.405687,0.38572 0.111274,0.15758 c 0.06114,0.0867 0.147336,0.21154 0.191427,0.27753 l 0.08017,0.11996 -0.403901,0.38918 c -0.222187,0.214 -0.438682,0.41037 -0.481238,0.43624 -0.08879,0.0541 -0.246736,-0.0801 -0.34075,-0.28942 -0.03276,-0.0729 -0.0718,-0.13266 -0.08673,-0.13266 -0.05706,-4e-5 -0.905741,0.82033 -0.922619,0.89171 -0.0349,0.1478 0.347083,0.71909 0.725299,1.08476 l 0.356639,0.34486 -0.869077,0.85598 -0.869077,0.85599 -0.318879,0.0272 -0.318894,0.0271 0.04178,-0.17169 c 0.04088,-0.16786 0.03548,-0.17801 -0.243511,-0.457 l -0.285335,-0.28533 -0.234332,0.0811 -0.234414,0.0811 -0.33805,-0.28899 c -0.185936,-0.15896 -0.3493,-0.30207 -0.363038,-0.31804 -0.01375,-0.0161 -0.07042,-0.0315 -0.126029,-0.0346 -0.07828,-0.005 -0.198284,-0.11177 -0.53262,-0.47676 -0.40595,-0.44318 -0.427778,-0.47627 -0.367412,-0.55676 0.05611,-0.0748 0.03562,-0.11974 -0.162367,-0.35662 -0.124614,-0.14907 -0.37836,-0.42682 -0.56388,-0.61719 l -0.337298,-0.34613 -0.22211,0.0444 c -0.621082,0.12436 -0.942006,0.25488 -1.279724,0.52043 -0.426147,0.33517 -0.794451,0.67827 -0.794526,0.74004 0,0.0264 -0.04285,0.0877 -0.0954,0.13614 l -0.0951,0.0885 0.06039,-0.11732 0.06039,-0.11734 -0.101023,0.0945 c -0.0554,0.0522 -0.08531,0.11015 -0.06576,0.12974 0.01955,0.0196 -6.47e-4,0.0713 -0.04496,0.11502 -0.06532,0.0646 -0.0773,0.0626 -0.06217,-0.009 0.01353,-0.065 -0.0054,-0.056 -0.07221,0.0344 -0.213323,0.28926 -0.883938,0.99293 -0.993028,1.0418 -0.07283,0.0328 -0.240206,0.20126 -0.432555,0.43583 -0.279997,0.34086 -0.334501,0.442 -0.504477,0.93344 l -0.190538,0.55115 0.598406,0.59841 0.5984,0.5984 0.111194,-0.0665 0.111193,-0.0665 0.475994,0.47599 c 0.388745,0.38874 0.466691,0.4853 0.425235,0.52676 -0.05671,0.0567 0.148178,0.34406 0.521751,0.73174 0.213084,0.2211 0.218337,0.23405 0.13221,0.32027 -0.04937,0.0494 -0.100434,0.15034 -0.113439,0.22423 -0.02091,0.11858 0.0076,0.16568 0.244108,0.40209 0.250794,0.25079 0.280043,0.26696 0.460673,0.25519 l 0.192898,-0.0126 -0.01439,0.2217 -0.01441,0.2217 -1.119255,1.07163 c -0.615585,0.58941 -1.134779,1.07211 -1.153635,1.07281 -0.01886,6.9e-4 -0.26502,-0.23896 -0.546888,-0.53249 -0.292298,-0.30424 -0.569239,-0.5591 -0.64442,-0.59286 l -0.131881,-0.0592 -0.419738,0.41973 -0.419737,0.41974 0.0023,0.37313 c 0.0013,0.20521 0.023,0.39378 0.04828,0.41907 0.03288,0.0329 -0.0097,0.0964 -0.149709,0.22351 -0.313965,0.28467 -0.315089,0.28481 -0.570659,0.0812 -0.13692,-0.10911 -0.257379,-0.17151 -0.296929,-0.15391 -0.0366,0.0163 -0.228026,0.18925 -0.425387,0.38432 l -0.359213,0.3543 -0.03484,0.389 c -0.01917,0.21394 -0.02057,0.42102 -0.0031,0.46017 0.03898,0.0875 -0.289809,0.4289 -0.400314,0.41668 -0.04051,-0.005 -0.160164,-0.0731 -0.265937,-0.15214 -0.105767,-0.079 -0.210318,-0.13945 -0.232343,-0.13424 -0.02203,0.005 -0.235096,0.18306 -0.473412,0.39535 l -0.433376,0.38592 -0.05986,0.32369 c -0.07062,0.38193 -0.06787,0.64434 0.0076,0.72705 0.02986,0.0327 0.129344,0.15931 0.220929,0.28118 0.154732,0.2059 0.28271,0.31175 0.531564,0.43966 0.09835,0.0506 0.09682,0.0528 -0.122664,0.16849 -0.122347,0.0645 -0.453984,0.22147 -0.737083,0.3489 -0.849566,0.38243 -0.830231,0.36631 -3.0816671,2.56986 -1.1263365,1.10228 -2.7926241,2.73094 -3.7030177,3.61908 -1.5548549,1.51688 -1.658592,1.62619 -1.7118309,1.80101 -0.1107854,0.36411 0.2137969,1.08828 0.9421336,2.10198 0.3303104,0.45974 0.5407594,0.69287 1.4502259,1.60658 1.1012205,1.10629 1.342269,1.3102 2.1184504,1.79142 0.3796136,0.23534 0.9073791,0.46196 1.1233056,0.48232 0.2998634,0.0283 0.6358711,-0.2361 1.9419582,-1.52808 0.521328,-0.51478 1.137887,-1.11383 1.371132,-1.33022 0.233325,-0.21631 1.248958,-1.20003 2.25718,-2.18584 1.00814,-0.98589 1.915191,-1.85726 2.01563,-1.93643 0.254074,-0.2004 0.505155,-0.5796 0.850691,-1.28512 0.162633,-0.33209 0.343694,-0.66229 0.402352,-0.73378 0.104714,-0.12761 0.110488,-0.12733 0.317632,0.0145 0.140692,0.0964 0.309636,0.27082 0.507084,0.52371 0.416226,0.53312 0.628066,0.73121 0.92799,0.86782 0.354983,0.16167 0.900019,0.166 1.157683,0.009 0.105686,-0.0643 0.37417,-0.21478 0.596719,-0.33435 0.22252,-0.1196 0.585318,-0.31661 0.806208,-0.43784 0.220884,-0.12122 0.600277,-0.32564 0.84312,-0.45424 1.220793,-0.64648 1.866867,-1.01512 1.984618,-1.13233 0.237553,-0.2365 1.00948,-0.80473 1.583663,-1.16574 0.311552,-0.19587 1.133824,-0.63648 1.82731,-0.9791 l 1.260892,-0.62295 1.638752,-1.59654 1.638754,-1.59654 0.728541,-0.4081 c 0.400711,-0.22444 0.747646,-0.42711 0.770971,-0.45039 0.03051,-0.0304 0.109736,0.0347 0.282783,0.23273 0.405164,0.46361 0.490279,0.58787 0.527816,0.77061 0.04225,0.20564 0.109586,0.29171 0.152622,0.19508 0.01665,-0.0375 0.118378,-0.10367 0.225797,-0.14741 0.478611,-0.19447 1.095991,-0.67371 1.895686,-1.47154 0.561738,-0.56039 0.782445,-0.806 0.830364,-0.92396 0.06336,-0.15597 0.04075,-0.33637 -0.03295,-0.26266 -0.0201,0.0201 -0.04192,0.0136 -0.04856,-0.0145 -0.0066,-0.028 -0.05218,-0.0275 -0.101208,10e-4 -0.04903,0.0287 -0.106693,0.0347 -0.128043,0.0133 -0.02462,-0.0247 0.05589,-0.1333 0.219323,-0.29607 0.410965,-0.40938 3.837483,-3.54977 5.109535,-4.68288 0.361829,-0.32239 0.826644,-0.7373 1.032935,-0.922 0.526846,-0.47186 0.698743,-0.6089 0.800325,-0.6375 0.07684,-0.0218 0.0837,-0.009 0.05228,0.094 -0.01981,0.0655 -0.06715,0.1272 -0.105247,0.13716 -0.03811,0.0104 -0.0091,0.0222 0.06408,0.0271 0.07332,0.005 0.150232,0.0258 0.170899,0.0465 0.05907,0.0591 0.356611,-0.0672 0.650115,-0.27622 0.340728,-0.24254 1.396165,-1.24217 1.558916,-1.4766 z m -17.605765,8.50008 -0.880959,0.82516 -2.175427,1.20127 c -1.342079,0.74108 -2.292143,1.23682 -2.480107,1.29409 -0.167649,0.051 -0.461688,0.0916 -0.653581,0.0901 l -0.348889,-0.002 0.862542,-0.86254 0.862543,-0.86255 0.452592,-0.0339 c 0.469028,-0.0351 0.829103,-0.16275 1.16998,-0.41473 0.133098,-0.0985 0.231202,-0.13253 0.324783,-0.11304 0.220067,0.0458 0.595099,-0.11062 0.746052,-0.31132 0.38872,-0.51669 0.465379,-0.59465 0.732304,-0.7454 0.303171,-0.1703 0.418646,-0.33192 0.455061,-0.63674 0.01597,-0.13379 0.113646,-0.27369 0.564342,-0.80855 0.841495,-0.99874 1.024308,-1.34593 1.060513,-2.01512 l 0.01277,-0.23603 0.911947,-0.88986 0.911947,-0.88985 0.427075,0.45753 c 0.284747,0.30506 0.417821,0.4761 0.399281,0.51317 -0.01476,0.0311 0.0015,0.0636 0.03728,0.0734 0.03586,0.009 0.04081,0.0189 0.01111,0.0205 -0.02966,0.001 -0.06183,0.15101 -0.07144,0.33232 -0.02082,0.39191 -0.133745,0.74226 -0.343851,1.06684 -0.159316,0.24621 -1.194767,1.26742 -2.988471,2.9474 z"
       id="path2528"
       sodipodi:nodetypes="cccccscccscscccccccsccsccccscccccccccscccccccsscssccccsccssccccccsccccsccccsccsccscccccsccccccccccsccccccsccccccsccccccsccccccccccccsccsccccccccsscccsccccccccccccsccccccccccsccccccccscscccccsccccccccscccccccsccsccccsccscscccccssccccscccccssscccscccccccccccc" />
  </g>
</svg>
