<?xml version="1.0" encoding="UTF-8" standalone="no"?>
<!-- Created with Inkscape (http://www.inkscape.org/) -->

<svg
   xmlns:dc="http://purl.org/dc/elements/1.1/"
   xmlns:cc="http://creativecommons.org/ns#"
   xmlns:rdf="http://www.w3.org/1999/02/22-rdf-syntax-ns#"
   xmlns:svg="http://www.w3.org/2000/svg"
   xmlns="http://www.w3.org/2000/svg"
   xmlns:sodipodi="http://sodipodi.sourceforge.net/DTD/sodipodi-0.dtd"
   width="220"
   height="79"
   viewBox="0 0 58.208336 20.902083"
   version="1.1"
   id="svg8"
   sodipodi:docname="holographic.svg" >
  <defs
     id="defs2" />
  <sodipodi:namedview
     id="base"
     pagecolor="#000000"
     bordercolor="#666666"
     borderopacity="1.0"
     showgrid="false"
     fit-margin-top="0"
     fit-margin-left="0"
     fit-margin-right="0"
     fit-margin-bottom="0"
     units="px" />
  <metadata
     id="metadata5">
    <rdf:RDF>
      <cc:Work
         rdf:about="">
        <dc:format>image/svg+xml</dc:format>
        <dc:type
           rdf:resource="http://purl.org/dc/dcmitype/StillImage" />
        <dc:title></dc:title>
      </cc:Work>
    </rdf:RDF>
  </metadata>
  <g id="layer1"
     transform="translate(0.1032419,-276.41944)">
    <path
       style="fill:none;stroke:#ffffff;stroke-width:0.4;stroke-opacity:1;stroke-miterlimit:4;stroke-dasharray:none"
       d="m 26.440637,296.55443 c 0.006,-0.006 2.07503,-0.0169 4.59727,-0.0251 2.52225,-0.008 6.02836,-0.0212 7.79136,-0.029 1.763,-0.008 4.91639,-0.0211 7.00754,-0.0298 3.46939,-0.0144 3.80834,-0.0192 3.87357,-0.0544 0.1194,-0.0645 0.13429,-0.12711 0.14904,-0.62704 0.01,-0.33987 0.0209,-0.45699 0.0427,-0.45918 0.0161,-0.002 0.11311,-0.005 0.21561,-0.006 0.17099,-0.003 0.19286,-0.009 0.26503,-0.072 0.078,-0.0685 0.12215,-0.17772 0.18019,-0.44567 0.027,-0.12482 0.0111,-1.08175 -0.0208,-1.25177 -0.0121,-0.0644 -0.0344,-0.16436 -0.0495,-0.22227 -0.0151,-0.0579 -0.0294,-0.11605 -0.0318,-0.1292 -0.009,-0.0496 -0.14198,-0.20245 -0.20462,-0.23485 -0.0359,-0.0186 -0.10637,-0.0337 -0.15669,-0.0337 h -0.0915 l -0.0143,-0.11114 c -0.0136,-0.10538 -0.0902,-0.54416 -0.12177,-0.69688 -0.0132,-0.0637 -0.007,-0.0745 0.0633,-0.10529 0.0429,-0.0188 0.0817,-0.0547 0.0863,-0.0794 0.005,-0.0248 0.0234,-0.0602 0.0418,-0.0785 0.0194,-0.0194 0.0272,-0.0528 0.0186,-0.0799 -0.008,-0.0256 -0.0146,-0.14821 -0.0144,-0.27245 2.6e-4,-0.16037 -0.0256,-0.37182 -0.0893,-0.72894 -0.10223,-0.57304 -0.11958,-0.63174 -0.18668,-0.63174 -0.0288,0 -0.0474,-0.0154 -0.0474,-0.0394 0,-0.0217 -0.02,-0.0822 -0.0444,-0.13453 -0.0343,-0.0735 -0.0473,-0.16953 -0.057,-0.42268 -0.017,-0.44303 -0.10064,-0.91473 -0.26125,-1.47406 -0.086,-0.29939 -0.22285,-0.47884 -0.36624,-0.48014 -0.10927,-8e-4 -0.16916,-0.13758 -0.24086,-0.54934 -0.0984,-0.56522 -0.10485,-0.57787 -0.43005,-0.84624 -0.28646,-0.23641 -0.71613,-0.65579 -0.83496,-0.81496 -0.0384,-0.0514 -0.089,-0.11465 -0.11246,-0.14039 -0.24156,-0.26543 -0.6684,-1.00774 -0.82622,-1.43684 -0.0312,-0.0848 -0.0662,-0.17526 -0.0778,-0.201 -0.0573,-0.12746 -0.1605,-0.5045 -0.22094,-0.80721 -0.0812,-0.40675 -0.096,-0.58466 -0.096,-1.15818 0,-0.688 0.0243,-0.88029 0.20266,-1.60272 0.11455,-0.46406 0.11834,-0.49018 0.11654,-0.80335 -0.004,-0.63511 -0.1244,-1.40961 -0.26174,-1.67881 -0.0586,-0.11492 -0.19532,-0.21576 -0.36464,-0.26902 -0.12204,-0.0384 -0.46686,-0.041 -5.68112,-0.0428 -4.56804,-0.002 -5.56148,0.004 -5.60919,0.029 -0.0803,0.043 -0.17616,0.19853 -0.23031,0.37366 -0.11667,0.37732 -0.37838,1.86902 -0.65558,3.73668 -0.0249,0.16784 -0.0296,0.19837 -0.10496,0.67853 -0.0323,0.20589 -0.0747,0.47964 -0.0941,0.60833 -0.12278,0.81149 -0.21764,1.21425 -0.40917,1.73738 -0.13177,0.35989 -0.39112,0.90973 -0.5545,1.17561 -0.15394,0.25048 -0.47565,0.70192 -0.50023,0.70192 -0.0114,0 -0.0208,0.0115 -0.0208,0.0259 0,0.0261 -0.0563,0.0988 -0.2038,0.26293 l -0.0808,0.0899 -0.86964,0.0321 c -0.4783,0.0177 -0.92313,0.0325 -0.98852,0.0329 -0.10378,6.9e-4 -0.12303,0.009 -0.15155,0.0619 l -0.0327,0.0611 -0.065,-0.0779 -0.065,-0.0779 -0.29822,0.007 c -0.16402,0.004 -0.52985,0.0161 -0.81296,0.0282 -0.28311,0.0122 -0.57017,0.0221 -0.63791,0.0223 l -0.12317,3.6e-4 0.0602,-0.091 0.0601,-0.0909 -0.0501,-0.21327 c -0.0394,-0.16765 -0.0588,-0.21327 -0.0907,-0.21327 -0.0223,0 -0.15571,0.0698 -0.29637,0.15509 -0.31581,0.19149 -0.60979,0.33188 -0.89466,0.42718 -0.21256,0.0711 -0.22818,0.0729 -0.65513,0.0731 -0.24055,1.8e-4 -0.8322,0.0101 -1.31477,0.0221 -0.48257,0.012 -1.18274,0.0277 -1.55593,0.035 -0.37319,0.007 -0.86805,0.0184 -1.09969,0.0247 -0.58236,0.0157 -1.2954,0.0313 -2.16426,0.0471 -0.40536,0.007 -0.92128,0.0181 -1.14648,0.024 -0.2252,0.006 -0.92537,0.0208 -1.55593,0.0332 -4.15104,0.0818 -4.13848,0.0813 -5.33462,0.21338 -0.12869,0.0142 -0.32508,0.0452 -0.43644,0.0688 -0.2658,0.0565 -0.8311,0.24259 -1.0376,0.34162 -0.1923003,0.0922 -0.9176103,0.62828 -1.1306203,0.83563 -0.27657,0.26923 -0.47271,0.63102 -0.55331,1.02066 -0.0971,0.4695 -0.16969,1.44924 -0.18722,2.52767 -0.007,0.4311 -0.0187,1.08802 -0.026,1.45984 -0.0131,0.66546 0.01,1.20652 0.0692,1.64966 0.0322,0.23976 0.0605,0.26706 0.33059,0.31992 0.27856,0.0545 1.4658103,0.0781 2.7960003,0.0555 1.622,-0.0274 5.30605,-0.0556 7.3702,-0.0566 1.91631,-8e-4 1.91523,-8e-4 2.30354,0.13343 0.26828,0.0928 0.67245,0.31559 0.83919,0.46262 0.27589,0.24329 0.12032,0.22304 1.65554,0.21553 l 1.34715,-0.007 0.0216,0.11078 c 0.0371,0.19045 0.0622,0.19704 0.79978,0.21027 0.34448,0.007 0.63144,0.007 0.6377,8e-4 z"
       id="path827"
     />
       
  </g>
</svg>
