<?xml version="1.0" encoding="UTF-8" standalone="no"?>
<svg
   xmlns:dc="http://purl.org/dc/elements/1.1/"
   xmlns:cc="http://creativecommons.org/ns#"
   xmlns:rdf="http://www.w3.org/1999/02/22-rdf-syntax-ns#"
   xmlns:svg="http://www.w3.org/2000/svg"
   xmlns="http://www.w3.org/2000/svg"
   xmlns:sodipodi="http://sodipodi.sourceforge.net/DTD/sodipodi-0.dtd"
   xmlns:inkscape="http://www.inkscape.org/namespaces/inkscape"
   width="220"
   height="235"
   viewBox="0 0 58.208332 62.177085"
   version="1.1"
   id="svg8"
   sodipodi:docname="iron-sights-flat.svg"
   inkscape:version="1.0.2-2 (e86c870879, 2021-01-15)">
  <sodipodi:namedview
     pagecolor="#000000"
     bordercolor="#666666"
     borderopacity="1"
     objecttolerance="10"
     gridtolerance="10"
     guidetolerance="10"
     inkscape:pageopacity="0"
     inkscape:pageshadow="2"
     inkscape:window-width="1466"
     inkscape:window-height="1078"
     id="namedview7"
     showgrid="false"
     inkscape:zoom="1.5165184"
     inkscape:cx="52.905098"
     inkscape:cy="110.04147"
     inkscape:window-x="0"
     inkscape:window-y="329"
     inkscape:window-maximized="0"
     inkscape:current-layer="svg8" />
  <defs
     id="defs2" />
  <metadata
     id="metadata5">
    <rdf:RDF>
      <cc:Work
         rdf:about="">
        <dc:format>image/svg+xml</dc:format>
        <dc:type
           rdf:resource="http://purl.org/dc/dcmitype/StillImage" />
        <dc:title></dc:title>
      </cc:Work>
    </rdf:RDF>
  </metadata>
  <g
     id="layer1"
     transform="matrix(0.75181661,0.75181661,-0.75181661,0.75181661,206.72056,-187.91463)">
    <path
       style="fill:none;stroke:#ffffff;stroke-width:0.5;stroke-miterlimit:4;stroke-dasharray:none;stroke-opacity:1"
       d="m 23.480748,292.1226 c -0.234283,0.17729 -0.498843,0.32916 -0.587974,0.33744 -0.121617,0.0113 -0.494477,-0.29698 -1.491244,-1.2328 -1.29219,-1.21314 -1.871384,-1.64824 -2.122274,-1.59414 -0.06719,0.0146 -0.227185,0.13045 -0.355569,0.2577 -0.27667,0.27385 -0.763137,0.29383 -1.225707,0.0497 -0.614594,-0.32432 -1.947191,-1.49139 -3.755091,-3.28873 -2.023952,-2.01263 -2.053601,-2.05259 -2.0289,-2.7771 0.01,-0.28929 0.093,-0.41 0.965029,-1.40081 0.524806,-0.59636 1.01344,-1.11059 1.085737,-1.14287 0.07232,-0.0323 0.184014,-0.007 0.248129,0.0572 0.192452,0.19146 0.737485,0.47319 0.797956,0.41271 0.0311,-0.0311 -0.0417,-0.19435 -0.161462,-0.36291 -0.348231,-0.48981 -0.308929,-0.61652 0.397052,-1.27965 l 0.614938,-0.57761 0.489142,0.42395 0.48914,0.42395 0.48256,-0.44466 0.48257,-0.44467 -0.263475,-0.34706 c -0.375268,-0.49448 -2.275526,-2.37551 -2.43606,-2.41131 -0.07389,-0.0165 -0.29972,0.0611 -0.50187,0.17247 -0.432726,0.23843 -0.630576,0.1603 -1.166618,-0.46074 -0.190728,-0.221 -1.244819,-1.32345 -2.34239,-2.44987 -2.4243861,-2.48803 -4.1935872,-4.40155 -4.2359862,-4.58117 -0.01802,-0.0766 0.0921,-0.25291 0.25943,-0.41502 0.2367307,-0.22825 0.2761067,-0.31967 0.212558,-0.48277 -0.0469,-0.12059 -0.0148,-0.2809 0.0804,-0.40094 0.109178,-0.1376 0.12117,-0.23756 0.0384,-0.32029 -0.1178774,-0.11787 -0.1152524,-0.80078 0.004,-0.91955 0.03309,-0.0331 -0.2143944,-0.33475 -0.5499594,-0.67031 l -0.6101337,-0.61015 -0.6871657,0.0192 c -0.8998853,0.0251 -1.2222715,-0.0355 -1.9598716,-0.36844 -0.5397219,-0.24361 -0.6837242,-0.35375 -1.206228,-0.92248 -0.8646855,-0.94119 -1.0360854,-1.5004 -0.8527142,-2.78201 0.031401,-0.21966 0.051704,-0.4364 0.045099,-0.48165 -0.029796,-0.20463 0.4824526,-1.34326 0.7675297,-1.70583 0.9216607,-1.17212 2.6004849,-1.63102 4.201253,-1.14834 0.6312429,0.19033 0.6737409,0.2187 1.3702503,0.91521 0.6804107,0.68045 0.7305967,0.75336 0.9393197,1.36698 0.1212607,0.35648 0.2387477,1.01908 0.2610277,1.47243 l 0.0405,0.82426 0.6161517,0.57867 0.6161577,0.57868 0.393908,-0.19096 c 0.392303,-0.19014 0.824262,-0.15341 0.932084,0.0793 0.0343,0.0736 0.118794,0.0443 0.249506,-0.0864 0.268604,-0.26858 0.55796,-0.34248 0.717304,-0.18312 0.111096,0.11108 0.159106,0.0949 0.302546,-0.10223 0.35223,-0.48404 0.27075,-0.53831 2.134979,1.42236 0.930051,0.97813 1.811862,1.95102 1.959587,2.16202 0.147736,0.21097 1.526606,1.67897 3.064115,3.26225 2.98498,3.07379 2.95659,3.03762 2.73369,3.46773 -0.0458,0.0882 -0.045,0.19871 0.002,0.24541 0.0904,0.0904 0.49445,-0.16391 0.898147,-0.5652 0.189106,-0.18815 0.256594,-0.21177 0.303535,-0.10644 0.0511,0.11446 0.156441,0.0392 0.684814,-0.48916 0.52836,-0.52833 0.603688,-0.63381 0.489158,-0.68481 -0.09951,-0.0443 -0.0893,-0.10641 0.0385,-0.23417 0.0956,-0.0956 0.18411,-0.13051 0.196624,-0.0774 0.01309,0.0562 0.296698,-0.18639 0.679352,-0.58149 0.652206,-0.67327 0.657937,-0.67702 0.853874,-0.54909 0.159014,0.10386 0.245085,0.0881 0.443761,-0.0813 0.152522,-0.12989 0.346412,-0.19952 0.508502,-0.1824 0.738281,0.078 0.776542,0.0998 1.720091,0.97614 l 0.916389,0.85119 0.488482,-0.41127 c 0.355139,-0.29899 0.544133,-0.40262 0.69233,-0.37961 0.271724,0.0421 0.28297,0.14975 0.0357,0.3412 -0.206838,0.16017 0.232166,-0.0548 0.974924,-0.47738 0.704335,-0.40069 1.102735,-0.23729 2.479666,1.01705 0.683044,0.62223 0.8591,0.82049 0.882555,0.99399 0.0249,0.18455 0.08,0.24153 0.370538,0.38327 0.412739,0.2012 1.178485,1.05289 1.484423,1.65116 0.278975,0.54545 0.23906,1.16925 -0.0963,1.50457 -0.155017,0.15502 -0.256112,0.3544 -0.268584,0.52947 -0.01869,0.26314 -0.113574,0.37445 -1.505395,1.76627 -1.263433,1.26343 -1.5161,1.48541 -1.690408,1.48543 -0.405166,0 -0.666639,-0.52762 -0.690783,-1.39405 -0.0206,-0.73603 -0.160326,-0.98414 -0.469389,-0.83293 -0.298105,0.14585 -9.917861,9.64746 -10.035973,9.9128 -0.110488,0.24809 0.160566,0.52405 0.596515,0.60783 0.43478,0.0833 0.728364,0.37149 0.910425,0.89387 0.204455,0.58661 -0.289571,1.39106 -1.344799,2.18984 z M 5.9163683,261.85223 C 5.9292723,261.59422 5.6600788,261.28 5.4261594,261.28 c -0.2454431,-10e-6 -0.5613636,0.37633 -0.572207,0.68152 -0.006,0.15165 0.006,0.29118 0.024607,0.3101 0.069014,0.069 0.4725036,0.16864 0.5889379,0.14545 0.2083667,-0.0415 0.4371023,-0.32934 0.4488792,-0.56485 z m 35.9561777,11.86998 c -0.268763,0.21021 -0.611209,0.42542 -0.761048,0.47812 l -0.27245,0.0958 -2.21657,-2.21657 c -2.83911,-2.83909 -2.809391,-2.77757 -1.930521,-4.00271 l 0.49658,-0.69225 -0.397641,-0.43696 c -0.247686,-0.27229 -0.453659,-0.43513 -0.546219,-0.43209 -0.108675,0.004 -0.134787,0.0348 -0.09691,0.11628 0.0711,0.1534 -0.144046,0.34904 -0.361392,0.32887 -0.09849,-0.009 -0.218775,0.0231 -0.267358,0.0717 -0.148011,0.14801 -0.542161,-0.002 -1.019851,-0.38814 -0.603289,-0.48761 -0.951143,-0.97135 -0.938206,-1.3043 0.03929,-1.00968 0.0299,-0.97617 0.276445,-0.98847 0.218603,-0.0109 0.215781,-0.0281 -0.0642,-0.3938 -0.1611,-0.21031 -0.292839,-0.45706 -0.292839,-0.54827 7e-5,-0.0913 -0.0608,-0.24668 -0.135101,-0.34544 -0.1182,-0.15709 -0.0988,-0.22084 0.154822,-0.50924 0.160143,-0.1822 0.318353,-0.30124 0.35349,-0.26609 0.03919,0.0393 0.124187,-0.0382 0.221865,-0.20206 0.0871,-0.14608 0.217736,-0.35902 0.290338,-0.47314 l 0.13201,-0.20753 -1.116819,-1.20082 c -0.614221,-0.66047 -2.010319,-2.127 -3.102332,-3.259 -1.092077,-1.13196 -2.266716,-2.39329 -2.610375,-2.80293 -1.390469,-1.65727 -2.355022,-2.64173 -3.646373,-3.72161 -1.515939,-1.2677 -3.936195,-3.65357 -4.070503,-4.01266 -0.05199,-0.13909 -0.0362,-0.29596 0.0371,-0.36927 0.136048,-0.13603 0.997008,-0.14103 1.131482,-0.007 0.04419,0.0442 0.183204,0.0804 0.308696,0.0804 0.125582,0 0.230509,0.0164 0.233231,0.0365 0.003,0.0199 0.316867,0.15032 0.698129,0.28951 1.494271,0.54543 2.27163,0.87279 2.731043,1.15007 0.265836,0.16048 0.7547,0.35861 0.848188,0.3438 0.05427,-0.008 0.113101,0.0445 0.130581,0.11785 0.0201,0.0851 0.04172,0.0912 0.05919,0.0165 0.01537,-0.065 0.149641,-0.0918 0.301562,-0.0602 0.15067,0.0313 0.507279,0.007 0.792527,-0.0537 0.285208,-0.0609 0.582873,-0.0821 0.661432,-0.0472 0.116432,0.0518 0.1302,0.0168 0.07431,-0.18942 -0.28062,-1.03736 -0.289946,-1.05131 -1.724608,-2.57532 -0.747963,-0.79449 -1.362616,-1.45652 -1.366074,-1.47101 -0.004,-0.014 0.06722,-0.0999 0.156892,-0.18956 0.15594,-0.15593 0.181032,-0.14554 0.576162,0.2391 0.227731,0.22066 0.874522,0.82121 1.438538,1.33332 0.951285,0.86375 1.072109,0.94823 1.669847,1.16724 0.620319,0.2273 0.653129,0.22736 0.87846,0.002 0.189162,-0.18915 0.234038,-0.34265 0.234073,-0.79948 0,-0.77588 -0.146872,-1.27734 -0.866308,-2.95793 -0.782156,-1.82707 -1.361473,-3.34846 -1.395731,-3.66553 -0.0373,-0.34435 0.229308,-0.58006 0.511848,-0.45259 0.324157,0.14621 2.990439,3.03853 3.409948,3.69909 0.111532,0.17545 0.60792,0.79689 1.103214,1.38087 0.836128,0.98578 1.004459,1.14404 2.352707,2.21269 1.224659,0.97066 1.974322,1.65644 4.784859,4.37723 1.83297,1.77442 3.408754,3.26565 3.501735,3.31381 0.215243,0.11158 0.330386,7.1e-4 0.211369,-0.20288 -0.05049,-0.0864 -0.0455,-0.23725 0.0111,-0.33541 0.16953,-0.29384 0.911038,-0.99985 1.114935,-1.06162 0.21986,-0.0666 0.361402,0.15423 0.206306,0.32172 -0.06599,0.0717 -0.02381,0.0774 0.117874,0.0166 0.146266,-0.0627 0.220868,-0.14012 0.220768,-0.22925 0,-0.17607 0.171277,-0.34163 0.468372,-0.45268 l 0.239666,-0.0896 1.165624,1.13011 1.165665,1.13004 0.60387,-0.56582 c 0.378757,-0.35486 0.651848,-0.55512 0.73272,-0.53708 0.19378,0.0432 0.646855,0.51901 0.522177,0.54848 -0.143741,0.034 -0.0285,0.13697 0.153223,0.13696 0.08072,3e-5 0.462609,0.2749 0.848683,0.61093 0.386031,0.33596 0.74027,0.61087 0.787116,0.61086 0.0468,1e-5 0.0923,-0.0824 0.102112,-0.18188 0.0124,-0.13359 -0.115102,-0.31443 -0.479549,-0.68037 -0.541758,-0.54307 -0.645009,-0.75942 -0.414098,-0.86226 0.08491,-0.0378 0.105676,-0.0767 0.048,-0.0903 -0.05566,-0.0132 -0.044,-0.11939 0.0259,-0.23626 0.158714,-0.26506 0.729667,-0.49193 1.212079,-0.4816 0.333658,0.007 0.3982,0.0493 1.154203,0.75428 2.023443,1.88683 3.038904,3.02476 3.12882,3.50588 0.11147,0.59674 0.045,1.06376 -0.184023,1.29277 -0.32213,0.32213 -0.68636,0.27356 -1.107592,-0.1477 -0.408226,-0.40821 -0.766709,-0.5868 -0.903448,-0.45009 -0.0772,0.0771 -0.0161,0.18455 0.271551,0.47849 0.537224,0.54854 1.216052,1.39562 1.216073,1.51678 0,0.12714 -2.7081,3.02855 -3.023803,3.23958 l -0.225457,0.15079 -0.377574,-0.45534 c -0.434249,-0.52378 -0.502796,-0.70284 -0.55176,-1.44234 -0.01951,-0.29545 -0.0567,-0.55828 -0.0825,-0.58408 -0.104319,-0.10431 -0.998499,0.68242 -2.671428,2.35055 -3.523834,3.51394 -6.92905,7.02904 -6.946943,7.17162 -0.01002,0.0789 -0.113672,0.20079 -0.230791,0.27082 -0.117061,0.0701 -0.219202,0.19572 -0.226919,0.27924 -0.01002,0.10916 -0.0628,0.14723 -0.187531,0.13563 -0.09539,-0.008 -0.199206,0.0419 -0.230741,0.11265 -0.102328,0.22961 0.187944,0.38585 0.726843,0.39122 0.28987,0.003 0.55719,0.0391 0.59408,0.0805 0.03712,0.0414 0.20793,0.37385 0.38009,0.73881 0.275701,0.58442 0.298881,0.71165 0.194328,1.06664 -0.146388,0.49706 -0.492608,0.93677 -1.13065,1.43598 z"
       id="path847" />
  </g>
</svg>
