<?xml version="1.0" encoding="UTF-8" standalone="no"?>
<!-- Created with Inkscape (http://www.inkscape.org/) -->

<svg
   xmlns:dc="http://purl.org/dc/elements/1.1/"
   xmlns:cc="http://creativecommons.org/ns#"
   xmlns:rdf="http://www.w3.org/1999/02/22-rdf-syntax-ns#"
   xmlns:svg="http://www.w3.org/2000/svg"
   xmlns="http://www.w3.org/2000/svg"
   xmlns:sodipodi="http://sodipodi.sourceforge.net/DTD/sodipodi-0.dtd"   
   width="220"
   height="79"
   viewBox="0 0 58.208336 20.902083"
   version="1.1"
   id="svg8"
   sodipodi:docname="reflex.svg" >
  <defs
     id="defs2" />
  <sodipodi:namedview
     id="base"
     pagecolor="#000000"
     bordercolor="#666666"
     borderopacity="1.0"
     showgrid="false"
     fit-margin-top="0"
     fit-margin-left="0"
     fit-margin-right="0"
     fit-margin-bottom="0"
     units="px" />
  <metadata
     id="metadata5">
    <rdf:RDF>
      <cc:Work
         rdf:about="">
        <dc:format>image/svg+xml</dc:format>
        <dc:type
           rdf:resource="http://purl.org/dc/dcmitype/StillImage" />
        <dc:title></dc:title>
      </cc:Work>
    </rdf:RDF>
  </metadata>
  <g id="layer1"
     transform="translate(0.1032419,-276.41944)">
    <path
       style="fill:none;stroke:#ffffff;stroke-width:0.4;stroke-opacity:1;stroke-miterlimit:4;stroke-dasharray:none"
       d="m 31.587677,296.80077 c -1.260534,-0.65249 -2.730925,-1.43916 -4.335334,-2.31947 -1.018475,-0.55874 -1.972823,-1.0611 -2.120773,-1.11626 -0.185882,-0.0694 -1.028981,-0.11888 -2.728475,-0.16055 -1.352713,-0.0332 -2.572721,-0.0848 -2.711136,-0.11489 -0.149009,-0.0325 -0.316784,-0.14609 -0.411307,-0.27884 -0.147449,-0.20703 -0.156244,-0.29583 -0.115109,-1.16211 0.02449,-0.51583 0.06636,-1.10553 0.09298,-1.31041 0.04618,-0.35513 0.03479,-0.38652 -0.244483,-0.67251 -0.161112,-0.16498 -0.319166,-0.3 -0.35123,-0.3 -0.03208,0 -0.09541,0.13775 -0.140732,0.30616 -0.04534,0.16839 -0.148153,0.34129 -0.228484,0.38429 -0.190714,0.10204 -0.8995,0.0998 -2.945326,-0.01 l -1.67472,-0.0893 -0.258535,-0.23818 c -0.432375,-0.39827 -0.46373,-0.63213 -0.464675,-3.46617 -0.0014,-2.56947 0.08843,-3.98904 0.32026,-5.09214 0.06445,-0.30664 0.148252,-0.57674 0.18625,-0.60021 0.03799,-0.0235 0.06908,-0.28342 0.06908,-0.57772 0,-0.43352 0.03527,-0.59086 0.185984,-0.8296 0.1608,-0.25473 0.235097,-0.30133 0.548735,-0.34429 0.275399,-0.058 0.582816,-0.0783 0.832317,-0.11278 -3.409582,0.62234 4.078396,-1.25175 1.025566,1.44683 -0.05107,0.10123 0.08689,0.11232 1.096197,0.0877 0.971131,-0.0236 1.185045,-0.01 1.346085,0.0972 0.105304,0.0691 0.191463,0.17449 0.191463,0.23448 0,0.20823 0.167477,0.21044 0.381964,0.01 0.134005,-0.1284 0.335486,-0.22278 0.531763,-0.24911 0.364025,-0.0489 0.40795,-0.1834 0.149626,-0.45832 -0.133829,-0.1425 -0.173403,-0.29847 -0.202276,-0.79719 -0.03379,-0.58338 -0.02429,-0.63238 0.159847,-0.82703 0.107659,-0.11384 0.207331,-0.28862 0.221495,-0.3884 0.03387,-0.2387 0.725673,-0.60296 1.340546,-0.70583 0.600691,-0.10047 2.268855,-0.10037 2.78852,1.8e-4 0.568631,0.11003 1.115809,0.45342 1.147369,0.72007 0.01337,0.11298 0.05574,0.20546 0.0941,0.20546 0.161191,0 0.304297,0.47192 0.304297,1.00347 0,0.47448 -0.02636,0.58128 -0.192145,0.77832 -0.105679,0.12556 -0.192145,0.25604 -0.192145,0.28986 0,0.10519 0.181124,0.21037 0.45015,0.26144 0.320668,0.0609 0.991868,0.61143 1.024417,0.84031 l 0.0242,0.16998 2.519122,0.0207 c 2.347742,0.0192 2.522396,0.0116 2.567225,-0.1153 0.07683,-0.21652 0.268111,-0.40453 0.411532,-0.40453 0.07281,0 0.17545,-0.0521 0.228072,-0.1153 0.07167,-0.0863 0.26393,-0.11528 0.766085,-0.11528 0.572791,0 0.69066,0.0226 0.809512,0.15368 0.128858,0.14239 0.235988,0.15367 1.453005,0.1527 0.722646,-0.002 1.385655,-0.0206 1.473361,-0.0439 0.09177,-0.0245 0.199896,-0.15467 0.254743,-0.3063 0.13827,-0.38239 0.295604,-0.43649 1.08898,-0.37443 0.504646,0.0395 0.716925,0.0283 0.802411,-0.043 0.07429,-0.0617 0.254712,-0.0832 0.500132,-0.0597 l 0.3839,0.037 c 0.826412,-1.44352 1.399756,-1.37504 1.383423,-1.40959 0,0.0172 0.189915,0.0546 0.422036,0.0835 0.382239,0.0478 0.449277,0.0859 0.710939,0.40595 0.285116,0.34852 0.288995,0.36231 0.295856,1.05133 0.0049,0.41288 0.05946,0.87092 0.135431,1.12089 0.213304,0.70178 0.301326,2.12414 0.259231,4.1888 -0.05498,2.69708 -0.240851,3.65836 -0.824887,4.26618 l -0.294802,0.30689 h -2.267094 c -1.246883,0 -2.32514,-0.0226 -2.396124,-0.0498 -0.07099,-0.0271 -0.193633,-0.20015 -0.272555,-0.38431 l -0.143493,-0.3348 h -1.412746 c -1.315086,0 -1.422312,0.011 -1.551811,0.15368 -0.118854,0.13138 -0.236721,0.15376 -0.809515,0.15376 -0.502148,0 -0.694412,-0.0292 -0.766086,-0.11529 -0.05262,-0.0633 -0.155253,-0.11533 -0.228068,-0.11533 -0.162041,0 -0.386794,-0.23593 -0.386794,-0.40605 0,-0.19728 -0.362427,-0.22471 -2.389843,-0.18071 -1.031691,0.0225 -2.074672,0.0425 -2.317734,0.0446 -0.380537,0.01 -0.441936,0.024 -0.441936,0.14916 0,0.11011 0.356957,0.33405 1.479519,0.92823 0.947131,0.50137 1.580073,0.88727 1.758938,1.0725 l 0.279414,0.28934 1.046141,0.0526 c 0.842306,0.0422 1.079888,0.0313 1.219327,-0.0572 0.09526,-0.0604 0.289097,-0.13388 0.430764,-0.16348 0.141668,-0.0297 0.444888,-0.13952 0.67383,-0.24432 0.879077,-0.40248 2.597975,-0.29806 2.811588,0.17078 0.0821,0.18023 0.118245,0.18914 0.767459,0.18914 0.6606,0 0.683571,0.01 0.756249,0.19714 0.04122,0.10843 0.07495,0.34359 0.07495,0.52261 0,0.17902 0.03142,0.35838 0.06979,0.39848 0.03837,0.0402 0.213655,0.62645 0.389506,1.30281 0.313546,1.20591 0.318703,1.24653 0.266491,2.10047 -0.03244,0.53044 -0.08705,0.88276 -0.139714,0.90141 -0.165527,0.0588 -1.333021,0.10152 -4.00626,0.14699 l -2.690043,0.0457 z"
       id="path2515"       
       sodipodi:nodetypes="cccsccsccsccccccccsccccccsccsscccccsscscccccscsccccccccccccssccscccscscssccsscccccccscsccccscc" />
  </g>
</svg>
