<?xml version="1.0" encoding="UTF-8" standalone="no"?>
<svg
   xmlns:dc="http://purl.org/dc/elements/1.1/"
   xmlns:cc="http://creativecommons.org/ns#"
   xmlns:rdf="http://www.w3.org/1999/02/22-rdf-syntax-ns#"
   xmlns:svg="http://www.w3.org/2000/svg"
   xmlns="http://www.w3.org/2000/svg"
   xmlns:sodipodi="http://sodipodi.sourceforge.net/DTD/sodipodi-0.dtd"
   xmlns:inkscape="http://www.inkscape.org/namespaces/inkscape"
   width="220"
   height="235"
   viewBox="0 0 58.208332 62.177085"
   version="1.1"
   id="svg8"
   sodipodi:docname="red-dot-flat.svg"
   inkscape:version="1.0.2-2 (e86c870879, 2021-01-15)">
  <defs
     id="defs2" />
  <sodipodi:namedview
     id="base"
     pagecolor="#000000"
     bordercolor="#666666"
     borderopacity="1.0"
     showgrid="false"
     fit-margin-top="0"
     fit-margin-left="0"
     fit-margin-right="0"
     fit-margin-bottom="0"
     units="px"
     inkscape:document-rotation="0"
     inkscape:zoom="2.1446809"
     inkscape:cx="76.331227"
     inkscape:cy="110.45065"
     inkscape:window-width="1258"
     inkscape:window-height="1198"
     inkscape:window-x="338"
     inkscape:window-y="492"
     inkscape:window-maximized="0"
     inkscape:current-layer="svg8" />
  <metadata
     id="metadata5">
    <rdf:RDF>
      <cc:Work
         rdf:about="">
        <dc:format>image/svg+xml</dc:format>
        <dc:type
           rdf:resource="http://purl.org/dc/dcmitype/StillImage" />
        <dc:title></dc:title>
      </cc:Work>
    </rdf:RDF>
  </metadata>
  <g
     id="layer1"
     transform="matrix(0.7284134,0.7284134,-0.7284134,0.7284134,232.29585,-215.72133)"
     style="stroke-width:0.38829971;stroke-miterlimit:4;stroke-dasharray:none">
    <path
       style="fill:none;stroke:#ffffff;stroke-width:0.38829971;stroke-miterlimit:4;stroke-dasharray:none;stroke-opacity:1"
       d="m 46.660509,317.29039 c -2.344477,0.74517 -5.110585,1.58311 -8.155693,2.47051 -1.932933,0.56342 -3.718179,1.11735 -3.967096,1.23107 -0.312858,0.14281 -1.406745,1.11536 -3.5406,3.14708 -1.698485,1.6171 -3.256886,3.04903 -3.463394,3.18179 -0.222446,0.14281 -0.567268,0.20919 -0.845798,0.16239 -0.434428,-0.073 -0.554034,-0.17106 -1.565276,-1.28313 -0.602155,-0.66219 -1.273541,-1.43619 -1.492003,-1.71991 -0.378629,-0.49182 -0.431058,-0.51633 -1.123807,-0.52456 -0.399637,-0.005 -0.75881,0.0236 -0.798106,0.0627 -0.03931,0.0394 0.05189,0.28573 0.202739,0.54768 0.150803,0.26194 0.236695,0.59982 0.190945,0.75097 -0.10867,0.35878 -0.98006,1.22467 -3.621855,3.59734 l -2.161866,1.94299 -0.608742,0.025 c -1.017985,0.0418 -1.343015,-0.20639 -4.817387,-3.67844 -3.1506919,-3.14726 -4.7803341,-4.99709 -5.8481058,-6.6331 -0.2968119,-0.45478 -0.5251273,-0.88849 -0.5073224,-0.96383 0.017765,-0.0754 -0.2626807,-0.43199 -0.6233546,-0.79266 -0.5312939,-0.53131 -0.6808958,-0.76736 -0.7887751,-1.24464 -0.115117,-0.50924 -0.081164,-0.65741 0.2505554,-1.09443 0.2664295,-0.40859 0.6183007,-0.81022 0.8818167,-1.15826 -3.4158604,4.94126 3.4641535,-6.53227 3.0300071,0.51628 0.061476,0.18664 0.2441392,0.0312 1.4509075,-1.23596 1.1612317,-1.21907 1.4400582,-1.46456 1.7687952,-1.53054 0.21374,-0.0444 0.448489,-0.0208 0.52201,0.0527 0.255191,0.25519 0.463149,0.0527 0.480365,-0.45586 0.0069,-0.32159 0.138116,-0.68419 0.346401,-0.95699 0.386197,-0.50605 0.275194,-0.72472 -0.378316,-0.74505 -0.33865,-0.0104 -0.578296,-0.15321 -1.22488,-0.72909 -0.7563639,-0.67355 -0.804773,-0.74525 -0.8176574,-1.20946 -0.00763,-0.27145 -0.099622,-0.6078 -0.2045467,-0.74745 -0.2510268,-0.33405 0.1503869,-1.62829 0.7778671,-2.50791 0.613037,-0.85928 2.657553,-2.90356 3.417648,-3.4172 0.831723,-0.56203 1.923145,-0.81178 2.288611,-0.52367 0.154842,0.12201 0.320111,0.18349 0.367122,0.13657 0.197544,-0.19755 0.95128,0.20542 1.602714,0.85686 0.581491,0.58148 0.680074,0.74467 0.718377,1.18934 0.02437,0.28339 0.0783,0.54925 0.119744,0.59071 0.128913,0.12895 0.47979,0.0359 0.872078,-0.23127 0.467626,-0.31835 1.964898,-0.46624 2.285289,-0.22563 l 0.237975,0.17866 3.112639,-3.0619 c 2.90077,-2.85372 3.1055,-3.07707 3.004919,-3.28753 -0.171202,-0.35951 -0.167181,-0.82434 0.0087,-1.00012 0.08922,-0.0893 0.151167,-0.27887 0.138203,-0.42081 -0.01794,-0.1936 0.182175,-0.46474 0.797583,-1.08015 0.701976,-0.70197 0.874125,-0.81873 1.180426,-0.80374 0.332423,0.0173 0.47754,-0.10087 1.967847,-1.59358 0.883176,-0.88807 1.672921,-1.72341 1.751853,-1.85944 0.08245,-0.14247 0.05543,-0.43454 -0.06319,-0.68759 -0.299178,-0.63808 -0.172658,-0.8972 0.875705,-1.79346 0.666871,-0.57004 0.9133,-0.84393 0.930686,-1.03607 0.01543,-0.16673 0.210193,-0.41412 0.539763,-0.68609 l 0.515829,-0.42515 c -0.756288,-2.78187 0.0303,-3.40059 -0.03206,-3.42294 0.02107,0.0212 0.299661,-0.16586 0.619552,-0.41488 0.527027,-0.40986 0.655877,-0.44532 1.368784,-0.37378 0.776545,0.0777 0.798199,0.0898 1.651025,0.92586 0.512004,0.5 1.140213,0.99448 1.539665,1.20773 1.121467,0.59863 2.972491,2.23391 5.451216,4.81581 3.237985,3.37274 4.188276,4.77862 4.217423,6.23928 l 0.01473,0.7374 -2.778403,2.7784 c -1.528098,1.5281 -2.877237,2.82184 -2.997564,2.8755 -0.120213,0.0537 -0.482596,-0.009 -0.805012,-0.13692 l -0.586164,-0.23446 -1.731369,1.73138 c -1.611684,1.61167 -1.729613,1.75657 -1.713458,2.09013 0.01543,0.30667 -0.101667,0.47855 -0.803651,1.18053 -0.615399,0.6154 -0.886811,0.81523 -1.080157,0.79757 -0.142067,-0.0139 -0.331608,0.0489 -0.420846,0.13813 -0.198586,0.19859 -0.763169,0.1849 -0.971657,-0.0236 -0.241773,-0.24177 -0.719557,0.16881 -3.150303,2.70738 -1.236798,1.29194 -2.490496,2.59466 -2.785803,2.89512 -0.454108,0.47862 -0.512196,0.57101 -0.358808,0.72441 0.134945,0.13502 0.846854,-0.0281 2.950779,-0.67562 1.775189,-0.54629 3.023815,-0.84906 3.470026,-0.84126 l 0.697028,0.0121 1.346544,-1.21762 c 1.083995,-0.98056 1.361801,-1.28507 1.424228,-1.56443 0.04272,-0.19077 0.190223,-0.51837 0.327567,-0.72826 0.137214,-0.21002 0.374237,-0.71621 0.526378,-1.12522 0.584086,-1.5706 2.818627,-3.5492 3.654996,-3.23641 0.321494,0.12028 0.376711,0.0868 1.172344,-0.70875 0.809589,-0.80959 0.849996,-0.82549 1.168412,-0.68521 0.183402,0.0823 0.512936,0.32924 0.732331,0.54862 0.219395,0.2194 0.477713,0.40071 0.573881,0.40282 0.09629,0.002 1.029578,0.5059 2.073992,1.11928 1.862146,1.09363 1.918247,1.1371 2.900792,2.24761 0.610316,0.68984 0.975171,1.18854 0.933486,1.27594 -0.130802,0.27492 -1.509247,1.75808 -4.729669,5.08995 l -3.240734,3.35275 z"
       id="path2515"
       sodipodi:nodetypes="cccsccsccsccccccccsccccccsccsscccccsscscccccscsccccccccccccssccscccscscssccsscccccccscsccccscc" />
  </g>
</svg>
