<?xml version="1.0" encoding="UTF-8" standalone="no"?>
<!-- Created with Inkscape (http://www.inkscape.org/) -->

<svg
   xmlns:dc="http://purl.org/dc/elements/1.1/"
   xmlns:cc="http://creativecommons.org/ns#"
   xmlns:rdf="http://www.w3.org/1999/02/22-rdf-syntax-ns#"
   xmlns:svg="http://www.w3.org/2000/svg"
   xmlns="http://www.w3.org/2000/svg"
   xmlns:sodipodi="http://sodipodi.sourceforge.net/DTD/sodipodi-0.dtd"   
   width="220"
   height="79"
   viewBox="0 0 58.208336 20.902083"
   version="1.1"
   id="svg8"   
   sodipodi:docname="reflex.svg" >
  <defs
     id="defs2" />
  <sodipodi:namedview
     id="base"
     pagecolor="#000000"
     bordercolor="#666666"
     borderopacity="1.0"
     showgrid="false"
     fit-margin-top="0"
     fit-margin-left="0"
     fit-margin-right="0"
     fit-margin-bottom="0"
     units="px" />
  <metadata
     id="metadata5">
    <rdf:RDF>
      <cc:Work
         rdf:about="">
        <dc:format>image/svg+xml</dc:format>
        <dc:type
           rdf:resource="http://purl.org/dc/dcmitype/StillImage" />
        <dc:title />
      </cc:Work>
    </rdf:RDF>
  </metadata>
  <g id="layer1"
     transform="translate(0.1032419,-276.41944)">
    <path
       style="fill:none;stroke:#ffffff;stroke-width:0.4;stroke-miterlimit:4;stroke-dasharray:none;stroke-opacity:1"
       d="m 43.738935,296.36405 c 0.03094,-0.013 0.121127,-0.0372 0.200455,-0.0543 0.162909,-0.0356 0.405503,-0.22506 0.354036,-0.27654 -0.07145,-0.0715 0.460151,-0.45621 0.893187,-0.64641 l 0.267053,-0.11724 v -2.81015 -2.81023 l -0.299033,-0.0668 -0.299034,-0.0669 -0.09247,-1.1037 c -0.05085,-0.60699 -0.179671,-1.62232 -0.286261,-2.25618 -0.106593,-0.63391 -0.210552,-1.34226 -0.231027,-1.57424 -0.08061,-0.9132 -0.358596,-2.89142 -0.505593,-3.59805 -0.04823,-0.23194 -0.287739,-1.05412 -0.53221,-1.82718 -0.244472,-0.77304 -0.475563,-1.51257 -0.513535,-1.64338 -0.0444,-0.15301 -0.110225,-0.25093 -0.184474,-0.27454 -0.213439,-0.0676 -6.804066,0.0372 -6.874523,0.10953 -0.0594,0.0611 -0.133372,1.28667 -0.217727,3.60743 -0.07174,1.97346 -0.190595,3.07742 -0.390352,3.62574 -0.198994,0.54623 -0.207627,0.56429 -0.25523,0.5349 -0.02419,-0.0149 -0.04051,0.01 -0.03628,0.0462 0.01166,0.11099 -0.434864,0.71245 -0.528889,0.71245 -0.02679,0 -0.143877,0.0644 -0.260175,0.14344 -0.321108,0.21796 -0.845486,0.4544 -1.28339,0.57877 -0.216448,0.0615 -0.760381,0.21601 -1.20874,0.34335 -0.44836,0.12738 -1.27058,0.3589 -1.827167,0.51446 -0.556583,0.15559 -1.530604,0.43045 -2.164489,0.61076 -0.633887,0.18033 -1.405517,0.3955 -1.714728,0.47816 -0.37551,0.10038 -0.5923,0.18889 -0.652824,0.2666 -0.08706,0.1118 -0.125819,0.11503 -0.983862,0.0813 -0.491282,-0.0196 -0.908313,-0.0356 -0.92674,-0.036 -0.01842,-0.002 -0.0311,-0.12122 -0.02813,-0.26806 l 0.0049,-0.26706 -5.641267,-0.014 c -3.102696,-0.01 -5.721169,0.01 -5.818821,0.032 l -0.177566,0.0458 -0.02813,3.81948 c -0.01546,2.10067 -0.0083,3.86342 0.01569,3.91715 0.05053,0.11279 0.163228,0.14527 0.630857,0.18183 0.418314,0.033 31.518254,0.0941 31.595944,0.0624 z"
       id="path860" />
       
  </g>
</svg>
