<?xml version="1.0" encoding="UTF-8" standalone="no"?>
<!-- Created with Inkscape (http://www.inkscape.org/) -->

<svg
   xmlns:dc="http://purl.org/dc/elements/1.1/"
   xmlns:cc="http://creativecommons.org/ns#"
   xmlns:rdf="http://www.w3.org/1999/02/22-rdf-syntax-ns#"
   xmlns:svg="http://www.w3.org/2000/svg"
   xmlns="http://www.w3.org/2000/svg"
   xmlns:sodipodi="http://sodipodi.sourceforge.net/DTD/sodipodi-0.dtd"
   width="220"
   height="235"
   viewBox="0 0 58.208332 62.177085"
   version="1.1"
   id="svg8"
   sodipodi:docname="reflex.svg">
  <defs
     id="defs2" />
  <sodipodi:namedview
     id="base"
     pagecolor="#000000"
     bordercolor="#666666"
     borderopacity="1.0"
     showgrid="false"
     fit-margin-top="0"
     fit-margin-left="0"
     fit-margin-right="0"
     fit-margin-bottom="0"
     units="px" />
  <metadata
     id="metadata5">
    <rdf:RDF>
      <cc:Work
         rdf:about="">
        <dc:format>image/svg+xml</dc:format>
        <dc:type
           rdf:resource="http://purl.org/dc/dcmitype/StillImage" />
        <dc:title />
      </cc:Work>
    </rdf:RDF>
  </metadata>
  <g
     id="layer1"
     transform="translate(0.1032419,-276.41944)">
    <path
       style="fill:none;stroke:#ffffff;stroke-width:0.62252426;stroke-miterlimit:4;stroke-dasharray:none;stroke-opacity:1"
       d="m 50.924544,299.48494 c 0.01973,-0.0484 0.09237,-0.17423 0.160839,-0.28036 0.140099,-0.21844 0.198573,-0.69391 0.08528,-0.69392 -0.157314,-7e-5 0.0044,-1.00845 0.271573,-1.6943 l 0.164865,-0.42291 -3.092507,-3.0925 -3.092595,-3.09259 -0.402591,0.25556 -0.402703,0.25545 -1.316359,-1.11284 c -0.723938,-0.61201 -1.983051,-1.58758 -2.7979,-2.16784 -0.814907,-0.5803 -1.708834,-1.24543 -1.986654,-1.47817 -1.093666,-0.91624 -3.576571,-2.78732 -4.515968,-3.40318 -0.308322,-0.20217 -1.476688,-0.84338 -2.596457,-1.42508 -1.11975,-0.5817 -2.187895,-1.14122 -2.373636,-1.24338 -0.217246,-0.11951 -0.397443,-0.15485 -0.505136,-0.0991 -0.309277,0.16048 -7.446786,7.52866 -7.444725,7.68578 0.0018,0.13261 1.269179,1.56273 3.730293,4.20951 2.092802,2.25069 3.176887,3.59638 3.560472,4.41962 0.382127,0.82009 0.392501,0.84948 0.307772,0.86952 -0.04301,0.0109 -0.03357,0.0556 0.0109,0.0907 0.13498,0.10925 0.305478,1.26258 0.202007,1.36607 -0.02948,0.0294 -0.08747,0.2292 -0.128457,0.44416 -0.113519,0.59325 -0.430382,1.43051 -0.775418,2.04927 -0.170518,0.30587 -0.599069,1.0745 -0.952343,1.70805 -0.353231,0.63359 -1.003283,1.7932 -1.444604,2.5769 -0.441285,0.78373 -1.210697,2.1581 -1.709846,3.05409 -0.499129,0.89603 -1.1115,1.982 -1.360815,2.41323 -0.302775,0.52372 -0.443944,0.85969 -0.425031,1.0118 0.02723,0.21886 -0.01182,0.26507 -0.99325,1.17221 -0.562214,0.51906 -1.038754,0.96039 -1.059474,0.98022 -0.02248,0.0181 -0.167624,-0.0991 -0.32595,-0.26402 l -0.288502,-0.29931 -6.223494,6.19269 c -3.4254527,3.40345 -6.2850144,6.30703 -6.3682681,6.43871 l -0.145001,0.2458 4.1722951,4.23421 c 2.294727,2.32875 4.242474,4.26074 4.328003,4.29347 0.17973,0.0685 0.339495,-0.0198 0.894343,-0.49415 0.496662,-0.42403 34.788692,-34.58157 34.839303,-34.70195 z"
       id="path860" />
  </g>
</svg>
