<?xml version="1.0" encoding="UTF-8" standalone="no"?>
<!-- Created with Inkscape (http://www.inkscape.org/) -->

<svg
   xmlns:dc="http://purl.org/dc/elements/1.1/"
   xmlns:cc="http://creativecommons.org/ns#"
   xmlns:rdf="http://www.w3.org/1999/02/22-rdf-syntax-ns#"
   xmlns:svg="http://www.w3.org/2000/svg"
   xmlns="http://www.w3.org/2000/svg"
   xmlns:sodipodi="http://sodipodi.sourceforge.net/DTD/sodipodi-0.dtd"   
   width="220"
   height="79"
   viewBox="0 0 58.208336 20.902083"
   version="1.1"
   id="svg8"   
   sodipodi:docname="telescopic.svg" >   
  <defs
     id="defs2" />
  <sodipodi:namedview
     id="base"
     pagecolor="#000000"
     bordercolor="#666666"
     borderopacity="1.0"
     showgrid="false"
     fit-margin-top="0"
     fit-margin-left="0"
     fit-margin-right="0"
     fit-margin-bottom="0"
     units="px" />
  <metadata
     id="metadata5">
    <rdf:RDF>
      <cc:Work
         rdf:about="">
        <dc:format>image/svg+xml</dc:format>
        <dc:type
           rdf:resource="http://purl.org/dc/dcmitype/StillImage" />
        <dc:title />
      </cc:Work>
    </rdf:RDF>
  </metadata>
  <g
     id="layer1"
     transform="translate(0.1032419,-276.41944)">
    <path
       style="fill:none;stroke:#ffffff;stroke-width:0.40000001;stroke-miterlimit:4;stroke-dasharray:none;stroke-opacity:1"
       d="m 40.80892,296.59106 c 0.101106,-0.0182 0.198015,-0.0473 0.215354,-0.0647 0.06004,-0.06 -0.107465,-0.26658 -0.228107,-0.28126 l -0.117559,-0.0143 0.147016,-0.0899 c 0.08086,-0.0495 0.209556,-0.0951 0.285993,-0.10138 0.206228,-0.017 0.273963,-0.0957 0.201613,-0.23431 -0.03172,-0.0608 -0.05917,-0.1496 -0.06099,-0.19739 l -0.0033,-0.0869 -0.03734,0.0869 c -0.03563,0.0829 -0.03748,0.0824 -0.04039,-0.0109 -0.0026,-0.0851 0.01875,-0.0977 0.165654,-0.0977 0.138233,0 0.17344,-0.0177 0.194904,-0.0978 0.01441,-0.0537 0.02646,-0.5529 0.02679,-1.1092 6.07e-4,-1.04533 -0.02282,-1.21356 -0.188175,-1.35068 -0.09261,-0.0768 -0.09279,-0.14117 -3.12e-4,-0.10567 0.05981,0.023 0.06693,0.007 0.04331,-0.0991 -0.01555,-0.0696 -0.04852,-0.24105 -0.07328,-0.38096 -0.08288,-0.4685 -0.327124,-0.84194 -0.628118,-0.96037 -0.04779,-0.0188 -0.97733,-0.0571 -2.06565,-0.0849 l -1.978762,-0.0508 -0.32375,-0.15502 c -0.178062,-0.0852 -0.416609,-0.2376 -0.530105,-0.33851 -0.113497,-0.10092 -0.20714,-0.16717 -0.208097,-0.14721 -9.55e-4,0.0199 -0.03115,-0.018 -0.06709,-0.0842 -0.03594,-0.0662 -0.05158,-0.14447 -0.03474,-0.17376 0.01684,-0.0293 0.01412,-0.0383 -0.0061,-0.0199 -0.07343,0.0668 -0.151054,-0.24555 -0.151054,-0.6077 v -0.36893 l 0.663183,0.0155 0.663183,0.0155 0.34688,0.20942 c 0.190785,0.11518 0.376206,0.22469 0.412047,0.24337 0.03585,0.0187 0.07131,0.0751 0.07882,0.1255 0.0081,0.0546 0.195318,0.23901 0.464655,0.45765 l 0.451007,0.36609 0.534546,0.0285 c 0.294002,0.0156 0.749593,0.047 1.012427,0.0697 0.262834,0.0227 0.806831,0.0619 1.208883,0.0872 l 0.731004,0.0459 0.435854,-0.24344 0.435854,-0.24345 0.436952,0.008 c 0.378407,0.007 0.444711,-0.003 0.49486,-0.0711 0.03185,-0.0436 0.05993,-0.11944 0.0624,-0.16864 0.0025,-0.0505 0.0235,-0.0178 0.04815,0.0752 0.03636,0.13701 0.08107,0.18403 0.267033,0.28081 l 0.223372,0.11624 1.824632,0.0299 c 1.003547,0.0164 2.567516,0.0415 3.475488,0.0559 3.222821,0.0507 3.992206,0.0768 4.06235,0.13753 0.05698,0.0494 0.886543,0.0828 1.615809,0.0651 0.07586,-0.002 0.172605,-0.0597 0.273497,-0.16359 0.08586,-0.0884 0.143363,-0.12751 0.127775,-0.0869 -0.0255,0.0665 0.01484,0.0739 0.40255,0.0739 0.373532,0 0.443543,-0.0118 0.525934,-0.0885 0.443859,-0.41353 0.742841,-2.33815 0.745482,-4.79887 0.0023,-2.11493 -0.199666,-3.48763 -0.567122,-3.85509 -0.11436,-0.11436 -0.1396,-0.12 -0.536679,-0.12 h -0.416676 l 0.02189,0.14119 c 0.02078,0.13401 0.01694,0.13142 -0.07541,-0.051 -0.155589,-0.30734 -0.256115,-0.3385 -1.121656,-0.34773 -0.49854,-0.005 -0.761554,0.008 -0.801267,0.0411 -0.05917,0.0492 -1.505242,0.0624 -2.323242,0.0212 -0.203098,-0.0102 -1.878503,-0.0307 -3.72312,-0.0454 l -3.353849,-0.0269 -0.262832,0.11795 c -0.198249,0.0889 -0.263553,0.14051 -0.26577,0.20977 -0.0029,0.0901 -0.0038,0.09 -0.05008,-0.006 -0.04451,-0.0923 -0.07295,-0.0978 -0.509294,-0.0978 H 42.92401 l -0.410942,-0.26388 -0.410943,-0.26389 -0.738541,0.0247 c -0.406198,0.0136 -1.197957,0.048 -1.759466,0.0763 l -1.020925,0.0516 -0.467019,0.34758 c -0.40541,0.30172 -0.467019,0.3641 -0.467019,0.47285 0,0.10348 -0.01441,0.12071 -0.08285,0.099 -0.05455,-0.0173 -0.199234,0.0429 -0.423575,0.17624 -0.370987,0.22052 -0.381725,0.22212 -1.345773,0.19913 l -0.309952,-0.008 0.0059,-0.77111 0.0059,-0.77113 -0.575628,-0.0121 -0.575628,-0.0121 v 0.14788 c 0,0.0813 -0.01122,0.2041 -0.02494,0.27279 l -0.02494,0.1249 -0.333469,-0.01 c -0.18341,-0.005 -0.437904,-0.0101 -0.565547,-0.0108 l -0.232076,-0.002 0.01485,-0.27151 0.01486,-0.27153 -0.483648,-0.0122 -0.483648,-0.0122 -0.0283,0.1643 c -0.01557,0.0903 -0.03924,0.21932 -0.05262,0.28659 l -0.02432,0.12231 -0.484665,-0.009 c -0.266567,-0.005 -0.518877,-0.0173 -0.560691,-0.0275 -0.08732,-0.0212 -0.101852,-0.19972 -0.03137,-0.38511 0.02456,-0.0646 0.03719,-0.12494 0.02806,-0.13407 -0.03484,-0.0349 -1.054837,-0.0522 -1.108766,-0.0189 -0.111656,0.069 -0.227349,0.65157 -0.219677,1.10617 l 0.0072,0.4287 -1.054224,-0.008 -1.054224,-0.008 -0.211458,-0.17829 -0.211457,-0.17831 0.130461,-0.0794 c 0.127563,-0.0776 0.130461,-0.0871 0.130461,-0.42809 v -0.34875 l -0.19281,-0.0936 -0.192811,-0.0937 -0.02998,-0.3832 c -0.01649,-0.21077 -0.02886,-0.39807 -0.0275,-0.41622 0.0014,-0.0182 -0.02377,-0.0623 -0.05584,-0.0982 -0.04517,-0.0505 -0.05286,-0.18949 -0.03413,-0.61686 0.02275,-0.51892 0.02963,-0.55248 0.115711,-0.56478 0.07998,-0.0114 0.09495,-0.0514 0.11871,-0.31716 0.01495,-0.16726 0.02961,-0.49206 0.03258,-0.72178 l 0.0054,-0.41766 -0.162913,-0.10856 c -0.455553,-0.30356 -0.731441,-0.41992 -1.100115,-0.46402 -0.465256,-0.0556 -0.900012,-0.071 -0.937804,-0.0333 -0.0161,0.0161 -0.07977,0.0274 -0.141503,0.0249 l -0.112229,-0.004 0.108609,-0.0348 0.108608,-0.0348 -0.11947,-0.004 c -0.06571,-0.002 -0.11947,0.0152 -0.11947,0.0391 0,0.0239 -0.04399,0.0432 -0.09775,0.0428 -0.07935,-4.8e-4 -0.08548,-0.009 -0.03258,-0.0434 0.04803,-0.0315 0.03091,-0.0375 -0.06516,-0.0231 -0.307133,0.0464 -1.146988,0.0666 -1.243523,0.0298 -0.06451,-0.0245 -0.26979,-0.0238 -0.530687,0.002 -0.379425,0.0372 -0.474542,0.0657 -0.878744,0.26215 l -0.453265,0.22038 v 0.7314 0.73139 l 0.108609,0.0273 0.10861,0.0273 v 0.58178 c 0,0.47514 -0.01137,0.58178 -0.06204,0.58178 -0.06931,0 -0.119709,0.30082 -0.128332,0.76604 -0.0049,0.26534 -0.0096,0.27646 -0.114928,0.27652 -0.0604,5e-5 -0.153253,0.0305 -0.206357,0.0677 -0.08525,0.0597 -0.09655,0.10595 -0.09655,0.39491 0,0.30653 0.008,0.33428 0.125575,0.43748 l 0.125577,0.11019 -0.144288,0.12669 -0.144286,0.12668 -1.338902,-0.0291 c -0.736396,-0.016 -1.348677,-0.0383 -1.360624,-0.0494 -0.01195,-0.0111 -0.01593,-0.30799 -0.0088,-0.65963 0.0073,-0.36456 -0.0062,-0.68955 -0.03151,-0.75613 l -0.0444,-0.11679 h -0.513022 -0.513021 l -0.226598,0.22945 c -0.124626,0.12619 -0.226592,0.25471 -0.226592,0.28561 0,0.0402 -0.06481,0.053 -0.228081,0.0451 -0.365842,-0.0179 -0.366615,-0.0185 -0.398364,-0.29912 -0.01701,-0.15034 -0.05247,-0.26211 -0.0874,-0.27552 -0.03233,-0.0124 -0.255003,-0.0237 -0.494827,-0.0251 l -0.436045,-0.003 -0.259015,0.21643 c -0.14246,0.11903 -0.269871,0.24472 -0.283143,0.27931 -0.02966,0.0773 -0.439216,0.085 -0.499281,0.01 -0.02191,-0.0276 -0.0532,-0.14256 -0.06954,-0.2555 -0.01634,-0.11293 -0.04331,-0.21375 -0.05995,-0.22403 -0.01662,-0.0103 -0.255543,-0.0318 -0.530924,-0.0477 l -0.500692,-0.029 -0.23439,0.16123 c -0.276567,0.19025 -0.435254,0.3523 -0.439654,0.44898 -0.0018,0.0383 -0.01831,0.1764 -0.03682,0.30685 -0.03127,0.22039 -0.01775,0.36329 0.05616,0.59354 0.02921,0.091 0.02694,0.0914 -0.177926,0.028 -0.114137,-0.0354 -0.412788,-0.14209 -0.663675,-0.23722 -0.752896,-0.28548 -0.731225,-0.28352 -3.4537684,-0.31278 -1.361958,-0.0147 -3.375568,-0.0377 -4.474691,-0.0513 -1.877212,-0.0232 -2.007404,-0.0198 -2.146775,0.0545 -0.290217,0.15481 -0.534418,0.79573 -0.708813,1.86033 -0.07909,0.48281 -0.09296,0.7539 -0.09555,1.86808 -0.0031,1.34906 0.0196,1.62098 0.199863,2.3894 0.08816,0.37582 0.272199,0.83684 0.391713,0.98124 0.165966,0.20054 0.53288,0.24431 2.120617,0.25293 0.63319,0.004 1.376076,0.0147 1.650857,0.025 0.274781,0.0104 1.496632,0.0299 2.715226,0.0436 1.218593,0.0136 2.30543,0.0354 2.4151914,0.0484 0.277739,0.0328 0.662922,-0.0455 1.305242,-0.26549 0.302336,-0.10356 0.614778,-0.1947 0.694311,-0.20254 0.141982,-0.014 0.145344,-0.0103 0.185255,0.20297 0.02711,0.14485 0.02372,0.35473 -0.01016,0.62994 -0.07144,0.58017 -0.06304,0.83069 0.03677,1.09746 0.118136,0.31574 0.448572,0.65147 0.70187,0.7131 0.103877,0.0253 0.359927,0.0974 0.568998,0.16034 0.209073,0.0629 0.55119,0.16421 0.760263,0.22512 0.209073,0.0609 0.565854,0.16783 0.792847,0.23765 1.141137,0.35097 1.761247,0.52052 1.904837,0.52085 0.289699,6.5e-4 1.108701,0.12513 1.680224,0.2554 0.310092,0.0707 1.081868,0.30394 1.715058,0.51836 l 1.151257,0.38986 1.977155,0.0258 1.977157,0.0258 0.694625,0.19583 c 0.382046,0.10772 0.717926,0.19588 0.746404,0.19591 0.03725,4e-5 0.04583,0.0883 0.03059,0.31504 -0.03572,0.53093 -0.05964,0.65888 -0.148379,0.7935 -0.09985,0.15149 -0.111296,0.24524 -0.02595,0.21249 0.03305,-0.0127 0.135687,0.009 0.228079,0.0479 0.41134,0.17364 1.081499,0.25807 2.057782,0.25921 0.685761,8.2e-4 0.970738,-0.0144 1.072107,-0.0572 0.134046,-0.0566 0.230464,-0.18066 0.140385,-0.18066 -0.02456,0 -0.03394,-0.0173 -0.02085,-0.0385 0.01309,-0.0212 -0.01508,-0.0487 -0.0626,-0.0611 -0.04752,-0.0124 -0.0864,-0.044 -0.0864,-0.0701 0,-0.0301 0.115605,-0.0473 0.314966,-0.0469 0.501329,9.7e-4 4.51451,0.17583 5.984358,0.26074 0.418144,0.0241 0.95576,0.0546 1.194699,0.0678 0.610334,0.0336 0.799133,0.0549 0.878692,0.0995 0.06022,0.0337 0.0569,0.0454 -0.0255,0.0894 -0.05211,0.0279 -0.118764,0.0367 -0.148139,0.0195 -0.02938,-0.0172 -0.01919,0.008 0.02262,0.0557 0.04182,0.0478 0.07603,0.10759 0.07603,0.13285 0,0.0722 0.259046,0.17682 0.5661,0.2285 0.356452,0.06 1.612354,0.0941 1.855075,0.0503 z m -15.953859,-5.56468 -1.042646,-0.0341 -2.063573,-0.59533 c -1.273068,-0.36728 -2.156629,-0.64493 -2.306496,-0.7248 -0.133609,-0.0713 -0.338145,-0.22615 -0.454525,-0.34431 l -0.211599,-0.21483 h 1.054237 1.054238 l 0.297299,0.25588 c 0.308097,0.26517 0.606146,0.40722 0.96845,0.46155 0.141478,0.0212 0.222286,0.0603 0.267564,0.1294 0.106476,0.1625 0.431307,0.29605 0.646189,0.26567 0.55331,-0.0782 0.647806,-0.079 0.903054,-0.008 0.289347,0.0812 0.458686,0.053 0.667224,-0.11103 0.09152,-0.072 0.236709,-0.0978 0.839004,-0.14924 1.124613,-0.0961 1.448504,-0.19655 1.879587,-0.58338 l 0.152053,-0.13644 1.101121,0.0135 1.101121,0.0135 -0.01862,0.54061 c -0.01241,0.36044 -0.03561,0.54629 -0.0696,0.55762 -0.02805,0.01 -0.03796,0.0398 -0.02204,0.0676 0.01593,0.0279 0.01338,0.0365 -0.0057,0.0193 -0.01904,-0.0172 -0.130077,0.0545 -0.246746,0.15944 -0.252224,0.22678 -0.535339,0.37187 -0.862099,0.44183 -0.247824,0.0531 -1.504698,0.0444 -3.627541,-0.0251 z"
       id="path2528"
       
       sodipodi:nodetypes="cccccscccscscccccccsccsccccscccccccccscccccccsscssccccsccssccccccsccccsccccsccsccscccccsccccccccccsccccccsccccccsccccccsccccccccccccsccsccccccccsscccsccccccccccccsccccccccccsccccccccscscccccsccccccccscccccccsccsccccsccscscccccssccccscccccssscccscccccccccccc" />
  </g>
</svg>
