<?xml version="1.0" encoding="UTF-8" standalone="no"?>
<!-- Created with Inkscape (http://www.inkscape.org/) -->

<svg
   xmlns:dc="http://purl.org/dc/elements/1.1/"
   xmlns:cc="http://creativecommons.org/ns#"
   xmlns:rdf="http://www.w3.org/1999/02/22-rdf-syntax-ns#"
   xmlns:svg="http://www.w3.org/2000/svg"
   xmlns="http://www.w3.org/2000/svg"
   xmlns:sodipodi="http://sodipodi.sourceforge.net/DTD/sodipodi-0.dtd"
   xmlns:inkscape="http://www.inkscape.org/namespaces/inkscape"
   width="220"
   height="235"
   viewBox="0 0 58.208332 62.177085"
   version="1.1"
   id="svg8"
   inkscape:version="0.92.3 (2405546, 2018-03-11)"
   sodipodi:docname="smock.svg">
  <defs
     id="defs2" />
  <sodipodi:namedview
     id="base"
     pagecolor="#000000"
     bordercolor="#666666"
     borderopacity="1.0"
     inkscape:pageopacity="0"
     inkscape:pageshadow="2"
     inkscape:zoom="2.8"
     inkscape:cx="56.023351"
     inkscape:cy="60.074399"
     inkscape:document-units="px"
     inkscape:current-layer="layer1"
     showgrid="false"
     units="px"
     inkscape:window-width="3440"
     inkscape:window-height="1377"
     inkscape:window-x="-8"
     inkscape:window-y="-8"
     inkscape:window-maximized="1" />
  <metadata
     id="metadata5">
    <rdf:RDF>
      <cc:Work
         rdf:about="">
        <dc:format>image/svg+xml</dc:format>
        <dc:type
           rdf:resource="http://purl.org/dc/dcmitype/StillImage" />
        <dc:title></dc:title>
      </cc:Work>
    </rdf:RDF>
  </metadata>
  <g
     inkscape:label="Layer 1"
     inkscape:groupmode="layer"
     id="layer1"
     transform="translate(0,-234.8229)">
    <path
       style="fill:none;stroke:#ffffff;stroke-width:0.40000001;stroke-miterlimit:4;stroke-dasharray:none;stroke-opacity:1"
       d="m 26.599732,295.85175 c -0.05066,-0.0506 -0.07487,-0.15513 -0.07487,-0.32298 0,-0.29517 6.58e-4,-0.29468 -0.575075,-0.42802 -0.718212,-0.16632 -1.474044,-0.23884 -2.967384,-0.28472 -3.962154,-0.12174 -5.431092,-0.24234 -6.101573,-0.50089 -0.710447,-0.27398 -1.442453,-0.80112 -1.946885,-1.402 -0.769685,-0.91685 -1.104454,-1.68239 -1.106045,-2.52926 -3.65e-4,-0.19905 0.08157,-1.36876 0.182095,-2.59933 0.203105,-2.48629 0.673644,-9.52216 0.737291,-11.02454 0.04108,-0.96995 0.07628,-1.27562 0.322976,-2.80638 0.404482,-2.50968 0.417237,-2.61074 0.598066,-4.73861 0.0258,-0.30364 0.05642,-0.65558 0.06804,-0.7821 0.01162,-0.12652 0.04128,-0.54057 0.06592,-0.92012 0.130504,-2.01103 0.13207,-1.99178 -0.142703,-1.75331 l -0.168897,0.14659 -0.305379,2.16053 c -0.167959,1.1883 -0.418229,2.94724 -0.556156,3.90878 -0.251383,1.75245 -0.451174,3.56033 -0.7067,6.39482 -0.335354,3.71998 -0.465909,5.87642 -0.553927,9.14947 -0.04849,1.80299 -0.04364,1.77451 -0.332557,1.95165 -0.47354,0.29031 -2.94674,0.80442 -4.4994323,0.9353 -0.9834856,0.0829 -2.4048216,-0.005 -3.4274422,-0.212 -0.459412,-0.093 -0.6215385,-0.14193 -0.9541932,-0.28809 -0.2495363,-0.10963 -0.267945,-0.12902 -0.3337589,-0.35148 -0.060309,-0.20385 -0.2535373,-2.217 -0.2533234,-2.63925 6.78e-5,-0.1402 0.010125,-0.14951 0.161097,-0.14951 0.1224347,0 0.1611753,-0.0193 0.1616674,-0.0805 3.477e-4,-0.0443 0.020645,-0.93967 0.045086,-1.98976 0.1085155,-4.66242 0.3743339,-9.55951 0.6692635,-12.32959 0.2919562,-2.74219 1.491523,-8.98544 2.3932199,-12.45572 0.5105119,-1.96476 1.1108909,-3.80429 1.7006141,-5.21056 0.1432474,-0.34161 0.4042719,-0.97304 0.5800534,-1.40319 0.32681,-0.79973 0.563711,-1.2536 0.9725537,-1.86324 0.289454,-0.43163 0.869928,-1.24641 1.217865,-1.70947 0.145593,-0.19378 0.435412,-0.59748 0.644046,-0.89713 0.751125,-1.07879 1.352632,-1.68193 2.772074,-2.77959 0.486182,-0.37597 1.580577,-1.14666 1.628284,-1.14666 0.01118,0 0.172133,-0.0888 0.357672,-0.19729 0.432364,-0.25287 0.997958,-0.50807 1.349475,-0.6089 0.15182,-0.0436 0.281409,-0.0838 0.287975,-0.0893 0.02322,-0.0197 -0.36857,-1.20021 -0.454164,-1.36844 -0.120624,-0.23708 -0.113194,-0.43101 0.01985,-0.51817 0.05868,-0.0385 0.332994,-0.14993 0.609579,-0.24774 l 0.50288,-0.17783 0.280591,-0.52916 c 0.568925,-1.07294 1.61148,-2.41853 2.398508,-3.09564 0.56108,-0.48273 0.942615,-0.67008 2.096929,-1.02971 1.385957,-0.43178 3.640072,-0.68786 5.251349,-0.59659 1.422939,0.0806 2.906363,0.32882 3.828854,0.64064 0.207531,0.0702 0.497557,0.15144 0.644504,0.18065 1.572443,0.31245 2.211922,0.51251 2.887661,0.90336 0.456171,0.26387 1.065018,0.73301 1.285386,0.99046 0.284232,0.33206 1.260745,1.86469 1.511548,2.37235 0.05976,0.12096 0.183104,0.36486 0.274097,0.54198 0.09099,0.17712 0.201995,0.42223 0.246671,0.54467 0.05126,0.14048 0.118472,0.2368 0.182151,0.26101 0.0555,0.0211 0.114339,0.0733 0.130739,0.11609 0.0238,0.062 0.04324,0.0666 0.09627,0.0226 0.08239,-0.0683 0.162494,-0.024 0.162494,0.09 0,0.057 0.05339,0.10334 0.159391,0.13833 0.08766,0.0289 0.196353,0.0997 0.24153,0.1572 0.04517,0.0576 0.185654,0.14173 0.312171,0.18714 0.282089,0.10125 0.408264,0.21196 0.567345,0.49791 0.09733,0.17495 0.265583,0.32854 0.812834,0.74199 0.379548,0.28674 0.73151,0.5601 0.782137,0.60747 0.05062,0.0473 0.164492,0.14213 0.253033,0.21061 0.08854,0.0684 0.30553,0.26042 0.482197,0.42658 0.32837,0.3088 0.396199,0.34118 1.010107,0.48217 0.294503,0.0676 0.894579,0.43209 1.459107,0.88619 0.949765,0.76396 2.055445,2.1854 2.700162,3.47128 0.22383,0.44643 1.030169,2.50623 1.365605,3.48844 0.09505,0.27834 0.188167,0.52677 0.206919,0.55207 0.129338,0.17452 0.84581,2.75654 0.944688,3.40445 0.01544,0.10125 0.109696,0.52092 0.209441,0.93267 0.09975,0.41176 0.221542,0.93968 0.270649,1.17315 0.04911,0.23348 0.139452,0.65223 0.200761,0.93057 0.263029,1.19415 0.30911,1.41853 0.439314,2.13928 0.301088,1.66665 0.486908,3.16139 0.62627,5.03764 0.03947,0.53137 0.102525,1.35948 0.14012,1.84025 0.246814,3.15586 0.407305,9.73286 0.29974,12.28359 -0.05642,1.33804 -0.115338,2.29717 -0.168649,2.74565 l -0.03107,0.26133 0.155476,0.0292 0.155477,0.0292 0.0179,0.92864 c 0.0098,0.51076 0.02019,1.16673 0.023,1.45771 l 0.0051,0.52907 -1.334173,0.0151 c -1.078955,0.0122 -1.450204,-5.2e-4 -1.940734,-0.066 -0.579868,-0.0774 -0.641627,-0.0774 -1.403181,5.2e-4 -1.137985,0.11659 -1.914781,0.16741 -2.153796,0.14091 -0.113864,-0.0127 -0.517553,-0.0654 -0.897085,-0.11749 -0.72553,-0.0994 -0.778818,-0.12118 -0.94185,-0.38497 -0.108589,-0.1757 -0.127407,-0.73006 -0.164035,-4.83273 -0.05522,-6.18436 -0.113799,-10.20013 -0.158733,-10.88041 -0.118421,-1.79281 -0.147472,-2.1391 -0.347344,-4.14053 -0.10645,-1.06594 -0.38652,-2.86987 -0.529211,-3.40865 -0.04206,-0.15879 -0.05206,-0.16537 -0.25641,-0.16845 l -0.212649,-0.004 0.02476,0.39847 c 0.01362,0.21917 0.06764,0.97815 0.12006,1.68665 0.05242,0.70848 0.116395,1.79538 0.14217,2.4153 0.02577,0.61994 0.09745,1.85175 0.159277,2.73737 0.165257,2.36709 0.264768,4.54813 0.263435,5.77374 -6.96e-4,0.59462 0.02779,1.46414 0.0632,1.93225 0.05863,0.77516 0.171494,2.86716 0.364875,6.76287 0.07462,1.5032 0.09473,1.70222 0.171989,1.70222 0.0253,0 0.03386,0.0464 0.01902,0.10322 -0.01485,0.0568 0.04346,0.48634 0.129546,0.95463 0.210358,1.14413 0.226592,1.32752 0.164957,1.86353 -0.09681,0.84196 -0.246836,1.21447 -0.586786,1.457 -1.584619,1.13056 -4.417076,2.20072 -6.189543,2.33856 -0.782589,0.061 -3.17261,0.0568 -3.784245,-0.006 -0.278335,-0.0287 -0.920119,-0.0519 -1.426183,-0.0514 -1.027013,9.1e-4 -1.707623,0.0742 -2.662839,0.28654 -1.273925,0.28314 -3.220366,0.64806 -3.806636,0.71364 -0.205087,0.0229 -0.274179,0.0134 -0.333542,-0.0459 z"
       id="path5114"
       inkscape:connector-curvature="0"
       sodipodi:nodetypes="cscccscscccscccscsccsccccscscsccccccscccsccccccccccsccccccscccccccccccccccccccccccccccccccccsccsccccccccccsccccccccccc" />
  </g>
</svg>
