<?xml version="1.0" encoding="UTF-8" standalone="no"?>
<!-- Created with Inkscape (http://www.inkscape.org/) -->

<svg
   xmlns:dc="http://purl.org/dc/elements/1.1/"
   xmlns:cc="http://creativecommons.org/ns#"
   xmlns:rdf="http://www.w3.org/1999/02/22-rdf-syntax-ns#"
   xmlns:svg="http://www.w3.org/2000/svg"
   xmlns="http://www.w3.org/2000/svg"
   xmlns:sodipodi="http://sodipodi.sourceforge.net/DTD/sodipodi-0.dtd"
   width="220"
   height="235"
   viewBox="0 0 58.208332 62.177085"
   version="1.1"
   id="svg8"
   sodipodi:docname="knife.svg">
  <defs
     id="defs2" />
  <sodipodi:namedview
     id="base"
     pagecolor="#000000"
     bordercolor="#666666"
     borderopacity="1.0"
     showgrid="false"
     units="px"/>
  <metadata
     id="metadata5">
    <rdf:RDF>
      <cc:Work
         rdf:about="">
        <dc:format>image/svg+xml</dc:format>
        <dc:type
           rdf:resource="http://purl.org/dc/dcmitype/StillImage" />
        <dc:title></dc:title>
      </cc:Work>
    </rdf:RDF>
  </metadata>
  <g
     id="layer1"
     transform="translate(0,-234.8229)">
    <path
       style="fill:none;stroke:#ffffff;stroke-width:0.4;stroke-opacity:1;stroke-miterlimit:4;stroke-dasharray:none"
       d="m 27.097538,294.55417 c -0.143931,-0.10887 -0.363773,-0.19986 -0.488534,-0.20223 -0.291048,-0.006 -0.450452,-0.49822 -0.242319,-0.74901 0.104892,-0.12638 0.128736,-0.41363 0.06941,-0.83612 -0.04971,-0.35397 -0.120759,-1.24117 -0.15789,-1.97153 -0.05425,-1.06711 -0.02155,-1.4378 0.16646,-1.8874 0.144773,-0.3462 0.239305,-0.94494 0.247968,-1.57059 0.01205,-0.87082 0.04634,-1.00852 0.247126,-0.99239 0.315701,0.0253 0.294791,-0.17846 -0.0365,-0.35576 -0.24076,-0.12886 -0.26963,-0.28228 -0.26963,-1.43292 0,-1.17525 0.02372,-1.29482 0.26963,-1.35914 0.148297,-0.0387 0.26963,-0.12977 0.26963,-0.20222 0,-0.0724 -0.121333,-0.16344 -0.26963,-0.20223 -0.246413,-0.0645 -0.26963,-0.18388 -0.26963,-1.3872 0,-1.25027 0.0153,-1.32101 0.303334,-1.40219 l 0.303333,-0.0855 -0.32599,-0.27352 c -0.281904,-0.23654 -0.334384,-0.41854 -0.388063,-1.3458 -0.05678,-0.98077 -0.04047,-1.07244 0.191175,-1.07433 0.212851,-0.002 0.22099,-0.0229 0.05103,-0.13275 -0.172819,-0.11169 -0.167918,-0.13099 0.03371,-0.13275 0.330276,-0.003 0.301834,-0.49264 -0.03371,-0.58039 -0.243242,-0.0636 -0.269629,-0.18388 -0.269629,-1.22905 0,-0.91573 0.04048,-1.15856 0.193137,-1.15856 0.216524,0 0.40896,-0.46333 0.279461,-0.67286 -0.04624,-0.0748 -0.171487,-0.13602 -0.278333,-0.13602 -0.141744,0 -0.194524,-0.17313 -0.195224,-0.64037 -5.6e-4,-0.3522 -0.03963,-1.04987 -0.0869,-1.55038 l -0.08594,-0.91 h -2.190529 c -2.305782,0 -2.386467,-0.022 -2.297864,-0.62566 0.04831,-0.32913 0.66917,-0.43517 2.60627,-0.44508 l 1.516668,-0.008 v -2.10252 c 0,-1.90006 -0.02648,-2.13971 -0.27498,-2.48869 -0.267109,-0.37512 -0.274032,-0.53978 -0.241812,-5.75046 0.05517,-8.92261 0.177338,-12.32017 0.493427,-13.72279 0.564149,-2.50337 1.501007,-4.75144 2.782006,-6.67565 0.940742,-1.4131 1.229843,-1.72614 1.418189,-1.5356 0.06653,0.0672 0.248895,1.06268 0.405264,2.21199 0.311034,2.28608 1.212723,7.58291 1.617958,9.50445 0.233277,1.10616 0.25821,1.93838 0.282251,9.42118 0.02404,7.48258 0.0069,8.21877 -0.19463,8.33152 -0.180209,0.10085 -0.221002,0.35628 -0.221002,1.38384 v 1.26017 l 2.190743,-0.0648 c 1.204909,-0.0357 2.52441,-0.0138 2.932226,0.0487 0.702173,0.10758 0.74365,0.13579 0.782362,0.53233 0.03659,0.37478 -0.0041,0.42773 -0.387593,0.50443 -0.23566,0.0472 -1.634224,0.0857 -3.10792,0.0857 h -2.679447 v 1.53464 c 0,1.42127 -0.01992,1.53986 -0.269629,1.60516 -0.148298,0.0387 -0.26963,0.17287 -0.26963,0.29798 0,0.1251 0.121332,0.25919 0.26963,0.29797 0.245159,0.0641 0.269629,0.18389 0.269629,1.3198 0,1.13592 -0.02447,1.2557 -0.269629,1.31981 -0.148298,0.0387 -0.26963,0.14253 -0.26963,0.23057 0,0.088 0.121332,0.19178 0.26963,0.23056 0.19957,0.0522 0.269629,0.18389 0.269629,0.50686 0,0.23999 0.03829,0.80265 0.08507,1.25033 0.07839,0.75 0.0625,0.82114 -0.202222,0.90516 -0.362546,0.11506 -0.373099,0.42358 -0.01767,0.51652 0.245071,0.0641 0.26963,0.1839 0.26963,1.31531 0,1.02574 -0.04151,1.27708 -0.235926,1.42828 -0.224692,0.17473 -0.224692,0.19021 0,0.32489 0.199195,0.1194 0.235926,0.34851 0.235926,1.47164 0,0.89101 -0.05175,1.34746 -0.156741,1.38246 -0.0862,0.0288 -0.171221,0.15092 -0.188922,0.27152 -0.02045,0.13937 0.03667,0.19287 0.15674,0.14679 0.149393,-0.0573 0.188923,0.10089 0.188923,0.75619 0,0.57697 0.08638,0.998 0.284389,1.38613 0.235519,0.46166 0.286543,0.81403 0.296916,2.05055 0.01702,2.02811 -0.05081,3.19793 -0.202288,3.48885 -0.06963,0.13373 -0.31989,0.361 -0.55614,0.50505 -0.373276,0.2276 -0.686658,0.26198 -2.392298,0.26242 -1.51767,4e-4 -2.022096,-0.0444 -2.224446,-0.19743 z"
       id="path839"
       sodipodi:nodetypes="cccccccccscscscccscccssscscccscccscssscssscscccscscscscscscscccsccscccscsccccc" />
  </g>
</svg>
