<?xml version="1.0" encoding="UTF-8"?>
<svg width="1425.6" height="506.93" version="1.1" viewBox="0 0 377.2 134.12" xmlns="http://www.w3.org/2000/svg">
 <g transform="translate(266.02 -823.24)">
  <path d="m-266.02 912.63h377.2" fill="#ca054d" stroke="#ca054d" stroke-width=".7276"/>
  <text x="-268.74124" y="899.91058" fill="#ffffff" font-family="Alata" font-size="27.94px" letter-spacing="2.9104px" stroke-width=".14552" word-spacing="0px" style="line-height:1.25" xml:space="preserve"><tspan x="-268.74124" y="899.91058" fill="#ffffff" font-size="97.014px" letter-spacing="2.9104px" stroke-width=".14552" word-spacing="0px">R A <tspan fill="#000000" letter-spacing="2.9104px" stroke-width=".14552" word-spacing="0px"><tspan fill="none" stroke-width=".14552">I</tspan> </tspan>F U</tspan></text>
  <path d="m-64.081 898.6c0.50691 1.7813 4.5841 4.224 6.3381 4.7191 1.0447 0.2986 1.4504 0.31845 2.0374 0.0997 0.28842-0.10747 0.61132-0.27654 0.71754-0.3757 0.28231-0.26351 0.52112-1.0916 0.43434-1.5062-0.0385-0.18474-0.07349-0.35882-0.07733-0.38681-0.0055-0.0281-0.17914-0.25636-0.38946-0.50743-0.21032-0.25108-0.35288-0.48912-0.31679-0.52899 0.0363-0.0396 0.01705-0.0445-0.0418-0.011-0.05913 0.0341-0.14952-0.011-0.20085-0.0986-0.05115-0.0881-0.09526-0.11952-0.0975-0.0697 0 0.0564-0.02915 0.0544-0.07063-5e-3 -0.0363-0.0522-0.21928-0.20983-0.40594-0.34997-0.18675-0.14008-0.33882-0.30079-0.33803-0.35706 0-0.0563 0.04455-0.0412 0.09739 0.0335 0.0853 0.12062 0.09189 0.12062 0.05897 0-0.02035-0.0746-0.09025-0.13568-0.15527-0.13568-0.06496 0-0.20411-0.12623-0.30934-0.2805-0.10504-0.15428-0.3228-0.45452-0.48361-0.66721-0.16086-0.21268-0.26662-0.42861-0.23494-0.47982 0.0319-0.0512 0.01595-0.0674-0.03465-0.0363-0.11398 0.0703-0.3931-0.22495-0.42626-0.45089-0.01326-0.0915-0.07475-0.16626-0.13624-0.16626-0.13649 0-0.37994-0.31587-0.31917-0.41415 0.0242-0.039 0-0.0969-0.0495-0.12865-0.05115-0.0319-0.06611-0.10186-0.033-0.15592 0.0374-0.06 0.01815-0.072-0.0484-0.0308-0.0617 0.0379-0.07755 0.11467-0.0363 0.17655 0.0396 0.0602 0.0061 0.038-0.07485-0.0495-0.08096-0.0873-0.16687-0.1391-0.1909-0.11506-0.05115 0.0506-0.22204-1.0094-0.3004-1.8607-0.0297-0.3234-0.09179-0.62667-0.13784-0.67397-0.1061-0.10901-0.10274-3.7721 0.0055-4.2564 0.044-0.19899 0.14575-0.62629 0.22643-0.94941 0.17583-0.70378 0.15614-1.3122-0.04235-1.3122-0.07465 0-0.26818-0.0558-0.42993-0.12402-0.2925-0.12337-0.29426-0.12782-0.29426-0.76384 0-1.098 0.18584-3.1447 0.36838-4.0567 0.19134-0.95667 0.21297-1.5336 0.08037-2.157-0.09559-0.44957-0.13773-1.5372-0.22485-5.8124l-0.05858-2.8723 0.21153-0.0154c0.11633-8e-3 0.27269-0.0204 0.34733-0.0264 0.07473-5e-3 0.24815-0.12326 0.38556-0.26081 0.13727-0.1375 0.29001-0.22506 0.3394-0.19459 0.13519 0.0836 0.10747-0.47856-0.04895-0.99435-0.0753-0.2481-0.15547-0.53306-0.1783-0.63327-0.44985-1.8337-1.0932-4.2447-1.479-5.8904-0.67901-0.10681-1.4466-3.787-1.4508-4.1226-0.0092-0.89238-0.29232-2.9257-0.47399-3.4031-0.06987-0.44754 0.85299 0.80789 0.91482 0.88159 0.37348 0.44539 0.74606 0.77182 0.79206 0.81378 0.25942 0.23656 0.94196 0.43494 0.54406-5e-3 -0.64498-0.67694-1.4575-1.8597-1.7121-2.5939-0.25452-0.73419-0.27163-0.74811-0.33433-0.70906-0.05743 0.0358-0.104 0.0314-0.10378-9e-3 2.09e-4 -0.0402 0.17346-0.1716 0.38467-0.29183 0.22892-0.13035 0.34735-0.16516 0.2935-0.0862-0.04961 0.0727-0.04092 0.0418 0.05666-0.0264 0.51108-0.35722 3.7121-2.3495 3.8483-2.2436 0.31149 0.17655-0.2231-0.24832 0.14557-0.19486 0.0374 5e-3 0.05776-0.0402 0.0451-0.1023-0.01265-0.0623 0.05115-0.10703 0.14184-0.0996 0.09042 8e-3 0.1413-0.01 0.11298-0.0379-0.05826-0.0582 0.21124-0.38275 0.31779-0.38275 0.03795 0 0.09783 0.13233 0.13266 0.29403 0.03465 0.1617 0.11946 0.40381 0.1881 0.53796 0.06858 0.1342 0.13618 0.31922 0.15019 0.41118 0.01425 0.092 0.11726 0.32252 0.2294 0.51243 0.52654 1.7946 2.3923-0.57475 3.6046-1.4726 0.02123-0.0159 0.10766-0.0214 0.08608-0.0501-0.274-0.36228-0.85593-1.0162-0.91653-1.5633-0.0121-0.10945-0.0154-0.17848-0.05669-0.15301-0.13196 0.0815-0.08035-0.11869 0.06072-0.23568 0.1094-0.0908 0.1355-0.0886 0.1415 0.0115 0.0038 0.0684 0.0418 0.0347 0.08608-0.0752 0.044-0.10967 0.24348-0.28259 0.44285-0.38428 0.3347-0.17061 0.38023-0.24079 0.59287-0.91339 0.12666-0.40078 0.23028-0.82016 0.23028-0.93203s0.04015-0.2437 0.08964-0.29298c0.0495-0.0495 0.11384-0.27115 0.14344-0.49308 0.0484-0.36124 0.01705-0.46013-0.29919-0.94622l-0.35299-0.54279 4.3332-0.022c3.434-0.0176 4.3192 0 4.2656 0.0904-0.05115 0.0847-0.0352 0.0883 0.06299 0.0143 0.07176-0.0539 0.27984-0.0946 0.46244-0.0905 0.18256 5e-3 0.32044-5e-3 0.30641-0.0181-0.06085-0.0608 0.14817-0.91042 0.30526-1.241 0.09459-0.19905 0.33087-0.51541 0.52513-0.70307l0.35326-0.34111 1.2214 0.0248c1.1592 0.0231 1.222 0.0154 1.2347-0.15361 0.0071-0.098-0.03575-0.20933-0.09576-0.24739-0.07007-0.0445-0.0396-0.0697 0.08437-0.0707 0.14536 0 0.2034-0.069 0.23331-0.27291 0.06435-0.43813-0.17666-0.58031-1.025-0.60484-0.39569-0.0115-0.76528-0.0489-0.82132-0.0837-0.0622-0.0385-0.07671-0.0225-0.03685 0.0412 0.0352 0.0574 0.0286 0.10439-0.01595 0.10439-0.16584 0-0.19756-0.12573-0.068-0.26889 0.07367-0.0813 0.14504-0.24745 0.15863-0.36916 0.0138-0.12177 0.0517-0.24184 0.08442-0.26692 0.033-0.0253-0.26402-0.0308-0.65978-0.0132-0.70693 0.0319-0.72431 0.0275-0.992-0.25228-0.21883-0.22886-0.374-0.29761-0.78854-0.34936-0.32591-0.0407-0.51606-0.10714-0.51606-0.1804 0-0.16082-0.22532-0.28732-0.5148-0.28897-0.2294 0-0.2404-0.0209-0.19356-0.34062 0.0275-0.18661 0.08213-0.4945 0.12179-0.68425 0.06475-0.30993 0.05005-0.35492-0.14324-0.44303-0.363-0.16527-0.49224 0.0324-0.49224 0.75389 0 0.35447-0.03905 0.62216-0.09053 0.62216-0.0495 0-0.1821 0.0916-0.29414 0.20355l-0.20362 0.20356-4.2545 0.0215-4.2546 0.0214 0.28434-0.18233c0.7827-0.63041 0.30604-1.6689 0.3547-2.1151 0.07325-0.6226-0.05714-0.78975-0.59093-0.75735-1.1789 0.20795-0.54409 0.80223-1.0471-0.72281-0.20593-0.63184-0.42312-0.74289-1.4634-0.74404-0.6703 0.0143-0.47008 0.0226-1.1652 0.0137-2.1605 0.22374-1.416-0.61468-1.656 1.1655-0.07865 0.56832-0.13277 0.70675-0.34161 0.87351-0.20801 0.13574-0.35556 0.15241-0.36168 0.37362-0.0055 0.13332-0.02145 0.63673-0.0418 1.1187l-0.0363 0.87631-0.39638-0.0231c-1.0405 0.20169-4.074 0.0462-4.0846-0.24029 0.85094-0.60302 0.65629-0.6754 1.0698-1.1223 0.40436-0.42444 0.77484-1.0265 1.1427-1.8571 0.39154-0.77742 0.1399-1.4672 0.4582-2.2194 0-0.05 0.05621-0.40112 0.12413-0.78078 0.02128-5.9563-4.0785-10.284-10.069-9.3017-0.84908 0.0429-1.5874 0.0658-2.1544 0.27093-0.36971 0.10857-0.749 0.29931-0.9817 0.49362-0.93202 0.62035-1.6744 1.6971-2.1322 2.7355-0.3761 0.78534-0.82924 2.2743-1.081 3.552-0.13238 0.67171-0.27544 1.3638-0.318 1.538-0.04235 0.17413-0.12424 0.84585-0.18161 1.4926-0.08137 2.5937-0.81261 5.5796-0.99412 8.0068 0 0.55033-0.20999 2.133-0.36004 2.7134-0.0451 0.17413-0.12793 0.52019-0.18424 0.76896-0.19944 0.88093-0.37335 1.4576-0.6958 2.3069-0.17942 0.47273-0.55028 1.4992-0.82407 2.2812-0.63635 1.7276-1.2554 2.8323-2.1903 4.4959-0.44104 0.58899-1.3315 1.9947-1.7781 2.354-0.29728 0.23364-0.21467 0.35827 0.10064 0.15186 1.0864-0.37378 1.375-1.0177 1.7442-1.4787 0.19683-0.23721 0.42971-0.5429 0.51749-0.6793 0.96751-0.92466 1.1894-1.9134 1.8832-2.9439 0.07507-0.0855 0.22358-0.32835 0.33-0.53982 0.10638-0.21148 0.21538-0.38445 0.24218-0.38445 0.02695 0 0.0264 0.0358 0 0.0794-0.02695 0.0435-0.13772 0.60346-0.24602 1.2439-0.21026 1.2438-0.28342 3.4098-0.14928 4.4212 0.16467 1.2419 0.45446 2.4435 0.71241 2.9542 0.1981 0.70603 0.27669 0.68178 0.80737 1.1157 0.11776 0.0703 0.119 0.0603 0.0099-0.0743-0.0693-0.0854-0.1067-0.17457-0.08311-0.19817 0.02365-0.0236 0.09742 0.0587 0.16396 0.1831 0.0666 0.1243 0.1753 0.22605 0.24156 0.22605 0.14004 0 0.15697-0.10747 0.0363-0.23067-0.33511-0.34271-0.86256-2.5914-0.94314-4.0212-0.0418-0.74629-0.0374-0.78853 0.03575-0.32092 0.0462 0.29617 0.12694 0.66797 0.17924 0.82621 0.05225 0.15829 0.087 0.32301 0.07711 0.36619-0.0099 0.0435 0.0061 0.13948 0.03465 0.21411 0.02915 0.0747 0.17864 0.5428 0.33258 1.0403 0.15395 0.49758 0.31736 0.98609 0.36316 1.0856 0.2552 0.55445 0.44611 1.0569 0.50347 1.325 0.0814 0.38016 0.20124 0.53311 0.36752 0.46931 0.08046-0.0308 0.1292 9e-3 0.1292 0.1034 0 0.22374 0.22104 0.11424 0.2564-0.12705 0.0165-0.11302 0.16934-0.38775 0.33946-0.6105 0.17017-0.22275 0.30938-0.44632 0.30938-0.49687 0-0.0506 0.0814-0.19541 0.18105-0.32191 0.09956-0.1265 0.18102-0.34909 0.18102-0.49456 0-0.14548 0.0308-0.24569 0.06787-0.22259 0.0374 0.0231 0.07023-0.0866 0.07298-0.24343 0.0083-0.45793 0.1375-1.097 0.2288-1.1299 0.0462-0.0165 0.0632-0.064 0.03795-0.10527-0.0253-0.0412 0.0115-0.33291 0.08249-0.64817 0.07084-0.31526 0.15686-0.83017 0.19107-1.1442 0.0341-0.31405 0.07668-0.55654 0.09432-0.53889 0.0176 0.0176 0.0797 0.50111 0.13788 1.0744l0.10572 1.0424-0.43148 0.98918c-0.23737 0.54406-0.59174 1.4166-0.78749 1.9391-0.19574 0.52244-0.41409 1.04-0.48526 1.1503-0.07112 0.11022-0.12935 0.32631-0.12935 0.48026 0 0.15394-0.03025 0.26119-0.06787 0.23837-0.0374-0.0231-0.07096 0.0964-0.07464 0.26493-0.27113 1.2895-2.9945 2.3228-2.9876 2.785-0.11779 0.64795-0.15107 1.4849 0.6533 1.5044 0.87354 0.64388 0.39223 0.46722 0.28384 0.58828-0.05991 0.10263-0.11242 0.61165-0.12145 1.1761-0.0087 0.54731-0.06213 1.4022-0.11874 1.8998-0.05653 0.49758-0.12816 1.9835-0.15917 3.302-0.06225 2.6445 0.0506 4.5291 0.28551 4.7637 0.11887 0.1188 0.13584 0.0473 0.14673-0.61848 0.0065-0.41404 0.03135-0.65103 0.0539-0.52662 0.31619 1.7214 0.4818 2.4033 0.60556 2.4938 0.0786 0.0574 0.14294 0.2046 0.14294 0.32708 0 0.31878-0.27072 1.0692-0.38566 1.0692-0.05335 0-0.07264 0.0242-0.0429 0.0544 0.0686 0.0686-0.89545 1.8352-1.1059 2.0264-0.55726 0.54291-0.67227 0.99429-0.9459 1.6007-0.20448 0.44979-0.3002 0.56579-0.4851 0.58801-0.45226 0.0544-0.5918 0.40496-0.61226 1.5386-0.85928 3.2328-1.2159 3.3452-1.5855 8.1757-0.0517 0.70026-0.12359 1.3823-0.15921 1.5157l-0.06492 0.2425c-0.8658 4.8729 0.06644-0.22765-1.1309 5.7438 0.19984 2.0792 0.24845 3.5868 1.9467 4.2394 0.45205 0.17556 1.5099 0.17958 1.9793 8e-3 0.82659-0.31361 1.1867-0.71879 1.4678-1.2392 0.0286-0.0898 0.14725-0.25855 0.2639-0.3751 0.46782-1.5107-0.29486-8.5193-0.33925-8.5107-0.39576 0.10813-0.11387-0.21323-0.0679-0.39979 1.3253-1.3423 2.4038-3.8918 3.5892-5.5508 0.21671-0.28666 0.39419-0.61231 0.39447-0.72374 0.08502-0.8068 1.2071-2.2734 1.1433-2.8493-0.25096-1.4131-0.89925-0.21291-0.21189-1.763 0.44937-0.49428 0.62143-1.185 0.97914-1.6961 0.10489-0.0769 0.68079-1.5366 0.98164-2.4878 0.55276-1.7477 1.085-2.9911 1.6915-3.9513 0.12072-0.19107 0.30343-0.56078 0.40606-0.82159 0.10264-0.26081 0.29804-0.71841 0.43418-1.017 0.13617-0.29854 0.38477-0.89903 0.55241-1.3344 0.27768-0.47009 0.298-1.2066 0.58944-1.5857 0.01045-0.0138 0.12822 0.0165 0.26143 0.0668 0.20096 0.0765 0.2531 0.0646 0.30673-0.0697 0.71098-0.62777 0.96999 0.66099 1.1598 1.1136 0.19948 0.46866 0.54835 1.2458 0.81014 1.8047 0.09242 0.69278 1.1442 1.5151 0.97951 2.15-0.03355 0.0544-0.0198 0.0736 0.03025 0.0423 0.1134-0.0701 0.32345 0.36773 0.24074 0.50155-0.03355 0.0539-0.0187 0.0717 0.03355 0.0396 0.13492-0.0834 0.50011 0.81812 0.51228 1.2646 0.02871 0.40755 0.25798 0.71995 0.36696 1.0512 0.34974 1.0726 0.39314 2.0775 0.15173 3.5143-0.10544 0.62761-0.19172 1.3095-0.19172 1.5153 0 0.25316-0.0396 0.37422-0.12172 0.37422-0.21295 0-0.45348 0.3542-0.44688 0.65796 0.0056 0.1606 0.01265 0.6176 0.0209 1.0157 0.0083 0.39803 0.07256 1.0087 0.1434 1.357 0.07084 0.34831 0.14382 0.71467 0.16218 0.81422 0.01815 0.0995 0.08582 0.30305 0.14989 0.45232 0.34229 1.3912 0.93127 2.7317 1.3489 4.0351 0.0429 0.13425 0.04675 0.37455-0.01705 0.68513-0.06379 0.31059-0.06506 0.50424 0.05115 0.73717 0.15872 0.28407-0.02618 0.45006-0.06637 0.70878-0.03465 0.23183-0.12898 0.89892-0.18333 1.0279-0.10042 0.23815-0.11028 0.3201-0.14042 1.1616" fill="none" stroke="#fff" stroke-linejoin="bevel" stroke-width=".67504" style="paint-order:normal"/>
  <text x="106.751" y="927.96936" direction="rtl" fill="#ffffff" font-family="Alata" font-size="13.97px" letter-spacing="0px" stroke-width=".14552" word-spacing="0px" style="line-height:0.5" xml:space="preserve"><tspan x="106.751" y="927.96936" direction="rtl" style="line-height:0.5">A I R S O F T</tspan><tspan x="106.751" y="942.59735" direction="rtl" style="line-height:0.5">L O A D O U T</tspan><tspan x="106.751" y="957.2254" direction="rtl" style="line-height:0.5">M A N A G E M E N T</tspan><tspan x="106.751" y="971.85339" direction="rtl" style="line-height:0.5"/></text>
 </g>
</svg>
