<?xml version="1.0" encoding="UTF-8" standalone="no"?>
<!-- Created with Inkscape (http://www.inkscape.org/) -->

<svg
   xmlns:dc="http://purl.org/dc/elements/1.1/"
   xmlns:cc="http://creativecommons.org/ns#"
   xmlns:rdf="http://www.w3.org/1999/02/22-rdf-syntax-ns#"
   xmlns:svg="http://www.w3.org/2000/svg"
   xmlns="http://www.w3.org/2000/svg"
   xmlns:sodipodi="http://sodipodi.sourceforge.net/DTD/sodipodi-0.dtd"   
   width="220"
   height="235"
   viewBox="0 0 58.208332 62.177085"
   version="1.1"
   id="svg8"   
   sodipodi:docname="elbow-pads.svg" >
  <defs
     id="defs2" />
  <sodipodi:namedview
     id="base"
     pagecolor="#000000"
     bordercolor="#666666"
     borderopacity="1.0"
     showgrid="false"
     units="px" />
  <metadata
     id="metadata5">
    <rdf:RDF>
      <cc:Work
         rdf:about="">
        <dc:format>image/svg+xml</dc:format>
        <dc:type
           rdf:resource="http://purl.org/dc/dcmitype/StillImage" />
        <dc:title></dc:title>
      </cc:Work>
    </rdf:RDF>
  </metadata>
  <g
     id="layer1"
     transform="translate(0,-234.8229)">
    <path
       style="fill:none;stroke:#ffffff;stroke-width:0.4;stroke-opacity:1;stroke-miterlimit:4;stroke-dasharray:none"
       d="m 34.479199,294.60697 c -0.818653,-0.14378 -1.872152,-0.2626 -3.118365,-0.35174 -0.743612,-0.0532 -1.72982,-0.1578 -2.191574,-0.23248 -1.233442,-0.19949 -2.186684,-0.30359 -3.637707,-0.39727 -1.146453,-0.074 -1.429041,-0.0707 -2.485965,0.0292 -2.052102,0.194 -2.154758,0.17339 -2.176139,-0.4367 -0.01097,-0.31303 -0.04689,-0.40953 -0.240793,-0.64698 -0.125345,-0.15349 -0.300326,-0.42626 -0.388844,-0.60617 -0.515635,-1.04797 -0.570315,-1.12746 -0.853518,-1.24077 -0.474669,-0.18993 -0.858528,-0.20349 -1.123531,-0.0397 -0.180216,0.11138 -0.259766,0.12791 -0.359269,0.0746 -0.241176,-0.12906 -1.232812,-1.30227 -1.273752,-1.50695 -0.02547,-0.12737 -0.07942,-0.19841 -0.15066,-0.19841 -0.15108,0 -0.664201,-0.54638 -0.719304,-0.76594 -0.02451,-0.0977 -0.0098,-0.42893 0.03278,-0.73618 0.04254,-0.30723 0.09322,-0.69109 0.112633,-0.853 0.01941,-0.16192 0.07745,-0.54463 0.12898,-0.85047 0.05153,-0.30584 0.169125,-1.10069 0.261333,-1.76634 0.09221,-0.66565 0.31281,-2.09344 0.490227,-3.17288 0.177417,-1.07943 0.351331,-2.36002 0.38647,-2.84578 0.08777,-1.21331 0.184905,-1.50572 0.650819,-1.95933 0.367995,-0.35829 0.882913,-0.65076 1.740393,-0.98854 0.215886,-0.085 0.402908,-0.16122 0.415605,-0.16929 0.04661,-0.0297 0.270573,-1.28171 0.46455,-2.59724 0.261283,-1.77201 0.261432,-2.44639 8.53e-4,-3.96005 -0.262476,-1.5248 -0.36644,-1.93088 -1.057162,-4.1292 -0.555129,-1.76676 -0.839454,-2.69957 -1.326047,-4.35043 -0.116659,-0.3958 -0.258293,-0.82804 -0.314739,-0.96055 l -0.102629,-0.24093 -0.34863,0.0354 c -0.259089,0.0263 -0.399038,0.082 -0.544893,0.21672 -0.301901,0.27897 -0.467609,0.33961 -0.972765,0.35599 -0.256564,0.009 -0.705024,0.0549 -0.996579,0.10356 -0.83104,0.13865 -0.839026,0.13219 -1.3208,-1.06767 -0.21949,-0.54663 -0.719345,-1.78873 -1.11079,-2.76022 -0.391446,-0.9715 -0.877929,-2.19321 -1.081073,-2.71494 -0.203146,-0.52172 -0.577277,-1.45647 -0.831403,-2.07721 -0.373999,-0.91354 -0.448906,-1.15317 -0.39307,-1.2575 0.03794,-0.0709 0.245235,-0.2254 0.460663,-0.34334 0.342751,-0.18766 0.387968,-0.23488 0.361992,-0.378 -0.13331,-0.73433 -0.139831,-0.7008 0.20236,-1.04028 0.174359,-0.17299 0.360828,-0.3285 0.414377,-0.34558 0.08158,-0.026 0.08423,-0.0599 0.01634,-0.20886 -0.09789,-0.21485 -0.106465,-0.60612 -0.01451,-0.66294 0.03657,-0.0226 0.04656,-0.0759 0.02222,-0.11834 -0.02435,-0.0425 -0.02075,-0.056 0.008,-0.0299 0.02875,0.026 0.138767,-0.0255 0.244479,-0.11449 0.10571,-0.089 0.241458,-0.16113 0.301667,-0.16041 0.300866,0.004 1.503866,-0.43925 1.801963,-0.66338 0.175271,-0.13178 0.74933,-0.42305 1.275691,-0.64727 0.526362,-0.22422 1.053771,-0.46599 1.172021,-0.53728 0.118251,-0.0713 0.480855,-0.259 0.80578,-0.41715 0.522868,-0.25448 2.871715,-1.75504 2.871715,-1.83458 0,-0.017 -0.03399,-0.01 -0.07553,0.0159 -0.04717,0.0292 -0.05775,0.0179 -0.02819,-0.0299 0.02604,-0.0421 0.07181,-0.0615 0.101705,-0.0429 0.0299,0.0185 0.329618,-0.13916 0.666035,-0.35032 0.33642,-0.21115 0.864945,-0.52891 1.174502,-0.70614 0.309558,-0.17721 0.765864,-0.4717 1.014013,-0.65437 0.587808,-0.43275 0.744907,-0.50856 1.401236,-0.67613 0.301564,-0.077 0.601841,-0.16865 0.667279,-0.20367 0.06544,-0.035 0.336347,-0.11927 0.602018,-0.18722 0.26567,-0.0679 0.625695,-0.19552 0.800055,-0.28349 0.343862,-0.17348 0.823361,-0.32233 1.408882,-0.43733 0.294609,-0.0579 0.465153,-0.14765 0.817751,-0.43051 0.743941,-0.5968 0.963273,-0.67642 1.919549,-0.69687 l 0.819835,-0.0175 0.405212,-0.30469 c 0.400508,-0.30114 0.409815,-0.30426 0.801562,-0.26874 0.352533,0.0319 0.414331,0.019 0.558988,-0.11684 0.143839,-0.13514 0.187058,-0.1444 0.373916,-0.0801 0.365151,0.12566 0.577961,0.15083 1.552392,0.18356 1.015448,0.0342 1.141969,0.061 1.895113,0.40314 0.587564,0.26691 0.688902,0.35279 0.894356,0.75794 0.158917,0.31338 0.659279,1.47819 0.793093,1.84627 0.177125,0.48721 0.964733,2.48467 1.831486,4.64483 1.092775,2.72345 1.19153,3.01339 1.192177,3.49998 7.11e-4,0.52117 -0.08843,0.77123 -0.48984,1.37442 -0.19683,0.29576 -0.34176,0.56381 -0.322068,0.59567 0.01969,0.0318 0.135174,0.0579 0.256631,0.0579 0.538948,0 1.705667,0.34193 2.453672,0.7191 1.61814,0.81593 3.033546,2.50733 3.55886,4.25283 0.405451,1.34724 0.60408,3.43925 0.496908,5.23361 -0.09683,1.62123 -0.190652,2.90453 -0.263037,3.5981 -0.03567,0.34183 -0.110321,1.0778 -0.165883,1.63551 -0.340951,3.42244 -0.742707,5.98103 -1.427864,9.09341 -0.421892,1.91648 -0.583494,2.67916 -1.219856,5.75696 -0.797065,3.85507 -0.885313,4.20441 -1.18742,4.70051 -0.219935,0.36116 -0.89063,1.04048 -1.308671,1.3255 -0.364097,0.24824 -0.375875,0.26603 -0.546894,0.82643 -0.09613,0.31502 -0.304867,1.07321 -0.463861,1.6849 -0.683897,2.63106 -0.797128,2.91154 -1.274617,3.15719 -0.175226,0.0901 -0.501111,0.37461 -0.775054,0.67652 -0.488015,0.53785 -0.782913,0.73033 -1.441265,0.94071 -0.197895,0.0632 -0.648251,0.29162 -1.000789,0.50753 -0.597588,0.36598 -1.287839,0.64873 -1.540069,0.63088 -0.05976,-0.004 -0.255854,-0.0336 -0.435758,-0.0651 z"
       id="path1003"       
       sodipodi:nodetypes="cccscccccscssccccssscccscsccccccccsccccccccccccccsccscccccccccccsccccccssccscccsssscccssccsccccccc" />
  </g>
</svg>
