<?xml version="1.0" encoding="UTF-8" standalone="no"?>
<!-- Created with Inkscape (http://www.inkscape.org/) -->

<svg
   xmlns:dc="http://purl.org/dc/elements/1.1/"
   xmlns:cc="http://creativecommons.org/ns#"
   xmlns:rdf="http://www.w3.org/1999/02/22-rdf-syntax-ns#"
   xmlns:svg="http://www.w3.org/2000/svg"
   xmlns="http://www.w3.org/2000/svg"
   xmlns:sodipodi="http://sodipodi.sourceforge.net/DTD/sodipodi-0.dtd"   
   width="220"
   height="235"
   viewBox="0 0 58.208332 62.177085"
   version="1.1"
   id="svg8"   
   sodipodi:docname="goggles.svg" >
  <defs
     id="defs2" />
  <sodipodi:namedview
     id="base"
     pagecolor="#000000"
     bordercolor="#666666"
     borderopacity="1.0"
     showgrid="false"
     units="px" />     
  <metadata
     id="metadata5">
    <rdf:RDF>
      <cc:Work
         rdf:about="">
        <dc:format>image/svg+xml</dc:format>
        <dc:type
           rdf:resource="http://purl.org/dc/dcmitype/StillImage" />
        <dc:title></dc:title>
      </cc:Work>
    </rdf:RDF>
  </metadata>
  <g     
     id="layer1"
     transform="translate(0,-234.8229)">
    <path
       style="fill:none;stroke:#ffffff;stroke-width:0.4;stroke-opacity:1;stroke-miterlimit:4;stroke-dasharray:none"
       d="m 36.715896,281.4163 c -0.308027,0 -0.496886,0.81791 0,0 0.934949,-1.53896 2.425058,-4.76015 3.222389,-6.9659 0.248736,-0.68811 0.7855,-1.40799 1.049832,-1.40799 0.092,0 0.49859,0.43255 0.903524,0.96123 0.958248,1.25107 3.137261,3.36017 4.143458,4.01051 l 0.792948,0.51251 c -0.503479,0.8282 4.231974,0.0876 4.250087,0.0934 2.330683,-0.6041 1.244225,-0.43296 3.807974,-2.16029 0.813081,-1.67271 1.296051,-2.88071 1.492303,-3.73254 0.291195,-1.26394 0.258932,-3.54925 -0.08389,-5.94254 l -0.284387,-1.98532 0.305669,-0.41344 c 0.390234,-0.52782 0.502038,-1.73107 0.222102,-2.39029 -0.106473,-0.25074 -0.429075,-0.72209 -0.716896,-1.04745 -0.433027,-0.48951 -0.552403,-0.75032 -0.691948,-1.51178 -0.09275,-0.50612 -0.222682,-0.98866 -0.288736,-1.07232 -0.06605,-0.0837 -0.465124,-0.19215 -0.886824,-0.2411 -0.630352,-0.0732 -0.791671,-0.14373 -0.906967,-0.39678 -0.485304,-1.06513 -4.421559,-2.28446 -8.896854,-2.75598 -3.083723,-0.32491 -6.757434,-1.09483 -9.716834,-2.03644 -0.933803,-0.29711 -2.323984,-0.68528 -3.089291,-0.86261 -2.353411,-0.54528 -2.508871,-0.59875 -2.508871,-0.86293 0,-0.42 -0.520706,-0.7768 -1.133633,-0.7768 -0.307022,0 -0.713836,-0.0592 -0.904035,-0.13147 -0.451693,-0.17174 -0.786209,0.01 -0.965228,0.52308 l -0.138447,0.39715 -1.617214,9.9e-4 c -1.172629,5e-4 -1.924396,0.0747 -2.734617,0.26918 -1.130081,0.27131 -1.807351,0.33537 -4.673349,0.44202 -1.743332,0.0649 -2.009404,0.001 -1.781724,-0.42384 0.268325,-0.50137 0.177876,-0.64242 -0.468792,-0.73106 -0.429632,-0.0589 -0.6959,-0.0285 -0.887349,0.10121 -0.998637,0.67667 -3.6725445,3.75547 -4.0827855,4.70101 -0.333483,0.76862 -1.018054,1.39038 -2.393559,2.1739 -1.643222,0.93604 -2.633014,1.77505 -3.351779,2.84122 -0.301649,0.44744 -0.9222047,1.21969 -1.3790134,1.71611 -1.37317654,1.49225 -1.39014414,2.0266 -0.1824853,5.74706 1.1120517,3.42592 1.5316457,4.10404 2.9937717,4.83828 0.373065,0.18735 0.726504,0.53225 1.082253,1.05611 0.290547,0.42785 0.712279,0.90894 0.937179,1.06908 0.224901,0.16015 0.524275,0.53464 0.665275,0.8322 0.432575,0.91291 0.607265,1.18413 1.013186,1.57302 0.568384,0.54454 1.057422,0.41009 1.4504025,-0.39879 0.169325,-0.34852 0.342464,-0.55536 0.408269,-0.48772 0.06284,0.0646 0.332538,0.62027 0.599324,1.23485 0.64725,1.49101 0.930179,1.83765 2.168247,2.6565 1.027371,0.6795 1.042496,0.6972 0.676749,0.79198 -0.527418,0.13667 -0.174315,-0.27635 0,0 7.23919,3.01541 23.394407,1.00974 22.580571,0.19281 z m -11.511059,-1.60749 c -4.016998,-0.42185 -6.011245,-1.21633 -6.750803,-2.68945 -0.412507,-0.82166 -0.759343,-3.02502 -0.807308,-5.12863 -0.03754,-1.64653 -0.109097,-1.51559 1.032731,-1.88987 3.597869,-1.17932 9.282692,-2.43617 12.677611,-2.80287 1.829653,-0.19763 2.393147,-0.2042 4.995449,-0.0582 4.080318,0.22892 4.172445,0.20412 7.553929,-2.03324 1.875815,-1.24113 4.089152,-2.41796 4.547618,-2.41796 0.282161,0 0.780504,0.2378 0.907851,0.43322 0.04693,0.072 0.125194,0.52163 0.173914,0.99913 0.09184,0.90014 0.581537,3.82012 0.927615,5.53124 0.311587,1.54058 0.291048,2.34076 -0.07954,3.09875 -0.409786,0.83816 -1.352067,1.78688 -2.203045,2.21811 l -0.669977,0.3395 -0.454399,-0.39897 c -0.249919,-0.21943 -1.133463,-1.23985 -1.963431,-2.2676 -1.735337,-2.14887 -1.894408,-2.3074 -2.782761,-2.77332 -0.742077,-0.3892 -1.468666,-0.44087 -2.262263,-0.16086 -0.285764,0.10082 -0.676626,0.15328 -0.868583,0.11659 -0.191956,-0.0367 -0.499487,-0.029 -0.683403,0.0172 -0.652376,0.16374 -1.921639,1.57215 -1.716276,1.90443 -0.245644,0.92024 -0.52163,1.23341 -1.040373,2.51098 -1.278564,3.16034 -2.451808,4.60417 -4.37642,5.38576 -0.802008,0.3257 -3.418439,0.35376 -6.158137,0.0661 z M 9.7102005,269.89589 c -0.268011,-0.80476 -0.444812,-1.11541 -0.780548,-1.37149 -0.426593,-0.32538 -0.945019,-0.34924 -1.141877,-0.0525 -0.06861,0.1034 -1.09267,-0.54947 -2.070228,-1.31983 l -0.308962,-0.24348 0.424943,-0.84181 c 0.633553,-1.25506 2.847632,-3.29115 3.363563,-3.09317 0.10906,0.0418 0.161471,0.13566 0.116472,0.20848 -0.0984,0.15922 0.223609,0.17779 0.400376,0.0231 0.06869,-0.0601 0.3837665,-0.18303 0.7001745,-0.27316 0.689468,-0.19639 1.409634,-0.84231 3.185254,-2.85689 l 1.290922,-1.46465 1.089396,-0.13915 c 0.599167,-0.0765 1.828854,-0.17435 2.732635,-0.21736 0.903782,-0.043 1.909445,-0.13308 2.234807,-0.20015 0.325361,-0.0671 1.331024,-0.18324 2.234806,-0.25815 2.165498,-0.17948 3.465506,-0.37522 4.013879,-0.60434 0.611144,-0.25535 0.981658,-0.23526 1.726561,0.0936 0.349432,0.15428 1.374788,0.50442 2.278571,0.7781 0.903781,0.27368 2.489725,0.79447 3.524318,1.15731 1.034594,0.36285 2.561402,0.82047 3.392906,1.01695 1.728301,0.40838 1.730609,0.4191 0.247301,1.14874 -1.399059,0.68819 -1.737572,0.74739 -4.995449,0.87364 -2.275026,0.0882 -3.446647,0.19748 -4.732531,0.44157 -4.113788,0.78088 -6.075018,1.33061 -9.202143,2.57932 -2.517386,1.00523 -3.308581,1.4122 -3.672122,1.88883 -0.178665,0.23424 -0.532737,0.50107 -0.786828,0.59295 -1.088169,0.39349 -2.990299,1.36352 -3.42898,1.74869 -0.261337,0.22946 -0.652834,0.67544 -0.869997,0.99107 -0.217161,0.31564 -0.445664,0.54247 -0.507782,0.50408 -0.06212,-0.0384 -0.2688665,-0.53799 -0.4594375,-1.11023 z M 15.561449,258.0616 c 7e-6,0 1.6e-5,0 2.2e-5,0 z"
       id="path914"       
       sodipodi:nodetypes="ccsscccccssccccsccccccsscccccccccccccscccccccscccccssssccscssscccscccccccccccccccccccscccccccccssssssccccccccc" />
  </g>
</svg>
