<?xml version="1.0" encoding="UTF-8" standalone="no"?>
<!-- Created with Inkscape (http://www.inkscape.org/) -->

<svg
   xmlns:dc="http://purl.org/dc/elements/1.1/"
   xmlns:cc="http://creativecommons.org/ns#"
   xmlns:rdf="http://www.w3.org/1999/02/22-rdf-syntax-ns#"
   xmlns:svg="http://www.w3.org/2000/svg"
   xmlns="http://www.w3.org/2000/svg"
   xmlns:sodipodi="http://sodipodi.sourceforge.net/DTD/sodipodi-0.dtd"   
   width="220"
   height="235"
   viewBox="0 0 58.208332 62.177085"
   version="1.1"
   id="svg8"   
   sodipodi:docname="kneepads.svg" >
  <defs
     id="defs2" />
  <sodipodi:namedview
     id="base"
     pagecolor="#000000"
     bordercolor="#666666"
     borderopacity="1.0"     
     showgrid="false"
     units="px" />
  <metadata
     id="metadata5">
    <rdf:RDF>
      <cc:Work
         rdf:about="">
        <dc:format>image/svg+xml</dc:format>
        <dc:type
           rdf:resource="http://purl.org/dc/dcmitype/StillImage" />
        <dc:title></dc:title>
      </cc:Work>
    </rdf:RDF>
  </metadata>
  <g
     id="layer1"
     transform="translate(0,-234.8229)">
    <path
       style="fill:none;stroke:#ffffff;stroke-width:0.4;stroke-opacity:1;stroke-miterlimit:4;stroke-dasharray:none"
       d="m 31.578811,295.1542 c -0.01796,-0.018 -0.932124,-0.0538 -2.107704,-0.0827 -0.50731,-0.0124 -1.262954,-0.0337 -1.679207,-0.0473 -0.416255,-0.0136 -1.329463,-0.035 -2.029354,-0.0477 -2.511687,-0.0454 -6.75161,-0.36916 -7.771203,-0.59345 -0.10908,-0.024 -0.252758,-0.0437 -0.319286,-0.0437 -0.06653,0 -0.120962,-0.0159 -0.120968,-0.0355 -4e-6,-0.0195 -0.10521,-0.0349 -0.233789,-0.0343 -0.128579,7.2e-4 -0.222749,-0.01 -0.209266,-0.0233 0.02287,-0.0229 -0.104869,-0.0531 -1.094238,-0.25899 -0.208127,-0.0433 -0.420985,-0.0959 -0.473017,-0.11697 -0.171579,-0.0693 -0.431366,-0.14594 -0.494928,-0.14594 -0.03437,0 -0.262051,-0.0958 -0.505949,-0.21286 -0.243899,-0.11707 -0.473581,-0.21286 -0.510403,-0.21286 -0.03682,0 -0.08012,-0.0415 -0.09621,-0.0922 -0.0177,-0.0558 -0.05632,-0.0818 -0.09779,-0.0659 -0.04107,0.0157 -0.06854,-0.002 -0.06854,-0.0446 0,-0.0638 -0.1223,-0.15117 -0.193695,-0.13833 -0.01548,0.003 -0.07538,-0.079 -0.133107,-0.18169 -0.05774,-0.10272 -0.136788,-0.18676 -0.175683,-0.18676 -0.0389,0 -0.05955,-0.0181 -0.04591,-0.0401 0.01364,-0.022 -0.01977,-0.088 -0.07427,-0.14649 -0.161528,-0.17338 -0.103504,-0.59151 0.14805,-1.06686 0.110139,-0.20813 0.251481,-0.43294 0.314095,-0.49959 l 0.113845,-0.12118 -0.154044,-0.0818 c -0.08473,-0.045 -0.207257,-0.11254 -0.272297,-0.15012 -0.06504,-0.0375 -0.21404,-0.0687 -0.331111,-0.0692 -0.253367,-9e-4 -0.486496,-0.12901 -0.586182,-0.32179 -0.09555,-0.18476 -0.186954,-0.90732 -0.149538,-1.18206 0.04469,-0.32817 0.03903,-0.47596 -0.03001,-0.78306 l -0.06206,-0.27608 -0.260159,-0.0901 c -0.143087,-0.0495 -0.30273,-0.11081 -0.354762,-0.13615 -0.05203,-0.0253 -0.222077,-0.0878 -0.37788,-0.1388 -0.38979,-0.12762 -0.558817,-0.31753 -0.523411,-0.58807 0.01422,-0.10868 0.03611,-0.45963 0.04864,-0.77987 0.01253,-0.32024 0.03159,-0.59696 0.04236,-0.61492 0.01077,-0.018 0.03428,-0.26634 0.05223,-0.55195 0.01796,-0.28559 0.03978,-0.53082 0.04849,-0.54492 0.0087,-0.0141 0.0291,-0.23808 0.04528,-0.49771 0.01618,-0.25963 0.03811,-0.50398 0.04873,-0.543 0.01062,-0.0391 0.05361,-0.44299 0.09556,-0.89768 0.04194,-0.4547 0.09096,-0.83784 0.108926,-0.85143 0.01796,-0.0136 0.03449,-0.0992 0.0367,-0.19026 0.007,-0.28881 0.0696,-1.054 0.0887,-1.08491 0.0101,-0.0163 0.02952,-0.1461 0.04316,-0.28836 0.01364,-0.14225 0.04832,-0.41828 0.07708,-0.61341 0.02875,-0.19511 0.04673,-0.54434 0.03995,-0.77605 -0.0116,-0.39671 -0.0059,-0.42562 0.09908,-0.49528 0.06127,-0.0407 0.20794,-0.0852 0.325927,-0.099 l 0.214521,-0.025 0.184762,-0.44937 c 0.101617,-0.24715 0.298166,-0.71543 0.436774,-1.04063 0.283578,-0.66533 0.473555,-1.20918 0.520485,-1.49 0.01739,-0.10407 0.04821,-0.2105 0.0685,-0.23651 0.02029,-0.026 0.04905,-0.14309 0.06392,-0.26016 0.01487,-0.11707 0.06135,-0.36186 0.103297,-0.54397 0.147982,-0.64253 0.221975,-0.99614 0.26229,-1.2535 0.252588,-1.61238 0.251498,-1.56098 0.03784,-1.78571 -0.327124,-0.34407 -0.470725,-0.72276 -0.677094,-1.78555 -0.08588,-0.44228 -0.171268,-0.9311 -0.189754,-1.08628 -0.01849,-0.15518 -0.041,-0.32049 -0.05001,-0.36734 -0.02152,-0.11175 -0.331343,-0.40185 -0.546466,-0.51169 -0.09359,-0.0478 -0.20311,-0.13598 -0.243388,-0.19602 -0.04028,-0.06 -0.113042,-0.15172 -0.161699,-0.20375 -0.04866,-0.052 -0.136025,-0.15602 -0.194152,-0.23107 l -0.105685,-0.13646 v 0.19676 c 0,0.21701 -0.03614,0.24371 -0.457537,0.33815 -0.202041,0.0453 -0.98225,0.0642 -1.17437,0.0285 -0.213913,-0.0398 -0.442941,-0.17832 -0.629725,-0.38095 -0.108929,-0.11818 -0.198053,-0.19664 -0.198053,-0.17436 0,0.0601 -0.416988,-0.035 -0.669764,-0.15281 -0.180379,-0.0841 -0.242854,-0.14837 -0.344072,-0.35436 -0.150096,-0.30548 -0.419392,-1.10755 -0.567945,-1.69159 -0.0601,-0.23629 -0.13022,-0.47043 -0.155817,-0.52032 -0.0256,-0.0499 -0.06054,-0.16519 -0.07766,-0.25624 -0.01712,-0.0911 -0.07138,-0.30392 -0.120578,-0.47302 -0.04919,-0.1691 -0.146416,-0.53097 -0.216041,-0.80413 -0.101164,-0.39691 -0.453949,-1.53099 -0.640073,-2.05762 -0.05051,-0.14292 -0.583148,-1.77081 -0.781577,-2.38873 -0.174505,-0.54341 -0.386436,-1.26402 -0.4243,-1.4427 -0.01103,-0.052 -0.05181,-0.2436 -0.09064,-0.42571 -0.143201,-0.67167 -0.08796,-0.92704 0.263764,-1.21919 l 0.198785,-0.16513 -0.108984,-0.38275 c -0.106016,-0.37232 -0.106657,-0.38632 -0.02353,-0.51403 0.112494,-0.17283 0.187827,-0.232 0.470975,-0.36992 0.295989,-0.14418 0.481729,-0.14428 0.65776,-3.6e-4 0.200963,0.16431 0.580706,0.12038 0.870315,-0.10068 0.291531,-0.22253 0.863049,-0.49233 1.080232,-0.50997 0.19957,-0.0162 0.387183,0.0608 0.535379,0.21996 0.112646,0.1209 0.164021,0.0862 0.176555,-0.11937 0.01895,-0.31069 0.04767,-0.43887 0.124688,-0.55641 0.04366,-0.0666 0.06806,-0.13246 0.05423,-0.14629 -0.01382,-0.0139 -0.0018,-0.0865 0.02669,-0.16144 0.04617,-0.12144 0.09458,-1.00714 0.09029,-1.65202 -0.0011,-0.15484 0.04041,-0.33285 0.118681,-0.50984 0.06614,-0.14957 0.120263,-0.3338 0.120263,-0.4094 0,-0.19487 0.136426,-0.81931 0.190902,-0.87379 0.07965,-0.0796 0.05048,-0.1572 -0.143348,-0.38115 -0.222731,-0.25735 -0.259259,-0.37412 -0.21967,-0.70221 0.0162,-0.13426 0.05038,-0.41358 0.07596,-0.62069 0.04549,-0.36834 0.263659,-1.23246 0.334862,-1.32629 0.01975,-0.026 0.125053,-0.21758 0.234021,-0.42571 0.108967,-0.20814 0.254718,-0.45042 0.32389,-0.53842 0.06917,-0.088 0.179943,-0.26007 0.246158,-0.38238 0.06621,-0.12231 0.258828,-0.36149 0.42803,-0.53153 0.169201,-0.17004 0.381097,-0.39998 0.470879,-0.51099 0.544973,-0.67381 0.941138,-1.14355 1.15662,-1.37145 0.135294,-0.14309 0.316632,-0.36127 0.402974,-0.48484 0.08634,-0.12358 0.169343,-0.22525 0.184444,-0.22595 0.0151,-7.1e-4 0.121442,-0.0874 0.236314,-0.19262 0.415785,-0.38095 1.133372,-0.84358 1.826792,-1.17774 0.389316,-0.18761 0.824917,-0.39925 0.968004,-0.47032 0.143087,-0.0711 0.387874,-0.17973 0.543969,-0.24148 0.331758,-0.13122 0.660654,-0.31057 0.66589,-0.36311 0.05645,-0.56643 0.491856,-0.83686 1.310331,-0.81386 0.347831,0.01 0.436274,-0.007 0.838225,-0.1611 0.247152,-0.0946 0.481993,-0.19093 0.521871,-0.21402 0.03988,-0.0231 0.146307,-0.0574 0.236508,-0.0762 0.0902,-0.0188 0.228379,-0.0712 0.30706,-0.11637 0.07868,-0.0452 0.245412,-0.0962 0.370511,-0.11331 0.125099,-0.0171 0.252294,-0.0472 0.282657,-0.0669 0.05108,-0.033 0.251281,-0.0847 0.785897,-0.20298 0.115707,-0.0256 0.27535,-0.0666 0.354763,-0.0911 0.502252,-0.15521 2.719418,-0.45558 3.218991,-0.4361 0.02602,9e-4 0.40916,0.0134 0.85143,0.0276 0.86162,0.0276 1.652523,0.10503 1.782343,0.17451 0.04392,0.0235 0.259392,0.0427 0.47883,0.0427 0.219436,0 0.577372,0.031 0.795411,0.0688 0.218039,0.0378 0.630577,0.10235 0.916752,0.14342 1.043316,0.14977 1.497764,0.26623 2.332159,0.59769 0.604937,0.2403 1.621491,0.79502 2.208795,1.2053 0.693419,0.4844 2.266214,1.55179 2.569289,1.74367 1.157724,0.73295 2.894532,1.94984 3.56039,2.49458 0.327462,0.2679 0.668033,0.54432 0.756825,0.61427 l 0.161439,0.12718 -0.189207,-0.0212 c -0.104064,-0.0116 0.04702,0.0376 0.33576,0.10932 0.288731,0.0717 0.554802,0.15375 0.591269,0.18222 0.129071,0.10076 0.201202,0.13169 0.16301,0.0699 -0.02399,-0.0388 0.01137,-0.0339 0.104948,0.0145 0.07762,0.0401 0.154456,0.0597 0.170763,0.0433 0.01631,-0.0163 0.02965,0.007 0.02965,0.0519 0,0.0449 0.02145,0.0684 0.04766,0.0522 0.02622,-0.0162 0.08095,0.004 0.121631,0.0445 0.04068,0.0407 0.104378,0.0767 0.141544,0.0799 0.03716,0.004 0.09418,0.009 0.1267,0.0118 0.03252,0.004 0.05913,0.0378 0.05913,0.0769 0,0.0391 0.04789,0.092 0.106428,0.11764 0.05854,0.0256 0.106428,0.0642 0.106428,0.0856 0,0.0214 0.01808,0.0277 0.04018,0.014 0.0221,-0.0137 0.06826,0.0276 0.102597,0.0918 0.03433,0.0642 0.09076,0.11664 0.125383,0.11664 0.03462,0 0.06329,0.0373 0.06368,0.0828 5.36e-4,0.0638 0.01,0.0682 0.04096,0.0193 0.03356,-0.0529 0.05699,-0.053 0.141181,-3.6e-4 0.05552,0.0346 0.100943,0.1005 0.100943,0.14627 0,0.0458 0.03193,0.0832 0.07095,0.0832 0.03902,0 0.07096,0.0213 0.07096,0.0473 0,0.026 0.04612,0.0473 0.102486,0.0473 0.05637,0 0.08902,0.0134 0.07256,0.03 -0.01646,0.0165 0.02277,0.0714 0.08717,0.12204 0.06441,0.0507 0.102966,0.11499 0.08569,0.14294 -0.01862,0.0301 -0.0092,0.0371 0.0232,0.0171 0.03059,-0.0189 0.05493,-0.006 0.05533,0.0282 5.37e-4,0.045 0.01327,0.0425 0.04658,-0.009 0.03836,-0.0594 0.04597,-0.0562 0.04657,0.0197 3.57e-4,0.0499 0.01201,0.0794 0.02581,0.0656 0.01381,-0.0138 0.144859,0.0891 0.291249,0.22863 0.146392,0.13954 0.283436,0.25371 0.304543,0.25371 0.02111,0 0.02717,0.0292 0.01346,0.0649 -0.01833,0.0478 0.007,0.0588 0.09609,0.0418 0.07429,-0.0142 0.120998,-0.002 0.120998,0.0325 0,0.0311 -0.02606,0.0406 -0.05913,0.0216 -0.03435,-0.0198 -0.04262,-0.016 -0.01971,0.009 0.0379,0.0414 0.05418,0.0468 0.185266,0.0616 0.04594,0.005 0.04543,0.0153 -0.0023,0.0455 -0.04826,0.0306 -0.04379,0.0532 0.02091,0.1057 0.07158,0.058 0.07756,0.0575 0.04604,-0.005 -0.02811,-0.055 -0.02219,-0.0541 0.0264,0.005 0.03445,0.0413 0.112352,0.10154 0.173115,0.13391 0.06077,0.0324 0.09874,0.0707 0.08438,0.085 -0.01436,0.0144 0.0266,0.0676 0.091,0.11822 0.0644,0.0507 0.102763,0.11531 0.08524,0.14366 -0.02034,0.0329 -0.0034,0.0407 0.04685,0.0213 0.05309,-0.0203 0.07871,-0.005 0.07871,0.0451 0,0.0594 0.01405,0.0636 0.06674,0.0199 0.0511,-0.0424 0.07498,-0.042 0.101912,0.002 0.02104,0.034 0.01523,0.0445 -0.01448,0.0262 -0.02731,-0.0169 -0.0616,3.6e-4 -0.07619,0.0384 -0.01459,0.0381 -0.0029,0.0838 0.026,0.10165 0.03182,0.0197 0.03923,0.0109 0.01879,-0.0221 -0.05876,-0.0951 0.04795,-0.059 0.141882,0.048 0.08363,0.0952 0.08398,0.10038 0.0049,0.0715 -0.05401,-0.0197 -0.07392,-0.0129 -0.05434,0.0188 0.01698,0.0275 0.05721,0.0399 0.08938,0.0275 0.08203,-0.0315 0.418801,0.28644 0.376288,0.35523 -0.02293,0.0371 -0.0083,0.0454 0.04457,0.025 0.04493,-0.0172 0.07871,-0.007 0.07871,0.0235 0,0.0295 0.01384,0.0399 0.03077,0.0229 0.01691,-0.0169 0.07854,0.0208 0.136939,0.0838 0.05839,0.063 0.120828,0.0999 0.138734,0.082 0.0179,-0.0179 0.02741,-0.0113 0.0211,0.0148 -0.01802,0.0744 0.05656,0.21492 0.09986,0.18816 0.02149,-0.0133 0.05266,-0.002 0.06927,0.0247 0.0166,0.0269 0.04976,0.0367 0.07367,0.022 0.02392,-0.0148 0.03189,0.004 0.0177,0.0403 -0.01589,0.0414 0.0735,0.15585 0.232867,0.29809 0.142266,0.12698 0.284947,0.28873 0.317067,0.35946 0.03212,0.0707 0.07692,0.11715 0.09956,0.10316 0.02264,-0.0139 0.02687,-0.0485 0.0094,-0.0768 -0.0191,-0.0309 -0.0097,-0.0377 0.02365,-0.0171 0.03046,0.0188 0.04314,0.054 0.02817,0.0783 -0.01497,0.0242 -0.0069,0.044 0.01775,0.044 0.02473,0 0.05854,0.0541 0.07513,0.12018 0.01659,0.0661 0.0476,0.10942 0.06891,0.0962 0.02131,-0.0131 0.08455,0.0187 0.140519,0.0708 0.104929,0.0978 0.137621,0.16617 0.05501,0.11511 -0.02681,-0.0166 -0.03474,0.003 -0.01859,0.0445 0.0155,0.0404 0.04718,0.0734 0.07041,0.0734 0.02323,0 0.04225,0.0355 0.04225,0.0788 0,0.0434 0.0147,0.0642 0.03265,0.0462 0.01796,-0.0179 0.06032,0.0264 0.09413,0.0986 0.05731,0.12229 0.05965,0.12316 0.03447,0.013 -0.01606,-0.0703 0.04646,-0.003 0.154197,0.16718 0.09967,0.157 0.241027,0.3629 0.314133,0.45755 0.07311,0.0947 0.13891,0.22833 0.146235,0.29702 0.01137,0.10671 0.217513,0.38797 0.217513,0.29679 0,-0.0177 -0.04658,-0.0757 -0.103523,-0.12876 -0.05694,-0.0531 -0.08083,-0.0965 -0.05309,-0.0965 0.07531,0 0.170241,0.13177 0.180311,0.25029 0.01532,0.18026 0.07929,0.36463 0.126525,0.36463 0.02495,0 0.03109,0.0479 0.01363,0.10644 -0.02949,0.0989 -0.02711,0.10038 0.03382,0.0207 0.06217,-0.0814 0.06595,-0.0805 0.07331,0.0171 0.0042,0.0566 0.04082,0.13941 0.08124,0.18407 0.04042,0.0446 0.07349,0.13333 0.07349,0.19704 0,0.0637 0.03586,0.16703 0.07969,0.22961 0.07277,0.1039 0.107601,0.22601 0.123771,0.43404 0.0037,0.0473 0.03284,0.0671 0.07504,0.0509 0.05039,-0.0194 0.06038,-0.004 0.03701,0.057 -0.04219,0.10997 0.01318,0.20095 0.07025,0.11543 0.02847,-0.0427 0.0334,-0.0234 0.0147,0.0576 -0.01869,0.0809 -0.003,0.14266 0.04693,0.18406 0.04406,0.0365 0.06353,0.0986 0.04716,0.15022 -0.01534,0.0483 -0.0072,0.0879 0.01814,0.0879 0.02533,0 0.06117,0.10998 0.07966,0.2444 0.01849,0.13441 0.08434,0.33979 0.146342,0.45641 0.062,0.11661 0.112732,0.27145 0.112732,0.34408 0,0.0726 0.02253,0.146 0.05007,0.16302 0.0286,0.0176 0.03723,0.0895 0.02012,0.16728 -0.03868,0.17614 0.0101,0.33019 0.09433,0.29787 0.04586,-0.0176 0.05786,0.003 0.04063,0.0685 -0.01345,0.0514 -0.0028,0.13399 0.02371,0.18348 0.02649,0.0495 0.05461,0.22017 0.0625,0.37928 0.0079,0.15911 0.03243,0.27811 0.05455,0.26445 0.02211,-0.0137 0.03439,0.0148 0.02729,0.0631 -0.02365,0.16096 0.05819,0.86634 0.103779,0.89451 0.0247,0.0153 0.03355,0.0461 0.0197,0.0685 -0.01385,0.0224 -0.0035,0.0542 0.02288,0.0705 0.02644,0.0164 0.04807,0.0829 0.04807,0.14797 0,0.0773 -0.01889,0.10657 -0.05461,0.0845 -0.03019,-0.0186 -0.04189,-0.0131 -0.02619,0.0122 0.03263,0.0528 0.08801,0.57913 0.101211,0.96195 0.005,0.14309 0.02565,0.30273 0.04604,0.35476 0.0295,0.0752 0.0266,0.0801 -0.01419,0.0237 -0.03771,-0.0522 -0.04438,0.0291 -0.0252,0.30746 0.01434,0.20813 0.03341,0.4157 0.04239,0.46126 0.009,0.0455 -8.93e-4,0.0722 -0.02188,0.0592 -0.02101,-0.013 -0.03613,0.0495 -0.0336,0.13889 0.0029,0.10021 0.02371,0.15109 0.05444,0.13272 0.02759,-0.0165 0.02531,7.1e-4 -0.0051,0.0384 -0.03342,0.0415 -0.05081,0.21038 -0.04437,0.43082 0.0059,0.19944 -0.0025,0.48217 -0.01865,0.6283 -0.02313,0.21014 -0.01609,0.26062 0.03365,0.24153 0.04912,-0.0188 0.05182,-0.004 0.0123,0.0704 -0.02782,0.052 -0.0377,0.11536 -0.02195,0.14084 0.01575,0.0255 0.01255,0.0724 -0.0071,0.10413 -0.01965,0.0318 -0.03306,0.14355 -0.02979,0.24833 0.0056,0.17874 0.0035,0.18174 -0.03242,0.0486 -0.04406,-0.16303 -0.06497,-0.0849 -0.05057,0.1892 0.01616,0.30759 -0.009,0.6299 -0.06093,0.78048 -0.01346,0.0391 -0.03692,0.14546 -0.05215,0.23651 -0.01965,0.11751 -0.01418,0.14497 0.01884,0.0946 0.03644,-0.0556 0.04666,-0.0428 0.04723,0.0591 5.36e-4,0.0716 -0.02168,0.13008 -0.04906,0.13008 -0.02928,0 -0.04903,0.11201 -0.04796,0.27198 0.0032,0.48936 -0.031,1.12146 -0.06605,1.21802 -0.02751,0.0758 -0.0242,0.0805 0.01669,0.0237 0.04537,-0.0631 0.05089,-0.0631 0.04968,0 -0.0023,0.12175 -0.119329,0.52432 -0.144933,0.49872 -0.01337,-0.0134 -0.01033,0.0848 0.0067,0.21809 0.02313,0.18034 0.01791,0.22439 -0.02039,0.17202 -0.04019,-0.0549 -0.05249,-0.0252 -0.05603,0.13531 -0.0025,0.11314 0.01421,0.2057 0.03714,0.2057 0.02292,0 0.01774,0.0447 -0.01153,0.0994 -0.02927,0.0547 -0.04265,0.13986 -0.02973,0.18927 0.01292,0.0494 0.0042,0.0779 -0.0194,0.0634 -0.02359,-0.0146 -0.04511,0.0333 -0.04782,0.10636 -0.0099,0.26765 -0.02798,0.46917 -0.06208,0.69372 -0.02021,0.13309 -0.01705,0.21871 0.0075,0.20352 0.02332,-0.0144 0.03322,0.0364 0.02201,0.11273 -0.01121,0.0764 -0.03652,0.12895 -0.05624,0.11676 -0.03286,-0.0203 -0.09799,0.4984 -0.108018,0.86035 -0.0023,0.0832 -0.01929,0.14201 -0.03775,0.13061 -0.05053,-0.0312 -0.07194,0.10933 -0.06984,0.4585 0.0011,0.17312 -0.01407,0.3049 -0.03359,0.29285 -0.01951,-0.0121 -0.03702,0.006 -0.0389,0.0401 -0.01305,0.23613 -0.03644,0.40878 -0.06867,0.50685 -0.02909,0.0885 -0.02344,0.10519 0.02538,0.0751 0.04624,-0.0286 0.05444,-0.017 0.03111,0.0437 -0.01743,0.0454 -0.03169,0.15659 -0.03169,0.24705 0,0.0905 -0.01763,0.15358 -0.03919,0.14026 -0.04421,-0.0274 -0.03902,0.20645 0.0093,0.4207 0.03078,0.13636 0.02992,0.13728 -0.02175,0.0237 -0.02997,-0.0659 -0.06322,-0.0932 -0.07511,-0.0617 -0.01173,0.031 0.0049,0.10557 0.03679,0.16556 0.05467,0.10258 0.05292,0.10484 -0.02944,0.0381 -0.08062,-0.0653 -0.0844,-0.0634 -0.04783,0.0237 0.04451,0.10596 0.04892,0.17983 0.03105,0.52031 -0.0095,0.18057 -0.02202,0.21414 -0.05307,0.1419 -0.0363,-0.0845 -0.041,-0.081 -0.04397,0.0327 -0.0018,0.07 0.019,0.14109 0.04628,0.15795 0.0338,0.0209 0.03165,0.0523 -0.0067,0.0986 -0.031,0.0374 -0.05636,0.18507 -0.05636,0.32828 0,0.14321 -0.01824,0.27165 -0.04055,0.28544 -0.0223,0.0138 -0.04055,0.15012 -0.04055,0.30298 0,0.15286 -0.03321,0.43364 -0.0738,0.62395 -0.04059,0.19032 -0.0798,0.53138 -0.08715,0.75792 -0.0077,0.23824 -0.03802,0.4416 -0.07185,0.48237 -0.04451,0.0536 -0.04552,0.0908 -0.0042,0.15573 0.0489,0.0768 0.05206,0.0747 0.03181,-0.0211 -0.01237,-0.0585 -5.36e-4,-0.10643 0.02631,-0.10643 0.05882,0 0.0077,0.30054 -0.05467,0.32188 -0.0232,0.008 -0.02599,0.0718 -0.0062,0.1419 0.03704,0.13128 0.0174,0.25068 -0.04842,0.29415 -0.05043,0.0333 -0.06665,0.41912 -0.02381,0.56652 0.02258,0.0777 0.01934,0.0966 -0.0095,0.0552 -0.03529,-0.0509 -0.04971,-0.0478 -0.07405,0.0157 -0.04345,0.11324 -0.03919,0.20564 0.0062,0.13429 0.01925,-0.0302 0.03488,0.0474 0.03475,0.17267 -1.43e-4,0.12522 -0.01124,0.22097 -0.02467,0.21278 -0.01343,-0.008 -0.04785,0.0347 -0.07649,0.0954 -0.04184,0.0887 -0.03937,0.10544 0.0126,0.0855 0.08465,-0.0325 0.08021,0.079 -0.0078,0.19538 -0.0382,0.0505 -0.06912,0.125 -0.06873,0.16555 7.16e-4,0.065 0.0065,0.0653 0.04874,0.003 0.0534,-0.0789 0.02556,0.10088 -0.05486,0.35427 -0.02986,0.0941 -0.02856,0.14685 0.004,0.15768 0.02684,0.009 0.04879,0.037 0.04879,0.0624 0,0.0254 -0.0167,0.0358 -0.03712,0.0232 -0.02041,-0.0126 -0.03611,0.10851 -0.03487,0.26919 0.0013,0.16067 -0.01611,0.33195 -0.03856,0.38061 -0.028,0.0607 -0.02448,0.0784 0.01121,0.0563 0.06826,-0.0422 0.06713,0.034 -0.0016,0.10267 -0.02946,0.0294 -0.05114,0.16059 -0.0482,0.29142 0.0034,0.15258 -0.0172,0.25125 -0.05756,0.27519 -0.0346,0.0205 -0.07763,0.10119 -0.0956,0.17924 l -0.03269,0.1419 0.09619,-0.1419 c 0.11566,-0.17064 0.125582,-0.12224 0.02038,0.0994 -0.04203,0.0886 -0.06461,0.20622 -0.05017,0.26145 0.02205,0.0843 -0.06288,0.54344 -0.147624,0.79798 -0.013,0.0391 -0.02846,0.17916 -0.03438,0.31141 -0.0059,0.13225 -0.03469,0.28517 -0.06394,0.33983 -0.02925,0.0546 -0.05318,0.20845 -0.05318,0.34178 0,0.18054 -0.01508,0.23372 -0.05913,0.20838 -0.03252,-0.0187 -0.0443,-0.0175 -0.02617,0.003 0.04293,0.0477 -0.102329,0.41676 -0.183311,0.46577 -0.03437,0.0208 -0.0625,0.0794 -0.0625,0.13008 0,0.0508 -0.04257,0.13482 -0.0946,0.18686 -0.05203,0.052 -0.0946,0.12653 -0.0946,0.16555 0,0.0391 -0.01862,0.0709 -0.04139,0.0709 -0.02276,0 -0.05444,0.0652 -0.0704,0.14505 -0.01613,0.0806 -0.05027,0.13189 -0.07686,0.11546 -0.02632,-0.0163 -0.04786,-0.005 -0.04786,0.0233 0,0.0291 -0.02457,0.0377 -0.05461,0.0191 -0.03396,-0.021 -0.04177,-0.013 -0.02066,0.0212 0.01901,0.0308 0.0014,0.0674 -0.04,0.0833 -0.04067,0.0156 -0.07395,0.058 -0.07395,0.0943 0,0.0565 -0.05266,0.076 -0.169865,0.0627 -0.01537,-0.002 -0.05953,0.0356 -0.09811,0.0828 -0.04201,0.0515 -0.05782,0.0575 -0.03939,0.015 0.01691,-0.0391 -0.01078,-0.0239 -0.06157,0.0335 -0.05079,0.0574 -0.109013,0.0894 -0.129396,0.0709 -0.02038,-0.0184 -0.02442,0.002 -0.009,0.0451 0.01544,0.0432 -0.06691,0.37315 -0.183025,0.73317 -0.244558,0.75826 -0.287446,0.93159 -0.352988,1.42648 -0.02647,0.19984 -0.06769,0.46978 -0.09161,0.59986 -0.06323,0.34384 -0.138312,0.78274 -0.161823,0.94603 -0.01124,0.078 -0.05303,0.31218 -0.09286,0.52031 -0.175353,0.91622 -0.221379,1.82875 -0.134796,2.67255 0.06963,0.67859 -0.05782,0.96248 -0.543114,1.2098 -0.316582,0.16135 -0.498669,0.27769 -0.766134,0.48953 -0.185299,0.14676 -0.259287,0.27145 -0.134531,0.22672 0.190264,-0.0682 0.288874,0.2398 0.135597,0.42357 -0.04716,0.0565 -0.168798,0.13704 -0.270311,0.17892 -0.101514,0.0419 -0.206099,0.10204 -0.232413,0.13371 -0.09518,0.11457 -0.352534,0.27044 -0.446508,0.27044 -0.05287,0 -0.122705,0.0426 -0.155199,0.0946 -0.03615,0.0579 -0.11031,0.0946 -0.191093,0.0946 -0.07335,0 -0.144037,0.0313 -0.159072,0.0706 -0.01488,0.0388 -0.115322,0.0955 -0.223197,0.126 -0.107877,0.0305 -0.217424,0.0786 -0.24344,0.10687 -0.05122,0.0556 -0.447207,0.21267 -0.638571,0.25325 -0.06504,0.0138 -0.128897,0.0379 -0.141905,0.0535 -0.04532,0.0545 -0.235709,0.14669 -0.302878,0.14669 -0.03721,0 -0.07475,0.0194 -0.08342,0.0433 -0.0086,0.0238 -0.117554,0.0536 -0.24196,0.0664 -0.124405,0.0128 -0.25212,0.044 -0.28381,0.0694 -0.09837,0.0789 -1.525927,0.39779 -2.186189,0.48824 -0.182112,0.0249 -0.469469,0.0653 -0.638573,0.0898 -0.381923,0.0552 -1.668229,0.18613 -2.08127,0.21183 -0.169104,0.0105 -0.38196,0.0301 -0.473016,0.0434 -0.136427,0.02 -1.271074,0.10589 -1.939367,0.14682 -0.09105,0.005 -0.165555,0.0159 -0.165555,0.023 0,0.0175 -3.621961,0.0286 -3.639443,0.0112 z"
       id="path990"       
       sodipodi:nodetypes="cccssscccccscsccsccscccccccccsccccscccccccscsccscccccsccccscscccccccsccsscsscccscsccsccssccccscccccscscsccsscssccscsccccccsccsccccssccscscccccccsscccssssccscccsssscscccccscsccsccccccccscccsccccccccccccsccccccccccccccscccccsscccsccscscsccccsscccccccsccscccccccccscsccscccccsccccccccccsccccsccccccccsccccccccccccccccsccccccccccccscscccccsccccccccccccccccscccccccccscccccscccssssccscccsccccscccccssccccccscscccccsccccccccscc" />
  </g>
</svg>
