<?xml version="1.0" encoding="UTF-8" standalone="no"?>
<!-- Created with Inkscape (http://www.inkscape.org/) -->

<svg
   xmlns:dc="http://purl.org/dc/elements/1.1/"
   xmlns:cc="http://creativecommons.org/ns#"
   xmlns:rdf="http://www.w3.org/1999/02/22-rdf-syntax-ns#"
   xmlns:svg="http://www.w3.org/2000/svg"
   xmlns="http://www.w3.org/2000/svg"
   xmlns:sodipodi="http://sodipodi.sourceforge.net/DTD/sodipodi-0.dtd"   
   width="220"
   height="235"
   viewBox="0 0 58.208332 62.177085"
   version="1.1"
   id="svg8"   
   sodipodi:docname="cz-45.svg" >
  <defs
     id="defs2" />
  <sodipodi:namedview
     id="base"
     pagecolor="#000000"
     bordercolor="#666666"
     borderopacity="1.0"
     showgrid="false"
     units="px"     
     showguides="false" />
  <metadata
     id="metadata5">
    <rdf:RDF>
      <cc:Work
         rdf:about="">
        <dc:format>image/svg+xml</dc:format>
        <dc:type
           rdf:resource="http://purl.org/dc/dcmitype/StillImage" />
        <dc:title></dc:title>
      </cc:Work>
    </rdf:RDF>
  </metadata>
  <g    
     id="layer1"
     transform="translate(0,-234.8229)">
    <path
       style="fill:none;stroke:#fffffd;stroke-width:0.4;stroke-miterlimit:4;stroke-dasharray:none;stroke-opacity:1"
       d="m 38.705567,288.01854 c -0.317456,0.30205 -0.669412,0.62267 -0.782127,0.71248 -0.190121,0.1515 -1.891028,1.63532 -2.012964,1.75605 -0.03003,0.0295 -0.15632,0.13719 -0.280865,0.239 -0.124544,0.10182 -0.360352,0.30804 -0.524014,0.45827 -0.16366,0.15023 -0.314582,0.28198 -0.335379,0.29279 -0.06347,0.033 -1.530238,1.32837 -1.928408,1.7031 -0.116609,0.10975 -0.299842,0.27743 -0.407186,0.37261 -0.10734,0.0952 -0.458162,0.4072 -0.779603,0.69335 -0.533829,0.47522 -0.761457,0.65792 -0.891285,0.71535 -0.05382,0.0238 -0.25216,-0.0383 -0.307141,-0.0962 -0.01995,-0.0209 -0.06063,-0.0917 -0.09047,-0.15717 -0.02983,-0.0655 -0.06492,-0.13761 -0.07795,-0.16031 -0.01304,-0.0227 -0.04578,-0.0826 -0.07276,-0.13302 -0.02699,-0.0505 -0.05584,-0.0853 -0.06413,-0.0773 -0.0084,0.008 -0.01133,-0.004 -0.0068,-0.0257 0.0046,-0.0221 -0.05828,-0.15875 -0.13964,-0.30375 -0.208162,-0.37094 -0.226992,-0.42186 -0.177111,-0.47887 0.02367,-0.0271 -0.02805,0.006 -0.114937,0.0744 -0.08689,0.068 -0.191976,0.1481 -0.233537,0.17802 -0.04156,0.0299 -0.136252,0.11068 -0.210421,0.17948 -0.07417,0.0688 -0.19178,0.15587 -0.261355,0.19352 -0.06958,0.0376 -0.147544,0.0893 -0.173262,0.11474 -0.02584,0.0253 -0.11241,0.0644 -0.192645,0.0865 -0.08023,0.0221 -0.148889,0.0529 -0.15256,0.0685 -0.0037,0.0156 -0.0154,0.0195 -0.02607,0.009 -0.01067,-0.0107 -0.158778,0.0163 -0.329133,0.06 -0.341805,0.0876 -0.771107,0.10657 -0.988824,0.0437 -0.108512,-0.0314 -0.189858,-0.0844 -0.352585,-0.22988 -0.116344,-0.10402 -0.231456,-0.19843 -0.255812,-0.20982 -0.05851,-0.0273 -0.454025,-0.42473 -0.561868,-0.5645 -0.04669,-0.0605 -0.157663,-0.19325 -0.246593,-0.29494 -0.191438,-0.21889 -0.239345,-0.27985 -0.467068,-0.59432 -0.609651,-0.84187 -0.719957,-1.00803 -1.028482,-1.54917 -0.0086,-0.0152 -0.02493,-0.051 -0.03617,-0.0796 -0.01125,-0.0286 -0.03077,-0.0676 -0.04338,-0.0866 -0.01261,-0.019 -0.03913,-0.0733 -0.05892,-0.12057 -0.01979,-0.0473 -0.04193,-0.0919 -0.0492,-0.0992 -0.0073,-0.007 -0.107464,-0.19586 -0.222656,-0.41908 -0.115193,-0.22322 -0.224076,-0.42772 -0.241958,-0.45444 -0.01789,-0.0267 -0.06227,-0.11742 -0.09864,-0.20156 -0.03637,-0.0841 -0.0898,-0.18667 -0.118741,-0.22783 -0.02894,-0.0412 -0.172832,-0.31528 -0.319768,-0.60915 -0.146932,-0.29387 -0.27442,-0.54653 -0.283307,-0.56147 -0.08603,-0.14465 -0.112489,-0.19793 -0.117075,-0.23577 -0.003,-0.0243 -0.01576,-0.0505 -0.02848,-0.0582 -0.02662,-0.0161 -0.153415,-0.23198 -0.19001,-0.32359 -0.04189,-0.10485 -0.240774,-0.50125 -0.276722,-0.55153 -0.01869,-0.0261 -0.04356,-0.0805 -0.05528,-0.12086 -0.01171,-0.0403 -0.03669,-0.0887 -0.05551,-0.10753 -0.01882,-0.0188 -0.04184,-0.0604 -0.05116,-0.0925 -0.01547,-0.0532 -0.323777,-0.65977 -0.383016,-0.7536 -0.03349,-0.053 -0.156893,-0.30872 -0.204487,-0.42368 -0.02093,-0.0506 -0.06954,-0.14815 -0.108026,-0.21689 -0.03848,-0.0687 -0.07297,-0.14147 -0.07663,-0.16164 -0.0037,-0.0202 -0.04361,-0.10694 -0.08876,-0.19283 -0.04516,-0.0859 -0.09773,-0.19903 -0.116821,-0.25141 -0.01909,-0.0524 -0.07716,-0.18927 -0.129043,-0.30418 -0.05188,-0.11491 -0.126131,-0.29688 -0.165002,-0.40438 -0.03887,-0.10749 -0.07736,-0.20213 -0.08552,-0.21029 -0.0082,-0.008 -0.05122,-0.11827 -0.09569,-0.24469 -0.06981,-0.19846 -0.139488,-0.37865 -0.165164,-0.42713 -0.02394,-0.0452 -0.350668,-1.06469 -0.406896,-1.26963 -0.03693,-0.1346 -0.124465,-0.44671 -0.194522,-0.69358 -0.07006,-0.24686 -0.19995,-0.72717 -0.288648,-1.06736 -0.182321,-0.69925 -0.408418,-1.4011 -0.48028,-1.49087 -0.02648,-0.0331 -0.04735,-0.0707 -0.04636,-0.0836 0.002,-0.0262 -0.161981,-0.28627 -0.276398,-0.43841 -0.109885,-0.14612 -0.57603,-0.61034 -0.694585,-0.69172 -0.298235,-0.20473 -0.573022,-0.33614 -0.662676,-0.31691 -0.01856,0.004 -0.03526,10e-4 -0.03712,-0.006 -0.0076,-0.0304 -0.133395,-0.0784 -0.153271,-0.0585 -0.01181,0.0118 -0.0252,0.006 -0.02975,-0.0136 -0.0045,-0.0193 -0.02023,-0.0231 -0.03482,-0.008 -0.0146,0.0146 -0.02655,0.0136 -0.02655,-0.002 1e-6,-0.0611 -0.595306,-0.10642 -0.899272,-0.0685 -0.06807,0.009 -0.147767,0.0169 -0.177104,0.0186 -0.165498,0.01 -0.7495,0.17832 -0.833834,0.24047 -0.0183,0.0135 -0.05051,0.0285 -0.07156,0.0333 -0.161803,0.0373 -0.635393,0.39563 -1.033594,0.78215 -0.193449,0.18778 -0.38889,0.36275 -0.434304,0.38881 -0.04541,0.0261 -0.131001,0.0867 -0.190195,0.13472 -0.130494,0.10588 -0.485845,0.31526 -0.708751,0.41762 -0.41928,0.19254 -1.285601,0.44283 -1.593682,0.46044 -0.04423,0.003 -0.08746,0.0116 -0.09607,0.0203 -0.0086,0.009 -0.02945,-0.005 -0.04631,-0.0295 -0.01686,-0.0248 -0.04935,-0.0654 -0.07221,-0.0903 -0.02285,-0.0248 -0.04668,-0.094 -0.05295,-0.15373 l -0.01139,-0.10865 0.196301,-0.15027 c 0.295835,-0.22647 0.755719,-0.58535 0.985497,-0.76904 0.24951,-0.19948 0.948147,-0.89821 1.072154,-1.07229 0.254595,-0.35743 0.462767,-0.78985 0.543777,-1.12954 0.03811,-0.15982 0.04279,-0.86155 0.006,-0.89835 -0.01165,-0.0117 -0.02259,-0.061 -0.02432,-0.10965 -0.0043,-0.12094 -0.156529,-0.59566 -0.191036,-0.59566 -0.01532,-10e-6 -0.01844,-0.009 -0.0069,-0.0209 0.04307,-0.0431 -0.257343,-0.56082 -0.461303,-0.79503 -0.146255,-0.16794 -0.274581,-0.37525 -0.248456,-0.40137 0.05266,-0.0527 -0.366903,-0.53447 -0.615029,-0.7063 -0.150321,-0.10409 -0.461367,-0.33453 -0.593401,-0.43962 -0.105862,-0.0843 -0.148287,-0.0845 -0.571278,-0.003 -0.366345,0.0703 -0.658716,0.0634 -0.885691,-0.021 -0.2280613,-0.0848 -0.4800163,-0.27481 -0.5916523,-0.44615 -0.119329,-0.18315 -0.206682,-0.45076 -0.168453,-0.51606 0.01983,-0.0339 0.01332,-0.0725 -0.01737,-0.1032 -0.06068,-0.0607 -0.07031,-0.18818 -0.01604,-0.21235 0.02506,-0.0112 0.02391,-0.0683 -0.0031,-0.15149 -0.04798,-0.14793 -0.04778,-0.14868 0.04803,-0.17769 0.05758,-0.0174 0.06604,-0.0393 0.05654,-0.14639 -0.01014,-0.11417 -0.0033,-0.12942 0.07361,-0.16385 0.07038,-0.0315 0.08672,-0.0541 0.09617,-0.13325 0.0103,-0.0862 0.02109,-0.0993 0.11343,-0.13719 0.158656,-0.0652 0.240002,-0.19973 0.191798,-0.31734 -0.02169,-0.0529 -0.04378,-0.10159 -0.0491,-0.10819 -0.08018,-0.0995 -0.258735,-0.88296 -0.226256,-0.99278 0.01604,-0.0542 0.219683,-0.2787 0.7083743,-0.78084 l 0.68587,-0.70475 -0.101798,-0.22745 c -0.05599,-0.12509 -0.106085,-0.23342 -0.111327,-0.24072 -0.0052,-0.007 -0.01803,-0.034 -0.02842,-0.0594 -0.01038,-0.0254 -0.04403,-0.0989 -0.07475,-0.16352 -0.03073,-0.0646 -0.09202,-0.2031 -0.136219,-0.30783 -0.04419,-0.10472 -0.08443,-0.18633 -0.08941,-0.18135 -0.01807,0.0181 -0.131985,-0.38693 -0.128497,-0.45683 0.0049,-0.0976 0.105036,-0.22968 0.273754,-0.36092 0.11736,-0.0913 0.166793,-0.10939 0.298792,-0.10939 0.172435,0 0.181778,-0.002 0.227224,-0.0474 0.04201,-0.042 0.268531,-0.0588 0.346688,-0.0256 0.03495,0.0148 0.30701,0.13439 0.604577,0.26571 l 0.541024,0.23877 0.787938,-0.78646 c 0.433373,-0.43256 1.429759,-1.44106 2.214167,-2.24115 0.784408,-0.8001 2.264667,-2.30743 3.289458,-3.34964 l 1.863257,-1.89493 0.04557,0.0456 c 0.04327,0.0433 0.05647,0.0347 0.26108,-0.16993 l 0.215508,-0.21551 0.122889,0.0179 c 0.06759,0.01 0.161507,0.0378 0.208706,0.062 l 0.08582,0.0442 0.733341,-0.73596 c 0.874501,-0.87762 3.274084,-3.3291 3.818234,-3.9008 0.417598,-0.43874 0.517095,-0.59807 0.470202,-0.75295 -0.02943,-0.0972 -0.0174,-0.31231 0.0241,-0.43094 0.02794,-0.0799 0.289862,-0.35698 1.536704,-1.6258 0.826662,-0.84124 1.59623,-1.63126 1.710149,-1.75561 0.11392,-0.12435 1.316868,-1.34852 2.673222,-2.72037 1.356357,-1.37185 2.512186,-2.54566 2.568516,-2.60846 0.05633,-0.0628 0.543774,-0.55986 1.083212,-1.10455 0.539439,-0.5447 1.09027,-1.10995 1.224072,-1.25611 l 0.243278,-0.26576 -0.09475,-0.0948 c -0.05212,-0.0521 -0.10286,-0.0866 -0.112758,-0.0768 -0.0099,0.01 -0.05466,0.007 -0.09947,-0.007 -0.06615,-0.02 -0.08874,-0.0422 -0.120166,-0.1181 -0.02129,-0.0514 -0.03014,-0.102 -0.01967,-0.11247 0.01047,-0.0105 -0.0043,-0.0424 -0.0328,-0.0709 -0.107811,-0.10781 0.03449,-0.24421 0.294029,-0.28185 0.222662,-0.0323 0.20397,-0.0177 1.113687,-0.86643 0.228048,-0.21276 0.423775,-0.38926 0.434943,-0.39224 0.04505,-0.012 0.127227,-0.20134 0.135224,-0.3115 0.0085,-0.11668 0.114556,-0.26191 0.205117,-0.2808 0.06844,-0.0143 0.321381,0.095 0.452658,0.19549 0.117645,0.0901 0.130029,0.0923 0.210574,0.0372 0.09404,-0.0643 0.116702,-0.0571 0.314233,0.0997 0.07305,0.058 0.166057,0.1307 0.206682,0.16155 0.04063,0.0309 0.142612,0.12382 0.226635,0.20659 l 0.152773,0.15048 0.117233,-0.13143 c 0.195078,-0.21868 0.214692,-0.20963 0.854566,0.3943 0.189998,0.17932 0.42064,0.38731 0.512543,0.4622 0.229223,0.18679 0.892997,0.86419 1.03988,1.06124 0.06614,0.0887 0.145157,0.18517 0.175583,0.21431 0.08196,0.0785 0.894575,0.98794 0.950601,1.06388 0.01011,0.0137 0.02265,0.0434 0.02786,0.066 0.0052,0.0226 0.04301,0.0561 0.084,0.0745 0.145795,0.0655 0.366402,0.26461 1.017198,0.91821 1.011588,1.01594 1.036533,1.05147 0.88169,1.2555 -0.04682,0.0617 -0.117808,0.13397 -0.157735,0.16058 -0.0618,0.0412 -0.06585,0.0566 -0.0272,0.10394 0.154141,0.18862 0.160871,0.26743 0.03407,0.39896 l -0.100105,0.10384 0.07724,0.10143 c 0.04249,0.0558 0.09848,0.11916 0.124447,0.14085 0.02597,0.0217 0.104931,0.12131 0.175478,0.22138 0.111375,0.15797 0.12318,0.19043 0.08963,0.24646 -0.02125,0.0355 -0.976386,1.00265 -2.122524,2.14924 -1.477882,1.47853 -2.085299,2.09992 -2.08875,2.13702 -0.0027,0.0288 -0.01359,0.0436 -0.02427,0.0329 -0.02473,-0.0247 -1.86447,1.83994 -4.087896,4.14329 -0.380355,0.39403 -1.122437,1.15305 -1.649073,1.68672 -0.526633,0.53367 -1.000675,1.02463 -1.053419,1.09102 -0.293739,0.36974 -0.544472,0.79536 -0.63943,1.08542 -0.06753,0.20627 -0.117924,0.51828 -0.08847,0.54773 0.01278,0.0128 0.01206,0.0232 -0.0016,0.0232 -0.03025,0 -0.03628,0.4003 -0.0088,0.58236 0.03259,0.21573 0.152056,0.60634 0.213513,0.6981 0.01393,0.0208 0.04089,0.0751 0.05992,0.12069 0.01903,0.0456 0.05384,0.10824 0.07735,0.13925 0.02351,0.031 0.04673,0.0738 0.05158,0.0951 0.0049,0.0213 0.137719,0.19781 0.29525,0.39231 0.157531,0.1945 0.290241,0.36982 0.29491,0.3896 0.0085,0.0362 0.278945,0.34924 0.366049,0.4238 0.02567,0.022 0.165325,0.15526 0.310334,0.29617 0.14501,0.14092 0.284033,0.26059 0.308939,0.26593 0.02492,0.005 0.06839,0.0556 0.09665,0.11168 0.03962,0.0787 0.07196,0.1105 0.141461,0.13928 0.06915,0.0286 0.09838,0.0573 0.125707,0.12329 0.02849,0.0688 0.05439,0.0919 0.129605,0.11575 0.08152,0.0258 0.09779,0.0417 0.122609,0.11969 0.02498,0.0785 0.04157,0.0942 0.130461,0.12396 0.09312,0.0311 0.103468,0.0418 0.120771,0.1249 0.01765,0.0847 0.02512,0.0921 0.111032,0.11003 0.0804,0.0168 0.09938,0.0336 0.14936,0.13285 0.04622,0.0918 0.07096,0.11683 0.128378,0.1301 0.0557,0.0129 0.08832,0.0445 0.150401,0.14576 0.06287,0.10255 0.07369,0.15675 0.0523,0.26187 -0.01484,0.0729 -0.04135,0.16028 -0.05891,0.19418 -0.01756,0.0339 -0.06748,0.16457 -0.110921,0.29038 -0.04344,0.12582 -0.08456,0.23434 -0.09138,0.24116 -0.0068,0.007 -0.02929,0.0569 -0.04993,0.11137 -0.07838,0.20669 -0.273694,0.65369 -0.364258,0.83365 -0.05185,0.10303 -0.08968,0.19845 -0.08408,0.21204 0.0056,0.0136 -0.0035,0.028 -0.02033,0.0319 -0.01678,0.004 -0.05166,0.06 -0.07752,0.12456 -0.03809,0.0951 -0.233411,0.48226 -0.302064,0.59877 -0.05363,0.091 -0.203928,0.36967 -0.220104,0.40807 -0.01059,0.0251 -0.03119,0.063 -0.04577,0.0842 -0.03412,0.0495 -0.08189,0.12099 -0.251658,0.37652 -0.07609,0.11452 -0.152437,0.22338 -0.169656,0.2419 -0.01722,0.0185 -0.07648,0.10547 -0.131692,0.19322 -0.05521,0.0877 -0.140043,0.19949 -0.188514,0.24832 -0.04848,0.0488 -0.08813,0.10165 -0.08813,0.1174 10e-7,0.0157 -0.02488,0.0575 -0.05528,0.0927 -0.03041,0.0353 -0.13925,0.16533 -0.241881,0.28906 -0.206965,0.2495 -1.264867,1.3127 -1.404453,1.41148 -0.04884,0.0345 -0.168617,0.11947 -0.26618,0.1887 -0.09756,0.0692 -0.241828,0.16865 -0.320588,0.22094 -0.07876,0.0523 -0.158798,0.10871 -0.177862,0.12539 -0.01907,0.0167 -0.05523,0.039 -0.08038,0.0496 -0.06076,0.0256 -0.246483,0.15102 -0.277989,0.18772 -0.01376,0.016 -0.03368,0.0205 -0.04427,0.01 -0.01059,-0.0106 -0.03255,-0.006 -0.04881,0.0103 -0.01626,0.0163 -0.158301,0.0935 -0.315659,0.17172 -0.157357,0.0782 -0.29875,0.14901 -0.314203,0.15738 -0.03891,0.0211 -0.096,0.0463 -0.509631,0.22537 -0.198984,0.0861 -0.374099,0.16445 -0.389143,0.17405 -0.01504,0.01 -0.04765,0.0264 -0.07246,0.0373 -0.440991,0.19427 -1.012696,0.67726 -1.268077,1.07131 -0.05153,0.0795 -0.101877,0.15676 -0.111872,0.17165 -0.06364,0.0948 -0.257739,0.67985 -0.283535,0.85463 -0.03064,0.20757 -0.01799,0.72484 0.02457,1.00477 0.04943,0.32512 0.140065,0.69851 0.179016,0.73746 0.01602,0.016 0.02043,0.0378 0.0098,0.0485 -0.01063,0.0106 -0.0036,0.0231 0.01572,0.0276 0.01928,0.005 0.02605,0.0173 0.01505,0.0283 -0.02063,0.0206 0.08148,0.27932 0.135043,0.34209 0.0166,0.0195 0.04591,0.0848 0.06513,0.14514 0.01922,0.0604 0.05304,0.13349 0.07518,0.1625 0.02213,0.029 0.04985,0.0724 0.06159,0.0964 0.03879,0.0793 0.142972,0.26745 0.16981,0.30673 0.01451,0.0212 0.04356,0.0799 0.06457,0.13038 0.021,0.0505 0.05586,0.11392 0.07746,0.14098 0.0216,0.0271 0.04326,0.0639 0.04812,0.0819 0.009,0.0332 0.08757,0.17838 0.12106,0.22368 0.01014,0.0137 0.03062,0.0517 0.04555,0.0844 0.05823,0.12766 0.282184,0.55955 0.355047,0.68468 0.0263,0.0452 0.124329,0.22983 0.217831,0.41033 0.0935,0.18051 0.18087,0.34658 0.194151,0.36904 0.01328,0.0225 0.09107,0.16886 0.172874,0.32533 0.0818,0.15647 0.161803,0.30066 0.177784,0.32042 0.01599,0.0197 0.02866,0.0461 0.02819,0.0584 -9.25e-4,0.0241 0.248184,0.50968 0.293786,0.57266 0.01501,0.0207 0.0436,0.0763 0.06354,0.12339 0.01994,0.0471 0.04912,0.0986 0.06486,0.11431 0.01573,0.0157 0.04197,0.0711 0.05829,0.12301 0.01633,0.0519 0.04622,0.11106 0.06644,0.13142 0.02029,0.0203 0.05012,0.0684 0.06647,0.10682 0.03673,0.0863 0.387077,0.76781 0.600075,1.16733 0.087,0.16319 0.193317,0.36879 0.236264,0.45689 0.04294,0.0881 0.09423,0.18303 0.113962,0.21095 0.01973,0.0279 0.05246,0.0903 0.07271,0.13856 0.04715,0.11239 0.163517,0.2967 0.178108,0.28211 0.0061,-0.006 0.01349,0.0109 0.01631,0.0378 0.0028,0.027 0.03901,0.0936 0.08043,0.14808 0.04141,0.0545 0.09224,0.13678 0.112949,0.1829 0.02071,0.0461 0.06553,0.10315 0.0996,0.12677 0.03408,0.0236 0.05442,0.0505 0.04522,0.0597 -0.0092,0.009 0.056,0.11458 0.144913,0.23416 0.08891,0.11958 0.181705,0.2461 0.206217,0.28115 0.208262,0.29785 0.534097,0.6634 1.000428,1.12235 0.562537,0.55365 0.761527,0.72808 1.096538,0.96126 0.112391,0.0782 0.320698,0.2257 0.462907,0.32772 0.212161,0.1522 0.2653,0.17875 0.296119,0.14793 0.02066,-0.0207 0.0865,-0.0412 0.146307,-0.0457 0.115947,-0.009 0.214342,0.0526 0.57878,0.36038 0.09687,0.0818 0.19791,0.15625 0.22452,0.16538 0.02661,0.009 0.07208,0.0483 0.101042,0.087 0.02896,0.0387 0.07498,0.0725 0.102233,0.075 0.02726,0.003 0.04956,0.0139 0.04956,0.0254 0,0.0239 0.536543,0.41028 0.663325,0.47764 0.183579,0.0975 0.257607,0.28467 0.191054,0.48297 -0.06078,0.18109 -0.05807,0.17675 -0.282037,0.45069 -0.100345,0.12274 -0.182443,0.23343 -0.182441,0.246 0,0.0126 -0.0095,0.0253 -0.021,0.0283 -0.01156,0.003 -0.280735,0.25258 -0.598188,0.55463 z M 35.008143,267.1656 c 0.483987,-0.53194 0.877371,-1.09348 1.166771,-1.66554 0.294283,-0.5817 0.526247,-1.19426 0.608051,-1.60571 0.05724,-0.28789 0.06468,-0.96185 0.01402,-1.27004 -0.05829,-0.35461 -0.339448,-1.09034 -0.424327,-1.11038 -0.01785,-0.004 -0.02376,-0.0164 -0.01312,-0.027 0.01063,-0.0106 0.008,-0.0323 -0.0059,-0.0483 -0.01388,-0.0159 -0.09678,-0.13283 -0.184235,-0.25982 -0.185979,-0.27006 -0.584264,-0.6528 -0.894733,-0.85981 -0.497745,-0.33187 -1.092917,-0.53109 -1.653132,-0.55335 -0.212427,-0.008 -0.69844,0.0464 -0.736746,0.0832 -0.0107,0.0102 -0.09136,0.0325 -0.179313,0.0494 -0.08795,0.0169 -0.175559,0.0463 -0.194689,0.0652 -0.01912,0.019 -0.07481,0.0471 -0.123741,0.0625 -0.276461,0.0869 -0.692314,0.39954 -0.984272,0.73999 -0.100898,0.11766 -0.303479,0.42703 -0.316442,0.48326 -0.0046,0.0202 -0.02507,0.059 -0.0454,0.0863 -0.0377,0.0507 -0.174139,0.43595 -0.259311,0.73217 -0.04287,0.14908 -0.0413,0.16166 0.01678,0.13495 0.108901,-0.0501 0.23287,0.0435 0.428289,0.3232 0.0784,0.11222 0.158974,0.22659 0.179061,0.25415 0.02009,0.0276 0.04571,0.0702 0.05694,0.0947 0.01123,0.0245 0.06196,0.10051 0.112732,0.16887 0.05077,0.0684 0.102876,0.14297 0.115781,0.16581 0.133341,0.23594 0.42739,0.56372 0.706767,0.78784 0.187267,0.15023 0.205744,0.16249 0.221338,0.1469 0.008,-0.008 0.02587,-0.001 0.03963,0.0145 0.0509,0.0593 0.223564,0.15551 0.243419,0.13565 0.01129,-0.0113 0.02442,-0.004 0.02917,0.0161 0.0048,0.0201 0.04827,0.0448 0.0967,0.0549 0.04843,0.0101 0.08145,0.025 0.07337,0.033 -0.0081,0.008 0.01931,0.0164 0.06087,0.0185 0.04156,0.002 0.07556,0.0168 0.07556,0.0327 -2e-6,0.0159 0.01137,0.0176 0.02527,0.004 0.0139,-0.0139 0.03594,-0.0146 0.04898,-0.002 0.04048,0.0405 0.495033,0.11842 0.717779,0.12306 0.240925,0.005 0.522808,-0.0248 0.556902,-0.0589 0.01261,-0.0126 0.03058,-0.0153 0.03992,-0.006 0.028,0.028 0.222158,-0.033 0.359114,-0.11274 0.203944,-0.1188 0.39016,-0.14557 0.584462,-0.084 0.209542,0.0664 0.245596,0.1228 0.161579,0.25283 -0.126734,0.19613 -0.592271,0.57126 -0.808865,0.65177 -0.06948,0.0258 -0.20437,0.0761 -0.299756,0.1118 -0.299821,0.11211 -0.413003,0.13016 -0.898453,0.1433 -0.178946,0.005 -0.46219,-0.0141 -0.629433,-0.0421 -0.167244,-0.028 -0.321231,-0.048 -0.342196,-0.0446 -0.02097,0.003 -0.02983,-0.002 -0.01971,-0.0128 0.01014,-0.0105 -0.0219,-0.0275 -0.07116,-0.0377 -0.08982,-0.0187 -0.588253,-0.22131 -0.662294,-0.26921 -0.0217,-0.014 -0.112788,-0.0692 -0.202413,-0.1225 -0.08963,-0.0533 -0.25196,-0.16393 -0.360742,-0.24576 -0.108782,-0.0818 -0.226599,-0.16872 -0.261815,-0.19307 -0.03522,-0.0243 -0.172859,-0.15422 -0.305874,-0.28859 -0.358758,-0.36243 -0.538493,-0.4433 -0.85908,-0.38654 -0.0876,0.0155 -0.315232,0.0311 -0.505854,0.0347 l -0.346589,0.006 -0.09358,0.12303 c -0.05147,0.0677 -0.123899,0.15607 -0.160954,0.19646 -0.03706,0.0404 -0.05918,0.0816 -0.04917,0.0916 0.01001,0.01 0.0018,0.0221 -0.01825,0.0268 -0.05578,0.0132 -0.291918,0.35858 -0.333527,0.48787 -0.0203,0.0631 -0.02921,0.14587 -0.01978,0.18396 0.0094,0.0381 -0.02366,0.1902 -0.07353,0.33803 -0.109303,0.32404 -0.154689,0.4933 -0.149291,0.55674 0.0022,0.026 -0.0092,0.0828 -0.02547,0.12615 -0.04092,0.1093 -0.05948,0.76364 -0.02272,0.80041 0.01651,0.0165 0.0204,0.0396 0.0086,0.0514 -0.02411,0.0241 0.03315,0.31732 0.06548,0.33525 0.01149,0.006 0.01057,0.0219 -0.002,0.0345 -0.01262,0.0126 -0.0072,0.0267 0.01211,0.0312 0.01928,0.005 0.02575,0.0176 0.01438,0.0289 -0.05992,0.0599 0.231236,0.68525 0.447297,0.96067 0.815945,1.04012 2.125423,1.41331 3.419928,0.97466 0.808532,-0.27397 1.994669,-1.13435 2.830845,-2.05337 z m -24.221516,4.04813 c -0.06642,-0.0938 -0.145166,-0.20465 -0.17499,-0.24631 -0.02982,-0.0417 -0.09418,-0.14301 -0.143019,-0.22522 -0.04884,-0.0822 -0.108796,-0.17821 -0.133241,-0.21333 -0.02445,-0.0351 -0.09144,-0.16161 -0.148875,-0.28107 -0.122274,-0.25431 -0.109266,-0.23571 -0.136258,-0.19488 -0.2253913,0.341 -0.2569553,0.60859 -0.1083693,0.91872 0.1538823,0.32118 0.5774903,0.53616 0.8718603,0.44247 l 0.09366,-0.0298 z"
       id="path1078"       
       sodipodi:nodetypes="cccscccccccccccccccccscccsccccccsccccscccccccccccscccccccccscccccccscccscsccccccscccsccccccccsccscsccscccsccccccscccscccsccscscsccccsscsscsccccccscccccccsccsscccccccccccccccccscsccsccccccccsscccsccscccsccsccccccsccccccccsccsccccccccccccccccccssscscccccssscscscccccccscsccccccscccccccsccccscccccsccscccccccccccccscsccscccccsccscsccsscscsccsccssssscccccssccccsccccccccsccccccsscscscsccccccscsccc" />
  </g>
</svg>
