<?xml version="1.0" encoding="UTF-8" standalone="no"?>
<!-- Created with Inkscape (http://www.inkscape.org/) -->

<svg
   xmlns:dc="http://purl.org/dc/elements/1.1/"
   xmlns:cc="http://creativecommons.org/ns#"
   xmlns:rdf="http://www.w3.org/1999/02/22-rdf-syntax-ns#"
   xmlns:svg="http://www.w3.org/2000/svg"
   xmlns="http://www.w3.org/2000/svg"
   xmlns:sodipodi="http://sodipodi.sourceforge.net/DTD/sodipodi-0.dtd"   
   width="220"
   height="235"
   viewBox="0 0 58.208332 62.177085"
   version="1.1"
   id="svg8"   
   sodipodi:docname="f226.svg" >
  <defs
     id="defs2" />
  <sodipodi:namedview
     id="base"
     pagecolor="#000000"
     bordercolor="#666666"
     borderopacity="1.0"
     showgrid="false"
     units="px"
     showguides="false" />
  <metadata
     id="metadata5">
    <rdf:RDF>
      <cc:Work
         rdf:about="">
        <dc:format>image/svg+xml</dc:format>
        <dc:type
           rdf:resource="http://purl.org/dc/dcmitype/StillImage" />
        <dc:title />
      </cc:Work>
    </rdf:RDF>
  </metadata>
  <g
     id="layer1"
     transform="translate(0,-234.8229)">
    <path
       style="fill:none;stroke:#fffffd;stroke-width:0.4;stroke-opacity:1;stroke-miterlimit:4;stroke-dasharray:none"
       d="m 40.606365,288.91393 c 1.307624,-1.38187 1.596996,-1.72518 1.71628,-2.03622 0.239364,-0.62415 0.302597,-1.27858 0.166433,-1.72247 -0.111877,-0.36469 -0.164968,-0.43594 -0.396166,-0.53171 -0.146836,-0.0609 -0.456863,-0.0643 -0.688949,-0.008 -0.528809,0.12885 -1.240459,-0.0861 -1.779134,-0.53757 -0.315281,-0.26418 -0.693638,-0.808 -1.941098,-2.78994 -0.852216,-1.35399 -2.070745,-3.27978 -2.707846,-4.27955 -1.522182,-2.38865 -1.580086,-2.50814 -1.537716,-3.17332 0.03514,-0.55186 0.404559,-1.45162 0.729287,-1.77636 0.09281,-0.0928 0.517806,-0.36983 0.944405,-0.61555 1.544819,-0.8899 2.16445,-1.5599 5.739297,-6.20572 0.460085,-0.59793 0.930517,-1.18114 1.045405,-1.29602 0.127836,-0.12785 0.204036,-0.30609 0.19639,-0.45941 -0.01213,-0.24328 -0.03702,-0.26781 -0.863395,-0.8511 -1.49696,-1.05659 -2.318374,-2.06606 -2.861424,-3.51654 -0.323268,-0.86344 -0.359788,-1.39442 -0.143385,-2.08466 0.148913,-0.47498 0.203205,-0.54386 1.52119,-1.93016 1.327986,-1.39685 1.367035,-1.44659 1.376418,-1.75382 l 0.0097,-0.31619 0.311375,-0.0371 c 0.260315,-0.0311 0.399305,-0.12512 0.847615,-0.57343 0.475496,-0.4755 0.53966,-0.57574 0.566282,-0.88507 l 0.03004,-0.34883 0.297992,0.0209 c 0.268896,0.0188 0.346961,-0.0281 0.799585,-0.48129 0.387442,-0.38783 0.520442,-0.57981 0.584418,-0.84366 0.0779,-0.32124 0.09885,-0.34492 0.352046,-0.39767 0.191272,-0.0399 0.38933,-0.18297 0.683981,-0.49429 0.66078,-0.69814 0.683117,-0.99368 0.113365,-1.49898 l -0.349871,-0.31029 1.560275,-1.65299 c 1.168308,-1.23775 1.572731,-1.71096 1.609868,-1.88372 0.08137,-0.37851 -0.305326,-1.08725 -1.048931,-1.92242 -1.469094,-1.65002 -1.592425,-1.80962 -1.508781,-1.9525 0.07002,-0.1196 -0.08877,-0.30792 -1.393349,-1.65244 l -1.472364,-1.51748 H 42.80445 c -0.246667,0 -0.418615,0.0882 -0.829702,0.42554 -0.66981,0.54964 -0.70378,0.56158 -1.007098,0.35409 -0.352962,-0.24143 -0.512965,-0.2051 -1.192575,0.27081 -0.83955,0.58795 -1.166603,0.92856 -1.069042,1.11336 0.04303,0.0816 0.09467,0.21911 0.114783,0.30576 0.115078,0.49607 0.182335,0.61167 0.335469,0.57663 0.09192,-0.0211 -0.51575,0.60931 -1.538324,1.59573 -2.601161,2.50916 -9.344402,9.26213 -9.374006,9.3875 -0.03705,0.15699 -2.894283,2.96217 -4.592877,4.50925 -1.129075,1.02836 -1.418558,1.32543 -1.404943,1.44177 0.01324,0.11326 -0.653637,0.82771 -2.936056,3.14556 -1.624267,1.64945 -3.760574,3.85115 -4.747371,4.89262 -2.005945,2.1171 -1.939156,2.07213 -2.396765,1.61451 -0.243647,-0.24364 -0.562617,-0.2941 -0.609293,-0.0963 -0.01428,0.0607 -0.117052,0.11006 -0.22833,0.11007 -0.254581,0 -1.6272756,1.32829 -1.5799356,1.52883 0.015886,0.0672 0.1706844,0.36378 0.3439906,0.65883 l 0.315108,0.53648 -0.326243,0.42105 c -0.1794343,0.23158 -0.3231916,0.43356 -0.3194588,0.44886 0.00373,0.0152 0.2303257,0.44477 0.5035438,0.95438 0.273217,0.50963 0.521878,1.03288 0.552582,1.16276 l 0.05583,0.23615 -0.38426,0.12464 c -1.0108698,0.32787 -1.1062421,1.28527 -0.158102,1.58706 0.159275,0.0507 0.312911,0.0689 0.341418,0.0403 0.02851,-0.0285 0.32024,-0.0633 0.648299,-0.0773 0.607036,-0.0258 0.705909,0.0294 0.899223,0.50308 0.04878,0.1195 0.09672,0.13019 0.186727,0.0418 0.09725,-0.0957 0.105597,-0.072 0.0423,0.12103 -0.05344,0.16291 -0.01411,0.34159 0.122214,0.5552 0.953323,1.49389 1.633948,3.38286 1.778007,4.93458 0.02319,0.24987 0.09963,0.39937 0.283685,0.55487 l 0.251931,0.21283 0.989989,-0.65395 c 1.232654,-0.81425 2.013945,-1.09006 3.088386,-1.09022 1.033383,-1.7e-4 1.842738,0.25205 2.424552,0.75557 0.245052,0.21209 0.544607,0.43211 0.665676,0.48895 0.330532,0.15519 1.380521,1.18311 1.667302,1.63229 0.369094,0.57807 0.819315,1.59875 0.834297,1.89136 0.0071,0.13976 0.03723,0.27833 0.06684,0.30796 0.02962,0.0296 0.106812,0.31597 0.171564,0.63639 0.160452,0.79393 0.624974,2.01895 1.006624,2.65462 0.572567,0.95367 0.805385,1.249 3.450926,4.37752 1.451615,1.71665 2.382594,2.70713 3.336309,3.54954 0.252958,0.22345 0.930264,0.2072 1.43366,-0.0343 0.413698,-0.19855 0.703389,-0.46057 2.73748,-2.47609 1.251159,-1.23971 2.982599,-3.00197 3.847631,-3.91614 z m -5.510947,-18.87567 c -1.018652,0.71035 -1.866653,0.92091 -2.623168,0.65132 -0.581992,-0.20742 -0.836389,-0.4704 -1.472164,-1.52192 -0.493644,-0.81641 -0.606267,-1.07531 -0.631248,-1.45112 -0.05286,-0.79508 -0.03231,-0.82319 0.641216,-0.87758 0.328466,-0.0264 0.753887,-0.069 0.945382,-0.0942 0.519527,-0.0688 1.193062,0.0864 1.826831,0.42109 1.169295,0.61743 1.998601,0.73072 2.928015,0.40003 0.751001,-0.26721 1.130228,-0.52843 1.275181,-0.87837 0.153188,-0.36983 0.01065,-0.47487 -0.376974,-0.27778 -1.681966,0.85518 -3.732272,0.01 -4.262038,-1.75757 -0.315851,-1.05365 -0.433329,-0.81525 1.230491,-2.49714 1.288718,-1.30272 1.506113,-1.49439 1.789255,-1.5774 1.046262,-0.30668 1.879615,0.15865 2.88446,1.61069 0.506777,0.73229 0.59816,0.94784 0.633676,1.4946 0.05077,0.78153 -0.09555,1.05763 -1.536211,2.89851 -1.473877,1.88336 -2.385517,2.85224 -3.252704,3.45697 z"
       id="path946"       
       sodipodi:nodetypes="cccscssscsccscsscssccscccccccccccscccsccccccsccccsscccccccsccccscccccscccccscssssscccccccccscsccssccscsc" />
  </g>
</svg>
