<?xml version="1.0" encoding="UTF-8" standalone="no"?>
<!-- Created with Inkscape (http://www.inkscape.org/) -->

<svg
   xmlns:dc="http://purl.org/dc/elements/1.1/"
   xmlns:cc="http://creativecommons.org/ns#"
   xmlns:rdf="http://www.w3.org/1999/02/22-rdf-syntax-ns#"
   xmlns:svg="http://www.w3.org/2000/svg"
   xmlns="http://www.w3.org/2000/svg"
   xmlns:sodipodi="http://sodipodi.sourceforge.net/DTD/sodipodi-0.dtd"   
   width="220"
   height="235"
   viewBox="0 0 58.208332 62.177085"
   version="1.1"
   id="svg8"
   sodipodi:docname="five-seven.svg" >
  <defs
     id="defs2" />
  <sodipodi:namedview
     id="base"
     pagecolor="#000000"
     bordercolor="#666666"
     borderopacity="1.0"
     showgrid="false"
     units="px"     
     showguides="false" />
  <metadata
     id="metadata5">
    <rdf:RDF>
      <cc:Work
         rdf:about="">
        <dc:format>image/svg+xml</dc:format>
        <dc:type
           rdf:resource="http://purl.org/dc/dcmitype/StillImage" />
        <dc:title></dc:title>
      </cc:Work>
    </rdf:RDF>
  </metadata>
  <g       
     id="layer1"
     transform="translate(0,-234.8229)">
    <path
       style="fill:none;stroke:#fffffd;stroke-width:0.4;stroke-opacity:1;stroke-miterlimit:4;stroke-dasharray:none"
       d="m 34.592279,292.73671 c 1.206286,-1.26477 2.868376,-3.11594 4.249055,-4.73244 1.910757,-2.23712 2.108991,-2.51101 2.109019,-2.91397 1.6e-5,-0.22235 -0.12025,-0.44061 -0.299473,-0.54352 -0.145243,-0.0833 -0.603309,-0.0671 -0.892859,0.0318 -0.201878,0.069 -0.283808,0.0669 -0.515052,-0.0135 -0.24143,-0.084 -0.275615,-0.10768 -0.28014,-0.19468 -0.0029,-0.0545 -0.07121,-0.19602 -0.151944,-0.31448 -0.08073,-0.11846 -0.149449,-0.27344 -0.1527,-0.34438 -0.0067,-0.14858 -0.07161,-0.22593 -0.189238,-0.22593 -0.06433,0 -0.07735,-0.0267 -0.05975,-0.12254 0.02483,-0.13511 -0.110809,-0.30152 -0.245746,-0.30152 -0.06171,0 -0.07187,-0.009 -0.0416,-0.0383 0.02202,-0.0211 0.02719,-0.0975 0.0115,-0.16975 -0.02216,-0.10208 -0.05255,-0.13835 -0.136256,-0.16265 -0.08704,-0.0253 -0.112633,-0.0627 -0.133296,-0.19491 -0.02144,-0.13715 -0.04429,-0.16907 -0.1412,-0.19721 -0.09743,-0.0282 -0.116346,-0.0556 -0.1202,-0.17402 -0.0052,-0.15824 -0.06729,-0.23737 -0.186367,-0.23737 -0.06229,0 -0.08183,-0.0337 -0.08553,-0.14725 -0.0053,-0.16462 -0.06616,-0.24418 -0.186589,-0.24418 -0.06229,0 -0.08183,-0.0337 -0.08553,-0.14726 -0.0051,-0.15696 -0.11078,-0.29474 -0.209009,-0.27251 -0.03775,0.008 -0.06098,-0.0507 -0.06346,-0.1617 -0.0036,-0.15632 -0.01809,-0.18027 -0.135486,-0.22238 -0.114692,-0.0411 -0.132184,-0.0659 -0.136321,-0.19298 -0.0054,-0.16508 -0.06599,-0.24202 -0.192386,-0.24419 -0.0697,-10e-4 -0.08178,-0.0255 -0.06198,-0.12467 0.02668,-0.13359 -0.07495,-0.26528 -0.204749,-0.26528 -0.0629,0 -0.08215,-0.0433 -0.08549,-0.19245 -0.0034,-0.1491 -0.02259,-0.19245 -0.08549,-0.19245 -0.112208,0 -0.212121,-0.10581 -0.175127,-0.18547 0.04435,-0.0955 -0.03793,-0.22077 -0.163292,-0.24856 -0.09372,-0.0208 -0.106499,-0.0479 -0.09513,-0.20229 0.01182,-0.16068 0.0013,-0.18105 -0.106043,-0.20593 -0.108138,-0.0251 -0.117487,-0.0455 -0.101069,-0.22035 0.01529,-0.16285 0.0018,-0.19746 -0.08654,-0.22313 -0.121708,-0.0354 -0.144048,-0.0981 -0.09212,-0.25883 0.03264,-0.10105 0.01782,-0.12917 -0.116027,-0.22042 -0.142201,-0.097 -0.149742,-0.11578 -0.10291,-0.25688 0.04922,-0.14829 0.005,-0.25609 -0.09561,-0.23331 -0.07642,0.0173 -0.155528,-0.14431 -0.122243,-0.24972 0.0336,-0.10642 -0.05064,-0.20904 -0.171579,-0.20904 -0.06288,0 -0.08749,-0.0405 -0.109201,-0.17936 -0.02274,-0.1455 -0.04714,-0.18359 -0.129261,-0.2018 -0.131295,-0.0291 -0.224607,-0.12037 -0.224608,-0.21968 1e-6,-0.0617 -0.0364,-0.088 -0.167194,-0.12019 -0.144066,-0.0356 -0.172579,-0.0584 -0.206118,-0.16452 -0.03064,-0.0971 -0.06155,-0.12831 -0.145276,-0.14686 -0.143829,-0.0319 -0.208551,-0.10134 -0.1706,-0.18305 0.0383,-0.0824 -0.03511,-0.15925 -0.186994,-0.19563 -0.09829,-0.0236 -0.110066,-0.0434 -0.08872,-0.15032 0.02787,-0.13949 -0.01984,-0.20233 -0.182207,-0.23997 -0.09855,-0.0229 -0.109124,-0.045 -0.08717,-0.18316 0.02133,-0.13419 0.0055,-0.16994 -0.108359,-0.24462 -0.110265,-0.0723 -0.125284,-0.1024 -0.08682,-0.17354 0.05886,-0.1089 0.04807,-0.22384 -0.0316,-0.33668 -0.151787,-0.215 -0.03873,-0.68956 0.289464,-1.21499 0.146398,-0.23439 0.359328,-0.45197 1.544183,-1.57794 1.230959,-1.16975 1.471567,-1.41707 2.305862,-2.36992 0.831313,-0.94945 2.177545,-2.46353 3.399032,-3.82283 0.482597,-0.53704 0.640544,-0.78831 0.797738,-1.26909 0.134239,-0.41056 0.126137,-1.07778 -0.01777,-1.46359 -0.124736,-0.33441 -0.63504,-1.18094 -0.744799,-1.23551 -0.0443,-0.022 -0.0842,-0.0778 -0.08866,-0.12387 -0.0045,-0.0461 -0.05087,-0.10506 -0.103108,-0.13101 -0.06227,-0.031 -0.0972,-0.0896 -0.101394,-0.17049 -0.0051,-0.0974 -0.02732,-0.12793 -0.105989,-0.14537 -0.08029,-0.0178 -0.09957,-0.0493 -0.09957,-0.16255 10e-7,-0.11481 -0.01865,-0.14461 -0.102046,-0.16309 -0.08316,-0.0185 -0.102044,-0.0478 -0.102044,-0.15881 0,-0.11488 -0.01542,-0.13756 -0.09859,-0.14498 -0.08338,-0.007 -0.09937,-0.0326 -0.103618,-0.16323 -0.0042,-0.12897 -0.02093,-0.15587 -0.101385,-0.16304 -0.07967,-0.007 -0.09745,-0.0294 -0.102632,-0.12919 -0.0041,-0.0794 -0.04158,-0.14089 -0.1095,-0.17988 -0.06733,-0.0386 -0.100081,-0.0917 -0.09421,-0.15238 0.0052,-0.0541 -0.02754,-0.11364 -0.0782,-0.14209 -0.04798,-0.027 -0.08967,-0.0958 -0.09266,-0.15302 -0.003,-0.0573 -0.133987,-0.30653 -0.291137,-0.55399 -0.249487,-0.39287 -0.276829,-0.45859 -0.215574,-0.51822 0.03862,-0.0375 0.126898,-0.34647 0.196257,-0.6865 0.06936,-0.34001 0.197989,-0.86023 0.285847,-1.15604 l 0.159746,-0.53783 0.586935,-0.54536 0.586936,-0.54535 0.211751,0.15202 c 0.329455,0.23652 0.38198,0.22457 0.808031,-0.18401 0.236268,-0.22658 0.362086,-0.37444 0.362085,-0.42553 0,-0.0456 -0.09675,-0.17106 -0.231298,-0.30009 l -0.2313,-0.22181 0.425183,-0.40774 0.42518,-0.40775 0.09375,0.0895 c 0.13868,0.13246 0.40149,0.26463 0.526185,0.26463 0.09356,0 0.160741,-0.0557 0.463338,-0.385 0.194649,-0.21177 0.354536,-0.39101 0.355302,-0.39836 7.64e-4,-0.007 -0.09765,-0.1278 -0.218689,-0.26767 l -0.220085,-0.25431 0.373447,-0.37822 0.373444,-0.37822 0.102523,0.0648 c 0.256909,0.16232 0.364065,0.21563 0.481469,0.23959 0.119242,0.0243 0.148598,0.004 0.531542,-0.36295 0.29417,-0.28211 0.397485,-0.40354 0.376723,-0.44282 -0.03058,-0.0579 -0.262191,-0.34233 -0.35792,-0.43963 -0.05137,-0.0522 -0.017,-0.0978 0.308936,-0.41043 l 0.366734,-0.3517 0.191147,0.0997 c 0.105135,0.0548 0.268966,0.11791 0.364079,0.14014 l 0.172931,0.0404 0.405971,-0.38932 0.405972,-0.38932 -0.07441,-0.10805 c -0.04092,-0.0594 -0.143196,-0.18186 -0.227269,-0.27207 -0.107683,-0.11553 -0.141717,-0.18466 -0.115148,-0.23388 0.06339,-0.11747 0.638711,-0.61884 0.6727,-0.58624 0.05327,0.0511 0.564006,0.20791 0.651674,0.2001 0.08981,-0.008 0.245957,-0.13564 0.555392,-0.45397 0.176867,-0.18196 0.197632,-0.22428 0.170773,-0.34794 -0.03578,-0.16476 -0.32868,-0.67542 -0.459153,-0.80053 -0.04964,-0.0477 -0.123746,-0.17507 -0.16469,-0.28325 -0.04094,-0.10821 -0.207911,-0.40248 -0.37104,-0.65396 -0.163129,-0.25149 -0.319265,-0.50566 -0.346975,-0.56483 l -0.05038,-0.10758 0.950162,-0.86798 c 0.819008,-0.74816 0.948965,-0.88027 0.941515,-0.95699 -0.0048,-0.049 -0.112933,-0.2213 -0.240402,-0.38297 -0.127471,-0.16167 -0.229262,-0.29636 -0.226202,-0.29928 0.0031,-0.003 0.01929,-0.0509 0.03607,-0.10658 0.02489,-0.0826 -0.02783,-0.17593 -0.286913,-0.50772 -0.174573,-0.22357 -0.333407,-0.44666 -0.352956,-0.49578 -0.01955,-0.0491 -0.694035,-0.72337 -1.498851,-1.49836 -1.628089,-1.56778 -2.007707,-1.87989 -2.375539,-1.95321 l -0.21121,-0.0421 -0.509734,0.48884 -0.509735,0.48882 -0.392522,-0.37642 c -0.604336,-0.57955 -0.793775,-0.60744 -1.851845,-0.27262 -0.554548,0.17547 -0.643048,0.21729 -0.785476,0.37111 -0.101669,0.10981 -0.152129,0.20119 -0.137637,0.24928 0.01259,0.0418 0.195847,0.54855 0.407258,1.12624 l 0.384384,1.05032 -0.204668,0.19627 c -0.112567,0.10795 -0.198804,0.22009 -0.191641,0.24921 0.0087,0.0353 -0.0203,0.0626 -0.0869,0.0819 -0.05492,0.0159 -0.192618,0.0895 -0.30598,0.16364 -0.130307,0.0851 -5.157124,4.8816 -13.667014,13.04078 l -13.460893,12.90616 -0.20942,-0.1918 c -0.256831,-0.23521 -0.694608,-0.39608 -0.900043,-0.33075 -0.117547,0.0374 -0.477882,0.27903 -1.167723,0.78308 -0.2401006,0.17545 -1.1059671,0.7188 -1.410094,0.88489 -0.1401304,0.0765 -0.2914809,0.12535 -0.3425787,0.11052 -0.077121,-0.0225 -0.1674117,0.0387 -0.5730199,0.38819 -0.4134607,0.3562 -0.4847993,0.43287 -0.5049867,0.54276 -0.012927,0.0704 -0.056495,0.15961 -0.096817,0.19827 -0.04031,0.0387 -0.069554,0.10336 -0.064969,0.14386 0.015995,0.14123 0.4480124,1.15449 0.5558232,1.30365 0.1014355,0.14035 0.1122927,0.14451 0.1624579,0.0623 0.029576,-0.0485 0.065379,-0.0769 0.079569,-0.0633 0.014201,0.0136 0.1777625,-0.10115 0.3634851,-0.25489 0.3478538,-0.28805 0.6080686,-0.49097 0.7744761,-0.6039 0.052408,-0.0356 0.1084921,-0.10655 0.1246505,-0.15774 0.024014,-0.0761 0.041633,-0.0813 0.096343,-0.0289 0.06411,0.0615 0.043161,0.0865 -0.4920154,0.58829 l -0.5589691,0.52407 -0.115687,0.31313 c -0.2365458,0.6402 -0.2130738,1.1817 0.073809,1.7027 0.1155074,0.20978 1.2087845,1.85379 1.872916,2.81639 0.04448,0.0644 0.09192,0.16575 0.105435,0.2251 0.01351,0.0594 0.127648,0.26751 0.253635,0.46264 0.125987,0.19511 0.242415,0.39703 0.258729,0.44871 0.0163,0.0516 0.277467,0.46749 0.580346,0.92403 0.701102,1.05682 1.074712,1.4697 1.50372,1.66174 0.159243,0.0713 0.424055,0.15813 0.588465,0.19296 0.37072,0.0786 0.945624,0.071 1.089449,-0.0145 0.0593,-0.0352 0.167769,-0.0668 0.241055,-0.0703 0.144538,-0.007 0.794008,-0.28763 2.029738,-0.87734 1.113594,-0.53141 1.732586,-0.64897 2.331757,-0.44282 0.245761,0.0846 0.315429,0.13348 0.64795,0.45506 0.358045,0.34627 0.380363,0.37832 0.571846,0.82162 0.740289,1.71382 1.089033,2.49163 1.431883,3.19356 0.214833,0.43984 0.413949,0.9094 0.44248,1.04348 0.03041,0.14287 0.08579,0.26282 0.133808,0.28977 0.04535,0.0255 0.09018,0.1122 0.100406,0.19431 0.01019,0.0815 0.06137,0.18193 0.113806,0.22303 0.05244,0.0411 0.109689,0.14211 0.12724,0.2245 0.01755,0.0824 0.0723,0.18855 0.121686,0.2359 0.04938,0.0473 0.110824,0.16436 0.136549,0.26003 0.02573,0.0957 0.08028,0.18827 0.121246,0.20576 0.04096,0.0175 0.08752,0.10613 0.103452,0.19706 0.01687,0.0962 0.0652,0.18558 0.115679,0.21393 0.04769,0.0268 0.108349,0.12921 0.134819,0.22764 0.02877,0.107 0.08593,0.20021 0.142185,0.23178 0.05656,0.0318 0.09637,0.0972 0.09987,0.16426 0.0033,0.0613 0.0525,0.1619 0.109577,0.22352 0.05707,0.0616 0.135271,0.1903 0.173759,0.28594 0.0385,0.0956 0.101222,0.18724 0.13941,0.20354 0.03819,0.0163 0.08276,0.091 0.09904,0.16602 0.01629,0.075 0.06906,0.16621 0.11727,0.20269 0.04821,0.0365 0.111957,0.14187 0.141664,0.23419 0.02971,0.0924 0.09283,0.18964 0.140277,0.21628 0.04745,0.0267 0.09852,0.10485 0.113483,0.17372 0.01496,0.069 0.07421,0.16249 0.131647,0.20796 0.05744,0.0455 0.128757,0.1579 0.158484,0.24987 0.02973,0.0921 0.09485,0.19099 0.144695,0.22005 0.04985,0.0291 0.0983,0.10251 0.10765,0.16317 0.0093,0.0607 0.06842,0.15962 0.131244,0.21987 0.06283,0.0602 0.13691,0.17786 0.164617,0.26135 0.0277,0.0835 0.0897,0.17386 0.137759,0.20084 0.04805,0.027 0.109278,0.11506 0.136058,0.19571 0.02677,0.0806 0.088,0.16873 0.136059,0.19572 0.04806,0.027 0.108946,0.11402 0.135301,0.19345 0.02636,0.0793 0.08569,0.1722 0.131872,0.20623 0.04618,0.034 0.113007,0.1291 0.148511,0.21131 0.0355,0.0822 0.105767,0.17261 0.156139,0.20088 0.05037,0.0282 0.104105,0.10911 0.119424,0.17963 0.01637,0.0754 0.07348,0.15792 0.138466,0.20024 0.06085,0.0396 0.13187,0.13607 0.157851,0.21435 0.0273,0.0822 0.09191,0.16795 0.1531,0.20308 0.05922,0.034 0.109545,0.0987 0.11421,0.1469 0.0077,0.0795 0.08361,0.17908 0.428934,0.56296 0.07051,0.0784 0.144495,0.19416 0.164441,0.25735 0.01995,0.0632 0.08403,0.14597 0.142425,0.18399 0.05839,0.038 0.127639,0.13386 0.153891,0.21296 0.03451,0.10401 0.07732,0.15445 0.154564,0.18216 0.07704,0.0276 0.111653,0.0681 0.124149,0.14531 0.0096,0.0589 0.06392,0.15214 0.120857,0.2073 0.05697,0.0551 0.142705,0.18013 0.190577,0.27775 0.114723,0.23392 0.467607,0.57248 0.779847,0.7481 0.278817,0.15688 1.00499,0.40198 1.214379,0.40989 0.07431,0.003 0.169583,0.0381 0.211699,0.0785 0.128314,0.12304 0.260759,0.13498 0.693271,0.0625 0.803178,-0.13471 1.121999,-0.38546 3.018739,-2.37417 z m -0.907803,-22.75812 c -0.785948,0.60212 -1.350379,0.87972 -1.935864,0.95215 -0.678437,0.0839 -1.138768,-0.19773 -1.683179,-1.02984 -1.122016,-1.71497 -1.227466,-1.92241 -1.188137,-2.33729 0.04757,-0.50174 0.133244,-0.67846 0.454638,-0.93774 0.154217,-0.12442 0.371544,-0.30027 0.48295,-0.39077 0.403784,-0.32807 0.521823,-0.39921 0.652004,-0.39299 0.108193,0.005 0.308819,0.14443 1.127432,0.78259 0.547697,0.42698 1.105779,0.83425 1.240182,0.90508 0.200203,0.10549 0.262754,0.16014 0.346109,0.30223 0.08339,0.14218 0.13363,0.18601 0.278589,0.24309 0.152125,0.0599 0.192748,0.0548 0.290603,-0.0366 0.100753,-0.0942 0.152991,-0.0982 0.456815,-0.0366 0.60358,0.12254 1.251078,-0.0537 1.550112,-0.42215 0.117943,-0.14528 0.151285,-0.22825 0.137191,-0.34141 -0.03022,-0.24259 -0.137163,-0.3013 -0.470446,-0.25825 -0.642248,0.0829 -1.289442,-0.0696 -1.856879,-0.43772 -0.298047,-0.19337 -0.379589,-0.2745 -1.129311,-1.12387 -0.444437,-0.5035 -0.875189,-0.96459 -0.957228,-1.02466 l -0.149162,-0.10921 2.259787,-2.149 2.259784,-2.149 0.289123,-0.0815 c 0.159018,-0.0448 0.47476,-0.0833 0.70165,-0.0857 0.496353,-0.005 0.821678,0.1207 1.258578,0.48641 0.262014,0.21933 0.351992,0.3362 0.871901,1.13256 0.318855,0.48841 0.604819,0.94158 0.635477,1.00705 0.09507,0.20302 0.08353,0.71785 -0.02175,0.9713 -0.117997,0.28402 -0.262377,0.45702 -1.93024,2.31283 -0.701457,0.78051 -1.6116,1.80124 -2.02254,2.26831 -0.878531,0.99853 -1.528167,1.65904 -1.948175,1.98081 z"
       id="path1117"       
       sodipodi:nodetypes="cscccccsccccscsscccssccccccccsccccscccscccssccscscccscsccsccsssccccccccccccccccscsccccsscscccccccscccscsccscccccccccscccsssccsccsccccccccscccscscccscccccccsscccssccsccccccccsccccscccsccccsssccccccccccccccccccscccsccccccccccscccscsccsccccssccscsccscccccssccccccsscccscc" />
  </g>
</svg>
