<?xml version="1.0" encoding="UTF-8" standalone="no"?>
<!-- Created with Inkscape (http://www.inkscape.org/) -->

<svg
   xmlns:dc="http://purl.org/dc/elements/1.1/"
   xmlns:cc="http://creativecommons.org/ns#"
   xmlns:rdf="http://www.w3.org/1999/02/22-rdf-syntax-ns#"
   xmlns:svg="http://www.w3.org/2000/svg"
   xmlns="http://www.w3.org/2000/svg"
   xmlns:sodipodi="http://sodipodi.sourceforge.net/DTD/sodipodi-0.dtd"   
   width="220"
   height="235"
   viewBox="0 0 58.208332 62.177085"
   version="1.1"
   id="svg8"   
   sodipodi:docname="g17.svg" >
  <defs
     id="defs2" />
  <sodipodi:namedview
     id="base"
     pagecolor="#000000"
     bordercolor="#666666"
     borderopacity="1.0"
     showgrid="false"
     units="px"
     showguides="false" />
  <metadata
     id="metadata5">
    <rdf:RDF>
      <cc:Work
         rdf:about="">
        <dc:format>image/svg+xml</dc:format>
        <dc:type
           rdf:resource="http://purl.org/dc/dcmitype/StillImage" />
        <dc:title></dc:title>
      </cc:Work>
    </rdf:RDF>
  </metadata>
  <g
     id="layer1"
     transform="translate(0,-234.8229)">
    <path
       style="fill:none;stroke:#fffffd;stroke-width:0.4;stroke-opacity:1;stroke-miterlimit:4;stroke-dasharray:none"
       d="m 31.34661,295.35168 c -0.124284,-9e-5 -0.298257,-0.0724 -0.386604,-0.1608 -0.288068,-0.2881 -0.504111,-1.22185 -0.324298,-1.40163 0.09652,-0.0965 0.121912,-0.22907 0.05646,-0.2945 -0.06546,-0.0654 -0.362178,0.12411 -0.659369,0.42131 -0.837379,0.8374 -2.501489,1.24512 -3.250795,0.79646 -0.291027,-0.17425 -1.243092,-1.53917 -1.436853,-2.05996 -0.01777,-0.0478 -0.07543,-0.1507 -0.128169,-0.2289 -0.05275,-0.0782 -0.142829,-0.25586 -0.200197,-0.39495 -0.369498,-0.89541 -0.538411,-1.27586 -0.622144,-1.40122 -0.302391,-0.45276 -0.434477,-0.85723 -0.345307,-1.05746 0.05587,-0.12544 -0.0045,-0.27456 -0.130464,-0.33139 -0.127619,-0.0568 -0.17853,-0.22346 -0.113143,-0.37031 0.0654,-0.14682 0.04072,-0.28538 -0.05489,-0.30795 -0.09558,-0.0228 -0.122354,-0.15647 -0.05949,-0.2976 0.06373,-0.14301 0.01557,-0.2798 -0.108905,-0.30918 -0.123237,-0.0293 -0.196749,-0.22281 -0.164175,-0.43263 0.03245,-0.20895 0.01924,-0.34021 -0.02934,-0.29161 -0.04857,0.0487 -0.130815,-0.22745 -0.182763,-0.61339 -0.05194,-0.3859 -0.143496,-0.75071 -0.203445,-0.81068 -0.05996,-0.0601 -0.119512,-0.38728 -0.132349,-0.72745 -0.01285,-0.34017 -0.08092,-0.67603 -0.1513,-0.74642 -0.07037,-0.0704 -0.07865,-0.23871 -0.01836,-0.37406 0.0603,-0.13531 0.03801,-0.26297 -0.04949,-0.28362 -0.0875,-0.0211 -0.139596,-0.12019 -0.115769,-0.22109 0.02383,-0.10096 -0.02792,-0.40473 -0.114995,-0.67515 -0.08708,-0.27035 -0.249356,-0.82564 -0.360621,-1.23402 -0.507668,-1.86323 -2.243061,-5.10292 -3.306527,-6.17269 -1.269026,-1.27659 -2.5982,-1.40089 -4.113775,-0.38475 -0.455966,0.30569 -0.926357,0.53724 -1.045313,0.51444 -0.323461,-0.0619 -0.87483,-0.65723 -1.004091,-1.08414 -0.158227,-0.52261 -0.437302,-0.88639 -1.995521,-2.60118 -0.7479757,-0.8231 -1.4041279,-1.63989 -1.458118,-1.81501 -0.073807,-0.23939 0.054714,-0.47354 0.5179303,-0.94367 0.5633707,-0.57148 0.6038897,-0.67863 0.4737797,-1.24741 -0.07828,-0.34218 -0.03977,-0.75899 0.08559,-0.92612 0.189387,-0.25267 0.284905,-0.2476 0.565309,0.0301 0.238786,0.23616 0.319832,0.25543 0.27728,0.0658 -0.03309,-0.14736 0.03764,-0.29099 0.15712,-0.31918 0.119493,-0.0285 0.236303,0.0296 0.259578,0.12796 0.02588,0.10966 2.100237,-1.87864 5.33885,-5.11723 2.913091,-2.91311 5.361432,-5.28108 5.440749,-5.26222 0.07933,0.019 1.467979,-1.35717 3.085909,-3.05785 1.617911,-1.70068 5.552854,-5.78345 8.744301,-9.07279 4.720093,-4.86491 5.789962,-6.02884 5.734751,-6.2389 -0.08913,-0.33924 0.167303,-0.58187 0.574921,-0.544 0.179693,0.0167 0.472525,-0.11544 0.650754,-0.29367 0.3797,-0.37969 1.044895,-0.39112 1.411767,-0.0239 0.14889,0.14885 0.33315,0.18367 0.434698,0.0822 0.09695,-0.0969 0.349167,-0.0728 0.560493,0.0538 0.538266,0.3223 1.948541,1.98192 1.891052,2.22545 -0.07217,0.30576 0.389871,0.9924 0.629718,0.93576 0.261958,-0.0619 1.028865,0.68979 0.967784,0.94852 -0.02503,0.1059 0.08739,0.32547 0.249816,0.48785 0.162399,0.16241 0.395633,0.60468 0.518306,0.98288 0.263207,0.81146 0.175914,0.97076 -1.659352,3.02837 -0.929261,1.04186 -1.311574,1.39166 -1.411576,1.29165 -0.196434,-0.19641 -0.749283,0.41021 -0.749291,0.82216 -5e-6,0.28965 -0.376097,0.7004 -2.267533,2.47657 -1.68943,1.58654 -2.275088,2.2108 -2.297193,2.44857 -0.01823,0.19614 -0.396571,0.67831 -0.981366,1.25071 -0.778084,0.76162 -0.96341,1.02973 -1.015971,1.46961 -0.03535,0.2959 -0.119162,0.59293 -0.186256,0.66002 -0.205642,0.20563 0.149553,0.69531 1.454792,2.00549 0.907262,0.91069 1.47325,1.36099 2.055343,1.63519 0.527318,0.24835 0.803308,0.4589 0.80331,0.61279 -3e-6,0.27414 -3.500252,4.15166 -5.749759,6.36954 -1.405733,1.38592 -1.638775,1.5607 -2.380794,1.785 -1.39714,0.42242 -1.884112,1.3872 -1.458359,2.88933 0.141669,0.49982 0.281222,0.93683 0.310115,0.97113 0.02886,0.0342 0.148658,0.29792 0.266136,0.58592 0.161314,0.39536 0.375553,0.62517 0.875186,0.93872 0.573041,0.35963 0.649447,0.45818 0.570892,0.73639 -0.239438,0.84796 -0.04809,2.11147 0.464193,3.06509 0.06862,0.12778 0.418184,0.36028 0.776778,0.51673 0.613677,0.26769 0.646213,0.30514 0.553529,0.63668 -0.21007,0.75154 -0.104681,2.1028 0.20087,2.57545 0.174957,0.27062 0.339384,0.57601 0.36539,0.67861 0.07568,0.2985 0.383317,0.71412 1.090885,1.47373 0.921443,0.98927 1.033564,1.76202 0.354202,2.4414 -0.270802,0.27082 -0.412021,0.49237 -0.313829,0.49237 0.09819,0 0.241021,-0.0624 0.317391,-0.13885 0.07827,-0.0782 0.375628,0.0661 0.681666,0.3307 0.475676,0.41149 0.520575,0.51915 0.362626,0.8708 -0.245725,0.5472 -7.101762,7.53916 -7.392365,7.53894 z m 6.39374,-32.60908 c 0.448924,-0.5589 0.561354,-0.85662 0.561355,-1.48635 -10e-7,-0.85877 -0.273614,-1.36952 -1.264507,-2.36041 -0.795453,-0.79547 -1.114177,-0.9 -2.027853,-0.66526 -0.766546,0.197 -0.928053,0.35872 -2.768564,2.7722 -0.424848,0.55711 -0.959473,1.21586 -1.18805,1.464 -0.352355,0.38241 -0.383621,0.54139 -0.205508,1.04422 0.27333,0.77165 0.876734,1.35865 2.028044,1.97291 0.888624,0.47412 1.210404,0.78925 1.142454,1.11871 -0.04004,0.19413 2.989398,-2.9471 3.722648,-3.86001 z m -4.656939,4.30869 c -0.530541,0.0486 -2.780456,-0.43746 -2.420073,-0.52252 0.119423,-0.0284 0.03809,-0.0964 -0.201448,-0.16894 -0.220976,-0.0668 -0.448709,-0.227 -0.50607,-0.35582 -0.05735,-0.1288 -0.149926,-0.18854 -0.205697,-0.13277 -0.05577,0.0557 -0.01319,0.25416 0.09463,0.44098 0.615809,1.06667 1.739187,1.54105 2.800523,1.18252 0.915058,-0.30908 1.108131,-0.50449 0.438115,-0.44347 z"
       id="path831"       
       sodipodi:nodetypes="cssssscccccccccccssscsccccccccccccccccccsccsccsssccccsscscccccscccccccccccsccccscsscccccsccccscccccccscccc" />
  </g>
</svg>
