<?xml version="1.0" encoding="UTF-8" standalone="no"?>
<!-- Created with Inkscape (http://www.inkscape.org/) -->

<svg
   xmlns:dc="http://purl.org/dc/elements/1.1/"
   xmlns:cc="http://creativecommons.org/ns#"
   xmlns:rdf="http://www.w3.org/1999/02/22-rdf-syntax-ns#"
   xmlns:svg="http://www.w3.org/2000/svg"
   xmlns="http://www.w3.org/2000/svg"
   xmlns:sodipodi="http://sodipodi.sourceforge.net/DTD/sodipodi-0.dtd"
   width="220"
   height="235"
   viewBox="0 0 58.208332 62.177085"
   version="1.1"
   id="svg8"   
   sodipodi:docname="g19.svg" >
  <defs
     id="defs2" />
  <sodipodi:namedview
     id="base"
     pagecolor="#000000"
     bordercolor="#666666"
     borderopacity="1.0"
     showgrid="false"
     units="px"
     showguides="false" />
  <metadata
     id="metadata5">
    <rdf:RDF>
      <cc:Work
         rdf:about="">
        <dc:format>image/svg+xml</dc:format>
        <dc:type
           rdf:resource="http://purl.org/dc/dcmitype/StillImage" />
        <dc:title></dc:title>
      </cc:Work>
    </rdf:RDF>
  </metadata>
  <g
     id="layer1"
     transform="translate(0,-234.8229)">
    <path
       style="fill:none;stroke:#fffffd;stroke-width:0.4;stroke-opacity:1;stroke-miterlimit:4;stroke-dasharray:none"
       d="m 37.8583,288.96033 c -0.05427,6.1e-4 -0.945255,0.66975 -1.979943,1.48655 -4.236907,3.34459 -5.23653,4.11444 -5.389416,4.1505 -0.328798,0.0777 -0.758284,-0.58001 -0.758286,-1.16114 2e-6,-0.33057 -0.02459,-0.62569 -0.05466,-0.65573 -0.03005,-0.0302 -0.246687,0.13742 -0.481405,0.3721 -0.759881,0.75992 -2.99263,1.20332 -3.500688,0.69527 -0.154242,-0.15424 -0.220552,-0.34033 -0.147352,-0.41353 0.0732,-0.0731 0.01797,-0.18436 -0.122749,-0.24702 -0.146623,-0.0652 -0.208123,-0.22108 -0.144059,-0.36493 0.08562,-0.19225 0.04123,-0.25753 -0.189937,-0.27901 -0.232549,-0.0219 -0.273815,-0.0908 -0.180019,-0.30127 0.07898,-0.17745 0.01715,-0.32741 -0.176324,-0.42766 -0.172246,-0.0893 -0.240433,-0.21201 -0.161578,-0.29085 0.08172,-0.0817 0.0094,-0.20227 -0.18034,-0.30058 -0.218951,-0.11343 -0.262053,-0.21883 -0.13958,-0.34132 0.117992,-0.11799 0.07584,-0.2365 -0.126147,-0.35472 -0.16959,-0.0993 -0.244142,-0.2368 -0.169083,-0.31181 0.07384,-0.0737 0.02604,-0.24248 -0.106201,-0.37471 -0.13225,-0.13226 -0.200301,-0.28146 -0.151219,-0.33158 0.107061,-0.10886 -0.192583,-0.97406 -0.413765,-1.19522 -0.086,-0.0859 -0.06941,-0.24329 0.03684,-0.34957 0.124453,-0.12448 0.102168,-0.23376 -0.06262,-0.30716 -0.145576,-0.0647 -0.208482,-0.22028 -0.145949,-0.36066 0.06046,-0.13569 0.0071,-0.34914 -0.117702,-0.47429 -0.126497,-0.12655 -0.143885,-0.31133 -0.03916,-0.41606 0.129576,-0.12959 0.09561,-0.23653 -0.108692,-0.34239 -0.217819,-0.11289 -0.244052,-0.2471 -0.09827,-0.50286 0.154903,-0.27178 0.138329,-0.33579 -0.07496,-0.28972 -0.219018,0.0476 -0.249634,-0.0208 -0.152951,-0.34 0.06649,-0.21957 0.03183,-0.42022 -0.07699,-0.44593 -0.108826,-0.0255 -0.116703,-0.18535 -0.01748,-0.35481 0.109494,-0.18708 0.08825,-0.3491 -0.05407,-0.41249 -0.128954,-0.0575 -0.383574,-0.70884 -0.565825,-1.44752 -0.590996,-2.39538 -1.763457,-4.88867 -2.770224,-5.89094 -1.114953,-1.10993 -3.053844,-1.31277 -4.252215,-0.44486 -1.033215,0.74834 -1.174539,0.80087 -1.623917,0.60357 -0.345602,-0.1517 -0.554095,-0.38914 -0.868101,-0.98866 -0.243289,-0.4645 -1.076451,-1.51034 -2.02571,-2.54285 -0.8868459,-0.96462 -1.703491,-1.96037 -1.8147745,-2.21278 -0.1884208,-0.42745 -0.1544334,-0.50683 0.4946358,-1.15586 0.6688745,-0.66889 0.6903824,-0.72487 0.5337329,-1.38842 -0.2068879,-0.87635 0.2057734,-1.28262 0.8443798,-0.83132 l 0.422659,0.29871 7.66196,-7.48426 c 4.214081,-4.11633 7.955967,-7.78536 8.315294,-8.15337 0.359142,-0.36828 3.488415,-3.55777 6.953478,-7.08834 6.122942,-6.23865 6.298858,-6.43145 6.254328,-6.85504 -0.04476,-0.42592 -0.03401,-0.43756 0.474742,-0.51161 0.286302,-0.042 0.698952,-0.222 0.916996,-0.40068 0.455806,-0.37357 0.96434,-0.35817 1.363851,0.0415 0.157117,0.15714 0.350269,0.2049 0.44506,0.11014 0.252756,-0.25277 0.591744,-0.035 1.751243,1.12438 0.793304,0.79331 1.049809,1.13992 1.0268,1.3875 -0.01687,0.18149 -0.08341,0.28833 -0.147886,0.23739 -0.06444,-0.0511 0.02718,0.14173 0.203674,0.4281 0.187777,0.30476 0.414796,0.52154 0.547313,0.5227 0.285535,0.004 1.139504,0.84417 1.086096,1.07042 -0.02193,0.0927 0.185775,0.46355 0.461558,0.82367 0.727359,0.94985 0.752214,1.39155 0.124876,2.219 -0.342329,0.45146 -0.623128,0.6979 -0.795263,0.69792 -0.382989,-1e-5 -0.845646,0.51802 -0.718193,0.80419 0.09221,0.20706 -0.316679,0.65315 -2.727402,2.97572 -1.821409,1.7548 -2.73043,2.7086 -2.541109,2.66627 0.198131,-0.044 -0.09566,0.32577 -0.896174,1.12876 -0.949054,0.95178 -1.1953,1.28171 -1.212325,1.62329 -0.02023,0.40581 -0.02978,0.41213 -0.178442,0.11837 -0.130501,-0.2578 -0.149615,-0.25678 -0.112956,0.01 0.160084,1.14863 0.435391,1.57958 1.921367,3.00789 1.072053,1.03041 1.672566,1.49939 2.213126,1.72841 0.689524,0.29213 0.738074,0.33868 0.688227,0.6598 -0.06682,0.43034 -1.241294,1.78836 -4.758333,5.50196 l -2.748503,2.90208 -1.078003,0.32904 c -0.592902,0.18092 -1.248143,0.49953 -1.456081,0.70793 -0.487249,0.48819 -0.714236,1.43918 -0.522092,2.18594 0.08325,0.32366 0.113706,0.62607 0.06767,0.67211 -0.04606,0.0461 0.09611,0.33673 0.315919,0.64588 0.21981,0.30923 0.356002,0.60584 0.302655,0.65915 -0.05336,0.0533 0.152995,0.25277 0.458538,0.44316 0.8751,0.54528 0.926957,0.65416 0.746877,1.56835 -0.173695,0.8817 -0.05576,1.41641 0.494407,2.24171 0.171513,0.25726 0.257889,0.52172 0.191935,0.58769 -0.07939,0.0793 -0.02883,0.13039 0.149691,0.15085 0.148251,0.0172 0.505968,0.19525 0.794924,0.39602 0.469635,0.32628 0.512108,0.42284 0.400327,0.91 -0.324658,1.41481 0.08229,2.54597 1.346937,3.74371 l 0.824413,0.78093 -0.41354,0.48814 c -0.227425,0.26852 -0.353309,0.55665 -0.279704,0.64036 0.19678,0.22386 0.42562,0.57496 0.62298,0.95584 0.153235,0.2957 0.0833,0.42731 -0.57905,1.08966 -0.414326,0.41433 -0.797721,0.75403 -0.85201,0.75485 z m 1.605664,-25.52459 c 1.259433,-1.46325 1.418197,-1.97096 0.966978,-3.09219 -0.426462,-1.05971 -2.645694,-2.95249 -3.021325,-2.57684 -0.05941,0.0595 -0.129195,0.0185 -0.155088,-0.0913 -0.02588,-0.10964 -0.101373,-0.11527 -0.167776,-0.0127 -0.0664,0.10275 -0.186293,0.12613 -0.266446,0.052 -0.08016,-0.074 -0.240057,-0.13062 -0.355357,-0.12553 -0.121794,0.008 -0.110423,0.0358 0.02712,0.0729 0.286657,0.0772 0.234898,0.13964 -0.283704,0.34188 -0.285366,0.11131 -0.928956,0.84059 -2.283727,2.58794 l -1.886386,2.43297 0.500216,0.93883 0.500207,0.93885 1.323682,0.69485 c 1.322388,0.69418 1.323678,0.69535 1.323678,1.17434 0,0.26761 -0.1131,0.52992 -0.255905,0.59347 -0.682928,0.30416 -4.059507,-0.7347 -4.190416,-1.28922 -0.03068,-0.12991 -0.117686,-0.11236 -0.22446,0.0453 -0.341017,0.50378 0.6783,1.64711 1.796091,2.01468 0.641219,0.21082 1.287667,0.14875 2.007932,-0.1928 0.70123,-0.33255 2.825455,-2.39415 4.644659,-4.50778 z"
       id="path870"       
       sodipodi:nodetypes="ccccsssssccccscscsscssccssccccccccccccscssccsccsccssscccccccccccccccccccccccscscccscsccccccscccssccccccccccssccccccc" />
  </g>
</svg>
