<?xml version="1.0" encoding="UTF-8" standalone="no"?>
<!-- Created with Inkscape (http://www.inkscape.org/) -->

<svg
   xmlns:dc="http://purl.org/dc/elements/1.1/"
   xmlns:cc="http://creativecommons.org/ns#"
   xmlns:rdf="http://www.w3.org/1999/02/22-rdf-syntax-ns#"
   xmlns:svg="http://www.w3.org/2000/svg"
   xmlns="http://www.w3.org/2000/svg"
   xmlns:sodipodi="http://sodipodi.sourceforge.net/DTD/sodipodi-0.dtd"   
   width="220"
   height="235"
   viewBox="0 0 58.208332 62.177085"
   version="1.1"
   id="svg8"   
   sodipodi:docname="hk45.svg" >
  <defs
     id="defs2" />
  <sodipodi:namedview
     id="base"
     pagecolor="#000000"
     bordercolor="#666666"
     borderopacity="1.0"
     showgrid="false"
     units="px"
     showguides="false" />
  <metadata
     id="metadata5">
    <rdf:RDF>
      <cc:Work
         rdf:about="">
        <dc:format>image/svg+xml</dc:format>
        <dc:type
           rdf:resource="http://purl.org/dc/dcmitype/StillImage" />
        <dc:title></dc:title>
      </cc:Work>
    </rdf:RDF>
  </metadata>
  <g
     id="layer1"
     transform="translate(0,-234.8229)">
    <path
       style="fill:none;stroke:#fffffd;stroke-width:0.4;stroke-opacity:1;stroke-miterlimit:4;stroke-dasharray:none"
       d="m 42.261126,287.81135 c 0.736345,-0.82554 1.350533,-1.70653 1.515596,-2.17398 0.03543,-0.10034 0.04951,-0.29069 0.03128,-0.42303 -0.04533,-0.32919 -0.203854,-0.43069 -0.80104,-0.5129 -0.261302,-0.036 -0.553499,-0.0869 -0.649326,-0.11313 -0.09583,-0.0262 -0.269236,-0.0709 -0.38535,-0.0992 -0.116115,-0.0283 -0.356001,-0.10869 -0.533081,-0.17863 -0.177081,-0.07 -0.391024,-0.13115 -0.47543,-0.136 -0.123787,-0.007 -0.160504,-0.0315 -0.189857,-0.12607 -0.0276,-0.0889 -0.112368,-0.16341 -0.350769,-0.30825 -0.45473,-0.27628 -1.145262,-0.89645 -1.466849,-1.31738 -0.546205,-0.71493 -0.921928,-1.57382 -1.004127,-2.29542 -0.07221,-0.63387 -0.149726,-0.77788 -0.693084,-1.28754 -0.89541,-0.83988 -1.424516,-1.73288 -1.578492,-2.66409 -0.0288,-0.17415 -0.0824,-0.46935 -0.119114,-0.65599 l -0.06676,-0.33935 -0.752408,-0.73687 c -0.707428,-0.69281 -0.767146,-0.76326 -0.998936,-1.17854 -0.3534,-0.63318 -0.522319,-1.39117 -0.407133,-1.82694 0.172236,-0.6516 0.685553,-1.30705 1.346618,-1.71949 0.330412,-0.20614 0.839245,-0.55467 1.395136,-0.9556 0.758426,-0.54703 2.034704,-1.67155 2.871802,-2.53033 0.850809,-0.87287 1.765403,-1.92054 1.969049,-2.25556 0.05728,-0.0942 0.186179,-0.2733 0.286454,-0.39795 0.721408,-0.89674 0.90224,-1.58866 0.617996,-2.36462 -0.05749,-0.15693 -0.08803,-0.32146 -0.06787,-0.36561 0.02201,-0.0482 -0.0081,-0.12395 -0.0754,-0.18957 -0.06162,-0.0601 -0.105563,-0.13608 -0.09765,-0.16879 0.008,-0.0328 -0.03071,-0.10455 -0.08584,-0.15962 -0.05513,-0.055 -0.107832,-0.15384 -0.117113,-0.21951 -0.0092,-0.0656 -0.04871,-0.13321 -0.08762,-0.15012 -0.03891,-0.0169 -0.08173,-0.0915 -0.09515,-0.16586 -0.01342,-0.0743 -0.05631,-0.14899 -0.09532,-0.16594 -0.039,-0.0169 -0.07091,-0.0855 -0.07091,-0.15249 10e-7,-0.067 -0.03341,-0.1362 -0.07425,-0.15394 -0.04084,-0.0177 -0.08831,-0.0981 -0.105488,-0.17855 -0.01718,-0.0804 -0.06162,-0.15328 -0.09875,-0.16185 -0.03713,-0.008 -0.07052,-0.0743 -0.07419,-0.1462 -0.0039,-0.0779 -0.04545,-0.15026 -0.102545,-0.17911 -0.0581,-0.0293 -0.09185,-0.0905 -0.08569,-0.15524 0.0063,-0.066 -0.02981,-0.13013 -0.09451,-0.16792 -0.07023,-0.041 -0.0924,-0.088 -0.06735,-0.14291 0.02517,-0.0551 10e-4,-0.1058 -0.07408,-0.15556 -0.06517,-0.0432 -0.107586,-0.11391 -0.102194,-0.17046 0.0064,-0.0675 -0.03696,-0.12747 -0.143662,-0.19867 -0.09364,-0.0625 -0.197962,-0.19049 -0.269267,-0.33037 -0.06402,-0.12561 -0.220627,-0.417 -0.348016,-0.64755 -0.292518,-0.5294 -0.347866,-0.84716 -0.211237,-1.21268 0.09905,-0.26496 0.142581,-0.31684 0.825775,-0.98397 0.79242,-0.77383 0.773988,-0.73956 0.529504,-0.98289 -0.215062,-0.21405 -0.19021,-0.31408 0.15584,-0.62726 l 0.306739,-0.2776 0.1716,0.12076 c 0.09438,0.0665 0.21947,0.11352 0.277975,0.10466 0.05851,-0.009 0.126229,0.003 0.150496,0.0269 0.03188,0.0311 0.16926,-0.0848 0.494887,-0.41732 l 0.450764,-0.46037 -0.151868,-0.19748 c -0.08352,-0.10861 -0.158675,-0.22559 -0.166992,-0.25996 -0.0083,-0.0344 0.108734,-0.18331 0.260888,-0.33173 l 0.276009,-0.26924 0.214265,0.12492 c 0.123189,0.0718 0.252376,0.10817 0.303923,0.0855 0.04931,-0.0217 0.134222,-0.0397 0.188694,-0.04 0.06802,-4e-4 0.215417,-0.1141 0.470599,-0.36303 0.415672,-0.40549 0.454926,-0.51225 0.258691,-0.70368 -0.219828,-0.21444 -0.208199,-0.30161 0.07741,-0.58022 l 0.25806,-0.25173 0.214265,0.12492 c 0.123189,0.0718 0.252376,0.10818 0.303923,0.0855 0.04931,-0.0217 0.134222,-0.0397 0.188694,-0.04 0.06856,-3.9e-4 0.218197,-0.1168 0.486295,-0.37833 0.440236,-0.42945 0.46402,-0.50487 0.2463,-0.7811 -0.06947,-0.0881 -0.126296,-0.19168 -0.126296,-0.2301 0,-0.0385 0.104542,-0.16179 0.232312,-0.27412 0.228844,-0.20119 0.234593,-0.20277 0.385499,-0.10531 0.08425,0.0544 0.230872,0.10994 0.325824,0.12341 l 0.172636,0.0245 0.734433,-0.69645 c 0.647545,-0.61404 0.755126,-0.73438 0.909761,-1.01675 0.331678,-0.60597 0.360635,-1.33667 0.07674,-1.93648 -0.113748,-0.24032 -0.124961,-0.32308 -0.06355,-0.469 0.06274,-0.14906 0.04666,-0.25246 -0.10127,-0.65132 -0.09672,-0.26076 -0.415733,-0.9478 -0.708916,-1.52674 -0.293183,-0.57894 -0.526978,-1.07893 -0.519547,-1.11109 0.01482,-0.0642 -0.152687,-0.41061 -0.316891,-0.65544 -0.05739,-0.0856 -0.108904,-0.19759 -0.114468,-0.2489 -0.0071,-0.0652 -0.478784,-0.55804 -1.565261,-1.63539 -1.795105,-1.78002 -1.634523,-1.67583 -2.266173,-1.47028 -0.284451,0.0926 -0.389844,0.15524 -0.563462,0.33508 -0.117459,0.12167 -0.242344,0.21948 -0.277527,0.21734 -0.03518,-0.002 -0.208611,-0.0696 -0.385398,-0.14995 -0.176788,-0.0803 -0.32361,-0.14396 -0.326275,-0.14135 -0.0027,0.002 -0.148832,0.0959 -0.32482,0.20735 -0.583714,0.36963 -1.13418,0.77282 -1.198758,0.87803 -0.04666,0.076 -0.02993,0.16325 0.06246,0.3258 0.0694,0.12209 0.161026,0.31657 0.203623,0.4322 0.04259,0.11564 0.101163,0.2157 0.130143,0.22238 0.02951,0.007 -2.452491,2.45591 -5.641404,5.56666 -3.131756,3.055 -5.682774,5.56831 -5.668929,5.58515 0.08939,0.10867 0.21356,0.28949 0.213561,0.31099 -1e-6,0.0697 -6.022034,5.7627 -6.119445,5.78513 -0.03302,0.007 -0.1265,0.068 -0.20772,0.13416 -0.08122,0.0662 -0.316221,0.20429 -0.522224,0.30691 l -0.374551,0.18657 -4.114544,3.96553 c -2.262999,2.18104 -4.164165,4.01515 -4.224812,4.07579 -0.0607,0.0606 -0.296555,0.19455 -0.524241,0.29757 -0.227685,0.10304 -0.879119,0.42144 -1.447632,0.7076 -1.070153,0.53867 -1.639072,0.90962 -2.1392017,1.39484 l -0.2694073,0.26141 0.3881783,0.75533 c 0.213499,0.41543 0.4157537,0.78223 0.4494577,0.8151 0.03371,0.0329 0.06155,0.1345 0.06187,0.22583 4.02e-4,0.0913 0.0333,0.32239 0.07329,0.51348 0.0781,0.37329 0.061,0.44258 -0.08823,0.35736 -0.05465,-0.0312 -0.12681,-0.0234 -0.169628,0.0183 -0.04282,0.0418 -0.1149787,0.0496 -0.1696237,0.0184 -0.05532,-0.0316 -0.126809,-0.0233 -0.170881,0.0196 -0.04168,0.0406 -0.09936,0.0624 -0.128167,0.0484 -0.1451236,-0.0708 -0.7077636,0.58174 -0.6363955,0.73807 0.018501,0.0405 0.00159,0.10498 -0.037734,0.14326 -0.044674,0.0435 -0.044897,0.0955 -6.047e-4,0.13865 0.038925,0.0379 0.066447,0.11446 0.061155,0.16997 -0.00531,0.0556 0.029711,0.13929 0.077785,0.18619 0.048063,0.0469 0.08092,0.11202 0.072993,0.14475 -0.023771,0.0983 0.2061726,0.28439 0.4504802,0.36467 0.126094,0.0415 0.5605427,0.0995 0.9654377,0.12894 0.559435,0.0407 0.748968,0.0765 0.789472,0.14914 0.167745,0.3008 0.470179,0.71605 0.551416,0.75711 0.07003,0.0354 0.07576,0.0656 0.02234,0.11774 -0.03953,0.0386 -0.04982,0.12766 -0.02285,0.19801 0.02697,0.0704 0.375269,0.68202 0.774005,1.35927 0.398734,0.67726 0.853827,1.45318 1.01132,1.72425 0.364837,0.62795 0.652477,0.97198 1.000169,1.19625 0.750577,0.48414 1.541639,0.42686 2.878417,-0.20843 0.264868,-0.12587 0.717702,-0.30804 1.006303,-0.40482 1.133992,-0.38025 2.26455,-0.16596 3.003143,0.56926 0.230576,0.22948 0.611695,0.75505 0.662228,0.91313 0.01971,0.0617 0.13383,0.24819 0.253594,0.4145 0.119767,0.1663 0.263447,0.39017 0.319296,0.49748 0.05584,0.10732 0.151693,0.27856 0.212996,0.38056 0.274404,0.45653 0.56997,1.02806 0.557754,1.07853 -0.0073,0.0304 0.01106,0.0608 0.04092,0.0678 0.02986,0.007 0.06805,0.0584 0.08486,0.11437 0.01681,0.056 0.112528,0.25358 0.212703,0.43899 0.100175,0.18542 0.195127,0.39169 0.211002,0.45838 0.04263,0.17912 0.443335,0.87294 0.512998,0.88826 0.01434,0.003 0.03001,0.0791 0.0348,0.16862 0.0048,0.0896 0.04993,0.27161 0.100292,0.4045 0.05036,0.13289 0.170434,0.45357 0.266826,0.71263 0.09639,0.25907 0.185392,0.4809 0.197769,0.49298 0.04552,0.0444 0.57038,1.31612 0.615505,1.49137 0.01249,0.0485 0.03888,0.12202 0.05866,0.1634 0.01978,0.0414 0.07724,0.18388 0.127705,0.31667 0.102619,0.27005 0.105563,0.27682 0.382608,0.87698 0.109428,0.23706 0.220592,0.49775 0.247039,0.57931 0.02644,0.0816 0.07289,0.17249 0.103204,0.20206 0.03032,0.0296 0.105626,0.16612 0.167358,0.30343 0.132545,0.29478 0.569864,1.15252 0.635628,1.24667 0.101875,0.14585 0.220056,0.34514 0.262458,0.44262 0.08476,0.19481 0.258053,0.48378 0.34782,0.57997 0.04942,0.0529 0.09467,0.12938 0.100622,0.16989 0.006,0.0405 0.0286,0.0846 0.05035,0.098 0.02175,0.0134 0.05519,0.0587 0.07434,0.10065 0.03074,0.0675 0.44375,0.67972 0.61336,0.90926 0.03474,0.047 0.130804,0.18496 0.213485,0.30654 0.08268,0.12158 0.201594,0.25479 0.264257,0.29599 0.06266,0.0412 0.392696,0.41424 0.733404,0.82895 1.021461,1.24331 1.291197,1.52352 1.532275,1.59179 0.276273,0.0783 0.705393,-0.066 1.153593,-0.38773 0.194262,-0.13946 0.393113,-0.26609 0.441887,-0.28141 0.04877,-0.0153 0.199132,-0.12504 0.334121,-0.24382 0.134982,-0.11877 0.252583,-0.20907 0.261322,-0.20065 0.0087,0.008 0.139926,0.22299 0.291529,0.47684 0.275368,0.4611 0.275816,0.46158 0.449363,0.48689 0.369698,0.0539 0.216866,0.18632 3.841944,-3.3278 1.841936,-1.78556 3.538401,-3.45881 3.769897,-3.71836 z m -3.496844,-23.69978 c -0.474519,0.31837 -1.783967,1.57261 -2.334849,2.23642 -0.556117,0.67012 -2.010161,1.79479 -2.536525,1.96196 -0.316375,0.10045 -0.718326,0.0784 -1.09318,-0.0602 -0.18074,-0.0668 -0.528378,-0.19064 -0.772532,-0.27522 -0.500868,-0.17348 -1.113869,-0.55929 -1.168545,-0.73545 -0.0182,-0.0587 -0.09642,-0.1684 -0.173835,-0.2439 -0.443872,-0.433 -0.845863,-1.27111 -0.891021,-1.85769 -0.02538,-0.32969 0.151753,-0.90685 0.332398,-1.08307 0.160287,-0.15635 0.208875,-0.26853 0.143808,-0.332 -0.04195,-0.041 0.038,-0.13951 0.397601,-0.4903 0.281904,-0.275 0.47475,-0.43341 0.516043,-0.4239 0.03627,0.008 0.09324,-0.0293 0.126613,-0.0837 0.03338,-0.0543 0.100526,-0.10804 0.149236,-0.11925 0.07664,-0.0176 0.08967,-0.003 0.09681,0.10475 0.006,0.091 0.197442,0.3537 0.70228,0.96364 0.659406,0.79667 0.714667,0.85282 1.10775,1.12563 1.349736,0.93676 3.366973,0.82378 4.60876,-0.25812 0.376054,-0.32763 0.380848,-0.33438 0.359836,-0.50598 -0.03429,-0.28007 -0.28124,-0.38349 -0.527947,-0.22111 -0.212846,0.14011 -0.677831,0.32663 -1.058798,0.42475 -0.914556,0.23552 -1.79441,0.0799 -2.574694,-0.45546 -0.469001,-0.32177 -0.987168,-0.99098 -1.175488,-1.51814 -0.04527,-0.12671 -0.157794,-0.30101 -0.256459,-0.39727 l -0.1758,-0.17149 0.950195,-0.96678 c 0.522608,-0.53173 1.585626,-1.57138 2.362269,-2.31034 1.563197,-1.48736 1.641055,-1.5438 2.011813,-1.45843 0.261157,0.0601 0.352772,0.15955 0.614146,0.66638 0.121638,0.23585 0.263798,0.50307 0.315915,0.5938 0.05211,0.0907 0.354182,0.63995 0.671258,1.22049 0.317078,0.58054 0.693946,1.26359 0.837485,1.51786 0.526819,0.93324 0.417847,1.30379 -0.716181,2.43529 -0.281431,0.28079 -0.601184,0.55097 -0.848356,0.7168 z"
       id="path1091" />       
  </g>
</svg>
