<?xml version="1.0" encoding="UTF-8" standalone="no"?>
<!-- Created with Inkscape (http://www.inkscape.org/) -->

<svg
   xmlns:dc="http://purl.org/dc/elements/1.1/"
   xmlns:cc="http://creativecommons.org/ns#"
   xmlns:rdf="http://www.w3.org/1999/02/22-rdf-syntax-ns#"
   xmlns:svg="http://www.w3.org/2000/svg"
   xmlns="http://www.w3.org/2000/svg"
   xmlns:sodipodi="http://sodipodi.sourceforge.net/DTD/sodipodi-0.dtd"   
   width="220"
   height="235"
   viewBox="0 0 58.208331 62.177086"
   version="1.1"
   id="svg8"   
   sodipodi:docname="m9.svg" >
  <defs
     id="defs2" />
  <sodipodi:namedview
     id="base"
     pagecolor="#000000"
     bordercolor="#666666"
     borderopacity="1.0"
     showgrid="false"
     fit-margin-top="0"
     fit-margin-left="0"
     fit-margin-right="0"
     fit-margin-bottom="0"
     units="px" />
  <metadata
     id="metadata5">
    <rdf:RDF>
      <cc:Work
         rdf:about="">
        <dc:format>image/svg+xml</dc:format>
        <dc:type
           rdf:resource="http://purl.org/dc/dcmitype/StillImage" />
        <dc:title />
      </cc:Work>
    </rdf:RDF>
  </metadata>
  <g     
     id="layer1"
     transform="translate(56.057826,-205.94221)">
    <path
       style="fill:none;stroke:#ffffff;stroke-width:0.42143217;stroke-miterlimit:4;stroke-dasharray:none;stroke-opacity:1"
       d="m -17.60449,257.93471 c 0.380208,-0.5181 0.427103,-0.43788 -1.241919,-2.12417 -1.988528,-2.00913 -2.224928,-2.32275 -3.693429,-4.90006 -0.414541,-0.72755 -0.886795,-1.55512 -1.049452,-1.83904 -0.563432,-0.98352 -1.298996,-2.33521 -1.362416,-2.5036 -0.03504,-0.0932 -0.03591,-0.17571 -0.0019,-0.18366 0.03398,-0.008 0.02316,-0.0315 -0.02399,-0.0524 -0.04851,-0.0215 -0.09622,-0.27885 -0.109845,-0.593 -0.02968,-0.68377 0.161281,-1.30898 0.561743,-1.83912 0.291266,-0.3856 0.370974,-0.44485 1.712126,-1.27268 0.898489,-0.55459 1.520894,-1.07105 2.34504,-1.94587 0.767443,-0.81465 1.195166,-1.3857 1.652911,-2.2068 0.65985,-1.18365 1.635651,-3.13326 1.636988,-3.27062 0.0012,-0.12634 -0.141613,-0.29868 -0.946622,-1.14213 -0.958621,-1.0044 -1.122872,-1.22349 -1.424503,-1.90015 -0.699664,-1.56953 -0.466622,-3.6002 0.562193,-4.89877 0.176654,-0.22298 0.46986,-0.59453 0.651575,-0.8257 0.181723,-0.23115 1.474395,-1.57974 2.872624,-2.99683 1.398227,-1.41711 2.988099,-3.04495 3.533045,-3.61744 l 0.990808,-1.04091 -0.100582,-0.1251 c -0.05534,-0.0689 -0.136494,-0.18055 -0.180382,-0.24832 l -0.07979,-0.12327 1.264159,-1.25534 c 0.6952857,-0.69043 1.2840231,-1.29965 1.3083264,-1.35381 0.032192,-0.0717 -0.017724,-0.15995 -0.1838696,-0.32494 -0.1615876,-0.16047 -0.2220475,-0.26474 -0.2075111,-0.35778 0.030634,-0.19593 -0.6612039,-0.93769 -1.0635077,-1.14026 -0.226202,-0.11388 -0.479061,-0.3298 -1.048543,-0.89531 l -0.750457,-0.74523 0.628816,-0.62443 c 0.530238,-0.52654 0.626804,-0.6458 0.615914,-0.76075 -0.01036,-0.10948 -0.231326,-0.34703 -1.12036,-1.20471 -0.941998,-0.90883 -1.130814,-1.06977 -1.263812,-1.07742 -0.139831,-0.008 -0.220594,0.0579 -0.764258,0.62393 l -0.6079,0.63296 -0.260481,-0.18772 c -0.231433,-0.16679 -0.304915,-0.1817 -0.658932,-0.13374 -0.519604,0.0705 -1.017544,0.29798 -1.363104,0.62289 l -0.277721,0.26111 0.176108,0.41007 c 0.174907,0.40724 0.174892,0.41147 -0.0022,0.61516 -0.159933,0.18393 -0.170425,0.2378 -0.101657,0.52183 0.07422,0.30656 0.06873,0.32616 -0.170961,0.61077 -0.136206,0.16172 -1.245571,1.30762 -2.465264,2.54644 -1.219718,1.23879 -3.452677,3.51647 -4.96218,5.06144 -1.509509,1.54497 -4.061464,4.14315 -5.671023,5.77369 l -2.926464,2.96465 -0.152938,-0.0682 c -0.269244,-0.12006 -0.420583,-0.0856 -0.613308,0.13987 -0.09785,0.11445 -1.685447,1.74825 -3.528012,3.63068 -1.842561,1.88241 -3.506217,3.5973 -3.697008,3.81084 l -0.346908,0.38826 -0.238609,-0.10022 c -0.131233,-0.0553 -0.38206,-0.0974 -0.557394,-0.0939 -0.175332,0.004 -0.344445,-0.0189 -0.37581,-0.0502 -0.08462,-0.0841 -0.397322,0.15441 -0.551713,0.42072 -0.129763,0.22382 -0.126502,0.25219 0.08198,0.71332 l 0.21712,0.48025 -0.40723,0.46725 c -0.298219,0.3422 -0.422502,0.53151 -0.464305,0.70735 -0.03139,0.13206 -0.08869,0.24167 -0.127332,0.24357 -0.03864,0.001 -0.03369,0.0134 0.01094,0.0255 0.09521,0.0257 0.04136,0.35123 -0.07767,0.46943 -0.04516,0.0449 -0.09539,0.1563 -0.111602,0.24767 -0.07381,0.41597 -0.456327,0.77587 -1.068367,1.00518 -0.271957,0.10184 -0.664891,0.44801 -0.591432,0.52094 0.02084,0.0207 0.0073,0.0681 -0.03008,0.1051 -0.03737,0.0372 -0.04757,0.0878 -0.02267,0.11248 0.02492,0.0249 0.0185,0.0716 -0.01427,0.10415 -0.0777,0.0771 0.08096,0.59206 0.227184,0.73725 0.06256,0.0621 0.534962,0.32409 1.04978,0.58218 l 0.936031,0.4692 0.08505,0.23973 c 0.111439,0.31407 0.497011,1.15172 0.699411,1.51944 0.292645,0.5317 0.402927,0.81205 0.326473,0.82998 -0.04306,0.0105 -0.03931,0.0261 0.0086,0.0373 0.19614,0.046 0.249902,1.05953 0.08831,1.66477 -0.0989,0.3704 -0.461335,0.99947 -0.660703,1.14677 -0.07943,0.0587 -0.112171,0.11191 -0.07387,0.121 0.03756,0.009 0.06267,0.0475 0.05582,0.0858 -0.03476,0.19502 0.06437,0.54475 0.189547,0.66876 0.174103,0.17255 0.53896,0.2664 0.814037,0.20951 0.166489,-0.0345 0.304007,-0.13864 0.709203,-0.5374 0.399399,-0.393 0.586976,-0.53612 0.912903,-0.69625 1.389387,-0.68253 2.953526,-0.319 3.97562,0.92403 0.373792,0.4546 0.633339,1.0322 3.913897,8.70997 1.046824,2.44997 1.192141,2.75514 1.643174,3.45078 0.711842,1.09791 1.686683,2.0803 2.760866,2.7823 0.47933,0.31322 0.545831,0.32934 0.763756,0.18508 0.129091,-0.0855 0.201662,-0.0813 0.382655,0.0223 0.819791,0.46867 1.905718,-0.0257 1.971726,-0.89768 l 0.0172,-0.2272 0.647309,-0.30673 c 0.618415,-0.29304 0.683061,-0.33953 1.448158,-1.04134 0.440474,-0.40401 1.595281,-1.44404 2.566255,-2.31116 0.970971,-0.86712 1.947628,-1.73985 2.170342,-1.93939 0.22271,-0.19955 0.497424,-0.48878 0.61042,-0.6428 z m -8.635289,6.93238 c -0.09419,-0.0164 -0.220455,-0.0789 -0.280599,-0.13856 -0.104035,-0.10321 -0.0977,-0.11737 0.129684,-0.28873 0.131472,-0.0991 0.287173,-0.22795 0.345997,-0.28635 0.143597,-0.1426 0.249478,-0.0261 0.238422,0.26249 -0.01117,0.29136 -0.2034,0.49143 -0.433523,0.45117 z m 3.026437,-22.90699 c -1.049714,0.67625 -1.76837,0.98914 -2.308586,1.00512 -0.364005,0.0105 -1.03619,-0.23906 -1.532184,-0.56947 -1.376657,-0.91706 -1.825708,-2.71933 -1.049396,-4.21179 0.25825,-0.4965 0.369322,-0.59274 0.703563,-0.60966 0.164182,-0.008 0.385667,-0.0247 0.492182,-0.0363 0.183889,-0.0202 0.203078,-0.007 0.380172,0.26504 0.102576,0.15747 0.314483,0.41343 0.470903,0.56875 0.23724,0.23559 0.31669,0.2809 0.479102,0.27328 0.10709,-0.005 0.229751,-0.0277 0.272583,-0.0505 0.04283,-0.0228 0.272367,0.0372 0.510077,0.13316 1.154178,0.466 2.764006,0.42083 3.836702,-0.10763 0.512517,-0.2525 0.676685,-0.4529 0.508132,-0.62028 -0.191901,-0.19056 -0.417217,-0.19063 -0.964276,-2.4e-4 -0.864591,0.30089 -1.845306,0.21392 -2.784183,-0.24688 -0.505166,-0.24793 -1.266063,-1.02248 -1.527899,-1.55526 l -0.197409,-0.40173 0.859249,-0.91996 c 1.085709,-1.16239 1.674775,-1.68432 2.115839,-1.87465 0.509028,-0.21965 1.096253,-0.31315 1.480363,-0.23567 1.475232,0.29754 2.55621,1.64905 2.555328,3.1949 -4.05e-4,0.69845 -0.213924,1.33724 -0.7481,2.23798 -0.671183,1.13177 -0.94787,1.47649 -1.969462,2.45384 -0.770099,0.73672 -1.032477,0.95358 -1.582713,1.30804 z"
       id="path863" />       
  </g>
</svg>
