<?xml version="1.0" encoding="UTF-8" standalone="no"?>
<!-- Created with Inkscape (http://www.inkscape.org/) -->

<svg
   xmlns:dc="http://purl.org/dc/elements/1.1/"
   xmlns:cc="http://creativecommons.org/ns#"
   xmlns:rdf="http://www.w3.org/1999/02/22-rdf-syntax-ns#"
   xmlns:svg="http://www.w3.org/2000/svg"
   xmlns="http://www.w3.org/2000/svg"
   width="220"
   height="235"
   viewBox="0 0 58.208332 62.177085"
   version="1.1"
   id="svg8">
  <defs
     id="defs2" />
  <metadata
     id="metadata5">
    <rdf:RDF>
      <cc:Work
         rdf:about="">
        <dc:format>image/svg+xml</dc:format>
        <dc:type
           rdf:resource="http://purl.org/dc/dcmitype/StillImage" />
        <dc:title></dc:title>
      </cc:Work>
    </rdf:RDF>
  </metadata>
  <g
     id="layer1"
     transform="translate(0,-234.8229)">
    <path
       style="fill:none;stroke:#ffffff;stroke-width:0.4;stroke-opacity:1;stroke-miterlimit:4;stroke-dasharray:none"
       d="m 30.601596,295.59136 -0.319123,-0.006 -0.343926,-0.58775 c -0.189161,-0.32327 -0.71022,-1.22048 -1.157907,-1.9938 -0.447687,-0.77333 -0.912305,-1.56536 -1.032484,-1.76008 l -0.218509,-0.35404 -0.07808,0.40781 c -0.145265,0.75872 -0.957279,1.22594 -1.686398,0.97031 -0.272077,-0.0954 -0.347859,-0.18155 -0.714401,-0.81227 -0.389783,-0.67069 -0.430926,-0.71523 -0.8328,-0.90158 -0.611442,-0.28354 -1.89962,-1.57809 -2.453968,-2.46613 -0.457951,-0.73361 -1.376783,-2.68445 -3.176491,-6.74422 -1.675696,-3.78003 -1.683451,-3.79493 -2.173779,-4.17634 -0.611155,-0.4754 -1.578552,-0.74886 -2.365562,-0.66871 -0.786262,0.0801 -1.154572,0.27317 -1.854784,0.97236 -0.422289,0.42176 -0.575407,0.52412 -0.768981,0.51446 -0.514776,-0.0257 -0.68421,-0.58693 -0.295426,-0.9786 0.238281,-0.23985 0.609085,-0.91212 0.753255,-1.36507 0.182379,-0.573 -0.09175,-1.49094 -0.746531,-2.49987 -0.09964,-0.15354 -0.15774,-0.33176 -0.129106,-0.39605 0.08148,-0.18296 -0.819254,-0.97732 -1.5039007,-1.32629 -0.7671969,-0.39105 -0.8223425,-0.45172 -0.8223425,-0.90474 -4e-7,-0.41887 0.1616168,-0.58428 0.8958295,-0.91686 0.391971,-0.17756 0.409566,-0.19761 0.419487,-0.47801 0.0226,-0.63867 0.3183337,-1.42545 0.6667597,-1.77388 l 0.338072,-0.33807 -0.232957,-0.35673 c -0.218358,-0.33438 -0.218288,-0.37407 0.0011,-0.63329 0.229437,-0.27107 0.241133,-0.27181 0.591877,-0.0368 l 0.357818,0.23967 3.809513,-3.77364 3.809514,-3.77365 0.212089,0.1683 0.212087,0.1683 7.017102,-6.98176 c 4.98972,-4.9646 7.021581,-7.02997 7.032614,-7.14862 0.0085,-0.0918 0.06824,-0.17932 0.132679,-0.19454 0.06445,-0.0152 0.06532,-0.0888 0.0019,-0.16343 -0.06338,-0.0747 -0.158585,-0.18607 -0.211578,-0.24755 -0.05299,-0.0615 -0.128401,-0.22729 -0.167577,-0.36846 -0.06458,-0.2327 -0.03181,-0.2905 0.35099,-0.61897 0.593112,-0.50894 1.522505,-0.81453 1.846604,-0.60716 l 0.242144,0.15494 2.66899,-2.66899 2.668988,-2.66899 0.341111,0.14006 c 0.564893,0.23195 1.65219,1.43419 1.682386,1.86023 0.0026,0.0356 -1.17136,1.27195 -2.608632,2.74738 l -2.613223,2.6826 1.123019,1.23575 c 0.617659,0.67966 1.19395,1.38336 1.280649,1.56376 l 0.15763,0.32799 -1.024319,1.0625 -1.024317,1.0625 0.125235,0.32221 0.125237,0.32222 -1.960004,1.99441 c -1.077998,1.09692 -2.01696,2.08592 -2.086588,2.19775 -0.149087,0.23945 -0.206244,1.75322 -0.0713,1.88817 0.0511,0.0511 0.194347,0.0695 0.318319,0.0408 0.146769,-0.0339 0.300535,0.023 0.440777,0.16327 0.130922,0.13092 0.324498,0.2099 0.493668,0.2014 0.153059,-0.008 0.466682,0.0474 0.696933,0.12239 0.927713,0.30219 2.349071,0.37451 7.261807,0.36952 2.843856,-0.003 5.193306,0.0489 5.260562,0.11605 0.07293,0.0728 0.06909,0.17372 -0.0096,0.25243 -0.181798,0.1818 -1.743448,1.0923 -2.184544,1.27368 -0.232169,0.0955 -1.532817,0.15095 -3.619744,0.15443 l -3.257368,0.005 -1.40033,0.79384 -1.40033,0.79384 -0.787642,0.004 -0.787639,0.004 0.0057,0.60521 c 0.0074,0.78906 -0.198873,1.11455 -0.713297,1.12557 l -0.377448,0.008 -0.02898,0.86891 c -0.01882,0.56421 -0.11385,1.06708 -0.271006,1.434 -0.237127,0.55366 -0.291155,0.61428 -2.668887,2.99453 l -2.426836,2.42946 -0.877303,0.47933 c -1.130351,0.6176 -1.604868,1.12893 -1.73393,1.86846 -0.104101,0.59651 -0.01844,1.10667 0.283373,1.6876 0.122462,0.23572 1.245368,2.18437 2.495345,4.33033 1.249975,2.14596 2.28058,3.99957 2.290235,4.11914 0.0097,0.11957 -0.04961,0.32237 -0.131695,0.45067 -0.144757,0.22624 -0.113845,0.29473 1.027218,2.27598 0.647054,1.12351 1.410252,2.45642 1.695994,2.96203 0.285741,0.50562 0.563989,0.92979 0.618328,0.94262 0.05434,0.0128 0.17543,-0.0533 0.269088,-0.14696 0.09366,-0.0937 0.253435,-0.19556 0.355063,-0.22644 0.101628,-0.0309 0.256318,-0.0939 0.343759,-0.13999 0.244953,-0.12916 0.378852,0.0907 0.267775,0.43967 -0.163086,0.51239 -0.920821,1.39504 -3.181813,3.70636 l -2.136083,2.18365 -0.319123,-0.006 z m 3.462241,-30.6736 c 0.20367,-0.64598 0.20587,-1.00897 0.0098,-1.6116 -0.349683,-1.07457 -1.185782,-1.72219 -2.337605,-1.81065 -0.703023,-0.054 -1.18307,0.076 -1.82709,0.49473 -0.24723,0.16075 -0.936909,0.56176 -1.532619,0.89114 -0.942779,0.52129 -1.181707,0.69748 -1.844138,1.35991 -0.659979,0.65998 -0.769859,0.80861 -0.827501,1.1194 -0.149012,0.80341 0.208787,1.95176 0.788854,2.53183 0.312014,0.31201 1.049839,0.65928 1.56891,0.73841 0.27479,0.0419 0.766253,0.0162 1.092141,-0.0571 0.657315,-0.14791 0.832954,-0.1433 0.832954,0.0219 1e-6,0.18541 -1.009951,0.58489 -1.593089,0.63015 -1.051369,0.0816 -1.800316,-0.2185 -2.599098,-1.04142 -0.285979,-0.29462 -0.636416,-0.58518 -0.778749,-0.6457 -0.200258,-0.0851 -0.272326,-0.16999 -0.318643,-0.37512 -0.03292,-0.14579 -0.109134,-0.35629 -0.169364,-0.46776 -0.0915,-0.16936 -0.135881,-0.17619 -0.269889,-0.0415 -0.319672,0.32125 -0.533006,0.8304 -0.604762,1.44353 -0.133133,1.13755 0.418673,2.21345 1.416441,2.76176 0.859274,0.4722 1.775752,0.46175 2.80464,-0.032 1.182769,-0.56757 1.450296,-0.79063 3.798046,-3.16684 2.203183,-2.22987 2.243659,-2.27633 2.3908,-2.74299 z"
       id="path873"/>
  </g>
</svg>
