<?xml version="1.0" encoding="UTF-8" standalone="no"?>
<!-- Created with Inkscape (http://www.inkscape.org/) -->

<svg
   xmlns:dc="http://purl.org/dc/elements/1.1/"
   xmlns:cc="http://creativecommons.org/ns#"
   xmlns:rdf="http://www.w3.org/1999/02/22-rdf-syntax-ns#"
   xmlns:svg="http://www.w3.org/2000/svg"
   xmlns="http://www.w3.org/2000/svg"
   xmlns:sodipodi="http://sodipodi.sourceforge.net/DTD/sodipodi-0.dtd"   
   width="220"
   height="235"
   viewBox="0 0 58.208332 62.177085"
   version="1.1"
   id="svg8"   
   sodipodi:docname="mk23-socom.svg" >  
  <defs
     id="defs2" />
  <sodipodi:namedview
     id="base"
     pagecolor="#000000"
     bordercolor="#666666"
     borderopacity="1.0"
     showgrid="false"
     units="px"
     showguides="false" />
  <metadata
     id="metadata5">
    <rdf:RDF>
      <cc:Work
         rdf:about="">
        <dc:format>image/svg+xml</dc:format>
        <dc:type
           rdf:resource="http://purl.org/dc/dcmitype/StillImage" />
        <dc:title></dc:title>
      </cc:Work>
    </rdf:RDF>
  </metadata>
  <g
     id="layer1"
     transform="translate(0,-234.8229)">
    <path
       style="fill:none;stroke:#fffffd;stroke-width:0.4;stroke-opacity:1;stroke-miterlimit:4;stroke-dasharray:none"
       d="m 25.455127,290.67536 c 0.834941,-1.002 1.094478,-1.87446 0.601555,-2.02225 -0.112817,-0.0338 -0.31584,-0.15329 -0.451176,-0.26551 -0.135341,-0.11225 -0.435036,-0.3577 -0.666001,-0.54553 -0.352864,-0.28696 -0.531543,-0.53337 -1.118616,-1.54296 -0.384274,-0.66079 -0.727953,-1.25766 -0.763729,-1.32637 -0.03579,-0.0686 -0.364738,-0.62334 -0.731018,-1.23254 -0.366282,-0.60918 -0.715549,-1.25732 -0.776148,-1.44029 -0.100655,-0.30391 -0.08476,-0.36125 0.184133,-0.66371 0.161868,-0.18208 0.299886,-0.39043 0.3067,-0.46301 0.0079,-0.0834 0.328796,-0.39363 0.872474,-0.84325 0.816841,-0.6755 2.67185,-2.57064 3.153591,-3.22183 0.1648,-0.22276 0.222002,-0.25793 0.269111,-0.16553 0.03291,0.0645 -0.034,0.22756 -0.148694,0.36226 -0.202823,0.23824 -0.201105,0.25378 0.06293,0.56879 0.250101,0.2984 0.310427,0.32497 0.767048,0.33801 l 0.495597,0.0141 0.809721,0.77596 c 0.445344,0.42678 0.885615,0.80025 0.978373,0.82995 0.153337,0.0491 0.306141,-0.0817 1.682369,-1.44036 0.832498,-0.82192 2.244097,-2.16267 3.136784,-2.97954 0.892691,-0.81687 2.458839,-2.32711 3.480334,-3.35608 l 1.857278,-1.87084 -0.04544,-0.31099 c -0.04212,-0.28836 -0.138137,-0.40557 -1.321512,-1.61317 -1.202408,-1.22702 -1.270798,-1.31114 -1.184593,-1.45694 0.08638,-0.14609 0.0267,-0.2189 -1.067683,-1.30252 -1.115412,-1.10445 -1.165398,-1.14415 -1.324177,-1.05213 -0.157093,0.0911 -0.202674,0.0566 -0.950064,-0.71984 -0.784776,-0.8152 -0.785001,-0.81557 -0.646156,-0.99351 0.211732,-0.27136 0.134346,-0.49799 -0.325968,-0.95461 -0.229725,-0.22784 -0.635845,-0.66684 -0.902532,-0.97547 l -0.484882,-0.56119 0.468567,-0.46395 c 0.391091,-0.38724 0.485791,-0.44692 0.572711,-0.36085 0.05727,0.0568 0.248244,0.18001 0.424366,0.274 0.287231,0.15327 0.341785,0.14953 0.529449,-0.0362 0.115068,-0.114 0.255631,-0.19631 0.31235,-0.18306 0.05672,0.0132 0.228563,-0.10015 0.381877,-0.2519 0.222776,-0.22059 0.261279,-0.30941 0.191739,-0.44229 -0.08343,-0.15945 -0.03104,-0.22171 1.274853,-1.51476 0.874226,-0.86563 1.452188,-1.38627 1.614123,-1.45401 0.391966,-0.164 6.601834,-6.2653 6.812728,-6.69365 0.08738,-0.17749 0.167748,-0.28558 0.17857,-0.2402 0.01078,0.0455 0.06126,0.0728 0.112079,0.0609 0.05083,-0.0113 1.977757,-1.88459 4.28207,-4.1616 4.135986,-4.08698 4.190705,-4.14441 4.27161,-4.48371 0.355548,-1.49134 -1.653221,-3.78125 -3.0677,-3.49702 -0.35751,0.0719 -0.377989,0.09 -2.890567,2.56522 -1.391769,1.37106 -3.292755,3.2257 -4.224415,4.1214 -1.482403,1.42524 -1.693914,1.65357 -1.693912,1.82882 -1e-6,0.16941 -0.02918,0.20291 -0.189586,0.21766 -0.154689,0.0143 -0.804321,0.6311 -3.528166,3.35032 -1.836202,1.83307 -4.000538,4.0216 -4.809611,4.8634 -1.444502,1.50292 -1.47415,1.52897 -1.643238,1.4422 -0.139034,-0.0713 -0.225867,-0.0352 -0.450947,0.18768 -0.153312,0.15179 -0.267795,0.32196 -0.254404,0.37811 0.0134,0.0561 -0.07354,0.19906 -0.193187,0.31751 -0.208833,0.20678 -0.207588,0.2333 0.03111,0.66339 l 0.248637,0.44801 -0.372675,0.36901 c -0.204972,0.20295 -0.400628,0.43118 -0.434805,0.50715 -0.0511,0.11363 -0.114191,0.0865 -0.355759,-0.15261 -0.216718,-0.2146 -0.318327,-0.26629 -0.387933,-0.19736 -0.05188,0.0513 -0.267559,0.0377 -0.47931,-0.0302 l -0.385004,-0.12368 -0.418047,0.41394 -0.418049,0.41394 0.212092,0.13708 c 0.272282,0.17601 0.288051,0.27853 0.124089,0.80681 l -0.134841,0.43449 -4.476473,4.46587 c -3.958514,3.94913 -4.473565,4.48568 -4.451423,4.63693 0.02224,0.15195 -0.09988,0.27785 -1.09277,1.12679 -0.782227,0.66878 -1.970666,1.8261 -3.958602,3.85491 -2.463971,2.51463 -2.876685,2.90959 -3.1114188,2.97761 -0.1488446,0.0432 -0.4570706,0.2062 -0.6849411,0.36237 -0.9850151,0.67511 -1.2131889,0.78772 -1.4318986,0.70674 -0.1704506,-0.0632 -0.2921929,-0.0194 -0.5947951,0.21378 -0.2092736,0.16125 -0.471307,0.40203 -0.5823311,0.53507 -0.1880684,0.22539 -0.1866236,0.26128 0.021222,0.52589 l 0.2230724,0.28397 -0.3787633,0.4126 c -0.3184536,0.3469 -0.3681781,0.44636 -0.3122842,0.62477 0.03656,0.11676 0.057781,0.25363 0.047145,0.30433 -0.010675,0.0508 0.068671,0.28455 0.1762224,0.51971 0.1577432,0.34487 0.1686513,0.48119 0.056408,0.70504 -0.1594043,0.3179 -0.1415476,0.73582 0.039089,0.91468 0.1620776,0.16048 0.6473774,0.31103 0.7850119,0.24352 0.082576,-0.0405 0.1391185,0.0338 0.2377199,0.31245 0.071146,0.20107 0.2338976,0.54607 0.3616527,0.76668 0.2063845,0.35637 0.2522401,0.39821 0.4112861,0.37524 0.1549051,-0.0224 0.1790036,-0.001 0.1790036,0.15395 0,0.0989 0.1877954,0.46757 0.4173232,0.81924 0.4167868,0.63862 0.4176409,0.6394 0.660576,0.61412 0.1337878,-0.014 0.836423,-0.31903 1.561412,-0.678 1.02292,-0.50647 1.414345,-0.65545 1.747569,-0.6651 0.841833,-0.0244 1.511074,0.44683 1.795354,1.26417 0.289473,0.83227 0.492035,1.3187 0.589205,1.41492 0.05243,0.052 0.08523,0.13681 0.07287,0.18864 -0.01233,0.0519 0.05084,0.20562 0.14044,0.34172 0.0896,0.1361 0.210165,0.37106 0.267911,0.52214 0.106625,0.27895 1.567942,2.72921 1.822097,3.05519 0.175413,0.22497 0.568328,0.73811 0.85203,1.11271 0.35995,0.47528 1.757692,1.95153 1.962975,2.07325 0.145149,0.0861 0.314438,0.0563 0.705687,-0.12406 0.792225,-0.36524 3.306834,-2.63459 4.481957,-4.04483 z m -2.334859,-11.68929 c -0.735555,0.59976 -1.179266,0.775 -1.873998,0.7401 -1.279624,-0.0643 -2.224959,-1.07869 -2.096226,-2.2494 0.04874,-0.44324 0.0609,-0.46389 0.255755,-0.43393 0.127229,0.0196 0.377699,0.20287 0.662406,0.48478 0.756202,0.74876 1.535545,1.00871 2.374363,0.79193 0.567739,-0.14673 0.871459,-0.35348 0.911554,-0.62051 0.02989,-0.19906 -7.16e-4,-0.2039 -0.543519,-0.0859 -0.83148,0.18092 -1.316606,-0.005 -1.975296,-0.75512 -0.791465,-0.90188 -0.88734,-0.67186 1.097255,-2.63228 1.7811,-1.75931 1.834938,-1.79912 2.263394,-1.66967 0.110868,0.0334 0.622447,0.46163 1.139837,0.95395 1.353438,1.28784 1.388749,1.4942 0.45907,2.68279 -0.275394,0.35208 -0.722454,0.87498 -0.993467,1.16199 -0.271018,0.28701 -0.616809,0.65459 -0.76846,0.81681 -0.151627,0.16226 -0.562331,0.52871 -0.912668,0.81436 z"
       id="path1000" />       
  </g>
</svg>
