<?xml version="1.0" encoding="UTF-8" standalone="no"?>
<!-- Created with Inkscape (http://www.inkscape.org/) -->

<svg
   xmlns:dc="http://purl.org/dc/elements/1.1/"
   xmlns:cc="http://creativecommons.org/ns#"
   xmlns:rdf="http://www.w3.org/1999/02/22-rdf-syntax-ns#"
   xmlns:svg="http://www.w3.org/2000/svg"
   xmlns="http://www.w3.org/2000/svg"
   xmlns:sodipodi="http://sodipodi.sourceforge.net/DTD/sodipodi-0.dtd"   
   width="220"
   height="235"
   viewBox="0 0 58.208332 62.177085"
   version="1.1"
   id="svg8"   
   sodipodi:docname="p14.svg" >
  <defs
     id="defs2" />
  <sodipodi:namedview
     id="base"
     pagecolor="#000000"
     bordercolor="#666666"
     borderopacity="1.0"     
     showgrid="false"
     units="px"
     showguides="false" />
  <metadata
     id="metadata5">
    <rdf:RDF>
      <cc:Work
         rdf:about="">
        <dc:format>image/svg+xml</dc:format>
        <dc:type
           rdf:resource="http://purl.org/dc/dcmitype/StillImage" />
        <dc:title></dc:title>
      </cc:Work>
    </rdf:RDF>
  </metadata>
  <g
     id="layer1"
     transform="translate(0,-234.8229)">
    <path
       style="fill:none;stroke:#fffffd;stroke-width:0.4;stroke-opacity:1;stroke-miterlimit:4;stroke-dasharray:none"
       d="m 38.624642,289.92263 c -0.0091,-0.0377 -0.126206,0.011 -0.260171,0.10811 -0.133965,0.0971 -0.61718,0.41577 -1.07381,0.70814 -0.456631,0.29237 -1.121801,0.73582 -1.478157,0.98544 -0.356359,0.24963 -0.719712,0.48446 -0.807456,0.52186 -0.104008,0.0443 -0.128926,0.0985 -0.07161,0.15555 0.05909,0.0588 0.04847,0.0799 -0.03241,0.0642 -0.107287,-0.0209 -0.540553,0.26586 -2.194005,1.45193 -0.264918,0.19002 -0.495399,0.34255 -0.512187,0.33895 -0.01679,-0.003 -0.18006,-0.0266 -0.362831,-0.0512 -0.44706,-0.06 -0.614683,-0.24722 -0.674102,-0.75298 -0.0794,-0.67586 -0.125371,-0.67098 -1.41155,0.14973 -0.610331,0.38945 -0.816284,0.47625 -1.092106,0.4602 -0.186959,-0.0109 -0.273141,0.009 -0.191514,0.0459 0.198112,0.0876 -0.02238,0.40732 -0.35084,0.50865 -0.133369,0.0411 -0.244764,0.11458 -0.24754,0.16318 -0.0028,0.0487 -0.01979,0.0356 -0.0378,-0.029 -0.01802,-0.0645 -0.134198,-0.11733 -0.258182,-0.11733 -0.188595,0 -0.369992,-0.13783 -1.11021,-0.84353 -0.486632,-0.46395 -0.85967,-0.86799 -0.828978,-0.89788 0.03069,-0.0299 0.01289,-0.0961 -0.03957,-0.14719 -0.102839,-0.10014 -0.781513,-1.6972 -1.332314,-3.1352 -0.111382,-0.2908 -0.233826,-0.55921 -0.272101,-0.59648 -0.03828,-0.0373 -0.0401,-0.0965 -0.004,-0.13156 0.03604,-0.0351 0.03191,-0.0965 -0.0093,-0.13658 -0.07571,-0.0737 -0.38528,-0.8933 -0.382715,-1.01321 7.7e-4,-0.0358 -0.04301,-0.17605 -0.09729,-0.31158 -0.07619,-0.19024 -0.123864,-0.23608 -0.209145,-0.20104 -0.06075,0.025 -0.06118,-0.007 -9.46e-4,-0.0714 0.06023,-0.0642 0.07775,-0.14762 0.03894,-0.18541 -0.03881,-0.0378 -0.212861,-0.55607 -0.386773,-1.15173 -0.173912,-0.59566 -0.364521,-1.09412 -0.423576,-1.10769 -0.06296,-0.0145 -0.04918,-0.0499 0.03335,-0.0858 0.08513,-0.037 0.105147,-0.0957 0.05064,-0.14875 -0.04955,-0.0483 -0.123017,-0.25564 -0.16325,-0.46088 l -0.07315,-0.37315 -0.316356,0.26964 c -0.344751,0.29387 -0.646446,0.41767 -0.756521,0.3105 -0.03854,-0.0375 -0.141942,-0.27942 -0.229761,-0.5375 -0.08782,-0.25808 -0.173876,-0.45541 -0.191241,-0.43849 -0.01737,0.0169 -0.05654,-0.086 -0.08707,-0.22867 -0.03052,-0.14266 -0.112678,-0.27253 -0.18257,-0.2886 -0.0804,-0.0185 -0.08211,-0.0396 -0.0047,-0.0574 0.06845,-0.0157 0.08542,-0.0658 0.03848,-0.11346 -0.209639,-0.21311 -0.346041,-0.9327 -0.23648,-1.24759 0.132452,-0.38066 -0.03044,-0.96106 -0.538034,-1.91714 -0.344401,-0.64868 -1.490246,-1.49489 -2.117847,-1.56404 -0.758703,-0.0836 -1.114804,-0.072 -1.580827,0.0515 -0.299929,0.0794 -0.576676,0.17503 -0.614996,0.21234 -0.03832,0.0373 -0.187078,0.11519 -0.330577,0.17305 -0.143498,0.0579 -0.28059,0.11476 -0.304653,0.12643 -0.20732,0.10045 -0.623281,0.26394 -0.769145,0.30219 -0.09862,0.0259 -0.225162,0.0917 -0.281217,0.14626 -0.153796,0.14974 -1.369814,0.56224 -1.533014,0.52002 -0.0785,-0.0203 -0.190416,0.009 -0.248697,0.0663 -0.05828,0.0567 -0.105975,0.0639 -0.105965,0.0159 -7e-6,-0.0481 -0.176676,-0.0913 -0.392615,-0.0963 -0.492228,-0.0112 -1.125661,-0.18511 -1.38356,-0.3798 -0.1747,-0.13189 -0.175111,-0.17019 -0.0036,-0.33715 0.141032,-0.13732 0.322619,-0.182 0.670085,-0.16483 0.262144,0.0129 0.454877,0.001 0.428294,-0.0255 -0.02659,-0.0269 0.0029,-0.0413 0.06552,-0.0319 0.255831,0.0384 1.054464,-0.16716 1.339397,-0.3448 0.319664,-0.19931 1.024044,-0.92168 1.024043,-1.05021 -2e-6,-0.0412 0.06315,-0.0806 0.140288,-0.0876 0.180227,-0.0164 0.408758,-0.41344 0.557727,-0.96916 0.136688,-0.50992 0.122654,-0.76324 -0.06472,-1.16838 -0.07833,-0.16939 -0.14941,-0.41603 -0.157944,-0.54811 -0.01252,-0.19381 -0.121844,-0.3384 -0.566783,-0.74964 -0.546821,-0.50538 -0.555403,-0.50944 -1.06249,-0.50171 -0.281169,0.004 -0.753727,0.0898 -1.050127,0.19013 -0.851073,0.28795 -1.489319,0.1018 -1.8724209,-0.54616 -0.1967595,-0.33278 -0.2199309,-1.08435 -0.038864,-1.26064 0.052807,-0.0514 0.071207,-0.11766 0.040874,-0.14718 -0.096319,-0.0938 0.5844669,-0.51956 0.9738629,-0.60906 0.441169,-0.10139 0.710229,-0.33379 0.710228,-0.61342 10e-7,-0.11029 0.02527,-0.17797 0.05615,-0.15039 0.0309,0.0276 0.02341,-0.0608 -0.01662,-0.19641 -0.04003,-0.13562 -0.109168,-0.25494 -0.153637,-0.26516 -0.04447,-0.0103 -0.0532,-0.0455 -0.01941,-0.0784 0.0338,-0.0329 0.01133,-0.17764 -0.04992,-0.32163 -0.227192,-0.53406 -0.150521,-0.75388 0.484759,-1.38979 0.566637,-0.56721 0.578413,-0.58774 0.572499,-0.99973 -0.0051,-0.35727 -0.0539,-0.46724 -0.323837,-0.73007 -0.174794,-0.17019 -0.317804,-0.36683 -0.317805,-0.43696 1e-6,-0.18214 0.493176,-0.54082 0.600258,-0.43656 0.04833,0.047 0.15139,0.0696 0.229019,0.0502 0.139176,-0.0349 0.432206,0.11491 0.818343,0.41832 0.108588,0.0853 0.243323,0.15514 0.299411,0.15512 0.05608,-1e-5 1.790704,-1.65305 3.854704,-3.67345 2.172951,-2.12706 3.793019,-3.66418 3.848423,-3.65144 0.05263,0.0121 0.239935,-0.11845 0.41623,-0.29011 0.236714,-0.23049 0.367152,-0.29929 0.49878,-0.2631 0.164631,0.0453 0.354451,-0.1237 2.485503,-2.21232 2.27316,-2.22793 2.308755,-2.26706 2.408723,-2.64895 l 0.101466,-0.38762 6.759339,-6.48658 c 6.150658,-5.90249 6.75933,-6.50499 6.759329,-6.69089 0,-0.11235 -0.05545,-0.21703 -0.123228,-0.23261 -0.07004,-0.0161 -0.07729,-0.0389 -0.01679,-0.0528 0.05855,-0.0135 0.100317,-0.14576 0.09284,-0.29401 -0.03207,-0.63556 0.02014,-0.76816 0.422163,-1.07204 0.209876,-0.15862 0.440247,-0.29401 0.511955,-0.30084 0.07171,-0.007 0.132645,-0.0572 0.135417,-0.11193 0.0028,-0.0548 0.02078,-0.0426 0.04001,0.0269 0.01923,0.0696 0.127198,0.12646 0.239923,0.12646 0.112725,0 0.288037,0.0809 0.389587,0.17978 0.105647,0.10283 0.21838,0.14438 0.263508,0.097 0.277911,-0.29148 0.426556,-0.34868 0.708847,-0.27286 0.172003,0.0462 0.331855,0.0323 0.361533,-0.0315 0.02927,-0.0629 0.06345,-0.0721 0.07596,-0.0205 0.01251,0.0516 0.283078,0.16768 0.601249,0.25793 0.736759,0.20898 1.544669,0.86456 2.010922,1.63175 0.165342,0.27205 0.515642,0.76367 0.778439,1.09247 0.301159,0.37679 0.468315,0.65946 0.45212,0.76453 -0.02959,0.19194 0.09068,0.34428 0.193087,0.24458 0.0392,-0.0382 0.08272,-0.0111 0.1,0.0621 0.01683,0.0714 0.14229,0.25069 0.278796,0.39852 0.375347,0.40652 0.47014,0.55084 0.460104,0.70056 -0.005,0.0751 0.06483,0.27525 0.155238,0.44481 0.09042,0.16956 0.157057,0.37 0.148099,0.44542 -0.01499,0.12622 -3.324287,3.51156 -5.70111,5.83211 l -0.981748,0.95833 0.08456,0.29972 0.08456,0.29971 -2.24134,2.19442 c -1.232726,1.20695 -2.913725,2.88928 -3.735541,3.73852 -1.700152,1.75689 -1.830488,1.96979 -1.813594,2.96242 0.01403,0.8242 0.140334,1.05616 1.168723,2.14631 0.874279,0.92679 0.91713,0.988 1.095692,1.56505 0.220135,0.71138 0.22452,1.18684 0.01835,1.98967 -0.214491,0.83521 -0.538183,1.22722 -3.194758,3.869 -1.96445,1.95351 -2.323033,2.34072 -2.446187,2.64148 -0.165388,0.40391 -0.166455,1.2278 -0.002,1.58562 0.313923,0.68324 0.880964,1.65486 0.994544,1.70411 0.0709,0.0308 0.08844,0.0652 0.03897,0.0765 -0.04947,0.0114 0.320737,0.75339 0.822686,1.64894 0.501949,0.89554 1.037397,1.85135 1.189887,2.12401 0.152489,0.27265 0.602213,1.06945 0.999386,1.77065 0.397172,0.7012 1.055361,1.86929 1.462643,2.59576 1.640497,2.92612 1.605207,2.88048 2.464705,3.18713 0.620116,0.22124 0.909439,0.45745 1.035102,0.84512 0.09884,0.30492 0.07529,0.859 -0.0365,0.859 -0.04221,1e-5 -0.04447,0.0315 -0.005,0.0699 0.04868,0.0474 -0.193191,0.32141 -0.752289,0.85222 -0.453219,0.43029 -0.831511,0.75154 -0.840639,0.7139 z m -3.4519,-23.31176 c 0.296701,-0.30124 0.616431,-0.6857 0.710499,-0.85435 0.217598,-0.39013 0.410313,-1.36364 0.308184,-1.55682 -0.04287,-0.0811 -0.05407,-0.17068 -0.0249,-0.19909 0.02917,-0.0284 -0.03355,-0.26882 -0.139387,-0.53427 -0.280254,-0.70286 -0.984167,-1.37668 -1.701824,-1.62906 -0.864474,-0.30402 -1.630117,-0.25903 -2.44187,0.14346 -0.378178,0.18751 -0.609214,0.38135 -1.187132,0.99602 -0.394655,0.41977 -0.707858,0.80927 -0.695985,0.86558 0.01187,0.0563 -0.01427,0.31514 -0.0581,0.5752 -0.161673,0.95936 0.126944,1.80647 0.857983,2.51828 0.388231,0.37801 0.540176,0.46332 1.174193,0.65918 0.476649,0.14725 0.762259,0.18634 0.826669,0.11312 0.0548,-0.0622 0.120385,-0.0638 0.147996,-0.003 0.06263,0.13694 0.599313,0.0348 0.637154,-0.12133 0.01676,-0.0691 0.03939,-0.07 0.05584,-0.002 0.0152,0.0626 0.120724,0.0866 0.234488,0.053 0.113763,-0.0335 0.219062,-0.0106 0.233994,0.0511 0.01876,0.0774 0.103711,0.0134 0.274943,-0.20729 0.136271,-0.17561 0.490549,-0.56574 0.787255,-0.86697 z"
       id="path1705"       
       sodipodi:nodetypes="ccsccccccccccccccsccccccccccccscccccccccccccccccccccccccccccccccccccccccccccccccccccccccccccccccccsccccccsccccsccccccccccccccccccccscccccccccccccccccccccccccccccccccccc" />
  </g>
</svg>
