<?xml version="1.0" encoding="UTF-8" standalone="no"?>
<!-- Created with Inkscape (http://www.inkscape.org/) -->

<svg
   xmlns:dc="http://purl.org/dc/elements/1.1/"
   xmlns:cc="http://creativecommons.org/ns#"
   xmlns:rdf="http://www.w3.org/1999/02/22-rdf-syntax-ns#"
   xmlns:svg="http://www.w3.org/2000/svg"
   xmlns="http://www.w3.org/2000/svg"
   xmlns:sodipodi="http://sodipodi.sourceforge.net/DTD/sodipodi-0.dtd"   
   width="220"
   height="235"
   viewBox="0 0 58.208332 62.177085"
   version="1.1"
   id="svg8"   
   sodipodi:docname="px4.svg" >
  <defs
     id="defs2" />
  <sodipodi:namedview
     id="base"
     pagecolor="#000000"
     bordercolor="#666666"
     borderopacity="1.0"
     showgrid="false"
     units="px"
     showguides="false" />
  <metadata
     id="metadata5">
    <rdf:RDF>
      <cc:Work
         rdf:about="">
        <dc:format>image/svg+xml</dc:format>
        <dc:type
           rdf:resource="http://purl.org/dc/dcmitype/StillImage" />
        <dc:title></dc:title>
      </cc:Work>
    </rdf:RDF>
  </metadata>
  <g
     id="layer1"
     transform="translate(0,-234.8229)">
    <path
       style="fill:none;stroke:#fffffd;stroke-width:0.4;stroke-opacity:1;stroke-miterlimit:4;stroke-dasharray:none"
       d="m 33.028391,294.40953 c 0.118066,-0.26021 0.124849,-0.61925 0.01805,-0.9556 l -0.115649,-0.36422 0.158349,0.21513 0.158347,0.21512 2.19215,-2.11421 c 3.410732,-3.28947 4.521061,-4.53739 4.932981,-5.54429 0.2583,-0.63137 0.138041,-0.91002 -0.503473,-1.16657 -0.322447,-0.12895 -0.37851,-0.17697 -0.620449,-0.53145 -0.16611,-0.24337 -0.447756,-0.54595 -0.750141,-0.80588 -0.268175,-0.23053 -0.519222,-0.49426 -0.562747,-0.59119 -0.04322,-0.0962 -0.188092,-0.31629 -0.321942,-0.48901 -0.336567,-0.4343 -1.306139,-1.9542 -1.359912,-2.1318 -0.02425,-0.0801 -0.113692,-0.21524 -0.198752,-0.3003 -0.08506,-0.0851 -0.145811,-0.19211 -0.135006,-0.23788 0.01081,-0.0458 -0.03914,-0.14201 -0.110992,-0.21386 -0.07185,-0.0719 -0.172442,-0.24794 -0.223533,-0.39131 -0.05109,-0.14337 -0.120263,-0.26067 -0.153716,-0.26067 -0.03345,1e-5 -0.104276,-0.10583 -0.157391,-0.23518 -0.05311,-0.12934 -0.176257,-0.34727 -0.273659,-0.48427 -0.0974,-0.137 -0.168661,-0.28481 -0.158355,-0.32847 0.0103,-0.0437 -0.03204,-0.10571 -0.09409,-0.1379 -0.06206,-0.0322 -0.144706,-0.15926 -0.183668,-0.28236 -0.03896,-0.1231 -0.138444,-0.29142 -0.221076,-0.37405 -0.08263,-0.0826 -0.169557,-0.24299 -0.193168,-0.35635 -0.02361,-0.11336 -0.08038,-0.21494 -0.126153,-0.22575 -0.04577,-0.0108 -0.132624,-0.13996 -0.193002,-0.28701 -0.06038,-0.14705 -0.165134,-0.32271 -0.232787,-0.39036 -0.06765,-0.0677 -0.142773,-0.18362 -0.166935,-0.25771 -0.05556,-0.17038 -0.336712,-0.65768 -0.53582,-0.92871 -0.08387,-0.11416 -0.157901,-0.24844 -0.16452,-0.2984 -0.0066,-0.05 -0.0751,-0.18828 -0.152175,-0.30737 -0.07708,-0.1191 -0.156638,-0.271 -0.176804,-0.33756 -0.02016,-0.0666 -0.119866,-0.29538 -0.221559,-0.50849 -0.304401,-0.63789 -0.349739,-0.9081 -0.232388,-1.38504 0.245536,-0.99792 0.841557,-1.66194 2.0404,-2.27319 1.300543,-0.66311 2.743989,-1.74923 3.551449,-2.6723 2.036344,-2.32789 2.896886,-4.50113 2.392456,-6.04199 -0.07049,-0.21533 -0.390728,-0.9962 -0.711632,-1.73526 -0.65098,-1.49925 -1.031613,-2.49859 -1.008966,-2.64903 0.0083,-0.0549 1.607692,-1.67749 3.554278,-3.60571 3.506015,-3.47293 3.538424,-3.50697 3.452045,-3.6244 -0.280336,-0.38109 -0.280754,-0.38791 -0.03879,-0.62988 0.162982,-0.16298 0.251516,-0.20944 0.302305,-0.15865 0.0395,0.0395 0.227491,0.0617 0.417744,0.0494 0.331923,-0.0215 0.361278,-0.039 0.725434,-0.43187 l 0.379511,-0.40941 -0.118571,-0.33733 c -0.06521,-0.18553 -0.242223,-0.48985 -0.393358,-0.67627 -0.151143,-0.1864 -0.280114,-0.39621 -0.286622,-0.46623 -0.0086,-0.0926 0.139566,-0.27868 0.54346,-0.68257 0.30541,-0.30541 0.577157,-0.60441 0.603897,-0.66443 0.02674,-0.06 -0.0043,-0.21417 -0.06896,-0.34253 -0.09768,-0.19391 -0.09244,-0.25851 0.03094,-0.3819 0.176258,-0.17626 0.136363,-0.37364 -0.129196,-0.6392 -0.10187,-0.10187 -0.205096,-0.28064 -0.229392,-0.39728 -0.06149,-0.29521 -0.969068,-1.23095 -1.219758,-1.25759 -0.136418,-0.0145 -0.294748,-0.1471 -0.754285,-0.6317 -0.557823,-0.58822 -0.578885,-0.62066 -0.514673,-0.79237 0.107126,-0.28644 -0.138678,-0.64442 -1.117291,-1.62716 -0.943275,-0.94724 -1.214539,-1.12097 -1.461502,-0.93589 -0.12929,0.0969 -0.352492,-0.007 -0.647748,-0.30264 -0.243432,-0.24343 -0.355088,-0.2577 -0.54336,-0.0694 -0.149509,0.14951 -0.192057,0.15699 -0.296916,0.0521 -0.08287,-0.0829 -0.259902,-0.10875 -0.548216,-0.0801 -0.371065,0.0368 -0.514965,0.10128 -1.119015,0.50122 -0.424999,0.28138 -0.697593,0.49931 -0.704567,0.56327 -0.0063,0.0574 0.09577,0.3438 0.226726,0.63652 l 0.238105,0.53221 -11.480346,11.46176 c -6.314193,6.30396 -11.771275,11.72603 -12.12685,12.04902 l -0.646498,0.58728 -0.170099,-0.11798 c -0.133081,-0.0923 -0.325751,-0.0849 -0.885331,0.0339 l -0.715234,0.15182 -0.682232,0.71074 -0.682232,0.71073 0.374535,0.532 0.374535,0.532 -0.108109,1.07491 c -0.13299,1.32229 -0.170525,1.37824 -1.195273,1.78169 -0.8319691,0.32755 -1.0548832,1.44926 -0.387103,1.94791 0.132951,0.0993 0.528793,0.30939 0.87965,0.46691 l 0.637921,0.2864 0.03829,0.4322 c 0.02106,0.23771 0.08495,0.51013 0.141974,0.60537 0.08239,0.13761 0.07341,0.20345 -0.04372,0.32059 -0.108748,0.10874 -0.12954,0.20373 -0.07927,0.36217 0.03747,0.11812 0.06889,0.39918 0.06981,0.62458 9.07e-4,0.2254 0.141937,1.10281 0.313377,1.9498 0.53842,2.66003 0.503813,2.56584 0.958314,2.60836 0.176373,0.0165 0.375967,-0.0511 0.669617,-0.22681 0.791974,-0.47389 1.555753,-0.86376 2.179414,-1.11249 0.494402,-0.19718 0.778753,-0.25307 1.359944,-0.26731 1.829207,-0.0448 3.269542,0.64492 4.06708,1.94762 0.256985,0.41976 0.990128,2.43526 1.105444,3.039 0.03379,0.17689 0.131773,0.44925 0.217748,0.60523 0.08597,0.15598 0.169606,0.38072 0.185847,0.49941 0.01624,0.11869 0.06122,0.24748 0.09994,0.2862 0.03872,0.0387 0.110482,0.20307 0.159467,0.36522 0.04899,0.16214 0.127081,0.33282 0.173543,0.37928 0.04646,0.0465 0.07883,0.14529 0.07192,0.21961 -0.0069,0.0743 0.04505,0.22478 0.115457,0.33435 0.07041,0.10956 0.14191,0.27662 0.158891,0.37124 0.01698,0.0946 0.07917,0.22033 0.13819,0.27936 0.05902,0.059 0.118262,0.18623 0.131641,0.28267 0.01338,0.0965 0.05816,0.21096 0.09953,0.25448 0.04137,0.0435 0.107703,0.18244 0.147428,0.30875 0.03973,0.1263 0.133412,0.33352 0.208189,0.46048 0.07478,0.12695 0.225377,0.39602 0.334662,0.59792 0.109286,0.2019 0.261048,0.46677 0.337249,0.5886 0.0762,0.12182 0.184521,0.31441 0.24071,0.42795 0.234372,0.47363 0.365054,0.69243 0.485487,0.81286 0.07013,0.0701 0.127509,0.17199 0.127509,0.22635 0,0.0544 0.0706,0.18977 0.156884,0.3009 0.08628,0.11113 0.19189,0.28278 0.23468,0.38144 0.04279,0.0986 0.177855,0.33393 0.300147,0.52282 0.122289,0.1889 0.273172,0.45465 0.335289,0.59056 0.194649,0.42587 0.358385,0.70423 0.59054,1.00397 0.123487,0.15942 0.419293,0.58114 0.657373,0.93714 0.366307,0.54775 0.55467,0.76028 1.224893,1.38208 0.854067,0.79236 0.937268,0.83362 1.390354,0.68941 0.123448,-0.0393 0.275303,-0.0177 0.383579,0.0545 0.239074,0.15938 0.743697,0.19593 1.037815,0.0752 0.235342,-0.0966 0.728242,-0.54988 0.8215,-0.75541 z m 1.726,-26.82093 c -1.274307,0.92982 -2.247291,1.30923 -3.33828,1.30174 -1.368535,-0.009 -2.246825,-0.49768 -2.98818,-1.66131 -0.651961,-1.02331 -0.661054,-1.46405 -0.05162,-2.50134 0.19316,-0.32877 0.393118,-0.69111 0.444353,-0.8052 0.14981,-0.33361 0.780003,-0.88875 1.044803,-0.92038 0.260187,-0.0311 0.332905,0.025 0.430044,0.33159 0.362232,1.14333 1.865826,2.00578 3.542713,2.03207 1.112337,0.0174 2.539426,-0.51345 2.806744,-1.04413 0.227908,-0.45244 -0.07818,-0.60372 -0.678608,-0.33539 -1.216245,0.54356 -2.478487,0.42587 -3.555985,-0.33155 -0.512725,-0.36042 -0.82411,-0.78101 -1.023281,-1.38216 -0.06967,-0.21027 -0.170181,-0.40169 -0.223364,-0.42537 -0.07796,-0.0347 0.06388,-0.2176 0.731789,-0.94355 1.326132,-1.44137 2.079735,-1.96454 3.165972,-2.19789 0.640873,-0.13767 1.698199,-0.14222 2.023375,-0.009 0.579322,0.23788 1.500672,1.42323 1.720197,2.21311 0.455331,1.63832 -1.451249,4.78175 -4.050674,6.67846 z m -23.749496,2.84554 c -0.400143,-0.19689 -0.492222,-0.26849 -0.5525,-0.42968 -0.103791,-0.27753 0.0994,-0.45099 0.468685,-0.4001 0.609333,0.084 0.624346,0.0978 0.639996,0.5901 0.0078,0.24605 -0.0061,0.45379 -0.0309,0.46165 -0.02481,0.008 -0.261193,-0.092 -0.525285,-0.22197 z"
       id="path1039"       
       sodipodi:nodetypes="cccccsccccccccccccccccccccccccccccccccccscccccccccccsccccccccccccccccscccccccccsccsccccccscsccsccccccccccccccccccsccccccsccccccccccccccccccscccccccccccc" />
  </g>
</svg>
