<?xml version="1.0" encoding="UTF-8" standalone="no"?>
<!-- Created with Inkscape (http://www.inkscape.org/) -->

<svg
   xmlns:dc="http://purl.org/dc/elements/1.1/"
   xmlns:cc="http://creativecommons.org/ns#"
   xmlns:rdf="http://www.w3.org/1999/02/22-rdf-syntax-ns#"
   xmlns:svg="http://www.w3.org/2000/svg"
   xmlns="http://www.w3.org/2000/svg"
   xmlns:sodipodi="http://sodipodi.sourceforge.net/DTD/sodipodi-0.dtd"   
   width="220"
   height="235"
   viewBox="0 0 58.208332 62.177085"
   version="1.1"
   id="svg8"   
   sodipodi:docname="tt-33.svg" >
  <defs
     id="defs2" />
  <sodipodi:namedview
     id="base"
     pagecolor="#000000"
     bordercolor="#666666"
     borderopacity="1.0"
     showgrid="false"
     units="px"
     showguides="false" />
  <metadata
     id="metadata5">
    <rdf:RDF>
      <cc:Work
         rdf:about="">
        <dc:format>image/svg+xml</dc:format>
        <dc:type
           rdf:resource="http://purl.org/dc/dcmitype/StillImage" />
        <dc:title />
      </cc:Work>
    </rdf:RDF>
  </metadata>
  <g
     id="layer1"
     transform="translate(0,-234.8229)">
    <path
       style="fill:none;stroke:#fffffd;stroke-width:0.4;stroke-opacity:1;stroke-miterlimit:4;stroke-dasharray:none"
       d="m 31.2316,294.26186 c -0.258616,-0.24498 -0.299326,-0.33661 -0.212184,-0.47762 0.05931,-0.0959 0.05719,-0.22245 -0.0047,-0.28108 -0.08428,-0.0799 -0.214302,-0.0207 -0.517881,0.23558 -0.396457,0.33466 -0.41402,0.33823 -0.80042,0.16314 -0.886482,-0.40169 -1.344477,-0.98547 -5.011161,-6.38731 -5.198015,-7.65783 -4.747791,-7.03143 -5.467262,-7.60662 -1.357744,-1.08548 -3.199171,-1.56953 -4.750591,-1.24879 -0.319857,0.0662 -1.01218,0.2919 -1.538497,0.50173 l -0.956944,0.38148 -0.565399,-0.2799 c -0.825503,-0.40864 -2.3018375,-1.92954 -2.8366122,-2.92221 -0.7373667,-1.36874 -1.1688523,-3.11064 -0.9912317,-4.00159 0.044479,-0.2231 0.019389,-0.46386 -0.055732,-0.53503 -0.075133,-0.0711 -0.1083127,-0.15621 -0.073722,-0.18897 0.034591,-0.0328 -0.034944,-0.12249 -0.1545221,-0.1994 -0.1638867,-0.10542 -0.18643,-0.16919 -0.091575,-0.25904 0.076908,-0.0729 0.071708,-0.14203 -0.013393,-0.17793 -0.1874175,-0.0791 -0.1767069,-0.33163 0.017534,-0.41358 0.1143364,-0.0483 0.1118855,-0.085 -0.0091,-0.1361 -0.2019025,-0.0851 -0.1656823,-0.32229 0.042123,-0.27582 0.081619,0.0182 0.1625543,-0.0236 0.1798554,-0.093 0.017307,-0.0694 -0.014348,-0.13648 -0.070342,-0.14899 -0.1824622,-0.0408 -0.056847,-0.22534 0.1415005,-0.20788 0.1549682,0.0137 0.2035751,-0.0259 0.2469582,-0.2009 0.043182,-0.17412 0.086796,-0.21064 0.2172431,-0.18188 0.090255,0.0199 0.1782795,-0.0244 0.1968994,-0.0992 0.033737,-0.1354 0.8534668,-0.16197 0.9905467,-0.0321 0.037674,0.0357 0.2644653,-0.12074 0.5039751,-0.34762 0.5203416,-0.4929 0.5116886,-0.57703 -0.1384305,-1.34576 -0.4171077,-0.49321 -0.4329831,-0.53593 -0.2710513,-0.72945 0.1914274,-0.22874 0.2552874,-0.20967 0.9222004,0.27556 0.227101,0.16524 0.504654,0.35386 0.61678,0.41917 l 0.203868,0.11872 14.719148,-13.94654 c 8.09551,-7.67064 14.732378,-14.00432 14.748442,-14.07498 0.01606,-0.0707 -0.123442,-0.31868 -0.30999,-0.55112 l -0.339173,-0.4226 0.752006,-0.64689 c 0.805639,-0.69302 1.252058,-0.88171 1.509378,-0.63797 0.247082,0.23406 0.454501,0.26915 0.626683,0.10606 0.244637,-0.23173 0.473536,-0.30868 0.590026,-0.19833 0.05594,0.053 0.244224,0.0964 0.418419,0.0964 0.174196,0 0.549654,0.0644 0.834353,0.14327 0.463866,0.12837 0.623088,0.23732 1.532868,1.04878 0.646018,0.57621 1.102971,1.04878 1.256456,1.29944 0.13267,0.21665 0.710269,0.89279 1.283551,1.50254 0.573285,0.60975 1.091887,1.21316 1.152449,1.34092 l 0.110122,0.23228 -4.495472,4.34367 c -3.874763,3.74393 -4.491886,4.36892 -4.469486,4.52649 0.0221,0.15539 -0.370473,0.5645 -2.617142,2.72748 -2.595898,2.49919 -2.646851,2.554 -2.850708,3.06604 -0.12354,0.31029 -0.199752,0.83512 -0.188247,1.29634 0.02149,0.86184 0.186095,1.22503 1.118603,2.46825 0.642566,0.85667 1.163445,1.77216 1.287023,2.26206 0.150079,0.59495 0.05101,1.66532 -0.220085,2.37786 l -0.260071,0.68356 -2.626029,2.63004 c -2.516256,2.5201 -2.633267,2.65015 -2.799197,3.11087 -0.284988,0.79131 -0.276827,1.5648 0.0261,2.47414 0.327939,0.98439 0.764827,1.7082 2.848608,4.71934 0.858563,1.24067 2.159547,3.12034 2.891071,4.17704 l 1.330049,1.9213 -0.2451,0.27509 c -0.185022,0.20768 -0.212475,0.306 -0.111999,0.40116 0.135399,0.12826 0.408601,0.0303 0.714928,-0.25639 0.146695,-0.13738 0.202059,-0.1198 0.493791,0.15655 l 0.328531,0.31121 -4.234391,4.01106 -4.234392,4.01108 z m 5.725994,-28.66832 c 0.270662,-0.75099 0.284116,-1.7 0.03391,-2.3918 -0.15515,-0.42897 -0.29591,-0.61937 -0.841908,-1.13886 -0.593617,-0.56482 -0.724016,-0.64601 -1.379145,-0.85886 -0.911715,-0.29621 -2.010971,-0.26778 -2.751958,0.0711 -0.437582,0.20018 -0.801617,0.49146 -2.08822,1.67094 l -1.558252,1.42849 0.366369,-0.0177 c 0.613831,-0.0296 0.801247,0.0633 1.026266,0.50879 0.259078,0.513 1.042721,1.25015 1.68738,1.58728 0.623095,0.32586 1.572979,0.50179 2.251077,0.41696 0.277583,-0.0347 0.555841,-0.0437 0.618351,-0.0199 0.394211,0.14985 0.0096,0.70847 -1.458236,2.11784 -0.996798,0.95714 -0.995268,1.02202 0.015,0.62954 0.596237,-0.23163 0.649541,-0.27486 2.233843,-1.81189 l 1.623034,-1.5746 z"
       id="path1130" />
  </g>
</svg>
