<?xml version="1.0" encoding="UTF-8" standalone="no"?>
<!-- Created with Inkscape (http://www.inkscape.org/) -->

<svg
   xmlns:dc="http://purl.org/dc/elements/1.1/"
   xmlns:cc="http://creativecommons.org/ns#"
   xmlns:rdf="http://www.w3.org/1999/02/22-rdf-syntax-ns#"
   xmlns:svg="http://www.w3.org/2000/svg"
   xmlns="http://www.w3.org/2000/svg"
   xmlns:sodipodi="http://sodipodi.sourceforge.net/DTD/sodipodi-0.dtd"   
   width="220"
   height="235"
   viewBox="0 0 58.208332 62.177085"
   version="1.1"
   id="svg8"   
   sodipodi:docname="xdm.svg">
  <defs
     id="defs2" />
  <sodipodi:namedview
     id="base"
     pagecolor="#000000"
     bordercolor="#666666"
     borderopacity="1.0"
     showgrid="false"
     units="px"
     showguides="false" />
  <metadata
     id="metadata5">
    <rdf:RDF>
      <cc:Work
         rdf:about="">
        <dc:format>image/svg+xml</dc:format>
        <dc:type
           rdf:resource="http://purl.org/dc/dcmitype/StillImage" />
        <dc:title></dc:title>
      </cc:Work>
    </rdf:RDF>
  </metadata>
  <g
     id="layer1"
     transform="translate(0,-234.8229)">
    <path
       style="fill:none;stroke:#fffffd;stroke-width:0.4;stroke-opacity:1;stroke-miterlimit:4;stroke-dasharray:none"
       d="m 39.335173,288.86757 c -0.03425,0.0167 -1.236986,1.14593 -2.672751,2.50935 -2.151909,2.04347 -2.634477,2.47943 -2.747092,2.4817 -0.227424,0.004 -0.531744,-0.36511 -0.577428,-0.70152 -0.03291,-0.24233 -0.05533,-0.28168 -0.13939,-0.24457 -0.179691,0.0793 -0.187507,0.22756 -0.02611,0.49521 0.126175,0.20924 0.135373,0.26508 0.04504,0.2734 -0.08857,0.008 -0.09372,0.0433 -0.02344,0.15958 0.08069,0.13358 0.06762,0.17145 -0.125403,0.36311 -0.184934,0.18365 -0.305618,0.23109 -0.851234,0.33467 -0.349661,0.0664 -0.800008,0.12914 -1.000775,0.13947 l -0.365029,0.0188 -0.32334,-0.41644 c -0.508545,-0.65498 -0.55043,-0.74919 -0.388952,-0.87491 0.111979,-0.0871 0.11999,-0.13561 0.04341,-0.26237 -0.06382,-0.10564 -0.12654,-0.14674 -0.195753,-0.12824 -0.346398,0.0926 -0.363371,0.084 -0.660083,-0.33582 -0.316072,-0.44714 -0.350779,-0.59153 -0.146704,-0.61034 0.17118,-0.0158 0.168061,-0.0795 -0.01358,-0.27717 -0.113384,-0.12343 -0.181102,-0.14664 -0.297576,-0.10197 -0.171906,0.0659 -0.242302,0.006 -0.554524,-0.46555 -0.216406,-0.32739 -0.217694,-0.33692 -0.06589,-0.48738 0.117009,-0.11597 0.139186,-0.18753 0.09079,-0.29291 -0.05162,-0.1124 -0.114918,-0.1351 -0.326388,-0.11704 l -0.262344,0.0224 -0.269728,-0.39748 -0.269724,-0.39749 0.161591,-0.13656 c 0.13131,-0.11097 0.149397,-0.1689 0.09648,-0.30914 -0.05859,-0.15526 -0.09302,-0.17166 -0.342971,-0.16328 l -0.277852,0.009 -0.220593,-0.36107 c -0.279472,-0.45745 -0.294155,-0.54682 -0.09759,-0.59401 0.123644,-0.0297 0.143996,-0.0609 0.124481,-0.19117 -0.03472,-0.23169 -0.158257,-0.31859 -0.399527,-0.28102 -0.215453,0.0336 -0.216222,0.033 -0.428385,-0.29698 -0.302579,-0.47062 -0.325094,-0.56693 -0.142336,-0.6088 0.123137,-0.0282 0.143241,-0.0595 0.124458,-0.19338 -0.03299,-0.23525 -0.148239,-0.32023 -0.384376,-0.28346 l -0.210044,0.0327 -0.224538,-0.43401 c -0.223312,-0.43164 -0.223618,-0.43482 -0.05593,-0.58278 0.135638,-0.11967 0.155628,-0.17747 0.102233,-0.29556 -0.05318,-0.11763 -0.111312,-0.1451 -0.292501,-0.13828 l -0.226128,0.008 -0.184615,-0.4273 c -0.181857,-0.42091 -0.181987,-0.42908 -0.0086,-0.54663 0.151862,-0.10303 0.166918,-0.14349 0.109701,-0.29513 -0.08458,-0.22417 -0.07157,-0.21507 -0.296437,-0.20719 l -0.191639,0.006 -0.146831,-0.45734 c -0.140345,-0.43714 -0.139391,-0.4624 0.02162,-0.57183 0.143173,-0.0973 0.158496,-0.14087 0.102127,-0.29026 -0.0894,-0.23693 -0.184432,-0.32126 -0.303031,-0.26891 -0.125893,0.0556 -0.157009,-0.0625 -0.223011,-0.84613 -0.0082,-0.0967 -0.03253,-0.19344 -0.05417,-0.21489 -0.02165,-0.0215 -0.0045,-0.0736 0.03809,-0.11577 0.0426,-0.0422 0.05124,-0.0767 0.0192,-0.0767 -0.08459,0 -0.189466,-0.36743 -0.137741,-0.48255 0.02422,-0.0539 0.01664,-0.12509 -0.01682,-0.15825 -0.03346,-0.0331 -0.05482,-0.13724 -0.04747,-0.23128 0.01718,-0.21978 -0.05491,-0.28936 -0.175732,-0.1696 -0.270875,0.26848 -0.771081,0.27027 -1.049236,0.004 -0.16846,-0.16141 -0.213188,-0.27522 -0.277121,-0.7051 -0.17959,-1.20756 -0.813492,-2.48537 -1.565855,-3.15643 -0.273164,-0.24364 -0.575246,-0.44712 -0.880628,-0.59316 -0.255659,-0.12227 -0.472738,-0.25549 -0.482398,-0.29605 -0.0098,-0.0409 -0.02655,-0.036 -0.03781,0.0113 -0.01276,0.0536 -0.164335,0.0362 -0.409782,-0.0469 -0.302202,-0.1024 -0.423986,-0.10925 -0.543187,-0.0305 -0.0845,0.0559 -0.174383,0.081 -0.199728,0.0559 -0.02534,-0.0251 0.01283,-0.0805 0.08482,-0.1232 0.128619,-0.0762 0.128049,-0.0771 -0.03274,-0.0555 -0.09618,0.013 -0.212736,0.0874 -0.282719,0.18036 -0.138859,0.18463 -0.257333,0.25158 -0.32531,0.1842 -0.02881,-0.0285 0.004,-0.0526 0.08133,-0.0598 0.07128,-0.006 0.129607,-0.0392 0.129607,-0.0727 1e-6,-0.0727 -0.16403,-0.0801 -0.275056,-0.0122 -0.19944,0.12179 -0.357979,0.18688 -0.386458,0.15865 -0.0171,-0.0169 -0.07054,0.002 -0.118759,0.0435 -0.04822,0.0408 -0.162305,0.12469 -0.253528,0.18626 -0.562779,0.37987 -0.941679,0.73499 -0.956852,0.89679 -0.0061,0.0648 -0.08247,0.0941 -0.233222,0.0894 -0.1233,-0.004 -0.202526,-0.0284 -0.176058,-0.0546 0.02647,-0.0262 -0.01429,-0.0897 -0.09058,-0.14105 -0.07628,-0.0513 -0.143617,-0.14004 -0.149641,-0.19711 -0.0061,-0.057 -0.168102,-0.24721 -0.360185,-0.42254 -0.34775,-0.31741 -0.349167,-0.32014 -0.331835,-0.63831 0.0096,-0.17574 0.03066,-0.42579 0.04685,-0.55563 l 0.02945,-0.2361 -1.068282,-1.09927 -1.068284,-1.09926 -0.07446,0.12607 c -0.05959,0.10092 -0.08843,0.10513 -0.144436,0.0211 -0.0419,-0.0629 -0.03254,-0.13126 0.02332,-0.17042 0.08404,-0.0589 0.03446,-0.12375 -0.500964,-0.6549 -0.326836,-0.32424 -0.651925,-0.69063 -0.722411,-0.8142 -0.08734,-0.15314 -0.161481,-0.22777 -0.232785,-0.23433 -0.12171,-0.0112 -0.7550923,-1.06178 -0.7258573,-1.20395 0.034249,-0.16656 1.3400503,-1.32889 1.8915653,-1.68354 0.294481,-0.18943 0.768132,-0.50686 1.052558,-0.70541 0.284427,-0.19855 0.565606,-0.36547 0.624844,-0.37092 0.05923,-0.005 0.187552,0.0692 0.285147,0.16595 0.09759,0.0967 0.202493,0.16961 0.233112,0.16197 0.03062,-0.007 5.970542,-5.86151 13.199829,-13.00854 L 39.892707,240.22969 39.71154,240.0408 c -0.09965,-0.10387 -0.233902,-0.27136 -0.298354,-0.37213 -0.109967,-0.17193 -0.104876,-0.19542 0.08256,-0.38119 0.1514,-0.15007 0.239069,-0.19012 0.362201,-0.16547 0.142757,0.0286 0.240954,-0.0335 0.809911,-0.5114 0.602308,-0.50599 0.645876,-0.55399 0.624833,-0.68834 -0.0375,-0.2394 0.194509,-0.21131 0.464448,0.0562 l 0.226653,0.22464 0.157828,-0.15643 c 0.198153,-0.19639 0.702716,-0.18813 0.907531,0.0148 0.101214,0.10029 0.165754,0.11199 0.271667,0.0491 0.175237,-0.10397 0.270246,-0.0616 0.776483,0.34655 0.474868,0.38285 1.472783,1.49702 1.488214,1.66158 0.0057,0.0616 -0.02855,0.16354 -0.07627,0.22655 -0.08639,0.11408 -0.08081,0.12069 1.304637,1.54498 1.352592,1.3905 1.739703,1.86655 1.553289,1.91017 -0.03802,0.008 -0.04849,0.0366 -0.02324,0.0617 0.02524,0.025 0.04589,0.11161 0.04589,0.19244 2e-6,0.12916 -0.195371,0.33972 -1.613999,1.73944 l -1.614008,1.59249 0.319233,0.3662 c 0.334287,0.38346 0.438159,0.64835 0.357622,0.912 -0.04869,0.1594 -0.319925,0.35831 -0.345007,0.25302 -0.0084,-0.0351 -0.07607,-0.0314 -0.150466,0.008 -0.131569,0.0702 -0.133828,0.0685 -0.08282,-0.0601 0.05638,-0.14218 0.06292,-0.14601 -0.321338,0.18813 -0.285695,0.24842 -0.319872,0.32777 -0.194696,0.45183 0.146209,0.14492 0.126062,0.29832 -0.06369,0.48496 -0.27195,0.26745 -0.431626,0.33458 -0.504103,0.21187 -0.04323,-0.0731 -0.08906,-0.0838 -0.141591,-0.0326 -0.06738,0.0653 -0.07437,0.0604 -0.05302,-0.0381 0.01718,-0.0792 -0.07778,-0.0126 -0.312952,0.21948 -0.319102,0.31489 -0.331913,0.33893 -0.233765,0.43755 0.168833,0.16978 0.156017,0.27098 -0.06546,0.51446 -0.185556,0.204 -0.241738,0.22905 -0.48875,0.21797 -0.172009,-0.007 -0.267008,-0.0411 -0.247592,-0.0871 0.01733,-0.041 -0.108971,0.0614 -0.280659,0.22756 l -0.312162,0.30212 0.134112,0.19433 c 0.07376,0.10687 0.116773,0.22666 0.09558,0.26618 -0.02119,0.0396 -0.861632,0.91148 -1.86764,1.93765 -1.006008,1.02618 -1.82505,1.89319 -1.820089,1.92668 0.005,0.0335 -0.03436,0.17795 -0.08737,0.32101 -0.211072,0.56963 -0.149234,1.53518 0.120398,1.87987 0.06724,0.086 0.155293,0.25423 0.195669,0.37393 0.08499,0.25196 0.359965,0.55011 0.436964,0.47379 0.08395,-0.0832 0.3192,0.28954 0.319199,0.50575 4e-6,0.10512 0.05228,0.24296 0.116173,0.30629 0.06389,0.0633 0.120382,0.12133 0.125517,0.12891 0.0051,0.007 0.06996,0.10884 0.144046,0.22504 0.07847,0.12307 0.141319,0.18348 0.150553,0.14471 0.0087,-0.0366 -0.0352,-0.11714 -0.09758,-0.17898 -0.06239,-0.0619 -0.09008,-0.13557 -0.06154,-0.16385 0.03113,-0.0308 0.08251,10e-4 0.128423,0.08 0.0421,0.0723 0.112843,0.16796 0.157221,0.21264 0.04436,0.0447 0.05156,0.11009 0.01596,0.14538 -0.0356,0.0352 -0.04262,0.11477 -0.01559,0.17664 0.07286,0.16675 0.812972,0.86555 0.965064,0.91119 0.07229,0.0217 0.173152,0.0808 0.224121,0.1313 0.05097,0.0505 0.159978,0.0919 0.242239,0.0919 0.10407,0 0.178124,0.0477 0.243441,0.15677 0.05163,0.0863 0.135427,0.20491 0.186214,0.26373 0.05078,0.0588 0.0698,0.11222 0.04226,0.11866 -0.02754,0.006 -0.08029,0.0785 -0.117349,0.16004 -0.037,0.0815 -0.522488,0.62825 -1.078865,1.21483 -0.556379,0.58657 -1.017787,1.09249 -1.02535,1.12426 -0.0075,0.0318 -0.317409,0.35834 -0.688543,0.72573 -0.371077,0.36744 -0.658665,0.68396 -0.63894,0.70351 0.01972,0.0196 -0.101819,0.15358 -0.270087,0.29785 -0.219406,0.18812 -0.281892,0.26795 -0.220949,0.28221 0.05297,0.0124 0.0479,0.0566 -0.01344,0.11743 -0.06014,0.0596 -0.106066,0.0654 -0.118072,0.015 -0.01274,-0.0534 -0.04126,-0.0431 -0.08106,0.0294 -0.03378,0.0616 -0.373941,0.43422 -0.75592,0.82819 -0.381972,0.39399 -0.678835,0.73188 -0.659687,0.75091 0.01914,0.019 0.105907,-0.0297 0.192799,-0.10821 l 0.157979,-0.14279 -0.115629,0.1545 c -0.0636,0.085 -0.262802,0.23057 -0.44269,0.32354 -0.224824,0.1162 -0.330137,0.20124 -0.336904,0.27206 -0.01159,0.12135 -0.305977,0.33715 -0.328862,0.24106 -0.0086,-0.0362 -0.04955,0.009 -0.09096,0.1004 -0.04141,0.0914 -0.08209,0.13765 -0.0904,0.10281 -0.02242,-0.0942 -0.355818,0.0462 -0.588053,0.24748 -0.241562,0.20943 -0.452384,0.32515 -0.502277,0.2757 -0.01979,-0.0196 -0.146918,0.0236 -0.282506,0.096 -0.178792,0.0956 -0.258331,0.1054 -0.289499,0.036 -0.03237,-0.0721 -0.05856,-0.0658 -0.106213,0.0254 -0.03478,0.0665 -0.08272,0.10165 -0.10652,0.0781 -0.0238,-0.0236 -0.174998,0.0155 -0.335979,0.0868 -0.332889,0.14758 -0.64267,0.50459 -0.64267,0.74067 0,0.0779 -0.04417,0.16113 -0.09813,0.18496 -0.05397,0.0238 -0.06964,0.05 -0.0348,0.0582 0.06246,0.0146 -0.02821,0.36297 -0.107315,0.4123 -0.02241,0.014 0.0023,0.0444 0.05494,0.0677 0.06024,0.0266 0.06802,0.0697 0.021,0.11625 -0.04107,0.0407 -0.04886,0.10028 -0.0173,0.1323 0.03824,0.0388 0.01912,0.0501 -0.05736,0.0339 -0.102,-0.0217 -0.107693,-0.0161 -0.05126,0.0508 0.03492,0.0414 0.0956,0.0993 0.13485,0.1289 0.03925,0.0296 0.03526,0.0621 -0.0088,0.0724 -0.04903,0.0115 -0.03291,0.0657 0.04144,0.13935 0.08105,0.0803 0.0923,0.12745 0.03369,0.14116 -0.05829,0.0137 -0.05355,0.0358 0.01405,0.0657 0.07876,0.0347 0.06804,0.0924 -0.04708,0.25288 -0.20655,0.28797 -0.127796,0.41212 0.250967,0.39566 l 0.309614,-0.0135 0.252981,0.44144 0.252981,0.44144 -0.17348,0.16241 c -0.149707,0.14017 -0.159993,0.18017 -0.07504,0.29202 0.06915,0.091 0.164341,0.12224 0.320021,0.10481 l 0.221591,-0.0247 0.257929,0.4277 0.257931,0.4277 -0.224669,0.20911 c -0.206106,0.19182 -0.215624,0.21806 -0.115075,0.31773 0.102987,0.10207 0.457188,0.13976 0.540202,0.0575 0.05853,-0.058 0.224316,0.14359 0.413965,0.50341 l 0.172829,0.3279 -0.224647,0.21783 c -0.202916,0.19676 -0.213742,0.22601 -0.111904,0.30257 0.10613,0.0798 0.359615,0.10029 0.557816,0.0451 0.06742,-0.0187 0.148833,0.0808 0.342724,0.41916 l 0.254301,0.44375 -0.245601,0.21595 c -0.204523,0.17985 -0.225928,0.21777 -0.127949,0.22679 0.08071,0.007 0.111811,0.0354 0.09905,0.089 -0.03126,0.13122 0.03683,0.1471 0.297933,0.0694 0.137626,-0.0409 0.276098,-0.0487 0.30772,-0.0174 0.03162,0.0314 0.150075,0.23076 0.263234,0.44318 l 0.205744,0.38618 -0.231901,0.20967 c -0.221262,0.20004 -0.226264,0.21534 -0.109019,0.33364 0.107494,0.10846 0.392802,0.17935 0.399814,0.0993 0.0014,-0.016 0.05665,-0.0442 0.12277,-0.0627 0.111137,-0.0311 0.139065,-9.8e-4 0.3694,0.3973 l 0.249171,0.43095 -0.178763,0.18509 c -0.279144,0.28904 -0.286217,0.30796 -0.156097,0.41721 0.08302,0.0697 0.207984,0.0791 0.387446,0.0293 l 0.264909,-0.0737 0.250452,0.44148 0.250453,0.44147 -0.196138,0.1408 c -0.119661,0.0859 -0.188358,0.17346 -0.176185,0.22457 0.01098,0.0461 -0.01154,0.0911 -0.05004,0.10018 -0.08887,0.0208 -0.07456,0.0337 0.163616,0.14774 0.107537,0.0515 0.206665,0.0772 0.220282,0.0571 0.01361,-0.0201 0.07737,-0.0568 0.141662,-0.0818 0.143479,-0.0557 0.25907,0.0603 0.482167,0.48366 l 0.171775,0.32595 -0.258903,0.2601 c -0.238984,0.24 -0.249553,0.26552 -0.1373,0.33073 0.06689,0.0388 0.169395,0.0737 0.227783,0.0773 0.359703,0.0228 0.361615,0.0239 0.522608,0.29083 0.08677,0.14391 0.151525,0.28792 0.14388,0.32002 -0.0076,0.0321 0.03883,0.0889 0.103284,0.12635 0.0655,0.038 0.09429,0.0907 0.0653,0.11942 -0.02854,0.0283 -0.0046,0.0978 0.05338,0.15435 0.08512,0.0832 0.100545,0.0811 0.08061,-0.0108 -0.01488,-0.0686 -0.0023,-0.0922 0.03151,-0.0594 0.10492,0.10134 -0.0036,0.40029 -0.224975,0.61969 -0.264793,0.26245 -0.266241,0.44345 -0.0016,0.19608 0.383722,-0.35863 0.548154,-0.45482 0.776911,-0.45446 0.201032,2.5e-4 0.231325,0.017 0.213912,0.11844 -0.01706,0.0993 -0.01152,0.10113 0.03488,0.0116 0.03619,-0.0699 0.07954,-0.0824 0.126147,-0.0362 0.03904,0.0387 0.07807,0.0406 0.08672,0.004 0.02711,-0.11382 0.245173,0.0604 0.233355,0.18649 -0.0062,0.0659 -0.03745,0.11976 -0.0695,0.11976 -0.03204,10e-6 -0.04865,0.0614 -0.0369,0.13648 0.01576,0.10061 -0.07215,0.24599 -0.334292,0.55287 -0.368459,0.43136 -1.28445,1.3607 -1.393724,1.41404 z m -0.469729,-23.66727 1.188642,-1.29767 0.1499,-0.45801 c 0.166937,-0.51007 0.132682,-1.07001 -0.09059,-1.48062 -0.235135,-0.43244 -1.482639,-2.12002 -1.796354,-2.43003 -0.570482,-0.56377 -1.292504,-0.681 -2.166225,-0.35172 l -0.471342,0.17763 -1.691929,1.82341 c -0.930561,1.00288 -1.7391,1.86993 -1.796756,1.92677 -0.05764,0.0568 -0.08682,0.12121 -0.0648,0.14304 0.02201,0.0218 0.08729,-0.0275 0.14507,-0.10953 l 0.105057,-0.1492 0.01431,0.29698 c 0.01969,0.40851 0.07422,0.59962 0.30845,1.08096 0.18724,0.38479 0.230038,0.43486 0.590268,0.6907 0.825226,0.58606 1.749506,0.86532 2.808922,0.84868 0.337385,-0.005 0.503968,0.0277 0.594836,0.11773 0.189014,0.18735 0.164156,0.40573 -0.06601,0.5799 -0.178451,0.13503 -0.184879,0.15884 -0.08962,0.33222 0.08493,0.15459 0.07839,0.21586 -0.03793,0.35557 -0.18227,0.21895 -0.562598,0.28845 -1.41937,0.25943 -1.119625,-0.0379 -1.924836,-0.39113 -2.985337,-1.30945 -0.670157,-0.58031 -0.789362,-0.62648 -1.36512,-0.52867 -0.303654,0.0516 -0.327855,0.0671 -0.362653,0.2327 -0.07518,0.35772 0.144285,0.85209 0.790178,1.78002 0.761463,1.09397 1.105922,1.44638 1.581893,1.61839 0.839203,0.30327 1.596919,0.16757 2.525738,-0.45234 0.318706,-0.21272 1.839886,-1.77451 3.600749,-3.69689 z"
       id="path987" />       
  </g>
</svg>
