<?xml version="1.0" encoding="UTF-8" standalone="no"?>
<!-- Created with Inkscape (http://www.inkscape.org/) -->

<svg
   xmlns:dc="http://purl.org/dc/elements/1.1/"
   xmlns:cc="http://creativecommons.org/ns#"
   xmlns:rdf="http://www.w3.org/1999/02/22-rdf-syntax-ns#"
   xmlns:svg="http://www.w3.org/2000/svg"
   xmlns="http://www.w3.org/2000/svg"
   xmlns:sodipodi="http://sodipodi.sourceforge.net/DTD/sodipodi-0.dtd"   
   width="220"
   height="235"
   viewBox="0 0 58.208332 62.177085"
   version="1.1"
   id="svg8"   
   sodipodi:docname="xp18.svg">
  <defs
     id="defs2" />
  <sodipodi:namedview
     id="base"
     pagecolor="#000000"
     bordercolor="#666666"
     borderopacity="1.0"     
     showgrid="false"
     units="px"
     showguides="false" />
  <metadata
     id="metadata5">
    <rdf:RDF>
      <cc:Work
         rdf:about="">
        <dc:format>image/svg+xml</dc:format>
        <dc:type
           rdf:resource="http://purl.org/dc/dcmitype/StillImage" />
        <dc:title></dc:title>
      </cc:Work>
    </rdf:RDF>
  </metadata>
  <g
     id="layer1"
     transform="translate(0,-234.8229)">
    <path
       style="fill:none;stroke:#fffffd;stroke-width:0.4;stroke-opacity:1;stroke-miterlimit:4;stroke-dasharray:none"
       d="m 36.345905,289.85438 -0.318435,0.30761 -0.171385,0.0411 c -0.336848,0.0808 -0.784446,0.24603 -0.904419,0.33387 -0.114205,0.0836 -1.153867,1.06903 -2.354678,2.23184 -0.340192,0.32944 -0.965483,0.93502 -1.389534,1.34574 -0.716373,0.69387 -0.923327,0.91141 -0.894226,0.93999 0.0064,0.006 0.138519,-0.0531 0.293652,-0.13188 0.25124,-0.1276 0.362535,-0.17562 0.65356,-0.28198 0.04418,-0.0162 0.08033,-0.023 0.08033,-0.0153 0,0.007 -0.111166,0.0586 -0.247037,0.11292 -0.258783,0.10357 -0.718986,0.32376 -1.041511,0.49828 -0.107847,0.0584 -0.219579,0.10179 -0.258416,0.10043 -0.08953,-0.003 -0.199912,-0.11275 -0.26044,-0.25852 -0.07562,-0.18222 -0.286325,-0.65395 -0.367282,-0.8223 -0.04168,-0.0867 -0.09184,-0.19742 -0.111461,-0.24609 -0.03475,-0.0861 -0.03759,-0.0883 -0.108086,-0.081 -0.06807,0.007 -0.178754,0.0727 -0.30139,0.17881 -0.02951,0.0255 -0.105584,0.0702 -0.169062,0.0992 -0.193704,0.0886 -1.515769,0.45702 -1.643401,0.458 -0.06088,4.4e-4 -0.09073,-0.0239 -0.397964,-0.32569 -0.428386,-0.42071 -0.683509,-0.75682 -1.316634,-1.73463 -0.06315,-0.0975 -0.121129,-0.19706 -0.128862,-0.22122 -0.0077,-0.0241 -0.03903,-0.079 -0.06956,-0.12181 -0.05672,-0.0796 -0.419339,-0.74691 -0.463661,-0.85327 -0.04238,-0.10168 -0.316695,-0.67688 -0.328345,-0.68849 -0.0061,-0.006 -0.06931,-0.15037 -0.140459,-0.32062 -0.119971,-0.28711 -0.244866,-0.56345 -0.458306,-1.01402 -0.04715,-0.0996 -0.09385,-0.20285 -0.103776,-0.22958 -0.0099,-0.0268 -0.04716,-0.10953 -0.08272,-0.18397 -0.03557,-0.0744 -0.09992,-0.21261 -0.143001,-0.30703 -0.04308,-0.0944 -0.106327,-0.22621 -0.14055,-0.29284 -0.06071,-0.11821 -0.153817,-0.32868 -0.209577,-0.4738 -0.03548,-0.0923 -0.129226,-0.27993 -0.150478,-0.30111 -0.0089,-0.009 -0.03402,-0.0621 -0.05568,-0.11817 -0.02166,-0.056 -0.05639,-0.13742 -0.07718,-0.1808 -0.02079,-0.0433 -0.05508,-0.1216 -0.07621,-0.17381 -0.02113,-0.0523 -0.06243,-0.13842 -0.09179,-0.19158 -0.02937,-0.0532 -0.145627,-0.30575 -0.25836,-0.56132 -0.112732,-0.25559 -0.221484,-0.49186 -0.241672,-0.52506 -0.04759,-0.0783 -0.257072,-0.55907 -0.410075,-0.94117 -0.06618,-0.16525 -0.128534,-0.30866 -0.138579,-0.31867 -0.06824,-0.068 -0.562402,-1.44597 -0.771229,-2.15054 -0.07543,-0.2545 -0.166482,-0.5555 -0.20233,-0.66889 -0.03585,-0.11338 -0.07552,-0.26116 -0.08817,-0.3284 -0.01264,-0.0673 -0.03603,-0.16169 -0.05198,-0.20991 -0.02861,-0.0866 -0.08157,-0.31874 -0.144087,-0.63172 -0.01764,-0.0884 -0.03878,-0.16725 -0.04697,-0.17542 -0.0082,-0.008 -0.01841,-0.0537 -0.0227,-0.10127 -0.0043,-0.0475 -0.02081,-0.12585 -0.03669,-0.17412 -0.01588,-0.0483 -0.02976,-0.10937 -0.03083,-0.13577 -0.0011,-0.0265 -0.02835,-0.17906 -0.06062,-0.33922 -0.13443,-0.66719 -0.185735,-1.02226 -0.185162,-1.28148 8.05e-4,-0.37478 -0.142403,-0.95005 -0.347323,-1.39498 -0.149777,-0.32519 -0.342389,-0.57024 -0.758733,-0.96526 -0.34726,-0.32948 -0.476291,-0.42476 -0.814851,-0.60169 -0.764675,-0.3996 -1.774594,-0.46633 -2.531313,-0.16727 -0.420529,0.1662 -0.691679,0.37685 -1.851914,1.43873 -1.556396,1.42444 -1.986346,1.77653 -2.202652,1.80379 -0.125849,0.0159 -0.332776,-0.1054 -0.367362,-0.21526 -0.07124,-0.22631 0.03224,-0.53986 0.435261,-1.31884 0.181979,-0.35174 0.270475,-0.51224 0.462129,-0.83815 0.192547,-0.32741 0.242086,-0.73724 0.139326,-1.15263 -0.03798,-0.15353 -0.200228,-0.49531 -0.305135,-0.64279 -0.135862,-0.19098 -0.211832,-0.42257 -0.181911,-0.55454 0.0269,-0.11864 0.01021,-0.14577 -0.09737,-0.15859 -0.09633,-0.0114 -0.165902,-0.0808 -0.187531,-0.18695 -0.01074,-0.0527 -0.04516,-0.11127 -0.09411,-0.16021 -0.04816,-0.0482 -0.07558,-0.0943 -0.07292,-0.12288 0.0023,-0.0252 -0.02128,-0.0711 -0.05252,-0.10231 -0.04351,-0.0433 -0.07023,-0.0516 -0.114367,-0.0352 -0.06526,0.0244 -0.05515,0.0341 -0.634912,-0.61187 -0.1561807,-0.17401 -0.4455287,-0.49251 -0.6429937,-0.70779 -0.5250327,-0.5724 -0.6607454,-0.7235 -0.9745334,-1.08508 -0.3364192,-0.38767 -0.3217354,-0.34462 -0.3178302,-0.93194 l 0.00263,-0.39393 0.2058538,-0.20628 0.2058534,-0.20628 -0.02805,-0.11252 c -0.01543,-0.0619 -0.112081,-0.36596 -0.2147784,-0.67571 -0.1027027,-0.30975 -0.1884237,-0.58946 -0.1905015,-0.62157 -0.00326,-0.0496 0.013473,-0.0727 0.1120698,-0.15431 0.1612501,-0.13351 0.3343661,-0.19019 0.6129331,-0.20067 0.2719577,-0.0105 0.5537887,-0.0956 0.7630774,-0.23102 0.09056,-0.0587 0.255062,-0.20805 0.5269287,-0.47869 l 0.395264,-0.39347 0.103565,0.006 c 0.05696,0.004 0.220554,0.0349 0.363541,0.0695 0.142987,0.0345 0.27377,0.0566 0.29063,0.0491 0.01686,-0.007 1.869816,-1.8628 4.11768,-4.12293 4.473783,-4.49818 5.321657,-5.3385 5.452887,-5.40434 0.06666,-0.0335 0.113249,-0.0339 0.227655,-0.002 0.111427,0.031 0.147076,0.031 0.158184,1.8e-4 0.01539,-0.0426 4.399249,-4.47575 4.641717,-4.6939 0.0823,-0.0741 0.165792,-0.13248 0.192849,-0.13499 0.07136,-0.006 0.04947,-0.0631 -0.07137,-0.18415 l -0.101461,-0.10168 2.114489,-2.12993 c 1.16297,-1.17146 3.737588,-3.75646 5.721372,-5.74444 1.983785,-1.98797 3.619539,-3.63344 3.635012,-3.65659 0.02553,-0.0382 0.01402,-0.0582 -0.124477,-0.21674 -0.258879,-0.29625 -0.266315,-0.33997 -0.08818,-0.51846 0.122012,-0.12225 0.172404,-0.13732 0.259855,-0.0777 0.03835,0.0261 0.09179,0.0409 0.118753,0.0327 0.03176,-0.009 0.290465,-0.25855 0.734432,-0.70679 l 0.685405,-0.69198 -0.04176,-0.1249 -0.04176,-0.12488 0.174031,-0.18294 c 0.223394,-0.23482 0.302153,-0.27228 0.410191,-0.19512 0.04136,0.0295 0.136933,0.11509 0.212399,0.19012 0.128039,0.12727 0.142068,0.13558 0.209866,0.12382 0.03996,-0.007 0.12914,-0.0192 0.198172,-0.0273 0.168155,-0.0196 1.265762,-0.0238 1.328396,-0.005 0.02725,0.008 0.112181,0.0646 0.188737,0.12559 0.07656,0.061 0.155359,0.11077 0.175119,0.11077 0.01976,0 0.07567,-0.0384 0.124254,-0.0852 0.126295,-0.12191 0.127821,-0.12264 0.204481,-0.0981 0.259702,0.0829 1.27102,1.03328 2.093726,1.96746 0.428692,0.48678 0.483429,0.60044 0.352168,0.73129 l -0.07198,0.0718 0.131464,0.18862 c 0.184133,0.26419 0.318279,0.37754 0.469046,0.39634 0.228663,0.0285 0.275224,0.0615 0.624762,0.443 l 0.313539,0.34219 0.03882,0.16605 0.03882,0.16606 0.640933,0.65989 c 0.577899,0.59499 0.649285,0.67492 0.725844,0.81273 0.0467,0.084 0.116292,0.19453 0.154647,0.24547 0.08052,0.10698 0.204006,0.5176 0.184179,0.6125 -0.0071,0.0336 -0.05665,0.13488 -0.110289,0.22512 -0.09436,0.15871 -0.150441,0.2168 -1.722844,1.78436 -1.531034,1.52633 -1.627881,1.6195 -1.669638,1.60622 -0.02438,-0.007 -0.07981,-0.0386 -0.123181,-0.0686 -0.04337,-0.03 -0.0931,-0.0514 -0.110515,-0.0475 -0.01741,0.004 -0.163517,0.13824 -0.324679,0.29863 -0.327246,0.32561 -0.343799,0.35516 -0.275542,0.49024 0.02142,0.0424 0.03485,0.11141 0.02982,0.15333 -0.0091,0.0755 -0.02947,0.0966 -1.965208,2.02657 -1.230543,1.22689 -2.005464,2.01228 -2.089228,2.11732 -0.07323,0.0918 -0.19023,0.25996 -0.259991,0.37358 -0.124474,0.20274 -0.144453,0.22445 -1.070919,1.16374 -0.98206,0.99566 -1.451122,1.50012 -1.558809,1.67646 -0.121305,0.19864 -0.173618,0.39592 -0.181568,0.68472 -0.0065,0.23563 0.004,0.31077 0.07002,0.50339 0.08922,0.26018 0.174481,0.41223 0.340766,0.60774 0.06469,0.0761 0.139618,0.17631 0.166502,0.22278 0.03925,0.0679 1.152172,1.22361 1.308975,1.35936 0.01967,0.017 0.05696,0.0548 0.08286,0.084 0.02591,0.0292 0.06647,0.0711 0.09013,0.0933 0.02367,0.0222 0.06501,0.0634 0.09187,0.0916 0.02686,0.0281 0.06807,0.0695 0.09156,0.0919 0.02347,0.0224 0.06093,0.06 0.0832,0.0835 0.04142,0.044 0.08779,0.0882 0.15806,0.15048 0.02187,0.0194 0.05744,0.0551 0.07903,0.0794 0.102776,0.11533 0.216388,0.19059 0.319242,0.21146 0.06003,0.0122 0.132515,0.0361 0.161075,0.0531 0.02856,0.0171 0.160946,0.0355 0.294195,0.0408 0.337454,0.0138 0.539061,0.0459 0.615393,0.0979 0.132173,0.0901 0.23594,0.3042 0.293342,0.60515 0.07651,0.40115 -0.0027,0.63273 -0.337463,0.98631 -0.140086,0.14796 -1.981545,1.94103 -2.382896,2.32027 -0.04717,0.0446 -0.978355,0.95212 -2.06931,2.01679 -1.090956,1.06465 -2.03948,1.97893 -2.10783,2.03172 -0.06836,0.0528 -0.23855,0.15423 -0.378221,0.22542 -0.226892,0.11566 -0.281886,0.13276 -0.516183,0.16052 -0.44862,0.0532 -0.751345,0.14731 -1.09583,0.34083 -0.204456,0.11484 -0.229502,0.13583 -0.580873,0.48663 -0.336779,0.33625 -0.375643,0.38165 -0.469042,0.54817 -0.285741,0.50942 -0.459918,1.05444 -0.496707,1.55423 -0.04978,0.67616 0.161781,1.44195 0.564581,2.04368 0.149591,0.22347 0.24846,0.41316 0.553996,1.06294 0.105554,0.22448 0.244258,0.50584 0.308232,0.62523 0.125342,0.23393 0.319373,0.63847 0.432258,0.90123 0.03857,0.0897 0.132487,0.28838 0.208712,0.44135 0.07622,0.15298 0.215621,0.44862 0.30977,0.65699 0.09416,0.20837 0.21046,0.45211 0.258468,0.54163 0.04801,0.0895 0.106188,0.20386 0.12929,0.2541 0.02311,0.0503 0.08816,0.18771 0.144563,0.30549 0.05641,0.11778 0.13582,0.28589 0.176476,0.37357 0.04065,0.0877 0.150042,0.31585 0.243081,0.50701 0.259796,0.53379 0.66705,1.3911 0.789108,1.66115 0.09257,0.2048 0.257941,0.54939 0.502691,1.04749 0.141968,0.28892 0.338734,0.69971 0.437257,0.91289 0.336368,0.72778 0.45433,0.97918 0.601539,1.28198 0.08098,0.16656 0.201326,0.42124 0.267452,0.56597 0.06612,0.14472 0.146307,0.31956 0.178181,0.38853 0.03187,0.069 0.07469,0.18364 0.09515,0.25483 0.02046,0.0711 0.10385,0.27281 0.185303,0.44804 0.17989,0.387 0.194622,0.48017 0.09704,0.61381 -0.135222,0.18519 -0.124786,0.19828 0.122347,0.1535 0.344395,-0.0624 0.294084,-0.0897 0.776749,0.42102 0.483754,0.51187 0.494369,0.53047 0.418566,0.73307 -0.113969,0.3046 -0.232376,0.43363 -1.690993,1.84267 z m 1.782812,-27.81089 c 0.154596,-0.23702 0.197433,-0.47382 0.123585,-0.68317 -0.05083,-0.1441 -0.08139,-0.17823 -1.153927,-1.28877 -0.279393,-0.28929 -0.5767,-0.59986 -0.660676,-0.69016 -0.17992,-0.19346 -0.270379,-0.26103 -0.677943,-0.50643 -0.460593,-0.27733 -1.040153,-0.32266 -1.627016,-0.12727 -0.488858,0.16276 -0.522026,0.19046 -2.036293,1.70101 -1.480512,1.47684 -2.204405,2.22837 -2.229848,2.31488 -0.02541,0.0864 0.167779,0.6143 0.379431,1.03684 0.153909,0.30727 0.206961,0.39145 0.364516,0.57838 0.101419,0.12033 0.202103,0.25064 0.223749,0.28958 0.02164,0.0389 0.09983,0.14093 0.173752,0.22666 l 0.134393,0.15585 0.460289,0.23674 c 0.253159,0.13021 0.57957,0.29767 0.725358,0.37213 0.612907,0.31307 0.697403,0.36032 0.765017,0.42784 0.07487,0.0746 0.123907,0.21734 0.107289,0.31165 -0.0052,0.0293 0.0051,0.0975 0.02265,0.15158 0.03504,0.10769 0.01093,0.22071 -0.06275,0.29417 -0.04402,0.0439 -0.237455,0.0999 -0.427133,0.12361 -0.207473,0.026 -0.825331,0.0113 -1.07434,-0.0255 -0.294732,-0.0435 -0.848589,-0.17455 -1.127397,-0.26658 -0.201942,-0.0666 -0.660935,-0.25769 -0.748213,-0.31141 -0.03408,-0.021 -0.139505,-0.0582 -0.234285,-0.0828 -0.420152,-0.10894 -0.400198,-0.10095 -0.437405,-0.17595 -0.01899,-0.0383 -0.04097,-0.1056 -0.04885,-0.14958 -0.0172,-0.0959 -0.07913,-0.16353 -0.149856,-0.16353 -0.140959,0 -0.09291,0.14115 0.501329,1.47267 0.06223,0.13945 0.156004,0.36069 0.20838,0.49165 0.181075,0.45274 0.280672,0.5089 0.798856,0.45044 1.283305,-0.14477 1.525079,-0.19616 1.807222,-0.38417 0.100629,-0.0671 0.624992,-0.57536 2.295248,-2.22494 2.082663,-2.05688 3.457644,-3.39829 3.485155,-3.40004 0.0186,-10e-4 0.02235,-0.006 0.119708,-0.15533 z"
       id="path1104"       
       sodipodi:nodetypes="cccccsccccccccccsccccccccscccccccsccccsccssccccsccscssccsscccccccccccsccssscccsscssssccccscccccccsscscccsccccccccccccccscccscccscccsscccccccccscccsccscscccccccccccscccccccssccsscccscsccsscccccscccscccccccccccccccccsccscccccccccsss" />
  </g>
</svg>
