<?xml version="1.0" encoding="UTF-8" standalone="no"?>
<!-- Created with Inkscape (http://www.inkscape.org/) -->

<svg
   xmlns:dc="http://purl.org/dc/elements/1.1/"
   xmlns:cc="http://creativecommons.org/ns#"
   xmlns:rdf="http://www.w3.org/1999/02/22-rdf-syntax-ns#"
   xmlns:svg="http://www.w3.org/2000/svg"
   xmlns="http://www.w3.org/2000/svg"
   xmlns:sodipodi="http://sodipodi.sourceforge.net/DTD/sodipodi-0.dtd"
   xmlns:inkscape="http://www.inkscape.org/namespaces/inkscape"
   width="220"
   height="235"
   viewBox="0 0 58.208332 62.177085"
   version="1.1"
   id="svg8"
   inkscape:version="0.92.3 (2405546, 2018-03-11)"
   sodipodi:docname="gorka.svg">
  <defs
     id="defs2" />
  <sodipodi:namedview
     id="base"
     pagecolor="#000000"
     bordercolor="#666666"
     borderopacity="1.0"
     inkscape:pageopacity="0"
     inkscape:pageshadow="2"
     inkscape:zoom="3.959798"
     inkscape:cx="291.43435"
     inkscape:cy="116.17934"
     inkscape:document-units="px"
     inkscape:current-layer="layer1"
     showgrid="false"
     units="px"
     inkscape:window-width="3440"
     inkscape:window-height="1377"
     inkscape:window-x="-8"
     inkscape:window-y="-8"
     inkscape:window-maximized="1" />
  <metadata
     id="metadata5">
    <rdf:RDF>
      <cc:Work
         rdf:about="">
        <dc:format>image/svg+xml</dc:format>
        <dc:type
           rdf:resource="http://purl.org/dc/dcmitype/StillImage" />
        <dc:title></dc:title>
      </cc:Work>
    </rdf:RDF>
  </metadata>
  <g
     inkscape:label="Layer 1"
     inkscape:groupmode="layer"
     id="layer1"
     transform="translate(0,-234.8229)">
    <path
       style="fill:#000000;fill-opacity:1;stroke:#ffffff;stroke-width:0.4;stroke-opacity:1;stroke-miterlimit:4;stroke-dasharray:none"
       d="m 36.050852,295.51486 c -0.06697,-0.0197 -0.203961,-0.0537 -0.30442,-0.0754 -0.860489,-0.18632 -1.542391,-0.79189 -1.542391,-1.36974 0,-0.38345 -0.304246,-0.82949 -0.565798,-0.82949 -0.205724,0 -0.843345,-0.431 -0.953898,-0.64479 -0.03975,-0.0769 -0.0612,-0.29776 -0.07024,-0.72329 -0.01155,-0.54346 -0.0048,-0.62172 0.0598,-0.69309 0.04127,-0.0456 0.0803,-0.16606 0.0901,-0.27806 0.0095,-0.10868 0.0463,-0.29806 0.08176,-0.42084 0.03546,-0.12278 0.0816,-0.33283 0.102527,-0.46678 0.02093,-0.13394 0.04953,-0.29833 0.06356,-0.3653 0.02516,-0.12012 0.02568,-0.17863 0.0054,-0.59869 -0.0068,-0.14104 0.01387,-0.2602 0.06117,-0.35241 0.07096,-0.1383 0.04839,-0.20322 -0.07128,-0.20507 -0.07394,-0.001 -0.386066,-0.38175 -0.386066,-0.47077 0,-0.26738 -0.04254,-0.333 -0.277748,-0.42847 -0.483616,-0.19628 -1.258753,-0.80764 -1.485271,-1.17144 -0.199111,-0.31978 -0.411594,-1.10248 -0.367982,-1.3555 0.01579,-0.0916 0.03598,-0.34925 0.04486,-0.57249 0.0089,-0.22324 0.02091,-0.48808 0.02675,-0.58854 0.0064,-0.10966 -0.02575,-0.28758 -0.08038,-0.44521 l -0.09099,-0.26256 0.163102,-0.34628 c 0.08971,-0.19045 0.180707,-0.37368 0.202224,-0.40716 0.02152,-0.0335 0.05576,-0.099 0.07609,-0.14559 0.03994,-0.0915 0.09874,-0.15291 0.733688,-0.76611 l 0.418665,-0.40433 -0.0092,-0.28568 c -0.0058,-0.17885 -0.03086,-0.30966 -0.0671,-0.34977 -0.03184,-0.0353 -0.05789,-0.083 -0.05789,-0.10615 0,-0.0231 -0.03628,-0.0882 -0.08063,-0.14457 -0.10121,-0.12867 -0.340327,-0.71425 -0.334036,-0.81803 0.0026,-0.0426 -0.01273,-0.11007 -0.03403,-0.14987 -0.06623,-0.12375 -0.24918,-1.05407 -0.278561,-1.41649 -0.01538,-0.18976 -0.04692,-0.38154 -0.07009,-0.42619 -0.02317,-0.0446 -0.08255,-0.24556 -0.131973,-0.44648 -0.117587,-0.47806 -0.203688,-0.79245 -0.244554,-0.89296 -0.04757,-0.117 -0.186607,-0.60307 -0.267042,-0.93356 -0.03803,-0.15627 -0.08354,-0.32065 -0.101129,-0.3653 -0.01759,-0.0446 -0.09969,-0.37342 -0.182441,-0.73061 -0.171814,-0.74158 -0.357091,-1.53353 -0.455799,-1.94828 -0.03719,-0.15627 -0.116853,-0.37545 -0.177025,-0.48707 -0.06017,-0.11162 -0.158749,-0.32167 -0.219058,-0.46678 -0.06031,-0.14511 -0.173637,-0.39168 -0.251839,-0.54795 -0.09588,-0.19159 -0.149321,-0.36345 -0.164092,-0.52766 -0.03245,-0.36078 -0.07268,-0.38445 -0.125306,-0.0737 -0.100705,0.59457 -0.165446,1.01763 -0.191416,1.25083 -0.01492,0.13394 -0.04119,0.2618 -0.05838,0.28412 -0.01719,0.0223 -0.04348,0.20951 -0.05842,0.41597 -0.02556,0.35323 -0.22323,1.26908 -0.306913,1.42204 -0.09266,0.16935 -0.163851,0.38356 -0.26384,0.79385 -0.129008,0.52937 -0.230956,0.76748 -0.489353,1.14294 -0.208531,0.303 -0.341157,0.6013 -0.425583,0.95721 -0.02869,0.12093 -0.06321,0.22901 -0.07671,0.24017 -0.06604,0.0546 -0.328968,0.84064 -0.328968,0.98347 0,0.0678 -0.01731,0.18937 -0.03847,0.27009 -0.169681,0.64733 -0.172595,0.6839 -0.06752,0.84707 0.120126,0.18655 0.175171,0.57116 0.101315,0.70792 -0.05439,0.1007 -0.143668,0.42756 -0.197534,0.72316 -0.01835,0.1007 -0.08995,0.30664 -0.159113,0.45765 -0.111955,0.24443 -0.125671,0.31562 -0.125045,0.64898 3.99e-4,0.20594 0.01853,0.54796 0.04031,0.76004 0.03946,0.3841 0.04028,0.3862 0.21239,0.54111 0.09503,0.0855 0.240386,0.2168 0.323016,0.29172 0.08263,0.0749 0.198456,0.23137 0.257395,0.34768 0.08952,0.17666 0.102548,0.24223 0.07915,0.39829 -0.01541,0.10276 -0.04524,0.21902 -0.06629,0.25836 -0.02439,0.0456 -0.02231,0.15957 0.0057,0.31424 0.033,0.18199 0.03178,0.28354 -0.0049,0.40591 -0.03874,0.12931 -0.03821,0.18317 0.0026,0.25934 0.03175,0.0593 0.04085,0.1485 0.02378,0.23287 -0.03122,0.15429 -0.142791,0.48111 -0.185231,0.54263 -0.08124,0.11775 -0.102301,0.3003 -0.137478,1.19151 -0.03099,0.78511 -0.05592,0.85357 -0.465597,1.27848 -0.147511,0.153 -0.263635,0.29455 -0.258054,0.31457 0.0056,0.02 -0.03095,0.0365 -0.08118,0.0367 -0.05023,0 -0.145564,0.036 -0.211855,0.0797 -0.07098,0.0468 -0.156763,0.0704 -0.208666,0.0573 -0.119718,-0.0301 -0.136853,0.0134 -0.09454,0.23992 0.01986,0.1063 0.04588,0.41311 0.05782,0.68181 0.01349,0.30338 0.05784,0.63812 0.117029,0.88316 0.05242,0.21703 0.08669,0.45331 0.07616,0.52506 -0.01178,0.0802 -0.0017,0.13045 0.02605,0.13045 0.02486,0 0.0452,0.0329 0.0452,0.0731 0,0.0402 0.01962,0.0927 0.04359,0.11665 0.03106,0.0311 0.03106,0.11137 0,0.27941 -0.02398,0.12969 -0.04359,0.40688 -0.04359,0.61596 0,0.37632 -0.0014,0.38157 -0.136016,0.52021 -0.07481,0.077 -0.153558,0.14005 -0.174998,0.14005 -0.02144,0 -0.07439,0.0328 -0.117668,0.0729 -0.142441,0.13204 -0.4179,0.21702 -0.610035,0.18821 l -0.176103,-0.0264 0.01916,0.46102 c 0.01054,0.25356 0.02958,0.51111 0.04232,0.57233 0.03511,0.16879 -0.303098,0.72077 -0.441626,0.72077 -0.03292,0 -0.08978,0.0457 -0.126344,0.10148 -0.03657,0.0558 -0.09063,0.10147 -0.120146,0.10147 -0.02951,0 -0.08672,0.0365 -0.127123,0.0812 -0.04041,0.0446 -0.106121,0.0812 -0.146033,0.0812 -0.03991,0 -0.132973,0.0352 -0.206802,0.0783 -0.07383,0.0431 -0.280357,0.10075 -0.45895,0.1282 -0.7726,0.11873 -1.305883,0.0809 -2.074683,-0.14704 -0.04719,-0.014 -0.153322,-0.13812 -0.235837,-0.27584 -0.138236,-0.23071 -0.147743,-0.26634 -0.120962,-0.45334 0.01599,-0.11162 0.03229,-0.28702 0.03624,-0.38978 0.0045,-0.11794 0.04836,-0.26013 0.118863,-0.3856 0.06143,-0.10932 0.129456,-0.30774 0.151165,-0.44093 0.06569,-0.40301 0.187538,-0.72063 0.340374,-0.88723 0.245283,-0.26738 0.602679,-0.69575 0.729523,-0.87441 0.06697,-0.0943 0.208528,-0.28856 0.314567,-0.43164 0.10604,-0.14307 0.192799,-0.28447 0.192799,-0.31421 0,-0.0297 0.05708,-0.21776 0.126837,-0.41784 0.116987,-0.33552 0.269626,-0.61237 0.42119,-0.76393 0.0546,-0.0546 0.05145,-0.0778 -0.02902,-0.21422 -0.06464,-0.10957 -0.09062,-0.21973 -0.09154,-0.38823 -7.8e-4,-0.14279 -0.01878,-0.23528 -0.04579,-0.23531 -0.05462,0 -0.341087,-0.27358 -0.341087,-0.32567 0,-0.0207 -0.05936,-0.0678 -0.131916,-0.10484 -0.291173,-0.14842 -0.6941,-0.55438 -0.905745,-0.91256 -0.02377,-0.0402 -0.169894,-0.2122 -0.324714,-0.38215 -0.294085,-0.32281 -0.502893,-0.66436 -0.504052,-0.82447 -3.68e-4,-0.0517 -0.02073,-0.13146 -0.04524,-0.17725 -0.05412,-0.10114 0.01442,-0.77994 0.115407,-1.14282 0.06063,-0.21787 0.08532,-0.25014 0.306104,-0.40007 0.202803,-0.13772 0.274869,-0.164 0.463302,-0.16892 l 0.223143,-0.006 0.0084,-0.33485 c 0.0089,-0.35491 0.0014,-0.33747 0.354076,-0.82194 0.06172,-0.0848 0.07507,-0.19151 0.0812,-0.64943 0.004,-0.30137 0.02568,-0.58901 0.04808,-0.6392 0.02845,-0.0637 0.02466,-0.16164 -0.01257,-0.32471 -0.03307,-0.14484 -0.05204,-0.48002 -0.04996,-0.8829 0.0024,-0.4685 -0.01362,-0.70597 -0.05756,-0.85237 -0.06996,-0.23312 -0.124034,-0.51967 -0.179986,-0.95385 -0.02158,-0.16743 -0.0596,-0.44141 -0.0845,-0.60884 -0.05935,-0.3991 -0.07856,-1.86919 -0.0305,-2.33388 0.04201,-0.40625 0.07846,-0.61423 0.170705,-0.97415 0.03433,-0.13394 0.07262,-0.39903 0.0851,-0.58909 0.0198,-0.30166 0.01234,-0.36095 -0.05875,-0.46677 -0.04479,-0.0667 -0.110443,-0.18079 -0.145894,-0.2536 -0.03545,-0.0728 -0.153605,-0.22198 -0.262562,-0.33152 -0.10896,-0.10953 -0.198107,-0.21891 -0.198107,-0.24308 0,-0.0242 -0.01703,-0.0439 -0.03785,-0.0439 -0.02082,0 -0.05035,-0.0411 -0.06561,-0.0913 -0.04505,-0.14821 -0.308372,-0.68793 -0.414703,-0.84999 -0.07008,-0.10681 -0.107973,-0.24084 -0.131978,-0.46678 -0.01852,-0.17432 -0.05367,-0.4697 -0.07812,-0.65639 -0.03205,-0.24478 -0.03218,-0.44285 -4.45e-4,-0.71031 0.125555,-1.05843 0.251951,-2.70464 0.245069,-3.19183 -0.003,-0.21208 0.006,-0.5747 0.02005,-0.80583 0.02974,-0.49007 -0.007,-0.43743 0.637732,-0.91422 0.161737,-0.11961 0.314356,-0.24272 0.339154,-0.27359 0.0248,-0.0309 0.09025,-0.21429 0.145452,-0.40762 l 0.100364,-0.3515 -0.210822,-0.21766 c -0.386229,-0.39874 -0.470456,-0.82437 -0.327854,-1.65675 0.06733,-0.393 0.199725,-1.00525 0.236989,-1.09591 0.05643,-0.1373 0.278255,-1.13247 0.301059,-1.35065 0.0135,-0.12917 0.04015,-0.2445 0.05922,-0.25628 0.01907,-0.0118 0.03468,-0.0772 0.03468,-0.14541 0,-0.13153 0.14092,-0.76957 0.200161,-0.90626 0.01935,-0.0446 0.05843,-0.14511 0.08685,-0.22324 0.10566,-0.2905 0.324471,-0.73949 0.423931,-0.86989 0.08398,-0.1101 0.09559,-0.15336 0.06369,-0.23728 -0.02146,-0.0564 -0.05841,-0.11461 -0.08211,-0.12926 -0.02389,-0.0148 -0.0432,-0.15667 -0.04334,-0.31851 -1.63e-4,-0.16687 -0.02392,-0.33724 -0.05552,-0.3978 -0.03301,-0.0633 -0.05634,-0.24307 -0.05792,-0.44648 -0.002,-0.25213 -0.0242,-0.38798 -0.08565,-0.52321 -0.04565,-0.10045 -0.0834,-0.2318 -0.08389,-0.29187 -0.0013,-0.15431 -0.07422,-0.18082 -0.125019,-0.0454 -0.02354,0.0627 -0.109016,0.17342 -0.189949,0.24598 -0.166767,0.1495 -0.308651,0.16765 -0.521372,0.0667 l -0.137405,-0.0652 -0.203812,0.17064 c -0.243964,0.20426 -0.275259,0.30128 -0.181379,0.56236 0.05821,0.16186 0.06266,0.222 0.02456,0.3313 -0.0256,0.0734 -0.04666,0.17191 -0.0468,0.21881 -1.22e-4,0.0469 -0.02437,0.13093 -0.05386,0.18674 -0.229748,0.43487 -0.418964,0.7727 -0.499521,0.89187 -0.08773,0.12977 -0.09353,0.17006 -0.07304,0.50736 0.03445,0.56732 0.08072,0.72602 0.245962,0.84359 0.135233,0.0962 0.426724,0.46713 0.534084,0.6796 0.1525,0.30181 0.118378,0.98655 -0.06985,1.40167 -0.142951,0.31527 -0.358303,0.64511 -0.55021,0.84271 -0.07873,0.0811 -0.139698,0.16177 -0.13548,0.17933 0.01626,0.0677 -0.09138,0.36994 -0.148687,0.41751 -0.05236,0.0435 -0.047,0.0657 0.04088,0.17019 0.05562,0.0661 0.101135,0.14567 0.101135,0.17681 0,0.0311 0.04588,0.16035 0.101957,0.28715 0.05608,0.1268 0.138693,0.41082 0.183594,0.63115 0.0449,0.22033 0.12112,0.48187 0.169377,0.58119 0.07405,0.15243 0.07993,0.19518 0.03769,0.27411 -0.03139,0.0587 -0.04554,0.21767 -0.03794,0.42653 0.01146,0.31524 0.0067,0.33679 -0.08884,0.4038 -0.119166,0.0836 -0.406596,0.10056 -0.37659,0.0223 0.01069,-0.0279 2.45e-4,-0.0507 -0.02319,-0.0507 -0.02345,0 -0.08916,-0.0776 -0.146021,-0.1725 -0.07593,-0.12669 -0.103492,-0.15031 -0.103774,-0.0889 -1.99e-4,0.046 -0.0272,0.11902 -0.05998,0.16236 -0.03278,0.0433 -0.06017,0.10808 -0.06088,0.14389 -0.0021,0.10695 -0.190733,0.2799 -0.305244,0.2799 -0.06308,0 -0.207376,-0.0786 -0.362042,-0.1971 -0.141438,-0.1084 -0.409522,-0.26823 -0.595743,-0.35515 -0.616784,-0.28793 -0.742538,-0.35998 -0.823894,-0.47206 -0.07755,-0.10685 -0.07836,-0.12611 -0.02134,-0.50737 0.0402,-0.26876 0.05241,-0.56612 0.03795,-0.92397 l -0.02133,-0.52766 -0.149437,-0.0369 c -0.110418,-0.0273 -0.156116,-0.0635 -0.17502,-0.13886 -0.01407,-0.0561 -0.06098,-0.14694 -0.104247,-0.20194 -0.04326,-0.055 -0.07866,-0.14037 -0.07866,-0.18971 0,-0.0493 -0.03518,-0.12154 -0.07818,-0.16045 -0.043,-0.0389 -0.158837,-0.19243 -0.257425,-0.34116 -0.161805,-0.24408 -0.237566,-0.42178 -0.556582,-1.30543 -0.05239,-0.1451 -0.10318,-0.36143 -0.112875,-0.48071 -0.01547,-0.19039 0.0024,-0.25759 0.145887,-0.54995 0.08993,-0.18319 0.175461,-0.38067 0.190062,-0.43885 0.0146,-0.0582 0.07067,-0.14722 0.124588,-0.19787 0.111201,-0.10447 0.123483,-0.20257 0.0417,-0.33307 -0.03408,-0.0544 -0.06486,-0.25823 -0.07792,-0.51608 -0.01187,-0.23441 -0.04526,-0.49012 -0.07418,-0.56825 -0.03372,-0.0911 -0.0531,-0.35093 -0.05399,-0.72391 -0.0013,-0.54741 0.0038,-0.58585 0.08552,-0.64943 0.0478,-0.0372 0.203228,-0.15736 0.345389,-0.2671 0.296435,-0.22882 0.562132,-0.54521 0.562132,-0.66939 0,-0.0467 -0.0149,-0.0849 -0.03312,-0.0849 -0.01821,0 -0.07301,-0.071 -0.121768,-0.15773 -0.165424,-0.29434 -0.113374,-0.67255 0.174755,-1.26981 0.05604,-0.11617 0.101896,-0.23832 0.101896,-0.27145 0,-0.0331 -0.05668,-0.18039 -0.125955,-0.32726 -0.211129,-0.44762 -0.371339,-0.79023 -0.41183,-0.88071 -0.02117,-0.0473 -0.03198,-0.33955 -0.02402,-0.64943 0.01393,-0.5422 0.01961,-0.57412 0.151043,-0.84754 0.07512,-0.15627 0.182126,-0.38459 0.237803,-0.50737 0.05568,-0.12278 0.169362,-0.36936 0.252632,-0.54795 0.154551,-0.33147 0.259753,-0.65615 0.387979,-1.19739 0.117639,-0.49655 0.138164,-0.52584 0.573429,-0.81828 0.267167,-0.17951 0.324936,-0.28198 0.538505,-0.95525 0.06892,-0.21728 0.174023,-0.43068 0.245991,-0.49947 0.01168,-0.0112 0.108082,-0.19381 0.214233,-0.40589 0.10615,-0.21208 0.275103,-0.5294 0.37545,-0.70515 0.100348,-0.17575 0.182642,-0.34927 0.182876,-0.3856 3.99e-4,-0.0631 0.170764,-0.22904 0.567824,-0.55299 0.100459,-0.082 0.219182,-0.17945 0.26383,-0.21663 0.04465,-0.0372 0.212476,-0.15683 0.37295,-0.26587 0.160474,-0.10904 0.368267,-0.26959 0.461761,-0.35677 0.09349,-0.0872 0.227041,-0.18769 0.296773,-0.22335 0.06973,-0.0357 0.191355,-0.11555 0.270276,-0.17754 0.169111,-0.13284 1.227911,-0.57177 1.627585,-0.67473 0.236249,-0.0609 0.27868,-0.0851 0.27868,-0.15939 0,-0.052 0.06858,-0.14771 0.168545,-0.23533 0.166301,-0.14578 0.167923,-0.14982 0.121768,-0.30387 -0.02602,-0.0869 -0.04678,-0.41847 -0.04678,-0.74747 0,-0.32524 -0.01794,-0.63854 -0.03988,-0.69622 -0.02881,-0.0758 -0.02196,-0.16941 0.0247,-0.3375 0.102845,-0.37049 0.174426,-0.74681 0.17604,-0.92547 0.0011,-0.1246 0.0265,-0.18693 0.103274,-0.25369 0.05598,-0.0487 0.127962,-0.0885 0.159961,-0.0885 0.032,0 0.06808,-0.016 0.08018,-0.0356 0.0121,-0.0196 0.127335,-0.0772 0.256079,-0.12796 0.128743,-0.0508 0.325405,-0.13288 0.437026,-0.18241 0.11162,-0.0495 0.285139,-0.10283 0.385598,-0.11847 0.100458,-0.0156 0.338489,-0.083 0.528956,-0.14969 0.303378,-0.10623 0.352848,-0.13731 0.399088,-0.25079 0.244901,-0.60097 0.306463,-0.68918 0.666807,-0.95538 0.478057,-0.35316 1.28449,-0.50688 1.865385,-0.35558 0.232406,0.0605 1.354036,0.61603 1.547115,0.76622 0.06399,0.0498 0.253046,0.21836 0.420123,0.37463 0.37731,0.3529 0.373206,0.35066 0.552224,0.30123 0.12939,-0.0357 0.180006,-0.0251 0.412221,0.087 0.145595,0.0702 0.264719,0.13958 0.264719,0.15414 0,0.0496 0.346542,0.41496 0.447404,0.47165 0.0553,0.0311 0.177915,0.0945 0.27247,0.14101 0.157259,0.0773 0.236749,0.19433 0.209745,0.30885 -0.0049,0.0209 0.0056,0.0715 0.02345,0.11246 0.01782,0.041 0.0131,0.22361 -0.01049,0.40589 -0.02359,0.18227 -0.04297,0.35881 -0.04307,0.39229 -5.99e-4,0.20647 -0.05842,0.75367 -0.08147,0.77088 -0.01519,0.0113 -0.04564,0.0737 -0.06767,0.13853 -0.03349,0.0986 -0.01921,0.16182 0.08711,0.3856 0.06995,0.14722 0.194109,0.4138 0.275915,0.59239 0.08181,0.17859 0.164455,0.35375 0.183665,0.38923 0.01975,0.0365 0.01918,0.0894 -0.0013,0.12177 -0.06644,0.10495 -0.03886,0.14532 0.135018,0.19761 1.02231,0.30749 1.444682,0.54695 1.900526,1.07751 0.05745,0.0669 0.217431,0.21022 0.355516,0.31857 0.138086,0.10835 0.489537,0.43616 0.781003,0.72847 0.407203,0.40839 0.525079,0.55007 0.508954,0.61173 -0.02542,0.0972 0.0415,0.44583 0.118228,0.61589 0.03068,0.068 0.07567,0.21412 0.09999,0.32472 0.02432,0.1106 0.07438,0.22392 0.111261,0.25182 0.03688,0.0279 0.05547,0.0507 0.04131,0.0507 -0.02546,0 0.124523,0.34395 0.370398,0.84942 0.06979,0.14348 0.1269,0.2901 0.1269,0.32582 0,0.0697 0.215747,0.32656 0.274354,0.32656 0.01946,0 0.186332,0.14753 0.37081,0.32785 l 0.335418,0.32784 -0.0098,0.67674 c -0.0087,0.60023 1.54e-4,0.70886 0.07918,0.96087 0.166612,0.53172 0.1336,0.39437 0.414573,1.72504 0.148541,0.70349 0.184204,1.17145 0.120639,1.58298 -0.09208,0.59614 -0.09837,0.82731 -0.02632,0.96665 0.04362,0.0844 0.09821,0.13019 0.157127,0.13195 0.284526,0.008 0.760006,0.27395 0.760006,0.42436 0,0.0336 0.02147,0.0955 0.04772,0.13753 0.04946,0.0792 -0.0066,0.69047 -0.100869,1.09958 -0.04283,0.18589 -0.05365,0.74173 -0.02728,1.40033 0.0084,0.20863 -0.0076,0.46073 -0.0372,0.58781 -0.0396,0.17002 -0.04127,0.27533 -0.0071,0.44648 0.06276,0.31422 0.08203,0.691 0.04086,0.79927 -0.01914,0.0503 -0.01995,0.10074 -0.0018,0.11196 0.01816,0.0112 0.06454,0.10776 0.103073,0.21453 0.03853,0.10677 0.08636,0.23066 0.106286,0.27531 0.01993,0.0446 0.05461,0.28798 0.07708,0.54074 l 0.04084,0.45957 -0.206129,0.49428 c -0.190399,0.45655 -0.309736,0.70768 -0.360253,0.75811 -0.01118,0.0112 -0.06426,0.11019 -0.117951,0.22006 -0.05369,0.10988 -0.129641,0.23773 -0.168781,0.28413 -0.03914,0.0464 -0.156181,0.18481 -0.260089,0.30759 -0.103908,0.12279 -0.234871,0.31439 -0.291027,0.42578 -0.123182,0.24436 -0.160301,0.27236 -0.323437,0.24402 -0.122538,-0.0213 -0.233886,0.0455 -0.212518,0.12757 0.005,0.0191 -0.0035,0.10778 -0.01879,0.19707 -0.01531,0.0893 -0.03683,0.4226 -0.04781,0.74067 -0.02055,0.59513 -0.04868,0.70329 -0.2015,0.77484 -0.277095,0.12973 -0.392688,0.17054 -0.425551,0.15023 -0.02043,-0.0126 -0.134381,0.0323 -0.253234,0.0998 -0.306937,0.17436 -0.881154,0.44657 -0.942031,0.44657 -0.0652,0 -0.227916,-0.1711 -0.227916,-0.23965 0,-0.0285 -0.04012,-0.0842 -0.08916,-0.12396 -0.06485,-0.0525 -0.08975,-0.11789 -0.09133,-0.23976 -0.0012,-0.0922 -0.0028,-0.16763 -0.0037,-0.1677 -8.28e-4,-8e-5 -0.08851,0.0821 -0.194854,0.18252 -0.106347,0.10046 -0.215265,0.18259 -0.242039,0.1825 -0.02678,-8e-5 -0.105859,-0.035 -0.175743,-0.0776 -0.09664,-0.0589 -0.131199,-0.11293 -0.144346,-0.22555 -0.0095,-0.0814 -0.0043,-0.15612 0.01164,-0.16595 0.01591,-0.01 0.04163,-0.11375 0.05716,-0.23093 0.01719,-0.12969 0.09808,-0.34642 0.206748,-0.55394 0.09818,-0.18749 0.178628,-0.38841 0.178766,-0.44648 1.22e-4,-0.0581 0.02472,-0.15247 0.05462,-0.20977 0.04435,-0.085 0.104079,-0.25786 0.125274,-0.36259 0.01308,-0.0647 0.205667,-0.36531 0.234,-0.36531 0.07184,0 -0.0766,-0.51245 -0.188662,-0.65132 -0.07685,-0.0952 -0.145554,-0.22252 -0.261869,-0.48518 -0.02472,-0.0558 -0.103236,-0.32065 -0.174492,-0.58854 -0.142967,-0.5375 -0.204841,-1.23797 -0.109351,-1.23797 0.02785,0 0.108957,-0.0594 0.180234,-0.13192 0.18644,-0.18978 0.473784,-0.43023 0.621456,-0.52003 0.114287,-0.0695 0.127383,-0.0975 0.127383,-0.27198 0,-0.10698 -0.02662,-0.23252 -0.05917,-0.27898 -0.127389,-0.18187 -0.549317,-0.99311 -0.549521,-1.05656 -8.2e-5,-0.026 -0.01385,-0.0534 -0.03059,-0.0609 -0.0669,-0.0297 -0.258241,-0.56051 -0.350595,-0.97254 -0.01315,-0.0587 -0.07435,-0.13899 -0.135999,-0.17852 -0.170639,-0.10942 -0.850448,-0.80874 -0.881606,-0.90691 -0.0151,-0.0476 -0.04253,-0.0865 -0.06096,-0.0865 -0.07101,0 -0.09807,0.16011 -0.109734,0.64943 -0.0067,0.27905 -0.01364,0.54389 -0.01552,0.58854 -0.0019,0.0446 0.01453,0.16337 0.03648,0.26383 0.03136,0.14354 0.02758,0.19637 -0.01764,0.24673 -0.124284,0.1384 -0.05318,0.43036 0.187415,0.76959 0.0402,0.0567 0.102766,0.22108 0.139026,0.36531 0.03626,0.14423 0.09201,0.34443 0.123892,0.44489 0.07611,0.23984 0.201902,0.66907 0.255743,0.87267 0.173359,0.65555 0.332574,1.29477 0.414509,1.66416 0.01981,0.0893 0.03681,0.26487 0.03778,0.39016 9.66e-4,0.1253 0.03812,0.37387 0.08254,0.55237 0.08662,0.34804 0.114451,0.81819 0.06486,1.09584 -0.02472,0.13841 -0.05915,0.18862 -0.17944,0.26169 -0.08187,0.0497 -0.157983,0.10157 -0.169145,0.11521 -0.01116,0.0136 -0.05835,0.0511 -0.104873,0.0833 -0.342518,0.23703 -0.35256,0.25562 -0.367212,0.67995 -0.0075,0.21632 -0.02128,0.44229 -0.0307,0.50215 -0.01075,0.0684 0.0079,0.1301 0.05003,0.16598 0.110382,0.0939 0.45619,0.27217 0.56703,0.29227 0.22782,0.0413 0.248694,0.12388 0.169605,0.67088 -0.0764,0.52842 -0.09416,0.84836 -0.05009,0.90258 0.08952,0.11013 0.2958,0.52761 0.331625,0.67117 0.02077,0.0832 0.0679,0.25175 0.104735,0.37454 0.116763,0.38916 0.220202,0.90061 0.262687,1.29885 0.04053,0.37989 0.111246,0.88497 0.213112,1.5221 0.0533,0.33336 0.02522,0.81357 -0.05209,0.89094 -0.0212,0.0212 -0.03854,0.0653 -0.03854,0.0979 0,0.0326 -0.127856,0.26726 -0.284125,0.52135 -0.156268,0.25408 -0.284125,0.47855 -0.284125,0.4988 0,0.0203 -0.06553,0.10047 -0.14562,0.17825 -0.114009,0.11073 -0.139865,0.16182 -0.119109,0.23535 0.01472,0.0521 0.01178,0.0731 -0.0066,0.0472 -0.0182,-0.0257 -0.03216,0.33047 -0.03102,0.79149 0.0012,0.46102 -0.01335,1.40444 -0.03222,2.09648 -0.02493,0.91449 -0.02111,1.36362 0.01396,1.64387 0.02655,0.21208 0.04641,0.72497 0.04414,1.13976 -0.0046,0.83497 -0.04563,1.10892 -0.269901,1.80086 l -0.13667,0.42167 0.03686,0.52082 c 0.06898,0.97457 0.0926,1.10757 0.248835,1.40098 0.07946,0.14923 0.181058,0.32275 0.225771,0.3856 0.128063,0.18002 0.331507,0.61474 0.438652,0.93732 0.114359,0.3443 0.09434,0.52914 -0.08241,0.76087 -0.126818,0.16627 -0.272431,0.18325 -0.529471,0.0617 -0.178429,-0.0844 -0.222535,-0.0782 -0.141232,0.0198 0.02987,0.036 0.06162,0.20933 0.07238,0.39513 0.0155,0.26777 0.0018,0.38557 -0.07162,0.61672 -0.144378,0.45443 -0.164175,0.52963 -0.164175,0.62362 0,0.10135 -0.114358,0.33022 -0.215563,0.43143 -0.03771,0.0377 -0.06856,0.11064 -0.06856,0.16206 0,0.28853 -0.236098,0.6719 -0.41379,0.6719 -0.06731,0 -0.07736,0.017 -0.05388,0.0913 0.05912,0.18704 0.07186,0.81047 0.0198,0.96823 l -0.05123,0.15521 0.239405,0.25599 c 0.213649,0.22845 0.249868,0.29301 0.336672,0.60015 0.100198,0.35453 0.199765,0.52448 0.451311,0.77035 0.179839,0.17578 0.518213,0.58105 0.644368,0.77176 0.05189,0.0784 0.166012,0.19653 0.253601,0.26242 0.08759,0.0659 0.202717,0.19396 0.255839,0.2846 0.24387,0.41613 0.347481,0.6291 0.348809,0.71696 7.98e-4,0.0524 0.02754,0.14086 0.05945,0.19667 0.0319,0.0558 0.05865,0.1517 0.05945,0.21309 7.98e-4,0.0614 0.01634,0.11162 0.03455,0.11162 0.01821,0 0.07298,0.0709 0.121699,0.15762 0.07947,0.14139 0.08682,0.20218 0.07143,0.59083 -0.01829,0.4619 -0.03321,0.49974 -0.249757,0.63357 -0.2831,0.17497 -0.647783,0.24816 -1.31593,0.2641 -0.346024,0.008 -0.683929,-10e-4 -0.750902,-0.0209 z"
       id="path5166"
       inkscape:connector-curvature="0" />
  </g>
</svg>
