<?xml version="1.0" encoding="UTF-8" standalone="no"?>
<svg
   xmlns:dc="http://purl.org/dc/elements/1.1/"
   xmlns:cc="http://creativecommons.org/ns#"
   xmlns:rdf="http://www.w3.org/1999/02/22-rdf-syntax-ns#"
   xmlns:svg="http://www.w3.org/2000/svg"
   xmlns="http://www.w3.org/2000/svg"
   xmlns:sodipodi="http://sodipodi.sourceforge.net/DTD/sodipodi-0.dtd"
   xmlns:inkscape="http://www.inkscape.org/namespaces/inkscape"
   width="220"
   height="235"
   viewBox="0 0 58.208332 62.177085"
   version="1.1"
   id="svg8"
   sodipodi:docname="angled-foregrip-flat.svg"
   inkscape:version="1.0.2-2 (e86c870879, 2021-01-15)">
  <defs
     id="defs2" />
  <sodipodi:namedview
     id="base"
     pagecolor="#000000"
     bordercolor="#666666"
     borderopacity="1.0"
     showgrid="false"
     fit-margin-top="0"
     fit-margin-left="0"
     fit-margin-right="0"
     fit-margin-bottom="0"
     units="px"
     inkscape:document-rotation="0"
     inkscape:zoom="1.5165184"
     inkscape:cx="76.274469"
     inkscape:cy="189.0338"
     inkscape:window-width="1258"
     inkscape:window-height="1198"
     inkscape:window-x="208"
     inkscape:window-y="492"
     inkscape:window-maximized="0"
     inkscape:current-layer="svg8" />
  <metadata
     id="metadata5">
    <rdf:RDF>
      <cc:Work
         rdf:about="">
        <dc:format>image/svg+xml</dc:format>
        <dc:type
           rdf:resource="http://purl.org/dc/dcmitype/StillImage" />
        <dc:title></dc:title>
      </cc:Work>
    </rdf:RDF>
  </metadata>
  <g
     id="layer1"
     transform="matrix(0.6373121,0.63919062,-0.63919062,0.6373121,205.0571,-186.11557)">
    <path
       style="fill:none;stroke:#ffffff;stroke-width:0.636313;stroke-miterlimit:4;stroke-dasharray:none;stroke-opacity:1"
       d="m 32.303215,332.80533 c 0.06979,-0.43662 0.08414,-0.9312 0.03186,-1.09907 -0.05221,-0.16781 -0.558077,-0.80919 -1.124062,-1.42515 -0.987892,-1.07513 -1.032212,-1.15418 -1.108278,-1.97695 -0.04356,-0.47133 -0.01693,-0.9211 0.05919,-0.99943 0.07621,-0.0783 0.08485,-0.196 0.01942,-0.26143 -0.06546,-0.0654 -0.0436,-0.13664 0.04822,-0.15844 0.09193,-0.0218 0.141993,-0.25088 0.111084,-0.50937 -0.03086,-0.25843 0.04755,-0.64309 0.174299,-0.85472 0.126674,-0.21172 0.155547,-0.45971 0.06403,-0.55123 -0.09269,-0.0927 -0.06462,-0.26809 0.06343,-0.39613 0.126372,-0.12631 0.229771,-0.46946 0.229776,-0.76237 6e-6,-0.29293 0.09785,-0.696 0.217435,-0.89572 0.119499,-0.19982 0.142566,-0.43801 0.05106,-0.5295 -0.09157,-0.0916 -0.06527,-0.26747 0.0583,-0.39103 0.123572,-0.1236 0.224612,-0.41697 0.224681,-0.65185 -8e-6,-0.23494 0.07246,-0.56699 0.161009,-0.7379 0.08867,-0.1708 0.115602,-0.46074 0.06013,-0.64398 -0.05552,-0.18328 -0.0021,-0.43214 0.118863,-0.55302 0.120868,-0.1209 0.181784,-0.38403 0.135408,-0.58476 -0.0464,-0.20072 0.02808,-0.47743 0.165511,-0.61484 0.137428,-0.13744 0.202854,-0.40511 0.14543,-0.59479 -0.05743,-0.18969 -0.0087,-0.44057 0.108141,-0.55748 0.116907,-0.11692 0.185589,-0.43837 0.152636,-0.71434 -0.03296,-0.27595 0.05127,-0.61294 0.187175,-0.74886 0.152635,-0.15255 0.18363,-0.35551 0.08119,-0.53052 -0.107171,-0.18307 -0.07144,-0.37791 0.100856,-0.55022 0.146734,-0.14667 0.228802,-0.43104 0.18242,-0.63177 -0.0464,-0.20074 9.06e-4,-0.45027 0.105135,-0.5545 0.104228,-0.10419 0.161623,-0.42284 0.127565,-0.70806 -0.03407,-0.28522 0.01082,-0.53576 0.09973,-0.55674 0.205723,-0.0485 0.438542,-1.53507 0.292041,-1.86403 -0.06276,-0.14078 -0.01034,-0.29207 0.121281,-0.3507 0.139368,-0.062 0.1953,-0.2772 0.140498,-0.54019 -0.05006,-0.24038 0.0235,-0.60885 0.163469,-0.81881 0.161075,-0.24162 0.188094,-0.49521 0.07357,-0.69081 -0.114553,-0.19568 -0.09852,-0.34576 0.04367,-0.40908 0.123444,-0.0551 0.259471,-0.30426 0.302137,-0.5538 0.05786,-0.33852 0.320042,-0.69629 1.032396,-1.40864 1.048168,-1.04817 1.242086,-1.17954 1.741221,-1.17954 0.470594,0 0.875921,-0.371 0.838839,-0.76796 -0.01895,-0.20267 -0.320649,-0.62757 -0.766974,-1.08005 -0.811807,-0.82306 -1.11537,-1.53305 -1.096706,-2.56543 0.01225,-0.67706 0.468708,-2.22022 0.735767,-2.48728 0.09233,-0.0923 0.160736,-0.3704 0.151952,-0.61804 -0.01384,-0.3919 0.03382,-0.46172 0.368346,-0.5391 0.317853,-0.0735 0.399797,-0.15573 0.473664,-0.47535 0.06412,-0.27717 0.158076,-0.3865 0.332481,-0.38647 0.329768,0 0.649318,-0.34189 0.539204,-0.57701 -0.0717,-0.15303 -0.014,-0.21078 0.28868,-0.28868 0.482675,-0.12424 0.725333,-0.36693 0.606309,-0.60631 -0.07329,-0.14747 0.0013,-0.21636 0.348932,-0.32237 0.24316,-0.0741 0.466315,-0.23708 0.49584,-0.36198 0.07928,-0.33584 0.517478,-0.83981 0.562844,-0.64744 0.02162,0.0913 0.140339,0.0649 0.263908,-0.0587 0.123572,-0.1236 0.205671,-0.30487 0.18267,-0.40269 -0.02668,-0.11279 0.08379,-0.20706 0.30097,-0.25732 0.263728,-0.0611 0.38094,-0.18072 0.507256,-0.5185 0.126117,-0.33738 0.231932,-0.44544 0.455372,-0.46663 0.223457,-0.0207 0.328282,-0.12551 0.449348,-0.44935 0.121138,-0.32406 0.225907,-0.4286 0.450265,-0.44943 0.225812,-0.0208 0.32137,-0.12264 0.419334,-0.44654 0.104801,-0.34613 0.184982,-0.42479 0.459138,-0.45015 0.267894,-0.0248 0.348323,-0.10133 0.417059,-0.39456 0.05281,-0.22829 0.171943,-0.37509 0.319079,-0.39288 0.129315,-0.0159 0.396874,-0.12789 0.594821,-0.24975 0.809224,-0.49796 2.19472,-0.21614 3.143716,0.63946 0.150839,0.13602 0.360133,0.26244 0.465173,0.28097 0.104975,0.0185 0.50945,0.28359 0.898741,0.58892 0.92031,0.72187 1.387596,0.73356 2.25801,0.0565 1.204918,-0.93726 1.332885,-1.96679 0.428344,-3.44593 -0.554032,-0.906 -5.418976,-6.33273 -5.746426,-6.41003 -0.08846,-0.0208 -0.531506,0.33286 -0.984638,0.78599 -0.628705,0.62871 -0.879127,0.79926 -1.057042,0.72004 -0.352034,-0.15685 -7.515673,7.00686 -7.261266,7.26126 0.141469,0.14142 -0.07489,0.4119 -1.348041,1.68505 -1.263465,1.26346 -1.544331,1.48877 -1.682665,1.35043 -0.14403,-0.14412 -0.726968,0.40035 -4.385751,4.09567 -2.320805,2.34397 -4.603253,4.56163 -5.071773,4.92847 -0.542657,0.42454 -0.921582,0.82078 -1.043013,1.09137 -0.115777,0.2575 -2.219308,2.50825 -5.344533,5.71836 -4.318853,4.43629 -5.147459,5.34026 -5.115107,5.58166 0.03002,0.22495 -0.271824,0.59812 -1.38148,1.70777 -1.24743,1.24743 -1.442519,1.39729 -1.606174,1.23365 -0.169449,-0.16945 -0.369678,0.0111 -2.2189576,1.99367 -1.1179788,1.19897 -2.5700631,2.71744 -3.2266956,3.37451 l -1.1939451,1.19463 0.3743829,0.62637 c 0.6985242,1.16869 3.118236,2.6665 4.102974,2.53981 0.2715356,-0.035 2.8600624,1.17523 8.4203364,3.93667 4.415555,2.19294 8.632633,4.1916 9.371309,4.4415 3.421126,1.15734 5.235337,0.77896 5.544668,-1.15649 z m -10.937673,-8.67216 c -0.693992,0.0185 -0.931003,-0.0912 -3.16425,-1.4632 -2.955051,-1.81558 -3.176685,-2.02012 -3.103989,-2.8644 0.05114,-0.59403 0.134103,-0.71701 1.244328,-1.84492 0.653826,-0.66508 2.056206,-2.1111 3.115513,-3.21428 2.256003,-2.34936 2.726118,-2.67437 3.577085,-2.47354 0.688896,0.16264 0.974869,0.40412 1.132244,0.95617 0.108221,0.37964 -1.017561,8.79368 -1.30652,9.76462 -0.237802,0.79911 -0.654897,1.11719 -1.494432,1.13957 z"
       id="path2641" />
  </g>
</svg>
