<?xml version="1.0" encoding="UTF-8" standalone="no"?>
<!-- Created with Inkscape (http://www.inkscape.org/) -->

<svg
   xmlns:dc="http://purl.org/dc/elements/1.1/"
   xmlns:cc="http://creativecommons.org/ns#"
   xmlns:rdf="http://www.w3.org/1999/02/22-rdf-syntax-ns#"
   xmlns:svg="http://www.w3.org/2000/svg"
   xmlns="http://www.w3.org/2000/svg"
   xmlns:sodipodi="http://sodipodi.sourceforge.net/DTD/sodipodi-0.dtd"   
   width="220"
   height="235"
   viewBox="0 0 58.208331 62.177086"
   version="1.1"
   id="svg8"   
   sodipodi:docname="m1014.svg" >
  <defs
     id="defs2" />
  <sodipodi:namedview
     id="base"
     pagecolor="#000000"
     bordercolor="#666666"
     borderopacity="1.0"
     showgrid="false"
     fit-margin-top="0"
     fit-margin-left="0"
     fit-margin-right="0"
     fit-margin-bottom="0" 
     units="px" />
  <metadata
     id="metadata5">
    <rdf:RDF>
      <cc:Work
         rdf:about="">
        <dc:format>image/svg+xml</dc:format>
        <dc:type
           rdf:resource="http://purl.org/dc/dcmitype/StillImage" />
        <dc:title></dc:title>
      </cc:Work>
    </rdf:RDF>
  </metadata>
  <g
     id="layer1"
     transform="translate(56.057826,-205.94221)">
    <path
       style="fill:none;stroke:#ffffff;stroke-width:0.4;stroke-opacity:1;stroke-miterlimit:4;stroke-dasharray:none"
       d="m -46.258928,267.48833 c -0.176634,-0.0747 -3.491895,-2.96379 -5.709303,-4.97536 -0.765537,-0.69447 -0.776182,-0.70855 -0.721403,-0.95393 0.07632,-0.34188 0.837481,-1.31044 1.735747,-2.2087 0.486026,-0.48603 0.732491,-0.78145 0.702307,-0.84182 -0.028,-0.056 0.491911,-0.75042 1.306868,-1.74551 2.341237,-2.85871 5.707647,-7.08749 5.959964,-7.48672 0.08982,-0.14212 0.170333,-0.14934 0.43838,-0.0393 0.180592,0.0742 0.337229,0.14371 0.34808,0.15456 0.03423,0.0342 -0.492388,2.86941 -0.573299,3.08651 l -0.07722,0.20717 0.240886,-0.0763 c 0.212711,-0.0674 0.383784,-0.31696 1.462498,-2.13362 0.671887,-1.13152 1.351828,-2.27099 1.510982,-2.53218 0.159154,-0.26118 0.422262,-0.71455 0.584688,-1.00748 0.745281,-1.34415 0.711437,-1.23969 0.560257,-1.72935 -0.133073,-0.431 -0.120297,-0.50592 0.231989,-1.36019 0.205049,-0.49723 0.445857,-1.14627 0.535127,-1.4423 0.08927,-0.29604 0.246878,-0.77707 0.350239,-1.06897 0.171433,-0.48413 0.169564,-0.55633 -0.02128,-0.82261 -0.154318,-0.21533 -0.209201,-0.4557 -0.209201,-0.91622 0,-0.69746 0.07551,-0.78484 0.763249,-0.88317 0.540052,-0.0772 0.941265,-0.28952 1.397842,-0.73967 l 0.397089,-0.39151 0.323595,0.21674 c 0.212228,0.14215 0.368553,0.1863 0.454229,0.1283 0.106279,-0.0719 0.08227,-0.1368 -0.128787,-0.34786 -0.216959,-0.21696 -0.23857,-0.28027 -0.132043,-0.38679 0.07006,-0.0701 0.156033,-0.0987 0.191061,-0.0637 0.03503,0.035 0.121004,0.006 0.19106,-0.0637 0.07006,-0.07 0.09872,-0.15603 0.06369,-0.19106 -0.03503,-0.035 -0.0064,-0.12101 0.06369,-0.19106 0.07006,-0.0701 0.156033,-0.0987 0.19106,-0.0637 0.03503,0.035 0.121005,0.006 0.191061,-0.0637 0.07006,-0.07 0.09872,-0.15603 0.06369,-0.19106 -0.03503,-0.035 -0.0064,-0.121 0.06369,-0.19106 0.07006,-0.0701 0.156033,-0.0987 0.19106,-0.0637 0.03503,0.035 0.121005,0.006 0.191061,-0.0637 0.07005,-0.0701 0.09871,-0.15604 0.06369,-0.19106 -0.03503,-0.035 -0.0064,-0.12101 0.06369,-0.19106 0.07006,-0.0701 0.149905,-0.10485 0.177413,-0.0773 0.02752,0.0275 0.107359,-0.007 0.177415,-0.0773 0.07005,-0.0701 0.109585,-0.14517 0.08787,-0.16689 -0.02173,-0.0217 0.417378,-0.48538 0.975798,-1.03034 0.608947,-0.59426 1.022366,-1.04966 1.032965,-1.1378 0.01212,-0.10085 0.06392,-0.14695 0.165108,-0.14695 0.195088,0 0.379112,-0.1909 0.315341,-0.32709 -0.04062,-0.0867 -0.0079,-0.11948 0.163661,-0.16366 0.273578,-0.0705 0.410619,-0.20749 0.345836,-0.34584 -0.04062,-0.0867 -0.0079,-0.11948 0.163661,-0.16366 0.273578,-0.0704 0.410619,-0.20749 0.345835,-0.34583 -0.04062,-0.0867 -0.0079,-0.11949 0.163662,-0.16367 0.257847,-0.0664 0.431386,-0.22385 0.343531,-0.3117 -0.03503,-0.035 -0.0064,-0.12101 0.06368,-0.19107 0.07006,-0.0701 0.156036,-0.0987 0.191063,-0.0637 0.03503,0.035 0.121005,0.006 0.19106,-0.0637 0.07006,-0.0701 0.09872,-0.15603 0.06369,-0.19106 -0.03503,-0.035 -0.01001,-0.11736 0.05558,-0.18296 0.09666,-0.0967 0.185739,-0.0645 0.469841,0.16983 0.192811,0.15901 0.388406,0.2891 0.434656,0.2891 0.194418,0 3.882937,-3.62116 11.641879,-11.4293 4.539233,-4.56802 8.4269149,-8.51138 8.6392825,-8.76304 0.4306141,-0.51029 0.4318022,-0.41154 -0.017715,-1.47876 l -0.2584835,-0.61367 0.2967039,-0.2149 c 0.404688,-0.2931 0.7292027,-0.39523 0.9844145,-0.30981 0.117785,0.0394 0.2141534,0.038 0.2141538,-0.003 4.7e-6,-0.0411 0.1236959,-0.0355 0.2748817,0.0125 0.1511862,0.048 0.4393011,0.0776 0.6402595,0.0658 0.3008095,-0.0176 0.4398103,-0.0891 0.7865692,-0.40444 l 0.4211895,-0.38307 0.5270645,0.48934 c 0.5762986,0.53505 0.6293905,0.71063 0.3111206,1.0289 -0.1502947,0.1503 -0.1425261,0.15384 0.1968445,0.0898 0.4855344,-0.0917 1.1651416,0.29373 1.3290691,0.75373 0.17904057,0.50241 0.090314,0.97814 -0.2471822,1.32531 -0.9677566,0.99548 -1.4662905,1.43115 -1.6480491,1.44022 -0.1539959,0.008 -0.4549538,0.27224 -1.5107965,1.32808 -1.1132415,1.11325 -1.339073,1.30933 -1.4506786,1.25963 -0.1716707,-0.0765 -0.3381553,0.09 -0.2140924,0.21409 0.1241374,0.12413 -0.059944,0.30822 -0.2317173,0.23171 -0.1716708,-0.0765 -0.3381554,0.09 -0.2140925,0.2141 0.1311179,0.13112 -0.048974,0.28989 -0.2690627,0.23719 -0.16684,-0.0399 -0.1768427,-0.0253 -0.1383047,0.202 l 0.041541,0.24505 -2.5486166,2.54861 c -2.8235372,2.82354 -2.7302372,2.69678 -2.3073012,3.13524 0.103182,0.10698 0.202799,0.32262 0.221348,0.47921 0.02858,0.24124 0.0095,0.27976 -0.124983,0.25235 -0.08729,-0.0178 -0.280952,-0.15371 -0.430356,-0.30204 l -0.271633,-0.26971 -0.416207,0.41621 c -0.262203,0.2622 -0.434757,0.50526 -0.466338,0.65688 -0.07015,0.33677 -2.092581,2.47522 -6.670512,7.05315 -2.832276,2.83228 -3.707957,3.67185 -3.842903,3.68438 -0.12239,0.0114 -0.51018,0.34509 -1.294138,1.1137 -2.394928,2.34804 -4.922097,4.9595 -5.161994,5.33417 -0.211482,0.3303 -0.246232,0.51602 -0.232763,1.24393 0.0087,0.47061 -0.04634,1.0071 -0.122342,1.19218 -0.076,0.18508 -0.418651,0.68249 -0.761454,1.10535 -0.559423,0.69006 -0.65851,0.78131 -0.967132,0.89064 -0.2063,0.0731 -0.334451,0.16162 -0.320352,0.22134 0.01292,0.0548 -0.06178,0.22423 -0.166022,0.3766 -0.104237,0.15239 -0.183287,0.39432 -0.175665,0.53764 0.02317,0.43569 1.47535,4.08489 1.76784,4.44242 0.243128,0.2972 0.290252,0.31792 0.603158,0.2653 0.369335,-0.0621 0.644511,0.11957 0.617718,0.40786 -0.01765,0.18986 -0.276558,0.39638 -1.261301,1.00606 -0.336024,0.20803 -0.919618,0.6179 -1.296878,0.91081 -1.031523,0.80088 -1.516787,0.77278 -1.878767,-0.10878 -0.07348,-0.17895 -0.355598,-1.12397 -0.626927,-2.10004 -0.506638,-1.82253 -0.629295,-2.06932 -1.131987,-2.27754 -0.426926,-0.17684 -0.853539,0.056 -1.344277,0.73376 -0.295023,0.40744 -0.34714,0.38642 -0.708226,-0.28559 -0.194938,-0.36279 -0.218085,-0.3834 -0.290481,-0.25863 -0.04327,0.0746 -0.633022,1.08553 -1.310569,2.24662 -0.730399,1.25164 -1.201461,2.14174 -1.157121,2.18645 0.04111,0.0415 -0.04391,0.28628 -0.18899,0.54402 -0.145073,0.25775 -0.437995,0.78161 -0.650933,1.16415 -0.212938,0.38253 -1.1687,2.02689 -2.123917,3.65412 -0.955218,1.62724 -1.760905,3.07454 -1.790419,3.21623 -0.113967,0.54715 0.210239,1.63574 0.717305,2.4085 l 0.280744,0.42784 -0.299882,0.74449 c -0.278445,0.69126 -0.861101,1.96966 -0.928371,2.03693 -0.01618,0.0162 -0.120041,-0.009 -0.23081,-0.0558 z m -0.9565,-7.11506 0.199493,-0.40571 -0.320942,-0.0142 c -0.576961,-0.0255 -1.645799,-0.28832 -1.91133,-0.46996 -0.277945,-0.19013 -0.398264,-0.16537 -0.29736,0.0612 0.08271,0.1857 0.762382,0.84467 1.245281,1.20735 0.545936,0.41 0.728341,0.34633 1.084853,-0.37869 z m 15.841882,-16.77929 c 0.500305,-0.69248 0.385247,-1.40095 -0.245569,-1.51209 -0.22482,-0.0396 -0.288618,0.006 -0.967842,0.68475 l -0.727155,0.72716 0.09073,0.28507 c 0.124998,0.39272 0.314794,0.55852 0.729552,0.63729 0.398393,0.0757 0.554261,-0.0387 1.120279,-0.82218 z m 23.4585001,-28.61991 c -0.03238,-0.0727 -0.014982,-0.17608 0.038658,-0.22972 0.053641,-0.0536 0.1405174,-0.0545 0.1930588,-0.002 0.052542,0.0525 0.1385208,0.0525 0.1910626,0 0.052542,-0.0525 0.05254,-0.13852 -1.3e-6,-0.19106 -0.053071,-0.0531 -0.038919,-0.15214 0.031846,-0.22291 0.070763,-0.0708 0.1698325,-0.0849 0.2229033,-0.0318 0.052542,0.0525 0.1385208,0.0525 0.1910626,1e-5 0.052542,-0.0525 0.056437,-0.13463 0.00866,-0.18241 -0.1220266,-0.12203 0.2356582,-0.56719 1.4691748,-1.82849 0.5753539,-0.5883 0.8783397,-0.9234 0.6733062,-0.74465 -0.2050317,0.17874 -0.4279595,0.31197 -0.4953981,0.29605 -0.093165,-0.022 -1.1161826,0.9719 -4.2592863,4.138 -2.2751637,2.29182 -4.1366717,4.1881 -4.1366717,4.21397 -10e-6,0.0259 0.06866,0.0776 0.152589,0.11499 0.142606,0.0635 0.310893,-0.0964 2.573139,-2.44531 1.3313032,-1.3823 2.514636,-2.5696 2.6296365,-2.63845 0.1150059,-0.0688 0.2515203,-0.0827 0.3033949,-0.0309 0.1231458,0.12314 0.2889357,-0.0445 0.2128891,-0.2153 z"
       id="path905" />       
  </g>
</svg>
