<?xml version="1.0" encoding="UTF-8" standalone="no"?>
<!-- Created with Inkscape (http://www.inkscape.org/) -->

<svg
   xmlns:dc="http://purl.org/dc/elements/1.1/"
   xmlns:cc="http://creativecommons.org/ns#"
   xmlns:rdf="http://www.w3.org/1999/02/22-rdf-syntax-ns#"
   xmlns:svg="http://www.w3.org/2000/svg"
   xmlns="http://www.w3.org/2000/svg"
   xmlns:sodipodi="http://sodipodi.sourceforge.net/DTD/sodipodi-0.dtd"   
   width="220"
   height="235"
   viewBox="0 0 58.208331 62.177086"
   version="1.1"
   id="svg8"   
   sodipodi:docname="m870.svg" >
  <defs
     id="defs2" />
  <sodipodi:namedview
     id="base"
     pagecolor="#000000"
     bordercolor="#666666"
     borderopacity="1.0"
     showgrid="false"
     fit-margin-top="0"
     fit-margin-left="0"
     fit-margin-right="0"
     fit-margin-bottom="0"
     units="px" />
  <metadata
     id="metadata5">
    <rdf:RDF>
      <cc:Work
         rdf:about="">
        <dc:format>image/svg+xml</dc:format>
        <dc:type
           rdf:resource="http://purl.org/dc/dcmitype/StillImage" />
        <dc:title></dc:title>
      </cc:Work>
    </rdf:RDF>
  </metadata>
  <g
     id="layer1"
     transform="translate(56.057826,-205.94221)">
    <path
       style="fill:none;stroke:#ffffff;stroke-width:0.4;stroke-miterlimit:4;stroke-dasharray:none;stroke-opacity:1"
       d="m -42.537622,266.95416 c -0.04448,0 -0.53774,-0.45615 -1.096101,-1.01365 -1.298233,-1.29655 -2.6215,-2.41037 -4.270831,-3.59564 -1.959455,-1.40816 -2.384424,-1.90157 -2.059801,-2.39151 0.09199,-0.13885 0.501848,-0.62361 0.910787,-1.07725 0.872218,-0.96757 2.378347,-2.74564 5.377095,-6.34796 1.194218,-1.43458 2.713461,-3.25601 3.376098,-4.04762 l 1.204787,-1.4393 0.676363,-0.26428 c 0.571488,-0.2233 0.780853,-0.36822 1.350274,-0.93464 l 0.67383,-0.67043 0.543382,-1.6224 c 1.132303,-3.38073 2.587786,-6.20848 3.844703,-7.4696 0.288064,-0.2892 0.299955,-0.33484 0.130168,-0.50463 -0.125019,-0.12501 -0.145276,-0.22813 -0.06131,-0.31209 0.06897,-0.069 0.196641,-0.27736 0.283723,-0.4631 0.116815,-0.24914 0.113309,-0.38273 -0.01336,-0.5094 -0.09444,-0.0944 -0.138096,-0.20531 -0.09702,-0.24638 0.04108,-0.0411 0.1545,0.005 0.252052,0.10268 0.186954,0.18696 0.481584,0.0599 0.952192,-0.41075 0.118092,-0.11809 0.24832,-0.1811 0.289394,-0.14003 0.04108,0.0411 0.141895,0.008 0.224045,-0.0747 0.08215,-0.0821 0.115758,-0.18296 0.07468,-0.22404 -0.04108,-0.0411 -0.02427,-0.1251 0.03734,-0.18671 0.06162,-0.0616 0.145632,-0.0785 0.186707,-0.0373 0.102512,0.10252 0.343537,-0.15502 0.343538,-0.36707 10e-7,-0.13096 0.05226,-0.17776 0.215448,-0.19292 0.17773,-0.0165 0.230824,-0.0709 0.303307,-0.3102 0.07447,-0.24596 0.113772,-0.28406 0.257935,-0.25004 0.146225,0.0345 0.182896,-0.002 0.261386,-0.26138 0.07849,-0.25923 0.115162,-0.2959 0.261386,-0.26138 0.145836,0.0344 0.183666,-0.004 0.265307,-0.2722 0.07403,-0.24287 0.122949,-0.29856 0.219913,-0.25034 0.161826,0.0804 0.416993,-0.17469 0.33652,-0.33652 -0.04796,-0.0964 0.01122,-0.14715 0.261147,-0.22383 0.249941,-0.0767 0.309117,-0.12738 0.261148,-0.22384 -0.08045,-0.16178 0.174006,-0.41623 0.338983,-0.33898 0.101727,0.0477 0.14011,0.009 0.191916,-0.19191 0.03562,-0.1383 0.250048,-0.43675 0.476519,-0.66323 0.390502,-0.3905 0.4215,-0.40202 0.600317,-0.22321 0.135912,0.13592 0.265889,0.15383 0.465555,0.0642 0.664985,-0.29862 17.8875596,-17.3886 18.128798,-17.98922 0.047078,-0.11722 0.3998246,-0.63624 0.7838737,-1.15339 0.7277428,-0.97994 0.8237149,-1.25167 0.5836678,-1.65259 -0.1282997,-0.21428 -0.108007,-0.25871 0.2732787,-0.59835 0.3714744,-0.33089 0.4454532,-0.35534 0.7542355,-0.24921 0.6004707,0.2064 1.0497148,0.20792 1.2533849,0.004 0.2343869,-0.23438 0.5338534,-0.15937 0.9248882,0.23166 0.5719625,0.57197 0.7556548,0.317 -3.049178,4.2323 -1.8725375,1.9269 -3.3780023,3.53007 -3.3454852,3.56258 0.03252,0.0326 0.2018462,-0.0385 0.3762897,-0.15784 0.2452602,-0.16777 0.4015497,-0.18707 0.6893524,-0.0852 0.2061849,0.073 0.4285547,0.0755 0.4985719,0.006 0.2018857,-0.20188 0.5322664,-0.13246 0.5554272,0.11672 0.010481,0.11275 -0.036675,0.26072 -0.1047954,0.32884 -0.068939,0.069 -0.062208,0.26023 0.015189,0.43146 0.1591625,0.35218 0.030171,0.71808 -0.4073856,1.15564 -0.2073336,0.20733 -0.293375,0.38468 -0.2773904,0.57173 0.022177,0.25945 -0.1073259,0.40498 -3.0003534,3.37155 -1.662934,1.70521 -3.56832,3.6852 -4.234182,4.39999 l -1.210658,1.29961 -0.316914,-0.14323 -0.316918,-0.14324 -2.630425,2.63043 c -1.446733,1.44674 -2.619404,2.67711 -2.605932,2.73417 0.04772,0.20214 -0.781826,1.07982 -1.295461,1.37062 -0.657544,0.3723 -3.826372,3.68751 -3.730483,3.90281 0.03253,0.073 -0.05548,0.29405 -0.195583,0.49113 -0.140105,0.19706 -0.270614,0.54272 -0.290022,0.76812 -0.02063,0.2396 -0.102894,0.43993 -0.198054,0.48232 -0.102075,0.0455 -0.219511,0.43651 -0.314939,1.04873 -0.171498,1.10023 -0.492718,1.77637 -1.179999,2.4838 -0.848688,0.87357 -1.413912,1.00393 -2.329625,0.53733 -0.615591,-0.31368 -0.879477,-0.26323 -1.237157,0.23655 -0.414841,0.57964 -0.971019,1.85335 -1.134861,2.59897 -0.286237,1.30262 -0.107525,2.87283 0.448523,3.9408 l 0.277896,0.53375 -0.386762,0.29156 c -0.654864,0.49368 -2.313901,1.46663 -2.805764,1.64546 -0.256637,0.0933 -0.524912,0.26191 -0.596167,0.37469 -0.07125,0.1128 -0.574656,1.27227 -1.118674,2.57662 -0.544015,1.30437 -1.336636,3.20029 -1.761376,4.21318 -0.738744,1.7617 -0.76283,1.84903 -0.555093,2.01261 0.119445,0.094 0.201586,0.23698 0.182541,0.31765 -0.021,0.0889 -0.04655,0.096 -0.06496,0.0181 -0.04953,-0.20978 -0.347879,-0.28614 -0.504811,-0.1292 -0.08018,0.0801 -0.0947,0.15784 -0.03226,0.17257 0.06244,0.0147 0.05181,0.0842 -0.02364,0.15426 -0.07531,0.0703 -0.415399,0.82381 -0.755466,1.67492 -0.850738,2.12918 -1.488227,3.56209 -1.584735,3.56209 z m 14.527638,-25.69196 c 0.326291,-0.60195 0.33244,-1.04123 0.01887,-1.34835 -0.452438,-0.44313 -0.940957,-0.33782 -1.630234,0.35146 -0.542119,0.54212 -0.653272,0.92194 -0.428561,1.46445 0.100426,0.24244 0.208686,0.35451 0.459508,0.47566 0.251547,0.1215 0.287124,0.15849 0.152431,0.15849 -0.09663,0 -0.320987,-0.10465 -0.498562,-0.23257 -0.391352,-0.28191 -0.604766,-0.20761 -0.466393,0.16239 0.153958,0.41169 0.539574,0.58891 0.939009,0.43157 0.458904,-0.18078 1.118793,-0.84482 1.453941,-1.46309 z"
       id="path827" />       
  </g>
</svg>
