<?xml version="1.0" encoding="UTF-8" standalone="no"?>
<!-- Created with Inkscape (http://www.inkscape.org/) -->

<svg
   xmlns:dc="http://purl.org/dc/elements/1.1/"
   xmlns:cc="http://creativecommons.org/ns#"
   xmlns:rdf="http://www.w3.org/1999/02/22-rdf-syntax-ns#"
   xmlns:svg="http://www.w3.org/2000/svg"
   xmlns="http://www.w3.org/2000/svg"
   xmlns:sodipodi="http://sodipodi.sourceforge.net/DTD/sodipodi-0.dtd"   
   width="220"
   height="235"
   viewBox="0 0 58.208332 62.177085"
   version="1.1"
   id="svg8"   
   sodipodi:docname="m1938.svg" >
  <defs
     id="defs2" />
  <sodipodi:namedview
     id="base"
     pagecolor="#000000"
     bordercolor="#666666"
     borderopacity="1.0"
     showgrid="false"
     units="px" />
  <metadata
     id="metadata5">
    <rdf:RDF>
      <cc:Work
         rdf:about="">
        <dc:format>image/svg+xml</dc:format>
        <dc:type
           rdf:resource="http://purl.org/dc/dcmitype/StillImage" />
        <dc:title></dc:title>
      </cc:Work>
    </rdf:RDF>
  </metadata>
  <g
     id="layer1"
     transform="translate(0,-234.8229)">
    <path
       style="fill:none;stroke:#fffffd;stroke-width:0.4;stroke-miterlimit:4;stroke-dasharray:none;stroke-opacity:1"
       d="m 48.204821,271.93918 c 0.264529,-0.29362 0.482844,-0.54078 0.485145,-0.54918 0.02375,-0.087 -4.004492,-3.65469 -6.629768,-5.87164 -0.267696,-0.22607 -0.778035,-0.66421 -1.134086,-0.97365 -0.356054,-0.30941 -0.866466,-0.74751 -1.134258,-0.97347 -0.26779,-0.22594 -1.003975,-0.85981 -1.635963,-1.40853 -0.631994,-0.54874 -1.28083,-1.10671 -1.441866,-1.23996 l -0.29279,-0.24228 0.139369,-0.0891 c 0.09874,-0.0631 0.14584,-0.13809 0.161582,-0.25698 0.018,-0.136 0.138994,-0.30282 0.637779,-0.87937 0.33856,-0.39133 0.784165,-0.91179 0.990236,-1.15655 0.206071,-0.24471 0.586703,-0.65852 0.845848,-0.91954 0.410722,-0.41373 0.473898,-0.49733 0.492356,-0.65189 0.01897,-0.15883 0.08029,-0.23641 0.588192,-0.74433 0.368831,-0.36883 0.645347,-0.68826 0.791123,-0.91395 0.1552,-0.2403 0.322216,-0.43007 0.543142,-0.61723 0.288782,-0.24463 0.318295,-0.28503 0.311262,-0.42595 -0.0072,-0.15109 0.02234,-0.18539 1.00202,-1.15118 0.998112,-0.98395 1.010635,-0.99845 1.08355,-1.25582 0.112766,-0.39806 0.06521,-0.55534 -0.32629,-1.07907 -0.19078,-0.25524 -0.347636,-0.49262 -0.348564,-0.5275 -0.0011,-0.0346 1.419873,-1.4299 3.157354,-3.10002 1.737472,-1.6701 3.68648,-3.54543 4.331129,-4.16736 0.644655,-0.62191 1.417568,-1.35953 1.717596,-1.63914 0.30002,-0.2796 1.002831,-0.94684 1.561787,-1.48271 0.558961,-0.53589 1.132819,-1.07204 1.275252,-1.19143 0.236198,-0.19794 0.260718,-0.23726 0.278747,-0.44676 0.05239,-0.60843 -0.431954,-1.30046 -1.096759,-1.56704 -0.378875,-0.1519 -0.426336,-0.12562 -1.35248,0.7487 -0.452743,0.42744 -0.921057,0.85489 -1.04069,0.94996 -0.119626,0.095 -0.246723,0.23827 -0.282431,0.31828 -0.05199,0.11649 -0.09578,0.14873 -0.219857,0.16179 -0.128158,0.0138 -0.21031,-0.0324 -0.475384,-0.26552 -0.375494,-0.33022 -0.405178,-0.32964 -0.821927,0.0155 l -0.277163,0.22983 0.187625,0.19445 c 0.103187,0.10695 0.263813,0.29393 0.356932,0.4155 l 0.169305,0.22102 -0.655857,0.67121 c -0.360716,0.3692 -0.724168,0.74344 -0.807649,0.83168 -0.08351,0.0882 -0.285748,0.2724 -0.449461,0.40925 -0.163712,0.13685 -0.352497,0.33448 -0.419513,0.43922 -0.08298,0.12965 -0.220007,0.25407 -0.42963,0.39003 -0.252149,0.16355 -0.346662,0.25592 -0.522878,0.51113 -0.165132,0.23915 -0.260698,0.33606 -0.411431,0.4173 -0.218942,0.11796 -0.546061,0.43459 -0.739393,0.7156 -0.08237,0.11972 -0.225228,0.24219 -0.404991,0.34725 -0.237693,0.13889 -0.309884,0.20941 -0.500933,0.4893 -0.182853,0.2679 -0.264623,0.35035 -0.452242,0.45589 -0.154769,0.087 -0.304865,0.22335 -0.46292,0.42037 -0.331423,0.41309 -0.436211,0.51204 -0.687253,0.64899 -0.17975,0.098 -0.259148,0.17705 -0.420627,0.41855 -0.161231,0.24123 -0.256597,0.33622 -0.502326,0.50057 -0.232939,0.15566 -0.357518,0.27673 -0.536661,0.52148 -0.152113,0.20784 -0.289545,0.34927 -0.394941,0.4065 -0.08891,0.0482 -0.255683,0.18695 -0.370614,0.30818 -0.432184,0.45584 -0.683657,0.69468 -0.909816,0.8642 -0.142981,0.10721 -0.284894,0.26135 -0.366946,0.39862 -0.106854,0.17877 -0.201983,0.26874 -0.472431,0.44674 -0.241442,0.15892 -0.373035,0.27812 -0.458461,0.41533 -0.06591,0.10583 -0.184934,0.25839 -0.264515,0.33899 -0.120656,0.12213 -0.164132,0.13491 -0.261456,0.0765 -0.140574,-0.084 -0.266173,-0.01 -0.622923,0.3728 -0.231673,0.24796 -0.254865,0.29467 -0.234788,0.47276 0.02007,0.17803 0.0081,0.20187 -0.119347,0.24049 -0.0795,0.0237 -0.232317,0.1431 -0.348319,0.27126 -0.113677,0.12558 -0.323135,0.34022 -0.465446,0.47701 -0.142315,0.13676 -0.381119,0.37219 -0.530649,0.52323 -1.223621,1.23567 -2.239632,2.12407 -2.388864,2.08884 -0.104111,-0.0242 -1.2854,1.09436 -4.75628,4.50526 -0.144139,0.1418 -0.176813,0.14795 -0.386623,0.074 -0.183141,-0.0644 -0.304939,-0.0555 -0.60677,0.0442 -0.370523,0.12268 -0.378571,0.1285 -0.427366,0.30875 -0.06932,0.25604 -1.337126,1.53793 -1.521048,1.53793 -0.136186,0 -0.735167,0.56404 -0.669119,0.63008 0.07963,0.0797 -0.08993,0.16057 -0.298731,0.14259 -0.19476,-0.0165 -0.409421,0.0859 -0.33502,0.16043 0.01638,0.0161 0.183715,0.0599 0.371842,0.0965 0.21564,0.042 0.370004,0.0391 0.417699,-0.01 0.09461,-0.0945 0.316384,-0.0407 0.290117,0.0709 -0.02011,0.0851 -4.254705,4.30786 -6.478442,6.4602 -1.136353,1.09985 -1.47495,1.40531 -1.58269,1.42777 -0.09905,0.0211 -0.27716,0.16847 -0.642291,0.53316 -0.277854,0.27757 -0.640459,0.61803 -0.805751,0.75662 l -0.300528,0.25203 0.0696,0.19367 c 0.03827,0.10649 0.127389,0.27635 0.198032,0.37747 0.07062,0.10108 0.131978,0.23293 0.136308,0.29304 0.02394,0.33195 0.501431,0.82855 0.912874,0.94938 0.120956,0.0354 0.311091,0.12361 0.422516,0.19578 0.196089,0.12701 0.200721,0.13712 0.144267,0.31448 -0.0321,0.10081 -0.177572,0.39968 -0.323311,0.66418 -0.145736,0.26452 -0.293277,0.54604 -0.32787,0.62563 -0.151407,0.34839 -0.571532,0.9067 -1.014008,1.34757 -0.472525,0.47077 -0.539537,0.51674 -1.416564,0.97131 -0.212086,0.10992 -0.493171,0.27343 -0.624634,0.36332 -0.247812,0.16947 -1.974832,1.77245 -3.839883,3.56402 -0.591263,0.56803 -1.3908554,1.33165 -1.7768647,1.69703 -0.3860084,0.36535 -1.2466625,1.19088 -1.9125639,1.8345 -1.0629676,1.02738 -1.4944611,1.42698 -2.168356,2.00805 -0.092228,0.0797 -0.5483399,0.52045 -1.0135796,0.97981 -0.7114956,0.70254 -0.8933655,0.90773 -1.1445791,1.29157 -0.5748321,0.8783 -0.6148195,1.33941 -0.1564445,1.80393 0.1813356,0.1837 0.3131054,0.25075 0.8798655,0.44723 0.9865979,0.34206 1.7703441,0.75672 3.0121089,1.59367 1.0545733,0.71075 1.4503441,1.00086 2.0946062,1.53538 0.3848234,0.31924 0.9254241,0.67385 1.0441478,0.68487 0.1580534,0.0142 0.3891824,-0.1862 0.6064414,-0.52717 0.114547,-0.17976 0.293291,-0.4526 0.397205,-0.60628 0.103914,-0.15369 0.279233,-0.41748 0.389598,-0.58621 0.206351,-0.31543 0.790997,-1.19178 1.015257,-1.52182 0.06948,-0.10227 0.237617,-0.37324 0.373623,-0.60219 0.568272,-0.95654 1.202915,-2.017 2.031311,-3.39413 0.483795,-0.80426 1.238132,-2.06986 1.676307,-2.81236 1.195403,-2.02581 1.483128,-2.44432 2.003564,-2.91449 0.410379,-0.37074 0.553421,-0.46414 1.723593,-1.12574 0.304936,-0.1724 0.515085,-0.3394 0.891719,-0.7086 0.459099,-0.45005 0.500979,-0.50572 0.612995,-0.81526 0.08651,-0.23911 0.113935,-0.49615 0.09776,-0.91709 -0.0797,-2.07508 -0.03585,-2.32625 0.585336,-3.35349 0.316555,-0.5235 0.468048,-0.71865 0.972216,-1.2524 0.328481,-0.34776 0.609118,-0.62041 0.623635,-0.60588 0.01453,0.0141 0.05746,0.14534 0.09539,0.29064 0.175958,0.67418 0.683515,1.08964 1.358663,1.11221 0.201617,0.008 0.488546,-0.0294 0.637628,-0.0799 0.266342,-0.0906 0.290881,-0.11228 1.412578,-1.25347 1.286688,-1.30907 1.415605,-1.48555 1.491279,-2.04163 0.108331,-0.79601 -0.232818,-1.38545 -0.936127,-1.61744 -0.19323,-0.0637 -0.416395,-0.12667 -0.49592,-0.13983 -0.143682,-0.0236 -0.142936,-0.0256 0.119676,-0.33045 0.792717,-0.91943 1.564685,-1.78454 2.36737,-2.65305 0.494934,-0.53551 1.131187,-1.24073 1.413898,-1.56718 0.674262,-0.77849 0.702362,-0.80522 0.772614,-0.73498 0.07163,0.0717 0.114454,0.0304 1.122612,-1.09041 0.681593,-0.75754 0.775444,-0.84725 0.886264,-0.84725 0.1433,0 0.258884,-0.0978 0.258883,-0.21906 0,-0.0464 0.04794,-0.15998 0.1065,-0.25267 l 0.106495,-0.16852 0.223256,0.1766 c 0.122795,0.0971 0.522154,0.43977 0.887473,0.76142 0.365315,0.32165 0.733888,0.63811 0.819046,0.7032 0.08517,0.0651 0.550849,0.46008 1.034868,0.87769 1.661974,1.434 3.062887,2.63701 3.569888,3.06558 0.279207,0.23601 0.771563,0.65699 1.094125,0.93554 0.322567,0.27852 0.691879,0.59423 0.820696,0.70156 0.128818,0.10734 0.558638,0.48546 0.955157,0.84032 1.098803,0.98332 2.962307,2.58083 3.028913,2.59655 0.06417,0.0147 0.636744,-0.56055 1.399783,-1.40752 z m -22.463441,3.26981 c -0.461555,0.17836 -1.067615,0.10738 -1.151541,-0.13488 -0.02335,-0.0674 -0.103341,-0.27634 -0.177761,-0.46429 -0.08258,-0.20849 -0.134203,-0.48709 -0.132475,-0.71479 l 0.0034,-0.37311 0.31511,-0.35705 c 0.173305,-0.19637 0.324243,-0.34791 0.335337,-0.33682 0.01117,0.0116 0.07525,0.17162 0.14241,0.35651 0.09794,0.26965 0.176608,0.38984 0.397499,0.60724 0.337446,0.33214 0.766129,0.52192 0.892785,0.39527 0.09489,-0.0948 0.08478,-0.1074 -0.191839,-0.23752 -0.473367,-0.22262 -0.750067,-0.69064 -0.742626,-1.25609 0.0051,-0.43671 0.01009,-0.44399 0.730707,-1.22774 l 0.512084,-0.55692 h 0.267676 c 0.147225,0 0.424145,0.0426 0.615381,0.0945 0.309402,0.0842 0.371365,0.12199 0.562513,0.34293 0.281495,0.32541 0.350617,0.68847 0.217233,1.14108 l -0.09713,0.32959 -0.916386,0.95716 c -1.146302,1.19729 -1.279046,1.31769 -1.581877,1.43473 z"
       id="path4619"       
       sodipodi:nodetypes="cccsssscccscccsccccsccccccscccccccsccccccccccccccccccccccccccccccccsccccsccscscsccccccccccccscccccccccccccscccccscsssccsccscscccsccsssscccccccssssscccccscccsccscccccccscscc" />
  </g>
</svg>
