<?xml version="1.0" encoding="UTF-8" standalone="no"?>
<!-- Created with Inkscape (http://www.inkscape.org/) -->

<svg
   xmlns:dc="http://purl.org/dc/elements/1.1/"
   xmlns:cc="http://creativecommons.org/ns#"
   xmlns:rdf="http://www.w3.org/1999/02/22-rdf-syntax-ns#"
   xmlns:svg="http://www.w3.org/2000/svg"
   xmlns="http://www.w3.org/2000/svg"
   xmlns:sodipodi="http://sodipodi.sourceforge.net/DTD/sodipodi-0.dtd"   
   width="220"
   height="235"
   viewBox="0 0 58.208332 62.177085"
   version="1.1"
   id="svg8"   
   sodipodi:docname="m3a1-grease-gun.svg" >
  <defs
     id="defs2" />
  <sodipodi:namedview
     id="base"
     pagecolor="#000000"
     bordercolor="#666666"
     borderopacity="1.0"
     showgrid="false"
     units="px" />
  <metadata
     id="metadata5">
    <rdf:RDF>
      <cc:Work
         rdf:about="">
        <dc:format>image/svg+xml</dc:format>
        <dc:type
           rdf:resource="http://purl.org/dc/dcmitype/StillImage" />
        <dc:title></dc:title>
      </cc:Work>
    </rdf:RDF>
  </metadata>
  <g 
     id="layer1"
     transform="translate(0,-234.8229)">
    <path
       style="fill:none;stroke:#fffffd;stroke-width:0.4;stroke-opacity:1;stroke-miterlimit:4;stroke-dasharray:none"
       d="m 54.93664,270.43341 c 0.07123,-0.11857 0.118351,-0.26563 0.10477,-0.32666 -0.02821,-0.12671 -8.888481,-8.79494 -10.737914,-10.50517 -0.671158,-0.62068 -1.220475,-1.19744 -1.220706,-1.28172 -2.33e-4,-0.0842 -0.50538,-0.69667 -1.122557,-1.36087 -1.325449,-1.42651 -2.493025,-2.82691 -2.603518,-3.12269 -0.165195,-0.44221 0.784351,-1.73634 1.066792,-1.45389 0.07484,0.0748 0.377374,0.13609 0.672308,0.13608 0.473106,10e-6 0.528764,-0.0266 0.472746,-0.22487 -0.04068,-0.14405 -0.159332,-0.25388 -0.330189,-0.30562 -0.224074,-0.0678 -0.240316,-0.1071 -0.101642,-0.2458 0.196453,-0.19643 0.181725,-0.43106 -0.05606,-0.89311 -0.09674,-0.18801 -0.129283,-0.56102 -0.07228,-0.82895 0.057,-0.2679 0.106001,-0.60116 0.10891,-0.74069 0.0049,-0.21383 0.863036,-1.1205 5.483953,-5.79079 5.306479,-5.36314 5.477251,-5.5463 5.433614,-5.82714 -0.05219,-0.33588 -0.470554,-0.78947 -0.910349,-0.98692 l -0.305499,-0.13719 -5.579867,5.57986 c -4.98628,4.98629 -5.60498,5.57592 -5.815928,5.54321 -0.129842,-0.0206 -0.376814,0.0909 -0.548825,0.24681 -0.299667,0.2716 -0.334392,0.26899 -0.830487,-0.0618 l -0.517734,-0.34518 -0.69008,0.6612 c -0.702111,0.67276 -1.158281,0.85577 -1.437398,0.57664 -0.07713,-0.0772 -0.227482,-0.01 -0.448114,0.21597 -0.306696,0.30672 -0.316805,0.37234 -0.132548,0.85926 l 0.199502,0.5272 -0.299748,-0.21124 -0.29975,-0.21123 -2.973902,2.93521 -2.9739,2.93525 0.259351,0.25934 c 0.142646,0.14262 0.227838,0.32493 0.189322,0.40504 -0.03852,0.0802 -2.378715,2.49038 -5.200441,5.35617 -4.945278,5.02247 -5.148238,5.21622 -5.624341,5.37069 -0.271663,0.0881 -0.546951,0.2132 -0.611757,0.27804 -0.188018,0.18801 -0.902076,0.11261 -1.276694,-0.13477 -0.890215,-0.58792 -0.796353,0.54643 0.103104,1.24612 l 0.520354,0.40475 -0.427088,0.42712 c -0.237481,0.23748 -0.418053,0.51381 -0.406732,0.62245 0.0112,0.10748 0.206097,0.47559 0.433099,0.8181 0.227009,0.34246 0.421486,0.70608 0.432163,0.80801 0.0122,0.11626 0.107865,0.2134 0.256879,0.26083 0.33849,0.10778 1.42301,1.00059 1.389233,1.14369 -0.01556,0.0659 -2.753827,2.86404 -6.085031,6.2181 -6.4398478,6.48401 -9.2026856,9.32914 -8.6125154,8.95389 0.03659,-0.27504 -0.4474852,0.51218 -0.4593138,1.4331 4e-7,0.52157 0.044414,0.62392 0.3829653,0.8824 0.2106343,0.16077 0.3552576,0.32006 0.3213883,0.35397 -0.07817,0.0781 4.2338936,4.35151 4.3909404,4.35151 0.1903029,0 0.5710437,0.43839 0.5710437,0.65747 0,0.30399 0.6285747,0.30367 0.866887,-3.8e-4 0.4934845,-0.6296 -0.243687,-1.73105 -2.7537368,-4.11443 -1.2363809,-1.17403 -1.8878774,-1.72228 -2.2960085,-1.93219 -0.732927,-0.37698 -0.716485,-0.35506 -0.5806497,-0.77478 0.082658,-0.25538 0.5076962,-0.76125 1.4775591,-1.75831 0.7488441,-0.76983 1.5840955,-1.64311 1.8561516,-1.94055 0.272036,-0.29748 2.9766208,-3.08444 6.0101598,-6.1933 l 5.515526,-5.65243 0.407541,0.29517 c 0.49338,0.35736 1.504343,0.49112 1.646065,0.21778 0.0761,-0.14677 0.238987,-0.10997 0.75232,0.16983 0.749914,0.40881 0.862107,0.56729 1.983897,2.80256 0.98831,1.96927 1.611503,3.07553 1.888688,3.35271 0.174607,0.17464 0.446229,0.25877 0.854401,0.26478 0.329116,0.01 0.611882,-0.008 0.628361,-0.0191 0.01648,-0.0148 0.623435,-0.43849 1.348792,-0.9407 0.74342,-0.51473 1.389748,-1.03555 1.481364,-1.19364 0.323661,-0.55845 -0.0158,-1.26606 -2.175738,-4.53524 -0.106779,-0.16165 -0.101787,-0.26955 0.01488,-0.3215 0.541459,-0.24114 1.842133,-1.39569 2.342981,-2.07979 1.153898,-1.57599 1.370871,-2.61559 0.780976,-3.74202 -0.09499,-0.18137 0.06836,-0.37035 1.925508,-2.2275 l 2.029309,-2.02933 0.41802,-2.16523 0.418012,-2.16534 0.535025,-0.16843 c 0.294264,-0.0924 0.592072,-0.2254 0.661801,-0.2951 0.106228,-0.10622 0.350563,0.097 1.507407,1.25385 1.133607,1.1336 1.402501,1.35873 1.502872,1.25837 0.06721,-0.0673 0.09606,-0.1743 0.06409,-0.23791 -0.03199,-0.0634 0.212293,0.13865 0.542853,0.44946 0.98246,0.92387 6.339101,6.00067 9.208155,8.72717 2.616459,2.48638 2.674108,2.53415 2.901332,2.40306 0.277647,-0.16012 1.971772,-1.87267 2.155727,-2.17912 z m -26.537711,2.52919 c -1.00851,0.59607 -1.199963,0.42287 -0.325666,-0.29454 l 0.673692,-0.55287 -0.386798,-0.38676 c -0.212734,-0.21276 -0.591833,-0.63974 -0.842439,-0.94882 l -0.455641,-0.56197 0.627858,-0.60329 c 0.345313,-0.33183 0.694693,-0.66175 0.776363,-0.73325 0.08172,-0.0712 0.339275,-0.12994 0.57242,-0.12994 0.501739,0 0.981112,-0.19695 1.331036,-0.54693 0.2151,-0.21508 0.286995,-0.21947 0.477238,-0.0294 0.553925,0.5539 0.423742,1.4547 -0.403156,2.78955 -0.51987,0.83918 -1.186898,1.49093 -2.044936,1.99803 z"
       id="path4647"       
       sodipodi:nodetypes="ccccscscccsccsccccsccsccssccccccssscscccscccccccccscccsccccscccsssccscccccsccccsssccsccccccsccccsssccc" />
  </g>
</svg>
