<?xml version="1.0" encoding="UTF-8" standalone="no"?>
<!-- Created with Inkscape (http://www.inkscape.org/) -->

<svg
   xmlns:dc="http://purl.org/dc/elements/1.1/"
   xmlns:cc="http://creativecommons.org/ns#"
   xmlns:rdf="http://www.w3.org/1999/02/22-rdf-syntax-ns#"
   xmlns:svg="http://www.w3.org/2000/svg"
   xmlns="http://www.w3.org/2000/svg"
   xmlns:sodipodi="http://sodipodi.sourceforge.net/DTD/sodipodi-0.dtd"
   width="220"
   height="235"
   viewBox="0 0 58.208332 62.177085"
   version="1.1"
   id="svg8"   
   sodipodi:docname="mp5.svg" >
  <defs
     id="defs2" />
  <sodipodi:namedview
     id="base"
     pagecolor="#000000"
     bordercolor="#666666"
     borderopacity="1.0"
     showgrid="false"
     units="px" />
  <metadata
     id="metadata5">
    <rdf:RDF>
      <cc:Work
         rdf:about="">
        <dc:format>image/svg+xml</dc:format>
        <dc:type
           rdf:resource="http://purl.org/dc/dcmitype/StillImage" />
        <dc:title></dc:title>
      </cc:Work>
    </rdf:RDF>
  </metadata>
  <g
     id="layer1"
     transform="translate(0,-234.8229)">
    <path
       style="fill:none;stroke:#fffffd;stroke-width:0.4;stroke-opacity:1;stroke-miterlimit:4;stroke-dasharray:none"
       d="m 53.964334,268.22727 c -0.427159,-0.0398 -3.780709,-1.12596 -5.189852,-1.68107 -2.837336,-1.1177 -5.526768,-2.49478 -8.220424,-4.20913 -0.442711,-0.28176 -0.906322,-0.47894 -0.99877,-0.42483 -0.04212,0.0243 -0.158042,0.16579 -0.257604,0.31367 -0.161396,0.23968 -0.173886,0.29005 -0.115203,0.46414 0.03619,0.10744 0.148589,0.33411 0.249747,0.50376 0.101159,0.16962 0.188881,0.35459 0.194935,0.41101 0.0054,0.0564 0.0521,0.20639 0.102309,0.33324 0.06321,0.15968 0.0683,0.25361 0.01657,0.30536 -0.06467,0.0646 -0.08763,0.0544 -0.170502,-0.0757 -0.05268,-0.0827 -0.147444,-0.21753 -0.210599,-0.29958 -0.06315,-0.082 -0.168157,-0.28381 -0.233339,-0.44836 -0.223846,-0.56516 -0.204261,-0.55544 -0.476799,-0.23613 -0.324899,0.38067 -0.444402,0.65705 -0.427566,0.98887 0.0198,0.39054 0.107174,0.63196 0.629915,1.74072 0.251084,0.53255 0.479538,1.0814 0.507673,1.21963 0.06409,0.31482 -0.06647,0.94374 -0.246391,1.18716 -0.07484,0.10125 -0.618622,0.65404 -1.208419,1.22842 -1.174844,1.14419 -1.183959,1.15063 -1.862755,1.31443 -0.270198,0.065 -0.338304,0.10682 -0.59542,0.36383 -0.261918,0.26177 -0.295061,0.31728 -0.338705,0.56739 -0.04511,0.2585 -0.01316,0.37272 0.471756,1.68701 0.659549,1.7876 0.98067,2.64029 1.260472,3.34697 l 0.222351,0.56162 0.218959,0.0979 c 0.120431,0.0537 0.248992,0.12799 0.285699,0.16464 0.10853,0.10857 0.08042,0.42491 -0.0493,0.5546 -0.213398,0.21343 -2.195145,0.81176 -4.58532,1.38449 -0.683414,0.16373 -0.960053,0.17144 -1.023735,0.0287 -0.03347,-0.075 -0.762661,-3.34375 -1.234432,-5.53336 -0.534755,-2.48189 -0.526064,-2.45657 -1.001625,-2.91846 -0.430199,-0.41779 -0.807981,-0.57866 -1.358145,-0.57827 -0.495101,4.1e-4 -0.702784,0.10176 -1.174544,0.57349 -0.27727,0.2773 -0.32428,0.30631 -0.486095,0.30016 l -0.179139,-0.008 -1e-6,0.15237 c 0,0.14575 -0.05248,0.20543 -1.202211,1.36764 l -1.202214,1.21525 -0.292623,0.0915 c -0.862221,0.26961 -1.753539,1.15472 -2.300642,2.28464 -0.196035,0.40483 -0.846861,1.92162 -2.669829,6.22217 -0.632514,1.49211 -1.621046,3.80987 -2.19674,5.15055 -0.575694,1.34067 -1.278126,2.99013 -1.560958,3.66549 -0.282832,0.67532 -0.68733,1.63425 -0.898892,2.13093 l -0.38465,0.90298 -0.627217,0.65874 c -0.973298,1.02214 -0.948848,1.02396 -2.25144,-0.16774 -0.486404,-0.44497 -0.9609338,-0.86886 -1.0545075,-0.94191 -0.1727132,-0.13469 -0.282816,-0.23092 -1.4957356,-1.30669 -0.6420174,-0.56943 -0.9569498,-0.8397 -2.1604582,-1.85406 -0.2712827,-0.2286 -0.6301055,-0.53443 -0.797387,-0.67962 -0.1672759,-0.14517 -0.5418154,-0.45213 -0.8322973,-0.68213 -0.6391402,-0.50609 -0.9805437,-0.84063 -1.0514722,-1.03031 -0.1331637,-0.35605 0.1479314,-0.79428 1.1517753,-1.79549 0.950487,-0.94791 6.5677145,-6.71021 8.9892975,-9.22126 3.021606,-3.13333 3.106393,-3.27136 3.948107,-6.42903 0.175358,-0.65784 0.418171,-1.59098 0.539586,-2.07364 0.481036,-1.91224 0.533327,-2.01559 1.446292,-2.85857 0.649428,-0.59967 1.086043,-0.85379 1.466832,-0.85379 0.191598,0 0.283143,-0.0334 0.40953,-0.15049 l 0.162782,-0.15049 -0.341797,-0.34182 c -0.384017,-0.38402 -0.478376,-0.56386 -0.504167,-0.96091 -0.02528,-0.38927 0.08527,-0.67158 0.407909,-1.04172 0.15196,-0.17431 0.261132,-0.3321 0.24261,-0.35062 -0.01854,-0.0186 -0.06796,-0.11712 -0.109833,-0.21916 l -0.07617,-0.18546 0.500865,-0.24196 c 0.818424,-0.39534 1.353454,-0.59803 1.434299,-0.54328 0.04082,0.0279 0.09856,0.15626 0.128287,0.28581 0.0579,0.25236 0.334032,0.8432 0.446759,0.95593 0.04706,0.0471 0.09692,0.0399 0.159913,-0.0231 0.05348,-0.0534 0.159397,-0.0814 0.254809,-0.0672 l 0.163285,0.0243 0.872967,-0.94493 c 1.045145,-1.13128 2.803334,-2.8928 2.951269,-2.95686 0.148356,-0.0641 0.179156,-0.16169 0.08187,-0.25903 -0.09278,-0.0928 -0.10858,-0.23929 -0.03382,-0.31408 0.02708,-0.0272 0.09068,-0.01 0.141285,0.0428 0.11421,0.11423 0.153074,0.0866 0.719985,-0.51089 0.402864,-0.42461 0.428065,-0.46193 0.358604,-0.5314 -0.04109,-0.0411 -0.05856,-0.11095 -0.03884,-0.15526 0.04903,-0.11011 0.299485,-0.11427 0.406969,-0.008 0.07533,0.0752 0.09549,0.0711 0.141175,-0.0294 0.08194,-0.18003 4.786462,-4.89117 7.105638,-7.11561 2.198178,-2.10834 5.051172,-4.90228 4.751359,-4.65297 -0.17159,0.1427 -0.183025,0.14369 -0.256323,0.0225 -0.295301,-0.48839 -0.144542,-1.01591 0.412184,-1.44224 0.390967,-0.29939 0.776671,-0.28169 0.989434,0.0453 l 0.08211,0.12618 0.645664,-0.62907 c 0.355108,-0.34603 0.987205,-0.96929 1.404636,-1.38502 0.602016,-0.59973 0.834271,-0.80233 1.123197,-0.98033 0.307032,-0.18917 0.365863,-0.24205 0.374667,-0.33677 0.01225,-0.1317 0.972798,-1.14529 1.064778,-1.1236 0.03074,0.009 0.107605,-0.0386 0.170814,-0.10172 0.08306,-0.0829 0.09943,-0.14143 0.05898,-0.2105 -0.03078,-0.0528 -0.03236,-0.11911 -0.0044,-0.14792 0.03475,-0.0346 0.0095,-0.0923 -0.07508,-0.17111 -0.07011,-0.0651 -0.105275,-0.0809 -0.07813,-0.0344 0.08376,0.14289 -0.05591,0.11895 -0.210972,-0.0362 -0.173615,-0.17361 -0.17319,-0.3004 6.06e-4,-0.17226 0.09636,0.0711 0.0927,0.0588 -0.01796,-0.061 -0.08451,-0.0914 -0.144235,-0.12597 -0.153075,-0.0886 -0.0329,0.1394 -0.328266,-0.0713 -0.884223,-0.6308 -0.551857,-0.55534 -0.764022,-0.85277 -0.630777,-0.88419 0.03377,-0.01 0.03682,-0.0392 0.0063,-0.0691 -0.06428,-0.0642 0.124946,-0.40349 0.351452,-0.63003 0.133339,-0.13331 0.181038,-0.14771 0.352366,-0.10618 0.524369,0.1271 1.570553,0.77765 2.054964,1.27781 0.219738,0.22689 0.378218,0.36032 0.400972,0.33758 0.02069,-0.0213 0.129708,-0.002 0.242251,0.0418 0.158501,0.0618 0.328801,0.20286 0.755471,0.62687 0.564283,0.5608 0.763837,0.847 0.696339,0.99857 -0.02652,0.0597 0.0214,0.12061 0.22783,0.29013 0.14379,0.11808 0.289928,0.21603 0.324752,0.21767 0.03483,0.002 0.111907,-0.0681 0.171297,-0.15485 0.0803,-0.11737 0.08951,-0.18246 0.03595,-0.25377 -0.06129,-0.0815 -0.04659,-0.12482 0.09837,-0.28955 0.141365,-0.16067 0.219882,-0.20369 0.460959,-0.25263 l 0.290582,-0.0591 0.743387,-0.74339 c 0.527696,-0.52769 0.769758,-0.74337 0.834282,-0.74337 0.120442,0 0.486015,0.36165 0.388768,0.38462 -0.04969,0.0124 -0.03078,0.0413 0.06479,0.10116 0.322596,0.2022 0.45528,0.3205 0.490703,0.43752 0.03668,0.12117 0.01619,0.14619 -0.730353,0.89276 -0.42246,0.42246 -0.844369,0.87896 -0.937581,1.01445 -0.104217,0.15149 -0.295322,0.34782 -0.496288,0.50992 -0.280368,0.22608 -0.321019,0.27465 -0.286037,0.3417 0.02243,0.043 0.07013,0.14256 0.106017,0.22123 l 0.06523,0.14307 -0.517195,0.51719 c -0.393824,0.39384 -0.549446,0.52288 -0.6524,0.54102 -0.129102,0.0226 -0.129741,0.0313 -0.01425,0.19081 0.205906,0.28431 0.180376,0.3409 -0.569796,1.26297 -0.702416,0.86334 -2.971564,3.69756 -6.07716,7.5905 -2.121778,2.65971 -2.190657,2.74709 -2.954786,3.74869 -1.017284,1.33345 -0.965151,1.27907 -1.235018,1.28826 -0.232869,0.01 -0.433826,-0.0745 -0.228207,-0.0937 0.06129,-0.007 0.09254,-0.0315 0.08367,-0.0689 -0.0075,-0.0328 -0.05929,-0.0366 -0.114517,-0.01 -0.100949,0.0525 -0.159011,0.0264 -0.465403,-0.20714 -0.09159,-0.0701 -0.176408,-0.1269 -0.188532,-0.12684 -0.01212,7e-5 -0.08214,0.0872 -0.155613,0.19364 -0.148628,0.21535 -0.179594,0.52839 -0.07682,0.77653 0.09619,0.2322 1.041104,1.00606 1.316086,1.07784 0.227974,0.0597 0.307717,0.11848 0.200478,0.14832 -0.05926,0.0162 -0.0544,0.0214 0.02428,0.0243 0.145536,0.007 0.280696,0.16576 0.269741,0.31999 -0.0094,0.13276 0.009,0.14769 0.949464,0.76697 2.309236,1.52069 4.606533,2.74866 7.14752,3.8206 1.345712,0.56769 3.614759,1.34685 4.994285,1.71498 0.593186,0.15829 0.622914,0.17264 0.673892,0.32509 0.03862,0.11548 -0.04014,0.54087 -0.285263,1.54088 -0.341999,1.39526 -0.446996,1.65046 -0.670559,1.62964 z m -15.227096,-0.56349 c 0.119317,-0.35865 0.01804,-0.65667 -0.754961,-2.22156 -0.178494,-0.36133 -0.370025,-0.70246 -0.425627,-0.75807 -0.197134,-0.19713 -0.248976,-0.1617 -1.27492,0.87152 l -0.94458,0.95129 0.01963,0.23875 c 0.07151,0.8696 0.683376,1.56415 1.557769,1.76834 0.312327,0.0731 0.53395,0.19291 0.513823,0.27817 -0.02368,0.10025 -0.586383,0.27974 -0.870638,0.27773 -0.585249,-0.005 -1.170571,-0.34415 -1.971761,-1.14536 -0.338869,-0.33887 -0.371672,-0.34607 -0.588385,-0.12935 -0.287689,0.28766 -0.309858,0.42117 -0.150096,0.90387 0.269294,0.81366 0.613838,1.6762 0.706638,1.76897 0.05116,0.0513 0.1697,0.093 0.263434,0.093 0.161845,0 1.110633,-0.24383 1.421007,-0.36517 0.143555,-0.0561 2.057941,-1.85579 2.310083,-2.17167 0.06474,-0.0812 0.149585,-0.24332 0.188575,-0.36049 z m -5.031737,-0.63128 c -0.161889,-0.18638 -0.181147,-0.19456 -0.289222,-0.12241 -0.08542,0.057 -0.190636,0.0501 -0.401122,-0.0259 -0.156935,-0.0569 -0.309228,-0.0976 -0.338427,-0.0908 -0.0292,0.008 0.07704,0.055 0.236099,0.10722 0.349705,0.11446 0.390527,0.14986 0.289475,0.25091 -0.0429,0.043 -0.0504,0.0844 -0.01669,0.0925 0.03575,0.01 0.01301,0.0627 -0.05457,0.13034 -0.06371,0.0637 -0.134045,0.0976 -0.156278,0.0753 -0.02442,-0.0242 0.0045,-0.0637 0.07099,-0.0994 0.06314,-0.0332 0.08339,-0.0597 0.04674,-0.0606 -0.08208,-0.002 -0.376483,0.28002 -0.335304,0.32119 0.01693,0.0167 0.05664,0.006 0.08827,-0.0268 0.04174,-0.0418 0.07614,-0.0264 0.125355,0.0555 0.0373,0.0623 0.09808,0.10613 0.135067,0.0974 0.08402,-0.0203 0.111955,0.0806 0.04189,0.15052 -0.03252,0.0325 -0.111562,0.005 -0.209168,-0.0748 l -0.156877,-0.12718 0.154591,0.16733 0.154594,0.16733 0.394009,-0.39401 0.394006,-0.39402 z"
       id="path4528" />
  </g>
</svg>
