<?xml version="1.0" encoding="UTF-8" standalone="no"?>
<!-- Created with Inkscape (http://www.inkscape.org/) -->

<svg
   xmlns:dc="http://purl.org/dc/elements/1.1/"
   xmlns:cc="http://creativecommons.org/ns#"
   xmlns:rdf="http://www.w3.org/1999/02/22-rdf-syntax-ns#"
   xmlns:svg="http://www.w3.org/2000/svg"
   xmlns="http://www.w3.org/2000/svg"
   xmlns:sodipodi="http://sodipodi.sourceforge.net/DTD/sodipodi-0.dtd"   
   width="220"
   height="235"
   viewBox="0 0 58.208332 62.177085"
   version="1.1"
   id="svg8"   
   sodipodi:docname="mp7.svg" >
  <defs
     id="defs2" />
  <sodipodi:namedview
     id="base"
     pagecolor="#000000"
     bordercolor="#666666"
     borderopacity="1.0"
     showgrid="false"
     units="px" />
  <metadata
     id="metadata5">
    <rdf:RDF>
      <cc:Work
         rdf:about="">
        <dc:format>image/svg+xml</dc:format>
        <dc:type
           rdf:resource="http://purl.org/dc/dcmitype/StillImage" />
        <dc:title></dc:title>
      </cc:Work>
    </rdf:RDF>
  </metadata>
  <g
     id="layer1"
     transform="translate(0,-234.8229)">
    <path
       style="fill:none;stroke:#fffffd;stroke-width:0.38811958;stroke-miterlimit:4;stroke-dasharray:none;stroke-opacity:1"
       d="m 46.63554,290.97158 c 0.514598,-0.67138 1.338643,-1.74294 1.831167,-2.38128 1.055182,-1.36757 1.383201,-1.92318 1.342448,-2.27351 -0.02494,-0.21534 -0.07131,-0.27976 -0.38711,-0.53796 -0.197272,-0.16129 -0.42308,-0.29358 -0.501868,-0.29388 -0.07967,-2.7e-4 -0.285598,0.12255 -0.464522,0.27734 l -0.321294,0.27798 -0.56026,-0.35585 c -2.257082,-1.43358 -5.440429,-3.74377 -7.892258,-5.72757 -1.122442,-0.90817 -1.116655,-0.89998 -0.85187,-1.20391 0.382851,-0.43938 0.465568,-0.59977 0.459335,-0.89068 l -0.0052,-0.28811 -0.488176,-0.22415 c -0.268502,-0.12328 -0.671919,-0.34284 -0.896499,-0.48796 -0.224582,-0.1451 -0.682394,-0.44108 -1.017361,-0.65772 -1.142521,-0.73903 -1.88632,-1.38891 -3.947706,-3.44922 -1.76741,-1.76649 -2.095787,-2.13995 -1.744051,-1.98331 0.09368,0.0418 0.113758,0.01 0.134352,-0.23215 0.02856,-0.33154 0.302207,-0.86503 0.592768,-1.15559 0.113595,-0.11365 0.206537,-0.26192 0.206536,-0.3296 1e-6,-0.0934 0.456032,-0.5747 1.900963,-2.00561 2.101622,-2.0813 2.209351,-2.21774 2.250491,-2.85115 0.02972,-0.45753 -0.01782,-0.57843 -1.034074,-2.63025 -0.498714,-1.00703 -0.911997,-1.92026 -0.918413,-2.02956 l -0.01162,-0.19869 3.717667,-3.64957 c 2.044708,-2.00722 3.728574,-3.64954 3.741896,-3.64954 0.01311,1e-5 0.292274,0.27226 0.619876,0.60502 0.327632,0.3327 2.003784,2.01772 3.724813,3.7444 l 3.129147,3.13943 0.142138,-0.10858 c 0.167164,-0.12774 0.370432,-0.15327 0.248445,-0.0313 -0.04444,0.0447 -0.06957,0.21105 -0.05598,0.37023 l 0.02484,0.28942 0.210225,0.01 0.210216,0.01 v 0.20993 0.20998 h 0.203549 c 0.200871,0 0.203481,0.009 0.194457,0.1841 -0.0097,0.16956 0.0077,0.18732 0.18687,0.22491 0.175857,0.0366 0.199455,0.0601 0.228787,0.22644 0.02998,0.16976 0.05045,0.18614 0.241663,0.19215 0.185812,0.01 0.207508,0.0222 0.195883,0.14721 -0.01523,0.16763 0.109421,0.30896 0.273179,0.30896 0.09034,0 0.120181,0.0441 0.127448,0.18981 0.01241,0.24158 0.143129,0.29813 0.509387,0.21985 0.273334,-0.0585 0.30904,-0.0454 0.557962,0.2023 0.405139,0.40325 0.651594,0.41119 1.341923,0.0434 0.308235,-0.16424 0.651352,-0.32767 0.762519,-0.36306 0.338121,-0.10802 2.1692,-1.14995 2.24339,-1.27667 0.179854,-0.30721 0.341322,-0.12886 -5.210195,-5.75209 -3.953018,-4.00438 -5.244942,-5.28402 -5.373642,-5.32297 -0.144624,-0.0438 -0.183406,-0.10987 -0.26463,-0.45092 -0.101494,-0.42611 -0.03988,-1.16461 0.131689,-1.5767 0.05948,-0.14262 0.3636,-0.54029 0.705746,-0.92244 0.713326,-0.79672 0.66322,-0.78291 1.739757,-0.47925 0.713072,0.20108 0.905997,0.18281 1.202676,-0.11383 0.127885,-0.12791 0.160972,-0.22495 0.129001,-0.37845 -0.03978,-0.19034 -0.08335,-0.23434 -0.563007,-0.56531 -0.286082,-0.19732 -0.610628,-0.44885 -0.721214,-0.5589 -0.110555,-0.11018 -0.358534,-0.29088 -0.550935,-0.40189 -0.433927,-0.25031 -0.442922,-0.25917 -0.352771,-0.34935 0.04046,-0.0407 0.0523,-0.14274 0.02698,-0.22743 -0.05909,-0.19502 0.146739,-0.41416 0.303024,-0.32264 0.106801,0.0624 0.218706,-0.037 1.745316,-1.55115 0.897139,-0.88985 1.841375,-1.79884 2.098262,-2.01998 0.420237,-0.36172 0.467082,-0.42194 0.467082,-0.60023 0,-0.40142 -0.890308,-1.41657 -1.50113,-1.71165 -0.185531,-0.0896 -0.235084,-0.0759 -0.514879,0.14161 -0.170258,0.13247 -0.38552,0.35382 -0.478348,0.49196 -0.09285,0.13808 -0.829886,0.92143 -1.637875,1.74077 -0.807996,0.81928 -1.539767,1.56344 -1.626104,1.65365 -0.101445,0.10591 -0.141363,0.2155 -0.112816,0.30985 0.05133,0.16952 -0.213204,0.39716 -0.328088,0.28226 -0.05162,-0.052 -0.150192,0.0118 -0.388672,0.24997 l -0.319287,0.31927 -0.82553,-0.50342 c -1.067009,-0.65068 -3.341079,-1.87726 -3.746354,-2.02078 l -0.314793,-0.11144 -0.636624,0.63323 c -0.45705,0.45435 -0.692317,0.64827 -0.833741,0.68678 -0.108374,0.0297 -0.270389,0.12548 -0.360039,0.21325 -0.103812,0.10144 -0.213375,0.1441 -0.301733,0.11736 -0.07633,-0.0231 -0.45035,0.0334 -0.831199,0.12513 l -0.692456,0.1672 -0.462462,-0.46137 c -0.663702,-0.66215 -0.866293,-0.79301 -1.099952,-0.71103 -0.118536,0.0418 -0.392587,0.26873 -0.705195,0.58443 l -0.511315,0.51631 -0.16319,-0.16275 -0.163196,-0.16274 0.343272,-0.3433 c 0.408876,-0.40892 0.425695,-0.54444 0.122721,-0.98922 -0.111761,-0.16413 -0.227071,-0.33616 -0.256246,-0.38246 -0.0345,-0.0547 -0.276243,0.01 -0.691747,0.17983 -0.433649,0.17916 -0.662741,0.23726 -0.713568,0.18075 -0.265715,-0.29537 -0.301201,-0.35575 -0.234852,-0.39962 0.0407,-0.0268 0.03098,-0.10755 -0.02158,-0.17904 -0.06716,-0.0914 -0.120816,-0.10485 -0.180261,-0.0455 -0.07564,0.0756 -0.126614,0.0349 -0.478429,-0.38073 -0.34007,-0.40188 -0.418994,-0.46659 -0.578552,-0.47456 -0.22657,-0.0118 -0.593308,0.3303 -0.693899,0.64635 -0.08064,0.2534 -0.0079,0.39764 0.412537,0.82013 0.244332,0.24542 0.296286,0.33057 0.237516,0.38933 -0.04679,0.0467 -0.02787,0.12256 0.05015,0.20058 0.07972,0.0798 0.153631,0.0971 0.203019,0.0476 0.06197,-0.062 0.111662,-0.0319 0.246343,0.15022 0.09278,0.12532 0.504711,0.57094 0.915385,0.99027 l 0.746707,0.76235 -1.074852,1.08671 c -1.125902,1.13838 -1.347933,1.40724 -1.255475,1.52044 0.03076,0.0378 0.256207,0.27443 0.500987,0.52602 0.32713,0.33637 0.425136,0.47095 0.36985,0.5078 -0.05078,0.0336 0.0049,0.14056 0.172899,0.3286 l 0.248123,0.27843 -0.219867,0.21989 c -0.211403,0.21139 -0.22675,0.21418 -0.398574,0.0726 -0.168957,-0.13926 -0.191636,-0.13605 -0.416177,0.0585 -0.360881,0.31277 -0.423949,0.46102 -0.287113,0.67489 0.114635,0.17915 0.109439,0.19547 -0.129316,0.4052 -0.237738,0.2089 -0.256669,0.21207 -0.42746,0.0715 l -0.178698,-0.14734 -0.287682,0.28772 c -0.311226,0.31121 -0.352119,0.46395 -0.172345,0.64375 0.104648,0.10464 0.09259,0.13812 -0.130033,0.3607 -0.254308,0.25431 -0.349885,0.26263 -0.563492,0.0489 -0.089,-0.089 -0.127299,-0.0669 -0.39409,0.22676 -0.289132,0.31835 -0.292893,0.32978 -0.174563,0.53042 0.115785,0.19623 0.11044,0.21551 -0.125186,0.45114 -0.24103,0.24103 -0.249832,0.24306 -0.424834,0.0988 -0.178681,-0.14722 -0.17871,-0.14721 -0.50705,0.15123 -0.200974,0.18274 -0.310403,0.32133 -0.282088,0.35731 0.02545,0.0324 0.06319,0.087 0.08387,0.12151 0.02067,0.0343 0.06862,0.0994 0.106563,0.14414 0.05214,0.0618 0.0049,0.14804 -0.203682,0.35414 -0.270942,0.27095 -0.273687,0.27181 -0.451341,0.12539 l -0.178696,-0.14726 -0.300892,0.30089 -0.300891,0.30084 0.147271,0.17877 0.147268,0.17865 -0.297712,0.29772 -0.297718,0.29771 -0.175518,-0.17549 -0.175523,-0.17552 -0.295523,0.29549 c -0.216431,0.21647 -0.283116,0.32344 -0.249171,0.39964 0.06688,0.15018 -0.525259,0.7423 -0.633794,0.63382 -0.0585,-0.0585 -0.142086,-0.01 -0.376115,0.22564 l -0.300888,0.3009 0.163083,0.16287 0.163083,0.16292 -0.288447,0.28844 c -0.281494,0.28148 -0.29267,0.28541 -0.463964,0.16307 -0.168363,-0.12026 -0.187741,-0.1144 -0.475245,0.14446 -0.293368,0.26409 -0.297096,0.27316 -0.17552,0.42628 0.119581,0.15056 0.113092,0.1686 -0.174293,0.48473 l -0.298494,0.32839 -0.152837,-0.15282 c -0.08542,-0.0854 -0.183309,-0.12801 -0.221924,-0.0965 -0.03803,0.0313 -0.132957,0.10525 -0.21103,0.16509 -0.28155,0.21587 -0.331198,0.3709 -0.170264,0.53179 0.149274,0.14928 0.149034,0.14996 -0.151406,0.4504 -0.278372,0.27839 -0.309382,0.29254 -0.414489,0.1888 -0.205048,-0.20227 -0.310665,-0.17937 -0.583577,0.12648 -0.250372,0.28055 -0.252613,0.29024 -0.108373,0.4652 l 0.147264,0.17869 -0.289332,0.28935 c -0.269356,0.26935 -0.296482,0.2809 -0.392916,0.16727 -0.191914,-0.22619 -0.261769,-0.21463 -0.57047,0.094 -0.260006,0.25995 -0.284226,0.30827 -0.201499,0.402 0.0517,0.0585 0.119417,0.13762 0.150441,0.17556 0.03585,0.0438 -0.0393,0.17545 -0.206109,0.36088 -0.253242,0.28162 -0.267596,0.28765 -0.405479,0.17089 -0.221801,-0.18788 -0.270361,-0.17636 -0.585504,0.13876 l -0.294752,0.29474 0.147268,0.1787 c 0.143336,0.17391 0.140727,0.18607 -0.0976,0.45367 l -0.244872,0.27491 -0.181384,-0.14956 -0.181389,-0.14955 -0.325943,0.32593 -0.325969,0.32597 0.149682,0.18151 c 0.148245,0.17976 0.147287,0.18361 -0.100035,0.4009 -0.231115,0.2031 -0.262852,0.21011 -0.425812,0.0946 -0.171922,-0.12187 -0.18407,-0.11759 -0.513448,0.18217 -0.262109,0.23857 -0.329706,0.33411 -0.30307,0.42845 0.04659,0.16511 -0.359667,0.57558 -0.505424,0.51073 -0.07876,-0.0349 -0.189178,0.039 -0.453521,0.30307 l -0.349433,0.34942 0.147269,0.17871 c 0.140044,0.16991 0.137044,0.18937 -0.06124,0.39643 -0.18182,0.18991 -0.222243,0.20404 -0.315933,0.11035 -0.178748,-0.17871 -0.327141,-0.12846 -0.68916,0.23359 l -0.341008,0.34098 0.150434,0.15044 c 0.142252,0.14226 0.139451,0.16148 -0.05139,0.3523 -0.184159,0.18413 -0.217673,0.19131 -0.38239,0.0816 l -0.180527,-0.12034 -0.365859,0.36586 -0.365858,0.36585 0.119548,0.18681 c 0.109813,0.1717 0.103371,0.20057 -0.07919,0.35506 -0.171531,0.14515 -0.219838,0.15144 -0.352537,0.046 -0.0846,-0.067 -0.183745,-0.0986 -0.220365,-0.0701 -0.209925,0.16435 -0.60163,0.54425 -0.655489,0.63573 -0.037919,0.0645 -0.00699,0.17831 0.07771,0.28734 0.09419,0.12108 0.05138,0.0967 -0.1298402,-0.0736 -0.2421584,-0.22776 -0.2867059,-0.24452 -0.4271838,-0.1604 -0.1532607,0.0918 -0.1674921,0.0831 -0.6244359,-0.37369 -0.5670486,-0.56705 -0.4937095,-0.58501 -1.4298403,0.35044 -0.3656224,0.36526 -0.6836107,0.64531 -0.7067058,0.62225 -0.076818,-0.0768 -0.6107177,-0.0307 -0.9488213,0.0824 -0.1835166,0.0613 -0.4270955,0.20483 -0.5412998,0.31901 l -0.2076313,0.20766 -0.7911489,-0.78854 c -0.8649798,-0.8619 -2.0483351,-1.96222 -2.1858828,-2.03239 -0.058081,-0.03 -0.1524689,0.0318 -0.2849981,0.18468 l -0.1981487,0.22906 1.0233132,1.07349 c 0.9423825,0.98855 1.0171644,1.08175 0.9452537,1.17823 -0.3240081,0.43489 -0.6750225,0.95867 -0.6774482,1.01087 -0.00465,0.0346 0.1924327,0.27374 0.4311872,0.5315 l 0.4340633,0.4685 0.4782391,-0.44935 0.4782167,-0.4494 0.042577,0.20445 c 0.040229,0.19307 0.016543,0.23035 -0.4269151,0.67387 -0.4530665,0.45309 -0.4678946,0.47723 -0.4234618,0.69047 0.033485,0.16073 0.1750953,0.36081 0.5195815,0.73413 l 0.4735438,0.51317 -0.3376969,0.35272 c -0.4255829,0.44452 -0.4530307,0.47715 -0.4530269,0.53832 0,0.1679 -0.1015708,1.59781 -0.1270072,1.78786 -0.040578,0.30347 -0.4849254,0.7094 -0.624109,0.57022 -0.1843742,-0.18442 -0.3550207,-0.0886 -1.0177854,0.57137 -0.3498083,0.34833 -0.6597616,0.6885 -0.6888357,0.75595 -0.047505,0.11049 0.036483,0.21206 0.8413968,1.01694 0.6286276,0.62867 0.9299597,0.89421 1.0145815,0.89421 0.077226,1e-5 0.2964011,-0.17602 0.6117784,-0.49146 0.2942169,-0.29418 0.5115969,-0.47134 0.5416247,-0.44125 0.032175,0.0322 -0.4643724,0.56576 -1.3900377,1.49344 -1.5183898,1.52186 -1.5330191,1.54132 -1.4232075,1.90158 0.043159,0.14154 0.6392903,0.88286 0.8806532,1.09511 0.029333,0.0258 0.276866,0.25974 0.5500091,0.51982 0.2731392,0.2601 0.5300976,0.47288 0.5709957,0.47288 0.040849,-10e-6 0.079439,0.0547 0.085668,0.12202 0.00582,0.0671 0.067008,0.14586 0.1350181,0.17509 0.068018,0.0292 0.4556039,0.37603 0.8612636,0.77064 0.4056859,0.3946 0.780392,0.72768 0.8327407,0.73998 0.052328,0.0129 0.085765,0.0621 0.074354,0.11048 -0.011372,0.0484 0.0317,0.10995 0.095826,0.13681 0.064097,0.0268 0.3794635,0.30495 0.7007791,0.61795 0.3213077,0.31305 0.6320896,0.57976 0.6906346,0.59257 0.061381,0.0137 0.1115503,0.0781 0.1185006,0.15293 0.00612,0.0713 0.057606,0.14039 0.1133484,0.15353 0.055705,0.0134 0.4357137,0.34601 0.844426,0.73965 0.4086968,0.39366 1.1047718,1.05367 1.5468022,1.46667 0.8669651,0.81006 0.9004291,0.84182 0.9905661,0.94013 0.03297,0.0359 0.423036,0.40191 0.866769,0.8132 0.443737,0.41129 1.104751,1.0436 1.468921,1.405 0.858632,0.85221 0.886181,0.85526 1.576466,0.17505 0.261459,-0.25761 0.519515,-0.51685 0.573628,-0.5759 0.229472,-0.2513 0.36713,-1.48313 0.199857,-1.78837 -0.06268,-0.11443 -0.637202,-0.97245 -2.993646,-4.47097 l -1.278383,-1.89803 0.776242,-0.78928 c 0.426932,-0.4341 0.798536,-0.81213 0.825801,-0.84001 0.886818,-0.90848 8.57441,-8.43678 8.665159,-8.48565 0.320718,-0.17264 0.998466,-0.25556 1.297255,-0.15864 0.530283,0.17203 0.795895,0.43537 1.314031,1.30287 0.726327,1.21597 1.744524,2.5835 3.14099,4.21861 0.495039,0.57963 2.647222,2.73682 3.080567,3.08768 0.167647,0.13574 0.602172,0.49108 0.965611,0.7896 0.363433,0.29854 0.718124,0.56085 0.788195,0.58282 0.171487,0.054 0.488706,-0.11663 0.905629,-0.48709 0.309861,-0.27529 0.361051,-0.29797 0.49977,-0.22186 0.085,0.0466 0.688004,0.52173 1.34,1.05577 2.558194,2.09529 5.96875,4.57783 8.667433,6.30895 0.531666,0.34109 1.055336,0.70875 1.163718,0.81715 0.137473,0.13747 0.218725,0.17535 0.268772,0.12536 0.03949,-0.0397 0.12973,-0.0285 0.200601,0.0248 0.178321,0.13403 0.277864,0.0327 1.382113,-1.40802 z M 31.463904,268.49165 c -0.451847,0.20941 -1.020263,0.23088 -1.544328,0.0587 -0.370984,-0.12213 -0.512496,-0.20948 -0.787166,-0.48585 -0.184177,-0.18539 -0.374083,-0.42435 -0.422001,-0.53104 -0.08314,-0.18513 -0.07495,-0.20298 0.180526,-0.39187 0.424054,-0.31344 0.577301,-0.35518 0.86442,-0.23553 0.537714,0.22397 0.717622,0.27237 1.1803,0.31734 0.871104,0.0847 1.769557,-0.11556 1.706979,-0.38067 -0.01417,-0.0602 -0.0747,-0.11271 -0.136104,-0.11842 -0.08191,-0.01 -0.07701,-0.0299 0.01883,-0.086 0.153365,-0.0897 0.09209,-0.29556 -0.09313,-0.31279 -0.06711,-0.01 -0.123723,-0.0468 -0.125845,-0.0895 -0.0049,-0.043 -0.01482,-0.0382 -0.02823,0.0116 -0.01339,0.049 -0.126172,0.10138 -0.250614,0.11622 -0.124437,0.0147 -0.246318,0.0473 -0.270848,0.0717 -0.08094,0.081 -0.775569,0.0315 -1.1075,-0.0794 -0.229812,-0.0764 -0.418164,-0.20065 -0.638262,-0.42082 -0.348652,-0.34862 -0.676405,-0.85467 -0.644906,-0.99568 0.01135,-0.0508 0.90565,-0.96513 1.987338,-2.03182 1.832411,-1.80703 1.983789,-1.94346 2.216914,-1.99852 0.14245,-0.0336 0.356342,-0.01 0.496639,0.0564 0.233936,0.10971 0.280295,0.18375 0.914593,1.46141 0.372216,0.74974 0.671262,1.44126 0.675161,1.56121 0.01772,0.54583 0.03195,0.52795 -2.000951,2.52018 -1.605726,1.57364 -1.919726,1.85787 -2.191793,1.9839 z"
       id="path4554"       
       sodipodi:nodetypes="ccccccccccccccccccccccccccccccccccccccscccccscccccsccccccccccccccccsccccccccccccccccccccccccscccccccccccccccccccccccccccccccccccccccccccccccccccccccccccccccccccccccccccccccccccccccccccccccccccccccccccccccccccccccccccccccccccccccccccccccccccccccccccccccccccccccccccccccccccccsccccccccccccccccccccccccccccccccccccc" />
  </g>
</svg>
