<?xml version="1.0" encoding="UTF-8" standalone="no"?>
<!-- Created with Inkscape (http://www.inkscape.org/) -->

<svg
   xmlns:dc="http://purl.org/dc/elements/1.1/"
   xmlns:cc="http://creativecommons.org/ns#"
   xmlns:rdf="http://www.w3.org/1999/02/22-rdf-syntax-ns#"
   xmlns:svg="http://www.w3.org/2000/svg"
   xmlns="http://www.w3.org/2000/svg"
   xmlns:sodipodi="http://sodipodi.sourceforge.net/DTD/sodipodi-0.dtd"   
   width="220"
   height="235"
   viewBox="0 0 58.208332 62.177085"
   version="1.1"
   id="svg8"   
   sodipodi:docname="mp9.svg" >
  <defs
     id="defs2" />
  <sodipodi:namedview
     id="base"
     pagecolor="#000000"
     bordercolor="#666666"
     borderopacity="1.0"
     showgrid="false"
     units="px" />
  <metadata
     id="metadata5">
    <rdf:RDF>
      <cc:Work
         rdf:about="">
        <dc:format>image/svg+xml</dc:format>
        <dc:type
           rdf:resource="http://purl.org/dc/dcmitype/StillImage" />
        <dc:title></dc:title>
      </cc:Work>
    </rdf:RDF>
  </metadata>
  <g     
     id="layer1"
     transform="translate(0,-234.8229)">
    <path
       style="fill:none;stroke:#fffffd;stroke-width:0.4;stroke-opacity:1;stroke-miterlimit:4;stroke-dasharray:none"
       d="m 51.516259,275.45365 c -0.04188,-0.085 -1.921908,-2.0235 -4.177814,-4.3076 -3.790018,-3.83745 -4.098553,-4.17281 -4.061027,-4.4144 0.03643,-0.23449 -0.144823,-0.44678 -1.762302,-2.06429 l -1.802916,-1.80291 -1.075187,-1.92901 c -0.591349,-1.06103 -1.075187,-2.0429 -1.075185,-2.18203 -2e-6,-0.2097 0.130257,-0.35422 0.761108,-0.84428 1.113588,-0.86518 2.959132,-2.77932 3.07825,-3.19266 0.05308,-0.18425 0.108304,-1.11107 0.122731,-2.0597 0.02967,-1.95221 0.08866,-2.07416 1.18818,-2.45808 0.641036,-0.22383 0.92017,-0.49238 0.727046,-0.69952 -0.05234,-0.0561 0.06536,-0.0545 0.261533,0.008 0.251203,0.0744 0.90019,0.59934 2.19433,1.77499 2.37904,2.16119 3.762802,3.2321 6.111535,4.73001 1.471039,0.93817 1.338197,0.90533 1.798904,0.4446 0.403255,-0.40329 1.964366,-2.52262 2.319224,-3.14856 0.120586,-0.21265 0.132463,-0.40418 0.03335,-0.53745 -0.285597,-0.38409 -3.144199,-2.49227 -4.756571,-3.50787 -0.880227,-0.55446 -2.408705,-1.41717 -3.396625,-1.9172 -1.930764,-0.9771 -2.12589,-1.14732 -2.214286,-1.93144 -0.0397,-0.35232 0.03509,-0.56176 0.35067,-0.9818 1.178749,-1.56887 1.608881,-1.70583 3.066707,-0.97641 0.869714,0.43518 0.930185,0.44573 1.171537,0.20434 0.144,-0.14398 0.220644,-0.33048 0.176529,-0.42951 -0.04287,-0.0962 -0.665211,-0.46413 -1.382967,-0.81745 -0.717753,-0.35326 -1.350021,-0.71381 -1.405041,-0.80112 -0.05501,-0.0874 -0.2105,-0.26484 -0.345523,-0.39441 -0.324879,-0.31172 -0.322865,-0.89422 0.0049,-1.1161 0.137154,-0.093 0.236514,-0.22375 0.220815,-0.2902 -0.03961,-0.16785 0.287048,-0.47524 0.392731,-0.36957 0.137904,0.1379 1.190478,-0.97605 1.166463,-1.23451 -0.03383,-0.36375 -0.776902,-1.23242 -1.009552,-1.18015 -0.140577,0.0318 -0.166741,0.013 -0.09085,-0.0647 0.128415,-0.13169 -0.35336,-0.64226 -0.791744,-0.83914 -0.285949,-0.12843 -0.34246,-0.10025 -0.883288,0.44058 -0.415976,0.41602 -0.661776,0.58201 -0.877659,0.59273 -0.281359,0.0142 -0.298757,0.044 -0.281887,0.48813 l 0.01796,0.47314 -0.34277,-0.0358 c -0.398636,-0.042 -0.65823,0.16361 -0.540529,0.42788 0.06082,0.13656 -0.008,0.24962 -0.267357,0.43769 -0.476166,0.34557 -0.583663,0.35523 -0.672875,0.0607 -0.05995,-0.19798 -0.129732,-0.23509 -0.328793,-0.17484 -0.138975,0.0423 -0.411432,-1.9e-4 -0.605441,-0.0937 -0.39581,-0.19118 -1.850693,-0.22215 -2.029651,-0.0435 -0.06385,0.0639 -0.388921,0.19949 -0.722389,0.30145 -0.543849,0.16629 -0.595252,0.20437 -0.499007,0.36958 0.09744,0.16732 0.09251,0.17125 -0.05373,0.0432 -0.156721,-0.13722 -0.404743,-0.0398 -0.262002,0.10321 0.08017,0.0802 -0.857412,1.57711 -1.206334,1.92602 -0.123615,0.12366 -0.331343,0.21488 -0.461613,0.20276 -0.351917,-0.0327 -0.882748,0.55124 -0.862897,0.94916 0.02083,0.41774 -0.137936,0.57651 -0.474586,0.47459 -0.338758,-0.10254 -0.581847,0.14054 -0.560889,0.56088 0.02097,0.42023 -0.171309,0.61252 -0.449584,0.44957 -0.120493,-0.0705 -0.290278,-0.0547 -0.380225,0.0351 -0.08938,0.0895 -0.162516,0.31782 -0.162517,0.50768 0,0.44012 -0.184668,0.62481 -0.474586,0.47459 -0.291421,-0.151 -0.538753,0.0963 -0.517738,0.51774 0.02102,0.4215 -0.220453,0.66299 -0.499597,0.4996 -0.280677,-0.16434 -0.557015,0.11201 -0.535876,0.53586 0.02098,0.42022 -0.171317,0.61249 -0.449591,0.44962 -0.288884,-0.16912 -0.649178,0.19113 -0.542739,0.54271 0.104666,0.34572 -0.208669,0.65904 -0.492736,0.49275 -0.280865,-0.16446 -0.607974,0.15382 -0.525379,0.51116 0.0701,0.30332 -0.303528,0.60831 -0.502015,0.40983 -0.160821,-0.16086 -0.535472,0.22863 -0.507659,0.52778 0.0121,0.13031 -0.07031,0.32921 -0.183143,0.44205 -0.124838,0.12479 -0.255833,0.15444 -0.334592,0.0754 -0.08097,-0.081 -0.211231,-0.0476 -0.347864,0.089 -0.120139,0.12013 -0.182544,0.29903 -0.138671,0.39753 0.04547,0.10209 -0.02757,0.28643 -0.16987,0.42871 -0.164372,0.16439 -0.293847,0.20545 -0.379072,0.12022 -0.17122,-0.17125 -0.568169,0.22573 -0.462652,0.46266 0.105951,0.23791 -0.314607,0.65846 -0.48653,0.48654 -0.171919,-0.17193 -0.592482,0.24863 -0.486532,0.48651 0.10743,0.24122 -0.37462,0.72327 -0.548942,0.54898 -0.08054,-0.0806 -0.210925,-0.048 -0.345155,0.0861 -0.134228,0.13426 -0.166828,0.2647 -0.0863,0.34517 0.09041,0.0904 0.03835,0.22055 -0.172575,0.43145 -0.210932,0.21094 -0.341053,0.26298 -0.43145,0.17259 -0.08053,-0.0807 -0.210927,-0.0479 -0.345153,0.0862 -0.13423,0.13421 -0.16683,0.26462 -0.08629,0.34517 0.08629,0.0862 0.04313,0.21574 -0.129434,0.38832 -0.172578,0.17257 -0.302015,0.21571 -0.388304,0.12942 -0.08054,-0.0806 -0.210928,-0.0481 -0.345156,0.0862 -0.134228,0.13426 -0.166826,0.26462 -0.08629,0.34514 0.09041,0.0905 0.03837,0.22056 -0.172576,0.43151 -0.210928,0.21088 -0.341053,0.26293 -0.431448,0.17255 -0.0956,-0.0956 -0.229537,-0.0294 -0.51264,0.25379 -0.210765,0.21073 -0.36838,0.44604 -0.350253,0.52284 0.01813,0.0766 -0.07064,0.24314 -0.197214,0.36973 -0.169914,0.16994 -0.553059,0.23128 -1.463529,0.23433 -1.220294,0.009 -1.490424,0.12546 -1.118175,0.50236 0.103295,0.10465 0.255628,0.30751 0.338439,0.45084 l 0.150553,0.26054 -1.410976,1.29001 c -1.563228,1.42917 -1.844476,1.78779 -1.596543,2.03567 0.08979,0.0898 0.202053,0.12445 0.249513,0.0769 0.04746,-0.0476 0.202779,0.0303 0.345158,0.17261 0.14238,0.14235 0.220039,0.29769 0.172576,0.34512 -0.04746,0.0476 0.08617,0.25875 0.296922,0.46952 0.210766,0.21076 0.36838,0.44598 0.350257,0.52282 -0.04411,0.18683 0.449948,0.67181 0.56609,0.55567 0.05296,-0.0529 0.216488,0.0561 0.388302,0.25887 l 0.296801,0.35034 -0.933825,0.96455 c -0.513604,0.53054 -1.037798,1.07411 -1.16492,1.20806 -0.206908,0.21803 -0.199493,0.27508 0.07093,0.54552 0.28664,0.28663 0.317119,0.2869 0.598928,0.01 0.16331,-0.16327 0.358746,-0.2823 0.434313,-0.26448 0.172273,0.0409 -9.6725238,9.99815 -10.3378651,10.45618 -0.5311886,0.36572 -2.728126,2.5796 -4.8042025,4.84133 -1.7908774,1.951 -1.776479,1.85812 -0.4895566,3.15772 0.4796533,0.48422 0.9474561,0.95679 1.039726,1.05 0.092408,0.0929 0.175103,0.24828 0.1840595,0.34468 0.015236,0.16382 0.7772019,1.01996 3.5336743,3.97041 0.6189134,0.6625 1.4372697,1.5527 1.8185512,1.97821 0.3812921,0.42549 1.1455792,1.26948 1.6984272,1.87543 l 1.005181,1.10177 0.361347,-0.075 c 0.289015,-0.0603 0.460662,-0.19843 0.857264,-0.69019 0.272742,-0.33812 0.487664,-0.70344 0.477601,-0.8117 -0.01007,-0.10826 -0.89131,-1.53176 -1.958325,-3.1633 -3.3579678,-5.13455 -3.0971554,-4.76938 -3.5379967,-4.9536 -0.9641616,-0.4029 -1.3875865,-1.11028 -1.0870636,-1.81611 0.090132,-0.21172 0.1853175,-0.74495 0.2115168,-1.1851 0.071136,-1.19495 0.2943389,-1.66313 1.3419871,-2.81495 0.4973297,-0.54676 0.9633883,-1.12913 1.0356905,-1.29411 0.0782,-0.17847 2.2116419,-2.40654 5.2656879,-5.49924 l 5.13422,-5.19924 0.566774,0.29608 c 0.684504,0.35762 0.808546,0.34788 1.14816,-0.0906 0.145004,-0.18719 0.234022,-0.27243 0.197854,-0.18938 -0.03618,0.0831 -0.01424,0.1632 0.04879,0.17803 0.130157,0.0309 0.400725,-0.37674 0.310237,-0.46724 -0.03251,-0.0325 0.07291,-0.19891 0.234329,-0.36965 0.199681,-0.21141 0.332081,-0.27195 0.414347,-0.18974 0.0665,0.0665 0.177917,0.0637 0.247618,-0.01 0.07719,-0.0772 0.0567,-0.15787 -0.05237,-0.20644 -0.223259,-0.0995 -0.115629,-0.21636 0.26193,-0.28447 0.181898,-0.0329 0.7094,-0.42757 1.428615,-1.06901 1.261861,-1.12548 3.814063,-2.97938 4.475515,-3.25099 0.233725,-0.0959 0.497877,-0.24737 0.586998,-0.33649 0.580554,-0.5806 1.674084,0.32223 2.74146,2.26329 1.810972,3.29337 1.608425,3.00698 3.592642,5.07945 l 1.835953,1.91765 0.575012,-0.57503 c 0.828769,-0.82877 1.019618,-0.85926 1.507845,-0.24097 0.216078,0.27362 1.064652,1.1848 1.885725,2.02477 0.821069,0.84002 1.349967,1.43717 1.175329,1.32706 -0.174637,-0.11011 0.771033,0.89758 2.101491,2.23925 l 2.419033,2.43947 0.316941,-0.15767 c 0.174321,-0.0868 1.035701,-0.85603 1.914175,-1.70963 1.270973,-1.23496 1.581631,-1.58357 1.521064,-1.70663 z M 37.961587,257.38638 c -0.832964,0.34203 -1.376631,0.0138 -1.972886,-1.19033 -0.32042,-0.64717 -0.346304,-1.19067 -0.04963,-1.04236 0.06728,0.0337 0.135923,0.008 0.152499,-0.0665 0.01655,-0.0702 0.06301,-0.0947 0.103149,-0.0546 0.136982,0.13698 0.47687,-0.2734 0.437333,-0.528 -0.05565,-0.35852 0.143354,-0.31556 0.315648,0.0681 0.337355,0.75125 1.241853,1.28876 2.013519,1.19655 0.540395,-0.0643 0.637036,-0.20942 0.463832,-0.69544 -0.13537,-0.37985 -0.194754,-0.44008 -0.597206,-0.60533 -0.569788,-0.23394 -0.77672,-0.4448 -0.970649,-0.98901 -0.180253,-0.50579 -0.02482,-0.67411 0.982062,-1.06341 0.326463,-0.12623 0.661533,-0.29744 0.744609,-0.38052 0.222793,-0.22277 0.614576,-0.144 0.949595,0.19104 0.241269,0.24128 0.297333,0.46954 0.30623,1.24681 0.005,0.52331 -0.03395,1.06186 -0.08883,1.19687 -0.173233,0.42636 -2.331812,2.52838 -2.789283,2.71622 z"
       id="path4567"
       sodipodi:nodetypes="cscscscccscccsscccscccssccccccsccccssccccccccscccsscccccsccccccccsscssscsscscsssssssssssssscsccccsssssscsccccsscsccccccccccsccccccccccccscssccscssscscccsccccccsccsccscsccsscccc" />
  </g>
</svg>
