<?xml version="1.0" encoding="UTF-8" standalone="no"?>
<!-- Created with Inkscape (http://www.inkscape.org/) -->

<svg
   xmlns:dc="http://purl.org/dc/elements/1.1/"
   xmlns:cc="http://creativecommons.org/ns#"
   xmlns:rdf="http://www.w3.org/1999/02/22-rdf-syntax-ns#"
   xmlns:svg="http://www.w3.org/2000/svg"
   xmlns="http://www.w3.org/2000/svg"
   xmlns:sodipodi="http://sodipodi.sourceforge.net/DTD/sodipodi-0.dtd"   
   width="220"
   height="235"
   viewBox="0 0 58.208332 62.177085"
   version="1.1"
   id="svg8"   
   sodipodi:docname="p90.svg" >
  <defs
     id="defs2" />
  <sodipodi:namedview
     id="base"
     pagecolor="#000000"
     bordercolor="#666666"
     borderopacity="1.0"
     showgrid="false"
     units="px" />
  <metadata
     id="metadata5">
    <rdf:RDF>
      <cc:Work
         rdf:about="">
        <dc:format>image/svg+xml</dc:format>
        <dc:type
           rdf:resource="http://purl.org/dc/dcmitype/StillImage" />
        <dc:title></dc:title>
      </cc:Work>
    </rdf:RDF>
  </metadata>
  <g
     id="layer1"
     transform="translate(0,-234.8229)">
    <path
       style="fill:none;stroke:#fffffd;stroke-width:0.4;stroke-opacity:1;stroke-miterlimit:4;stroke-dasharray:none"
       d="m 50.524885,262.3943 c 0.886947,-1.05135 1.321563,-2.04051 1.4759,-3.35925 0.239069,-2.04279 -0.430291,-4.01827 -1.843077,-5.4397 -0.385718,-0.38801 -0.454614,-0.52358 -0.478226,-0.94064 -0.02756,-0.48669 -0.02654,-0.48836 0.810606,-1.37837 0.677261,-0.71994 0.914051,-0.91522 1.233497,-1.01685 0.710027,-0.22599 0.935567,-0.14518 1.693287,0.60672 0.448787,0.44521 0.743287,0.67048 0.859449,0.65716 0.234713,-0.0272 1.212383,-0.82486 1.255376,-1.02451 0.01995,-0.093 -0.300871,-0.56011 -0.786235,-1.14453 -0.451041,-0.54305 -1.079708,-1.31915 -1.39704,-1.72454 -1.191765,-1.5227 -1.482344,-1.72689 -2.512625,-1.76578 -0.209414,-0.01 -0.407719,-0.0413 -0.440678,-0.0742 -0.03297,-0.0329 0.274103,-0.39393 0.682359,-0.80218 0.516754,-0.51677 0.726323,-0.78622 0.689739,-0.8868 -0.04206,-0.11564 -0.02364,-0.13402 0.09194,-0.0921 0.0795,0.0291 0.247975,-0.0511 0.374426,-0.17736 0.177359,-0.17737 0.19388,-0.26596 0.07224,-0.38759 -0.08759,-0.0876 -0.105096,-0.21023 -0.03938,-0.27586 0.06572,-0.0659 0.188311,-0.0485 0.275898,0.0396 0.132497,0.1325 0.210197,0.10512 0.487067,-0.17176 0.18118,-0.18114 0.405535,-0.49173 0.498566,-0.69019 0.13275,-0.28312 0.222772,-0.37314 0.418371,-0.41838 0.145493,-0.0336 0.532238,-0.34056 0.929258,-0.73763 l 0.680044,-0.68006 -0.256463,-0.17704 c -0.279932,-0.19328 -2.103655,-1.35337 -2.32118,-1.47652 -0.140902,-0.0798 -0.782687,0.59445 -1.129271,1.18632 -0.104109,0.1778 -0.276429,0.31454 -0.470285,0.37324 -0.265625,0.0805 -0.301432,0.12186 -0.271551,0.31434 0.023,0.14826 -0.04993,0.279 -0.22019,0.39458 -0.153913,0.1045 -0.219791,0.20769 -0.166583,0.26092 0.153112,0.15307 -0.121218,0.31127 -0.328956,0.18964 -0.214532,-0.12556 -0.682526,0.21775 -0.519302,0.38095 0.06298,0.063 0.0352,0.0934 -0.09624,0.10566 -0.101599,0.01 -0.334013,0.17067 -0.516472,0.35822 -0.182338,0.1877 -0.360402,0.34101 -0.395424,0.34099 -0.03505,0 -0.5838,-0.506 -1.219522,-1.12451 -1.393895,-1.35621 -2.252332,-2.07327 -3.776578,-3.15466 -0.63404,-0.44985 -1.285262,-0.91347 -1.447172,-1.03037 -0.319332,-0.23044 -0.504571,-0.23804 -1.183665,-0.0485 -0.27463,0.0766 -0.503428,0.0647 -0.599549,-0.0312 -0.103049,-0.10282 -0.182007,-0.10193 -0.234267,0.006 -0.04335,0.0867 -1.512944,1.59676 -3.265749,3.35567 -9.017587,9.04914 -9.136339,9.17287 -9.008786,9.39077 0.09906,0.16922 0.06459,0.23551 -0.235371,0.45276 -0.334412,0.24221 -0.34419,0.27488 -0.202095,0.6761 0.08214,0.23181 0.118333,0.45254 0.08046,0.4904 -0.03789,0.0379 -0.01903,0.0806 0.0419,0.0949 0.06093,0.0143 0.223212,0.34988 0.360628,0.74549 0.137413,0.39561 0.263959,0.73342 0.281221,0.75069 0.01727,0.0173 0.227376,0.56866 0.466924,1.22534 0.239554,0.65666 0.520989,1.40997 0.625423,1.6741 l 0.189877,0.48017 -1.46514,1.46689 c -0.80572,0.80692 -3.689856,3.6762 -6.409062,6.37635 -7.745767,7.69153 -9.246488,9.19409 -13.6287356,13.64537 -2.2583398,2.29392 -4.21994,4.23421 -4.3590769,4.31186 -0.4069484,0.22702 -1.3175847,1.20328 -1.4350024,1.5384 -0.1017883,0.29055 -0.076208,0.33943 0.4466043,0.85432 0.3050795,0.30032 1.0916174,0.96681 1.7479957,1.48103 2.6981113,2.11367 6.9254399,6.1893 7.7457609,7.46783 0.135562,0.21124 0.445807,0.60163 0.689439,0.86753 0.592027,0.64605 0.756954,0.61881 1.639929,-0.27083 0.367028,-0.37001 0.761387,-0.75603 0.87633,-0.85783 0.114854,-0.10191 2.506488,-2.53447 5.314728,-5.40573 4.299298,-4.39569 5.101855,-5.25212 5.08017,-5.42119 -0.04449,-0.34673 0.650789,-0.90729 2.084831,-1.68092 0.752935,-0.4062 1.507586,-0.79985 1.676997,-0.87474 0.169423,-0.0747 0.38555,-0.18768 0.480299,-0.25061 0.238727,-0.15858 2.525668,-1.36297 2.837684,-1.49447 0.140127,-0.0591 0.327594,-0.18014 0.416606,-0.26914 0.08899,-0.089 0.41771,-0.16184 0.730461,-0.16184 h 0.568618 l 2.253528,-2.32527 c 2.232081,-2.30306 2.260148,-2.33657 2.948855,-3.52167 1.170598,-2.01445 1.700262,-3.96842 1.734239,-6.39798 l 0.01688,-1.20606 0.63966,-0.67366 c 1.319702,-1.38972 1.639568,-1.54775 2.383138,-1.1772 0.347947,0.17338 0.454412,0.30389 0.914161,1.12026 1.014545,1.80165 1.193674,2.00014 1.58204,1.75324 0.329785,-0.20974 2.722129,-2.55451 3.27546,-3.21039 z m -17.462908,10.22321 c -0.595283,0.40648 -1.627194,0.62838 -2.307848,0.49626 -0.258241,-0.0503 -0.694712,-0.23352 -0.969934,-0.40756 -1.065939,-0.67406 -1.515136,-1.79044 -1.16258,-2.88943 0.189373,-0.5903 0.198956,-0.60167 2.137943,-2.52867 1.896105,-1.88444 1.963,-1.94083 2.524268,-2.13014 1.49036,-0.50261 2.718005,0.82899 2.23108,2.42001 -0.473133,1.54591 -1.527391,4.10922 -1.907872,4.63867 -0.02224,0.0309 -0.267522,0.21127 -0.545057,0.40086 z m 12.758062,-13.62608 c -0.38024,0.20609 -0.687579,0.27107 -1.122515,0.2373 -0.698783,-0.054 -1.146145,0.0639 -1.470711,0.38855 -0.175311,0.17531 -0.262127,0.19432 -0.353304,0.0773 -0.06648,-0.0852 -0.212886,-0.19143 -0.325344,-0.23591 -0.292903,-0.11589 -1.175682,-1.16532 -1.249716,-1.48561 -0.03439,-0.14883 -0.01225,-0.50626 0.04918,-0.79427 0.08967,-0.42037 0.20737,-0.61938 0.596468,-1.00849 0.407402,-0.40741 0.569476,-0.49817 1.015535,-0.56888 0.29192,-0.0463 0.639157,-0.0737 0.77164,-0.0608 0.132483,0.013 0.454338,-0.0367 0.715232,-0.1097 0.969142,-0.27173 2.10917,0.24501 2.411346,1.09295 0.16665,0.46761 0.117066,1.1013 -0.125547,1.60472 -0.213572,0.44312 -0.314778,0.53882 -0.912257,0.86268 z m -12.633271,-6.53292 -0.198,-0.60479 0.457501,-0.36019 c 0.251611,-0.1981 0.790402,-0.63029 1.197282,-0.96045 1.355848,-1.10017 2.331589,-1.865 2.924555,-2.29235 0.322934,-0.23279 0.82065,-0.65087 1.106039,-0.9291 0.285377,-0.27823 0.848969,-0.74333 1.252395,-1.03359 0.661619,-0.47598 0.377012,-0.1694 -2.904136,3.12882 l -3.637654,3.65644 z"
       id="path4686"       
       sodipodi:nodetypes="cscsscccccccssccsssssccscccccccscscccccccccscccsccsccccccccccccccccccscsccscscccsccccccccccccccsccscsccccccccccscccccc" />
  </g>
</svg>
