<?xml version="1.0" encoding="UTF-8" standalone="no"?>
<!-- Created with Inkscape (http://www.inkscape.org/) -->

<svg
   xmlns:dc="http://purl.org/dc/elements/1.1/"
   xmlns:cc="http://creativecommons.org/ns#"
   xmlns:rdf="http://www.w3.org/1999/02/22-rdf-syntax-ns#"
   xmlns:svg="http://www.w3.org/2000/svg"
   xmlns="http://www.w3.org/2000/svg"
   xmlns:sodipodi="http://sodipodi.sourceforge.net/DTD/sodipodi-0.dtd"   
   width="220"
   height="235"
   viewBox="0 0 58.208332 62.177085"
   version="1.1"
   id="svg8"   
   sodipodi:docname="pp19-bizon.svg" >
  <defs
     id="defs2" />
  <sodipodi:namedview
     id="base"
     pagecolor="#000000"
     bordercolor="#666666"
     borderopacity="1.0"
     showgrid="false"
     units="px" />
  <metadata
     id="metadata5">
    <rdf:RDF>
      <cc:Work
         rdf:about="">
        <dc:format>image/svg+xml</dc:format>
        <dc:type
           rdf:resource="http://purl.org/dc/dcmitype/StillImage" />
        <dc:title></dc:title>
      </cc:Work>
    </rdf:RDF>
  </metadata>
  <g
     id="layer1"
     transform="translate(0,-234.8229)">
    <path
       style="fill:none;stroke:#fffffd;stroke-width:0.4;stroke-opacity:1;stroke-miterlimit:4;stroke-dasharray:none"
       d="m 30.707374,280.13728 c -1.539709,0.62044 -1.720106,0.67508 -2.002649,0.60657 -0.498088,-0.12077 -0.591639,-0.28343 -1.854603,-3.22512 -0.64825,-1.5099 -1.281921,-2.94087 -1.408159,-3.17995 -0.286066,-0.54176 -0.548838,-0.80619 -1.194634,-1.20223 -0.278985,-0.17108 -0.575601,-0.37942 -0.659156,-0.46298 l -0.151915,-0.15192 -0.553417,0.61972 c -0.435024,0.48715 -0.640873,0.78141 -0.962229,1.37554 -0.27172,0.50237 -0.474042,0.80401 -0.603338,0.89954 -0.199806,0.14761 -0.703677,1.0428 -4.805765,8.53807 -0.957452,1.74946 -2.47174,4.5096 -3.365086,6.13365 -2.657986,4.83208 -2.805169,5.10597 -2.872912,5.34618 -0.04476,0.15872 -0.182494,0.34892 -0.4429078,0.61163 -0.5859998,0.59117 -0.4933273,0.63897 -1.7856454,-0.92104 -1.361644,-1.64369 -2.9359233,-3.17168 -4.5189316,-4.38608 -0.6109122,-0.46866 -1.0185284,-0.81821 -1.0433356,-0.89472 -0.055815,-0.1721 0.2730545,-0.6003 0.6742449,-0.87789 0.2501646,-0.17309 0.9227052,-0.89789 2.9177369,-3.14452 1.4259507,-1.60576 3.7648076,-4.22789 5.1974606,-5.82695 6.505685,-7.26137 6.722624,-7.50848 6.755495,-7.69507 0.02345,-0.13308 0.1729,-0.32031 0.583288,-0.73067 l 0.551766,-0.55178 -0.117825,-0.14897 c -0.07381,-0.0934 -0.09098,-0.19566 -0.04595,-0.27396 0.05196,-0.0904 0.0285,-0.17263 -0.0846,-0.2969 -0.08715,-0.0957 -0.159503,-0.2686 -0.163296,-0.39012 -0.0058,-0.18632 -0.02227,-0.21129 -0.112659,-0.17104 -0.147211,0.0654 -0.199333,-0.006 -0.275709,-0.38188 -0.06337,-0.31133 0.02095,-0.52479 0.191378,-0.48458 0.162769,0.0384 0.199852,-0.12467 0.264629,-1.16408 0.101706,-1.63186 -0.241342,-1.12321 2.814268,-4.17298 1.449488,-1.44688 4.500404,-4.4592 6.779625,-6.69423 2.279224,-2.23504 4.173271,-4.11363 4.208985,-4.17466 0.09213,-0.15738 -0.116357,-0.3016 -0.436031,-0.3016 -0.14565,0 -0.287975,-0.0231 -0.316275,-0.0515 -0.02829,-0.0283 -0.08467,-0.0182 -0.125277,0.0224 -0.05577,0.0557 -0.133976,0.0138 -0.319904,-0.17225 -0.169101,-0.16911 -0.226067,-0.26609 -0.182099,-0.31007 0.0922,-0.0922 0.285521,-0.0787 0.391597,0.0274 0.0846,0.0846 0.09381,0.0775 0.124152,-0.0947 0.04471,-0.25383 0.234816,-0.42717 0.476779,-0.43472 0.17046,-0.004 0.305166,-0.0995 0.872862,-0.60997 0.879058,-0.7905 1.483647,-1.39918 1.604422,-1.61529 0.08371,-0.1498 0.144888,-0.17201 0.438454,-0.15912 0.19203,0.008 0.388038,-0.0319 0.448401,-0.0923 0.09547,-0.0954 0.133503,-0.081 0.346379,0.1319 l 0.239137,0.23913 3.798304,-3.72554 c 2.089067,-2.04904 3.808578,-3.76908 3.821149,-3.82227 0.0168,-0.0711 -0.01723,-0.0905 -0.128563,-0.0733 -0.09348,0.0146 -0.170935,-0.0204 -0.202456,-0.0911 -0.04317,-0.0969 0.0036,-0.16119 0.303561,-0.41656 0.231661,-0.19724 0.400166,-0.29483 0.485987,-0.2815 0.112842,0.0175 0.204704,-0.0649 0.651424,-0.58486 0.429494,-0.49984 0.552312,-0.61224 0.705323,-0.64548 0.153359,-0.0334 0.203664,-0.0795 0.292087,-0.26808 0.08242,-0.17581 0.162717,-0.25761 0.351487,-0.35811 0.243961,-0.1299 0.392289,-0.24168 0.524126,-0.39499 0.04656,-0.0542 -0.01488,-0.22393 -0.185824,-0.51352 -0.315606,-0.53464 -0.306688,-0.7395 0.04872,-1.11891 0.460151,-0.49125 0.390759,-0.52815 1.875661,0.99733 1.187849,1.22033 1.293771,1.31597 1.387967,1.25302 0.05608,-0.0374 0.204947,-0.016 0.330797,0.0476 l 0.228813,0.1157 0.287071,-0.30247 c 0.157879,-0.16636 0.530521,-0.66081 0.828085,-1.09877 0.349803,-0.51485 0.709383,-0.96466 1.017385,-1.27267 0.472566,-0.47256 0.477956,-0.47571 0.670703,-0.40001 0.114621,0.0451 0.438027,0.31896 0.788405,0.66781 0.498158,0.49591 0.601859,0.6289 0.642373,0.82333 l 0.04831,0.23189 -0.624381,0.57008 c -0.343416,0.31355 -0.823698,0.70298 -1.067311,0.86541 -0.24361,0.16241 -0.638902,0.46418 -0.878434,0.67061 -0.418673,0.3608 -0.434873,0.38427 -0.419297,0.60738 0.01686,0.24147 -0.142378,0.49149 -0.212591,0.33381 -0.03097,-0.0695 -0.191143,0.0657 -0.765793,0.64656 -0.399644,0.40396 -0.725293,0.75357 -0.72367,0.77689 0.0016,0.0235 0.06124,0.12814 0.132471,0.23285 0.116366,0.17108 0.14125,0.17866 0.245168,0.0747 0.217319,-0.21733 0.484709,-0.36181 0.549554,-0.29697 0.03693,0.037 0.172475,-0.007 0.315226,-0.10312 0.21824,-0.14629 0.280504,-0.15271 0.484141,-0.05 0.954789,0.48193 2.966416,2.57202 3.554568,3.69323 0.226124,0.43105 0.215993,0.56899 -0.06579,0.89563 -0.125356,0.14533 -0.442867,0.69583 -0.705565,1.22333 -0.430261,0.86398 -0.469042,0.97812 -0.391022,1.15074 0.103758,0.22958 0.01273,0.33955 -0.426481,0.51519 -0.34446,0.13775 -0.358608,0.13336 -0.952978,-0.29662 l -0.406683,-0.29418 -0.2843,0.22571 c -0.156368,0.12415 -3.099814,3.01348 -6.540999,6.42073 l -6.256694,6.19499 -1.124285,1.52882 c -1.02442,1.39301 -1.143936,1.5358 -1.345538,1.60743 -0.190838,0.0678 -0.358225,0.0219 -1.217624,-0.33439 -0.548005,-0.22717 -1.266865,-0.51416 -1.597466,-0.63776 -0.330603,-0.1236 -0.650036,-0.26926 -0.709856,-0.32368 -0.247962,-0.22561 0.06514,0.23277 0.382042,0.55926 0.264699,0.27274 0.327685,0.37978 0.34641,0.5887 0.01459,0.1629 0.179333,0.52169 0.454925,0.99086 0.237621,0.4045 0.432039,0.76007 0.432039,0.79014 10e-7,0.14534 -0.130141,0.0196 -0.328422,-0.31743 -0.26109,-0.44374 -0.363324,-0.55296 -0.6005,-0.64166 -0.224412,-0.084 -0.495615,0.0437 -0.721252,0.33914 -0.164169,0.21503 -0.164824,0.2377 -0.01123,0.39128 0.100858,0.10086 0.17031,0.25986 0.182117,0.41693 0.01844,0.24539 -0.0011,0.27626 -0.579815,0.92128 -1.11817,1.24602 -2.270692,2.3716 -2.504605,2.44606 -0.285758,0.091 -0.717078,0.046 -0.942407,-0.0981 -0.17088,-0.10933 -0.194497,-0.104 -0.308117,0.0694 -0.155612,0.23744 -0.214438,0.49616 -0.165835,0.72936 0.02089,0.10017 0.503829,1.28872 1.073229,2.64121 0.569396,1.3525 1.183775,2.81576 1.365286,3.2517 0.350659,0.84222 0.383922,0.89161 0.804787,1.19534 0.255634,0.18449 0.269575,0.21152 0.259643,0.50321 -0.0098,0.28874 -0.03445,0.33189 -0.389272,0.68192 -0.349223,0.34449 -0.455429,0.40455 -1.361023,0.76947 z M 9.508349,293.409 c 0.3279926,-0.51509 1.365866,-2.37109 2.795853,-4.99972 0.572236,-1.0519 1.693568,-3.09764 2.491849,-4.54606 1.547724,-2.80826 3.338444,-6.08097 3.668748,-6.70499 0.180801,-0.34156 0.187696,-0.3951 0.06973,-0.54122 -0.196574,-0.2435 -0.240362,-0.46386 -0.166156,-0.83617 0.03686,-0.18495 0.06867,-0.45063 0.0707,-0.59041 0.0021,-0.13978 0.01409,-0.36593 0.02682,-0.50257 0.01274,-0.13662 5.25e-4,-0.24842 -0.02714,-0.24842 -0.06835,0 -3.252688,3.62384 -6.134505,6.98117 -1.300307,1.51487 -3.1164973,3.61874 -4.0359841,4.67528 -1.7726708,2.0369 -3.165422,3.68591 -3.2389538,3.83491 -0.034244,0.0694 0.032963,0.15295 0.2940048,0.36549 0.1861344,0.15153 0.6076327,0.50588 0.9366821,0.78743 0.3528737,0.30191 0.6571252,0.51736 0.7417487,0.52522 0.1905899,0.0176 1.1343516,1.00873 1.1890244,1.24855 0.07864,0.34497 0.8660419,1.16029 0.995509,1.03082 0.02556,-0.0255 0.1704966,-0.24124 0.3220856,-0.47931 z m 22.894007,-25.19678 c 0.664716,-0.73604 0.867725,-0.99646 0.900906,-1.15576 l 0.04284,-0.20563 -1.078413,-1.02633 c -0.593121,-0.56448 -1.060345,-1.04439 -1.03827,-1.06646 0.02207,-0.022 0.09957,9e-5 0.172203,0.0493 0.07264,0.0493 0.02984,-0.0189 -0.09513,-0.15118 l -0.227201,-0.24062 -0.978893,1.04414 -0.97889,1.04413 -0.0097,0.55996 c -0.0054,0.30796 0.01296,0.634 0.04068,0.72453 0.105713,0.34517 0.653754,0.71479 1.096878,0.73975 0.09822,0.004 0.317803,-0.021 0.487984,-0.0589 0.170181,-0.0379 0.309421,-0.0458 0.30942,-0.0175 2e-6,0.12131 -0.38381,0.28066 -0.743176,0.30855 -0.519463,0.0403 -1.032335,-0.15139 -1.415216,-0.52901 -0.181816,-0.17932 -0.362533,-0.30228 -0.465136,-0.31652 -0.09229,-0.0128 -0.220267,-0.0758 -0.284398,-0.13989 -0.103902,-0.10391 -0.13425,-0.0956 -0.278535,0.0758 l -0.161932,0.19246 0.813701,0.79947 c 0.769135,0.75566 0.814074,0.81139 0.820511,1.01759 0.006,0.19248 0.03322,0.23144 0.23128,0.33122 0.251568,0.12671 0.563156,0.13654 0.820631,0.0258 0.219506,-0.0943 0.929328,-0.79963 2.017904,-2.00496 z m -13.165276,7.5419 c 0.156148,-0.27695 0.285962,-0.51322 0.28848,-0.52502 0.0042,-0.0194 -0.684389,-0.23394 -0.78325,-0.24406 -0.02263,-0.005 -0.03295,0.1017 -0.02292,0.23114 0.01003,0.12942 -0.0085,0.36356 -0.04133,0.52029 -0.07426,0.35524 -0.05763,0.53297 0.06095,0.65154 0.06474,0.0646 0.110552,0.059 0.15326,-0.0191 0.03351,-0.0613 0.188674,-0.33795 0.344821,-0.6149 z m 29.308172,-31.36295 c 0.0036,-0.43641 -0.0049,-0.80463 -0.0184,-0.81827 -0.01363,-0.0137 -0.212738,0.16314 -0.442439,0.39284 l -0.417638,0.41764 0.07166,0.29747 c 0.03942,0.1636 0.08992,0.3587 0.112239,0.43354 0.03853,0.12918 -0.157036,0.33338 -3.862198,4.03275 -3.887247,3.88118 -3.904244,3.89903 -4.271702,4.48878 l -0.368924,0.59209 1.575974,-1.52464 c 0.866787,-0.83856 2.934761,-2.87332 4.595502,-4.52169 l 3.019538,-2.99702 z"
       id="path4673"       
       sodipodi:nodetypes="ccsccsccccscccsccccscsccccccccscsccssssscccccsscsccccccccccccccccccsccccccccccccssccccccccccscscccccccccccscscsccssscccccsscccccccsccccssccsccscsccccccccsccsccccccccsccccscscsscccccccccc" />
  </g>
</svg>
