<?xml version="1.0" encoding="UTF-8" standalone="no"?>
<!-- Created with Inkscape (http://www.inkscape.org/) -->

<svg
   xmlns:dc="http://purl.org/dc/elements/1.1/"
   xmlns:cc="http://creativecommons.org/ns#"
   xmlns:rdf="http://www.w3.org/1999/02/22-rdf-syntax-ns#"
   xmlns:svg="http://www.w3.org/2000/svg"
   xmlns="http://www.w3.org/2000/svg"
   xmlns:sodipodi="http://sodipodi.sourceforge.net/DTD/sodipodi-0.dtd"   
   width="220"
   height="235"
   viewBox="0 0 58.208332 62.177085"
   version="1.1"
   id="svg8"   
   sodipodi:docname="sterling.svg">
  <defs
     id="defs2" />
  <sodipodi:namedview
     id="base"
     pagecolor="#000000"
     bordercolor="#666666"
     borderopacity="1.0"
     showgrid="false"
     units="px" />
  <metadata
     id="metadata5">
    <rdf:RDF>
      <cc:Work
         rdf:about="">
        <dc:format>image/svg+xml</dc:format>
        <dc:type
           rdf:resource="http://purl.org/dc/dcmitype/StillImage" />
        <dc:title></dc:title>
      </cc:Work>
    </rdf:RDF>
  </metadata>
  <g
     id="layer1"
     transform="translate(0,-234.8229)">
    <path
       style="fill:none;stroke:#fffffd;stroke-width:0.4;stroke-opacity:1;stroke-miterlimit:4;stroke-dasharray:none"
       d="m 14.23488,295.6099 c -0.332897,0.25093 -0.915623,0.32223 -1.102899,0.13496 -0.047,-0.0469 -0.161066,-0.10743 -0.253507,-0.1343 -0.09245,-0.0268 -0.350301,-0.17588 -0.573021,-0.3311 -0.222723,-0.15522 -0.660244,-0.44859 -0.972277,-0.65192 -0.312028,-0.20336 -0.678824,-0.455 -0.815097,-0.55924 -0.136276,-0.10422 -0.345054,-0.23279 -0.463948,-0.28569 -0.2025114,-0.0902 -0.989744,-0.63099 -2.0735565,-1.42473 -0.2578304,-0.18882 -0.5838448,-0.40375 -0.7244751,-0.4776 -0.4033178,-0.2118 -1.4761391,-0.96361 -1.7174,-1.20352 -0.3320349,-0.33013 -0.5991768,-0.84655 -0.6313694,-1.22041 -0.052189,-0.60614 0.2023693,-1.03854 1.7127967,-2.90954 0.7673636,-0.95054 1.6643462,-2.07757 1.9932921,-2.50451 0.3289487,-0.42693 0.8490253,-1.08754 1.155728,-1.46798 0.3067022,-0.38047 0.7270212,-0.91593 0.9340402,-1.18993 0.517065,-0.68435 1.122365,-1.44219 2.917323,-3.65247 0.295144,-0.36345 0.633519,-0.81219 0.751944,-0.9972 0.118424,-0.18504 0.382841,-0.47812 0.587594,-0.6513 0.641724,-0.5428 0.988645,-0.92244 1.464161,-1.60225 0.435525,-0.62266 0.542227,-0.76557 1.103099,-1.47752 0.12713,-0.16137 0.231139,-0.34595 0.231137,-0.41017 1e-6,-0.19421 -0.261027,-0.24733 -0.422394,-0.0859 -0.0833,0.0832 -0.21298,0.12405 -0.288184,0.0907 -0.196237,-0.0874 -0.947584,-0.85379 -0.891808,-0.90967 0.02575,-0.0257 -0.02056,-0.12253 -0.102898,-0.21496 -0.235276,-0.26413 -0.371309,-0.6696 -0.282289,-0.8414 0.04471,-0.0863 0.0391,-0.16691 -0.01248,-0.17909 -0.05159,-0.0124 -0.06402,-0.052 -0.02764,-0.0883 0.03638,-0.0363 0.02676,-0.10554 -0.02138,-0.15368 -0.04814,-0.0482 -0.04472,-0.25353 0.0075,-0.45642 0.09093,-0.35268 0.129449,-0.39766 0.877394,-1.02447 0.430253,-0.36057 0.789219,-0.68499 0.7977,-0.72093 0.0084,-0.0358 -0.085,-0.20398 -0.20776,-0.37346 -0.17256,-0.23824 -0.216664,-0.42069 -0.194435,-0.8043 0.02667,-0.4603 0.05709,-0.52474 0.420727,-0.89168 0.311824,-0.31466 0.466822,-0.4098 0.758022,-0.46537 0.478418,-0.0913 1.012358,0.0871 1.389681,0.4645 l 0.29914,0.29915 0.703018,-0.70256 c 1.809304,-1.80787 8.658145,-8.51429 8.774478,-8.59204 0.07207,-0.0482 0.108614,-0.11003 0.08138,-0.13725 -0.02731,-0.0272 0.0025,-0.0938 0.06604,-0.14804 0.08875,-0.0753 0.05561,-0.17934 -0.14229,-0.44603 -0.141902,-0.19122 -0.253616,-0.36122 -0.248258,-0.37777 0.0051,-0.0164 0.01955,-0.14276 0.03153,-0.28046 0.01398,-0.16054 0.08296,-0.28208 0.192282,-0.33871 0.138677,-0.0719 0.222162,-0.0366 0.447395,0.18856 0.15496,0.15496 0.24748,0.30633 0.210089,0.34371 -0.03675,0.0366 0.0052,0.12109 0.09369,0.18742 0.151858,0.11409 0.193482,0.0897 0.771493,-0.45407 0.367288,-0.34546 0.635399,-0.65532 0.672217,-0.77692 0.03891,-0.12849 0.243293,-0.35742 0.56044,-0.62775 0.846956,-0.72194 2.999742,-2.70157 3.996441,-3.67498 0.521463,-0.50928 1.914983,-1.84256 3.096717,-2.96284 1.181734,-1.12026 3.248262,-3.10175 4.592282,-4.4033 1.344017,-1.30158 2.913929,-2.7958 3.488682,-3.32051 1.362213,-1.2436 1.408095,-1.34109 0.917398,-1.94949 -0.395241,-0.49006 -0.417604,-0.55559 -0.294648,-0.86358 0.0647,-0.16205 0.200193,-0.29295 0.494389,-0.47768 0.222906,-0.13993 0.423459,-0.25088 0.44567,-0.24654 0.02222,0.004 0.22643,0.036 0.453813,0.0707 0.227385,0.0345 0.453918,0.0891 0.50341,0.12128 0.0495,0.0323 0.148108,0.0847 0.219144,0.11683 0.07105,0.0321 0.219214,0.1161 0.329285,0.18683 0.130866,0.084 0.30997,0.0895 0.517507,0.0152 0.17456,-0.0623 0.435123,-0.0771 0.57903,-0.0332 0.143907,0.0438 0.432352,0.13195 0.640988,0.19553 0.518863,0.15812 1.29101,0.91347 1.303816,1.27543 0.01272,0.35995 -0.17536,0.91181 -0.380801,1.11725 -0.09899,0.099 -0.172437,0.26122 -0.163209,0.3605 0.0147,0.15824 -0.157601,0.34605 -1.397271,1.52286 -0.777725,0.73829 -2.891116,2.78885 -4.696417,4.55681 -1.805303,1.76795 -3.588705,3.49846 -3.963126,3.84556 -0.374432,0.34708 -1.669051,1.6106 -2.876959,2.80777 l -2.196182,2.17669 -8.02e-4,0.41836 c -4.34e-4,0.23011 0.05306,0.58473 0.118919,0.78803 0.112586,0.34759 0.138291,0.37624 0.430361,0.47969 0.431775,0.15294 0.996787,0.74774 1.083353,1.14045 0.03723,0.16891 0.0937,0.39353 0.125517,0.49917 0.03181,0.10562 0.02982,0.36061 -0.0046,0.56662 -0.03422,0.20601 -0.06799,0.43656 -0.07505,0.51233 -0.03082,0.33079 -0.260408,0.83304 -0.639451,1.3989 -0.697705,1.04155 -1.441499,1.39723 -2.705673,1.29389 -0.621107,-0.0508 -0.712459,-0.0355 -0.673681,0.11145 0.02467,0.0937 0.02219,0.14926 -0.0053,0.12365 -0.06476,-0.06 -0.247104,0.50632 -0.183532,0.5699 0.04892,0.0489 -0.241471,1.01399 -0.332481,1.10502 -0.184534,0.18453 -0.0794,1.98139 0.128067,2.18887 0.03932,0.0393 0.08087,0.22546 0.09232,0.41366 0.01904,0.31279 0.399759,2.41718 0.530613,2.93291 0.03618,0.14265 0.201998,0.34526 0.48115,0.588 0.472132,0.41057 0.682445,0.72991 0.682445,1.03629 0,0.301 -0.889005,1.0714 -1.257716,1.08994 -0.145407,0.008 -0.617394,0.0838 -1.048856,0.17012 -1.036061,0.20714 -1.529726,0.11898 -1.993473,-0.35599 -0.360224,-0.36892 -0.517133,-0.60911 -0.536753,-0.82161 -0.01166,-0.12629 -0.58313,-2.94488 -1.067924,-5.26718 -0.2486,-1.19089 -0.298649,-1.32941 -0.583052,-1.61381 -0.287612,-0.28761 -0.350337,-0.30925 -0.830449,-0.28666 -0.285638,0.0137 -0.569793,-6.7e-4 -0.63146,-0.0317 -0.09119,-0.0455 -0.122383,-0.01 -0.167104,0.19491 -0.04314,0.19697 -0.382682,0.60902 -1.577496,1.91441 -0.837385,0.9149 -1.945465,2.14005 -2.462402,2.72258 -0.516937,0.58251 -1.938206,2.14106 -3.158376,3.46337 -1.220173,1.32235 -2.476997,2.74593 -2.792947,3.16351 -0.31595,0.41757 -0.861208,1.08112 -1.211684,1.47449 -0.793459,0.89063 -0.890948,1.07296 -0.928287,1.73608 -0.01648,0.29272 -0.06604,0.72107 -0.110102,0.95188 -0.07175,0.37583 -0.205829,1.44593 -0.2017,1.60991 8.46e-4,0.0352 -0.02714,0.28816 -0.06225,0.56203 -0.03514,0.27386 -0.07366,0.60076 -0.08563,0.72649 -0.01197,0.12568 -0.102745,0.99088 -0.201743,1.92261 -0.09899,0.93175 -0.198882,1.92248 -0.221969,2.20161 -0.02308,0.27915 -0.0613,0.57826 -0.08492,0.66471 -0.02362,0.0864 -0.04055,0.18773 -0.0376,0.22502 0.0031,0.0372 -0.02397,0.34772 -0.05982,0.68981 -0.03583,0.34211 -0.07252,0.72711 -0.08151,0.85555 -0.01246,0.17801 -0.201988,1.78969 -0.24216,2.05928 -0.0039,0.025 0.124126,0.0498 0.284168,0.0546 0.236012,0.008 0.302046,0.0455 0.349543,0.20251 0.08294,0.27395 0.01035,0.76075 -0.135146,0.90625 -0.09874,0.0987 -0.145511,0.0861 -0.234921,-0.0631 -0.0843,-0.1408 -0.148185,-0.16504 -0.260905,-0.0991 -0.166705,0.0976 -0.306009,1.5878 -0.193618,2.07125 0.130125,0.55972 0.0011,1.31446 -0.260429,1.52296 -0.04532,0.036 -0.229596,0.17665 -0.409542,0.31227 z m -0.84468,-3.04791 c -0.01402,-0.0594 0.02787,-0.13173 0.09306,-0.16078 0.06521,-0.0291 0.102126,-0.14607 0.08203,-0.26011 -0.02008,-0.11403 -0.004,-0.20733 0.03599,-0.20733 0.03989,1e-5 0.04744,-0.12037 0.0168,-0.26747 -0.03064,-0.14712 -0.01742,-0.30576 0.02936,-0.35255 0.0468,-0.0468 0.06094,-0.20101 0.03142,-0.34271 -0.0295,-0.14168 -0.0191,-0.26576 0.02314,-0.27574 0.04223,-0.01 0.07387,-0.32002 0.07031,-0.68901 -0.0037,-0.36898 0.01914,-0.67694 0.05048,-0.68433 0.03133,-0.008 0.0706,-0.16847 0.08726,-0.35791 0.01666,-0.18945 0.0085,-0.2819 -0.01808,-0.20543 -0.02661,0.0764 -0.03638,-0.10198 -0.02172,-0.39654 0.01467,-0.29455 0.0453,-0.55659 0.06808,-0.58229 0.0777,-0.0877 0.182217,-0.78111 0.117724,-0.78111 -0.03536,0 -0.01751,-0.12106 0.03966,-0.26904 0.05716,-0.14796 0.07308,-0.27633 0.03537,-0.28523 -0.03772,-0.009 -0.04316,-0.13818 -0.0121,-0.28729 0.03106,-0.14911 0.06555,-0.4287 0.07666,-0.62131 0.0111,-0.19262 0.05265,-0.38268 0.09234,-0.42236 0.03969,-0.0397 0.04087,-0.10344 0.0027,-0.14166 -0.105287,-0.1053 0.06965,-1.6263 0.190321,-1.6548 0.05787,-0.0137 0.05879,-0.0356 0.0021,-0.0492 -0.132049,-0.0313 -0.11431,-0.44346 0.02292,-0.53266 0.05727,-0.0371 0.06308,-0.0951 0.01292,-0.12891 -0.08785,-0.059 -0.0504,-0.32157 0.06615,-0.46359 0.03098,-0.0376 0.02245,-0.10505 -0.01893,-0.14955 -0.04138,-0.0444 -0.03157,-0.10917 0.02181,-0.14366 0.05338,-0.0344 0.05549,-0.0725 0.0049,-0.0845 -0.05079,-0.012 -0.0658,-0.20554 -0.03337,-0.43013 0.20267,-1.40349 0.07448,-1.36705 -1.310652,0.37265 -4.7190222,5.92694 -5.2823843,6.6568 -5.2506137,6.80235 0.013126,0.0602 0.1438886,0.26761 0.2905896,0.4611 0.3014881,0.39765 0.5248353,0.88794 0.5427272,1.1914 0.021029,0.35676 0.316342,0.5452 3.4141689,2.17876 0.883987,0.46615 1.217951,0.5306 1.144854,0.22096 z m 24.344041,-31.93436 c -0.07526,0.0285 -0.439879,0.10278 -0.810254,0.1649 -0.535697,0.09 -0.692037,0.0802 -0.764535,-0.0475 -0.05012,-0.0883 -0.178916,-0.28356 -0.286206,-0.43395 -0.162249,-0.22744 -0.213098,-0.25543 -0.302168,-0.16637 -0.134433,0.13444 -0.297397,1.08705 -0.17554,1.02611 0.04931,-0.0247 0.118421,-0.0159 0.15356,0.019 0.03513,0.0351 0.262034,0.0868 0.504208,0.11501 0.552626,0.0641 1.240989,-0.14541 1.569387,-0.47771 0.139164,-0.14106 0.188275,-0.22857 0.111548,-0.19944 z m 0.855104,-1.06495 c 10e-7,-0.10308 0.05118,-0.23862 0.113746,-0.30124 0.214819,-0.21495 0.274378,-1.33673 0.09883,-1.86102 -0.360729,-1.07735 -1.151828,-1.34953 -1.730061,-0.59523 -0.319215,0.41642 -0.87242,1.32289 -0.87242,1.42952 0,0.053 0.119177,0.44303 0.264835,0.8671 0.344987,1.0044 0.691173,1.23664 1.409438,0.94554 0.158921,-0.0643 0.31668,-0.0894 0.350578,-0.0554 0.09603,0.096 0.365056,-0.22024 0.365054,-0.4292 z"
       id="path4740"       
       sodipodi:nodetypes="cscscccccccscsccsccccscccccsscscccccscccscccccsscccscscccccccsccccscscccccccccccccccccsssscccccccsscccsscsccccccccccsccccssccccccccccscccccscccscccsscccccccccscccscccccsscscccccsccccsc" />
  </g>
</svg>
