<?xml version="1.0" encoding="UTF-8" standalone="no"?>
<!-- Created with Inkscape (http://www.inkscape.org/) -->

<svg
   xmlns:dc="http://purl.org/dc/elements/1.1/"
   xmlns:cc="http://creativecommons.org/ns#"
   xmlns:rdf="http://www.w3.org/1999/02/22-rdf-syntax-ns#"
   xmlns:svg="http://www.w3.org/2000/svg"
   xmlns="http://www.w3.org/2000/svg"
   xmlns:sodipodi="http://sodipodi.sourceforge.net/DTD/sodipodi-0.dtd"
   xmlns:inkscape="http://www.inkscape.org/namespaces/inkscape"
   width="220"
   height="235"
   viewBox="0 0 58.208332 62.177085"
   version="1.1"
   id="svg8"
   inkscape:version="0.92.3 (2405546, 2018-03-11)"
   sodipodi:docname="pants.svg">
  <defs
     id="defs2" />
  <sodipodi:namedview
     id="base"
     pagecolor="#000000"
     bordercolor="#666666"
     borderopacity="1.0"
     inkscape:pageopacity="0"
     inkscape:pageshadow="2"
     inkscape:zoom="2.8"
     inkscape:cx="402.42217"
     inkscape:cy="72.564051"
     inkscape:document-units="px"
     inkscape:current-layer="layer1"
     showgrid="false"
     units="px"
     inkscape:window-width="3440"
     inkscape:window-height="1377"
     inkscape:window-x="-8"
     inkscape:window-y="-8"
     inkscape:window-maximized="1" />
  <metadata
     id="metadata5">
    <rdf:RDF>
      <cc:Work
         rdf:about="">
        <dc:format>image/svg+xml</dc:format>
        <dc:type
           rdf:resource="http://purl.org/dc/dcmitype/StillImage" />
        <dc:title></dc:title>
      </cc:Work>
    </rdf:RDF>
  </metadata>
  <g
     inkscape:label="Layer 1"
     inkscape:groupmode="layer"
     id="layer1"
     transform="translate(0,-234.8229)">
    <path
       style="fill:none;stroke:#ffffff;stroke-width:0.40000001;stroke-miterlimit:4;stroke-dasharray:none;stroke-opacity:1"
       d="m 35.750812,295.61704 c -0.01064,-0.0108 -0.108375,-0.0304 -0.21719,-0.0435 -0.369631,-0.0445 -0.584833,-0.087 -0.740826,-0.14652 -0.254038,-0.0969 -0.868839,-0.39706 -1.188156,-0.58015 -0.145801,-0.0836 -0.311023,-0.17644 -0.367162,-0.2063 -0.130709,-0.0695 -0.402523,-0.25175 -0.50623,-0.33936 -0.264646,-0.22358 -0.427094,-0.50461 -0.429235,-0.74256 -0.0016,-0.17972 0.0559,-2.14128 0.07375,-2.51531 0.0075,-0.15679 0.02042,-0.57216 0.02874,-0.92306 0.0083,-0.3509 0.02707,-0.83348 0.04166,-1.07239 0.01459,-0.23891 0.04119,-0.67261 0.05911,-0.96378 0.04151,-0.67436 0.04007,-1.70145 -0.0036,-2.552 -0.01877,-0.36583 -0.04631,-0.92171 -0.06119,-1.23528 -0.01488,-0.31357 -0.03697,-0.74727 -0.0491,-0.96378 -0.01212,-0.21652 -0.03558,-0.68687 -0.05213,-1.04524 -0.02631,-0.56962 -0.08272,-1.44945 -0.125327,-1.95472 -0.0076,-0.0896 -0.0266,-0.31561 -0.04232,-0.50225 -0.01572,-0.18665 -0.03944,-0.48597 -0.0527,-0.66515 -0.03624,-0.48939 -0.05222,-0.68013 -0.08077,-0.96379 -0.01428,-0.14185 -0.03876,-0.4656 -0.05441,-0.71945 -0.01565,-0.25384 -0.04057,-0.60508 -0.05538,-0.78053 -0.06878,-0.81464 -0.0852,-0.98877 -0.0992,-1.05202 -0.0083,-0.0373 -0.02458,-0.17782 -0.03628,-0.31221 -0.03253,-0.37395 -0.102854,-0.95667 -0.175285,-1.45247 -0.03599,-0.24637 -0.08015,-0.57012 -0.09813,-0.71944 -0.06551,-0.54411 -0.07657,-0.62756 -0.106146,-0.8009 -0.01656,-0.0971 -0.04224,-0.25587 -0.05706,-0.35293 -0.01482,-0.0971 -0.03928,-0.24977 -0.05434,-0.33936 -0.01507,-0.0896 -0.03755,-0.24842 -0.04996,-0.35294 -0.01241,-0.10452 -0.03617,-0.2473 -0.05279,-0.31727 -0.01662,-0.07 -0.0551,-0.30821 -0.0855,-0.52941 -0.0304,-0.22119 -0.06726,-0.46325 -0.08192,-0.53791 -0.01465,-0.0747 -0.03891,-0.22127 -0.05389,-0.32579 -0.01499,-0.10452 -0.03906,-0.25724 -0.0535,-0.33936 -0.01444,-0.0821 -0.03347,-0.21041 -0.0423,-0.28507 -0.0088,-0.0747 -0.02279,-0.15407 -0.03103,-0.17646 -0.0082,-0.0224 -0.02478,-0.13235 -0.03676,-0.24434 -0.04314,-0.40319 -0.05777,-0.50312 -0.08147,-0.55656 -0.01325,-0.0299 -0.03007,-0.14592 -0.03739,-0.25791 -0.01239,-0.18958 -0.04419,-0.50686 -0.08298,-0.82804 -0.009,-0.0747 -0.03471,-0.31289 -0.05708,-0.52941 -0.02238,-0.21651 -0.06559,-0.63189 -0.09602,-0.92306 -0.03043,-0.29117 -0.06655,-0.64547 -0.08026,-0.78732 -0.01371,-0.14185 -0.03793,-0.36176 -0.05383,-0.48868 -0.02967,-0.2369 -0.0543,-0.50837 -0.102334,-1.12809 -0.0364,-0.46962 -0.109056,-1.29471 -0.128972,-1.46463 -0.0088,-0.0747 -0.02606,-0.27013 -0.03848,-0.43438 -0.01241,-0.16425 -0.02887,-0.33529 -0.03657,-0.38009 -0.01669,-0.0971 -0.06278,-0.67877 -0.100026,-1.26242 -0.02824,-0.44247 -0.154604,-1.3644 -0.243744,-1.77826 -0.02895,-0.13438 -0.06607,-0.31459 -0.08249,-0.40044 -0.01642,-0.0859 -0.04121,-0.15611 -0.05509,-0.15611 -0.01387,0 -0.02522,0.0173 -0.02522,0.0385 0,0.0212 -0.01758,0.0731 -0.03906,0.11539 -0.02148,0.0423 -0.05896,0.12572 -0.08328,0.18545 -0.02432,0.0597 -0.05442,0.13303 -0.06689,0.16289 -0.01247,0.0299 -0.04948,0.1276 -0.08226,0.2172 -0.03278,0.0896 -0.07,0.18732 -0.08273,0.21719 -0.03698,0.0868 -0.111248,0.31986 -0.124833,0.39175 -0.0069,0.0363 -0.01692,0.0732 -0.02237,0.082 -0.0094,0.0152 -0.0014,0.20427 0.06675,1.57598 0.08164,1.64332 0.09419,2.08453 0.09846,3.46149 0.0025,0.82125 0.01368,2.57439 0.02474,3.89587 0.01434,1.7127 0.01064,2.67945 -0.01285,3.36646 -0.05,1.46214 -0.08727,3.33978 -0.08433,4.24881 0.0028,0.87795 0.01786,1.13275 0.136803,2.32123 0.103568,1.03481 0.139602,2.00727 0.106634,2.87778 -0.01499,0.3957 -0.0376,1.09207 -0.05026,1.54749 -0.01266,0.45543 -0.03018,0.84637 -0.03894,0.86877 -0.0088,0.0224 -0.02142,0.19954 -0.02813,0.39366 -0.01487,0.43012 -0.03977,0.83156 -0.06062,0.97736 -0.01959,0.13698 -0.06146,0.83328 -0.08733,1.45247 -0.01092,0.2613 -0.02761,0.49343 -0.0371,0.51583 -0.0095,0.0224 -0.02376,0.20565 -0.03173,0.40723 -0.008,0.20158 -0.02621,0.45203 -0.04053,0.55655 -0.01432,0.10453 -0.03373,0.36108 -0.04313,0.57013 -0.0094,0.20905 -0.02833,0.4656 -0.04206,0.57013 -0.02418,0.18408 -0.03672,0.38636 -0.06817,1.09953 -0.0082,0.18665 -0.02648,0.40655 -0.04055,0.48868 -0.01407,0.0821 -0.03236,0.24705 -0.04065,0.36651 -0.02192,0.31589 -0.06165,0.7188 -0.08149,0.82631 -0.06658,0.36088 -0.136383,1.46761 -0.172194,2.7302 -0.03379,1.19129 -0.05849,1.29082 -0.362558,1.46079 -0.361537,0.20209 -0.806963,0.31313 -1.554994,0.38766 -0.382987,0.0381 -0.629142,0.0431 -1.446411,0.0292 -0.541684,-0.009 -1.00593,-0.028 -1.031659,-0.0418 -0.02573,-0.0137 -0.12619,-0.0312 -0.223247,-0.0389 -0.188925,-0.0149 -0.795995,-0.12118 -1.085957,-0.19016 -0.190347,-0.0453 -0.415006,-0.0952 -0.502255,-0.11159 -0.141144,-0.0265 -0.548154,-0.13305 -0.59012,-0.15446 -0.02593,-0.0132 -0.08091,-0.0242 -0.12217,-0.0245 -0.141006,-7.2e-4 -0.43807,-0.14119 -0.513412,-0.24269 -0.01713,-0.0231 -0.05818,-0.0725 -0.09122,-0.10984 -0.106408,-0.12022 -0.185561,-0.32933 -0.19039,-0.50297 -0.0025,-0.0892 0.01074,-0.64475 0.02938,-1.23456 0.02755,-0.87176 0.02727,-1.19174 -0.0015,-1.71038 -0.01945,-0.3509 -0.03789,-1.26107 -0.04099,-2.02259 -0.005,-1.22168 -0.0444,-2.81314 -0.08038,-3.2443 -0.0069,-0.0821 -0.01993,-0.46085 -0.02907,-0.84162 -0.0091,-0.38076 -0.02807,-1.0588 -0.04209,-1.50676 -0.01402,-0.44796 -0.02982,-2.421 -0.03512,-4.38455 -0.0067,-2.49633 -0.01896,-3.62995 -0.04064,-3.76915 -0.01705,-0.10949 -0.02581,-0.20745 -0.01948,-0.2177 0.0063,-0.0102 -1.5e-5,-0.1528 -0.01411,-0.31677 -0.04532,-0.52707 -0.04757,-0.57895 -0.07668,-1.76416 -0.01577,-0.64208 -0.04051,-1.25903 -0.05499,-1.37102 -0.01447,-0.11199 -0.03393,-0.64954 -0.04323,-1.19456 -0.03006,-1.76147 -0.07263,-3.21027 -0.119244,-4.05876 -0.01559,-0.2837 -0.0284,-0.75411 -0.02848,-1.04535 -1.34e-4,-0.48916 -0.005,-0.54296 -0.06448,-0.70587 -0.03539,-0.097 -0.0917,-0.22238 -0.125139,-0.27865 -0.103152,-0.17355 -0.109256,-0.26654 -0.06546,-0.99723 0.03406,-0.56827 0.03614,-0.81339 0.01161,-1.36822 -0.01643,-0.37175 -0.03692,-0.68731 -0.04553,-0.70123 -0.0086,-0.0139 -0.02638,-0.13126 -0.03948,-0.26073 -0.01311,-0.12946 -0.0375,-0.30259 -0.0542,-0.38471 -0.04228,-0.20795 -0.07101,-1.38847 -0.0469,-1.92758 0.01102,-0.24637 0.0235,-0.94274 0.02773,-1.54749 0.0074,-1.05382 0.0052,-1.11025 -0.05239,-1.35744 -0.09294,-0.3989 -0.08417,-0.75136 0.03549,-1.42532 0.02121,-0.11945 0.03855,-0.27522 0.03854,-0.34615 -1.1e-5,-0.0709 0.01066,-0.12895 0.02372,-0.12895 0.01306,0 0.03136,-0.1008 0.04066,-0.22398 0.0093,-0.12319 0.02907,-0.30339 0.04392,-0.40045 0.01485,-0.0971 0.03799,-0.2824 0.05142,-0.41187 0.01343,-0.12947 0.0328,-0.24896 0.04304,-0.26553 0.01024,-0.0166 0.01838,-0.14555 0.01809,-0.28663 -4.62e-4,-0.22417 0.0081,-0.27193 0.06781,-0.37878 l 0.06834,-0.12227 -0.03393,-1.32399 c -0.08282,-3.23238 -0.07622,-3.91146 0.05591,-5.74926 0.01396,-0.19412 0.03732,-0.51851 0.05191,-0.72086 0.01459,-0.20236 0.03929,-0.46503 0.05489,-0.5837 0.01559,-0.11868 0.03389,-0.3013 0.04067,-0.40583 0.0068,-0.10452 0.01878,-0.20836 0.02668,-0.23076 0.0079,-0.0224 0.02825,-0.17511 0.04523,-0.33936 0.01697,-0.16425 0.04257,-0.39638 0.05687,-0.51583 0.01431,-0.11946 0.03758,-0.35158 0.05173,-0.51583 0.01415,-0.16425 0.03684,-0.36583 0.05043,-0.44796 0.01359,-0.0821 0.05017,-0.32646 0.08128,-0.54298 0.03111,-0.21651 0.07513,-0.47918 0.0978,-0.5837 0.02268,-0.10452 0.06579,-0.34836 0.09582,-0.54186 0.03002,-0.1935 0.06649,-0.39601 0.08103,-0.45003 0.03883,-0.14422 0.135488,-0.80319 0.135488,-0.92374 0,-0.0571 0.01222,-0.11131 0.02715,-0.12054 0.01493,-0.009 0.02715,-0.0468 0.02715,-0.0834 0,-0.0366 0.01113,-0.0878 0.02474,-0.11378 0.01361,-0.0259 0.0462,-0.10822 0.07243,-0.18288 0.101769,-0.28968 0.213057,-0.34005 0.866613,-0.39224 0.194115,-0.0155 0.438455,-0.0408 0.542979,-0.0562 0.104523,-0.0154 0.269453,-0.0393 0.36651,-0.053 0.09706,-0.0138 0.255879,-0.0383 0.352936,-0.0547 0.09706,-0.0163 0.261987,-0.0412 0.36651,-0.0554 0.359108,-0.0487 0.505146,-0.0765 0.537607,-0.10244 0.01789,-0.0143 0.113676,-0.0531 0.212867,-0.0863 0.141124,-0.0472 0.214929,-0.0566 0.339361,-0.0436 0.328006,0.0343 1.215943,-0.017 1.611482,-0.0932 0.08213,-0.0158 0.210405,-0.0387 0.285064,-0.0508 0.143904,-0.0233 0.187701,-0.0371 0.339361,-0.10672 0.07586,-0.0348 0.170528,-0.042 0.46942,-0.0356 0.20592,0.004 0.505237,-0.005 0.665149,-0.0208 0.159912,-0.0158 0.590066,-0.0474 0.955898,-0.0702 0.946366,-0.0589 0.997476,-0.0622 1.479616,-0.0951 0.23891,-0.0163 0.77035,-0.0342 1.180978,-0.0398 0.854397,-0.0117 2.052246,-0.0356 2.212636,-0.0443 0.05973,-0.003 0.145247,-0.004 0.190042,-6.8e-4 0.178851,0.0114 1.500521,-0.0533 1.607021,-0.0786 0.148849,-0.0354 0.747822,-0.0348 0.934484,9.2e-4 0.08043,0.0154 0.195106,0.0342 0.254833,0.0418 0.105561,0.0135 0.430405,0.0697 0.705872,0.12223 0.07466,0.0142 0.21243,0.0335 0.306156,0.0429 0.09373,0.009 0.176913,0.0275 0.184859,0.0403 0.0079,0.0129 0.04477,0.0234 0.08182,0.0234 0.03706,0 0.145636,0.0253 0.241281,0.0562 0.210046,0.0679 0.375847,0.22589 0.355383,0.33874 -0.01001,0.0552 0.0066,0.08 0.08794,0.13133 0.11364,0.0717 0.142347,0.1208 0.216323,0.36966 0.02885,0.0971 0.07509,0.24977 0.102764,0.33936 0.05569,0.18032 0.05842,0.37637 0.0072,0.51799 -0.02644,0.0731 -0.02664,0.14064 -10e-4,0.31822 0.01793,0.12398 0.03259,0.26449 0.03259,0.31224 0,0.0478 0.01135,0.0868 0.02522,0.0868 0.01387,0 0.03132,0.1069 0.03876,0.23755 0.01422,0.24953 0.05111,0.54347 0.09964,0.79411 0.08864,0.45767 0.110966,0.98748 0.05141,1.21985 -0.02642,0.10311 -0.02645,0.19986 0,0.46272 0.01831,0.18279 0.04421,0.35851 0.05757,0.39048 0.01336,0.032 0.03785,0.16198 0.05441,0.2889 0.01657,0.12692 0.04045,0.29185 0.05307,0.36651 0.07445,0.4405 0.08912,0.53366 0.11113,0.70587 0.01336,0.10453 0.03793,0.61283 0.05459,1.12957 0.03074,0.95329 0.01118,1.64997 -0.05672,2.01971 -0.04302,0.23424 -0.04348,0.54282 -0.0011,0.74659 0.04069,0.19575 0.04062,0.19326 0.02975,1.07239 -0.0089,0.72431 0.04483,1.30637 0.190659,2.06331 0.01726,0.0896 0.03506,0.46564 0.03956,0.83566 0.0071,0.58341 0.01538,0.69519 0.0624,0.84161 0.02982,0.0929 0.06684,0.22994 0.08226,0.3046 0.01542,0.0747 0.04108,0.19072 0.05702,0.25792 0.01594,0.0672 0.03964,0.19759 0.05268,0.28976 0.01303,0.0922 0.03078,0.17907 0.03944,0.19308 0.0087,0.014 0.02824,0.12796 0.04351,0.25321 0.04977,0.40823 0.07865,0.59023 0.166442,1.04899 0.01643,0.0859 0.04086,0.21414 0.0543,0.28506 0.01343,0.0709 0.03667,0.1931 0.05163,0.27149 0.01496,0.0784 0.03489,0.19751 0.04427,0.2647 0.0094,0.0672 0.02905,0.13729 0.0437,0.15576 0.05049,0.0637 -0.0071,0.15619 -0.155311,0.24951 -0.08129,0.0512 -0.152834,0.10617 -0.158991,0.12222 -0.0062,0.0161 -0.0013,0.133 0.01081,0.25989 0.06482,0.67961 -0.04899,3.08577 -0.163521,3.45711 -0.01769,0.0574 -0.02522,0.12238 -0.01673,0.1445 0.0085,0.0221 10e-4,0.0668 -0.01662,0.0993 -0.01763,0.0325 -0.04198,0.15685 -0.05411,0.27631 -0.01213,0.11945 -0.02882,0.27828 -0.03709,0.35294 -0.0083,0.0747 -0.02655,0.6122 -0.04061,1.19455 -0.02401,0.99447 -0.04003,1.32433 -0.102636,2.11399 -0.01405,0.17719 -0.02011,0.42153 -0.01347,0.54298 0.01217,0.2226 -0.05161,1.22199 -0.09726,1.52396 -0.01354,0.0896 -0.03284,0.2362 -0.04289,0.32579 -0.01005,0.0896 -0.02895,0.18732 -0.04201,0.21719 -0.01306,0.0299 -0.03012,0.12149 -0.03793,0.20362 -0.0078,0.0821 -0.02817,0.29592 -0.04524,0.4751 -0.02205,0.23135 -0.03106,1.82508 -0.0311,5.49766 0,5.42159 0.0066,6.27703 0.05651,7.27591 0.06241,1.2486 0.08873,1.72681 0.100872,1.83255 0.0069,0.0597 0.02377,0.36515 0.03759,0.67872 0.01381,0.31357 0.03825,0.71673 0.05431,0.89592 0.01606,0.17918 0.04267,0.61288 0.05914,0.96378 0.01648,0.3509 0.04121,0.80904 0.05497,1.01809 0.01376,0.20904 0.03477,0.55723 0.0467,0.77374 0.01193,0.21651 0.03596,0.58302 0.0534,0.81447 0.01744,0.23144 0.045,0.68958 0.06124,1.01808 0.0347,0.70205 0.06813,1.27512 0.102954,1.76468 0.01381,0.19412 0.04427,0.69501 0.06771,1.11311 0.02344,0.41809 0.04917,0.8579 0.05719,0.97736 0.008,0.11945 0.02811,0.46764 0.04464,0.77374 0.03634,0.67302 0.06931,1.22934 0.09307,1.57021 0.02229,0.31979 -0.02229,0.45867 -0.185045,0.57657 -0.06031,0.0437 -0.131534,0.0794 -0.158275,0.0794 -0.02674,0 -0.05617,0.0122 -0.0654,0.0272 -0.0092,0.0149 -0.04588,0.0272 -0.08145,0.0272 -0.03557,0 -0.07222,0.0122 -0.08145,0.0272 -0.0092,0.0149 -0.04677,0.0272 -0.08342,0.0272 -0.03665,0 -0.08785,0.0111 -0.113781,0.0246 -0.02593,0.0136 -0.108227,0.0434 -0.182886,0.0663 -0.07466,0.0229 -0.294566,0.0958 -0.488681,0.16205 -0.194114,0.0662 -0.444563,0.14761 -0.556552,0.18087 -0.111989,0.0333 -0.23416,0.0709 -0.271489,0.0837 -0.109377,0.0375 -0.368582,0.0985 -0.746595,0.17591 -0.194115,0.0397 -0.37737,0.0775 -0.407234,0.0839 -0.02986,0.006 -0.164251,0.0302 -0.298638,0.0529 -0.134388,0.0227 -0.268775,0.0521 -0.298639,0.0655 -0.02986,0.0133 -0.139816,0.0308 -0.24434,0.0387 -0.104523,0.008 -0.269453,0.022 -0.36651,0.0312 -0.09706,0.009 -0.185172,0.008 -0.195812,-0.003 z"
       id="path5179"
       inkscape:connector-curvature="0" />
  </g>
</svg>
