<?xml version="1.0" encoding="UTF-8" standalone="no"?>
<!-- Created with Inkscape (http://www.inkscape.org/) -->

<svg
   xmlns:dc="http://purl.org/dc/elements/1.1/"
   xmlns:cc="http://creativecommons.org/ns#"
   xmlns:rdf="http://www.w3.org/1999/02/22-rdf-syntax-ns#"
   xmlns:svg="http://www.w3.org/2000/svg"
   xmlns="http://www.w3.org/2000/svg"
   xmlns:sodipodi="http://sodipodi.sourceforge.net/DTD/sodipodi-0.dtd"
   xmlns:inkscape="http://www.inkscape.org/namespaces/inkscape"
   width="220"
   height="235"
   viewBox="0 0 58.208332 62.177085"
   version="1.1"
   id="svg8"
   inkscape:version="0.92.3 (2405546, 2018-03-11)"
   sodipodi:docname="shorts.svg">
  <defs
     id="defs2" />
  <sodipodi:namedview
     id="base"
     pagecolor="#000000"
     bordercolor="#666666"
     borderopacity="1.0"
     inkscape:pageopacity="0"
     inkscape:pageshadow="2"
     inkscape:zoom="2.8"
     inkscape:cx="402.42217"
     inkscape:cy="72.564051"
     inkscape:document-units="px"
     inkscape:current-layer="layer1"
     showgrid="false"
     units="px"
     inkscape:window-width="3440"
     inkscape:window-height="1377"
     inkscape:window-x="-8"
     inkscape:window-y="-8"
     inkscape:window-maximized="1" />
  <metadata
     id="metadata5">
    <rdf:RDF>
      <cc:Work
         rdf:about="">
        <dc:format>image/svg+xml</dc:format>
        <dc:type
           rdf:resource="http://purl.org/dc/dcmitype/StillImage" />
        <dc:title></dc:title>
      </cc:Work>
    </rdf:RDF>
  </metadata>
  <g
     inkscape:label="Layer 1"
     inkscape:groupmode="layer"
     id="layer1"
     transform="translate(0,-234.8229)">
    <path
       style="fill:none;stroke:#ffffff;stroke-width:0.36260676;stroke-miterlimit:4;stroke-dasharray:none;stroke-opacity:1"
       d="m 25.135743,293.63313 c -0.931197,-0.13293 -3.588406,-0.27395 -5.920541,-0.31422 -1.286129,-0.0222 -2.579835,-0.0851 -2.874909,-0.13974 -0.295075,-0.0546 -1.295947,-0.0947 -2.224158,-0.089 -1.142068,0.008 -1.96485,-0.0344 -2.54508,-0.12805 -0.471581,-0.0761 -1.6611267,-0.17423 -2.643435,-0.21805 -0.9823119,-0.0439 -2.0874113,-0.12644 -2.4557774,-0.18359 -0.7942515,-0.12322 -1.7843276,-0.5178 -1.7833837,-0.71076 3.709e-4,-0.0737 0.061824,-0.47552 0.1365806,-0.89301 0.074763,-0.41748 0.2143291,-1.21315 0.3101538,-1.76814 0.095826,-0.55501 0.2213247,-1.09711 0.2788878,-1.20466 0.1233414,-0.23047 0.1711808,-3.47174 0.052461,-3.55442 -0.116955,-0.0814 0.3188266,-1.77776 0.4567069,-1.77776 0.034183,0 0.047188,-0.15707 0.028872,-0.34903 -0.063569,-0.66653 0.4694474,-5.64381 0.8137446,-7.59876 0.1297546,-0.73676 0.1880156,-1.3856 0.1713677,-1.90848 -0.018498,-0.5812 0.00974,-0.8456 0.1060699,-0.99261 0.086081,-0.13137 0.1010422,-0.23062 0.04345,-0.28821 -0.057591,-0.0576 -0.022026,-0.39234 0.1032715,-0.97203 0.1051145,-0.4863 0.2728847,-1.26593 0.3728265,-1.73253 0.099941,-0.46659 0.2369248,-1.04653 0.304408,-1.28875 0.067488,-0.24221 0.1227007,-0.57137 0.1227007,-0.73146 0,-0.16009 0.033448,-0.31173 0.074286,-0.33699 0.1462251,-0.0904 0.5059355,-3.47307 0.4744618,-4.46185 -0.018097,-0.5682 0.3002946,-2.44874 0.5368762,-3.17111 0.1660844,-0.50712 0.1795982,-0.69137 0.1244389,-1.69671 -0.049896,-0.90938 -0.032371,-1.25754 0.090486,-1.79758 0.083802,-0.36837 0.1818505,-1.25244 0.2178865,-1.96462 0.03603,-0.71217 0.115268,-1.61634 0.176071,-2.00927 0.290892,-1.8798 0.4657247,-2.7683 0.5556627,-2.82389 0.06872,-0.0424 0.07965,-0.40691 0.03625,-1.20818 -0.07989,-1.47503 -0.07176,-1.70099 0.07143,-1.98474 0.06502,-0.12884 0.144969,-0.59593 0.177668,-1.03797 0.22703,-3.06906 0.320218,-3.92097 0.442246,-4.04301 0.109484,-0.10948 0.227421,-0.11213 0.785723,-0.0176 0.443756,0.075 1.062559,0.0922 1.907115,0.0526 1.324858,-0.062 2.094199,-0.0695 7.278031,-0.0717 14.110221,-0.007 18.456323,-0.0601 25.227519,-0.31438 2.876327,-0.10801 2.836352,-0.11013 2.873999,0.15238 0.01762,0.1228 0.05387,1.36855 0.0806,2.76834 0.06395,3.35048 0.0959,3.90588 0.249121,4.33109 0.21634,0.60039 0.390778,1.60756 0.634134,3.66134 0.128036,1.08055 0.294033,2.46695 0.36888,3.08089 0.07485,0.61394 0.17481,1.53821 0.222139,2.05392 0.04733,0.51571 0.127261,1.22649 0.177628,1.57949 0.05036,0.35302 0.127972,1.19691 0.17246,1.87532 0.04449,0.67842 0.128634,1.37414 0.186988,1.54604 0.05835,0.17191 0.118514,0.93544 0.133696,1.69672 0.04097,2.05448 0.138614,3.65955 0.225909,3.7135 0.04244,0.0262 0.07717,0.26379 0.07717,0.52791 0,0.26412 0.07953,0.81319 0.176723,1.22015 0.0972,0.40695 0.243679,1.27527 0.325513,1.9296 0.121712,0.97315 0.128213,1.22814 0.03571,1.40099 -0.09173,0.17139 -0.09049,0.30135 0.0065,0.68811 0.06579,0.26224 0.123517,0.81838 0.128298,1.23586 0.0048,0.41749 0.07637,1.90435 0.159095,3.30414 0.08271,1.39979 0.188153,3.18686 0.2343,3.97127 0.05326,0.90538 0.05271,1.46379 -0.0013,1.52914 -0.04698,0.0565 -0.06644,0.15824 -0.04324,0.22585 0.02319,0.0676 0.08445,0.64089 0.136137,1.27394 0.06662,0.81604 0.06613,1.18452 -0.0017,1.26621 -0.06897,0.0831 -0.05527,0.2341 0.04914,0.54166 0.08406,0.24758 0.178079,0.97118 0.224185,1.72536 0.04368,0.71442 0.139434,1.56015 0.2128,1.8794 0.14886,0.64774 0.33253,2.86899 0.244921,2.96199 -0.03095,0.0328 -1.000605,0.086 -2.154821,0.11819 -1.154215,0.0321 -2.359779,0.0968 -2.679029,0.14358 -0.319251,0.0468 -1.082771,0.14181 -1.696716,0.2111 -0.613944,0.0692 -1.558303,0.18886 -2.098573,0.26575 -0.540271,0.0768 -1.263611,0.17989 -1.607418,0.22892 -1.546036,0.22044 -6.42424,0.53243 -8.349638,0.53402 -1.687334,9e-4 -3.559097,-0.12844 -3.686333,-0.25568 -0.06417,-0.0642 -0.516439,-5.46532 -0.640237,-7.64595 -0.08798,-1.54976 -0.228602,-3.36594 -0.321516,-4.1525 -0.141298,-1.19616 -0.531199,-6.64314 -0.532972,-7.44566 -9.53e-4,-0.39896 -0.06038,-1.10715 -0.132234,-1.57374 -0.07185,-0.4666 -0.157705,-1.34209 -0.190785,-1.94555 -0.03308,-0.60345 -0.09331,-1.11767 -0.133832,-1.14272 -0.04052,-0.025 -0.232649,0.002 -0.426943,0.0603 -0.411603,0.12332 -0.377606,-0.058 -0.543015,2.89402 -0.05229,0.93319 -0.134523,2.21912 -0.182737,2.85762 -0.04822,0.6385 -0.147222,2.12536 -0.22002,3.30414 -0.07279,1.17877 -0.195901,2.96703 -0.27357,3.97389 -0.07767,1.00687 -0.159672,2.17225 -0.18222,2.58973 -0.0966,1.78821 -0.309165,5.45912 -0.354217,6.11711 -0.08665,1.26554 -0.276482,1.97087 -0.642919,2.38881 -0.147849,0.16861 -0.437269,0.18329 -1.270256,0.0644 z"
       id="path5192"
       inkscape:connector-curvature="0" />
  </g>
</svg>
