<?xml version="1.0" encoding="UTF-8" standalone="no"?>
<!-- Created with Inkscape (http://www.inkscape.org/) -->

<svg
   xmlns:dc="http://purl.org/dc/elements/1.1/"
   xmlns:cc="http://creativecommons.org/ns#"
   xmlns:rdf="http://www.w3.org/1999/02/22-rdf-syntax-ns#"
   xmlns:svg="http://www.w3.org/2000/svg"
   xmlns="http://www.w3.org/2000/svg"
   xmlns:sodipodi="http://sodipodi.sourceforge.net/DTD/sodipodi-0.dtd"    
   width="220"
   height="235"
   viewBox="0 0 58.208331 62.177086"
   version="1.1"
   id="svg8"   
   sodipodi:docname="m249.svg">
  <defs
     id="defs2" />
  <sodipodi:namedview
     id="base"
     pagecolor="#000000"
     bordercolor="#666666"
     borderopacity="1.0"
     showgrid="false"
     fit-margin-top="0"
     fit-margin-left="0"
     fit-margin-right="0"
     fit-margin-bottom="0"
     units="px" />
  <metadata
     id="metadata5">
    <rdf:RDF>
      <cc:Work
         rdf:about="">
        <dc:format>image/svg+xml</dc:format>
        <dc:type
           rdf:resource="http://purl.org/dc/dcmitype/StillImage" />
        <dc:title />
      </cc:Work>
    </rdf:RDF>
  </metadata>
  <g
     id="layer1"
     transform="translate(56.057826,-205.94221)">
    <path
       style="fill:none;stroke:#ffffff;stroke-width:0.4;stroke-opacity:1;stroke-miterlimit:4;stroke-dasharray:none"
       d="m 1.4097174,235.64849 c 8.97e-4,-0.90792 -0.097329,-0.97683 -0.57398176,-0.40261 l -0.37786428,0.45522 -0.28263795,-0.25716 c -0.1554497,-0.14143 -0.35766487,-0.33832 -0.4493618,-0.43751 -0.16046988,-0.17358 -2.40937151,-1.977 -2.86902181,-2.30071 -0.1839722,-0.12956 -0.1987024,-0.183 -0.082578,-0.29964 0.1999269,-0.2008 0.2840267,-0.53683 0.1644202,-0.65696 -0.055797,-0.056 -0.1344556,-0.0688 -0.1747958,-0.0281 -0.040337,0.0406 -0.082496,0.0346 -0.09367,-0.013 -0.011181,-0.0476 -0.1246489,0.0406 -0.2521498,0.19543 l -0.231811,0.28195 -2.0465654,-1.60819 c -3.7050381,-2.91136 -5.060989,-4.07585 -4.915828,-4.22165 0.04082,-0.041 0.0742,-0.16407 0.0742,-0.27351 -10e-7,-0.15613 -0.05825,-0.225 -0.270366,-0.31971 -0.148702,-0.0664 -0.467342,-0.26262 -0.708089,-0.43601 -0.240751,-0.17341 -0.502617,-0.30071 -0.581927,-0.2829 -0.10513,0.0238 -0.11165,-6e-4 -0.02407,-0.0905 0.100014,-0.10203 0.0552,-0.18802 -0.265724,-0.51035 -0.435912,-0.43783 -0.525261,-0.79966 -0.204843,-0.82957 0.209262,-0.0196 0.281632,-0.20628 0.136447,-0.35211 -0.07989,-0.0804 0.03145,-0.23205 0.558146,-0.76105 0.410871,-0.41268 0.630799,-0.68812 0.585655,-0.73345 -0.04544,-0.0454 0.121763,-0.25232 0.450176,-0.55649 0.488677,-0.45259 0.530807,-0.47281 0.65153,-0.31281 0.156202,0.20705 0.332432,0.17981 0.4620222,-0.0714 0.06681,-0.12949 0.04507,-0.21283 -0.07134,-0.27342 -0.09209,-0.0479 -0.1550512,-0.13984 -0.1399112,-0.20424 0.03032,-0.12904 -0.577551,-0.75301 -0.926164,-0.95073 -0.26434,-0.1499 -0.545131,0.01 -0.502549,0.28458 0.02571,0.16629 -0.125737,0.35629 -0.958666,1.20272 -0.434273,0.38738 -1.144964,1.29714 -1.10467,1.15868 l -0.212157,-0.20427 0.470113,-0.57126 c 0.258561,-0.31419 0.5257,-0.59833 0.593637,-0.63143 0.06793,-0.0331 0.12351,-0.14366 0.123522,-0.24565 0,-0.31169 8.1561376,-8.80846 8.5172604,-8.87299 0.088286,-0.0156 0.1535931,-0.0975 0.1635148,-0.20483 0.0091,-0.0982 0.05202,-0.16464 0.095417,-0.14763 0.043383,0.0169 0.4160945,-0.3288 0.8282392,-0.76846 0.7021432,-0.74902 0.7424469,-0.81141 0.6396861,-0.99029 -0.1636362,-0.28485 -0.5191653,-0.62248 -0.7788114,-0.73958 -0.2273119,-0.10253 -0.2378711,-0.0948 -0.9478474,0.68269 -0.3948965,0.43248 -0.701974,0.82255 -0.6824166,0.86677 0.01955,0.0443 -0.063341,0.10374 -0.1842107,0.13225 -0.1467121,0.0345 -0.2128058,0.0922 -0.1988425,0.17294 0.013865,0.0804 -1.4067417,1.55401 -4.2102922,4.36781 -3.8669567,3.88129 -4.2512347,4.24669 -4.4636607,4.2467 -0.199489,1e-5 -0.400642,-0.16894 -1.418751,-1.19149 l -1.186314,-1.19153 -0.273039,0.31703 -0.273037,0.31704 0.483687,0.55761 c 0.302298,0.34849 0.552336,0.74311 0.666751,1.05225 0.100684,0.27206 0.319347,0.63153 0.485918,0.79884 l 0.302855,0.30417 -0.411454,0.41327 c -0.2263,0.22729 -0.457085,0.40245 -0.512852,0.38923 -0.05577,-0.0134 -0.205797,0.11329 -0.333398,0.28116 -0.13578,0.17864 -0.556072,0.50693 -1.013478,0.79164 -0.429814,0.26754 -0.938958,0.6215 -1.131435,0.78656 -0.276626,0.23725 -0.39301,0.28026 -0.555435,0.20522 l -0.205484,-0.0948 -2.259131,2.33186 c -2.072544,2.13925 -2.264395,2.31832 -2.322838,2.1683 -0.121441,-0.31166 -0.453098,-0.68143 -0.625618,-0.69756 -0.184291,-0.0171 -0.918245,0.53979 -2.277521,1.72839 -0.296454,0.2592 -0.601647,0.48481 -0.678227,0.50132 -0.07657,0.0163 -0.360309,0.24622 -0.630508,0.51046 -0.270202,0.26424 -0.7013,0.59703 -0.957996,0.73954 -0.438836,0.24361 -0.465988,0.27396 -0.454381,0.50785 0.0088,0.17848 0.168037,0.42243 0.563519,0.86366 l 0.55117,0.61494 c 0.145047,0.1973 -0.529451,-0.2515 -0.725151,-0.10479 -0.477938,0.41304 -0.552868,0.53116 -0.472364,0.74453 0.09685,0.25674 -0.03583,0.42607 -0.370411,0.47268 -0.179105,0.025 -0.456445,0.25312 -1.148575,0.94492 -0.741833,0.74141 -0.939103,0.90011 -1.054869,0.84833 -0.115142,-0.0517 -0.238982,0.0467 -0.646662,0.51316 -0.611492,0.69955 -0.827561,1.0173 -0.746874,1.09833 0.03376,0.0339 -0.800021,0.91283 -1.875457,1.97696 l -1.936236,1.91592 -0.261097,-0.22469 c -0.666823,-0.57384 -0.636676,-0.57759 -2.161428,0.26919 -1.125463,0.625 -1.371221,0.85604 -1.566677,1.47281 -0.16771,0.52923 -0.03209,0.83236 0.763577,1.70658 0.03222,0.0353 -0.09173,0.17947 -0.275475,0.32013 -0.409197,0.31319 -1.069928,1.25065 -1.53578,2.17899 -0.191477,0.38155 -0.456852,0.84711 -0.589728,1.03451 -0.145543,0.20527 -0.332284,0.75741 -0.469697,1.38871 -0.327113,1.50285 -0.294622,1.44415 -2.770433,5.00447 -0.856162,1.23117 -1.172053,1.40625 -2.491883,1.38094 -0.923243,-0.0176 -0.875952,-0.0445 -3.30435,1.88127 -0.886852,0.70332 -1.640968,1.2788 -1.675798,1.2788 -0.0348,0 -0.252297,-0.13798 -0.483264,-0.30663 -0.626959,-0.45781 -0.920584,-0.33233 -0.915271,0.39107 0.0019,0.24458 -0.04152,0.58754 -0.09627,0.76212 -0.05476,0.17458 -0.05935,0.34491 -0.01015,0.3785 0.04913,0.0337 0.0847,0.21019 0.07903,0.39241 -0.01329,0.42737 0.140012,0.57176 0.655733,0.61764 0.906077,0.0807 0.788167,-0.009 3.202603,2.41669 2.517154,2.52819 2.418535,2.46391 3.027856,1.97362 0.432714,-0.34819 2.956396,-2.913 4.52689,-4.60067 1.173438,-1.26098 1.232904,-1.34051 1.232904,-1.64848 0,-0.42107 -0.194531,-0.60417 -0.71688,-0.67479 -0.405533,-0.0546 -0.78372,-0.32194 -0.848988,-0.59963 -0.04768,-0.20293 0.130004,-0.5082 1.260221,-2.16489 1.391506,-2.03967 1.605152,-2.29337 3.049899,-3.62184 1.114468,-1.02477 1.211175,-1.09518 1.373457,-0.99976 0.09743,0.0573 0.187291,0.0486 0.20335,-0.0198 0.01583,-0.0673 0.204174,-0.13761 0.418552,-0.15613 0.38632,-0.0335 0.882132,-0.38962 0.833043,-0.59847 -0.01251,-0.0532 0.158653,-0.28176 0.380344,-0.50791 0.352341,-0.35943 0.455468,-0.41296 0.819522,-0.42532 0.229052,-0.008 0.466306,-0.064 0.527241,-0.12542 0.21518,-0.21611 0.771602,-0.13052 1.064607,0.16375 0.222356,0.22334 0.288912,0.41266 0.354075,1.00713 0.07105,0.64836 0.215579,2.56863 0.207747,2.76046 -0.0017,0.04 0.02528,0.33909 0.05981,0.66488 l 0.06277,0.59234 0.372177,-0.0907 c 0.380334,-0.0926 2.206584,-0.97793 3.065905,-1.48625 0.51346,-0.3037 0.636163,-0.50333 0.528635,-0.86003 -0.08383,-0.2781 -0.162169,-0.34246 -0.416821,-0.34246 -0.197742,0 -0.273717,-0.17135 -0.833895,-1.88096 -0.33898,-1.03453 -0.655557,-1.92177 -0.703504,-1.97161 -0.04796,-0.0499 -0.104141,-0.23012 -0.12488,-0.40059 l -0.03771,-0.30992 0.282035,0.28017 c 0.15511,0.1541 0.356834,0.28017 0.448253,0.28017 0.253409,0 1.972503,-1.75595 2.154206,-2.20035 0.180888,-0.44246 0.0038,-0.89126 -0.586264,-1.48365 -0.331655,-0.33312 -0.428683,-0.48372 -0.380968,-0.59134 0.03519,-0.0795 0.0068,-0.20172 -0.06287,-0.2718 -0.362323,-0.36392 -0.335312,-0.99922 0.05004,-1.17723 0.309413,-0.14294 0.453958,0.25859 0.220759,0.61323 -0.321204,0.48853 -0.19617,0.86589 0.578154,1.745 1.03622,1.17641 3.788418,3.91123 5.294644,5.26118 1.374942,1.2323 1.734991,1.45931 2.125759,1.34029 0.293672,-0.0896 1.769684,-1.43724 2.519896,-2.30097 0.946387,-1.08961 0.951647,-1.19654 0.108556,-2.20787 -0.925958,-1.11073 -4.688224,-4.87813 -5.84216,-5.85012 -1.039867,-0.87591 -1.794227,-1.28784 -1.992922,-1.08827 -0.212936,0.21386 -0.285783,-0.10273 -0.08982,-0.39041 0.133508,-0.19602 0.169312,-0.35638 0.104431,-0.46771 -0.0897,-0.15391 -0.03815,-0.22752 0.5639,-0.805 l 0.662634,-0.63565 0.748893,0.71301 0.748889,0.71299 1.390012,-1.35836 c 0.764505,-0.74708 2.161403,-2.22363 3.10422,-3.28122 1.687098,-1.89246 1.718412,-1.92273 1.979245,-1.91347 0.180416,0.007 0.328083,-0.0675 0.462538,-0.2316 l 0.197512,-0.24101 -0.798066,-0.76355 c -0.438936,-0.41996 -0.777521,-0.79136 -0.752414,-0.82528 0.34552,-0.46711 0.361989,-0.47469 0.623241,-0.28748 0.621115,0.4451 1.279665,0.47711 1.674939,0.0814 0.440212,-0.44058 0.377304,-1.27362 -0.123426,-1.6361 l -0.269279,-0.19492 0.445821,-0.44777 c 0.493508,-0.49568 0.701533,-0.54804 1.257868,-0.31658 0.571387,0.23772 1.135291,-0.40128 0.721176,-0.8172 -0.159598,-0.16031 -0.172236,-0.24489 -0.06113,-0.40922 0.153862,-0.2276 0.284237,-0.19175 0.177569,0.0489 -0.04729,0.10666 -0.0067,0.18277 0.137763,0.2591 0.112602,0.0595 0.242164,0.0915 0.287919,0.071 0.129931,-0.058 0.375436,0.24359 0.411652,0.50582 0.01812,0.13123 0.179688,0.38474 0.361715,0.56756 0.180933,0.18173 0.317104,0.38087 0.302608,0.44255 -0.03669,0.15611 0.56489,0.33724 0.692939,0.20865 0.05543,-0.0556 0.185353,-0.0451 0.288709,0.0232 0.256092,0.16936 2.6394084,2.06452 4.0393987,3.21203 0.6292388,0.51576 1.2790642,1.03709 1.4440581,1.1585 0.2518844,0.18536 0.275579,0.23167 0.147772,0.28885 -0.1159081,0.052 -0.1076472,0.11285 0.03482,0.25594 0.1287912,0.12936 0.2414533,0.15586 0.361776,0.085 0.1222723,-0.072 0.2329846,-0.0441 0.3687675,0.0921 0.1067171,0.10718 0.2605304,0.22462 0.3418105,0.26097 0.110639,0.0495 0.1034474,0.0962 -0.028605,0.18606 -0.1254456,0.0852 -0.1500189,0.19074 -0.085091,0.36512 0.1086772,0.29186 0.3671224,0.35283 0.6360622,0.15005 0.1542393,-0.11631 0.2427444,-0.0741 0.8460094,0.40217 0.6353395,0.5017 0.6681434,0.54164 0.5755641,0.70047 -0.066094,0.11341 -0.046768,0.19144 0.059128,0.23882 0.086516,0.0387 0.2200067,0.13334 0.2966398,0.21032 0.078193,0.0786 0.2115117,0.0975 0.3038143,0.0433 0.1230847,-0.0724 0.2659505,-0.0186 0.5676115,0.21335 0.2217241,0.17052 0.45995669,0.31715 0.52940889,0.32581 0.069451,0.009 0.301904,0.15658 0.51656233,0.32868 0.3875738,0.31072 0.38882969,0.31402 0.18067821,0.47536 -0.34382683,0.26653 -0.31690791,0.4018 0.13905815,0.69874 l 0.40201931,0.26183 0.54472349,-0.5879 0.54472432,-0.58791 z m -31.5525884,10.20955 c -0.487542,-0.0585 -0.590639,-0.23392 -0.613102,-1.04323 l -0.02044,-0.73633 0.474756,-0.47683 0.474758,-0.47685 0.522578,0.5249 c 0.462493,0.4645 0.522578,0.56411 0.522578,0.86634 10e-7,0.30162 -0.06039,0.40213 -0.517554,0.8613 -0.476628,0.47871 -0.543325,0.51674 -0.843577,0.4807 z m -0.871362,0.89396 c -0.08856,-0.0639 -0.417911,-0.34369 -0.731889,-0.62134 l -0.570871,-0.50483 0.20305,-0.20393 c 0.218758,-0.21972 0.179482,-0.2362 1.074925,0.4507 0.194377,0.14909 0.472378,0.29604 0.617784,0.32653 l 0.264376,0.0554 -0.348178,0.30695 c -0.281514,0.2482 -0.379003,0.28466 -0.509199,0.19044 z m 13.979201,-18.04722 c -0.127119,-0.12766 -0.111728,-0.40251 0.03055,-0.54542 0.150313,-0.15096 0.303715,-0.11956 0.392344,0.0804 0.0829,0.18697 -0.290706,0.59788 -0.422886,0.46511 z m -9.705396,1.72966 c 0.07881,-0.18348 2.44464,-2.48721 2.561171,-2.49396 0.03,-0.002 -0.552775,0.6024 -1.295058,1.34257 -0.742691,0.74058 -1.312069,1.25834 -1.266119,1.15139 z m -27.985484,27.81895 c -0.148455,-0.14909 0.07423,-0.32967 0.254981,-0.20678 0.110379,0.075 0.110367,0.13174 -6e-6,0.20678 -0.08362,0.0568 -0.198361,0.0568 -0.254975,0 z m 14.989202,-16.37434 c -0.119029,-0.0718 -0.245696,-0.1962 -0.281489,-0.27693 -0.185766,-0.41892 0.425872,-0.63383 0.783018,-0.27511 0.178809,0.17959 0.174743,0.22031 -0.04406,0.44003 -0.199334,0.20022 -0.278559,0.21961 -0.45749,0.11201 z"
       id="path849"       
       sodipodi:nodetypes="ccccccssscccsscccccscssscccccccccccccccccccccccccsccccsscsccccccccccscccsccsccccsscccccccccssssccccscsccsccccccscccssccccccccsccccccscsccsscsssscccccccscccccscccscscccccscsscccscsccccsccscccscccccccccccscsccscsccccccsccssccccsccssccssccc" />
  </g>
</svg>
