<?xml version="1.0" encoding="UTF-8" standalone="no"?>
<!-- Created with Inkscape (http://www.inkscape.org/) -->

<svg
   xmlns:dc="http://purl.org/dc/elements/1.1/"
   xmlns:cc="http://creativecommons.org/ns#"
   xmlns:rdf="http://www.w3.org/1999/02/22-rdf-syntax-ns#"
   xmlns:svg="http://www.w3.org/2000/svg"
   xmlns="http://www.w3.org/2000/svg"
   xmlns:sodipodi="http://sodipodi.sourceforge.net/DTD/sodipodi-0.dtd"   
   width="220"
   height="235"
   viewBox="0 0 58.208331 62.177086"
   version="1.1"
   id="svg8"   
   sodipodi:docname="trident lmg.svg" >
  <defs
     id="defs2" />
  <sodipodi:namedview
     id="base"
     pagecolor="#000000"
     bordercolor="#666666"
     borderopacity="1.0"
     showgrid="false"
     fit-margin-top="0"
     fit-margin-left="0"
     fit-margin-right="0"
     fit-margin-bottom="0"         
     units="px" />
  <metadata
     id="metadata5">
    <rdf:RDF>
      <cc:Work
         rdf:about="">
        <dc:format>image/svg+xml</dc:format>
        <dc:type
           rdf:resource="http://purl.org/dc/dcmitype/StillImage" />
        <dc:title></dc:title>
      </cc:Work>
    </rdf:RDF>
  </metadata>
  <g     
     id="layer1"
     transform="translate(56.057826,-205.94221)">
    <path
       style="fill:none;stroke:#ffffff;stroke-width:0.4;stroke-opacity:1;stroke-miterlimit:4;stroke-dasharray:none"
       d="m -12.74065,246.09994 c 0.860034,-1.40874 1.572411,-2.65168 1.583059,-2.76211 0.01065,-0.1104 -0.02939,-0.34833 -0.08898,-0.52873 -0.146612,-0.44382 -0.528176,-0.72817 -2.957032,-2.20361 -1.107535,-0.67279 -2.505625,-1.52578 -3.106869,-1.89552 -2.879028,-1.77049 -2.795793,-1.71294 -2.88405,-1.99379 -0.0694,-0.22088 -0.13529,-0.27734 -0.402873,-0.34532 -0.256502,-0.0651 -0.526491,-0.28595 -1.362441,-1.11425 -1.141235,-1.13077 -1.195325,-1.23459 -0.946999,-1.81756 0.222188,-0.52161 0.336266,-0.57934 0.614646,-0.31112 0.402022,0.38737 0.495435,0.34228 1.704559,-0.82275 1.033641,-0.99594 1.09731,-1.07553 1.053111,-1.31721 l -0.04702,-0.25719 0.192356,0.13742 c 0.160898,0.11496 0.251651,0.0887 0.555034,-0.1602 0.199462,-0.1637 0.4705,-0.40404 0.602303,-0.53408 0.794449,-0.78395 1.195082,-1.16334 1.411274,-1.33637 0.134517,-0.10766 2.196876,-2.08994 4.583053,-4.40506 4.1599411,-4.03608 4.3342919,-4.21624 4.236034,-4.37797 -0.1229081,-0.20229 0.082985,-0.40375 0.4123929,-0.40349 0.1687029,1.2e-4 0.3496256,-0.11619 0.6199595,-0.39859 0.499039,-0.52127 0.4917106,-0.50851 0.362015,-0.63347 -0.091202,-0.0879 0.012432,-0.22767 0.5596462,-0.75492 0.3716153,-0.35807 0.7030539,-0.61677 0.7420504,-0.57919 0.03876,0.0374 0.5143203,-0.32946 1.0568025,-0.81514 0.5424762,-0.48568 1.1777266,-1.03522 1.4116506,-1.22123 0.3062961,-0.24355 0.4202997,-0.39011 0.4074173,-0.52377 -0.012916,-0.13392 0.1642884,-0.36113 0.6365534,-0.81618 0.79853238,-0.76939 0.7781901,-0.86211 -0.3739796,-1.70463 l -0.393655,-0.28785 -0.6534512,0.62962 c -0.5120087,0.49334 -0.6869732,0.61523 -0.8083305,0.56317 -0.111842,-0.048 -0.2695795,0.0441 -0.5676323,0.33122 -0.3321944,0.32007 -0.4365534,0.37476 -0.5346851,0.28022 -0.109804,-0.10581 -0.00353,-0.2215 1.0687268,-1.16316 1.2644429,-1.11044 1.5240942,-1.35362 3.48633068,-3.26512 1.19443251,-1.16352 1.23992864,-1.2198 1.05969833,-1.30978 -0.10358227,-0.0517 -0.17498608,-0.1485 -0.1586732,-0.21511 0.0441403,-0.18013 -0.51531533,-0.67747 -0.76209433,-0.67747 -0.1520001,0 -0.2142641,-0.0445 -0.2142641,-0.15365 0,-0.0845 -0.075195,-0.18591 -0.1671033,-0.22536 -0.1500284,-0.0644 -0.37123478,0.13211 -2.16523748,1.92317 -1.0989901,1.09717 -2.350461,2.38004 -2.781083,2.85081 l -0.7829469,0.85593 -0.499245,-0.43772 c -0.4973887,-0.43607 -0.5000736,-0.43688 -0.7231028,-0.22199 -0.1392897,0.13421 -0.1815754,0.24285 -0.1119287,0.28759 0.1596693,0.10255 -0.1392405,0.35754 -0.3254508,0.27765 -0.2057198,-0.0883 -0.5694041,0.26214 -0.4207329,0.40539 0.062177,0.0599 0.045608,0.17175 -0.037308,0.25164 -0.082916,0.08 -0.1989863,0.0958 -0.2611695,0.0359 -0.061562,-0.0592 -0.1745214,-0.0476 -0.2510264,0.0261 -0.108909,0.10496 -0.224526,0.0716 -0.532754,-0.15382 -0.216509,-0.15832 -0.4897045,-0.3804 -0.6070985,-0.49351 l -0.213444,-0.20565 -7.126178,6.86622 -7.126179,6.86625 0.634268,0.61112 0.634264,0.61113 -0.410407,0.39544 c -0.306193,0.29502 -0.437513,0.36933 -0.517148,0.2926 -0.0587,-0.0566 -0.196843,-0.0441 -0.306969,0.0277 -0.197762,0.12901 -0.198174,0.12839 -0.03336,-0.0498 0.13143,-0.14207 0.127855,-0.18387 -0.01686,-0.19683 -0.144071,-0.0129 -0.157764,-0.0999 -0.06342,-0.40297 0.0969,-0.3113 0.07614,-0.4291 -0.106653,-0.60523 l -0.226975,-0.2187 -0.930534,0.8649 c -0.511775,0.47572 -0.982075,0.97702 -1.04509,1.11402 -0.07014,0.15252 -0.6563,0.73063 -1.511851,1.49111 l -1.397269,1.24201 -0.377187,-0.31959 c -0.340541,-0.28855 -0.394912,-0.30251 -0.559646,-0.1438 -0.100354,0.0967 -0.148882,0.20817 -0.107843,0.2477 0.04104,0.0396 0.0095,0.13469 -0.07021,0.21145 -0.07966,0.0767 -0.199167,0.1272 -0.265572,0.11209 -0.157202,-0.0358 -0.507563,0.30182 -0.410408,0.39544 0.04104,0.0396 0.0075,0.13661 -0.07463,0.21569 -0.08208,0.0791 -0.182817,0.11145 -0.223857,0.072 -0.04104,-0.0396 -0.158566,0.01 -0.26117,0.10786 -0.102601,0.0988 -0.15297,0.2121 -0.111929,0.25162 0.09705,0.0935 -0.178753,0.35927 -0.335789,0.32356 -0.157201,-0.0358 -0.507563,0.30182 -0.410408,0.39543 0.04104,0.0396 0.0075,0.1366 -0.07463,0.21568 -0.08208,0.0791 -0.182817,0.11145 -0.223857,0.072 -0.105459,-0.1016 -0.417872,0.22359 -0.417876,0.43498 0,0.139 -0.05015,0.18731 -0.237771,0.2291 -0.286731,0.0638 -0.567252,0.31457 -0.463648,0.41438 0.04104,0.0396 0.0075,0.13662 -0.07463,0.2157 -0.08208,0.0791 -0.182818,0.11145 -0.223857,0.072 -0.105459,-0.10161 -0.417871,0.2236 -0.417877,0.43498 0,0.13898 -0.05015,0.1873 -0.23777,0.22908 -0.28673,0.0638 -0.567251,0.31458 -0.463649,0.41439 0.04104,0.0396 0.0075,0.13662 -0.07463,0.21571 -0.08208,0.0791 -0.182818,0.11144 -0.223857,0.072 -0.108663,-0.1047 -0.520731,0.32523 -0.450391,0.46995 0.0476,0.0979 0.0093,0.13489 -0.191756,0.18476 -0.301265,0.0748 -0.58127,0.32344 -0.47715,0.42376 0.04104,0.0396 0.0075,0.13661 -0.07462,0.2157 -0.08208,0.0791 -0.182817,0.11144 -0.223859,0.072 -0.108662,-0.1047 -0.520729,0.32523 -0.450389,0.46994 0.04761,0.0979 0.0093,0.1349 -0.191755,0.18476 -0.317648,0.0788 -0.462063,0.21797 -0.543862,0.52403 -0.05176,0.19366 -0.09012,0.23061 -0.191756,0.18475 -0.165246,-0.0746 -0.567782,0.3133 -0.490401,0.47252 0.0476,0.0979 0.0093,0.13488 -0.191756,0.18477 -0.317648,0.0788 -0.462062,0.21794 -0.54386,0.52401 -0.05176,0.19367 -0.09012,0.23062 -0.191757,0.18476 -0.06988,-0.0315 -0.22315,0.0353 -0.340605,0.14844 -0.201825,0.19447 -0.19534,0.22572 0.118147,0.56918 0.31076,0.34049 0.320523,0.38444 0.154671,0.69614 l -0.177029,0.33272 0.488595,0.51404 c 0.388928,0.40917 0.532099,0.50752 0.701875,0.48212 0.322153,-0.0481 0.315086,0.2033 -0.0134,0.47673 -0.160477,0.13359 -0.418158,0.4123 -0.572642,0.61936 -0.154472,0.20705 -3.122305,3.13883 -6.59518,6.51508 -3.472875,3.37625 -6.452307,6.29688 -6.620945,6.49026 -0.168632,0.19342 -0.362489,0.41737 -0.430763,0.49766 -0.213009,0.25051 -0.181071,2.04165 0.04512,2.52889 0.182363,0.39284 0.292842,0.50627 1.011291,1.03833 0.443605,0.32853 0.999357,0.69715 1.235008,0.81915 0.512832,0.26549 2.111005,1.57772 4.351969,3.5733 0.903717,0.80476 1.72087,1.47335 1.815894,1.48574 0.09502,0.0125 0.358594,0.12193 0.58571,0.2434 0.485192,0.25951 0.712889,0.19555 0.833625,-0.23419 0.07422,-0.26416 0.11012,-0.30254 0.233455,-0.24961 0.193582,0.0831 0.403661,-0.13169 0.466855,-0.47722 0.04709,-0.25752 0.06826,-0.27711 0.267402,-0.24732 0.156059,0.0233 0.258457,-0.0356 0.367786,-0.21146 0.08334,-0.13409 0.121573,-0.27266 0.08498,-0.30793 -0.115293,-0.11109 0.133676,-0.2677 0.307194,-0.19324 0.122978,0.0528 0.205272,0.009 0.318455,-0.17445 0.08395,-0.13507 0.138729,-0.30229 0.121753,-0.37158 -0.02059,-0.084 0.05172,-0.12598 0.217201,-0.12598 0.570433,0 0.585173,-0.32204 0.06064,-1.32489 -0.341947,-0.65378 -0.485385,-0.84737 -0.667082,-0.90038 -0.265367,-0.0774 -0.539147,-0.39674 -1.10039,-1.28346 -0.217665,-0.3439 -0.514446,-0.80056 -0.659525,-1.01479 -0.145073,-0.21425 -0.263773,-0.47188 -0.263773,-0.57251 0,-0.26218 2.252948,-3.40605 3.639326,-5.0785 0.200455,-0.24184 0.395592,-0.53348 0.43362,-0.64809 0.03803,-0.11461 0.246846,-0.39873 0.464047,-0.63135 1.064414,-1.14 2.317401,-2.84421 2.318008,-3.15276 5.19e-4,-0.26735 -0.17362,-0.6051 -1.018807,-1.97584 -0.467967,-0.75897 -0.518071,-1.00094 -0.198121,-0.95679 0.106361,0.0147 0.280031,-0.0568 0.385937,-0.15885 0.18626,-0.17947 0.195767,-0.1757 0.290713,0.11533 0.170261,0.52185 0.875663,1.05764 1.283671,0.97501 0.06569,-0.0133 0.377817,-0.30141 0.693642,-0.64024 0.505709,-0.54256 0.630226,-0.63024 1.043604,-0.73473 0.610709,-0.15441 1.17854,-0.0407 1.700245,0.34038 0.601012,0.43906 0.74764,0.71511 0.909187,1.71145 0.07881,0.4861 0.261398,1.51528 0.405757,2.28708 0.144357,0.77179 0.395714,2.19352 0.558571,3.15943 0.162854,0.96589 0.353293,1.81264 0.423196,1.88166 0.19321,0.19078 0.591219,0.0175 2.465112,-1.07287 2.470416,-1.43755 2.302671,-1.30916 2.285311,-1.74934 -0.01746,-0.44268 -0.04264,-0.474 -0.491678,-0.6117 -0.338329,-0.10376 -0.34651,-0.12005 -0.772803,-1.53908 l -0.430855,-1.43421 0.358369,-0.44391 c 0.197097,-0.24412 0.345161,-0.49776 0.329028,-0.56362 -0.01612,-0.0659 -0.247537,-0.18142 -0.514228,-0.25683 -0.530438,-0.14996 -0.690155,-0.32897 -0.840684,-0.94219 -0.07358,-0.29974 -0.03524,-0.44222 0.202324,-0.75188 0.407677,-0.5314 0.915599,-0.88112 1.375898,-0.94766 l 0.390581,-0.0564 0.70335,-0.98169 c 0.386843,-0.53994 0.729542,-0.9817 0.761557,-0.9817 0.03203,0 0.566082,0.30809 1.186821,0.68465 0.620739,0.37656 1.417733,0.85906 1.771097,1.07218 0.787797,0.47518 4.177125,2.56471 5.247729,3.23525 0.430896,0.26987 0.951106,0.55701 1.156024,0.63807 0.414204,0.16388 0.947564,0.0498 1.261633,-0.26968 0.111769,-0.11373 0.90688,-1.35938 1.766912,-2.76811 z m -15.125685,-1.12176 c -1.197148,0.20503 -2.113238,-0.69721 -1.754685,-1.72817 l 0.112376,-0.32311 0.553634,0.45328 c 0.595349,0.48744 1.213015,0.68251 1.705824,0.53874 0.390584,-0.11394 0.310361,-0.25109 -0.170179,-0.29097 -0.601404,-0.0499 -0.862345,-0.23088 -1.179779,-0.81832 l -0.27434,-0.50769 0.369284,-0.35582 c 0.203107,-0.1957 0.386658,-0.33907 0.407861,-0.31865 0.02121,0.0203 0.5108,0.3304 1.087956,0.68879 0.577157,0.35837 1.093249,0.69388 1.14687,0.74554 0.128344,0.12366 -0.473171,0.95751 -1.04534,1.44912 -0.3296,0.28317 -0.570968,0.40073 -0.959482,0.46726 z m -9.173194,2.3841 c -1.1e-5,-0.0444 0.08314,-0.0446 0.184752,-5.7e-4 0.146841,0.0633 0.146841,0.08 -1e-6,0.0805 -0.101613,3.7e-4 -0.184752,-0.0356 -0.184751,-0.0799 z"
       id="path875"       
       sodipodi:nodetypes="ccsssccscssccccccccccssscccsscscsssccccccccccsscsssssscccccssccccsccccccssscssssscsssccsssccsssccsssccccccccscccccccscccccssccccccscccsccccsccccscsccccccccccccsccccccccccsccccccccccccscssssccccccc" />
  </g>
</svg>
