<?xml version="1.0" encoding="UTF-8" standalone="no"?>
<!-- Created with Inkscape (http://www.inkscape.org/) -->

<svg
   xmlns:dc="http://purl.org/dc/elements/1.1/"
   xmlns:cc="http://creativecommons.org/ns#"
   xmlns:rdf="http://www.w3.org/1999/02/22-rdf-syntax-ns#"
   xmlns:svg="http://www.w3.org/2000/svg"
   xmlns="http://www.w3.org/2000/svg"
   xmlns:sodipodi="http://sodipodi.sourceforge.net/DTD/sodipodi-0.dtd"
   xmlns:inkscape="http://www.inkscape.org/namespaces/inkscape"
   width="220"
   height="235"
   viewBox="0 0 58.208332 62.177085"
   version="1.1"
   id="svg8"
   inkscape:version="0.92.3 (2405546, 2018-03-11)"
   sodipodi:docname="hoodie.svg">
  <defs
     id="defs2" />
  <sodipodi:namedview
     id="base"
     pagecolor="#000000"
     bordercolor="#666666"
     borderopacity="1.0"
     inkscape:pageopacity="0"
     inkscape:pageshadow="2"
     inkscape:zoom="2.8"
     inkscape:cx="50.308575"
     inkscape:cy="83.388844"
     inkscape:document-units="px"
     inkscape:current-layer="layer1"
     showgrid="false"
     units="px"
     inkscape:window-width="3440"
     inkscape:window-height="1377"
     inkscape:window-x="-8"
     inkscape:window-y="-8"
     inkscape:window-maximized="1" />
  <metadata
     id="metadata5">
    <rdf:RDF>
      <cc:Work
         rdf:about="">
        <dc:format>image/svg+xml</dc:format>
        <dc:type
           rdf:resource="http://purl.org/dc/dcmitype/StillImage" />
        <dc:title></dc:title>
      </cc:Work>
    </rdf:RDF>
  </metadata>
  <g
     inkscape:label="Layer 1"
     inkscape:groupmode="layer"
     id="layer1"
     transform="translate(0,-234.8229)">
    <path
       style="fill:none;stroke:#ffffff;stroke-width:0.4;stroke-opacity:1;stroke-miterlimit:4;stroke-dasharray:none"
       d="m 50.402026,294.7513 c -0.07039,-0.31088 -0.153102,-0.9286 -0.183795,-1.37273 -0.03069,-0.44411 -0.09571,-0.85784 -0.144466,-0.9194 -0.172226,-0.2174 -1.512132,-2.91594 -1.937282,-3.90164 -0.660457,-1.53125 -1.35452,-3.47662 -1.823322,-5.11053 -0.233531,-0.81391 -0.685986,-2.09782 -1.005455,-2.85312 -0.679364,-1.60616 -1.062401,-2.63497 -1.307276,-3.51123 -0.09693,-0.34685 -0.195581,-0.61129 -0.219221,-0.58766 -0.02364,0.0237 0.0019,0.9615 0.05666,2.08412 0.253942,5.20162 0.07303,9.1611 -0.44943,9.83604 -0.202341,0.26141 -0.84349,2.16229 -0.84349,2.50079 0,0.27372 -0.20856,0.29506 -0.812094,0.0831 -0.698366,-0.24523 -2.783212,-0.39175 -6.773325,-0.47602 -1.714521,-0.0363 -3.160448,-0.0925 -3.213166,-0.12508 -0.172797,-0.10679 -5.806365,-0.0443 -7.073827,0.0784 -1.564013,0.15149 -4.704239,0.71207 -5.475748,0.97751 -0.322965,0.11111 -0.665782,0.20202 -0.761814,0.20202 -0.124195,0 -0.279739,-0.30307 -0.538741,-1.04973 -0.416265,-1.20002 -0.801987,-2.02837 -1.092195,-2.34553 -0.247599,-0.2706 -0.817108,-2.47489 -0.958694,-3.71063 -0.06772,-0.59102 -0.06825,-1.79224 -0.0016,-3.39145 0.05684,-1.36197 0.1035,-3.03346 0.103696,-3.71445 l 3.22e-4,-1.23814 -0.41687,1.02281 c -0.22928,0.56256 -0.924183,2.20983 -1.54423,3.66062 -0.620049,1.45077 -1.406339,3.31608 -1.747314,4.1451 -1.364828,3.31836 -2.2758614,5.24307 -2.9651687,6.26443 -0.46892,0.69482 -0.6503199,1.07836 -0.6933944,1.46611 -0.2201,1.98156 -0.2621904,2.12083 -0.6409929,2.12083 -0.1458755,0 -0.9586006,-0.11854 -1.8060554,-0.26342 -0.8474548,-0.14487 -1.7588491,-0.27811 -2.02532,-0.29607 l -0.484493,-0.0327 0.00338,-0.59216 c 0.00929,-1.62897 0.1802247,-3.39419 0.5317315,-5.49092 0.8062254,-4.80911 1.0158808,-5.73042 2.9277888,-12.86598 2.1024217,-7.84659 2.5791227,-9.43747 3.8068321,-12.70449 1.56628,-4.16796 2.471802,-5.89893 4.488661,-8.58039 1.53992,-2.04737 1.938883,-2.27158 6.383185,-3.58747 0.740197,-0.21917 1.386124,-0.42276 1.435391,-0.45243 0.140221,-0.0845 -0.415824,-0.61961 -1.732306,-1.66715 -0.666637,-0.53045 -1.258535,-1.05127 -1.315326,-1.15739 -0.138901,-0.25953 0.0088,-0.73559 0.392619,-1.26544 0.171428,-0.23665 0.694069,-1.24901 1.161425,-2.24969 1.015731,-2.17481 1.246957,-2.53319 2.127993,-3.29816 1.671763,-1.45152 2.937605,-2.24116 4.443944,-2.77211 1.270389,-0.44779 1.962109,-0.50701 2.531134,-0.21672 0.237242,0.12103 0.782225,0.34499 1.211076,0.49769 1.178387,0.4196 2.797824,1.29955 3.581931,1.94631 1.089469,0.89865 2.055081,2.19467 3.346384,4.49145 0.710917,1.26447 0.77244,1.3653 0.958629,1.57104 0.09939,0.10983 0.188207,0.35936 0.197363,0.55451 0.01534,0.32688 -0.05964,0.41284 -0.95234,1.09186 -0.532942,0.40536 -1.341112,0.956 -1.795933,1.22361 -1.022188,0.60145 -1.248774,0.82749 -1.058868,1.05632 0.07464,0.09 0.210579,0.16351 0.302088,0.16351 0.09152,0 1.357372,0.38668 2.813027,0.85929 2.493722,0.80963 2.688415,0.89205 3.369577,1.42655 0.611647,0.47997 0.882252,0.81589 1.757904,2.18227 1.233683,1.92504 1.44192,2.32573 2.769658,5.32941 1.790579,4.05075 2.426421,5.7706 3.56251,9.63603 0.751379,2.55649 2.136383,8.59974 2.701911,11.78935 0.09974,0.56254 0.394534,2.11291 0.655095,3.44527 0.260559,1.33236 0.595421,3.16566 0.744134,4.074 0.25167,1.53722 0.258574,1.67439 0.09973,1.98158 -0.13821,0.26726 -0.163447,0.61861 -0.132713,1.84757 0.02087,0.83465 -0.0011,1.57812 -0.0488,1.65214 -0.04771,0.074 -0.218578,0.13457 -0.379703,0.13457 -0.161125,0 -1.018241,0.21785 -1.904701,0.4841 -0.886461,0.26626 -1.716743,0.48428 -1.845073,0.4845 -0.193536,3.1e-4 -0.25515,-0.096 -0.361313,-0.56485 z"
       id="path5127"
       inkscape:connector-curvature="0"
       sodipodi:nodetypes="cccsccccccssccscsscsccccssscsccccssssccscccssscsscccccsscssscsscccscccc" />
  </g>
</svg>
