<?xml version="1.0" encoding="UTF-8" standalone="no"?>
<!-- Created with Inkscape (http://www.inkscape.org/) -->

<svg
   xmlns:dc="http://purl.org/dc/elements/1.1/"
   xmlns:cc="http://creativecommons.org/ns#"
   xmlns:rdf="http://www.w3.org/1999/02/22-rdf-syntax-ns#"
   xmlns:svg="http://www.w3.org/2000/svg"
   xmlns="http://www.w3.org/2000/svg"
   xmlns:sodipodi="http://sodipodi.sourceforge.net/DTD/sodipodi-0.dtd"
   xmlns:inkscape="http://www.inkscape.org/namespaces/inkscape"
   width="220"
   height="235"
   viewBox="0 0 58.208332 62.177085"
   version="1.1"
   id="svg8"
   inkscape:version="0.92.3 (2405546, 2018-03-11)"
   sodipodi:docname="jacket.svg">
  <defs
     id="defs2" />
  <sodipodi:namedview
     id="base"
     pagecolor="#000000"
     bordercolor="#666666"
     borderopacity="1.0"
     inkscape:pageopacity="0"
     inkscape:pageshadow="2"
     inkscape:zoom="2.8"
     inkscape:cx="50.308575"
     inkscape:cy="83.388844"
     inkscape:document-units="px"
     inkscape:current-layer="layer1"
     showgrid="false"
     units="px"
     inkscape:window-width="3440"
     inkscape:window-height="1377"
     inkscape:window-x="-8"
     inkscape:window-y="-8"
     inkscape:window-maximized="1" />
  <metadata
     id="metadata5">
    <rdf:RDF>
      <cc:Work
         rdf:about="">
        <dc:format>image/svg+xml</dc:format>
        <dc:type
           rdf:resource="http://purl.org/dc/dcmitype/StillImage" />
        <dc:title></dc:title>
      </cc:Work>
    </rdf:RDF>
  </metadata>
  <g
     inkscape:label="Layer 1"
     inkscape:groupmode="layer"
     id="layer1"
     transform="translate(0,-234.8229)">
    <path
       style="fill:none;stroke:#ffffff;stroke-width:0.40000001;stroke-miterlimit:4;stroke-dasharray:none;stroke-opacity:1"
       d="m 25.642316,295.5069 c -1.166181,-0.031 -3.285717,-0.19641 -4.177009,-0.32583 -0.889404,-0.12915 -1.21084,-0.19247 -1.949266,-0.38401 -0.905403,-0.23484 -2.326421,-0.73273 -2.526209,-0.88511 -0.06299,-0.0481 -0.127374,-0.0875 -0.143015,-0.0876 -0.01566,0 -0.07382,-0.0365 -0.12936,-0.081 l -0.100932,-0.0808 -0.02684,-0.64859 c -0.01476,-0.35672 -0.03543,-0.67666 -0.04599,-0.71095 -0.01056,-0.0343 -0.04349,-0.3913 -0.07328,-0.79333 -0.02971,-0.40204 -0.08456,-0.94244 -0.121861,-1.20089 -0.129467,-0.8971 -0.178207,-1.51947 -0.196272,-2.50621 -0.01002,-0.54562 -0.0036,-1.16433 0.0145,-1.37493 l 0.03266,-0.38289 -0.404096,-0.41224 c -0.222249,-0.22673 -0.56073,-0.54734 -0.75218,-0.71246 -0.859115,-0.74099 -1.375803,-1.27025 -2.368108,-2.42575 -0.246605,-0.28718 -0.457659,-0.52996 -0.468996,-0.53953 -0.03785,-0.0319 -0.883516,-1.0191 -1.431352,-1.6708 -0.459118,-0.54618 -0.750874,-0.90454 -1.4169557,-1.74042 -0.899524,-1.12883 -1.448917,-2.04499 -2.0769258,-3.46343 -0.3140626,-0.70939 -0.4514936,-1.11841 -0.5524081,-1.64416 -0.1038941,-0.54127 -0.1125378,-0.63968 -0.1816694,-2.0684 -0.078563,-1.62398 -0.059951,-1.90567 0.3373272,-5.09397 0.123168,-0.98852 0.2579772,-1.91719 0.4825339,-3.3242 0.038208,-0.2393 0.1803451,-0.98333 0.3158791,-1.65339 0.3569591,-1.76466 0.4996601,-2.53929 0.6412341,-3.48084 0.646334,-4.29858 1.507454,-7.73874 2.3625437,-9.43826 0.321498,-0.639 0.543585,-0.97409 1.040847,-1.57046 0.512787,-0.61498 1.153905,-1.0366 2.358821,-1.55126 0.661778,-0.28267 1.295076,-0.57233 2.098625,-0.95989 0.683763,-0.32978 1.069651,-0.50192 1.799129,-0.80257 0.526692,-0.21707 1.385279,-0.58318 1.776016,-0.7573 0.06702,-0.0299 0.779703,-0.3751 1.58378,-0.76721 1.535318,-0.74871 1.597345,-0.78726 1.758774,-1.09348 0.108279,-0.20538 0.191682,-0.56506 0.414244,-1.78648 0.115115,-0.63176 0.242542,-1.25048 0.283165,-1.37492 0.159192,-0.48768 0.481013,-0.95315 0.82047,-1.1867 0.141958,-0.0977 0.690778,-0.2632 1.265834,-0.3818 0.543746,-0.11213 4.090607,-0.15945 5.343091,-0.0713 0.344602,0.0242 0.853675,0.0573 1.131266,0.0735 0.389995,0.0226 0.560112,0.0486 0.748385,0.11419 0.957695,0.33365 1.08089,0.39449 1.470437,0.72611 0.273717,0.23303 0.272822,0.23118 0.304873,0.62162 0.0128,0.15588 0.07033,0.4055 0.142889,0.6195 0.06684,0.19714 0.150799,0.49475 0.186663,0.66136 0.06926,0.32181 0.465318,1.58921 0.6331,2.02594 0.09369,0.24386 0.111151,0.26623 0.264947,0.33942 0.09056,0.043 0.321284,0.17282 0.512734,0.28831 0.579538,0.3496 1.755033,0.92341 3.010926,1.46977 1.179182,0.51298 1.466759,0.63577 1.885906,0.80521 1.126622,0.45544 2.98036,1.35694 4.397002,2.13831 0.443816,0.2448 0.778191,0.46756 1.231206,0.8202 0.32692,0.25449 0.386621,0.31975 0.632402,0.69121 0.46607,0.70439 0.792242,1.44349 1.186687,2.68895 0.419997,1.32613 0.711065,2.43172 1.127237,4.28168 0.107669,0.47861 0.344526,1.49676 0.526348,2.26254 0.465631,1.96112 0.572121,2.48124 0.833835,4.07259 0.04723,0.28716 0.133559,0.78057 0.191849,1.09645 0.349863,1.896 0.664478,4.01502 0.881157,5.93483 0.158486,1.40422 0.206539,2.71128 0.15613,4.24662 -0.04008,1.2207 -0.09176,1.94651 -0.15738,2.21033 -0.05865,0.23583 -0.844228,1.84414 -1.258145,2.57582 -0.923884,1.63316 -1.114466,1.90766 -2.320009,3.34161 -1.137948,1.35355 -1.310679,1.56917 -1.287289,1.60701 0.01432,0.0232 0.0092,0.0302 -0.01235,0.0169 -0.02058,-0.0127 -0.211144,0.18126 -0.430725,0.43842 -1.119769,1.3114 -2.789189,3.05082 -3.372056,3.51344 -0.181866,0.14434 -0.368976,0.30411 -0.415791,0.35503 l -0.08509,0.0926 0.06774,0.58226 c 0.06076,0.52211 0.0672,0.80337 0.06246,2.72296 -0.0054,2.23302 -0.05091,3.92316 -0.109513,4.07358 -0.06523,0.16742 -0.509727,0.43531 -1.138317,0.68598 -1.571629,0.62672 -2.80372,0.81927 -6.735422,1.05259 -0.660481,0.0392 -1.459341,0.0876 -1.77522,0.10759 -1.166244,0.0737 -6.362205,0.1245 -8.075541,0.0788 z m 17.561452,-21.26206 c -0.01011,-0.0766 -0.02676,-0.60132 -0.03713,-1.16608 -0.01485,-0.8094 -0.0374,-1.17059 -0.106436,-1.70561 -0.123785,-0.95936 -0.14126,-1.58101 -0.06666,-2.37147 0.07257,-0.76933 0.05906,-1.67068 -0.0349,-2.32251 -0.100691,-0.69833 -0.161922,-0.43255 -0.243384,1.0565 -0.06102,1.11601 -0.115875,1.60838 -0.245942,2.20896 -0.07319,0.33793 -0.0925,0.55557 -0.1217,1.3716 -0.01906,0.53346 -0.03704,0.97987 -0.03982,0.99203 -0.0027,0.0122 0.0063,0.25708 0.02022,0.54424 0.01387,0.28717 0.03991,0.99205 0.05789,1.56639 0.0179,0.57434 0.04286,1.10312 0.05539,1.17507 0.02273,0.13038 0.02407,0.12849 0.401824,-0.53952 0.347125,-0.61391 0.377512,-0.68209 0.360753,-0.8096 z m -26.877764,-0.44569 c 0.03642,-0.40011 0.034,-0.51991 -0.01906,-0.92924 -0.118783,-0.91713 -0.149707,-1.75777 -0.103393,-2.81095 0.03248,-0.73968 0.03302,-1.07576 0.0018,-1.43567 -0.0221,-0.25845 -0.04474,-1.06514 -0.0502,-1.79263 -0.0054,-0.7275 -0.01262,-1.35405 -0.01584,-1.39233 -0.0036,-0.0383 -0.07373,0.24365 -0.156633,0.62655 -0.08295,0.38289 -0.207261,0.93732 -0.276285,1.23206 -0.229218,0.97887 -0.22827,0.96562 -0.228422,3.19933 -1.07e-4,1.31206 -0.01423,2.14434 -0.04,2.35408 l -0.03991,0.32445 0.126237,0.20783 c 0.06944,0.1143 0.209006,0.30877 0.310144,0.43217 0.101147,0.1234 0.238497,0.30961 0.305222,0.41383 0.140088,0.21876 0.123347,0.25744 0.185884,-0.42948 z"
       id="path5153"
       inkscape:connector-curvature="0" />
  </g>
</svg>
