<?xml version="1.0" encoding="UTF-8" standalone="no"?>
<!-- Created with Inkscape (http://www.inkscape.org/) -->

<svg
   xmlns:dc="http://purl.org/dc/elements/1.1/"
   xmlns:cc="http://creativecommons.org/ns#"
   xmlns:rdf="http://www.w3.org/1999/02/22-rdf-syntax-ns#"
   xmlns:svg="http://www.w3.org/2000/svg"
   xmlns="http://www.w3.org/2000/svg"
   xmlns:sodipodi="http://sodipodi.sourceforge.net/DTD/sodipodi-0.dtd"
   xmlns:inkscape="http://www.inkscape.org/namespaces/inkscape"
   width="220"
   height="235"
   viewBox="0 0 58.208332 62.177085"
   version="1.1"
   id="svg8"
   inkscape:version="0.92.3 (2405546, 2018-03-11)"
   sodipodi:docname="sweatshirt.svg">
  <defs
     id="defs2" />
  <sodipodi:namedview
     id="base"
     pagecolor="#000000"
     bordercolor="#666666"
     borderopacity="1.0"
     inkscape:pageopacity="0"
     inkscape:pageshadow="2"
     inkscape:zoom="2.8"
     inkscape:cx="50.308575"
     inkscape:cy="83.388844"
     inkscape:document-units="px"
     inkscape:current-layer="layer1"
     showgrid="false"
     units="px"
     inkscape:window-width="3440"
     inkscape:window-height="1377"
     inkscape:window-x="-8"
     inkscape:window-y="-8"
     inkscape:window-maximized="1" />
  <metadata
     id="metadata5">
    <rdf:RDF>
      <cc:Work
         rdf:about="">
        <dc:format>image/svg+xml</dc:format>
        <dc:type
           rdf:resource="http://purl.org/dc/dcmitype/StillImage" />
        <dc:title></dc:title>
      </cc:Work>
    </rdf:RDF>
  </metadata>
  <g
     inkscape:label="Layer 1"
     inkscape:groupmode="layer"
     id="layer1"
     transform="translate(0,-234.8229)">
    <path
       style="fill:none;stroke:#ffffff;stroke-width:0.4;stroke-opacity:1;stroke-miterlimit:4;stroke-dasharray:none"
       d="m 26.284577,294.02583 c -6.63483,-0.58246 -10.504897,-1.17112 -11.696674,-1.77912 -0.506032,-0.25816 -0.798811,-0.64496 -0.798811,-1.05535 0,-0.1824 0.108823,-0.65612 0.241827,-1.05271 0.185673,-0.55363 0.263847,-1.07801 0.336652,-2.25822 0.08631,-1.39902 0.07937,-1.55496 -0.07717,-1.73548 -0.0946,-0.10909 -0.271393,-0.50041 -0.392881,-0.86961 -0.241356,-0.73348 -0.239233,-0.7619 0.194291,-2.60136 0.21485,-0.91162 0.834323,-6.30278 0.985688,-8.57825 0.05624,-0.84543 0.166561,-2.31811 0.245162,-3.27263 0.243331,-2.95496 0.27793,-3.76848 0.160277,-3.76848 -0.05891,0 -0.107118,0.0507 -0.107118,0.11275 0,0.062 -0.187442,0.49712 -0.416537,0.96691 -0.306983,0.62951 -0.41119,0.9585 -0.396206,1.25085 0.05059,0.98699 0.01235,2.10089 -0.08192,2.38654 -0.0567,0.17181 -0.105504,0.99931 -0.108444,1.83887 -0.0041,1.16406 -0.04734,1.66775 -0.182245,2.1215 -0.0973,0.32727 -0.270931,0.97435 -0.385856,1.43798 -0.300871,1.21375 -0.83091,2.90771 -1.179154,3.76848 -0.165503,0.40907 -0.374495,1.03201 -0.464426,1.38428 -0.08993,0.35228 -0.367203,1.0142 -0.616162,1.47092 -0.449873,0.8253 -0.451488,0.83172 -0.262984,1.04539 0.104316,0.11824 0.270378,0.34458 0.369027,0.50298 0.402022,0.64552 -0.122058,2.24512 -0.905652,2.76425 -0.519914,0.34443 -0.572227,0.6155 -0.504393,2.6136 0.04282,1.26128 0.0301,1.42502 -0.110735,1.42641 -0.9339149,0.009 -2.7519959,0.25265 -3.6964179,0.49493 -0.636471,0.16328 -1.179496,0.29687 -1.206722,0.29687 -0.02723,0 -0.06431,-1.01526 -0.08241,-2.25613 -0.036,-2.46836 -0.05607,-2.55848 -0.630727,-2.83251 -0.27938,-0.13323 -0.321738,-0.20932 -0.378184,-0.67936 -0.138151,-1.15044 -0.07116,-1.9949 0.274092,-3.45486 0.675068,-2.85469 0.875256,-4.55003 0.611099,-5.17524 -0.120566,-0.28536 -0.133807,-0.47014 -0.0604,-0.84295 0.157661,-0.80072 0.277,-1.11575 0.54195,-1.43062 0.298659,-0.35494 0.299781,-0.36786 0.09833,-1.1334 -0.177125,-0.6731 -0.194701,-1.23776 -0.05322,-1.70984 0.05364,-0.17898 0.07258,-0.62525 0.0421,-0.99171 -0.04701,-0.56506 -0.02175,-0.73075 0.166279,-1.0906 0.197666,-0.3783 0.214542,-0.51273 0.155621,-1.23963 -0.07858,-0.96937 0.05005,-1.96624 0.404467,-3.13481 0.142452,-0.46968 0.294514,-1.18867 0.337916,-1.59775 0.10125,-0.95432 0.283256,-2.18585 0.335548,-2.27046 0.02231,-0.0361 0.08945,-0.42268 0.149204,-0.85907 0.105253,-0.76873 0.599361,-2.94481 0.944468,-4.1595 0.09298,-0.32726 0.206562,-1.17687 0.252406,-1.88802 0.07978,-1.23762 0.519391,-4.10044 0.704363,-4.58695 0.0485,-0.12757 0.08819,-0.33562 0.08819,-0.46233 0,-0.81985 1.0087299,-3.31034 1.6669599,-4.1156 0.750304,-0.91791 1.575274,-1.78778 1.907491,-2.01131 0.748931,-0.50392 2.536069,-1.49541 4.706288,-2.61103 3.118626,-1.60315 3.363784,-1.76495 3.707224,-2.44667 0.08824,-0.17514 0.353559,-0.46469 0.58961,-0.64343 0.54694,-0.41415 0.832921,-0.41698 2.703262,-0.0268 1.90633,0.39774 3.486736,0.52452 4.891606,0.39241 1.452772,-0.13661 2.977947,-0.49815 3.385478,-0.80253 0.175981,-0.13144 0.908506,-0.21308 1.282462,-0.14292 0.243556,0.0457 0.516914,0.22845 0.872455,0.5833 0.701168,0.6998 0.835997,0.78527 2.997031,1.89994 1.03633,0.53455 2.442073,1.27166 3.12387,1.63802 0.681797,0.36637 1.671256,0.85454 2.198797,1.08484 1.574365,0.68728 2.353353,1.27761 3.367152,2.55167 0.701415,0.88148 1.46568,2.67049 1.920976,4.49668 0.08839,0.35453 0.335485,1.15781 0.549097,1.78506 0.213613,0.62726 0.479812,1.58548 0.591552,2.12939 0.111741,0.5439 0.464216,1.70419 0.783283,2.57843 0.7635,2.09197 0.953345,2.73507 1.245055,4.21753 0.454339,2.30896 0.649525,3.59351 0.649525,4.27462 0,0.43157 0.109151,1.10415 0.299682,1.84661 0.723537,2.81952 0.911185,3.76286 0.962187,4.83711 0.02984,0.62849 0.109664,1.20439 0.188323,1.35867 0.191735,0.37606 0.171944,0.54197 -0.108506,0.90966 l -0.245037,0.32126 0.298895,1.48198 c 0.164391,0.81509 0.390721,1.83899 0.502953,2.27535 0.149784,0.58235 0.227761,1.33407 0.293178,2.82636 0.04902,1.11814 0.130519,2.27844 0.181116,2.57843 0.0506,0.29999 0.09525,0.62082 0.09923,0.71295 0.004,0.0921 0.185509,0.3735 0.403394,0.62524 0.45941,0.53081 0.542822,0.78484 0.466937,1.42208 -0.08543,0.71744 -0.22925,0.99291 -0.614203,1.17648 -0.272729,0.13005 -0.375166,0.25663 -0.461033,0.5697 -0.242339,0.88354 -0.353465,2.06409 -0.305019,3.24037 l 0.04979,1.20902 -0.28696,-0.0624 c -1.769159,-0.38493 -2.38606,-0.48057 -3.708346,-0.57489 -0.845427,-0.0603 -1.587791,-0.12357 -1.6497,-0.1406 -0.07822,-0.0215 -0.08774,-0.16379 -0.03122,-0.46633 0.04474,-0.23946 0.106992,-0.81182 0.138341,-1.27191 0.03137,-0.4601 0.08133,-1.13524 0.111051,-1.50032 0.0626,-0.7688 -0.04413,-1.04765 -0.591387,-1.54516 -0.457909,-0.41629 -0.457887,-0.53313 3.75e-4,-1.84871 0.0744,-0.21359 0.09881,-0.43672 0.05424,-0.49585 -0.04457,-0.0591 -0.141565,-0.2637 -0.215539,-0.45461 -0.07397,-0.1909 -0.240931,-0.48949 -0.371019,-0.66354 -0.376771,-0.50407 -0.618614,-1.25942 -0.618614,-1.93206 0,-0.43948 -0.108626,-0.94524 -0.388495,-1.8088 -0.213672,-0.6593 -0.50597,-1.75657 -0.649555,-2.43836 -0.160494,-0.76208 -0.389691,-1.50706 -0.594949,-1.93383 -0.563643,-1.17189 -0.757858,-1.7878 -0.850423,-2.69691 -0.0489,-0.48027 -0.134016,-1.1633 -0.189141,-1.51783 -0.05512,-0.35454 -0.101122,-1.29573 -0.10222,-2.09153 -0.0019,-1.41793 -0.0079,-1.45767 -0.297688,-1.98341 -0.371722,-0.67442 -0.660208,-1.53978 -0.790296,-2.37061 -0.05546,-0.35424 -0.151775,-0.66105 -0.214017,-0.6818 -0.06225,-0.0208 -0.203904,-0.12846 -0.314802,-0.23935 l -0.201629,-0.20163 0.08936,1.13135 c 0.04915,0.62224 0.09137,2.33628 0.09383,3.80896 0.0034,2.07606 0.04575,2.95609 0.188203,3.91723 0.249186,1.68121 0.261975,4.93775 0.02279,5.79752 -0.232724,0.83647 -0.210277,1.33495 0.08381,1.86112 0.333772,0.59718 0.630819,1.79654 0.74356,3.00219 0.159579,1.70652 0.290075,2.83345 0.336875,2.90917 0.02478,0.0401 0.09501,0.53991 0.156059,1.11071 0.06105,0.5708 0.221855,1.4503 0.357333,1.95444 0.227814,0.84772 0.234935,0.93865 0.09476,1.20971 -0.603734,1.1675 -3.389833,1.93758 -9.920068,2.74194 -2.814446,0.34667 -5.579285,0.39123 -8.479078,0.13666 z"
       id="path5140"
       inkscape:connector-curvature="0" />
  </g>
</svg>
