<?xml version="1.0" encoding="UTF-8" standalone="no"?>
<!-- Created with Inkscape (http://www.inkscape.org/) -->

<svg
   xmlns:dc="http://purl.org/dc/elements/1.1/"
   xmlns:cc="http://creativecommons.org/ns#"
   xmlns:rdf="http://www.w3.org/1999/02/22-rdf-syntax-ns#"
   xmlns:svg="http://www.w3.org/2000/svg"
   xmlns="http://www.w3.org/2000/svg"
   xmlns:sodipodi="http://sodipodi.sourceforge.net/DTD/sodipodi-0.dtd"   
   width="220"
   height="235"
   viewBox="0 0 58.208332 62.177085"
   version="1.1"
   id="svg8"   
   sodipodi:docname="leg-holster.svg" >     
  <defs
     id="defs2" />
  <sodipodi:namedview
     id="base"
     pagecolor="#000000"
     bordercolor="#666666"
     borderopacity="1.0"     
     showgrid="false"
     units="px" />
  <metadata
     id="metadata5">
    <rdf:RDF>
      <cc:Work
         rdf:about="">
        <dc:format>image/svg+xml</dc:format>
        <dc:type
           rdf:resource="http://purl.org/dc/dcmitype/StillImage" />
        <dc:title></dc:title>
      </cc:Work>
    </rdf:RDF>
  </metadata>
  <g
     id="layer1"
     transform="translate(0,-234.8229)">
    <path
       style="fill:none;stroke:#ffffff;stroke-width:0.4;stroke-opacity:1;stroke-miterlimit:4;stroke-dasharray:none"
       d="m 19.376048,294.43732 c -0.578553,-0.14054 -1.407424,-0.5446 -1.769724,-0.8627 -0.268624,-0.23586 -0.367714,-0.27182 -0.765346,-0.27773 -0.251224,-0.004 -0.689269,-0.0597 -0.973432,-0.12441 -0.7857,-0.17885 -0.775945,-0.14874 -0.793772,-2.44979 -0.01023,-1.32069 -0.04454,-1.96774 -0.108414,-2.0447 -0.06929,-0.0835 -0.07266,-0.39074 -0.01305,-1.18867 0.118686,-1.58857 0.11772,-1.59483 -0.288642,-1.86774 -0.189259,-0.12711 -0.344108,-0.26234 -0.344108,-0.30051 0,-0.0382 -0.09058,-0.17705 -0.201283,-0.30862 -0.110706,-0.13156 -0.223614,-0.38029 -0.250906,-0.55273 -0.02729,-0.17244 -0.06585,-0.33998 -0.08569,-0.37232 -0.04566,-0.0744 -0.137375,-1.18251 -0.11576,-1.3986 0.0089,-0.0891 0.03019,-1.47359 0.04728,-3.07673 0.0332,-3.11262 0.06509,-3.75291 0.199415,-4.00391 0.0836,-0.15621 0.607604,-0.31605 0.707766,-0.21589 0.02771,0.0277 0.110521,-0.004 0.18403,-0.0706 0.115843,-0.10484 0.130381,-0.29636 0.109108,-1.43733 -0.0135,-0.72401 -0.06158,-1.49124 -0.106839,-1.70496 -0.09258,-0.43712 -0.107165,-0.95028 -0.03254,-1.14475 0.02736,-0.0713 0.437258,-0.38799 0.910873,-0.70371 1.286495,-0.85763 1.549333,-1.08979 1.549333,-1.36854 0,-0.25368 0.183015,-0.40226 0.495484,-0.40226 0.119475,0 0.344145,-0.17433 0.652174,-0.50604 0.491017,-0.52877 0.613705,-0.87039 0.312587,-0.87039 -0.269828,0 -0.326715,-0.26379 -0.326715,-1.51503 0,-1.30924 0.0712,-1.5617 0.440464,-1.5617 0.11507,0 0.203597,-0.0582 0.227479,-0.14951 0.0338,-0.12925 0.09985,-7.57429 0.0741,-8.35197 -0.0052,-0.15586 -0.05114,-0.66595 -0.102184,-1.13353 -0.08161,-0.74766 -0.120413,-0.88166 -0.321852,-1.11156 -0.279013,-0.31843 -0.334083,-0.58782 -0.302156,-1.47806 l 0.02463,-0.6869 0.344,-0.18949 0.344001,-0.1895 -0.195389,-0.3381 c -0.107465,-0.18595 -0.253156,-0.53599 -0.323759,-0.77787 -0.156049,-0.53459 -0.173679,-1.51531 -0.02811,-1.56383 0.07764,-0.0259 0.07916,-0.0797 0.0068,-0.23864 -0.05263,-0.11552 -0.118935,-0.89399 -0.151681,-1.78095 -0.06417,-1.73812 -0.01988,-2.03245 0.353704,-2.35027 0.204246,-0.17376 0.218649,-0.23176 0.240566,-0.96889 l 0.02331,-0.78406 -0.266212,-0.0256 -0.266216,-0.0256 -0.02207,-1.42708 c -0.02303,-1.48934 0.03323,-1.85206 0.287255,-1.85206 0.297736,0 0.342063,-0.15948 0.342063,-1.23069 v -1.03637 h 3.357617 3.357617 l 0.02273,0.99184 c 0.02178,0.95011 0.03018,0.99289 0.1997,1.01703 0.225086,0.032 0.278708,0.40975 0.296219,2.08656 0.01206,1.15456 0.0055,1.20839 -0.14932,1.21951 -0.08906,0.006 -0.211374,0.0155 -0.271803,0.0202 -0.06208,0.005 -0.08999,0.0604 -0.06416,0.12772 0.02514,0.0655 -0.0074,0.17221 -0.0723,0.23711 -0.08051,0.0805 -0.11801,0.29511 -0.11801,0.67533 0,0.52468 0.01415,0.56779 0.241563,0.73592 0.408883,0.3023 0.47183,0.52324 0.500968,1.7584 0.03298,1.39804 -0.02147,2.54661 -0.120735,2.54661 -0.04117,0 -0.02996,0.0541 0.02491,0.12022 0.146438,0.17644 0.117436,1.38906 -0.04464,1.86644 -0.07324,0.21573 -0.136524,0.51055 -0.140622,0.65514 -0.0044,0.1544 -0.04266,0.2458 -0.09276,0.22146 -0.04692,-0.0228 -0.01244,0.0166 0.07663,0.0876 0.461096,0.36729 0.445316,0.32718 0.445316,1.13193 0,0.8041 -0.07756,1.1366 -0.306807,1.31537 -0.12863,0.1003 -0.127831,0.10426 0.0112,0.0556 0.134619,-0.0471 0.138876,-0.0351 0.04223,0.11969 -0.05912,0.0947 -0.158965,0.19186 -0.221885,0.21601 -0.09794,0.0376 -0.09819,0.0241 -0.0017,-0.0935 0.100189,-0.12223 0.08801,-0.12141 -0.109998,0.007 -0.204522,0.1331 -0.222657,0.18702 -0.222657,0.66188 0,0.35893 0.03094,0.51735 0.101208,0.51821 0.06747,9.1e-4 0.06072,0.0274 -0.02024,0.0797 -0.09539,0.0616 -0.09761,0.0787 -0.01033,0.0797 0.09418,9.2e-4 0.09418,0.0221 0,0.13785 -0.09619,0.11825 -0.09379,0.13013 0.01787,0.0884 0.114679,-0.0429 0.134894,0.15455 0.182175,1.77919 0.02925,1.00508 0.05318,2.18802 0.05318,2.62877 0,0.4854 0.03032,0.78262 0.0769,0.75383 0.1318,-0.0814 0.229909,0.21784 0.278084,0.84834 0.07938,1.03881 0.160651,1.98033 0.176423,2.0437 0.0083,0.0334 0.01967,0.21849 0.02523,0.41131 l 0.01012,0.35058 0.448144,-0.0156 c 0.391335,-0.0137 0.468312,0.01 0.607248,0.18662 0.110404,0.14035 0.159562,0.32904 0.160597,0.61642 8.26e-4,0.22779 0.05786,0.72386 0.126744,1.10237 0.06889,0.37852 0.124686,1.07989 0.123992,1.55861 l -0.0013,0.87039 h 0.409352 c 0.318515,0 0.462731,-0.0449 0.649909,-0.20242 0.216609,-0.18226 0.311307,-0.20241 0.951221,-0.20241 0.624038,0 0.734923,0.0222 0.909683,0.18217 0.415715,0.38053 0.463378,0.40822 0.420523,0.24434 -0.07132,-0.27272 0.216743,-0.42228 0.90796,-0.47139 0.352965,-0.0251 0.75106,-0.0774 0.884654,-0.1162 0.605618,-0.17606 3.127089,-0.28633 3.38675,-0.14811 0.08145,0.0434 0.183719,0.18104 0.227266,0.30596 l 0.07918,0.22713 2.525594,0.0146 c 1.389076,0.008 2.853507,0.0278 3.254292,0.0438 0.400784,0.0161 0.990396,0.032 1.310249,0.0354 0.50749,0.005 0.588094,0.0268 0.632947,0.16809 0.02828,0.0891 0.103592,0.16193 0.167387,0.16193 0.114398,0 0.128597,0.40983 0.153586,4.43291 l 0.0028,0.46556 h -4.04819 c -4.299584,0 -5.44775,0.0697 -6.081354,0.36906 -0.274408,0.12967 -0.511115,0.15723 -1.350402,0.15723 -0.8172,0 -1.042735,0.0251 -1.144904,0.12723 -0.06998,0.07 -0.127233,0.15869 -0.127233,0.19714 0,0.0384 -0.04374,0.17248 -0.09721,0.29784 l -0.09721,0.22793 -0.0549,-0.36435 c -0.03189,-0.21166 -0.0399,-0.0725 -0.01911,0.332 0.01968,0.38299 -0.0069,1.2253 -0.05907,1.87179 -0.07417,0.91904 -0.07251,1.50894 0.0076,2.70425 0.05634,0.84084 0.09821,1.6381 0.09305,1.7717 -0.0052,0.13359 -0.0111,0.32726 -0.01318,0.43038 -0.0032,0.15798 -0.03238,0.17785 -0.185494,0.12629 -0.09994,-0.0337 -0.272794,-0.0634 -0.384123,-0.066 -0.168062,-0.004 -0.197791,0.028 -0.175162,0.1887 0.01996,0.14173 -0.004,0.18151 -0.08968,0.14865 -0.09535,-0.0366 -0.134114,0.14438 -0.210012,0.98049 -0.115295,1.27016 -0.115664,1.30886 -0.01094,1.1468 0.06793,-0.10511 0.07865,-0.10334 0.07973,0.0131 0.0027,0.29368 1.242459,0.28534 1.335874,-0.009 0.02526,-0.0796 0.117794,-0.20974 0.205628,-0.28923 0.148508,-0.1344 0.240564,-0.13776 1.313638,-0.048 0.634667,0.0531 1.281462,0.11658 1.437322,0.14107 0.303178,0.0477 0.566766,0.23362 0.566766,0.39987 0,0.056 0.136631,0.12202 0.303624,0.14675 0.317463,0.047 0.494785,0.0571 4.432915,0.25119 3.223859,0.15893 3.761124,0.19497 4.046728,0.27148 l 0.241305,0.0646 -0.02164,1.33055 c -0.02812,1.7285 -0.165101,3.65675 -0.26709,3.75954 -0.09471,0.0955 -2.13204,0.10748 -3.71592,0.0219 -0.601176,-0.0325 -1.867289,-0.0838 -2.813585,-0.11404 -1.53997,-0.0492 -1.720538,-0.0415 -1.720538,0.0734 0,0.0706 -0.0948,0.20298 -0.210663,0.29412 -0.194721,0.15317 -0.288168,0.16237 -1.234739,0.12158 -1.134643,-0.0489 -1.563109,-0.11428 -2.400506,-0.36637 -0.976231,-0.29388 -1.271793,-0.41177 -1.4307,-0.57068 -0.08473,-0.0847 -0.193048,-0.12995 -0.24071,-0.1005 -0.05988,0.037 -0.05687,0.072 0.0097,0.11314 0.06895,0.0426 0.05869,0.074 -0.03604,0.1104 -0.07741,0.0297 -0.111888,0.0176 -0.08298,-0.0292 0.0854,-0.13817 -0.04163,-0.0878 -0.326342,0.12932 -0.150965,0.11515 -0.309973,0.18743 -0.353353,0.16062 -0.09753,-0.0603 -0.170084,0.0508 -0.221956,0.33982 -0.06462,0.36004 -0.191063,0.40623 -0.143444,0.0524 0.03388,-0.25177 0.003,-0.20495 -0.150205,0.22789 -0.106067,0.29962 -0.336081,0.74748 -0.511142,0.99525 -0.487406,0.68982 -0.518235,0.76931 -0.519516,1.33939 -0.0022,0.99869 -0.262109,1.09238 -4.251933,1.53288 -1.671968,0.18459 -4.199374,0.2102 -4.861907,0.0492 z"
       id="path1122"
       
       sodipodi:nodetypes="ccccccccsccccccccccccsscsssccccccccccccsccccccssccccccccccscsscccccsccccccscccccsscccccccccccscscccccccccccsccscscsccccccccccccccccsccsccccccccscccccccccccccccccc" />
  </g>
</svg>
