<?xml version="1.0" encoding="UTF-8" standalone="no"?>
<!-- Created with Inkscape (http://www.inkscape.org/) -->

<svg
   xmlns:dc="http://purl.org/dc/elements/1.1/"
   xmlns:cc="http://creativecommons.org/ns#"
   xmlns:rdf="http://www.w3.org/1999/02/22-rdf-syntax-ns#"
   xmlns:svg="http://www.w3.org/2000/svg"
   xmlns="http://www.w3.org/2000/svg"
   xmlns:sodipodi="http://sodipodi.sourceforge.net/DTD/sodipodi-0.dtd"   
   width="220"
   height="235"
   viewBox="0 0 58.208332 62.177085"
   version="1.1"
   id="svg8"
   sodipodi:docname="sling.svg" >
  <defs
     id="defs2" />
  <sodipodi:namedview
     id="base"
     pagecolor="#000000"
     bordercolor="#666666"
     borderopacity="1.0"     
     showgrid="false"
     units="px" />
  <metadata
     id="metadata5">
    <rdf:RDF>
      <cc:Work
         rdf:about="">
        <dc:format>image/svg+xml</dc:format>
        <dc:type
           rdf:resource="http://purl.org/dc/dcmitype/StillImage" />
        <dc:title></dc:title>
      </cc:Work>
    </rdf:RDF>
  </metadata>
  <g
     id="layer1"
     transform="translate(0,-234.8229)">
    <path
       style="fill:none;stroke:#ffffff;stroke-width:0.40000001;stroke-miterlimit:4;stroke-dasharray:none;stroke-opacity:1"
       d="m 30.43584,293.90724 c 0.05285,-0.15558 0.07481,-0.3972 0.0488,-0.53694 -0.0886,-0.47608 -0.337541,-1.26569 -0.399033,-1.26569 -0.03374,0 -0.03708,-0.0801 -0.0074,-0.17795 0.09044,-0.2987 0.06076,-0.53549 -0.08543,-0.68168 -0.07662,-0.0766 -0.148135,-0.29635 -0.158934,-0.4883 l -0.01962,-0.349 0.265186,-0.009 c 0.351918,-0.0125 0.589347,-0.1643 0.731725,-0.46797 0.160739,-0.34284 0.198385,-0.37075 0.604895,-0.44858 0.456864,-0.0875 0.888045,-0.49122 0.933815,-0.87442 0.02722,-0.22796 0.05065,-0.25857 0.188063,-0.2458 0.235454,0.0219 0.35678,-0.1455 0.570813,-0.78749 0.10679,-0.32032 0.27916,-0.70525 0.383041,-0.85541 0.103882,-0.15015 0.258692,-0.46802 0.344026,-0.70636 0.08533,-0.23835 0.184422,-0.46263 0.220205,-0.49841 0.06315,-0.0632 0.186175,-0.36598 0.539753,-1.32862 0.09384,-0.25547 0.193439,-0.62353 0.221345,-0.8179 0.04859,-0.3385 0.145739,-0.5527 0.576446,-1.27112 0.465547,-0.77652 0.54237,-0.86603 0.847374,-0.98731 0.416649,-0.16568 1.025366,-0.78711 1.149153,-1.17316 0.120674,-0.37632 0.143963,-0.77981 0.05042,-0.87336 -0.03848,-0.0385 -0.01855,-0.2134 0.04431,-0.38872 0.06285,-0.17531 0.170026,-0.60019 0.238184,-0.94417 0.06815,-0.34398 0.156666,-0.65818 0.196694,-0.69821 0.04004,-0.04 0.04809,-0.0975 0.01787,-0.12769 -0.03021,-0.0302 0.02509,-0.32565 0.12288,-0.65656 0.306699,-1.0379 0.452118,-1.67706 0.608115,-2.67289 0.175232,-1.1186 0.823061,-4.24166 1.236615,-5.96149 0.07387,-0.30719 0.176558,-0.80207 0.228203,-1.09973 0.141597,-0.81611 0.477165,-2.42904 0.745743,-3.58447 0.349175,-1.50212 0.44465,-2.4004 0.660092,-6.2105 0.01191,-0.21039 0.04802,-0.82664 0.08027,-1.36946 0.06233,-1.04904 0.07618,-2.08609 0.04113,-3.07961 -0.01179,-0.33446 0.0012,-0.76001 0.02913,-0.94565 0.02784,-0.18564 -0.01741,-1.07572 -0.10054,-1.97796 -0.215498,-2.33905 -0.530384,-3.1523 -1.658226,-4.28268 -0.453699,-0.45457 -1.473176,-1.70288 -2.105962,-2.57832 -0.440852,-0.60991 -0.701635,-1.12777 -1.508545,-2.99565 -0.448354,-1.03787 -0.784772,-1.71107 -0.925294,-1.8516 -0.669012,-0.66901 -4.324394,-1.24669 -6.015479,-0.95066 -1.398767,0.24487 -2.78426,0.67821 -3.273905,1.024 -1.069566,0.75532 -2.348028,2.41452 -3.413106,4.42954 -0.495169,0.93682 -0.987607,1.74948 -1.437809,2.37278 -0.388804,0.5383 -0.877487,1.52396 -1.356326,2.73566 -0.163033,0.41256 -0.55896,1.34764 -0.879835,2.07796 -0.320874,0.73031 -0.930264,2.3813 -1.354196,3.66885 -0.820943,2.49335 -1.00984,3.39545 -1.050561,5.01716 -0.01185,0.47231 -0.04785,0.88503 -0.07998,0.91716 -0.03213,0.0321 -0.23404,0.12631 -0.448692,0.2093 -0.416577,0.16106 -0.531252,0.35708 -0.312769,0.53463 0.05786,0.047 0.212973,0.38735 0.344677,0.75626 0.131701,0.36891 0.51447,1.36315 0.850598,2.20942 0.376921,0.94898 0.601955,1.63637 0.587163,1.79359 -0.01318,0.14021 0.08765,0.49861 0.224068,0.79644 0.136423,0.29784 0.300707,0.70514 0.365073,0.90512 0.06437,0.19998 0.198494,0.45613 0.298064,0.56921 0.207207,0.23531 0.340276,0.8953 0.450435,2.23384 0.04059,0.49325 0.239849,1.64011 0.442796,2.54858 0.430473,1.927 0.473416,2.23616 0.499933,3.59934 0.02018,1.03715 0.115655,1.67209 0.422648,2.81057 0.09442,0.35015 0.336155,1.30099 0.537191,2.11297 0.201036,0.81199 0.393169,1.50399 0.426959,1.53779 0.03379,0.0338 0.108267,0.22169 0.165504,0.41755 0.191363,0.65488 0.706974,1.05199 1.648429,1.2696 0.150756,0.0348 0.224069,0.1459 0.436378,0.66105 0.140344,0.34055 0.333389,0.69739 0.428992,0.79299 0.0956,0.0956 0.165171,0.21042 0.15461,0.25516 -0.0377,0.1597 0.261859,0.4976 0.573153,0.64652 0.174093,0.0833 0.339301,0.20254 0.367121,0.26501 0.02781,0.0625 0.132202,0.0947 0.231955,0.0717 0.166473,-0.0385 0.188287,-0.0212 0.265574,0.20992 0.04631,0.13851 0.153324,0.29231 0.23781,0.34176 0.08684,0.0508 0.174567,0.19866 0.201839,0.34007 0.09918,0.5144 0.19221,0.65173 0.575523,0.84957 0.357578,0.18455 0.361127,0.18938 0.350222,0.47627 -0.01151,0.30302 0.135547,0.62872 0.321236,0.71142 0.05987,0.0267 0.103839,0.21976 0.09772,0.42911 -0.01963,0.67178 0.474638,1.24201 1.05161,1.21323 0.118711,-0.006 0.243137,0.0188 0.276499,0.055 0.03324,0.0363 0.07188,0.38694 0.08558,0.77949 0.02352,0.6737 0.01371,0.71426 -0.175193,0.72368 -0.110069,0.005 -0.234764,0.0446 -0.277107,0.087 -0.04234,0.0423 -0.258494,0.12436 -0.480336,0.18226 -0.381827,0.0997 -0.573358,0.26624 -0.449048,0.39056 0.03096,0.031 0.178027,0.025 0.326818,-0.0133 0.148794,-0.0383 0.280165,-0.0288 0.291942,0.0211 0.01209,0.0513 0.03291,0.042 0.04785,-0.0212 0.03145,-0.13321 0.301211,-0.17346 0.413052,-0.0616 0.04341,0.0434 0.0924,0.35103 0.108876,0.68361 0.01648,0.33259 0.08603,0.69227 0.154567,0.79931 0.06854,0.10703 0.149519,0.24258 0.179974,0.3012 0.107456,0.20688 0.569208,0.36784 0.823264,0.28698 0.326764,-0.10401 0.662628,-0.44881 0.783338,-0.8042 z m -0.856063,-5.9983 c -0.233526,0.0932 -0.278884,0.0815 -0.405788,-0.1049 -0.07857,-0.11545 -0.191052,-0.3545 -0.249939,-0.53124 -0.118113,-0.35447 -0.286162,-0.5618 -0.428185,-0.52827 -0.05637,0.0133 -0.112209,-0.0733 -0.143207,-0.22218 -0.02997,-0.14384 -0.186285,-0.391 -0.38085,-0.60215 -0.185234,-0.20103 -0.350984,-0.45877 -0.377795,-0.5875 -0.02626,-0.12613 -0.12366,-0.30523 -0.216414,-0.39798 -0.09275,-0.0928 -0.204422,-0.2817 -0.248153,-0.41988 -0.04373,-0.13817 -0.1439,-0.28463 -0.222589,-0.32545 -0.0787,-0.0408 -0.211155,-0.24611 -0.294386,-0.45619 -0.08322,-0.21008 -0.314844,-0.66011 -0.514713,-1.00007 -0.543558,-0.9245 -0.574589,-1.01702 -0.434432,-1.29526 0.186573,-0.37039 0.260843,-1.02019 0.152921,-1.33795 -0.05246,-0.15447 -0.05452,-0.24117 -0.0046,-0.19267 0.04987,0.0486 0.09531,0.15763 0.100825,0.24253 0.0055,0.0849 0.0199,0.0426 0.03196,-0.0939 0.01207,-0.13657 -0.08711,-0.78946 -0.220415,-1.45088 -0.1333,-0.66141 -0.327227,-1.68929 -0.430958,-2.28416 -0.386616,-2.21716 -0.753875,-3.92819 -1.214126,-5.65648 -0.260442,-0.978 -0.550869,-2.1685 -0.645381,-2.64557 -0.09452,-0.47708 -0.325011,-1.29883 -0.512207,-1.82612 -0.187193,-0.52729 -0.305816,-0.99324 -0.263603,-1.03545 0.199679,-0.19968 0.121861,-0.63678 -0.288422,-1.62004 -0.404725,-0.96993 -0.440432,-1.02826 -0.677976,-1.10768 -0.238558,-0.0798 -0.258706,-0.1141 -0.4144,-0.70604 -0.09001,-0.34221 -0.208066,-0.96751 -0.262343,-1.38954 -0.05428,-0.42205 -0.209172,-1.15052 -0.344206,-1.61883 -0.402789,-1.39695 -0.429743,-2.27638 -0.115631,-3.77284 0.231866,-1.10464 0.59182,-2.05698 1.182953,-3.12976 0.916742,-1.66369 1.20244,-2.41908 1.330896,-3.51893 0.151388,-1.29622 0.254819,-1.56911 0.957188,-2.5255 1.690849,-2.30238 2.348794,-3.43619 2.885396,-4.9723 0.519774,-1.48793 0.718203,-1.75872 1.423678,-1.94284 0.672075,-0.17542 1.811864,-0.17538 2.659166,9e-5 1.023725,0.21201 3.952549,1.18988 4.522061,1.50983 l 0.450165,0.25289 0.196362,0.83009 c 0.211337,0.8934 0.46062,1.63985 0.814305,2.43832 0.399601,0.90215 0.499878,1.49721 0.469933,2.78884 -0.01583,0.68268 -0.02815,2.72418 -0.02737,4.53665 9.26e-4,2.34132 -0.04684,3.63166 -0.165237,4.45672 -0.159276,1.10991 -0.198326,2.28512 -0.110275,3.31861 0.093,1.09164 0.06976,2.18134 -0.07045,3.30297 -0.143439,1.1474 -0.768309,4.63472 -0.983925,5.49115 -0.05769,0.22916 -0.252862,1.10009 -0.433704,1.93541 -0.180844,0.83531 -0.486651,1.92975 -0.679569,2.43209 -0.19292,0.50234 -0.381538,1.04371 -0.419154,1.20305 -0.03762,0.15934 -0.218932,0.60431 -0.402929,0.98882 -0.183993,0.38452 -0.408363,0.9232 -0.498591,1.19706 -0.09023,0.27386 -0.193359,0.51396 -0.229191,0.53354 -0.107907,0.059 -0.432362,1.20091 -0.36162,1.2727 0.03616,0.0366 0.01759,0.28696 -0.04119,0.55623 -0.08376,0.38378 -0.163174,0.54121 -0.367436,0.72844 -0.216415,0.19835 -0.264955,0.30624 -0.286405,0.63642 -0.02685,0.41347 0.138477,0.98059 0.348342,1.19483 0.161427,0.16492 0.130785,0.40242 -0.08324,0.64407 -0.323053,0.36478 -0.4739,0.67816 -0.392957,0.81643 0.04335,0.074 0.0429,0.17053 -9.26e-4,0.21442 -0.04389,0.0439 -0.166712,0.3437 -0.272938,0.66624 -0.106224,0.32254 -0.280211,0.75918 -0.386634,0.9703 -0.106427,0.21113 -0.275624,0.6395 -0.376004,0.95193 -0.100367,0.31245 -0.278149,0.79439 -0.395067,1.071 -0.116921,0.2766 -0.233368,0.65741 -0.258788,0.84624 -0.04155,0.30872 -0.07154,0.35479 -0.297439,0.45688 -0.220746,0.0998 -0.255565,0.14803 -0.286985,0.3978 -0.01966,0.15634 -0.05572,0.29028 -0.08011,0.29764 -0.02438,0.007 -0.162662,0.0606 -0.307267,0.11836 z"
       id="path1161"       
       sodipodi:nodetypes="ccsccccccccccccccccccccccccccsccccccccccccccccccccccccccccccccsccccccccccccccccccccccccccccccccccccccccccccccccccccccccccsccsccccccccccccccccccccccccccccccccccccccc" />
  </g>
</svg>
