<?xml version="1.0" encoding="UTF-8" standalone="no"?>
<!-- Created with Inkscape (http://www.inkscape.org/) -->

<svg
   xmlns:dc="http://purl.org/dc/elements/1.1/"
   xmlns:cc="http://creativecommons.org/ns#"
   xmlns:rdf="http://www.w3.org/1999/02/22-rdf-syntax-ns#"
   xmlns:svg="http://www.w3.org/2000/svg"
   xmlns="http://www.w3.org/2000/svg"
   xmlns:sodipodi="http://sodipodi.sourceforge.net/DTD/sodipodi-0.dtd"   
   width="220"
   height="79"
   viewBox="0 0 58.208336 20.902083"
   version="1.1"
   id="svg8"
   sodipodi:docname="angled-foregrip.svg" >
  <defs
     id="defs2" />
  <sodipodi:namedview
     id="base"
     pagecolor="#000000"
     bordercolor="#666666"
     borderopacity="1.0"
     showgrid="false"
     fit-margin-top="0"
     fit-margin-left="0"
     fit-margin-right="0"
     fit-margin-bottom="0"
     units="px" />
  <metadata
     id="metadata5">
    <rdf:RDF>
      <cc:Work
         rdf:about="">
        <dc:format>image/svg+xml</dc:format>
        <dc:type
           rdf:resource="http://purl.org/dc/dcmitype/StillImage" />
        <dc:title />
      </cc:Work>
    </rdf:RDF>
  </metadata>
  <g
     id="layer1"
     transform="translate(0.1032419,-276.41944)">
    <path
       style="fill:none;stroke:#ffffff;stroke-width:0.40000001;stroke-miterlimit:4;stroke-dasharray:none;stroke-opacity:1"
       d="m 18.21355,295.62081 c 0.225096,-0.16306 0.451311,-0.37652 0.502701,-0.47437 0.05139,-0.0978 0.111616,-0.60775 0.133833,-1.13313 0.03878,-0.91702 0.05422,-0.97186 0.386126,-1.37139 0.190152,-0.22887 0.401907,-0.41696 0.470566,-0.41795 0.06866,-9.1e-4 0.124835,-0.0494 0.124835,-0.10757 0,-0.0582 0.04133,-0.0801 0.09187,-0.049 0.05053,0.0312 0.174635,-0.0484 0.275792,-0.17703 0.101158,-0.1286 0.306989,-0.26472 0.457403,-0.30245 0.150414,-0.0378 0.27348,-0.1352 0.27348,-0.21656 0,-0.0824 0.09045,-0.14789 0.204275,-0.14789 0.112351,0 0.310807,-0.10654 0.441012,-0.23674 0.130205,-0.1302 0.352866,-0.26588 0.4948,-0.3015 0.141934,-0.0357 0.258063,-0.13132 0.258063,-0.21267 0,-0.0814 0.08988,-0.1479 0.199736,-0.1479 0.109855,0 0.285181,-0.0855 0.389612,-0.18987 0.104432,-0.10444 0.284242,-0.21983 0.399578,-0.25644 0.115335,-0.0365 0.256175,-0.1534 0.312977,-0.25952 0.05679,-0.10614 0.191194,-0.19298 0.298651,-0.19298 0.107457,0 0.251507,-0.0899 0.320112,-0.19974 0.0686,-0.10985 0.224696,-0.19973 0.34687,-0.19973 0.122174,0 0.270237,-0.0899 0.329028,-0.19974 0.05879,-0.10985 0.191933,-0.19973 0.295869,-0.19973 0.103935,0 0.277349,-0.11236 0.385365,-0.24967 0.108014,-0.13732 0.295245,-0.24967 0.416069,-0.24967 0.13569,0 0.239648,-0.0764 0.27191,-0.19973 0.03374,-0.12901 0.136222,-0.19974 0.289409,-0.19974 0.130446,0 0.293306,-0.0899 0.361912,-0.19974 0.0686,-0.10986 0.200546,-0.19974 0.293201,-0.19974 0.09266,0 0.259804,-0.11612 0.37144,-0.25803 0.111636,-0.14193 0.24295,-0.23334 0.291806,-0.20315 0.112989,0.0699 0.877276,-0.48741 0.958375,-0.69875 0.03471,-0.0905 0.125202,-0.13445 0.209803,-0.10198 0.0895,0.0344 0.210022,-0.0364 0.302567,-0.17766 0.08459,-0.1291 0.281074,-0.26019 0.436624,-0.2913 0.178997,-0.0358 0.303728,-0.13651 0.339775,-0.27436 0.03606,-0.1379 0.109891,-0.19748 0.20125,-0.16243 0.07935,0.0304 0.250571,-0.0199 0.380462,-0.11186 0.176189,-0.12476 0.451759,-0.16724 1.085045,-0.16724 0.931825,0 1.076419,0.0278 1.298283,0.24967 0.209179,0.20918 0.554257,0.22444 0.714232,0.0315 0.08166,-0.0985 0.13642,-0.42148 0.139156,-0.821 0.005,-0.7267 0.185662,-1.17723 0.652853,-1.62783 0.306399,-0.29552 1.195234,-0.77855 1.43265,-0.77855 0.08208,0 0.236096,-0.0932 0.342264,-0.20718 0.168038,-0.18037 0.22027,-0.1902 0.403361,-0.0759 0.173942,0.10863 0.246921,0.1085 0.421839,-7.5e-4 0.151705,-0.0947 0.242065,-0.10153 0.319578,-0.024 0.146584,0.14658 0.440596,0.13665 0.496154,-0.0168 0.03616,-0.0999 0.08749,-0.0999 0.256637,0 0.269801,0.1593 0.485526,0.1593 0.539012,0 0.03295,-0.0981 0.09675,-0.0956 0.298403,0.0118 0.141069,0.0751 0.312655,0.1019 0.381303,0.0595 0.184519,-0.11403 0.60331,-0.14327 0.537971,-0.0376 -0.03098,0.0502 0.03356,0.0912 0.143416,0.0912 0.109855,0 0.226941,-0.0441 0.260193,-0.0978 0.03829,-0.062 0.129281,-0.0548 0.248164,0.0194 0.144356,0.0901 0.249657,0.089 0.455953,-0.005 0.206023,-0.0939 0.301089,-0.0949 0.409828,-0.005 0.108554,0.0901 0.201743,0.0901 0.399472,0 0.19789,-0.0902 0.290933,-0.0901 0.399918,3.7e-4 0.109647,0.0911 0.197399,0.0883 0.384889,-0.0121 0.200437,-0.10727 0.271041,-0.10659 0.404176,0.004 0.130149,0.10801 0.19985,0.10981 0.360768,0.01 0.124954,-0.078 0.243157,-0.0903 0.316462,-0.0328 0.06436,0.0506 0.233292,0.11953 0.375419,0.15338 0.581043,0.13836 1.071635,0.87948 1.113147,1.68163 0.0066,0.12749 0.04343,0.27673 0.08188,0.33166 0.03843,0.0549 0.100404,0.3525 0.137715,0.66127 0.08821,0.72995 0.29072,0.94286 0.97857,1.02881 0.952209,0.11897 1.466712,-0.28177 1.722131,-1.34133 0.156442,-0.64898 0.406166,-5.22366 0.294972,-5.40357 -0.03004,-0.0486 -0.384211,-0.0883 -0.787048,-0.0883 -0.558921,0 -0.746048,-0.0355 -0.789915,-0.1498 -0.08679,-0.22617 -6.455296,-0.22617 -6.455296,0 0,0.12576 -0.21638,0.1498 -1.348215,0.1498 -1.123226,0 -1.348217,-0.0247 -1.348217,-0.14768 0,-0.12805 -0.501097,-0.14518 -3.770011,-0.12894 -2.073506,0.0103 -4.073813,-0.0185 -4.445128,-0.0637 -0.429926,-0.0525 -0.774492,-0.0448 -0.948744,0.0215 -0.165929,0.063 -2.101415,0.12844 -4.917483,0.16617 -3.89168,0.0522 -4.661814,0.0857 -4.754733,0.20738 -0.08665,0.11334 -0.386692,0.14504 -1.373182,0.14504 -1.10897,0 -1.262306,-0.0201 -1.262306,-0.16559 0,-0.15064 -0.168965,-0.15968 -1.872522,-0.10014 -1.029888,0.036 -2.350298,0.0655 -2.934247,0.0657 l -1.061723,3e-4 -0.112011,0.44484 c -0.208989,0.82998 0.200786,2.57134 0.694832,2.95273 0.136237,0.10516 0.748908,1.7937 1.992995,5.49272 0.987959,2.93749 1.97405,5.7004 2.191315,6.13982 1.006247,2.03515 1.980868,2.67337 2.978675,1.95056 z m -1.00703,-8.71661 c -0.316711,-0.30025 -0.373345,-0.45432 -0.756121,-2.05691 -0.506494,-2.12056 -0.514097,-2.30999 -0.1065,-2.65296 0.286781,-0.24132 0.378326,-0.25911 1.373183,-0.26697 0.586255,-0.005 1.852376,-0.0244 2.813604,-0.0439 2.047098,-0.0415 2.400532,0.023 2.689515,0.49053 0.233931,0.3785 0.253702,0.61296 0.07827,0.9283 -0.120639,0.21685 -4.361116,3.4565 -4.921142,3.75964 -0.460917,0.24951 -0.787697,0.20549 -1.170817,-0.15774 z"
       id="path2641" />
       
  </g>
</svg>
