<?xml version="1.0" encoding="UTF-8" standalone="no"?>
<!-- Created with Inkscape (http://www.inkscape.org/) -->

<svg
   xmlns:dc="http://purl.org/dc/elements/1.1/"
   xmlns:cc="http://creativecommons.org/ns#"
   xmlns:rdf="http://www.w3.org/1999/02/22-rdf-syntax-ns#"
   xmlns:svg="http://www.w3.org/2000/svg"
   xmlns="http://www.w3.org/2000/svg"
   xmlns:sodipodi="http://sodipodi.sourceforge.net/DTD/sodipodi-0.dtd"   
   width="220"
   height="79"
   viewBox="0 0 58.208336 20.902083"
   version="1.1"
   id="svg8"   
   sodipodi:docname="bipod.svg" >
  <defs
     id="defs2" />
  <sodipodi:namedview
     id="base"
     pagecolor="#000000"
     bordercolor="#666666"
     borderopacity="1.0"
     showgrid="false"
     fit-margin-top="0"
     fit-margin-left="0"
     fit-margin-right="0"
     fit-margin-bottom="0"     
     units="px" />
  <metadata
     id="metadata5">
    <rdf:RDF>
      <cc:Work
         rdf:about="">
        <dc:format>image/svg+xml</dc:format>
        <dc:type
           rdf:resource="http://purl.org/dc/dcmitype/StillImage" />
        <dc:title />
      </cc:Work>
    </rdf:RDF>
  </metadata>
  <g
     id="layer1"
     transform="translate(0.1032419,-276.41944)">
    <path
       style="fill:none;stroke:#ffffff;stroke-width:0.4;stroke-opacity:1;stroke-miterlimit:4;stroke-dasharray:none"
       d="m 9.9302213,279.33768 c 0.2125867,-0.73147 0.8244767,-1.26316 1.6234487,-1.41065 0.590139,-0.10894 0.718792,-0.0622 1.176586,0.42792 l 0.513996,0.55024 h 3.091532 c 2.572435,0 3.129621,0.0459 3.318387,0.27334 0.192129,0.2315 0.6626,0.26248 3.073152,0.20235 1.56546,-0.039 3.244312,-0.16283 3.730782,-0.27507 0.48647,-0.11224 2.488088,-0.25428 4.448042,-0.31565 l 3.563551,-0.1116 0.108279,-0.67715 c 0.135096,-0.84484 0.592952,-1.1225 1.588866,-0.96355 1.030221,0.16443 1.524285,0.53348 1.524285,1.13861 0,0.48391 0.03796,0.50539 1.087337,0.61507 0.598036,0.0625 1.65279,0.11486 2.343898,0.11635 0.691109,10e-4 1.347829,0.0612 1.459377,0.13268 0.111548,0.0715 0.288762,0.44985 0.393807,0.84081 0.119488,0.44472 0.482167,0.99662 0.96873,1.47415 0.704844,0.69175 0.879595,0.77253 1.864503,0.86183 0.995161,0.0902 1.094868,0.13745 1.18289,0.56018 0.05286,0.25391 0.172587,0.58106 0.266042,0.727 0.510146,0.79664 0.693419,1.50909 0.692513,2.692 -0.0011,1.4985 -0.264276,2.61494 -0.6163,2.61494 -0.16396,0 -0.265128,0.25247 -0.301257,0.75181 l -0.0544,0.75182 -0.822614,0.0532 c -0.795492,0.0514 -0.853817,0.0951 -1.76898,1.3255 -0.520501,0.69976 -1.065772,1.63108 -1.211713,2.06958 l -0.265347,0.79728 -2.432347,-0.0231 -2.432348,-0.0231 v 0.5763 c 0,0.75634 -0.350311,1.0178 -1.490376,1.11234 -0.829288,0.0688 -0.97183,0.0298 -1.227563,-0.33527 -0.15913,-0.22719 -0.289327,-0.62179 -0.289327,-0.8769 v -0.46384 l -2.609245,-0.11052 c -2.6502,-0.11224 -6.159957,-0.55273 -6.494218,-0.81504 -0.101025,-0.0793 -1.449454,-0.18813 -2.996508,-0.24188 -2.27568,-0.0791 -2.860223,-0.0503 -3.061015,0.15044 -0.202662,0.20266 -0.795548,0.22752 -3.232146,0.13553 l -2.983958,-0.11267 -0.568488,0.47835 c -0.580282,0.48828 -1.15539,0.51177 -1.978045,0.0808 -1.1598157,-0.60758 -1.1444357,-3.83464 0.02235,-4.68939 0.15366,-0.11257 0.557672,-0.24982 0.897803,-0.30502 0.5146,-0.0835 0.708137,-0.0153 1.152841,0.40603 l 0.534421,0.50639 3.069468,0.0826 c 2.366478,0.0637 3.104311,0.13912 3.221598,0.32933 0.218854,0.3549 5.274905,0.45833 6.268691,0.12823 0.537247,-0.17846 2.283292,-0.23508 7.252819,-0.23519 l 6.545225,-1.4e-4 0.05168,-1.06777 c 0.04599,-0.95004 0.0021,-1.11435 -0.39802,-1.49024 -0.540428,-0.50771 -0.57703,-1.11798 -0.09591,-1.59909 0.290739,-0.29075 0.353796,-0.58967 0.353796,-1.67716 0,-1.22933 -0.02828,-1.3294 -0.39802,-1.40817 -0.218912,-0.0467 -2.786144,-0.12287 -5.704961,-0.16939 -3.975086,-0.0634 -5.684299,-0.15927 -6.810573,-0.38212 -1.794405,-0.35506 -7.209933,-0.54547 -7.491984,-0.26341 -0.115229,0.11523 -1.365373,0.18539 -3.303338,0.18539 h -3.117945 l -0.428857,0.45736 c -0.37009,0.39469 -0.525543,0.44196 -1.134461,0.34495 -0.388083,-0.0618 -0.88573,-0.28163 -1.105882,-0.48845 -0.6784527,-0.63737 -0.9301047,-2.16155 -0.5645567,-3.41933 z"
       id="path2654" />
       
  </g>
</svg>
