<?xml version="1.0" encoding="UTF-8" standalone="no"?>
<svg
   xmlns:dc="http://purl.org/dc/elements/1.1/"
   xmlns:cc="http://creativecommons.org/ns#"
   xmlns:rdf="http://www.w3.org/1999/02/22-rdf-syntax-ns#"
   xmlns:svg="http://www.w3.org/2000/svg"
   xmlns="http://www.w3.org/2000/svg"
   xmlns:sodipodi="http://sodipodi.sourceforge.net/DTD/sodipodi-0.dtd"
   xmlns:inkscape="http://www.inkscape.org/namespaces/inkscape"
   width="220"
   height="235"
   viewBox="0 0 58.208332 62.177085"
   version="1.1"
   id="svg8"
   sodipodi:docname="bipod-flat.svg"
   inkscape:version="1.0.2-2 (e86c870879, 2021-01-15)">
  <defs
     id="defs2" />
  <sodipodi:namedview
     id="base"
     pagecolor="#000000"
     bordercolor="#666666"
     borderopacity="1.0"
     showgrid="false"
     fit-margin-top="0"
     fit-margin-left="0"
     fit-margin-right="0"
     fit-margin-bottom="0"
     units="px"
     inkscape:document-rotation="0"
     inkscape:zoom="1.5165184"
     inkscape:cx="36.681734"
     inkscape:cy="136.69414"
     inkscape:window-width="1258"
     inkscape:window-height="1198"
     inkscape:window-x="182"
     inkscape:window-y="492"
     inkscape:window-maximized="0"
     inkscape:current-layer="svg8" />
  <metadata
     id="metadata5">
    <rdf:RDF>
      <cc:Work
         rdf:about="">
        <dc:format>image/svg+xml</dc:format>
        <dc:type
           rdf:resource="http://purl.org/dc/dcmitype/StillImage" />
        <dc:title></dc:title>
      </cc:Work>
    </rdf:RDF>
  </metadata>
  <g
     id="layer1"
     transform="matrix(0.70080727,-0.69290262,0.69290262,0.70080727,-204.05951,-162.10838)"
     style="stroke-width:0.4058781;stroke-miterlimit:4;stroke-dasharray:none">
    <path
       style="fill:none;stroke:#ffffff;stroke-width:0.4058781;stroke-miterlimit:4;stroke-dasharray:none;stroke-opacity:1"
       d="m 2.806121,318.68342 c -0.5584449,-1.01604 -0.47213,-2.2468 0.2290226,-3.26543 0.5178871,-0.75239 0.7066532,-0.84054 1.7268387,-0.80575 l 1.1453776,0.039 3.3272401,-3.32725 c 2.768566,-2.76855 3.417633,-3.31883 3.865573,-3.2772 0.455927,0.0423 0.995611,-0.43063 3.525236,-3.08968 1.642842,-1.7268 3.316425,-3.66692 3.719188,-4.31128 0.402761,-0.64435 2.404119,-2.95144 4.447458,-5.12689 l 3.715139,-3.95535 -0.612244,-0.84531 c -0.763856,-1.05465 -0.569922,-1.84625 0.672993,-2.74702 1.285734,-0.93181 2.214655,-1.06635 2.865923,-0.41509 0.520805,0.52081 0.584776,0.50308 1.832203,-0.50827 0.710899,-0.57636 1.902423,-1.65518 2.647826,-2.39738 0.744877,-0.74272 1.516458,-1.38473 1.713441,-1.42785 0.197004,-0.0431 0.794926,0.17338 1.328748,0.48109 0.607225,0.35002 1.591535,0.55367 2.629134,0.54394 1.503074,-0.0137 1.778087,-0.11522 2.934196,-1.07911 1.168113,-0.97397 1.326275,-1.03042 1.875968,-0.6702 0.330159,0.21639 0.811108,0.43963 1.068755,0.49611 1.40642,0.30834 2.370436,0.87787 3.64256,2.15193 1.611565,1.61394 2.529885,3.09875 2.151023,3.4776 -0.176462,0.17647 -0.0137,0.55707 0.484904,1.13336 l 0.750593,0.8677 -0.828077,0.94258 c -0.800823,0.91147 -0.816564,1.02127 -0.477293,3.33042 0.192928,1.3133 0.608411,2.90246 0.923275,3.53146 l 0.572488,1.14366 -2.642658,2.59293 -2.642659,2.59294 0.620239,0.62023 c 0.814006,0.814 0.718381,1.47242 -0.406859,2.80116 -0.818469,0.96655 -1.013853,1.078 -1.681988,0.96033 -0.415774,-0.0732 -0.980584,-0.35782 -1.255144,-0.63238 l -0.499204,-0.49921 -2.927129,2.68924 c -2.973057,2.73147 -7.224485,6.03474 -7.86654,6.11219 -0.194073,0.0234 -1.762439,1.35749 -3.485293,2.96464 -2.534316,2.36406 -3.132431,3.02416 -3.132487,3.4563 -2e-6,0.43623 -0.611336,1.10107 -3.332712,3.62444 l -3.332726,3.09021 -0.09701,1.12665 c -0.09901,1.15003 -0.692691,1.79427 -2.041897,2.21582 -1.902147,0.59434 -5.358697,-2.89532 -5.02287,-5.07098 0.04422,-0.28653 0.331324,-0.86906 0.637979,-1.29453 0.463968,-0.6437 0.74566,-0.7786 1.677724,-0.80376 l 1.120167,-0.0301 3.392391,-3.21459 c 2.615464,-2.47835 3.490721,-3.19127 3.821662,-3.11278 0.6175,0.14642 6.170357,-5.18382 6.884644,-6.60864 0.386141,-0.77028 2.204374,-2.71037 7.552676,-8.05892 l 7.044104,-7.0444 -1.09356,-1.2048 c -0.972978,-1.07197 -1.197052,-1.20158 -2.032228,-1.1755 -1.128051,0.0352 -1.824243,-0.5822 -1.824232,-1.61779 -1.2e-5,-0.62582 -0.253858,-1.0154 -1.424262,-2.1858 -1.323058,-1.32306 -1.461193,-1.40032 -1.9439,-1.08716 -0.285863,0.18534 -3.130806,2.86633 -6.32223,5.95762 -4.346394,4.20993 -6.289101,5.94627 -7.741087,6.91857 -2.313347,1.54909 -8.346701,7.17259 -8.346691,7.7797 1e-6,0.24803 -1.269949,1.66901 -3.355671,3.75473 l -3.3556673,3.35567 0.030669,0.95379 c 0.026468,0.82308 -0.089952,1.04127 -0.8497065,1.5922 -0.4841831,0.35116 -1.2563631,0.65015 -1.7158891,0.66451 -1.4161451,0.0441 -3.3273726,-1.32533 -4.2876308,-3.07244 z"
       id="path2654" />
  </g>
</svg>
