<?xml version="1.0" encoding="UTF-8" standalone="no"?>
<!-- Created with Inkscape (http://www.inkscape.org/) -->

<svg
   xmlns:dc="http://purl.org/dc/elements/1.1/"
   xmlns:cc="http://creativecommons.org/ns#"
   xmlns:rdf="http://www.w3.org/1999/02/22-rdf-syntax-ns#"
   xmlns:svg="http://www.w3.org/2000/svg"
   xmlns="http://www.w3.org/2000/svg"
   xmlns:sodipodi="http://sodipodi.sourceforge.net/DTD/sodipodi-0.dtd"   
   width="220"
   height="79"
   viewBox="0 0 58.208336 20.902083"
   version="1.1"
   id="svg8"   
   sodipodi:docname="grenade-launcher.svg" >
  <defs
     id="defs2" />
  <sodipodi:namedview
     id="base"
     pagecolor="#000000"
     bordercolor="#666666"
     borderopacity="1.0"
     showgrid="false"
     fit-margin-top="0"
     fit-margin-left="0"
     fit-margin-right="0"
     fit-margin-bottom="0"
     units="px" />
  <metadata
     id="metadata5">
    <rdf:RDF>
      <cc:Work
         rdf:about="">
        <dc:format>image/svg+xml</dc:format>
        <dc:type
           rdf:resource="http://purl.org/dc/dcmitype/StillImage" />
        <dc:title />
      </cc:Work>
    </rdf:RDF>
  </metadata>
  <g
     id="layer1"
     transform="translate(0.1032419,-276.41944)">
    <path
       style="fill:none;stroke:#ffffff;stroke-width:0.40000001;stroke-miterlimit:4;stroke-dasharray:none;stroke-opacity:1"
       d="m 9.7889935,296.55335 c 0.4221605,-0.10072 0.9242065,-0.4189 1.3404015,-0.84962 l 0.338242,-0.35002 0.24167,0.24167 c 0.132922,0.13294 0.3062,0.24168 0.385068,0.24168 0.279447,0 0.65561,-0.402 0.725681,-0.77552 0.106865,-0.56954 0.337567,-0.8702 0.571649,-0.74493 0.120583,0.0646 0.755069,0.0766 1.723952,0.0329 l 1.533142,-0.0692 0.293081,0.32089 c 0.236184,0.25859 0.372678,0.32088 0.703098,0.32088 0.325175,0 0.444475,-0.0526 0.576541,-0.25415 0.148636,-0.22685 0.235734,-0.25415 0.810984,-0.25415 0.551884,0 0.680972,0.0364 0.898606,0.25415 0.153066,0.15307 0.370229,0.25415 0.546019,0.25415 0.179891,0 0.383476,-0.0974 0.53063,-0.25415 0.200047,-0.21294 0.331895,-0.25415 0.813261,-0.25415 0.481367,0 0.613213,0.0412 0.813262,0.25415 0.29788,0.31708 0.696332,0.32737 1.019469,0.0264 0.208514,-0.19426 0.334531,-0.22262 0.85538,-0.19262 0.403128,0.0231 0.694117,0.10071 0.855743,0.22782 0.34539,0.27167 0.787368,0.24633 1.07267,-0.0616 0.190594,-0.20565 0.3323,-0.25414 0.742734,-0.25414 0.400116,0 0.5651,0.0538 0.781428,0.25414 0.176424,0.16351 0.392936,0.25414 0.607071,0.25414 0.223593,0 0.41121,-0.0834 0.571598,-0.25414 0.360337,-0.38356 1.060563,-0.35854 1.582881,0.0566 0.456231,0.36255 0.771839,0.34222 1.143094,-0.0737 0.21179,-0.23728 0.286179,-0.25766 0.742893,-0.20358 0.330727,0.0392 0.614446,0.15007 0.814432,0.31835 0.397606,0.33457 0.745906,0.32778 1.093924,-0.0212 0.243886,-0.24465 0.344576,-0.27573 0.806158,-0.24881 0.397884,0.0231 0.588586,0.0918 0.77627,0.27955 0.331344,0.33135 0.796895,0.32915 1.131381,-0.006 0.207721,-0.20772 0.353446,-0.25415 0.797766,-0.25415 0.380713,0 0.560543,0.044 0.600094,0.14717 0.03107,0.081 0.191961,0.21724 0.357555,0.30287 0.35701,0.18463 0.867992,0.0579 1.036653,-0.25741 0.146732,-0.27418 1.141895,-0.27822 1.33548,-0.006 0.154709,0.21801 0.509512,0.42276 0.732561,0.42276 0.0856,0 0.311936,-0.1373 0.502978,-0.30497 0.281595,-0.24725 0.438688,-0.30498 0.829892,-0.30498 0.408695,0 0.542822,0.0545 0.876379,0.35581 0.216606,0.1957 0.465325,0.3558 0.552706,0.3558 0.406746,0 0.90348,-0.46761 0.998914,-0.94034 l 0.05643,-0.27955 h 5.424916 5.424913 l 0.116147,-0.25493 c 0.317265,-0.69632 0.482432,-3.27621 0.325363,-5.08212 -0.154369,-1.77484 -0.260554,-2.18192 -0.57343,-2.19834 -0.133139,-0.007 -0.287822,-0.0242 -0.343735,-0.038 -0.05592,-0.0146 -0.237303,-0.0312 -0.403092,-0.038 -0.290875,-0.012 -1.020117,-0.53759 -1.020117,-0.73486 0,-0.0501 0.171549,-0.0926 0.381218,-0.0943 0.315765,-0.002 0.349704,-0.0215 0.197679,-0.10992 -0.257049,-0.14953 -0.03883,-0.39534 0.350988,-0.39534 0.318195,0 0.483813,-0.26143 0.503304,-0.79446 0.0078,-0.21543 0.0379,-0.17655 0.142511,0.18451 l 0.13253,0.45747 0.01,-0.37292 c 0.0142,-0.53284 0.100536,-0.69449 0.37066,-0.69449 0.13049,0 0.265541,-0.0457 0.300097,-0.10168 0.03563,-0.0576 -0.04978,-0.10167 -0.197317,-0.10167 -0.143074,0 -0.260144,-0.0458 -0.260144,-0.10168 0,-0.0559 0.06372,-0.10168 0.141612,-0.10168 0.07789,0 0.167943,-0.0687 0.200124,-0.15248 0.04373,-0.114 -0.01602,-0.1525 -0.236417,-0.1525 -0.325927,0 -0.472851,-0.25268 -0.357763,-0.6153 0.05343,-0.16835 0.0945,-0.18519 0.212622,-0.0872 0.174722,0.14502 0.259242,0.0831 0.239837,-0.17553 -0.0078,-0.10415 -0.02446,-0.441 -0.03698,-0.74853 -0.02148,-0.52746 -0.253956,-1.22759 -0.261598,-0.78784 -0.0042,0.244 -0.21314,0.22495 -0.278609,-0.0253 -0.02924,-0.11184 -0.11646,-0.2033 -0.193799,-0.2033 -0.09077,0 -0.14083,-0.11712 -0.141192,-0.33039 -7.69e-4,-0.43945 -0.180622,-1.06784 -0.333824,-1.16625 -0.06769,-0.0434 -0.123074,-0.17055 -0.123074,-0.28237 0,-0.1942 -0.07709,-0.20457 -1.72056,-0.23127 -1.717316,-0.028 -2.07708,0.0323 -1.806963,0.30241 0.171869,0.17189 0.151573,0.26443 -0.05439,0.24795 -0.145926,-0.012 -0.190652,0.11473 -0.259108,0.73192 -0.06064,0.54692 -0.04924,0.78639 0.04275,0.89725 0.09979,0.1202 0.09902,0.16759 -0.0038,0.23108 -0.168962,0.10435 -0.156274,0.17044 0.08188,0.42606 0.119867,0.12861 0.171198,0.27826 0.130112,0.37924 -0.05488,0.13483 -0.07424,0.12295 -0.101272,-0.0619 -0.04458,-0.30525 -0.222577,-0.29362 -0.222577,0.0146 0,0.13382 0.07141,0.27067 0.158708,0.30416 0.141163,0.0541 0.138469,0.0951 -0.02439,0.37087 -0.220296,0.37294 -0.245783,0.37879 -1.913327,0.43956 -0.872734,0.0318 -1.563223,10e-4 -2.033156,-0.0874 -0.534303,-0.10179 -3.333111,-0.16721 -11.233178,-0.26218 -5.786867,-0.0694 -10.765611,-0.11664 -11.063876,-0.10457 -0.298266,0.012 -0.598745,-0.025 -0.66773,-0.0821 -0.06898,-0.0572 -0.599355,-0.17528 -1.178599,-0.26229 -2.128064,-0.31964 -5.058666,-1.21893 -6.963883,-2.13697 -1.256266,-0.60534 -3.103618,-1.63671 -3.848986,-2.14888 l -0.494279,-0.33963 H 9.8175165 c -2.4943,0 -2.633476,0.01 -2.733351,0.19663 -0.115896,0.21656 -0.146348,3.43969 -0.03984,4.21675 0.05789,0.42235 0.09872,0.48378 0.355803,0.53519 0.450809,0.0902 0.359293,0.32097 -0.141641,0.35719 -0.429947,0.0311 -0.432198,0.0333 -0.463304,0.46331 l -0.03126,0.43205 h 0.456453 c 0.492473,0 0.654404,0.18959 0.520985,0.60995 -0.06071,0.19128 -0.153811,0.20332 -1.571669,0.20332 -1.661052,0 -1.630549,-0.0131 -1.630549,0.66655 0,0.3301 -0.01332,0.34229 -0.309174,0.2831 -0.19499,-0.039 -0.452888,0.002 -0.698338,0.11364 -0.374126,0.16871 -0.392061,0.1997 -0.463786,0.80141 -0.04104,0.34424 -0.06914,0.74027 -0.06244,0.88003 0.0068,0.13977 0.0382,0.84551 0.07002,1.56828 0.0628,1.42624 0.07077,1.4472 1.059873,2.78504 0.218017,0.29488 0.246565,0.44039 0.248817,1.26835 0.0022,0.79886 0.04229,1.02008 0.275093,1.51677 0.149906,0.31984 0.485763,0.78874 0.746348,1.04199 0.260588,0.25327 0.427874,0.46048 0.371749,0.46048 -0.326246,0 -1.709104,-0.3239 -2.076279,-0.48633 -0.535875,-0.23703 -1.05246,-0.81095 -1.185265,-1.31676 -0.102472,-0.39025 -0.510672,-3.83281 -0.536731,-4.52637 -0.0098,-0.25724 0.05326,-0.45699 0.192152,-0.60995 0.130692,-0.14396 0.22848,-0.43275 0.266329,-0.78658 0.05461,-0.51055 0.04669,-0.54164 -0.09128,-0.35778 -0.09153,0.12195 -0.127896,0.30689 -0.09228,0.46909 0.04306,0.19605 -0.01061,0.35021 -0.200388,0.57576 -0.291191,0.34607 -0.31521,0.61588 -0.157614,1.77079 0.05585,0.40939 0.1702,1.33854 0.254079,2.06477 0.228471,1.97805 0.678591,2.69147 1.926524,3.05343 0.738327,0.21413 4.926991,1.0668 5.179946,1.05445 0.117168,-0.006 0.356757,-0.0447 0.532422,-0.0867 z m -2.054205,-0.36406 c -1.140988,-0.24668 -1.208788,-0.27605 -1.585415,-0.68619 -0.779591,-0.849 -1.078104,-1.74028 -0.901974,-2.69305 0.05735,-0.31026 0.126318,-0.58616 0.15325,-0.6131 0.02694,-0.0269 0.76245,0.01 1.634487,0.0826 1.508813,0.12513 1.593535,0.14366 1.751214,0.38436 0.184311,0.28129 0.693662,0.53011 1.085176,0.53011 0.4175625,0 0.8074435,0.68575 0.7997485,1.40665 -0.01289,1.20411 -0.06662,1.36366 -0.544791,1.61651 -0.5547055,0.29334 -0.9262415,0.28901 -2.3916955,-0.0279 z"
       id="path2667"       
       sodipodi:nodetypes="ccccsccccsscscscscscccscscccccccccsccccscscscccccscccsccsccccscssscssccsccsccscccccccccsccccsccccscscsccccscssccsccccscsssccscssssscccccscccssccc" />
  </g>
</svg>
