<?xml version="1.0" encoding="UTF-8" standalone="no"?>
<!-- Created with Inkscape (http://www.inkscape.org/) -->

<svg
   xmlns:dc="http://purl.org/dc/elements/1.1/"
   xmlns:cc="http://creativecommons.org/ns#"
   xmlns:rdf="http://www.w3.org/1999/02/22-rdf-syntax-ns#"
   xmlns:svg="http://www.w3.org/2000/svg"
   xmlns="http://www.w3.org/2000/svg"
   xmlns:sodipodi="http://sodipodi.sourceforge.net/DTD/sodipodi-0.dtd"
   xmlns:inkscape="http://www.inkscape.org/namespaces/inkscape"
   width="220"
   height="235"
   viewBox="0 0 58.208332 62.177085"
   version="1.1"
   id="svg8"
   inkscape:version="0.92.3 (2405546, 2018-03-11)"
   sodipodi:docname="grenade-launcher.svg"
   inkscape:export-filename="D:\Projects\images\grenadelauncher.png"
   inkscape:export-xdpi="96"
   inkscape:export-ydpi="96">
  <defs
     id="defs2" />
  <sodipodi:namedview
     id="base"
     pagecolor="#000000"
     bordercolor="#666666"
     borderopacity="1.0"
     inkscape:pageopacity="0"
     inkscape:pageshadow="2"
     inkscape:zoom="4"
     inkscape:cx="26.550837"
     inkscape:cy="111.90303"
     inkscape:document-units="mm"
     inkscape:current-layer="layer1"
     showgrid="false"
     fit-margin-top="0"
     fit-margin-left="0"
     fit-margin-right="0"
     fit-margin-bottom="0"
     inkscape:window-width="3440"
     inkscape:window-height="1377"
     inkscape:window-x="-8"
     inkscape:window-y="-8"
     inkscape:window-maximized="1"
     units="px" />
  <metadata
     id="metadata5">
    <rdf:RDF>
      <cc:Work
         rdf:about="">
        <dc:format>image/svg+xml</dc:format>
        <dc:type
           rdf:resource="http://purl.org/dc/dcmitype/StillImage" />
        <dc:title />
      </cc:Work>
    </rdf:RDF>
  </metadata>
  <g
     inkscape:label="Layer 1"
     inkscape:groupmode="layer"
     id="layer1"
     transform="translate(0.1032419,-276.41944)">
    <path
       style="fill:none;stroke:#ffffff;stroke-width:0.45186266;stroke-miterlimit:4;stroke-dasharray:none;stroke-opacity:1"
       d="m 20.102875,330.4352 c 0.256762,-0.41768 0.403632,-1.07286 0.39203,-1.74936 l -0.0094,-0.54978 h 0.386086 c 0.212368,2e-5 0.437641,-0.0515 0.500639,-0.11454 0.223219,-0.22322 0.20258,-0.8448 -0.03981,-1.19914 -0.369579,-0.5403 -0.425461,-0.96475 -0.138416,-1.05167 0.147923,-0.0447 0.664328,-0.54195 1.403353,-1.35078 l 1.16938,-1.27994 0.490432,0.0223 c 0.395219,0.018 0.554005,-0.0413 0.81794,-0.30532 0.259747,-0.25974 0.313026,-0.39705 0.257523,-0.66353 -0.06247,-0.29994 -0.01471,-0.39132 0.444792,-0.85083 0.440838,-0.44083 0.573028,-0.51487 0.920808,-0.51478 0.244538,10e-6 0.498747,-0.0928 0.639165,-0.23314 0.143695,-0.14369 0.228514,-0.38412 0.220849,-0.62687 -0.01028,-0.32989 0.0621,-0.46813 0.446611,-0.85263 0.38451,-0.38451 0.522737,-0.45692 0.852636,-0.44662 0.491223,0.0154 0.817721,-0.29472 0.835427,-0.79325 0.01139,-0.32173 0.08939,-0.44505 0.529404,-0.83713 0.340467,-0.30356 0.634899,-0.474 0.865538,-0.50158 0.492899,-0.0589 0.825705,-0.43217 0.807631,-0.90604 -0.01203,-0.31652 0.06244,-0.46843 0.390283,-0.79629 0.319607,-0.31961 0.494369,-0.40842 0.827199,-0.42118 0.271535,-0.0102 0.516876,-0.11094 0.687924,-0.28192 0.178604,-0.17861 0.261851,-0.3951 0.253582,-0.6596 -0.01855,-0.59421 0.560768,-1.13356 1.309598,-1.21917 0.654031,-0.0749 0.889897,-0.34318 0.854219,-0.97196 -0.02037,-0.35872 0.02278,-0.43441 0.430797,-0.75603 0.295492,-0.23287 0.610685,-0.37094 0.904851,-0.39627 0.584854,-0.0504 0.857648,-0.33399 0.85688,-0.89075 -6.1e-4,-0.39024 0.05499,-0.49549 0.445202,-0.84269 0.336278,-0.29938 0.543485,-0.39682 0.843377,-0.39678 0.529352,2e-5 0.899471,-0.37362 0.89894,-0.90852 10e-7,-0.33185 0.07931,-0.48534 0.434235,-0.84025 0.304109,-0.30412 0.482901,-0.41262 0.596905,-0.3618 0.08952,0.0399 0.326865,0.0202 0.527539,-0.0437 0.432656,-0.13769 0.739592,-0.64709 0.62245,-1.03368 -0.101805,-0.33622 0.689894,-1.13436 1.061973,-1.07155 0.297723,0.0506 0.744688,-0.0693 0.922856,-0.24747 0.06838,-0.0683 0.139497,-0.35884 0.158167,-0.64538 0.02743,-0.42244 0.106809,-0.59403 0.419293,-0.90652 0.326461,-0.32646 0.477133,-0.39007 0.984258,-0.41582 0.329344,-0.0167 0.655904,-0.0874 0.725704,-0.15729 0.324902,-0.32491 0.348167,-1.09521 0.04679,-1.54905 l -0.178226,-0.26838 4.333357,-4.33335 4.333355,-4.33336 -0.110853,-0.29642 c -0.302784,-0.80963 -2.231635,-3.00235 -3.799639,-4.31942 -1.541029,-1.29442 -1.951019,-1.53476 -2.214056,-1.29797 -0.111938,0.10077 -0.24924,0.21058 -0.304926,0.24423 -0.05634,0.033 -0.214477,0.16463 -0.352339,0.29163 -0.241933,0.22275 -1.244277,0.38544 -1.401854,0.22786 -0.04002,-0.04 0.06306,-0.21101 0.229187,-0.37985 0.250631,-0.25382 0.262165,-0.29651 0.07011,-0.2457 -0.32477,0.0859 -0.34681,-0.28477 -0.03543,-0.59616 0.254171,-0.25416 0.177638,-0.59529 -0.232571,-1.03663 -0.165853,-0.17832 -0.110752,-0.1713 0.261219,0.0335 l 0.471285,0.25956 -0.289896,-0.30587 c -0.414283,-0.43697 -0.474443,-0.63505 -0.258671,-0.85083 0.104234,-0.10427 0.175606,-0.24861 0.158493,-0.32094 -0.01754,-0.0744 -0.120976,-0.0414 -0.238827,0.0764 -0.114285,0.11428 -0.244384,0.17121 -0.289021,0.12658 -0.04465,-0.0446 -0.03032,-0.13213 0.0319,-0.19435 0.06222,-0.0622 0.07928,-0.18902 0.03806,-0.28166 -0.05613,-0.12599 -0.134612,-0.10901 -0.310662,0.067 -0.260347,0.26035 -0.579546,0.17588 -0.777272,-0.20571 -0.0918,-0.17716 -0.07245,-0.22341 0.100189,-0.2395 0.255407,-0.0237 0.273459,-0.14069 0.05137,-0.33179 -0.08942,-0.0769 -0.371804,-0.33273 -0.627457,-0.56837 -0.438486,-0.40417 -1.18344,-0.77773 -0.838277,-0.42036 0.191549,0.19826 0.0095,0.34995 -0.242759,0.20234 -0.112694,-0.066 -0.255421,-0.0694 -0.317198,-0.008 -0.0725,0.0725 -0.206048,0.019 -0.376695,-0.15113 -0.35164,-0.35042 -0.997256,-0.7087 -1.19824,-0.66494 -0.08873,0.0194 -0.234544,-0.038 -0.323864,-0.12724 -0.155124,-0.15513 -0.224986,-0.10178 -1.559099,1.18963 -1.394136,1.34941 -1.633344,1.68495 -1.201818,1.68494 0.274591,2e-5 0.332298,0.0901 0.154613,0.24151 -0.126149,0.10698 -0.06065,0.24394 0.377677,0.79162 0.388435,0.48531 0.588827,0.66749 0.75086,0.68256 0.175726,0.0163 0.212965,0.0548 0.18155,0.18762 -0.05161,0.21832 0.01132,0.26097 0.405735,0.27493 0.198481,0.007 0.359022,0.0855 0.406865,0.199 0.06386,0.15154 0.03891,0.1575 -0.13034,0.0314 -0.279441,-0.20822 -0.412332,-0.0567 -0.166129,0.18946 0.106899,0.10686 0.273249,0.15916 0.369733,0.11618 0.155974,-0.0696 0.186572,-0.0347 0.276764,0.31573 0.12193,0.47387 0.106244,0.4989 -1.177227,1.87945 -0.671729,0.72254 -1.247885,1.24949 -1.693875,1.55425 -0.508104,0.34549 -2.796014,2.52889 -9.182353,8.76351 -4.677915,4.56704 -8.69261,8.50627 -8.92122,8.75416 -0.228665,0.24783 -0.498239,0.4583 -0.598954,0.46779 -0.100788,0.009 -0.618769,0.33875 -1.150965,0.73194 -1.955196,1.44455 -5.014467,3.06713 -7.269651,3.85567 -1.487028,0.51996 -3.7865169,1.17175 -4.7910223,1.35803 l -0.6661167,0.12353 -2.0992981,2.0993 c -1.9924166,1.99242 -2.0956008,2.11157 -2.026302,2.34043 0.080409,0.26556 2.6306817,2.86448 3.3364651,3.40011 0.3836097,0.29113 0.4652941,0.30758 0.711714,0.1433 0.4321524,-0.28806 0.5433863,-0.0306 0.1721789,0.39846 -0.3185948,0.36828 -0.3186355,0.37183 4.5e-6,0.74016 l 0.3201458,0.37009 0.3646091,-0.36461 c 0.3933815,-0.39338 0.6741723,-0.37128 0.9033774,0.0711 0.1043012,0.20128 0.039549,0.28527 -1.0930207,1.41784 -1.3268282,1.32683 -1.3129269,1.29199 -0.7700305,1.83489 0.2636799,0.26368 0.2627773,0.28405 -0.020831,0.4731 -0.1869085,0.1246 -0.3601639,0.36337 -0.4670498,0.6486 -0.1640839,0.43361 -0.1536559,0.47269 0.2696898,1.01062 0.2421927,0.30776 0.536091,0.64654 0.6530805,0.75283 0.1170787,0.10619 0.7058976,0.64488 1.3086552,1.1968 1.1894268,1.0891 1.2125351,1.09947 3.0712698,1.37804 0.409696,0.0613 0.548731,0.15482 1.211895,0.81439 0.639877,0.63636 0.848608,0.78105 1.431318,0.99184 0.375228,0.13574 1.018058,0.24201 1.428502,0.23616 0.410465,-0.006 0.709607,0.026 0.664775,0.0708 -0.260601,0.2606 -1.623939,1.10648 -2.046981,1.27002 -0.617387,0.23872 -1.488469,0.19293 -1.998587,-0.10505 -0.39358,-0.22988 -3.4695214,-2.65369 -4.0443438,-3.18688 -0.2133086,-0.19765 -0.3224956,-0.40758 -0.3337323,-0.64071 -0.010619,-0.21939 -0.1631687,-0.52818 -0.4155701,-0.84105 -0.3641991,-0.45144 -0.3953607,-0.46995 -0.3587033,-0.21287 0.024299,0.17052 0.1429772,0.3473 0.3009902,0.44841 0.190999,0.1222 0.271269,0.28822 0.2998437,0.61997 0.043831,0.50905 0.2401706,0.74375 1.2885846,1.54039 0.3716288,0.28241 1.205164,0.93326 1.852269,1.44636 1.762542,1.39754 2.691964,1.60786 3.977926,0.90017 0.760812,-0.41873 4.787769,-3.08348 4.979961,-3.2954 0.0888,-0.0984 0.249268,-0.32068 0.356037,-0.49456 z m -1.931681,1.35007 c -1.108452,0.71436 -1.186071,0.74506 -1.814531,0.71829 -1.300899,-0.0555 -2.251291,-0.52894 -2.871661,-1.43069 -0.202021,-0.29364 -0.367316,-0.56912 -0.367323,-0.61216 3.2e-5,-0.043 0.617023,-0.60105 1.371589,-1.23963 1.305173,-1.10527 1.387649,-1.15813 1.70587,-1.09182 0.371916,0.0775 0.977534,-0.13065 1.29027,-0.44338 0.333545,-0.33354 1.192746,-0.0973 1.762446,0.48479 0.951531,0.97213 1.036059,1.14249 0.856075,1.72642 -0.208775,0.67741 -0.509012,0.97073 -1.932743,1.88817 z"
       id="path2667"
       inkscape:connector-curvature="0"
       sodipodi:nodetypes="ccccsccccsscscscscscccscscccccccccsccccscscscccccscccsccsccccscssscssccsccsccscccccccccsccccsccccscscsccccscssccsccccscsssccscssssscccccscccssccc" />
  </g>
</svg>
