<?xml version="1.0" encoding="UTF-8" standalone="no"?>
<!-- Created with Inkscape (http://www.inkscape.org/) -->

<svg
   xmlns:dc="http://purl.org/dc/elements/1.1/"
   xmlns:cc="http://creativecommons.org/ns#"
   xmlns:rdf="http://www.w3.org/1999/02/22-rdf-syntax-ns#"
   xmlns:svg="http://www.w3.org/2000/svg"
   xmlns="http://www.w3.org/2000/svg"
   xmlns:sodipodi="http://sodipodi.sourceforge.net/DTD/sodipodi-0.dtd"
   width="220"
   height="235"
   viewBox="0 0 58.208332 62.177085"
   version="1.1"
   id="svg8"
   sodipodi:docname="vertical-foregrip.svg">
  <defs
     id="defs2" />
  <sodipodi:namedview
     id="base"
     pagecolor="#000000"
     bordercolor="#666666"
     borderopacity="1.0"
     showgrid="false"
     fit-margin-top="0"
     fit-margin-left="0"
     fit-margin-right="0"
     fit-margin-bottom="0"
     units="px" />
  <metadata
     id="metadata5">
    <rdf:RDF>
      <cc:Work
         rdf:about="">
        <dc:format>image/svg+xml</dc:format>
        <dc:type
           rdf:resource="http://purl.org/dc/dcmitype/StillImage" />
        <dc:title />
      </cc:Work>
    </rdf:RDF>
  </metadata>
  <g
     id="layer1"
     transform="translate(0.1032419,-276.41944)">
    <path
       style="fill:none;stroke:#ffffff;stroke-width:0.53394747;stroke-miterlimit:4;stroke-dasharray:none;stroke-opacity:1"
       d="m 3.6808768,324.27597 c -0.8731629,-1.17202 -0.8379237,-1.37953 0.5079281,-2.99706 0.5518347,-0.6634 1.2971973,-1.52703 1.656353,-1.9192 0.6992069,-0.76396 0.7632539,-0.8752 0.5991772,-1.03928 -0.058147,-0.0582 -0.1035592,-0.18202 -0.1007693,-0.27529 0.00667,-0.2249 0.542572,-0.81528 0.7586085,-0.83525 0.093721,-0.009 0.2145948,-0.0912 0.268701,-0.18337 0.064528,-0.1104 0.1751615,-0.14516 0.3267318,-0.0986 0.2171898,0.0654 0.2782881,0.0188 1.2182051,-0.92747 2.0338818,-2.0471 10.7397558,-10.27213 12.7701118,-12.06385 1.460676,-1.28908 8.036141,-6.96577 9.712931,-8.38536 2.190029,-1.85429 2.570731,-2.22771 3.11489,-3.05486 0.742473,-1.12925 1.035193,-2.20034 0.879729,-3.22012 -0.06478,-0.42539 -0.05317,-0.46095 0.136147,-0.417 0.185023,0.0427 0.185665,0.0356 0.0068,-0.0665 -0.114011,-0.0651 -0.170014,-0.14429 -0.127773,-0.18654 0.03987,-0.0399 0.0021,-0.10372 -0.08383,-0.14213 -0.12437,-0.0554 -0.116,-0.0902 0.04176,-0.1722 0.152894,-0.0792 0.169761,-0.13122 0.07208,-0.23065 -0.06931,-0.0704 -0.139149,-0.20904 -0.15527,-0.30836 -0.02401,-0.14665 -0.01121,-0.14626 0.06752,0.003 0.05812,0.10919 0.0918,-0.10505 0.08592,-0.52974 -0.0063,-0.39171 0.01068,-0.69138 0.0372,-0.66602 0.02647,0.0255 0.03925,-0.009 0.02598,-0.0786 -0.02895,-0.16186 0.101624,-1.08316 0.154413,-1.09028 0.02363,-0.003 0.04588,-0.0159 0.05106,-0.0295 0.2105,-0.42101 0.915105,-1.25083 1.222916,-1.43987 0.22147,-0.13614 0.360331,-0.28539 0.424974,-0.45499 0.144593,-0.38685 1.496292,-1.70425 1.748466,-1.70429 0.111528,4e-5 0.202778,-0.0442 0.202798,-0.0983 1.9e-5,-0.0541 0.02356,-0.0579 0.05166,-0.009 0.0277,0.0491 0.231764,0.15973 0.452275,0.24646 0.864842,0.34 1.506813,0.92872 6.597099,6.04974 6.883993,6.92688 9.005907,9.27734 8.912511,9.87863 -0.01734,0.11173 0.02659,0.21697 0.09734,0.23368 0.08131,0.0191 0.07828,0.0526 -0.01135,0.0929 -0.07717,0.0343 -0.12692,0.11747 -0.111729,0.18328 0.04332,0.18394 -0.720185,0.89819 -1.225856,1.14694 -0.396615,0.19507 -0.522573,0.31503 -1.078296,1.02732 -0.563428,0.722 -0.658378,0.81148 -0.906635,0.8551 -0.152477,0.0267 -0.319015,0.0905 -0.369891,0.14136 -0.191885,0.19188 -1.332705,0.35707 -1.863598,0.26998 -0.349243,-0.0573 -0.605535,-0.0375 -0.698243,0.0538 -0.199989,0.19621 -0.323694,0.20741 -0.840519,0.0741 -0.244402,-0.063 -0.573848,-0.12201 -0.732111,-0.13095 -0.17194,-0.009 -0.303591,-0.075 -0.326889,-0.16224 -0.02141,-0.0801 -0.04156,-0.10118 -0.04447,-0.0466 -0.0029,0.0549 -0.264371,0.13356 -0.580847,0.1752 -0.816673,0.10719 -1.527391,0.39368 -2.324857,0.93696 -0.77534,0.52836 -1.014734,0.77977 -4.244091,4.4645 -3.3485,3.82032 -5.52789,6.22588 -8.103944,8.94483 -5.116763,5.40063 -12.350988,12.75448 -12.351011,12.55512 -3.7e-5,-0.0467 -0.07825,-0.0868 -0.172166,-0.0906 -0.135929,-0.005 -0.126265,0.0693 0.04653,0.35269 l 0.218813,0.3586 -0.572425,0.59376 -0.572332,0.59386 -0.324336,-0.13309 c -0.327401,-0.13445 -0.634722,-0.0857 -0.592291,0.094 0.0285,0.12027 -0.305837,0.32736 -0.391166,0.24203 -0.03388,-0.0339 -0.09496,-0.0284 -0.135694,0.012 -0.04074,0.0407 -0.02293,0.086 0.03898,0.10078 0.158867,0.0375 -0.07758,0.25559 -1.690007,1.55842 -2.125577,1.71739 -2.142642,1.71644 -4.06204,-0.20807 -0.460612,-0.46167 -0.961851,-1.01329 -1.114046,-1.22553 -0.190556,-0.26601 -0.3343281,-0.39135 -0.4619776,-0.40322 -0.2519204,-0.0234 -5.4326135,-5.26925 -6.1348945,-6.21208 z"
       id="path2628" />
  </g>
</svg>
