<?xml version="1.0" encoding="UTF-8" standalone="no"?>
<!-- Created with Inkscape (http://www.inkscape.org/) -->

<svg
   xmlns:dc="http://purl.org/dc/elements/1.1/"
   xmlns:cc="http://creativecommons.org/ns#"
   xmlns:rdf="http://www.w3.org/1999/02/22-rdf-syntax-ns#"
   xmlns:svg="http://www.w3.org/2000/svg"
   xmlns="http://www.w3.org/2000/svg"
   xmlns:sodipodi="http://sodipodi.sourceforge.net/DTD/sodipodi-0.dtd"   
   width="220"
   height="79"
   viewBox="0 0 58.208336 20.902083"
   version="1.1"
   id="svg8"   
   sodipodi:docname="verticalforegrip.svg" >   
  <defs
     id="defs2" />
  <sodipodi:namedview
     id="base"
     pagecolor="#000000"
     bordercolor="#666666"
     borderopacity="1.0"
     showgrid="false"
     fit-margin-top="0"
     fit-margin-left="0"
     fit-margin-right="0"
     fit-margin-bottom="0"
     units="px" />
  <metadata
     id="metadata5">
    <rdf:RDF>
      <cc:Work
         rdf:about="">
        <dc:format>image/svg+xml</dc:format>
        <dc:type
           rdf:resource="http://purl.org/dc/dcmitype/StillImage" />
        <dc:title />
      </cc:Work>
    </rdf:RDF>
  </metadata>
  <g
     id="layer1"
     transform="translate(0.1032419,-276.41944)">
    <path
       style="fill:none;stroke:#ffffff;stroke-width:0.4;stroke-miterlimit:4;stroke-dasharray:none;stroke-opacity:1"
       d="m 8.3297359,282.19051 c 0.1583161,-1.08338 0.2868997,-1.17463 1.8566601,-1.31854 0.643736,-0.0591 1.496053,-0.12175 1.894047,-0.13924 0.775068,-0.0343 0.867922,-0.0593 0.867922,-0.23313 0,-0.0616 0.04157,-0.15128 0.09245,-0.19921 0.122655,-0.11561 0.719282,-0.14446 0.8443,-0.0406 0.05429,0.045 0.16195,0.0654 0.239473,0.0452 0.09267,-0.0243 0.169673,0.0159 0.225322,0.12083 0.08041,0.14969 0.13742,0.15741 1.136606,0.15401 2.161776,-0.007 11.13042,0.24771 13.15505,0.37412 1.456599,0.0909 7.946812,0.567 9.587031,0.70324 2.142356,0.17785 2.541826,0.18171 3.26824,0.0318 0.991486,-0.20488 1.713926,-0.6172 2.171771,-1.23975 0.191024,-0.25966 0.216009,-0.27234 0.29301,-0.14877 0.07541,0.12061 0.0795,0.1172 0.03884,-0.0316 -0.02589,-0.0949 -0.01363,-0.16649 0.03112,-0.16649 0.04225,0 0.0561,-0.0538 0.03089,-0.1197 -0.03657,-0.0952 -0.01363,-0.10926 0.113342,-0.0691 0.122882,0.0391 0.159452,0.0204 0.16036,-0.084 5.68e-4,-0.074 0.03702,-0.18444 0.08109,-0.24559 0.06496,-0.0904 0.07155,-0.0834 0.03453,0.037 -0.02703,0.0886 0.104257,-0.007 0.326127,-0.23509 0.204198,-0.21079 0.371873,-0.36061 0.372509,-0.3331 5.45e-4,0.0275 0.02567,0.0159 0.05542,-0.0279 0.07041,-0.10108 0.627609,-0.51994 0.65934,-0.49575 0.01363,0.0114 0.03271,0.0159 0.0427,0.0114 0.334531,-0.11152 1.147349,-0.17785 1.410536,-0.11493 0.189434,0.0452 0.342049,0.0397 0.466135,-0.0159 0.281517,-0.12833 1.695391,-0.11016 1.828995,0.0234 0.05906,0.0591 0.130832,0.084 0.159452,0.0554 0.02862,-0.0286 0.04316,-0.0182 0.03203,0.0227 -0.01136,0.0407 0.03816,0.20738 0.109027,0.37013 0.278019,0.63823 0.306229,1.29015 0.289943,6.69929 -0.02271,7.31589 -0.143779,9.685 -0.511767,9.95404 -0.06837,0.05 -0.10085,0.12902 -0.07223,0.17535 0.03294,0.0532 0.01363,0.0693 -0.05519,0.0432 -0.05906,-0.0227 -0.12947,-0.005 -0.156272,0.0379 -0.0745,0.12039 -0.857293,0.0943 -1.256922,-0.0418 -0.313429,-0.10676 -0.443694,-0.10994 -1.11539,-0.027 -0.680919,0.084 -0.778611,0.0811 -0.933225,-0.0273 -0.09494,-0.0666 -0.216918,-0.12106 -0.270818,-0.12106 -0.20329,0 -0.895111,-0.51681 -1.130201,-0.84417 -0.154681,-0.21532 -0.300868,-0.34066 -0.398357,-0.34139 -0.209876,-0.002 -0.281334,-0.0616 -0.484488,-0.40599 -0.09608,-0.16285 -0.239359,-0.3686 -0.318449,-0.45718 -0.08586,-0.0963 -0.121066,-0.20057 -0.08722,-0.2591 0.03112,-0.0538 0.03157,-0.0756 0.0011,-0.0482 -0.03066,0.0275 -0.210785,-0.0693 -0.400492,-0.21488 -0.489417,-0.3758 -1.01763,-0.60055 -1.727849,-0.7352 -0.690595,-0.13083 -0.950579,-0.12447 -4.61311,0.11675 -3.797476,0.24994 -6.226209,0.36974 -9.031085,0.44544 -5.571275,0.15037 -13.298875,0.21374 -13.193278,0.10812 0.02476,-0.0248 0.0045,-0.0874 -0.04316,-0.13924 -0.06951,-0.0745 -0.103576,-0.0302 -0.162178,0.21147 l -0.07405,0.30587 -0.617751,0.0113 -0.617751,0.0114 -0.101304,-0.24231 c -0.102213,-0.24465 -0.29083,-0.38162 -0.363537,-0.26396 -0.04861,0.0788 -0.335417,0.0114 -0.335417,-0.079 0,-0.0359 -0.03521,-0.0654 -0.07836,-0.0654 -0.04316,0 -0.05769,0.0334 -0.03271,0.074 0.06428,0.10403 -0.176487,0.0943 -1.720762,-0.0697 -2.0356916,-0.21623 -2.044232,-0.22577 -2.0415291,-2.26196 5.679e-4,-0.48856 0.027257,-1.04628 0.059056,-1.23932 0.039976,-0.24186 0.030209,-0.38441 -0.031118,-0.45832 -0.1210653,-0.14583 -0.08654,-5.66899 0.040885,-6.54044 z"
       id="path2628" />
       
  </g>
</svg>
