<?xml version="1.0" encoding="UTF-8" standalone="no"?>
<!-- Created with Inkscape (http://www.inkscape.org/) -->

<svg
   xmlns:dc="http://purl.org/dc/elements/1.1/"
   xmlns:cc="http://creativecommons.org/ns#"
   xmlns:rdf="http://www.w3.org/1999/02/22-rdf-syntax-ns#"
   xmlns:svg="http://www.w3.org/2000/svg"
   xmlns="http://www.w3.org/2000/svg"
   xmlns:sodipodi="http://sodipodi.sourceforge.net/DTD/sodipodi-0.dtd"
   xmlns:inkscape="http://www.inkscape.org/namespaces/inkscape"
   width="220"
   height="235"
   viewBox="0 0 58.208332 62.177085"
   version="1.1"
   id="svg8"
   inkscape:version="0.92.3 (2405546, 2018-03-11)"
   sodipodi:docname="boots.svg">
  <defs
     id="defs2" />
  <sodipodi:namedview
     id="base"
     pagecolor="#000000"
     bordercolor="#666666"
     borderopacity="1.0"
     inkscape:pageopacity="0"
     inkscape:pageshadow="2"
     inkscape:zoom="2.8"
     inkscape:cx="402.42217"
     inkscape:cy="72.564051"
     inkscape:document-units="px"
     inkscape:current-layer="layer1"
     showgrid="false"
     units="px"
     inkscape:window-width="3440"
     inkscape:window-height="1377"
     inkscape:window-x="-8"
     inkscape:window-y="-8"
     inkscape:window-maximized="1" />
  <metadata
     id="metadata5">
    <rdf:RDF>
      <cc:Work
         rdf:about="">
        <dc:format>image/svg+xml</dc:format>
        <dc:type
           rdf:resource="http://purl.org/dc/dcmitype/StillImage" />
        <dc:title></dc:title>
      </cc:Work>
    </rdf:RDF>
  </metadata>
  <g
     inkscape:label="Layer 1"
     inkscape:groupmode="layer"
     id="layer1"
     transform="translate(0,-234.8229)">
    <path
       style="fill:none;stroke:#ffffff;stroke-width:0.4;stroke-opacity:1;stroke-miterlimit:4;stroke-dasharray:none"
       d="m 31.662673,291.89839 c -0.720708,-0.0315 -1.236386,-0.13574 -1.236386,-0.24976 0,-0.1265 -0.276741,-0.1541 -0.783527,-0.0781 -0.873861,0.13105 -3.37465,-0.16882 -3.706793,-0.44447 -0.117799,-0.0978 -0.261748,-0.13019 -0.31989,-0.0721 -0.154055,0.15405 -2.767048,-0.50317 -2.925849,-0.73591 -0.07401,-0.10848 -0.135835,-0.14118 -0.137376,-0.0728 -0.003,0.13251 -1.669564,-0.50366 -3.241331,-1.23729 -0.521906,-0.24359 -1.552229,-0.6588 -2.289605,-0.92271 -0.737375,-0.26391 -1.423107,-0.54194 -1.523851,-0.61787 -0.100738,-0.076 -0.512871,-0.24237 -0.91584,-0.36987 -0.402972,-0.1275 -1.062378,-0.40219 -1.465348,-0.61041 -0.40297,-0.20822 -0.787445,-0.36425 -0.854386,-0.34677 -0.185454,0.0484 -2.051197,-0.52423 -2.259476,-0.69353 -0.1007377,-0.0819 -0.2463607,-0.14967 -0.3235937,-0.1506 -0.3390901,-0.005 -1.3706138,-0.27065 -1.8744269,-0.48439 -0.3022279,-0.12821 -0.9616343,-0.37958 -1.4653465,-0.55861 -0.5037132,-0.17902 -0.9817577,-0.43634 -1.0623198,-0.57181 -0.080567,-0.13548 -0.3012511,-0.24633 -0.4904185,-0.24633 -0.8119657,0 -1.4649081,-1.54398 -1.5879527,-3.75495 -0.039236,-0.70519 -0.1585023,-1.96439 -0.2650163,-2.7982 -0.1925459,-1.50731 -0.1759766,-1.67374 0.38699,-3.88746 0.1152885,-0.45333 0.1705224,-1.18568 0.1227438,-1.62742 -0.047781,-0.44173 -0.024929,-0.70293 0.050798,-0.58041 0.081915,0.13252 0.1867997,-0.0845 0.2589792,-0.53592 0.066725,-0.41726 0.073457,-0.83609 0.014986,-0.93072 -0.05848,-0.0946 -0.010039,-0.17206 0.107679,-0.17206 0.1359017,0 0.1872469,-0.2293 0.140674,-0.62824 -0.040342,-0.34554 -0.017683,-0.59383 0.050371,-0.55178 0.1872973,0.11576 0.5323966,-1.43479 0.5323966,-2.39209 0,-0.59249 -0.063282,-0.80643 -0.2114703,-0.71484 -0.1312118,0.0811 -0.1617411,0.0502 -0.080441,-0.0813 0.1766876,-0.28588 -0.073418,-1.88169 -0.2753526,-1.75689 -0.087939,0.0543 -0.1070504,-0.16537 -0.042476,-0.48828 0.072933,-0.36462 0.049469,-0.54509 -0.061904,-0.47626 -0.1028126,0.0635 -0.1786713,-0.13921 -0.1777934,-0.47522 0.00427,-1.63746 -0.5627048,-6.17999 -1.1591291,-9.28657 -0.2229152,-1.16108 -0.2929714,-3.53084 -0.1129906,-3.82205 0.067191,-0.1087 0.4690042,-0.28493 0.892907,-0.39155 0.780349,-0.19625 1.2465829,-0.38051 3.8853251,-1.53545 1.5602208,-0.68289 1.7360548,-0.70318 4.9448127,-0.57074 1.108169,0.0458 2.101959,0.0233 2.208421,-0.0498 0.106465,-0.073 0.304907,-0.42142 0.440989,-0.77402 0.136083,-0.3526 0.49098,-0.90185 0.788658,-1.22056 0.29768,-0.31871 0.494383,-0.65528 0.437117,-0.74794 -0.05727,-0.0927 -0.0048,-0.17629 0.116786,-0.18586 0.121496,-0.01 0.674244,-0.14229 1.228328,-0.29499 0.554085,-0.15267 2.410908,-0.40853 4.126273,-0.56857 1.715366,-0.16004 3.899649,-0.45649 4.853961,-0.65878 3.759225,-0.79687 3.792413,-0.80066 4.808382,-0.54923 1.376096,0.34056 1.773924,0.63505 1.727576,1.27885 -0.02116,0.29385 -0.07579,0.49721 -0.121399,0.45189 -0.211712,-0.21034 -0.51204,1.51843 -0.441652,2.54226 0.169125,2.46006 0.182946,3.23024 0.05655,3.15213 -0.07236,-0.0447 -0.234978,0.0434 -0.361385,0.19563 -0.187266,0.22563 -0.18263,0.25954 0.02504,0.18306 0.528021,-0.19443 0.719628,0.18979 0.734175,1.47221 0.01738,1.5331 -0.05203,2.09616 -0.243806,1.97762 -0.07915,-0.049 -0.143917,0.03 -0.143917,0.17525 0,0.14532 0.144246,0.30219 0.320543,0.34861 0.424308,0.11174 0.9039,2.05925 0.597905,2.42795 -0.157426,0.18969 -0.128357,0.27349 0.125126,0.36078 0.568741,0.19582 1.188478,1.36004 1.052805,1.97777 -0.159709,0.72714 0.373774,1.90569 0.925284,2.04411 0.400284,0.10042 0.633982,0.56495 0.639204,1.27043 0.0037,0.48156 0.703062,1.40151 1.06819,1.40483 0.601588,0.006 0.845463,0.32279 0.815999,1.06168 -0.02303,0.57739 0.08201,0.8327 0.531891,1.29285 0.31303,0.32016 0.750358,0.57337 0.99032,0.57337 0.456288,0 0.808968,0.46844 0.808968,1.07449 0,0.37242 1.029483,1.25412 1.230082,1.05352 0.17517,-0.17517 0.601606,0.26632 0.601606,0.62285 0,0.41439 1.237995,1.19956 5.160038,3.2727 0.974287,0.51499 2.416743,1.19388 3.205448,1.50864 3.323047,1.32618 4.23383,2.0172 5.105354,3.87349 0.272866,0.58116 0.568148,1.10118 0.656201,1.15561 0.209078,0.12922 0.207811,3.22531 -0.0015,3.77455 -0.248561,0.65211 -1.077093,1.39031 -2.489898,2.21843 -0.707617,0.41478 -1.616289,1.01259 -2.019257,1.32848 -1.155639,0.90587 -2.171139,1.22153 -4.253172,1.32198 -1.70779,0.0824 -1.896521,0.12776 -2.151776,0.51735 -0.340683,0.51995 -2.200616,1.80422 -3.347977,2.31174 -0.46195,0.20434 -1.034176,0.6024 -1.271618,0.88459 -0.594573,0.70661 -3.102854,1.65602 -4.63635,1.75491 -2.114658,0.13634 -3.180256,0.16195 -4.441834,0.10671 z"
       id="path5205"
       inkscape:connector-curvature="0" />
  </g>
</svg>
