<?xml version="1.0" encoding="UTF-8" standalone="no"?>
<!-- Created with Inkscape (http://www.inkscape.org/) -->

<svg
   xmlns:dc="http://purl.org/dc/elements/1.1/"
   xmlns:cc="http://creativecommons.org/ns#"
   xmlns:rdf="http://www.w3.org/1999/02/22-rdf-syntax-ns#"
   xmlns:svg="http://www.w3.org/2000/svg"
   xmlns="http://www.w3.org/2000/svg"
   xmlns:sodipodi="http://sodipodi.sourceforge.net/DTD/sodipodi-0.dtd"
   xmlns:inkscape="http://www.inkscape.org/namespaces/inkscape"
   width="220"
   height="235"
   viewBox="0 0 58.208332 62.177085"
   version="1.1"
   id="svg8"
   inkscape:version="0.92.3 (2405546, 2018-03-11)"
   sodipodi:docname="shoes.svg">
  <defs
     id="defs2" />
  <sodipodi:namedview
     id="base"
     pagecolor="#000000"
     bordercolor="#666666"
     borderopacity="1.0"
     inkscape:pageopacity="0"
     inkscape:pageshadow="2"
     inkscape:zoom="2.8"
     inkscape:cx="-27.222181"
     inkscape:cy="116.89428"
     inkscape:document-units="px"
     inkscape:current-layer="layer1"
     showgrid="false"
     units="px"
     inkscape:window-width="3440"
     inkscape:window-height="1377"
     inkscape:window-x="-8"
     inkscape:window-y="-8"
     inkscape:window-maximized="1" />
  <metadata
     id="metadata5">
    <rdf:RDF>
      <cc:Work
         rdf:about="">
        <dc:format>image/svg+xml</dc:format>
        <dc:type
           rdf:resource="http://purl.org/dc/dcmitype/StillImage" />
        <dc:title></dc:title>
      </cc:Work>
    </rdf:RDF>
  </metadata>
  <g
     inkscape:label="Layer 1"
     inkscape:groupmode="layer"
     id="layer1"
     transform="translate(0,-234.8229)">
    <path
       style="fill:none;stroke:#ffffff;stroke-width:0.40000001;stroke-miterlimit:4;stroke-dasharray:none;stroke-opacity:1"
       d="m 31.82276,284.62026 c -0.25353,-0.0111 -0.43227,-0.0318 -0.45283,-0.0523 -0.0193,-0.0193 -0.0711,-0.0266 -0.11968,-0.0168 -0.0471,0.009 -0.11469,0.003 -0.15012,-0.0145 -0.0354,-0.0174 -0.19181,-0.0523 -0.3475,-0.0776 -0.1557,-0.0253 -0.33935,-0.0658 -0.40812,-0.0901 -0.0688,-0.0243 -0.173,-0.045 -0.23163,-0.0462 -0.0826,-0.002 -0.0934,-0.007 -0.048,-0.0249 0.0405,-0.0158 -0.005,-0.0281 -0.147064,-0.0399 -0.113118,-0.009 -0.238761,-0.0245 -0.279203,-0.0336 -0.04044,-0.009 -0.209635,-0.0304 -0.375985,-0.0473 -0.166352,-0.0169 -0.338414,-0.0447 -0.382358,-0.0617 -0.04395,-0.017 -0.165935,-0.0348 -0.271084,-0.0395 -0.319725,-0.0143 -1.166128,-0.17575 -1.455903,-0.27768 -0.205306,-0.0722 -0.574431,-0.17915 -0.618411,-0.17915 -0.02616,0 -0.06742,-0.0199 -0.09168,-0.0441 -0.02426,-0.0243 -0.07548,-0.0441 -0.11381,-0.0441 -0.03833,0 -0.07695,-0.0117 -0.08581,-0.0261 -0.0089,-0.0143 -0.06162,-0.0346 -0.117245,-0.0451 -0.05562,-0.0104 -0.105399,-0.031 -0.11062,-0.0456 -0.0052,-0.0147 -0.04258,-0.0321 -0.08302,-0.0387 -0.07918,-0.0129 -0.164779,-0.0411 -0.235298,-0.0775 -0.02426,-0.0125 -0.116913,-0.0409 -0.205885,-0.0631 -0.08897,-0.0222 -0.169373,-0.051 -0.17867,-0.0641 -0.0093,-0.0131 -0.05562,-0.0289 -0.102943,-0.0351 -0.151837,-0.0201 -0.73256,-0.17252 -0.748719,-0.19654 -0.0086,-0.0128 -0.11447,-0.0393 -0.235298,-0.0589 -0.120828,-0.0196 -0.226303,-0.0439 -0.234391,-0.0541 -0.0081,-0.0101 -0.06075,-0.0402 -0.117025,-0.0668 -0.07308,-0.0346 -0.108161,-0.039 -0.122761,-0.0154 -0.01459,0.0236 -0.03496,0.021 -0.07112,-0.009 -0.04864,-0.0405 -0.426665,-0.19075 -0.564108,-0.22417 -0.0364,-0.009 -0.06618,-0.0278 -0.06618,-0.0421 0,-0.0143 -0.05625,-0.0262 -0.125002,-0.0264 -0.09154,-3.3e-4 -0.113193,-0.008 -0.08088,-0.029 0.03482,-0.0225 0.02825,-0.0286 -0.03114,-0.029 -0.04139,-3.3e-4 -0.100951,-0.0199 -0.132355,-0.0436 -0.0314,-0.0238 -0.08687,-0.0436 -0.123269,-0.0441 -0.0388,-5.6e-4 -0.06618,-0.0192 -0.06618,-0.0451 0,-0.0243 -0.02316,-0.0442 -0.05147,-0.0442 -0.063,0 -0.782896,-0.34824 -0.796579,-0.38519 -0.0054,-0.0146 -0.03517,-0.0265 -0.06618,-0.0265 -0.03101,0 -0.05638,-0.0132 -0.05638,-0.0294 0,-0.0162 -0.02647,-0.0294 -0.05882,-0.0294 -0.03235,0 -0.05882,-0.0132 -0.05882,-0.0294 0,-0.0162 -0.01939,-0.0294 -0.04308,-0.0294 -0.0237,0 -0.0557,-0.0236 -0.07112,-0.0524 -0.01542,-0.0288 -0.07545,-0.071 -0.13339,-0.0937 -0.05794,-0.0227 -0.105352,-0.0565 -0.105352,-0.075 0,-0.0185 -0.0364,-0.0524 -0.08088,-0.0754 -0.12789,-0.066 -0.63463,-0.59115 -0.594403,-0.61601 0.01976,-0.0122 0.002,-0.0213 -0.04164,-0.0213 -0.04472,0 -0.06841,0.0125 -0.05742,0.0303 0.01029,0.0166 0.0051,0.0219 -0.01145,0.0116 -0.01659,-0.0103 -0.02558,-0.0581 -0.01996,-0.10629 0.0075,-0.0641 -4.45e-4,-0.0836 -0.0294,-0.0725 -0.02179,0.008 -0.04726,-0.005 -0.05661,-0.0291 -0.01349,-0.0352 -0.0037,-0.0392 0.04768,-0.0197 0.03557,0.0135 0.06297,0.0452 0.06089,0.0702 -0.0021,0.0251 0.01515,0.0529 0.03829,0.0618 0.02336,0.009 0.03409,0.003 0.02411,-0.0129 -0.02607,-0.0422 0.05438,-0.0356 0.14599,0.0119 0.04677,0.0243 0.06374,0.046 0.04162,0.0534 -0.0252,0.008 -0.02059,0.0189 0.01415,0.0322 0.0308,0.0118 0.04429,0.008 0.03354,-0.009 -0.02543,-0.0411 -0.0147,-0.038 0.159731,0.0461 0.0857,0.0414 0.161379,0.0696 0.168167,0.0628 0.0068,-0.007 -0.05468,-0.0412 -0.136587,-0.0764 -0.09183,-0.0395 -0.141175,-0.0766 -0.128705,-0.0968 0.01164,-0.0188 0.0069,-0.0245 -0.01108,-0.0134 -0.04037,0.0249 -0.129293,-0.009 -0.109149,-0.0413 0.0084,-0.0137 -0.01308,-0.0401 -0.04784,-0.0587 -0.05002,-0.0268 -0.05839,-0.026 -0.04012,0.004 0.01657,0.0268 0.0086,0.0318 -0.02827,0.0176 -0.02824,-0.0108 -0.05767,-0.0197 -0.06539,-0.0197 -0.0077,0 -0.0063,-0.0126 0.0032,-0.0279 0.0095,-0.0154 -0.01117,-0.0432 -0.04593,-0.0618 -0.04379,-0.0234 -0.05706,-0.0239 -0.04321,-0.002 0.02947,0.0477 -0.0225,0.0393 -0.08815,-0.0142 -0.051,-0.0416 -0.05144,-0.0447 -0.0041,-0.0297 0.03219,0.0102 0.04565,0.005 0.03429,-0.0135 -0.01029,-0.0167 -0.04572,-0.0217 -0.07874,-0.0112 -0.04379,0.0139 -0.05383,0.009 -0.0371,-0.0181 0.01434,-0.0232 0.01103,-0.0298 -0.0088,-0.0175 -0.03265,0.0202 -0.370881,-0.16313 -0.406082,-0.22009 -0.01083,-0.0175 0.01835,-0.009 0.06482,0.0188 l 0.0845,0.0507 -0.07058,-0.0584 c -0.03882,-0.0321 -0.09507,-0.052 -0.125001,-0.0442 -0.03016,0.008 -0.05442,-10e-4 -0.05442,-0.0204 0,-0.019 0.01528,-0.0251 0.03396,-0.0136 0.02121,0.0131 0.02596,0.008 0.01267,-0.0135 -0.01171,-0.0189 -0.03386,-0.0267 -0.04923,-0.0172 -0.02505,0.0155 -0.409173,-0.26614 -0.409173,-0.29999 0,-0.008 0.01654,-0.004 0.03677,0.008 0.02498,0.015 0.02383,0.006 -0.0036,-0.0277 -0.04542,-0.056 -0.07699,-0.0675 -0.04551,-0.0165 0.01258,0.0204 0.0047,0.0275 -0.02032,0.0184 -0.02247,-0.008 -0.03823,-0.0277 -0.03501,-0.0434 0.0032,-0.0157 -0.04971,-0.0802 -0.11761,-0.14338 -0.11607,-0.10793 -0.11774,-0.10855 -0.02791,-0.0105 0.05255,0.0574 0.09555,0.11372 0.09555,0.12519 0,0.0115 -0.09107,-0.0818 -0.202371,-0.20729 -0.111304,-0.12547 -0.246968,-0.26761 -0.301474,-0.31586 -0.05451,-0.0482 -0.01505,-3.4e-4 0.08769,0.10672 0.137993,0.14366 0.176414,0.20047 0.147061,0.21745 -0.02185,0.0126 -0.02942,0.0117 -0.01682,-0.002 0.0126,-0.0138 -0.06646,-0.11523 -0.175685,-0.22531 -0.109228,-0.11007 -0.185714,-0.20032 -0.169973,-0.20056 0.01574,-3.4e-4 -0.01838,-0.0433 -0.07584,-0.0956 -0.05746,-0.0523 -0.07731,-0.0754 -0.04412,-0.0512 0.04807,0.035 0.04586,0.0275 -0.01085,-0.0367 -0.03916,-0.0443 -0.07703,-0.0747 -0.08415,-0.0676 -0.01849,0.0185 -0.156608,-0.15087 -0.146866,-0.18009 0.0045,-0.0134 2.94e-4,-0.0243 -0.0094,-0.0243 -0.04283,0 -0.116098,-0.0866 -0.102734,-0.12142 0.0081,-0.0212 0,-0.0476 -0.01791,-0.0587 -0.02116,-0.0131 -0.02429,-0.007 -0.0089,0.0183 0.01622,0.0262 0.01234,0.0314 -0.01217,0.0163 -0.01978,-0.0122 -0.02892,-0.0406 -0.02031,-0.063 0.0086,-0.0224 0.0062,-0.0394 -0.0053,-0.0377 -0.05231,0.008 -0.07672,-0.007 -0.0451,-0.0268 0.02514,-0.016 0.01851,-0.0423 -0.02403,-0.0951 -0.05317,-0.0661 -0.05568,-0.0668 -0.02634,-0.007 0.04909,0.10021 0.0092,0.0793 -0.04363,-0.0229 -0.02534,-0.049 -0.03979,-0.0993 -0.03211,-0.1117 0.0077,-0.0124 3.54e-4,-0.0418 -0.01628,-0.0653 -0.02466,-0.0348 -0.02719,-0.0332 -0.01369,0.009 0.0292,0.0908 -0.008,0.0551 -0.07069,-0.0678 -0.03348,-0.0656 -0.0539,-0.14173 -0.04539,-0.16912 0.0085,-0.0274 0.0017,-0.0696 -0.01518,-0.0939 -0.02357,-0.0339 -0.02649,-0.0271 -0.01263,0.0294 0.01629,0.0664 0.01465,0.0681 -0.01696,0.0172 -0.06226,-0.10021 -0.143261,-0.46821 -0.143779,-0.65323 -5.59e-4,-0.19885 0.02589,-0.36931 0.05455,-0.3516 0.01016,0.006 0.01848,-0.0258 0.01848,-0.0712 0,-0.10235 -0.03323,-0.0871 -0.05823,0.0267 -0.01025,0.0467 -0.04429,0.10807 -0.07565,0.13644 -0.05512,0.0499 -0.05762,0.0485 -0.07566,-0.0417 -0.01963,-0.0981 -0.0733,-0.15531 -0.0923,-0.0983 -0.0082,0.0247 -0.02634,0.0242 -0.06881,-0.002 -0.04679,-0.029 -0.06334,-0.0274 -0.08807,0.008 -0.02409,0.0349 -0.02682,0.0311 -0.01308,-0.0181 0.01496,-0.0536 0.0072,-0.0603 -0.05641,-0.0481 -0.04058,0.008 -0.09715,0.005 -0.125734,-0.007 -0.07958,-0.0318 -0.663252,-0.0164 -0.992854,0.0261 -0.161931,0.0209 -0.344236,0.0319 -0.405121,0.0244 -0.06088,-0.007 -0.127063,-7.8e-4 -0.147061,0.0149 -0.02315,0.0181 -0.132518,0.0187 -0.30107,0.002 -0.14559,-0.0148 -0.334213,-0.0229 -0.419163,-0.0179 -0.08495,0.005 -0.154436,-0.002 -0.154414,-0.0149 2.2e-5,-0.0132 -0.02974,-0.0142 -0.06614,-0.002 -0.07015,0.0232 -0.305701,0.0327 -0.904424,0.0365 -0.774826,0.005 -0.985237,0.01 -1.008229,0.0242 -0.01308,0.008 -0.04209,-5.6e-4 -0.06448,-0.0191 -0.02239,-0.0186 -0.104531,-0.0392 -0.182538,-0.0459 -0.304528,-0.0261 -0.467462,-0.0501 -0.515965,-0.0759 -0.02783,-0.0149 -0.113861,-0.0331 -0.19118,-0.0406 -0.07732,-0.007 -0.219991,-0.0329 -0.317051,-0.0564 -0.554779,-0.13476 -0.760501,-0.18889 -0.726217,-0.19109 0.02118,-10e-4 0.03019,-0.0159 0.02003,-0.0324 -0.01016,-0.0164 -0.0341,-0.0198 -0.05321,-0.007 -0.0432,0.028 -0.225891,0.0299 -0.225903,0.002 -5e-6,-0.0111 -0.06288,-0.0294 -0.1397155,-0.0405 -0.07684,-0.0111 -0.156176,-0.0333 -0.176304,-0.0494 -0.02013,-0.016 -0.0724,-0.0223 -0.116161,-0.014 -0.04376,0.008 -0.113322,0.002 -0.154583,-0.0138 -0.04126,-0.0159 -0.114725,-0.0329 -0.163255,-0.0378 -0.116839,-0.0117 -0.667411,-0.10058 -0.852953,-0.13762 -0.08088,-0.0162 -0.226474,-0.0443 -0.323535,-0.0625 -0.09706,-0.0182 -0.185075,-0.0457 -0.195588,-0.061 -0.01051,-0.0153 -0.06677,-0.0201 -0.125002,-0.0106 -0.07263,0.0118 -0.105886,0.006 -0.105886,-0.0184 0,-0.0365 -0.303019,-0.11461 -0.448536,-0.11568 -0.04481,-3.3e-4 -0.08088,-0.017 -0.08088,-0.0374 0,-0.0202 -0.02978,-0.0371 -0.06618,-0.0375 -0.09325,-8.8e-4 -0.358367,-0.0729 -0.407462,-0.11065 -0.02259,-0.0174 -0.08164,-0.0339 -0.13122,-0.0368 -0.04958,-0.003 -0.174519,-0.0383 -0.27764,-0.0787 -0.103121,-0.0404 -0.209484,-0.0735 -0.23636,-0.0735 -0.02688,0 -0.109737,-0.0324 -0.184134,-0.0719 -0.0744,-0.0396 -0.182252,-0.0807 -0.239678,-0.0915 -0.05743,-0.0108 -0.104411,-0.0313 -0.104411,-0.0457 0,-0.0144 -0.01379,-0.0261 -0.03064,-0.0261 -0.01685,0 -0.115565,-0.0397 -0.219365,-0.0882 -0.103799,-0.0485 -0.19684,-0.0882 -0.20676,-0.0882 -0.0099,0 -0.03789,-0.0199 -0.06215,-0.0441 -0.02426,-0.0243 -0.06896,-0.0441 -0.09933,-0.0441 -0.03036,0 -0.09091,-0.0331 -0.134548,-0.0735 -0.04364,-0.0404 -0.103879,-0.0735 -0.13387,-0.0735 -0.02999,0 -0.05453,-0.0118 -0.05453,-0.0262 0,-0.0144 -0.03627,-0.0353 -0.08059,-0.0464 -0.04432,-0.0111 -0.08734,-0.0291 -0.09559,-0.04 -0.0082,-0.0109 -0.06132,-0.0434 -0.117943,-0.0724 -0.161995,-0.0829 -0.353623,-0.20513 -0.447688,-0.28556 -0.02838,-0.0243 -0.09283,-0.0772 -0.143225,-0.11765 -0.106572,-0.0855 -0.133064,-0.11193 -0.308134,-0.30716 -0.07171,-0.08 -0.13038,-0.15526 -0.13038,-0.16731 0,-0.0121 -0.03908,-0.0647 -0.08685,-0.117 -0.04777,-0.0523 -0.08064,-0.10515 -0.07305,-0.11743 0.0076,-0.0123 3.34e-4,-0.0306 -0.01609,-0.0408 -0.01644,-0.0102 -0.02989,-0.0454 -0.02989,-0.0784 0,-0.0329 -0.02453,-0.095 -0.05452,-0.13798 -0.109887,-0.15737 -0.09834,-0.45571 0.01332,-0.34406 0.02266,0.0227 0.0412,0.0497 0.0412,0.0601 0,0.0268 0.07945,0.10295 0.107447,0.10295 0.01288,0 0.06677,0.0487 0.11975,0.10828 0.05298,0.0596 0.09634,0.0919 0.09634,0.0718 0,-0.0205 0.0161,-0.0275 0.03677,-0.016 0.02022,0.0113 -0.05516,-0.0736 -0.167503,-0.18861 -0.112348,-0.115 -0.210397,-0.20297 -0.217885,-0.19548 -0.01903,0.019 -0.09256,-0.0456 -0.09256,-0.0813 0,-0.0162 0.0228,-0.0113 0.05066,0.011 0.02786,0.0222 -0.0068,-0.0286 -0.07712,-0.11285 -0.07028,-0.0843 -0.141056,-0.15045 -0.157278,-0.14706 -0.01622,0.003 -0.03618,-0.0122 -0.04434,-0.0347 -0.01,-0.0274 -0.0024,-0.0332 0.02293,-0.0175 0.02364,0.0146 0.03052,0.0116 0.01841,-0.008 -0.02188,-0.0354 -0.07172,-0.033 -0.136783,0.007 -0.03507,0.0214 -0.03764,0.0182 -0.01256,-0.0155 0.01736,-0.0233 0.03316,-0.0732 0.03511,-0.11081 0.0028,-0.0545 -0.0046,-0.0617 -0.0365,-0.0352 -0.03219,0.0267 -0.03846,0.0188 -0.03195,-0.0405 0.0046,-0.0416 -0.0061,-0.0711 -0.02447,-0.0678 -0.01791,0.003 -0.03075,-0.0171 -0.02853,-0.0452 0.0023,-0.0291 -0.0094,-0.0429 -0.02706,-0.0319 -0.01957,0.0121 -0.02391,5.5e-4 -0.01172,-0.0313 0.01305,-0.034 0.0083,-0.0436 -0.01471,-0.0294 -0.02296,0.0142 -0.02776,0.005 -0.01471,-0.0294 0.01065,-0.0278 0.0083,-0.0437 -0.0052,-0.0353 -0.03632,0.0224 -0.162585,-0.26411 -0.135613,-0.30776 0.01411,-0.0228 0.01092,-0.0296 -0.0083,-0.0177 -0.03446,0.0213 -0.134239,-0.23609 -0.107989,-0.27856 0.0087,-0.0142 3.33e-4,-0.0257 -0.01858,-0.0257 -0.02145,0 -0.02968,-0.0328 -0.02177,-0.0867 0.007,-0.0477 0.0035,-0.081 -0.0077,-0.0741 -0.03718,0.023 -0.05462,-0.59559 -0.02284,-0.80986 0.03329,-0.22443 0.191497,-0.61163 0.328139,-0.80312 0.12677,-0.17767 0.554164,-0.60868 0.603555,-0.60868 0.01357,0 0.04121,-0.0562 0.06142,-0.12501 0.112269,-0.3818 0.511381,-0.97034 0.963927,-1.42141 0.50724,-0.5056 1.617155,-1.28004 2.758682,-1.92488 0.153043,-0.0865 1.154624,-0.58759 1.174366,-0.58759 0.0083,0 0.09163,-0.0349 0.185109,-0.0775 0.09348,-0.0427 0.189812,-0.0806 0.214077,-0.0842 0.03953,-0.006 0.273441,-0.0907 0.470595,-0.17047 0.04044,-0.0163 0.09028,-0.0332 0.110748,-0.0374 0.107701,-0.0221 0.736364,-0.27307 0.9927875,-0.39627 0.319018,-0.15327 0.699644,-0.41107 0.952953,-0.64545 0.08767,-0.0811 0.163569,-0.14749 0.168661,-0.14749 0.0051,0 0.142379,-0.10811 0.305083,-0.24025 0.214563,-0.17426 0.290756,-0.25304 0.277373,-0.28677 -0.04518,-0.11388 -0.04639,-0.2338 -0.0032,-0.3173 0.04814,-0.0931 0.09284,-0.13328 0.475059,-0.42717 0.129413,-0.0995 0.413976,-0.33902 0.632362,-0.53226 0.218385,-0.19324 0.502948,-0.43462 0.632362,-0.5364 0.129413,-0.10178 0.339035,-0.26651 0.465826,-0.36606 0.200656,-0.15754 0.228207,-0.19025 0.212615,-0.25237 -0.02491,-0.0992 0.186464,-0.47709 0.369008,-0.65963 0.172897,-0.1729 0.456372,-0.31753 0.672514,-0.34313 0.08833,-0.0105 0.174243,-0.0305 0.19092,-0.0444 0.01668,-0.014 0.14525,-0.1059 0.285719,-0.20426 0.237807,-0.16653 0.253507,-0.18382 0.227944,-0.25106 -0.06938,-0.18248 -0.0091,-0.32495 0.319049,-0.75345 0.347572,-0.45392 0.49826,-0.54726 0.618044,-0.38282 l 0.05767,0.0792 0.234353,-0.23657 c 0.211265,-0.21326 0.230454,-0.2419 0.194783,-0.29068 -0.02177,-0.0298 -0.03957,-0.063 -0.03957,-0.0738 0,-0.0108 0.129046,-0.15113 0.286769,-0.31182 l 0.286769,-0.29218 0.0031,-0.17521 c 0.0043,-0.24686 0.104095,-0.42495 0.431535,-0.77032 0.149791,-0.15799 0.336596,-0.36406 0.415121,-0.45793 0.12706,-0.15188 0.140917,-0.1821 0.125913,-0.27456 -0.01051,-0.0648 -0.0617,-0.15253 -0.135952,-0.23309 -0.0655,-0.0711 -0.119092,-0.14105 -0.119092,-0.15553 0,-0.0145 0.06949,-0.11141 0.154414,-0.2154 0.08493,-0.10399 0.189946,-0.23471 0.233376,-0.29051 0.388379,-0.49892 0.836045,-1.04381 1.098239,-1.33675 0.52947,-0.59154 0.745832,-0.86239 0.841192,-1.05303 0.105081,-0.21006 0.164311,-0.28522 0.224777,-0.28522 0.02356,0 0.182008,0.0554 0.352093,0.12317 0.300966,0.11988 0.310345,0.12165 0.350208,0.0662 0.225571,-0.31391 0.543046,-0.62803 0.756461,-0.74848 0.180637,-0.10194 0.366131,-0.33733 0.810988,-1.02913 0.467097,-0.72638 0.553354,-0.84552 0.766566,-1.05878 0.292793,-0.29286 0.491387,-0.39335 0.80595,-0.40779 0.244386,-0.0112 0.352064,0.0108 0.610117,0.12496 0.08662,0.0383 0.164415,0.068 0.172882,0.0659 0.0085,-0.002 0.04443,0.0227 0.07991,0.0551 0.03548,0.0324 0.359444,0.22967 0.719908,0.43848 1.222873,0.7084 1.508789,0.91839 2.172304,1.59548 l 0.428659,0.43743 0.159585,-0.12648 c 0.261168,-0.20698 0.59232,-0.45673 0.72602,-0.54756 0.0688,-0.0468 0.25645,-0.20813 0.41691,-0.3586 0.16047,-0.15047 0.34237,-0.2997 0.40422,-0.33164 0.11579,-0.0598 0.38869,-0.27874 0.49754,-0.39918 0.0993,-0.10983 0.56255,-0.45349 0.68179,-0.50575 0.22408,-0.0982 0.65259,-0.19064 1.10587,-0.23856 0.43748,-0.0463 0.49391,-0.0462 0.89707,2.9e-4 0.23663,0.0273 0.61247,0.0962 0.83521,0.15316 0.22273,0.0569 0.41796,0.10352 0.43383,0.10352 0.0159,0 0.0289,-0.0278 0.0289,-0.0618 0,-0.10276 0.17368,-0.58786 0.27249,-0.76108 0.13245,-0.23219 0.32472,-0.42725 0.59517,-0.6038 0.37598,-0.24545 0.53596,-0.31896 0.72369,-0.33254 l 0.16895,-0.0122 0.3331,0.24881 c 0.18321,0.13685 0.43237,0.31542 0.5537,0.39684 0.67319,0.45177 0.82121,0.90484 0.52419,1.60452 -0.10965,0.25831 -0.28783,0.53857 -0.53376,0.83958 -0.1015,0.12423 -0.28696,0.36156 -0.41214,0.5274 -0.12518,0.16584 -0.25878,0.32196 -0.2969,0.34694 -0.0489,0.032 -0.065,0.0645 -0.0548,0.11024 0.0592,0.2639 0.18352,0.61611 0.31884,0.90308 0.17215,0.3651 0.21368,0.51464 0.30647,1.10354 0.0332,0.21061 0.079,0.46209 0.10178,0.55883 0.27309,1.15907 0.33912,1.52348 0.3399,1.87606 3.4e-4,0.16991 0.0167,0.26544 0.0628,0.36765 0.0343,0.076 0.0666,0.14288 0.0719,0.14873 0.005,0.006 0.0954,0.0267 0.2003,0.0465 l 0.19069,0.0358 0.0802,-0.22294 c 0.16255,-0.45208 0.37809,-0.82438 0.56838,-0.98174 0.38956,-0.32215 1.00244,-0.46699 1.56161,-0.36905 0.10515,0.0184 0.21765,0.0364 0.25001,0.04 0.0323,0.004 0.0961,0.0215 0.14162,0.0398 0.0455,0.0183 0.0934,0.0333 0.10644,0.0333 0.11899,0 1.36327,0.58787 1.95394,0.92315 0.15963,0.0906 0.27504,0.14644 0.25649,0.12408 -0.0269,-0.0324 0.004,-0.0763 0.15096,-0.21651 0.23652,-0.2252 0.84066,-0.72666 1.19974,-0.99582 0.29548,-0.22151 0.98431,-0.68787 1.01597,-0.68787 0.0103,0 0.0539,-0.0242 0.0968,-0.0538 0.0429,-0.0296 0.21043,-0.11098 0.3722,-0.18086 0.16176,-0.0699 0.29856,-0.1384 0.30398,-0.15226 0.005,-0.0139 0.0201,-0.0189 0.0326,-0.0112 0.0125,0.008 0.0676,7.2e-4 0.12249,-0.0155 0.67603,-0.20042 1.43923,-0.14913 2.26157,0.15197 0.089,0.0326 0.22855,0.0774 0.31018,0.0997 0.0816,0.0222 0.21778,0.0678 0.30256,0.10122 0.0848,0.0334 0.17079,0.0608 0.19113,0.0608 0.0203,0 0.0857,-0.10258 0.14525,-0.22795 0.27156,-0.5716 0.59568,-1.10525 0.81281,-1.33825 0.15513,-0.16646 0.24659,-0.18018 0.39149,-0.0587 0.16978,0.1423 0.32825,0.26011 0.46427,0.34511 0.0728,0.0455 0.13897,0.0915 0.14706,0.10218 0.0224,0.0296 0.534,0.37987 0.78896,0.54011 0.36835,0.23152 0.35764,0.20219 0.18396,0.50402 -0.0817,0.14197 -0.14006,0.27184 -0.12971,0.2886 0.0104,0.0168 0.005,0.0217 -0.0126,0.011 -0.0173,-0.0107 -0.0582,0.0237 -0.0908,0.0763 -0.0327,0.0527 -0.0873,0.12555 -0.12131,0.16195 -0.0341,0.0364 -0.0523,0.0662 -0.0405,0.0662 0.0118,0 2e-5,0.0165 -0.0262,0.0368 -0.0262,0.0202 -0.15405,0.18898 -0.28404,0.37501 -0.12999,0.18603 -0.2661,0.37684 -0.30246,0.42401 l -0.0661,0.0858 0.21932,0.64771 c 0.15283,0.45134 0.26615,0.73083 0.37379,0.9219 0.23973,0.42554 0.26545,0.51677 0.42122,1.49418 0.11799,0.74036 0.24153,1.27899 0.3946,1.72046 0.05,0.14427 0.0912,0.35996 0.11905,0.62426 0.0234,0.22211 0.0639,0.50665 0.0898,0.63232 0.0406,0.19649 0.0645,0.24706 0.17102,0.36105 0.3289,0.35208 0.46396,0.55895 0.77599,1.18861 0.10345,0.20877 0.21171,0.41392 0.24057,0.45589 0.0289,0.042 0.11586,0.17502 0.19334,0.29566 0.0775,0.12064 0.24133,0.33335 0.36414,0.47268 0.12281,0.13933 0.26296,0.31195 0.31145,0.3836 0.0485,0.0716 0.0959,0.13689 0.10536,0.14497 0.039,0.0333 0.24123,0.403 0.29644,0.54184 0.14123,0.35517 0.17035,0.44383 0.22557,0.68677 0.0856,0.37673 0.10303,0.50201 0.0622,0.44789 -0.0281,-0.0372 -0.0305,-0.0356 -0.0158,0.01 0.01,0.0296 0.0192,0.10904 0.0213,0.17647 l 0.004,0.1226 0.0217,-0.10295 c 0.0138,-0.0653 0.0216,0.026 0.0214,0.25001 -3.3e-4,0.20923 -0.008,0.30504 -0.0193,0.2353 l -0.019,-0.11765 -0.015,0.10988 c -0.008,0.0604 -0.004,0.13026 0.0104,0.15517 0.0139,0.0249 0.0199,0.0813 0.0132,0.12541 -0.0112,0.0737 -0.0125,0.0724 -0.0166,-0.0155 -0.006,-0.13279 -0.0482,-0.12033 -0.0498,0.0147 -6.7e-4,0.0606 -0.0106,0.15658 -0.022,0.2132 -0.0144,0.0717 -0.0119,0.0895 0.008,0.0588 0.0159,-0.0243 0.0291,-0.0761 0.0294,-0.1152 3.3e-4,-0.0391 0.008,-0.0631 0.0182,-0.0534 0.01,0.01 0.008,0.0881 -0.004,0.17402 -0.0155,0.11126 -0.0277,0.13975 -0.0423,0.0989 -0.0168,-0.0471 -0.0241,-0.0392 -0.0406,0.0441 -0.0111,0.0559 -0.0497,0.12491 -0.0858,0.15343 -0.0545,0.0431 -0.0561,0.0485 -0.009,0.0318 0.039,-0.0139 0.0498,-0.01 0.035,0.0143 -0.0117,0.0189 -0.009,0.0344 0.007,0.0344 0.0153,0 0.0377,-0.0496 0.0496,-0.1103 0.012,-0.0607 0.0269,-0.0962 0.0333,-0.0791 0.006,0.0172 -0.0208,0.15579 -0.0604,0.30806 -0.0488,0.18796 -0.0629,0.29126 -0.044,0.32174 0.0244,0.0392 0.0274,0.0393 0.0237,7.7e-4 -0.002,-0.0243 -0.002,-0.064 -3.3e-4,-0.0882 0.003,-0.0373 0.008,-0.0377 0.0302,-0.003 0.0144,0.0228 0.0186,0.0614 0.009,0.0857 -0.0112,0.0292 -0.005,0.0369 0.018,0.0226 0.0265,-0.0164 0.0343,0.0755 0.032,0.3773 -0.002,0.21943 -0.0154,0.40659 -0.0305,0.41592 -0.0151,0.009 -0.0207,0.0279 -0.0124,0.0414 0.0454,0.0734 -0.34591,1.08918 -0.41961,1.08918 -0.0144,0 -0.0418,0.0341 -0.0608,0.0758 -0.0336,0.0738 -0.1106,0.16738 -0.27637,0.33606 -0.0445,0.0453 -0.0809,0.0922 -0.0809,0.1043 0,0.0333 -0.18384,0.20456 -0.24452,0.22774 -0.0293,0.0112 -0.0451,0.0337 -0.035,0.05 0.0101,0.0163 0.004,0.0296 -0.0143,0.0296 -0.0179,0 -0.13446,0.0993 -0.25897,0.22059 -0.16522,0.23012 -0.54126,0.4608 -0.65537,0.66598 -0.0186,0.0347 -0.0753,0.10371 -0.12603,0.15344 -0.0508,0.0497 -0.0888,0.1015 -0.0844,0.11503 0.004,0.0135 -0.0122,0.0447 -0.0368,0.0692 -0.0399,0.0399 -0.0449,0.0374 -0.047,-0.0236 -0.002,-0.064 -0.004,-0.0632 -0.0319,0.0126 -0.0162,0.0445 -0.0489,0.0809 -0.0726,0.0809 -0.0237,0 -0.0618,0.043 -0.0846,0.0956 -0.0229,0.0526 -0.0421,0.0857 -0.0427,0.0735 -6.7e-4,-0.0121 -0.0276,10e-4 -0.06,0.0294 -0.14655,0.12822 -0.16928,0.14536 -0.21735,0.1638 -0.0281,0.0108 -0.0428,0.033 -0.0327,0.0493 0.0101,0.0163 -0.0155,0.0426 -0.057,0.0583 -0.0414,0.0157 -0.0753,0.043 -0.0753,0.0605 0,0.0175 -0.0123,0.0242 -0.0274,0.0149 -0.0151,-0.009 -0.0452,0.008 -0.0669,0.0395 -0.0217,0.031 -0.0888,0.0855 -0.14908,0.12105 -0.0603,0.0356 -0.10957,0.0753 -0.10957,0.0883 0,0.013 -0.0364,0.0382 -0.0809,0.056 -0.0841,0.0337 -0.14367,0.0705 -0.37287,0.23043 -0.0751,0.0524 -0.16786,0.10315 -0.20614,0.11276 -0.0383,0.01 -0.10038,0.0461 -0.13799,0.0812 -0.0376,0.0351 -0.0753,0.062 -0.0838,0.0599 -0.0303,-0.007 -0.14242,0.0449 -0.16134,0.0755 -0.0106,0.0172 -0.0425,0.0312 -0.0708,0.0312 -0.0284,0 -0.0836,0.0298 -0.1227,0.0662 -0.0391,0.0364 -0.0817,0.0627 -0.0946,0.0585 -0.0129,-0.004 -0.0311,0.0124 -0.0405,0.0368 -0.009,0.0244 -0.0322,0.0444 -0.0506,0.0444 -0.0185,2e-5 -0.0721,0.0331 -0.11908,0.0735 -0.047,0.0404 -0.096,0.0735 -0.10899,0.0735 -0.0434,0 -0.22973,0.13954 -0.21116,0.15812 0.0101,0.0101 -0.002,0.0183 -0.0271,0.0183 -0.025,0 -0.0618,0.0197 -0.0818,0.0438 -0.02,0.0241 -0.0474,0.0369 -0.0609,0.0286 -0.0135,-0.008 -0.039,0.0116 -0.0565,0.0444 -0.0176,0.0328 -0.044,0.0596 -0.0588,0.0596 -0.0334,0 -0.28672,0.1694 -0.31023,0.20745 -0.009,0.0153 -0.0372,0.0279 -0.0617,0.0279 -0.0245,0 -0.0651,0.0206 -0.0903,0.0458 -0.0252,0.0252 -0.064,0.0389 -0.0861,0.0303 -0.0222,-0.009 -0.0403,-0.003 -0.0403,0.013 0,0.0157 -0.0199,0.0285 -0.0441,0.0285 -0.0243,0 -0.0408,0.0162 -0.0368,0.0361 0.004,0.0198 -0.0257,0.041 -0.0662,0.0469 -0.0404,0.006 -0.0972,0.0361 -0.12615,0.0669 -0.0289,0.0308 -0.0791,0.056 -0.11153,0.056 -0.0324,0 -0.0881,0.0274 -0.12385,0.0608 -0.0357,0.0335 -0.10113,0.0682 -0.14536,0.0771 -0.0442,0.009 -0.0732,0.0279 -0.0644,0.0421 0.009,0.0142 -0.0163,0.0258 -0.0557,0.0258 -0.0394,0 -0.0864,0.0178 -0.10451,0.0396 -0.0181,0.0218 -0.0892,0.0645 -0.15801,0.0951 -0.0688,0.0305 -0.14266,0.0723 -0.16404,0.0928 -0.0214,0.0205 -0.0656,0.0373 -0.0983,0.0373 -0.0327,0 -0.0655,0.0232 -0.0729,0.0515 -0.0147,0.0564 -0.13761,0.12499 -0.22393,0.12499 -0.0301,0 -0.0473,0.012 -0.0383,0.0266 0.009,0.0146 -0.0464,0.0629 -0.12326,0.10726 -0.0768,0.0443 -0.19928,0.12315 -0.27207,0.17511 -0.0728,0.052 -0.17032,0.1036 -0.21671,0.11477 -0.0464,0.0112 -0.077,0.0277 -0.0679,0.0367 0.0235,0.0235 -0.0487,0.0951 -0.078,0.0774 -0.0135,-0.008 -0.0598,0.0187 -0.10294,0.0597 -0.0432,0.041 -0.13806,0.0976 -0.21085,0.12596 -0.11506,0.0447 -0.18952,0.0919 -0.34435,0.2182 -0.0195,0.0159 -0.0598,0.029 -0.0893,0.029 -0.0296,0 -0.0997,0.0392 -0.15566,0.087 -0.056,0.0479 -0.11229,0.0876 -0.12508,0.0882 -0.0246,10e-4 -0.17391,0.10383 -0.25858,0.17767 -0.0278,0.0243 -0.10796,0.0904 -0.17809,0.14706 -0.0701,0.0566 -0.19053,0.16505 -0.26758,0.24096 -0.077,0.0759 -0.16325,0.15552 -0.19159,0.17692 -0.0283,0.0214 -0.0668,0.0652 -0.0855,0.0973 -0.0187,0.0321 -0.0495,0.0547 -0.0684,0.0503 -0.0189,-0.004 -0.0275,0.003 -0.0191,0.0166 0.008,0.0136 -0.11304,0.15822 -0.26988,0.32141 -0.31028,0.32287 -0.47632,0.50658 -0.47632,0.52701 0,0.007 -0.0496,0.0644 -0.11029,0.12719 -0.15322,0.15856 -0.21695,0.23435 -0.29752,0.35386 -0.0383,0.0567 -0.0912,0.12537 -0.11765,0.15249 -0.0264,0.0271 -0.0812,0.0974 -0.12161,0.15626 -0.0404,0.0588 -0.12647,0.16439 -0.19118,0.23459 -0.0647,0.0702 -0.1375,0.16057 -0.16176,0.20084 -0.0725,0.12034 -0.15769,0.23293 -0.22795,0.30133 -0.0364,0.0354 -0.0662,0.0777 -0.0662,0.094 0,0.0163 -0.0462,0.0611 -0.10274,0.0996 -0.0565,0.0385 -0.10283,0.0799 -0.10294,0.092 0,0.0121 -0.02,0.0221 -0.0443,0.0221 -0.0243,0 -0.0441,0.0249 -0.0441,0.0553 0,0.0304 -0.043,0.0892 -0.0956,0.13059 -0.0526,0.0414 -0.20147,0.17502 -0.33088,0.29695 -0.12942,0.12192 -0.25095,0.22198 -0.27008,0.22235 -0.0191,3.3e-4 -0.0432,0.0271 -0.0535,0.0595 -0.0103,0.0324 -0.0356,0.0588 -0.0563,0.0588 -0.0207,0 -0.0615,0.0265 -0.0908,0.0588 -0.0293,0.0324 -0.0634,0.0588 -0.0758,0.0588 -0.0124,0 -0.0604,0.0364 -0.10654,0.0809 -0.1764,0.16996 -0.423,0.38971 -0.43732,0.38971 -0.008,0 -0.0839,0.0662 -0.16822,0.14703 -0.0843,0.0809 -0.16936,0.14705 -0.18901,0.14707 -0.0196,10e-6 -0.0499,0.0265 -0.0672,0.0589 -0.0173,0.0324 -0.0491,0.0588 -0.0705,0.0588 -0.0215,0 -0.0707,0.0316 -0.10927,0.0702 -0.0386,0.0386 -0.12656,0.0996 -0.19547,0.13547 -0.0689,0.0359 -0.13508,0.0824 -0.14706,0.1032 -0.012,0.0208 -0.11729,0.087 -0.23403,0.14709 -0.11674,0.0601 -0.22756,0.12763 -0.24625,0.15016 -0.0187,0.0225 -0.0522,0.041 -0.0745,0.041 -0.0223,0 -0.0405,0.0115 -0.0405,0.0256 0,0.0141 -0.0619,0.0429 -0.13767,0.0641 -0.0757,0.0212 -0.16174,0.0626 -0.19118,0.0921 -0.0294,0.0294 -0.0734,0.0535 -0.0976,0.0535 -0.0243,0 -0.0441,0.0132 -0.0441,0.0294 0,0.0162 -0.0333,0.0294 -0.0739,0.0294 -0.0407,0 -0.0969,0.0123 -0.125,0.0273 -0.13573,0.0726 -0.3267,0.14988 -0.41269,0.16708 -0.0525,0.0105 -0.10262,0.0306 -0.11132,0.0447 -0.009,0.0141 -0.0411,0.0256 -0.072,0.0256 -0.0309,0 -0.0996,0.0239 -0.15268,0.053 -0.0531,0.0292 -0.15935,0.0766 -0.23619,0.10537 -0.0768,0.0288 -0.13971,0.0645 -0.13971,0.0793 0,0.0148 -0.0409,0.027 -0.0909,0.027 -0.05,0 -0.1246,0.0265 -0.16573,0.0588 -0.0411,0.0324 -0.093,0.0588 -0.11533,0.0588 -0.0223,0 -0.0702,0.0153 -0.10634,0.034 -0.13973,0.0722 -0.16958,0.0837 -0.21979,0.0841 -0.0442,3.4e-4 -0.0454,0.005 -0.008,0.029 0.0392,0.0254 0.0392,0.0291 0,0.0334 -0.0923,0.0103 -0.10026,0.0129 -0.36422,0.11621 -0.079,0.0309 -0.17333,0.0562 -0.20963,0.0562 -0.0363,0 -0.0825,0.0199 -0.10263,0.0441 -0.0201,0.0243 -0.0685,0.0441 -0.10749,0.0441 -0.039,0 -0.11838,0.0199 -0.17646,0.0441 -0.0581,0.0243 -0.15108,0.0441 -0.20667,0.0441 -0.0556,0 -0.0944,0.0109 -0.0861,0.0242 0.008,0.0133 -0.0528,0.0273 -0.1357,0.0311 -0.0829,0.004 -0.17516,0.02 -0.2051,0.036 -0.071,0.038 -0.49443,0.0881 -0.84719,0.10012 -0.99688,0.0341 -1.19361,0.0445 -1.42889,0.0757 -0.14427,0.0191 -0.31525,0.0384 -0.37996,0.0429 -0.0647,0.005 -0.30294,0.0225 -0.52941,0.04 -0.43223,0.0334 -0.45562,0.0335 -1.12475,0.004 z"
       id="path5266"
       inkscape:connector-curvature="0"
       sodipodi:nodetypes="ccccccccccccccssscccccccccscccccscccccsccsssssscsccscccccccccsccccccccccccsscccccccccccccscccscccccccsccccccccccccsccccccccccccccccccccsccccccccccccccccccccccsccccsccccccccscsccccsccsssssscssccccccscccsccsscscscscccccccccccccccccccccsccccscsssccccccsssssscccsccsccccccssccscccsscccsccsscsccccccccccccsccssccccccccsccccccccccccsccsccccscccccsccscccccscccscsccccscccccccccccccccccccccccccccccccccccccsccccccccccccsccsccscccccccsccccccscccsccccccscccccscscccscsccsscccscccscccscscccccccccsccccscccccscccccccsccsscsccscsssccsscccccsscsssscccsccsscscccccsssssccccccccc" />
  </g>
</svg>
