<?xml version="1.0" encoding="UTF-8" standalone="no"?>
<!-- Created with Inkscape (http://www.inkscape.org/) -->

<svg
   xmlns:dc="http://purl.org/dc/elements/1.1/"
   xmlns:cc="http://creativecommons.org/ns#"
   xmlns:rdf="http://www.w3.org/1999/02/22-rdf-syntax-ns#"
   xmlns:svg="http://www.w3.org/2000/svg"
   xmlns="http://www.w3.org/2000/svg"
   xmlns:sodipodi="http://sodipodi.sourceforge.net/DTD/sodipodi-0.dtd"   
   width="220"
   height="235"
   viewBox="0 0 58.208331 62.177086"
   version="1.1"
   id="svg8"   
   sodipodi:docname="asw338lm.svg">
  <defs
     id="defs2" />
  <sodipodi:namedview
     id="base"
     pagecolor="#000000"
     bordercolor="#666666"
     borderopacity="1.0"
     showgrid="false"
     fit-margin-top="0"
     fit-margin-left="0"
     fit-margin-right="0"
     fit-margin-bottom="0"     
     units="px" />
  <metadata
     id="metadata5">
    <rdf:RDF>
      <cc:Work
         rdf:about="">
        <dc:format>image/svg+xml</dc:format>
        <dc:type
           rdf:resource="http://purl.org/dc/dcmitype/StillImage" />
        <dc:title></dc:title>
      </cc:Work>
    </rdf:RDF>
  </metadata>
  <g
     id="layer1"
     transform="translate(56.057826,-205.94221)">
    <path
       style="fill:none;stroke:#ffffff;stroke-width:0.4;stroke-opacity:1;stroke-miterlimit:4;stroke-dasharray:none"
       d="m -34.135811,256.66073 c 0.145695,-0.38885 0.06369,-0.57836 -0.253378,-0.58555 -0.126785,-0.003 -0.266558,-0.0456 -0.318237,-0.0973 -0.05069,-0.0507 -0.23616,-0.36907 -0.412172,-0.70754 -0.176005,-0.33847 -0.372764,-0.70292 -0.437238,-0.80991 -0.156205,-0.25922 -0.181185,-0.58184 -0.05494,-0.70955 0.207802,-0.21033 0.132815,-0.38776 -0.190078,-0.44958 -0.379743,-0.0727 -0.418698,-0.10598 -0.648745,-0.55412 l -0.214088,-0.41704 0.166949,-0.29279 c 0.205699,-0.36077 0.207997,-0.46534 0.01553,-0.70671 -0.08328,-0.10443 -0.144129,-0.19716 -0.135225,-0.20607 0.0089,-0.009 0.112386,-0.0291 0.229968,-0.045 0.117575,-0.0158 0.313594,-0.0968 0.435598,-0.17987 0.122001,-0.0831 0.437992,-0.27984 0.7022,-0.43718 0.39319,-0.23417 0.604064,-0.4019 1.161778,-0.9241 0.588904,-0.55139 0.689417,-0.62996 0.740484,-0.5788 0.0325,0.0326 0.175914,0.22597 0.318697,0.42981 0.142785,0.20384 0.295998,0.40705 0.340474,0.45159 0.101368,0.10151 0.24807,0.0308 0.316667,-0.15261 0.04177,-0.1117 8.31e-4,-0.24486 -0.213575,-0.69474 -0.23947,-0.50247 -0.298285,-0.7473 -0.179525,-0.7473 0.0234,0 0.75042,0.67313 1.615606,1.49585 0.865183,0.82271 1.652216,1.55852 1.748963,1.63511 l 0.175901,0.13926 0.489734,-0.52521 c 0.636928,-0.68307 0.914254,-1.01386 1.189833,-1.41923 0.123778,-0.18206 0.550296,-0.68977 0.947818,-1.12823 0.728587,-0.80363 1.063677,-1.2071 1.46456,-1.76345 0.166122,-0.23053 0.230353,-0.37783 0.267967,-0.61446 l 0.04947,-0.31125 -1.669255,-1.62807 -1.669255,-1.62807 0.07346,-0.17892 c 0.05427,-0.13216 0.05051,-0.20188 -0.0144,-0.26678 -0.05668,-0.0567 -0.06843,-0.12105 -0.0331,-0.18139 0.03011,-0.0515 0.02658,-0.12172 -0.0079,-0.15616 -0.128749,-0.12875 -0.146536,-0.41157 -0.04699,-0.74727 0.102283,-0.34494 0.105202,-0.34899 0.746481,-1.0371 0.354084,-0.37995 0.711395,-0.79004 0.794017,-0.91131 0.176384,-0.25892 0.318557,-0.59622 0.305538,-0.72489 -0.01052,-0.10395 0.900852,-2.7269 0.972318,-2.79836 0.02581,-0.0258 0.09776,-0.0352 0.159891,-0.0208 0.06213,0.0144 0.181494,-0.0207 0.265251,-0.078 0.102958,-0.0704 0.183696,-0.0858 0.249248,-0.0474 0.08353,0.0489 0.120366,0.0306 0.26586,-0.13156 0.32971,-0.36764 0.443692,-0.44952 0.544002,-0.3908 0.0551,0.0323 0.124713,0.0236 0.169406,-0.0211 0.09445,-0.0944 0.189357,-0.34009 0.147554,-0.38189 -0.06889,-0.0689 0.114148,-0.16747 0.208442,-0.11226 0.08511,0.0498 0.114586,0.0368 0.198842,-0.0878 0.0544,-0.0805 0.09296,-0.21061 0.08568,-0.28917 -0.01436,-0.1548 0.104526,-0.24784 0.197665,-0.15469 0.04173,0.0417 0.09697,0.0166 0.208532,-0.095 0.120583,-0.12059 0.14051,-0.17099 0.09701,-0.2453 -0.03544,-0.0605 -0.02358,-0.12471 0.0336,-0.18189 0.06364,-0.0636 0.109097,-0.0676 0.162503,-0.0142 0.06207,0.062 0.09886,0.0495 0.225905,-0.0777 0.120584,-0.12059 0.14051,-0.17098 0.097,-0.24529 -0.03543,-0.0605 -0.02358,-0.12472 0.0336,-0.1819 0.06364,-0.0636 0.109097,-0.0676 0.162502,-0.0142 0.06207,0.062 0.09886,0.0495 0.225906,-0.0777 0.120582,-0.12059 0.14051,-0.17098 0.097,-0.24529 -0.07388,-0.12622 0.08063,-0.28074 0.206846,-0.20685 0.135027,0.079 0.391214,-0.17714 0.312167,-0.31217 -0.07388,-0.12621 0.08064,-0.28073 0.206845,-0.20684 0.143734,0.0842 0.416422,-0.2294 0.300408,-0.34542 -0.08466,-0.0846 0.124333,-0.2535 0.234196,-0.18919 0.134193,0.0785 0.375137,-0.16239 0.296577,-0.29657 -0.03878,-0.0662 -0.02358,-0.12472 0.05213,-0.20043 0.08218,-0.0822 0.124038,-0.0898 0.18104,-0.0328 0.05762,0.0576 0.09886,0.0494 0.185048,-0.0368 0.07075,-0.0708 0.100822,-0.15451 0.08306,-0.23135 -0.01643,-0.0711 0.01231,-0.1606 0.07014,-0.21842 0.06679,-0.0668 0.127739,-0.0806 0.191511,-0.0433 0.132858,0.0778 0.35287,-0.14223 0.275095,-0.27509 -0.07633,-0.1304 0.113522,-0.32025 0.243917,-0.24392 0.132858,0.0778 0.352871,-0.14224 0.275096,-0.27509 -0.078,-0.13325 0.14774,-0.359 0.280989,-0.28099 0.06426,0.0376 0.124714,0.0236 0.193158,-0.0449 0.06844,-0.0685 0.08248,-0.1289 0.04487,-0.19316 -0.078,-0.13325 0.147739,-0.35899 0.280989,-0.28099 0.132319,0.0775 0.305331,-0.10275 0.238382,-0.2483 -0.03471,-0.0754 -0.01618,-0.14777 0.06101,-0.23815 0.09035,-0.10579 0.134069,-0.11935 0.236486,-0.0734 0.168941,0.0758 0.342996,-0.12172 0.234473,-0.26617 -0.05801,-0.0772 -0.04795,-0.11887 0.05303,-0.21985 0.100987,-0.10099 0.142649,-0.11103 0.219857,-0.053 0.07461,0.056 0.119365,0.0475 0.206476,-0.0397 0.08711,-0.0871 0.09571,-0.13186 0.03965,-0.20647 -0.05844,-0.0778 -0.04808,-0.11874 0.05653,-0.22335 0.102519,-0.10252 0.153628,-0.11663 0.25601,-0.0707 0.170177,0.0764 0.298855,-0.0523 0.222434,-0.22243 -0.04628,-0.10305 -0.03204,-0.15333 0.07323,-0.25859 0.105955,-0.10596 0.144695,-0.11665 0.204816,-0.0565 0.04078,0.0408 0.08878,0.0638 0.10668,0.0511 0.189857,-0.13464 0.218893,-0.1862 0.168309,-0.29884 -0.07675,-0.17092 0.120948,-0.37002 0.291458,-0.29342 0.08517,0.0383 0.141933,0.0261 0.1968,-0.0424 0.04242,-0.0528 0.08824,-0.10999 0.101834,-0.12698 0.01359,-0.017 -0.0086,-0.0643 -0.04943,-0.10503 -0.06003,-0.06 -0.04943,-0.0989 0.0556,-0.2039 0.105038,-0.10503 0.143875,-0.11563 0.203899,-0.0556 0.04078,0.0408 0.0978,0.0505 0.126719,0.0215 0.02891,-0.0289 0.08876,-0.0688 0.133007,-0.0884 0.05496,-0.0244 0.0615,-0.0779 0.02065,-0.16894 -0.0462,-0.10289 -0.03431,-0.15859 0.05236,-0.24525 0.07053,-0.0705 0.131082,-0.0932 0.163204,-0.0611 0.08212,0.0821 0.214016,0.0445 0.302778,-0.0865 0.05512,-0.0813 0.05927,-0.14463 0.01256,-0.19134 -0.05508,-0.0551 -0.04243,-0.0972 0.05993,-0.19958 0.105038,-0.10504 0.143875,-0.11563 0.203898,-0.0557 0.108286,0.10828 0.365807,-0.14924 0.285839,-0.28584 -0.07633,-0.1304 0.113522,-0.32026 0.243916,-0.24391 0.134195,0.0785 0.375139,-0.1624 0.296581,-0.29658 -0.119045,-0.20336 0.03133,-0.16963 0.259051,0.0581 0.317181,0.31719 0.445819,0.33495 0.711476,0.0983 l 0.205048,-0.18269 0.174225,0.15094 c 0.208275,0.18042 0.33732,0.19019 0.49043,0.037 0.06262,-0.0626 0.130545,-0.0972 0.150935,-0.0768 0.02039,0.0204 0.01285,0.0613 -0.01676,0.091 -0.04015,0.0401 0.0022,0.11556 0.166825,0.29658 l 0.22066,0.24274 -0.166824,0.2039 -0.166826,0.2039 0.14743,0.14743 c 0.145983,0.14598 0.149337,0.14606 0.34149,0.008 0.1067347,-0.0768 0.3990647,-0.31829 0.6496259,-0.53669 l 0.4555655,-0.3971 0.089491,0.11318 c 0.094038,0.11891 0.4265317,0.14931 0.5276132,0.0482 0.028146,-0.0281 0.088938,-0.0114 0.1383788,0.038 0.1225506,0.12255 0.3556,0.0203 0.5484686,-0.24061 0.08094,-0.10949 0.1471641,-0.24074 0.1471641,-0.29167 0,-0.12233 0.881341,-1.02314 1.1065244,-1.13097 0.1425809,-0.0683 0.1660221,-0.10217 0.192409,-0.27824 0.021893,-0.14607 0.05224,-0.2005 0.1117738,-0.2005 0.044949,0 0.1340982,-0.0524 0.198111,-0.11639 0.089656,-0.0897 0.1489326,-0.10422 0.2580479,-0.0634 0.1265365,0.0473 0.1539288,0.0359 0.2565974,-0.10749 0.063206,-0.0882 0.2193785,-0.26528 0.3470271,-0.39338 0.2513278,-0.25216 0.2501313,-0.23835 0.051445,-0.60615 -0.063701,-0.11792 -0.054558,-0.18355 0.052143,-0.37425 l 0.12939,-0.23124 -0.2790933,-0.24182 c -0.370547,-0.32106 -0.4077513,-0.39197 -0.2751501,-0.52457 0.1060602,-0.10606 0.2299759,-0.0688 0.1995741,0.0599 -0.018567,0.0786 0.167429,0.26232 0.3246718,0.3206 0.4383237,0.16245 1.7050829,-0.52943 1.8939462,-1.03446 0.046413,-0.12411 0.034371,-0.1564 -0.092448,-0.24781 -0.080203,-0.0578 -0.1904505,-0.10925 -0.2449975,-0.11432 -0.1178598,-0.011 -0.5841013,-0.49324 -0.5630432,-0.58243 0.00776,-0.0327 0.6149403,-0.69905 1.3494043,-1.48088 0.734463,-0.78183 1.49841637,-1.59885 1.69767057,-1.81561 0.3346457,-0.36402 0.36951818,-0.39034 0.45708673,-0.34496 0.0688103,0.0357 0.12860847,0.0153 0.21809192,-0.0742 0.13981184,-0.13981 0.21272535,-0.12387 0.43083278,0.0942 0.13000562,0.13 0.15493905,0.13557 0.23741155,0.0531 0.0664446,-0.0664 0.0781667,-0.16091 0.0420017,-0.33858 -0.0590855,-0.29027 -0.0317146,-0.33826 0.1228899,-0.21557 0.0835187,0.0663 0.14041005,0.0701 0.21443858,0.0145 0.12306937,-0.0926 0.61038637,-1.32531 0.56457417,-1.42817 -0.017976,-0.0403 -0.2205944,-0.2067 -0.4502794,-0.36972 -0.22969383,-0.16301 -0.52025322,-0.37726 -0.64569022,-0.47612 -0.33249038,-0.26201 -0.39636946,-0.27092 -0.58563125,-0.0816 -0.0885507,0.0885 -0.19586067,0.2459 -0.23847613,0.34969 -0.0426126,0.10378 -0.14335466,0.25457 -0.22386766,0.33508 -0.1153709,0.11537 -0.1407775,0.18211 -0.1199056,0.31497 0.021049,0.13398 -0.00902,0.21163 -0.1466657,0.37853 -0.13585494,0.16474 -0.15924584,0.22386 -0.1086014,0.2745 0.09082,0.0909 -0.010374,0.21558 -1.42800144,1.76022 -1.5237531,1.6603 -2.1962859,2.34016 -2.3149543,2.34016 -0.1161049,0 -1.3040013,1.18823 -1.3159522,1.31622 -0.00524,0.0566 -0.4050297,0.5045 -1.1018879,1.23459 -0.8785186,0.9204 -1.0838433,1.15557 -1.0438485,1.19555 0.069993,0.07 0.038637,0.0876 -0.216593,0.12201 -0.2287281,0.0308 -0.3677022,-0.0313 -0.2757978,-0.12318 0.058106,-0.0581 -0.060424,-0.25507 -0.2941652,-0.4888 -0.2485936,-0.2486 -0.283309,-0.37671 -0.162714,-0.60047 0.080697,-0.14975 0.087533,-0.21616 0.02834,-0.27535 -0.074182,-0.0742 -0.063449,-0.0906 0.2190954,-0.33333 0.2788305,-0.23962 0.3003889,-0.27164 0.3505554,-0.52065 0.042981,-0.21334 -0.00533,-1.41943 -0.088619,-2.21152 -0.015697,-0.14934 -0.00679,-0.15965 1.3993118,-1.6214 0.8402236,-0.87346 1.4911989,-1.58374 1.6023978,-1.74836 0.1499312,-0.22198 0.2080288,-0.2792 0.291276,-0.28694 0.064127,-0.006 0.2247179,-0.1274 0.4189361,-0.3168 0.2710324,-0.26431 0.3387684,-0.30788 0.4857783,-0.31248 0.2149195,-0.007 0.3979508,-0.18151 0.3884927,-0.37103 -0.00427,-0.0858 0.021224,-0.14459 0.065184,-0.15021 0.1013248,-0.0129 0.507038,-0.41187 0.4904302,-0.48224 -0.00756,-0.0319 0.027701,-0.0994 0.078283,-0.14997 0.050582,-0.0506 0.124004,-0.19074 0.1631591,-0.31146 0.059522,-0.18351 0.1430027,-0.2909 0.5094483,-0.65538 0.3263026,-0.32462 0.4705328,-0.44037 0.5646488,-0.45343 0.2045451,-0.0284 0.3362911,-0.20524 0.3676896,-0.49361 0.031986,-0.29374 -0.058145,-0.49767 -0.3486017,-0.78878 -0.2674236,-0.26799 -0.4786034,-0.36802 -0.7350932,-0.3481 -0.2734475,0.0212 -0.4439704,0.17119 -0.5434521,0.47789 -0.056894,0.17541 -0.1443523,0.29264 -0.4355865,0.58387 -0.3412922,0.3413 -0.3874689,0.3717 -0.7284342,0.47938 -0.2551692,0.0806 -0.3777402,0.14562 -0.4098552,0.21744 -0.025199,0.0563 -0.093525,0.13242 -0.1518394,0.169 -0.05831,0.0366 -0.124831,0.12867 -0.1478321,0.20462 -0.036844,0.12168 -0.061577,0.13872 -0.2079628,0.14329 -0.2126236,0.007 -0.377585,0.17187 -0.3842741,0.38483 -0.00427,0.13808 -0.058261,0.22548 -0.3131077,0.50727 -0.1693439,0.18725 -0.3132958,0.36843 -0.3198889,0.4026 -0.00659,0.0342 -0.730894,0.76793 -1.6095522,1.63055 l -1.5975669,1.56838 -0.249687,-0.16935 c -0.4126937,-0.27991 -0.3005517,-0.33841 -1.3825857,0.72133 -0.915824,0.89694 -0.963782,0.93741 -1.031077,0.87012 -0.04831,-0.0483 -0.113472,-0.0432 -0.206595,0.0165 -0.07482,0.0479 -0.185161,0.0721 -0.24522,0.054 -0.07625,-0.0231 -0.149004,0.007 -0.241119,0.0989 -0.100742,0.10074 -0.154026,0.11898 -0.225455,0.0772 -0.07742,-0.0454 -0.12471,-0.0236 -0.27457,0.12628 -0.156324,0.15632 -0.170922,0.19116 -0.106895,0.25518 0.05437,0.0544 0.04943,0.0989 -0.01854,0.16683 -0.06797,0.068 -0.112453,0.0729 -0.166826,0.0185 -0.06426,-0.0643 -0.09886,-0.0494 -0.259506,0.11121 -0.160646,0.16065 -0.17547,0.19526 -0.111217,0.2595 0.05437,0.0544 0.04943,0.0989 -0.01854,0.16684 -0.06797,0.068 -0.112453,0.0729 -0.166827,0.0185 -0.06287,-0.0628 -0.09886,-0.0495 -0.236646,0.0883 -0.131322,0.13132 -0.151996,0.18045 -0.107746,0.25604 0.07713,0.13175 -0.10725,0.31614 -0.211693,0.21169 -0.06316,-0.0631 -0.09886,-0.0494 -0.240969,0.0927 -0.142112,0.14211 -0.155842,0.17781 -0.09268,0.24097 0.05767,0.0577 0.04943,0.0989 -0.03708,0.18536 -0.08651,0.0865 -0.127694,0.0947 -0.185363,0.037 -0.06316,-0.0631 -0.09886,-0.0495 -0.240968,0.0927 -0.142112,0.14212 -0.155842,0.17782 -0.09268,0.24098 0.05767,0.0577 0.04943,0.0989 -0.03708,0.18536 -0.08651,0.0865 -0.127694,0.0947 -0.185363,0.037 -0.06179,-0.0618 -0.09886,-0.0495 -0.222433,0.0742 -0.123575,0.12357 -0.135931,0.16065 -0.07414,0.22243 0.106697,0.1067 -0.114167,0.32756 -0.248764,0.24876 -0.07328,-0.0428 -0.124711,-0.0236 -0.237499,0.0892 -0.119251,0.11925 -0.131243,0.15668 -0.06982,0.21811 0.05767,0.0577 0.04943,0.0989 -0.03708,0.18536 -0.0865,0.0865 -0.127693,0.0947 -0.185362,0.037 -0.06179,-0.0618 -0.09886,-0.0494 -0.222433,0.0742 -0.123574,0.12357 -0.135931,0.16065 -0.07414,0.22243 0.06003,0.06 0.04943,0.0989 -0.0556,0.2039 -0.105039,0.10504 -0.143877,0.11563 -0.2039,0.0556 -0.06179,-0.0618 -0.09886,-0.0494 -0.222433,0.0742 -0.123574,0.12357 -0.135931,0.16065 -0.07414,0.22243 0.06003,0.06 0.04943,0.0989 -0.0556,0.2039 -0.10504,0.10504 -0.143877,0.11563 -0.2039,0.0557 -0.06002,-0.06 -0.09886,-0.0495 -0.203897,0.0556 -0.105038,0.10503 -0.11563,0.14388 -0.05561,0.2039 0.06179,0.0618 0.04943,0.0989 -0.07414,0.22243 -0.08156,0.0815 -0.158827,0.13381 -0.171704,0.1161 -0.08311,-0.11429 -0.137051,-0.11172 -0.238441,0.0113 -0.08084,0.0981 -0.09169,0.155 -0.04216,0.22104 0.102502,0.13666 -0.106928,0.33675 -0.27396,0.26175 -0.172876,-0.0777 -0.378138,0.11731 -0.272111,0.25844 0.05749,0.0765 0.04648,0.12487 -0.05595,0.24578 -0.117639,0.13885 -0.135055,0.14298 -0.224781,0.0532 -0.08741,-0.0874 -0.108308,-0.0839 -0.206138,0.0348 -0.08345,0.10123 -0.09215,0.15434 -0.0373,0.22735 0.05801,0.0772 0.04796,0.11887 -0.05304,0.21986 -0.100985,0.10098 -0.142646,0.11104 -0.219854,0.053 -0.07301,-0.0549 -0.126113,-0.0461 -0.227362,0.0373 -0.117987,0.0972 -0.121956,0.119 -0.03708,0.20389 0.08587,0.0859 0.08099,0.10907 -0.05068,0.24074 -0.122883,0.12288 -0.16064,0.1345 -0.24097,0.0742 -0.07466,-0.056 -0.119294,-0.0475 -0.206357,0.0398 -0.0869,0.0872 -0.09555,0.13204 -0.03965,0.20647 0.05819,0.0775 0.04787,0.11872 -0.05573,0.22232 -0.10246,0.10246 -0.141584,0.11277 -0.201319,0.053 -0.06003,-0.06 -0.09886,-0.0494 -0.203898,0.0557 -0.105038,0.10503 -0.115631,0.14387 -0.0556,0.2039 0.107677,0.10767 -0.134412,0.34976 -0.270249,0.27024 -0.136603,-0.08 -0.394123,0.17755 -0.285837,0.28584 0.06003,0.06 0.04943,0.0989 -0.0556,0.20389 -0.105038,0.10505 -0.143876,0.11563 -0.203898,0.0557 -0.06003,-0.06 -0.09886,-0.0495 -0.203899,0.0555 -0.105038,0.10505 -0.115631,0.14388 -0.0556,0.2039 0.06002,0.06 0.04943,0.0989 -0.05561,0.2039 -0.105039,0.10504 -0.143876,0.11563 -0.203897,0.0556 -0.06039,-0.0604 -0.09886,-0.0495 -0.207369,0.059 -0.102046,0.10203 -0.12041,0.15511 -0.07847,0.22675 0.03878,0.0662 0.02358,0.12472 -0.05214,0.20043 -0.08218,0.0822 -0.124035,0.0898 -0.181037,0.0328 -0.06179,-0.0618 -0.09886,-0.0494 -0.222434,0.0742 -0.123574,0.12357 -0.135931,0.16065 -0.07414,0.22243 0.05767,0.0577 0.04943,0.0989 -0.03708,0.18536 -0.08651,0.0865 -0.127693,0.0947 -0.18536,0.037 -0.06179,-0.0618 -0.09886,-0.0495 -0.222435,0.0742 -0.123575,0.12357 -0.135932,0.16065 -0.07414,0.22243 0.05767,0.0577 0.04943,0.0989 -0.03708,0.18536 -0.08651,0.0865 -0.127693,0.0947 -0.185361,0.037 -0.06207,-0.062 -0.09886,-0.0495 -0.225905,0.0776 -0.120582,0.12058 -0.140511,0.17098 -0.097,0.2453 0.03543,0.0605 0.02358,0.1247 -0.03361,0.18189 -0.06364,0.0636 -0.109096,0.0676 -0.162502,0.0142 -0.06316,-0.0631 -0.09886,-0.0494 -0.24097,0.0927 -0.142111,0.14211 -0.155841,0.1778 -0.09268,0.24096 0.05437,0.0544 0.04943,0.0989 -0.01854,0.16683 -0.06797,0.068 -0.112454,0.0729 -0.166825,0.0185 -0.06338,-0.0634 -0.09886,-0.0495 -0.244442,0.0962 -0.139118,0.13912 -0.160269,0.18742 -0.115541,0.26383 0.03011,0.0515 0.03168,0.11661 0.0035,0.14482 -0.0282,0.0282 -0.08465,0.0179 -0.125428,-0.0229 -0.06496,-0.065 -0.09886,-0.0495 -0.273719,0.12542 -0.168397,0.16841 -0.191017,0.2142 -0.144819,0.29311 0.07004,0.11966 -0.0037,0.19727 -0.0979,0.10306 -0.04474,-0.0447 -0.108854,-0.0463 -0.171045,-0.004 -0.08639,0.0585 -0.08689,0.0534 -0.0039,-0.0383 0.129282,-0.14293 0.08639,-0.25017 -0.291789,-0.72947 -0.403801,-0.51178 -1.841611,-1.88238 -2.246018,-2.14103 -0.458959,-0.29355 -0.373544,-0.343 -1.473808,0.85329 -0.64759,0.70411 -1.053728,1.18379 -1.268548,1.49824 -0.37874,0.55439 -1.616375,2.34766 -1.831709,2.65405 -0.08416,0.11974 -0.379011,0.54224 -0.655232,0.93888 -0.667319,0.95825 -0.96664,1.30678 -1.091899,1.27141 -0.07928,-0.0224 -0.157029,0.0399 -0.505185,0.4043 -0.310234,0.32478 -0.405819,0.45101 -0.388476,0.51305 0.01872,0.067 -0.120519,0.22582 -0.747707,0.85301 l -0.770709,0.77071 -0.233581,0.0297 c -0.238569,0.0303 -0.411681,-0.0579 -0.721464,-0.36769 -0.06444,-0.0645 -0.154658,-0.11716 -0.200481,-0.11716 -0.04582,0 -0.178663,-0.0911 -0.295194,-0.20252 -0.171124,-0.16356 -0.203353,-0.21894 -0.167568,-0.28796 0.07083,-0.13656 -0.159306,-0.32758 -0.406132,-0.33709 -0.205886,-0.008 -0.208942,-0.006 -0.722246,0.48369 -0.476627,0.45457 -0.516367,0.50413 -0.527236,0.65699 -0.0065,0.0909 -0.02588,0.17947 -0.04315,0.19675 -0.01728,0.0172 0.04172,0.10452 0.1311,0.19389 0.131323,0.13133 0.180448,0.152 0.256037,0.10775 0.07932,-0.0464 0.124712,-0.0236 0.298714,0.15043 0.11285,0.11285 0.19957,0.22894 0.192712,0.25799 -0.0069,0.0291 0.11382,0.20229 0.268167,0.38498 l 0.280635,0.33216 -0.06218,0.32149 -0.06218,0.32149 -0.862236,0.88569 c -0.730266,0.75014 -0.877752,0.88426 -0.963627,0.87628 -0.08373,-0.008 -0.174174,0.0707 -0.519234,0.4505 -0.387833,0.42689 -0.431514,0.46221 -0.608309,0.49195 -0.153769,0.0259 -0.243969,0.0855 -0.468093,0.30966 -0.212578,0.21258 -0.269591,0.29565 -0.243352,0.35456 0.02025,0.0455 -0.01268,0.12391 -0.08055,0.19177 -0.06315,0.0631 -0.129254,0.1625 -0.1469,0.22078 -0.0663,0.21899 -0.280546,0.19098 -0.622704,-0.0814 -0.255278,-0.20321 -0.661415,-0.32761 -0.86417,-0.26466 -0.250551,0.0778 -0.632174,0.47525 -0.749806,0.78096 -0.188232,0.48922 -0.143788,0.91584 0.118689,1.13927 0.164159,0.13975 0.206712,0.0589 -0.401852,0.76296 -0.388483,0.44942 -0.406798,0.51101 -0.259993,0.87459 0.282519,0.69967 1.386811,1.53671 1.882173,1.42663 0.09062,-0.0202 0.338475,-0.22112 0.804892,-0.65266 0.639719,-0.5919 0.703716,-0.6651 1.259832,-1.44074 0.570723,-0.79603 0.865913,-1.11357 1.035184,-1.11357 0.04063,0 0.20401,-0.13013 0.36305,-0.28916 l 0.289165,-0.28917 0.38617,0.38617 c 0.212394,0.21239 0.405921,0.37754 0.430056,0.367 0.02413,-0.0106 0.191859,0.10649 0.372714,0.26006 l 0.32883,0.27924 -0.10248,0.13992 c -0.05636,0.077 -0.170332,0.22751 -0.253257,0.33456 -0.15538,0.20058 -0.149789,0.30577 0.03449,0.64907 0.05551,0.10341 0.03912,0.12643 -0.457811,0.64317 l -0.515387,0.53593 0.05497,0.15596 c 0.04863,0.13797 0.33552,0.46013 0.559987,0.62882 0.05528,0.0416 0.05697,0.091 0.0055,0.16234 -0.193135,0.26771 -0.428483,0.8673 -0.446832,1.13834 l -0.01992,0.29438 -1.45414,1.4716 c -0.799772,0.80938 -1.458551,1.4903 -1.463949,1.51316 -0.0054,0.0229 -0.07727,0.009 -0.159739,-0.0308 l -0.149927,-0.0724 -0.539477,0.53948 c -0.296715,0.29671 -0.547256,0.5317 -0.556765,0.52219 -0.0095,-0.01 -0.05382,-0.19041 -0.09848,-0.402 -0.07639,-0.36194 -0.09451,-0.39559 -0.306157,-0.56862 -0.388521,-0.31764 -0.705229,-0.49837 -0.873352,-0.49837 -0.124643,0 -0.232213,0.058 -0.464036,0.25014 -0.165979,0.13758 -0.609145,0.47661 -0.984813,0.75342 -1.933866,1.42495 -1.903962,1.3986 -3.547163,3.12587 -1.289452,1.35543 -1.302766,1.37116 -1.460062,1.72623 -0.216278,0.48821 -0.290123,0.86581 -0.265568,1.35796 0.01536,0.30788 -0.0048,0.44067 -0.07768,0.51363 -0.0607,0.0607 -0.118748,0.078 -0.151507,0.0453 -0.02921,-0.0292 -0.09087,-0.0325 -0.137023,-0.008 -0.341533,0.18658 -1.678528,1.703 -1.777755,2.01632 -0.126344,0.39894 0.109588,1.07932 0.514768,1.4845 0.289686,0.28968 1.021394,0.82241 1.638885,1.19321 0.539135,0.32374 0.755114,0.47191 2.008385,1.37786 0.739051,0.53424 1.617936,1.07147 1.899421,1.16106 0.198524,0.0632 0.225124,0.0478 0.824009,-0.47551 0.854325,-0.74659 1.309796,-1.28441 1.301698,-1.53709 -0.0048,-0.15113 0.03659,-0.21711 0.381995,-0.60828 l 0.387423,-0.43878 0.226869,0.0128 c 0.2235,0.0126 0.233914,0.007 0.701844,-0.39972 0.261236,-0.22686 1.010579,-0.9112 1.665209,-1.52074 0.65463,-0.60954 1.333078,-1.24107 1.507661,-1.4034 0.174585,-0.16234 0.339274,-0.29516 0.365974,-0.29516 0.07573,0 0.389343,-0.33217 0.627735,-0.66487 0.28559,-0.39858 0.274728,-0.4292 -0.424309,-1.1962 -0.464754,-0.50993 -0.578376,-0.61344 -0.751198,-0.68428 -0.246493,-0.10106 -0.244171,-0.099 -0.180098,-0.16303 0.02834,-0.0283 0.0782,-0.4039 0.110797,-0.83455 0.0326,-0.43066 0.09181,-1.09045 0.131579,-1.46618 l 0.07231,-0.68318 0.349377,-0.34938 c 0.468473,-0.46846 0.667849,-0.76873 0.659325,-0.99295 -0.0037,-0.0982 0.0093,-0.19471 0.02902,-0.21441 0.01969,-0.0197 0.05068,-0.0691 0.06884,-0.10996 0.02498,-0.0561 0.07954,-0.037 0.223948,0.0781 0.144557,0.11527 0.248806,0.15155 0.429267,0.14941 0.388998,-0.005 0.482145,0.0346 0.844285,0.35569 0.286258,0.25378 0.36988,0.35808 0.506666,0.63203 0.402195,0.80546 1.743792,3.95862 2.005601,4.71379 0.07351,0.21204 0.170665,0.42252 0.215896,0.46776 0.140433,0.14042 0.223901,0.0924 1.279941,-0.73724 0.874664,-0.6871 1.388417,-1.19817 1.497708,-1.48989 z m -1.250499,-6.65886 c -0.899039,0.48079 -1.143978,0.51827 -1.541252,0.23583 -0.241194,-0.17147 -0.344732,-0.36544 -0.360453,-0.67519 -0.01168,-0.23026 0.0095,-0.29777 0.131946,-0.42019 l 0.145861,-0.14587 0.0323,0.23997 c 0.02789,0.20726 0.06592,0.2736 0.278862,0.48654 0.207223,0.20723 0.28762,0.25492 0.50389,0.29894 0.256826,0.0523 0.398602,-0.0102 0.439664,-0.19361 0.01388,-0.0621 -0.0425,-0.0972 -0.261961,-0.16324 -0.501992,-0.15108 -0.771891,-0.64767 -0.557823,-1.02637 0.161193,-0.28516 0.792294,-0.89173 0.915846,-0.88025 0.05674,0.005 0.194644,-0.0451 0.306447,-0.11191 0.307102,-0.18355 0.520932,-0.12801 0.920922,0.2392 0.365199,0.33526 0.458295,0.50911 0.432576,0.80779 -0.01611,0.18715 -0.04543,0.22931 -0.420121,0.60399 -0.354918,0.35492 -0.469832,0.43865 -0.966705,0.70437 z m 25.6946767,-26.84109 c -0.205959,-0.20596 -0.270984,-0.24804 -0.3151157,-0.2039 -0.03058,0.0305 -0.07229,0.039 -0.09268,0.0185 -0.02039,-0.0204 0.04635,-0.12049 0.1482907,-0.22244 l 0.185362,-0.18536 -0.199691,-0.1997 c -0.1941627,-0.19415 -0.1970237,-0.20327 -0.1034387,-0.32905 0.06171,-0.0829 0.1042877,-0.10858 0.1186407,-0.0715 0.299524,0.77491 0.395218,0.98619 0.5143162,1.13554 0.1115121,0.13985 0.1274062,0.19374 0.073144,0.248 -0.061112,0.0611 -0.1000546,0.0386 -0.3288292,-0.19018 z m -19.5204597,8.87698 c -0.09165,-0.0916 -0.100678,-0.0877 -0.296581,0.12975 -0.179397,0.19916 -0.193973,0.23503 -0.130002,0.32017 0.08713,0.11596 -0.0081,0.15341 -0.115939,0.0456 -0.06601,-0.066 -0.08939,-0.0574 -0.169272,0.0624 -0.05098,0.0764 -0.131178,0.17752 -0.178231,0.22456 -0.05597,0.056 -0.06601,0.12328 -0.02903,0.19465 l 0.05653,0.10907 -0.113436,-0.0522 c -0.09866,-0.0454 -0.140144,-0.0255 -0.318529,0.15291 -0.180377,0.18038 -0.196152,0.21403 -0.130947,0.27925 0.04078,0.0408 0.05747,0.0908 0.03708,0.1112 -0.02039,0.0204 -0.07044,0.004 -0.111218,-0.037 -0.06591,-0.0659 -0.09886,-0.0494 -0.296579,0.14828 -0.19772,0.19773 -0.214196,0.23068 -0.148289,0.29658 0.04078,0.0408 0.05747,0.0909 0.03708,0.11122 -0.02039,0.0204 -0.07044,0.004 -0.111217,-0.037 -0.06531,-0.0654 -0.09886,-0.0495 -0.281515,0.13322 -0.181789,0.18179 -0.200023,0.21992 -0.147786,0.30915 l 0.05958,0.10178 -0.110524,-0.0508 c -0.09504,-0.0437 -0.138914,-0.0224 -0.31312,0.15176 -0.177097,0.1771 -0.195477,0.21633 -0.146071,0.31168 l 0.05653,0.10908 -0.118185,-0.0544 c -0.110109,-0.0506 -0.129679,-0.0393 -0.286409,0.1665 -0.09253,0.12147 -0.157787,0.24368 -0.145027,0.27157 0.01343,0.0294 -0.0083,0.0432 -0.05177,0.033 -0.04123,-0.01 -0.166775,0.058 -0.278992,0.15056 -0.241031,0.19877 -0.266416,0.19018 -0.692248,-0.23415 l -0.287816,-0.28681 0.171383,-0.17138 c 0.191167,-0.19117 1.487208,-1.14208 4.196557,-3.07905 0.840091,-0.6006 0.878932,-0.6225 0.960069,-0.54137 0.04651,0.0465 0.06788,0.10124 0.04749,0.12163 -0.02039,0.0204 -0.07044,0.004 -0.111217,-0.037 -0.0659,-0.0659 -0.09886,-0.0495 -0.296579,0.14828 -0.212548,0.21255 -0.218315,0.22655 -0.129753,0.31512 0.05097,0.051 0.076,0.10936 0.0556,0.12975 -0.02039,0.0204 -0.07961,-0.006 -0.131603,-0.0575 z m -5.754247,5.74739 c -0.225871,0.27919 0.02813,0.0195 -2.323562,2.37544 l -2.037146,2.04082 -0.224802,-0.095 c -0.123639,-0.0523 -0.319645,-0.1899 -0.435568,-0.30582 l -0.210769,-0.21077 0.813581,-0.83615 c 0.563833,-0.57947 0.884352,-0.87843 1.044098,-0.97396 0.326842,-0.19543 1.561277,-1.43705 1.758478,-1.76873 0.09102,-0.1531 0.410556,-0.52414 0.804845,-0.9346 l 0.653895,-0.68071 0.390556,0.36942 0.390557,0.36943 -0.139758,0.14087 c -0.0769,0.0775 -0.148789,0.18102 -0.159834,0.23007 -0.01285,0.057 -0.04284,0.0838 -0.0832,0.0743 -0.0387,-0.009 -0.132105,0.0704 -0.24138,0.20545 z"
       id="path2141"       
       sodipodi:nodetypes="ccsccccsccsscccccccccccccscccccccsscsccccscccccsscccsssssscsssccccsccssscscccscsccccccscscsccssccccsssssccsscssscccscccsssccccsccccsscscccsccccccsscsccccsscsssccccccscsccssscsscsscscccscccccccscccccccsccccscccccccsccscssssssssscssssssssssscsssssssssssssssccccccsccsccsscccsssscsssssssscssssssssssscssssssscssscscccssccscccsccsccccccsscscscccccccscscccccccccccscscccccccccccscccccssccccssscssccsccccccccsscccccscccscscccsccscccsccsccsccccccccsssssscscccsscccscssccssssssssscccsccccsccccssssssssccccccsccccccccccccc" />
  </g>
</svg>
