<?xml version="1.0" encoding="UTF-8" standalone="no"?>
<!-- Created with Inkscape (http://www.inkscape.org/) -->

<svg
   xmlns:dc="http://purl.org/dc/elements/1.1/"
   xmlns:cc="http://creativecommons.org/ns#"
   xmlns:rdf="http://www.w3.org/1999/02/22-rdf-syntax-ns#"
   xmlns:svg="http://www.w3.org/2000/svg"
   xmlns="http://www.w3.org/2000/svg"
   xmlns:sodipodi="http://sodipodi.sourceforge.net/DTD/sodipodi-0.dtd"   
   width="220"
   height="235"
   viewBox="0 0 58.208331 62.177086"
   version="1.1"
   id="svg8"   
   sodipodi:docname="barret 50.svg">
  <defs
     id="defs2" />
  <sodipodi:namedview
     id="base"
     pagecolor="#000000"
     bordercolor="#666666"
     borderopacity="1.0"
     showgrid="false"
     fit-margin-top="0"
     fit-margin-left="0"
     fit-margin-right="0"
     fit-margin-bottom="0"
     units="px" />
  <metadata
     id="metadata5">
    <rdf:RDF>
      <cc:Work
         rdf:about="">
        <dc:format>image/svg+xml</dc:format>
        <dc:type
           rdf:resource="http://purl.org/dc/dcmitype/StillImage" />
        <dc:title></dc:title>
      </cc:Work>
    </rdf:RDF>
  </metadata>
  <g     
     id="layer1"
     transform="translate(56.057826,-205.94221)">
    <path
       style="fill:none;stroke:#ffffff;stroke-width:0.4;stroke-opacity:1;stroke-miterlimit:4;stroke-dasharray:none"
       d="m -10.767666,242.50522 c -0.06925,-0.007 -0.05638,0.002 -0.288964,-0.19166 -0.09822,-0.0818 -0.202012,-0.14781 -0.235596,-0.14977 -0.112528,-0.007 -0.830433,-0.36613 -0.903632,-0.45258 -0.09847,-0.1163 -0.05308,-0.23676 0.175288,-0.46521 0.232405,-0.23249 0.351559,-0.41 0.342216,-0.50982 -0.0112,-0.1197 -0.05956,-0.0935 -0.33673,0.18306 -0.170892,0.17043 -0.257859,0.24214 -0.289559,0.23865 -0.02492,-0.003 -0.36813,-0.2886 -0.762689,-0.63527 -0.394556,-0.34666 -0.90692,-0.79376 -1.138585,-0.99355 -0.231665,-0.19979 -0.638643,-0.55313 -0.904397,-0.78522 -0.723253,-0.63161 -0.726705,-0.6342 -0.785288,-0.59023 -0.04518,0.034 -0.06383,0.0241 -0.209451,-0.11094 l -0.159849,-0.14816 -0.228077,0.20276 c -0.125444,0.11152 -0.344667,0.30152 -0.487167,0.42224 -0.1425,0.12071 -0.259091,0.22747 -0.259092,0.23723 1e-6,0.0195 0.0878,0.17306 0.159092,0.2784 0.05853,0.0865 0.04078,0.21042 -0.03004,0.20992 -0.03742,-2.2e-4 -0.08182,-0.0417 -0.178598,-0.16656 l -0.128803,-0.1662 -0.136133,0.004 -0.136133,0.004 -0.223205,-0.22321 c -0.204876,-0.20487 -0.221622,-0.22843 -0.20392,-0.2869 0.01061,-0.035 0.04427,-0.0901 0.07481,-0.12246 0.05545,-0.0587 0.05525,-0.0591 -0.132628,-0.31718 -0.103485,-0.14212 -0.286462,-0.35923 -0.406616,-0.48247 -0.122497,-0.12563 -0.226007,-0.25186 -0.23564,-0.28734 -0.0095,-0.0348 -0.12892,-0.19593 -0.26549,-0.35805 -0.645377,-0.76616 -2.159098,-2.60176 -2.159325,-2.61848 -7.6e-5,-0.006 0.03455,-0.0516 0.07696,-0.10192 0.131578,-0.15596 0.08481,-0.14975 -0.07488,0.01 -0.193081,0.19309 -0.260917,0.20514 -0.424822,0.0755 -0.114828,-0.0908 -0.117717,-0.0912 -0.20855,-0.0266 l -0.09211,0.0654 -0.09766,-0.10967 c -0.09559,-0.10736 -0.09646,-0.11167 -0.04086,-0.20374 l 0.0568,-0.0941 -0.170602,-0.17059 -0.170601,-0.17061 -0.474908,0.50064 c -0.261199,0.27536 -1.257413,1.30216 -2.213809,2.28178 -0.956397,0.97962 -1.825537,1.87784 -1.931422,1.99603 l -0.192521,0.2149 0.405436,0.42579 c 0.446648,0.46905 0.528628,0.59004 0.568386,0.83878 0.03089,0.19328 -0.01267,0.38536 -0.133025,0.58655 l -0.09984,0.16691 0.187768,0.19927 0.187767,0.19929 -0.14704,0.14704 c -0.09575,0.0957 -0.181472,0.15855 -0.245756,0.18004 -0.109226,0.0365 -0.282724,0.2209 -0.536981,0.57064 -0.0968,0.13316 -0.406087,0.45549 -1.083454,1.12914 -0.841521,0.83691 -0.988722,0.97396 -1.31082,1.22041 -0.199562,0.1527 -0.3767,0.30142 -0.393638,0.33049 -0.01694,0.029 -0.05521,0.0983 -0.08506,0.1538 l -0.05425,0.10095 0.385446,0.36098 c 0.211998,0.19852 0.844317,0.79032 1.405157,1.31509 l 1.019703,0.95414 0.02497,0.12001 c 0.02143,0.10296 0.01326,0.13412 -0.05747,0.21932 -0.04534,0.0546 -0.175941,0.2361 -0.290222,0.40328 -0.149318,0.21843 -0.200956,0.31405 -0.183516,0.33981 0.03069,0.0453 -0.467251,0.73229 -0.521511,0.71948 -0.02252,-0.005 -0.102383,0.0879 -0.241889,0.28231 -0.491971,0.6856 -1.075883,1.47584 -1.562298,2.1143 -0.25996,0.34122 -0.347025,0.47281 -0.344404,0.52052 0.0047,0.0855 -0.726127,1.08017 -0.783626,1.0666 -0.02747,-0.007 -0.103111,0.085 -0.284221,0.34372 -0.135733,0.19391 -0.279468,0.39485 -0.319409,0.44653 l -0.07262,0.094 -0.129452,-0.10554 c -0.184897,-0.15072 -0.352631,-0.3038 -2.142058,-1.95489 -0.310709,-0.28669 -0.610824,-0.55682 -0.666922,-0.60029 l -0.101995,-0.079 0.133535,0.26874 c 0.127773,0.25716 0.135288,0.29208 0.109532,0.50891 -0.0049,0.0417 -0.102554,0.095 -0.152551,0.0833 -0.01772,-0.004 -0.129008,-0.15685 -0.247321,-0.33925 -0.118314,-0.18241 -0.223798,-0.32879 -0.234411,-0.3253 -0.01062,0.004 -0.04521,0.036 -0.07688,0.0722 -0.06544,0.0749 -0.188229,0.52186 -0.146098,0.53181 0.01518,0.004 0.0061,0.0161 -0.02016,0.0278 -0.03497,0.0156 -0.03622,0.024 -0.0046,0.0315 0.02679,0.006 0.03044,0.0131 0.0097,0.0181 -0.01841,0.004 -0.06621,0.0855 -0.106217,0.18023 -0.106637,0.25261 -0.346542,0.5809 -0.544201,0.74469 -0.08949,0.0741 -0.312322,0.22258 -0.495184,0.32986 -0.182861,0.10727 -0.386482,0.22923 -0.452489,0.27101 -0.08295,0.0525 -0.134827,0.0673 -0.167994,0.0479 -0.02639,-0.0155 -0.05204,-0.024 -0.05702,-0.019 -0.04634,0.0463 -0.02376,0.16999 0.08236,0.45116 0.141382,0.3746 0.176441,0.41034 0.431415,0.43994 0.168515,0.0195 0.225897,0.0708 0.225897,0.20147 0,0.0835 -0.01939,0.11834 -0.12599,0.22601 -0.06926,0.0701 -0.129348,0.15268 -0.133453,0.18374 -0.01079,0.0816 0.460268,1.50264 0.516886,1.55925 0.02619,0.0262 0.114374,0.051 0.195952,0.0552 0.08158,0.004 0.159235,0.0192 0.172569,0.0335 0.08433,0.0902 0.09156,0.40032 0.01531,0.65728 -0.03576,0.1205 -0.06537,0.16246 -0.216308,0.30667 -0.746339,0.713 -1.471077,1.1438 -1.640018,0.97486 -0.0351,-0.0351 -0.07258,-0.0312 -0.176729,0.0184 -0.190472,0.0906 -0.309995,0.0983 -0.383573,0.0248 -0.05612,-0.0562 -0.132158,-0.29916 -0.175701,-0.56162 -0.0095,-0.0569 -0.07313,-0.32815 -0.141527,-0.60271 -0.0684,-0.27455 -0.154477,-0.62294 -0.191292,-0.77419 -0.03681,-0.15126 -0.131689,-0.54065 -0.210827,-0.86531 -0.07913,-0.32465 -0.150418,-0.58404 -0.158397,-0.5764 -0.008,0.008 -0.0112,-0.003 -0.0071,-0.023 0.01432,-0.0719 -0.141752,-0.64444 -0.180357,-0.66164 -0.02157,-0.01 -0.02612,-0.0205 -0.01012,-0.0244 0.04852,-0.0114 -0.02764,-0.30421 -0.113789,-0.43739 -0.04445,-0.0687 -0.137966,-0.17048 -0.207805,-0.22612 -0.07783,-0.062 -0.134447,-0.12583 -0.14627,-0.16488 -0.01655,-0.0547 -0.03619,-0.0621 -0.138279,-0.0523 -0.06545,0.006 -0.311563,0.0129 -0.546933,0.0148 -0.387302,0.003 -0.428674,0.01 -0.435631,0.0672 -0.0068,0.0567 -0.0085,0.0574 -0.01474,0.007 -0.006,-0.0485 -0.05081,-0.0562 -0.30269,-0.0524 -0.181047,0.003 -0.299162,0.0194 -0.304725,0.043 -0.0052,0.0223 -0.01237,0.0246 -0.0169,0.005 -0.01069,-0.0453 -0.532463,-0.0328 -0.605471,0.0145 -0.243319,0.1576 -0.4515,0.3638 -3.089976,3.06058 l -1.14356,1.16883 0.163831,0.37926 c 0.09011,0.20859 0.19674,0.45791 0.23696,0.55404 0.04072,0.0973 0.09104,0.17903 0.113542,0.18434 0.02276,0.005 0.02705,0.0127 0.0099,0.0168 -0.04346,0.0103 0.485318,1.2325 0.572664,1.3237 0.03932,0.041 0.150315,0.12253 0.246662,0.18106 0.454463,0.27609 0.596865,0.3688 0.653538,0.42547 0.140606,0.14061 0.183715,0.50129 0.09101,0.76144 -0.06565,0.18423 -0.191034,0.25909 -0.665479,0.39728 -0.232747,0.0678 -0.490324,0.15003 -0.572392,0.18273 l -0.149217,0.0594 -0.305081,0.40817 c -0.347982,0.46556 -1.502224,2.02611 -1.654466,2.23687 -0.124112,0.17181 -0.365589,0.49958 -0.680652,0.92389 -0.21417,0.28844 -0.244536,0.3209 -0.302914,0.32381 -0.03854,0.002 -0.102547,0.0409 -0.157655,0.096 -0.09941,0.0994 -0.127007,0.10231 -0.243233,0.0255 l -0.07478,-0.0495 -0.175976,0.16802 c -0.156656,0.14957 -0.199779,0.17592 -0.392745,0.23992 -0.119221,0.0396 -0.2207,0.0885 -0.22551,0.10894 -0.0049,0.0209 -0.01213,0.0227 -0.01652,0.004 -0.0043,-0.0184 -0.103005,0.002 -0.222807,0.0456 -0.228391,0.0835 -0.440664,0.0852 -0.612188,0.005 -0.121908,-0.0571 -0.265625,-0.20392 -0.423723,-0.43294 -0.199902,-0.28959 -0.628749,-0.74673 -0.934671,-0.99633 -0.523127,-0.42681 -1.076519,-0.74227 -1.834018,-1.04547 -0.529256,-0.21185 -0.874254,-0.42356 -0.995394,-0.61084 -0.151168,-0.23371 -0.201056,-0.49265 -0.13999,-0.72661 0.06072,-0.23262 0.28674,-0.65507 0.45722,-0.85455 0.249701,-0.29219 0.291965,-0.35611 0.248284,-0.37557 -0.02125,-0.01 -0.03088,-0.0224 -0.0214,-0.0287 0.0095,-0.006 0.04155,-0.0776 0.07124,-0.15842 0.100925,-0.27471 0.180259,-0.38044 0.603693,-0.80453 0.221107,-0.2214 1.094817,-1.12179 1.941618,-2.00081 0.8468,-0.87903 2.068459,-2.14653 2.714797,-2.81669 0.64634,-0.67015 1.827447,-1.89674 2.624684,-2.72576 0.797238,-0.82902 1.771975,-1.842 2.166083,-2.25106 0.547926,-0.56872 0.708637,-0.74728 0.682894,-0.75875 -0.01852,-0.008 -0.105419,-0.10963 -0.193127,-0.22529 -0.144105,-0.19005 -0.161353,-0.20605 -0.179134,-0.16611 -0.03582,0.0804 -0.24244,0.31357 -0.27176,0.30665 -0.03511,-0.008 -0.876544,0.93161 -0.868503,0.97013 0.009,0.0431 -0.319873,0.40202 -0.35982,0.39259 -0.01994,-0.005 -0.02257,0.0179 -0.0062,0.0534 0.02347,0.051 0.01448,0.0732 -0.05279,0.13008 -0.09774,0.0826 -0.137744,0.0655 -0.365148,-0.15597 -0.184935,-0.18018 -0.184455,-0.18492 0.04002,-0.37452 0.08511,-0.0719 0.372412,-0.37468 0.638443,-0.67286 0.266031,-0.29818 0.596265,-0.65134 0.733854,-0.7848 0.221524,-0.21486 0.246326,-0.24647 0.216592,-0.2762 -0.01847,-0.0185 -0.03848,-0.0747 -0.04448,-0.12494 -0.006,-0.0502 -0.02007,-0.10052 -0.03125,-0.11171 -0.02991,-0.0299 0.02735,-0.24558 0.06773,-0.25511 0.01901,-0.005 0.03665,-0.0307 0.03922,-0.0582 0.0047,-0.0508 0.12372,-0.14124 0.172825,-0.13137 0.0141,0.003 0.04192,-0.005 0.06178,-0.0177 0.115094,-0.0728 0.428849,0.11016 0.480288,0.28005 0.01158,0.0383 0.05647,0.0814 0.136143,0.13093 0.122796,0.0763 0.180074,0.11728 0.251737,0.18012 0.0273,0.024 0.02289,-0.052 -0.0128,-0.22022 -0.02996,-0.14121 -0.0468,-0.27119 -0.03742,-0.28885 0.07896,-0.1487 0.09859,-0.16157 0.171869,-0.11272 0.06574,0.0438 0.07929,0.041 0.15309,-0.0329 0.077,-0.077 0.07782,-0.0976 0.006,-0.15243 -0.02915,-0.0223 0.0068,-0.10065 0.08023,-0.17462 0.04133,-0.0417 0.0853,-0.0678 0.09775,-0.0581 0.01244,0.01 0.03394,0.0244 0.04777,0.0327 0.01383,0.008 0.03585,0.0235 0.04892,0.0339 0.01379,0.0109 0.05712,-0.0198 0.103086,-0.0729 0.07135,-0.0825 0.0743,-0.098 0.02941,-0.15449 -0.04763,-0.06 -0.04536,-0.0668 0.05029,-0.15086 0.08522,-0.0749 0.107892,-0.0822 0.151864,-0.0491 0.04443,0.0334 0.06381,0.0268 0.137973,-0.0475 l 0.08629,-0.0863 -0.08769,-0.12352 -0.08769,-0.12351 0.119725,-0.13171 c 0.11854,-0.1304 0.119138,-0.13229 0.06034,-0.19108 -0.05689,-0.0569 -0.05553,-0.0636 0.03224,-0.15885 0.05039,-0.0547 0.112327,-0.12402 0.137621,-0.15403 0.02531,-0.03 0.08001,-0.0903 0.121592,-0.13388 0.05843,-0.0613 0.07559,-0.11035 0.07559,-0.21606 v -0.13678 l -0.203157,-0.20316 -0.203156,-0.20315 -0.265799,0.25718 c -0.14619,0.14144 -0.318164,0.3089 -0.382171,0.37212 l -0.116343,0.11497 0.05907,0.0717 c 0.04902,0.0595 0.05069,0.08 0.0098,0.12097 -0.0271,0.0271 -0.0751,0.0553 -0.106637,0.0626 -0.04319,0.01 -0.19857,0.19484 -0.628982,0.74832 -0.314395,0.40427 -0.651732,0.81787 -0.749636,0.91911 -0.114774,0.11866 -0.179353,0.20414 -0.181794,0.24061 -0.0028,0.0419 -0.114728,0.17084 -0.433133,0.49884 -0.495593,0.51052 -0.453716,0.49253 -0.690079,0.29654 -0.124818,-0.1035 -0.160335,-0.11843 -0.28165,-0.11843 -0.07635,0 -0.130655,-0.008 -0.12067,-0.0182 0.01,-0.01 -0.01015,-0.0759 -0.04474,-0.14636 -0.04654,-0.0948 -0.167345,-0.23812 -0.464691,-0.55108 -0.45946,-0.48358 -0.634563,-0.72058 -0.679599,-0.91982 -0.01714,-0.0758 -0.0445,-0.15123 -0.0608,-0.16752 -0.05514,-0.0552 0.02686,-0.21548 0.155169,-0.30339 0.0975,-0.0668 0.156839,-0.0793 0.382246,-0.0801 0.266466,-9.9e-4 0.266988,-9.9e-4 0.381984,-0.11618 0.06336,-0.0634 0.124201,-0.1061 0.135269,-0.095 0.01177,0.0117 0.08901,-0.0487 0.18622,-0.14566 0.09134,-0.0912 0.278718,-0.25232 0.416349,-0.35806 0.739779,-0.56841 1.296236,-1.02759 1.296236,-1.06962 0,-0.0241 0.02535,-0.0692 0.05632,-0.10019 0.04867,-0.0487 0.06421,-0.0485 0.114318,0.002 0.04048,0.0405 0.07287,0.0493 0.107208,0.0292 0.02706,-0.0159 0.198771,-0.1881 0.381567,-0.38279 l 0.332364,-0.35396 -0.145449,-0.14545 c -0.09897,-0.099 -0.143943,-0.16165 -0.14074,-0.19613 0.0033,-0.0354 0.136101,-0.17879 0.440056,-0.47515 l 0.435344,-0.42448 0.164768,0.13039 0.164768,0.13038 0.0024,-0.11123 c 0.0013,-0.0612 -0.01278,-0.12559 -0.03133,-0.14314 -0.175474,-0.16611 -0.559208,-0.62833 -0.559208,-0.67359 0,-0.0384 -0.06109,-0.11514 -0.210458,-0.26451 -0.208791,-0.20879 -0.21094,-0.21019 -0.274598,-0.17206 -0.0606,0.0363 -0.07016,0.0317 -0.173154,-0.0826 -0.09087,-0.10088 -0.104902,-0.13158 -0.08431,-0.18438 0.01358,-0.0348 0.01273,-0.0838 -0.0019,-0.10874 -0.02459,-0.042 0.009,-0.0809 0.447993,-0.51998 0.411857,-0.41186 0.478626,-0.47052 0.505244,-0.4439 0.01687,0.0169 0.0619,0.0167 0.100075,-5.4e-4 0.06252,-0.0281 0.08048,-0.0201 0.18103,0.0804 0.100559,0.10056 0.108533,0.11852 0.08046,0.18103 -0.03063,0.0682 -0.02733,0.0732 0.188914,0.28949 0.147752,0.14775 0.230197,0.21502 0.250868,0.20469 0.02062,-0.0103 0.136662,0.084 0.351379,0.28557 0.303621,0.28505 0.326435,0.30153 0.430983,0.31128 0.06072,0.006 0.135799,0.003 0.166856,-0.006 0.03472,-0.01 0.251355,-0.2155 0.562568,-0.53369 l 0.506104,-0.51746 -0.111157,-0.13897 c -0.199568,-0.2495 -0.211555,-0.21961 0.288483,-0.71964 0.500538,-0.50054 0.474134,-0.49002 0.723274,-0.28804 l 0.137322,0.11134 0.504985,-0.50507 c 0.487833,-0.48792 0.52033,-0.52593 0.957064,-1.11905 0.248648,-0.33769 0.505405,-0.68519 0.57057,-0.77221 0.06517,-0.0871 0.396753,-0.53501 0.736859,-0.99552 0.5338,-0.72277 0.674793,-0.89755 1.030879,-1.27792 l 0.412503,-0.44064 -0.03657,-0.0611 c -0.02849,-0.0476 -0.02455,-0.0679 0.01783,-0.092 0.215978,-0.12278 0.218461,-0.12799 0.214585,-0.44972 -0.0036,-0.29755 -0.0025,-0.3022 0.09938,-0.40348 0.15368,-0.15292 0.210064,-0.17711 0.289255,-0.12431 0.03789,0.0253 0.07192,0.0331 0.07563,0.0174 0.0037,-0.0157 0.02122,-0.0141 0.03892,0.004 0.0177,0.0177 0.07418,0.0392 0.12553,0.0479 0.124867,0.0209 0.446653,0.29888 1.168595,1.00944 0.305883,0.30106 0.56777,0.55012 0.581969,0.55347 0.04199,0.01 0.47566,0.53807 0.475661,0.57928 0,0.0208 -0.201157,0.24343 -0.447011,0.49472 -0.355931,0.36382 -0.454503,0.4536 -0.483841,0.44052 -0.02855,-0.0127 -0.141958,0.0848 -0.504554,0.43362 -0.27609,0.26565 -0.567382,0.52343 -0.710961,0.62919 -0.297494,0.21912 -1.926199,1.45258 -2.472359,1.87236 -0.341741,0.26267 -0.468969,0.37851 -0.899267,0.81879 l -0.501205,0.51284 0.139263,0.15106 c 0.172124,0.18669 0.331125,0.27349 0.461022,0.25163 0.08215,-0.0138 0.128987,-0.0485 0.309541,-0.22902 l 0.212742,-0.21274 0.06934,0.0413 c 0.03815,0.0227 0.09938,0.0701 0.136098,0.10516 l 0.06676,0.0639 0.134234,-0.13411 c 0.133315,-0.1332 0.134725,-0.13381 0.209197,-0.0862 0.09575,0.0613 0.150896,-0.004 0.07949,-0.0939 l -0.04955,-0.0625 0.150297,-0.13853 c 0.146659,-0.13517 0.151788,-0.13734 0.211972,-0.0896 0.08817,0.07 0.152002,-9.9e-4 0.08917,-0.0992 -0.04679,-0.0731 -0.0462,-0.0745 0.09211,-0.21281 0.135073,-0.13507 0.140692,-0.13771 0.189488,-0.0889 0.03986,0.0399 0.06043,0.0402 0.09924,9.9e-4 0.03759,-0.0376 0.03836,-0.0625 0.0033,-0.10733 -0.04271,-0.0546 -0.03805,-0.0671 0.07231,-0.19368 0.117118,-0.13437 0.118544,-0.13505 0.199804,-0.0958 0.112071,0.0541 0.198898,-0.0254 0.12686,-0.11611 -0.0478,-0.0602 -0.04588,-0.0648 0.0818,-0.19242 0.127676,-0.12768 0.132193,-0.1296 0.192423,-0.0818 0.04924,0.0391 0.07199,0.0387 0.112783,-0.002 0.03792,-0.0379 0.03996,-0.0561 0.0079,-0.0704 -0.02477,-0.0111 -0.02947,-0.0225 -0.01102,-0.0269 0.0177,-0.004 0.01353,-0.0262 -0.0093,-0.049 -0.03756,-0.0376 -0.02925,-0.0536 0.08933,-0.17216 l 0.130743,-0.13074 0.06034,0.0603 c 0.05333,0.0533 0.06719,0.0535 0.119351,9.9e-4 0.04942,-0.0495 0.05106,-0.069 0.01006,-0.12069 -0.04693,-0.0591 -0.04399,-0.0671 0.07108,-0.1937 l 0.120026,-0.13202 0.07486,0.0499 c 0.06352,0.0423 0.0819,0.0411 0.121346,-0.009 0.03584,-0.0453 0.03527,-0.0728 -0.0025,-0.12036 -0.04775,-0.0601 -0.04576,-0.0649 0.08046,-0.19109 0.122938,-0.12294 0.131804,-0.12701 0.177349,-0.0814 0.03176,0.0318 0.0659,0.0374 0.101138,0.0168 0.08321,-0.0488 0.09308,-0.10419 0.0298,-0.16746 -0.05763,-0.0576 -0.05705,-0.0593 0.0609,-0.17729 0.115966,-0.11595 0.121018,-0.11785 0.192686,-0.072 0.06428,0.0412 0.0823,0.0384 0.142401,-0.0217 0.06328,-0.0633 0.06389,-0.0737 0.0075,-0.13015 l -0.06135,-0.0614 0.121687,-0.10962 c 0.115198,-0.10379 0.124981,-0.10701 0.183369,-0.0607 0.05367,0.0425 0.07048,0.0402 0.129409,-0.0187 0.05893,-0.0589 0.06137,-0.0757 0.01878,-0.12941 -0.04624,-0.0582 -0.04296,-0.0683 0.05892,-0.18151 0.106402,-0.1182 0.108888,-0.11917 0.182627,-0.072 0.06555,0.042 0.08323,0.0394 0.143559,-0.021 0.06304,-0.0631 0.06375,-0.0738 0.0085,-0.12914 l -0.06034,-0.0603 0.120686,-0.12069 c 0.120623,-0.12062 0.120728,-0.12064 0.180886,-0.0605 0.05735,0.0573 0.06386,0.0563 0.137504,-0.0234 0.07067,-0.0764 0.07257,-0.0883 0.02212,-0.1388 -0.05261,-0.0526 -0.05037,-0.0606 0.04809,-0.17224 0.09943,-0.1127 0.10579,-0.11544 0.170709,-0.0738 0.05935,0.038 0.07674,0.0339 0.144956,-0.0344 0.06944,-0.0695 0.07247,-0.0839 0.02905,-0.13872 -0.04551,-0.0575 -0.04234,-0.0674 0.05162,-0.16226 0.09444,-0.0953 0.103586,-0.0983 0.161782,-0.0521 0.05695,0.0452 0.06852,0.0421 0.150859,-0.0403 0.08601,-0.0861 0.087,-0.0914 0.02778,-0.15058 l -0.0614,-0.0614 0.111683,-0.0995 c 0.104166,-0.0928 0.115832,-0.0962 0.17336,-0.0505 0.05695,0.0452 0.06852,0.0421 0.150858,-0.0403 0.08568,-0.0857 0.08681,-0.0916 0.02884,-0.14952 -0.05524,-0.0553 -0.05455,-0.0661 0.0082,-0.12886 0.06746,-0.0675 0.0671,-0.0704 -0.02308,-0.18811 -0.12589,-0.1644 -0.163824,-0.28402 -0.136663,-0.43094 0.03755,-0.20312 0.06155,-0.24313 0.36435,-0.6075 0.04956,-0.0596 0.05548,-0.0895 0.02684,-0.13582 l -0.03672,-0.0593 0.58002,-0.60498 c 0.57649,-0.60131 0.634917,-0.65066 0.696914,-0.58867 0.01797,0.018 0.06303,-0.006 0.138338,-0.0728 l 0.111683,-0.0995 0.161762,0.15002 0.161761,0.15001 -0.111475,0.11147 -0.111476,0.11148 0.100573,0.10057 c 0.09387,0.0939 0.103925,0.0972 0.150858,0.0503 0.04268,-0.0426 0.05959,-0.041 0.111786,0.0113 0.05992,0.0599 0.06355,0.0591 0.140801,-0.0302 0.07096,-0.082 0.07415,-0.0982 0.03035,-0.15335 -0.04673,-0.0589 -0.04398,-0.0666 0.06085,-0.17147 0.105905,-0.10591 0.112362,-0.1081 0.182209,-0.0615 0.0588,0.0392 0.08253,0.0382 0.126219,-0.006 0.06237,-0.0624 0.06922,-0.13494 0.0176,-0.18657 -0.03084,-0.0308 -0.01833,-0.0541 0.08448,-0.15688 0.115322,-0.11533 0.122922,-0.11846 0.170973,-0.0704 0.0437,0.0437 0.05917,0.0413 0.118173,-0.0176 0.05959,-0.0596 0.06188,-0.0769 0.0188,-0.14151 -0.04864,-0.0729 -0.04799,-0.0746 0.07292,-0.18354 0.115537,-0.1041 0.125268,-0.10733 0.183678,-0.061 0.05367,0.0426 0.07048,0.0402 0.129408,-0.0187 0.05893,-0.0589 0.06137,-0.0757 0.01878,-0.12941 -0.04691,-0.0591 -0.04397,-0.0671 0.07077,-0.19338 l 0.119726,-0.13171 0.0613,0.0613 c 0.05665,0.0567 0.06665,0.056 0.131704,-0.009 0.06481,-0.0648 0.06561,-0.0752 0.01006,-0.13075 l -0.06034,-0.0603 0.129408,-0.12941 c 0.126221,-0.12622 0.130927,-0.1282 0.191087,-0.0804 0.05262,0.0417 0.07158,0.0397 0.129063,-0.0144 0.05996,-0.0564 0.06137,-0.0694 0.01287,-0.11788 -0.05152,-0.0515 -0.04886,-0.0615 0.04846,-0.18118 0.10947,-0.13467 0.172235,-0.16132 0.23413,-0.0994 0.07822,0.0783 0.176986,-0.0538 0.106656,-0.14249 -0.04514,-0.057 -0.04171,-0.0653 0.08273,-0.20115 l 0.129828,-0.14172 0.06126,0.0613 c 0.05466,0.0547 0.06776,0.0548 0.121607,9.7e-4 0.05364,-0.0536 0.05364,-0.067 0,-0.12069 l -0.06034,-0.0603 0.138287,-0.13828 c 0.137561,-0.13757 0.138656,-0.13805 0.210699,-0.09 0.05752,0.0383 0.08285,0.0378 0.123202,-0.003 0.04302,-0.043 0.04156,-0.06 -0.0096,-0.11114 l -0.06034,-0.0603 0.152045,-0.15205 c 0.09411,-0.0941 0.15491,-0.1399 0.159571,-0.12017 0.01217,0.0515 0.133641,0.0743 0.163245,0.0306 0.01521,-0.0225 0.0064,-0.07 -0.01994,-0.10774 -0.04654,-0.0667 -0.04533,-0.0694 0.09358,-0.20844 0.136785,-0.13693 0.142379,-0.13958 0.199734,-0.0945 0.04501,0.0353 0.0703,0.0349 0.106623,-9.9e-4 0.03699,-0.037 0.0367,-0.0614 -0.0013,-0.1093 -0.04777,-0.0602 -0.0456,-0.0653 0.08958,-0.21197 l 0.138528,-0.1503 0.06261,0.0497 c 0.0451,0.0358 0.07706,0.0389 0.114299,0.0109 0.0441,-0.0332 0.0425,-0.048 -0.01091,-0.10142 l -0.06259,-0.0626 0.161764,-0.15001 c 0.159231,-0.14767 0.162731,-0.14925 0.22344,-0.10106 0.04357,0.0345 0.07309,0.0375 0.100573,0.0101 0.02981,-0.0298 0.02479,-0.053 -0.02145,-0.0992 l -0.06034,-0.0603 0.158401,-0.15839 0.158402,-0.15841 0.07192,0.048 c 0.08883,0.0592 0.131181,-0.005 0.06143,-0.0933 -0.04636,-0.0586 -0.04491,-0.0614 0.113505,-0.22073 0.160262,-0.16117 0.160543,-0.1613 0.22214,-0.11242 0.03393,0.0269 0.07406,0.0365 0.08918,0.0214 0.01512,-0.0151 0.0054,-0.0553 -0.02145,-0.0892 -0.04843,-0.061 -0.04727,-0.0635 0.108526,-0.23075 l 0.157477,-0.16907 0.07333,0.0489 c 0.09143,0.061 0.128245,0.0309 0.06295,-0.0513 -0.04851,-0.0611 -0.04751,-0.0632 0.111464,-0.23378 0.130831,-0.14037 0.167904,-0.16822 0.201145,-0.15087 0.131183,0.0684 0.136915,0.0673 0.08913,-0.0171 -0.04501,-0.0795 -0.04262,-0.0881 0.05023,-0.18097 0.05361,-0.0536 0.120169,-0.13151 0.147895,-0.17311 0.04623,-0.0694 0.058,-0.072 0.141713,-0.0315 l 0.0913,0.0441 -0.03857,-0.0918 -0.03857,-0.0917 0.16149,-0.1615 c 0.125947,-0.12594 0.1702,-0.15692 0.201087,-0.14074 0.126158,0.0661 0.136739,0.0651 0.08817,-0.008 l -0.04827,-0.0725 0.169278,-0.18087 0.169275,-0.18088 0.08381,0.0485 0.08381,0.0485 -0.04937,-0.0785 -0.04937,-0.0785 0.165272,-0.1782 c 0.159287,-0.17176 0.168086,-0.17738 0.242874,-0.15525 0.07645,0.0226 0.07694,0.0223 0.03315,-0.0231 -0.02444,-0.0254 -0.04282,-0.049 -0.04081,-0.0525 0.002,-0.004 0.07791,-0.0904 0.168671,-0.1931 0.160055,-0.18104 0.166978,-0.18577 0.229528,-0.157 l 0.0645,0.0296 -0.03066,-0.0592 c -0.02871,-0.0554 -0.01925,-0.0706 0.148298,-0.23816 0.211645,-0.21164 0.254973,-0.21511 0.38768,-0.0311 0.123315,0.17101 0.177612,0.23012 0.195201,0.21254 0.03671,-0.0367 0.282071,0.0824 0.473892,0.23011 0.112507,0.0867 0.22013,0.16615 0.239164,0.17672 0.02867,0.0159 0.285059,-0.23535 1.495915,-1.46614 0.803722,-0.81695 2.004551,-2.04641 2.668512,-2.73213 1.378374,-1.42355 3.281162,-3.38202 5.5508287,-5.71328 2.5802665,-2.65028 3.9025374,-4.01782 3.9354148,-4.07014 0.017074,-0.0271 0.1233563,-0.14311 0.2361819,-0.25762 0.1935949,-0.19651 0.203571,-0.21174 0.1773565,-0.27095 -0.061586,-0.13911 -0.029382,-0.24963 0.1295446,-0.44455 0.2545106,-0.31217 1.8525857,-1.95856 2.473112,-2.54789 0.3234247,-0.30716 0.63584576,-0.60443 0.69426748,-0.6606 0.0909576,-0.0874 0.1262807,-0.1027 0.24580175,-0.1062 0.1198428,-0.004 0.15237083,0.009 0.23003618,0.0864 0.0609937,0.061 0.12123144,0.0942 0.18494422,0.10175 0.13890183,0.0166 0.24406763,0.0829 0.43511623,0.27454 0.19496667,0.19557 0.32664407,0.41587 0.30484617,0.51018 -0.010087,0.0436 0.0076,0.0863 0.055743,0.13456 0.075936,0.0759 0.1336829,0.25723 0.1036193,0.32473 -0.010146,0.0228 -0.00306,0.0451 0.015712,0.0496 0.018989,0.005 0.018693,0.0117 -6.445e-4,0.0163 -0.019167,0.005 -0.1830196,0.19194 -0.36413737,0.41649 -0.2456409,0.30453 -0.59391213,0.68374 -1.37083995,1.49258 l -1.04153701,1.08433 -0.1668889,0.0454 c -0.1516947,0.0413 -0.1833947,0.0619 -0.3478053,0.22632 -0.1504404,0.15044 -0.1962814,0.18273 -0.2722689,0.19181 -0.060856,0.007 -0.1218296,0.0414 -0.1825548,0.1021 -0.050157,0.0501 -0.1051885,0.0878 -0.1223053,0.0838 -0.018091,-0.004 -0.1090761,0.0785 -0.2171919,0.19754 -0.1023412,0.11268 -0.86051,0.89721 -1.6848283,1.74339 -0.8243174,0.84619 -1.7927813,1.84191 -2.1521409,2.2127 -1.9052554,1.96588 -3.3255557,3.42993 -4.5264567,4.66586 -1.44044,1.48246 -2.239635,2.31129 -2.735144,2.83657 -0.171845,0.18217 -0.777467,0.80755 -1.345825,1.38974 -0.568355,0.58219 -1.062579,1.09943 -1.098274,1.14942 l -0.0649,0.0909 0.129379,0.14135 c 0.167649,0.18317 0.256733,0.41256 0.219104,0.5642 -0.02547,0.10264 -0.07029,0.15369 -0.77827,0.88636 -1.852925,1.9176 -2.720086,2.83016 -2.714048,2.85619 0.0036,0.0155 0.07381,0.0894 0.156076,0.16431 l 0.14955,0.1362 0.289064,-0.28907 0.289063,-0.28906 0.09102,0.0516 c 0.129269,0.0733 0.181317,0.1905 0.119339,0.26868 -0.04449,0.0562 -0.03881,0.0732 0.08829,0.26608 0.07471,0.11336 0.194756,0.27392 0.266774,0.35678 0.07202,0.0828 0.164768,0.2164 0.20611,0.29675 0.06711,0.13042 0.06925,0.15222 0.01988,0.20327 -0.0304,0.0315 -0.07318,0.0556 -0.09505,0.0535 -0.03343,-0.003 -0.554759,-0.6933 -0.679699,-0.89985 -0.03249,-0.0537 -0.0398,-0.0507 -0.153539,0.0631 -0.162949,0.16294 -0.16969,0.18825 -0.08182,0.30711 0.0416,0.0563 0.08044,0.14255 0.08631,0.19173 0.0091,0.0762 -0.0061,0.1064 -0.102906,0.20423 -0.08692,0.0878 -0.100505,0.11136 -0.05789,0.10012 0.06942,-0.0184 0.136469,0.0446 0.11025,0.10348 -0.01079,0.0242 -0.06093,0.0854 -0.111429,0.13584 l -0.09183,0.0918 0.166905,0.14088 c 0.0918,0.0775 0.188164,0.16215 0.214152,0.18814 0.03847,0.0385 0.05784,0.0366 0.104242,-0.01 0.03135,-0.0314 0.06881,-0.0569 0.08325,-0.0569 0.01445,0 0.04646,0.0743 0.07117,0.16503 0.0247,0.0908 0.06789,0.18803 0.09598,0.21611 0.02947,0.0295 0.06038,0.13069 0.0731,0.23941 l 0.02204,0.18835 0.194332,-0.21399 c 0.125861,-0.13859 0.212219,-0.21631 0.245108,-0.22057 0.03834,-0.005 0.221093,0.13828 0.746414,0.5851 0.967941,0.81988 1.939814,1.65346 2.906613,2.46395 0.210667,0.17654 0.519137,0.43832 0.685491,0.58172 0.841794,0.7257 1.011135,0.85872 1.107868,0.87028 0.108412,0.0129 0.275738,0.16283 0.290914,0.26057 0.01015,0.0653 0.284369,0.30578 0.88141,0.77277 0.148981,0.11653 0.407798,0.32605 0.575148,0.46558 0.282128,0.23525 0.303591,0.25811 0.294904,0.31407 -0.0099,0.064 -0.154234,0.25134 -0.35722,0.46379 -0.12139,0.12705 -0.138975,0.18476 -0.04081,0.13389 0.0278,-0.0144 0.06917,-0.0179 0.09194,-0.008 0.03367,0.015 0.08532,-0.0264 0.276877,-0.22175 0.278223,-0.28379 0.410719,-0.36854 0.54046,-0.3457 0.05127,0.009 0.237906,0.068 0.4147517,0.13112 0.2309619,0.0824 0.3457367,0.13892 0.407444,0.20062 0.1026836,0.10269 0.1265679,0.23196 0.066521,0.36003 -0.037534,0.08 -0.030813,0.10861 0.069699,0.29606 0.061181,0.11409 0.1075296,0.22352 0.1029935,0.24317 -0.026332,0.11407 -0.1408215,0.16463 -0.2118762,0.0936 -0.024318,-0.0243 -0.042281,-0.0249 -0.047828,-9.9e-4 -0.00543,0.0229 -0.012238,0.0233 -0.017489,9.9e-4 -0.00474,-0.02 -0.061655,-0.0771 -0.1263922,-0.12686 l -0.117859,-0.0903 -0.3507818,0.37747 c -0.192931,0.2076 -0.434292,0.47233 -0.536363,0.58828 l -0.185586,0.21081 0.08959,0.2564 c 0.09392,0.2688 0.08278,0.35841 -0.0431,0.34671 z m -25.009936,9.78635 c 0.110477,-0.21992 0.223692,-0.66134 0.180656,-0.70438 -0.107377,-0.10737 -0.925067,-0.84002 -0.968141,-0.86744 -0.07151,-0.0455 -0.192574,0.011 -0.302164,0.14109 -0.05036,0.0598 -0.182555,0.20151 -0.293753,0.31494 l -0.202183,0.20623 0.04211,0.0886 c 0.171932,0.3618 0.650185,0.65875 1.049285,0.6515 0.191163,-0.004 0.241582,0.0438 0.187438,0.17586 -0.03715,0.0906 -0.04346,0.094 -0.189415,0.10136 -0.08304,0.004 -0.204019,-0.006 -0.268834,-0.0214 -0.06481,-0.016 -0.175952,-0.0336 -0.246975,-0.039 -0.269571,-0.0205 -0.622651,-0.19476 -0.846234,-0.41757 l -0.138403,-0.13795 -0.200132,0.22941 c -0.283577,0.32506 -0.291522,0.29446 0.194874,0.75096 0.553229,0.51922 0.65309,0.5773 0.872079,0.50717 0.08163,-0.0262 0.371915,-0.18827 0.553143,-0.30895 0.144376,-0.0961 0.490007,-0.49798 0.576648,-0.67044 z m -13.609291,11.89971 c 0.108898,-0.14343 0.344276,-0.46019 0.523065,-0.70391 0.178788,-0.24373 0.5467,-0.73744 0.817582,-1.09715 0.270882,-0.3597 0.546374,-0.72687 0.612203,-0.81592 0.591596,-0.8003 0.698949,-0.95355 0.691582,-0.98722 -0.0046,-0.0212 -0.03392,-0.0946 -0.06506,-0.16302 -0.03114,-0.0684 -0.167416,-0.37551 -0.302838,-0.68241 -0.135421,-0.3069 -0.250852,-0.558 -0.256512,-0.55799 -0.0056,0 -0.625286,0.63266 -1.376958,1.4059 -0.751666,0.77325 -1.620669,1.66132 -1.931117,1.9735 -0.310446,0.31218 -0.564454,0.57467 -0.564452,0.58333 0,0.0172 0.162476,0.15889 0.992705,0.86592 0.301197,0.25651 0.562216,0.48097 0.580045,0.4988 0.02147,0.0215 0.04074,0.017 0.05709,-0.0133 0.01357,-0.0252 0.113773,-0.16307 0.222669,-0.30651 z m 22.725194,-24.20572 c 0.05761,-0.20461 0.0196,-0.26995 -0.445493,-0.76595 l -0.406658,-0.43366 -0.05257,0.0788 c -0.120392,0.1806 -0.08032,0.34618 0.08866,0.36636 0.208215,0.0249 0.252181,0.20501 0.119789,0.4908 -0.04031,0.0871 -0.07845,0.16217 -0.08476,0.16702 -0.0063,0.005 -0.06272,0.0723 -0.125358,0.15 -0.152971,0.18967 -0.419395,0.38188 -0.622589,0.44919 -0.153817,0.0509 -0.172462,0.0497 -0.250168,-0.0161 -0.04618,-0.0392 -0.08396,-0.0905 -0.08396,-0.11414 -10e-7,-0.0656 -0.178727,-0.23203 -0.242847,-0.22607 -0.0425,0.004 -0.222974,0.17999 -0.810847,0.79087 l -0.756175,0.78579 0.07366,0.25207 c 0.04051,0.13864 0.101789,0.34746 0.136168,0.46404 l 0.06251,0.21195 0.123357,-0.006 c 0.135506,-0.007 0.331168,-0.0901 0.420731,-0.17969 0.0748,-0.0748 0.129444,-0.21084 0.159021,-0.39589 0.036,-0.2253 0.145952,-0.3227 0.401442,-0.35567 0.188514,-0.0243 0.201941,-0.031 0.338777,-0.1678 0.131198,-0.13119 0.145431,-0.15738 0.179764,-0.33062 0.03192,-0.16106 0.05335,-0.20422 0.148955,-0.29981 0.09804,-0.098 0.13044,-0.11336 0.265486,-0.12547 0.295666,-0.0264 0.480182,-0.19578 0.534475,-0.49032 0.02989,-0.16222 0.04419,-0.18813 0.176884,-0.32083 l 0.144358,-0.14436 0.191088,0.19109 c 0.184853,0.18485 0.192545,0.1896 0.236014,0.1455 0.02474,-0.0251 0.06084,-0.1021 0.08028,-0.17115 z m -2.841937,-4.5994 c -0.03536,-0.0429 -0.04696,-0.0797 -0.0289,-0.0918 0.02094,-0.0139 -8.06e-4,-0.0511 -0.07109,-0.12137 l -0.101265,-0.10127 -0.09385,0.11735 c -0.225877,0.28244 -0.248061,0.34532 -0.154759,0.43863 0.04242,0.0424 0.05812,0.0396 0.11925,-0.0215 0.06481,-0.0648 0.07519,-0.0656 0.130743,-0.0101 0.0589,0.0589 0.06272,0.0579 0.159641,-0.039 0.09732,-0.0973 0.09812,-0.10072 0.04023,-0.17097 z m -9.945298,9.38661 c 0.03481,-0.0588 0.119458,-0.15034 0.193265,-0.20902 0.199486,-0.15863 0.767425,-0.69802 0.828339,-0.7867 0.0296,-0.0431 0.05474,-0.14084 0.05585,-0.21723 l 0.0021,-0.13887 -0.192788,-0.1812 -0.192786,-0.18119 -0.492804,0.49279 c -0.271043,0.27105 -0.507484,0.52171 -0.525431,0.55702 -0.07402,0.14566 -0.499035,0.60296 -0.912049,0.98134 -0.236397,0.21656 -0.429814,0.39864 -0.429814,0.40461 0,0.006 0.08697,0.0996 0.193247,0.20819 0.311954,0.31857 0.324391,0.31409 0.949489,-0.34128 0.253831,-0.26613 0.489383,-0.53093 0.523445,-0.58846 z"
       id="path2091"       
       sodipodi:nodetypes="ccccccccsscccccscccccccsccccccccsccccccccssccscccccsccccccccccccccccccccccccccsccccccccccccccsscsccsccccscscccccccccscccccccccscccccccsscccscccscccscccccsccccccccssscccccccccccccscsccccccccccscccscccccsccccscccscccccccscccccssscccscsssccssscccscscccccssccccsscscscccccccsccccccscccscccscccccccccccccscccccccccccssscsccscsccsscssccccccsscsscsscccscccsscsscsccscccsscccssscccccssccccccsssscscssssscccscccssscsccssscccssscscsscscccccscccccscccsscccccccsccccccccscccccscccccccccccccccccscscccsscscccccsccccccccsccscsccsssccccccscccccccccccccscccccsccssccsccccccccccccccccccscccscccccccccccsccccccccccccccccccccscccccccccscccsccscccccccscccccsccscsccscsccccsccssssccccccccscsscccc" />
  </g>
</svg>
