<?xml version="1.0" encoding="UTF-8" standalone="no"?>
<!-- Created with Inkscape (http://www.inkscape.org/) -->

<svg
   xmlns:dc="http://purl.org/dc/elements/1.1/"
   xmlns:cc="http://creativecommons.org/ns#"
   xmlns:rdf="http://www.w3.org/1999/02/22-rdf-syntax-ns#"
   xmlns:svg="http://www.w3.org/2000/svg"
   xmlns="http://www.w3.org/2000/svg"
   xmlns:sodipodi="http://sodipodi.sourceforge.net/DTD/sodipodi-0.dtd"   
   width="220"
   height="235"
   viewBox="0 0 58.208331 62.177086"
   version="1.1"
   id="svg8"
   sodipodi:docname="l96.svg">   
  <defs
     id="defs2" />
  <sodipodi:namedview
     id="base"
     pagecolor="#000000"
     bordercolor="#666666"
     borderopacity="1.0"
     showgrid="false"
     fit-margin-top="0"
     fit-margin-left="0"
     fit-margin-right="0"
     fit-margin-bottom="0"
     units="px" />
  <metadata
     id="metadata5">
    <rdf:RDF>
      <cc:Work
         rdf:about="">
        <dc:format>image/svg+xml</dc:format>
        <dc:type
           rdf:resource="http://purl.org/dc/dcmitype/StillImage" />
        <dc:title></dc:title>
      </cc:Work>
    </rdf:RDF>
  </metadata>
  <g
     id="layer1"
     transform="translate(56.057826,-205.94221)">
    <path
       style="fill:none;stroke:#ffffff;stroke-width:0.4;stroke-opacity:1;stroke-miterlimit:4;stroke-dasharray:none"
       d="m -33.673205,253.55776 c 0.05389,-0.23481 -0.08064,-0.51487 -0.45897,-0.95549 -0.200788,-0.23383 -0.383707,-0.46164 -0.406502,-0.50624 -0.0228,-0.0446 -0.139563,-0.20307 -0.259489,-0.35217 -0.252592,-0.31405 -0.784227,-1.25814 -0.882701,-1.56753 -0.08121,-0.25514 0.05769,-0.42468 0.379416,-0.4631 0.122134,-0.0146 0.372934,-0.0831 0.557333,-0.15219 0.30408,-0.11398 0.415852,-0.20596 1.20156,-0.98877 0.9855,-0.98187 1.013957,-1.03538 0.976326,-1.83488 -0.01307,-0.27771 0.01962,-0.45493 0.09848,-0.53379 0.130644,-0.13064 3.391078,-3.91657 4.119295,-4.78321 0.353778,-0.42103 0.739431,-1.02972 1.662546,-2.62404 l 1.201918,-2.07585 3.344826,-3.32013 c 3.301865,-3.2775 3.346286,-3.31913 3.458522,-3.24169 0.154763,0.10679 0.413399,0.11503 0.512112,0.0163 0.109787,-0.10979 0.08817,-0.39222 -0.03981,-0.5202 -0.101634,-0.10164 -0.0885,-0.12011 0.512754,-0.72136 0.556051,-0.55606 0.635152,-0.61617 0.800087,-0.60794 0.234019,0.0117 0.369352,-0.12366 0.312253,-0.31225 -0.02456,-0.0811 -0.01407,-0.17809 0.02332,-0.21548 0.03739,-0.0374 0.056,-0.11453 0.04135,-0.17144 -0.01465,-0.0569 -0.0035,-0.17764 0.02472,-0.26829 0.06912,-0.22189 -0.297159,-0.6089 -0.558288,-0.58989 -0.142922,0.0104 -0.25571,-0.0649 -0.666272,-0.445 l -0.494225,-0.45752 8.8508274,-8.79575 c 4.8679484,-4.83766 8.97008682,-8.93878 9.11582122,-9.11364 0.2437714,-0.29239 0.2582548,-0.3342 0.1806616,-0.52153 -0.1139059,-0.27499 -0.6827298,-0.80577 -0.9154895,-0.85425 l -0.18420582,-0.0384 -14.3384829,14.33848 -14.33848,14.33848 -0.134508,-0.13451 c -0.07398,-0.074 -0.186391,-0.13451 -0.249801,-0.13451 -0.152234,0 -0.701368,0.55101 -0.701295,0.70384 0,0.0929 -0.03228,0.12515 -0.153073,0.15307 -0.184593,0.0427 -0.365188,0.21019 -0.298488,0.27688 0.02642,0.0264 0.0048,0.0913 -0.04804,0.14412 -0.05284,0.0528 -0.117695,0.0745 -0.144116,0.048 -0.06996,-0.07 -0.335237,0.2173 -0.289953,0.31399 0.03064,0.0654 0.006,0.0901 -0.123449,0.12345 -0.08896,0.0229 -0.194763,0.0747 -0.235112,0.11502 -0.04035,0.0403 -0.09211,0.14615 -0.115015,0.23511 -0.03332,0.1294 -0.05801,0.15409 -0.123449,0.12345 -0.09668,-0.0453 -0.383938,0.22 -0.313992,0.28995 0.02642,0.0264 0.0048,0.0913 -0.04804,0.14411 -0.05284,0.0529 -0.117694,0.0745 -0.144116,0.048 -0.02642,-0.0264 -0.11289,0.0168 -0.192154,0.0961 -0.07926,0.0793 -0.120915,0.16732 -0.09256,0.19568 0.02836,0.0284 0.0064,0.0821 -0.04879,0.11935 -0.0883,0.0597 -0.163708,0.004 -0.628029,-0.45989 -0.290221,-0.29022 -0.57091,-0.5493 -0.623754,-0.57572 -0.08248,-0.0412 0.01887,-0.1667 0.71603,-0.8864 0.879974,-0.90845 0.716822,-0.7904 3.223361,-2.33199 0.21581,-0.13273 0.64441,-0.50187 1.084003,-0.93363 l 0.727064,-0.7141 -0.977221,-0.97722 -0.977223,-0.97723 -0.174934,0.1133 -0.174935,0.1133 0.150443,-0.16181 c 0.08275,-0.089 0.128825,-0.18343 0.102403,-0.20985 -0.0299,-0.0299 -0.321949,0.22588 -0.773694,0.67762 -0.688209,0.68821 -0.772912,0.79811 -1.641353,2.1297 l -0.915695,1.40404 -0.788559,0.73902 c -0.433702,0.40647 -0.821502,0.73204 -0.861764,0.72352 -0.04026,-0.009 -0.223592,0.10483 -0.407397,0.25192 -0.275877,0.22076 -0.32618,0.28542 -0.288276,0.37053 0.03666,0.0823 -0.03913,0.18814 -0.376153,0.52517 -0.478899,0.4789 -0.481659,0.47911 -0.871785,0.089 -0.395692,-0.39569 -0.421394,-0.39102 -1.010481,0.18386 -0.60111,0.58662 -0.603438,0.60416 -0.138523,1.06908 l 0.29139,0.29139 -0.480388,0.48038 c -0.288233,0.28824 -0.499603,0.46118 -0.528426,0.43235 -0.02741,-0.0274 -0.19121,0.0951 -0.381475,0.2854 -0.18339,0.18339 -0.32518,0.36842 -0.315088,0.41117 0.01009,0.0427 -0.119113,0.21519 -0.287122,0.3832 -0.230047,0.23004 -0.394159,0.33485 -0.664674,0.42448 -0.414334,0.13727 -0.695592,0.389 -0.847208,0.75825 -0.08249,0.20089 -0.126343,0.25164 -0.20201,0.23378 -0.07078,-0.0167 -0.127076,0.0321 -0.210305,0.18224 -0.08786,0.15851 -0.231369,0.27309 -0.63236,0.50484 -0.54443,0.31466 -1.257424,0.9542 -1.165868,1.04576 0.03177,0.0318 0.0038,0.0645 -0.07746,0.0907 -0.06995,0.0225 -0.306961,0.1939 -0.526685,0.38086 -0.458511,0.39013 -0.489832,0.4931 -0.258082,0.84678 0.213674,0.32608 1.102862,1.17549 1.328286,1.26886 0.173402,0.0718 0.234002,0.0545 0.477511,-0.13681 0.58428,-0.45896 1.375807,-1.31052 1.681558,-1.80911 0.325272,-0.53043 0.915582,-1.13108 1.192239,-1.21312 0.250818,-0.0744 0.465794,-0.33543 0.599462,-0.72793 0.09285,-0.27263 0.199496,-0.43602 0.44586,-0.68305 l 0.323899,-0.32462 0.624506,0.6245 c 0.506762,0.50677 0.611673,0.63734 0.556449,0.69256 -0.03743,0.0374 -0.09398,0.0565 -0.125664,0.0425 -0.03169,-0.0141 -0.23731,0.13299 -0.456942,0.3268 -0.426917,0.37673 -0.510821,0.57605 -0.295538,0.70207 0.08918,0.0522 0.05619,0.11624 -0.234309,0.4548 -0.185958,0.21671 -0.438884,0.47076 -0.562036,0.56458 -0.127837,0.0973 -0.245041,0.2401 -0.273059,0.33266 -0.04625,0.15277 -0.01919,0.19104 0.467629,0.66143 0.432531,0.41793 0.511114,0.51914 0.482302,0.62118 -0.01893,0.067 -0.0054,0.15094 0.03011,0.18643 0.03549,0.0355 0.04346,0.11185 0.0177,0.16968 -0.02576,0.0578 -1.179665,1.23799 -2.564246,2.62257 l -2.517416,2.51741 -0.264157,-0.15788 c -0.303534,-0.18142 -0.74476,-0.19431 -1.071031,-0.0313 -0.152635,0.0763 -1.075801,0.96684 -3.086167,2.97721 l -2.868392,2.86839 -0.129391,0.3936 -0.1294,0.39361 -0.820499,0.75973 c -0.451282,0.41784 -0.994233,0.88439 -1.206579,1.03677 -0.340108,0.24405 -0.387089,0.29729 -0.394561,0.44707 -0.01895,0.37982 0.193124,0.62817 2.361095,2.76498 2.04249,2.01312 2.827368,2.86791 3.3073,3.60181 0.137655,0.21049 0.27914,0.38327 0.314415,0.38395 0.03528,7.7e-4 0.271645,-0.35332 0.525263,-0.78665 0.41861,-0.71524 0.524073,-0.8511 1.143855,-1.47344 0.597381,-0.59993 0.678762,-0.70262 0.651021,-0.822 -0.02845,-0.12244 0.03856,-0.20176 0.653807,-0.7739 0.39945,-0.37145 0.736299,-0.64277 0.807201,-0.65016 0.346928,-0.0361 0.647906,-0.42112 0.661787,-0.84648 0.0067,-0.20478 -0.0199,-0.23963 -0.617222,-0.80938 -0.343319,-0.32745 -0.624239,-0.61886 -0.624288,-0.64756 -5.4e-5,-0.0287 0.559503,-0.61867 1.243444,-1.31105 1.497332,-1.51578 1.368574,-1.4468 2.994651,-1.60457 1.498675,-0.14541 1.718916,-0.22384 2.494908,-0.88842 0.639908,-0.54803 1.247274,-0.91578 1.824702,-1.10481 0.189339,-0.062 0.513086,-0.21491 0.719439,-0.33984 0.473795,-0.28684 1.803513,-1.51684 1.847632,-1.70908 z m -5.355511,0.57728 c -0.572425,0.18063 -1.021576,0.0833 -1.410491,-0.3056 -0.770192,-0.77019 -0.441274,-2.13713 0.718154,-2.98456 0.756049,-0.5526 1.223254,-0.59432 1.658697,-0.1481 0.417831,0.42818 0.630517,1.30723 0.452882,1.87188 -0.21207,0.67411 -0.860878,1.39018 -1.419242,1.56638 z m 4.132884,-5.02298 c -0.855475,0.16598 -1.614919,-0.60621 -1.23878,-1.25956 0.07553,-0.13121 0.202672,-0.27767 0.282532,-0.32549 0.143151,-0.0857 0.147387,-0.0829 0.3001,0.20134 0.275483,0.51269 0.880627,0.78123 1.368601,0.60733 0.535791,-0.19094 0.639223,-0.48063 0.128564,-0.36008 -0.27024,0.0638 -0.285211,0.059 -0.233786,-0.0753 0.05465,-0.14271 0.05335,-0.14379 -0.239627,-0.19893 -0.239661,-0.0451 -0.332857,-0.10164 -0.499946,-0.30325 -0.322425,-0.38905 -0.304931,-0.47828 0.174261,-0.88886 0.676948,-0.58002 1.117743,-0.58057 1.696203,-0.002 0.265679,0.26568 0.296679,0.32683 0.29668,0.58529 l -2e-6,0.28862 -0.868402,0.83659 c -0.832017,0.80155 -0.880879,0.83902 -1.166406,0.89442 z m 0.514187,-10.07391 c -0.04508,-0.0451 -0.117597,-0.0265 -0.193664,0.0496 -0.06688,0.0669 -0.101621,0.16647 -0.0772,0.22131 0.02442,0.0548 0.0166,0.12751 -0.01737,0.16149 -0.03398,0.034 -0.106648,0.0418 -0.161488,0.0174 -0.136562,-0.0608 -0.346497,0.16444 -0.301571,0.32357 0.03467,0.12279 0.02745,0.13001 -0.138276,0.13828 -0.189012,0.009 -0.413652,0.18715 -0.335428,0.26537 0.02642,0.0264 0.0048,0.0913 -0.04804,0.14411 -0.05284,0.0529 -0.117694,0.0745 -0.144115,0.048 -0.06669,-0.0667 -0.234213,0.1139 -0.276883,0.29849 -0.02792,0.12079 -0.0602,0.15307 -0.153073,0.15307 -0.15088,0 -0.280748,0.13081 -0.33352,0.33607 -0.03332,0.1294 -0.05801,0.15409 -0.123448,0.12344 -0.09668,-0.0453 -0.383936,0.22001 -0.313974,0.28998 0.02642,0.0264 0.0055,0.0906 -0.04653,0.14261 -0.06433,0.0643 -0.108771,0.0627 -0.138976,-0.005 -0.02442,-0.0548 -0.06834,-0.0758 -0.09759,-0.0465 -0.02925,0.0292 -0.0856,0.0207 -0.125236,-0.0189 -0.03963,-0.0396 -0.05044,-0.0937 -0.02402,-0.1201 0.02802,-0.028 -0.11209,-0.20817 -0.336272,-0.43235 -0.224181,-0.22418 -0.404326,-0.3643 -0.432349,-0.33627 -0.02642,0.0264 -0.08005,0.016 -0.119182,-0.0231 -0.109574,-0.10958 0.07044,-0.34575 0.59627,-0.78229 0.264235,-0.21936 0.902147,-0.83101 1.417585,-1.35921 l 0.937165,-0.96037 0.593709,0.59371 c 0.326539,0.32653 0.593709,0.62253 0.593709,0.65776 -10e-7,0.11701 -0.127028,0.19323 -0.200162,0.12009 z"
       id="path829" />       
  </g>
</svg>
