<?xml version="1.0" encoding="UTF-8" standalone="no"?>
<!-- Created with Inkscape (http://www.inkscape.org/) -->

<svg
   xmlns:dc="http://purl.org/dc/elements/1.1/"
   xmlns:cc="http://creativecommons.org/ns#"
   xmlns:rdf="http://www.w3.org/1999/02/22-rdf-syntax-ns#"
   xmlns:svg="http://www.w3.org/2000/svg"
   xmlns="http://www.w3.org/2000/svg"
   xmlns:sodipodi="http://sodipodi.sourceforge.net/DTD/sodipodi-0.dtd"   
   width="220"
   height="235"
   viewBox="0 0 58.208331 62.177086"
   version="1.1"
   id="svg8"   
   sodipodi:docname="m1873.svg">
  <defs
     id="defs2" />
  <sodipodi:namedview
     id="base"
     pagecolor="#000000"
     bordercolor="#666666"
     borderopacity="1.0"
     showgrid="false"
     fit-margin-top="0"
     fit-margin-left="0"
     fit-margin-right="0"
     fit-margin-bottom="0"
     units="px" />
  <metadata
     id="metadata5">
    <rdf:RDF>
      <cc:Work
         rdf:about="">
        <dc:format>image/svg+xml</dc:format>
        <dc:type
           rdf:resource="http://purl.org/dc/dcmitype/StillImage" />
        <dc:title></dc:title>
      </cc:Work>
    </rdf:RDF>
  </metadata>
  <g
     id="layer1"
     transform="translate(56.057826,-205.94221)">
    <path
       style="fill:none;stroke:#ffffff;stroke-width:0.4;stroke-opacity:1;stroke-miterlimit:4;stroke-dasharray:none"
       d="m -32.504562,259.84285 c -0.683214,0.32377 -1.393812,0.49103 -2.279765,0.53661 -2.400628,0.12351 -4.558466,-1.64362 -3.912199,-3.20384 0.134605,-0.32497 0.06548,-0.49315 -0.124579,-0.30309 -0.149971,0.14997 -1.114639,2.53847 -1.137909,2.81743 -0.0094,0.11253 -0.164187,0.51054 -0.344001,0.88448 -0.17982,0.37393 -0.661218,1.54878 -1.069778,2.61078 -1.703861,4.42898 -1.651389,4.32205 -2.109618,4.29919 -0.295246,-0.0147 -1.347928,-0.77186 -2.919851,-2.10008 -1.357703,-1.14722 -4.034355,-3.89047 -4.034145,-4.13453 8.2e-5,-0.0936 0.630584,-1.08905 1.401118,-2.21205 1.863947,-2.71656 2.280225,-3.11518 4.084314,-3.91104 1.051198,-0.46373 1.328872,-0.62936 1.720019,-1.02598 0.537101,-0.54458 0.616134,-0.71708 2.689233,-5.8678 l 1.315106,-3.26745 -0.16376,-0.47107 c -0.268883,-0.77349 -0.123946,-1.9305 0.360669,-2.87919 0.379971,-0.74384 0.153147,-1.25779 -0.694185,-1.57292 -0.661562,-0.24605 -0.748507,-0.30692 -0.620802,-0.43462 0.104357,-0.10435 0.781793,-0.0445 1.275849,0.11279 0.388098,0.12352 0.873345,0.0504 1.0876,-0.16382 0.08055,-0.0805 0.182114,-0.41218 0.225707,-0.73696 0.0436,-0.32479 0.183466,-0.77081 0.310822,-0.99117 0.127358,-0.22035 0.189526,-0.44268 0.138153,-0.49405 -0.07322,-0.0732 0.215783,-0.4026 1.337404,-1.52422 0.786947,-0.78695 1.432803,-1.49061 1.435232,-1.5637 0.0024,-0.0731 1.164056,-1.31457 2.581395,-2.75885 2.514395,-2.56219 3.99488,-3.92831 4.296255,-3.96434 0.243255,-0.0291 3.608049,-3.48081 3.589342,-3.68209 -0.01859,-0.20004 0.602191,-0.76686 0.961099,-0.87754 0.184511,-0.0569 0.362749,-0.23884 0.75098,-0.76655 0.606592,-0.82453 1.805993,-2.02527 2.368851,-2.37158 0.264217,-0.16254 1.050963,-0.92331 2.278502,-2.20327 1.031223,-1.07525 2.01622,-2.09014 2.188899,-2.25529 0.736107,-0.70404 7.1184323,-7.08533 7.4978563,-7.49677 0.228855,-0.24808 0.637744,-0.61802 0.9086675,-0.82206 0.4065055,-0.30618 0.5400507,-0.35534 0.7642885,-0.2814 0.3991713,0.13163 0.6712927,0.44538 0.67129,0.77397 0,0.2143 0.026933,0.26212 0.1041302,0.18492 0.1698675,-0.16986 0.3016155,-0.0788 0.5070189,0.3506 0.1066671,0.22296 0.2050917,0.35815 0.2187233,0.30041 0.026686,-0.11306 0.1833214,-0.0449 0.6539307,0.28445 0.6844762,0.47905 0.4150126,0.93613 -1.8634796,3.16092 -0.9694265,0.9466 -1.4193055,1.43509 -1.3684585,1.48594 0.04167,0.0417 0.075759,0.17796 0.075757,0.30287 1.2e-6,0.18622 -0.209005,0.43915 -1.160705,1.40464 -0.638398,0.64763 -1.6186153,1.69517 -2.1782833,2.32785 -0.938364,1.06076 -1.53578,1.69407 -2.104681,2.23111 -0.122676,0.11579 -1.262469,1.31733 -2.532887,2.67007 -1.270419,1.35273 -3.982668,4.16862 -6.027224,6.25752 -2.044552,2.08891 -3.776773,3.88775 -3.849371,3.99745 -0.0726,0.10969 -0.08724,0.29675 -0.03254,0.41569 0.095,0.20655 0.05515,0.26204 -0.888426,1.23708 -0.54333,0.56146 -1.527513,1.61935 -2.187052,2.35088 -1.002648,1.11209 -1.226958,1.40883 -1.368776,1.8108 -0.236349,0.66992 -0.233876,1.29951 0.0075,1.90531 0.113258,0.28427 0.1871,0.6237 0.164094,0.75429 -0.03508,0.19915 -0.0049,0.24596 0.187069,0.29034 0.189694,0.0438 0.23989,0.11381 0.293075,0.4085 0.0353,0.19557 0.131639,0.59619 0.214095,0.89027 0.232402,0.82884 0.183327,1.86735 -0.132266,2.79902 -0.28051,0.8281 -0.287719,0.83871 -1.214289,1.78664 -0.512668,0.52447 -0.968316,0.99639 -1.012583,1.04869 -0.120149,0.142 -0.0018,0.43614 0.458044,1.13822 0.76039,1.16102 0.899223,2.19124 0.722082,5.35834 -0.09029,1.61432 -0.149365,1.99761 -0.425689,2.76209 -0.231942,0.6417 -0.352389,0.82874 -0.9309,1.44559 -0.503451,0.53683 -0.7836,0.76497 -1.156052,0.94146 z m 1.713842,-2.71783 c 0.183522,-0.50636 0.288393,-1.26611 0.376586,-2.72824 0.152105,-2.52178 0.136602,-2.88412 -0.158889,-3.71294 -0.442603,-1.24146 -1.575668,-2.26523 -2.885406,-2.60707 -1.133517,-0.29586 -1.329316,-0.0776 -2.320205,2.58618 -0.427808,1.15007 -0.801552,2.14862 -0.830539,2.219 -0.02898,0.0704 -0.01045,0.17021 0.0412,0.22185 0.05368,0.0537 0.02576,0.1341 -0.06519,0.18774 -0.195748,0.11546 -1.657412,3.95746 -1.670984,4.39219 -0.01618,0.51839 0.238733,0.91109 0.887752,1.36759 0.778513,0.54758 1.688841,0.80177 2.697897,0.75332 1.435736,-0.0689 2.200674,-0.40226 3.078692,-1.34158 0.492926,-0.52734 0.638265,-0.75638 0.849084,-1.33804 z m 0.221305,-10.82777 c 0.265017,-0.35065 0.563295,-0.82126 0.662842,-1.0458 0.373069,-0.84152 0.202816,-1.80988 -0.430897,-2.45085 -0.308689,-0.31224 -0.42582,-0.37009 -0.695585,-0.34367 -0.5915,0.0579 -1.407388,0.3833 -1.85806,0.74098 -0.444263,0.3526 -0.444729,0.35365 -0.483941,1.09159 -0.04428,0.83321 0.141732,1.44765 0.566973,1.87289 0.297614,0.29762 1.05305,0.63901 1.290146,0.58303 0.07362,-0.0174 0.176384,0.0505 0.22836,0.15079 0.110665,0.21358 0.09824,0.2239 0.720162,-0.59896 z m -1.554721,0.73486 c -0.591754,-0.16366 -0.707051,-0.23576 -1.267098,-0.79241 -0.338866,-0.33679 -0.690206,-0.62943 -0.780765,-0.65029 -0.111422,-0.0256 -0.154385,-0.11656 -0.132883,-0.28115 0.04134,-0.31639 0.0085,-0.2392 -0.414396,0.97265 -0.195333,0.55983 -0.465702,1.28047 -0.600815,1.60145 -0.272496,0.64733 -0.261748,0.77121 0.0207,0.23861 0.150303,-0.28342 0.265034,-0.38169 0.642935,-0.55072 0.377598,-0.16889 0.595471,-0.17728 1.216415,-0.0468 0.526315,0.11054 0.912342,0.1145 1.268953,0.013 0.770645,-0.21934 0.778342,-0.30201 0.04695,-0.50429 z"
       id="path2078"       
       sodipodi:nodetypes="csssccsccccccscsscccsccsssccccscccccccsccscsccscsccccccccccscccssccccccssccsccccscssccscsccsccccccccccc" />
  </g>
</svg>
