<?xml version="1.0" encoding="UTF-8" standalone="no"?>
<!-- Created with Inkscape (http://www.inkscape.org/) -->

<svg
   xmlns:dc="http://purl.org/dc/elements/1.1/"
   xmlns:cc="http://creativecommons.org/ns#"
   xmlns:rdf="http://www.w3.org/1999/02/22-rdf-syntax-ns#"
   xmlns:svg="http://www.w3.org/2000/svg"
   xmlns="http://www.w3.org/2000/svg"
   xmlns:sodipodi="http://sodipodi.sourceforge.net/DTD/sodipodi-0.dtd"   
   width="220"
   height="235"
   viewBox="0 0 58.208331 62.177086"
   version="1.1"
   id="svg8"   
   sodipodi:docname="m40.svg">
  <defs
     id="defs2" />
  <sodipodi:namedview
     id="base"
     pagecolor="#000000"
     bordercolor="#666666"
     borderopacity="1.0"
     showgrid="false"
     fit-margin-top="0"
     fit-margin-left="0"
     fit-margin-right="0"
     fit-margin-bottom="0"
     units="px" />
  <metadata
     id="metadata5">
    <rdf:RDF>
      <cc:Work
         rdf:about="">
        <dc:format>image/svg+xml</dc:format>
        <dc:type
           rdf:resource="http://purl.org/dc/dcmitype/StillImage" />
        <dc:title></dc:title>
      </cc:Work>
    </rdf:RDF>
  </metadata>
  <g 
     id="layer1"
     transform="translate(56.057826,-205.94221)">
    <path
       style="fill:none;stroke:#ffffff;stroke-width:0.4;stroke-opacity:1;stroke-miterlimit:4;stroke-dasharray:none"
       d="m -46.286903,267.17096 c -0.391362,-0.17575 -4.538099,-4.34229 -4.974959,-4.99875 -0.580496,-0.87225 -0.527741,-1.04827 0.728854,-2.43172 1.023666,-1.12702 1.271911,-1.49454 1.88375,-2.78893 0.256191,-0.54197 0.581492,-0.9149 3.245458,-3.7206 1.6284,-1.71504 3.123239,-3.32468 3.321861,-3.57699 0.493489,-0.62686 0.899526,-0.88117 1.52033,-0.95219 0.28917,-0.0331 0.588271,-0.12264 0.664664,-0.19903 0.07639,-0.0765 0.488074,-0.79973 0.914846,-1.60742 0.426773,-0.80767 0.886154,-1.62248 1.020847,-1.81064 0.21968,-0.3069 0.220673,-0.36635 0.0096,-0.57739 -0.194798,-0.19479 -0.207882,-0.30192 -0.07607,-0.62293 0.08754,-0.21322 0.240163,-0.48327 0.339139,-0.6001 0.09897,-0.11685 0.154097,-0.2383 0.122492,-0.26989 -0.03161,-0.0316 0.152185,-0.28809 0.408423,-0.56997 0.257154,-0.28288 0.425036,-0.54176 0.374704,-0.57785 -0.161805,-0.11598 -0.126841,-0.38606 0.08882,-0.68605 0.76126,-1.05896 0.536555,-0.93762 -0.740533,0.39987 -0.735957,0.77075 -1.332055,1.40741 -1.324688,1.41478 0.02841,0.0284 -0.292107,0.40862 -1.227098,1.45568 -0.935158,1.04726 -0.979174,1.08373 -1.219843,1.01086 -0.314169,-0.0952 -1.3801,-1.15236 -1.555398,-1.54271 l -0.131561,-0.29297 1.24423,-1.13352 c 0.684329,-0.62342 1.32097,-1.14064 1.414761,-1.14935 0.114265,-0.0106 0.159054,-0.0645 0.135766,-0.16316 -0.02426,-0.10276 0.105019,-0.25001 0.427317,-0.48673 0.254152,-0.18667 0.857755,-0.75384 1.34134,-1.26037 0.48358,-0.50655 1.11485,-1.15225 1.402797,-1.43493 0.400175,-0.39283 0.519486,-0.57309 0.506261,-0.76494 -0.02108,-0.30581 -0.697709,-1.21425 -0.816177,-1.09579 -0.04453,0.0446 -0.1318,0.0301 -0.193932,-0.032 -0.34595,-0.34594 0.455643,-1.45244 1.05221,-1.45244 0.342809,0 0.475723,0.0823 0.431993,0.26756 -0.03813,0.16154 0.832065,0.83941 1.077566,0.83941 0.334033,0 2.763722,-2.54888 4.349111,-4.56247 1.773887,-2.253 3.196718,-3.83636 3.403535,-3.78754 0.08312,0.0196 0.644515,0.50765 1.247549,1.08449 l 1.096425,1.04881 4.155699,-4.19706 c 2.285618,-2.3084 7.38962,-7.50902 11.342201,-11.55697 8.2126781,-8.41082 7.3395718,-7.67497 8.1012714,-6.82773 l 0.40765827,0.45344 -0.42048507,0.51877 c -0.4215345,0.52004 -3.0919257,3.30873 -8.4231789,8.79628 -1.5697847,1.61582 -3.4763367,3.60126 -4.2367697,4.4121 l -1.382605,1.47425 0.192336,0.19235 c 0.274059,0.27405 0.355571,0.62634 0.216556,0.9359 -0.066,0.14699 -0.742276,0.92812 -1.502834,1.73588 -1.542608,1.63832 -1.83651,2.00403 -1.863423,2.31862 -0.01022,0.11898 -0.131336,0.43475 -0.269245,0.70173 -0.255288,0.49422 -0.456426,0.60764 -0.680395,0.38367 -0.129568,-0.12957 -1.585871,1.30929 -3.582747,3.53985 -0.772717,0.86313 -2.183388,2.39905 -3.134824,3.41313 -1.527654,1.62826 -1.722899,1.86856 -1.670112,2.05552 0.07395,0.26191 -0.07989,0.42755 -0.397101,0.42756 -0.213338,0 -0.44508,0.22383 -2.016341,1.9475 -3.321481,3.64364 -3.522804,3.95737 -3.044265,4.74393 0.390869,0.64247 0.308362,1.11959 -0.298549,1.7265 -0.869458,0.86945 -1.298842,0.95262 -2.038528,0.39485 l -0.356981,-0.26919 -0.440748,0.49755 c -1.00604,1.13571 -0.937508,2.51925 0.21395,4.31924 l 0.453242,0.70852 -0.555293,0.47303 c -0.527147,0.44906 -1.606512,1.05366 -2.550348,1.42855 -0.422953,0.168 -0.444043,0.19474 -1.104346,1.40031 -0.37024,0.67597 -0.9954,1.85778 -1.38925,2.62624 -0.393849,0.76847 -1.077773,2.09435 -1.519827,2.94641 -0.770309,1.48478 -0.795042,1.55771 -0.594654,1.75346 l 0.20903,0.20429 -0.698103,0.71077 c -0.545465,0.5554 -0.826083,0.94721 -1.283572,1.79233 -0.73332,1.35467 -0.976558,1.61492 -1.351853,1.44639 z m 13.313864,-21.39281 c 0.01176,-0.3766 -0.279975,-0.75501 -0.674078,-0.87434 -0.186617,-0.0565 -0.31741,0.0146 -0.663709,0.36094 -0.353553,0.35354 -0.431292,0.50053 -0.43129,0.81552 -10e-7,0.44394 0.33982,0.84979 0.711547,0.84979 0.388299,0 1.043859,-0.71406 1.05753,-1.15191 z m 5.778079,-13.94095 c 9e-6,-0.0334 -0.277128,0.17424 -0.615841,0.46152 -0.338703,0.28728 -1.105755,0.91295 -1.704543,1.39038 -1.392789,1.1105 -1.555918,1.26181 -1.461806,1.35592 0.04257,0.0425 0.186355,-0.0316 0.319532,-0.16474 0.178103,-0.1781 0.295549,-0.21087 0.444097,-0.12391 0.196617,0.1151 0.239213,0.0789 1.610262,-1.37006 0.774553,-0.81858 1.408298,-1.51566 1.408299,-1.54911 z"
       id="path855" />       
  </g>
</svg>
