<?xml version="1.0" encoding="UTF-8" standalone="no"?>
<!-- Created with Inkscape (http://www.inkscape.org/) -->

<svg
   xmlns:dc="http://purl.org/dc/elements/1.1/"
   xmlns:cc="http://creativecommons.org/ns#"
   xmlns:rdf="http://www.w3.org/1999/02/22-rdf-syntax-ns#"
   xmlns:svg="http://www.w3.org/2000/svg"
   xmlns="http://www.w3.org/2000/svg"
   xmlns:sodipodi="http://sodipodi.sourceforge.net/DTD/sodipodi-0.dtd"
   xmlns:inkscape="http://www.inkscape.org/namespaces/inkscape"
   width="220"
   height="235"
   viewBox="0 0 58.208332 62.177085"
   version="1.1"
   id="svg8"
   inkscape:version="0.92.3 (2405546, 2018-03-11)"
   sodipodi:docname="msr.svg">
  <defs
     id="defs2" />
  <sodipodi:namedview
     id="base"
     pagecolor="#000000"
     bordercolor="#666666"
     borderopacity="1.0"
     inkscape:pageopacity="0"
     inkscape:pageshadow="2"
     inkscape:zoom="2.8"
     inkscape:cx="120.21909"
     inkscape:cy="175.56468"
     inkscape:document-units="px"
     inkscape:current-layer="layer1"
     showgrid="false"
     units="px"
     inkscape:window-width="1544"
     inkscape:window-height="1258"
     inkscape:window-x="1843"
     inkscape:window-y="85"
     inkscape:window-maximized="0" />
  <metadata
     id="metadata5">
    <rdf:RDF>
      <cc:Work
         rdf:about="">
        <dc:format>image/svg+xml</dc:format>
        <dc:type
           rdf:resource="http://purl.org/dc/dcmitype/StillImage" />
        <dc:title></dc:title>
      </cc:Work>
    </rdf:RDF>
  </metadata>
  <g
     inkscape:label="Layer 1"
     inkscape:groupmode="layer"
     id="layer1"
     transform="translate(0,-234.8229)">
    <path
       style="fill:none;stroke:#ffffff;stroke-width:0.4;stroke-opacity:1;stroke-miterlimit:4;stroke-dasharray:none"
       d="m 46.212964,248.33326 c 0.01348,-0.0135 0.08512,-0.0245 0.159218,-0.0245 0.07409,0 0.19389,-0.0591 0.266218,-0.13151 0.08696,-0.087 0.108686,-0.15432 0.06415,-0.19886 -0.08748,-0.0874 0.02991,-0.20485 0.15095,-0.15095 0.131474,0.0585 0.369424,-0.19573 0.326951,-0.34938 -0.03231,-0.11689 -0.02696,-0.12207 0.105954,-0.10215 0.119817,0.018 0.196234,-0.039 0.530215,-0.39551 l 0.39023,-0.41647 -0.324892,-0.29997 c -0.178697,-0.16499 -0.359644,-0.29179 -0.402119,-0.28176 -0.04247,0.0101 -0.234864,0.14906 -0.427537,0.30896 -0.192665,0.15991 -0.389586,0.29074 -0.437589,0.29074 -0.0565,0 1.078929,-1.16621 3.2195,-3.30678 2.156082,-2.15607 3.300805,-3.33207 3.289625,-3.37944 -0.02614,-0.11071 0.183276,-0.29046 0.388102,-0.33312 0.124318,-0.0259 0.22185,-0.095 0.304602,-0.21604 0.09471,-0.13845 0.159955,-0.17605 0.293999,-0.16935 0.190432,0.009 0.454718,-0.20964 0.454718,-0.37703 0,-0.0567 0.06144,-0.17513 0.136546,-0.2631 0.0751,-0.088 0.232174,-0.30512 0.349051,-0.48256 0.16256,-0.24679 0.319693,-0.40629 0.668538,-0.67858 l 0.456026,-0.35597 8.6e-5,-0.2581 c 7.9e-5,-0.23298 -0.02923,-0.28744 -0.300904,-0.55911 -0.469167,-0.46917 -0.521956,-0.45555 -1.325554,0.34187 -0.478018,0.47435 -0.683288,0.64618 -0.783069,0.65551 -0.07662,0.007 -0.185515,0.0803 -0.251248,0.1686 -0.06878,0.0924 -0.160495,0.1518 -0.225273,0.14578 -0.147816,-0.0137 -0.40432,0.25282 -0.390132,0.40543 0.0073,0.0784 -0.06737,0.20209 -0.204918,0.33963 -0.119003,0.119 -0.208652,0.24907 -0.199218,0.28904 0.02143,0.0908 -0.244778,0.36307 -0.357388,0.36556 -0.0459,0.001 -1.339371,1.21118 -2.874361,2.68925 -2.171252,2.09073 -2.839597,2.70848 -3.010264,2.78236 -0.120656,0.0523 -0.38691,0.21686 -0.59168,0.36587 -0.345264,0.25124 -0.657801,0.37873 -0.657801,0.26834 0,-0.0258 0.148709,-0.23825 0.330465,-0.47212 0.181756,-0.23387 0.3211,-0.4649 0.309653,-0.51339 -0.01145,-0.0485 -0.146686,-0.20643 -0.300529,-0.35098 l -0.279714,-0.26281 -0.275565,0.24841 c -0.176053,0.15871 -0.280042,0.29511 -0.287954,0.37776 -0.0098,0.1023 -0.02808,0.12157 -0.0874,0.0921 -0.08917,-0.0443 -0.447896,0.29339 -0.381857,0.35942 0.0247,0.0247 0.01459,0.0752 -0.02246,0.11227 -0.03704,0.037 -0.08756,0.0471 -0.11226,0.0224 -0.0247,-0.0247 -0.12573,0.0359 -0.22452,0.13472 -0.09879,0.0988 -0.159409,0.19983 -0.134712,0.22452 0.0247,0.0247 0.0146,0.0752 -0.02246,0.11225 -0.03704,0.037 -0.08757,0.0471 -0.112261,0.0224 -0.06589,-0.0659 -0.4033,0.2925 -0.361112,0.38355 0.02844,0.0614 0.01243,0.0773 -0.08008,0.0801 -0.137417,0.004 -0.431567,0.28016 -0.367083,0.34464 0.0247,0.0247 0.01459,0.0752 -0.02245,0.11227 -0.03704,0.037 -0.08757,0.0471 -0.112262,0.0224 -0.0247,-0.0247 -0.125731,0.0359 -0.224519,0.13472 -0.09879,0.0988 -0.15941,0.19983 -0.134714,0.22452 0.0247,0.0247 0.0146,0.0752 -0.02245,0.11226 -0.03704,0.037 -0.08757,0.0471 -0.112262,0.0225 -0.0247,-0.0247 -0.12573,0.0359 -0.224518,0.13471 -0.09879,0.0988 -0.159411,0.19982 -0.134713,0.22452 0.0247,0.0247 0.01459,0.0752 -0.02245,0.11226 -0.03704,0.037 -0.08757,0.0471 -0.112261,0.0224 -0.0247,-0.0247 -0.115627,0.0258 -0.202067,0.11226 -0.08645,0.0864 -0.136959,0.17737 -0.112262,0.20207 0.0247,0.0247 0.0044,0.0853 -0.0449,0.13471 -0.04939,0.0493 -0.110018,0.0696 -0.134715,0.0449 -0.06549,-0.0655 -0.35824,0.24808 -0.315953,0.33839 0.02864,0.0612 0.0056,0.0842 -0.115392,0.11539 -0.180566,0.0465 -0.440484,0.29094 -0.376927,0.35449 0.0247,0.0247 0.01459,0.0752 -0.02245,0.11226 -0.03704,0.037 -0.08757,0.0471 -0.112263,0.0224 -0.0247,-0.0247 -0.12573,0.0359 -0.224519,0.13471 -0.09879,0.0988 -0.159409,0.19982 -0.134712,0.22452 0.0247,0.0247 0.0146,0.0752 -0.02245,0.11226 -0.03705,0.037 -0.08541,0.0493 -0.107456,0.0273 -0.08244,-0.0824 -0.240576,0.0556 -0.320477,0.27984 -0.05346,0.15004 -0.109202,0.22612 -0.157925,0.21557 -0.121869,-0.0264 -0.419329,0.22341 -0.349352,0.29338 0.08252,0.0825 -0.08889,0.23917 -0.205103,0.18741 -0.110566,-0.0492 -0.305161,0.18993 -0.271285,0.33342 0.01614,0.0683 -0.01586,0.10307 -0.13268,0.14403 -0.285363,0.1001 -0.357735,0.15876 -0.357735,0.2902 0,0.14721 -0.07493,0.24841 -0.137558,0.18578 -0.02273,-0.0228 -0.118911,0.008 -0.213722,0.069 -0.129589,0.0829 -0.164466,0.13832 -0.140512,0.22318 0.03874,0.13721 -0.05788,0.24728 -0.172362,0.19629 -0.116345,-0.0518 -0.38836,0.21315 -0.30471,0.2968 0.08543,0.0854 -0.07996,0.24581 -0.198859,0.19285 -0.05126,-0.0229 -0.144987,0.0103 -0.208281,0.0736 -0.06329,0.0633 -0.09641,0.15702 -0.07358,0.20828 0.02283,0.0513 0.01583,0.11887 -0.01554,0.15026 -0.03138,0.0313 -0.11252,0.0519 -0.180311,0.0456 -0.06779,-0.006 -0.171933,0.0372 -0.231427,0.0968 -0.05949,0.0594 -0.08949,0.15011 -0.06666,0.20136 0.05317,0.1194 -0.03798,0.21054 -0.195854,0.19587 -0.159256,-0.0148 -0.351723,0.17766 -0.29809,0.29808 0.05353,0.12019 -0.047,0.22072 -0.167189,0.16719 -0.05449,-0.0243 -0.149751,0.0151 -0.229324,0.0946 -0.09106,0.0911 -0.113826,0.15842 -0.06876,0.20348 0.08763,0.0877 -0.07461,0.24986 -0.195855,0.19586 -0.05449,-0.0243 -0.149751,0.0151 -0.229325,0.0946 -0.09106,0.0911 -0.113825,0.15842 -0.06876,0.20348 0.03742,0.0374 0.02744,0.10726 -0.02245,0.15716 -0.0499,0.0499 -0.119744,0.0599 -0.157165,0.0224 -0.04704,-0.047 -0.114754,-0.0199 -0.22452,0.0898 -0.109765,0.10977 -0.136851,0.17748 -0.08981,0.22452 0.03742,0.0374 0.02744,0.10727 -0.02244,0.15717 -0.0499,0.0498 -0.119745,0.0598 -0.157166,0.0224 -0.09259,-0.0926 -0.387628,0.20245 -0.330567,0.33057 0.05394,0.12112 -0.07585,0.25091 -0.163377,0.16338 -0.09071,-0.0907 -0.341565,0.16014 -0.285663,0.28567 0.05417,0.12163 -0.120377,0.29618 -0.208281,0.20828 -0.0449,-0.0449 -0.11226,-0.0224 -0.202067,0.0673 -0.0898,0.0898 -0.112261,0.15716 -0.06736,0.20207 0.08763,0.0877 -0.07461,0.24985 -0.195855,0.19585 -0.122547,-0.0546 -0.368905,0.19179 -0.314328,0.31433 0.0536,0.12034 -0.05928,0.23321 -0.179616,0.17962 -0.05344,-0.0239 -0.149216,0.0145 -0.22452,0.0898 -0.0753,0.0753 -0.11361,0.17107 -0.0898,0.22452 0.05394,0.1211 -0.07585,0.2509 -0.163377,0.16338 -0.08185,-0.0819 -0.393124,0.20163 -0.339404,0.30909 0.05081,0.1016 -0.08399,0.25541 -0.158513,0.18088 -0.07355,-0.0735 -0.337391,0.15886 -0.310354,0.27339 0.02231,0.0945 -0.143664,0.26047 -0.202068,0.20208 -0.05851,-0.0585 -0.314225,0.1972 -0.291877,0.29187 0.02231,0.0945 -0.143664,0.26047 -0.202069,0.20207 -0.0247,-0.0247 -0.105524,0.0157 -0.179615,0.0898 -0.07409,0.0741 -0.114505,0.15491 -0.0898,0.17961 0.0247,0.0247 -0.0057,0.0954 -0.06736,0.15716 -0.06175,0.0618 -0.132466,0.092 -0.157164,0.0673 -0.0247,-0.0247 -0.105523,0.0157 -0.179615,0.0898 -0.07409,0.0741 -0.114506,0.15492 -0.08981,0.17962 0.0247,0.0247 -0.0057,0.0954 -0.06736,0.15716 -0.06174,0.0618 -0.132466,0.092 -0.157163,0.0673 -0.0247,-0.0247 -0.105524,0.0157 -0.179615,0.0898 -0.07409,0.0741 -0.114507,0.15491 -0.08981,0.1796 0.0734,0.0734 -0.161632,0.26356 -0.267497,0.2164 -0.06885,-0.0306 -0.11798,-0.004 -0.167258,0.0894 -0.03837,0.073 -0.05896,0.15701 -0.04577,0.18668 0.03569,0.0802 -0.174606,0.26896 -0.25491,0.2288 -0.107298,-0.0537 -0.306044,0.12162 -0.258629,0.22809 0.05373,0.12063 -0.103903,0.27816 -0.224543,0.22444 -0.120924,-0.0539 -0.323279,0.1485 -0.269424,0.26942 0.02283,0.0513 -0.0069,0.14156 -0.06594,0.20067 -0.06558,0.0656 -0.133704,0.0812 -0.174812,0.0401 -0.08911,-0.0891 -0.295669,0.11747 -0.240759,0.24075 0.05379,0.12078 -0.116175,0.29074 -0.236947,0.23695 -0.120871,-0.0538 -0.310828,0.13613 -0.256998,0.257 0.05379,0.12077 -0.116175,0.29073 -0.236947,0.23695 -0.123293,-0.0549 -0.32986,0.15166 -0.240759,0.24075 0.08947,0.0895 -0.129388,0.30833 -0.253185,0.25319 -0.126996,-0.0565 -0.280379,0.11032 -0.255245,0.27768 0.03842,0.2558 -0.140815,0.13165 -0.76933,-0.53288 l -0.622057,-0.65771 0.601983,-0.60198 c 0.557578,-0.55758 0.641176,-0.62075 1.13324,-0.85639 0.29219,-0.13991 0.992027,-0.48208 1.55519,-0.76038 l 1.023932,-0.506 1.060404,-1.00199 c 0.583214,-0.5511 1.818827,-1.7537 2.745792,-2.67247 1.525333,-1.51186 1.68222,-1.68154 1.652704,-1.78625 -0.0775,-0.27442 -1.940871,-2.20402 -2.456607,-2.54391 l -0.189465,-0.12487 -2.758513,2.68901 -2.758514,2.68901 -0.308192,0.57181 c -0.169506,0.3145 -0.526617,0.99588 -0.79358,1.51419 l -0.485385,0.94238 -0.622014,0.62201 c -0.494665,0.49467 -0.634521,0.6095 -0.683114,0.56091 -0.04018,-0.0401 -0.151526,0.0101 -0.325163,0.14633 -0.42022,0.3301 -0.525866,0.45652 -0.503264,0.60224 0.01844,0.1189 -0.04736,0.20088 -0.521993,0.65024 -0.638264,0.60427 -0.699189,0.61875 -0.995858,0.23669 -0.147903,-0.19048 -0.223087,-0.24319 -0.356375,-0.24984 -0.150061,-0.007 -0.228214,0.0509 -0.699782,0.52243 -0.516443,0.51644 -0.529809,0.53589 -0.492218,0.71634 0.02703,0.12973 0.09439,0.22363 0.224113,0.31237 0.130304,0.0892 0.197108,0.18273 0.224588,0.31466 0.0358,0.1719 0.01199,0.21483 -0.281666,0.50777 -0.483709,0.4827 -0.838518,0.74525 -0.910007,0.67376 -0.04674,-0.0467 -0.150812,0.0286 -0.442786,0.32059 -0.309339,0.30934 -0.368922,0.39445 -0.314329,0.44904 0.05332,0.0534 0.0032,0.13152 -0.240704,0.37542 -0.245004,0.245 -0.359987,0.31845 -0.561722,0.3588 -0.42375,0.0848 -0.604293,0.17855 -0.885758,0.46002 -0.17592,0.17591 -0.302228,0.36345 -0.363804,0.54015 l -0.09432,0.27067 -0.450946,0.0104 -0.450948,0.0104 -0.349843,-0.34985 -0.349841,-0.34984 -0.284375,0.20958 c -0.278859,0.2055 -1.124215,1.08892 -1.124216,1.17483 1e-6,0.11414 0.291434,0.43206 0.436267,0.47592 0.08773,0.0266 0.190254,0.0936 0.227832,0.14894 0.06135,0.0904 0.01014,0.16486 -0.501454,0.72959 -0.322092,0.35552 -0.569774,0.67226 -0.569776,0.72862 0,0.16604 1.848436,2.11399 2.005991,2.11399 0.02797,0 0.675752,-0.60692 1.439499,-1.34872 l 1.388632,-1.34873 0.01622,-0.39829 c 0.0089,-0.21905 0.04791,-0.39231 0.08665,-0.38501 0.114149,0.0215 0.420739,-0.13932 0.716299,-0.37575 0.290149,-0.2321 0.448104,-0.51563 0.518332,-0.93036 0.02602,-0.15362 0.113042,-0.28238 0.353143,-0.52248 l 0.318623,-0.31863 0.533235,0.53324 c 0.65715,0.65716 0.786863,0.84091 0.673561,0.95422 -0.04631,0.0463 -0.10224,0.0661 -0.124296,0.0441 -0.07815,-0.0782 -0.254534,0.0537 -0.235533,0.17613 0.0235,0.15131 -0.178755,0.36164 -0.297089,0.30894 -0.09397,-0.0419 -0.256332,0.16289 -0.185415,0.23382 0.06872,0.0687 -0.214581,0.30197 -0.313352,0.25797 -0.120458,-0.0537 -0.245691,0.0716 -0.192044,0.19205 0.0559,0.12552 -0.194948,0.37638 -0.285663,0.28565 -0.04191,-0.0419 -0.109763,-0.025 -0.179615,0.0449 -0.104986,0.10498 -0.09751,0.127 0.115468,0.33999 0.145815,0.14581 0.277798,0.22773 0.366926,0.22773 0.257863,0 0.26571,0.15116 0.02978,0.57374 -0.123752,0.22167 -0.217861,0.45418 -0.20913,0.51672 0.01364,0.0977 0.0015,0.1073 -0.08605,0.0683 -0.0817,-0.0364 -0.166622,0.0196 -0.428113,0.28235 -0.291101,0.29246 -0.814194,1.07127 -0.814194,1.2122 0,0.0297 0.230667,0.28707 0.512595,0.57186 l 0.512598,0.51778 -0.23967,0.47879 c -0.131818,0.26335 -0.23188,0.53013 -0.222361,0.59285 0.01502,0.099 -0.380048,0.50363 -2.992782,3.0652 -1.655548,1.62314 -3.068224,2.98597 -3.139274,3.0285 -0.103214,0.0618 -0.213075,0.0323 -0.546404,-0.1467 -0.229466,-0.12323 -0.454182,-0.21679 -0.499363,-0.2079 -0.045184,0.009 -0.3704037,0.30381 -0.7227165,0.65536 -0.5390543,0.53804 -0.6512383,0.62854 -0.7079267,0.57184 -0.058404,-0.0584 0.1151524,-0.24986 1.3057869,-1.44049 l 1.3731383,-1.37315 -0.175408,-0.11646 c -0.375016,-0.249 -0.969021,-0.21717 -1.3978171,0.0749 -0.1579783,0.10761 -0.6735116,0.58183 -1.1456259,1.05381 -0.4720941,0.472 -1.7625377,1.7202 -2.8676019,2.77379 -1.9803589,1.88814 -2.0104701,1.91953 -2.0972238,2.18699 -0.092944,0.28656 -0.050676,0.39241 0.321578,0.80531 l 0.1703152,0.18891 0.6179666,-0.59444 c 0.7884159,-0.75842 1.0301849,-0.94559 1.113592,-0.86219 0.035532,0.0355 0.040065,0.0906 0.01007,0.12234 -0.030023,0.0318 -0.363396,0.37527 -0.7409243,0.76335 l -0.6863895,0.70564 0.2715287,0.26733 c 0.1493723,0.14698 0.4705039,0.45227 0.7136695,0.67834 0.4397836,0.4089 0.4415571,0.41163 0.3346565,0.51853 l -0.1074619,0.10745 -0.9139143,-0.85323 c -0.5166851,-0.48238 -0.9760284,-0.87203 -1.0568237,-0.89649 -0.1252773,-0.0379 -0.1858492,-7.3e-4 -0.4908611,0.30163 -0.191382,0.18968 -0.6337724,0.6076 -0.9831024,0.92868 -0.7559901,0.69484 -0.7559306,0.69464 -0.3735705,1.24341 0.2117005,0.30383 0.4282802,0.52006 1.1357348,1.13403 1.1512264,0.99894 2.7372248,2.60151 3.5653611,3.60263 0.3659791,0.44242 0.8485158,1.02545 1.0723001,1.2956 0.2237842,0.27017 0.4388177,0.49123 0.4778475,0.49126 0.086799,7e-5 2.2519564,-2.13428 2.2519564,-2.21991 0,-0.0336 -0.5148357,-0.61656 -1.1440801,-1.29546 l -1.1440597,-1.23439 0.2385154,-0.23851 c 0.1598539,-0.15985 0.257651,-0.22064 0.2965516,-0.18429 0.049211,0.0458 1.4166677,1.16709 2.2947128,1.88135 0.246753,0.20073 0.266528,0.20497 0.388321,0.0832 0.07057,-0.0706 0.114616,-0.17687 0.09786,-0.23621 -0.03115,-0.11033 0.142556,-0.23798 0.219347,-0.16119 0.05509,0.0551 0.308333,-0.20662 0.287074,-0.29667 -0.0094,-0.0399 0.02207,-0.11188 0.07001,-0.15982 0.04794,-0.0479 0.107364,-0.0669 0.132061,-0.0423 0.0247,0.0247 0.10433,-0.0146 0.176966,-0.0872 0.07264,-0.0726 0.124344,-0.16476 0.114912,-0.20472 -0.02528,-0.10705 0.134134,-0.24333 0.23308,-0.19927 0.09129,0.0406 0.286121,-0.18769 0.258818,-0.30335 -0.02139,-0.0906 0.149508,-0.248 0.206953,-0.19056 0.02682,0.0268 0.105542,-0.0223 0.179615,-0.11226 0.126678,-0.15369 0.123911,-0.16905 -0.06998,-0.38942 l -0.201894,-0.22947 0.611004,-0.59061 c 0.844043,-0.81587 0.849203,-0.97522 0.03232,-0.99799 l -0.465061,-0.0129 -0.471044,-0.49653 -0.471027,-0.49655 0.553838,-0.59874 c 0.435624,-0.47095 0.549943,-0.62499 0.535599,-0.72171 -0.01001,-0.0676 -0.05349,-0.53639 -0.09656,-1.04168 l -0.07832,-0.91871 1.087993,-1.12509 c 1.068252,-1.10468 1.092882,-1.13488 1.357272,-1.66409 0.224694,-0.44976 0.327537,-0.59216 0.621174,-0.86007 0.534321,-0.48751 0.935756,-0.6528 1.367183,-0.56293 0.178897,0.0373 0.226427,0.0804 0.483787,0.43906 0.351112,0.48933 0.478891,0.85097 0.589842,1.6694 0.0473,0.34891 0.136504,0.765 0.198232,0.92465 0.06172,0.15966 0.528066,1.12907 1.036311,2.15425 0.920623,1.857 0.924865,1.86417 1.133559,1.91787 0.144052,0.0371 0.267554,0.0142 0.395424,-0.0733 0.236809,-0.16199 1.656235,-1.69282 1.840181,-1.9846 0.151718,-0.24066 0.164276,-0.91213 0.01827,-0.97716 -0.04423,-0.0197 -0.07208,-0.0711 -0.06191,-0.11415 0.01171,-0.0496 -0.0782,-0.15468 -0.2451,-0.28648 -0.298649,-0.23583 -0.469807,-0.54044 -0.555238,-0.98814 -0.03098,-0.16236 -0.117361,-0.34666 -0.202257,-0.43156 -0.176083,-0.17608 -0.327022,-0.5224 -0.372983,-0.85577 -0.01828,-0.13256 -0.108055,-0.33857 -0.199507,-0.45778 -0.18381,-0.23962 -0.354711,-0.7155 -0.331653,-0.92351 0.02162,-0.19503 0.125408,-0.42367 0.284138,-0.62593 0.07656,-0.0976 0.284113,-0.3651 0.461249,-0.59454 0.224226,-0.29046 0.362959,-0.42958 0.456637,-0.458 0.0753,-0.0229 0.412702,-0.31884 0.765756,-0.67189 l 0.631133,-0.63114 0.02249,-0.44996 c 0.02177,-0.43554 0.03071,-0.45713 0.279135,-0.67398 l 0.25665,-0.22403 0.20464,0.25756 c 0.140389,0.1767 0.25973,0.27297 0.380111,0.30662 0.16907,0.0472 0.166417,0.0377 -0.07268,-0.26257 -0.279554,-0.35102 -0.339603,-0.55008 -0.186513,-0.61825 0.08783,-0.0391 0.187188,0.0395 0.707152,0.55945 0.332731,0.33273 0.63583,0.59767 0.673556,0.58878 0.03772,-0.009 0.478725,-0.48732 0.980005,-1.06313 0.501277,-0.57583 1.355922,-1.55215 1.89921,-2.16963 0.543289,-0.61749 1.077671,-1.23489 1.18752,-1.37202 l 0.199722,-0.24931 -0.585779,-0.55579 c -0.322177,-0.30568 -0.839642,-0.8374 -1.149933,-1.18158 l -0.564156,-0.62581 0.129773,-0.12977 c 0.12641,-0.12641 0.123959,-0.13502 -0.0944,-0.33218 l -0.224181,-0.2024 0.163099,-0.1921 c 0.08971,-0.10563 0.274021,-0.25446 0.409582,-0.33072 0.194727,-0.10954 0.248892,-0.16465 0.257977,-0.26249 0.0076,-0.0818 0.23999,-0.36821 0.68412,-0.84322 0.618222,-0.66123 0.665869,-0.72614 0.58925,-0.80276 -0.10495,-0.10495 0.127492,-0.36498 0.269657,-0.30166 0.120107,0.0535 0.290865,-0.11589 0.237598,-0.23556 -0.04663,-0.1047 0.140181,-0.26963 0.245647,-0.2169 0.08221,0.0411 0.305279,-0.16347 0.244507,-0.22425 -0.08176,-0.0818 0.08394,-0.29746 0.202737,-0.26392 0.122221,0.0345 0.361906,-0.15932 0.28818,-0.23305 -0.05847,-0.0584 0.15237,-0.26931 0.246972,-0.24697 0.09459,0.0223 0.305438,-0.18851 0.246972,-0.24698 -0.06169,-0.0617 0.155995,-0.27 0.23884,-0.22858 0.103074,0.0516 0.349581,-0.17088 0.273604,-0.24686 -0.0725,-0.0725 0.119867,-0.29732 0.2141,-0.2502 0.101438,0.0508 0.310492,-0.12715 0.266236,-0.22652 -0.05228,-0.11739 0.09939,-0.26666 0.270956,-0.26665 0.172578,0 0.277496,-0.10492 0.224319,-0.22431 -0.05383,-0.12088 0.136125,-0.31084 0.256998,-0.25701 0.120771,0.0538 0.290735,-0.11617 0.236947,-0.23694 -0.05372,-0.12061 0.09147,-0.26581 0.212093,-0.21209 0.112323,0.05 0.341854,-0.16038 0.269375,-0.24695 -0.02814,-0.0336 -0.09656,-0.1 -0.152051,-0.14754 -0.142641,-0.12223 -0.110239,-0.26192 0.125794,-0.54232 0.161465,-0.19181 1.089583,-1.56163 1.568808,-2.3154 0.06537,-0.10281 0.04856,-0.15351 -0.100227,-0.30228 l -0.178758,-0.17876 -1.107632,1.10762 c -0.609199,0.6092 -1.107627,1.08706 -1.107633,1.0619 -1e-6,-0.0455 1.149386,-1.2039 6.063992,-6.11166 l 2.572556,-2.56895 0.178037,0.17804 c 0.228419,0.22842 0.348378,0.19363 0.763405,-0.2214 0.241857,-0.24186 0.30868,-0.34117 0.27718,-0.41189 1.343665,-1.35833 2.211137,-2.30616 2.894547,-3.0292 z M 22.22028,278.09548 c -0.07067,-0.0432 -0.228925,-0.0424 -0.361203,0.002 l -0.235437,0.0789 -0.500252,-0.47467 c -0.329336,-0.31249 -0.503893,-0.51379 -0.510898,-0.58924 -0.0074,-0.0794 0.09277,-0.21801 0.325435,-0.45068 0.302981,-0.30298 0.340507,-0.32503 0.380978,-0.22381 0.167893,0.41991 0.311905,0.63883 0.522733,0.79468 0.222293,0.16432 0.598596,0.26184 0.683341,0.1771 0.06544,-0.0654 -0.0692,-0.16657 -0.204952,-0.15395 -0.06758,0.006 -0.221438,-0.0417 -0.341901,-0.10661 -0.316498,-0.17057 -0.447412,-0.46531 -0.385892,-0.8688 0.04591,-0.30116 0.07469,-0.34761 0.444387,-0.7173 0.545253,-0.54526 0.606673,-0.54313 1.190793,0.041 l 0.436272,0.43628 0.0032,0.4287 0.0032,0.4287 -0.662076,0.63733 c -0.64451,0.62045 -0.665402,0.63529 -0.787835,0.56041 z m -14.7345436,12.37893 -0.1066751,0.10532 -0.7038226,-0.75556 c -0.3870901,-0.41557 -0.7094522,-0.7626 -0.7163428,-0.77118 -0.0069,-0.008 0.059455,-0.0749 0.1474325,-0.14744 l 0.159959,-0.13182 0.7503776,0.64165 c 0.4127104,0.35291 0.7684012,0.67872 0.7904221,0.72405 0.025588,0.0527 -0.00598,0.10898 -0.087386,0.15597 -0.070084,0.0404 -0.175398,0.12098 -0.2340334,0.17895 z m 5.6747886,-7.57594 c -0.08248,0.0254 -0.305864,0.0621 -0.496402,0.0815 -0.311124,0.0317 -0.366329,0.0154 -0.541639,-0.15996 -0.184763,-0.18476 -0.191878,-0.21909 -0.132962,-0.64203 l 0.06224,-0.44684 0.438149,-0.46815 0.438148,-0.46816 0.464756,-0.0926 c 0.3839,-0.0764 0.497382,-0.0703 0.652288,0.0357 0.262197,0.17936 0.315204,0.37542 0.225618,0.83451 -0.07576,0.3882 -0.08744,0.40707 -0.518864,0.83851 -0.247309,0.2473 -0.507304,0.46167 -0.591334,0.48755 z m -6.983873,2.23801 c -0.086814,-0.0869 -0.05987,-0.11975 0.8082727,-0.98789 0.4939456,-0.49394 0.9065345,-0.88963 0.9168617,-0.8793 0.010335,0.0103 0.062997,0.0385 0.117065,0.0626 0.087664,0.039 -0.00173,0.14377 -0.8270546,0.96911 -0.8954001,0.8954 -0.9282401,0.92243 -1.0151448,0.83553 z m 17.647295,-20.61096 c -0.0247,-0.0247 -0.105525,0.0158 -0.179617,0.0898 -0.07409,0.0741 -0.114504,0.15491 -0.0898,0.17961 0.0247,0.0247 -0.0057,0.0955 -0.06736,0.15716 -0.06175,0.0618 -0.132467,0.0921 -0.157164,0.0673 -0.0247,-0.0247 -0.105526,0.0158 -0.179617,0.0898 -0.07409,0.0741 -0.114504,0.15492 -0.0898,0.17962 0.07166,0.0717 -0.160371,0.2641 -0.263212,0.2183 -0.05126,-0.0229 -0.13425,-4.8e-4 -0.18442,0.0497 -0.05115,0.0512 -0.06162,0.12081 -0.02386,0.15858 0.04436,0.0444 0.02299,0.11172 -0.06255,0.19726 -0.07405,0.074 -0.169983,0.11206 -0.223112,0.0884 -0.05126,-0.0229 -0.132088,-0.003 -0.179615,0.0449 -0.04753,0.0475 -0.06773,0.12835 -0.0449,0.17962 0.02283,0.0513 -0.0075,0.14219 -0.06736,0.20207 -0.05987,0.0598 -0.150805,0.0902 -0.202069,0.0673 -0.05126,-0.0229 -0.134249,-4.8e-4 -0.184419,0.0498 -0.05115,0.0512 -0.06162,0.1208 -0.02386,0.15857 0.0449,0.0449 0.02246,0.11226 -0.06736,0.20208 -0.0898,0.0898 -0.157165,0.11226 -0.202069,0.0673 -0.04191,-0.042 -0.109765,-0.025 -0.179615,0.0449 -0.06986,0.0699 -0.08682,0.1377 -0.0449,0.17961 0.04213,0.0422 0.02479,0.10992 -0.04631,0.18102 -0.06251,0.0625 -0.15561,0.095 -0.206874,0.0722 -0.102839,-0.0458 -0.33487,0.14665 -0.26321,0.21831 0.0247,0.0247 -0.0033,0.0931 -0.06226,0.15207 -0.134148,0.13415 -0.24811,0.0548 -0.951783,-0.66233 l -0.512695,-0.52253 0.538794,-0.51938 c 0.397508,-0.38318 0.58264,-0.52711 0.706004,-0.54884 0.245122,-0.0432 1.459126,-1.25715 1.414663,-1.41462 -0.02512,-0.089 0.06381,-0.19716 0.518628,-0.63089 l 0.548953,-0.52349 0.616531,0.59134 c 0.339093,0.32524 0.632727,0.62772 0.652518,0.67215 0.0419,0.0941 -0.169677,0.32982 -0.236255,0.26324 z"
       id="path4552"
       inkscape:connector-curvature="0"
       sodipodi:nodetypes="cssscccccscccsccccsccccsscccccsccsccccccccccsssssssccsssssssssssssssccsssssssccsccccscccscscscsccccsscsssssssscscsssccsscscssscssssssssssscccccccssccccsccscscsccccsccccccsscccccscsccsssscscccccccccccccscccccscsssscsccssssccccsccscsccccssccsccccccscccccsccccccccscsccscsscscssscccscsccccccccccssscsscscccccscsccccccsccccccccscsssccccsccccccscccscscscscccssccccccccscccssccccccccsccscccsscccccccccscccccccccscccccccscccssscsccsssssssssscscscssssssscssccscccccccc" />
  </g>
</svg>
