<?xml version="1.0" encoding="UTF-8" standalone="no"?>
<!-- Created with Inkscape (http://www.inkscape.org/) -->

<svg
   xmlns:dc="http://purl.org/dc/elements/1.1/"
   xmlns:cc="http://creativecommons.org/ns#"
   xmlns:rdf="http://www.w3.org/1999/02/22-rdf-syntax-ns#"
   xmlns:svg="http://www.w3.org/2000/svg"
   xmlns="http://www.w3.org/2000/svg"
   xmlns:sodipodi="http://sodipodi.sourceforge.net/DTD/sodipodi-0.dtd"
   xmlns:inkscape="http://www.inkscape.org/namespaces/inkscape"
   width="220"
   height="235"
   viewBox="0 0 58.208332 62.177085"
   version="1.1"
   id="svg8"
   inkscape:version="0.92.3 (2405546, 2018-03-11)"
   sodipodi:docname="vss.svg">
  <defs
     id="defs2" />
  <sodipodi:namedview
     id="base"
     pagecolor="#000000"
     bordercolor="#666666"
     borderopacity="1.0"
     inkscape:pageopacity="0"
     inkscape:pageshadow="2"
     inkscape:zoom="3.959798"
     inkscape:cx="169.53373"
     inkscape:cy="123.94941"
     inkscape:document-units="px"
     inkscape:current-layer="layer1"
     showgrid="false"
     units="px"
     inkscape:window-width="3440"
     inkscape:window-height="1377"
     inkscape:window-x="-8"
     inkscape:window-y="-8"
     inkscape:window-maximized="1" />
  <metadata
     id="metadata5">
    <rdf:RDF>
      <cc:Work
         rdf:about="">
        <dc:format>image/svg+xml</dc:format>
        <dc:type
           rdf:resource="http://purl.org/dc/dcmitype/StillImage" />
        <dc:title></dc:title>
      </cc:Work>
    </rdf:RDF>
  </metadata>
  <g
     inkscape:label="Layer 1"
     inkscape:groupmode="layer"
     id="layer1"
     transform="translate(0,-234.8229)">
    <path
       style="fill:none;stroke:#ffffff;stroke-width:0.40000001;stroke-miterlimit:4;stroke-dasharray:none;stroke-opacity:1"
       d="m 29.518962,278.50697 c 0.09866,-0.24815 0.04912,-0.33871 -0.303595,-0.55494 -0.459645,-0.28178 -0.6671,-0.62892 -1.592127,-2.66413 -0.617887,-1.35945 -0.781349,-1.79004 -0.760439,-2.00317 0.01465,-0.14931 0.03553,-0.37057 0.04643,-0.49168 0.01226,-0.13639 -0.03966,-0.27967 -0.136413,-0.37641 -0.156099,-0.15611 -0.156026,-0.15642 0.217346,-0.59873 0.205452,-0.24339 0.886632,-0.95563 1.513739,-1.58273 l 1.140195,-1.14019 0.03899,0.25433 c 0.03646,0.23787 0.554891,1.02201 0.70048,1.05949 0.146552,0.0377 0.14168,-0.0871 -0.01204,-0.30797 -0.568984,-0.81759 -0.591804,-1.04856 -0.145159,-1.46919 0.173176,-0.1631 0.337768,-0.37216 0.365761,-0.46458 0.04869,-0.16083 0.07268,-0.15097 0.558782,0.22999 0.287198,0.22509 0.582563,0.40271 0.679728,0.40877 0.134181,0.008 0.443863,0.25971 1.41343,1.14708 0.682883,0.62498 1.271307,1.13634 1.307612,1.13634 0.06305,0 3.299381,-4.3987 3.329173,-4.52488 0.0079,-0.0334 -0.193407,-0.20251 -0.447331,-0.37569 -0.253935,-0.17317 -0.747242,-0.50929 -1.096247,-0.74694 -1.136774,-0.77407 -1.31714,-0.90599 -2.03298,-1.48696 -0.436645,-0.35438 -0.819748,-0.6114 -1.002884,-0.67283 -0.427536,-0.14342 -0.507781,-0.25499 -0.383489,-0.53322 0.05887,-0.13179 0.562642,-0.96 1.119488,-1.84045 0.556846,-0.88046 1.334084,-2.13655 1.727193,-2.79132 0.393116,-0.65476 0.770353,-1.24607 0.838306,-1.31403 0.06795,-0.0679 0.123559,-0.2018 0.123554,-0.29744 -2e-6,-0.15957 0.445641,-0.61251 5.412651,-5.50142 2.976957,-2.93015 6.653359,-6.55879 8.169785,-8.06364 1.516423,-1.50485 3.093141,-3.05811 3.50381,-3.45169 0.958472,-0.91856 0.972292,-0.99846 0.312559,-1.80529 -0.468905,-0.57346 -1.179573,-1.13943 -1.567438,-1.2483 -0.166893,-0.0468 -0.315574,-0.0967 -0.330409,-0.11075 -0.01485,-0.014 -0.134881,-0.13367 -0.266876,-0.26567 -0.171501,-0.1715 -0.261556,-0.21844 -0.315547,-0.16445 -0.04155,0.0416 -0.211464,0.007 -0.377576,-0.0757 l -0.302024,-0.15131 -0.384007,0.35192 c -0.632979,0.58007 -0.633954,0.58642 -0.162959,1.05742 0.671001,0.67099 0.730605,0.52792 -0.842517,2.02245 -0.741295,0.70424 -2.944337,2.85185 -4.895667,4.77246 -1.951319,1.92059 -4.240208,4.15562 -5.086403,4.96673 l -1.53854,1.47473 -0.224891,-0.22488 c -0.185305,-0.18532 -0.26093,-0.21399 -0.429586,-0.16292 -0.112575,0.0341 -0.224305,0.0424 -0.248287,0.0184 -0.02397,-0.024 -0.164113,0.005 -0.311394,0.0664 -0.204562,0.084 -0.317662,0.18318 -0.479052,0.42011 -0.303223,0.44515 -1.895932,2.04409 -2.148194,2.15658 -0.124887,0.0557 -0.223463,0.14536 -0.245448,0.22328 -0.02386,0.0845 -0.118955,0.15246 -0.271045,0.19361 -0.28776,0.0779 -0.29391,0.14559 -0.02928,0.32201 0.142018,0.0947 0.281909,0.11219 0.455359,0.057 0.244009,-0.0777 0.248469,-0.0755 0.175499,0.083 -0.04118,0.0895 -0.0381,0.19955 0.0068,0.2445 0.04495,0.0449 0.04572,0.11772 0.0017,0.16171 -0.05844,0.0584 -0.141322,0.0191 -0.307477,-0.14585 -0.12507,-0.12426 -0.281839,-0.23804 -0.348282,-0.25297 -0.146065,-0.0328 -0.245183,0.0576 -3.115704,2.84057 -2.016907,1.95541 -2.173177,2.12008 -2.090456,2.20279 0.07376,0.0738 0.04637,0.12227 -0.156444,0.27711 -0.164951,0.12593 -0.23255,0.21755 -0.205439,0.27843 0.03088,0.0694 -0.305778,0.43057 -1.428243,1.53248 -0.807758,0.79297 -1.54944,1.49013 -1.648197,1.54925 -0.109474,0.0656 -0.184928,0.16533 -0.193315,0.25573 -0.01098,0.11812 -0.0713,0.17923 -0.297214,0.30083 -0.190424,0.10262 -0.677622,0.55009 -1.485537,1.36436 -0.661206,0.6664 -1.971673,1.95413 -2.912145,2.86163 -1.859794,1.79456 -1.856048,1.79082 -2.217081,2.20949 -0.135819,0.15752 -0.286019,0.33118 -0.333768,0.38592 -0.04776,0.0547 -0.0958,0.2765 -0.106774,0.49281 -0.0189,0.37259 -0.04011,0.41343 -0.403212,0.77653 l -0.38326,0.38327 0.24307,0.21026 c 0.226332,0.19577 0.255736,0.19983 0.427121,0.0588 l 0.184051,-0.15149 0.0806,0.24109 c 0.0601,0.17978 0.175143,0.31733 0.45237,0.54092 0.307587,0.24808 0.362888,0.31979 0.320315,0.41538 -0.03944,0.0886 0.03718,0.20813 0.328351,0.51239 0.208886,0.21828 0.295701,0.33162 0.192902,0.25189 -0.183738,-0.14253 -0.193466,-0.13951 -0.576942,0.17931 -0.528193,0.43913 -0.606653,0.58766 -0.41285,0.78147 l 0.153779,0.15378 -0.504684,0.50468 c -0.388107,0.3881 -0.54389,0.59573 -0.674435,0.89886 -0.09336,0.2168 -0.242524,0.53741 -0.331459,0.71248 -0.336743,0.66281 -4.656594,5.10523 -8.5452643,8.78773 -2.826766,2.67689 -4.101134,3.96061 -4.096006,4.12603 0.0023,0.0722 0.09826,0.25653 0.213385,0.40959 0.170842,0.22711 0.255028,0.28373 0.457899,0.30796 0.151984,0.0182 0.24052,0.0637 0.227846,0.11751 -0.02822,0.11952 0.189611,0.32684 0.34341,0.32684 0.09569,0 0.143236,0.0485 0.202228,0.20626 0.06393,0.17095 0.107411,0.20777 0.253982,0.21507 0.148428,0.007 0.189615,0.043 0.256375,0.22147 0.06847,0.18309 0.101884,0.20918 0.240375,0.18769 0.137583,-0.0214 0.172154,0.005 0.238967,0.1839 0.06099,0.16307 0.11471,0.21734 0.245004,0.24742 0.130103,0.0301 0.175408,0.0755 0.205683,0.2065 0.03077,0.13311 0.08173,0.18091 0.245758,0.2306 0.151422,0.0458 0.210152,0.0972 0.218913,0.19129 0.01268,0.13642 0.125828,0.24615 0.293767,0.2849 0.05602,0.0129 0.136461,0.11602 0.178749,0.22914 0.06079,0.16255 0.114019,0.21423 0.25399,0.24657 0.127003,0.0293 0.177069,0.0735 0.177071,0.15635 -2e-6,0.16562 0.157552,0.2998 0.351996,0.29979 0.09218,1e-5 0.142746,0.0249 0.112354,0.0553 -0.101987,0.10199 0.02978,0.3785 0.205753,0.43178 0.117073,0.0354 0.172619,0.0955 0.200737,0.21718 0.02811,0.12165 0.08868,0.18717 0.218921,0.23686 0.135202,0.0515 0.190115,0.11663 0.220432,0.26115 0.03227,0.15387 0.07712,0.20358 0.223601,0.24795 0.153649,0.0466 0.179077,0.0822 0.157497,0.22118 -0.02198,0.14161 0.0042,0.17689 0.1797303,0.24255 0.169218,0.0633 0.206968,0.10726 0.214058,0.24945 0.01161,0.23272 0.33971,0.54728 0.59932,0.57456 l 0.210934,0.0222 4.581211,-4.8032 c 7.50068,-7.86409 7.995024,-8.37182 8.44549,-8.67418 0.221353,-0.14858 0.77775,-0.45102 1.236432,-0.67212 l 0.833973,-0.40197 1.646027,-1.60724 c 0.938661,-0.91658 1.674042,-1.67768 1.711191,-1.77117 z m -7.106103,3.9456 -1.283754,1.21904 -0.374639,0.0435 c -0.402968,0.0468 -0.913287,-0.10323 -1.152631,-0.33879 -0.185882,-0.18306 -1.709389,-3.57196 -1.72244,-3.83163 -0.0053,-0.10525 0.03517,-0.32953 0.08992,-0.49839 0.09345,-0.28829 0.203641,-0.40916 1.805639,-1.98095 1.65711,-1.62587 1.716845,-1.67759 2.079474,-1.80087 0.304423,-0.1035 0.433779,-0.0999 0.700579,0.0195 0.419592,0.18768 0.648517,0.48686 1.023017,1.33701 0.158117,0.35896 0.47562,1.06449 0.705555,1.56788 0.708909,1.55196 0.694406,1.90944 -0.106243,2.61884 -0.264389,0.23427 -1.058409,0.97449 -1.764471,1.64496 z m -8.181042,7.74398 c -0.223518,0.11603 -0.440667,0.15935 -0.654492,0.13056 -0.184544,-0.0248 -0.932608,-0.34523 -1.767281,-0.75693 -1.236194,-0.60973 -1.501373,-0.76773 -1.8180553,-1.08314 -0.421427,-0.41982 -0.520159,-0.71384 -0.412788,-1.22983 l 0.06256,-0.30065 2.1238463,-2.05854 c 2.122254,-2.05698 2.124158,-2.05864 2.538286,-2.20585 0.808205,-0.28727 1.171975,0.0242 1.958704,1.67713 0.964465,2.02636 1.047257,2.24071 1.026148,2.65687 l -0.01955,0.3854 -1.351436,1.30567 c -1.000118,0.96625 -1.438384,1.35079 -1.685931,1.4793 z m 12.318875,-18.32203 c -0.03102,-0.031 0.03851,-0.1513 0.154515,-0.2673 0.23666,-0.23666 0.241851,-0.22363 -0.387911,-0.97207 l -0.304625,-0.36203 -0.259769,0.24527 c -0.142873,0.13488 -0.216168,0.18084 -0.162886,0.10212 0.05328,-0.0787 0.07652,-0.16347 0.05163,-0.18836 -0.02489,-0.0249 -0.06884,-0.0982 -0.09768,-0.16297 -0.03773,-0.0846 -0.115162,-0.0874 -0.276244,-0.01 -0.164103,0.0793 -0.256975,0.075 -0.348065,-0.0161 -0.134163,-0.13416 -0.120609,-0.57002 0.02215,-0.71278 0.09781,-0.0978 0.448959,0.051 0.963446,0.40823 0.47781,0.33179 0.755802,0.39919 1.218793,0.29555 0.448209,-0.10034 0.522872,-0.14368 0.42173,-0.24482 -0.03767,-0.0377 -0.18322,-0.0389 -0.323444,-0.003 -0.31605,0.0813 -0.662649,-0.0232 -0.915554,-0.27611 -0.235173,-0.23518 -0.297668,-0.42557 -0.277858,-0.84658 0.01517,-0.32245 0.01585,-0.32341 0.746938,-1.05762 l 0.731707,-0.73494 0.958941,0.95895 0.95894,0.95893 -1.137027,1.16578 c -0.625371,0.64117 -1.259513,1.30301 -1.409207,1.47074 -0.167519,0.18768 -0.293874,0.28326 -0.328569,0.24857 z"
       id="path823"
       inkscape:connector-curvature="0" />
  </g>
</svg>
