<?xml version="1.0" encoding="UTF-8" standalone="no"?>
<!-- Created with Inkscape (http://www.inkscape.org/) -->

<svg
   xmlns:dc="http://purl.org/dc/elements/1.1/"
   xmlns:cc="http://creativecommons.org/ns#"
   xmlns:rdf="http://www.w3.org/1999/02/22-rdf-syntax-ns#"
   xmlns:svg="http://www.w3.org/2000/svg"
   xmlns="http://www.w3.org/2000/svg"
   xmlns:sodipodi="http://sodipodi.sourceforge.net/DTD/sodipodi-0.dtd"
   width="220"
   height="235"
   viewBox="0 0 58.208332 62.177085"
   version="1.1"
   id="svg8"
   sodipodi:docname="fast-helmet.svg">
  <defs
     id="defs2" />
  <sodipodi:namedview
     id="base"
     pagecolor="#000000"
     bordercolor="#666666"
     borderopacity="1.0"
     showgrid="false"
     units="px" />
  <metadata
     id="metadata5">
    <rdf:RDF>
      <cc:Work
         rdf:about="">
        <dc:format>image/svg+xml</dc:format>
        <dc:type
           rdf:resource="http://purl.org/dc/dcmitype/StillImage" />
        <dc:title></dc:title>
      </cc:Work>
    </rdf:RDF>
  </metadata>
  <g
     id="layer1"
     transform="translate(0,-234.8229)">
    <path
       style="fill:none;stroke:#ffffff;stroke-width:0.40000001;stroke-miterlimit:4;stroke-dasharray:none;stroke-opacity:1"
       d="m 33.297624,295.58711 c 0.09741,-0.10406 0.146724,-0.26382 0.240164,-0.7779 0.153874,-0.84654 0.152321,-0.8763 -0.05848,-1.12865 -0.09761,-0.11684 -0.17748,-0.25017 -0.177423,-0.29635 6.3e-5,-0.10247 0.210025,-0.31994 0.478435,-0.49555 0.197311,-0.12911 0.201702,-0.12958 0.380313,-0.0417 0.13977,0.0688 0.404649,0.10021 1.169519,0.13864 1.465058,0.0736 1.5862,0.0669 1.838115,-0.10234 0.417306,-0.28028 0.646175,-0.76131 0.512966,-1.07815 -0.03806,-0.0905 -0.06949,-0.202 -0.06997,-0.24754 -3.88e-4,-0.0456 -0.07799,-0.17415 -0.172389,-0.28566 -0.197244,-0.23317 -0.0843,-0.22275 -1.568709,-0.14572 -0.469911,0.0244 -0.877297,0.0301 -0.905299,0.0127 -0.08612,-0.0534 0.04566,-0.23251 0.199072,-0.27044 0.07749,-0.0192 0.247565,-0.12445 0.378076,-0.23401 0.130504,-0.10959 0.256426,-0.19922 0.279803,-0.19922 0.02336,3e-5 0.126473,-0.057 0.229074,-0.12677 0.145268,-0.0987 0.250761,-0.12678 0.47667,-0.12678 0.427344,0 0.953965,-0.1 0.885766,-0.1682 -0.06582,-0.0658 -0.0733,-0.23745 -0.01035,-0.23745 0.02449,3e-5 0.0728,0.0686 0.107502,0.15219 0.03473,0.0835 0.08441,0.15215 0.110645,0.15208 0.08716,5e-5 0.609271,-0.52862 0.8013,-0.81134 0.363668,-0.53545 0.628467,-1.19121 0.782313,-1.93743 0.10714,-0.51967 0.1019,-0.65301 -0.03351,-0.85228 -0.09598,-0.14124 -0.150284,-0.17079 -0.342282,-0.18578 -0.420112,-0.0329 -0.452588,-0.0509 -0.487415,-0.2686 -0.01761,-0.10996 -0.04631,-0.19817 -0.0638,-0.19603 -0.08873,0.011 -0.126488,-0.0139 -0.07267,-0.0482 0.04415,-0.028 0.04738,-0.0931 0.0118,-0.24009 -0.02684,-0.11085 -0.06354,-0.34987 -0.08155,-0.53114 -0.08462,-0.85176 -0.01346,-1.16156 0.343508,-1.49547 l 0.245741,-0.22987 0.293073,0.0352 c 0.315154,0.038 0.355713,0.0395 0.615277,0.0258 0.241107,-0.0128 0.683099,-0.47604 0.957501,-1.00347 0.326113,-0.62682 0.469056,-1.18772 0.475071,-1.86413 0.0065,-0.72981 0.0042,-0.84227 -0.03371,-1.62911 -0.02789,-0.57908 -0.04503,-0.67369 -0.141134,-0.77832 -0.161819,-0.17455 -0.563707,-0.36415 -0.848571,-0.39789 -0.137258,-0.0162 -0.285585,-0.056 -0.329627,-0.0881 -0.08146,-0.0597 -0.200411,-0.57946 -0.273258,-1.19503 -0.02145,-0.18128 -0.07654,-0.47096 -0.122431,-0.64373 -0.162833,-0.61312 -0.122653,-1.59645 0.09387,-2.29732 0.06463,-0.20918 0.131399,-0.49442 0.148388,-0.63386 0.01698,-0.13946 0.06517,-0.35624 0.107068,-0.48174 0.04191,-0.12549 0.120422,-0.41073 0.174481,-0.63384 0.224191,-0.92518 0.415388,-1.46791 0.607361,-1.72408 0.104496,-0.13943 0.219712,-0.31059 0.256065,-0.38031 0.03634,-0.0697 0.159862,-0.23115 0.274484,-0.35876 0.114686,-0.12755 0.294729,-0.36719 0.400216,-0.53244 0.225418,-0.35314 0.581553,-0.87538 0.794521,-1.1651 0.08306,-0.11299 0.212691,-0.34118 0.28807,-0.50708 0.07537,-0.16588 0.18735,-0.37008 0.24886,-0.45375 0.0615,-0.0836 0.174253,-0.31186 0.250552,-0.50707 0.07631,-0.19525 0.165909,-0.3892 0.199121,-0.43104 0.03316,-0.0419 0.113505,-0.20155 0.178433,-0.35495 0.06493,-0.15339 0.204433,-0.46144 0.310019,-0.68456 0.105585,-0.22312 0.205138,-0.45144 0.221226,-0.50736 0.0701,-0.24362 0.694306,-1.36298 1.02902,-1.84527 0.46313,-0.66734 0.721725,-1.31808 0.901607,-2.26885 0.07205,-0.38078 0.249023,-0.83357 0.716134,-1.83224 0.09487,-0.20279 0.17248,-0.39017 0.172473,-0.41637 8.4e-5,-0.0552 0.161015,-0.10107 0.963454,-0.27478 3.239162,-0.701 6.417479,-1.56075 7.159038,-1.93653 0.418298,-0.21196 0.443165,-0.4228 0.142929,-1.21234 -0.111565,-0.29335 -0.202839,-0.55518 -0.202831,-0.58183 5.7e-5,-0.11308 0.192637,-0.15251 0.374097,-0.0767 0.476178,0.19898 1.051523,-0.005 1.28597,-0.45585 0.104468,-0.2009 0.09995,-0.62126 -0.009,-0.83184 -0.204445,-0.39535 -0.668288,-0.71595 -1.035844,-0.71595 -0.05952,2e-5 -0.108187,-0.0109 -0.108138,-0.0243 2.9e-5,-0.0457 0.24371,-0.67166 0.400752,-1.02947 0.183678,-0.4185 0.204627,-0.69209 0.05896,-0.77004 -0.054,-0.0288 -0.200833,-0.0525 -0.326482,-0.0524 h -0.228398 l -0.408789,-0.67938 -0.408792,-0.67936 -0.0017,-0.39818 c -0.0023,-0.51851 -0.107309,-1.08885 -0.264667,-1.43769 -0.169636,-0.37603 -0.605889,-1.02745 -1.341392,-2.00298 -0.792808,-1.05151 -1.46807,-1.8311 -2.481637,-2.865 l -0.820178,-0.83672 -1.893357,-0.91966 c -1.041364,-0.50579 -2.263738,-1.06262 -2.716412,-1.2374 -0.500274,-0.19313 -0.833538,-0.34951 -0.849787,-0.39876 -0.074,-0.22401 -0.364904,-0.46942 -0.700057,-0.59046 -0.305183,-0.11019 -0.427373,-0.12443 -1.068512,-0.12444 -0.521314,1e-5 -0.788593,0.0221 -0.954945,0.0787 l -0.231008,0.0787 -0.88092,-0.27725 c -1.308343,-0.41175 -2.936313,-0.79142 -4.35443,-1.01547 -0.446019,-0.0705 -2.311519,-0.28261 -3.1946,-0.36326 -0.226262,-0.0207 -0.528461,-0.0934 -0.746064,-0.17956 -0.457194,-0.18106 -0.808355,-0.23703 -1.738633,-0.27716 -1.65035,-0.0712 -5.348705,0.21372 -7.378025,0.56839 -3.053936,0.53371 -4.417902,0.87617 -5.73806,1.4407 -1.096054,0.46868 -2.6788,1.17658 -2.725966,1.2192 -0.02553,0.0231 -0.04648,0.10959 -0.04648,0.19218 -4.4e-5,0.13827 -0.04476,0.1756 -0.562012,0.46909 -1.17682,0.66774 -2.460785,1.5749 -3.463541,2.4471 -0.6691964,0.58207 -1.8971142,1.82767 -2.388192,2.42258 -3.5030524,4.24377 -5.0942948,9.50663 -4.8347006,15.99022 0.031239,0.7804 0.089258,1.69273 0.1289176,2.0274 0.1987267,1.67697 0.1995123,1.68794 0.1411237,1.98862 -0.031325,0.16129 -0.091771,0.47312 -0.1343242,0.69298 -0.042572,0.21985 -0.09183,0.55508 -0.1094778,0.74497 -0.029969,0.32244 -0.02326,0.35575 0.1016806,0.50424 0.1558887,0.1853 0.1690543,0.3658 0.05772,0.79324 -0.085596,0.32864 -0.098024,0.69062 -0.031224,0.90966 0.024664,0.0808 0.091427,0.30674 0.1483594,0.50197 0.057,0.19517 0.1624479,0.54891 0.2344696,0.78597 0.09925,0.32672 0.1236871,0.49238 0.1009062,0.68456 -0.031868,0.2689 0.078449,0.59105 0.7379508,2.15509 0.1352342,0.32073 0.3015839,0.72006 0.36965,0.88739 0.068131,0.16727 0.2919135,0.69217 0.4974623,1.16626 0.4579323,1.05631 0.5694741,1.18579 1.2404131,1.43972 0.2499234,0.0947 0.4886455,0.20079 0.5304772,0.23602 0.04133,0.0357 0.2243155,0.14045 0.4056643,0.23368 0.2826179,0.14544 0.3838204,0.17036 0.7099119,0.17472 0.4311548,0.005 0.5663932,0.0615 1.0630191,0.43862 0.1744821,0.13248 0.3614772,0.24084 0.4154797,0.24086 0.053959,8e-5 0.2645385,0.0913 0.4677971,0.20283 0.214968,0.11796 0.437795,0.20284 0.53264,0.20283 0.08967,10e-6 0.379478,0.0921 0.644009,0.20472 0.264532,0.11257 0.503449,0.19079 0.530952,0.17379 0.02751,-0.0169 0.231318,0.0609 0.45297,0.17293 0.221666,0.11206 0.499675,0.21824 0.61788,0.23587 0.118221,0.0177 0.272929,0.0729 0.343868,0.12282 0.222701,0.1568 0.551268,0.30687 0.672042,0.30699 0.06384,7e-5 0.28726,0.11347 0.496427,0.25204 0.249311,0.16517 0.435173,0.25243 0.539585,0.25342 0.09965,9.4e-4 0.251505,0.068 0.405658,0.17924 0.280582,0.20238 0.491688,0.31084 0.6827,0.3507 0.0726,0.0152 0.273134,0.15349 0.445638,0.30733 0.172434,0.15391 0.355154,0.27978 0.405956,0.27981 0.112642,-7e-5 0.412603,0.19794 0.701271,0.46262 0.117259,0.10877 0.246009,0.19651 0.284535,0.19657 0.03859,-10e-6 0.217566,0.15407 0.397851,0.34227 0.180698,0.18777 0.405011,0.3879 0.499515,0.44366 0.0945,0.0558 0.256004,0.21315 0.358557,0.35007 0.103048,0.13642 0.28992,0.31184 0.415279,0.38982 0.125374,0.078 0.315786,0.24776 0.423146,0.37733 0.107436,0.1295 0.264025,0.26968 0.347432,0.31207 0.08367,0.0421 0.323284,0.24621 0.532377,0.45361 0.208951,0.20754 0.602569,0.59408 0.874556,0.85914 0.271348,0.26569 0.586323,0.60683 0.698891,0.75914 0.112568,0.15231 0.225316,0.27693 0.250527,0.27697 0.02536,-1e-4 0.173265,0.19335 0.328885,0.42972 0.155685,0.23629 0.326456,0.45303 0.379714,0.48139 0.126286,0.0676 0.252338,0.3239 0.230867,0.46969 -0.0094,0.0633 -0.0771,0.28192 -0.150643,0.48589 -0.112272,0.31139 -0.125015,0.3972 -0.07946,0.53521 0.09912,0.30031 0.722299,0.79853 1.75164,1.39999 0.251031,0.14666 0.554989,0.35726 0.67552,0.46795 0.360827,0.33127 0.930823,0.52219 1.675676,0.56115 0.207921,0.0109 0.226204,0.024 0.299211,0.21436 0.04278,0.11151 0.131322,0.2755 0.196895,0.36425 0.06553,0.0887 0.119158,0.19595 0.119191,0.23813 5.7e-5,0.0421 0.09127,0.2531 0.202828,0.46867 0.116814,0.22585 0.202826,0.46313 0.202835,0.55982 -2.1e-5,0.10407 0.08676,0.32475 0.228188,0.58039 0.125503,0.2269 0.228183,0.42241 0.228182,0.4345 3.54e-4,0.0117 0.08907,0.16954 0.197845,0.34999 0.165553,0.27444 0.19356,0.35998 0.171599,0.52373 -0.01449,0.1077 0.0038,0.28395 0.04062,0.39179 0.03681,0.1078 0.06082,0.22642 0.05342,0.26353 -0.03091,0.15519 0.140897,0.29736 0.482995,0.39955 1.680002,0.50232 1.790872,0.52777 2.374959,0.54524 0.251005,0.007 0.570469,0.0302 0.709912,0.0503 0.231152,0.0335 0.264363,0.0252 0.37611,-0.0942 z m -1.835807,-5.66199 c -0.07885,-0.20655 -0.176271,-0.41199 -0.216534,-0.45647 -0.04023,-0.0445 -0.07317,-0.16127 -0.07319,-0.25945 2.8e-5,-0.11622 -0.0509,-0.24884 -0.145793,-0.37982 -0.08024,-0.11064 -0.162308,-0.25678 -0.182568,-0.32453 -0.02019,-0.0679 -0.108612,-0.19375 -0.196425,-0.27986 -0.08765,-0.0862 -0.21928,-0.23441 -0.292042,-0.32966 -0.08837,-0.11552 -0.220642,-0.20381 -0.397665,-0.26558 -0.145903,-0.0509 -0.276159,-0.0816 -0.289447,-0.0684 -0.01334,0.0134 -0.044,0.13477 -0.06828,0.26996 l -0.04412,0.24582 0.02396,-0.27888 c 0.01319,-0.15339 0.03688,-0.42722 0.05266,-0.6085 0.03537,-0.4064 -0.06818,-1.39543 -0.165966,-1.58521 -0.03973,-0.0769 -0.150209,-0.19108 -0.246004,-0.25308 l -0.173355,-0.11353 0.0022,-1.03951 c 0.0012,-0.57173 -0.01783,-1.1308 -0.04229,-1.24236 -0.08397,-0.38301 0.0168,-2.13416 0.135577,-2.35609 0.02764,-0.0517 0.06287,-0.26146 0.07827,-0.46622 0.0154,-0.20475 0.04856,-0.44074 0.07365,-0.52442 0.02513,-0.0836 0.05794,-0.31893 0.07298,-0.5228 0.01505,-0.20388 0.04912,-0.45488 0.07572,-0.55779 0.02663,-0.10291 0.04544,-0.35825 0.04185,-0.56741 -0.0036,-0.2127 0.02022,-0.42914 0.05416,-0.49108 0.08261,-0.15071 0.08058,-0.62427 -0.0027,-0.62528 -0.04206,-6.2e-4 -0.04529,-0.0133 -0.0096,-0.038 0.08365,-0.0579 0.172672,-0.55327 0.179772,-1.00072 0.0035,-0.22312 0.0078,-0.47867 0.0095,-0.5679 0.0017,-0.0926 0.02443,-0.14902 0.05277,-0.13153 0.02853,0.0186 0.03843,-0.0122 0.02259,-0.073 -0.04858,-0.18575 0.0229,-0.22562 0.256659,-0.14314 0.286954,0.10129 0.564318,0.23077 0.717937,0.33526 0.06975,0.0474 0.22949,0.10305 0.354962,0.12379 0.125493,0.0207 0.323302,0.093 0.439563,0.16071 0.116232,0.0677 0.362308,0.1663 0.546787,0.21906 0.184526,0.0527 0.410364,0.14225 0.501986,0.19887 0.09166,0.0566 0.310419,0.1365 0.486203,0.17751 0.175803,0.041 0.368189,0.11916 0.427565,0.17364 0.05904,0.0548 0.233463,0.15088 0.386839,0.21421 0.153331,0.0634 0.358754,0.20104 0.456364,0.30605 0.09778,0.10485 0.273726,0.24954 0.39156,0.32099 0.117689,0.0716 0.248491,0.19687 0.290173,0.27886 0.0422,0.0815 0.191067,0.22246 0.331038,0.31308 0.174649,0.11313 0.254475,0.19875 0.254408,0.27321 -4.2e-5,0.10603 0.139533,0.32772 0.316923,0.50367 0.0488,0.0484 0.08872,0.15675 0.08874,0.24068 7e-6,0.0979 0.06146,0.22847 0.171297,0.36402 0.09427,0.11619 0.187172,0.26325 0.206669,0.32659 0.03977,0.12958 0.806154,0.93202 0.971597,1.01728 0.08865,0.0458 0.111513,0.11434 0.131807,0.3999 0.0176,0.24596 0.08614,0.49706 0.239316,0.87664 l 0.214641,0.53195 -0.240939,0.20283 c -0.40467,0.34067 -0.9372,0.90105 -1.067753,1.12364 -0.06804,0.11599 -0.158314,0.22417 -0.200634,0.2404 -0.04233,0.0162 -0.143656,0.17669 -0.225221,0.35657 -0.08156,0.17988 -0.179936,0.34553 -0.218605,0.36808 -0.08046,0.047 -0.286344,0.43331 -0.286347,0.53725 -6.3e-5,0.0381 -0.05913,0.12457 -0.131401,0.19219 -0.1344,0.12577 -0.324976,0.47033 -0.324969,0.58765 7e-6,0.0359 -0.05269,0.0999 -0.117097,0.14209 -0.121672,0.0797 -0.339291,0.44088 -0.339287,0.5631 -7e-6,0.0386 -0.05853,0.10845 -0.130079,0.15533 -0.07157,0.0469 -0.199616,0.22299 -0.284596,0.39137 -0.08499,0.16837 -0.209757,0.34955 -0.277264,0.40266 -0.06752,0.0531 -0.179202,0.20798 -0.248216,0.34417 -0.06901,0.13619 -0.178933,0.28265 -0.244277,0.32545 -0.06534,0.0429 -0.181005,0.19218 -0.257076,0.33192 -0.07607,0.13975 -0.192722,0.28976 -0.259253,0.33336 -0.06647,0.0435 -0.201931,0.20123 -0.300881,0.35029 -0.09896,0.14908 -0.224245,0.28513 -0.278409,0.30232 -0.05414,0.0171 -0.181373,0.14417 -0.282654,0.28213 -0.101286,0.13798 -0.204856,0.25087 -0.230156,0.25087 -0.02538,8e-5 -0.107438,0.069 -0.182532,0.15323 -0.07512,0.0843 -0.160372,0.14529 -0.189512,0.13556 -0.02921,-0.01 -0.117513,-0.18666 -0.19633,-0.39326 z m -6.078622,-4.96317 c -0.06521,-0.0819 -0.158916,-0.20658 -0.20823,-0.27696 -0.05853,-0.0836 -0.119885,-0.11847 -0.177453,-0.0998 -0.06555,0.021 -0.07079,0.0159 -0.02056,-0.0199 0.05139,-0.037 0.02694,-0.0719 -0.103755,-0.14915 -0.09406,-0.0555 -0.227018,-0.1737 -0.295401,-0.26273 -0.266241,-0.34629 -0.415625,-0.51306 -0.459694,-0.51301 -0.07437,2e-5 -0.446758,-0.28559 -0.559787,-0.42925 -0.05735,-0.0729 -0.272728,-0.24615 -0.478642,-0.38503 -0.205838,-0.13894 -0.422415,-0.31762 -0.481171,-0.39716 -0.05877,-0.0796 -0.253332,-0.24202 -0.432845,-0.36058 -0.179297,-0.11877 -0.342639,-0.24407 -0.362991,-0.27842 -0.021,-0.0337 -0.205766,-0.17876 -0.412144,-0.32079 -0.206454,-0.14196 -0.443176,-0.34036 -0.526032,-0.4409 -0.09043,-0.1098 -0.179183,-0.17211 -0.223148,-0.15498 -0.04035,0.0155 -0.0588,0.005 -0.04154,-0.0223 0.01704,-0.0276 -0.02529,-0.0717 -0.09461,-0.0974 -0.06883,-0.0263 -0.269922,-0.19483 -0.446691,-0.37485 -0.176993,-0.17982 -0.397541,-0.36544 -0.490487,-0.41214 -0.09301,-0.0466 -0.271656,-0.19175 -0.397137,-0.32232 -0.125909,-0.13016 -0.262761,-0.23024 -0.305121,-0.2214 -0.04237,0.009 -0.06329,-0.005 -0.04631,-0.0336 0.0169,-0.0272 -0.07264,-0.0995 -0.198905,-0.16058 -0.126234,-0.0612 -0.323941,-0.2019 -0.439483,-0.31277 -0.11534,-0.1111 -0.360256,-0.27159 -0.543962,-0.35695 -0.183695,-0.0854 -0.381846,-0.19835 -0.440322,-0.2511 -0.09764,-0.0892 -0.517305,-0.27093 -0.755727,-0.32883 -0.05574,-0.0136 -0.238359,-0.0902 -0.405657,-0.17033 -0.167312,-0.0802 -0.441167,-0.17364 -0.608504,-0.2078 -0.167406,-0.0341 -0.384112,-0.10129 -0.481727,-0.14908 -0.09763,-0.0478 -0.35437,-0.12336 -0.570572,-0.16784 -0.216201,-0.0445 -0.444391,-0.11421 -0.507082,-0.15493 -0.06266,-0.0408 -0.285131,-0.13661 -0.494302,-0.21307 -0.209203,-0.0764 -0.466726,-0.19278 -0.572338,-0.2585 -0.105587,-0.0657 -0.217557,-0.10371 -0.248705,-0.0844 -0.03118,0.0193 -0.04302,0.0128 -0.0259,-0.0146 0.01676,-0.0271 -0.105489,-0.11114 -0.270929,-0.18749 -0.165679,-0.0762 -0.356257,-0.18924 -0.423419,-0.25148 -0.06684,-0.0626 -0.289657,-0.1785 -0.49459,-0.25817 -0.204885,-0.0797 -0.436994,-0.19897 -0.515842,-0.26491 -0.07878,-0.066 -0.204356,-0.13294 -0.278867,-0.1489 -0.348733,-0.0744 -0.354279,-0.0937 -0.08356,-0.28855 0.290267,-0.20898 0.367653,-0.32613 0.580582,-0.87888 0.356495,-0.92544 0.608732,-2.21102 0.610554,-3.11183 3.87e-4,-0.21023 0.01911,-0.41111 0.04151,-0.44641 0.02249,-0.0352 0.210308,-0.10117 0.417565,-0.1465 0.658234,-0.1438 4.446018,-0.12347 5.523708,0.0296 0.20916,0.0297 0.982938,0.0754 1.719488,0.10128 1.343275,0.0473 1.762931,0.0224 3.0784,-0.18392 0.197782,-0.0309 0.379302,0.0634 0.695516,0.36191 0.134566,0.12749 0.272835,0.23139 0.306833,0.23131 0.03393,-2e-5 0.203215,0.11412 0.376292,0.25354 0.17301,0.13949 0.339216,0.25351 0.369204,0.25352 0.03,1e-5 0.172497,0.0763 0.316643,0.16963 0.144115,0.0933 0.364847,0.22097 0.490321,0.28379 0.125472,0.0628 0.270409,0.1519 0.322029,0.19801 0.0517,0.046 0.183113,0.12951 0.292317,0.18526 0.109122,0.0558 0.461588,0.26115 0.783157,0.45637 0.544301,0.33046 0.582222,0.36371 0.54943,0.48169 -0.01939,0.0697 -0.04126,0.2751 -0.04859,0.45637 -0.0074,0.18129 -0.03813,0.40932 -0.06842,0.50676 -0.03029,0.0974 -0.05509,0.28525 -0.05509,0.41738 0,0.22983 -0.01629,0.36228 -0.179441,1.45914 -0.03941,0.26494 -0.08563,0.65286 -0.102708,0.86204 -0.03423,0.41924 -0.09257,1.04958 -0.175963,1.90156 -0.144499,1.47633 -0.254057,2.77482 -0.280207,3.32137 -0.05336,1.11493 -0.07516,1.65555 -0.07157,1.77478 0.01013,0.33613 -0.06735,0.87001 -0.13623,0.93889 -0.120892,0.12088 -0.300704,0.0902 -0.431168,-0.0737 z m 12.631278,-7.27443 c -0.0994,-0.12953 -0.308025,-0.3151 -0.463511,-0.41246 -0.155578,-0.0973 -0.320579,-0.23445 -0.366652,-0.30485 -0.04651,-0.0708 -0.10927,-0.1121 -0.140211,-0.0931 -0.0333,0.0207 -0.04205,0.0117 -0.02148,-0.0216 0.02043,-0.0329 -0.03412,-0.0917 -0.131668,-0.14157 -0.09157,-0.0469 -0.269095,-0.17024 -0.394656,-0.27402 -0.238638,-0.19749 -0.506499,-0.35259 -0.618647,-0.35834 -0.03616,-0.002 -0.168579,-0.0819 -0.294067,-0.17781 -0.125506,-0.0959 -0.320241,-0.21701 -0.432734,-0.26904 -0.112457,-0.0521 -0.276985,-0.177 -0.365394,-0.27786 -0.111398,-0.12681 -0.18909,-0.17396 -0.251835,-0.15383 -0.06718,0.0218 -0.07326,0.0167 -0.02331,-0.0191 0.0509,-0.0365 0.01186,-0.0808 -0.15947,-0.18125 -0.12477,-0.0731 -0.284767,-0.20175 -0.355458,-0.28588 -0.0828,-0.0982 -0.157268,-0.14185 -0.208784,-0.12209 -0.05738,0.022 -0.07155,0.008 -0.05023,-0.0474 0.02062,-0.0538 -0.023,-0.10502 -0.138918,-0.16324 -0.09297,-0.0467 -0.260233,-0.1717 -0.371778,-0.27773 -0.111592,-0.10594 -0.307513,-0.24119 -0.435372,-0.30046 -0.127891,-0.0593 -0.284356,-0.17772 -0.347644,-0.26335 -0.06336,-0.0856 -0.211152,-0.19843 -0.329,-0.25023 -0.117636,-0.052 -0.314826,-0.18232 -0.43835,-0.28938 -0.123431,-0.10717 -0.301656,-0.22599 -0.395961,-0.26416 -0.09436,-0.0381 -0.276963,-0.1518 -0.405661,-0.25281 -0.128711,-0.10099 -0.302487,-0.21212 -0.386224,-0.24692 -0.289555,-0.12071 -0.368431,-0.22529 -0.410353,-0.54471 -0.04662,-0.35467 -0.03647,-0.47792 0.05797,-0.70393 0.04148,-0.0994 0.0674,-0.32135 0.06305,-0.54147 -0.0044,-0.22013 0.0192,-0.42232 0.05748,-0.49348 0.05327,-0.099 0.05261,-0.12828 -0.0037,-0.16402 -0.05438,-0.0344 -0.0511,-0.044 0.01426,-0.0443 0.06562,-5.7e-4 0.08707,-0.0674 0.10324,-0.32126 0.0144,-0.22595 0.05179,-0.3604 0.126841,-0.45579 0.05853,-0.0744 0.122421,-0.24395 0.141983,-0.37675 0.01957,-0.1328 0.10082,-0.35616 0.180578,-0.49637 0.07975,-0.14019 0.170325,-0.36788 0.201269,-0.50596 0.03096,-0.1381 0.114594,-0.32755 0.185887,-0.42101 0.07128,-0.0935 0.159863,-0.28462 0.19685,-0.42482 0.03698,-0.1402 0.12551,-0.33898 0.196729,-0.44175 0.07123,-0.10277 0.1492,-0.29236 0.17329,-0.4213 0.02409,-0.12897 0.101551,-0.33339 0.172143,-0.45431 0.0706,-0.1209 0.164813,-0.36289 0.209392,-0.53773 0.04457,-0.17486 0.128487,-0.38207 0.186469,-0.46049 0.058,-0.0785 0.12267,-0.26966 0.143748,-0.42495 0.02107,-0.15529 0.07641,-0.34048 0.122988,-0.41155 0.04663,-0.0712 0.07138,-0.17036 0.05511,-0.22062 -0.02189,-0.0676 -0.01694,-0.0738 0.01874,-0.0238 0.0641,0.0894 0.112465,-0.031 0.115475,-0.2873 0.0012,-0.10229 0.03684,-0.27728 0.07914,-0.38883 0.0423,-0.11156 0.09941,-0.277 0.126933,-0.36765 0.02756,-0.0907 0.08182,-0.16479 0.120689,-0.1648 0.03888,0 0.0872,-0.0268 0.107353,-0.0593 0.02471,-0.0399 0.009,-0.0487 -0.04769,-0.0269 -0.04646,0.0178 -0.08438,0.0107 -0.08443,-0.0167 2.1e-5,-0.027 0.03426,-0.0492 0.07604,-0.0491 0.04185,-10e-6 0.07606,-0.0423 0.07607,-0.094 -7e-6,-0.074 0.159368,-0.15696 0.747943,-0.3892 0.61699,-0.24346 5.332749,-2.23854 5.876276,-2.48604 0.08741,-0.0399 0.840438,-0.19861 1.673371,-0.3529 1.685171,-0.31214 3.344816,-0.62417 3.477053,-0.65372 0.06896,-0.0155 0.09233,0.0283 0.115183,0.21616 0.01581,0.12951 0.0539,0.30397 0.08469,0.38764 0.03081,0.0836 0.08549,0.37909 0.121565,0.65649 l 0.06557,0.50438 -0.206663,0.38302 c -0.113653,0.21067 -0.317147,0.56873 -0.452207,0.79572 -0.135057,0.227 -0.245559,0.42938 -0.245555,0.44974 7e-6,0.0204 -0.07783,0.16553 -0.172944,0.32256 -0.219644,0.36264 -0.34771,0.60463 -1.15737,2.18709 -0.624141,1.21984 -1.438464,2.758 -2.093947,3.95522 -0.324631,0.59293 -0.737528,1.40321 -1.162764,2.28187 -0.252636,0.522 -0.551269,1.10016 -0.955797,1.85044 -0.07506,0.13921 -0.136475,0.29961 -0.136485,0.35642 -1.4e-5,0.0568 -0.06783,0.26234 -0.150744,0.45676 -0.08291,0.19443 -0.151373,0.43544 -0.152129,0.53561 -7.36e-4,0.10009 -0.03693,0.29411 -0.08037,0.431 -0.07188,0.22649 -0.140407,0.94568 -0.132427,1.38986 0.0017,0.0976 0.02787,0.41708 0.05803,0.70991 0.03016,0.29284 0.06505,0.73781 0.07752,0.98881 0.01249,0.251 0.04491,0.53624 0.07203,0.63386 0.0271,0.0977 0.06178,0.2881 0.07701,0.42331 l 0.02769,0.24585 -0.215204,-0.12541 c -0.118424,-0.0689 -0.296564,-0.23136 -0.395962,-0.36089 z m -10.673889,-7.3085 c -0.193582,-0.0983 -0.386134,-0.19898 -0.42798,-0.22378 -0.0419,-0.0248 -0.247122,-0.14785 -0.456364,-0.27322 -0.209172,-0.12546 -0.585678,-0.33241 -0.836687,-0.4599 -0.43694,-0.22194 -0.887395,-0.57276 -0.887397,-0.69116 -6.4e-5,-0.0308 0.104015,-0.40253 0.231154,-0.82604 0.127118,-0.42351 0.295905,-0.98679 0.375061,-1.25174 0.07916,-0.26495 0.146737,-0.61544 0.15018,-0.77885 0.0066,-0.30946 0.09155,-1.01249 0.237227,-1.96139 0.09858,-0.64217 0.06078,-0.61711 0.666512,-0.44205 0.316605,0.0916 0.517461,0.11338 1.027393,0.11189 0.729358,-0.002 1.157052,-0.10566 1.733383,-0.41963 0.186394,-0.1015 0.352794,-0.17072 0.369759,-0.15376 0.01696,0.017 0.0073,0.17631 -0.0216,0.35412 -0.02885,0.17778 -0.05262,0.46223 -0.05282,0.63211 -2.1e-4,0.16987 -0.03437,0.42088 -0.0759,0.55778 -0.04153,0.13691 -0.07575,0.38104 -0.07607,0.54252 -3.66e-4,0.19718 -0.03549,0.36205 -0.106904,0.50206 -0.05849,0.11464 -0.124823,0.33921 -0.147418,0.49903 -0.02297,0.16248 -0.09661,0.37707 -0.167047,0.48676 -0.08552,0.13314 -0.134085,0.29509 -0.151206,0.5041 -0.01386,0.16935 -0.07019,0.39755 -0.125148,0.50708 -0.05593,0.11147 -0.114824,0.36586 -0.133769,0.57779 -0.01862,0.20825 -0.067,0.42922 -0.107495,0.49104 -0.04045,0.0618 -0.100503,0.27936 -0.133321,0.48341 -0.0328,0.20403 -0.102918,0.43322 -0.155784,0.50927 -0.05284,0.076 -0.119052,0.28065 -0.147076,0.45465 -0.04777,0.29667 -0.112858,0.44657 -0.193902,0.44658 -0.01913,-4e-5 -0.193304,-0.0803 -0.386784,-0.17867 z"
       id="path927" />
  </g>
</svg>
