<?xml version="1.0" encoding="UTF-8" standalone="no"?>
<!-- Created with Inkscape (http://www.inkscape.org/) -->

<svg
   xmlns:dc="http://purl.org/dc/elements/1.1/"
   xmlns:cc="http://creativecommons.org/ns#"
   xmlns:rdf="http://www.w3.org/1999/02/22-rdf-syntax-ns#"
   xmlns:svg="http://www.w3.org/2000/svg"
   xmlns="http://www.w3.org/2000/svg"
   xmlns:sodipodi="http://sodipodi.sourceforge.net/DTD/sodipodi-0.dtd"   
   width="220"
   height="235"
   viewBox="0 0 58.208332 62.177085"
   version="1.1"
   id="svg8"   
   sodipodi:docname="full-face-helmet.svg" >
  <defs
     id="defs2" />
  <sodipodi:namedview
     id="base"
     pagecolor="#000000"
     bordercolor="#666666"
     borderopacity="1.0"
     showgrid="false"
     units="px" />
  <metadata
     id="metadata5">
    <rdf:RDF>
      <cc:Work
         rdf:about="">
        <dc:format>image/svg+xml</dc:format>
        <dc:type
           rdf:resource="http://purl.org/dc/dcmitype/StillImage" />
        <dc:title></dc:title>
      </cc:Work>
    </rdf:RDF>
  </metadata>
  <g
     id="layer1"
     transform="translate(0,-234.8229)">
    <path
       style="fill:none;stroke:#ffffff;stroke-width:0.4;stroke-opacity:1;stroke-miterlimit:4;stroke-dasharray:none"
       d="m 28.56836,294.14136 c -0.210359,-0.052 -0.632814,-0.11272 -0.938791,-0.13503 -0.305976,-0.0223 -0.721781,-0.10228 -0.924013,-0.17772 -0.202231,-0.0754 -0.521896,-0.13716 -0.710366,-0.13716 -0.285175,0 -0.384512,-0.0368 -0.592033,-0.21894 -0.308466,-0.27084 -0.403113,-0.4518 -0.733881,-1.40311 -0.14429,-0.41499 -0.27707,-0.76924 -0.295066,-0.78724 -0.018,-0.018 -0.309925,-0.077 -0.64873,-0.13134 -0.505777,-0.0809 -0.644009,-0.13071 -0.772476,-0.27798 -0.08606,-0.0986 -0.156465,-0.21868 -0.156465,-0.26674 0,-0.0481 -0.06259,-0.2169 -0.13908,-0.37523 -0.0765,-0.15833 -0.139079,-0.42825 -0.139079,-0.59984 0,-0.17159 -0.04951,-0.52514 -0.110031,-0.78568 -0.168956,-0.7274 -0.160166,-1.44054 0.02341,-1.89928 0.138262,-0.34551 0.148165,-0.45282 0.102452,-1.11035 l -0.0506,-0.72787 -1.11264,-0.58594 c -2.003937,-1.0553 -4.417538,-2.59053 -4.924079,-3.13206 -0.34785,-0.37189 -0.598399,-0.83788 -0.954072,-1.77448 -0.207394,-0.54614 -0.272357,-0.64565 -0.544725,-0.83448 -1.517191,-1.05184 -4.624369,-3.72012 -5.6782826,-4.87623 -1.8437817,-2.02256 -2.9585191,-4.3205 -3.6925801,-7.61197 -0.144764,-0.64911 -0.1416724,-0.60638 -0.154809,-2.13985 -0.010871,-1.26902 -0.011091,-1.27069 -0.1777771,-1.34663 -0.2859311,-0.13029 -0.5261264,-0.91724 -0.4231127,-1.38626 0.045574,-0.20751 0.060398,-0.21556 0.3535575,-0.19225 0.2511532,0.02 0.3059877,0.003 0.3059877,-0.0939 0,-0.0893 -0.072152,-0.12341 -0.2955451,-0.13958 l -0.2955449,-0.0214 0.022453,-1.3359 0.022453,-1.33589 -0.2484642,-0.24847 c -0.658677,-0.65867 -0.9125353,-1.7417 -0.9862459,-4.20759 l -0.042613,-1.42557 0.2136768,-0.80602 c 0.486006,-1.8333 0.7993518,-2.59675 1.681345,-4.09655 1.2233874,-2.08033 3.1535365,-4.3082 4.9701326,-5.73674 0.38247,-0.30077 0.711048,-0.56635 0.730171,-0.59019 0.317883,-0.39619 3.473647,-2.06908 4.79826,-2.54358 1.8079,-0.64762 2.892694,-0.94317 4.485331,-1.222 1.085936,-0.19012 1.462408,-0.22346 2.842466,-0.25163 1.612087,-0.0329 2.878518,0.0403 3.998949,0.23112 0.320547,0.0546 0.774296,0.0994 1.008331,0.0996 1.108284,9.6e-4 3.503089,0.54925 6.405956,1.46663 3.554826,1.12342 4.226006,1.37185 6.189061,2.29082 0.344223,0.16114 1.048315,0.44227 1.56465,0.62475 0.516334,0.18247 1.20478,0.44134 1.52988,0.5753 0.3251,0.13393 0.997899,0.37204 1.49511,0.52913 0.654145,0.20667 0.990516,0.35358 1.21695,0.53152 0.172111,0.13526 0.387149,0.27658 0.477862,0.31404 0.23961,0.099 0.982479,0.63082 0.982479,0.70341 0,0.034 0.109525,0.12643 0.243389,0.20541 0.133864,0.0789 0.243389,0.18082 0.243389,0.2263 0,0.0924 1.537922,1.56294 2.095502,2.00367 0.333014,0.26324 1.691135,0.88205 4.128329,1.88104 0.670118,0.27466 1.388205,0.63095 1.527176,0.7577 0.04167,0.038 0.01548,0.11213 -0.06954,0.19683 -0.145562,0.14502 -1.013269,0.27291 -2.870131,0.42305 -1.220325,0.0987 -3.62311,0.40479 -3.759828,0.47901 -0.06199,0.0336 -0.200493,0.15345 -0.307772,0.2662 l -0.195052,0.20502 0.222374,0.4376 c 0.23737,0.46712 0.446327,1.27824 0.519217,2.01549 0.05699,0.57642 -0.09894,1.20493 -0.425679,1.7157 -0.144162,0.22536 -0.239159,0.46219 -0.2398,0.59785 -7.88e-4,0.1719 -0.01713,0.20017 -0.06954,0.12035 -0.04503,-0.0686 -0.08633,-0.0793 -0.120631,-0.0314 -0.09849,0.13765 -0.478045,0.36991 -0.682257,0.4175 -0.11241,0.0262 -0.546273,0.14084 -0.964146,0.25478 -0.417872,0.11394 -0.902913,0.21634 -1.07787,0.22757 -0.174956,0.0112 -0.707357,0.0438 -1.183112,0.0723 -0.678821,0.0408 -0.893244,0.0782 -0.99618,0.17411 -0.08495,0.0791 -0.104822,0.13848 -0.0564,0.16842 0.04112,0.0254 0.07477,0.16835 0.07477,0.31764 0,0.25164 -0.02153,0.28131 -0.295544,0.40727 l -0.295546,0.13585 0.2621,0.006 c 0.234221,0.005 0.258527,0.0225 0.2285,0.16232 -0.01848,0.0861 -0.04983,0.39116 -0.06966,0.67802 -0.01983,0.28685 -0.06656,0.66237 -0.103844,0.83448 -0.03729,0.17211 -0.10321,0.53956 -0.146506,0.81655 -0.04826,0.30873 -0.142217,0.59719 -0.242797,0.74541 -0.09024,0.13297 -0.185403,0.3601 -0.211469,0.50471 -0.02607,0.14461 -0.0783,0.30187 -0.116071,0.34947 -0.03777,0.0476 -0.05257,0.14815 -0.03289,0.22345 0.01969,0.0753 -0.0049,0.17062 -0.05451,0.21185 -0.150794,0.12514 -0.177899,0.38697 -0.07132,0.68903 0.05563,0.15767 0.08213,0.33622 0.05889,0.39678 -0.02324,0.0606 0.0014,0.13824 0.05481,0.17262 0.08133,0.0524 0.08177,0.0724 0.0028,0.12336 -0.105738,0.0682 -0.156707,0.70411 -0.05644,0.70411 0.0349,0 0.02451,0.0469 -0.0231,0.10431 -0.06767,0.0815 -0.06827,0.12636 -0.0028,0.20528 0.04622,0.0557 0.06311,0.16616 0.03767,0.24634 -0.03412,0.10751 0.0017,0.183 0.137561,0.28987 0.101165,0.0796 0.16716,0.1876 0.146886,0.24044 -0.02025,0.0528 -0.0065,0.0959 0.03054,0.0959 0.03705,0 0.06736,0.0609 0.06736,0.13517 0,0.13196 0.0078,0.13164 0.330315,-0.0136 0.279964,-0.1261 0.462813,-0.14902 1.199565,-0.15029 1.304924,-0.002 1.941528,0.21302 2.299652,0.77772 0.26299,0.41469 0.333179,0.66412 0.415421,1.47629 0.06921,0.68342 0.261335,1.79311 0.330475,1.90871 0.02169,0.0363 0.09483,-0.089 0.162565,-0.27816 l 0.123156,-0.34406 7.88e-4,0.31293 c 0.0027,0.93889 0.06159,2.49451 0.09672,2.55135 0.107704,0.17427 0.171972,1.23943 0.12088,2.00352 -0.04258,0.63677 -0.03142,0.96629 0.04709,1.3908 0.05987,0.32369 0.087,0.7308 0.06489,0.97356 -0.03824,0.41993 0.08681,1.6005 0.265162,2.50344 0.07432,0.37629 0.08288,0.73935 0.03768,1.59942 -0.06426,1.22259 -0.240621,2.16692 -0.663533,3.55282 -0.327921,1.07461 -0.30578,0.98144 -0.45303,1.90607 -0.179064,1.1244 -0.249977,1.40819 -0.476971,1.90881 -0.29425,0.64895 -0.719649,1.2381 -1.166896,1.61607 -0.21776,0.18402 -0.688062,0.62209 -1.045117,0.97348 -0.739417,0.72768 -1.050802,0.88383 -2.021481,1.01371 -0.582643,0.0779 -2.073665,-0.006 -3.005326,-0.16799 -1.163732,-0.2031 -3.490608,-0.86421 -5.585781,-1.58703 -0.567002,-0.19561 -1.083337,-0.33823 -1.147411,-0.31692 -0.06408,0.0213 -0.248837,0.2339 -0.410584,0.47243 -0.555231,0.8188 -1.34956,1.82497 -1.8063,2.28802 -0.310142,0.31442 -0.44361,0.49896 -0.41493,0.5737 0.02326,0.0606 0.07455,0.11018 0.114003,0.11018 0.149252,0 0.05971,0.18162 -0.190306,0.38601 -0.468755,0.38322 -0.729818,0.50053 -1.227815,0.55172 -0.264832,0.0272 -0.515176,0.0594 -0.556319,0.0715 -0.04114,0.0121 -0.246919,-0.0206 -0.457277,-0.0725 z m -0.189056,-2.72735 c 0.544296,-0.48664 1.081393,-1.13971 1.765045,-2.14616 0.341789,-0.50316 0.383913,-0.59901 0.297701,-0.67739 -0.128508,-0.11683 -3.611519,-1.50531 -3.77608,-1.50531 -0.09795,0 -0.112359,0.0325 -0.06934,0.15647 0.02987,0.0861 0.0597,0.39116 0.06629,0.67801 0.0066,0.28685 0.01555,0.66588 0.01992,0.8423 0.0061,0.24422 0.05772,0.38339 0.216562,0.58327 0.178348,0.22442 0.20862,0.32181 0.20862,0.67113 0,0.22474 0.02824,0.46296 0.06276,0.52937 0.03451,0.0664 0.103184,0.26158 0.152589,0.43369 0.152232,0.53033 0.331415,0.90401 0.433476,0.90401 0.0536,0 0.333703,-0.21122 0.622457,-0.46939 z"
       id="path951"       
       sodipodi:nodetypes="cccscscccscscsccssscssssscscccccscscccscsccscsccccsssccccccscsccccccsscccsscccccscccccccccscccccsscccscccccsscccccsscccscsscsccccccscsccccsccscc" />
  </g>
</svg>
