<?xml version="1.0" encoding="UTF-8" standalone="no"?>
<!-- Created with Inkscape (http://www.inkscape.org/) -->

<svg
   xmlns:dc="http://purl.org/dc/elements/1.1/"
   xmlns:cc="http://creativecommons.org/ns#"
   xmlns:rdf="http://www.w3.org/1999/02/22-rdf-syntax-ns#"
   xmlns:svg="http://www.w3.org/2000/svg"
   xmlns="http://www.w3.org/2000/svg"
   xmlns:sodipodi="http://sodipodi.sourceforge.net/DTD/sodipodi-0.dtd"   
   width="220"
   height="235"
   viewBox="0 0 58.208332 62.177085"
   version="1.1"
   id="svg8"   
   sodipodi:docname="glasses.svg">
  <defs
     id="defs2" />
  <sodipodi:namedview
     id="base"
     pagecolor="#000000"
     bordercolor="#666666"
     borderopacity="1.0"
     showgrid="false"
     units="px" />
  <metadata
     id="metadata5">
    <rdf:RDF>
      <cc:Work
         rdf:about="">
        <dc:format>image/svg+xml</dc:format>
        <dc:type
           rdf:resource="http://purl.org/dc/dcmitype/StillImage" />
        <dc:title></dc:title>
      </cc:Work>
    </rdf:RDF>
  </metadata>
  <g
     id="layer1"
     transform="translate(0,-234.8229)">
    <path
       style="fill:none;stroke:#ffffff;stroke-width:0.4;stroke-opacity:1;stroke-miterlimit:4;stroke-dasharray:none"
       d="m 33.598671,277.3341 c 0.798583,-0.10815 1.764419,-0.39376 2.269787,-0.6712 0.241572,-0.1326 0.487857,-0.21427 0.547353,-0.18146 0.06318,0.0348 0.08379,0.0244 0.04946,-0.0251 -0.03229,-0.0466 0.09583,-0.17599 0.284681,-0.28757 1.022606,-0.60414 2.292289,-2.08395 3.222383,-3.75581 0.389191,-0.69951 0.738894,-1.28422 0.777137,-1.29937 0.03828,-0.0151 0.04782,-0.0589 0.02131,-0.0972 -0.0846,-0.12211 0.341314,-0.80749 0.47364,-0.76217 0.06723,0.023 0.319373,-0.11472 0.560515,-0.306 0.469353,-0.37236 1.133759,-0.68043 1.37622,-0.63816 0.08162,0.0142 0.160271,0.0997 0.174753,0.18997 0.122079,0.76058 0.272703,0.98664 0.26914,0.40393 -0.0016,-0.19931 -0.03321,-0.36249 -0.07117,-0.36264 -0.03796,-9e-5 -0.069,-0.0417 -0.06899,-0.0924 0,-0.0675 0.03389,-0.067 0.126291,0.001 0.06946,0.0514 0.183211,0.074 0.252897,0.0502 0.08354,-0.0286 0.12897,0.0198 0.133501,0.14219 0.0039,0.10204 0.0399,0.36319 0.08027,0.58033 0.06752,0.36335 0.05749,0.39852 -0.126289,0.4414 -0.246649,0.0575 -0.216545,0.31246 0.03695,0.31278 0.128382,1.6e-4 0.196258,0.0768 0.241052,0.27201 0.0343,0.1495 0.149754,0.35487 0.256615,0.45637 0.202198,0.19199 0.261905,0.46117 0.102355,0.46116 -0.05055,5e-5 -0.0919,-0.0497 -0.09198,-0.11033 0,-0.0607 -0.08277,-0.17721 -0.183916,-0.25892 -0.101302,-0.0815 -0.183882,-0.23061 -0.183914,-0.33089 -1.4e-5,-0.1003 -0.06207,-0.22833 -0.13795,-0.28452 -0.233676,-0.17306 -0.166388,0.0473 0.204382,0.66925 0.188258,0.31581 0.477531,0.69137 0.642792,0.83457 0.186935,0.16188 0.37405,0.45649 0.495076,0.77913 0.257268,0.68588 0.648396,1.03548 1.305291,1.1666 0.41322,0.0825 0.575947,0.0779 0.980785,-0.028 0.266964,-0.0698 0.553018,-0.1078 0.635695,-0.0844 0.11056,0.0313 0.119118,0.0226 0.0326,-0.033 -0.08336,-0.0536 0.0785,-0.14611 0.551786,-0.31545 0.368359,-0.13181 0.721026,-0.2346 0.783711,-0.22842 0.06272,0.006 0.09131,-0.0215 0.06348,-0.0616 -0.02771,-0.04 -0.0092,-0.0728 0.04114,-0.0728 0.0504,-2e-5 0.365282,-0.1672 0.699799,-0.37153 0.334521,-0.20435 0.647041,-0.35013 0.694504,-0.32397 0.04736,0.0262 0.06588,-5.9e-4 0.04081,-0.0592 -0.02496,-0.0587 0.06861,-0.17631 0.207957,-0.26123 0.677635,-0.41292 1.964691,-2.23916 2.775025,-3.93757 0.324801,-0.68074 0.910251,-2.67416 1.063535,-3.62119 0.23136,-1.42955 0.271519,-3.03785 0.106512,-4.26625 -0.09123,-0.67908 -0.111259,-1.09462 -0.05515,-1.14466 0.155563,-0.1388 0.09414,-0.52262 -0.118884,-0.74286 -0.144369,-0.14933 -0.646384,-0.36086 -1.661481,-0.70019 -1.637427,-0.54738 -2.088531,-0.67213 -4.109305,-1.13631 -0.783998,-0.18009 -1.673749,-0.38605 -1.977235,-0.45769 -2.654234,-0.62648 -3.810888,-0.78653 -6.078225,-0.84105 -1.585772,-0.0381 -2.111915,-0.021 -2.882784,0.094 -1.752251,0.26143 -3.389509,0.7808 -5.870543,1.86228 -0.82319,0.35883 -1.543445,0.62661 -1.600616,0.59511 -0.05832,-0.0322 -0.07865,-0.0209 -0.04634,0.0257 0.03156,0.0457 -0.358657,0.31412 -0.86729,0.59658 -1.147055,0.63701 -1.307364,0.83521 -1.241177,1.53461 0.05671,0.59869 0.249968,1.04884 0.584064,1.36004 0.440214,0.41015 0.635591,0.32902 1.587292,-0.65892 0.230468,-0.23919 0.466824,-0.41161 0.533549,-0.38889 0.06744,0.023 0.09377,0.003 0.05989,-0.0456 -0.07891,-0.11399 0.676491,-0.75175 0.805907,-0.6804 0.05671,0.0312 0.07431,0.0177 0.04044,-0.0312 -0.110279,-0.15925 1.553748,-1.29278 1.8978,-1.29278 0.11157,-10e-6 0.193099,-0.0446 0.18114,-0.0992 -0.05624,-0.25674 2.366253,-1.19069 3.792279,-1.46203 1.751549,-0.3333 5.024518,-0.0291 6.616883,0.61499 0.204831,0.0828 0.558654,0.19463 0.78627,0.2484 0.227611,0.0538 0.600076,0.16422 0.82768,0.24548 0.227616,0.0812 1.11547,0.37858 1.972989,0.66077 2.04074,0.67152 2.346489,0.79633 2.363364,0.96469 0.0078,0.0769 0.01843,0.18692 0.02388,0.24455 0.0054,0.0577 0.218413,0.21107 0.473337,0.34096 0.829825,0.42286 0.832474,0.41439 -0.342351,1.09074 -0.955796,0.55025 -2.008793,1.04837 -3.571508,1.68949 -1.487886,0.61041 -2.312787,0.96016 -3.08062,1.30619 -1.333235,0.60083 -1.699034,0.69083 -2.989059,0.73554 -0.938776,0.0326 -1.301328,0.009 -1.97723,-0.12664 -0.775177,-0.15592 -1.332434,-0.17217 -8.78264,-0.25591 -4.375217,-0.0492 -9.382697,-0.12487 -11.127723,-0.16819 -2.961032,-0.0735 -3.237224,-0.0932 -4.138404,-0.29533 -0.531099,-0.11912 -1.317389,-0.24157 -1.747329,-0.27211 -0.429942,-0.0305 -0.879263,-0.10317 -0.998496,-0.16135 -0.119261,-0.0582 -0.574486,-0.21852 -1.011623,-0.35628 -1.040551,-0.32792 -1.273012,-0.40468 -2.312223,-0.76346 -1.622507,-0.56014 -5.3744606,-1.51455 -5.9540168,-1.51455 -0.1187871,0 -0.3175658,0.0906 -0.4417077,0.2014 -0.1885147,0.1682 -0.2257297,0.28101 -0.2257308,0.68422 -9.4e-6,0.4152 0.064018,0.59673 0.4570526,1.2961 0.2513747,0.4473 0.5606335,0.96097 0.6872169,1.14148 0.3556016,0.50712 0.5844002,0.92722 0.649901,1.19332 0.051415,0.20901 0.1017776,0.24265 0.3630427,0.24265 0.1703742,2e-5 0.3586174,-0.0596 0.4295213,-0.13603 0.1660851,-0.17901 0.1293527,-0.91712 -0.093256,-1.8743 -0.094473,-0.40617 -0.1602549,-0.75023 -0.1461836,-0.76457 0.027321,-0.0273 5.2309284,2.32046 6.3674264,2.87303 0.3956,0.19235 0.642847,0.36077 0.60655,0.41316 -0.03585,0.0517 -0.01836,0.0648 0.04257,0.0311 0.136462,-0.0752 0.584206,0.18901 0.507622,0.29959 -0.03495,0.0504 -0.01494,0.0612 0.04868,0.0262 0.05941,-0.0327 0.229923,0.0261 0.379075,0.13091 0.149027,0.10481 0.436556,0.30128 0.638898,0.43668 0.803622,0.53771 1.005001,1.54621 0.31061,1.55556 -0.354268,0.005 -0.364514,0.17257 -0.07071,1.15863 0.343069,1.15127 0.616136,1.61526 1.319865,2.24269 0.495243,0.44154 0.810966,0.63122 1.710907,1.02754 2.252961,0.9923 4.45498,1.75922 7.035293,2.45023 1.459114,0.39076 3.976798,0.87856 4.534507,0.87856 0.146935,0 0.234265,0.035 0.202325,0.0811 -0.03167,0.0457 0.0031,0.0607 0.08052,0.0344 0.0752,-0.0258 0.501517,-0.009 0.947409,0.0381 1.211868,0.12696 3.311688,0.17519 3.937539,0.0904 z"
       id="path834" />       
  </g>
</svg>
