<?xml version="1.0" encoding="UTF-8" standalone="no"?>
<!-- Created with Inkscape (http://www.inkscape.org/) -->

<svg
   xmlns:dc="http://purl.org/dc/elements/1.1/"
   xmlns:cc="http://creativecommons.org/ns#"
   xmlns:rdf="http://www.w3.org/1999/02/22-rdf-syntax-ns#"
   xmlns:svg="http://www.w3.org/2000/svg"
   xmlns="http://www.w3.org/2000/svg"
   xmlns:sodipodi="http://sodipodi.sourceforge.net/DTD/sodipodi-0.dtd"   
   width="220"
   height="235"
   viewBox="0 0 58.208332 62.177085"
   version="1.1"
   id="svg8"   
   sodipodi:docname="half-face-mask.svg" >
  <defs
     id="defs2" />
  <sodipodi:namedview
     id="base"
     pagecolor="#000000"
     bordercolor="#666666"
     borderopacity="1.0"     
     showgrid="false"
     units="px" />
  <metadata
     id="metadata5">
    <rdf:RDF>
      <cc:Work
         rdf:about="">
        <dc:format>image/svg+xml</dc:format>
        <dc:type
           rdf:resource="http://purl.org/dc/dcmitype/StillImage" />
        <dc:title></dc:title>
      </cc:Work>
    </rdf:RDF>
  </metadata>
  <g
     id="layer1"
     transform="translate(0,-234.8229)">
    <path
       style="fill:none;stroke:#ffffff;stroke-width:0.37080407;stroke-miterlimit:4;stroke-dasharray:none;stroke-opacity:1"
       d="m 50.760814,282.48526 c -0.181582,0.1454 -0.755777,0.6031 -1.275921,1.01718 -1.15218,0.91724 -4.585208,3.01816 -5.584805,3.41775 -1.78762,0.71459 -2.794047,0.79066 -8.369901,0.63263 -4.70944,-0.13346 -13.098664,-0.10184 -13.704117,0.0517 -0.759675,0.19258 -3.588635,0.23085 -4.372154,0.0592 -0.280918,-0.0615 -0.580318,-0.0955 -0.665335,-0.0755 -0.2121,0.05 -2.278106,-0.71648 -3.161644,-1.17306 -0.97725,-0.50501 -2.037648,-1.20713 -3.409465,-2.25751 -1.2405837,-0.9499 -1.4116737,-1.0282 -2.6221815,-1.20004 -0.7317562,-0.10389 -0.8522539,-0.16094 -1.3256108,-0.62777 -0.2863661,-0.28245 -0.6858288,-0.65413 -0.8876617,-0.82598 -0.2018394,-0.17186 -0.6256058,-0.66531 -0.9417278,-1.09659 -0.3161152,-0.43126 -0.6217315,-0.7962 -0.6791399,-0.81095 -0.3339298,-0.0858 -1.3046548,-2.76468 -1.1944408,-3.29624 0.035053,-0.16903 0.2966591,-0.62146 0.5813571,-1.00539 l 0.5176253,-0.69806 -0.5591948,-1.64772 c -0.3075509,-0.90624 -0.6148468,-1.70338 -0.6828806,-1.77141 -0.1712219,-0.17122 -0.1394102,-1.26925 0.041942,-1.44742 0.2204382,-0.21651 0.3924372,-0.21908 1.0318062,-0.0153 0.5388393,0.17178 0.6435894,0.25588 1.4898199,1.19607 0.8643949,0.96039 0.956446,1.03282 1.8280645,1.43834 0.807675,0.37577 1.9738264,0.75388 4.7871579,1.55213 l 0.775812,0.22012 1.148642,-1.24867 c 1.840729,-2.00089 3.019182,-3.4508 3.414519,-4.20105 0.550112,-1.04396 1.037519,-2.95442 1.010908,-3.96239 -0.02219,-0.84003 -0.24835,-1.80106 -0.942682,-4.00559 -1.303312,-4.13809 -1.334445,-4.3495 -0.847183,-5.75362 0.386079,-1.11256 0.5921,-1.40505 1.906088,-2.70599 1.740112,-1.72294 1.802864,-1.7322 7.639672,-1.13321 0.686087,0.0705 2.379711,-0.19378 2.851947,-0.44487 l 0.235807,-0.12542 -1.72424,-1.63678 -1.724253,-1.63679 -0.03863,-0.46943 c -0.02125,-0.25819 0.0085,-0.64795 0.06621,-0.86612 0.103156,-0.39036 0.118556,-0.40102 0.964955,-0.66727 0.473075,-0.14882 1.14752,-0.33747 1.498769,-0.41921 l 0.638644,-0.14862 0.199174,-0.60118 c 0.273641,-0.82592 0.744558,-1.51855 1.517205,-2.23152 l 0.653574,-0.60311 0.696824,0.23741 c 0.383251,0.13056 0.820534,0.35627 0.971727,0.50154 0.175528,0.1687 0.526999,0.29797 0.972541,0.35776 0.955297,0.12823 1.135345,0.22657 2.228752,1.21729 1.660573,1.50461 2.436166,2.13904 3.756647,3.07292 0.465136,0.32895 1.040902,0.79304 1.279469,1.03132 0.518816,0.51811 2.132297,2.70547 2.660468,3.60664 0.207125,0.3534 0.533344,0.82977 0.724925,1.0586 0.938179,1.12057 1.224585,1.5158 1.80659,2.49306 0.346199,0.58131 0.83473,1.55488 1.085617,2.16348 0.616662,1.49587 2.018996,3.94868 3.309263,5.78819 0.446326,0.63633 2.884884,4.65288 3.304652,5.44311 0.570082,1.07319 0.902767,2.13938 0.944329,3.02638 0.01933,0.4126 0.07556,1.01554 0.124955,1.33984 0.04938,0.3243 0.09121,0.82187 0.09294,1.10568 0.0017,0.28382 0.02009,0.76231 0.04078,1.06329 0.05499,0.79973 -0.169612,2.32267 -0.456155,3.09312 -0.137162,0.36879 -0.491767,1.02774 -0.78802,1.46432 -0.53772,0.79242 -2.217891,2.66043 -2.842873,3.16068 z"
       id="path964" />      
  </g>
</svg>
