<?xml version="1.0" encoding="UTF-8" standalone="no"?>
<!-- Created with Inkscape (http://www.inkscape.org/) -->

<svg
   xmlns:dc="http://purl.org/dc/elements/1.1/"
   xmlns:cc="http://creativecommons.org/ns#"
   xmlns:rdf="http://www.w3.org/1999/02/22-rdf-syntax-ns#"
   xmlns:svg="http://www.w3.org/2000/svg"
   xmlns="http://www.w3.org/2000/svg"
   xmlns:sodipodi="http://sodipodi.sourceforge.net/DTD/sodipodi-0.dtd"   
   width="220"
   height="235"
   viewBox="0 0 58.208332 62.177085"
   version="1.1"
   id="svg8"   
   sodipodi:docname="shemagh.svg" >
  <defs
     id="defs2" />
  <sodipodi:namedview
     id="base"
     pagecolor="#000000"
     bordercolor="#666666"
     borderopacity="1.0"     
     showgrid="false"
     units="px" />
  <metadata
     id="metadata5">
    <rdf:RDF>
      <cc:Work
         rdf:about="">
        <dc:format>image/svg+xml</dc:format>
        <dc:type
           rdf:resource="http://purl.org/dc/dcmitype/StillImage" />
        <dc:title></dc:title>
      </cc:Work>
    </rdf:RDF>
  </metadata>
  <g
     id="layer1"
     transform="translate(0,-234.8229)">
    <path
       style="fill:none;stroke:#ffffff;stroke-width:0.4;stroke-opacity:1;stroke-miterlimit:4;stroke-dasharray:none"
       d="m 25.057894,295.43945 c -0.119782,-0.22008 -0.156435,-0.25203 -0.259449,-0.22617 -0.14355,0.036 -0.328969,-0.0714 -0.621555,-0.36028 -0.209231,-0.20654 -0.210154,-0.20916 -0.200223,-0.56604 0.01213,-0.43597 0.07167,-0.83535 0.145093,-0.97325 0.09408,-0.17671 0.141941,-0.58668 0.167939,-1.43857 l 0.02514,-0.82385 -0.17737,-0.33433 c -0.09755,-0.18389 -0.205711,-0.42894 -0.240351,-0.54456 -0.05917,-0.19749 -0.05462,-0.22117 0.07523,-0.39141 0.07602,-0.0997 0.171614,-0.1812 0.212442,-0.1812 0.106988,0 0.09624,-0.0264 -0.124384,-0.30551 -0.10924,-0.1382 -0.251793,-0.37957 -0.316785,-0.53637 -0.109403,-0.26396 -0.130621,-0.2851 -0.28606,-0.2851 -0.151583,0 -0.173077,-0.0193 -0.221267,-0.19822 -0.02936,-0.10902 -0.100149,-0.25768 -0.157317,-0.33036 -0.129495,-0.16463 -0.331134,-0.61651 -0.381315,-0.85454 -0.04241,-0.20116 -0.23187,-0.56933 -0.278247,-0.54071 -0.01659,0.0102 -0.03366,-0.0396 -0.03793,-0.11076 -0.0043,-0.0712 -0.05387,-0.19172 -0.110212,-0.26793 -0.228194,-0.30864 -0.925555,-1.82349 -1.274673,-2.7689 -0.305918,-0.82843 -0.852426,-1.88402 -1.193463,-2.30519 -0.171103,-0.21131 -0.324846,-0.44759 -0.34165,-0.52507 -0.01681,-0.0775 -0.04864,-0.14088 -0.07075,-0.14088 -0.02211,0 -0.132216,-0.16712 -0.244687,-0.37139 -0.112471,-0.20426 -0.264365,-0.44054 -0.337539,-0.52507 -0.07317,-0.0845 -0.133075,-0.19626 -0.13311,-0.24831 -5e-5,-0.10623 -1.037469,-1.54254 -1.169993,-1.61988 -0.04681,-0.0273 -0.06535,-0.0504 -0.04118,-0.0512 0.02416,-7.8e-4 -0.08731,-0.14332 -0.247713,-0.31658 -0.353953,-0.38231 -0.448317,-0.58349 -0.585071,-1.24739 -0.26247,-1.27419 -0.27363,-1.94012 -0.0377,-2.24945 0.07424,-0.0973 0.134984,-0.22124 0.134984,-0.27536 0,-0.10629 -0.2172,-0.36948 -0.304912,-0.36948 -0.02952,0 -0.05367,-0.0276 -0.05367,-0.0613 0,-0.11532 -0.264293,-0.44277 -0.464095,-0.57499 -0.32549,-0.21541 -0.43492,-0.18451 -0.942276,0.26605 -0.139576,0.12395 -0.260408,0.26372 -0.268512,0.3106 -0.02192,0.12682 0.135439,0.52803 0.264493,0.67433 0.19616,0.22239 0.370532,0.57464 0.508467,1.02718 0.19204,0.63004 0.176119,0.94563 -0.06137,1.21652 -0.0679,0.0775 -0.115377,0.0982 -0.13861,0.0606 -0.01944,-0.0315 -0.0022,-0.0845 0.03823,-0.1178 0.04046,-0.0333 0.10147,-0.15907 0.135569,-0.27939 0.07661,-0.27034 0.01303,-0.41442 -0.07176,-0.16261 -0.0668,0.19839 -0.264784,0.25755 -0.243548,0.0728 0.0064,-0.0557 -0.0021,-0.16875 -0.0189,-0.25128 l -0.03053,-0.15006 -0.06705,0.12445 c -0.07474,0.13872 -0.09469,0.10921 -0.149625,-0.22133 -0.01756,-0.10566 -0.05093,-0.1921 -0.07417,-0.1921 -0.02323,0 -0.07037,-0.14299 -0.104754,-0.31775 -0.06907,-0.35111 -0.223922,-0.71704 -0.346447,-0.81872 -0.07026,-0.0583 -0.07554,-0.0423 -0.04572,0.13826 0.01855,0.11231 0.04743,0.5508 0.06418,0.97442 0.03029,0.76602 0.02976,0.77105 -0.0969,0.92208 -0.07005,0.0835 -0.196092,0.26048 -0.280106,0.39326 l -0.152752,0.24141 -0.109003,-0.12536 -0.109002,-0.12537 0.151912,-0.0786 c 0.08702,-0.045 0.16651,-0.13671 0.186084,-0.2147 0.0188,-0.0749 0.09808,-0.23084 0.176189,-0.34658 0.12723,-0.18852 0.137367,-0.23424 0.09736,-0.43922 -0.02456,-0.12583 -0.0725,-0.40168 -0.106536,-0.61298 -0.05602,-0.34785 -0.06618,-0.36966 -0.10729,-0.23052 -0.02498,0.0845 -0.06333,0.38629 -0.08524,0.67061 -0.03225,0.41858 -0.06254,0.54882 -0.159211,0.68459 -0.06566,0.0922 -0.121706,0.23192 -0.124543,0.31046 -0.0028,0.0785 -0.02245,0.13218 -0.04358,0.1192 -0.02113,-0.013 -0.03842,0.008 -0.03842,0.0459 0,0.0382 -0.09221,0.1595 -0.204907,0.26955 -0.112698,0.11005 -0.204905,0.22992 -0.204905,0.26638 0,0.1049 -0.343841,0.45774 -0.534017,0.54798 -0.235091,0.11156 -0.285606,0.10371 -0.285606,-0.0444 0,-0.0972 -0.01984,-0.11885 -0.08573,-0.0936 -0.06367,0.0244 -0.07769,0.0119 -0.05446,-0.0486 0.02799,-0.0729 0.01566,-0.0725 -0.117416,0.004 -0.138318,0.0794 -0.154595,0.0794 -0.233415,5.9e-4 -0.07882,-0.0788 -0.07447,-0.0903 0.06228,-0.16437 0.184728,-0.10007 0.115371,-0.10974 -0.07628,-0.0106 -0.09127,0.0472 -0.167511,0.0566 -0.215168,0.0264 -0.06053,-0.0383 -0.05739,-0.0468 0.01744,-0.0475 0.05019,-3.9e-4 0.104524,-0.0354 0.120741,-0.0776 0.01857,-0.0484 0.09864,-0.0774 0.216105,-0.0785 0.220669,-0.002 0.296809,-0.0535 0.529133,-0.35851 0.198507,-0.26061 0.553947,-0.95565 0.553947,-1.08321 0,-0.10761 0.177422,-0.52406 0.298743,-0.70124 0.101582,-0.14835 0.243564,-0.62512 0.289163,-0.97102 0.01605,-0.12173 0.06717,-0.27932 0.113617,-0.3502 0.04644,-0.0709 0.0913,-0.25581 0.09967,-0.41094 0.01473,-0.27286 0.05977,-0.45928 0.202005,-0.83608 0.110709,-0.29329 0.174601,-0.71802 0.169528,-1.12699 -0.0026,-0.21131 0.0097,-0.56861 0.02748,-0.79401 0.02663,-0.33847 0.01522,-0.44993 -0.06555,-0.64033 -0.05378,-0.12678 -0.118413,-0.29967 -0.143613,-0.38419 -0.0252,-0.0845 -0.07408,-0.15657 -0.10862,-0.16009 -0.114725,-0.0117 -0.118001,-0.0185 -0.06051,-0.12594 0.04743,-0.0886 0.026,-0.16597 -0.126264,-0.45573 -0.258987,-0.49285 -0.253755,-0.75774 0.02637,-1.33563 0.264437,-0.5455 0.314985,-0.97443 0.105356,-0.89398 -0.04481,0.0172 -0.06509,0.0149 -0.04506,-0.005 0.02003,-0.02 0.01222,-0.0656 -0.01735,-0.10121 -0.02957,-0.0356 -0.13167,-0.30285 -0.226876,-0.59381 -0.09809,-0.29978 -0.198346,-0.52293 -0.231341,-0.51496 -0.03203,0.008 -0.04547,-0.007 -0.02987,-0.0318 0.02148,-0.0348 -0.526651,-1.136 -0.611856,-1.22927 -0.06283,-0.0688 -0.745941,1.73321 -0.754303,1.98979 -0.0032,0.0986 0.0121,0.47897 0.03403,0.84524 0.03134,0.52338 0.01744,0.89622 -0.06495,1.74169 -0.05766,0.59167 -0.117931,1.38696 -0.133941,1.76732 -0.05461,1.29736 -0.07352,1.43653 -0.288206,2.12081 -0.247221,0.78797 -0.533045,1.42601 -0.748993,1.67196 -0.111908,0.12746 -0.157281,0.23121 -0.157281,0.35964 0,0.23529 -0.10958,0.95536 -0.169286,1.1124 -0.07501,0.1973 -0.33062,0.42133 -0.4807173,0.42133 -0.22283,0 -0.32605,-0.0906 -0.404591,-0.35506 -0.04097,-0.13796 -0.111642,-0.30754 -0.157048,-0.37684 -0.04541,-0.0693 -0.09671,-0.24548 -0.114004,-0.39152 -0.02669,-0.22536 -0.0139,-0.28925 0.0845,-0.42236 0.08631,-0.11674 0.09982,-0.1668 0.05284,-0.19583 -0.0926,-0.0572 -0.514208,-0.10749 -0.576861,-0.0688 -0.02961,0.0183 -0.03946,0.01 -0.02189,-0.0184 0.03905,-0.0632 -0.105627,-0.19536 -0.477532,-0.43629 -0.236319,-0.15309 -0.369375,-0.19625 -0.819623,-0.26586 -0.526787,-0.0815 -0.667593,-0.12472 -1.221392,-0.37528 -0.310803,-0.14062 -0.321727,-0.14333 -0.776066,-0.19259 -0.183136,-0.0199 -0.358335,-0.0568 -0.38933,-0.0822 -0.0348,-0.0285 -0.122975,-0.0118 -0.23052,0.0435 -0.122599,0.063 -0.310207,0.092 -0.633678,0.0979 -0.405927,0.007 -0.470151,0.0215 -0.550684,0.12093 -0.05014,0.0619 -0.09117,0.1663 -0.09117,0.23196 0,0.17114 -0.103586,0.21203 -0.208605,0.0823 -0.04926,-0.0608 -0.117298,-0.1106 -0.151199,-0.1106 -0.03917,0 -0.05352,-0.0553 -0.03937,-0.15171 0.01468,-0.1 -0.0025,-0.16123 -0.05043,-0.17962 -0.0553,-0.0212 -0.03471,-0.0712 0.086,-0.20865 0.08729,-0.0994 0.158706,-0.19911 0.158706,-0.22154 0,-0.0224 0.05763,-0.0716 0.128066,-0.10933 0.07044,-0.0377 0.128067,-0.0892 0.128067,-0.11442 0,-0.0252 0.06915,-0.10406 0.153679,-0.17518 0.08641,-0.0727 0.153679,-0.17947 0.153679,-0.2439 0,-0.063 0.05692,-0.16806 0.126487,-0.23341 0.06957,-0.0654 0.116242,-0.13541 0.103724,-0.15567 -0.01253,-0.0202 0.05146,-0.0346 0.142184,-0.032 0.16083,0.005 0.164526,-5e-5 0.147972,-0.19218 -0.0093,-0.10838 -0.05253,-0.3154 -0.09598,-0.46005 -0.045,-0.14979 -0.08894,-0.54412 -0.102086,-0.91613 l -0.02308,-0.65314 h -0.295711 c -0.23531,0 -0.331266,-0.0263 -0.469774,-0.12853 -0.09573,-0.0707 -0.237804,-0.15655 -0.315709,-0.19081 -0.22982,-0.10106 -0.296476,-0.44699 -0.167823,-0.87096 0.06406,-0.21109 0.06403,-0.261 -1.94e-4,-0.3842 -0.114269,-0.21906 -0.092,-0.49942 0.05914,-0.74451 0.07349,-0.11919 0.160704,-0.23975 0.193798,-0.26793 0.172438,-0.1468 0.476056,-0.96733 0.672899,-1.81854 0.092,-0.3978 0.462473,-1.46786 0.542981,-1.5683 0.02518,-0.0314 0.06779,-0.21583 0.09467,-0.40981 0.02689,-0.19398 0.09331,-0.57168 0.147598,-0.83934 0.05429,-0.26766 0.125507,-0.75175 0.158258,-1.07576 0.07458,-0.73787 0.245161,-2.03538 0.316523,-2.40764 0.02971,-0.15496 0.144254,-0.495 0.254551,-0.75564 0.158247,-0.37395 0.21234,-0.58463 0.256485,-0.99892 0.03077,-0.28876 0.158305,-0.95148 0.283411,-1.47271 0.29822,-1.24245 0.501031,-2.17423 0.655959,-3.01369 0.104806,-0.56789 0.172897,-0.78358 0.40429,-1.28067 0.153041,-0.32877 0.319235,-0.72455 0.369319,-0.87951 0.158726,-0.49111 0.362342,-0.88697 0.619412,-1.20423 0.384,-0.47389 1.043407,-1.47199 1.043407,-1.5793 0,-0.0976 -0.105993,-0.004 -0.277289,0.24466 -0.185428,0.26923 -0.229685,0.29061 -0.404399,0.19533 -0.02275,-0.0124 0.04641,-0.10249 0.15368,-0.2002 l 0.195036,-0.17764 -0.212082,0.0232 c -0.122643,0.0134 -0.257664,0.0688 -0.320166,0.13126 -0.05945,0.0594 -0.154955,0.10808 -0.212243,0.10808 -0.05729,0 -0.184843,0.0807 -0.283454,0.1793 -0.09861,0.0986 -0.201044,0.17929 -0.227629,0.17929 -0.02659,0 -0.08509,0.0561 -0.130001,0.12463 -0.09235,0.14094 -0.0531,0.2613 0.159862,0.49024 l 0.11927,0.12822 -0.201309,0.11027 -0.201308,0.11027 -0.159949,-0.18217 c -0.153226,-0.17452 -0.159151,-0.19798 -0.140957,-0.55828 0.01754,-0.34751 0.03158,-0.3876 0.184502,-0.52727 0.205972,-0.18813 0.210977,-0.23432 0.01437,-0.13265 -0.188455,0.0974 -0.307596,0.10658 -0.217695,0.0167 0.03381,-0.0338 0.06147,-0.11449 0.06147,-0.17929 0,-0.0929 0.02833,-0.11783 0.133964,-0.11783 0.08616,0 0.191271,-0.0616 0.294553,-0.17251 0.104729,-0.11251 0.229533,-0.18499 0.358796,-0.20837 0.121108,-0.0219 0.266061,-0.10176 0.372644,-0.20527 0.09594,-0.0932 0.328178,-0.2451 0.516086,-0.33761 0.378136,-0.18615 0.717527,-0.47405 0.939951,-0.79733 0.152281,-0.22133 0.5078033,-0.43042 0.7318723,-0.43042 0.06694,0 0.183669,0.0487 0.259389,0.10829 0.07572,0.0596 0.14608,0.0999 0.156357,0.0897 1.164701,-1.16226 1.457471,-1.41106 2.041303,-1.73473 0.330329,-0.18314 0.755702,-0.42408 0.945271,-0.53543 0.405691,-0.23829 1.04228,-0.50749 2.440649,-1.03209 0.56112,-0.21051 1.050004,-0.42226 1.086408,-0.47056 0.03641,-0.0483 0.196735,-0.38166 0.356289,-0.74079 0.40163,-0.90401 0.697812,-1.22244 1.371477,-1.47449 0.244239,-0.0914 0.280142,-0.12432 0.334987,-0.30737 0.08399,-0.28035 0.304217,-0.51589 0.656912,-0.70261 0.461969,-0.24457 0.790582,-0.3188 1.75631,-0.39672 0.73092,-0.059 1.950818,-0.21301 2.306786,-0.29128 0.06158,-0.0135 0.07606,0.0672 0.07971,0.44449 0.0048,0.49415 0.04292,0.87101 0.129585,1.28067 0.08495,0.40155 0.0987,0.43542 0.176759,0.43542 0.04036,0 0.07339,0.0237 0.07339,0.0527 0,0.029 0.09797,-0.006 0.217713,-0.0768 0.119742,-0.0712 0.278364,-0.15388 0.352494,-0.18368 0.07413,-0.0298 0.316175,-0.14765 0.537878,-0.2619 0.221703,-0.11424 0.492561,-0.25325 0.601908,-0.3089 0.109347,-0.0557 0.351392,-0.12484 0.537878,-0.15374 0.186486,-0.0289 0.356001,-0.0788 0.376701,-0.11082 0.0207,-0.032 0.03799,-0.0383 0.03842,-0.014 4.06e-4,0.0244 0.05265,0.0107 0.116043,-0.0304 0.06339,-0.0411 0.167127,-0.0707 0.23052,-0.0657 0.0664,0.005 0.115259,-0.0199 0.115259,-0.0592 0,-0.0376 0.05187,-0.0686 0.11526,-0.069 0.205207,-0.001 0.34576,-0.0605 0.346562,-0.14615 6.59e-4,-0.071 0.0079,-0.0724 0.0481,-0.009 0.04049,0.064 0.06254,0.061 0.152895,-0.0207 0.07972,-0.0721 0.105772,-0.0779 0.106364,-0.0236 6.78e-4,0.0614 0.0074,0.0615 0.04604,5.8e-4 0.03636,-0.0574 0.05014,-0.0524 0.07011,0.0256 0.02011,0.0785 0.02599,0.0739 0.0308,-0.0245 0.005,-0.10201 0.01828,-0.11129 0.08278,-0.0578 0.06195,0.0514 0.07699,0.0502 0.07762,-0.007 6.19e-4,-0.0552 0.01144,-0.0538 0.05044,0.007 0.03945,0.061 0.05015,0.0505 0.05207,-0.0512 0.0022,-0.11849 0.0076,-0.12125 0.07157,-0.0369 0.06375,0.084 0.07172,0.0845 0.102029,0.005 0.01808,-0.0471 0.0475,-0.0711 0.06538,-0.0532 0.01788,0.0179 0.06719,0.004 0.109577,-0.0311 0.06144,-0.0507 0.08147,-0.0505 0.09873,7.8e-4 0.01191,0.0354 0.04753,0.0484 0.07915,0.0288 0.03162,-0.0195 0.114006,-0.0416 0.183079,-0.0489 0.06907,-0.007 0.144614,-0.0434 0.167868,-0.08 0.03155,-0.0497 0.04248,-0.0439 0.04306,0.023 9.1e-4,0.10289 0.08407,0.12122 0.116252,0.0256 0.0168,-0.0499 0.04032,-0.0485 0.106721,0.006 0.0741,0.0612 0.08527,0.0578 0.08596,-0.0256 6.58e-4,-0.0809 0.0087,-0.0839 0.05123,-0.0191 0.04484,0.0683 0.05605,0.0683 0.100884,0 0.04318,-0.0658 0.05055,-0.0639 0.05123,0.0128 4.06e-4,0.0493 0.02384,0.0897 0.05201,0.0897 0.02817,0 0.05123,-0.0487 0.05123,-0.10813 0,-0.10591 0.0022,-0.10565 0.106356,0.0128 0.0585,0.0665 0.09171,0.0921 0.07382,0.0569 -0.02254,-0.0444 0.0156,-0.064 0.124163,-0.064 0.09079,0 0.157033,0.0269 0.157488,0.064 5.42e-4,0.0439 0.01555,0.0407 0.04785,-0.0104 0.02588,-0.0409 0.03813,-0.0888 0.0272,-0.10652 -0.0264,-0.0427 0.14045,-0.0291 0.216077,0.0177 0.03278,0.0203 0.07407,0.0134 0.09177,-0.0152 0.0177,-0.0286 0.05523,-0.0521 0.0834,-0.0521 0.02817,0 0.03476,0.0266 0.01463,0.0592 -0.02609,0.0422 0.0088,0.0501 0.121441,0.0276 0.10191,-0.0204 0.167034,-0.01 0.183358,0.0304 0.01846,0.0452 0.04129,0.0412 0.08434,-0.0148 0.04648,-0.0605 0.06474,-0.0627 0.08591,-0.0101 0.02013,0.05 0.04449,0.0435 0.09692,-0.0256 0.06571,-0.0867 0.07014,-0.0868 0.07167,-0.003 0.0016,0.087 0.104082,0.13292 0.104082,0.0467 0,-0.0516 0.262722,-0.0419 0.351497,0.013 0.03454,0.0213 0.100795,0.008 0.147231,-0.0296 0.04644,-0.0376 0.06872,-0.0422 0.04951,-0.0102 -0.03859,0.0644 0.156174,0.0855 1.552043,0.16834 0.593601,0.0352 0.929963,0.0795 1.129831,0.1489 0.156527,0.0543 0.387046,0.11556 0.512265,0.13611 0.125218,0.0205 0.458189,0.14697 0.739934,0.28095 0.281746,0.13398 0.694642,0.33008 0.917547,0.43577 0.222905,0.1057 0.461236,0.25868 0.529625,0.33996 0.06992,0.0831 0.175323,0.14777 0.240811,0.14777 0.06406,0 0.390497,0.0555 0.725423,0.12331 0.525276,0.10636 0.701242,0.11947 1.280544,0.0954 0.608123,-0.0253 0.730885,-0.0145 1.299052,0.11393 0.719271,0.1626 0.986865,0.15525 1.567985,-0.0431 0.318369,-0.10867 0.381701,-0.11572 0.519331,-0.0579 0.169529,0.0713 0.284494,0.33349 0.349281,0.79662 0.03141,0.22454 0.04794,0.24365 0.39692,0.459 0.470517,0.29035 0.866776,0.61025 1.44263,1.16467 0.774478,0.74565 1.066408,0.99427 1.28222,1.09199 0.270202,0.12235 0.352512,0.19276 0.453232,0.38768 0.04592,0.0889 0.297277,0.32943 0.558557,0.53455 0.261281,0.20512 0.629332,0.50918 0.817892,0.67568 0.211852,0.18707 0.366556,0.28807 0.404924,0.26435 0.03806,-0.0235 0.04881,-0.0169 0.02778,0.0171 -0.01966,0.0318 0.211959,0.26205 0.54277,0.53952 0.631632,0.52979 1.677738,1.56675 1.947932,1.93091 0.272114,0.36674 0.947248,1.46968 1.109452,1.81246 0.08157,0.17239 0.243316,0.64769 0.35943,1.05622 0.135048,0.47514 0.273622,0.8443 0.384593,1.02453 0.171317,0.27823 0.178483,0.28305 0.574853,0.38639 0.491319,0.1281 0.56534,0.16785 0.803415,0.43137 0.146856,0.16255 0.214009,0.20196 0.305183,0.17907 0.07971,-0.02 0.147214,0.004 0.212231,0.076 0.05244,0.058 0.126349,0.10535 0.164247,0.10535 0.216181,0 -0.102065,0.31127 -0.411578,0.40255 -0.238788,0.0704 -0.278648,0.1907 -0.04863,0.14673 0.109307,-0.0209 0.122893,-0.007 0.109251,0.11044 -0.02162,0.18646 -0.181368,0.19705 -0.534353,0.0354 -0.318286,-0.14572 -0.345901,-0.15335 -0.302886,-0.0837 0.01628,0.0263 0.161722,0.10878 0.323186,0.18317 0.256507,0.11818 0.333998,0.13102 0.61374,0.10168 0.372697,-0.0391 0.445942,0.0459 0.08249,0.0957 -0.382768,0.0525 -0.522407,0.0389 -0.739426,-0.0718 -0.112545,-0.0574 -0.227458,-0.0903 -0.255365,-0.073 -0.0279,0.0173 -0.0444,0.0119 -0.03666,-0.012 0.0077,-0.0238 -0.07031,-0.14656 -0.173453,-0.27275 -0.109185,-0.13358 -0.202955,-0.31503 -0.224454,-0.43433 -0.07134,-0.39589 -0.127242,-0.43305 -0.497,-0.33036 l -0.191813,0.0533 0.08334,0.18977 c 0.59703,1.35947 0.962822,2.53279 1.121193,3.59633 0.09382,0.63006 0.106107,2.74524 0.02142,3.6883 -0.08972,0.99917 -0.299291,2.67819 -0.508314,4.07251 -0.109819,0.73254 -0.213815,1.53935 -0.231109,1.79292 -0.01729,0.25357 -0.06441,0.79529 -0.104707,1.20383 -0.0911,0.92351 -0.10407,1.52352 -0.03657,1.69057 0.03761,0.0931 0.02674,0.2684 -0.03969,0.64033 -0.354193,1.98308 -0.417131,2.37195 -0.417131,2.57727 0,0.12711 -0.03106,0.27923 -0.06902,0.33805 -0.106781,0.16543 -0.330161,0.78781 -0.415294,1.15708 -0.09816,0.42578 -0.270152,0.69007 -0.504129,0.77468 -0.218881,0.0791 -0.241472,0.16877 -0.03088,0.12252 0.1134,-0.0249 0.176332,-0.007 0.256133,0.0728 0.126407,0.12641 0.132035,0.2138 0.02685,0.4172 -0.04341,0.0839 -0.06277,0.18077 -0.04301,0.21516 0.01975,0.0344 0.01748,0.0459 -0.0051,0.0255 -0.03689,-0.0333 -0.414714,0.22357 -0.494345,0.33614 -0.01774,0.0251 -0.04676,0.15142 -0.06449,0.28075 -0.01871,0.1365 -0.0814,0.28983 -0.149454,0.36552 -0.06447,0.0717 -0.147388,0.2226 -0.184246,0.3353 -0.03686,0.1127 -0.1364,0.29331 -0.221196,0.40135 -0.1134,0.14449 -0.139064,0.21155 -0.09704,0.25357 0.08348,0.0835 0.07006,0.79414 -0.02078,1.10003 -0.04286,0.1443 -0.09766,0.44239 -0.121796,0.66243 -0.03586,0.32702 -0.119895,0.66138 -0.195941,0.77968 -0.01516,0.0236 -0.203343,-0.18448 -0.273846,-0.30276 -0.04071,-0.0683 -0.0515,-0.0683 -0.09713,0 -0.02823,0.0423 -0.06008,0.0999 -0.07076,0.12806 -0.03119,0.0822 -0.09444,-0.008 -0.102704,-0.14606 -0.0042,-0.0699 -0.02992,-0.12327 -0.05719,-0.11858 -0.02728,0.005 -0.04248,-0.0722 -0.03378,-0.17078 l 0.01581,-0.17929 -0.224424,0.24332 c -0.249145,0.27013 -0.422311,0.32614 -0.370536,0.11986 0.02201,-0.0877 0.0078,-0.1285 -0.04887,-0.14087 -0.13868,-0.0302 0.377232,-0.67911 0.588018,-0.73956 0.165877,-0.0476 0.175297,-0.0639 0.234592,-0.40649 0.03398,-0.19631 0.06319,-0.46298 0.06492,-0.59261 0.0038,-0.28757 0.08366,-0.53226 0.242183,-0.74245 0.06575,-0.0872 0.119553,-0.1974 0.119553,-0.24492 0,-0.0475 0.09204,-0.17103 0.204527,-0.27445 0.135883,-0.12494 0.215545,-0.24905 0.237362,-0.3698 0.01806,-0.1 0.06446,-0.24423 0.103099,-0.3206 0.06233,-0.12317 0.05867,-0.15947 -0.03246,-0.32172 -0.142558,-0.25381 -0.13262,-0.4643 0.02898,-0.61407 0.144561,-0.13398 0.144371,-0.22973 -0.0012,-0.63004 -0.05887,-0.16184 -0.07101,-0.31259 -0.04645,-0.57681 0.03121,-0.3358 0.02274,-0.37885 -0.138199,-0.70297 -0.09429,-0.18989 -0.301964,-0.52968 -0.461494,-0.75508 -0.159529,-0.22539 -0.330605,-0.49049 -0.380167,-0.5891 -0.04956,-0.0986 -0.166209,-0.28643 -0.259221,-0.41737 -0.220258,-0.31008 -0.636863,-1.36673 -0.693724,-1.75951 -0.02449,-0.16918 -0.04499,-0.51672 -0.04556,-0.77232 -6.19e-4,-0.2674 -0.03284,-0.56104 -0.07595,-0.69156 -0.0412,-0.12476 -0.108098,-0.48041 -0.148654,-0.79033 -0.07733,-0.59098 -0.474311,-2.89717 -0.529072,-3.07358 -0.02793,-0.09 -0.03777,-0.0838 -0.08093,0.0512 -0.02702,0.0845 -0.148188,0.3842 -0.269262,0.66595 -0.191576,0.44583 -1.147368,2.79636 -1.562252,3.84198 -0.279249,0.70378 -0.710807,1.65001 -1.063037,2.3308 -0.19679,0.38036 -0.465385,0.9394 -0.596878,1.24231 -0.131493,0.30291 -0.485777,1.04184 -0.787298,1.64206 -0.30152,0.60022 -0.59111,1.18564 -0.643532,1.30092 -0.05242,0.11528 -0.196496,0.36689 -0.320165,0.55913 -0.123669,0.19223 -0.224852,0.36927 -0.224852,0.39341 0,0.10621 -0.900113,1.8209 -1.083066,2.06322 -0.111449,0.14761 -0.212456,0.32242 -0.224461,0.38846 -0.02855,0.15709 -0.411783,0.8994 -0.697543,1.35114 -0.205032,0.32412 -1.118875,1.83682 -1.221404,2.02182 -0.02342,0.0423 -0.120563,0.21515 -0.215866,0.38419 -0.0953,0.16905 -0.20571,0.38804 -0.245348,0.48666 -0.03964,0.0986 -0.182611,0.36767 -0.317719,0.59793 -0.241693,0.41189 -0.245109,0.42381 -0.212041,0.74019 0.02933,0.28057 0.05931,0.34944 0.235179,0.54024 0.206882,0.22444 0.312112,0.51446 0.260962,0.71923 -0.01707,0.0683 0.01135,0.16973 0.07181,0.25613 0.05503,0.0787 0.140759,0.31591 0.1905,0.52722 0.04974,0.21131 0.143179,0.52251 0.20764,0.69156 0.06758,0.17723 0.129661,0.48086 0.146631,0.71717 0.01619,0.22539 0.04426,0.54316 0.06239,0.70615 0.02268,0.20389 0.006,0.40727 -0.05346,0.65192 -0.04753,0.19556 -0.08811,0.40799 -0.09017,0.47205 -0.0075,0.2326 -0.09759,0.50068 -0.168301,0.50068 -0.06122,0 -0.06097,-0.0208 0.0017,-0.14087 0.04042,-0.0775 0.07445,-0.25613 0.07563,-0.39701 0.0012,-0.14087 0.03554,-0.39444 0.07635,-0.56349 0.08343,-0.34553 0.09802,-0.64033 0.03169,-0.64033 -0.02427,0 -0.03446,0.0519 -0.02265,0.11526 0.01181,0.0634 -0.01665,0.2651 -0.06324,0.44823 -0.04659,0.18314 -0.120778,0.48753 -0.164861,0.67643 -0.08531,0.36553 -0.188139,0.47262 -0.271955,0.28321 -0.04332,-0.0979 -0.04693,-0.0904 -0.02504,0.0515 0.03762,0.24394 -0.0099,0.32072 -0.198698,0.32072 -0.191105,0 -0.361162,-0.15445 -0.416817,-0.37857 -0.05004,-0.2015 -0.05095,-0.70891 -0.0019,-1.08138 0.0747,-0.56777 0.07514,-0.63377 0.0047,-0.69226 -0.04575,-0.038 -0.06187,-0.13071 -0.04724,-0.27179 0.02179,-0.21014 0.02082,-0.21167 -0.05192,-0.0813 -0.04077,0.0731 -0.157732,0.1966 -0.259916,0.27454 -0.102184,0.0779 -0.25516,0.25444 -0.339947,0.39224 -0.159948,0.25995 -0.238017,0.31503 -0.228022,0.16089 0.006,-0.0921 0.156937,-0.31236 0.512347,-0.7476 l 0.20263,-0.24814 -0.17529,0.0976 c -0.09641,0.0537 -0.263244,0.15123 -0.370745,0.21676 -0.107499,0.0655 -0.273759,0.12391 -0.369465,0.12972 -0.195189,0.0118 -0.195249,-0.0475 -1.02e-4,-0.0965 0.15971,-0.0401 0.62954,-0.31274 0.78273,-0.45424 0.137901,-0.12737 0.151934,-0.38159 0.03877,-0.70233 -0.07744,-0.21948 -0.06287,-0.3372 0.03429,-0.27715 0.03249,0.0201 0.04253,-0.005 0.02582,-0.0632 -0.01505,-0.0528 -0.0429,-0.1998 -0.06189,-0.32658 -0.0225,-0.15022 -0.08528,-0.28405 -0.180215,-0.3842 -0.08013,-0.0845 -0.164448,-0.20473 -0.18738,-0.26712 -0.0389,-0.10583 -0.05833,-0.0933 -0.290006,0.18706 -0.356864,0.43187 -0.850853,1.16595 -0.929423,1.38116 -0.327725,0.89765 -0.725021,1.87689 -0.864335,2.13039 -0.09311,0.16942 -0.245024,0.51551 -0.337585,0.76908 -0.199416,0.5463 -0.21925,0.57459 -0.474377,0.67667 -0.281298,0.11256 -0.341837,0.26684 -0.360851,0.91965 -0.01469,0.50452 -0.03077,0.58352 -0.176127,0.86561 -0.08798,0.17074 -0.196417,0.34068 -0.240978,0.37767 -0.04456,0.037 -0.08102,0.12145 -0.08102,0.18772 0,0.081 -0.04848,0.14554 -0.148125,0.19707 -0.148105,0.0766 -0.261686,0.2996 -0.261686,0.51382 0,0.0613 -0.04271,0.15583 -0.0949,0.21007 -0.08224,0.0855 -0.08693,0.12253 -0.03517,0.2779 0.06728,0.20194 0.04991,0.35775 -0.04017,0.36029 -0.0826,0.002 -0.290796,0.18121 -0.290796,0.24983 0,0.0307 -0.0461,0.0558 -0.102453,0.0558 -0.07391,0 -0.102453,-0.0341 -0.102453,-0.12258 0,-0.0674 -0.03458,-0.13585 -0.07684,-0.15207 -0.04681,-0.018 -0.07684,0 -0.07684,0.0458 0,0.0982 -0.07277,0.0959 -0.156556,-0.005 -0.05938,-0.0715 -0.07357,-0.0674 -0.130161,0.0384 l -0.06351,0.11868 -0.03633,-0.14474 c -0.03093,-0.12331 -0.05526,-0.14009 -0.16359,-0.1129 l -0.127259,0.0319 0.133795,-0.23938 c 0.07359,-0.13167 0.134092,-0.27683 0.134456,-0.32259 3.68e-4,-0.0457 0.04647,-0.22932 0.102452,-0.40792 0.05599,-0.1786 0.101793,-0.41792 0.101793,-0.53183 0,-0.16935 0.03189,-0.23717 0.17499,-0.37214 l 0.174989,-0.16503 -0.09781,-0.14837 c -0.0538,-0.0816 -0.09796,-0.20004 -0.09815,-0.2632 -2.51e-4,-0.0855 -0.0718,-0.15515 -0.28031,-0.27282 -0.153984,-0.0869 -0.390266,-0.27879 -0.525071,-0.4264 -0.318012,-0.34824 -0.562037,-0.52774 -0.883474,-0.64988 l -0.260231,-0.0989 -0.29348,0.1229 c -0.555474,0.23261 -1.217369,0.44878 -2.009567,0.65631 -0.781296,0.20467 -0.811416,0.20839 -1.881142,0.23256 l -1.087133,0.0246 -0.282399,-0.15937 c -0.15533,-0.0877 -0.304763,-0.15938 -0.332083,-0.15938 -0.02732,0 -0.113531,0.0634 -0.191577,0.14087 l -0.141903,0.14087 -0.01996,1.21542 c -0.01098,0.66848 -0.0048,1.27935 0.01383,1.3575 0.02064,0.0868 0.217035,0.31653 0.504633,0.59032 0.275921,0.26267 0.43564,0.44823 0.385809,0.44823 -0.04677,0 -0.150194,-0.0542 -0.229835,-0.12046 -0.196191,-0.1632 -0.363756,-0.24706 -0.394447,-0.1974 -0.03319,0.0537 0.04091,0.17208 0.100659,0.16082 0.09791,-0.0185 0.165397,0.007 0.300574,0.11332 l 0.139794,0.10996 -0.196918,0.0697 c -0.108305,0.0384 -0.250625,0.0571 -0.316265,0.0417 -0.103905,-0.0244 -0.114739,-0.0135 -0.08373,0.0842 0.02845,0.0896 0.01898,0.10581 -0.04714,0.0804 -0.201077,-0.0772 -0.03628,0.48528 0.208717,0.71233 0.138832,0.12867 0.140111,0.13461 0.04403,0.20487 -0.157124,0.11489 -0.207875,0.0887 -0.356254,-0.18393 z"
       id="path977"       
       sodipodi:nodetypes="cccssscccssccsccccccsccscccccsccsssccccsccccccccccscccscccccccccccssccscscscscccccccccsccccscccccccccccccccccccccscsccccccccsccccccscscccscscscccccccscccccccscscccccccccsccccccsssscccccccccsscccccsccccccscccccccssccccsccccsccccccccccccsccccccccccccccssccscccccscccccccscccssccccscccccccscccccccccscccccsccccccccccccccccsscccccsccccccccccccccccccccccccsccccscsccccccccccccccccccsssccssccssccssccccccsccscccssccccscccccccccccccccccccccccccccccscssccssscscccccccccsccccccccccsccsccsccsscccccccccccc" />
  </g>
</svg>
