<?xml version="1.0" encoding="UTF-8" standalone="no"?>
<svg
   xmlns:dc="http://purl.org/dc/elements/1.1/"
   xmlns:cc="http://creativecommons.org/ns#"
   xmlns:rdf="http://www.w3.org/1999/02/22-rdf-syntax-ns#"
   xmlns:svg="http://www.w3.org/2000/svg"
   xmlns="http://www.w3.org/2000/svg"
   xmlns:sodipodi="http://sodipodi.sourceforge.net/DTD/sodipodi-0.dtd"
   xmlns:inkscape="http://www.inkscape.org/namespaces/inkscape"
   width="220"
   height="235"
   viewBox="0 0 58.208332 62.177085"
   version="1.1"
   id="svg8"
   sodipodi:docname="peq-box-flat.svg"
   inkscape:version="1.0.2-2 (e86c870879, 2021-01-15)">
  <defs
     id="defs2" />
  <sodipodi:namedview
     id="base"
     pagecolor="#000000"
     bordercolor="#666666"
     borderopacity="1.0"
     showgrid="false"
     fit-margin-top="0"
     fit-margin-left="0"
     fit-margin-right="0"
     fit-margin-bottom="0"
     units="px"
     inkscape:document-rotation="0"
     inkscape:zoom="1.5165184"
     inkscape:cx="23.548534"
     inkscape:cy="215.68647"
     inkscape:window-width="1258"
     inkscape:window-height="1198"
     inkscape:window-x="286"
     inkscape:window-y="492"
     inkscape:window-maximized="0"
     inkscape:current-layer="svg8" />
  <metadata
     id="metadata5">
    <rdf:RDF>
      <cc:Work
         rdf:about="">
        <dc:format>image/svg+xml</dc:format>
        <dc:type
           rdf:resource="http://purl.org/dc/dcmitype/StillImage" />
        <dc:title></dc:title>
      </cc:Work>
    </rdf:RDF>
  </metadata>
  <g
     id="layer1"
     transform="rotate(45,362.65955,168.74377)">
    <path
       style="fill:none;stroke:#ffffff;stroke-width:0.678334;stroke-miterlimit:4;stroke-dasharray:none;stroke-opacity:1"
       d="m 41.113538,319.19423 c -0.436528,-0.0152 -0.626033,0.10672 -1.628318,1.05076 -8.046846,7.57969 -10.234875,9.59139 -10.884095,10.00693 -0.189871,0.12164 -0.396138,0.11537 -0.527734,-0.0152 -0.54373,-0.54263 -0.648928,-0.5015 -1.893021,0.74006 -1.098232,1.09598 -1.208107,1.17066 -1.600093,1.08612 -0.952731,-0.20534 -3.326376,-2.23694 -4.315716,-3.69382 -0.724157,-1.06638 -2.58061,-4.42989 -2.608773,-4.72652 -0.01845,-0.19433 0.29663,-0.57301 1.14063,-1.37117 1.145688,-1.08347 1.16299,-1.10959 0.991808,-1.49035 -0.09583,-0.21317 -1.048037,-1.22277 -2.115987,-2.24357 -1.818563,-1.73829 -1.972163,-1.85494 -2.421598,-1.83908 -0.263921,0.01 -0.585147,0.12198 -0.713839,0.25048 -0.277121,0.27654 -0.882469,1.39481 -0.799888,1.47766 0.03161,0.0317 -0.664941,0.81044 -1.547956,1.73045 -1.287895,1.34228 -1.708392,1.70558 -2.126415,1.83836 -0.2866002,0.0909 -0.7501482,0.39413 -1.0301662,0.67358 -0.4108409,0.41 -0.6096401,0.49603 -1.0293813,0.44606 -0.983973,-0.11722 -3.4190397,-2.03678 -4.4901507,-3.53944 -0.8658865,-1.21478 -0.9262081,-1.70631 -0.2822482,-2.29966 0.2674692,-0.24538 0.5529937,-0.6616 0.6354923,-0.92398 0.1067942,-0.33898 0.5527086,-0.87891 1.5425434,-1.86773 0.7657911,-0.76499 1.3510319,-1.43212 1.3003764,-1.48268 -0.114637,-0.11435 0.9361745,-1.13097 1.2439033,-1.2035 0.1242282,-0.0293 0.2997587,0.0203 0.3898827,0.11028 0.098306,0.0981 0.2759266,0.0516 0.4442339,-0.11622 0.3691435,-0.36838 0.3780966,-1.55976 0.01443,-1.92265 -0.1547675,-0.1545 -0.2573585,-0.38251 -0.22796,-0.50677 0.029419,-0.12418 1.9555704,-2.20045 4.2804104,-4.61371 3.06772,-3.1846 4.519494,-4.78597 5.293691,-5.83986 0.925564,-1.25991 1.199334,-1.54545 2.068849,-2.15757 0.754255,-0.5311 2.545787,-2.25828 7.244827,-6.98487 7.014829,-7.05582 6.299247,-6.51157 7.276847,-5.53596 0.392556,0.39174 0.622557,0.50166 0.981955,0.46926 0.614348,-0.0554 0.897663,-0.3433 0.703535,-0.71648 -0.141374,-0.27228 -0.05538,-0.39867 0.9621,-1.41407 1.272231,-1.26962 1.242316,-1.2659 2.223183,-0.28702 0.38792,0.38713 0.731091,0.60679 0.948036,0.60677 0.187015,0 0.797409,0.29184 1.356423,0.64853 0.559047,0.3567 1.138265,0.68018 1.287166,0.71886 1.265749,0.32864 1.199517,0.27792 1.76437,1.35134 0.292383,0.55563 0.578609,1.09586 0.636066,1.20048 0.05745,0.10468 0.0078,0.38997 -0.110357,0.63406 -0.152172,0.31431 -0.136741,0.5607 0.0528,0.84444 l 0.267609,0.4006 -1.19688,1.19443 c -0.988084,0.98607 -1.226651,1.16473 -1.367466,1.0242 -0.230903,-0.23043 -0.615201,0.18264 -0.655798,0.70478 -0.02568,0.33095 0.106645,0.56295 0.604316,1.05961 0.756086,0.75454 1.301622,0.80963 2.150773,0.21712 0.883299,-0.61631 1.15229,-0.55235 2.239555,0.53271 0.797342,0.7957 0.948984,1.01956 0.948983,1.40097 -7e-6,0.41411 0.15161,0.60525 1.727764,2.17817 2.180402,2.17596 4.689803,5.09289 4.62704,5.3785 -0.0258,0.11757 -0.212543,0.38031 -0.414851,0.58411 -0.358823,0.36289 -0.356378,0.382 0.137182,0.87454 0.277764,0.27721 0.486099,0.58398 0.462979,0.68173 -0.02309,0.0977 -2.636605,2.76297 -5.807816,5.92268 -5.830766,5.80925 -6.595455,6.67349 -6.229632,7.03856 0.113075,0.11282 -0.05271,0.35712 -0.63903,0.94225 -0.674537,0.67314 -0.864624,0.78737 -1.285611,0.7723 z"
       id="path2604" />
  </g>
</svg>
