<?xml version="1.0" encoding="UTF-8" standalone="no"?>
<!-- Created with Inkscape (http://www.inkscape.org/) -->

<svg
   xmlns:dc="http://purl.org/dc/elements/1.1/"
   xmlns:cc="http://creativecommons.org/ns#"
   xmlns:rdf="http://www.w3.org/1999/02/22-rdf-syntax-ns#"
   xmlns:svg="http://www.w3.org/2000/svg"
   xmlns="http://www.w3.org/2000/svg"
   xmlns:sodipodi="http://sodipodi.sourceforge.net/DTD/sodipodi-0.dtd"
   width="220"
   height="235"
   viewBox="0 0 58.208332 62.177085"
   version="1.1"
   id="svg8"   
   sodipodi:docname="mac-10.svg" >
  <defs
     id="defs2" />
  <sodipodi:namedview
     id="base"
     pagecolor="#000000"
     bordercolor="#666666"
     borderopacity="1.0"
     showgrid="false"
     units="px" />
  <metadata
     id="metadata5">
    <rdf:RDF>
      <cc:Work
         rdf:about="">
        <dc:format>image/svg+xml</dc:format>
        <dc:type
           rdf:resource="http://purl.org/dc/dcmitype/StillImage" />
        <dc:title></dc:title>
      </cc:Work>
    </rdf:RDF>
  </metadata>
  <g
     id="layer1"
     transform="translate(0,-234.8229)">
    <path
       style="fill:none;stroke:#fffffd;stroke-width:0.4;stroke-opacity:1;stroke-miterlimit:4;stroke-dasharray:none"
       d="m 52.130403,294.81081 c -0.206047,0.13816 -0.646029,-0.27495 -6.897564,-6.4756 l -6.677463,-6.62314 -1.419017,1.45153 -1.419018,1.45156 -0.460718,-0.0959 c -0.358859,-0.0747 -0.499322,-0.18137 -0.635336,-0.48222 -0.09604,-0.21244 -0.725268,-0.99442 -1.398293,-1.73777 -0.673025,-0.74332 -1.451279,-1.67417 -1.729445,-2.06855 -0.75069,-1.06429 -2.241977,-3.52752 -2.459161,-4.06192 -0.987828,-2.43058 -3.447869,-3.82323 -5.799212,-3.283 -0.398552,0.0915 -0.782219,0.1564 -0.852598,0.14405 -0.07037,-0.0126 -0.614497,0.41674 -1.209155,0.95358 l -1.081197,0.97604 0.254083,0.25412 c 0.244691,0.24466 0.228551,0.27731 -0.436702,0.88207 -0.624337,0.56752 -0.717337,0.60799 -0.966788,0.42048 -0.263007,-0.19766 -0.302106,-0.17466 -0.830376,0.48838 -0.414909,0.52078 -0.587574,0.66261 -0.686417,0.56379 -0.09653,-0.0965 -0.138333,-0.0642 -0.155418,0.11944 -0.01697,0.18256 -0.141773,0.28903 -0.455238,0.38833 -0.746168,0.23644 -1.183545,0.63919 -1.183548,1.08993 0,0.365 0.161474,0.56758 1.594246,2.00036 l 1.594243,1.59424 -0.457625,0.33367 c -0.326246,0.23777 -0.369619,0.30043 -0.151051,0.21816 0.415462,-0.15641 0.24246,0.0161 -1.086733,1.08433 -1.663474,1.33702 -1.989827,1.49607 -2.77736,1.3532 -0.83947,-0.1522 -1.184348,-0.48473 -1.50143,-1.44773 -0.382802,-1.16259 -2.9568599,-4.02027 -5.9711496,-6.62911 -3.3823588,-2.92742 -4.6244281,-4.20265 -4.9192092,-5.0506 -0.5323996,-1.53157 0.2418967,-2.80691 2.747922,-4.52602 3.9006702,-2.67586 5.8672108,-4.13845 7.4964268,-5.57536 2.752521,-2.42769 3.713552,-2.93788 4.152607,-2.20456 0.287974,0.48096 0.01227,1.0299 -1.174547,2.33873 -0.971026,1.07079 -3.420996,3.13082 -4.358431,3.66468 l -0.336091,0.1914 0.535148,0.0237 0.535143,0.0236 5.347364,-5.34737 5.347365,-5.34738 -0.533837,-0.65667 c -0.293618,-0.36129 -0.533924,-0.76186 -0.53402,-0.89031 -9.6e-5,-0.12841 0.423059,-0.689 0.940346,-1.24574 1.112287,-1.19704 1.256495,-1.22505 2.199219,-0.42675 l 0.621446,0.52631 5.050951,-5.05098 5.050946,-5.05093 -0.350857,-0.35086 c -0.406916,-0.40689 -0.423869,-0.84711 -0.08276,-2.14929 0.268074,-1.0233 0.679225,-1.50883 1.277604,-1.50883 0.422111,0 0.53164,0.0689 1.385596,0.87181 0.251135,0.23613 0.524781,0.42933 0.608092,0.42933 0.08331,0 0.520169,0.36871 0.97079,0.81932 0.719487,0.71949 0.852317,0.80219 1.090174,0.67894 0.14897,-0.0772 0.388882,-0.0793 0.533128,-0.008 0.153936,0.0799 0.393624,0.0321 0.580253,-0.11631 0.251221,-0.1992 0.388262,-0.19629 0.652693,0.0137 0.283832,0.22553 0.358669,0.22019 0.492378,-0.035 0.309465,-0.59095 1.320024,-1.57841 1.549136,-1.51369 0.165979,0.0471 0.609217,-0.32677 1.850811,-1.56007 0.992465,-0.98604 1.729838,-1.63065 1.880703,-1.64468 0.298336,-0.0278 1.564024,1.19233 1.698842,1.63758 0.08446,0.27893 -0.02774,0.41168 -1.521981,1.80129 -1.277349,1.1879 -1.6406,1.59061 -1.745158,1.93448 -0.135201,0.44478 -0.797499,1.13607 -1.452491,1.51612 -0.333763,0.19366 -0.343455,0.24956 -0.105203,0.60691 0.206142,0.30922 0.208123,0.44794 0.0092,0.64679 -0.360033,0.36005 -0.109915,0.80824 1.157443,2.07407 0.747315,0.74643 1.215359,1.11794 1.534953,1.21845 0.572109,0.1799 0.687565,0.29055 0.499432,0.47868 -0.08098,0.0809 -0.425996,0.053 -0.766718,-0.0623 -0.600221,-0.20287 -0.618584,-0.19761 -0.590238,0.16826 0.02789,0.36019 -0.14896,0.55584 -3.818832,4.22577 -4.503108,4.50306 -4.192546,3.81087 -2.624969,5.85085 1.146353,1.49182 1.496803,2.25622 1.482663,3.23395 -0.01687,1.16662 -0.410622,1.67732 -2.806101,3.63946 -2.114702,1.73217 -2.391394,1.90245 -3.150549,1.93876 l -0.421327,0.0206 1.595364,1.73345 c 0.87745,0.95335 2.793956,2.93229 4.258898,4.39763 1.691892,1.69233 2.625321,2.70243 2.558804,2.76892 -0.06789,0.0679 2.249631,2.47822 6.593772,6.85755 l 6.69849,6.75279 -2.107618,2.11245 c -1.159306,1.16167 -2.206768,2.17867 -2.327819,2.25982 z M 40.414389,263.14999 c 0.233657,-0.58313 0.206809,-1.47756 -0.06226,-2.07373 -0.1831,-0.40572 -1.50512,-2.1771 -1.976976,-2.64896 -0.162161,-0.16218 -0.208493,-0.15223 -0.208493,0.0446 -2e-6,0.13925 -0.194068,0.44725 -0.43126,0.68444 -0.325244,0.32524 -0.597812,0.44432 -1.108742,0.4843 -0.550902,0.0432 -0.776693,0.15096 -1.208499,0.57706 l -0.531091,0.5239 0.377618,0.74685 c 0.466565,0.92278 1.256362,1.72871 2.103464,2.14639 0.677493,0.3341 0.826469,0.54815 0.564054,0.81059 -0.294362,0.29436 -3.544758,-1.15953 -4.337235,-1.94003 -0.227949,-0.22455 -0.278795,-0.19597 -1.083187,0.60842 l -0.844004,0.84402 1.685573,1.68557 c 1.669446,1.66948 1.689652,1.68473 2.110716,1.59701 0.233826,-0.0489 0.791873,-0.36895 1.240095,-0.71165 0.448219,-0.34271 1.165852,-0.88936 1.594725,-1.21486 1.192873,-0.90519 1.901447,-1.63006 2.115407,-2.16411 z M 10.30055,273.93132 c -1.876648,-1.89502 -3.5709994,-3.6802 -3.7652288,-3.96711 -0.3495356,-0.51638 -0.3575206,-0.51894 -0.7806682,-0.24818 -0.6858066,0.4388 -1.4395295,1.30493 -1.5351821,1.76419 -0.1648076,0.79123 0.1969562,1.35624 1.7996087,2.81073 2.5137137,2.28131 5.0236994,4.47596 5.2725194,4.61007 0.187498,0.10104 0.360224,0.0112 0.79043,-0.41373 0.302717,-0.29869 0.737672,-0.59321 0.966427,-0.65459 0.896847,-0.24061 0.944628,-0.17274 -2.747906,-3.90138 z"
       id="path4606" />       
  </g>
</svg>
