<?xml version="1.0" encoding="UTF-8" standalone="no"?>
<!-- Created with Inkscape (http://www.inkscape.org/) -->

<svg
   xmlns:dc="http://purl.org/dc/elements/1.1/"
   xmlns:cc="http://creativecommons.org/ns#"
   xmlns:rdf="http://www.w3.org/1999/02/22-rdf-syntax-ns#"
   xmlns:svg="http://www.w3.org/2000/svg"
   xmlns="http://www.w3.org/2000/svg"
   xmlns:sodipodi="http://sodipodi.sourceforge.net/DTD/sodipodi-0.dtd"   
   width="220"
   height="235"
   viewBox="0 0 58.208332 62.177085"
   version="1.1"
   id="svg8"   
   sodipodi:docname="mp40.svg" >   
  <defs
     id="defs2" />
  <sodipodi:namedview
     id="base"
     pagecolor="#000000"
     bordercolor="#666666"
     borderopacity="1.0"
     showgrid="false"
     units="px" />
  <metadata
     id="metadata5">
    <rdf:RDF>
      <cc:Work
         rdf:about="">
        <dc:format>image/svg+xml</dc:format>
        <dc:type
           rdf:resource="http://purl.org/dc/dcmitype/StillImage" />
        <dc:title></dc:title>
      </cc:Work>
    </rdf:RDF>
  </metadata>
  <g
     id="layer1"
     transform="translate(0,-234.8229)">
    <path
       style="fill:none;stroke:#fffffd;stroke-width:0.4;stroke-opacity:1;stroke-miterlimit:4;stroke-dasharray:none"
       d="m 52.556949,269.23002 c -0.756604,0.72953 -0.846334,0.79753 -1.039684,0.78788 -0.204,-0.0105 -0.210672,-0.0169 -0.1854,-0.17942 0.02479,-0.15964 -0.233597,-0.43439 -4.753427,-5.05428 -2.6288,-2.68702 -5.019371,-5.0936 -5.312376,-5.34794 l -0.532734,-0.46244 -0.147397,0.14739 c -0.08107,0.0811 -0.17362,0.1474 -0.205652,0.1474 -0.03204,0 -0.185736,-0.21827 -0.341543,-0.48502 -0.284124,-0.4864 -0.636729,-0.89514 -0.856761,-0.99315 -0.06907,-0.0308 -0.18081,0.0107 -0.270319,0.10019 -0.08686,0.0868 -0.225497,0.14021 -0.321909,0.12384 -0.114064,-0.0194 -0.280332,0.0593 -0.509386,0.24057 -0.607019,0.48074 -1.154484,0.61735 -1.727742,0.43116 -0.233324,-0.0757 -0.232723,-0.0738 0.09647,0.31278 0.581539,0.68306 0.812139,1.76452 0.551456,2.58618 -0.16393,0.51668 -1.823023,2.18147 -2.808737,2.81836 -0.392869,0.25384 -0.788975,0.60438 -1.620851,1.43431 -0.874367,0.87234 -1.139991,1.10528 -1.290798,1.13183 -0.224341,0.0396 -0.437857,0.23277 -0.406049,0.3675 0.01417,0.0601 -0.0639,0.15379 -0.21057,0.25305 -0.128195,0.0865 -0.542139,0.44478 -0.919876,0.79573 -0.617254,0.57346 -0.699158,0.67364 -0.808848,0.9892 -0.152157,0.43769 -0.07471,0.76189 0.334059,1.39823 0.424953,0.66157 0.527459,1.14951 0.362095,1.72361 -0.130265,0.45228 -0.132697,0.45548 -1.018182,1.34097 -0.78997,0.78998 -0.942977,0.9151 -1.390933,1.1374 -0.696895,0.34585 -0.730358,0.44858 -0.498444,1.53008 0.186107,0.86783 0.865458,3.55699 1.015742,4.02071 0.04409,0.13605 0.19375,0.4404 0.332568,0.67632 0.315512,0.53621 0.357093,0.73327 0.241627,1.1451 -0.11767,0.41967 -0.257692,0.55397 -1.050175,1.00721 -1.003845,0.57414 -1.56021,0.74504 -2.028058,0.62295 -0.534094,-0.13942 -0.914155,-0.46331 -1.055711,-0.89974 -0.06053,-0.1866 -0.340591,-1.36528 -0.622368,-2.61926 -0.608894,-2.70983 -0.614174,-2.72765 -0.899669,-3.03613 -0.312079,-0.33722 -0.619511,-0.36366 -1.399721,-0.12045 -0.392371,0.12232 -0.837463,0.19395 -1.120177,0.18028 l -0.469106,-0.0226 -1.41418,2.01256 c -1.536601,2.18678 -1.900555,2.68154 -5.989396,8.14239 -1.693637,2.26194 -2.7444937,3.7187 -2.7502957,3.81264 -0.0049,0.0835 -0.062691,0.28022 -0.1278102,0.43702 -0.1452277,0.34954 -0.1309881,0.36508 0.8790039,0.96102 1.054576,0.62224 2.023471,1.41176 2.486956,2.02655 0.194839,0.25843 0.360296,0.53492 0.367685,0.61441 0.03087,0.33204 -0.489457,0.52594 -0.986628,0.36768 -0.136655,-0.0433 -0.600229,-0.26163 -1.030162,-0.48478 -0.429929,-0.22314 -1.1801337,-0.58718 -1.6671215,-0.80904 -0.4869873,-0.22181 -1.3323445,-0.66337 -1.8785724,-0.9812 -0.546232,-0.31783 -1.4721424,-0.81452 -2.0575781,-1.10372 -1.3688176,-0.67626 -1.7196773,-0.90561 -1.9214639,-1.25613 -0.3077314,-0.53451 -0.1556783,-0.68762 0.6917285,-0.69654 0.7842727,-0.008 1.6284782,0.1485 2.6615821,0.49411 l 0.8891976,0.29745 0.4114709,-0.39543 c 0.2333873,-0.22433 0.7521316,-0.86974 1.198555,-1.49116 1.0882938,-1.51504 2.3127248,-3.193 3.6083788,-4.94492 2.7713,-3.74723 3.432978,-4.66765 4.713403,-6.55651 0.811106,-1.19655 0.814331,-1.20296 0.674967,-1.34605 -0.673237,-0.6913 -1.237438,-1.9621 -1.360841,-3.06515 -0.107079,-0.95718 0.06683,-2.34487 0.300791,-2.40012 0.04976,-0.0118 0.103238,-0.12822 0.118839,-0.25878 0.0236,-0.19761 0.153988,-0.37806 0.778071,-1.07679 0.689563,-0.77202 1.00697,-1.10121 1.552891,-1.61058 0.151058,-0.14093 0.236108,-0.16885 0.336119,-0.11029 0.131822,0.0771 0.176888,0.0341 2.916112,-2.77174 2.62064,-2.68456 2.780547,-2.85994 2.753425,-3.01949 -0.01668,-0.0981 0.03699,-0.23517 0.127647,-0.32582 0.101367,-0.10149 0.13884,-0.21457 0.106431,-0.32161 -0.0371,-0.12253 0.0048,-0.22022 0.163277,-0.37846 0.117304,-0.11731 0.237492,-0.18907 0.267077,-0.15948 0.108039,0.10803 0.161708,-0.0617 0.07827,-0.24749 -0.122626,-0.27305 0.0825,-0.3889 0.329044,-0.18582 l 0.191245,0.15752 0.344363,-0.34435 c 0.289307,-0.28931 0.370767,-0.33637 0.50953,-0.29436 0.161488,0.049 0.220221,-0.005 2.634637,-2.41946 1.588284,-1.58829 2.462138,-2.50053 2.448922,-2.55654 -0.02678,-0.11342 0.639676,-0.77986 0.753121,-0.75309 0.118971,0.0282 3.847478,-3.70042 3.81939,-3.81939 -0.02676,-0.11346 0.63968,-0.77991 0.753123,-0.75314 0.04785,0.0114 0.323159,-0.21253 0.611746,-0.49739 0.288559,-0.28487 0.980292,-0.9134 1.537115,-1.39675 0.958867,-0.83238 1.03439,-0.88407 1.42839,-0.97792 0.228795,-0.0544 0.492102,-0.11961 0.585126,-0.14469 0.215465,-0.0582 0.830501,-0.60604 3.742381,-3.33397 1.872854,-1.75452 2.583576,-2.46035 3.438493,-3.4147 l 1.077656,-1.20305 0.0058,-0.36752 c 0.0055,-0.34686 -0.01159,-0.3815 -0.299005,-0.61551 -0.345027,-0.28087 -0.622595,-0.71782 -0.647806,-1.01974 -0.01218,-0.14566 0.06594,-0.30677 0.273445,-0.56404 0.270628,-0.33553 0.313106,-0.36208 0.621846,-0.38863 0.522118,-0.0447 0.884156,0.12959 1.462464,0.70517 l 0.498819,0.49639 0.451064,-0.45111 c 0.432355,-0.43231 0.461284,-0.44899 0.6974,-0.40151 0.357931,0.072 0.849337,0.5765 0.899723,0.92379 l 0.0382,0.26318 -1.224665,1.23829 c -0.779052,0.7877 -1.288446,1.35 -1.399953,1.54533 -0.301584,0.52828 -0.441205,1.09507 -0.433959,1.76162 0.0067,0.60086 -0.0103,0.66352 -0.256282,0.95399 -0.345191,0.40762 -0.597408,0.46223 -1.03254,0.22356 -0.600932,-0.32959 -0.397147,-0.48916 -3.47167,2.71798 -1.922273,2.00515 -2.747102,2.83039 -2.853722,2.85492 -0.115679,0.0269 -0.168283,0.10912 -0.230579,0.36109 -0.07671,0.31024 -0.15058,0.40018 -1.489784,1.8144 -1.078516,1.13895 -1.401764,1.51388 -1.377916,1.59838 0.01885,0.0667 -0.08905,0.2436 -0.273334,0.44788 -0.433789,0.48085 -0.416324,0.51736 0.811631,1.69597 0.84767,0.81357 1.050566,0.97732 1.427111,1.15189 0.241425,0.11189 0.458033,0.2463 0.481353,0.29867 0.02332,0.0523 -0.03974,0.1773 -0.140113,0.27769 l -0.182511,0.18252 0.867194,0.93492 c 0.476954,0.51419 2.902872,3.00242 5.390925,5.52936 3.192955,3.24284 4.519935,4.62551 4.510833,4.70009 -0.01904,0.15609 -0.408791,0.58849 -1.337229,1.48373 z m -23.464651,3.12113 c 0.111,-0.47021 -0.01671,-0.89821 -0.37418,-1.25407 -0.362625,-0.36102 -0.695462,-0.45983 -1.192018,-0.35392 -0.311648,0.0664 -0.417634,0.13407 -0.783045,0.4995 l -0.42261,0.4226 0.135025,0.34923 c 0.21799,0.56383 0.524225,0.90015 0.987776,1.08484 0.21884,0.0872 0.458997,0.15285 0.53368,0.14592 0.335988,-0.0313 0.104711,0.32208 -0.274305,0.41902 -0.530579,0.13573 -1.426406,-0.2337 -2.039123,-0.84092 l -0.207613,-0.20575 -0.07272,0.2769 c -0.163874,0.62404 0.334666,1.43076 0.957321,1.54912 0.672931,0.12788 1.033637,-0.0694 2.040149,-1.11504 0.555051,-0.57672 0.64681,-0.70274 0.71166,-0.97743 z"
       id="path4660"       
       sodipodi:nodetypes="cccsccscccsscccscccccccccscscscccssccccssccssccccssscccccsccccccccscscsscscscsccccccccscccssccccscccccccssccscssccscsscccccssccccccccsccc" />
  </g>
</svg>
