<?xml version="1.0" encoding="UTF-8" standalone="no"?>
<!-- Created with Inkscape (http://www.inkscape.org/) -->

<svg
   xmlns:dc="http://purl.org/dc/elements/1.1/"
   xmlns:cc="http://creativecommons.org/ns#"
   xmlns:rdf="http://www.w3.org/1999/02/22-rdf-syntax-ns#"
   xmlns:svg="http://www.w3.org/2000/svg"
   xmlns="http://www.w3.org/2000/svg"
   xmlns:sodipodi="http://sodipodi.sourceforge.net/DTD/sodipodi-0.dtd"   
   width="220"
   height="235"
   viewBox="0 0 58.208332 62.177085"
   version="1.1"
   id="svg8"   
   sodipodi:docname="ppsh-41.svg" >
  <defs
     id="defs2" />
  <sodipodi:namedview
     id="base"
     pagecolor="#000000"
     bordercolor="#666666"
     borderopacity="1.0"
     showgrid="false"
     units="px" />
  <metadata
     id="metadata5">
    <rdf:RDF>
      <cc:Work
         rdf:about="">
        <dc:format>image/svg+xml</dc:format>
        <dc:type
           rdf:resource="http://purl.org/dc/dcmitype/StillImage" />
        <dc:title></dc:title>
      </cc:Work>
    </rdf:RDF>
  </metadata>
  <g
     id="layer1"
     transform="translate(0,-234.8229)">
    <path
       style="fill:none;stroke:#fffffd;stroke-width:0.4;stroke-opacity:1;stroke-miterlimit:4;stroke-dasharray:none"
       d="m 40.892734,268.44479 c -0.143927,-0.0339 -2.220818,-1.82068 -4.517152,-3.88603 -1.252756,-1.12673 -2.301404,-2.0486 -2.330326,-2.04859 -0.128518,-1e-5 -0.238455,0.15338 -0.216467,0.30202 0.04959,0.33523 -0.127916,0.58825 -1.082159,1.5425 -0.941702,0.94169 -1.335356,1.22927 -1.482014,1.0826 -0.08664,-0.0866 -0.100706,-0.0756 -0.717833,0.55883 -0.574653,0.59079 -1.316415,1.53344 -1.332157,1.69291 -0.0081,0.0834 0.15205,0.29082 0.473316,0.61208 0.802662,0.80266 0.964555,1.32027 0.624858,1.99786 -0.166721,0.33254 -0.386905,0.56657 -1.917863,2.03828 -1.927701,1.85313 -2.065437,1.94819 -2.733484,1.8866 -0.314329,-0.029 -0.401816,-0.0805 -0.909053,-0.53411 -0.631836,-0.56518 -0.823225,-0.64754 -1.170547,-0.50368 -0.574839,0.23812 -1.140784,1.20115 -1.751561,2.98053 -0.189323,0.55156 -0.366026,1.02462 -0.39267,1.05126 -0.155982,0.15599 -0.132375,1.2597 0.04914,2.29745 l 0.204301,1.16802 -0.345555,0.37787 c -0.327597,0.35827 -0.374313,0.3834 -0.899747,0.48372 -0.844138,0.16122 -0.910077,0.24935 -1.975961,2.64135 -0.909099,2.04016 -1.04476,2.2849 -3.359102,6.0606 -0.715195,1.16679 -0.957136,1.51801 -1.743267,2.53071 -0.3202,0.41248 -0.96315,1.24705 -1.428777,1.8546 -1.188891,1.55132 -1.331607,1.60041 -2.4200985,0.83244 -1.4162099,-0.99919 -4.1130057,-3.11492 -4.6655945,-3.66031 -0.8014126,-0.79102 -0.8804348,-1.0226 -0.5617123,-1.64637 0.1272003,-0.24897 0.4044038,-0.65418 0.6160093,-0.90049 0.2116142,-0.24633 0.9226633,-1.08389 1.5801287,-1.86128 0.6574673,-0.77735 1.8938436,-2.23856 2.7474993,-3.24715 0.853658,-1.00856 2.06497,-2.44489 2.691801,-3.19183 0.626834,-0.74694 1.474973,-1.74716 1.884754,-2.22269 0.40978,-0.47555 0.765512,-0.90512 0.790514,-0.95461 0.025,-0.0496 0.366979,-0.21385 0.75995,-0.36522 0.66209,-0.255 0.751547,-0.31224 1.219824,-0.78052 0.38905,-0.38905 0.59945,-0.67335 0.914304,-1.23541 0.78609,-1.40331 1.02667,-1.9468 1.513409,-3.41898 0.269676,-0.81565 0.520018,-1.5127 0.556317,-1.54899 0.03631,-0.0362 -0.02226,-0.19006 -0.130136,-0.34166 -0.355104,-0.4991 -0.233754,-1.07064 0.351593,-1.65598 0.222026,-0.22204 0.230946,-0.25476 0.104077,-0.38161 l -0.138766,-0.13878 1.248886,-1.24888 c 1.201852,-1.20184 1.252977,-1.24479 1.357285,-1.14049 0.05963,0.0596 0.20101,0.14304 0.314194,0.18536 0.16696,0.0625 0.244844,0.0379 0.41273,-0.12996 0.193174,-0.19319 0.19627,-0.22253 0.0466,-0.44134 -0.253748,-0.37094 -0.214185,-0.61223 0.162085,-0.98849 0.373514,-0.37349 0.430683,-0.58326 0.255301,-0.93671 -0.115298,-0.23235 -0.107128,-0.26607 0.119274,-0.49248 0.234554,-0.23456 0.252607,-0.23767 0.516472,-0.0895 0.332295,0.18668 0.413333,0.16514 0.910369,-0.2422 0.465352,-0.38137 0.603795,-0.40667 0.85427,-0.1562 0.10407,0.10406 0.231212,0.16876 0.282539,0.14377 0.05134,-0.0249 0.521026,-0.4545 1.043774,-0.95444 l 0.950453,-0.90901 -0.129666,-0.12966 c -0.118592,-0.11859 -0.105967,-0.15336 0.147868,-0.4072 0.258231,-0.25825 0.287075,-0.26798 0.414819,-0.14023 l 0.137291,0.13728 2.462124,-2.50567 c 1.354165,-1.37812 2.511424,-2.55628 2.571683,-2.61813 0.340564,-0.34959 2.558612,-2.39113 2.456755,-2.26126 l -0.122002,0.15553 0.183207,-0.0942 c 0.100761,-0.052 0.258137,-0.16925 0.34972,-0.26083 0.163165,-0.16316 0.162675,-0.16477 -0.01923,-0.0747 -0.178146,0.088 -0.178485,0.0853 -0.0082,-0.0638 0.09758,-0.0855 0.200676,-0.12158 0.229119,-0.08 0.03057,0.0445 0.08449,0.0197 0.13183,-0.0613 0.04407,-0.0751 0.0443,-0.14531 5.34e-4,-0.15564 -0.04378,-0.0104 0.0093,-0.10769 0.117945,-0.21633 0.111727,-0.11173 0.225242,-0.16986 0.261299,-0.1338 0.0456,0.0455 0.188248,-0.0797 0.500827,-0.43971 0.240392,-0.27689 0.471658,-0.49528 0.513917,-0.4853 0.09811,0.0233 0.258016,-0.2445 0.187941,-0.31458 -0.02902,-0.029 -0.09199,0.0205 -0.139932,0.10985 -0.06463,0.12061 -0.08805,0.13068 -0.09062,0.039 -0.0052,-0.18798 1.386441,-1.5012 1.464648,-1.38204 0.03204,0.0487 0.06743,0.0501 0.07862,0.003 0.02323,-0.0985 1.314253,-1.41173 1.518314,-1.54446 0.07398,-0.0481 0.140977,-0.14349 0.148726,-0.21207 0.01005,-0.0881 0.03811,-0.10063 0.09594,-0.0429 0.06281,0.063 0.13074,0.0219 0.293578,-0.17719 0.276201,-0.33759 0.270796,-0.40978 -0.01056,-0.14109 l -0.222416,0.21238 0.137586,-0.25098 c 0.158726,-0.28951 1.431096,-1.48527 1.528438,-1.4364 0.03548,0.0177 0.37758,-0.29702 0.760231,-0.69963 0.382659,-0.40258 0.865989,-0.8491 1.074083,-0.99227 0.264,-0.18162 0.388255,-0.30537 0.411064,-0.4094 0.02648,-0.12053 0.0085,-0.1162 -0.09355,0.0228 -0.06948,0.0945 -0.176171,0.18358 -0.237093,0.19796 -0.06481,0.0152 -0.0117,-0.10142 0.127921,-0.28118 0.211113,-0.27182 0.605273,-1.26085 0.569835,-1.42987 -0.0073,-0.0348 -0.131799,-0.23516 -0.276611,-0.44495 -0.144816,-0.20981 -0.267857,-0.46431 -0.273435,-0.56559 -0.01033,-0.18764 0.319693,-0.59699 0.409169,-0.5075 0.06231,0.0624 0.668012,-0.20889 0.831385,-0.37226 0.07008,-0.0702 0.08632,-0.13576 0.03649,-0.14751 -0.08078,-0.019 -0.03755,-0.12155 0.09057,-0.21474 0.0265,-0.0193 0.01074,-0.0726 -0.03507,-0.1183 -0.05463,-0.0546 -0.02858,-0.13792 0.0757,-0.24225 0.136091,-0.13608 0.206278,-0.1378 0.487535,-0.0121 0.180707,0.0809 0.457686,0.27607 0.615511,0.43391 l 0.286953,0.28692 0.387878,-0.13941 c 0.360439,-0.12957 1.104996,-0.69782 1.778626,-1.35749 0.140218,-0.13726 0.188532,-0.15516 0.169072,-0.0627 -0.01801,0.0856 0.124411,-0.0165 0.420106,-0.30145 0.246039,-0.23713 0.601004,-0.57718 0.788788,-0.75575 0.187805,-0.17851 0.37028,-0.39569 0.405538,-0.48255 0.06068,-0.14958 0.0545,-0.15283 -0.117007,-0.0616 -0.114508,0.0611 0.0127,-0.10143 0.345949,-0.44166 0.624686,-0.63782 0.809532,-0.68248 1.177147,-0.28431 0.216674,0.23467 0.821553,1.83917 0.869926,2.30756 l 0.02357,0.22799 -6.8611,6.84712 c -3.773628,3.76578 -7.236399,7.22104 -7.695078,7.67822 -0.817729,0.8152 -0.839008,0.84334 -1.094944,1.45832 -0.24995,0.60055 -0.299398,0.66826 -1.16812,1.59938 l -0.907119,0.97229 0.273904,0.72575 c 0.425865,1.12838 0.4221,1.07601 0.100467,1.39765 l -0.279994,0.27999 0.37954,0.3143 c 1.341492,1.11085 5.75091,5.35889 6.007774,5.7879 0.09943,0.16607 0.08967,0.18113 -0.557605,0.85892 -0.362353,0.37944 -0.905255,0.95112 -1.206467,1.27041 -0.301207,0.31927 -0.582725,0.57223 -0.625586,0.5621 z m -10.870764,1.44302 c 0.199766,-0.29566 0.08288,-0.69584 -0.3512,-1.20255 -0.880041,-1.02729 -0.85532,-1.00638 -1.028548,-0.86953 -0.1035,0.0819 -0.1533,0.21582 -0.147631,0.3974 0.0072,0.23425 -0.03955,0.32214 -0.322715,0.6053 l -0.331266,0.33126 0.358717,0.29083 c 0.425948,0.34535 0.528636,0.63076 0.25067,0.69674 -0.13114,0.0312 -0.235556,-0.0346 -0.544434,-0.34368 l -0.382177,-0.38217 -0.141377,0.1639 c -0.07777,0.0902 -0.165186,0.14011 -0.194271,0.11102 -0.02909,-0.0292 -0.162233,0.0564 -0.295874,0.19009 -0.151217,0.15119 -0.302136,0.23747 -0.399614,0.22843 -0.118473,-0.011 -0.241848,0.0785 -0.506353,0.36758 l -0.349715,0.38214 0.211344,0.31258 c 0.199722,0.29538 0.239266,0.31821 0.719276,0.41514 0.279366,0.0564 0.62923,0.0639 0.777478,0.0168 0.25541,-0.0814 0.268072,-0.0763 0.241472,0.0949 -0.03629,0.23372 -0.06139,0.25528 -0.441223,0.37849 -0.677196,0.21963 -1.444144,-0.006 -1.818822,-0.5315 l -0.179319,-0.25224 -0.573764,0.57388 -0.573763,0.57386 0.491413,0.5201 c 0.270279,0.28604 0.607101,0.5861 0.748492,0.6668 0.281316,0.16057 0.71604,0.1187 1.125788,-0.1084 0.232294,-0.12873 3.449273,-3.31921 3.657415,-3.62727 z"
       id="path4712"       
       sodipodi:nodetypes="csccssccscccscssccccsscssccccsccccsccscsscsscscsssccscccsssccccccscccccssccscsccccsccccccccccscccssccsscsccccscccccccsccccsscsccccccsccsccssccsscccccccsscccscccc" />
  </g>
</svg>
