<?xml version="1.0" encoding="UTF-8" standalone="no"?>
<!-- Created with Inkscape (http://www.inkscape.org/) -->

<svg
   xmlns:dc="http://purl.org/dc/elements/1.1/"
   xmlns:cc="http://creativecommons.org/ns#"
   xmlns:rdf="http://www.w3.org/1999/02/22-rdf-syntax-ns#"
   xmlns:svg="http://www.w3.org/2000/svg"
   xmlns="http://www.w3.org/2000/svg"
   xmlns:sodipodi="http://sodipodi.sourceforge.net/DTD/sodipodi-0.dtd"   
   width="220"
   height="235"
   viewBox="0 0 58.208332 62.177085"
   version="1.1"
   id="svg8"   
   sodipodi:docname="scorpion.svg" >
  <defs
     id="defs2" />
  <sodipodi:namedview
     id="base"
     pagecolor="#000000"
     bordercolor="#666666"
     borderopacity="1.0" 
     showgrid="false"
     units="px" />     
  <metadata
     id="metadata5">
    <rdf:RDF>
      <cc:Work
         rdf:about="">
        <dc:format>image/svg+xml</dc:format>
        <dc:type
           rdf:resource="http://purl.org/dc/dcmitype/StillImage" />
        <dc:title></dc:title>
      </cc:Work>
    </rdf:RDF>
  </metadata>
  <g
     id="layer1"
     transform="translate(0,-234.8229)">
    <path
       style="fill:none;stroke:#fffffd;stroke-width:0.4;stroke-miterlimit:4;stroke-dasharray:none;stroke-opacity:1"
       d="m 33.392735,292.61675 c -0.31632,0.074 -0.579777,-0.0245 -0.888608,-0.33364 l -0.244176,-0.24417 -0.3987,0.26251 c -0.219291,0.14439 -1.015208,0.86211 -1.768707,1.59493 -1.117129,1.08643 -1.427657,1.35491 -1.682338,1.45435 l -0.312337,0.122 -1.044664,-1.05857 c -0.574565,-0.58222 -1.318865,-1.40535 -1.654,-1.82919 -0.335135,-0.42383 -0.703159,-0.88797 -0.817831,-1.03142 -0.114674,-0.14343 -0.359013,-0.4942 -0.54298,-0.77947 -0.183967,-0.28525 -0.411002,-0.62 -0.504524,-0.74385 -0.09353,-0.12386 -0.177639,-0.27262 -0.186925,-0.33057 -0.0093,-0.058 -0.100628,-0.20273 -0.202972,-0.32176 -0.102342,-0.11901 -0.24078,-0.31692 -0.307639,-0.43981 -0.06686,-0.1229 -0.213974,-0.37684 -0.326921,-0.56428 -0.112949,-0.18751 -0.189393,-0.35702 -0.169879,-0.37672 0.01949,-0.0198 -0.05788,-0.1335 -0.171988,-0.25285 -0.114106,-0.11936 -0.187235,-0.25749 -0.162504,-0.30695 0.02472,-0.0496 0.01186,-0.0977 -0.02861,-0.10731 -0.123671,-0.0292 -0.849399,-1.61378 -1.753353,-3.82834 -0.709408,-1.73795 -2.04698,-2.54771 -3.589587,-2.17308 l -0.624533,0.15166 -0.653624,-0.62117 c -0.614419,-0.5839 -0.650227,-0.6324 -0.596945,-0.80835 0.126585,-0.41809 0.09242,-1.10554 -0.07882,-1.58517 -0.174755,-0.4895 -0.214169,-0.5411 -1.05783,-1.38486 -0.814067,-0.81416 -0.889573,-0.87334 -1.063118,-0.83321 -0.102746,0.0238 -0.238901,-0.01 -0.302568,-0.0722 -0.161391,-0.1608 -0.674857,0.0792 -1.275478,0.59622 -0.264436,0.22761 -0.595355,0.45033 -0.735371,0.4949 -0.6976866,0.22206 -1.5599251,-0.23904 -1.6866902,-0.90203 -0.035532,-0.1858 -0.034226,-0.47174 0.00292,-0.63538 l 0.067512,-0.2975 -0.7208614,-0.72529 c -0.6934411,-0.69769 -0.7205277,-0.73587 -0.7121546,-1.00406 0.00779,-0.24955 -0.036924,-0.32454 -0.4263204,-0.71493 -0.5274853,-0.52884 -0.765746,-1.09222 -0.7093868,-1.67739 0.050933,-0.52876 0.2482229,-0.86004 0.900868,-1.51269 0.4032035,-0.40323 0.5810351,-0.63298 0.6446908,-0.83297 0.075203,-0.23624 0.241539,-0.42125 1.1511475,-1.28014 0.9747258,-0.92039 1.0807292,-1.00213 1.2732511,-0.98189 0.193487,0.0205 0.290287,-0.0551 1.230571,-0.96101 0.726918,-0.70024 1.036434,-1.03947 1.075867,-1.17894 0.07524,-0.26645 0.522034,-0.69915 0.869072,-0.84166 0.390145,-0.1602 0.746894,-0.47657 4.110244,-3.64497 1.612094,-1.51869 3.681653,-3.45962 4.599023,-4.31316 0.917372,-0.85355 2.469891,-2.30243 3.450042,-3.21971 0.980152,-0.91727 3.011173,-2.81276 4.513379,-4.21216 2.053645,-1.9131 2.768648,-2.61369 2.881858,-2.82377 0.08281,-0.15367 0.205783,-0.33459 0.273268,-0.4021 0.07073,-0.0708 0.08618,-0.15922 0.03645,-0.20894 -0.104046,-0.10403 0.09145,-0.32316 0.237886,-0.26661 0.05704,0.0223 -0.005,-0.06 -0.137469,-0.18199 -0.132649,-0.12209 -0.250711,-0.26275 -0.262358,-0.3126 -0.01165,-0.05 0.259363,-0.37116 0.602246,-0.71402 l 0.623414,-0.62345 0.426098,0.39262 0.426095,0.39264 1.345213,-1.26622 c 1.824899,-1.71773 2.816417,-2.56443 3.253505,-2.77838 0.504182,-0.24677 1.328485,-0.27546 1.866119,-0.0648 0.349141,0.13669 0.576423,0.3006 1.137795,0.82051 l 0.701505,0.6497 1.022679,-1.02268 1.022682,-1.02267 -0.347229,-0.48651 c -0.487082,-0.68244 -0.747639,-1.28795 -0.743814,-1.72858 0.0043,-0.44598 0.180735,-0.65914 0.560281,-0.6753 0.376069,-0.0156 0.714594,0.17291 1.383944,0.77225 0.349515,0.31296 0.693125,0.55773 0.873001,0.62193 0.442096,0.15776 1.182308,0.93715 1.320878,1.39072 0.124202,0.40658 0.327316,0.68113 1.218586,1.64711 0.36423,0.39476 0.880204,0.96547 1.146631,1.26826 0.266423,0.30282 0.631768,0.71369 0.81187,0.91308 0.426458,0.47213 0.850337,1.09516 0.922232,1.35557 0.249979,0.90533 0.268711,1.24516 0.104222,1.89092 -0.212608,0.8347 -0.771796,1.5345 -1.494718,1.87053 -0.23747,0.11038 -0.607767,0.31212 -0.822884,0.44828 -0.699008,0.44247 -1.493225,0.54351 -2.26212,0.2879 -0.640941,-0.21313 -1.006528,-0.51453 -2.521265,-2.07859 -0.809049,-0.83537 -1.610691,-1.66275 -1.781432,-1.83866 -0.26082,-0.26862 -0.331104,-0.30581 -0.439802,-0.23272 -0.23536,0.15825 -0.2614,0.47262 -0.06619,0.79921 0.101789,0.17031 0.185068,0.3875 0.185069,0.48268 -10e-7,0.24718 0.04367,0.2608 0.23218,0.0722 l 0.166469,-0.16648 0.969236,0.89945 c 1.216732,1.12912 1.366693,1.28115 1.361653,1.38048 -0.0025,0.0439 -0.216682,0.31922 -0.476534,0.61123 l -0.472454,0.53098 -0.231338,-0.15827 c -0.186249,-0.12742 -0.258105,-0.13148 -0.368681,-0.0212 -0.106287,0.10629 -0.10643,0.16828 -6.71e-4,0.27406 0.207524,0.20751 0.146885,0.38427 -0.267045,0.77841 -0.394328,0.37547 -0.500941,0.40385 -0.716871,0.19084 -0.10482,-0.1034 -0.162693,-0.096 -0.296346,0.0376 -0.144301,0.1443 -0.144641,0.19745 -0.0029,0.40508 l 0.163487,0.23901 -0.428625,0.42861 -0.428632,0.42863 -0.201241,-0.20124 c -0.19045,-0.19045 -0.211704,-0.19078 -0.396332,-0.007 -0.200683,0.20068 -0.192777,0.33702 0.03262,0.5624 0.104193,0.10419 0.08243,0.14491 -0.220399,0.41223 -0.184797,0.16317 -0.314324,0.31824 -0.288019,0.34447 0.12358,0.1231 -0.166478,0.12768 -0.340634,0.006 -0.178946,-0.12571 -0.218103,-0.11738 -0.425925,0.0904 -0.20932,0.20933 -0.216679,0.24615 -0.08626,0.43124 l 0.142613,0.20238 -0.861901,0.86191 -0.861903,0.86187 -0.140365,-0.16226 c -0.125499,-0.14507 -0.169394,-0.14125 -0.414373,0.036 -0.283146,0.20506 -0.544753,0.22401 -0.722762,0.0523 -0.151778,-0.14639 -0.0383,-0.20709 0.328087,-0.17554 l 0.325761,0.0281 -0.220658,-0.21939 c -0.409901,-0.40756 -0.715808,-0.58672 -0.82143,-0.48109 -0.05404,0.0538 -0.185156,0.5215 -0.291379,1.03886 l -0.193123,0.94058 -0.482702,0.4827 c -0.431638,0.43163 -0.473858,0.49781 -0.399184,0.62536 0.09898,0.16908 0.09106,0.18433 -0.561336,1.08294 -0.794695,1.09457 -0.815193,0.91011 0.215371,1.938 2.219571,2.21385 6.223452,5.02514 9.135184,6.4142 2.002849,0.95546 3.54893,1.60222 4.9191,2.05775 1.232979,0.40992 1.291688,0.46325 1.187063,1.07816 -0.106892,0.62823 -1.121325,3.99034 -1.359013,4.50412 -0.20861,0.45094 -0.341102,0.54331 -0.678483,0.47302 -0.133188,-0.0277 -0.36771,0.002 -0.521152,0.0641 -0.153443,0.0629 -0.304513,0.089 -0.335713,0.058 -0.0312,-0.0313 -0.104234,-0.01 -0.162302,0.0489 -0.07957,0.0797 -0.435759,-0.0105 -1.445867,-0.36532 -5.349579,-1.8795 -10.48082,-4.96266 -14.707945,-8.83742 l -0.299987,-0.27498 -1.152605,1.12139 -1.152602,1.12138 0.752659,0.0656 c 1.476751,0.12873 2.598367,0.98168 3.065293,2.33109 0.213748,0.61773 0.206912,1.7326 -0.01437,2.34365 -0.27549,0.76073 -0.644673,1.21685 -2.23886,2.76626 l -1.445096,1.40452 -0.489594,0.16754 c -0.444456,0.15209 -1.400605,0.18469 -1.533045,0.0523 -0.0979,-0.0979 -0.207414,0.78613 -0.181316,1.46367 0.03032,0.78729 0.343153,1.76286 0.746417,2.32776 0.152918,0.21421 0.590232,0.69824 0.971808,1.07563 0.782094,0.77353 4.765511,4.40798 6.022476,5.49487 0.494031,0.42721 0.501965,0.43932 0.450138,0.68817 -0.07243,0.34765 -0.536629,1.15064 -0.961803,1.6637 -0.337308,0.40705 -0.348398,0.43855 -0.250747,0.71259 0.117395,0.32939 0.08793,0.75464 -0.06275,0.90532 -0.05686,0.0569 -0.06883,0.17003 -0.0266,0.25153 0.117438,0.22663 0.04025,0.77012 -0.133586,0.94055 -0.08541,0.0837 -0.267348,0.17843 -0.404372,0.21051 z m -0.707531,-20.16181 c 0.227305,-0.6024 0.217674,-1.45202 -0.02423,-2.13866 -0.181558,-0.51532 -0.237556,-0.59553 -0.827385,-1.18503 -0.575813,-0.57549 -0.676483,-0.64731 -1.120489,-0.79906 -0.643381,-0.2199 -1.475747,-0.25706 -1.947586,-0.087 -0.462363,0.1667 -0.914499,0.59403 -0.971639,0.91836 -0.03373,0.19145 -0.0832,0.25053 -0.291493,0.34818 -0.137981,0.0646 -0.311434,0.20847 -0.385446,0.3195 -0.14789,0.22183 -0.628139,0.33712 -0.778392,0.18686 -0.05835,-0.0585 -0.153379,-0.0109 -0.328667,0.16452 -0.23723,0.23722 -0.241869,0.26583 -0.122455,0.75269 0.195971,0.79894 0.376959,1.11912 0.976795,1.72783 0.654212,0.66392 1.106133,0.90779 2.037661,1.0995 0.525668,0.1082 0.649315,0.16181 0.660913,0.28658 0.01243,0.13376 -0.02066,0.16272 -0.257363,0.22512 -0.319679,0.0842 -1.094842,0.0277 -1.526259,-0.1112 -0.871854,-0.28093 -1.713604,-1.03386 -2.160617,-1.93264 -0.34688,-0.69743 -0.387124,-0.73978 -0.693127,-0.72895 -0.208663,0.008 -0.319131,0.0847 -0.780268,0.54581 -0.578968,0.57895 -0.625783,0.73473 -0.241181,0.80248 0.189248,0.0333 0.330571,0.17225 3.356021,3.29863 0.349645,0.36133 1.456152,0.32569 2.0384,-0.0656 0.170215,-0.11441 0.962896,-0.87415 1.761518,-1.68835 1.409786,-1.4373 1.457075,-1.49371 1.625309,-1.93956 z m 19.005359,-27.45152 c -0.03638,-0.56013 -0.175132,-0.85163 -0.726575,-1.52641 -0.692499,-0.84738 -3.231416,-3.63152 -3.311689,-3.63152 -0.149216,0 -0.103773,0.20956 0.08679,0.40008 0.110893,0.11092 0.224887,0.27847 0.253322,0.37238 0.03316,0.10955 0.107495,0.18763 0.207408,0.21789 0.09593,0.0292 0.234617,0.16622 0.361312,0.35738 0.113074,0.17066 0.351391,0.47498 0.529596,0.67626 0.178203,0.20127 0.49033,0.56188 0.693612,0.80133 0.203286,0.23944 0.515824,0.58182 0.694531,0.7608 0.178738,0.17898 0.314481,0.36972 0.301707,0.42383 -0.01276,0.054 0.08485,0.20717 0.216911,0.34016 0.132097,0.13297 0.264482,0.33011 0.294247,0.43799 0.02977,0.1079 0.104565,0.38892 0.16621,0.6245 0.06166,0.23556 0.122673,0.4389 0.135612,0.45185 0.06341,0.0635 0.1202,-0.35005 0.09704,-0.70654 z m -1.191044,1.50999 c 0.178787,-0.47786 0.120512,-1.15948 -0.138964,-1.62543 -0.258044,-0.46337 -3.370151,-4.18006 -3.500053,-4.17999 -0.04997,3e-5 -1.993815,1.98128 -1.992888,2.03123 0.0019,0.0895 2.803987,3.0843 3.223157,3.44475 0.602993,0.51851 1.238706,0.84642 1.72152,0.88801 0.363579,0.0315 0.5115,-0.0889 0.687225,-0.55858 z m -9.212121,-4.53716 c -0.665195,-0.61804 -0.892977,-0.68694 -1.549482,-0.46868 -0.409187,0.136 -0.488701,0.20049 -1.901686,1.5422 -0.811046,0.77013 -1.476565,1.43821 -1.47891,1.48463 -0.0069,0.14289 0.636422,0.22094 0.954145,0.11572 0.252263,-0.0836 0.464125,-0.26302 1.316893,-1.11564 1.012414,-1.0122 1.01751,-1.01622 1.345826,-1.04448 0.361878,-0.0314 0.765069,0.0704 0.928563,0.2339 0.204103,0.2041 0.526685,0.19459 0.743183,-0.0223 l 0.203534,-0.20353 -0.562081,-0.52222 z M 8.9205987,272.98368 c -0.00821,-0.0708 -0.210429,-0.35153 -0.4493752,-0.62373 -0.2849476,-0.32464 -0.4733413,-0.61487 -0.5474676,-0.84337 -0.1128531,-0.34794 -0.1151263,-1.07205 -0.00375,-1.18345 0.032395,-0.0325 0.017026,-0.0688 -0.034142,-0.0808 -0.1643063,-0.0389 -0.659018,0.5299 -0.7767624,0.89288 -0.1509299,0.46532 -0.039985,0.76276 0.4775068,1.28026 0.3521557,0.35216 0.4627992,0.42332 0.6442431,0.41427 0.135894,-0.008 0.2920858,0.0621 0.4113955,0.18138 0.1993171,0.19936 0.3041175,0.18525 0.2783173,-0.0373 z"
       id="path4725"       
       sodipodi:nodetypes="ccccccccccccccccccccscccccccccccccccccccccccccccscccccccccccccccccccccccccscccccccccccccccccccccccccccccccccccccccccccccccccccsscccccccccccsccccccccccccccccccccccccccccccccccccccccccccsccccccccccccccccccccccccccccccccccccccccccccc" />
  </g>
</svg>
