<?xml version="1.0" encoding="UTF-8" standalone="no"?>
<!-- Created with Inkscape (http://www.inkscape.org/) -->

<svg
   xmlns:dc="http://purl.org/dc/elements/1.1/"
   xmlns:cc="http://creativecommons.org/ns#"
   xmlns:rdf="http://www.w3.org/1999/02/22-rdf-syntax-ns#"
   xmlns:svg="http://www.w3.org/2000/svg"
   xmlns="http://www.w3.org/2000/svg"
   xmlns:sodipodi="http://sodipodi.sourceforge.net/DTD/sodipodi-0.dtd"   
   width="220"
   height="235"
   viewBox="0 0 58.208332 62.177085"
   version="1.1"
   id="svg8"   
   sodipodi:docname="thompson.svg" >
  <defs
     id="defs2" />
  <sodipodi:namedview
     id="base"
     pagecolor="#000000"
     bordercolor="#666666"
     borderopacity="1.0"
     showgrid="false"
     units="px" />
  <metadata
     id="metadata5">
    <rdf:RDF>
      <cc:Work
         rdf:about="">
        <dc:format>image/svg+xml</dc:format>
        <dc:type
           rdf:resource="http://purl.org/dc/dcmitype/StillImage" />
        <dc:title></dc:title>
      </cc:Work>
    </rdf:RDF>
  </metadata>
  <g
     id="layer1"
     transform="translate(0,-234.8229)">
    <path
       style="fill:none;stroke:#fffffd;stroke-width:0.4;stroke-opacity:1;stroke-miterlimit:4;stroke-dasharray:none"
       d="m 16.008563,296.24364 c 0.123648,-0.20029 0.610118,-1.3107 0.96593,-2.2048 0.109212,-0.27442 0.243537,-0.709 0.298506,-0.96574 0.05497,-0.25671 0.244309,-0.89133 0.42076,-1.41022 0.17645,-0.51889 0.340492,-1.08863 0.364539,-1.2661 0.02406,-0.17746 0.114819,-0.51827 0.201711,-0.75736 0.280272,-0.77115 0.626552,-2.36386 0.534056,-2.45635 -0.01606,-0.0158 0.0028,-0.18374 0.04152,-0.37265 0.03889,-0.18888 0.100765,-0.5488 0.137496,-0.79977 0.03673,-0.25099 0.115455,-0.72157 0.174932,-1.04573 0.272785,-1.48664 0.354706,-1.95878 0.413318,-2.38217 0.197381,-1.42581 0.663924,-3.22741 1.083904,-4.18563 0.119477,-0.27261 0.700586,-1.17195 1.043818,-1.61546 0.146447,-0.18923 0.423793,-0.57888 0.616328,-0.8659 0.192531,-0.28701 0.505583,-0.73904 0.695668,-1.00452 0.190087,-0.26548 0.482171,-0.67963 0.649077,-0.92035 0.16691,-0.24068 0.396121,-0.56078 0.509359,-0.71129 0.113235,-0.1505 0.292844,-0.40247 0.399125,-0.55995 0.106283,-0.15745 0.307685,-0.44648 0.447564,-0.64231 0.592577,-0.82951 0.673646,-1.20179 0.48633,-2.23336 -0.123244,-0.67866 -0.149654,-0.73852 -0.576268,-1.30581 l -0.342143,-0.45494 0.739328,-0.74928 c 0.40664,-0.41205 0.822198,-0.7948 0.92348,-0.85047 0.262466,-0.14435 0.781562,-0.246 0.9841,-0.19272 0.200308,0.0528 0.698323,0.42357 1.076144,0.8014 0.252316,0.25232 0.463534,0.62336 0.394282,0.69261 -0.01817,0.0181 0.0047,0.12309 0.05021,0.23316 0.04578,0.11008 0.08898,0.5921 0.096,1.07116 0.0068,0.47906 0.04554,1.0788 0.08557,1.33276 0.205989,1.30668 0.771794,2.11789 1.776796,2.54747 0.351187,0.15011 0.548615,0.18206 1.105161,0.17894 0.372676,-0.002 0.773977,-0.0346 0.891781,-0.0724 0.117802,-0.0377 0.348272,-0.0793 0.51216,-0.0922 0.415685,-0.0332 1.007138,-0.32743 1.334954,-0.66461 0.341093,-0.35085 0.502469,-0.58971 0.489878,-0.72518 -0.01101,-0.11847 -0.376668,-0.41095 -0.482527,-0.38596 -0.100274,0.0238 -0.617215,-0.53831 -0.686909,-0.74677 -0.111288,-0.33285 -0.03186,-0.73772 0.222307,-1.13318 0.122449,-0.19051 0.03514,-0.33414 -0.320183,-0.52675 -0.536285,-0.29071 -0.730079,-0.58587 -0.938666,-1.4297 -0.141425,-0.5721 -0.114645,-1.2336 0.0718,-1.77378 0.265944,-0.77048 0.298447,-0.81311 1.684182,-2.20866 0.704819,-0.70983 1.317525,-1.29837 1.361534,-1.30792 0.05643,-0.0124 0.801562,0.68791 2.527161,2.37456 1.345922,1.31553 2.510009,2.43159 2.586863,2.48013 0.129658,0.082 0.162342,0.0691 0.453302,-0.17881 0.325522,-0.27721 2.320511,-2.3069 2.32052,-2.36085 -2e-6,-0.0557 -0.36646,-0.42488 -1.229458,-1.23803 -1.97504,-1.86105 -7.60128,-7.43891 -7.552558,-7.48763 0.0267,-0.0265 0.09644,-9.4e-4 0.154953,0.0579 0.05852,0.0586 0.141243,0.0982 0.183811,0.0882 0.04257,-0.0101 0.709942,-0.65706 1.483042,-1.4378 l 1.405634,-1.41953 0.325876,0.32585 c 0.368386,0.36839 0.577016,0.48471 0.727564,0.40561 0.05681,-0.0299 2.864331,-2.79561 6.238928,-6.14615 l 6.135625,-6.09186 -0.08335,-0.25697 c -0.07401,-0.22818 -0.175629,-0.35029 -0.906244,-1.0891 -0.728725,-0.73685 -0.816664,-0.84246 -0.76853,-0.92268 0.15371,-0.25616 1.4915,-1.35433 1.614485,-1.32529 0.05901,0.0139 0.360434,-0.32871 0.386572,-0.43943 0.01571,-0.0665 -0.294372,-0.50712 -0.449583,-0.63875 -1.440806,-1.22199 -1.753957,-1.38061 -2.295381,-1.16263 -0.243362,0.098 -0.274936,0.17898 -0.127321,0.32659 0.117103,0.11711 0.209237,0.3538 0.184076,0.47289 -0.0084,0.0402 0.105921,0.21728 0.25421,0.39374 0.25843,0.3075 0.265637,0.3277 0.173687,0.48647 -0.127781,0.22061 -6.05567,6.12427 -6.163035,6.13783 -0.04809,0.006 -0.09326,0.0723 -0.10606,0.15549 -0.01935,0.12582 -0.04176,0.14595 -0.169978,0.15254 -0.134705,0.007 -0.147695,0.0198 -0.147619,0.14565 0,0.12584 -0.02069,0.14332 -0.235321,0.19866 -0.195359,0.0505 -0.218889,0.068 -0.138576,0.10378 0.11458,0.0512 0.02564,0.16573 -0.128497,0.16573 -0.07863,0 -0.104385,0.0363 -0.110356,0.15616 -0.0068,0.13933 -0.02091,0.15492 -0.129456,0.14484 -0.1566,-0.0147 -0.245546,0.0757 -0.207432,0.21076 0.02721,0.0963 0.01839,0.10521 -0.09467,0.0947 -0.159368,-0.0147 -0.248819,0.0745 -0.210471,0.21046 0.02722,0.0963 0.0184,0.10522 -0.09467,0.0947 -0.149471,-0.0141 -0.295204,0.11564 -0.245713,0.2184 0.02524,0.0525 -0.01744,0.0767 -0.148675,0.0844 -0.180705,0.0108 -0.183695,0.0138 -0.161768,0.15476 0.02164,0.13936 0.01712,0.14411 -0.145084,0.15221 -0.157045,0.008 -0.167892,0.0178 -0.175099,0.16253 -0.0067,0.13766 -0.02075,0.15297 -0.129367,0.14288 -0.158913,-0.0147 -0.243656,0.0742 -0.188506,0.19815 0.0407,0.0913 0.03283,0.0993 -0.106186,0.10619 -0.193105,0.01 -0.256139,0.0755 -0.214886,0.22482 0.03096,0.11196 0.02339,0.11814 -0.119389,0.0976 -0.130105,-0.0187 -0.157538,-9.3e-4 -0.187204,0.12182 -0.04518,0.18687 -0.06804,0.20547 -0.117092,0.0952 -0.06543,-0.1469 -0.223021,0.0645 -0.190864,0.25624 0.02607,0.15526 0.01912,0.16551 -0.09181,0.13542 -0.151298,-0.0412 -0.294849,0.0965 -0.236787,0.22688 0.0407,0.0913 0.03283,0.0992 -0.106184,0.10619 -0.190416,0.01 -0.224917,0.0455 -0.203898,0.21381 0.01616,0.12916 0.01114,0.13416 -0.10506,0.10507 -0.16875,-0.0424 -0.263374,0.0724 -0.190497,0.23084 l 0.06079,0.13216 -0.148105,-0.0446 c -0.184504,-0.0557 -0.305262,0.0546 -0.219588,0.20104 0.08248,0.1409 0.02553,0.19785 -0.121619,0.12161 -0.148401,-0.0769 -0.266734,0.0416 -0.183544,0.18355 0.08164,0.13944 0.0641,0.15459 -0.158216,0.13643 l -0.181368,-0.0148 0.01416,0.17509 0.01415,0.17508 -0.170005,-0.0135 -0.170009,-0.0133 0.01809,0.17203 c 0.02119,0.20172 -0.008,0.24865 -0.09872,0.15804 -0.09051,-0.0905 -0.24266,0.0781 -0.202894,0.22467 0.03027,0.11166 0.02145,0.11819 -0.126178,0.0934 -0.191444,-0.0323 -0.402504,0.0774 -0.354995,0.18405 0.02427,0.0543 -0.04883,0.14607 -0.258835,0.32435 -0.160957,0.13664 -1.500191,1.46367 -2.976075,2.94896 -2.058625,2.07174 -2.695565,2.68837 -2.735585,2.64836 -0.02869,-0.0287 -0.118803,-0.0553 -0.20025,-0.0597 -0.12172,-0.006 -0.164239,-0.041 -0.23881,-0.19522 -0.135219,-0.27992 -0.30342,-0.42174 -0.532744,-0.44913 -0.184121,-0.0222 -0.234371,0.005 -0.488776,0.25904 -0.255276,0.25527 -0.28356,0.30897 -0.283554,0.53841 0,0.29246 0.0785,0.39099 0.432162,0.54252 0.235424,0.10087 0.250651,0.1161 0.221022,0.22103 -0.0175,0.0621 -0.0036,0.14114 0.03141,0.17591 0.07271,0.0726 0.0819,0.0625 -1.699234,1.87554 -2.800823,2.85086 -6.564853,6.608 -6.637292,6.62508 -0.116107,0.0273 -0.690105,-0.20794 -0.938518,-0.38484 -0.14223,-0.10128 -0.284149,-0.14585 -0.414661,-0.13025 -0.19066,0.023 -0.263342,0.0887 -1.857179,1.68243 -1.595334,1.59534 -1.662483,1.66947 -1.7562,1.93909 -0.116135,0.33409 -0.100571,0.39744 0.223538,0.90987 0.377335,0.59656 0.377786,0.57285 -0.01844,0.96908 l -0.341299,0.3413 0.174899,0.23045 c 0.206297,0.27183 0.230836,0.41009 0.0966,0.54431 -0.133256,0.13325 -0.104734,0.32766 0.0701,0.47773 0.198379,0.17028 0.328864,0.16958 0.501142,-0.003 0.179339,-0.17933 0.176259,-0.18111 1.002872,0.57542 l 0.619222,0.56671 -0.218569,0.33111 c -0.12021,0.18207 -0.327646,0.51623 -0.460965,0.74258 -0.74373,1.26265 -1.193576,1.91187 -1.429187,2.0626 -0.09322,0.0598 -0.365225,0.1899 -0.604474,0.28944 -0.634864,0.26414 -0.787859,0.43911 -1.858716,2.12577 -0.512123,0.8066 -0.981507,1.55352 -1.043077,1.65979 -0.218016,0.37631 -0.990183,1.60588 -1.69848,2.70458 -0.816285,1.26623 -0.8606,1.3369 -1.831565,2.92027 -1.4374577,2.34411 -1.9329827,3.17093 -1.967355,3.28273 -0.06795,0.22098 0.1646391,0.53582 0.7107591,0.96214 0.2744051,0.21417 0.6631626,0.51946 0.8639137,0.67835 0.200749,0.15891 0.4659063,0.36456 0.5892296,0.45705 0.1233183,0.0924 1.1047686,1.03356 2.1809826,2.09128 1.940261,1.90696 1.961586,1.92609 2.52934,2.26609 0.590415,0.35358 1.354078,0.65796 1.427614,0.56899 0.02296,-0.0277 0.09615,-0.13865 0.162671,-0.24639 z m 17.266134,-32.1042 c -0.362903,0.0238 -0.880831,-0.15254 -1.105282,-0.37581 -0.198336,-0.19732 -0.383966,-0.61051 -0.329345,-0.73315 0.04378,-0.0983 0.370789,-0.22221 0.503734,-0.19083 0.04608,0.0109 0.173018,0.11759 0.282109,0.2371 0.251575,0.27562 0.602519,0.39473 1.058767,0.35932 0.344972,-0.0266 0.547264,-0.13755 0.442488,-0.24234 -0.03146,-0.0316 -0.156504,-0.0424 -0.277886,-0.0242 -0.666387,0.0999 -1.299239,-0.83756 -1.06109,-1.57176 0.09438,-0.29093 0.452257,-0.68798 0.794459,-0.88143 0.254144,-0.14365 0.7355,-0.12175 0.898105,0.041 0.06544,0.0653 0.184377,0.26881 0.264301,0.45197 0.07992,0.18314 0.199662,0.39635 0.266093,0.4738 0.06642,0.0775 0.152985,0.17762 0.192352,0.22263 0.202036,0.23104 0.0044,0.52776 -1.145748,1.71695 l -0.480684,0.49716 z"
       id="path4762" />       
  </g>
</svg>
