<?xml version="1.0" encoding="UTF-8" standalone="no"?>
<!-- Created with Inkscape (http://www.inkscape.org/) -->

<svg
   xmlns:osb="http://www.openswatchbook.org/uri/2009/osb"
   xmlns:dc="http://purl.org/dc/elements/1.1/"
   xmlns:cc="http://creativecommons.org/ns#"
   xmlns:rdf="http://www.w3.org/1999/02/22-rdf-syntax-ns#"
   xmlns:svg="http://www.w3.org/2000/svg"
   xmlns="http://www.w3.org/2000/svg"
   xmlns:sodipodi="http://sodipodi.sourceforge.net/DTD/sodipodi-0.dtd"   
   id="svg4530"
   version="1.1"
   viewBox="0 0 58.208335 62.177084"
   height="235"
   width="220"   
   sodipodi:docname="ump45.svg" >
  <defs
     id="defs4524">
    <linearGradient
       id="linearGradient6706"
       osb:paint="solid">
      <stop
         style="stop-color:#000000;stop-opacity:1;"
         offset="0"
         id="stop6704" />
    </linearGradient>
  </defs>
  <sodipodi:namedview
     showgrid="false"
     borderopacity="1.0"
     bordercolor="#666666"
     pagecolor="#000000"
     id="base"
     fit-margin-top="0"
     fit-margin-left="0"
     fit-margin-right="0"
     fit-margin-bottom="0"
     units="px" />
  <metadata
     id="metadata4527">
    <rdf:RDF>
      <cc:Work
         rdf:about="">
        <dc:format>image/svg+xml</dc:format>
        <dc:type
           rdf:resource="http://purl.org/dc/dcmitype/StillImage" />
        <dc:title />
      </cc:Work>
    </rdf:RDF>
  </metadata>
  <g
     id="layer1"
     transform="translate(-21.438032,-206.43901)">
    <path
       style="fill:none;fill-opacity:1;stroke:#ffffff;stroke-width:0.4;stroke-miterlimit:4;stroke-dasharray:none;stroke-opacity:1"
       d="m 76.339352,241.16627 c -0.167793,0.057 -0.03811,0.11783 -1.574983,-0.73871 -0.704366,-0.39256 -2.114859,-1.17415 -3.134429,-1.73685 -2.138227,-1.18008 -4.203602,-2.32119 -6.801599,-3.75785 -1.007301,-0.55702 -2.362088,-1.30597 -3.010636,-1.66433 -0.648544,-0.35836 -1.363367,-0.75388 -1.588489,-0.87893 -0.409304,-0.22739 -0.409304,-0.22739 -0.665543,0.0717 -0.314995,0.36753 -0.35197,0.27622 0.300364,0.74202 0.730018,0.52128 0.693696,0.48576 0.599296,0.58607 -0.06847,0.0727 -0.09683,0.071 -0.196609,-0.0122 -0.06409,-0.0535 -0.177985,-0.13906 -0.252998,-0.19028 -0.07504,-0.0512 -0.212416,-0.1501 -0.305297,-0.21973 -0.190233,-0.14263 -0.465424,-0.24404 -0.607889,-0.22403 -0.07807,0.011 -0.173238,0.12117 -0.530735,0.61474 -0.23959,0.33077 -0.487331,0.65639 -0.550537,0.72361 -0.231022,0.24569 -0.248343,0.51112 -0.06632,1.01638 0.29071,0.80698 0.367622,0.66341 -1.365232,2.54841 -1.895472,2.06189 -1.750029,1.951 -3.051926,2.32671 -0.885735,0.25557 -0.89947,0.0861 0.208591,2.5734 0.201526,0.45236 0.660562,1.494 1.020088,2.31476 0.66496,1.51806 0.719156,1.61239 0.954718,1.66177 0.320397,0.0671 0.447947,0.40861 0.236347,0.63274 -0.236879,0.25114 -3.744799,1.40931 -4.622609,1.52637 -0.330185,0.0438 -0.235606,0.28865 -1.373884,-3.55483 -0.370783,-1.25194 -0.7134,-2.41821 -0.761374,-2.59168 -0.191547,-0.69262 -0.345324,-0.97272 -0.708462,-1.29039 -0.618681,-0.54098 -1.447755,-0.68204 -2.229301,-0.37886 -0.505785,0.19618 -2.646279,1.59606 -3.057123,1.99933 -0.1823,0.17894 -0.38341,0.34334 -0.446927,0.36533 -0.08614,0.0299 -0.394692,0.34243 -1.214427,1.23038 -1.25907,1.36385 -0.981463,0.89044 -2.178645,3.71547 -0.578201,1.36439 -2.299791,5.39961 -3.195349,7.48952 -0.201795,0.47092 -0.789697,1.82465 -1.306453,3.00827 -0.516756,1.18363 -1.119236,2.58036 -1.338847,3.10382 -0.43404,1.03462 -1.311997,2.21879 -1.622316,2.18814 -0.09179,-0.009 -0.113665,0.008 -0.169342,0.13908 -0.08678,0.20286 -0.521973,0.65801 -0.708759,0.74125 -0.427824,0.19068 -0.570582,0.0982 -1.754908,-1.13685 -1.197236,-1.24853 -3.156311,-2.90911 -5.260327,-4.45883 -1.376542,-1.01389 -1.511691,-0.71356 1.938583,-4.30822 9.279854,-9.66824 10.173979,-10.68078 10.863846,-12.30256 0.156439,-0.36777 0.469743,-1.466 0.586855,-2.05709 0.202489,-1.02206 0.523872,-1.71633 0.908579,-1.96279 0.155135,-0.0994 0.165963,-0.1191 0.155795,-0.28409 -0.01088,-0.17645 0.196137,-1.18759 0.587761,-2.87087 0.320704,-1.37845 0.347968,-1.45785 0.588184,-1.71306 0.207019,-0.21994 0.207019,-0.21994 0.08535,-0.34516 -0.08513,-0.0875 -0.108325,-0.14618 -0.07724,-0.195 0.04519,-0.0709 0.07432,-0.0661 0.280014,0.0469 0.115297,0.0634 0.117667,0.0621 0.383896,-0.22084 0.416687,-0.44268 0.359585,-0.4582 1.316025,0.3575 0.435803,0.37166 0.811759,0.67032 0.83545,0.66368 0.02374,-0.007 -0.04392,-0.0879 -0.150237,-0.18051 -0.282071,-0.24578 -0.273044,-0.84051 0.01744,-1.14877 0.711061,-0.75491 1.236533,-1.22445 1.303796,-1.16583 0.197511,0.17209 0.544458,-0.10639 0.398551,-0.3199 -0.119699,-0.17518 0.126173,-0.52258 0.276899,-0.39125 0.199915,0.17419 0.559486,-0.1346 0.393488,-0.33798 -0.127846,-0.15662 0.133262,-0.50273 0.281697,-0.3734 0.192713,0.16791 0.550655,-0.1444 0.39042,-0.34065 -0.140261,-0.17181 0.135563,-0.50072 0.29985,-0.35758 0.191316,0.1667 0.532553,-0.16011 0.372255,-0.35646 -0.138144,-0.16925 0.135181,-0.5011 0.296761,-0.3603 0.115006,0.10023 0.190684,0.0805 0.353121,-0.0921 0.100023,-0.10628 0.122738,-0.25152 0.04647,-0.29728 -0.111925,-0.0671 -0.106629,-0.11489 0.02868,-0.25866 0.137432,-0.146 0.148687,-0.14894 0.245543,-0.0646 0.09357,0.0816 0.114856,0.0779 0.271524,-0.0462 0.195037,-0.15384 0.223089,-0.26591 0.09456,-0.37791 -0.07566,-0.0659 -0.06991,-0.0874 0.0604,-0.22588 0.138687,-0.14734 0.147929,-0.1496 0.249537,-0.0611 0.07495,0.0653 0.123338,0.0761 0.167023,0.0371 0.308595,-0.27445 0.3363,-0.34134 0.193125,-0.46609 -0.136863,-0.11926 0.159362,-0.37825 0.312344,-0.2731 0.184521,0.12683 0.541077,-0.20392 0.407391,-0.37791 -0.04731,-0.0616 -0.07873,-0.12304 -0.06977,-0.13651 0.142471,-0.21452 0.234359,-0.26847 0.337026,-0.19783 0.111155,0.0765 0.115406,0.0744 0.388239,-0.19914 0.08436,-0.0845 0.08624,-0.11345 0.01295,-0.19396 -0.132391,-0.14546 0.136755,-0.43061 0.300074,-0.31827 0.166041,0.11424 0.506878,-0.24786 0.372312,-0.39554 -0.137095,-0.15047 0.145233,-0.44183 0.298613,-0.30818 0.182138,0.1587 0.554645,-0.23697 0.405676,-0.43086 -0.1231,-0.16022 0.102222,-0.40733 0.267647,-0.2935 0.159166,0.10951 0.551278,-0.25098 0.408398,-0.37547 -0.125078,-0.10899 -0.11693,-0.12299 0.393427,-0.67599 0.544941,-0.59046 0.938479,-0.69202 1.342284,-0.34632 0.101152,0.0867 0.204644,0.15176 0.229845,0.14471 0.138942,-0.039 8.240345,-8.7102 8.355856,-8.94358 0.42094,-0.8506 0.379934,-1.51258 -0.14796,-2.38873 -0.616043,-1.02246 -0.625238,-1.10405 -0.177919,-1.57927 0.450722,-0.47885 0.32617,-0.48816 1.884059,0.14074 1.110334,0.44823 1.34818,0.5567 1.590098,0.7251 0.211971,0.14757 1.44178,1.03233 2.309236,1.66135 0.557835,0.40452 0.547354,0.40467 0.941957,-0.0146 0.295389,-0.31383 0.295389,-0.31383 0.210964,-0.42817 -0.101162,-0.137 -0.08756,-0.15548 0.171789,-0.23351 0.176788,-0.0532 0.265375,-0.12342 0.73695,-0.58374 0.960496,-0.9377 0.802597,-0.90949 1.515702,-0.27079 0.422118,0.37809 0.428892,0.35561 -0.365179,1.21128 -0.426687,0.45979 -0.447411,0.48999 -0.514653,0.74984 -0.07746,0.29926 -0.153748,0.36974 -0.280616,0.2592 -0.08293,-0.0722 -0.08866,-0.0686 -0.391982,0.25368 -0.307814,0.32701 -0.307814,0.32701 0.04423,0.61611 0.506645,0.41604 0.577903,0.49122 0.521903,0.55071 -0.03501,0.0371 -0.0077,0.0866 0.10047,0.18232 0.606297,0.53615 1.027532,1.13571 0.896069,1.2754 -0.05826,0.062 -0.03864,0.0887 0.248963,0.33927 0.367298,0.32003 0.37688,0.36205 0.127229,0.55716 -0.09702,0.0758 -0.246564,0.22401 -0.332316,0.32934 -0.244658,0.30046 -0.238794,0.30215 -0.876933,-0.25239 -0.556433,-0.48341 -0.556433,-0.48341 -0.681896,-0.37058 -0.103092,0.0928 -0.153697,0.10398 -0.283141,0.0627 -0.239776,-0.0762 -0.454612,0.15725 -0.328202,0.35672 0.126964,0.20034 -0.270541,0.51345 -0.421078,0.33168 -0.03925,-0.0473 -0.07894,-0.026 -0.208461,0.11148 -0.150788,0.1602 -0.155034,0.1755 -0.07344,0.26504 0.139488,0.15309 -0.139582,0.43222 -0.325479,0.3256 -0.179287,-0.10285 -0.48926,0.23174 -0.35334,0.38137 0.115153,0.12681 -0.210317,0.42046 -0.335849,0.30303 -0.07089,-0.0665 -0.09027,-0.0571 -0.263163,0.12659 -0.185962,0.19757 -0.186297,0.19844 -0.08106,0.29016 0.162234,0.14136 -0.108188,0.43059 -0.302753,0.32371 -0.223397,-0.12269 -0.540843,0.18555 -0.386448,0.37525 0.0749,0.0921 0.074,0.12795 -0.0061,0.2313 -0.111235,0.14355 -0.258714,0.17786 -0.327651,0.0761 -0.0515,-0.076 -0.06098,-0.0707 -0.296264,0.16501 -0.12076,0.12094 -0.124691,0.14058 -0.04557,0.22742 0.07794,0.0856 0.07414,0.10825 -0.03818,0.22758 -0.117643,0.125 -0.316815,0.15554 -0.32201,0.0495 -0.0024,-0.0508 -0.255446,0.13915 -0.334161,0.25078 -0.04728,0.067 -0.04139,0.11649 0.02219,0.18632 0.04763,0.0523 0.07086,0.11428 0.05163,0.13783 -0.01922,0.0235 -0.0646,0.0821 -0.100817,0.13018 -0.07107,0.0943 -0.226009,0.12246 -0.303327,0.0549 -0.06636,-0.0578 -0.199672,0.0266 -0.306809,0.19415 -0.07327,0.11462 -0.07439,0.1545 -0.0061,0.21407 0.130245,0.11348 -0.14463,0.3987 -0.305099,0.31657 -0.173855,-0.0889 -0.495703,0.26783 -0.368015,0.40797 0.08659,0.0951 0.08659,0.0951 -0.310398,0.55369 -0.51613,0.59628 -0.538423,0.60162 -0.986589,0.23658 -0.448382,-0.36517 -0.53358,-0.26411 -0.993026,1.1777 -0.33164,1.04078 -0.860836,1.83304 -1.359519,2.0354 -0.132204,0.0537 -0.0395,0.11235 1.363604,0.86373 1.34634,0.72096 1.400445,0.75997 1.296242,0.93463 -0.138094,0.23151 -0.167978,0.32588 -0.113787,0.35946 0.06621,0.041 1.818517,1.01351 3.086354,1.71285 0.486702,0.26847 1.983134,1.09647 3.325418,1.84 4.855123,2.6894 6.116828,3.3877 6.986993,3.86695 0.486952,0.2682 0.979754,0.54038 1.095124,0.60485 0.401562,0.22439 0.615545,0.28913 0.978314,0.29599 0.547086,0.0104 0.823818,0.18668 0.696671,0.44396 -0.02645,0.0536 -0.04715,0.1689 -0.04594,0.25629 0.0018,0.13353 -0.135632,0.387 -0.860487,1.58666 -0.942282,1.55952 -0.91724,1.52376 -1.114447,1.59077 z m -18.535837,-5.14633 c -0.0064,-0.26666 -0.679811,-1.92943 -0.876228,-2.1637 -0.127928,-0.15258 -0.503235,-0.24507 -0.753415,-0.18567 -0.441042,0.10471 -3.35893,3.35617 -3.275523,3.64995 0.234682,0.82662 1.030092,1.39677 1.972581,1.41395 0.353074,0.007 0.409061,0.0855 0.210197,0.29675 -0.487925,0.51836 -1.872161,0.0622 -2.358506,-0.77732 -0.241258,-0.41643 -0.208241,-0.39712 -0.542105,-0.31699 -0.542235,0.13014 -0.529352,0.28196 0.1473,1.73575 0.29386,0.63136 0.284557,0.62924 1.319245,0.30078 1.020062,-0.32381 0.808078,-0.15625 2.613357,-2.06604 1.549118,-1.63879 1.549118,-1.63879 1.543097,-1.88746 z m -24.33174,23.29037 c 1.992684,-4.56598 1.921854,-4.05746 0.796233,-5.71657 -2.058802,-3.03458 -1.584405,-2.97787 -3.991374,-0.47712 -4.958968,5.15217 -4.590725,4.56287 -3.459903,5.53686 3.656321,3.14921 3.711666,3.18405 4.381609,2.75879 0.08675,-0.0551 0.230203,-0.14604 0.318765,-0.20216 0.100623,-0.0637 0.272006,-0.10681 0.456879,-0.11484 0.699611,-0.0301 0.766991,-0.11044 1.497787,-1.78499 z m 3.677392,-8.60862 c 0.521994,-1.1691 0.535503,-1.21181 0.51519,-1.62929 -0.02528,-0.5193 -0.124719,-0.69174 -0.675976,-1.17208 -0.878989,-0.76589 -1.133273,-0.68551 -2.531827,0.80031 -1.384497,1.47089 -1.398652,1.63398 -0.225664,2.60104 1.243453,1.02513 2.288607,0.81027 2.918277,-0.59998 z"
       id="path5170" />
  </g>
</svg>
