<?xml version="1.0" encoding="UTF-8" standalone="no"?>
<!-- Created with Inkscape (http://www.inkscape.org/) -->

<svg
   xmlns:dc="http://purl.org/dc/elements/1.1/"
   xmlns:cc="http://creativecommons.org/ns#"
   xmlns:rdf="http://www.w3.org/1999/02/22-rdf-syntax-ns#"
   xmlns:svg="http://www.w3.org/2000/svg"
   xmlns="http://www.w3.org/2000/svg"
   xmlns:sodipodi="http://sodipodi.sourceforge.net/DTD/sodipodi-0.dtd"   
   width="220"
   height="235"
   viewBox="0 0 58.208332 62.177085"
   version="1.1"
   id="svg8"   
   sodipodi:docname="ump9.svg">
  <defs
     id="defs2" />
  <sodipodi:namedview
     id="base"
     pagecolor="#000000"
     bordercolor="#666666"
     borderopacity="1.0"
     showgrid="false"
     units="px" />
  <metadata
     id="metadata5">
    <rdf:RDF>
      <cc:Work
         rdf:about="">
        <dc:format>image/svg+xml</dc:format>
        <dc:type
           rdf:resource="http://purl.org/dc/dcmitype/StillImage" />
        <dc:title></dc:title>
      </cc:Work>
    </rdf:RDF>
  </metadata>
  <g
     id="layer1"
     transform="translate(0,-234.8229)">
    <path
       style="fill:none;stroke:#fffffd;stroke-width:0.4;stroke-opacity:1;stroke-miterlimit:4;stroke-dasharray:none"
       d="m 56.55812,264.54374 c 0.305249,-1.91501 0.324445,-2.33852 0.112529,-2.48244 -0.100602,-0.0683 -0.195408,-0.2154 -0.210672,-0.32683 -0.03532,-0.25786 -0.498607,-0.73275 -0.748055,-0.76688 -0.104775,-0.0142 -0.383566,0.0522 -0.619546,0.14802 -0.394841,0.1601 -0.580686,0.14351 -2.33043,-0.20817 -3.135104,-0.63015 -5.949986,-1.47891 -8.590241,-2.59028 -1.290109,-0.54305 -1.364943,-0.58723 -1.584007,-0.9363 -0.198701,-0.31662 -0.370295,-0.45056 -1.26363,-0.98605 -0.568536,-0.34081 -1.049285,-0.63521 -1.068328,-0.65422 -0.01905,-0.0194 0.213837,-0.28314 0.517502,-0.58679 0.538027,-0.53799 0.563389,-0.58351 0.993758,-1.78311 0.242907,-0.67712 0.479718,-1.26915 0.526251,-1.31564 0.04653,-0.0465 0.14605,-0.0573 0.221144,-0.0239 0.214895,0.0957 0.715419,-0.45267 0.699759,-0.76667 -0.01232,-0.24685 0.05521,-0.31876 3.496648,-3.72686 l 3.509192,-3.47514 1.052512,0.98672 1.05251,0.98673 0.463475,-0.4246 0.463472,-0.4246 -0.341113,-0.3411 c -0.248955,-0.24899 -0.332738,-0.39494 -0.310126,-0.54039 0.0247,-0.1587 -0.08679,-0.32648 -0.547876,-0.82443 -0.409183,-0.44194 -0.56293,-0.66092 -0.52451,-0.74723 0.03959,-0.0889 -0.04065,-0.19691 -0.295544,-0.39782 -0.536037,-0.42252 -0.560168,-0.63366 -0.122448,-1.07138 0.27569,-0.2757 0.382482,-0.33649 0.458162,-0.26081 0.137026,0.137 0.232297,0.0144 0.33842,-0.43499 0.07559,-0.3202 0.186652,-0.48092 0.662052,-0.95808 0.628953,-0.63145 0.632246,-0.65223 0.171644,-1.11684 -0.397346,-0.40083 -0.441762,-0.39118 -1.064466,0.2306 -0.456984,0.45647 -0.633508,0.58121 -0.897041,0.63474 -0.389798,0.0792 -0.597735,0.25747 -0.46047,0.39467 0.131273,0.13131 -0.549586,0.83278 -0.758184,0.78117 -0.07688,-0.0195 -0.210638,-0.005 -0.297225,0.0382 -0.126614,0.0585 -0.236677,-0.01 -0.562247,-0.33202 -0.222651,-0.22266 -0.923675,-0.83011 -1.557833,-1.34994 -1.093302,-0.89621 -1.224038,-0.97754 -2.524551,-1.57072 l -1.371531,-0.62562 -0.47428,0.43493 c -0.333026,0.30542 -0.464953,0.47646 -0.442978,0.57453 0.01721,0.0769 0.249261,0.57294 0.515669,1.10249 0.541989,1.07738 0.619869,1.59822 0.355371,2.37691 l -0.151128,0.44483 -4.729962,4.76774 -4.729954,4.76775 -0.302365,-0.26164 -0.302371,-0.2617 -0.781667,0.74477 c -0.635938,0.60592 -0.778554,0.77907 -0.764551,0.92903 0.02236,0.24039 -0.263538,0.52916 -0.394369,0.39834 -0.127664,-0.12768 -0.350621,0.0952 -0.328914,0.32889 0.02208,0.23758 -0.264882,0.52451 -0.39469,0.39469 -0.131062,-0.13102 -0.451669,0.18959 -0.3709,0.37092 0.07887,0.17705 -0.199417,0.45533 -0.376487,0.3765 -0.193402,-0.086 -0.410227,0.16529 -0.340668,0.39503 0.06896,0.22772 -0.115077,0.3956 -0.358319,0.32693 -0.231842,-0.0654 -0.410772,0.1328 -0.395543,0.43829 0.01594,0.31938 -0.130434,0.46699 -0.340846,0.34382 -0.196782,-0.11518 -0.364334,0.0756 -0.382276,0.4353 -0.01247,0.25047 -0.231053,0.43754 -0.360254,0.30834 -0.107511,-0.10754 -0.455835,0.29617 -0.387649,0.44929 0.03345,0.075 0.01455,0.18281 -0.042,0.23936 -0.05655,0.0565 -0.164245,0.0754 -0.23934,0.0419 -0.07828,-0.0349 -0.218594,0.0215 -0.32891,0.13153 -0.110311,0.11035 -0.166432,0.25065 -0.131566,0.32896 0.03343,0.0751 0.0049,0.19258 -0.06373,0.26106 -0.06851,0.0685 -0.168938,0.0801 -0.223205,0.0257 -0.13154,-0.13156 -0.482846,0.21975 -0.460473,0.46047 0.02164,0.23282 -0.135895,0.39033 -0.263131,0.26313 -0.131541,-0.13154 -0.482845,0.21975 -0.460473,0.46046 0.02154,0.23167 -0.129936,0.38317 -0.305125,0.30513 -0.176302,-0.0786 -0.440148,0.18533 -0.418477,0.41847 0.02152,0.2317 -0.129938,0.38316 -0.305125,0.30516 -0.07506,-0.0333 -0.203751,0.01 -0.285898,0.0886 -0.08214,0.0821 -0.141813,0.23057 -0.132582,0.32989 0.0092,0.0993 -0.02493,0.22228 -0.0759,0.27327 -0.05097,0.051 -0.154123,0.0652 -0.229217,0.0321 -0.109659,-0.0488 -0.275855,0.0785 -0.844234,0.64687 -0.616346,0.61637 -0.712463,0.74771 -0.744683,1.01737 l -0.03697,0.30967 -0.649443,-0.64947 c -0.417404,-0.41744 -0.705845,-0.64945 -0.807313,-0.64945 -0.101512,0 -0.390199,0.23233 -0.808644,0.65078 l -0.65076,0.65071 -0.549526,2.19411 c -0.325225,1.2985 -0.61893,2.26348 -0.719564,2.3641 -0.09354,0.0935 -0.14268,0.2315 -0.109234,0.30659 0.03344,0.075 -0.0063,0.20427 -0.0897,0.28704 -0.333218,0.33321 -0.74342,1.31015 -1.032857,2.45992 -0.293912,1.16748 -0.66408,2.05554 -1.294742,3.10609 -0.416883,0.69445 -1.496229,1.82214 -7.9139674,8.26842 -5.5149063,5.53948 -5.6468033,5.67798 -5.7364274,6.0247 -0.15327497,0.59293 -0.13488657,0.61845 1.252286,1.73485 0.9044496,0.72793 1.9524192,1.6897 3.7081513,3.40324 l 2.4473948,2.38853 0.2977467,-0.0354 c 0.3260949,-0.039 0.6697896,-0.33138 0.8431393,-0.71738 0.0768,-0.17105 0.153446,-0.24767 0.247673,-0.24767 0.07505,0 0.3807557,-0.24434 0.6793467,-0.54292 0.480809,-0.4808 0.599393,-0.66638 1.036899,-1.62234 0.271703,-0.5937 1.107174,-2.3808 1.856603,-3.97129 0.749431,-1.59057 2.376026,-5.11467 3.614657,-7.83134 l 2.252056,-4.93944 0.70123,-0.70123 c 0.535604,-0.53558 0.747828,-0.70122 0.898575,-0.70122 0.155858,0 0.383374,-0.18603 1.082218,-0.88488 0.799257,-0.79926 1.000977,-0.9545 2.084747,-1.60429 1.433409,-0.85941 1.94716,-0.99796 2.757895,-0.74361 0.40576,0.12725 0.619052,0.2571 0.924712,0.56273 0.463304,0.4633 0.425761,0.349 1.471235,4.47965 0.862122,3.40631 0.791735,3.1872 1.055802,3.286 0.293884,0.10988 1.959664,-0.24704 3.393271,-0.72704 1.468051,-0.49157 1.692784,-0.62509 1.692784,-1.00587 0,-0.15759 -0.06081,-0.30899 -0.137956,-0.34333 -0.473607,-0.21089 -0.539594,-0.33165 -1.465649,-2.68121 -1.465796,-3.71905 -1.512782,-3.8564 -1.368943,-4.00022 0.06972,-0.0696 0.515397,-0.23418 0.990471,-0.36549 l 0.863767,-0.23887 1.865152,-1.82662 c 2.131055,-2.08698 2.088638,-2.0174 1.788636,-2.93382 -0.08412,-0.257 -0.144802,-0.53772 -0.134824,-0.62382 0.01,-0.0861 0.249657,-0.4283 0.532622,-0.76037 0.282969,-0.33214 0.562596,-0.68413 0.621394,-0.78237 0.16026,-0.26754 0.55468,-0.14564 1.056557,0.32665 0.337725,0.31782 0.435419,0.37106 0.501729,0.27343 0.06512,-0.0958 -0.03043,-0.2418 -0.457349,-0.69833 l -0.53969,-0.57716 0.333532,-0.28994 0.333532,-0.29 0.821424,0.40265 c 2.57554,1.26249 6.847987,2.68606 10.266412,3.42071 2.04074,0.43853 4.42316,0.79654 4.643256,0.69769 0.410828,-0.18445 0.5017,-0.3921 0.690773,-1.57829 z m -22.017796,3.84875 c -0.871036,-0.0394 -1.644894,-0.58082 -1.935248,-1.35383 l -0.152673,-0.40648 1.749431,-1.74941 1.749435,-1.74945 h 0.317578 c 0.551148,0 0.683667,0.15111 1.023333,1.16684 0.171164,0.51185 0.318373,1.02708 0.327127,1.14493 0.01423,0.19142 -0.131164,0.3614 -1.358457,1.58872 l -1.374384,1.37436 z m -1.213698,1.03488 c -0.418041,0.12066 -0.903438,0.23016 -1.078673,0.2433 l -0.318595,0.0239 -0.357605,-0.87917 c -0.329436,-0.80996 -0.343586,-0.89592 -0.179618,-1.09077 0.101974,-0.12115 0.296064,-0.22607 0.454407,-0.2456 0.27135,-0.0334 0.278352,-0.0281 0.381978,0.29763 0.162623,0.51088 0.782274,1.00407 1.460496,1.16227 0.297277,0.0694 0.508369,0.15825 0.469091,0.19754 -0.03926,0.0393 -0.413445,0.17018 -0.831481,0.29084 z m -23.200813,21.43906 c -0.3315757,0.0301 -0.5739167,0.11347 -0.7035132,0.24305 -0.1358438,0.13584 -0.3331742,0.19771 -0.6306839,0.19772 -0.4985812,0 -0.4776102,0.0167 -3.327078,-2.62084 -1.5452805,-1.43026 -1.5712115,-1.45877 -1.554779,-1.71198 0.015434,-0.23774 0.1139931,-0.34789 1.2815756,-1.43184 0.6956723,-0.64591 1.341133,-1.19778 1.4343527,-1.22644 0.093212,-0.0288 0.9905491,-0.87316 1.9940802,-1.87666 2.0316496,-2.03167 2.0722056,-2.05819 2.4967446,-1.63368 0.24776,0.24775 2.251283,3.38265 2.331779,3.64853 0.12073,0.39877 -0.03793,0.9565 -0.645576,2.26933 -0.351116,0.75859 -0.863414,1.86466 -1.138438,2.45796 -0.637919,1.37615 -0.864665,1.62451 -1.538464,1.68485 z m 4.757564,-9.56299 c -0.381092,0.2154 -1.174333,0.18695 -1.607068,-0.0577 -0.176623,-0.0999 -0.563245,-0.42337 -0.859155,-0.71882 -0.483056,-0.48248 -0.5413,-0.57539 -0.570114,-0.91005 l -0.0321,-0.37266 1.196487,-1.19645 c 0.999696,-0.99975 1.239328,-1.20406 1.456906,-1.24238 0.835414,-0.14718 2.005236,1.13782 1.859638,2.04282 -0.05844,0.36313 -0.76644,1.89639 -0.976291,2.11425 -0.08872,0.0922 -0.299503,0.24558 -0.468312,0.34098 z"
       id="path4580" />       
  </g>
</svg>
