<?xml version="1.0" encoding="UTF-8" standalone="no"?>
<!-- Created with Inkscape (http://www.inkscape.org/) -->

<svg
   xmlns:dc="http://purl.org/dc/elements/1.1/"
   xmlns:cc="http://creativecommons.org/ns#"
   xmlns:rdf="http://www.w3.org/1999/02/22-rdf-syntax-ns#"
   xmlns:svg="http://www.w3.org/2000/svg"
   xmlns="http://www.w3.org/2000/svg"
   xmlns:sodipodi="http://sodipodi.sourceforge.net/DTD/sodipodi-0.dtd"   
   width="220"
   height="235"
   viewBox="0 0 58.208332 62.177085"
   version="1.1"
   id="svg8"   
   sodipodi:docname="vector.svg">
  <defs
     id="defs2" />
  <sodipodi:namedview
     id="base"
     pagecolor="#000000"
     bordercolor="#666666"
     borderopacity="1.0"
     showgrid="false"
     units="px" />
  <metadata
     id="metadata5">
    <rdf:RDF>
      <cc:Work
         rdf:about="">
        <dc:format>image/svg+xml</dc:format>
        <dc:type
           rdf:resource="http://purl.org/dc/dcmitype/StillImage" />
        <dc:title></dc:title>
      </cc:Work>
    </rdf:RDF>
  </metadata>
  <g
     id="layer1"
     transform="translate(0,-234.8229)">
    <path
       style="fill:none;stroke:#fffffd;stroke-width:0.4;stroke-opacity:1;stroke-miterlimit:4;stroke-dasharray:none"
       d="m 50.037082,276.47532 c -0.01267,-0.0129 -0.306602,0.11096 -0.653188,0.27474 -1.963542,0.92778 -1.847114,0.88172 -2.036249,0.80577 -0.317722,-0.12759 -0.441198,-0.31689 -0.98795,-1.51455 -0.698241,-1.52949 -1.39247,-3.04228 -1.870744,-4.07653 -0.210168,-0.45449 -0.539972,-1.17344 -0.732897,-1.59768 -0.192928,-0.42425 -0.590159,-1.28848 -0.882739,-1.92052 -0.292576,-0.63203 -0.54783,-1.20157 -0.567236,-1.26567 -0.03345,-0.1105 -0.169265,0.0161 -2.626692,2.45187 l -2.591414,2.56837 -0.849076,0.39973 c -0.550479,0.25916 -0.842924,0.42576 -0.831593,0.47377 0.01225,0.0519 -0.02337,0.0865 -0.119096,0.11541 -0.07512,0.023 -0.193857,0.0986 -0.26386,0.16863 -0.08811,0.0882 -0.158666,0.10892 -0.229268,0.0676 -0.08058,-0.0471 -0.07874,-0.0748 0.0087,-0.13224 0.09104,-0.0599 0.0908,-0.0684 -0.0014,-0.0487 -0.237799,0.0509 -4.981951,2.12408 -5.078477,2.21941 -0.04065,0.0401 -1.167845,0.54407 -1.483958,0.66349 -0.103375,0.0391 -0.433366,0.17517 -0.733313,0.30249 -0.299949,0.12733 -0.669343,0.25759 -0.820881,0.28948 -0.3144,0.0661 -0.312693,0.0678 -0.859799,-0.80974 -1.35099,-2.16682 -2.140473,-4.16014 -2.636208,-6.65608 -0.143416,-0.72209 -0.284107,-0.98684 -0.686743,-1.29242 -0.399571,-0.30322 -0.730708,-0.35633 -1.592138,-0.2553 -0.216769,0.0253 -0.274641,0.0633 -0.538035,0.35223 -0.361397,0.3964 -0.602164,0.79812 -0.737758,1.23092 -0.09801,0.31285 -0.140265,0.36727 -0.923765,1.1899 l -0.821055,0.86206 -0.308599,0.95016 -0.308598,0.95015 -0.738406,0.73841 -0.738407,0.73839 -0.993779,0.34076 -0.993779,0.34077 -0.984309,1.01152 c -0.928205,0.95388 -0.991345,1.03019 -1.107899,1.33909 -0.206251,0.54668 -0.110974,1.28978 0.223857,1.74595 0.08407,0.11455 0.626781,1.12557 1.206021,2.2467 0.57924,1.12112 1.234683,2.38127 1.45654,2.80031 0.221859,0.41907 0.541386,1.03177 0.71006,1.36157 0.168674,0.32981 0.462696,0.8709 0.653384,1.20244 0.546606,0.95034 1.228621,2.3532 1.248613,2.5683 0.02351,0.25293 -0.204932,1.64085 -0.296094,1.79901 -0.05288,0.0917 -0.428575,0.52379 -0.834892,0.96015 -0.406313,0.43638 -0.721176,0.81096 -0.699697,0.83245 0.02148,0.0217 8.77e-4,0.2128 -0.04578,0.42517 -0.08124,0.36973 -0.103223,0.40537 -0.518442,0.84103 -0.601944,0.6316 -1.421665,1.20623 -1.702181,1.19327 -0.248858,-0.0117 -0.670214,-0.39102 -0.651979,-0.58724 0.01495,-0.16084 -0.05884,-0.22166 -0.288517,-0.23777 -0.222565,-0.0155 -0.463824,-0.28484 -0.413844,-0.46186 0.03727,-0.13199 -0.136434,-0.30731 -0.290349,-0.29297 -0.176003,0.0161 -0.436589,-0.2709 -0.421575,-0.46472 0.01547,-0.19981 -0.01467,-0.22998 -0.259164,-0.25917 -0.255343,-0.0307 -0.490764,-0.26504 -0.474745,-0.4728 0.01286,-0.16612 -0.120217,-0.27461 -0.2866,-0.23364 -0.048951,0.0123 -0.1703997,-0.0337 -0.2698753,-0.10179 -0.1438725,-0.0984 -0.1820704,-0.1624 -0.18677,-0.31278 -0.00737,-0.23708 -0.1098602,-0.34322 -0.2908898,-0.30139 -0.1757044,0.0408 -0.522158,-0.27325 -0.4587581,-0.41559 0.056748,-0.12742 -0.1077664,-0.26799 -0.2965175,-0.25338 -0.1138761,0.01 -0.213635,-0.0413 -0.3448482,-0.17221 -0.1015436,-0.10153 -0.1665111,-0.20273 -0.1443727,-0.22485 0.1007295,-0.10074 -0.087172,-0.27053 -0.3217352,-0.29073 -0.2759432,-0.0239 -0.5548306,-0.24985 -0.4894054,-0.39675 0.056593,-0.12707 -0.1506573,-0.31261 -0.2989968,-0.26769 -0.167408,0.0508 -0.4966323,-0.18819 -0.5055406,-0.36681 -0.00914,-0.18261 -0.1067994,-0.26598 -0.300369,-0.25633 -0.2311273,0.0117 -0.5096771,-0.19112 -0.5189747,-0.37756 -0.00995,-0.19956 -0.077389,-0.25334 -0.3086665,-0.24627 -0.2496845,0.008 -0.5263288,-0.17021 -0.5115771,-0.32894 0.014948,-0.16088 -0.1085543,-0.26526 -0.302422,-0.25559 -0.1339696,0.007 -0.2192462,-0.0465 -0.4602798,-0.28765 -0.3764725,-0.37647 -0.3736564,-0.43008 0.065772,-1.25187 0.2755538,-0.51534 0.4245521,-0.72503 0.8077919,-1.13678 0.4463908,-0.47961 0.4857827,-0.50936 0.7869242,-0.59415 l 0.3170099,-0.0893 1.0526754,-1.14841 c 1.919763,-2.09438 1.8963678,-2.0662 1.8587788,-2.23811 -0.018324,-0.0836 -0.1858095,-0.42712 -0.37219,-0.76295 -0.1863797,-0.33585 -0.5117052,-0.94001 -0.7229447,-1.34259 -0.368309,-0.70191 -0.3840739,-0.75199 -0.3840739,-1.22033 0,-0.34723 0.046267,-0.59162 0.1600887,-0.84558 0.1528323,-0.34097 0.2367514,-0.43703 1.8511505,-2.11881 0.9300829,-0.9689 2.4762669,-2.54958 3.4359639,-3.5126 2.547065,-2.55589 2.828452,-2.91703 3.236468,-4.15363 l 0.23803,-0.72141 0.967898,-0.93886 0.967895,-0.93885 -0.136553,-0.162 c -0.128793,-0.1528 -0.127461,-0.17253 0.02346,-0.34726 0.234279,-0.27125 0.384992,-0.3487 0.484626,-0.24907 0.07255,0.0725 0.114891,0.056 0.279711,-0.10872 0.183064,-0.18307 0.201039,-0.18741 0.313039,-0.0756 0.109206,0.10895 0.132788,0.10491 0.291329,-0.0501 0.153006,-0.14938 0.161521,-0.18233 0.07538,-0.29119 -0.08485,-0.10723 -0.07562,-0.14761 0.07304,-0.31942 0.162685,-0.18808 0.175466,-0.19141 0.291392,-0.0755 0.113127,0.11296 0.13447,0.10901 0.318499,-0.0596 0.194554,-0.17804 0.195428,-0.18307 0.06373,-0.36585 -0.177423,-0.24621 -1.891685,-1.85594 -1.989599,-1.86826 -0.06965,-0.01 -0.132389,-0.0913 -0.447475,-0.58834 -0.05525,-0.0873 -0.105339,-0.2313 -0.111298,-0.32029 -0.0057,-0.089 -0.06908,-0.24529 -0.140292,-0.34735 -0.170462,-0.24436 -0.152934,-0.34654 0.09632,-0.56151 l 0.207445,-0.17893 0.517004,0.46305 c 0.754961,0.67619 1.726885,1.77515 1.736263,1.96321 0.009,0.18177 0.04937,0.17282 0.388839,-0.0863 0.348788,-0.26622 0.437785,-0.3038 0.997833,-0.42143 0.439281,-0.0923 0.477698,-0.0885 0.630311,0.0641 0.16083,0.16083 0.164307,0.16072 0.335153,-0.0102 0.154257,-0.15425 0.161428,-0.18384 0.06729,-0.27799 -0.132353,-0.13234 -0.12016,-0.17264 0.105296,-0.34786 0.153306,-0.11916 0.19846,-0.12523 0.285307,-0.0384 0.09329,0.0933 0.121525,0.0848 0.294522,-0.0884 0.175912,-0.17591 0.183021,-0.20188 0.08807,-0.32194 -0.09274,-0.11727 -0.08586,-0.14835 0.06761,-0.30498 0.155127,-0.15839 0.183041,-0.16474 0.303219,-0.0696 0.122712,0.0973 0.146604,0.0908 0.328369,-0.091 0.187544,-0.18755 0.190189,-0.19953 0.06105,-0.27683 -0.130164,-0.0781 -0.127468,-0.0885 0.07566,-0.29146 0.201401,-0.20141 0.214458,-0.20499 0.297903,-0.0821 0.08275,0.12186 0.09746,0.11835 0.283649,-0.0679 0.18215,-0.18216 0.188773,-0.20598 0.09136,-0.32874 -0.09538,-0.12017 -0.08898,-0.14806 0.06937,-0.3032 0.156675,-0.15342 0.187695,-0.16035 0.304978,-0.0677 0.120572,0.0953 0.145612,0.0883 0.326612,-0.0927 0.187542,-0.18755 0.190187,-0.19952 0.06105,-0.27685 -0.116227,-0.0696 -0.120624,-0.0966 -0.03166,-0.19493 0.05683,-0.0627 0.134893,-0.15052 0.173464,-0.19504 0.0483,-0.0556 0.111327,-0.0483 0.202476,0.024 0.121848,0.0967 0.147293,0.09 0.320826,-0.0833 0.172105,-0.1721 0.17965,-0.19968 0.0868,-0.31747 -0.09125,-0.11576 -0.08397,-0.14669 0.07096,-0.30162 0.154933,-0.15493 0.185861,-0.16223 0.301622,-0.071 0.117807,0.0928 0.145346,0.0853 0.317674,-0.087 0.179031,-0.17905 0.182197,-0.19436 0.06188,-0.29927 -0.120838,-0.10535 -0.117659,-0.11971 0.0674,-0.30478 0.185066,-0.18507 0.199425,-0.18823 0.304777,-0.0674 0.105536,0.12104 0.119485,0.11788 0.307141,-0.0698 0.186415,-0.18641 0.189935,-0.20109 0.06806,-0.28386 -0.07069,-0.048 -0.113413,-0.10561 -0.09494,-0.12804 0.01847,-0.0226 0.104688,-0.11533 0.191584,-0.20645 0.140968,-0.14782 0.171913,-0.15473 0.286992,-0.0639 0.117808,0.0928 0.145346,0.0853 0.317672,-0.087 0.179034,-0.17904 0.1822,-0.19434 0.06188,-0.29924 -0.120833,-0.10535 -0.117659,-0.11972 0.06734,-0.30473 0.141914,-0.14193 0.212729,-0.17789 0.26317,-0.13368 0.03795,0.0332 0.09625,0.0817 0.129531,0.10783 0.0373,0.0293 0.127946,-0.0201 0.236246,-0.12834 0.166291,-0.1663 0.168601,-0.18136 0.04316,-0.28054 -0.127271,-0.10062 -0.124815,-0.11256 0.06164,-0.29903 0.179788,-0.17977 0.204039,-0.18642 0.326558,-0.0892 0.12206,0.0968 0.147128,0.0903 0.322623,-0.0852 0.182954,-0.18292 0.184786,-0.19273 0.04749,-0.25439 -0.181544,-0.0817 -0.179385,-0.1316 0.01402,-0.32501 0.173195,-0.17317 0.321965,-0.19881 0.444265,-0.0765 0.06635,0.0663 0.10597,0.0501 0.228151,-0.0943 0.127888,-0.15104 0.133361,-0.18932 0.04056,-0.28316 -0.09853,-0.0995 -0.09133,-0.12446 0.08691,-0.30271 0.180739,-0.18072 0.203579,-0.18673 0.32921,-0.0871 0.123852,0.0984 0.147011,0.093 0.280533,-0.0647 0.124709,-0.14735 0.129952,-0.18375 0.03661,-0.25436 -0.122655,-0.0929 -0.05176,-0.26571 0.186658,-0.45525 0.110062,-0.0876 0.164899,-0.0886 0.270402,-0.005 0.113846,0.0904 0.151778,0.0856 0.271443,-0.0339 0.123388,-0.12339 0.125501,-0.15234 0.01872,-0.25609 -0.116172,-0.11291 -0.112669,-0.12434 0.100491,-0.32769 0.203998,-0.19462 0.230604,-0.20307 0.348134,-0.11077 0.109767,0.0862 0.147629,0.0797 0.275451,-0.0483 0.128991,-0.129 0.134322,-0.16207 0.04111,-0.25528 -0.118927,-0.11893 -0.05482,-0.28325 0.184808,-0.47372 0.110066,-0.0876 0.164898,-0.0886 0.270405,-0.005 0.110835,0.0881 0.152916,0.0844 0.258951,-0.0218 0.106278,-0.10628 0.109285,-0.14392 0.01872,-0.2345 -0.09353,-0.0934 -0.08848,-0.12875 0.03775,-0.26434 0.08011,-0.0861 0.17723,-0.19286 0.215802,-0.23737 0.0483,-0.0556 0.111324,-0.0483 0.202475,0.0239 0.110058,0.0874 0.153177,0.0841 0.256086,-0.0186 0.102378,-0.10238 0.10593,-0.14626 0.02058,-0.25421 -0.108251,-0.1369 -0.112335,-0.12957 0.264596,-0.47486 0.124424,-0.11396 0.162616,-0.1179 0.25431,-0.026 0.0911,0.0911 0.128038,0.0878 0.237374,-0.0218 0.109337,-0.10933 0.112693,-0.14625 0.02158,-0.23739 -0.102014,-0.10199 -0.09494,-0.12084 0.129477,-0.34524 0.224423,-0.22444 0.24326,-0.2315 0.345267,-0.12948 0.0911,0.0911 0.12804,0.0878 0.237375,-0.0218 0.109335,-0.10933 0.112693,-0.14627 0.02158,-0.23737 -0.1031,-0.10313 -0.09641,-0.1194 0.151057,-0.36686 0.247442,-0.24743 0.263746,-0.25415 0.36685,-0.15105 0.0863,0.0863 0.129475,0.0863 0.215792,1e-5 0.0863,-0.0863 0.0863,-0.12949 0,-0.21581 -0.103102,-0.1031 -0.09639,-0.11941 0.151055,-0.36685 0.247445,-0.24744 0.263751,-0.25416 0.366852,-0.15106 0.0863,0.0863 0.129477,0.0863 0.215795,0 0.05934,-0.0595 0.09087,-0.12973 0.07015,-0.15645 -0.02077,-0.0265 -0.0596,-0.0752 -0.0863,-0.1079 -0.03177,-0.0388 0.04032,-0.15711 0.208338,-0.34192 0.251103,-0.27622 0.259365,-0.28011 0.366849,-0.17264 0.08853,0.0886 0.130995,0.0889 0.217853,0.002 0.0863,-0.0863 0.08631,-0.12949 10e-7,-0.2158 -0.103062,-0.10308 -0.09634,-0.11946 0.150233,-0.36602 0.239344,-0.23934 0.267946,-0.25227 0.393105,-0.17732 0.173401,0.10382 0.325334,-0.0326 0.20893,-0.18737 -0.07484,-0.0996 -0.05716,-0.13969 0.173574,-0.39348 0.251104,-0.27622 0.259369,-0.28012 0.366852,-0.17264 0.153154,0.15315 0.313384,-0.007 0.198682,-0.19843 -0.07836,-0.13086 -0.06908,-0.14935 0.195039,-0.38925 0.266575,-0.24214 0.282516,-0.24772 0.412451,-0.1445 0.17928,0.14239 0.294881,-0.0117 0.147872,-0.19691 -0.101867,-0.12846 -0.09734,-0.1393 0.170141,-0.40678 0.267481,-0.26747 0.278314,-0.27201 0.406776,-0.17014 0.07479,0.0595 0.16788,0.0802 0.214861,0.0482 0.06141,-0.042 0.04342,-0.11313 -0.06942,-0.27512 -0.08376,-0.12024 -0.210878,-0.26889 -0.28247,-0.33035 -0.07158,-0.0615 -0.146323,-0.18926 -0.166066,-0.28406 -0.04569,-0.21935 -0.04911,-0.22189 -0.189216,-0.13987 -0.111902,0.0654 -0.132053,0.0512 -0.446975,-0.31837 -0.181384,-0.21284 -0.485324,-0.5616 -0.67542,-0.77503 -0.254303,-0.28554 -0.353455,-0.43987 -0.375248,-0.58406 -0.01629,-0.1078 -0.08742,-0.28048 -0.15807,-0.38376 -0.157433,-0.23014 -0.117805,-0.3837 0.162514,-0.62971 l 0.214025,-0.18784 0.263462,0.15669 c 0.308488,0.18349 1.585371,1.55343 1.700177,1.82412 0.07979,0.18809 0.07443,0.18959 0.573697,-0.16076 0.426007,-0.29893 1.29998,-0.49697 1.389314,-0.31481 0.110235,0.2248 0.592491,0.70162 0.765241,0.75659 0.173168,0.055 1.173569,0.89374 2.157199,1.80824 0.307517,0.28594 0.652285,0.59177 0.766144,0.67969 l 0.207018,0.15983 0.899076,-0.89908 c 0.786247,-0.78626 0.893705,-0.91111 0.856299,-0.99512 -0.03296,-0.0739 2.3e-5,-0.12728 0.143864,-0.23221 0.292069,-0.2131 0.992892,-0.93861 1.032256,-1.06861 0.02058,-0.068 0.731671,-0.81342 1.691317,-1.77307 1.743885,-1.74388 1.851889,-1.83091 1.868134,-1.50527 0.0068,0.14125 0.02201,0.15082 0.243069,0.15556 0.209947,0.005 0.268791,0.0383 0.541139,0.31061 0.278323,0.27833 0.302257,0.32152 0.268376,0.48416 -0.04302,0.20653 4.6e-4,0.26911 0.186621,0.26911 0.268532,0 0.210919,0.11697 -0.373829,0.75907 -0.964693,1.05928 -2.796196,2.88501 -2.974444,2.96505 -0.08978,0.0405 -0.381424,0.29149 -0.648113,0.55817 -0.272586,0.27259 -0.523495,0.48489 -0.573077,0.4849 -0.05577,0 -0.398827,0.31926 -0.932733,0.868 l -0.844542,0.86798 0.341206,0.3218 c 0.303665,0.28638 0.336708,0.33668 0.300265,0.45703 -0.03488,0.11517 -0.0092,0.15927 0.172885,0.2975 0.176518,0.13394 0.21382,0.1942 0.213823,0.34523 5e-6,0.15415 -0.0514,0.23437 -0.326522,0.50947 -0.342418,0.34242 -0.540201,0.44678 -0.646067,0.34092 -0.106486,-0.10648 -0.196217,0.0559 -0.110235,0.1996 0.07004,0.11696 0.05689,0.15875 -0.09851,0.31312 -0.262748,0.26113 -0.413695,0.33222 -0.506882,0.23902 -0.120954,-0.12093 -0.269682,0.0563 -0.164599,0.19628 0.06095,0.0812 0.05348,0.14841 -0.02787,0.25071 -0.187047,0.23519 -0.438166,0.37531 -0.559747,0.31232 -0.156883,-0.0813 -0.241627,0.0305 -0.145223,0.19139 0.069,0.11523 0.05609,0.1597 -0.08817,0.30398 -0.217676,0.21768 -0.456791,0.32404 -0.540412,0.24042 -0.107849,-0.10783 -0.243995,0.0854 -0.149123,0.21174 0.06912,0.092 0.05459,0.14412 -0.08526,0.30587 -0.18765,0.217 -0.405654,0.30976 -0.501892,0.21352 -0.03859,-0.0386 -0.105074,-0.0215 -0.170608,0.0439 -0.08564,0.0856 -0.08564,0.12496 0,0.19422 0.0864,0.0701 0.08568,0.11413 -0.0042,0.22665 -0.191449,0.24073 -0.445249,0.3827 -0.530957,0.297 -0.103552,-0.10356 -0.161759,-0.0972 -0.23359,0.0252 -0.03306,0.0564 -0.02434,0.15034 0.01937,0.2086 0.156666,0.20876 -0.42457,0.68082 -0.609978,0.49541 -0.05861,-0.0587 -0.115811,-0.0591 -0.173704,-9.2e-4 -0.05318,0.0532 -0.05758,0.11557 -0.01144,0.16251 0.04122,0.0422 0.08497,0.12111 0.0973,0.17599 0.02202,0.098 -0.05838,0.14669 -0.792275,0.47942 -0.03789,0.017 -0.0414,0.0841 -0.0077,0.14905 0.05266,0.10162 0.02611,0.15278 -0.192868,0.37175 -0.320609,0.32059 -0.612601,0.76471 -0.624258,0.94947 -0.0049,0.0783 -0.02719,0.12516 -0.04945,0.10446 -0.02229,-0.0208 -0.03411,0.0352 -0.02618,0.12491 0.0077,0.0895 -0.0064,0.20951 -0.03228,0.26693 -0.02565,0.0575 -0.01895,0.13211 0.01487,0.16592 0.03381,0.0339 0.04217,0.10485 0.01856,0.15784 -0.02721,0.0611 -0.0036,0.11952 0.06531,0.15972 0.07011,0.0412 0.08693,0.0846 0.04753,0.12404 -0.03816,0.0382 -0.01436,0.10705 0.06415,0.18555 0.07476,0.0747 0.107746,0.1633 0.08221,0.22065 -0.02494,0.0558 -0.0049,0.1127 0.04868,0.13645 0.05172,0.0233 0.07421,0.0792 0.0519,0.12926 -0.02181,0.0491 0.01433,0.14235 0.08079,0.20881 0.07053,0.0706 0.102603,0.15985 0.07759,0.21602 -0.02634,0.0593 -0.005,0.1124 0.0548,0.13917 0.06022,0.0266 0.08792,0.0975 0.07249,0.1851 -0.01599,0.0909 0.01432,0.1647 0.08433,0.20568 0.07615,0.0444 0.0881,0.0851 0.03952,0.13375 -0.04481,0.0446 -0.03283,0.10671 0.03351,0.17306 0.0568,0.0568 0.08533,0.14358 0.06338,0.19286 -0.02195,0.0494 0.007,0.13666 0.06474,0.19421 0.05755,0.0576 0.08689,0.14449 0.06517,0.19321 -0.02399,0.0537 -5.54e-4,0.10589 0.05979,0.13277 0.06091,0.027 0.08711,0.0873 0.06778,0.15555 -0.0173,0.0613 0.0044,0.14687 0.04745,0.19024 0.04339,0.0434 0.07378,0.13382 0.06754,0.20097 -0.0059,0.0671 0.02568,0.13855 0.07093,0.1587 0.04523,0.0203 0.06452,0.0765 0.04282,0.12522 -0.0217,0.0488 0.0058,0.13408 0.06168,0.1897 0.05563,0.0555 0.08699,0.15125 0.06968,0.2125 -0.01729,0.0613 0.0081,0.12904 0.05675,0.15066 0.0485,0.0218 0.0829,0.10746 0.07646,0.19079 -0.0063,0.0842 0.02847,0.16944 0.07898,0.19192 0.0527,0.0236 0.07285,0.0806 0.04807,0.13619 -0.02346,0.0528 0.002,0.14018 0.05599,0.19446 0.05427,0.0541 0.07988,0.1408 0.05694,0.19233 -0.02777,0.0623 -0.0038,0.11351 0.07254,0.15292 0.07606,0.0395 0.100327,0.0906 0.07254,0.15291 -0.02295,0.0517 0.0029,0.13811 0.05693,0.19234 0.05425,0.0541 0.07988,0.14086 0.05692,0.19239 -0.02777,0.0624 -0.0038,0.11349 0.07254,0.15289 0.07605,0.0395 0.100322,0.0906 0.07254,0.15294 -0.02295,0.0516 0.0029,0.13807 0.05694,0.19235 0.05425,0.0541 0.07988,0.1408 0.05694,0.19234 -0.02778,0.0624 -0.0038,0.11352 0.07254,0.15292 0.07606,0.0395 0.100326,0.0906 0.07254,0.1529 -0.02296,0.0516 0.0029,0.1381 0.05694,0.19238 0.05426,0.0541 0.07947,0.14176 0.056,0.19444 -0.0239,0.0535 -0.0046,0.11289 0.04471,0.13467 0.04805,0.0216 0.08734,0.0993 0.08734,0.1731 0,0.0736 0.03876,0.15144 0.08613,0.17254 0.04737,0.0213 0.07924,0.0676 0.07081,0.10329 -0.0083,0.0355 0.102883,0.16625 0.247358,0.29014 0.289945,0.24864 0.334706,0.37851 0.182794,0.5304 -0.07706,0.0771 -0.07346,0.15486 0.01626,0.35058 0.06342,0.13835 0.318006,0.68976 0.565743,1.22534 0.247736,0.5356 0.563248,1.22031 0.701136,1.52154 0.137891,0.30125 0.363949,0.7938 0.502362,1.09453 0.138409,0.30072 0.685171,1.49218 1.215025,2.64766 0.942512,2.05543 1.531157,3.33107 2.033127,4.40592 0.137483,0.29439 0.297377,0.65887 0.355319,0.80996 0.05794,0.1511 0.149657,0.34673 0.203814,0.43473 0.05415,0.0881 0.102607,0.20463 0.107675,0.25916 -0.05668,0.21134 -0.374986,0.29057 -1.446128,0.86667 z m -16.232165,-4.14771 c 0.220276,-0.34989 0.322858,-0.8709 0.276886,-1.4063 -0.06025,-0.70176 -0.108653,-1.25045 -0.149156,-1.69103 -0.01989,-0.21628 -0.04368,-0.54207 -0.0529,-0.72395 -0.02528,-0.49914 -0.140063,-0.82864 -0.725391,-2.08209 -1.121114,-2.40082 -1.264705,-2.73459 -1.116506,-2.59516 0.0593,0.0557 0.06415,0.0511 0.0438,-0.0438 -0.02989,-0.13914 -0.08703,-0.19627 -0.107897,-0.1079 -0.0093,0.0395 -0.06325,0.0233 -0.123847,-0.0374 -0.124655,-0.12465 -0.329321,-0.13875 -0.493152,-0.0339 -0.06312,0.0405 -0.460652,0.40728 -0.883401,0.81534 l -0.768639,0.74191 -0.659232,0.29028 c -0.362577,0.15964 -0.82643,0.36272 -1.030782,0.45132 -0.714812,0.30989 -0.827621,0.5589 -0.540632,1.19333 0.155554,0.34389 0.83629,1.88793 1.479032,3.35476 0.209737,0.47864 0.565495,1.28817 0.790576,1.79896 0.225081,0.51077 0.469329,1.0681 0.542772,1.23849 0.12725,0.29524 0.266072,0.43339 0.480481,0.47817 0.0722,0.0148 1.047784,-0.38869 2.33243,-0.96529 0.251339,-0.11282 0.502893,-0.35369 0.70553,-0.67555 z m -20.758035,17.05666 c 0.04855,-0.1604 -0.0128,-0.28598 -1.658818,-3.39483 -0.708989,-1.33906 -0.75391,-1.40896 -0.915388,-1.42395 -0.120266,-0.0113 -0.213188,0.0731 -0.9463833,0.85838 -0.4471592,0.47893 -0.893968,0.97535 -0.9928982,1.10316 l -0.1798742,0.23237 0.396305,0.34755 c 0.2179669,0.19116 0.9752423,0.85033 1.6828307,1.46479 0.70759,0.61451 1.410862,1.24158 1.562829,1.39356 l 0.276306,0.2763 0.369688,-0.36969 c 0.203326,-0.20331 0.385757,-0.42277 0.405403,-0.48764 z m 18.336461,-26.67018 c -0.01957,-0.0753 -0.136129,-0.34726 -0.259028,-0.60413 -0.1229,-0.25692 -0.335093,-0.70976 -0.471547,-1.00632 -0.323465,-0.70301 -0.644424,-1.06442 -0.954778,-1.07501 -0.502644,-0.017 -0.585121,0.0383 -1.7571,1.18084 l -1.076508,1.04955 0.09249,0.19143 c 0.246652,0.51066 1.265016,1.45038 1.762804,1.62671 0.340221,0.12052 0.312761,0.2406 -0.08976,0.39254 -0.175142,0.0661 -0.322311,0.11633 -0.327049,0.11159 -0.0049,-0.005 -0.297437,-0.19688 -0.650445,-0.42699 -0.699272,-0.45582 -1.002322,-0.56079 -1.446471,-0.50098 -0.206801,0.0277 -0.270028,0.0592 -0.254321,0.12558 0.0115,0.0488 0.20732,0.49933 0.435157,1.00138 0.551032,1.21419 0.402573,1.18115 2.054274,0.45711 1.014768,-0.44483 1.201508,-0.58117 2.23627,-1.63265 0.692912,-0.70411 0.739268,-0.76259 0.706025,-0.89065 z"
       id="path4593"       
       sodipodi:nodetypes="cccsssscsccccscccccccsssccssccccccccccsscsccsscccccccsccccccccsscccccccccsscccscccscssccccscsscccccccccccccssccssscsscccscscsscssccccscscscscsccccscsccscscscssccscccccscccssccsscccsccsssssssssssssscccsssscccsccccsccccccccccccccccccccscccsccsccccscccccccssccsccccssccssccscsssccccsccccsccsscccsccccsscscccscccscccccscscscscscccsccccccsssccscccccccccscccsccccccscscccccscccccsscsccscccccccsccccsccc" />
  </g>
</svg>
