<?xml version="1.0" encoding="UTF-8" standalone="no"?>
<!-- Created with Inkscape (http://www.inkscape.org/) -->

<svg
   xmlns:dc="http://purl.org/dc/elements/1.1/"
   xmlns:cc="http://creativecommons.org/ns#"
   xmlns:rdf="http://www.w3.org/1999/02/22-rdf-syntax-ns#"
   xmlns:svg="http://www.w3.org/2000/svg"
   xmlns="http://www.w3.org/2000/svg"
   xmlns:sodipodi="http://sodipodi.sourceforge.net/DTD/sodipodi-0.dtd"
   xmlns:inkscape="http://www.inkscape.org/namespaces/inkscape"
   width="220"
   height="235"
   viewBox="0 0 58.208332 62.177085"
   version="1.1"
   id="svg8"
   inkscape:version="0.92.3 (2405546, 2018-03-11)"
   sodipodi:docname="vityaz-sn.svg">
  <defs
     id="defs2" />
  <sodipodi:namedview
     id="base"
     pagecolor="#000000"
     bordercolor="#666666"
     borderopacity="1.0"
     inkscape:pageopacity="0"
     inkscape:pageshadow="2"
     inkscape:zoom="1.4"
     inkscape:cx="213.558"
     inkscape:cy="-42.042915"
     inkscape:document-units="px"
     inkscape:current-layer="layer1"
     showgrid="false"
     units="px"
     inkscape:window-width="1590"
     inkscape:window-height="1226"
     inkscape:window-x="1802"
     inkscape:window-y="123"
     inkscape:window-maximized="0" />
  <metadata
     id="metadata5">
    <rdf:RDF>
      <cc:Work
         rdf:about="">
        <dc:format>image/svg+xml</dc:format>
        <dc:type
           rdf:resource="http://purl.org/dc/dcmitype/StillImage" />
        <dc:title></dc:title>
      </cc:Work>
    </rdf:RDF>
  </metadata>
  <g
     inkscape:label="Layer 1"
     inkscape:groupmode="layer"
     id="layer1"
     transform="translate(0,-234.8229)">
    <path
       style="fill:none;stroke:#ffffff;stroke-width:0.4;stroke-opacity:1;stroke-miterlimit:4;stroke-dasharray:none"
       d="m 51.885848,270.44399 c 0.294539,-0.50262 0.762546,-2.55281 0.739858,-3.24106 -0.01553,-0.47101 -0.246327,-0.6592 -1.002473,-0.81741 -0.267534,-0.056 -1.910921,-0.67948 -3.651971,-1.38556 -1.74105,-0.70607 -3.262242,-1.31028 -3.380426,-1.34268 -0.335185,-0.0919 -2.035715,-1.2525 -3.058898,-2.0877 -1.166976,-0.95255 -1.099288,-0.87412 -0.914119,-1.05929 0.244478,-0.24448 0.133881,-0.41889 -0.3437,-0.54204 -0.710743,-0.18327 -1.350941,-0.76997 -1.657661,-1.51913 -0.188494,-0.46039 -0.217916,-0.69005 -0.107389,-0.83829 0.08373,-0.11228 0.09993,-0.25645 0.036,-0.32038 -0.189747,-0.18974 0.614045,-0.92199 1.090442,-0.99339 0.762173,-0.11422 1.04916,-0.44573 1.464237,-1.69143 0.20678,-0.62058 0.526252,-1.34698 0.709932,-1.61426 0.183682,-0.26726 1.17021,-1.3648 2.192286,-2.43898 1.022084,-1.07417 2.169623,-2.29987 2.550108,-2.72377 0.380478,-0.4239 1.327945,-1.41425 2.105466,-2.2008 0.777521,-0.78656 1.443071,-1.52618 1.479003,-1.64362 0.03592,-0.11744 -0.03748,-0.39211 -0.163134,-0.61037 -0.193317,-0.33579 -0.195385,-0.47078 -0.01346,-0.87753 0.258239,-0.57735 0.306957,-0.63388 0.390691,-0.45326 0.162769,0.35109 0.452721,0.23444 1.218315,-0.49017 0.607982,-0.57544 0.743079,-0.7504 0.683209,-0.88481 -0.06177,-0.1387 0.147243,-0.38941 1.213837,-1.456 1.481302,-1.48131 1.484489,-1.49144 0.713974,-2.25774 -0.769293,-0.76499 -0.782842,-0.76092 -2.215851,0.67209 -0.994255,0.99426 -1.290565,1.24248 -1.463837,1.22639 -0.151219,-0.0141 -0.539741,-0.35415 -1.278116,-1.11877 -1.127517,-1.16763 -1.520289,-1.54953 -1.593661,-1.54945 -0.04634,3e-5 -0.867803,0.75629 -1.088547,1.00212 -0.08159,0.0908 -0.0055,0.34194 0.230023,0.75883 l 0.351964,0.62304 -0.482554,0.48256 c -0.385918,0.38591 -0.536374,0.47306 -0.751306,0.4352 -0.491216,-0.0865 -0.776955,0.16071 -5.338603,4.61934 -2.565409,2.50749 -3.15339,3.12391 -3.283108,3.4418 -0.139445,0.3418 -0.184006,0.38324 -0.379467,0.35289 -0.121798,-0.0189 -0.405363,0.1082 -0.630145,0.28246 -0.224799,0.17426 -0.535505,0.3255 -0.690495,0.33606 -0.24,0.0164 -0.469663,0.21529 -1.548472,1.34141 -0.917266,0.95751 -1.32722,1.32784 -1.486089,1.34263 -0.13325,0.0124 -0.32857,0.16336 -0.497393,0.38449 -0.190239,0.24921 -0.343647,0.35803 -0.486081,0.34477 -0.114452,-0.0106 -0.270411,0.043 -0.346576,0.11914 -0.107649,0.10765 -0.07625,0.18478 0.141047,0.34646 0.21482,0.15984 0.321498,0.166 0.460838,0.0266 0.09972,-0.0997 0.312238,-0.17478 0.472259,-0.1668 0.278512,0.0139 0.281225,0.0276 0.06346,0.32026 -0.134288,0.18047 -0.39995,0.36727 -0.648445,0.45593 -0.549341,0.19598 -1.851289,1.56363 -1.665443,1.74948 0.06375,0.0637 0.04278,0.18903 -0.0466,0.2784 -0.09028,0.0902 -0.216668,0.10833 -0.284378,0.0406 -0.07583,-0.0759 -0.19861,-0.0452 -0.325,0.0813 -0.126389,0.12639 -0.157084,0.24917 -0.08125,0.325 0.06771,0.0677 0.04966,0.1941 -0.04062,0.28438 -0.09028,0.0903 -0.216667,0.10833 -0.284377,0.0406 -0.07583,-0.0759 -0.198611,-0.0452 -0.325001,0.0813 -0.126389,0.1264 -0.157084,0.24917 -0.08125,0.325 0.06771,0.0677 0.04966,0.1941 -0.04062,0.28439 -0.09027,0.0903 -0.216667,0.10832 -0.284378,0.0406 -0.07583,-0.0759 -0.19861,-0.0452 -0.325,0.0813 -0.126389,0.12639 -0.157084,0.24917 -0.08125,0.32499 0.06834,0.0684 0.04937,0.19439 -0.04317,0.28694 -0.09078,0.0908 -0.240943,0.13125 -0.333697,0.09 -0.218246,-0.0972 -0.480965,0.16551 -0.383766,0.38377 0.09802,0.22009 -0.217813,0.53593 -0.376869,0.37687 -0.158553,-0.15856 -0.452095,0.13499 -0.354385,0.35438 0.09802,0.22009 -0.217813,0.53592 -0.376869,0.37686 -0.09655,-0.0966 -0.238271,-0.006 -0.681934,0.43819 -0.422878,0.42288 -0.541666,0.60137 -0.484954,0.7287 0.04131,0.0927 0.01912,0.22465 -0.04932,0.29308 -0.06844,0.0685 -0.179271,0.0695 -0.246303,0.003 -0.07437,-0.0744 -0.197644,-0.0461 -0.316307,0.0725 -0.106938,0.10695 -0.160636,0.27032 -0.119328,0.36309 0.04131,0.0927 0.01912,0.22463 -0.04932,0.29306 -0.06844,0.0685 -0.179271,0.0695 -0.246303,0.003 -0.08125,-0.0813 -0.203124,-0.0406 -0.365625,0.12188 -0.162501,0.1625 -0.203127,0.28438 -0.121878,0.36563 0.06704,0.067 0.06704,0.17672 2e-6,0.24376 -0.06704,0.067 -0.176722,0.067 -0.243752,-1e-5 -0.08125,-0.0813 -0.203125,-0.0406 -0.365627,0.12188 -0.162501,0.1625 -0.203127,0.28438 -0.121877,0.36563 0.06704,0.067 0.06704,0.17672 2e-6,0.24375 -0.06704,0.0671 -0.176722,0.0671 -0.243753,0 -0.08125,-0.0813 -0.203125,-0.0406 -0.365626,0.12187 -0.1625,0.1625 -0.203127,0.28438 -0.121876,0.36562 0.06704,0.0671 0.06704,0.17673 1e-6,0.24376 -0.06704,0.067 -0.176722,0.067 -0.243753,0 -0.10011,-0.10011 -0.265248,0.0215 -0.924735,0.68098 l -0.802861,0.80287 0.06721,0.49934 c 0.03697,0.27464 0.03744,0.52145 0.0011,0.54846 -0.299826,0.22258 -0.402695,0.58522 -0.491128,1.73133 -0.09938,1.28793 -0.161462,1.55013 -0.327671,1.38392 -0.150239,-0.15023 -0.401328,0.23542 -0.32259,0.49548 0.05748,0.18983 0.132343,0.2625 0.28508,0.2767 0.159267,0.0148 0.219874,0.0915 0.262275,0.33224 0.03033,0.17215 0.119716,0.37758 0.198637,0.45649 0.265411,0.26541 0.212176,0.72853 -0.122179,1.06288 -0.171965,0.17197 -0.556804,0.66667 -0.855193,1.09933 -0.298389,0.43267 -2.150108,2.61598 -4.114927,4.85181 -1.964818,2.23583 -4.5268309,5.15822 -5.6933582,6.49421 -1.1665279,1.33598 -2.470214,2.7619 -2.8970781,3.16869 -0.9119628,0.8691 -1.7232521,1.84026 -1.7232521,2.06285 0,0.1015 0.5932945,0.59697 1.6708609,1.39568 1.274376,0.94448 2.0935492,1.64466 3.4521871,2.95075 0.9797344,0.94184 1.9186964,1.81273 2.0865944,1.9353 0.294599,0.21509 0.318581,0.20947 0.686542,-0.16037 0.250855,-0.25208 0.430438,-0.56372 0.52496,-0.91075 0.165428,-0.60736 1.515877,-3.26409 4.839474,-9.52066 0.35627,-0.67067 1.211577,-2.31474 2.168754,-4.16878 1.14386,-2.21564 2.751747,-5.09694 2.858349,-5.12211 0.136167,-0.0322 0.936095,-1.53888 0.886049,-1.66896 -0.01863,-0.0484 0.07277,-0.19468 0.203108,-0.32503 0.184364,-0.18435 0.273785,-0.20017 0.402738,-0.0712 0.09116,0.0911 0.443853,0.15894 0.783751,0.15063 0.740169,-0.0181 1.393725,0.3088 1.701313,0.85104 0.174424,0.30748 1.531945,4.51969 2.047493,6.35309 0.21319,0.75815 0.385462,0.92385 0.913293,0.87839 0.481978,-0.0415 3.949206,-1.54714 4.245801,-1.84373 0.221819,-0.22182 0.557724,-0.85951 0.568119,-1.07852 0.0038,-0.0814 -0.287493,-0.42316 -0.647459,-0.7594 -0.600109,-0.56054 -0.709938,-0.73081 -1.321874,-2.04931 -0.367059,-0.79088 -1.067045,-2.28143 -1.555524,-3.31234 l -0.888138,-1.87438 0.303509,-0.35172 c 0.286991,-0.33262 0.324968,-0.34167 0.698692,-0.16644 0.756936,0.35489 0.879975,0.27369 2.470183,-1.63019 0.769293,-0.92103 1.454132,-1.79802 1.521861,-1.94884 0.08763,-0.19516 0.05408,-0.37519 -0.11637,-0.62436 -0.181258,-0.26497 -0.197007,-0.37178 -0.06475,-0.43912 0.09611,-0.0489 0.556933,-0.29182 1.024013,-0.53974 0.548934,-0.29136 0.877347,-0.4047 0.928729,-0.3205 0.307657,0.50421 0.454845,0.66898 0.530224,0.5936 0.0468,-0.0467 -0.0023,-0.25864 -0.109151,-0.47073 -0.135972,-0.26993 -0.144276,-0.4079 -0.02768,-0.45982 0.09161,-0.0408 0.272335,-0.17995 0.401597,-0.30921 0.296289,-0.29629 0.699893,-0.18095 1.45339,0.41536 0.670543,0.53065 2.693734,1.8749 3.452242,2.29372 0.308609,0.17041 0.707307,0.42284 0.885996,0.56097 0.178686,0.13812 0.727071,0.40439 1.218631,0.5917 0.491557,0.1873 1.357459,0.53497 1.924221,0.77258 0.566766,0.23762 1.777286,0.74554 2.690046,1.12872 0.91276,0.38319 1.828927,0.79404 2.035927,0.91301 0.460766,0.26482 0.573974,0.2174 0.929488,-0.38928 z m -40.782622,22.14027 c -0.01403,-0.008 -0.556308,-0.50807 -1.205102,-1.11053 -0.6487879,-0.60246 -1.5571701,-1.38416 -2.0186222,-1.73711 -0.4614491,-0.35294 -0.8667374,-0.69719 -0.9006409,-0.765 -0.033901,-0.0678 0.054575,-0.23862 0.196615,-0.3796 0.1421251,-0.1409 0.7879013,-0.8967 1.4352505,-1.67936 0.6473489,-0.78265 2.5101396,-2.94176 4.1395326,-4.798 1.629393,-1.85626 3.586392,-4.10397 4.348888,-4.99492 1.886264,-2.20404 2.118244,-2.43162 2.29709,-2.25354 0.07837,0.078 0.340402,0.18988 0.582295,0.24853 0.24189,0.0587 0.439411,0.12849 0.438931,0.15517 -0.0019,0.10759 -2.147102,4.17973 -4.502489,8.54696 -1.002053,1.85796 -2.426633,4.5284 -3.165728,5.93432 -1.186,2.25602 -1.553299,2.88819 -1.646026,2.83307 z m 19.967403,-22.46745 c -0.340109,-0.0406 -0.493782,-0.15697 -1.387153,-1.05035 -0.813128,-0.81313 -0.982705,-1.02664 -0.889443,-1.1199 0.06338,-0.0634 0.148482,-0.18988 0.189112,-0.28112 0.09223,-0.20709 0.758474,-0.004 1.097429,0.33561 0.496583,0.49658 1.380869,0.61836 2.025873,0.27899 0.345861,-0.18197 0.171543,-0.27592 -0.281242,-0.15159 -0.390942,0.10737 -1.050009,-0.0828 -1.359431,-0.3922 -0.09254,-0.0925 -0.178379,-0.4594 -0.190753,-0.81523 l -0.0225,-0.64698 1.00065,-1.09675 1.000648,-1.09677 1.128576,1.07597 c 0.916839,0.87412 1.12475,1.11712 1.1082,1.29522 -0.02115,0.22761 -1.579334,2.19026 -2.506305,3.15689 -0.485585,0.50634 -0.564033,0.54997 -0.913661,0.50821 z"
       id="path951"
       inkscape:connector-curvature="0" />
  </g>
</svg>
