<?xml version="1.0" encoding="UTF-8" standalone="no"?>
<!-- Created with Inkscape (http://www.inkscape.org/) -->

<svg
   xmlns:dc="http://purl.org/dc/elements/1.1/"
   xmlns:cc="http://creativecommons.org/ns#"
   xmlns:rdf="http://www.w3.org/1999/02/22-rdf-syntax-ns#"
   xmlns:svg="http://www.w3.org/2000/svg"
   xmlns="http://www.w3.org/2000/svg"
   xmlns:sodipodi="http://sodipodi.sourceforge.net/DTD/sodipodi-0.dtd"
   xmlns:inkscape="http://www.inkscape.org/namespaces/inkscape"
   width="220"
   height="235"
   viewBox="0 0 58.208332 62.177085"
   version="1.1"
   id="svg8"
   inkscape:version="0.92.3 (2405546, 2018-03-11)"
   sodipodi:docname="cap.svg">
  <defs
     id="defs2" />
  <sodipodi:namedview
     id="base"
     pagecolor="#000000"
     bordercolor="#666666"
     borderopacity="1.0"
     inkscape:pageopacity="0"
     inkscape:pageshadow="2"
     inkscape:zoom="2.8"
     inkscape:cx="150.32552"
     inkscape:cy="81.195949"
     inkscape:document-units="px"
     inkscape:current-layer="layer1"
     showgrid="false"
     units="px"
     inkscape:window-width="3440"
     inkscape:window-height="1377"
     inkscape:window-x="-8"
     inkscape:window-y="-8"
     inkscape:window-maximized="1" />
  <metadata
     id="metadata5">
    <rdf:RDF>
      <cc:Work
         rdf:about="">
        <dc:format>image/svg+xml</dc:format>
        <dc:type
           rdf:resource="http://purl.org/dc/dcmitype/StillImage" />
        <dc:title />
      </cc:Work>
    </rdf:RDF>
  </metadata>
  <g
     inkscape:label="Layer 1"
     inkscape:groupmode="layer"
     id="layer1"
     transform="translate(0,-234.8229)">
    <path
       style="fill:none;stroke:#ffffff;stroke-width:0.4;stroke-opacity:1;stroke-miterlimit:4;stroke-dasharray:none"
       d="m 26.061096,287.87614 c -2.932191,-0.32388 -4.402084,-0.64113 -6.041093,-1.30382 -2.712511,-1.09671 -4.721595,-2.48372 -6.992764,-4.82757 -1.267796,-1.30835 -1.798099,-1.92735 -2.400322,-2.8019 -0.266359,-0.38694 -0.7161317,-1.03943 -0.9993627,-1.45013 -0.5537531,-0.80293 -0.9388674,-1.44539 -1.2004125,-2.00259 -0.2103067,-0.44803 -0.7596467,-0.77725 -2.1030292,-1.26067 -1.1287122,-0.40612 -1.7694801,-0.80336 -2.4678417,-1.52993 -0.9729839,-1.01215 -1.039032,-1.11906 -1.2627683,-2.0433 -0.2014002,-0.83177 -0.2069621,-0.93535 -0.203524,-3.79423 0.00584,-4.87207 0.157251,-7.32583 0.5387907,-8.73193 0.1111602,-0.40964 0.2617262,-0.96824 0.3345912,-1.24132 0.4217292,-1.58044 1.5428987,-4.1667 2.1525093,-4.96527 2.037211,-2.66872 4.1895555,-4.19978 7.9588602,-5.66161 0.236652,-0.0919 0.813857,-0.3597 1.282707,-0.59538 1.553307,-0.7808 3.166958,-1.29652 4.907416,-1.56842 0.637208,-0.0995 1.326145,-0.21138 1.530956,-0.24853 0.204819,-0.0372 0.527144,-0.0698 0.716279,-0.0725 0.265424,-0.004 0.420522,-0.0689 0.679848,-0.28563 0.419943,-0.35085 0.997107,-0.50294 1.914063,-0.50438 0.804063,-9.7e-4 1.393083,0.21782 1.557832,0.57942 0.08054,0.17681 0.14911,0.2059 0.488564,0.20732 0.480914,0.002 0.993428,0.0779 2.711996,0.4015 3.252559,0.61246 4.452224,0.96573 7.075513,2.08358 1.813768,0.77286 2.410151,1.11224 3.853934,2.19296 0.952819,0.71326 2.688526,2.48819 3.048933,3.11789 0.08529,0.14908 0.220665,0.3455 0.30077,0.43654 0.239456,0.27211 1.212801,2.35594 1.391518,2.97917 0.591869,2.0639 0.681945,2.50228 0.814489,3.96357 0.150779,1.66248 0.196378,6.57346 0.0839,9.0355 l -0.06459,1.41343 0.685238,0.46349 c 0.376879,0.25494 1.132114,0.78323 1.678292,1.17403 0.546176,0.3908 1.271015,0.90096 1.610738,1.13375 1.947129,1.33415 4.02601,3.02773 5.07824,4.13698 1.406377,1.48261 1.828205,2.27443 1.824955,3.42576 -0.0016,0.57274 -0.03517,0.7276 -0.242127,1.11718 -0.28311,0.53293 -1.182407,1.44559 -1.700128,1.72538 -1.011307,0.54653 -1.245677,0.65908 -1.896039,0.91046 -0.386877,0.14954 -0.792254,0.30744 -0.900838,0.35088 -2.521914,1.00914 -8.747346,2.42598 -15.194941,3.45822 -1.126857,0.1804 -2.710849,0.37148 -4.179102,0.50414 -1.278604,0.11552 -5.558123,0.1679 -6.372108,0.078 z"
       id="path4526"
       inkscape:connector-curvature="0" />
  </g>
</svg>
