<?xml version="1.0" encoding="UTF-8" standalone="no"?>
<!-- Created with Inkscape (http://www.inkscape.org/) -->

<svg
   xmlns:dc="http://purl.org/dc/elements/1.1/"
   xmlns:cc="http://creativecommons.org/ns#"
   xmlns:rdf="http://www.w3.org/1999/02/22-rdf-syntax-ns#"
   xmlns:svg="http://www.w3.org/2000/svg"
   xmlns="http://www.w3.org/2000/svg"
   xmlns:sodipodi="http://sodipodi.sourceforge.net/DTD/sodipodi-0.dtd"   
   width="220"
   height="235"
   viewBox="0 0 58.208332 62.177085"
   version="1.1"
   id="svg8"   
   sodipodi:docname="retention-holster.svg" >
  <defs
     id="defs2" />
  <sodipodi:namedview
     id="base"
     pagecolor="#000000"
     bordercolor="#666666"
     borderopacity="1.0"
     showgrid="false"
     units="px" />
  <metadata
     id="metadata5">
    <rdf:RDF>
      <cc:Work
         rdf:about="">
        <dc:format>image/svg+xml</dc:format>
        <dc:type
           rdf:resource="http://purl.org/dc/dcmitype/StillImage" />
        <dc:title></dc:title>
      </cc:Work>
    </rdf:RDF>
  </metadata>
  <g
     id="layer1"
     transform="translate(0,-234.8229)">
    <path
       style="fill:none;stroke:#ffffff;stroke-width:0.4;stroke-opacity:1;stroke-miterlimit:4;stroke-dasharray:none"
       d="m 24.791068,295.16014 c -2.400749,-0.0239 -4.412811,-0.0742 -4.47125,-0.11186 -0.140914,-0.0909 -0.08082,-0.89156 0.07429,-0.98975 0.06045,-0.0383 0.07484,-0.069 0.03196,-0.0683 -0.119843,0.002 -0.350758,0.19764 -0.350758,0.29721 0,0.0489 -0.03715,0.0888 -0.08255,0.0888 -0.0454,0 -0.06087,0.0351 -0.03437,0.0779 0.0265,0.0429 0.03733,0.0801 0.02409,0.0828 -0.01325,0.003 -0.175455,0.0222 -0.36046,0.0434 -0.330958,0.0379 -0.334832,0.0356 -0.240594,-0.14125 0.05268,-0.0989 0.151433,-0.22251 0.219454,-0.27474 0.109584,-0.0841 0.105667,-0.0952 -0.03438,-0.0974 -0.08693,-0.001 -0.226759,-0.0814 -0.310728,-0.17786 -0.128962,-0.14814 -0.151355,-0.28433 -0.144195,-0.8769 0.102365,-8.47102 0.118935,-14.32015 0.04043,-14.27164 -0.06054,0.0374 -0.09,-0.0224 -0.09,-0.18281 0,-0.13114 -0.01313,-0.23844 -0.02917,-0.23844 -0.01605,0 -0.182656,0.0553 -0.370246,0.12295 -1.401599,0.50528 -3.669026,0.71357 -5.13801,0.47199 -1.903892,-0.3131 -3.5972597,-1.19929 -4.8275387,-2.5264 -1.622706,-1.75043 -2.114377,-4.24279 -1.355078,-6.8691 0.106526,-0.36846 0.485758,-1.28376 0.842738,-2.03399 1.456104,-3.06017 2.4044427,-5.79065 3.0388037,-8.74941 0.04086,-0.19058 -0.07546,-0.24255 -0.665645,-0.29743 -0.283787,-0.0264 -0.6779987,-0.12693 -0.8788117,-0.22414 -0.46772,-0.22642 -1.022166,-0.73709 -0.941676,-0.86733 0.03757,-0.0608 0.02781,-0.077 -0.02628,-0.0436 -0.04734,0.0293 -0.122914,-0.0156 -0.167936,-0.0998 -0.09895,-0.18489 -0.107573,-0.3245 -0.01058,-0.17133 0.0394,0.0622 0.124601,0.0874 0.199047,0.0589 0.148525,-0.057 0.102927,-0.31049 -0.09676,-0.53788 -0.06588,-0.075 -0.09502,-0.13641 -0.06476,-0.13641 0.03026,0 -0.03746,-0.12125 -0.150494,-0.26944 -0.113033,-0.1482 -0.1829,-0.30604 -0.155259,-0.35076 0.02764,-0.0447 -0.0072,-0.0813 -0.07746,-0.0813 -0.102489,0 -0.117146,-0.0481 -0.07421,-0.24359 0.03551,-0.16169 0.02608,-0.22664 -0.02806,-0.19318 -0.0449,0.0277 -0.08238,-0.0117 -0.08339,-0.0877 -0.0221,-1.67326 0.01132,-8.29843 0.04257,-8.43938 0.31535,-1.42228 1.287938,-2.40082 2.5334737,-2.54896 0.1992,-0.0237 0.40505,-0.0696 0.457445,-0.10195 0.07398,-0.0457 0.05487,-0.38541 -0.0855,-1.52008 l -0.180761,-1.4612 0.184469,-0.14937 c 0.14263,-0.1155 0.283027,-0.14416 0.619017,-0.12639 0.386832,0.0205 0.445788,0.0465 0.536917,0.23735 0.0563,0.11789 0.161837,0.21418 0.234522,0.21396 0.07268,-2.3e-4 1.297731,-0.22706 2.722326,-0.5041 3.041366,-0.59146 4.405787,-0.83471 5.927187,-1.05671 l 1.112454,-0.16232 1.186965,-0.61345 c 1.910628,-0.98745 3.620104,-1.50186 5.847579,-1.75962 1.577116,-0.18251 6.510295,-0.12728 7.169364,0.0803 0.423238,0.13327 0.473255,0.13406 0.846874,0.0134 0.745026,-0.24062 1.033434,-0.13478 1.24774,0.45787 0.144151,0.39865 0.722901,0.66085 1.460034,0.66147 0.87815,5.9e-4 1.278395,0.17609 1.386676,0.60751 0.08304,0.33087 -0.09251,1.33 -0.277699,1.58048 -0.162085,0.21924 -0.163833,0.27021 -0.163833,4.78002 0,2.71571 0.02921,4.57647 0.07226,4.60308 0.03974,0.0246 0.114918,0.1757 0.167054,0.33587 0.16672,0.51217 1.351885,2.90607 1.977175,3.99367 1.578214,2.74507 3.32807,5.08459 5.567691,7.44388 0.447657,0.47157 1.013606,1.12504 1.257661,1.45214 2.648324,3.54947 2.329304,7.53706 -0.791099,9.88835 -1.660734,1.25141 -3.81257,1.8658 -6.185162,1.766 -0.600187,-0.0253 -1.275398,-0.0694 -1.500468,-0.098 l -0.409219,-0.0521 -8.25e-4,4.78507 c -4.71e-4,2.63179 0.03927,7.05581 0.08828,9.83115 0.09495,5.37698 0.09994,5.28034 -0.272379,5.28302 -0.132705,8.8e-4 -0.142914,0.0157 -0.0511,0.0738 0.101016,0.0639 0.101016,0.0778 0,0.11633 -0.244532,0.0933 -0.738616,0.082 -0.718819,-0.0164 0.02338,-0.11625 -0.07525,-0.12686 -0.182481,-0.0196 -0.04249,0.0425 -0.444109,0.0913 -0.892486,0.10849 -0.448378,0.0172 -0.920461,0.0529 -1.049072,0.0794 -0.128612,0.0265 -0.804339,0.10046 -1.501615,0.16433 -1.337131,0.12249 -2.951049,0.12841 -11.59338,0.0426 z"
       id="path1135"
       
       sodipodi:nodetypes="ccccsscccscccccssccscccccscccccsccsccscccsccccccscscccccccscccscscsccscccccscccc" />
  </g>
</svg>
