<?xml version="1.0" encoding="UTF-8" standalone="no"?>
<!-- Created with Inkscape (http://www.inkscape.org/) -->

<svg
   xmlns:dc="http://purl.org/dc/elements/1.1/"
   xmlns:cc="http://creativecommons.org/ns#"
   xmlns:rdf="http://www.w3.org/1999/02/22-rdf-syntax-ns#"
   xmlns:svg="http://www.w3.org/2000/svg"
   xmlns="http://www.w3.org/2000/svg"
   xmlns:sodipodi="http://sodipodi.sourceforge.net/DTD/sodipodi-0.dtd"   
   width="220"
   height="235"
   viewBox="0 0 58.208332 62.177085"
   version="1.1"
   id="svg8"   
   sodipodi:docname="scabbard.svg" >
  <defs
     id="defs2" />
  <sodipodi:namedview
     id="base"
     pagecolor="#000000"
     bordercolor="#666666"
     borderopacity="1.0"
     showgrid="false"
     units="px" />
  <metadata
     id="metadata5">
    <rdf:RDF>
      <cc:Work
         rdf:about="">
        <dc:format>image/svg+xml</dc:format>
        <dc:type
           rdf:resource="http://purl.org/dc/dcmitype/StillImage" />
        <dc:title></dc:title>
      </cc:Work>
    </rdf:RDF>
  </metadata>
  <g 
     id="layer1"
     transform="translate(0,-234.8229)">
    <path
       style="fill:none;stroke:#ffffff;stroke-width:0.4;stroke-miterlimit:4;stroke-dasharray:none;stroke-opacity:1"
       d="m 22.864782,294.86779 c -0.60515,-0.1273 -1.97799,-0.51933 -3.050756,-0.87116 -3.046409,-0.99912 -3.336451,-1.07376 -4.031195,-1.03726 -0.88086,0.0463 -1.547662,-0.14866 -2.129695,-0.62258 -0.651595,-0.53056 -0.723504,-0.66705 -0.461793,-0.87654 l 0.208243,-0.16668 -0.243634,-0.47573 c -0.133999,-0.26164 -0.243635,-0.55577 -0.243635,-0.65361 0,-0.0997 -0.05501,-0.15873 -0.125031,-0.13434 -0.06877,0.024 -0.208881,-0.0194 -0.311364,-0.0963 -0.150427,-0.11291 -0.25196,-0.56492 -0.526886,-2.34554 -0.187303,-1.21313 -0.674814,-4.31918 -1.083356,-6.90235 -0.840262,-5.31286 -0.9568279,-6.10134 -1.3009949,-8.80008 -0.135238,-1.06045 -0.316363,-2.38634 -0.402498,-2.94641 -0.08613,-0.56008 -0.130148,-1.06064 -0.09781,-1.11237 0.03234,-0.0518 0.141764,-0.094 0.243163,-0.094 0.11366,0 0.223283,-0.11037 0.285854,-0.2878 0.071,-0.20134 0.351891,-0.45108 0.9350139,-0.83131 1.45804,-0.95075 4.270938,-3.49808 5.991441,-5.42581 2.473143,-2.77103 4.840481,-5.28441 7.067809,-7.50387 l 2.439346,-2.43074 0.0526,-1.77155 c 0.05549,-1.86889 -0.04766,-3.42953 -0.296202,-4.4814 -0.08232,-0.34839 -0.128032,-0.68918 -0.101584,-0.75732 0.02645,-0.0682 0.303658,-0.32285 0.616019,-0.56601 0.732214,-0.57004 1.938603,-1.7979 2.691979,-2.73991 0.326195,-0.40787 0.996821,-1.11978 1.490281,-1.58204 1.033673,-0.9683 2.148686,-1.58864 3.287377,-1.82895 0.627309,-0.13237 3.990417,-0.52202 7.32705,-0.84889 1.298211,-0.12718 2.656028,-0.0787 3.208903,0.11449 0.274827,0.096 0.322041,0.15342 0.268635,0.32645 -0.126352,0.40937 -0.17384,1.50031 -0.08016,1.8414 0.06052,0.22033 0.0594,0.64393 -0.0031,1.16587 -0.118829,0.99279 -0.01639,1.2697 0.505486,1.36648 0.188091,0.0348 0.366814,0.12739 0.397167,0.20558 0.147795,0.38074 -0.460193,4.02775 -0.977643,5.86439 -0.160876,0.57101 -0.292797,1.26291 -0.293158,1.53754 -4.15e-4,0.27462 -0.04841,0.54652 -0.106765,0.60422 -0.108098,0.10686 -0.151295,4.31128 -0.04603,4.47966 0.02878,0.046 0.28372,0.11515 0.566522,0.1536 l 0.514185,0.0699 -0.06293,0.85397 c -0.09028,1.22516 -0.607615,4.16244 -0.916665,5.20457 -0.238348,0.80372 -0.272828,1.13404 -0.35608,3.41126 -0.0507,1.38676 -0.117743,2.64056 -0.148993,2.78625 -0.0533,0.24847 -0.02234,0.27561 0.50002,0.43838 l 0.556837,0.17351 -0.05612,0.45151 c -0.298424,2.40115 -0.844556,4.96161 -1.288817,6.0424 -0.228257,0.55529 -0.25115,0.76448 -0.305835,2.79459 -0.03251,1.20692 -0.0798,2.32914 -0.105087,2.49383 -0.04322,0.28143 -0.01538,0.31115 0.462881,0.49438 0.27987,0.10723 0.557031,0.25225 0.615909,0.32228 0.139268,0.16566 0.03465,2.5237 -0.17342,3.90892 -0.136174,0.90656 -0.244682,1.34844 -0.676765,2.75602 -0.08911,0.29027 -0.06714,0.74697 0.107021,2.22474 0.120528,1.02271 0.248723,2.1487 0.284879,2.50219 0.04038,0.39485 0.140413,0.74262 0.259389,0.90182 0.284996,0.38136 0.327379,0.8912 0.09742,1.17193 l -0.189184,0.23095 -3.567363,-0.11782 c -3.916368,-0.12933 -8.317479,-0.36411 -8.460183,-0.45129 -0.05,-0.0305 -0.248959,0.22274 -0.442132,0.56287 -0.193171,0.34013 -0.501148,0.76113 -0.68439,0.93556 -0.604931,0.57583 -0.90666,0.62345 -3.870873,0.61094 -2.385666,-0.0101 -2.777702,-0.0353 -3.763357,-0.24271 z m 5.928321,-0.59804 c 0.803109,-0.26013 1.330948,-0.55858 1.922872,-1.0872 l 0.392041,-0.35013 -0.568625,-0.29568 c -1.44117,-0.7494 -2.454495,-1.89364 -2.97941,-3.36434 -0.446322,-1.25049 -0.790846,-6.54341 -0.890311,-13.67778 -0.06719,-4.81964 -0.139474,-7.14815 -0.256288,-8.25625 -0.108573,-1.02993 -0.202176,-3.91387 -0.285018,-8.78165 l -0.06279,-3.68946 -1.350334,0.9252 c -3.449262,2.36331 -3.715053,2.56548 -7.323164,5.57005 -1.057503,0.88061 -1.802263,1.81489 -3.398154,4.26289 -0.312841,0.47988 -0.868339,1.20109 -1.234439,1.60267 -0.683385,0.74963 -0.712057,0.89613 -0.176102,0.89981 0.280827,0.002 0.376922,0.34323 0.527062,1.87204 0.06098,0.62091 0.132333,1.16326 0.158564,1.20523 0.02623,0.042 0.113594,0.6332 0.194141,1.31387 0.08055,0.68067 0.306011,2.31856 0.501033,3.63975 0.195021,1.32119 0.418401,2.86936 0.496401,3.44037 0.078,0.57102 0.276987,1.90586 0.442195,2.96632 0.165209,1.06046 0.37116,2.48429 0.457668,3.16407 0.08651,0.67978 0.251534,1.73871 0.366723,2.35318 0.115187,0.61446 0.186392,1.13999 0.158233,1.16782 -0.02816,0.0278 0.143937,0.41499 0.382437,0.86033 0.300119,0.56041 0.501833,0.82565 0.655118,0.86141 0.182451,0.0426 0.308162,0.1734 0.456202,0.47474 0.0087,0.0176 0.240294,-0.0468 0.514749,-0.14316 l 0.499008,-0.1752 0.335463,0.26969 c 0.184503,0.14832 0.605529,0.49313 0.93561,0.76624 0.97508,0.80679 1.564993,1.03202 4.766738,1.82003 3.17578,0.7816 3.146352,0.77901 4.362376,0.38514 z"
       id="path1148" />       
  </g>
</svg>
