<?xml version="1.0" encoding="UTF-8" standalone="no"?>
<!-- Created with Inkscape (http://www.inkscape.org/) -->

<svg
   xmlns:dc="http://purl.org/dc/elements/1.1/"
   xmlns:cc="http://creativecommons.org/ns#"
   xmlns:rdf="http://www.w3.org/1999/02/22-rdf-syntax-ns#"
   xmlns:svg="http://www.w3.org/2000/svg"
   xmlns="http://www.w3.org/2000/svg"
   xmlns:sodipodi="http://sodipodi.sourceforge.net/DTD/sodipodi-0.dtd"   
   width="220"
   height="235"
   viewBox="0 0 58.208332 62.177085"
   version="1.1"
   id="svg8"
   sodipodi:docname="claymore.svg" >
  <defs
     id="defs2" />
  <sodipodi:namedview
     id="base"
     pagecolor="#000000"
     bordercolor="#666666"
     borderopacity="1.0"     
     showgrid="false"
     units="px" />
  <metadata
     id="metadata5">
    <rdf:RDF>
      <cc:Work
         rdf:about="">
        <dc:format>image/svg+xml</dc:format>
        <dc:type
           rdf:resource="http://purl.org/dc/dcmitype/StillImage" />
        <dc:title></dc:title>
      </cc:Work>
    </rdf:RDF>
  </metadata>
  <g
     id="layer1"
     transform="translate(0,-234.8229)">
    <path
       style="fill:none;stroke:#ffffff;stroke-width:0.4;stroke-opacity:1;stroke-miterlimit:4;stroke-dasharray:none"
       d="m 18.998683,287.76891 c -0.307835,-0.0683 -0.454915,-0.19078 -0.440663,-0.36682 0.01176,-0.14533 -0.02289,-0.26396 -0.07701,-0.26361 -0.05412,3.1e-4 -1.207332,0.10349 -2.562692,0.2292 -1.355361,0.12572 -2.550928,0.22941 -2.656815,0.2304 -0.304861,0.003 -0.224853,-0.31793 0.170711,-0.68453 0.324959,-0.30116 0.70226,-0.36596 3.580923,-0.61499 1.76973,-0.1531 3.282399,-0.31608 3.361486,-0.36217 0.07909,-0.0461 0.0098,-0.1363 -0.154019,-0.20044 -0.241551,-0.0946 -0.210524,-0.11913 0.164242,-0.12981 0.25413,-0.007 0.557039,-0.0733 0.673134,-0.1469 0.479699,-0.30388 -0.622179,-0.31479 -8.643578,-0.0856 -2.399881,0.0685 -3.6579325,0.0517 -3.6579325,-0.0491 0,-0.0845 0.1035358,-0.35217 0.230079,-0.5948 0.1622475,-0.31111 0.2303574,-0.92928 0.2310274,-2.09686 4.616e-4,-0.91064 -0.01638,-1.65761 -0.037558,-1.65997 -0.021177,-0.002 -1.3707392,-0.10283 -2.9990263,-0.22329 -1.6282866,-0.12046 -3.084534,-0.28539 -3.236106,-0.36651 -0.7642702,-0.40902 -0.8851065,-0.74107 -0.8961264,-2.46252 -0.093591,-14.62007 -0.061454,-24.23916 0.081877,-24.50697 0.389455,-0.72771 0.7504345,-0.77579 5.8241333,-0.77579 2.6170395,0 5.4967725,-0.0452 6.3994055,-0.10042 l 1.64115,-0.10041 v -1.25788 -1.25788 l 1.347661,-1.31536 c 0.741212,-0.72344 1.569467,-1.42907 1.840569,-1.56805 0.405743,-0.20801 1.00886,-0.25269 3.410427,-0.25269 2.508254,0 2.930525,-0.0339 3.010247,-0.24166 0.06075,-0.15828 0.196818,-0.2086 0.394503,-0.14586 0.170404,0.0541 0.467225,-0.0126 0.681838,-0.15325 0.364709,-0.23896 0.382475,-0.23462 0.439765,0.10737 0.03284,0.19601 0.11562,-0.11144 0.183964,-0.68324 0.107762,-0.90158 0.165812,-1.03962 0.437182,-1.03962 0.296763,0 0.308131,0.0656 0.220133,1.27065 -0.08529,1.16796 -0.0757,1.23118 0.118655,0.78222 0.284516,-0.65722 0.766186,-0.90953 1.285019,-0.67314 0.277163,0.12628 1.017759,0.14759 2.505513,0.072 2.365963,-0.1201 2.914749,-0.0478 2.914749,0.38358 0,0.26356 0.188569,0.29942 2.117244,0.40272 l 2.117243,0.1134 1.560468,1.48107 1.560469,1.48106 0.01872,1.34068 0.01872,1.34068 0.500559,0.0775 c 0.275308,0.0427 3.134271,0.12059 6.353253,0.17326 6.364877,0.10413 6.555435,0.13164 6.945796,1.00311 0.120794,0.26968 0.134203,2.70541 0.04701,8.54024 -0.06708,4.48964 -0.150221,10.26506 -0.184743,12.83427 l -0.06277,4.6713 -0.392446,0.39245 c -0.428227,0.42822 -0.989557,0.51135 -5.005198,0.74124 -2.171043,0.12427 -1.983948,-0.0997 -1.734013,2.0762 0.102112,0.88899 0.229658,1.36721 0.39741,1.49005 0.135871,0.0995 0.222749,0.30742 0.193063,0.46206 -0.04877,0.25406 -0.573286,0.32964 -5.442676,0.78425 -2.963787,0.27671 -6.359017,0.56734 -7.544957,0.64585 -1.185941,0.0785 -2.468143,0.18269 -2.849338,0.23152 -1.354358,0.17348 -12.976038,1.16053 -13.453286,1.14262 -0.266952,-0.0101 -0.693289,-0.0644 -0.947419,-0.12082 z m 7.673003,-2.32703 c 2.81078,-0.25509 5.249127,-0.49385 5.418547,-0.53055 0.395913,-0.0858 -5.917397,0.0476 -8.23996,0.17421 -1.102734,0.06 -1.829327,0.16768 -1.925227,0.28515 -0.08472,0.10378 -0.292651,0.26451 -0.462071,0.35717 -0.419397,0.22939 -0.546732,0.23638 5.208711,-0.28598 z m 15.583751,-0.55751 c 1.926754,-0.16161 3.159944,-0.33112 3.292856,-0.45259 0.145956,-0.13339 0.175975,-0.3309 0.09587,-0.63079 -0.06415,-0.24012 -0.106398,-0.78312 -0.0939,-1.20667 0.01249,-0.42356 -0.03773,-0.86158 -0.111627,-0.9734 -0.107629,-0.16288 -0.690261,-0.18138 -2.929424,-0.093 l -2.795075,0.11034 -3.08e-4,0.40102 -3.09e-4,0.40102 2.217228,-0.0462 c 2.161375,-0.0451 2.227335,-0.0369 2.61855,0.3257 0.220726,0.20457 0.401322,0.44265 0.401322,0.52906 0,0.0969 -1.069756,0.20054 -2.790077,0.27033 -1.534543,0.0623 -2.702683,0.16719 -2.595867,0.23321 0.31104,0.19223 0.05703,0.57514 -0.456342,0.68789 -0.519435,0.11408 -0.511963,0.10518 -0.378974,0.45175 0.115309,0.30049 -0.154042,0.30106 3.52594,-0.008 z m -23.21825,-0.84424 c 0.202786,-0.0756 0.346542,-0.2584 0.346542,-0.44089 0,-0.21748 0.104855,-0.31514 0.346541,-0.32274 0.190597,-0.006 0.797044,-0.0357 1.347659,-0.0661 0.550615,-0.0304 1.763509,-0.0739 2.69532,-0.0967 1.415638,-0.0347 1.509256,-0.0503 0.569383,-0.0948 -1.034933,-0.0491 -1.11718,-0.0774 -1.029243,-0.35444 0.05409,-0.17044 0.02422,-0.30113 -0.06882,-0.30113 -0.09042,0 -0.164398,0.0975 -0.164398,0.21678 0,0.26158 -1.019562,0.34668 -3.232923,0.26983 l -1.510851,-0.0524 -0.101841,-0.67913 -0.101843,-0.67913 h -1.352771 c -0.744022,0 -2.091285,-0.0452 -2.993919,-0.10041 l -1.64115,-0.10047 v 1.40191 c 0,1.14571 0.0467,1.42805 0.255508,1.54491 0.304926,0.17065 6.130948,0.0433 6.636807,-0.14504 z"
       id="path1109"       
       sodipodi:nodetypes="ccccccccccccscccscscsccccccsccccssscccscccccccccssccssccscccccsccccscccccccccscsccsccccscccccssccccsccsccc" />
  </g>
</svg>
