<?xml version="1.0" encoding="UTF-8" standalone="no"?>
<!-- Created with Inkscape (http://www.inkscape.org/) -->

<svg
   xmlns:dc="http://purl.org/dc/elements/1.1/"
   xmlns:cc="http://creativecommons.org/ns#"
   xmlns:rdf="http://www.w3.org/1999/02/22-rdf-syntax-ns#"
   xmlns:svg="http://www.w3.org/2000/svg"
   xmlns="http://www.w3.org/2000/svg"
   xmlns:sodipodi="http://sodipodi.sourceforge.net/DTD/sodipodi-0.dtd"   
   width="220"
   height="235"
   viewBox="0 0 58.208332 62.177085"
   version="1.1"
   id="svg8"   
   sodipodi:docname="storm-360.svg" >
  <defs
     id="defs2" />
  <sodipodi:namedview
     id="base"
     pagecolor="#000000"
     bordercolor="#666666"
     borderopacity="1.0"
     showgrid="false"
     units="px" />
  <metadata
     id="metadata5">
    <rdf:RDF>
      <cc:Work
         rdf:about="">
        <dc:format>image/svg+xml</dc:format>
        <dc:type
           rdf:resource="http://purl.org/dc/dcmitype/StillImage" />
        <dc:title></dc:title>
      </cc:Work>
    </rdf:RDF>
  </metadata>
  <g     
     id="layer1"
     transform="translate(0,-234.8229)">
    <path
       style="fill:none;stroke:#ffffff;stroke-width:0.4;stroke-opacity:1;stroke-miterlimit:4;stroke-dasharray:none"
       d="m 28.236147,293.75655 c -0.04295,-0.0383 -1.056614,-0.12578 -2.252595,-0.19435 -2.243064,-0.12858 -2.75382,-0.18735 -3.26177,-0.37527 -0.163088,-0.0604 -0.429959,-0.11029 -0.593048,-0.11103 -1.111325,-0.005 -3.990009,-0.74453 -5.868547,-1.50767 -0.590957,-0.24007 -0.794712,-0.42203 -0.712506,-0.63625 0.06333,-0.165 -0.009,-0.37728 -0.160781,-0.47172 -0.229632,-0.14291 -0.232558,-0.24162 -0.01746,-0.58857 0.186349,-0.3006 0.199184,-0.48832 0.046,-0.67288 -0.116844,-0.14079 -0.156912,-0.40069 -0.08904,-0.57756 0.08241,-0.21477 0.01789,-0.32158 -0.194271,-0.32158 -0.174721,0 -0.317674,-0.089 -0.317674,-0.19769 0,-0.10872 -0.132441,-0.19768 -0.294311,-0.19768 -0.181291,0 -0.284112,-0.17081 -0.267752,-0.44478 0.01461,-0.24464 -0.03179,-0.80062 -0.103092,-1.23552 -0.118367,-0.7219 -0.09699,-0.69888 0.245577,0.26446 0.206377,0.58036 0.467951,1.14792 0.581278,1.26125 0.113326,0.11333 -0.05234,-0.53942 -0.368149,-1.45057 -0.322244,-0.9297 -0.489183,-1.68569 -0.380453,-1.72287 0.106556,-0.0365 0.01532,-0.29307 -0.202725,-0.57028 -0.218057,-0.27722 -0.396467,-0.62976 -0.396467,-0.78345 0,-0.15367 -0.170021,-0.63132 -0.377825,-1.06143 -0.207804,-0.43009 -0.299923,-0.73384 -0.20471,-0.67501 0.09521,0.0588 0.05167,-0.18542 -0.09675,-0.54281 -0.14843,-0.35738 -0.333326,-1.24819 -0.410881,-1.9796 -0.105997,-0.99964 -0.258119,-1.45618 -0.612673,-1.83874 -0.522503,-0.5638 -0.670189,-2.00627 -0.222979,-2.17788 0.190819,-0.0733 0.215738,-0.58926 0.107094,-2.21774 -0.200325,-3.00258 -0.226042,-4.93196 -0.08099,-6.07595 0.422537,-3.33236 0.450655,-3.76879 0.258527,-4.01263 -0.397228,-0.50415 -0.261269,-1.42457 0.281919,-1.90854 0.356051,-0.31724 0.50099,-0.62364 0.462194,-0.97705 -0.03109,-0.28318 0.01679,-0.51488 0.106384,-0.51488 0.08959,0 0.22217,-0.37808 0.294613,-0.84015 0.338441,-2.15883 1.4898,-5.28803 1.945674,-5.28803 0.18665,0 0.263949,-0.2564 0.253294,-0.84015 -0.01044,-0.57365 0.18375,-1.23496 0.612309,-2.08482 l 0.627643,-1.24468 -0.49959,-0.18994 c -0.274776,-0.10445 -0.594829,-0.13108 -0.71123,-0.0591 -0.125203,0.0773 -0.154032,0.0375 -0.07058,-0.0975 0.08358,-0.13525 0.01548,-0.22824 -0.167139,-0.22824 -0.169505,0 -0.308191,-0.089 -0.308191,-0.19768 0,-0.10872 -0.133179,-0.19769 -0.295956,-0.19769 -0.162774,0 -0.638812,-0.30974 -1.05786,-0.68834 -0.419049,-0.37858 -0.827027,-0.62321 -0.906617,-0.54362 -0.07959,0.0796 -0.117514,0.0558 -0.08428,-0.0529 0.03324,-0.10874 -0.111767,-0.45569 -0.322238,-0.771 -0.21047,-0.31533 -0.406473,-0.67115 -0.435563,-0.79074 -0.545305,-2.24158 -0.575675,-2.60802 -0.304741,-3.67687 0.309359,-1.22043 1.268618,-2.85889 1.78335,-3.04601 0.783566,-0.28487 1.266452,-0.66408 0.999121,-0.78461 -0.145638,-0.0656 -0.08688,-0.0769 0.13057,-0.0249 0.217451,0.052 0.645512,-0.0354 0.951245,-0.19414 0.828275,-0.43004 1.68392,-0.40432 2.969195,0.0892 1.415261,0.54347 2.436883,1.41189 2.836829,2.41147 0.166308,0.41562 0.37361,0.71169 0.460674,0.65787 0.08707,-0.0538 0.119446,0.058 0.07197,0.24839 -0.123392,0.49484 2.212828,3.98086 2.823432,4.21301 0.748147,0.28445 1.400797,0.0224 2.306709,-0.92606 0.453589,-0.47491 0.893334,-0.86384 0.97721,-0.86428 0.08387,-4.3e-4 0.505341,-0.23428 0.93659,-0.51966 0.70275,-0.46507 0.902255,-0.50501 1.92317,-0.38506 0.626495,0.0736 1.33074,0.15143 1.564991,0.17295 0.23425,0.0215 0.389877,0.0974 0.345836,0.16866 -0.08461,0.1369 1.650879,1.35306 1.930865,1.35306 0.09009,0 0.163791,-0.083 0.163791,-0.18459 0,-0.10158 0.212235,-0.14611 0.471634,-0.0991 0.401185,0.0727 0.667809,-0.17896 1.784988,-1.68512 0.722346,-0.97385 1.4664,-1.9237 1.653459,-2.11075 0.316101,-0.3161 0.344612,-0.3167 0.404,-0.008 0.03514,0.18246 -0.205332,0.65834 -0.53439,1.05755 -0.329054,0.3992 -0.557113,0.79243 -0.506796,0.87385 0.05031,0.0814 -0.143755,0.33305 -0.431268,0.55921 -0.287511,0.22616 -0.46281,0.4112 -0.389548,0.4112 0.07325,0 -0.05725,0.20015 -0.290019,0.44478 -0.232768,0.24463 -0.641882,0.72707 -0.909141,1.07206 -0.267257,0.34499 -0.747455,0.71843 -1.067103,0.82987 -0.605975,0.21125 -0.681879,0.35151 -0.416465,0.76965 0.124761,0.19653 0.620412,0.20773 2.319747,0.0524 1.188596,-0.10867 2.561394,-0.19723 3.050658,-0.1968 0.489266,4.4e-4 0.787021,-0.0677 0.661676,-0.15122 -0.125343,-0.0835 0.497358,-0.14708 1.38378,-0.14108 l 1.61168,0.0109 v 0.58213 c 0,0.52867 -0.07261,0.59243 -0.790732,0.69427 -0.434903,0.0616 -0.983401,0.17649 -1.218882,0.25514 -0.237009,0.0791 -0.482856,0.0544 -0.550687,-0.0553 -0.07558,-0.12228 -0.290291,-0.13234 -0.560266,-0.0262 -0.240749,0.0946 -0.749078,0.26009 -1.129617,0.36772 l -0.69189,0.19571 0.754307,0.0202 c 0.414869,0.0111 0.904391,0.10045 1.087828,0.19867 0.183437,0.0982 0.644616,0.20938 1.02484,0.24711 0.380225,0.0377 0.907668,0.26401 1.172097,0.50282 0.264428,0.2388 0.545078,0.39447 0.623665,0.34589 0.07859,-0.0486 0.0973,0.25162 0.04156,0.66707 -0.06784,0.50573 -0.008,0.84874 0.181189,1.03788 0.155376,0.15538 0.287697,0.35135 0.294045,0.43552 0.0064,0.0842 0.06937,0.43999 0.140056,0.79074 0.102523,0.50871 0.168527,0.57773 0.32629,0.34119 0.145317,-0.21788 0.1644,-0.15283 0.07195,0.24526 -0.09145,0.39381 -0.0405,0.57453 0.186596,0.66167 0.276156,0.10596 0.278379,0.15392 0.01916,0.41314 -0.161292,0.1613 -0.243343,0.37404 -0.182333,0.47275 0.06101,0.0987 -0.02713,0.1265 -0.195866,0.0617 -0.168741,-0.0648 -0.306797,-0.0289 -0.306797,0.0797 0,0.10857 0.215306,0.25144 0.47846,0.31748 0.339057,0.0851 0.518618,0.30735 0.616294,0.76275 0.07581,0.35347 0.189883,0.73005 0.253495,0.83687 0.06361,0.10681 0.133712,0.3292 0.155782,0.4942 0.02207,0.16501 0.233018,1.23406 0.468772,2.37567 0.235754,1.14162 0.42856,2.30102 0.428458,2.57643 -1.02e-4,0.27541 0.2589,0.79751 0.575561,1.16019 0.567763,0.65028 0.575174,0.81153 0.06482,1.41029 -0.346143,0.40609 -0.14132,5.19983 0.216312,5.06258 0.243656,-0.0935 0.277083,0.55454 0.0408,0.79085 -0.07471,0.0747 -0.135817,0.34209 -0.135817,0.59423 0,0.25213 -0.0898,0.83776 -0.199571,1.30141 -0.109765,0.46365 -0.324759,1.77257 -0.477768,2.90872 -0.239785,1.78049 -0.239524,2.12093 0.0019,2.4656 0.396909,0.56666 0.354458,0.78273 -0.28,1.42512 -0.429288,0.43464 -0.691612,1.07491 -1.123286,2.7416 -0.70279,2.71346 -1.170764,3.82989 -1.843272,4.39747 -0.289221,0.24408 -0.419243,0.44424 -0.288939,0.44478 0.372232,10e-4 1.145431,-0.82559 1.428896,-1.52855 0.141933,-0.35198 0.326578,-0.59761 0.410325,-0.54584 0.149536,0.0924 0.462926,-0.63433 0.411378,-0.95399 -0.01444,-0.0896 0.05295,-0.11397 0.149792,-0.0542 0.21764,0.13451 0.05133,1.10667 -0.189319,1.10667 -0.09605,0 -0.175998,0.15568 -0.177663,0.34594 -0.0026,0.29884 -0.03187,0.30556 -0.214832,0.0494 -0.167811,-0.23494 -0.18996,-0.19804 -0.106632,0.17765 0.113049,0.50971 -0.518476,1.88183 -1.158093,2.51622 -0.364941,0.36194 -0.369723,0.36138 -0.214117,-0.0252 0.233628,-0.58033 0.23735,-0.77907 0.01668,-0.88956 -0.108584,-0.0544 -0.202288,0.0346 -0.208232,0.19767 -0.01721,0.47212 -0.323004,1.46009 -0.535382,1.72972 -0.131157,0.16653 -0.122267,0.24711 0.02726,0.24711 0.122038,0 0.221887,0.0984 0.221887,0.21884 0,0.12035 -0.122206,0.17194 -0.271567,0.11463 -0.345174,-0.13246 -0.802454,0.70198 -0.832733,1.51958 -0.05422,1.46417 -0.839107,2.23391 -2.651676,2.6005 -0.38054,0.077 -0.869804,0.23418 -1.087256,0.34936 -0.217451,0.11519 -0.617759,0.24718 -0.889573,0.29332 -0.630563,0.10703 -8.416932,0.25595 -8.521125,0.16297 z m -7.207191,-46.87596 c 0.428017,-0.0694 1.562224,-0.11999 2.520458,-0.1125 1.054556,0.008 1.742248,-0.0655 1.742248,-0.18685 0,-0.11527 -0.372979,-0.17238 -0.87784,-0.13442 -0.482811,0.0364 -0.837349,5e-4 -0.787861,-0.0796 0.04949,-0.08 -0.095,-0.20429 -0.321081,-0.27605 -0.226083,-0.0718 -0.7304,-0.57497 -1.120707,-1.11825 l -0.709647,-0.98776 -0.295299,0.65921 c -1.032053,1.82634 -0.428918,0.72477 -1.303576,1.88512 -0.570181,0.67122 -0.57063,0.67383 -0.09885,0.57575 0.260664,-0.0542 0.824132,-0.15529 1.252146,-0.22466 z m -1.065477,-4.14686 c 0.127313,-0.94401 0.09368,-1.04408 -0.748754,-2.2277 -0.971451,-1.36489 -1.334017,-1.63492 -2.16333,-1.61118 -0.65888,0.0189 -2.07231,0.75686 -2.199194,1.14826 -0.278979,0.29957 -0.606678,0.57054 -0.935699,1.22662 -0.517014,1.14652 -0.484369,2.98656 0.0722,4.06989 0.516535,1.00541 0.678495,1.11337 1.812553,1.20816 0.490156,0.041 0.928258,0.11139 0.973561,0.15649 1.752537,-0.53852 2.623536,-1.68267 3.188659,-3.97054 z"
       id="path1068"       
       sodipodi:nodetypes="ccccccccccssscccscccsscssccsscccscsccccccsssccccssccscccccsccccccsscccccccscccccccccsccccccccsccccccccccccsccscscccccscsccsccccccsccccccccsscccccccccscccccccccccsccccccc" />
  </g>
</svg>
