<?xml version="1.0" encoding="UTF-8" standalone="no"?>
<!-- Created with Inkscape (http://www.inkscape.org/) -->

<svg
   xmlns:dc="http://purl.org/dc/elements/1.1/"
   xmlns:cc="http://creativecommons.org/ns#"
   xmlns:rdf="http://www.w3.org/1999/02/22-rdf-syntax-ns#"
   xmlns:svg="http://www.w3.org/2000/svg"
   xmlns="http://www.w3.org/2000/svg"
   xmlns:sodipodi="http://sodipodi.sourceforge.net/DTD/sodipodi-0.dtd"   
   width="220"
   height="235"
   viewBox="0 0 58.208332 62.177085"
   version="1.1"
   id="svg8"
   sodipodi:docname="trmr.svg" >
  <defs
     id="defs2" />
  <sodipodi:namedview
     id="base"
     pagecolor="#000000"
     bordercolor="#666666"
     borderopacity="1.0"
     showgrid="false"
     units="px" />
  <metadata
     id="metadata5">
    <rdf:RDF>
      <cc:Work
         rdf:about="">
        <dc:format>image/svg+xml</dc:format>
        <dc:type
           rdf:resource="http://purl.org/dc/dcmitype/StillImage" />
        <dc:title></dc:title>
      </cc:Work>
    </rdf:RDF>
  </metadata>
  <g    
     id="layer1"
     transform="translate(0,-234.8229)">
    <path
       style="fill:none;stroke:#ffffff;stroke-width:0.4;stroke-opacity:1;stroke-miterlimit:4;stroke-dasharray:none"
       d="m 28.279555,294.86148 c -6.838624,-0.15495 -7.825268,-0.25474 -7.825268,-0.79144 0,-0.16014 -0.06896,-0.29116 -0.153234,-0.29116 -0.08428,0 -0.304364,-0.16013 -0.489079,-0.35583 l -0.335845,-0.35583 v -6.5452 c 0,-4.23158 -0.04322,-6.57191 -0.12227,-6.62076 -0.184353,-0.11394 -0.146813,-0.50821 0.06893,-0.72395 0.105159,-0.10516 0.163481,-0.23605 0.1296,-0.29088 -0.03388,-0.0548 -0.09258,-1.69212 -0.130451,-3.63846 -0.03787,-1.94633 -0.09447,-3.67007 -0.125779,-3.83051 -0.103105,-0.52835 -0.103676,-5.93886 -6.1e-4,-6.17924 0.145983,-0.34061 0.523704,-0.69187 0.57583,-0.53549 0.02984,0.0895 0.421585,0.10272 1.236042,0.0416 l 1.19236,-0.0894 -0.02008,-1.25666 -0.02007,-1.25667 -0.627546,-0.0754 c -0.345149,-0.0414 -0.920337,-0.0759 -1.278195,-0.0765 -1.155105,-0.002 -1.052766,0.93025 -1.122262,-10.22194 -0.03362,-5.39576 -0.02914,-10.39397 0.01,-11.10713 0.06694,-1.22059 0.09204,-1.31855 0.427945,-1.66966 0.808608,-0.84522 1.541025,-1.06155 3.963797,-1.17075 1.433158,-0.0646 2.200857,-0.24384 2.200857,-0.51387 0,-0.37708 4.116126,-0.6339 6.398342,-0.39923 1.206576,0.12407 2.038274,0.38609 2.038274,0.64215 0,0.0463 0.591481,0.11947 1.314401,0.16264 0.72292,0.0432 1.827032,0.16567 2.453582,0.27222 1.087214,0.18488 1.165807,0.21965 1.722797,0.76217 l 0.583615,0.56847 0.08239,1.70818 c 0.04532,0.93951 0.08367,5.63591 0.08523,10.43645 0.0019,5.88532 0.04487,8.80681 0.131886,8.9694 0.09139,0.17076 0.09006,0.28011 -0.0045,0.37472 -0.07348,0.0735 -0.133596,0.28572 -0.133596,0.47165 0,0.22379 -0.09299,0.38971 -0.275108,0.49086 -0.358199,0.19896 -0.288397,0.18968 -1.558939,0.20732 l -1.100429,0.0153 v 1.2828 1.28281 l 0.825321,-0.0521 c 0.527259,-0.0333 0.737007,-0.0139 0.580782,0.0536 -0.361389,0.15613 0.02585,0.14824 0.604083,-0.0123 0.420589,-0.11677 0.503252,-0.10503 0.650546,0.0924 0.0928,0.12439 0.219871,0.21241 0.282373,0.19559 0.06247,-0.0168 0.113605,0.29956 0.113605,0.70305 0,0.50439 0.04776,0.7342 0.152837,0.73549 0.10841,10e-4 0.11288,0.028 0.01537,0.0917 -0.170287,0.11128 -0.185485,1.83763 -0.01709,1.9417 0.07173,0.0443 0.05633,0.11293 -0.0385,0.17154 -0.125358,0.0775 -0.127001,0.13505 -0.0079,0.2785 0.11909,0.1435 0.117467,0.19591 -0.0079,0.25386 -0.12479,0.0577 -0.125861,0.088 -0.0051,0.14435 0.188863,0.0881 0.200876,0.38136 0.01812,0.44229 -0.203706,0.0679 -0.217837,2.00244 -0.01433,1.96108 0.11905,-0.0242 0.112619,0.0533 -0.0268,0.32289 -0.100885,0.19508 -0.189369,0.67709 -0.196632,1.07112 -0.111446,6.04657 -0.111391,6.05172 0.06795,6.32542 0.149878,0.22874 0.152309,0.3103 0.01522,0.51062 -0.122925,0.17963 -0.16935,0.95903 -0.18831,3.16143 -0.01384,1.60766 0.01918,2.95569 0.07339,2.99561 0.0542,0.0399 0.08109,0.9942 0.05976,2.12061 -0.03179,1.67814 -0.07043,2.04801 -0.213972,2.04801 -0.247689,0 -0.217367,0.15407 0.08052,0.40913 0.200609,0.17177 0.234965,0.28957 0.159462,0.54682 -0.05293,0.18034 -0.08366,0.69426 -0.06828,1.14204 0.02785,0.81126 0.0258,0.81675 -0.57582,1.53967 -0.598708,0.71942 -0.611304,0.7267 -1.501813,0.86825 -1.596713,0.25379 -5.533399,0.34893 -10.129413,0.24479 z"
       id="path1055"       
       sodipodi:nodetypes="cssccscccscccccccccscccscsccccscccsccccccccccscccccccccssccscssccscccc" />
  </g>
</svg>
