<?xml version="1.0" encoding="UTF-8" standalone="no"?>
<!-- Created with Inkscape (http://www.inkscape.org/) -->

<svg
   xmlns:dc="http://purl.org/dc/elements/1.1/"
   xmlns:cc="http://creativecommons.org/ns#"
   xmlns:rdf="http://www.w3.org/1999/02/22-rdf-syntax-ns#"
   xmlns:svg="http://www.w3.org/2000/svg"
   xmlns="http://www.w3.org/2000/svg"
   xmlns:sodipodi="http://sodipodi.sourceforge.net/DTD/sodipodi-0.dtd"
   width="220"
   height="235"
   viewBox="0 0 58.208331 62.177086"
   version="1.1"
   id="svg8"   
   sodipodi:docname="mg42.svg" >
  <defs
     id="defs2" />
  <sodipodi:namedview
     id="base"
     pagecolor="#000000"
     bordercolor="#666666"
     borderopacity="1.0"
     showgrid="false"
     fit-margin-top="0"
     fit-margin-left="0"
     fit-margin-right="0"
     fit-margin-bottom="0"
     units="px" />
  <metadata
     id="metadata5">
    <rdf:RDF>
      <cc:Work
         rdf:about="">
        <dc:format>image/svg+xml</dc:format>
        <dc:type
           rdf:resource="http://purl.org/dc/dcmitype/StillImage" />
        <dc:title></dc:title>
      </cc:Work>
    </rdf:RDF>
  </metadata>
  <g
     id="layer1"
     transform="translate(56.057826,-205.94221)">
    <path
       style="fill:none;stroke:#ffffff;stroke-width:0.4;stroke-opacity:1;stroke-miterlimit:4;stroke-dasharray:none"
       d="m -32.86656,255.47856 c 0.109003,-0.24476 0.04779,-0.43305 -0.234036,-0.71986 -0.270684,-0.27548 -0.947332,-2.64897 -0.830524,-2.91327 0.0365,-0.0826 0.308326,-0.275 0.604041,-0.42751 0.716021,-0.36927 1.175683,-0.85096 1.342254,-1.40656 0.09905,-0.33041 0.173512,-0.439 0.269897,-0.39361 0.104071,0.049 0.148101,0.004 0.201929,-0.20594 0.04077,-0.15931 0.118369,-0.25691 0.190601,-0.23972 0.06701,0.016 0.154584,-0.0452 0.194626,-0.13571 0.05556,-0.12573 0.140338,-0.0966 0.358247,0.12298 0.331319,0.3339 0.532521,0.32331 0.664523,-0.035 0.11167,-0.30309 2.263948,-3.78308 2.463324,-3.98293 0.233366,-0.23396 0.02323,-0.62678 -0.682994,-1.27665 l -0.662642,-0.60978 0.304834,-0.3072 c 0.208046,-0.20967 0.279068,-0.3655 0.223689,-0.49082 -0.07261,-0.16431 0.06516,-0.31902 1.310511,-1.47155 0.765408,-0.70835 1.459728,-1.28866 1.54293,-1.28953 0.193909,-0.002 1.671522,-1.4858 1.575665,-1.58239 -0.09072,-0.0914 0.485127,-0.80493 0.62315,-0.7721 0.153355,0.0366 0.543064,-0.39458 0.543078,-0.60068 -2e-6,-0.1042 0.426285,-0.6464 1.00843,-1.28267 0.887827,-0.97038 1.030308,-1.09237 1.191323,-1.02011 0.234414,0.10522 0.852991,-0.49656 1.004943,-0.97763 0.08598,-0.27225 0.599006,-0.83519 2.596101,-2.84871 1.36892,-1.38017 3.082054,-3.04279 3.806977,-3.69468 0.823602,-0.74064 1.318077,-1.24301 1.31813,-1.33923 1.53e-4,-0.22266 2.0646127,-2.27829 2.2880847,-2.27828 0.132733,0 0.264103,-0.16359 0.500227,-0.62293 0.176119,-0.34261 0.360293,-0.64407 0.409271,-0.66991 0.04898,-0.0259 0.166968,-0.21448 0.262214,-0.41917 0.131799,-0.28329 0.23922,-0.39416 0.449719,-0.46412 0.152105,-0.0506 0.567105,-0.34643 0.922221,-0.65749 1.2251307,-1.0731 7.33496777,-7.1255 7.99217247,-7.91704 0.63577203,-0.76572 0.65458923,-0.80634 0.53567553,-1.15589 -0.067781,-0.19926 -0.3300635,-0.57265 -0.58284593,-0.82976 -0.3671041,-0.37363 -0.5301013,-0.46746 -0.8103371,-0.46746 -0.3464352,0 -0.3955396,0.0438 -4.01056687,3.57728 -2.0649856,2.01839 -3.8880771,3.87097 -4.1836201,4.25125 -0.385061,0.49547 -0.564365,0.66433 -0.677007,0.63753 -0.431235,-0.10259 -5.3087097,4.40407 -5.2122247,4.81596 0.04959,0.21172 -1.331382,1.69558 -1.675839,1.80069 -0.222504,0.0679 -0.285188,0.13297 -0.301826,0.3133 -0.0143,0.15502 -0.0498,0.19859 -0.111295,0.13662 -0.04967,-0.05 -0.198924,0.0184 -0.331679,0.15223 -0.132753,0.13379 -0.204857,0.28004 -0.160232,0.32501 0.04844,0.0488 -0.02291,0.10601 -0.176999,0.14192 -0.2037,0.0474 -0.258142,0.10202 -0.258069,0.25884 1e-6,0.14984 -0.752305,0.95645 -3.062082,3.28311 -3.414188,3.43889 -5.367551,5.21615 -5.646522,5.13676 -0.09978,-0.0283 -0.225523,0.0381 -0.29353,0.15514 -0.09979,0.17179 -0.158366,0.16512 -0.363981,-0.0421 -0.3852,-0.3882 -0.613961,-0.316 -1.674556,0.52855 -0.535617,0.42651 -1.030837,0.78989 -1.100491,0.80752 -0.06967,0.0176 -0.357667,0.25016 -0.640034,0.51676 -0.755984,0.71375 -0.852633,0.74146 -1.384214,0.39674 l -0.463587,-0.30064 0.326116,0.35098 c 0.179364,0.19303 0.312281,0.41002 0.29538,0.48217 -0.03559,0.15197 0.25015,0.47339 0.346289,0.38953 0.849146,-0.74067 1.222354,-1.03003 1.383109,-1.07239 0.13012,-0.0343 1.15e-4,0.14795 -0.384197,0.5385 -0.55743,0.56667 -0.573184,0.59806 -0.389572,0.78309 0.105208,0.10603 0.183092,0.27574 0.173074,0.37713 -0.01926,0.19487 -0.855535,1.206 -0.932768,1.12779 -0.02488,-0.0251 -0.217142,0.0298 -0.427275,0.12224 -0.221339,0.0973 -0.407975,0.10938 -0.443669,0.0286 -0.04094,-0.0926 -0.193664,-0.0375 -0.455078,0.16402 -1.165158,0.89849 -1.168883,0.90038 -1.372522,0.69515 -0.177717,-0.17909 -0.224102,-0.16253 -0.596984,0.21326 -0.387352,0.39036 -0.395975,0.42001 -0.205665,0.7077 0.237764,0.35941 0.161549,0.59918 -0.190473,0.59917 -0.321714,0 -0.432999,0.10696 -0.337095,0.32396 0.109897,0.24869 -1.580442,1.94633 -1.937951,1.94633 -0.223392,0 -0.254473,0.0313 -0.313249,0.31569 -0.03588,0.17363 -0.131691,0.38264 -0.212901,0.46448 -0.08121,0.0818 -0.147653,0.2262 -0.147653,0.32082 0,0.2361 -3.276624,4.29986 -3.739532,4.63788 -0.205284,0.14986 -0.48949,0.27979 -0.631588,0.2887 -0.16924,0.0107 -0.334986,0.12325 -0.480521,0.32656 -0.122193,0.17071 -0.267828,0.37382 -0.323634,0.45137 -0.276597,0.38432 -0.818069,0.79721 -0.916006,0.69852 -0.05792,-0.0584 -0.217041,-0.12362 -0.353601,-0.14498 -0.216483,-0.0339 -0.279452,0.0157 -0.491471,0.38683 -0.283375,0.49605 -0.175938,0.85556 0.262264,0.87758 0.154186,0.007 0.267636,0.0683 0.252107,0.1346 -0.026,0.111 -0.507502,0.40076 -0.928088,0.55851 -0.09676,0.0363 -0.740821,0.66424 -1.431284,1.39545 -1.505535,1.59446 -2.43332,2.25857 -4.618998,3.30634 -2.290828,1.09818 -4.168407,2.34772 -4.286728,2.85283 -0.08006,0.34181 0.31839,0.50939 0.977446,0.4111 0.363367,-0.0542 0.925863,-0.0352 1.249984,0.0422 1.043251,0.2491 2.903617,1.6595 3.71638,2.8175 0.736508,1.04936 0.727765,1.04315 1.06957,0.75869 0.377389,-0.31409 0.825651,-1.27458 1.11676,-2.39288 0.297022,-1.14102 0.451814,-1.36615 1.117763,-1.62563 0.298476,-0.1163 0.556186,-0.22506 0.572686,-0.24168 0.0165,-0.0167 -0.181619,-0.2435 -0.440267,-0.50416 -0.720854,-0.72646 -0.695315,-0.80242 0.744095,-2.21334 0.901049,-0.88322 1.200485,-1.12912 1.246935,-1.02402 0.107716,0.24375 0.365101,0.08 1.142286,-0.72666 0.634327,-0.65839 0.755325,-0.83364 0.733287,-1.06205 -0.02211,-0.22913 0.06398,-0.35306 0.530059,-0.76314 0.306053,-0.26927 0.623113,-0.49172 0.704592,-0.49434 0.08148,-0.003 0.249516,-0.10693 0.373419,-0.23179 0.179619,-0.18102 0.26222,-0.19031 0.407538,-0.0459 0.451196,0.44856 0.851428,0.27009 1.917532,-0.85505 0.772264,-0.81505 0.898215,-0.91274 1.129875,-0.87651 0.549337,0.086 0.884766,0.70019 1.397995,2.55997 0.112196,0.40656 0.276317,0.68922 0.574915,0.99013 0.536901,0.54107 0.799044,0.54669 1.313581,0.0282 0.214475,-0.21614 0.453409,-0.42622 0.53096,-0.46685 0.07754,-0.0407 0.174658,-0.14942 0.215764,-0.24178 z m 0.102257,-5.31848 c -0.01505,-0.0643 -0.172131,-0.0864 -0.349061,-0.0493 -0.43932,0.0922 -0.746708,-0.0898 -0.829678,-0.49118 -0.07371,-0.35662 0.187895,-0.72229 0.496077,-0.69342 0.385142,0.0361 1.146355,0.48191 1.164829,0.68224 0.01966,0.21318 -0.438631,0.73753 -0.482167,0.55167 z m -0.773841,0.82356 c -0.250509,0.11243 -0.873686,-0.1066 -0.9995,-0.35129 -0.09834,-0.19127 -0.08862,-0.20284 0.170547,-0.20283 0.151155,0 0.490184,0.056 0.753395,0.12436 0.488407,0.12692 0.507565,0.23587 0.07556,0.42977 z m -10.659115,1.83301 c -0.06899,-0.0696 -0.06685,-0.14034 0.0048,-0.15738 0.07159,-0.017 0.164248,0.004 0.205887,0.0453 0.04164,0.0419 0.0395,0.1128 -0.0048,0.15738 -0.04425,0.0446 -0.136902,0.0242 -0.20589,-0.0454 z"
       id="path862"       
       sodipodi:nodetypes="cccscccccsscscscscscccccccccccccccccsscccccssscccccssccsccccccscccccssccsccscccccscsccccscccssccsscscccsssccsssccccccccccsccccscsss" />
  </g>
</svg>
