<?xml version="1.0" encoding="UTF-8" standalone="no"?>
<!-- Created with Inkscape (http://www.inkscape.org/) -->

<svg
   xmlns:dc="http://purl.org/dc/elements/1.1/"
   xmlns:cc="http://creativecommons.org/ns#"
   xmlns:rdf="http://www.w3.org/1999/02/22-rdf-syntax-ns#"
   xmlns:svg="http://www.w3.org/2000/svg"
   xmlns="http://www.w3.org/2000/svg"
   xmlns:sodipodi="http://sodipodi.sourceforge.net/DTD/sodipodi-0.dtd"
   xmlns:inkscape="http://www.inkscape.org/namespaces/inkscape"
   width="220"
   height="235"
   viewBox="0 0 58.208332 62.177085"
   version="1.1"
   id="svg8"
   inkscape:version="0.92.3 (2405546, 2018-03-11)"
   sodipodi:docname="pkp.svg">
  <defs
     id="defs2" />
  <sodipodi:namedview
     id="base"
     pagecolor="#000000"
     bordercolor="#666666"
     borderopacity="1.0"
     inkscape:pageopacity="0"
     inkscape:pageshadow="2"
     inkscape:zoom="2.8"
     inkscape:cx="167.39709"
     inkscape:cy="87.193757"
     inkscape:document-units="px"
     inkscape:current-layer="layer1"
     showgrid="false"
     units="px"
     inkscape:window-width="1590"
     inkscape:window-height="1226"
     inkscape:window-x="1802"
     inkscape:window-y="123"
     inkscape:window-maximized="0" />
  <metadata
     id="metadata5">
    <rdf:RDF>
      <cc:Work
         rdf:about="">
        <dc:format>image/svg+xml</dc:format>
        <dc:type
           rdf:resource="http://purl.org/dc/dcmitype/StillImage" />
        <dc:title></dc:title>
      </cc:Work>
    </rdf:RDF>
  </metadata>
  <g
     inkscape:label="Layer 1"
     inkscape:groupmode="layer"
     id="layer1"
     transform="translate(0,-234.8229)">
    <path
       style="fill:none;stroke:#ffffff;stroke-width:0.3;stroke-opacity:1;stroke-miterlimit:4;stroke-dasharray:none"
       d="m 37.010885,276.80196 c -0.133886,-0.0305 -2.511755,-2.2729 -3.821335,-3.60355 -0.244392,-0.2483 -0.901314,-0.87488 -1.459862,-1.39238 -0.830392,-0.76938 -1.038444,-0.92564 -1.1412,-0.85712 -0.09906,0.066 -0.232635,-0.0241 -0.630681,-0.4253 -0.277761,-0.28 -0.505015,-0.57678 -0.505015,-0.65952 -10e-7,-0.18427 -0.565818,-0.76111 -0.797867,-0.81341 -0.122845,-0.0277 -0.307035,0.0965 -0.677692,0.45716 -0.279958,0.27236 -0.648882,0.58789 -0.819853,0.70116 -0.307195,0.20353 -0.308278,0.20854 -0.09205,0.42475 0.196339,0.19635 0.197829,0.23674 0.01451,0.3935 -0.112375,0.0961 -0.396333,0.37607 -0.631022,0.62222 -0.358414,0.37586 -0.411191,0.47406 -0.329661,0.61334 0.05338,0.0912 0.05443,0.23865 0.0023,0.32767 -0.102146,0.17449 0.08419,0.57069 0.317214,0.67447 0.07878,0.0351 0.219901,-0.0128 0.313601,-0.10657 0.0937,-0.0937 0.215282,-0.15976 0.270178,-0.1468 0.111062,0.0262 0.03019,0.25989 -0.153544,0.44362 -0.06573,0.0657 -0.108155,0.31279 -0.09428,0.54905 0.02253,0.38398 -0.03901,0.52779 -0.580048,1.35517 -0.512375,0.78357 -0.65626,0.95131 -0.937602,1.09302 -0.403854,0.20344 -0.854702,0.16273 -1.251797,-0.11303 -0.356594,-0.24765 -0.638454,-0.34673 -0.72893,-0.25625 -0.03657,0.0366 -0.02373,0.10923 0.02852,0.16148 0.05225,0.0522 0.04182,0.22339 -0.02317,0.38031 -0.065,0.15691 -0.112871,0.39171 -0.106384,0.52176 0.0065,0.13005 0.42697,0.95974 0.934411,1.84376 0.787579,1.37205 0.985971,1.65826 1.355494,1.95548 0.383076,0.30812 0.425426,0.37279 0.368089,0.56216 -0.14528,0.47982 -1.349967,1.40387 -2.009262,1.5412 -0.155761,0.0325 -0.399941,0.0154 -0.542624,-0.0381 -0.266948,-0.0998 -0.317308,-0.1787 -2.373592,-3.7175 l -0.475581,-0.81846 -0.446001,-0.17244 c -0.245301,-0.0948 -0.484864,-0.2113 -0.532357,-0.25879 -0.0675,-0.0675 -0.53962,0.37084 -2.161831,2.00708 -2.268313,2.28795 -2.274586,2.29662 -2.247522,3.11452 0.0068,0.20832 0.209132,1.05041 0.449417,1.87129 0.240285,0.8209 0.429487,1.63947 0.420451,1.81906 -0.0272,0.54024 -0.308507,0.7116 -1.876067,1.14279 l -1.439253,0.39589 -1.482003,1.52623 c -1.6395762,1.68848 -1.7803075,1.91293 -1.5846715,2.52758 0.1792375,0.56314 -0.019448,1.14836 -0.6604125,1.9452 -0.4382783,0.54487 -0.6416808,0.7402 -0.8687737,0.83424 L 7.706625,295.35072 5.8969007,293.5543 c -1.868628,-1.8549 -2.3840275,-2.30241 -3.7868479,-3.28808 -1.17443203,-0.82519 -1.28138836,-1.14458 -0.6086023,-1.81737 0.2697695,-0.26976 0.7031633,-0.36656 0.8744248,-0.1953 0.067339,0.0673 0.2057334,-0.0203 0.5061284,-0.32077 0.4209675,-0.42096 0.5926081,-0.44092 0.592607,-0.0689 -1.5e-6,0.23079 0.4246606,-0.19867 0.494284,-0.49985 0.041319,-0.17876 0.098741,-0.23331 0.2928066,-0.27817 0.1961885,-0.0453 0.8771479,-0.70049 3.6349034,-3.49704 l 3.3934823,-3.44125 0.859634,-0.24289 c 0.832242,-0.23515 0.879633,-0.26241 1.487331,-0.85553 0.345235,-0.33695 1.054071,-1.07001 1.575212,-1.629 l 0.947512,-1.01635 -0.241648,-0.24165 c -0.13337,-0.13337 -0.296121,-0.45036 -0.363222,-0.70744 -0.06686,-0.25619 -0.184849,-0.49399 -0.262186,-0.52843 -0.07733,-0.0344 -0.127957,-0.11622 -0.112494,-0.18172 0.01546,-0.0655 0.06095,-0.0863 0.101088,-0.0461 0.135243,0.13525 0.269095,-0.1204 0.269096,-0.51395 0,-0.66697 0.07403,-0.78574 1.177503,-1.88922 l 1.038144,-1.03814 -0.242882,-0.24289 c -0.200891,-0.20089 -0.223053,-0.28857 -0.128181,-0.50717 0.06309,-0.14536 0.211455,-0.35359 0.329713,-0.46273 0.118256,-0.10914 0.61485,-0.66683 1.103532,-1.23933 0.712255,-0.83439 0.900059,-1.10752 0.946685,-1.37678 0.0462,-0.2668 0.105196,-0.35347 0.286812,-0.42139 0.178322,-0.0667 0.231428,-0.13919 0.241277,-0.32938 0.0069,-0.13413 0.09996,-0.34953 0.206694,-0.47865 0.180016,-0.21778 0.215601,-0.21925 0.490532,-0.0211 0.163055,0.11753 0.307801,0.26171 0.321639,0.32039 0.01385,0.0587 -0.152783,0.25741 -0.370298,0.44162 -0.322186,0.27286 -0.379946,0.36145 -0.311673,0.47807 0.07238,0.12365 0.132252,0.0862 0.43903,-0.27467 0.19538,-0.22981 0.350902,-0.45319 0.34563,-0.49636 -0.0053,-0.0431 1.283697,-1.38992 2.864378,-2.99277 2.771113,-2.80997 2.890116,-2.92032 3.324871,-3.08354 0.247993,-0.0931 0.598871,-0.31588 0.779726,-0.49507 0.180802,-0.17924 0.355603,-0.29902 0.388335,-0.26629 0.03273,0.0328 0.224335,0.0595 0.425789,0.0595 0.267675,0 0.448062,0.0751 0.670084,0.27896 0.682844,0.62696 0.586533,0.61641 1.084134,0.1188 0.246345,-0.24634 0.43144,-0.46436 0.411343,-0.48445 -0.0201,-0.0202 -0.236825,-0.0236 -0.481592,-0.008 -0.836429,0.0543 -1.451433,-0.47816 -1.505017,-1.30309 -0.05641,-0.86835 -0.03657,-0.89306 3.561,-4.43307 l 3.222995,-3.17143 3.242688,-1.51194 c 1.783477,-0.83157 3.546646,-1.6111 3.91815,-1.73228 l 0.675466,-0.22034 0.980304,-1.00275 c 0.582642,-0.59598 1.043113,-1.00858 1.135126,-1.01713 0.100745,-0.01 1.070462,-0.94265 2.7767,-2.67238 l 2.621898,-2.658 -0.129828,-0.22458 c -0.0714,-0.12352 -0.231741,-0.73793 -0.356298,-1.36534 -0.18947,-0.95438 -0.273737,-1.18803 -0.515785,-1.43008 -0.329159,-0.32916 -0.32982,-0.36368 -0.01513,-0.78627 0.375897,-0.50477 0.425273,-0.48545 1.464565,0.57331 0.573601,0.58433 0.969218,0.93228 1.040764,0.91541 0.06348,-0.015 0.170452,0.0647 0.237692,0.17695 0.104576,0.17465 0.137651,0.17791 0.228665,0.0224 0.05974,-0.10204 0.139231,-0.14892 0.181285,-0.10687 0.04899,0.049 0.385427,-0.22232 0.972744,-0.7844 0.864724,-0.82759 0.90427,-0.85447 1.071209,-0.72912 0.171535,0.12882 0.163591,0.13983 -0.765459,1.06059 -0.842188,0.83469 -1.121672,1.03119 -1.014588,0.71338 0.01959,-0.0581 0.0039,-0.0583 -0.03485,-3.6e-4 -0.03876,0.0579 0.03374,0.22869 0.161101,0.37957 0.218585,0.25895 0.237118,0.26201 0.330402,0.0548 0.126343,-0.28068 1.408541,-1.5706 1.682455,-1.69256 0.172857,-0.077 0.231644,-0.0514 0.349682,0.15262 l 0.141893,0.24516 -0.83338,0.87749 c -0.458354,0.48263 -0.828284,0.91458 -0.822062,0.95988 0.0063,0.0453 -0.103415,0.21362 -0.243645,0.37405 -0.313454,0.35861 -0.313285,0.41345 0.0025,0.78757 l 0.252373,0.29889 0.344533,-0.27562 0.344541,-0.27564 0.30726,0.30726 c 0.287128,0.28713 0.296174,0.32326 0.138034,0.55148 -0.09307,0.13432 -0.824869,0.85993 -1.626205,1.61246 -0.801338,0.75253 -2.272803,2.17727 -3.26991,3.1661 -1.615323,1.60194 -1.807472,1.81717 -1.763018,1.97464 0.03939,0.1395 -0.0269,0.238 -0.314528,0.46735 -0.200449,0.15982 -0.414241,0.27964 -0.475116,0.26623 -0.06087,-0.0134 -0.323301,0.16012 -0.583168,0.38558 -0.463083,0.40178 -0.470077,0.41528 -0.351306,0.67807 0.100222,0.22176 0.08069,0.30862 -0.112927,0.50223 -0.198719,0.19873 -0.249202,0.20831 -0.334011,0.0635 -0.05495,-0.0939 -0.163681,-0.16327 -0.241578,-0.15429 -0.07792,0.009 -1.192163,1.04345 -2.476093,2.29876 l -2.334426,2.2824 0.482356,0.55125 c 0.469366,0.53642 0.435412,0.58302 -0.143765,0.19726 -0.162375,-0.10815 -0.348179,-0.1375 -0.503249,-0.0795 -0.142891,0.0534 -0.304159,0.0336 -0.385127,-0.0474 -0.129763,-0.12977 -0.182875,-0.0957 -0.776428,0.49836 -0.515201,0.51562 -0.653994,0.70716 -0.725199,1.00083 -0.0835,0.3444 -0.210824,0.48594 -2.463706,2.73882 -1.996987,1.99699 -2.36018,2.39112 -2.278608,2.4727 0.07755,0.0776 -0.106434,0.31578 -0.915787,1.18589 -0.557049,0.59888 -1.233275,1.3273 -1.502718,1.61872 l -0.489903,0.52986 0.163632,0.33691 c 0.150958,0.31082 0.170849,0.32459 0.256809,0.17775 0.07152,-0.12214 0.143087,-0.1197 0.307811,0.0106 0.169152,0.13376 0.27451,0.13436 0.497184,0.003 0.253729,-0.14986 0.296985,-0.1431 0.424046,0.0662 0.07782,0.12823 0.130106,0.28727 0.116183,0.35341 -0.01656,0.0787 0.06042,0.12454 0.222759,0.13264 0.277767,0.0138 0.588663,0.27024 0.470716,0.38819 -0.05577,0.0558 0.729723,0.85528 2.890112,2.94168 1.631685,1.5758 3.00971,2.9481 3.062278,3.04956 0.09089,0.17541 0.0244,0.26017 -1.35558,1.72815 -0.798137,0.84903 -1.652938,1.78305 -1.899557,2.07562 -0.344215,0.40834 -0.484265,0.52375 -0.602751,0.49672 z m -10.915019,-1.52715 c 0.717643,-1.11857 0.738175,-1.28914 0.217836,-1.80948 -0.213942,-0.21394 -0.463405,-0.38898 -0.554363,-0.38898 -0.108161,0 -0.422242,0.25686 -0.907812,0.74243 l -0.742434,0.74243 0.09817,0.30843 c 0.138174,0.43412 0.36594,0.62826 0.844589,0.7199 0.243883,0.0467 0.359974,0.1035 0.282255,0.13811 -0.245802,0.10947 -1.022872,-0.23087 -1.234939,-0.54088 -0.184671,-0.26996 -0.203645,-0.27416 -0.390942,-0.0869 -0.234791,0.23479 -0.277363,0.75675 -0.07133,0.8746 0.0806,0.0461 0.276551,0.17644 0.43545,0.28967 0.308804,0.22003 0.736198,0.25174 1.127262,0.0836 0.312674,-0.1344 0.232523,-0.0384 0.89626,-1.073 z m -13.428382,9.76191 c 0.08085,-0.26704 -0.415032,-1.92839 -0.643905,-2.15728 -0.103098,-0.10308 -0.365384,-0.19175 -0.607539,-0.20536 l -0.426119,-0.024 -2.1724428,2.21447 -2.172442,2.21448 -0.1932921,0.5647 c -0.23204,0.6779 -0.1062663,1.37435 0.3531376,1.95544 0.2501299,0.31638 0.3580044,0.38717 0.6401831,0.42012 l 0.3393617,0.0396 2.4112985,-2.41131 c 1.491835,-1.49183 2.434348,-2.48743 2.471752,-2.61095 z m 41.135849,-43.57413 c -0.118829,0.07 -0.206058,0.0337 -0.353771,-0.14705 -0.107835,-0.13195 -0.236319,-0.21819 -0.285552,-0.19161 -0.04923,0.0266 -0.194481,0.0701 -0.322796,0.0969 -0.323244,0.0673 -5.478058,5.3496 -5.526784,5.66343 -0.02765,0.17807 0.0135,0.16961 0.315902,-0.0649 0.596716,-0.46279 3.207821,-2.70537 4.113215,-3.5327 0.475287,-0.4343 1.013639,-0.88822 1.196355,-1.0087 0.345583,-0.22786 1.140493,-0.97854 0.86342,-0.81539 z m -14.001395,10.14398 c 0.120651,-0.34062 0.154101,-0.37347 0.588448,-0.57809 0.54294,-0.25574 1.474578,-1.21906 1.68007,-1.73723 0.11121,-0.2804 0.218148,-0.38044 0.867081,-0.81115 0.520781,-0.34564 0.756363,-0.54842 0.794646,-0.68402 0.04563,-0.16162 0.0027,-0.15612 -0.265924,0.0342 -0.528443,0.37427 -0.728041,0.47303 -3.823442,1.89186 -1.637209,0.75045 -3.06223,1.41849 -3.166713,1.48455 -0.188661,0.11929 -0.184386,0.12571 0.620133,0.93022 0.679979,0.67998 0.805088,0.84238 0.778903,1.01105 -0.0982,0.63251 1.652971,-0.76838 1.926783,-1.54138 z m -3.551023,2.47575 c 0.0382,-0.0801 -0.116285,-0.28855 -0.492878,-0.66514 -0.663816,-0.66382 -0.867769,-0.70586 -1.199902,-0.24728 -0.119996,0.16568 -1.125535,1.21776 -2.23453,2.33794 l -2.01635,2.03672 0.555046,0.59529 c 0.305276,0.3274 0.620438,0.6014 0.700362,0.60888 0.105662,0.01 0.757571,-0.60903 2.388977,-2.26808 1.234024,-1.25491 2.268692,-2.33416 2.299283,-2.39833 z"
       id="path901"
       inkscape:connector-curvature="0"
       sodipodi:nodetypes="ccscsccccscccccscscscssscccssccsccsccsccccscccssssscccccssccscccscscsccccccccccccccccsccsscsccsccccccccscccccscccccccccccccccccscsccccccscccccscsccsscccsccccccssccccccscscccccscccccsccccccccscccccccccscccccsccccsccccscccccccc" />
  </g>
</svg>
