<?xml version="1.0" encoding="UTF-8" standalone="no"?>
<!-- Created with Inkscape (http://www.inkscape.org/) -->

<svg
   xmlns:dc="http://purl.org/dc/elements/1.1/"
   xmlns:cc="http://creativecommons.org/ns#"
   xmlns:rdf="http://www.w3.org/1999/02/22-rdf-syntax-ns#"
   xmlns:svg="http://www.w3.org/2000/svg"
   xmlns="http://www.w3.org/2000/svg"
   xmlns:sodipodi="http://sodipodi.sourceforge.net/DTD/sodipodi-0.dtd"   
   width="220"
   height="235"
   viewBox="0 0 58.208331 62.177086"
   version="1.1"
   id="svg8"   
   sodipodi:docname="stoner.svg">   
  <defs
     id="defs2" />
  <sodipodi:namedview
     id="base"
     pagecolor="#000000"
     bordercolor="#666666"
     borderopacity="1.0"
     showgrid="false"
     fit-margin-top="0"
     fit-margin-left="0"
     fit-margin-right="0"
     fit-margin-bottom="0"
     units="px" />
  <metadata
     id="metadata5">
    <rdf:RDF>
      <cc:Work
         rdf:about="">
        <dc:format>image/svg+xml</dc:format>
        <dc:type
           rdf:resource="http://purl.org/dc/dcmitype/StillImage" />
        <dc:title></dc:title>
      </cc:Work>
    </rdf:RDF>
  </metadata>
  <g
     id="layer1"
     transform="translate(56.057826,-205.94221)">
    <path
       style="fill:none;stroke:#ffffff;stroke-width:0.4;stroke-opacity:1;stroke-miterlimit:4;stroke-dasharray:none"
       d="m -15.547032,245.30969 c -0.01062,-0.14271 -0.05953,-0.34481 -0.108674,-0.44915 -0.04915,-0.10433 -0.03392,-0.20289 0.03384,-0.21903 0.06924,-0.0164 0.05607,-0.0595 -0.03015,-0.0983 -0.08435,-0.0379 -0.373431,-0.36268 -0.64241,-0.72173 -0.268982,-0.35907 -0.688175,-0.89817 -0.931543,-1.19801 -0.243368,-0.29985 -0.468945,-0.63233 -0.501281,-0.73885 -0.03233,-0.1065 -0.209112,-0.37955 -0.39284,-0.60678 -0.470853,-0.5823 -0.98166,-1.35569 -1.045079,-1.58231 -0.07579,-0.2708 -1.383249,-1.4178 -1.757146,-1.54148 -0.171085,-0.0566 -0.413526,-0.20627 -0.538759,-0.33261 -0.151775,-0.15314 -0.341586,-0.216 -0.569298,-0.18856 -0.639974,0.0772 -0.651414,-0.14009 -0.04076,-0.77418 1.048246,-1.0885 1.100228,-1.16726 1.052456,-1.59484 -0.04439,-0.39729 -0.04146,-0.40182 0.886877,-1.36818 0.512269,-0.5333 1.238487,-1.31952 1.6138,-1.74722 0.375307,-0.42771 0.756864,-0.85367 0.8479,-0.94657 0.0915,-0.0935 0.123174,-0.24689 0.07076,-0.3434 -0.05211,-0.0959 0.07088,0.006 0.273292,0.22582 0.312714,0.34013 0.386897,0.37793 0.493428,0.25151 0.09288,-0.11022 0.151124,-0.0987 0.224632,0.0445 0.13174,0.2565 0.603658,0.0742 0.569172,-0.21989 -0.02734,-0.23312 0.117183,-0.4049 0.238038,-0.28297 0.0549,0.0554 0.162482,-0.0192 0.294546,-0.20439 l 0.208052,-0.29165 0.748943,0.80515 c 1.066836,1.14692 1.250422,1.25615 1.648897,0.98114 0.416341,-0.28734 0.432019,-0.51027 0.07059,-1.00356 -0.276413,-0.37729 -0.464499,-1.21647 -0.358683,-1.60036 0.02603,-0.0944 0.168627,-0.34404 0.316884,-0.55466 0.23261,-0.33045 0.244282,-0.41514 0.08515,-0.61783 -0.201726,-0.25695 -0.05135,-0.54312 0.16872,-0.32108 0.125244,0.12636 0.309813,-0.0443 2.8734237,-2.65673 1.7190131,-1.75176 2.7670744,-2.76402 2.813397,-2.71728 0.043204,0.0436 0.105256,-0.0304 0.1496561,-0.17823 0.04171,-0.13898 0.2194959,-0.35894 0.395077,-0.48878 0.5250896,-0.3883 0.4469067,-0.74729 -0.2574853,-1.18229 -0.1050292,-0.0648 -0.068649,-0.17533 0.1388302,-0.42153 0.3267549,-0.38777 0.3785631,-0.77551 0.1362663,-1.01997 -0.1565776,-0.15798 -0.1287195,-0.22254 0.3363496,-0.77953 0.2788972,-0.33397 1.1283971,-1.27658 1.8877991,-2.09463 1.6150071,-1.73973 1.5814349,-1.46028 0.3277704,-2.72836 l -0.8144167,-0.82377 0.2566429,-0.36421 c 0.1411445,-0.20032 0.665084,-0.7655 1.1642911,-1.25597 0.4992064,-0.49048 0.9732185,-0.9645 1.05333,-1.05344 0.08014,-0.089 0.6056809,-0.62647 1.16789595,-1.19457 0.96081826,-0.97113 1.02034925,-1.05143 0.99116057,-1.34197 -0.04439064,-0.44196 -0.79630358,-1.11412 -1.19858282,-1.07146 -0.3711263,0.0393 -1.727286,1.32578 -1.832173,1.73794 -0.054154,0.21282 -0.09483,0.2551 -0.1983558,0.20619 -0.1382801,-0.0654 -0.4632603,0.19404 -0.366054,0.29215 0.031544,0.0318 -0.5019167,0.62214 -1.1854654,1.31178 l -1.2428157,1.25389 -1.764224,-1.6924 c -0.9703236,-0.93083 -1.7777745,-1.69338 -1.7943395,-1.69459 -0.7419977,-0.0538 -1.3154057,0.41356 -1.3154067,1.07209 2e-6,0.22377 0.06617,0.47362 0.147047,0.55522 0.08087,0.0816 0.105199,0.15822 0.05405,0.17028 -0.08095,0.0191 1.9379771,1.9373 2.7986551,2.65905 0.3947921,0.33106 0.3803051,0.35563 -1.0805591,1.83216 l -1.155249,1.16789 -0.435629,-0.24724 c -0.428267,-0.24306 -0.441999,-0.2416 -0.812605,0.0867 -0.347721,0.30812 -0.397743,0.31921 -0.644708,0.14305 -0.290766,-0.2074 -0.637327,-0.0791 -0.570379,0.21116 0.03156,0.13683 -0.0084,0.17999 -0.210937,0.22797 -0.300299,0.0711 -0.510612,0.26326 -0.404886,0.36994 0.04207,0.0425 0.0076,0.14661 -0.07649,0.23148 -0.08413,0.0848 -0.18738,0.1196 -0.229444,0.0772 -0.105787,-0.10673 -0.351816,0.1609 -0.351806,0.3827 -3e-6,0.13988 -0.06912,0.20319 -0.298289,0.27318 -0.229158,0.07 -0.298279,0.13331 -0.298287,0.27318 -2e-6,0.22179 -0.246033,0.48943 -0.351807,0.38271 -0.105786,-0.10673 -0.351817,0.1609 -0.351806,0.38271 -2e-6,0.13987 -0.06764,0.20273 -0.29191,0.27123 -0.239895,0.0733 -0.295535,0.12862 -0.312392,0.31051 -0.01676,0.18192 -0.07206,0.23721 -0.30998,0.30983 -0.240514,0.0734 -0.304699,0.13898 -0.379034,0.38706 -0.06884,0.22937 -0.131414,0.29855 -0.270061,0.29855 -0.261447,0 -0.555526,0.3315 -0.417564,0.47069 0.06309,0.0637 0.08031,0.15046 0.03824,0.1929 -0.04207,0.0425 -0.128106,0.025 -0.191203,-0.0385 -0.145417,-0.14671 -0.448282,0.14602 -0.359401,0.34737 0.06776,0.15352 -0.009,0.23581 -0.344929,0.36988 -0.105632,0.0421 -0.258911,0.18931 -0.340631,0.32698 -0.08453,0.14245 -0.233225,0.25829 -0.344988,0.26877 -0.149871,0.0141 -0.228291,0.0961 -0.330908,0.34598 -0.109846,0.26755 -0.176877,0.33155 -0.36582,0.34925 -0.27995,0.0262 -0.256301,0.003 -0.2817,0.27954 -0.01683,0.18269 -0.09343,0.26485 -0.385178,0.4131 -0.200289,0.10182 -0.397687,0.26992 -0.438662,0.37362 -0.04097,0.10371 -0.176676,0.27643 -0.301561,0.38386 -0.1249,0.10741 -0.195786,0.22686 -0.157567,0.26543 0.03823,0.0385 0.01787,0.1222 -0.04522,0.18585 -0.06309,0.0637 -0.139379,0.0909 -0.16954,0.0604 -0.109429,-0.11041 -0.525803,0.26407 -0.459807,0.41356 0.08751,0.19824 -0.04563,0.31378 -0.313228,0.27187 -0.330014,-0.0517 -0.418414,0.27307 -0.148461,0.54542 0.159519,0.16095 0.19575,0.28895 0.122277,0.43203 -0.05742,0.11182 -0.03791,0.27041 0.0434,0.35244 0.140783,0.14202 0.08032,0.21721 -1.272184,1.58176 l -1.419992,1.43264 -0.186123,-0.23662 c -0.173918,-0.22108 -0.161012,-0.26504 0.196803,-0.66992 0.368152,-0.41658 0.374112,-0.44036 0.154539,-0.61572 -0.191893,-0.15326 -0.273123,-0.14392 -0.508324,0.0584 -0.153973,0.13242 -0.444285,0.33624 -0.645155,0.45292 -0.256802,0.14916 -0.404387,0.30307 -0.497137,0.51847 -0.07256,0.16849 -0.495858,0.7031 -0.940667,1.18798 -0.444822,0.48489 -0.936756,1.07554 -1.093213,1.31254 -0.334268,0.50635 -4.041058,4.30185 -4.249882,4.35158 -0.272153,0.0648 -1.725607,1.61367 -1.825981,1.94584 -0.074,0.24486 -0.122525,0.29925 -0.222344,0.24917 -0.07024,-0.0352 -0.176925,-0.0144 -0.237089,0.0463 -0.06016,0.0607 -0.139228,0.22728 -0.1757,0.37018 -0.05305,0.20785 -0.09237,0.24751 -0.196542,0.19829 -0.154048,-0.0727 -0.534558,0.27644 -0.42339,0.38861 0.04207,0.0425 0.0056,0.14866 -0.081,0.23604 -0.08661,0.0874 -0.169502,0.1075 -0.184197,0.0447 -0.01469,-0.0627 -0.0845,-0.0852 -0.155121,-0.0498 -0.208873,0.10463 -0.334843,0.39619 -0.220862,0.51118 0.05819,0.0587 0.03697,0.17618 -0.04716,0.26107 -0.08498,0.0857 -0.203951,0.10288 -0.267688,0.0385 -0.149718,-0.15105 -0.447015,0.1489 -0.35475,0.35791 0.09182,0.20801 -0.108114,0.40972 -0.257104,0.2594 -0.07138,-0.072 -0.186953,-0.0429 -0.305925,0.0772 -0.118972,0.12004 -0.147866,0.23663 -0.07649,0.30865 0.06374,0.0643 0.04674,0.18433 -0.03824,0.27007 -0.08498,0.0858 -0.203951,0.10289 -0.267687,0.0385 -0.07138,-0.0719 -0.186953,-0.0428 -0.305926,0.0772 -0.105161,0.1061 -0.156788,0.22763 -0.114723,0.27007 0.106544,0.1075 -0.11392,0.30906 -0.258342,0.23621 -0.182751,-0.0922 -0.521262,0.20899 -0.440504,0.39193 0.07854,0.17793 -0.09874,0.4191 -0.218928,0.29782 -0.04207,-0.0424 -0.162523,0.009 -0.267686,0.11575 -0.105162,0.1061 -0.156788,0.22763 -0.114722,0.27008 0.04207,0.0425 0.02486,0.12924 -0.03824,0.1929 -0.06309,0.0636 -0.149141,0.0811 -0.191206,0.0385 -0.04207,-0.0425 -0.162523,0.009 -0.267686,0.11574 -0.118972,0.12004 -0.147864,0.23664 -0.07649,0.30866 0.06374,0.0643 0.04674,0.18435 -0.03824,0.27007 -0.08498,0.0858 -0.203951,0.10288 -0.267686,0.0385 -0.07138,-0.072 -0.186953,-0.0429 -0.305926,0.0772 -0.123444,0.12454 -0.14829,0.2362 -0.07012,0.31508 0.0666,0.0672 0.0632,0.15057 -0.0076,0.18527 -0.07589,0.0372 -0.216534,-0.0451 -0.342799,-0.20052 -0.353767,-0.43549 -1.038824,-0.53008 -1.470711,-0.2031 -0.361461,0.27369 -0.431783,0.2603 -0.850376,-0.16201 -0.26731,-0.2697 -0.485202,-0.41067 -0.615805,-0.39843 -0.111168,0.0104 -0.339089,-0.0981 -0.506497,-0.24094 -0.273283,-0.23333 -0.330971,-0.23781 -0.564749,-0.0439 l -0.260377,0.21603 0.424556,0.52832 c 0.233507,0.29058 0.633394,0.7415 0.888636,1.00202 0.258005,0.26333 0.500453,0.60831 0.545986,0.77687 0.112043,0.41476 0.394838,0.68398 0.677473,0.64493 0.217153,-0.03 0.225584,-0.0222 0.108545,0.10041 -0.06968,0.0731 -0.182583,0.11967 -0.250645,0.10345 -0.07096,-0.0168 -0.50107,0.35121 -1.008208,0.86286 l -0.884456,0.89234 0.965453,0.91644 0.965449,0.91644 -0.906863,1.01414 c -0.498784,0.55777 -2.375108,2.5325 -4.169633,4.38829 l -3.262773,3.37414 -0.481011,-0.2433 c -0.893761,-0.45207 -0.958713,-0.43881 -1.630776,0.33268 -0.323739,0.37166 -0.619891,0.7365 -0.658094,0.8108 -0.07213,0.14026 0.04321,0.24752 1.665472,1.54865 0.374958,0.30074 1.096946,0.89181 1.604413,1.31349 0.507471,0.42168 1.556787,1.2728 2.331809,1.89139 0.775024,0.61858 1.801732,1.47633 2.281574,1.9061 0.980693,0.87836 1.060549,0.89504 1.613654,0.33702 0.489707,-0.49408 0.342568,-0.94306 -0.912494,-2.78434 -0.998064,-1.46424 -1.060387,-1.53603 -2.142171,-2.4674 -0.612811,-0.52759 -1.207989,-1.02091 -1.32262,-1.09623 l -0.208416,-0.13696 3.317846,-3.33014 c 1.824822,-1.83156 3.666773,-3.63784 4.093228,-4.01396 l 0.775377,-0.6838 0.695994,0.571 c 0.658482,0.54023 0.705879,0.56102 0.879539,0.38581 0.100946,-0.1018 0.145129,-0.22395 0.09817,-0.27132 -0.05962,-0.0602 0.151084,-0.30144 0.698547,-0.79991 1.020766,-0.92942 2.030804,-1.38265 3.229166,-1.44901 0.458577,-0.0253 0.885018,0.005 0.947647,0.0687 0.06264,0.0631 0.05883,0.128 -0.0084,0.14402 -0.06728,0.016 -0.05745,0.0583 0.02191,0.0939 0.131133,0.0589 0.418083,1.34994 0.973381,4.37937 0.111603,0.60888 0.289277,1.57549 0.394829,2.14803 0.105551,0.57254 0.199806,1.1445 0.209456,1.27103 0.02173,0.28496 0.259549,0.40039 0.654057,0.31749 0.3948,-0.083 2.805667,-1.52556 3.47095,-2.07694 0.511316,-0.42375 0.517674,-0.4357 0.367013,-0.68957 -0.08433,-0.14209 -0.281053,-0.34426 -0.437166,-0.44927 -0.224092,-0.15073 -0.342718,-0.38578 -0.563453,-1.11648 -0.162173,-0.53682 -0.225102,-0.94066 -0.14984,-0.96153 0.07136,-0.0199 0.07729,-0.0386 0.01317,-0.0419 -0.12043,-0.006 -0.344189,-0.64896 -0.308301,-0.8857 0.01117,-0.0736 0.134849,-0.2505 0.274863,-0.39306 l 0.254583,-0.25919 -0.444425,-0.33995 c -0.383176,-0.29311 -0.472502,-0.4263 -0.648151,-0.9665 l -0.203731,-0.62653 2.041271,-2.05947 c 1.613865,-1.62824 2.049377,-2.11219 2.080026,-2.31131 0.03394,-0.2206 -0.06073,-0.35008 -0.763076,-1.04345 -1.008125,-0.99526 -1.028726,-1.10281 -0.343576,-1.79407 0.420701,-0.42446 0.466488,-0.50856 0.344167,-0.63198 -0.182123,-0.18373 -0.158855,-0.63527 0.04324,-0.83916 0.199328,-0.2011 0.573481,0.009 0.754935,0.42366 0.08288,0.18946 0.39276,0.5277 0.832161,0.90835 0.646367,0.5599 0.718834,0.65726 0.944067,1.26825 0.243379,0.66022 0.247098,0.66471 1.565635,1.89171 1.484356,1.38129 2.556705,2.2485 2.999866,2.42597 0.305726,0.12244 0.584378,0.006 0.999801,-0.41836 0.421211,-0.43021 1.11498,-1.02939 1.274426,-1.10086 0.347889,-0.15593 0.577197,-0.34792 0.550716,-0.46108 -0.01694,-0.0724 0.03439,-0.12673 0.130682,-0.13839 0.08721,-0.0105 0.209545,-0.0719 0.271856,-0.13637 0.06223,-0.0645 0.363009,-0.31965 0.668202,-0.56709 0.476943,-0.3867 0.5522,-0.48637 0.535604,-0.70937 z m -13.512023,2.89787 c -0.155746,-0.0338 -0.301694,-0.0949 -0.324322,-0.13577 -0.02263,-0.0408 -0.07556,-0.0222 -0.117624,0.0415 -0.04206,0.0637 -0.110903,0.0637 -0.152963,0 -0.04207,-0.0636 -0.110899,-0.0811 -0.152962,-0.0385 -0.04207,0.0424 -0.206482,-0.054 -0.365365,-0.2143 -0.21762,-0.21955 -0.294576,-0.41793 -0.311956,-0.80413 -0.02223,-0.49381 -9.81e-4,-0.53691 0.576852,-1.17149 0.667267,-0.73276 1.085191,-0.94254 1.643897,-0.82512 0.469708,0.0988 0.946015,0.61999 0.885123,0.96871 -0.02692,0.15417 0.01793,0.3478 0.09968,0.43028 0.137974,0.13919 0.08964,0.20946 -0.674271,0.98018 -0.769476,0.77633 -0.841274,0.82625 -1.106089,0.7687 z m -0.867156,0.66796 c -0.374647,0.0192 -0.688309,-0.0461 -0.889788,-0.18515 -0.347838,-0.24006 -0.609798,-0.76466 -0.502834,-1.00697 0.05682,-0.12871 0.118637,-0.0895 0.34518,0.21937 0.338835,0.46187 0.752591,0.66122 1.396745,0.67293 0.697881,0.0127 0.408565,0.26103 -0.349311,0.29981 z"
       id="path888"       
       sodipodi:nodetypes="ccccccccscsccccccsscccsccscccccscsccccscccccscccccccscsccscscccccccssscccsccccccsssccccscccccsssccscsscsccccccccccsccssccssscsssssssccssssssssssscccscsccccccccsccccscccccsccssscccscsssccscccccscscccccccsccsccssscssssccccccccccccssscccsscccccccc" />
  </g>
</svg>
