<?xml version="1.0" encoding="UTF-8" standalone="no"?>
<!-- Created with Inkscape (http://www.inkscape.org/) -->

<svg
   xmlns:dc="http://purl.org/dc/elements/1.1/"
   xmlns:cc="http://creativecommons.org/ns#"
   xmlns:rdf="http://www.w3.org/1999/02/22-rdf-syntax-ns#"
   xmlns:svg="http://www.w3.org/2000/svg"
   xmlns="http://www.w3.org/2000/svg"
   xmlns:sodipodi="http://sodipodi.sourceforge.net/DTD/sodipodi-0.dtd"   
   width="220"
   height="235"
   viewBox="0 0 58.208331 62.177086"
   version="1.1"
   id="svg8"   
   sodipodi:docname="zb26.svg">
  <defs
     id="defs2" />
  <sodipodi:namedview
     id="base"
     pagecolor="#000000"
     bordercolor="#666666"
     borderopacity="1.0"
     showgrid="false"
     fit-margin-top="0"
     fit-margin-left="0"
     fit-margin-right="0"
     fit-margin-bottom="0"
     units="px" />
  <metadata
     id="metadata5">
    <rdf:RDF>
      <cc:Work
         rdf:about="">
        <dc:format>image/svg+xml</dc:format>
        <dc:type
           rdf:resource="http://purl.org/dc/dcmitype/StillImage" />
        <dc:title></dc:title>
      </cc:Work>
    </rdf:RDF>
  </metadata>
  <g
     id="layer1"
     transform="translate(56.057826,-205.94221)">
    <path
       style="fill:none;stroke:#ffffff;stroke-width:0.40000001;stroke-miterlimit:4;stroke-dasharray:none;stroke-opacity:1"
       d="m 0.49121269,236.2842 c 0.46443197,-0.55484 0.62003971,-0.80107 0.59183941,-0.93644 -0.03459,-0.16607 -0.15514265,-0.24475 -0.33460418,-0.21838 -0.21096061,0.031 -0.40505408,0.19416 -0.77820743,0.65424 -0.1781951,0.21969 -0.3601583,0.43704 -0.40436521,0.48301 l -0.0803758,0.0835 -0.73236668,-0.6988 c -0.4156505,-0.3966 -0.7248025,-0.71545 -0.7148825,-0.73726 0.024902,-0.0546 -0.4028917,-0.47248 -0.4681177,-0.45707 -0.037472,0.008 -0.3607181,-0.30459 -1.0478664,-1.01609 -0.546516,-0.5659 -2.2808188,-2.33202 -3.8539977,-3.92472 -1.5731768,-1.5927 -2.9048705,-2.96449 -2.9593145,-3.04845 -0.169582,-0.26152 -0.510857,-0.5597 -0.648382,-0.56655 -0.09871,-0.005 -0.126916,-0.025 -0.152411,-0.10935 -0.01721,-0.0568 -0.153432,-0.25527 -0.302719,-0.44096 -0.211673,-0.26327 -0.267542,-0.35968 -0.253766,-0.43787 0.03642,-0.20672 -0.01822,-0.27595 -0.426071,-0.53996 -0.357731,-0.23156 -0.390313,-0.26134 -0.440246,-0.40229 -0.02965,-0.0837 -0.03597,-0.22207 -0.01399,-0.3074 0.04166,-0.16194 -0.01211,-0.30198 -0.14605,-0.38039 -0.07612,-0.0444 -0.06151,-0.0633 0.443582,-0.57161 0.287322,-0.28898 0.607064,-0.62478 0.710666,-0.74608 0.103592,-0.12131 1.182278,-1.22947 2.3970717,-2.46261 1.5870762,-1.61104 2.2183887,-2.2324 2.2430968,-2.20768 0.044424,0.0443 0.1790692,-0.0898 0.1790829,-0.17837 0,-0.0489 0.029429,-0.0747 0.1040664,-0.0921 0.084705,-0.0196 0.1056641,-0.0412 0.1126299,-0.11615 0.00718,-0.0777 0.027222,-0.093 0.1272752,-0.098 0.111325,-0.005 0.1190607,-0.0127 0.1242596,-0.11719 0.005,-0.0994 0.014974,-0.11036 0.093342,-0.10312 0.1163363,0.0108 0.1764291,-0.0548 0.1492944,-0.16345 -0.02098,-0.0838 -0.017836,-0.087 0.066037,-0.0659 0.095382,0.0237 0.2143645,-0.066 0.1951601,-0.1473 -0.00728,-0.031 0.034725,-0.0601 0.1096984,-0.0755 0.1103644,-0.0229 0.121582,-0.0351 0.1215852,-0.13363 0,-0.10119 0.0054,-0.10678 0.082446,-0.0849 0.1032799,0.0292 0.1685112,-0.0329 0.1576212,-0.15022 -0.00759,-0.0816 -0.00124,-0.0881 0.068326,-0.0685 0.089731,0.0251 0.1867958,-0.0578 0.1867968,-0.1599 -1e-6,-0.0532 0.026098,-0.0715 0.1028952,-0.0715 0.1269578,0 0.1558314,-0.027 0.1457386,-0.13545 -0.00698,-0.0745 0.00322,-0.0846 0.084736,-0.0846 0.1185144,0 0.2399414,-0.12078 0.2298944,-0.2287 -0.0047,-0.0505 0.059241,-0.15804 0.1611229,-0.27121 0.1402704,-0.15583 0.1623759,-0.20432 0.1304303,-0.28627 -0.021154,-0.0541 -0.018928,-0.18388 0.005,-0.28804 0.028918,-0.12616 0.017462,-0.23783 -0.034319,-0.33444 -0.1110916,-0.20729 -0.095798,-0.39364 0.1088264,-1.32622 0.044809,-0.20419 0.093811,-0.38362 0.1088847,-0.39869 0.08535,-0.0852 0.2506138,-0.45615 0.217891,-0.48887 -0.028252,-0.0284 0.028919,-0.1 0.2119617,-0.26579 0.1553403,-0.14074 0.2506482,-0.25354 0.2506514,-0.29664 0,-0.0384 0.065433,-0.135 0.1453962,-0.21496 0.1018652,-0.10191 0.1693043,-0.2258 0.2252575,-0.414 0.1278808,-0.43009 0.192672,-0.49101 1.5341833,-1.4424 0.66802826,-0.47375 1.24490173,-0.89981 1.28194202,-0.94677 0.04822155,-0.0611 0.04763888,-0.14609 -0.0020806,-0.29907 -0.06124993,-0.18862 -0.11544564,-0.25995 -0.46185653,-0.6076 -0.43053119,-0.43219 -0.61779509,-0.55967 -0.84117429,-0.57301 -0.1412537,-0.008 -0.1539574,4.4e-4 -0.3038127,0.21226 -0.086017,0.12158 -0.2157859,0.30321 -0.2883753,0.40362 -0.072594,0.10049 -0.1448074,0.2122 -0.1604851,0.24843 -0.015672,0.0361 -0.07154,0.12188 -0.1241399,0.19039 -0.052592,0.0686 -0.1986825,0.27628 -0.3246226,0.46174 -0.1259392,0.18546 -0.2883838,0.41933 -0.3609846,0.51972 -0.072604,0.10049 -0.1871462,0.26895 -0.2545472,0.37456 -0.1559045,0.24427 -0.3463089,0.3817 -0.6759119,0.48789 -0.1771014,0.0572 -0.3328945,0.14527 -0.4819786,0.27291 -0.5750733,0.49239 -0.7693427,0.67717 -0.7588179,0.72177 0.00624,0.0265 -0.1424015,0.20171 -0.3302929,0.3896 l -0.3416188,0.34162 -0.2738319,-0.30807 -0.2738339,-0.30807 -0.390315,-0.0501 c -0.3277538,-0.042 -0.4088564,-0.0346 -0.5059894,0.0452 -0.2738246,0.22562 -0.2558596,0.33286 0.1338008,0.79872 0.3887603,0.46481 0.4280825,0.51537 0.4399539,0.56565 0.00666,0.0285 -0.072352,0.1362 -0.1756873,0.23954 -0.1651834,0.16518 -0.1825895,0.19941 -0.1440258,0.28323 0.1221313,0.15624 -0.036649,0.0346 -0.065817,0.0621 -0.08508,-0.0258 -0.1299663,-0.008 -0.2001155,0.0764 -0.072644,0.0883 -0.075923,0.12009 -0.016691,0.16192 0.070178,0.0496 0.066662,0.0523 -0.072812,0.0571 -0.1860807,0.006 -0.3064339,0.12016 -0.24252,0.22934 0.1209565,0.13272 -0.030434,0.0304 -0.061743,0.0617 -0.060033,-0.0106 -0.1420029,0.0135 -0.1821527,0.0537 -0.081936,0.0819 -0.086078,0.22472 -0.00678,0.23274 0.028533,0.003 -0.016274,0.009 -0.099555,0.0149 -0.1619637,0.0106 -0.2937188,0.10763 -0.2718557,0.20025 0.00738,0.0311 0.045225,0.0495 0.084164,0.0407 0.05999,-0.0133 0.064205,-0.009 0.027576,0.0284 -0.023799,0.0241 -0.080688,0.0385 -0.1264656,0.0313 -0.045776,-0.007 -0.1287123,0.0265 -0.1842981,0.0741 -0.082322,0.071 -0.089616,0.10241 -0.039282,0.1694 0.1586763,0.12855 -0.045147,0.0363 -0.080956,0.0651 -0.078503,-0.009 -0.168277,0.008 -0.1995025,0.0398 -0.072386,0.0724 -0.060012,0.21847 0.020668,0.24394 0.034018,0.0107 0.00584,0.0154 -0.062748,0.0105 -0.1746769,-0.0126 -0.3407584,0.0968 -0.310304,0.20474 0.017898,0.0633 0.0049,0.0856 -0.053456,0.0915 -0.1587325,0.0156 -0.3017258,0.19189 -0.2210924,0.27252 0.017294,0.0174 0.037701,0.005 0.045329,-0.0274 0.00916,-0.0387 0.019188,-0.0362 0.029376,0.007 0.011852,0.0502 -0.011675,0.0623 -0.099763,0.0515 -0.1058334,-0.0129 -0.197151,0.0319 -0.2889472,0.14242 -0.019637,0.0235 -0.00418,0.0743 0.034216,0.11285 0.1641417,0.11043 -0.026506,0.0248 -0.051974,0.0486 -0.162896,-0.0288 -0.3412981,0.16605 -0.2290681,0.25006 0.069781,0.0522 0.068266,0.0535 -0.050864,0.0434 -0.067548,-0.005 -0.161648,0.0133 -0.209097,0.0425 -0.09346,0.0574 -0.10555,0.20074 -0.01867,0.22125 0.02922,0.007 0.04153,0.024 0.02738,0.0384 -0.01417,0.014 -0.07173,0.0151 -0.127938,0.002 -0.06521,-0.0149 -0.136264,0.0104 -0.196293,0.0705 -0.09032,0.0904 -0.08554,0.12774 0.02844,0.22318 0.02824,0.0235 -0.0095,0.0261 -0.08378,0.005 -0.176761,-0.0496 -0.346893,0.1009 -0.279611,0.24712 0.122945,0.15903 -0.03394,0.0338 -0.0483,0.0481 -0.13006,-0.0675 -0.297297,0.099 -0.235157,0.23396 0.123178,0.15391 -0.03692,0.0369 -0.06299,0.0629 -0.0636,-0.0193 -0.136692,-0.002 -0.180539,0.0413 -0.07719,0.0772 -0.08906,0.22817 -0.01792,0.22817 0.02276,-1e-5 0.02828,0.013 0.01227,0.0292 -0.01603,0.0162 -0.07512,0.0186 -0.131328,0.005 -0.132816,-0.0307 -0.229125,0.0686 -0.204138,0.21032 0.01948,0.11055 0.01839,0.11177 -0.07502,0.0834 -0.08409,-0.0255 -0.138303,0.009 -0.24328,0.15773 -0.01076,0.0151 0.01196,0.0598 0.0505,0.0992 0.165905,0.10856 -0.02877,0.0316 -0.05261,0.0577 -0.19684,-0.0223 -0.38528,0.17644 -0.231923,0.24474 0.03514,0.0156 0.04918,0.0431 0.0312,0.0612 -0.01799,0.0181 -0.06999,0.0133 -0.115575,-0.0104 -0.121075,-0.0627 -0.284599,0.1105 -0.225526,0.23893 0.125442,0.14795 -0.03759,0.0427 -0.05697,0.0647 -0.112897,-0.034 -0.245568,0.0261 -0.268159,0.12176 -0.0083,0.0345 0.009,0.0688 0.03818,0.0754 0.02919,0.007 0.04784,0.0345 0.04146,0.0617 -0.0065,0.0272 -0.05569,0.0357 -0.109536,0.0196 -0.128085,-0.0389 -0.254997,0.0903 -0.229754,0.23348 0.01937,0.1099 0.0184,0.11096 -0.06231,0.0693 -0.05082,-0.0265 -0.122968,-0.0119 -0.189847,0.0379 -0.09083,0.0676 -0.0987,0.0956 -0.04976,0.17733 0.05803,0.0969 0.05796,0.097 -0.05729,0.0828 -0.166421,-0.0206 -0.269435,0.069 -0.221653,0.19263 0.04874,0.12618 0.02098,0.15894 -0.0872,0.10292 -0.119501,-0.0619 -0.270388,0.099 -0.218915,0.23335 0.120087,0.16008 -0.04327,0.0434 -0.06883,0.069 -0.140478,-0.0425 -0.287931,0.0952 -0.222146,0.20771 0.05952,0.1017 0.01842,0.14277 -0.08775,0.0877 -0.122055,-0.0632 -0.277303,0.10375 -0.208841,0.22459 0.131868,0.14957 -0.03874,0.0345 -0.08246,0.0734 -0.105414,-0.0132 -0.146973,0.005 -0.196754,0.0886 -0.03471,0.0581 -0.04247,0.11028 -0.01723,0.11624 0.02523,0.006 0.04065,0.0329 0.03428,0.0601 -0.0065,0.0272 -0.05568,0.0357 -0.109536,0.0196 -0.127654,-0.0387 -0.244585,0.0812 -0.212922,0.21813 0.105303,0.15996 -0.05679,0.0568 -0.08799,0.088 -0.146789,-0.0257 -0.241493,0.0719 -0.200557,0.20714 0.114945,0.16284 -0.05228,0.0524 -0.08358,0.0837 -0.10767,-0.0217 -0.295714,0.0947 -0.242465,0.15026 0.01273,0.0131 0.03062,0.0577 0.03982,0.0984 0.01385,0.0615 -0.0062,0.0719 -0.115557,0.0604 -0.09773,-0.0104 -0.14454,0.009 -0.179247,0.0768 -0.02584,0.0499 -0.0267,0.11095 -0.0018,0.13572 0.06559,0.0654 -1.67e-4,0.11045 -0.11221,0.0765 -0.125561,-0.0381 -0.221846,0.0611 -0.196908,0.20268 0.100085,0.16018 -0.0691,0.0691 -0.111873,0.11185 -0.166555,0 -0.195973,0.0307 -0.17013,0.17737 0.02015,0.1144 0.01764,0.11752 -0.0817,0.1021 -0.152726,-0.0236 -0.26213,0.0921 -0.205716,0.21768 0.04707,0.1048 -0.01931,0.16413 -0.09686,0.0864 -0.02291,-0.0228 -0.08512,-0.0121 -0.138243,0.0238 -0.07517,0.051 -0.08757,0.0898 -0.0559,0.17438 0.04969,0.13285 0.02113,0.16944 -0.08415,0.1078 -0.108761,-0.0636 -0.252395,0.08 -0.188727,0.18873 0.05973,0.1021 0.0058,0.15619 -0.10098,0.101 -0.113444,-0.0589 -0.258933,0.0867 -0.195339,0.19535 0.05923,0.10119 0.01962,0.14075 -0.103477,0.10343 -0.120651,-0.0365 -0.2532,0.0769 -0.145781,0.12464 0.0487,0.0216 0.05291,0.037 0.01288,0.0463 -0.03274,0.007 -0.04455,0.0291 -0.02624,0.0475 0.01833,0.0184 0.01209,0.0544 -0.01387,0.0805 -0.02595,0.0259 -0.06758,0.0269 -0.09252,0.002 -0.02493,-0.0249 -0.06954,-0.0397 -0.09911,-0.0326 -0.08579,0.0203 -0.173423,0.20046 -0.122325,0.25156 0.06913,0.0692 -0.0098,0.12266 -0.101582,0.069 -0.10876,-0.0636 -0.252394,0.08 -0.188725,0.18874 0.06341,0.10831 0.01156,0.14646 -0.119203,0.0877 -0.06892,-0.0309 -0.133006,-0.0241 -0.175586,0.0184 -0.04768,0.0478 -0.04754,0.0756 4.87e-4,0.0971 0.03874,0.0174 0.04609,0.0351 0.01723,0.0419 -0.02767,0.006 -0.02824,0.0338 -0.0012,0.0609 0.07963,0.0797 -0.02986,0.14174 -0.136877,0.0777 -0.06488,-0.0389 -0.120309,-0.0371 -0.1628,0.005 -0.05105,0.0511 -0.04609,0.0753 0.0239,0.11764 0.04858,0.0293 0.06251,0.0435 0.03098,0.0319 -0.08193,-0.0304 -0.126252,0.0286 -0.04778,0.0634 0.0406,0.0182 0.04694,0.0476 0.01685,0.0777 -0.02663,0.0267 -0.09021,0.0266 -0.141283,-2.5e-4 -0.184696,-0.0969 -0.359628,0.0199 -0.189061,0.12616 0.06796,0.0423 0.08123,0.0614 0.03659,0.0524 -0.05659,-0.0112 -0.06412,-7.4e-4 -0.0393,0.0549 0.04665,0.10474 -0.0065,0.12634 -0.150372,0.0613 -0.166435,-0.0751 -0.240893,-7.7e-4 -0.162186,0.1622 0.07811,0.1617 0.03591,0.20392 -0.125815,0.12581 -0.06999,-0.0337 -0.143159,-0.0455 -0.162596,-0.0261 -0.0515,0.0515 -0.0432,0.20722 0.0141,0.26451 0.08974,0.0898 -0.03474,0.13747 -0.152985,0.0588 -0.09368,-0.0624 -0.127622,-0.0617 -0.176929,0.004 -0.04379,0.0584 -0.0394,0.10844 0.01552,0.17767 0.104667,0.13189 0.02442,0.19358 -0.136081,0.10461 -0.184325,-0.1022 -0.292068,0.005 -0.162637,0.16266 0.06936,0.0841 0.07719,0.12725 0.03145,0.17298 -0.04206,0.042 -0.08296,0.0392 -0.132168,-0.009 -0.03916,-0.0388 -0.10602,-0.0781 -0.148514,-0.0874 -0.110999,-0.0244 -0.140378,0.13797 -0.04652,0.25731 0.100737,0.12804 0.02409,0.18545 -0.134058,0.10049 -0.07165,-0.0386 -0.148647,-0.0602 -0.171128,-0.0481 -0.07778,0.0419 -0.0723,0.1636 0.01113,0.24703 0.117514,0.11751 -0.0032,0.19007 -0.147379,0.0886 -0.16187,-0.11407 -0.250354,-0.0276 -0.158426,0.15498 0.07916,0.15714 0.02736,0.28014 -0.0749,0.17787 -0.08412,-0.084 -0.192306,-0.12737 -0.228365,-0.0914 -0.05151,0.0515 -0.03354,0.20687 0.03145,0.27185 0.113799,0.11381 0.01842,0.19131 -0.119403,0.0969 -0.06976,-0.0479 -0.149869,-0.0814 -0.178003,-0.0746 -0.07827,0.0186 -0.07541,0.17103 0.0045,0.25113 0.06914,0.0693 0.05594,0.19348 -0.02055,0.19349 -0.02069,0 -0.0689,-0.0313 -0.107147,-0.0696 -0.09246,-0.0925 -0.221933,-0.0816 -0.221933,0.0187 0,0.0407 0.03104,0.10503 0.06898,0.14297 0.03795,0.0381 0.05674,0.0964 0.0418,0.13001 -0.03378,0.0757 -0.08577,0.0778 -0.157811,0.005 -0.03048,-0.0305 -0.103654,-0.0553 -0.162611,-0.0553 -0.100979,0 -0.102865,0.0107 -0.03241,0.18518 0.0868,0.21499 0.05419,0.27747 -0.09496,0.18194 -0.177165,-0.11349 -0.213404,-0.12622 -0.224569,-0.079 -0.0061,0.0248 -0.0493,0.0419 -0.09646,0.0376 -0.04714,-0.004 -0.10896,0.0147 -0.137381,0.0427 -0.04522,0.0442 -0.04991,0.0406 -0.03754,-0.0295 0.01136,-0.0643 0.0048,-0.0639 -0.03257,0.002 -0.08271,0.14638 -0.359577,0.0884 -1.352782,-0.28344 -0.713262,-0.26701 -1.005767,-0.35476 -1.144649,-0.34341 -0.102607,0.008 -0.173488,0.001 -0.157518,-0.0156 0.01596,-0.0171 -0.116556,-0.008 -0.294504,0.0201 -0.177947,0.028 -0.367934,0.0465 -0.422193,0.0413 -0.05426,-0.005 -0.143824,0.004 -0.199034,0.0211 -0.09332,0.0285 -0.09297,0.0313 0.0045,0.0413 0.191677,0.0196 -0.02831,0.0568 -0.385839,0.0652 -0.18015,0.004 -0.376178,0.037 -0.435607,0.0727 -0.08158,0.0491 -0.127172,0.0456 -0.186112,-0.013 -0.04287,-0.0428 -0.137931,-0.078 -0.211148,-0.078 -0.113791,0 -0.153729,0.0263 -0.275031,0.18105 -0.384973,0.49122 -0.489137,0.60421 -0.544799,0.59108 -0.03153,-0.007 -0.08918,0.0185 -0.128204,0.0574 -0.03902,0.0391 -0.260441,0.13235 -0.492111,0.20748 -0.557577,0.18081 -0.664154,0.24112 -2.39058,1.35291 -0.389362,0.25075 -0.770743,0.49216 -0.84752,0.53648 -0.214114,0.12362 -0.858331,0.5415 -0.90185,0.58501 -0.07669,0.0767 0.01894,0.36182 0.247602,0.73898 0.496763,0.81924 0.664248,0.99526 0.866146,0.91031 0.06452,-0.0273 0.272005,-0.14937 0.461144,-0.27163 0.615893,-0.3981 1.945296,-1.24671 2.380652,-1.51966 0.330965,-0.20752 0.562988,-0.3942 1.045819,-0.84145 0.674935,-0.62523 0.70094,-0.64067 1.190575,-0.70638 0.308518,-0.0414 0.476737,-0.1836 0.437882,-0.37013 -0.03004,-0.14422 0.104863,-0.26476 0.292044,-0.26096 0.06318,0.001 0.135027,-0.0179 0.159661,-0.0424 0.02463,-0.0245 0.155164,-0.0425 0.290068,-0.0399 0.134904,0.003 0.304755,-0.0237 0.377447,-0.059 0.0727,-0.035 0.163361,-0.0456 0.201486,-0.0231 0.03813,0.0222 0.221468,0.21228 0.407421,0.42214 0.185955,0.20987 0.354633,0.37449 0.37483,0.36583 0.07083,-0.0304 0.114794,0.0638 0.104869,0.22493 -0.0074,0.11795 -0.01291,0.12956 -0.02059,0.0423 -0.015,-0.1706 -0.04272,-0.17891 -0.09045,-0.0272 -0.02276,0.0724 -0.05802,0.14847 -0.07838,0.16901 -0.02037,0.0206 -0.0183,0.0734 0.0044,0.11764 0.02287,0.044 0.01484,0.11587 -0.01785,0.15939 -0.04512,0.0602 -0.0372,0.10611 0.03295,0.19123 0.0765,0.0928 0.0792,0.12527 0.01572,0.18873 -0.06662,0.0666 -0.09103,0.0622 -0.186733,-0.0334 -0.08827,-0.0883 -0.122276,-0.0979 -0.171572,-0.0487 -0.04536,0.0453 -0.03804,0.0957 0.02795,0.19223 0.06473,0.0945 0.07302,0.14717 0.03004,0.19016 -0.0405,0.0405 -0.0821,0.0372 -0.130663,-0.0108 -0.09969,-0.0982 -0.209257,-0.11462 -0.244112,-0.0364 -0.0182,0.0409 0.0054,0.0939 0.06126,0.13891 0.05904,0.0475 0.0815,0.10323 0.06432,0.15997 -0.03026,0.1 -0.05404,0.0987 -0.227914,-0.0138 -0.160607,-0.10384 -0.254872,-0.003 -0.12388,0.13237 0.07778,0.0805 0.09156,0.19871 0.03056,0.2623 -0.0124,0.0128 -0.06996,-0.007 -0.127963,-0.0439 -0.172488,-0.11047 -0.206763,-0.12351 -0.239331,-0.091 -0.01706,0.0172 0.0085,0.0888 0.05665,0.15917 0.123751,0.18091 0.02271,0.36539 -0.121256,0.22141 -0.092,-0.092 -0.192234,-0.12374 -0.239989,-0.0759 -0.02729,0.0274 -0.0097,0.078 0.04669,0.13432 0.0959,0.0959 0.109464,0.24999 0.02378,0.27023 -0.02814,0.006 -0.109397,-0.0279 -0.180585,-0.0764 -0.170171,-0.11641 -0.228178,-0.0496 -0.116888,0.13482 0.06571,0.10882 0.07246,0.16345 0.02591,0.20999 -0.04758,0.0477 -0.09295,0.0405 -0.186226,-0.029 -0.155487,-0.11582 -0.247355,-0.0759 -0.15561,0.0676 0.120415,0.18832 0.125057,0.20968 0.05973,0.27501 -0.03981,0.0399 -0.08471,0.0431 -0.119136,0.009 -0.03039,-0.0302 -0.116933,-0.0741 -0.192324,-0.0979 -0.07545,-0.0236 -0.156424,-0.0624 -0.180066,-0.0859 -0.04818,-0.0483 -0.145695,0.003 -0.370789,0.19727 -0.08429,0.0724 -0.206809,0.148 -0.272336,0.16785 -0.06556,0.0199 -0.183624,0.10672 -0.26244,0.19309 -0.09658,0.10578 -0.175134,0.157 -0.240848,0.157 -0.06733,0 -0.158546,0.061 -0.294907,0.19737 -0.11737,0.11738 -0.258258,0.21773 -0.347582,0.2476 -0.109347,0.0366 -0.186207,0.0978 -0.282598,0.22483 -0.0899,0.11854 -0.169359,0.18492 -0.247434,0.20664 -0.06327,0.0177 -0.209848,0.12119 -0.32572,0.23021 -0.11587,0.10902 -0.287685,0.25636 -0.381797,0.32743 -0.10916,0.0824 -0.173782,0.15774 -0.178453,0.20805 -0.01269,0.13674 -0.569877,0.28455 -0.67528,0.17915 -0.0181,-0.0182 -0.04704,-0.0188 -0.06431,-0.001 -0.01728,0.0174 -0.04756,0.0153 -0.06733,-0.004 -0.0513,-0.0513 -0.21808,-0.0204 -0.295616,0.0546 -0.03642,0.035 -0.06306,0.1248 -0.05942,0.19899 0.01779,0.36059 -0.0952,0.65853 -0.331578,0.87433 -0.0951,0.0868 -0.190889,0.15365 -0.212773,0.14848 -0.02185,-0.005 -0.154664,0.10825 -0.295084,0.25206 -0.140409,0.14376 -0.403848,0.38866 -0.585434,0.54418 l -0.33013,0.28276 -0.09846,-0.13002 c -0.05411,-0.0715 -0.594081,-0.72428 -1.199868,-1.45059 -0.605798,-0.72629 -1.313774,-1.57529 -1.57328,-1.88669 -1.274302,-1.52901 -1.809183,-2.15439 -1.982027,-2.31732 -0.170857,-0.16105 -0.200087,-0.17357 -0.301474,-0.1289 -0.126548,0.0557 -1.301296,0.80086 -3.328445,2.11115 -1.172095,0.75759 -1.382505,0.90704 -1.44618,1.02711 -0.05526,0.10422 -0.127401,0.1716 -0.279266,0.26091 -0.112615,0.066 -0.208891,0.13796 -0.213959,0.15939 -0.005,0.0214 0.07128,0.11956 0.169722,0.21806 0.09846,0.0985 0.936263,1.06367 1.861912,2.1448 2.220263,2.59324 2.353816,2.74982 2.924732,3.42902 0.268623,0.31958 0.513091,0.60589 0.543269,0.63628 0.0434,0.0433 0.02778,0.0823 -0.07305,0.18317 -0.118224,0.11822 -0.120888,0.13158 -0.03507,0.17606 0.08044,0.0416 0.08096,0.0493 0.004,0.0565 -0.06213,0.006 -0.082,0.0223 -0.06576,0.0547 0.0128,0.0255 -0.167266,-0.007 -0.400165,-0.0739 -0.232897,-0.0663 -0.423463,-0.1309 -0.423452,-0.14354 0,-0.0126 0.174572,0.0292 0.387937,0.0928 0.213365,0.0636 0.387927,0.1064 0.387927,0.0948 0,-0.0115 -0.144311,-0.0893 -0.320683,-0.17268 -0.477919,-0.22612 -0.980145,-0.33792 -1.078056,-0.24 -0.04017,0.0402 0.225271,0.25992 0.369134,0.30574 0.04652,0.0147 0.279257,0.11789 0.517243,0.22906 0.449634,0.21005 0.565704,0.31602 0.546515,0.49888 -0.0074,0.0688 -0.01332,0.0753 -0.02518,0.0279 -0.0084,-0.0345 -0.02914,-0.0495 -0.04568,-0.0329 -0.01644,0.0166 -0.01769,0.0574 -0.003,0.091 0.01489,0.0334 -0.0207,0.12831 -0.07919,0.2106 -0.05911,0.0832 -0.08866,0.16737 -0.0664,0.18959 0.02768,0.0278 -0.01821,0.1 -0.14892,0.23428 -0.434535,0.33146 0.004,0.61395 -0.08534,0.7382 -0.06098,0.0819 -0.0206,0.18223 0.185685,0.46137 0.240807,0.57236 0.118879,0.21408 -0.01842,0.0718 -0.05474,-0.0546 -0.158046,0.0443 -2.49596,2.39517 -1.341371,1.34878 -2.54716,2.57839 -2.679525,2.73251 l -0.240661,0.28023 0.07503,0.22923 c 0.04132,0.12609 0.06951,0.25259 0.06275,0.2811 -0.0064,0.0286 0.0435,0.10764 0.111719,0.17582 0.08918,0.0893 0.110731,0.13719 0.0768,0.17115 -0.02591,0.0259 -0.06119,0.0263 -0.07825,3.3e-4 -0.04048,-0.061 -0.112738,0.0302 -0.563041,0.71085 -0.81346,1.22962 -0.882026,1.32078 -1.114268,1.48175 -0.11917,0.0826 -0.393909,0.24394 -0.610533,0.35859 -0.429769,0.22746 -0.657245,0.42827 -1.080198,0.95354 -0.131179,0.1629 -0.336397,0.41064 -0.456034,0.5505 -0.119638,0.13987 -0.317084,0.38119 -0.438761,0.53632 -0.892931,1.13832 -1.254489,1.56701 -1.327354,1.57377 -0.163717,0.0151 -1.997136,1.63022 -3.179824,2.80103 -1.067286,1.05657 -1.128431,1.11112 -1.240766,1.10714 -0.110781,-0.004 -0.137733,0.0194 -0.432005,0.37218 -0.214968,0.2578 -0.324212,0.42282 -0.34676,0.52381 -0.07055,0.31579 -0.08013,0.56555 -0.02675,0.69441 0.0307,0.0739 0.05578,0.20038 0.05578,0.28082 0,0.19857 0.03143,0.21793 0.273949,0.16859 0.114997,-0.0233 0.217778,-0.0337 0.228402,-0.023 0.01072,0.0107 0.0052,0.089 -0.01114,0.17364 -0.04568,0.23114 0.04246,0.47203 0.287477,0.78613 0.232784,0.29833 0.381985,0.42277 0.542821,0.45275 0.05868,0.0109 0.135352,0.0696 0.189567,0.14469 0.06827,0.0946 0.131158,0.13235 0.251119,0.15031 0.11025,0.0167 0.178234,0.0542 0.218485,0.12158 0.03934,0.0657 0.118305,0.11173 0.241691,0.14086 0.100838,0.0237 0.241076,0.0956 0.311733,0.15984 0.07066,0.064 0.178714,0.1191 0.240119,0.12216 0.0614,0.003 0.160576,0.0534 0.22038,0.11207 0.05984,0.0587 0.164342,0.12166 0.232315,0.14019 0.06795,0.0186 0.174467,0.0835 0.236643,0.14451 0.06213,0.061 0.161314,0.11751 0.220297,0.12569 0.059,0.008 0.157735,0.0634 0.219442,0.12285 0.06171,0.0595 0.167817,0.12314 0.235789,0.14166 0.06795,0.0186 0.170598,0.0798 0.228039,0.13591 0.05744,0.0561 0.161043,0.114 0.230224,0.12842 0.072,0.0149 0.144144,0.0616 0.168701,0.10902 0.02362,0.0455 0.10735,0.10334 0.186103,0.12841 0.07877,0.0249 0.190585,0.093 0.248527,0.15093 0.05796,0.0581 0.137027,0.10536 0.175717,0.10536 0.03871,0 0.145257,0.0673 0.23681,0.14941 0.20197,0.18128 0.69529,0.40812 1.030115,0.47364 0.174883,0.0341 0.279298,0.0263 0.360778,-0.0282 0.168108,-0.11186 0.722781,-1.00913 0.710273,-1.14901 -0.0054,-0.0605 0.0385,-0.20058 0.09752,-0.31143 0.059,-0.11084 0.218422,-0.44427 0.354221,-0.74098 0.135798,-0.29669 0.317092,-0.68157 0.40289,-0.85529 0.08574,-0.17371 0.233751,-0.50699 0.328801,-0.74063 0.095,-0.23365 0.317134,-0.7759 0.493505,-1.20502 0.766052,-1.86378 1.631844,-4.01151 1.888718,-4.68524 0.692762,-1.81694 1.215831,-2.92142 1.810703,-3.82337 0.212325,-0.32191 0.410372,-0.6399 0.440123,-0.70666 0.0463,-0.10385 0.07555,-0.12203 0.202793,-0.12601 l 0.148692,-0.004 1.001925,-1.03663 1.001925,-1.03665 0.143666,0.10968 c 0.0897,0.0686 0.345928,0.15862 0.681699,0.23988 0.295916,0.0716 0.637859,0.18097 0.759881,0.24301 0.2786,0.1417 0.53128,0.43209 1.052903,1.21005 1.029958,1.5361 1.449801,1.94204 2.015162,1.9484 0.462537,0.005 0.859371,-0.25045 1.583685,-1.02033 0.598794,-0.63648 0.74095,-0.88417 0.656973,-1.14465 -0.05036,-0.15623 -0.119721,-0.22845 -1.124736,-1.17143 -0.742585,-0.69675 -1.087046,-1.04103 -1.12327,-1.12256 -0.03548,-0.0802 -0.02342,-0.1982 0.03809,-0.37016 0.08825,-0.24678 0.0946,-0.25439 0.278436,-0.33767 0.509646,-0.23082 0.745561,-0.39508 1.051207,-0.73192 0.354158,-0.39032 0.443693,-0.5453 0.510551,-0.88378 0.07221,-0.36585 -0.01175,-0.61138 -0.330755,-0.96614 -0.309507,-0.34423 -0.367334,-0.49965 -0.272369,-0.73208 0.06202,-0.15189 0.05807,-0.18781 -0.03059,-0.27707 -0.08544,-0.0859 -0.09022,-0.11427 -0.02924,-0.17521 0.03996,-0.04 0.07367,-0.1649 0.07503,-0.27764 0.002,-0.18975 -0.01072,-0.21608 -0.173676,-0.35403 l -0.175987,-0.14904 0.117806,-0.15522 c 0.06472,-0.0852 1.273918,-1.31284 2.686977,-2.72775 l 2.569177,-2.57254 0.575194,0.54374 c 0.598697,0.56594 0.653518,0.60071 0.932717,0.59139 0.302395,-0.0104 0.610112,-0.46856 0.513079,-0.76443 -0.02601,-0.0794 -0.218991,-0.29714 -0.611565,-0.69034 l -0.573581,-0.57449 0.103332,-0.1012 c 0.125391,-0.12288 0.527512,-0.43305 0.669685,-0.51654 0.06928,-0.0407 0.10329,-0.0923 0.10329,-0.1566 0,-0.0822 0.206272,-0.307 1.44175,-1.57117 1.987703,-2.03388 2.013814,-2.06512 1.956369,-2.34091 -0.02423,-0.1163 -0.0062,-0.14802 0.205996,-0.36009 0.154042,-0.15404 0.249703,-0.22399 0.283329,-0.20719 0.03706,0.0186 0.199189,-0.12236 0.600252,-0.5216 l 0.549491,-0.54701 -0.104777,-0.12386 -0.104776,-0.12387 1.119887,-1.15718 c 2.474637,-2.55705 6.067311,-6.16566 6.178006,-6.20538 0.103384,-0.0373 0.121039,-0.0256 0.358327,0.23257 0.171529,0.18669 0.312447,0.30337 0.450594,0.37317 0.26457,0.13366 0.80646,0.72438 0.848133,0.92456 0.021,0.10089 0.108955,0.21614 0.369925,0.48476 0.225702,0.23234 0.534672,0.621 0.906714,1.14062 0.310391,0.4335 0.762329,1.05729 1.004311,1.38621 0.241981,0.32891 0.6304245,0.8605 0.8632094,1.18133 1.095403,1.50963 1.503889,2.05635 1.7150172,2.29539 0.1257653,0.1424 0.2230783,0.26447 0.2162594,0.27129 -0.00688,0.007 -0.1215936,0.0123 -0.2550593,0.0123 -0.2442943,0 -0.6144143,0.14205 -0.6647785,0.25513 -0.014932,0.0334 -0.015016,0.1191 -2.071e-4,0.19018 0.025682,0.1233 0.0405,0.13361 0.3216038,0.22357 0.1620762,0.0518 0.3365835,0.0971 0.3877956,0.10059 0.051208,0.003 0.1264543,0.0396 0.1672043,0.0804 0.040751,0.0408 0.1657464,0.10594 0.2777706,0.14488 0.1543966,0.0536 0.230548,0.0528 0.3147463,-0.003 0.061084,-0.0408 0.1209734,-0.0518 0.1330787,-0.0245 0.012102,0.0273 0.1356739,0.19906 0.2746017,0.38198 l 0.2525923,0.33257 -0.1808893,0.13981 c -0.099492,0.0769 -0.3435617,0.24608 -0.5423836,0.37594 -0.5626808,0.36757 -0.6827039,0.47226 -0.682705,0.59553 1.1e-6,0.0583 0.032186,0.13793 0.07152,0.17728 0.1348467,0.13485 0.3953109,0.0627 0.9114431,-0.25238 0.5032694,-0.30724 0.822249,-0.56752 1.6292727,-1.32954 0.654208,-0.61772 0.7129356,-0.68231 0.7129386,-0.78414 -1e-6,-0.0611 0.015672,-0.11095 0.034839,-0.11095 0.019168,0 0.1431945,0.0989 0.2756311,0.21938 0.1324376,0.12068 0.3545774,0.30379 0.4936458,0.40693 0.1390685,0.10312 0.3478615,0.28194 0.4639846,0.39737 0.2021299,0.20096 0.207538,0.21233 0.1266654,0.26698 -0.1178942,0.0798 -0.1953858,0.32344 -0.163355,0.51391 0.014839,0.0884 0.00666,0.18062 -0.018065,0.20539 -0.1002415,0.10029 0.084497,0.14148 0.2336771,0.0521 0.060542,-0.0364 0.1656288,-0.0542 0.2335282,-0.0402 0.1065058,0.0221 0.1375668,0.006 0.2262189,-0.11618 l 0.1027591,-0.14189 0.2346209,0.22951 c 0.129038,0.12623 0.2809339,0.26812 0.3375543,0.3153 0.1214894,0.10129 0.7568312,0.70405 0.831249,0.78865 0.066463,0.0754 -0.025078,0.16779 -0.7206839,0.72608 -0.5179096,0.41567 -0.536397,0.4345 -0.5214258,0.53094 0.014173,0.0913 0.071386,0.14496 0.2847238,0.26723 0.16325,0.0935 0.357127,-0.0279 1.21807177,-0.76236 0.67090765,-0.57243 0.97492846,-0.87041 1.37180339,-1.34454 z m -6.40199989,-1.8021 c -0.036484,6.7e-4 -0.6295071,-0.86473 -0.6362148,-0.92849 -0.00906,-0.086 -0.2556421,-0.4399 -0.4202136,-0.60298 -0.0715,-0.0708 -0.2127006,-0.28344 -0.3138566,-0.4725 -0.1011573,-0.18906 -0.4014869,-0.67821 -0.6673977,-1.08698 -0.4346415,-0.66819 -0.7230698,-1.11867 -1.1664026,-1.82178 l -0.1459635,-0.23147 0.223863,0.18503 c 0.1231255,0.1018 0.9745007,0.89231 1.8919452,1.75676 0.9174454,0.86444 1.8217969,1.70775 2.0096696,1.87402 l 0.3415897,0.30229 -0.5493868,0.51287 c -0.3021623,0.28206 -0.5575963,0.51303 -0.5676319,0.51323 z m -2.3042438,-0.76811 c -0.033591,-0.007 -0.072198,-0.0241 -0.085787,-0.0375 -0.038804,-0.0375 0.3173749,-0.13996 0.4607971,-0.13277 l 0.1292003,0.006 -0.2215664,0.0888 c -0.121863,0.0488 -0.2490518,0.0825 -0.2826436,0.0749 z m -25.74673,15.03459 c -0.337041,-0.12013 -0.490041,-0.4288 -0.431393,-0.87036 0.03444,-0.25889 0.04964,-0.28892 0.226363,-0.44421 0.348622,-0.30646 0.820714,-0.30161 1.133946,0.0116 0.08024,0.0803 0.128089,0.15751 0.109222,0.17637 -0.01873,0.0188 10e-4,0.0517 0.04578,0.0746 0.0437,0.0225 0.07378,0.0646 0.06701,0.0935 -0.0074,0.0323 -0.02529,0.0233 -0.0462,-0.0234 -0.02341,-0.0526 -0.04204,-0.008 -0.06056,0.14464 -0.02685,0.22196 -0.17043,0.54472 -0.327884,0.73722 -0.10354,0.1266 -0.49027,0.1806 -0.716373,0.10009 z m -0.267925,0.66176 c -0.125215,0.0514 -0.272075,0.054 -0.672822,0.0124 -0.11608,-0.012 -0.291005,-0.28438 -0.319727,-0.49776 -0.03673,-0.2727 0.07014,-0.51842 0.346075,-0.79602 l 0.230004,-0.23143 0.04214,0.27498 c 0.07451,0.4861 0.338405,0.77145 0.766499,0.82891 l 0.238684,0.032 -0.242431,0.15841 c -0.133332,0.0871 -0.308154,0.1854 -0.388477,0.21838 z m -9.901389,1.78348 c -0.0064,-0.006 -0.0064,-0.056 0,-0.11009 0.01071,-0.0892 0.01301,-0.0891 0.02373,0 0.01134,0.0934 0.002,0.13598 -0.02373,0.11009 z m 4.023236,-9.25241 c -0.01728,-0.0174 0.003,-0.0238 0.0462,-0.0148 0.04276,0.009 0.09188,0.0308 0.109129,0.0483 0.01728,0.0174 -0.003,0.0238 -0.0462,0.0148 -0.04266,-0.009 -0.09178,-0.0308 -0.109117,-0.0483 z m 13.297131,-13.87745 c -0.02516,-0.025 0.286249,-0.0619 0.450199,-0.053 0.09457,0.005 0.03614,0.0212 -0.13553,0.0376 -0.165948,0.0159 -0.307548,0.0226 -0.314669,0.0157 z"
       id="path903"       
       sodipodi:nodetypes="cccccccccccccccccccsccssccccccccccccccccscccccscssscscccccccccccccsscscccccscscccccccsccsccscccsccccsccscccccccscsccccccscscccccccsccccccccccccccccccccccccccccccccsccccccscccccccccssscssscsccssscccscccccccsscccccscccccsccsssccscssscscsccccccsccccccccscccscscsscccscccsscccccccccccssscsccccccccscssscccscssccsccccsccccccsssccccscccssccsccccsccscccccsccsccccsccscccccccccssccccccccccccccccccccccscccsccccccccsscccccccscccccccccccccscsccccccscsccccccscssccccscscccccscccccscccsccccssccccccscssscccccccsccccccccccccccccccccccccscccccccccssscccccccccccccccccccccccscscssccscc" />
  </g>
</svg>
