<?xml version="1.0" encoding="UTF-8" standalone="no"?>
<!-- Created with Inkscape (http://www.inkscape.org/) -->

<svg
   xmlns:dc="http://purl.org/dc/elements/1.1/"
   xmlns:cc="http://creativecommons.org/ns#"
   xmlns:rdf="http://www.w3.org/1999/02/22-rdf-syntax-ns#"
   xmlns:svg="http://www.w3.org/2000/svg"
   xmlns="http://www.w3.org/2000/svg"
   xmlns:sodipodi="http://sodipodi.sourceforge.net/DTD/sodipodi-0.dtd"   
   width="220"
   height="235"
   viewBox="0 0 58.208331 62.177086"
   version="1.1"
   id="svg8"   
   sodipodi:docname="kar98k.svg">
  <defs
     id="defs2" />
  <sodipodi:namedview
     id="base"
     pagecolor="#000000"
     bordercolor="#666666"
     borderopacity="1.0"
     showgrid="false"
     fit-margin-top="0"
     fit-margin-left="0"
     fit-margin-right="0"
     fit-margin-bottom="0"
     units="px" />
  <metadata
     id="metadata5">
    <rdf:RDF>
      <cc:Work
         rdf:about="">
        <dc:format>image/svg+xml</dc:format>
        <dc:type
           rdf:resource="http://purl.org/dc/dcmitype/StillImage" />
        <dc:title></dc:title>
      </cc:Work>
    </rdf:RDF>
  </metadata>
  <g
     id="layer1"
     transform="translate(56.057826,-205.94221)">
    <path
       style="fill:none;stroke:#ffffff;stroke-width:0.4;stroke-opacity:1;stroke-miterlimit:4;stroke-dasharray:none"
       d="m -44.124576,265.29235 c 0.618591,-1.31855 1.756108,-3.92672 2.543947,-5.83289 0.707496,-1.71178 2.314061,-5.1832 2.579882,-5.57453 0.229746,-0.33821 0.255218,-0.35804 0.849638,-0.66194 1.016375,-0.51959 1.200083,-0.80977 1.128461,-1.78249 -0.153218,-2.08091 0.0067,-2.89759 0.792839,-4.04866 0.144545,-0.21165 0.398575,-0.23046 0.578252,-0.0429 0.380561,0.39738 0.58901,0.50249 0.99654,0.50249 0.496464,0 0.833467,-0.20564 1.358075,-0.82869 0.444486,-0.5279 0.65355,-1.02119 0.610169,-1.4397 -0.02773,-0.26756 -0.07137,-0.35206 -0.360115,-0.69739 -0.395302,-0.47277 -0.479832,-0.76608 -0.26026,-0.90307 0.07373,-0.046 0.204782,-0.15069 0.291218,-0.23263 0.08643,-0.0819 0.191351,-0.15726 0.233149,-0.16742 0.136636,-0.0331 3.623749,-4.22325 3.741051,-4.49522 0.163169,-0.37833 0.914691,-1.26022 4.61777,-5.41889 0.646983,-0.72658 1.649577,-1.85336 2.227991,-2.50394 0.578411,-0.65059 1.339932,-1.5058 1.69227,-1.90047 0.352343,-0.39466 0.862332,-0.9691 1.133322,-1.27652 0.270993,-0.3074 0.984107,-1.11254 1.584706,-1.78915 0.600599,-0.67662 1.668248,-1.89647 2.37255,-2.71079 0.704303,-0.81434 1.306148,-1.50419 1.33743,-1.53301 0.40012,-0.36876 0.759025,-0.78204 0.76814,-0.88452 0.01431,-0.16088 2.141381,-2.48395 3.9398436,-4.30289 l 1.3141354,-1.32911 -0.081422,-0.24002 -0.081423,-0.24003 2.4976108,-2.63108 c 2.4655022,-2.59726 2.4965084,-2.63221 2.4119367,-2.72053 -0.084035,-0.0877 -0.1159355,-0.058 -1.675344,1.56034 l -1.5896846,1.64977 -0.2188734,-0.2007 -0.2188735,-0.20068 1.8127396,-1.84725 c 0.9970051,-1.016 1.945769,-2.01024 2.1083865,-2.20944 0.2919785,-0.35768 0.2946677,-0.36514 0.216837,-0.60201 -0.072069,-0.21932 -0.097753,-0.24795 -0.3004033,-0.33484 l -0.221598,-0.0951 -0.2691088,0.281 -0.2691101,0.28101 -0.3831618,-0.43671 c -0.5597113,-0.63791 -0.5580649,-0.63786 -1.1371315,-0.0332 l -0.4718387,0.4927 0.086475,0.2199 c 0.1035674,0.26338 0.545745,0.7416 0.6857017,0.7416 0.075712,0 0.082235,0.0404 0.027195,0.1684 -0.0984,0.22882 -4.081291,4.38383 -4.375195,4.56428 -0.326108,0.20023 -2.2193536,2.09691 -2.2193536,2.22339 10e-7,0.072 -0.427396,0.548 -1.463917,1.63035 -1.249006,1.30421 -1.481184,1.52694 -1.581488,1.51721 -0.06467,-0.007 -0.16226,0.0353 -0.216882,0.0923 -0.05462,0.057 -0.12937,0.0963 -0.166116,0.0873 -0.03819,-0.01 -0.355401,0.28417 -0.74064,0.68549 -0.37066,0.38603 -0.905144,0.92335 -1.187842,1.19393 -0.92736,0.88762 -4.932438,4.87899 -5.683881,5.66443 l -0.735253,0.76844 -0.139458,-0.0971 c -0.0767,-0.0534 -0.217871,-0.08 -0.313713,-0.0592 -0.161198,0.0351 -0.179263,0.0549 -0.241012,0.26573 -0.05948,0.20297 -0.180333,0.34357 -1.107272,1.28817 -1.190918,1.21361 -1.464175,1.46646 -1.584877,1.46646 -0.04737,0 -0.173761,0.0916 -0.280863,0.20367 -0.221309,0.23143 -0.332638,0.59383 -0.239899,0.78071 0.03495,0.0704 0.02384,0.16018 -0.02629,0.21253 -0.05023,0.0525 -0.06063,0.1373 -0.02468,0.20141 0.05898,0.10519 0.01547,0.16077 -0.863392,1.10283 -0.509025,0.54562 -0.939942,0.97692 -0.957582,0.95846 -0.01765,-0.0185 -0.08766,0.0244 -0.155589,0.0953 -0.08748,0.0913 -0.155022,0.1097 -0.23157,0.0629 -0.06466,-0.0395 -0.144089,-0.0284 -0.197742,0.0276 -0.105177,0.10982 -0.169303,0.0651 -0.153958,-0.10726 0.0061,-0.0673 -0.04549,-0.22981 -0.114412,-0.36111 -0.145351,-0.27689 -0.142286,-0.35192 0.02144,-0.52476 0.109396,-0.11558 0.106598,-0.13791 -0.03278,-0.25785 -0.144618,-0.12445 -0.160566,-0.12202 -0.303826,0.0462 -0.154067,0.18093 -0.272302,0.17852 -0.174742,-0.004 0.171986,-0.32099 0.367452,-0.53294 0.572633,-0.6209 0.171603,-0.0735 0.431152,-0.31143 1.171905,-1.07395 0.523324,-0.53868 0.95149,-1.00389 0.951485,-1.0338 -2.4e-5,-0.0299 0.110067,-0.16935 0.244614,-0.30983 0.187998,-0.19631 0.276536,-0.25056 0.38243,-0.23429 0.124171,0.0191 0.180454,-0.0287 0.569313,-0.48267 0.237334,-0.27711 0.431464,-0.53077 0.431396,-0.56369 -2.52e-4,-0.12274 -0.26082,-0.48739 -0.487919,-0.68285 -0.815327,-0.70173 -1.431192,-1.12406 -1.572074,-1.07803 -0.136601,0.0446 -0.912075,1.04861 -0.87299,1.13023 0.01882,0.0393 -0.371962,0.4665 -1.125861,1.23073 l -1.154701,1.17049 -0.279283,0.5901 c -0.272023,0.57477 -0.28358,0.59033 -0.444615,0.59872 -0.141074,0.008 -0.207279,0.0606 -0.451223,0.36252 -0.660007,0.81707 -0.995277,1.14869 -1.170551,1.15784 -0.142156,0.008 -0.228383,0.0777 -0.618275,0.50435 -0.24919,0.27264 -0.553081,0.65293 -0.675303,0.8451 -0.122218,0.19218 -0.331574,0.46429 -0.465235,0.60471 -0.133581,0.1405 -0.235654,0.28787 -0.226655,0.32768 0.03557,0.1573 -0.431908,0.54725 -0.837924,0.69897 -0.821451,0.30694 -1.375897,0.8547 -1.849141,1.82684 -0.177998,0.36565 -0.364178,0.66031 -0.520067,0.82309 -0.223753,0.23364 -0.270861,0.25474 -0.600018,0.26873 l -0.357205,0.0152 -0.691242,0.7218 c -0.43227,0.45137 -0.707283,0.70505 -0.734073,0.67707 -0.07058,-0.0736 -0.921668,0.84866 -0.948299,1.02772 -0.02088,0.14033 0.03596,0.2112 0.857022,1.06854 0.656177,0.6852 0.907131,0.91826 0.988752,0.91826 0.144992,2e-5 1.047132,-0.87026 1.047132,-1.01015 -2e-6,-0.0639 0.235402,-0.34484 0.663291,-0.79165 l 0.663291,-0.69261 0.03203,-0.3932 0.03203,-0.39321 0.838088,-0.85082 0.838089,-0.85082 0.363732,0.36688 c 0.454887,0.45883 0.615202,0.57087 0.884589,0.61817 0.19295,0.0339 0.237648,0.0129 0.457853,-0.21589 0.282204,-0.29299 0.452594,-0.36514 0.452596,-0.19144 -1e-6,0.0611 0.04433,0.15735 0.09851,0.21392 0.09489,0.0991 0.08549,0.11643 -0.255509,0.47117 -0.382023,0.39757 -0.434752,0.42578 -0.658347,0.35339 -0.10061,-0.0325 -0.186146,-0.007 -0.270546,0.0812 -0.06789,0.0709 -0.155606,0.11216 -0.19494,0.0917 -0.05686,-0.0295 -0.08191,-0.004 -0.122169,0.12587 -0.02841,0.0914 -0.269332,0.40648 -0.548117,0.71698 -0.273581,0.30471 -0.588345,0.6701 -0.699471,0.81198 -0.111132,0.14188 -0.207132,0.2355 -0.21334,0.20804 -0.0062,-0.0275 -0.05108,-0.0598 -0.09973,-0.0717 -0.06248,-0.0154 -0.229176,0.12281 -0.567777,0.4707 -0.357351,0.36717 -0.499491,0.48312 -0.558541,0.45566 -0.04356,-0.0203 -0.127554,0.0137 -0.186644,0.0753 -0.144669,0.15107 -0.08519,0.44267 0.117951,0.57839 0.135873,0.0908 0.143333,0.12243 0.06755,0.28626 -0.08332,0.18011 -0.07898,0.19071 0.195436,0.47724 0.25928,0.27076 0.287698,0.28568 0.373444,0.19615 0.187652,-0.19595 0.08078,-0.008 -0.366086,0.64504 -0.540578,0.78954 -0.725731,1.19445 -1.021793,2.23454 -0.346022,1.21561 -0.511256,1.55044 -1.042151,2.11187 -0.403665,0.42688 -0.514708,0.50983 -1.147857,0.85767 -0.686554,0.37718 -0.710614,0.39618 -1.170592,0.92453 -0.258295,0.29668 -0.845497,1.01239 -1.304886,1.59047 -0.459389,0.57808 -1.09239,1.36622 -1.406665,1.75143 -0.314278,0.38521 -0.948139,1.17245 -1.40858,1.74944 -0.460439,0.57698 -1.0987,1.35962 -1.418359,1.73921 -0.588705,0.69909 -1.151116,1.40462 -1.770619,2.22119 -0.187436,0.24707 -0.450947,0.59312 -0.585581,0.76903 -0.236222,0.30863 -0.243852,0.33582 -0.218156,0.77765 0.01463,0.25182 0.05833,0.55189 0.0971,0.66682 0.06937,0.2057 0.244897,0.35619 0.272588,0.23371 0.01602,-0.0708 0.09857,-0.0197 0.620627,0.38481 0.202854,0.15717 0.453406,0.33832 0.556775,0.40258 0.103371,0.0643 0.285202,0.20883 0.404064,0.32128 0.118862,0.11244 0.238464,0.19894 0.26577,0.19221 0.04803,-0.0119 0.542383,0.34664 0.589278,0.42731 0.01275,0.0219 0.0977,0.074 0.188839,0.1159 0.220342,0.10118 0.390207,0.23679 0.81736,0.65253 0.196344,0.19109 0.3859,0.35544 0.421233,0.36521 0.08462,0.0234 0.534809,0.53417 0.641699,0.72804 0.113938,0.20664 0.661138,0.51536 0.822847,0.46423 0.0692,-0.0218 0.14861,-0.0689 0.176475,-0.10457 0.02786,-0.0356 0.316839,-0.63217 0.64217,-1.32563 z m 10.156423,-17.82028 c -0.65531,0.4813 -1.420615,0.25877 -1.510588,-0.43924 -0.04557,-0.35356 0.04236,-0.61167 0.300102,-0.88081 l 0.214196,-0.22365 0.09941,0.27636 c 0.116135,0.32288 0.220416,0.44582 0.522178,0.61563 0.234423,0.13193 0.766527,0.1867 0.713587,0.0735 -0.01733,-0.037 -0.172561,-0.11242 -0.344962,-0.16747 -0.172401,-0.055 -0.351719,-0.14001 -0.398483,-0.18885 -0.178495,-0.18639 -0.319759,-0.55453 -0.300837,-0.784 0.01693,-0.20537 0.06343,-0.28457 0.331325,-0.56431 0.343527,-0.35872 0.646166,-0.47568 0.956106,-0.36952 0.220962,0.0757 0.475754,0.35491 0.566503,0.62081 0.182416,0.53452 -0.319854,1.42296 -1.148535,2.03159 z m -0.168014,-10.14713 c -0.524715,0.48385 -0.532861,0.49464 -0.443728,0.58772 0.04995,0.0522 0.07004,0.11649 0.04468,0.14299 -0.07317,0.0763 -0.538404,0.0559 -0.630718,-0.0278 -0.04608,-0.0418 -0.146621,-0.13107 -0.223434,-0.19846 -0.301521,-0.26453 -0.300605,-0.26755 0.258146,-0.851 0.294773,-0.30781 0.537881,-0.52384 0.578279,-0.51388 0.03833,0.01 0.147691,-0.0699 0.243014,-0.17642 0.249672,-0.27889 1.046908,-0.90557 1.377647,-1.08289 0.217023,-0.11635 0.433362,-0.31281 0.927827,-0.84256 0.354645,-0.37995 0.660661,-0.67428 0.680031,-0.65406 0.01936,0.0203 -0.168417,0.277 -0.417303,0.5706 -0.248886,0.29359 -0.693562,0.83802 -0.988169,1.20982 -0.526146,0.66404 -0.535438,0.68086 -0.523794,0.94939 0.01129,0.26011 0.0031,0.27626 -0.168044,0.33349 -0.104272,0.0349 -0.40461,0.26735 -0.714429,0.55305 z"
       id="path842" />       
  </g>
</svg>
