<?xml version="1.0" encoding="UTF-8" standalone="no"?>
<!-- Created with Inkscape (http://www.inkscape.org/) -->

<svg
   xmlns:dc="http://purl.org/dc/elements/1.1/"
   xmlns:cc="http://creativecommons.org/ns#"
   xmlns:rdf="http://www.w3.org/1999/02/22-rdf-syntax-ns#"
   xmlns:svg="http://www.w3.org/2000/svg"
   xmlns="http://www.w3.org/2000/svg"
   xmlns:sodipodi="http://sodipodi.sourceforge.net/DTD/sodipodi-0.dtd"   
   width="220"
   height="235"
   viewBox="0 0 58.208331 62.177086"
   version="1.1"
   id="svg8"   
   sodipodi:docname="m1903.svg">   
  <defs
     id="defs2" />
  <sodipodi:namedview
     id="base"
     pagecolor="#000000"
     bordercolor="#666666"
     borderopacity="1.0"
     showgrid="false"
     fit-margin-top="0"
     fit-margin-left="0"
     fit-margin-right="0"
     fit-margin-bottom="0"     
     units="px" />
  <metadata
     id="metadata5">
    <rdf:RDF>
      <cc:Work
         rdf:about="">
        <dc:format>image/svg+xml</dc:format>
        <dc:type
           rdf:resource="http://purl.org/dc/dcmitype/StillImage" />
        <dc:title></dc:title>
      </cc:Work>
    </rdf:RDF>
  </metadata>
  <g
     id="layer1"
     transform="translate(56.057826,-205.94221)">
    <path
       style="fill:none;stroke:#ffffff;stroke-width:0.4;stroke-opacity:1;stroke-miterlimit:4;stroke-dasharray:none"
       d="m -45.422453,267.60279 c -0.671344,-0.21774 -4.817085,-2.92299 -5.525903,-3.60584 l -0.589172,-0.56757 0.591119,-0.92893 c 0.325115,-0.51091 1.201804,-1.68416 1.948203,-2.60724 1.207781,-1.49365 3.156778,-3.93258 5.002065,-6.25946 0.645223,-0.81362 0.749771,-0.90331 1.86247,-1.59775 l 0.634983,-0.39628 0.640765,-1.18477 c 0.352417,-0.65161 1.043292,-1.9288 1.535279,-2.83819 0.491986,-0.90939 1.063368,-1.95364 1.269739,-2.32056 0.347046,-0.61703 0.416187,-0.94358 0.141661,-0.66906 -0.0637,0.0636 -0.150562,0.081 -0.193028,0.0387 -0.104051,-0.10404 -0.763733,0.56667 -0.855534,0.86984 -0.09947,0.32853 -0.338794,0.31755 -0.667807,-0.0307 -0.376643,-0.3986 -0.371608,-0.50127 0.03299,-0.67286 0.192529,-0.0816 0.463836,-0.29524 0.602907,-0.47466 0.231729,-0.29897 0.232589,-0.34649 0.01031,-0.56865 l -0.242546,-0.24243 0.663194,-0.68811 c 0.364753,-0.37847 0.815791,-0.88745 1.002295,-1.13109 0.328285,-0.42885 0.330897,-0.44906 0.08192,-0.63431 -0.301139,-0.22405 -0.289553,-0.25773 0.359814,-1.04575 0.314157,-0.38124 0.434202,-0.5964 0.354919,-0.63612 -0.130854,-0.0656 -1.693939,1.34022 -1.830079,1.64589 -0.04258,0.0956 -0.347743,0.47347 -0.678119,0.83963 -0.330378,0.36616 -0.637551,0.7221 -0.682614,0.79098 -0.06142,0.0939 -0.230031,-0.0114 -0.673955,-0.42103 l -0.59203,-0.54628 0.559567,-0.45131 c 0.533645,-0.4304 1.630672,-1.67648 1.358939,-1.54361 -0.0713,0.0348 -0.178853,0.0142 -0.239012,-0.046 -0.07614,-0.0762 -0.01552,-0.20324 0.199461,-0.41823 0.321899,-0.32189 0.63126,-0.26288 0.429343,0.0819 -0.05491,0.0937 0.169442,-0.0907 0.498525,-0.40999 0.536477,-0.52042 0.586549,-0.60055 0.484297,-0.77522 -0.07706,-0.13163 -0.04911,-0.25974 0.08622,-0.39506 0.162132,-0.16213 0.237002,-0.16351 0.393283,-0.008 l 0.193026,0.19304 2.079563,-2.07956 2.079561,-2.07958 -0.187901,-0.23675 c -0.171598,-0.21622 -0.158586,-0.27011 0.150032,-0.6213 0.32261,-0.36714 0.348847,-0.37587 0.57908,-0.19303 0.22124,0.17571 0.265953,0.16532 0.541536,-0.12578 0.165224,-0.17451 1.196654,-1.22776 2.292071,-2.34058 l 1.991691,-2.02326 0.410315,0.41031 0.410313,0.41031 -2.253903,2.30153 c -1.239643,1.26585 -2.250743,2.34642 -2.246868,2.40129 0.0039,0.0549 0.16103,0.22374 0.349235,0.37526 l 0.342195,0.2755 4.981983,-4.94557 c 2.740085,-2.72007 5.246605,-5.14455 5.570044,-5.38775 0.362132,-0.27228 0.908491,-0.81639 1.422069,-1.41617 1.165989,-1.36177 8.631093,-8.81377 10.8737274,-10.85464 1.2999911,-1.18304 2.2997109,-2.18009 3.3225505,-3.31369 1.1236414,-1.2453 1.498548,-1.61413 1.6160087,-1.58987 0.084129,0.0174 0.3002565,0.19704 0.4802926,0.39921 l 0.3273313,0.36755 -1.186409,1.12991 c -0.6525424,0.62144 -1.5657049,1.55988 -2.0292852,2.08538 l -0.8428567,0.95548 0.4403065,0.54593 0.4403093,0.54592 -0.3844645,0.38446 c -0.236649,0.23665 -0.3958056,0.33644 -0.4139588,0.25954 -0.017808,-0.0755 -0.1536191,-8.2e-4 -0.3428905,0.18847 -0.2247431,0.22475 -0.2811829,0.34561 -0.1995141,0.42729 0.084085,0.0841 0.04464,0.16004 -0.1507376,0.29029 -0.3052844,0.20354 -0.2505902,0.48915 0.1148582,0.59981 0.2465371,0.0746 0.6417792,0.43847 0.7567374,0.69659 0.044059,0.0989 -0.015192,0.25945 -0.1429046,0.38717 -0.2600942,0.26009 -0.481832,0.17401 -0.980038,-0.38046 -0.1885073,-0.2098 -0.4319025,-0.45921 -0.5408739,-0.55424 l -0.1981313,-0.17277 -0.7791162,0.88091 c -0.4285228,0.4845 -1.6834395,1.88755 -2.7887245,3.11789 -1.105284,1.23034 -2.616396,2.91575 -3.358027,3.74537 -0.74163,0.8296 -1.662045,1.82879 -2.045364,2.2204 -0.383324,0.39163 -0.712331,0.77721 -0.731134,0.85686 -0.02145,0.0908 0.24494,0.43641 0.715046,0.9275 0.608372,0.63551 0.727462,0.80445 0.63342,0.89849 -0.08813,0.0881 -0.236616,0.006 -0.621369,-0.34377 -0.278056,-0.25277 -0.538641,-0.4265 -0.579081,-0.38605 -0.04044,0.0404 -0.183169,-0.0361 -0.317179,-0.17013 l -0.243652,-0.24365 -1.089724,1.18798 c -1.749433,1.9072 -3.231662,3.65564 -3.303947,3.89736 -0.04239,0.14174 -0.111628,0.21422 -0.188622,0.19742 -0.07643,-0.0167 -0.427294,0.328 -0.943829,0.92715 -0.45221,0.5245 -1.742623,1.97893 -2.867588,3.23206 -1.124961,1.25313 -2.168309,2.4682 -2.318548,2.70015 -0.222336,0.34326 -3.563352,4.08871 -4.491336,5.035 -0.234418,0.23908 -0.230921,0.26583 0.09003,0.68689 0.466595,0.61214 0.497585,0.78917 0.254736,1.45518 -0.51576,1.4145 -2.090408,2.18252 -2.872086,1.40084 -0.200521,-0.20052 -0.372173,-0.29272 -0.466642,-0.25065 -0.08219,0.0366 -0.607632,1.26577 -1.167654,2.73148 -1.144974,2.99669 -4.898274,12.02374 -5.561783,13.37664 -0.105916,0.21597 -0.187275,0.4989 -0.180803,0.62873 0.01051,0.21073 0.06343,0.22157 0.493266,0.10105 0.513782,-0.14406 0.696704,-0.0653 0.664046,0.28614 -0.01707,0.18363 -0.145212,0.24121 -0.806914,0.36256 -0.795438,0.14587 -1.021144,0.25672 -0.969372,0.47602 0.01565,0.0664 -0.201228,0.5658 -0.481958,1.10998 -0.280728,0.54418 -0.511003,1.05485 -0.511721,1.13481 -0.0031,0.34501 -0.35209,0.49783 -0.802908,0.3516 z m 12.430104,-21.64635 c 0.09101,-0.22165 0.171372,-0.52125 0.178581,-0.66578 0.01602,-0.32109 -0.40409,-0.7679 -0.696462,-0.74073 -0.177063,0.0165 -0.184971,0.0467 -0.04807,0.18357 0.09013,0.0901 0.12913,0.19863 0.08667,0.24109 -0.04247,0.0425 -0.181446,-0.027 -0.308843,-0.15442 -0.206609,-0.20661 -0.257006,-0.20626 -0.466523,0.004 -0.234619,0.23462 -0.263778,0.33898 -0.286488,1.02544 -0.01327,0.40097 0.178748,0.79881 0.442172,0.91613 0.107493,0.0479 0.122529,0.0992 0.04114,0.1403 -0.219931,0.11116 -0.742672,-0.42277 -0.860215,-0.87864 l -0.107182,-0.41568 -0.353211,0.44729 c -0.385181,0.48777 -0.409412,0.76457 -0.09512,1.08653 0.591573,0.60599 2.018199,-0.0795 2.473551,-1.18837 z m 1.104598,-9.49253 c -0.01275,-0.25558 -0.02882,-0.27169 -0.250705,-0.25117 -0.263216,0.0244 -0.957483,0.68185 -2.664051,2.52297 -0.811105,0.87505 -0.985714,1.10705 -0.856033,1.13738 0.0896,0.0209 0.331217,-0.0997 0.536921,-0.26821 0.205708,-0.16847 0.420792,-0.28293 0.477973,-0.25434 0.06461,0.0324 0.608118,-0.45217 1.436727,-1.28076 1.200421,-1.20043 1.331431,-1.35993 1.319168,-1.60587 z m -0.641065,-1.17893 c 0.8896,-1.09727 0.223407,-0.58746 -1.550844,1.18679 -1.832344,1.83234 -2.291153,2.36078 -2.1619,2.49004 0.07774,0.0777 3.076314,-2.89183 3.712736,-3.67684 z"
       id="path2065" />       
  </g>
</svg>
