<?xml version="1.0" encoding="UTF-8" standalone="no"?>
<!-- Created with Inkscape (http://www.inkscape.org/) -->

<svg
   xmlns:dc="http://purl.org/dc/elements/1.1/"
   xmlns:cc="http://creativecommons.org/ns#"
   xmlns:rdf="http://www.w3.org/1999/02/22-rdf-syntax-ns#"
   xmlns:svg="http://www.w3.org/2000/svg"
   xmlns="http://www.w3.org/2000/svg"
   xmlns:sodipodi="http://sodipodi.sourceforge.net/DTD/sodipodi-0.dtd"   
   width="220"
   height="235"
   viewBox="0 0 58.208331 62.177086"
   version="1.1"
   id="svg8"   
   sodipodi:docname="m24.svg">
  <defs
     id="defs2" />
  <sodipodi:namedview
     id="base"
     pagecolor="#000000"
     bordercolor="#666666"
     borderopacity="1.0"     
     showgrid="false"
     fit-margin-top="0"
     fit-margin-left="0"
     fit-margin-right="0"
     fit-margin-bottom="0"
     units="px" />
  <metadata
     id="metadata5">
    <rdf:RDF>
      <cc:Work
         rdf:about="">
        <dc:format>image/svg+xml</dc:format>
        <dc:type
           rdf:resource="http://purl.org/dc/dcmitype/StillImage" />
        <dc:title></dc:title>
      </cc:Work>
    </rdf:RDF>
  </metadata>
  <g
     id="layer1"
     transform="translate(56.057826,-205.94221)">
    <path
       style="fill:none;stroke:#ffffff;stroke-width:0.4;stroke-opacity:1;stroke-miterlimit:4;stroke-dasharray:none"
       d="m -43.037103,265.21699 c -0.238277,-0.10699 -0.388971,-0.25607 -0.465325,-0.46036 -0.08152,-0.21796 -0.154792,-0.28129 -0.263156,-0.22741 -0.112817,0.0561 -0.179218,-0.0206 -0.266893,-0.30809 -0.06419,-0.21053 -0.161927,-0.38278 -0.217213,-0.38278 -0.05531,0 -0.330937,0.35066 -0.612529,0.77926 -0.330952,0.50369 -0.600773,0.80663 -0.762994,0.85663 -0.138036,0.0426 -0.214053,0.11428 -0.168918,0.15942 0.158647,0.15865 -0.183802,0.78338 -0.727356,1.32694 -0.534539,0.53453 -0.560219,0.54397 -0.957497,0.35209 -0.558492,-0.26977 -4.29319,-3.1542 -5.002904,-3.86391 -0.319395,-0.31939 -0.588285,-0.69258 -0.604613,-0.83914 -0.01618,-0.14517 0.128432,-0.52193 0.32135,-0.83724 0.315673,-0.51595 0.394399,-0.57985 0.786912,-0.63866 0.419005,-0.0628 0.435191,-0.0777 0.411886,-0.37871 -0.02206,-0.28484 0.257968,-0.60923 3.077281,-3.5648 5.307761,-5.56429 5.18996,-5.45338 5.807388,-5.46733 0.706482,-0.016 0.946153,-0.28376 1.800032,-2.01136 1.050419,-2.12525 1.048174,-2.11593 0.60701,-2.52326 -0.205057,-0.18934 -0.372837,-0.39273 -0.372836,-0.45199 -1.2e-5,-0.0593 0.205151,-0.39959 0.455893,-0.75628 0.250744,-0.35668 0.50729,-0.72376 0.570105,-0.81574 0.131,-0.19183 -0.363798,-0.87518 -0.520354,-0.71862 -0.0552,0.0553 -0.461181,0.60441 -0.902177,1.22044 -0.927573,1.29574 -1.685016,2.08046 -2.039993,2.11345 -0.364932,0.034 -1.152452,-0.55603 -1.095345,-0.82054 0.03804,-0.17623 0.01126,-0.20233 -0.167905,-0.16359 -0.442398,0.0957 -1.219924,-1.61492 -0.885883,-1.94895 0.08187,-0.0819 0.314703,-0.15731 0.517408,-0.16763 0.287499,-0.0146 0.656948,-0.26011 1.679841,-1.11603 0.721205,-0.6035 1.324886,-1.15489 1.341514,-1.22531 0.01661,-0.0704 0.09966,-0.11164 0.184488,-0.0916 0.199537,0.0471 1.269036,-1.01972 1.221893,-1.21906 -0.04141,-0.17543 0.730172,-0.98722 0.900101,-0.94697 0.06257,0.0148 0.381676,-0.28317 0.709094,-0.66222 l 0.59534,-0.68914 -0.390879,-0.41112 c -0.214982,-0.2261 -0.390871,-0.46542 -0.390873,-0.5318 10e-7,-0.23259 0.922436,-1.20911 1.230147,-1.30227 0.2355,-0.0713 0.396438,-0.006 0.678836,0.27669 0.319934,0.31993 0.41135,0.34549 0.673825,0.18832 0.382476,-0.229 1.718531,-1.7924 1.923956,-2.25133 0.107753,-0.24074 0.285834,-0.41099 0.591046,-0.5651 0.36279,-0.18316 0.706772,-0.58651 2.02939,-2.37967 0.875905,-1.18753 1.860644,-2.48206 2.188309,-2.87672 0.437168,-0.52656 0.59998,-0.82837 0.611631,-1.13374 0.01259,-0.32992 0.05792,-0.40623 0.218807,-0.36825 0.168635,0.0398 0.189398,0.0182 0.122821,-0.12778 -0.04837,-0.10609 0.117914,-0.0975 0.419875,0.0219 0.599817,0.23706 1.458366,1.05279 1.360466,1.29262 -0.0487,0.11926 0.0081,0.14944 0.200098,0.10629 0.345273,-0.0776 1.183459,0.72396 1.183456,1.13173 2e-6,0.24374 0.02401,0.26592 0.201994,0.18665 0.111097,-0.0495 4.884348,-4.77231 10.607228,-10.49519 10.1279049,-10.12791 10.4005179,-10.40996 10.2285574,-10.58191 -0.2121176,-0.21212 -0.046682,-0.53201 0.6235558,-1.20574 0.4620734,-0.4642 0.5051955,-0.47981 0.7257445,-0.25926 0.2206624,0.22067 0.2639183,0.20514 0.7317185,-0.26266 0.5752454,-0.57525 0.8298599,-0.61483 1.2503541,-0.19433 0.60182919,0.60184 0.62320223,0.57093 -2.7098259,3.91718 -3.6051691,3.6195 -10.9849604,11.25411 -10.9777224,11.35683 0.0028,0.04 0.221277,0.33616 0.485454,0.65796 l 0.480322,0.58509 1.343112,-1.40934 c 0.738701,-0.77515 1.555423,-1.55504 1.814867,-1.73318 0.353844,-0.24289 0.466138,-0.38423 0.449294,-0.56548 -0.01588,-0.1709 0.152862,-0.40082 0.5765171,-0.78551 0.5002505,-0.45423 0.6238886,-0.51468 0.7501141,-0.36669 0.1735098,0.20342 0.4680062,-0.0238 0.4680047,-0.36103 3e-6,-0.17006 0.080018,-0.24558 0.3452772,-0.32592 0.2907899,-0.088 0.3580048,-0.16556 0.4257967,-0.49111 0.0767,-0.36822 0.097257,-0.38303 0.4338792,-0.31255 0.6292978,0.13176 0.8759427,0.32923 1.0599233,0.84865 0.1628917,0.45986 -0.018317,0.98522 -0.2573724,0.74616 -0.1287716,-0.12878 -0.4315264,0.19473 -0.4315274,0.4611 5e-7,0.1507 -0.066677,0.22473 -0.2178147,0.24186 -0.3418951,0.0387 -1.716992,1.22381 -1.7428553,1.50205 -0.016311,0.17556 -0.099432,0.25856 -0.3282655,0.32789 -0.2122435,0.0642 -0.3125505,0.15853 -0.326325,0.30668 -0.013704,0.14742 -0.1508888,0.28348 -0.4413735,0.43783 -0.2981555,0.15836 -0.6790265,0.54296 -1.3013325,1.31409 -0.4839,0.59961 -1.182026,1.46342 -1.551385,1.91958 -0.701716,0.86665 -1.111267,1.60923 -0.967047,1.75345 0.04655,0.0465 0.169061,2.1e-4 0.272253,-0.10299 0.255675,-0.25568 0.411125,-0.0648 0.206374,0.25329 -0.314396,0.48857 -0.49323,0.6803 -0.672806,0.72137 -0.09918,0.0226 -0.163924,0.11067 -0.143893,0.19553 0.05795,0.24547 -0.12475,0.34591 -0.305737,0.16807 -0.130973,-0.12871 -0.155689,-0.11858 -0.11821,0.0485 0.06026,0.26848 -0.248497,0.35141 -0.361729,0.0972 -0.0964,-0.21647 -0.30128,-0.0778 -0.243939,0.16511 0.02066,0.0875 -0.04411,0.21766 -0.143911,0.2893 -0.0998,0.0716 -0.199764,0.21041 -0.222157,0.30834 -0.04979,0.21768 -0.673305,0.51507 -0.804644,0.38373 -0.05214,-0.0522 -0.374452,-0.0379 -0.716249,0.0317 -0.589007,0.11988 -0.6256,0.14644 -0.701057,0.50868 -0.101085,0.48534 -0.280834,0.44623 -0.727687,-0.15828 l -0.346986,-0.46942 -0.385793,0.27807 c -0.212202,0.15292 -1.501121,1.46794 -2.864326,2.92219 -1.363192,1.45427 -3.571324,3.78871 -4.906953,5.18764 -1.475903,1.54582 -2.652031,2.87184 -2.9985,3.38058 -0.313544,0.46039 -1.287151,1.68597 -2.163577,2.72353 -0.876422,1.03755 -1.74458,2.14101 -1.929236,2.45215 -0.296519,0.49961 -0.308902,0.62065 -0.106015,1.03613 0.417679,0.85531 0.315561,1.42401 -0.423832,2.36034 -0.933497,1.18215 -1.864749,1.451 -2.572956,0.74278 -0.293651,-0.29365 -0.395275,-0.32781 -0.541189,-0.18189 -0.296568,0.29656 -0.115747,1.68236 0.357755,2.74179 0.558277,1.24912 0.47334,1.78027 -0.392368,2.45367 -0.782408,0.60861 -1.928763,1.14904 -2.32384,1.09553 -0.354288,-0.048 -0.229186,-0.24553 -3.095486,4.88786 -0.32179,0.57631 -0.323821,0.6427 -0.03683,1.20218 l 0.303767,0.5922 -0.410332,-0.23357 c -0.629523,-0.35835 -0.7915,-0.16293 -0.284894,0.34368 0.321385,0.32137 0.493388,0.40646 0.697071,0.34479 0.318144,-0.0963 0.883397,0.24678 0.912467,0.55387 0.01116,0.11784 -0.165557,0.40008 -0.392697,0.62722 -0.363163,0.36316 -0.4555,0.39387 -0.765373,0.25473 z m 8.703459,-16.22697 c -0.01989,-0.15332 0.0058,-0.3207 0.05703,-0.37196 0.122272,-0.12228 0.03085,-0.51059 -0.167834,-0.71291 -0.08667,-0.0882 -0.3656,-0.17601 -0.619944,-0.19513 -0.422516,-0.0318 -0.495292,0.009 -0.842823,0.47982 -0.209202,0.28302 -0.380372,0.631 -0.380372,0.77331 2e-6,0.1423 -0.06553,0.32427 -0.145626,0.40436 -0.182542,0.18254 0.140772,0.74958 0.427394,0.74959 0.263637,-1e-5 0.392258,0.11933 0.265372,0.24622 -0.177812,0.17782 -0.773075,-0.18621 -0.980071,-0.59935 l -0.192997,-0.3852 0.03523,0.40769 c 0.01938,0.22425 0.105587,0.47807 0.191582,0.56406 0.218656,0.21865 0.833668,0.30741 1.174593,0.16951 0.430855,-0.17427 1.221219,-1.20044 1.178473,-1.53001 z m 1.077694,-10.48755 c 0.105739,-0.23547 0.08022,-0.40105 -0.08771,-0.56897 -0.242677,-0.24267 -0.115602,-0.5424 0.198524,-0.46825 0.118827,0.0281 0.165014,-0.0181 0.165013,-0.165 0,-0.11219 0.07598,-0.27997 0.168858,-0.37283 0.09287,-0.0928 0.131075,-0.20665 0.08491,-0.25281 -0.1313,-0.13131 -0.836332,0.50993 -1.645869,1.49692 -0.406825,0.49601 -1.301841,1.44874 -1.988926,2.11718 l -1.249245,1.21535 0.347341,0.42057 0.347341,0.42058 1.755309,-1.75531 c 0.96542,-0.96542 1.822427,-1.90476 1.904454,-2.08743 z m 5.96465,-6.52429 0.444628,-0.58728 -0.497443,0.471 c -0.273588,0.25905 -1.038734,0.88698 -1.700327,1.39539 -2.218407,1.70478 -2.82527,2.22409 -2.787248,2.38515 0.01989,0.0843 0.102433,0.12011 0.183402,0.0797 0.08098,-0.0405 0.203933,-0.0169 0.273242,0.0524 0.06931,0.0693 0.219201,0.0714 0.333089,0.004 0.34302,-0.20088 3.273218,-3.17047 3.750643,-3.80105 z"
       id="path2011" />       
  </g>
</svg>
