<?xml version="1.0" encoding="UTF-8" standalone="no"?>
<!-- Created with Inkscape (http://www.inkscape.org/) -->

<svg
   xmlns:dc="http://purl.org/dc/elements/1.1/"
   xmlns:cc="http://creativecommons.org/ns#"
   xmlns:rdf="http://www.w3.org/1999/02/22-rdf-syntax-ns#"
   xmlns:svg="http://www.w3.org/2000/svg"
   xmlns="http://www.w3.org/2000/svg"
   xmlns:sodipodi="http://sodipodi.sourceforge.net/DTD/sodipodi-0.dtd"   
   width="220"
   height="235"
   viewBox="0 0 58.208331 62.177086"
   version="1.1"
   id="svg8"   
   sodipodi:docname="mb44.svg">
  <defs
     id="defs2" />
  <sodipodi:namedview
     id="base"
     pagecolor="#000000"
     bordercolor="#666666"
     borderopacity="1.0"
     showgrid="false"
     fit-margin-top="0"
     fit-margin-left="0"
     fit-margin-right="0"
     fit-margin-bottom="0"
     units="px" />
  <metadata
     id="metadata5">
    <rdf:RDF>
      <cc:Work
         rdf:about="">
        <dc:format>image/svg+xml</dc:format>
        <dc:type
           rdf:resource="http://purl.org/dc/dcmitype/StillImage" />
        <dc:title></dc:title>
      </cc:Work>
    </rdf:RDF>
  </metadata>
  <g    
     id="layer1"
     transform="translate(56.057826,-205.94221)">
    <path
       style="fill:none;stroke:#ffffff;stroke-width:0.4;stroke-opacity:1;stroke-miterlimit:4;stroke-dasharray:none"
       d="m -0.10124625,231.17243 c -0.4582242,0.20118 -0.76503808,0.12295 -0.86060883,-0.21941 -0.20937592,-0.75003 -5.88363922,-5.90333 -6.17705282,-5.60992 -0.1024529,0.10245 2.5151565,2.9489 3.5781084,3.89092 0.7266157,0.64393 1.097049,1.03353 1.1094373,1.1668 0.028397,0.30554 -0.5702947,0.84211 -0.9201501,0.82466 -0.3673131,-0.0183 -0.6582754,-0.29089 -0.6304211,-0.59057 0.012989,-0.13976 -0.1955151,-0.47085 -0.5557815,-0.88254 -0.3171148,-0.36237 -0.7658159,-0.93346 -0.9971106,-1.26907 -0.2312979,-0.33562 -1.5150327,-1.73839 -2.8527469,-3.11728 -1.337716,-1.37889 -2.4467856,-2.56882 -2.4646026,-2.6443 -0.05393,-0.22844 -1.068034,-1.1953 -1.25372,-1.19529 -0.200818,-1e-5 -1.867456,1.58823 -1.830571,1.74445 0.01358,0.0576 -0.09418,0.1406 -0.239456,0.18459 -0.178875,0.0541 -0.269912,0.14187 -0.281993,0.27167 -0.01071,0.11524 -0.09724,0.21045 -0.216966,0.23872 -0.120185,0.0284 -0.206331,0.12427 -0.217267,0.24188 -0.02176,0.23417 -0.260353,0.31125 -0.43203,0.13958 -0.08419,-0.0842 -0.219915,-0.0277 -0.42441,0.17685 -0.244597,0.24461 -0.268204,0.33307 -0.126717,0.47456 0.221945,0.22194 0.04372,0.62529 -0.478889,1.08379 -0.618078,0.54227 -0.624971,0.53869 -0.322252,-0.16701 l 0.283636,-0.66122 -2.131398,2.07751 c -1.172286,1.14261 -2.690018,2.68742 -3.372858,3.43279 l -1.241435,1.3553 0.547472,0.65966 c 0.301106,0.36282 0.560376,0.71435 0.576154,0.78118 0.01577,0.0669 -1.397857,1.54805 -3.14141,3.2916 l -3.170095,3.1701 -0.03581,0.55118 c -0.01969,0.30314 -0.07775,0.59313 -0.12902,0.64439 -0.06006,0.06 0.241841,0.44556 0.848825,1.08385 l 0.942043,0.99061 -1.71314,1.8945 c -0.942227,1.04197 -1.797107,1.94581 -1.899731,2.00853 -0.162097,0.099 -0.298097,0.003 -1.035532,-0.7349 -0.661519,-0.66151 -0.874921,-0.82296 -0.966612,-0.73127 -0.07528,0.0753 0.03144,0.33981 0.296313,0.73444 0.227693,0.33922 0.374953,0.65581 0.32725,0.70351 -0.0855,0.0854 -0.31329,-0.17895 -0.655887,-0.7614 -0.232657,-0.39554 -0.305817,-0.29388 -0.147178,0.20451 l 0.127917,0.40188 -1.656132,1.60809 c -1.812791,1.76019 -1.813621,1.76167 -1.308848,2.2729 0.140757,0.14271 0.305453,0.46304 0.365824,0.71203 0.06037,0.249 0.233083,0.57877 0.383807,0.73285 0.150772,0.15401 0.315434,0.43199 0.366027,0.61762 0.05059,0.18562 0.293541,0.54179 0.539896,0.79149 0.294899,0.29879 0.414327,0.4938 0.349638,0.57047 -0.320958,0.38044 -1.190038,0.99097 -2.43529,1.71085 l -0.422885,0.24446 -0.475104,-0.58573 c -0.625448,-0.77111 -1.104424,-2.13235 -1.162445,-3.30366 -0.05384,-1.08684 -0.200058,-1.6021 -0.555506,-1.95755 l -0.261951,-0.26195 -1.803816,1.80382 c -0.992098,0.99209 -1.836282,1.77135 -1.875928,1.73171 -0.178052,-0.17806 -0.772636,0.22967 -1.727801,1.18484 l -1.01876,1.01876 0.463322,0.52448 c 0.358352,0.40569 0.535355,0.52789 0.781308,0.53953 0.337437,0.016 0.945974,0.52482 0.800987,0.66981 -0.04724,0.0473 0.01327,0.18506 0.134491,0.30628 0.335366,0.33536 0.396419,0.66831 0.410879,2.2406 l 0.0133,1.44693 -2.07069,2.0866 c -1.486085,1.4975 -2.051986,2.12401 -2.004416,2.21915 0.07907,0.15813 -1.235725,1.50965 -1.533696,1.57655 -0.398263,0.0894 -5.467624,-4.86578 -5.735162,-5.606 -0.137354,-0.38004 0.06562,-0.65555 1.045256,-1.41881 0.421164,-0.32813 0.755358,-0.65483 0.763909,-0.74676 0.0084,-0.0899 0.176046,-0.34893 0.372655,-0.57566 l 0.357478,-0.41221 -0.552947,-0.6496 c -0.959487,-1.12721 -0.87987,-1.56573 0.471786,-2.59861 0.489326,-0.37392 1.325756,-1.16692 2.02382,-1.91874 1.406907,-1.51525 1.688828,-1.69013 2.230392,-1.38289 0.454824,0.25799 0.53208,0.40937 0.64795,1.26957 0.04853,0.36028 0.118102,0.6849 0.154609,0.72141 0.119876,0.11988 2.006527,-1.64232 2.029937,-1.89603 0.01501,-0.1627 0.787166,-1.01888 2.692263,-2.98524 2.345546,-2.42096 2.714441,-2.84131 3.025712,-3.4477 l 0.354488,-0.69059 -0.437166,-0.36051 c -0.53165,-0.43844 -0.529657,-0.445 0.493158,-1.62249 l 0.7558,-0.87009 -0.317075,-0.31708 c -0.302553,-0.30255 -0.303824,-0.32939 -0.02777,-0.58608 0.159125,-0.14796 0.359054,-0.28513 0.444288,-0.30482 0.267642,-0.0618 0.173919,-0.23658 -0.474933,-0.88542 l -0.629901,-0.62991 -0.373336,0.37333 c -0.205336,0.20534 -0.437176,0.56427 -0.515201,0.79765 -0.118827,0.35539 -0.248053,0.50243 -0.795832,0.90552 -0.498722,0.367 -0.734256,0.61704 -0.992162,1.05333 -0.368477,0.62329 -1.725574,2.03964 -2.016703,2.10476 -0.131894,0.0296 -0.393968,-0.18592 -0.965016,-0.79322 l -0.783933,-0.83374 1.049289,-1.01221 c 2.592822,-2.50127 3.025482,-2.88722 3.236807,-2.88734 0.255474,-1.5e-4 1.043568,-0.75427 0.996505,-0.95358 -0.01804,-0.0764 0.09792,-0.26972 0.257689,-0.42949 0.159773,-0.15977 0.353038,-0.27572 0.429479,-0.25768 0.07644,0.018 0.309904,-0.13811 0.518808,-0.34702 0.39822,-0.39822 0.397232,-0.41294 -0.06929,-1.04554 -0.125583,-0.17028 -0.07801,-0.264 0.354224,-0.69781 0.517601,-0.51956 0.770605,-0.59314 1.012802,-0.29474 0.0766,0.0944 0.186295,0.20971 0.243754,0.25629 0.07191,0.0583 0.646033,-0.45207 1.84213,-1.63757 1.639144,-1.6246 1.78326,-1.7965 2.542045,-3.03185 0.565172,-0.92012 1.022912,-1.52811 1.539182,-2.04438 l 0.734792,-0.73479 1.0737,1.0737 1.073703,1.0737 -0.763856,0.76386 c -0.541325,0.54132 -1.174037,1.02217 -2.171836,1.65053 -1.071321,0.67467 -1.566445,1.05684 -2.070715,1.59829 l -0.662723,0.71161 0.567061,0.61845 c 0.594499,0.64837 0.89798,0.7797 0.932923,0.40372 0.01488,-0.16006 0.06956,-0.21475 0.21474,-0.21475 0.145181,0 0.199865,-0.0546 0.21474,-0.21474 0.01492,-0.16048 0.07102,-0.21474 0.222017,-0.21474 0.154888,0 0.202062,-0.0472 0.202063,-0.20206 2e-6,-0.14756 0.05613,-0.20728 0.208085,-0.2214 0.151174,-0.0141 0.213366,-0.0762 0.227416,-0.22742 0.01408,-0.15154 0.07226,-0.20807 0.214022,-0.20817 0.145182,0 0.200191,-0.0582 0.216028,-0.22843 0.01445,-0.15538 0.06785,-0.21744 0.166965,-0.19404 0.294701,0.0696 0.198687,0.32503 -0.315375,0.83909 -0.481572,0.48157 -0.50162,0.52324 -0.233876,0.4861 0.242155,-0.0336 0.742999,-0.48982 2.893209,-2.63551 2.508738,-2.50356 2.598094,-2.60472 2.535853,-2.87398 -0.04003,-0.17315 0.02852,-0.37211 0.180562,-0.52414 0.168249,-0.16826 0.207409,-0.3094 0.124932,-0.45029 -0.10663,-0.18215 -0.04124,-0.28024 0.581821,-0.87271 0.386078,-0.36712 0.690005,-0.71813 0.675394,-0.78 -0.0146,-0.0619 0.07943,-0.14459 0.208985,-0.18379 0.156711,-0.0475 0.235527,-0.13517 0.235524,-0.26214 1e-6,-0.13992 0.06789,-0.19715 0.254411,-0.21449 0.213872,-0.0199 0.246995,-0.0556 0.207838,-0.22368 -0.03706,-0.15912 0.0076,-0.21277 0.218011,-0.26222 0.190366,-0.0447 0.264603,-0.11452 0.264623,-0.24872 -1e-6,-0.13422 0.07138,-0.19319 0.254417,-0.21021 0.213872,-0.0199 0.246995,-0.0555 0.207838,-0.22367 -0.03727,-0.16001 0.0069,-0.21263 0.220877,-0.26288 0.147109,-0.0345 0.267464,-0.11627 0.267458,-0.18158 -2e-6,-0.0653 1.467055,-1.60219 3.260129,-3.41533 1.793075,-1.81314 3.967089,-4.03916 4.831145,-4.94671 1.462754,-1.53638 1.581494,-1.6396 1.723342,-1.49775 0.08379,0.0838 0.314718,0.23077 0.51319,0.32663 l 0.360855,0.1743 4.4868015,-4.43797 c 3.8761098,-3.83398 4.5154053,-4.43153 4.6970347,-4.39055 0.258422,0.0583 1.0540741,0.83875 1.11002189,1.0888 0.0326712,0.14601 -0.85250669,1.07326 -4.43663789,4.64757 l -4.4774509,4.46519 0.1690941,0.35008 0.169097,0.35008 -0.6916361,0.69164 c -0.6423283,0.64235 -0.6789433,0.70433 -0.5136883,0.86959 0.131904,0.1319 0.12389,0.22388 -0.03098,0.35555 -0.114899,0.0977 -0.296546,0.27381 -0.403662,0.39138 l -0.19475,0.21378 1.1496544,1.0407 c 0.6323112,0.57237 1.5826921,1.41936 2.1119632,1.8822 0.5292706,0.46282 1.0928025,0.98159 1.2522901,1.1528 0.1594894,0.17121 0.4794934,0.51388 0.7111218,0.76148 0.6297072,0.67314 3.3381483,2.97932 3.5218846,2.99881 0.087897,0.009 0.5906385,0.39561 1.1172026,0.85841 0.68609562,0.60301 1.02326518,0.83394 1.18984657,0.81495 0.37157276,-0.0423 0.57775546,0.43841 0.37131886,0.8658 -0.204709,0.42381 -0.19807748,0.41718 -0.58905947,0.58888 z m -43.31550275,28.5282 c -0.04505,-0.50394 -0.15014,-0.86918 -0.277625,-0.96479 -0.189561,-0.14217 -0.269846,-0.0929 -1.056348,0.64843 -0.689205,0.6496 -0.902333,0.91993 -1.119829,1.42047 -0.309538,0.7123 -0.953142,1.40929 -1.370388,1.48402 -0.158063,0.0283 -0.564694,0.29599 -0.903618,0.59484 l -0.616235,0.54336 0.626819,0.62681 0.626818,0.62682 2.081356,-2.08459 2.081354,-2.08461 -0.07247,-0.81092 z m 10.413752,-12.88642 c 0,-0.41519 -0.97902,-1.35263 -1.391168,-1.33207 -0.297442,0.0148 -0.318122,0.0358 -0.405409,0.4106 -0.239235,1.02652 -0.0962,1.42807 0.549173,1.54176 0.365577,0.0644 0.297577,0.2301 -0.08002,0.195 -0.369572,-0.0343 -0.747528,-0.48172 -0.820963,-0.97172 -0.03609,-0.2408 -0.08849,-0.46071 -0.116454,-0.48867 -0.08368,-0.0837 -1.002933,0.95514 -1.028281,1.16207 -0.01467,0.11965 0.195498,0.41024 0.56117,0.77591 0.80575,0.80575 0.915929,0.79323 1.92828,-0.21912 0.616146,-0.61615 0.803724,-0.86677 0.80374,-1.0737 z m -2.561416,-7.50731 c 0.145183,0 0.199865,-0.0546 0.214741,-0.21473 0.01487,-0.16006 0.06956,-0.21474 0.214739,-0.21474 0.145182,0 0.199866,-0.0546 0.214741,-0.21474 0.01487,-0.16006 0.06956,-0.21475 0.21474,-0.21475 0.141854,0 0.200035,-0.0565 0.214022,-0.20817 0.01421,-0.15289 0.08504,-0.21419 0.267084,-0.23112 0.204732,-0.019 0.23994,-0.0561 0.20274,-0.21364 -0.03812,-0.16149 -0.0053,-0.1943 0.21474,-0.21475 0.220607,-0.0205 0.25268,-0.054 0.212905,-0.22251 -0.0373,-0.15799 -0.0034,-0.19837 0.166484,-0.19836 0.404433,0 0.348541,-0.13963 -0.32583,-0.81401 l -0.676571,-0.67656 -1.58308,1.61528 -1.583079,1.61528 0.53666,0.52656 c 0.295176,0.28959 0.580192,0.56554 0.633398,0.61319 0.05354,0.0479 0.146896,-0.0104 0.20907,-0.13016 0.06178,-0.11924 0.180456,-0.20073 0.263719,-0.18107 0.107307,0.0253 0.157564,-0.0308 0.17263,-0.19268 0.01582,-0.17028 0.07083,-0.22845 0.215995,-0.22846 z"
       id="path2128"       
       sodipodi:nodetypes="ccssccscsscccccccsssccccccccsccsscscsscscccsccccccccssscssscccssccccccccccccsccssscccccsccscssccccccccscsccccccscccsccccccccccscccscccssccccccccscccssscccccsccccsccccccccccccccccccccccccccccccscscsscccssscccccccscccccccccc" />
  </g>
</svg>
