<?xml version="1.0" encoding="UTF-8" standalone="no"?>
<!-- Created with Inkscape (http://www.inkscape.org/) -->

<svg
   xmlns:dc="http://purl.org/dc/elements/1.1/"
   xmlns:cc="http://creativecommons.org/ns#"
   xmlns:rdf="http://www.w3.org/1999/02/22-rdf-syntax-ns#"
   xmlns:svg="http://www.w3.org/2000/svg"
   xmlns="http://www.w3.org/2000/svg"
   xmlns:sodipodi="http://sodipodi.sourceforge.net/DTD/sodipodi-0.dtd"   
   width="220"
   height="235"
   viewBox="0 0 58.208331 62.177086"
   version="1.1"
   id="svg8"   
   sodipodi:docname="striker.svg" >
  <defs
     id="defs2" />
  <sodipodi:namedview
     id="base"
     pagecolor="#000000"
     bordercolor="#666666"
     borderopacity="1.0"
     showgrid="false"
     fit-margin-top="0"
     fit-margin-left="0"
     fit-margin-right="0"
     fit-margin-bottom="0"     
     units="px" />
  <metadata
     id="metadata5">
    <rdf:RDF>
      <cc:Work
         rdf:about="">
        <dc:format>image/svg+xml</dc:format>
        <dc:type
           rdf:resource="http://purl.org/dc/dcmitype/StillImage" />
        <dc:title></dc:title>
      </cc:Work>
    </rdf:RDF>
  </metadata>
  <g     
     id="layer1"
     transform="translate(56.057826,-205.94221)">
    <path
       style="fill:none;stroke:#ffffff;stroke-width:0.4;stroke-opacity:1;stroke-miterlimit:4;stroke-dasharray:none"
       d="m -45.64868,266.51674 c 0.04931,-0.0563 0.09099,-0.11684 0.09264,-0.13451 0.0016,-0.0177 0.04408,-0.0708 0.09432,-0.11813 0.05024,-0.0473 0.09439,-0.099 0.09813,-0.11479 0.0037,-0.0158 0.09903,-0.12637 0.211754,-0.24563 0.450653,-0.4768 0.652719,-0.69661 0.707369,-0.7695 0.03152,-0.042 0.07379,-0.0898 0.09392,-0.10619 0.02014,-0.0164 0.03963,-0.0425 0.04332,-0.0582 0.0037,-0.0156 0.02416,-0.0488 0.0455,-0.0738 0.02134,-0.025 0.04393,-0.0755 0.0502,-0.1123 0.0063,-0.0368 0.01624,-0.0856 0.02214,-0.10849 0.0059,-0.0229 0.01238,-0.0593 0.01439,-0.081 0.002,-0.0217 0.01122,-0.0394 0.02046,-0.0394 0.0092,0 0.01903,-0.0291 0.02175,-0.0647 0.01689,-0.22061 0.06373,-0.57308 0.07806,-0.5874 0.0093,-0.009 0.01578,-0.0406 0.01434,-0.0695 -0.0014,-0.0289 0.01306,-0.10004 0.03222,-0.15813 0.01916,-0.0581 0.03442,-0.11273 0.0339,-0.12143 -4.77e-4,-0.009 0.01296,-0.0728 0.02996,-0.14251 0.03078,-0.1262 0.152248,-0.34939 0.342462,-0.62928 0.05291,-0.0779 0.109604,-0.16158 0.125982,-0.18607 0.01638,-0.0245 0.04919,-0.0719 0.07291,-0.10541 0.08628,-0.12177 0.746471,-1.10374 0.914038,-1.35952 0.01294,-0.0198 0.127038,-0.18651 0.253549,-0.37057 0.126513,-0.18406 0.247449,-0.36404 0.268749,-0.39995 0.0213,-0.0359 0.0946,-0.14316 0.16288,-0.23834 0.06828,-0.0952 0.1296,-0.19155 0.136256,-0.21416 0.0067,-0.0226 0.01963,-0.0431 0.02883,-0.0455 0.0092,-0.002 0.06425,-0.0772 0.122335,-0.16623 0.05809,-0.089 0.122943,-0.18465 0.144125,-0.21251 0.02118,-0.0279 0.09495,-0.13464 0.163924,-0.23729 0.06898,-0.10266 0.242021,-0.35089 0.384544,-0.55163 0.142524,-0.20074 0.332749,-0.47192 0.422725,-0.60261 0.383505,-0.55707 1.012651,-1.48283 1.232588,-1.8137 0.130539,-0.19638 0.264855,-0.39641 0.298479,-0.44451 0.03363,-0.0481 0.113943,-0.1684 0.178486,-0.26732 0.06454,-0.0989 0.141781,-0.2156 0.171641,-0.25929 0.217101,-0.31771 0.347024,-0.50476 0.438532,-0.63138 0.459131,-0.6353 0.561804,-0.79343 0.615451,-0.94788 0.05258,-0.15138 0.05708,-0.15789 0.133698,-0.19322 0.2278,-0.10505 0.289212,-0.13022 0.34565,-0.14169 0.03396,-0.007 0.111477,-0.0343 0.172256,-0.0609 0.06078,-0.0266 0.18061,-0.0739 0.26629,-0.10521 0.394507,-0.14397 1.240462,-0.51429 1.486529,-0.65074 0.104127,-0.0577 0.217169,-0.17086 0.248776,-0.249 0.0176,-0.0435 -0.01655,-0.28378 -0.04428,-0.31151 -0.01242,-0.0124 -0.01663,-0.0285 -0.0094,-0.0358 0.0073,-0.007 -0.0035,-0.06 -0.02399,-0.11718 -0.08601,-0.24025 -0.130282,-0.37445 -0.15296,-0.46372 -0.01325,-0.0521 -0.03517,-0.13093 -0.04872,-0.17508 -0.04349,-0.14176 -0.0957,-0.37893 -0.08562,-0.389 0.0054,-0.005 -0.0052,-0.0416 -0.02344,-0.0806 -0.01826,-0.0389 -0.02695,-0.0771 -0.0193,-0.0847 0.0076,-0.008 0.0042,-0.0236 -0.0077,-0.0355 -0.01185,-0.0119 -0.01854,-0.0353 -0.01486,-0.052 0.0078,-0.0354 -0.03318,-0.26351 -0.05038,-0.28071 -0.0064,-0.006 -0.01251,-0.0367 -0.01359,-0.0673 -0.0023,-0.0652 -0.08128,-0.38417 -0.09968,-0.40258 -0.0069,-0.007 -0.01779,-0.0512 -0.02415,-0.0985 -0.0064,-0.0472 -0.01589,-0.0902 -0.02117,-0.0955 -0.0053,-0.005 -0.02238,-0.066 -0.03796,-0.13491 -0.01559,-0.0689 -0.03279,-0.14294 -0.03821,-0.16452 -0.0303,-0.12051 -0.07286,-0.41179 -0.08646,-0.5918 -0.0086,-0.11359 -0.02956,-0.22834 -0.04661,-0.25499 -0.01706,-0.0267 -0.02209,-0.0637 -0.01118,-0.0824 0.01242,-0.0212 0.0036,-0.0575 -0.02345,-0.0971 -0.03132,-0.0458 -0.04524,-0.12742 -0.05037,-0.29525 -0.0039,-0.12758 0.0012,-0.2402 0.01123,-0.25027 0.01007,-0.0101 0.02512,-0.0732 0.03344,-0.1402 0.0083,-0.067 0.02444,-0.12409 0.03582,-0.12677 0.01138,-0.003 0.03243,-0.0475 0.04679,-0.0996 0.01436,-0.0521 0.05143,-0.13464 0.08238,-0.18341 0.08145,-0.12833 0.334107,-0.40661 0.382794,-0.42161 0.02263,-0.007 0.099,-0.0331 0.169717,-0.058 0.223288,-0.0786 0.308045,-0.0604 1.137647,0.24421 0.411025,0.15093 0.797659,0.28426 0.85919,0.29628 0.181211,0.0354 0.430458,0.023 0.599682,-0.0298 0.318386,-0.0994 0.425335,-0.18996 1.026154,-0.86925 0.332389,-0.3758 0.351006,-0.40043 0.343836,-0.45494 l -0.0076,-0.0576 0.05669,0.0254 c 0.03118,0.014 0.07044,0.0193 0.08726,0.0119 0.01681,-0.007 0.153517,-0.15217 0.303791,-0.32152 0.301743,-0.34003 0.400471,-0.49087 0.469919,-0.71796 0.07901,-0.25834 0.05645,-0.63343 -0.05241,-0.87144 l -0.03818,-0.0835 0.138836,-0.15764 c 0.251247,-0.28527 0.423221,-0.45283 0.443463,-0.43209 0.0305,0.0313 0.09161,0.168 0.09161,0.20505 0,0.0191 0.01456,0.0493 0.03236,0.0671 0.0178,0.0178 0.03065,0.0507 0.02857,0.0731 -0.0021,0.0224 0.0057,0.0503 0.01732,0.0619 0.01161,0.0116 0.04105,0.0879 0.06542,0.16944 0.02437,0.0816 0.06108,0.1651 0.08157,0.18559 0.09908,0.0991 0.280427,0.11381 0.280427,0.0228 1e-6,-0.0235 -0.110415,-0.37242 -0.245367,-0.77544 -0.134951,-0.40301 -0.229671,-0.71769 -0.210485,-0.69929 0.01919,0.0184 0.04593,0.0652 0.05943,0.10403 0.01477,0.0425 0.02283,0.0535 0.02024,0.0277 -0.0024,-0.0236 0.0053,-0.0476 0.01694,-0.0534 0.01168,-0.006 0.02709,-0.10405 0.03424,-0.21837 0.0071,-0.11432 0.02416,-0.22669 0.03781,-0.24971 0.01365,-0.023 0.01547,-0.044 0.004,-0.0467 -0.01142,-0.003 -0.0089,-0.0247 0.0055,-0.0489 0.03961,-0.0662 0.231551,-0.29496 0.247439,-0.29496 0.0076,0 0.118098,0.1042 0.245474,0.23155 0.289215,0.28921 0.346098,0.31678 0.461872,0.22416 l 0.0743,-0.0594 0.700745,0.69301 0.700746,0.69302 0.01106,0.21688 0.01106,0.21687 0.285853,0.262 0.28585,0.262 0.181356,-0.008 0.181356,-0.008 0.118465,-0.13415 c 0.06516,-0.0738 0.181661,-0.21807 0.258901,-0.32064 0.07724,-0.10256 0.223939,-0.2969 0.325998,-0.43185 0.268681,-0.35528 1.418783,-1.84791 1.739614,-2.25771 0.508049,-0.64894 1.445846,-1.84956 1.652701,-2.11588 0.112931,-0.1454 0.21042,-0.28195 0.216641,-0.30346 0.0062,-0.0215 0.01048,-0.12281 0.0095,-0.22512 l -0.0019,-0.18602 -0.200002,-0.21966 c -0.228955,-0.25144 -0.236142,-0.25515 -0.4783,-0.24625 l -0.138836,0.005 -0.643759,-0.67607 c -0.354069,-0.37183 -0.645571,-0.68374 -0.647785,-0.69312 -0.0022,-0.009 0.03209,-0.0624 0.07623,-0.11778 0.102831,-0.12907 0.112488,-0.15258 0.08648,-0.21049 -0.01178,-0.0262 -0.209077,-0.23836 -0.43844,-0.47139 -0.487378,-0.49518 -0.614135,-0.63445 -0.583932,-0.64158 0.01209,-0.003 0.03667,0.009 0.05462,0.0273 0.03154,0.0316 0.03245,0.0302 0.02679,-0.0401 -0.0032,-0.0399 0.0098,-0.10369 0.02901,-0.14174 0.04592,-0.0912 0.440734,-0.53612 0.488544,-0.55059 0.02033,-0.006 0.180199,-0.008 0.355264,-0.004 0.175063,0.004 0.37219,-0.005 0.438058,-0.0197 0.103884,-0.0236 0.133262,-0.0407 0.221607,-0.12908 0.126,-0.126 0.142978,-0.17786 0.128483,-0.39244 -0.0203,-0.30052 0.05035,-0.65211 0.183892,-0.91521 0.09861,-0.19427 0.218292,-0.34442 0.58322,-0.73172 0.162564,-0.17253 0.396435,-0.42681 0.519715,-0.56506 0.238652,-0.26764 0.473709,-0.52123 0.950707,-1.02566 0.162862,-0.17223 0.53746,-0.57332 0.832438,-0.89132 0.294978,-0.31799 0.662996,-0.71229 0.817817,-0.87621 0.154817,-0.16393 0.365324,-0.38808 0.467786,-0.49811 0.102462,-0.11003 0.346604,-0.36741 0.542541,-0.57195 0.343856,-0.35895 0.608906,-0.63804 1.143647,-1.20422 0.239321,-0.25339 0.329411,-0.35028 0.787604,-0.84699 0.477244,-0.51737 1.111518,-1.18497 1.398714,-1.47221 l 0.31351,-0.31357 0.159414,0.1398 c 0.08768,0.0769 0.186663,0.14843 0.219969,0.15896 0.166035,0.0525 0.377817,-0.067 0.410072,-0.23152 0.02342,-0.11944 -0.01913,-0.22758 -0.162618,-0.41324 -0.06715,-0.0869 -0.122086,-0.16529 -0.122086,-0.17424 0,-0.0157 0.09204,-0.14835 0.198623,-0.28617 0.100835,-0.13039 0.623834,-0.69154 1.247326,-1.3383 0.240695,-0.24969 0.45829,-0.48167 0.483544,-0.51553 0.03197,-0.0429 0.04544,-0.0989 0.04436,-0.18438 -0.0018,-0.14514 -0.01501,-0.38307 -0.02655,-0.47971 -0.008,-0.0673 -0.129522,-0.26006 -0.169907,-0.26959 -0.01127,-0.003 -0.121957,-0.10071 -0.245963,-0.21788 -0.124005,-0.11718 -0.260019,-0.23562 -0.30225,-0.26321 -0.04876,-0.0319 -0.07475,-0.0588 -0.07121,-0.0738 0.0052,-0.0222 0.413808,-0.45236 1.632434,-1.71868 0.929334,-0.96571 2.1065598,-2.16647 3.5457995,-3.61668 0.777552,-0.78349 1.441678,-1.45675 1.4758333,-1.49616 0.034155,-0.0394 1.1951727,-1.21213 2.5800414,-2.60606 1.741324,-1.75272 2.53508792,-2.5616 2.57351952,-2.62252 0.074968,-0.11884 0.07594,-0.2712 0.00303,-0.4758 -0.073504,-0.20628 -0.1672211,-0.34335 -0.33728332,-0.4933 -0.2723557,-0.24014 -0.6227898,-0.33049 -0.8266483,-0.21313 -0.049445,0.0285 -0.4160513,0.39224 -1.1442369,1.13541 -1.2411325,1.26666 -1.7253529,1.74876 -4.3314527,4.31248 -1.0547162,1.03756 -2.4228821,2.3843 -3.0403705,2.99275 -0.617486,0.60846 -1.780958,1.75199 -2.58549,2.54118 -1.671421,1.63956 -2.995564,2.94334 -4.814494,4.74044 -2.105207,2.07994 -4.193598,4.12021 -4.53248,4.42805 -0.175588,0.1595 -1.27214,1.24205 -2.436783,2.40567 -1.389894,1.38867 -2.132268,2.12014 -2.160414,2.12866 -0.0378,0.0114 -0.05745,-0.003 -0.165796,-0.11934 l -0.122914,-0.13233 -0.273449,0.12735 c -0.266791,0.12425 -0.278762,0.13225 -0.491684,0.32859 -0.237358,0.21887 -0.235571,0.21545 -0.166878,0.31947 0.03415,0.0517 0.03227,0.0595 -0.02916,0.12091 -0.06234,0.0623 -0.06863,0.0637 -0.124732,0.0266 -0.03249,-0.0215 -0.06842,-0.039 -0.07983,-0.0391 -0.01141,-2e-5 -0.08908,0.0637 -0.172604,0.14164 l -0.151853,0.14168 0.0328,0.0517 c 0.0766,0.1207 0.07666,0.11549 -0.0021,0.18467 -0.06912,0.0607 -0.07695,0.0623 -0.123038,0.0249 -0.07528,-0.0611 -0.11926,-0.0442 -0.265397,0.10194 -0.130378,0.13037 -0.130576,0.13068 -0.09885,0.18057 0.07359,0.11572 0.07365,0.1121 -0.0033,0.18908 -0.06758,0.0676 -0.07673,0.0706 -0.122835,0.0411 -0.0274,-0.0175 -0.0601,-0.0374 -0.07268,-0.0441 -0.02935,-0.0157 -0.148323,0.0727 -0.246868,0.18331 l -0.07699,0.0865 0.0499,0.0764 0.0499,0.0764 -0.07895,0.0789 c -0.07857,0.0786 -0.07922,0.0788 -0.14119,0.0364 -0.08196,-0.0561 -0.12196,-0.0407 -0.264168,0.10151 l -0.118982,0.11899 0.05075,0.0756 c 0.04752,0.0708 0.04762,0.0793 0.0014,0.1339 l -0.0493,0.0583 -0.177801,-0.15816 c -0.09779,-0.087 -0.403093,-0.38758 -0.678452,-0.66798 l -0.500649,-0.50983 0.383903,-0.38881 0.383904,-0.38881 0.33384,-0.20112 c 0.495899,-0.29875 1.162511,-0.6922 1.588573,-0.93761 0.207434,-0.11948 0.621057,-0.36118 0.919161,-0.53711 0.298104,-0.17593 0.655567,-0.38686 0.794364,-0.46873 l 0.252357,-0.14886 2.231401,-2.21134 2.2314,-2.21134 0.121092,-0.005 c 0.119389,-0.005 0.122733,-0.007 0.2379,-0.12174 0.06425,-0.0642 0.271714,-0.26295 0.46104,-0.44157 l 0.344228,-0.32476 0.0056,-0.1104 c 0.0031,-0.0607 0.0088,-0.17769 0.0128,-0.25995 0.0046,-0.0953 -0.01,-0.19804 -0.04016,-0.28312 -0.220745,-0.62203 -1.315637,-1.80977 -2.093878,-2.27144 -0.266064,-0.15783 -0.456892,-0.20411 -0.742521,-0.18008 -0.03962,0.003 -0.06782,-0.008 -0.08413,-0.0348 -0.01349,-0.0219 -0.100374,-0.12483 -0.193074,-0.2288 -0.134511,-0.15086 -0.175887,-0.18818 -0.204906,-0.18481 -0.02,0.002 -0.101536,0.0611 -0.181193,0.1307 -0.170033,0.1485 -0.233588,0.25617 -0.230703,0.39085 0.0024,0.11127 -0.02019,0.13106 -0.09281,0.0814 -0.18305,-0.12521 -1.277445,-0.0456 -2.496108,0.18154 -0.192888,0.036 -0.39849,0.0644 -0.456893,0.0632 -0.144049,-0.003 -0.33467,0.0408 -0.352515,0.0808 -0.0086,0.0192 -0.11696,0.0615 -0.266529,0.10407 -0.31823,0.0905 -0.583223,0.20029 -0.655142,0.27151 -0.04664,0.0462 -0.05131,0.0625 -0.02869,0.1003 0.01486,0.0248 0.02102,0.0586 0.01368,0.0751 -0.0073,0.0165 2.86e-4,0.0396 0.01694,0.0514 0.01666,0.0118 0.02256,0.0295 0.01312,0.0393 -0.02072,0.0215 0.0094,0.22706 0.0374,0.25502 0.02659,0.0266 0.149848,0.0214 0.189354,-0.008 0.01742,-0.013 0.03963,-0.0156 0.04937,-0.006 0.0097,0.01 0.032,0.0143 0.04949,0.0102 0.01748,-0.004 0.05108,0.008 0.07467,0.0269 0.170433,0.13672 1.286116,0.027 2.59518,-0.25512 0.316954,-0.0683 1.03428,-0.27473 1.105814,-0.31821 0.0689,-0.0419 0.09298,-0.01 0.05446,0.0722 -0.01747,0.0373 -0.02966,0.11232 -0.02709,0.16681 l 0.0047,0.0991 -0.670137,0.67397 c -0.734841,0.73904 -1.154918,1.16877 -1.61935,1.65654 -0.349207,0.36675 -0.747849,0.76483 -1.568839,1.5666 -0.639376,0.62442 -0.560966,0.52897 -0.938284,1.14211 -0.239275,0.38882 -0.749075,1.22881 -0.892369,1.47036 -0.165021,0.27816 -0.269544,0.44963 -0.36018,0.59085 -0.08735,0.1361 -0.468882,0.74889 -0.643712,1.03388 -0.09904,0.16146 -0.135965,0.20274 -0.511415,0.57192 -0.434034,0.42677 -0.408631,0.40941 -0.520408,0.35582 l -0.05024,-0.0241 -0.34578,0.34581 c -0.324213,0.32424 -0.344325,0.34777 -0.322532,0.37718 0.01279,0.0173 0.02452,0.0569 0.02608,0.0882 0.0027,0.055 -0.01232,0.0716 -0.469575,0.51909 -0.368985,0.36108 -0.480157,0.46143 -0.507811,0.45836 -0.04344,-0.005 -0.132941,-0.003 -0.20474,0.005 -0.02954,0.003 -0.04186,0.002 -0.02739,-0.003 0.04097,-0.0137 0.02056,-0.0545 -0.0335,-0.067 -0.03967,-0.009 -0.05388,-0.0242 -0.07629,-0.081 -0.01515,-0.0383 -0.08532,-0.13226 -0.155948,-0.20875 l -0.128415,-0.13906 -0.187268,0.002 c -0.179975,0.002 -0.191855,0.006 -0.305068,0.0902 -0.154406,0.11541 -0.727723,0.6883 -0.810641,0.81008 -0.05619,0.0825 -0.0649,0.11967 -0.06561,0.28022 l -8.26e-4,0.18512 0.123761,0.12376 c 0.08149,0.0815 0.146319,0.13094 0.189814,0.14478 0.106238,0.0338 0.168369,0.13853 0.164906,0.27793 -0.0027,0.10975 -0.0092,0.12389 -0.113503,0.24651 -0.06083,0.0716 -0.233131,0.25121 -0.382881,0.39926 l -0.272277,0.26918 -0.06046,-0.0414 c -0.05937,-0.0406 -0.06185,-0.04 -0.137603,0.0342 -0.04245,0.0415 -0.202098,0.1979 -0.354822,0.3474 l -0.277682,0.27182 0.03532,0.0505 c 0.02272,0.0325 0.02734,0.0678 0.01295,0.099 -0.0123,0.0267 -0.255926,0.27558 -0.541393,0.55309 l -0.519029,0.50455 -0.184379,0.066 c -0.101408,0.0363 -0.193069,0.0573 -0.20369,0.0467 -0.01098,-0.011 -0.08444,0.0147 -0.170759,0.0596 -0.0833,0.0433 -0.168299,0.0774 -0.188895,0.0756 -0.02941,-0.002 -0.112503,0.0708 -0.386986,0.34115 l -0.349538,0.34429 -0.06931,0.15359 c -0.03812,0.0845 -0.07087,0.16931 -0.07278,0.18853 -0.0025,0.0248 -0.01348,0.0349 -0.03787,0.0349 -0.01892,0 -0.05614,0.0217 -0.0827,0.0483 -0.02656,0.0266 -0.06217,0.0451 -0.07912,0.0412 -0.01695,-0.004 -0.06057,-4e-4 -0.09694,0.008 -0.03637,0.008 -0.109947,0.0151 -0.163512,0.0156 -0.150448,0.001 -0.388507,0.0243 -0.477417,0.046 -0.07619,0.0186 -0.07957,0.0172 -0.06636,-0.0264 0.01218,-0.0402 0.0023,-0.0558 -0.07906,-0.12434 -0.0818,-0.0689 -0.09453,-0.0891 -0.10574,-0.16795 -0.01143,-0.0804 -0.02607,-0.10295 -0.142007,-0.21888 -0.104186,-0.10419 -0.135573,-0.12645 -0.161803,-0.11477 -0.02477,0.011 -0.04805,-0.003 -0.09756,-0.0604 l -0.06502,-0.0749 -0.07871,0.055 c -0.04329,0.0303 -0.168685,0.13223 -0.278651,0.22658 -0.109967,0.0944 -0.287938,0.24405 -0.395491,0.33265 -0.107553,0.0886 -0.267824,0.23992 -0.35616,0.33626 -0.127305,0.13885 -0.163705,0.17024 -0.175523,0.1514 -0.0082,-0.0131 -0.0063,-0.13694 0.0042,-0.27525 0.044,-0.5791 0.07167,-1.09916 0.05915,-1.11169 -0.03593,-0.0359 -0.0707,0.0646 -0.107693,0.3112 -0.02235,0.14903 -0.04524,0.31903 -0.05086,0.37778 -0.01075,0.1123 -0.034,0.16364 -0.04083,0.0902 -0.0052,-0.0563 0.04758,-0.44277 0.09838,-0.71982 0.0407,-0.22199 0.04675,-0.30551 0.02699,-0.37273 -0.01139,-0.0387 -0.01361,-0.0391 -0.295271,-0.0502 -0.06696,-0.003 -0.136067,-0.0171 -0.153573,-0.0322 -0.0175,-0.0151 -0.04152,-0.0177 -0.05336,-0.006 -0.0246,0.0246 -0.07298,0.19658 -0.09047,0.3216 -0.0065,0.0465 -0.02596,0.0908 -0.04329,0.0985 -0.02036,0.009 -0.03631,0.0947 -0.04517,0.24248 -0.0075,0.12566 -0.03503,0.40215 -0.0611,0.61442 -0.05741,0.46747 -0.07494,0.67648 -0.05672,0.67647 0.0075,0 0.01798,-0.0245 0.02326,-0.0545 0.0087,-0.0495 0.01481,-0.0545 0.06632,-0.0545 0.03119,0 0.06675,0.01 0.079,0.0223 0.01226,0.0123 0.02846,0.0161 0.036,0.009 0.01625,-0.0162 0.156161,0.0491 0.179266,0.0838 0.0096,0.0144 0.01873,0.0127 0.02268,-0.004 0.005,-0.0213 0.0102,-0.0162 0.0217,0.0214 0.01936,0.0639 -0.01644,0.16776 -0.05175,0.1501 -0.0135,-0.007 -0.03735,5.6e-4 -0.05302,0.0162 -0.01567,0.0157 -0.03851,0.0185 -0.05077,0.006 -0.01226,-0.0123 -0.03232,-0.0123 -0.04458,0 -0.01226,0.0123 -0.02902,0.0156 -0.03725,0.007 -0.0082,-0.008 -0.04621,-0.0128 -0.08441,-0.0101 -0.08459,0.006 -0.108671,-0.0154 -0.108671,-0.0963 0,-0.13038 -0.0208,-0.053 -0.04146,0.15424 -0.05166,0.51824 -0.07215,1.25034 -0.036,1.28649 0.0064,0.006 0.0036,0.0426 -0.0061,0.0805 l -0.01771,0.0688 -0.143648,0.0113 c -0.07901,0.006 -0.175923,0.0229 -0.21537,0.0369 -0.08072,0.0288 -0.20926,0.14829 -0.244952,0.22777 -0.02138,0.0476 -0.01591,0.0603 0.0575,0.13374 0.04462,0.0446 0.104682,0.0917 0.133471,0.10463 0.0945,0.0424 0.300911,0.25516 0.326796,0.33679 0.02582,0.0814 -0.0042,0.13356 -0.05028,0.0874 -0.04695,-0.0469 -0.06384,-0.006 -0.03068,0.0753 0.01665,0.0406 0.02448,0.0795 0.01738,0.0866 -0.07965,0.0797 1.084253,1.28555 1.715101,1.77698 0.315015,0.2454 0.398143,0.29231 0.536691,0.3029 0.07659,0.006 0.08831,-0.004 0.04993,-0.0425 -0.06199,-0.062 0.05898,-0.073 0.189489,-0.0173 l 0.0686,0.0293 0.403412,-0.41216 c 0.379645,-0.38788 0.402953,-0.4151 0.39564,-0.46208 -0.0043,-0.0275 -0.02224,-0.0644 -0.03993,-0.0821 -0.02886,-0.0289 -0.02285,-0.0434 0.05867,-0.14194 0.04995,-0.0604 0.545618,-0.56466 1.10147,-1.12063 l 1.010631,-1.01085 0.0038,-0.17467 c 0.0021,-0.0961 4.77e-4,-0.22149 -0.0036,-0.27872 -0.0054,-0.0754 0.0044,-0.11585 0.03558,-0.14702 0.02364,-0.0236 0.03744,-0.0542 0.03066,-0.0678 -0.0094,-0.0189 -0.0033,-0.0257 0.02583,-0.0287 0.02098,-0.002 0.08521,-0.0278 0.142724,-0.057 0.05752,-0.0292 0.143712,-0.0607 0.191543,-0.0698 0.08488,-0.0163 0.09474,-0.0244 0.411403,-0.34109 0.264551,-0.26455 0.323762,-0.33168 0.320792,-0.36367 -0.002,-0.0216 0.03127,-0.10903 0.07395,-0.19432 0.06372,-0.12737 0.07272,-0.16323 0.05033,-0.20063 -0.01725,-0.0288 -0.01664,-0.0562 0.0017,-0.0745 0.01591,-0.0159 0.0481,-0.0949 0.07154,-0.17556 l 0.04261,-0.14663 0.529131,-0.52913 c 0.354839,-0.35484 0.537482,-0.52716 0.554478,-0.52315 0.03718,0.009 0.961155,0.94506 0.965208,0.97807 0.0019,0.0154 0.07206,0.10516 0.155918,0.19942 0.08386,0.0943 0.153776,0.18536 0.155364,0.20244 0.0027,0.0293 -0.03698,0.0736 -0.19379,0.21643 -0.06352,0.0579 -0.06799,0.0583 -0.114621,0.0122 -0.07848,-0.0777 -0.101523,-0.0735 -0.202306,0.0373 l -0.09055,0.0995 0.04686,0.0649 c 0.02577,0.0357 0.04686,0.0745 0.04686,0.0863 -10e-7,0.0229 -0.175925,0.2087 -0.229007,0.24181 -0.02111,0.0132 -0.04622,0.006 -0.07366,-0.0217 -0.08854,-0.0885 -0.08887,-0.0884 -0.308633,0.13135 -0.20081,0.2008 -0.202694,0.20348 -0.335098,0.47158 -0.07323,0.1483 -0.134488,0.28346 -0.136125,0.30036 -0.0016,0.0169 0.04895,0.0921 0.112427,0.1671 0.10141,0.11984 0.114427,0.14456 0.107347,0.20384 -0.0107,0.0896 -0.06271,0.1759 -0.204307,0.33897 -0.174367,0.20081 -0.175607,0.20363 -0.12819,0.29161 0.03974,0.0737 0.039,0.0792 -0.01576,0.11664 -0.07743,0.053 -0.08877,0.10786 -0.04015,0.19439 0.02871,0.0511 0.03438,0.0965 0.01931,0.15446 -0.02026,0.078 -0.05071,0.11223 -0.604075,0.6797 -0.528746,0.54223 -0.582737,0.6024 -0.582721,0.64941 1.6e-5,0.0462 0.03577,0.0875 0.331201,0.38208 0.270079,0.26929 0.352009,0.34156 0.444029,0.3915 0.06206,0.0337 0.112845,0.0668 0.112844,0.0737 0,0.007 -0.119886,0.21878 -0.266414,0.47091 -0.439406,0.75609 -0.727781,1.27359 -0.709703,1.27359 0.0057,0 0.07159,-0.0925 0.146467,-0.20558 0.07487,-0.11308 0.191887,-0.28358 0.260026,-0.3789 0.06814,-0.0953 0.15202,-0.21874 0.186402,-0.27426 0.03438,-0.0555 0.07217,-0.10347 0.08398,-0.10656 0.0188,-0.005 -0.05222,0.13152 -0.121179,0.23282 -0.08683,0.12755 -0.156544,0.24707 -0.144147,0.24714 0.008,5e-5 -0.0058,0.022 -0.03063,0.0488 -0.02487,0.0268 -0.05676,0.0773 -0.07088,0.11223 -0.01411,0.0349 -0.03665,0.0771 -0.05009,0.0938 -0.01344,0.0167 -0.02096,0.0457 -0.01673,0.0645 0.0042,0.0188 0.0025,0.0292 -0.0039,0.0231 -0.0064,-0.006 -0.02426,0.0197 -0.03977,0.0573 -0.01551,0.0376 -0.03889,0.0737 -0.05195,0.0801 -0.01306,0.006 -0.0305,0.0358 -0.03875,0.0653 -0.0083,0.0294 -0.02358,0.065 -0.03406,0.079 -0.0613,0.0821 -0.103472,0.15104 -0.101509,0.16597 0.0012,0.009 -0.01965,0.0419 -0.04641,0.0721 -0.02676,0.0302 -0.04401,0.0643 -0.03833,0.0757 0.0057,0.0114 -3.4e-5,0.0231 -0.01271,0.0261 -0.01267,0.003 -0.02455,0.0217 -0.0264,0.0416 -0.0019,0.0199 -0.01693,0.0422 -0.03351,0.0496 -0.01659,0.007 -0.02841,0.0322 -0.02628,0.0552 0.0021,0.023 -0.0063,0.0441 -0.01865,0.0471 -0.03255,0.008 -0.07734,0.1458 -0.05995,0.18484 0.01046,0.0235 0.0014,0.0411 -0.03105,0.0605 -0.03429,0.0205 -0.03867,0.0306 -0.01741,0.0401 0.01589,0.007 0.02061,0.0285 0.01073,0.0487 -0.0285,0.0581 -0.05824,0.19791 -0.0542,0.2548 0.0021,0.0289 -0.0056,0.0619 -0.01696,0.0733 -0.01138,0.0114 -0.02211,0.0526 -0.02384,0.0915 -0.0047,0.10555 -0.0286,0.22852 -0.04444,0.22852 -0.0077,0 -0.0062,0.0256 0.0033,0.057 0.0095,0.0314 0.0084,0.0659 -0.0025,0.0768 -0.01088,0.0109 -0.01238,0.0272 -0.0033,0.0362 0.009,0.009 0.0018,0.023 -0.01611,0.0309 -0.02076,0.009 -0.02348,0.0189 -0.0075,0.0266 0.0333,0.0161 0.02943,0.16801 -0.0062,0.2417 -0.01559,0.0323 -0.02013,0.0669 -0.01009,0.0769 0.01004,0.01 0.0139,0.0617 0.0086,0.11481 -0.01651,0.16488 -0.01691,0.45677 -6.36e-4,0.46523 0.0085,0.004 0.0069,0.0166 -0.0035,0.0271 -0.01046,0.0105 -0.01528,0.042 -0.01071,0.0702 0.0046,0.0281 0.0028,0.0567 -0.004,0.0634 -0.0068,0.007 -0.01107,0.0443 -0.0096,0.0834 0.0015,0.0391 -0.006,0.0711 -0.01663,0.0711 -0.01063,0 -0.0089,0.0104 0.0037,0.0231 0.01269,0.0127 0.01078,0.0576 -0.0042,0.0997 -0.01502,0.0421 -0.02857,0.10977 -0.03011,0.15026 -0.0054,0.1432 -0.219081,0.6775 -0.276297,0.69101 -0.01008,0.002 -0.01525,0.0182 -0.01149,0.0353 0.0038,0.017 -0.0057,0.0452 -0.02095,0.0626 -0.01527,0.0174 -0.04999,0.063 -0.07714,0.10118 -0.05992,0.0844 -0.172531,0.22701 -0.203234,0.25742 -0.03096,0.0306 -0.395396,0.35214 -0.426351,0.37609 -0.09882,0.0765 -0.202113,0.14434 -0.224157,0.14734 -0.01439,0.002 -0.05793,0.0263 -0.09676,0.0542 -0.07896,0.0566 -0.205749,0.12185 -0.236837,0.12185 -0.0112,0 -0.03118,0.0104 -0.0444,0.023 -0.01322,0.0127 -0.0637,0.0369 -0.112183,0.0537 -0.04848,0.0169 -0.09592,0.038 -0.105412,0.047 -0.0095,0.009 -0.03591,0.0145 -0.0587,0.0124 -0.0228,-0.002 -0.04145,0.003 -0.04145,0.011 0,0.019 -0.221632,0.0819 -0.236507,0.067 -0.0061,-0.006 -0.01909,-0.003 -0.02878,0.006 -0.0097,0.01 -0.07988,0.0231 -0.155989,0.0298 -0.0761,0.007 -0.160858,0.0145 -0.188341,0.0174 -0.111254,0.0118 -0.268983,0.01 -0.366553,-0.005 -0.05683,-0.009 -0.123925,-0.015 -0.149102,-0.0144 -0.02518,6.3e-4 -0.06182,-0.006 -0.08143,-0.0152 -0.01961,-0.009 -0.04404,-0.008 -0.05428,0.002 -0.01025,0.0102 -0.01418,-0.007 -0.0087,-0.0375 0.01535,-0.0871 -0.02084,-0.10502 -0.07518,-0.0372 -0.03845,0.048 -0.05105,0.053 -0.07453,0.0295 -0.01554,-0.0155 -0.04661,-0.0265 -0.06904,-0.0245 -0.02243,0.002 -0.04567,-0.001 -0.05163,-0.007 -0.006,-0.006 -0.08731,-0.0266 -0.180782,-0.0459 -0.09347,-0.0193 -0.188805,-0.0463 -0.211853,-0.06 -0.02305,-0.0137 -0.04679,-0.0201 -0.05277,-0.0141 -0.006,0.006 -0.05031,-0.003 -0.09852,-0.02 -0.04822,-0.017 -0.09276,-0.0259 -0.09898,-0.0199 -0.0062,0.006 -0.02174,5.6e-4 -0.03448,-0.0122 -0.01274,-0.0127 -0.02569,-0.0125 -0.02878,6.4e-4 -0.0032,0.0136 -0.01167,0.0102 -0.01982,-0.008 -0.0078,-0.0175 -0.02162,-0.0245 -0.03066,-0.0155 -0.009,0.009 -0.02648,0.006 -0.03874,-0.006 -0.02145,-0.0215 -0.04503,-0.0119 -0.07894,0.032 -0.0094,0.0121 -0.02181,0.008 -0.03008,-0.011 -0.0091,-0.0204 -0.02261,-0.0232 -0.03798,-0.008 -0.01313,0.0131 -0.03057,0.0172 -0.03874,0.009 -0.0082,-0.008 -0.03024,5.6e-4 -0.04904,0.0193 -0.0188,0.0188 -0.04842,0.0342 -0.06582,0.0342 -0.0174,0 -0.07657,0.0405 -0.131484,0.0899 -0.05491,0.0495 -0.101242,0.0885 -0.102956,0.0868 -0.01022,-0.0102 -0.116129,0.10078 -0.126969,0.13308 -0.0079,0.0236 -0.01872,0.0333 -0.02739,0.0246 -0.009,-0.009 -0.155973,0.13301 -0.396734,0.38341 -0.491812,0.51151 -0.696531,0.71493 -0.726653,0.72204 -0.01329,0.003 -0.01819,0.0117 -0.01087,0.019 0.0073,0.007 -0.02389,0.0497 -0.06934,0.0941 -0.04546,0.0444 -0.08614,0.0773 -0.09043,0.073 -0.0043,-0.004 -0.03575,0.0211 -0.0699,0.0564 -0.03415,0.0353 -0.07997,0.0729 -0.101812,0.0836 -0.02185,0.0107 -0.0532,0.0438 -0.06968,0.0735 -0.01655,0.0299 -0.0523,0.0641 -0.07985,0.0765 -0.03599,0.0162 -0.04488,0.0275 -0.03191,0.0408 0.01139,0.0117 0.0085,0.0169 -0.008,0.0143 -0.01431,-0.002 -0.05342,0.0219 -0.08692,0.0538 -0.0335,0.0319 -0.0786,0.0737 -0.100223,0.093 -0.02162,0.0192 -0.07846,0.0761 -0.126297,0.12633 -0.118512,0.12445 -0.309539,0.3114 -0.619596,0.60636 -0.06074,0.0578 -0.107077,0.10839 -0.10298,0.11246 0.0041,0.004 -0.02533,0.0382 -0.06539,0.0758 -0.04006,0.0376 -0.234803,0.22068 -0.432759,0.40685 -0.197956,0.18617 -0.422045,0.39674 -0.497975,0.46792 -0.135237,0.12678 -0.209983,0.18377 -0.24102,0.18377 -0.0085,0 -0.01705,0.0163 -0.01889,0.0361 -0.0019,0.0202 -0.01989,0.0427 -0.04088,0.051 -0.06442,0.0255 -0.09823,0.0545 -0.09241,0.0791 0.0031,0.013 -0.0044,0.0337 -0.01669,0.046 -0.01226,0.0123 -0.02484,0.0115 -0.02797,-0.002 -0.0037,-0.0156 -0.07568,0.0456 -0.203941,0.17324 -0.109054,0.10849 -0.282218,0.27715 -0.38482,0.37479 -0.112278,0.10683 -0.180877,0.18319 -0.172291,0.19177 0.0078,0.008 -0.0033,0.0159 -0.02487,0.0179 -0.04361,0.004 -0.349925,0.32192 -0.378837,0.39313 -0.01224,0.0301 -0.01828,0.0326 -0.02368,0.01 -0.0071,-0.03 -0.04561,0.0151 -0.107252,0.12565 -0.01207,0.0216 -0.02226,0.026 -0.02578,0.0111 -0.0039,-0.0167 -0.147364,0.11685 -0.44227,0.4118 -0.240046,0.24007 -0.469408,0.4622 -0.509708,0.49362 -0.04029,0.0314 -0.431365,0.40785 -0.869041,0.8365 -1.072236,1.05014 -1.44019,1.39935 -1.597278,1.5159 -0.101517,0.0753 -0.190865,0.1655 -0.384573,0.38815 -0.138783,0.15951 -0.272298,0.32356 -0.296699,0.36454 -0.101568,0.17058 -0.09053,0.46721 0.03106,0.83501 0.05408,0.16358 0.09791,0.25985 0.135323,0.29727 0.03633,0.0363 0.05976,0.0861 0.06822,0.14483 0.01039,0.0722 0.02623,0.10025 0.08192,0.14518 0.04982,0.0402 0.07435,0.0775 0.08808,0.13384 0.01511,0.062 0.03709,0.0928 0.106313,0.14909 0.05853,0.0476 0.09743,0.0957 0.118114,0.14606 0.0271,0.066 0.04116,0.0802 0.1158,0.11693 0.06588,0.0324 0.09472,0.0586 0.12835,0.11674 0.03472,0.06 0.06014,0.0822 0.127424,0.11097 0.06622,0.0284 0.09259,0.0511 0.124304,0.10698 0.03181,0.0561 0.05895,0.0793 0.129393,0.11083 0.07593,0.034 0.09412,0.0505 0.122762,0.11159 0.02849,0.0608 0.04712,0.0779 0.121958,0.11227 0.07048,0.0324 0.09713,0.0558 0.131862,0.11579 0.03472,0.06 0.06016,0.0824 0.125729,0.11045 0.06639,0.0284 0.09082,0.0501 0.127002,0.11265 0.0361,0.0624 0.06087,0.0844 0.127482,0.11347 0.06638,0.0289 0.09144,0.0512 0.127116,0.11284 0.0335,0.0579 0.06162,0.0849 0.114198,0.10952 0.04346,0.0204 0.09381,0.0641 0.133566,0.11603 0.03792,0.0495 0.09228,0.0977 0.133995,0.11868 0.05331,0.0268 0.07985,0.0533 0.11032,0.10987 0.03307,0.0614 0.05453,0.0804 0.121765,0.10801 0.06653,0.0273 0.08801,0.0462 0.116186,0.10213 0.02649,0.0526 0.05717,0.0825 0.131313,0.12793 0.06779,0.0416 0.105013,0.0764 0.124383,0.11653 0.01992,0.0412 0.05205,0.0702 0.115062,0.10353 0.06969,0.0369 0.09516,0.0612 0.125571,0.11962 0.03028,0.0582 0.0548,0.0817 0.118748,0.11389 0.06024,0.0303 0.09121,0.0589 0.122607,0.11321 0.03157,0.0546 0.06112,0.0817 0.118898,0.10911 0.06098,0.029 0.08654,0.0533 0.123557,0.11762 0.03645,0.0634 0.06355,0.0896 0.123776,0.11994 0.06023,0.0303 0.08732,0.0566 0.123776,0.11995 0.03745,0.0651 0.0626,0.0887 0.127254,0.1194 0.06887,0.0327 0.08475,0.0484 0.109245,0.10802 0.02448,0.0596 0.04065,0.0756 0.11106,0.1099 0.06538,0.0319 0.09191,0.0566 0.128432,0.11982 0.03513,0.0608 0.06489,0.0898 0.125664,0.12256 0.06348,0.0342 0.08632,0.0572 0.11261,0.11318 0.02623,0.0559 0.05062,0.0805 0.119554,0.12034 0.06854,0.0396 0.09334,0.0644 0.118878,0.11888 0.02491,0.0531 0.05087,0.0796 0.113882,0.11599 0.06149,0.0355 0.09109,0.065 0.120067,0.11962 0.03012,0.0568 0.05291,0.0784 0.105385,0.0999 0.03682,0.0151 0.110208,0.068 0.163075,0.11764 0.08016,0.0752 0.130877,0.10194 0.305306,0.16064 0.265772,0.0894 0.477047,0.10082 0.667664,0.036 l 0.142896,-0.0486 0.430268,-0.42352 c 0.23665,-0.23293 0.470607,-0.46959 0.51992,-0.5259 z m 13.325161,-19.79978 c -0.158979,0.0933 -0.312742,0.132 -0.495345,0.12475 -0.129755,-0.005 -0.231235,-0.0332 -0.536521,-0.14846 -0.207076,-0.0782 -0.417307,-0.16566 -0.467178,-0.19446 -0.237872,-0.13737 -0.365683,-0.46858 -0.278074,-0.72061 0.03948,-0.11358 0.11434,-0.20065 0.120015,-0.1396 0.0029,0.0315 0.01694,0.0338 0.07537,0.0121 0.09846,-0.0365 0.240942,-0.16207 0.195938,-0.17269 -0.01122,-0.003 -0.02128,-0.0297 -0.02236,-0.06 -0.0011,-0.0304 -0.01291,-0.0607 -0.02629,-0.0674 -0.01339,-0.007 -0.02235,-0.0146 -0.01992,-0.0177 0.0024,-0.003 0.04022,-0.0493 0.08397,-0.10292 l 0.07955,-0.0974 0.0126,0.0584 c 0.06651,0.30805 0.160976,0.49109 0.353294,0.68454 0.175052,0.17607 0.290214,0.24925 0.521648,0.33144 0.21171,0.0752 0.475448,0.092 0.672957,0.0429 0.109376,-0.0272 0.133932,-0.0406 0.145858,-0.08 0.01278,-0.0422 -0.01002,-0.087 -0.06714,-0.13173 -0.01055,-0.008 -0.105446,-0.0159 -0.21089,-0.0169 -0.51131,-0.005 -0.900879,-0.33367 -0.975192,-0.82266 -0.02387,-0.15709 0.01028,-0.40436 0.07144,-0.51723 0.0187,-0.0345 0.06691,-0.12342 0.107154,-0.1976 0.07865,-0.14499 0.292456,-0.3996 0.732544,-0.87233 0.241727,-0.25966 0.265237,-0.28035 0.374639,-0.32977 0.252667,-0.11413 0.521531,-0.073 0.72285,0.11067 0.181201,0.16529 0.509569,0.57541 0.572571,0.71512 0.06318,0.1401 0.07525,0.40432 0.02549,0.55773 -0.06973,0.21497 -0.09122,0.24322 -0.675444,0.88767 -0.310894,0.34294 -0.629899,0.69932 -0.708902,0.79195 -0.220787,0.25887 -0.265849,0.30247 -0.384644,0.37217 z m -1.649784,-9.02835 -0.05914,-0.05 -0.117585,0.10897 c -0.127352,0.11803 -0.129567,0.13269 -0.03453,0.22889 0.03067,0.031 0.02648,0.0404 -0.05364,0.12051 l -0.08687,0.0869 -0.190366,-0.17094 c -0.104699,-0.094 -0.413329,-0.3939 -0.68584,-0.66641 l -0.495474,-0.49547 0.372134,-0.37214 0.372135,-0.37213 0.146054,-0.005 0.146055,-0.005 0.64404,-0.64404 0.644037,-0.64404 0.0011,-0.14309 0.0011,-0.14309 0.4652,-0.45424 c 0.25586,-0.24983 0.484656,-0.46822 0.508435,-0.4853 0.04231,-0.0304 0.04633,-0.0281 0.187226,0.10728 0.121998,0.11721 0.134056,0.13338 0.07897,0.10583 -0.03576,-0.0179 -0.06993,-0.0228 -0.07593,-0.0108 -0.01477,0.0294 0.347032,0.4293 0.571821,0.63206 0.111061,0.10018 0.17782,0.1718 0.179778,0.19286 0.0017,0.0184 0.0443,0.0787 0.09463,0.13403 l 0.09152,0.10053 -0.995254,1.00289 -0.995253,1.00289 0.02622,0.0404 c 0.01442,0.0222 0.03759,0.0558 0.05149,0.0746 0.02233,0.0302 0.01265,0.0478 -0.0832,0.15124 l -0.108465,0.11707 -0.07714,-0.0503 -0.07714,-0.0503 -0.118471,0.10982 -0.11847,0.10982 0.05122,0.0763 0.05122,0.0763 -0.09619,0.11105 c -0.0529,0.0611 -0.109698,0.11351 -0.126209,0.11652 -0.01651,0.003 -0.05663,-0.0171 -0.08916,-0.0446 z m -9.493517,3.29189 c -0.02537,-0.007 -0.07731,-0.0195 -0.115435,-0.0273 -0.08083,-0.0165 -0.07806,-0.006 -0.08413,-0.31562 -0.0043,-0.21878 0.01926,-0.28378 0.03017,-0.0833 0.0023,0.0416 0.02757,0.0775 0.04346,0.0616 0.01179,-0.0118 0.07799,-0.34875 0.118898,-0.60514 0.02058,-0.12903 0.03987,-0.19021 0.05865,-0.18608 0.01539,0.003 0.07717,0.0551 0.13728,0.11499 0.09483,0.0945 0.117197,0.10801 0.169133,0.10255 0.05015,-0.005 0.07887,0.0109 0.177345,0.0999 l 0.117503,0.10621 -0.01963,0.0949 c -0.01943,0.094 -0.02253,0.0978 -0.303381,0.37266 -0.26629,0.26062 -0.286593,0.2769 -0.329874,0.26452 z"
       id="path2104"       
       sodipodi:nodetypes="csccccccccccscsscccccscccsccsccscccccscccccccsscccscsscscssscccccccsccccccccssccccccccsccscscscccccssccscccccccccccccccsccccsccccccccccccccscccccccccccccccccccccccccccscccscccsssssscccccccsccsccccscsccccccscscccccccccsccsccccsccsccscccsscccccccccccscsccsccccsssscscccccccsccccccccscscscccccccccccsccccccccccscccccccsccccssccsscccscccsccsccccssccccsssscscscccccsccscsscsccccscccccsccccscccsccscscccccccccsscccccccccscccccccsccccccccccccccccccccccccccscccsscccsccscsccscccccccccccccccccssccccsccscsscsscsccssccsssccscsccscscccccccsccccccccccscccscccccccsccsssscccccccccsccccccccccccccccccccccccccccccccscccccccccccscccccccccccsccccccscccsccccccccsccsccccccccccccccccccccccccccccccccccccccsscccccccc" />
  </g>
</svg>
