<?xml version="1.0" encoding="UTF-8" standalone="no"?>
<!-- Created with Inkscape (http://www.inkscape.org/) -->

<svg
   xmlns:dc="http://purl.org/dc/elements/1.1/"
   xmlns:cc="http://creativecommons.org/ns#"
   xmlns:rdf="http://www.w3.org/1999/02/22-rdf-syntax-ns#"
   xmlns:svg="http://www.w3.org/2000/svg"
   xmlns="http://www.w3.org/2000/svg"
   xmlns:sodipodi="http://sodipodi.sourceforge.net/DTD/sodipodi-0.dtd"   
   width="220"
   height="235"
   viewBox="0 0 58.208331 62.177086"
   version="1.1"
   id="svg8"   
   sodipodi:docname="svd.svg" >   
  <defs
     id="defs2" />
  <sodipodi:namedview
     id="base"
     pagecolor="#000000"
     bordercolor="#666666"
     borderopacity="1.0"
     showgrid="false"
     fit-margin-top="0"
     fit-margin-left="0"
     fit-margin-right="0"
     fit-margin-bottom="0"
     units="px" />
  <metadata
     id="metadata5">
    <rdf:RDF>
      <cc:Work
         rdf:about="">
        <dc:format>image/svg+xml</dc:format>
        <dc:type
           rdf:resource="http://purl.org/dc/dcmitype/StillImage" />
        <dc:title></dc:title>
      </cc:Work>
    </rdf:RDF>
  </metadata>
  <g
     id="layer1"
     transform="translate(56.057826,-205.94221)">
    <path
       style="fill:none;stroke:#ffffff;stroke-width:0.4;stroke-opacity:1;stroke-miterlimit:4;stroke-dasharray:none"
       d="m -30.128261,248.72623 c -0.09623,-0.003 -0.345432,-0.1543 -0.723169,-0.43872 -0.09392,-0.0707 -0.174238,-0.11392 -0.178471,-0.096 -0.0042,0.018 -0.06773,-0.0255 -0.141111,-0.0964 -0.07337,-0.071 -0.434393,-0.38222 -0.802256,-0.69173 -0.367862,-0.30953 -0.811169,-0.70466 -0.985125,-0.87808 -0.173974,-0.17339 -0.344784,-0.32165 -0.379613,-0.32942 -0.04802,-0.0107 -0.07985,0.0348 -0.13167,0.18807 -0.04912,0.14535 -0.04909,0.19788 1.69e-4,0.18684 0.05146,-0.0115 0.05414,-6.8e-4 0.01077,0.0433 -0.03179,0.0322 -0.03675,0.0946 -0.0111,0.13838 0.02566,0.0438 0.03505,0.0913 0.02087,0.10545 -0.01418,0.0142 -0.0075,0.061 0.01478,0.10402 0.05217,0.10069 0.06782,0.31864 0.02588,0.36058 -0.01784,0.0179 -0.06471,-0.004 -0.104178,-0.0484 -0.03946,-0.0445 -0.05837,-0.0895 -0.04202,-0.10009 0.01635,-0.0105 0.01541,-0.0804 -0.0021,-0.15528 -0.02964,-0.12672 -0.04108,-0.13797 -0.167321,-0.16426 -0.102824,-0.0214 -0.161993,-0.002 -0.245309,0.0816 l -0.1098,0.1098 -0.440709,-0.42773 -0.440708,-0.42772 0.409128,0.44352 c 0.472917,0.51267 0.384468,0.51141 -0.130117,-0.002 -0.332233,-0.33138 -0.335797,-0.33363 -0.45793,-0.28795 -0.188414,0.0705 -1.571612,1.47863 -1.609323,1.63837 -0.0062,0.0266 0.176557,0.23336 0.407771,0.46132 0.230519,0.22728 0.437517,0.45168 0.459994,0.49867 0.07979,0.16682 0.172611,0.67588 0.136702,0.7497 -0.02006,0.0412 -0.01158,0.0808 0.01884,0.0881 0.03129,0.008 0.03169,0.0186 9.28e-4,0.0259 -0.06291,0.0148 -0.132185,0.1475 -0.08309,0.15909 0.04072,0.01 0.0044,0.0544 -0.465067,0.57448 -0.5075,0.56214 -1.041558,0.99138 -1.293255,1.03945 -0.27279,0.0521 -0.519487,0.0501 -0.574284,-0.005 -0.02638,-0.0264 -0.05352,-0.0244 -0.06032,0.005 -0.0068,0.0288 -0.02091,0.0375 -0.03135,0.0193 -0.01046,-0.0182 -0.06185,-0.0542 -0.114221,-0.08 -0.115555,-0.0569 -0.235907,0.0507 -0.513146,0.45857 -0.215365,0.31687 -0.271869,0.58528 -0.165931,0.78825 0.03885,0.0744 0.18314,0.2644 0.320643,0.42217 0.311237,0.35709 0.832269,1.00496 1.196503,1.48775 0.299778,0.39736 0.360828,0.52593 0.311886,0.65679 -0.126901,0.33933 -1.489757,1.37599 -2.11652,1.60994 -0.05167,0.0193 -0.118756,0.0516 -0.149074,0.0719 -0.03031,0.0203 -0.11556,0.0618 -0.189428,0.0921 -0.07387,0.0304 -0.156902,0.0714 -0.184519,0.0911 -0.05789,0.0414 -0.303388,0.0175 -0.357828,-0.0349 -0.07227,-0.0695 -0.66009,-0.067 -0.875024,0.004 -0.426763,0.14049 -0.560111,0.28777 -1.398754,1.54493 -0.41701,0.62511 -0.828505,1.2368 -0.914435,1.3593 -0.231776,0.33039 -0.860542,1.18191 -1.006033,1.36243 -0.114061,0.14151 -0.914766,1.24048 -1.527776,2.09687 -0.128823,0.17997 -0.272462,0.37739 -0.319196,0.43871 -0.04673,0.0613 -0.346074,0.46146 -0.665197,0.88919 -0.319124,0.42774 -0.623771,0.83362 -0.676997,0.90198 -0.05322,0.0683 -0.277122,0.36202 -0.497551,0.6526 -0.497378,0.65565 -0.935897,1.11032 -0.96244,0.99787 -0.0061,-0.0255 -0.03359,-0.008 -0.06127,0.0396 -0.02768,0.0473 -0.05497,0.0663 -0.06065,0.0422 -0.0057,-0.0241 -0.05206,-0.0311 -0.103073,-0.0157 -0.05101,0.0154 -0.133126,0.004 -0.182487,-0.026 -0.128571,-0.0774 -0.72268,-0.52308 -1.688065,-1.26629 -0.74937,-0.57692 -1.033272,-0.78758 -1.340029,-0.99432 -0.05105,-0.0345 -0.158575,-0.11162 -0.238955,-0.17158 -0.08037,-0.06 -0.481088,-0.34252 -0.890463,-0.62789 -0.815032,-0.56814 -1.07431,-0.79914 -1.082555,-0.96446 -0.0029,-0.058 -0.02135,-0.10539 -0.04102,-0.10539 -0.01967,0 0.01165,-0.13231 0.06957,-0.29401 l 0.105334,-0.29402 0.848343,-0.88797 c 0.466588,-0.48838 1.195579,-1.25127 1.619979,-1.69531 0.74466,-0.77911 0.771149,-0.81164 0.757593,-0.9305 -0.0077,-0.0677 -0.03233,-0.14209 -0.05468,-0.16522 -0.02237,-0.023 -0.01923,-0.0471 0.0069,-0.0533 0.02615,-0.006 0.03988,-0.0396 0.03061,-0.0743 -0.0094,-0.0347 -0.01804,-0.0401 -0.01939,-0.0122 -0.0027,0.0569 -0.282166,-0.0353 -0.336706,-0.11115 -0.01924,-0.0267 -0.06414,-0.0529 -0.09976,-0.0582 -0.05325,-0.008 -0.155112,-0.10252 -0.291449,-0.27101 -0.01134,-0.0141 0.0088,-0.11622 0.0448,-0.22713 0.06452,-0.19892 0.09835,-0.23545 2.492417,-2.69087 2.282349,-2.34083 2.437601,-2.4932 2.6047,-2.55644 0.09773,-0.037 0.242242,-0.0652 0.321134,-0.0628 0.0789,0.003 0.148922,-0.0187 0.155617,-0.0471 0.0069,-0.0294 0.01819,-0.0261 0.02616,0.008 0.0079,0.0334 0.120233,0.0699 0.257636,0.0838 0.302059,0.0303 0.756862,0.23622 0.73834,0.3343 -0.007,0.0374 0.06896,-0.0308 0.174967,-0.15705 0.103087,-0.12272 0.447123,-0.49434 0.764517,-0.82585 0.317397,-0.3315 0.590011,-0.64544 0.605814,-0.69764 0.02724,-0.0899 -0.04182,-0.2205 -0.253418,-0.47907 -0.05233,-0.0639 -0.06891,-0.12851 -0.04292,-0.16713 0.02329,-0.0346 0.0199,-0.0682 -0.0075,-0.0747 -0.09945,-0.0234 -0.227472,-0.53818 -0.225194,-0.90539 0.0014,-0.20665 0.01362,-0.38327 0.0274,-0.39247 0.01379,-0.009 0.04954,-0.0775 0.07946,-0.15181 0.04125,-0.10243 0.333073,-0.41136 1.207203,-1.27791 0.901016,-0.89321 1.154905,-1.16274 1.162383,-1.234 0.007,-0.0674 0.01366,-0.0749 0.02519,-0.0286 0.0106,0.0425 0.02529,0.0409 0.04572,-0.005 0.01656,-0.0372 0.01047,-0.0722 -0.01354,-0.0779 -0.05584,-0.0132 0.184367,-0.2001 0.303514,-0.23616 0.05198,-0.0157 0.378111,-0.31515 0.768442,-0.70548 l 0.678128,-0.67813 -0.306267,-0.2881 c -0.416531,-0.39182 -0.695152,-0.80585 -0.563383,-0.83718 0.01787,-0.004 0.151993,-0.11118 0.298057,-0.23762 0.230758,-0.19976 0.256692,-0.23385 0.197849,-0.26005 -0.03724,-0.0166 -0.07451,-0.0369 -0.08279,-0.0452 -0.0083,-0.008 -0.02043,0.008 -0.02699,0.0354 -0.0065,0.0278 -0.0236,0.0253 -0.03796,-0.006 -0.01432,-0.0309 -0.109048,-0.10091 -0.21051,-0.15556 l -0.184478,-0.0994 -0.786298,0.78582 c -0.924698,0.92422 -1.614776,1.76707 -1.611592,1.96828 0.0019,0.11597 -0.03857,0.17739 -0.241156,0.36658 -0.06128,0.0572 -0.114661,0.13907 -0.118642,0.1819 -0.0078,0.0836 -0.83723,0.88021 -0.942222,0.90499 -0.05595,0.0132 -0.329664,-0.0591 -0.402258,-0.10626 -0.42782,-0.27795 -0.836386,-0.65346 -1.0887,-1.00062 -0.273991,-0.37698 -0.26965,-0.39303 0.246941,-0.91285 0.237736,-0.23918 0.462704,-0.43859 0.499993,-0.44309 0.03729,-0.005 0.139175,-0.0753 0.226414,-0.15719 0.116618,-0.10955 0.204128,-0.15293 0.330513,-0.16382 0.09455,-0.008 0.201262,-0.0441 0.237148,-0.08 0.03589,-0.0359 0.386279,-0.30149 0.778649,-0.59022 0.55899,-0.41134 0.842375,-0.6503 1.309285,-1.10402 l 0.595885,-0.57905 -0.143924,-0.21875 c -0.07916,-0.12032 -0.15485,-0.22619 -0.168207,-0.23527 -0.07155,-0.0486 0.06958,-0.21281 0.681055,-0.7922 0.37062,-0.35116 0.658589,-0.64694 0.639926,-0.65728 -0.08108,-0.0449 -0.186791,-0.26387 -0.158296,-0.32785 0.01809,-0.0406 0.03618,-0.0488 0.04311,-0.0195 0.0065,0.0278 0.02781,0.0347 0.04723,0.0152 0.01942,-0.0194 0.04408,-0.009 0.05479,0.0242 0.01071,0.0327 0.01426,0.01 0.0079,-0.0515 -0.01147,-0.1099 -0.01093,-0.11043 0.05345,-0.0535 0.03923,0.0348 0.03622,0.0112 -0.0076,-0.0593 -0.03995,-0.0642 -0.103758,-0.12125 -0.141814,-0.1266 -0.0452,-0.007 -0.0569,-0.0221 -0.03375,-0.0452 0.01949,-0.0195 0.05485,-0.0193 0.07857,3.4e-4 0.02371,0.0197 0.06063,0.0468 0.08203,0.06 0.0214,0.0134 0.06595,0.047 0.09899,0.0747 0.04603,0.0387 0.08882,0.0217 0.183039,-0.0725 l 0.122965,-0.12296 -0.141472,-0.13708 c -0.126963,-0.123 -0.15187,-0.13013 -0.242859,-0.0695 -0.05576,0.0372 -0.12394,0.1061 -0.151508,0.15318 -0.02918,0.0498 -0.06485,0.0709 -0.08537,0.0504 -0.0212,-0.0212 0.02693,-0.0974 0.120772,-0.1913 0.08582,-0.0858 0.150605,-0.17903 0.14397,-0.20713 -0.0075,-0.0319 -0.08389,0.0207 -0.203402,0.14024 -0.168349,0.16835 -0.198705,0.18398 -0.252636,0.13005 -0.03371,-0.0337 -0.05587,-0.0842 -0.04923,-0.11239 0.0066,-0.0281 0.02795,-0.0352 0.04737,-0.0158 0.01942,0.0194 0.03996,0.0156 0.04565,-0.009 0.01658,-0.0702 0.542425,-0.59869 0.785595,-0.78949 0.177271,-0.1391 0.231169,-0.16245 0.263718,-0.11425 0.03328,0.0493 0.0043,0.093 -0.155057,0.23443 -0.136522,0.1211 -0.17887,0.17792 -0.139748,0.18712 0.03092,0.007 0.118491,-0.049 0.1946,-0.12511 0.154185,-0.15418 0.195797,-0.15913 0.250904,-0.0299 0.03205,0.0752 0.02907,0.0805 -0.01974,0.0355 -0.04766,-0.044 -0.08519,-0.0241 -0.219612,0.11641 -0.08917,0.0932 -0.129524,0.15024 -0.08967,0.12677 0.06049,-0.0356 0.08927,-0.019 0.174186,0.1004 l 0.101724,0.14309 0.178898,-0.20323 c 0.147654,-0.16772 0.209193,-0.20912 0.352365,-0.23702 0.09541,-0.0185 0.192866,-0.0143 0.216571,0.01 0.05294,0.0529 0.09682,0.0219 0.55485,-0.39255 0.558104,-0.50497 0.791349,-0.69288 0.822014,-0.66221 0.09499,0.095 0.263053,-0.0517 1.803892,-1.57512 0.855926,-0.84621 1.623534,-1.58953 1.705797,-1.65183 0.09314,-0.0705 0.17806,-0.10119 0.225082,-0.0813 0.263489,0.1116 1.234572,1.16074 1.234364,1.33358 -5.3e-5,0.0438 -0.478232,0.54415 -1.427394,1.49331 l -1.427315,1.42731 0.153283,0.16251 c 0.211264,0.22399 0.259172,0.24467 0.359562,0.15521 0.112564,-0.10029 0.190531,-0.0981 0.326105,0.009 0.0736,0.0583 0.100294,0.10832 0.08093,0.15179 -0.01834,0.0412 0.01376,0.10754 0.08801,0.18179 0.224184,0.22419 0.152876,0.27294 1.613083,-1.10276 0.724399,-0.68246 1.424414,-1.34102 1.555591,-1.46344 0.189433,-0.17681 0.226342,-0.22802 0.179369,-0.24894 -0.03252,-0.0144 -0.04691,-0.0386 -0.03197,-0.0535 0.01494,-0.0149 -7.42e-4,-0.0738 -0.03484,-0.13072 -0.04702,-0.0785 -0.0886,-0.0989 -0.172053,-0.0842 -0.06053,0.0106 -0.130564,-9.8e-4 -0.155633,-0.0262 -0.02919,-0.0292 -0.07835,-0.0128 -0.136734,0.0456 -0.07484,0.0749 -0.109327,0.0782 -0.192657,0.0189 -0.05583,-0.0397 -0.126719,-0.086 -0.157535,-0.10301 -0.106894,-0.0588 -0.01011,-0.12858 0.178285,-0.12858 0.184818,0 0.246593,-0.0443 0.132522,-0.0952 -0.03127,-0.014 -0.05022,-0.0534 -0.0421,-0.0878 0.0095,-0.0399 0.01977,-0.0412 0.02867,-0.004 0.01757,0.0744 0.160474,-0.0606 0.168713,-0.15947 0.0032,-0.0382 0.0084,-0.0546 0.01158,-0.0364 0.0032,0.0182 0.05702,0.0349 0.119649,0.0371 0.09972,0.004 0.200103,-0.0741 0.808319,-0.62475 0.381952,-0.34582 0.797939,-0.71987 0.924413,-0.83123 0.126468,-0.11136 0.242377,-0.23703 0.257564,-0.27928 0.01519,-0.0423 0.05103,-0.14712 0.07964,-0.23304 0.02861,-0.0859 0.056,-0.13941 0.06085,-0.1189 0.0049,0.0205 0.04798,0.003 0.09584,-0.0398 0.04786,-0.0424 0.122467,-0.0717 0.165803,-0.065 0.04333,0.007 0.149548,-0.0103 0.236026,-0.038 0.08648,-0.0275 0.162429,-0.0281 0.168782,-9.8e-4 0.0063,0.0269 0.0266,0.0339 0.04499,0.0155 0.01839,-0.0183 0.01777,-0.0491 -0.0014,-0.0682 -0.02532,-0.0254 0.668478,-0.72344 2.542156,-2.55794 3.329838,-3.26022 5.926278,-5.8577 6.529149,-6.53177 0.42681,-0.47722 0.49673,-0.54144 0.648152,-0.59541 0.09335,-0.0333 0.213503,-0.11081 0.267004,-0.17231 0.170526,-0.19605 0.206115,-0.20803 0.386983,-0.13054 l 0.176861,0.0757 0.23484,-0.22357 c 0.129169,-0.12297 0.262224,-0.25303 0.295708,-0.28903 0.464314,-0.49918 0.575155,-0.63179 0.566917,-0.6782 -0.0063,-0.0354 0.264153,-0.32285 0.765503,-0.81348 0.426373,-0.41725 0.92918,-0.91023 1.117338,-1.0955 0.196333,-0.19332 0.355067,-0.32389 0.372525,-0.30643 0.01673,0.0167 0.03491,0.0136 0.04041,-0.007 0.0055,-0.0206 0.04866,-0.0555 0.09596,-0.0776 0.06865,-0.0321 0.117746,-0.01 0.243578,0.10913 0.08668,0.0821 0.17885,0.1387 0.204817,0.12571 0.02597,-0.013 0.06402,-0.007 0.08456,0.0138 0.09042,0.0904 0.904089,-0.16825 1.078799,-0.34296 0.04324,-0.0433 0.09282,-0.0644 0.11019,-0.0471 0.02088,0.0209 1.383063,-1.3199 4.0228749,-3.95972 l 3.9912936,-3.99129 -0.09367,-0.14317 c -0.1199892,-0.1834 -0.1004731,-0.14249 -0.2174831,-0.45587 -0.055829,-0.14951 -0.1358542,-0.28964 -0.1778384,-0.31139 -0.09671,-0.0501 -0.2297882,-0.32872 -0.1805408,-0.37797 0.051015,-0.051 -0.098416,-0.26453 -0.2084442,-0.29785 -0.225614,-0.0683 -0.4837445,-0.49007 -0.4368754,-0.71378 0.018224,-0.087 0.1610164,-0.2191 0.3628894,-0.33578 0.1436997,-0.0831 0.1859541,-0.12704 0.2153631,-0.22419 0.044037,-0.14544 0.2669247,-0.31856 0.4100033,-0.31843 0.138278,1.1e-4 0.5146119,0.37847 0.5437256,0.54668 0.025167,0.14535 0.1981376,0.28332 0.2393048,0.19088 0.02128,-0.0477 0.033241,-0.0409 0.055219,0.0317 0.015427,0.051 0.06497,0.12958 0.1100776,0.17469 0.045116,0.0451 0.06838,0.11264 0.051705,0.15008 -0.01666,0.0375 -0.00463,0.0795 0.026778,0.0935 0.031391,0.014 0.049963,0.0415 0.041258,0.0611 -0.00871,0.0196 0.085698,0.15781 0.2097844,0.30706 0.1610079,0.19366 0.2293966,0.25532 0.2388323,0.21535 0.00727,-0.0308 0.031872,-0.0375 0.05465,-0.0147 0.029386,0.0294 0.09532,-0.0126 0.2278218,-0.14514 0.1025173,-0.10252 0.1717416,-0.18984 0.1538207,-0.19407 -0.017916,-0.004 -0.013639,-0.0239 0.0095,-0.0438 0.023145,-0.0199 0.083909,-0.10131 0.1350237,-0.18092 0.064691,-0.10073 0.1811704,-0.19934 0.3831802,-0.32433 0.2580681,-0.15969 0.4215994,-0.31429 1.4755161,-1.39496 0.6519077,-0.66846 1.20743495,-1.21563 1.23451951,-1.21593 0.0270807,-3e-4 0.176404,-0.12022 0.33181805,-0.26649 0.1554121,-0.14628 0.28873306,-0.25637 0.29626468,-0.24464 0.007517,0.0117 0.0926834,0.0524 0.1892102,0.0904 0.21480698,0.0844 0.23767618,0.10657 0.32126793,0.31016 0.0914729,0.22277 0.0220628,0.52716 -0.13782725,0.60445 -0.065632,0.0317 -0.13022143,0.0927 -0.14611936,0.13809 -0.0156783,0.0447 -0.63675948,0.70932 -1.38018787,1.47697 -0.74342929,0.76765 -1.43257409,1.49549 -1.53143359,1.61741 -0.116723,0.14397 -0.2039746,0.2217 -0.2488486,0.2217 -0.044364,0 -0.2527679,0.18365 -0.5820469,0.51293 -0.4642538,0.46425 -0.5173144,0.5299 -0.5589964,0.69156 -0.038689,0.15005 -0.028212,0.19765 0.065506,0.29765 0.061364,0.0655 0.1341544,0.13607 0.1617523,0.15688 0.041284,0.0311 -0.00321,0.0833 -0.2509483,0.29423 -0.3221948,0.2743 -0.409951,0.3098 -0.4228486,0.17104 -0.00476,-0.0512 -0.074165,-0.14342 -0.1706427,-0.22677 l -0.1626233,-0.14052 -3.9374578,3.93745 c -3.9365256,3.93653 -3.9374476,3.93748 -3.9022996,4.03155 0.03169,0.0848 0.01232,0.11405 -0.196177,0.29629 -0.268423,0.23462 -0.573632,0.53441 -0.808175,0.7938 -0.21112,0.23349 -0.472291,0.4281 -0.549947,0.40975 -0.04472,-0.0105 -0.368708,0.29225 -1.241205,1.16001 -0.649375,0.64587 -1.191936,1.19858 -1.205686,1.22825 -0.01375,0.0297 0.0059,0.0848 0.04354,0.12248 0.173587,0.17359 0.09599,0.44603 -0.164392,0.57719 -0.120507,0.0607 -0.14544,0.0881 -0.131535,0.14452 0.0095,0.0383 0.02421,0.10432 0.03282,0.14673 0.03363,0.16556 -0.267165,0.49203 -2.743517,2.9777 -0.450751,0.45242 -0.846493,0.85248 -0.879464,0.88899 -0.03297,0.0365 -0.977196,1.01074 -2.098289,2.16494 -2.246846,2.31323 -2.401274,2.48113 -3.022769,3.28642 -0.236147,0.30598 -0.486788,0.6268 -0.556983,0.71292 -0.125384,0.15384 -0.675358,0.86017 -1.299511,1.66897 -0.174004,0.22547 -0.480508,0.59397 -0.68112,0.8189 -0.316956,0.35536 -0.371095,0.4026 -0.413173,0.36053 -0.04648,-0.0465 -0.164997,0.0663 -0.331862,0.3156 -0.0244,0.0364 -0.04927,0.0454 -0.05528,0.0199 -0.0061,-0.0255 -0.07656,0.0192 -0.156764,0.0995 -0.08918,0.0892 -0.15052,0.12598 -0.157897,0.0947 -0.0078,-0.0332 -0.191497,0.12556 -0.523146,0.45209 -0.662328,0.65209 -0.788991,0.76828 -0.986195,0.90451 -0.116735,0.0806 -0.147272,0.11677 -0.106796,0.12633 0.03347,0.008 0.03348,0.037 3.6e-5,0.071 -0.104499,0.10616 -0.08449,0.17626 0.131628,0.46221 0.118242,0.15646 0.217983,0.3167 0.221646,0.35612 0.0047,0.0504 0.02367,0.0644 0.06382,0.0472 0.03835,-0.0164 0.04093,-0.007 0.0078,0.0299 -0.04118,0.0453 0.0032,0.11394 0.26869,0.41526 0.174907,0.19851 0.368953,0.40948 0.431216,0.46879 0.06226,0.0594 0.171338,0.17762 0.242389,0.26289 0.334627,0.40157 1.716857,1.48209 1.967385,1.53795 0.132419,0.0295 0.17235,0.11185 0.09282,0.19139 -0.03912,0.0391 -0.04039,0.0675 -0.0034,0.0763 0.03763,0.009 0.03647,0.0192 -0.0032,0.0286 -0.03422,0.008 -0.06483,0.06 -0.06803,0.11541 -0.0059,0.10169 -0.159997,0.37315 -0.507475,0.89384 -0.400896,0.60073 -0.91681,1.40686 -1.42409,2.22517 -0.280481,0.45245 -0.693735,0.89877 -0.828156,0.8944 z m -13.786761,10.24195 c 0.09047,-0.1445 1.027972,-1.45295 1.212733,-1.69259 0.496522,-0.64396 0.85044,-1.08905 0.951185,-1.19621 0.128553,-0.13674 0.316206,-0.53581 0.27263,-0.57979 -0.01399,-0.0142 -0.0018,-0.0312 0.02719,-0.0381 0.02893,-0.007 0.05869,-0.10596 0.06612,-0.22029 0.0074,-0.11433 0.002,-0.19715 -0.01224,-0.18404 -0.01412,0.0132 -0.01585,-0.014 -0.0036,-0.0602 0.02223,-0.0845 -0.363089,-1.01409 -0.420349,-1.01409 -0.01688,0 -0.03067,-0.0378 -0.03066,-0.084 0,-0.10957 -0.312035,-0.56586 -0.414808,-0.60658 -0.04381,-0.0174 -0.112051,-0.0535 -0.151651,-0.0804 -0.120598,-0.0816 -0.412964,-0.1329 -0.42668,-0.0748 -0.0071,0.0301 -0.0182,0.0322 -0.02466,0.005 -0.01227,-0.052 -0.100132,-0.0532 -0.371109,-0.005 -0.173997,0.0309 -0.633941,0.32394 -0.70055,0.44638 -0.02253,0.0414 -0.529839,0.58116 -1.127358,1.19946 -1.151929,1.19197 -1.355879,1.44916 -1.3841,1.74536 l -0.01347,0.14134 0.03375,-0.13269 c 0.01856,-0.073 0.05,-0.1327 0.06986,-0.1327 0.06142,0 -0.02336,0.33 -0.136442,0.53102 -0.102919,0.18295 -0.154571,0.23035 -0.331518,0.3042 -0.05398,0.0226 -0.0638,0.0433 -0.03036,0.0643 0.03677,0.0231 -0.01764,0.10003 -0.21224,0.30008 -0.201698,0.20736 -0.257458,0.28763 -0.243273,0.35029 0.01273,0.0561 0.165092,0.18629 0.493392,0.42127 0.427935,0.30631 1.220129,0.93888 1.357426,1.08391 0.02956,0.0312 0.0686,0.042 0.08675,0.0238 0.01815,-0.0182 0.04488,-0.006 0.0594,0.0263 0.03296,0.074 0.266557,0.12514 0.437658,0.0958 0.439452,-0.0754 0.739044,-0.27266 0.967031,-0.63682 z m -5.296779,4.35061 c -0.0082,-0.0769 -0.0043,-0.0778 0.0298,-0.007 0.02711,0.0564 0.04357,0.0633 0.05332,0.0219 0.0078,-0.0329 -0.03087,-0.10476 -0.08583,-0.15972 -0.104003,-0.10401 -0.889756,-0.71302 -1.65179,-1.28026 -0.314616,-0.23419 -0.435738,-0.34292 -0.420392,-0.37738 0.01186,-0.0266 -0.01257,-0.0886 -0.0543,-0.13794 -0.07548,-0.0891 -0.07699,-0.0885 -0.306619,0.14121 -0.127064,0.12707 -0.283986,0.33168 -0.349207,0.45536 -0.06514,0.12353 -0.131675,0.2327 -0.14784,0.24258 -0.01617,0.01 -0.01366,0.0337 0.0056,0.0529 0.02039,0.0204 0.04906,0.003 0.06882,-0.0417 0.04966,-0.11247 0.260491,-0.41429 0.2894,-0.4143 0.01366,0 0.02824,0.0366 0.03241,0.0814 0.01144,0.12312 0.345662,0.49919 0.598521,0.67346 0.123385,0.085 0.360052,0.26048 0.525921,0.38988 0.421606,0.32891 0.663415,0.39166 1.135288,0.29465 0.230402,-0.0473 0.250033,0.0181 0.06478,0.21591 -0.09714,0.10375 -0.09752,0.10914 -0.004,0.0592 0.09773,-0.0522 0.09818,-0.0486 0.009,0.0721 -0.07321,0.0992 -0.0597,0.0919 0.06134,-0.0334 0.100213,-0.10366 0.151888,-0.19193 0.145813,-0.24908 z m 13.30443,-13.40062 c 0.04381,-0.063 0.0779,-0.19667 0.07575,-0.29705 -0.0035,-0.16174 -0.01536,-0.18387 -0.104603,-0.19461 -0.09263,-0.0111 -0.09244,-0.0131 0.0023,-0.0244 0.08951,-0.0107 0.101042,-0.0223 0.08799,-0.088 -0.0083,-0.0416 -0.07198,-0.11817 -0.141588,-0.17013 -0.07869,-0.0588 -0.09976,-0.0882 -0.05568,-0.0781 0.130175,0.0302 -0.002,-0.14012 -0.410407,-0.52905 -0.385218,-0.36676 -0.391754,-0.37573 -0.373841,-0.51295 0.01818,-0.13922 0.01624,-0.13767 -0.606842,0.484 l -0.625088,0.62366 0.04912,0.12458 c 0.02701,0.0685 0.06213,0.20959 0.07804,0.31352 0.0163,0.10653 0.03892,0.15764 0.05185,0.11715 0.01261,-0.0395 0.01832,-0.0257 0.01268,0.0307 -0.01286,0.12845 0.239033,0.48667 0.408109,0.58037 0.06792,0.0377 0.11465,0.0772 0.103861,0.0881 -0.01079,0.0108 0.02883,0.0129 0.08805,0.005 0.05922,-0.008 0.09644,-0.003 0.08274,0.012 -0.01367,0.0148 0.01973,0.0269 0.07431,0.0269 0.122339,0 0.209398,0.0785 0.127512,0.11496 -0.124423,0.0555 -0.534796,-0.10994 -0.773409,-0.31164 -0.19549,-0.16524 -0.255319,-0.24532 -0.377357,-0.50509 -0.08247,-0.17555 -0.165633,-0.30385 -0.19279,-0.29744 -0.02627,0.006 -0.167264,0.13559 -0.313329,0.28752 -0.196485,0.20438 -0.26662,0.30393 -0.269603,0.38267 -0.0022,0.0586 0.0018,0.0779 0.0089,0.0431 0.0074,-0.0366 0.04026,-0.056 0.0776,-0.046 0.03557,0.01 0.0425,0.0185 0.01541,0.0198 -0.02709,9.8e-4 -0.05249,0.0373 -0.05645,0.08 -0.004,0.0427 -0.01686,0.0679 -0.02865,0.0561 -0.04489,-0.0449 -0.09479,0.27504 -0.05083,0.32592 0.28716,0.33241 0.422678,0.50878 0.427537,0.55641 0.0092,0.0901 0.30071,0.21036 0.576396,0.23773 0.400665,0.0397 0.60784,-0.0444 1.017062,-0.41308 0.392927,-0.35402 0.895411,-0.86981 1.015257,-1.04214 z m -12.75593,12.63788 c 0.06074,-0.0777 0.148408,-0.21204 0.194804,-0.29845 0.09513,-0.17717 0.125714,-0.7746 0.04068,-0.79467 -0.03034,-0.007 -0.03797,-0.0302 -0.01696,-0.0513 0.02853,-0.0285 -0.04071,-0.10737 -0.273161,-0.31107 -0.565626,-0.49566 -1.15185,-0.81961 -1.38546,-0.76562 -0.05299,0.0123 -0.115082,0.004 -0.13798,-0.0193 -0.0229,-0.0229 -0.02024,-0.0467 0.006,-0.0529 0.02615,-0.006 0.04269,-0.0318 0.03673,-0.0571 -0.01354,-0.0573 -0.646853,0.5251 -0.873848,0.80366 -0.103122,0.12654 -0.06734,0.20615 0.06596,0.14678 0.0342,-0.0152 0.102877,0.013 0.152631,0.0628 0.04976,0.0498 0.181265,0.15362 0.292246,0.23081 0.11098,0.0772 0.49359,0.37432 0.850243,0.66032 0.632754,0.50737 0.972633,0.73523 0.949298,0.63638 -0.0063,-0.0269 0.03814,-0.11259 0.09888,-0.19033 z m 11.279155,-20.10615 c -0.04076,-0.01 -0.02875,-0.0216 0.04369,-0.0435 0.107148,-0.0324 0.116571,-0.11211 0.02458,-0.20793 -0.02553,-0.0266 -0.05287,-0.0703 -0.06079,-0.0971 -0.02201,-0.0746 -0.399286,-0.3902 -0.429884,-0.3596 -0.01481,0.0148 0.03513,0.0977 0.110982,0.18408 0.200602,0.22861 0.131857,0.29192 -0.09729,0.0896 -0.103934,-0.0918 -0.17817,-0.18426 -0.167942,-0.20927 0.01008,-0.0247 -0.120641,0.0919 -0.290494,0.25901 -0.253927,0.24982 -0.323477,0.29969 -0.391252,0.28056 -0.07306,-0.0206 -0.08168,-0.004 -0.07584,0.14996 0.0036,0.0953 0.02743,0.18298 0.0529,0.1949 0.02548,0.0119 0.06168,0.0632 0.08043,0.11388 0.03224,0.0872 0.03349,0.0866 0.02303,-0.011 -0.01491,-0.13893 0.03616,-0.11692 0.2526,0.10885 0.125779,0.1312 0.173703,0.20895 0.153656,0.24928 -0.01602,0.0322 -0.03433,0.0388 -0.04068,0.0146 -0.0063,-0.0242 -0.0514,-0.061 -0.100115,-0.0818 -0.0752,-0.032 -0.08056,-0.0291 -0.03552,0.0197 0.02917,0.0316 0.03883,0.0717 0.02146,0.089 -0.04606,0.0461 -0.379327,-0.29927 -0.348438,-0.36104 0.01579,-0.0316 -0.0025,-0.0381 -0.04901,-0.0174 -0.06612,0.0295 -0.04619,0.0611 0.181918,0.28925 l 0.25618,0.25618 0.195873,-0.23045 c 0.107727,-0.12675 0.277878,-0.29055 0.378089,-0.36403 0.284018,-0.20819 0.375476,-0.3008 0.311879,-0.31582 z m 1.301954,-1.62724 c -0.05238,-0.066 -0.09134,-0.0823 -0.122369,-0.0514 -0.02534,0.0253 -0.09605,0.0118 -0.159503,-0.0305 -0.06269,-0.0418 -0.126915,-0.0557 -0.142722,-0.0309 -0.0418,0.0655 -0.273888,-0.12631 -0.254986,-0.2107 0.0093,-0.0413 -0.05732,0.004 -0.168649,0.11472 -0.106605,0.10613 -0.16378,0.18772 -0.135974,0.19428 0.02638,0.006 0.03894,0.0526 0.02793,0.10316 -0.01268,0.0582 -0.0078,0.0693 0.01329,0.0304 0.02516,-0.0465 0.06466,-0.0328 0.161653,0.0556 0.07059,0.0643 0.108574,0.1217 0.0844,0.12741 -0.02417,0.006 -0.03821,0.0346 -0.0312,0.0643 0.007,0.0297 -0.02115,0.0716 -0.06257,0.093 -0.04298,0.0223 -0.07533,0.085 -0.07532,0.14615 0,0.0904 -0.0114,0.10456 -0.07283,0.0908 -0.05586,-0.0126 -0.06331,-0.007 -0.03197,0.0255 0.02248,0.023 0.01787,0.0472 -0.01024,0.0539 -0.09439,0.0222 0.09603,0.19086 0.19265,0.17054 0.03301,-0.007 0.241199,-0.20092 0.462642,-0.43106 l 0.40262,-0.41844 z m 5.20853,-5.22431 c 0.191358,-0.24286 0.486355,-0.58024 0.65555,-0.74974 0.169225,-0.16946 0.295113,-0.32068 0.27982,-0.33597 -0.01529,-0.0153 -0.176034,0.11528 -0.357204,0.29017 -0.181168,0.17489 -0.547594,0.5119 -0.814274,0.74892 -0.483259,0.42949 -0.484851,0.4314 -0.478418,0.57299 0.0035,0.0781 -0.0014,0.1446 -0.01094,0.14771 -0.0096,0.003 0.02102,0.003 0.06797,-8.4e-4 0.110051,-0.008 0.231509,-0.13265 0.657518,-0.6733 z"
       id="path2162"       
       sodipodi:nodetypes="ccccccccccsscsccccscccscccccccccccsccccccscccscccsccscscccccccsccsccccsccccccccccscscccccccccccccccccccscccccssccccccsccccsccscccccscccscccccscscsccccsscsscscccccsccccccccsssscccscccccscccsccssccsccccccsccscccccsscscccccccccsccccssssccccsccccccccsccccccsccccccscccccsccscccscccscccccssccccssccccsccscccccccccccccsccccccccccccsccscccccccccccccccccccscccccccscccscsscccccsccccccccccccccccccccccscccccccccccccscccscccccsscsccccscccccccccscccccccccsccccsccsccccccscccccccccccccccccccccscsccccc" />
  </g>
</svg>
