<?xml version="1.0" encoding="UTF-8" standalone="no"?>
<!-- Created with Inkscape (http://www.inkscape.org/) -->

<svg
   xmlns:dc="http://purl.org/dc/elements/1.1/"
   xmlns:cc="http://creativecommons.org/ns#"
   xmlns:rdf="http://www.w3.org/1999/02/22-rdf-syntax-ns#"
   xmlns:svg="http://www.w3.org/2000/svg"
   xmlns="http://www.w3.org/2000/svg"
   xmlns:sodipodi="http://sodipodi.sourceforge.net/DTD/sodipodi-0.dtd"   
   width="220"
   height="235"
   viewBox="0 0 58.208331 62.177086"
   version="1.1"
   id="svg8"   
   sodipodi:docname="vsr.svg">
  <defs
     id="defs2" />
  <sodipodi:namedview
     id="base"
     pagecolor="#000000"
     bordercolor="#666666"
     borderopacity="1.0"
     showgrid="false"
     fit-margin-top="0"
     fit-margin-left="0"
     fit-margin-right="0"
     fit-margin-bottom="0"
     units="px" />
  <metadata
     id="metadata5">
    <rdf:RDF>
      <cc:Work
         rdf:about="">
        <dc:format>image/svg+xml</dc:format>
        <dc:type
           rdf:resource="http://purl.org/dc/dcmitype/StillImage" />
        <dc:title></dc:title>
      </cc:Work>
    </rdf:RDF>
  </metadata>
  <g
     id="layer1"
     transform="translate(56.057826,-205.94221)">
    <path
       style="fill:none;stroke:#ffffff;stroke-width:0.4;stroke-opacity:1;stroke-miterlimit:4;stroke-dasharray:none"
       d="m -46.682541,266.88298 c -0.511594,0.47392 -0.557118,0.49717 -0.696651,0.35593 -0.932199,-0.94356 -3.718405,-3.54976 -4.568063,-4.27292 -0.782776,-0.66622 -1.110436,-0.98976 -1.173795,-1.15903 l -0.08792,-0.23481 1.930998,-1.98974 c 1.062032,-1.09437 3.613552,-3.68136 5.670014,-5.7489 l 3.739028,-3.75916 0.604802,-0.0575 c 1.028724,-0.0977 1.309701,-0.40631 2.744493,-3.01436 0.861758,-1.56643 0.86475,-1.57431 0.636424,-1.67673 -0.318255,-0.14276 -0.601696,-0.44329 -0.601696,-0.63796 -10e-7,-0.0897 0.160522,-0.32351 0.356716,-0.51949 0.196193,-0.19597 0.345015,-0.40583 0.330717,-0.46633 -0.0143,-0.0605 0.06408,-0.19999 0.174174,-0.30996 0.110095,-0.10997 0.169545,-0.23054 0.13211,-0.26794 -0.03743,-0.0374 0.01796,-0.15392 0.123114,-0.25895 0.230105,-0.22985 0.280334,-0.5221 0.126961,-0.73871 -0.119375,-0.16859 0.15247,-0.63986 0.289905,-0.50257 0.03993,0.0399 0.133841,0.0113 0.20871,-0.0635 0.07487,-0.0748 0.105496,-0.16657 0.06806,-0.20397 -0.03743,-0.0374 -0.02212,-0.11387 0.03403,-0.16996 0.07131,-0.0713 0.03025,-0.17375 -0.136125,-0.33994 -0.232582,-0.23233 -0.244665,-0.23151 -0.510716,0.0343 -0.149874,0.1497 -0.325534,0.44754 -0.390355,0.66186 -0.13384,0.44254 -0.44537,0.79179 -0.89345,1.00164 -0.283391,0.13272 -0.307434,0.17325 -0.315108,0.53101 l -0.0083,0.38734 -1.265946,1.21963 c -0.936704,0.90241 -1.313082,1.21964 -1.447201,1.21964 -0.131374,0 -0.412743,-0.23123 -1.022324,-0.84013 -0.958794,-0.95774 -1.001468,-1.06886 -0.560202,-1.45867 0.154468,-0.13647 0.408676,-0.40863 0.56495,-0.60478 l 0.284073,-0.35667 -0.365607,-0.33666 -0.365607,-0.33666 0.646596,-0.64587 0.646596,-0.64589 0.350904,0.35051 c 0.275246,0.27495 0.42292,0.35297 0.684943,0.36185 0.320462,0.0109 0.355509,-0.0134 0.862284,-0.59646 0.402308,-0.46289 0.578153,-0.61242 0.737526,-0.62723 0.259395,-0.0241 2.821381,-2.49866 2.84562,-2.74854 0.0087,-0.0899 -0.07092,-0.2051 -0.191634,-0.27729 -0.362161,-0.21661 -0.298988,-0.56415 0.191626,-1.05423 0.484862,-0.48432 0.610629,-0.50198 1.031534,-0.14482 l 0.293476,0.24902 0.465402,-0.42531 c 0.255959,-0.23394 0.665383,-0.68161 0.909791,-0.99487 0.257147,-0.32957 0.496955,-0.57148 0.569141,-0.57412 0.06862,-0.003 0.43363,-0.31308 0.811136,-0.69016 0.533435,-0.53285 0.873828,-0.97891 1.527646,-2.00188 0.625351,-0.97843 1.002515,-1.47732 1.469515,-1.9438 l 0.628242,-0.62755 0.255235,0.16997 c 0.354208,0.23587 1.761984,1.65707 1.792659,1.80975 0.01381,0.0687 -0.190784,0.38265 -0.454653,0.6976 -0.426007,0.50846 -0.648513,0.67966 -1.98611,1.52792 -1.176154,0.74589 -1.646939,1.09573 -2.147706,1.59594 -0.468206,0.46769 -0.618133,0.66335 -0.555348,0.72471 0.22502,0.21993 0.479175,0.29154 0.631068,0.17783 0.09362,-0.0701 0.236813,-0.076 0.32751,-0.0136 0.08864,0.0611 0.225306,0.11769 0.303701,0.12588 0.107277,0.0112 2.621083,-2.47854 10.160029,-10.06288 5.50961,-5.54279 10.039993,-10.14709 10.067503,-10.23179 0.02752,-0.0847 1.8882326,-2.00098 4.1349312,-4.25842 l 4.0849171,-4.10441 0.3108213,0.0989 c 0.3937838,0.1252 0.96018138,0.68668 1.14414639,1.13419 l 0.14156155,0.34439 -8.96733754,8.85632 -8.967338,8.85632 0.288516,0.28819 c 0.237365,0.23711 0.288517,0.37016 0.288515,0.75051 0,0.40565 -0.04281,0.50509 -0.349254,0.81119 -0.219428,0.21919 -0.327809,0.39063 -0.291556,0.46121 0.03173,0.0618 0.286819,0.37296 0.566859,0.69154 0.280039,0.31855 0.515374,0.58829 0.522969,0.59939 0.0076,0.0111 -0.01091,0.045 -0.04112,0.0751 -0.09127,0.0912 -1.229274,-0.62261 -1.343394,-0.84262 l -0.104899,-0.20222 -1.078446,1.16572 c -0.593138,0.64115 -1.793267,1.97365 -2.666935,2.96113 -2.740875,3.09791 -4.993215,5.57378 -5.123145,5.63159 -0.199053,0.0886 -5.162321,5.52797 -5.263655,5.76862 -0.117966,0.28016 0.03445,0.60957 0.494805,1.06942 0.30668,0.30634 0.372275,0.43488 0.389221,0.76273 0.04985,0.96429 -1.657863,2.31995 -2.517755,1.99873 -0.126167,-0.0472 -0.336544,-0.19273 -0.467505,-0.32355 -0.28129,-0.28098 -0.823692,-0.32202 -1.061104,-0.0803 -0.227317,0.23169 -0.464763,0.92555 -0.606789,1.77435 -0.147651,0.88239 -0.01256,2.28093 0.295472,3.05896 l 0.219328,0.55398 -0.479816,0.48186 c -0.838282,0.84146 -2.195367,1.43714 -2.623875,1.15177 -0.131414,-0.0875 -0.29735,-0.13313 -0.36874,-0.10136 -0.0714,0.0317 -0.68548,1.05822 -1.364643,2.28103 -0.679164,1.22281 -1.751153,3.14549 -2.382201,4.27262 -1.42184,2.53959 -1.309797,2.29437 -1.048295,2.29436 0.308087,0 0.483837,0.2194 0.368352,0.45983 -0.09923,0.20659 -1.583256,1.73152 -2.616896,2.68903 z m 14.432651,-20.07362 c 0.247115,-0.60115 -0.01738,-1.13944 -0.66034,-1.34386 -0.306011,-0.0973 -0.847511,0.0475 -1.090191,0.29136 -0.253746,0.25501 -0.502207,0.80811 -0.502209,1.11779 3e-6,0.33594 0.368519,0.82166 0.584724,0.77068 0.06056,-0.0143 0.142698,0.007 0.182506,0.0464 0.04622,0.0462 0.0061,0.0785 -0.111149,0.0893 -0.30091,0.0279 -0.735358,-0.32641 -0.871748,-0.71104 -0.133415,-0.37622 -0.211851,-0.35505 -0.355573,0.0959 -0.113519,0.35626 0.105652,0.8581 0.439253,1.00575 0.320774,0.14197 0.791358,0.10255 1.147431,-0.0961 0.454882,-0.2538 1.087079,-0.90077 1.237301,-1.2662 z m -2.893148,-6.98262 c -0.0143,-0.0605 0.06408,-0.19998 0.174174,-0.30995 0.110095,-0.10998 0.230799,-0.16936 0.268233,-0.13197 0.03744,0.0374 0.129322,0.007 0.204191,-0.068 0.07487,-0.0748 0.105496,-0.16657 0.06806,-0.20397 -0.09926,-0.0992 0.376021,-0.5424 0.512911,-0.47837 0.09271,0.0433 0.127691,0.008 0.174906,-0.17471 0.03246,-0.12591 0.121103,-0.29094 0.196988,-0.36674 0.07589,-0.0758 0.241101,-0.16435 0.367146,-0.19677 0.183338,-0.0472 0.218319,-0.0822 0.174905,-0.17471 -0.03056,-0.0652 0.05972,-0.22963 0.20664,-0.37639 0.148115,-0.14795 0.310037,-0.23622 0.374551,-0.20417 0.08875,0.044 0.132201,-0.004 0.198361,-0.22111 0.06577,-0.21548 0.03399,-0.32823 -0.142003,-0.50404 l -0.226718,-0.22647 -0.574517,0.57388 c -0.315983,0.31564 -0.562818,0.62339 -0.54852,0.6839 0.0143,0.0605 -0.246042,0.38174 -0.578534,0.71387 -0.332492,0.33212 -0.654088,0.59218 -0.714659,0.57788 -0.147595,-0.0348 -1.122522,0.94598 -1.087536,1.09405 0.04382,0.18544 0.433753,0.37486 0.544321,0.2644 0.05544,-0.0553 0.131425,-0.0701 0.168859,-0.0327 0.03743,0.0374 0.1122,0.0239 0.166142,-0.0299 0.05394,-0.0539 0.08637,-0.14747 0.07207,-0.20798 z"
       id="path2050"       
       sodipodi:nodetypes="ccccccccccccscssscssssssccccccscccccccscccccssccccscscscccscccccccccccccscscccscccsccsccsccscccccccccccscccsccccccccssssccsccsccscscsccssscc" />
  </g>
</svg>
