<?xml version="1.0" encoding="UTF-8" standalone="no"?>
<!-- Created with Inkscape (http://www.inkscape.org/) -->

<svg
   xmlns:dc="http://purl.org/dc/elements/1.1/"
   xmlns:cc="http://creativecommons.org/ns#"
   xmlns:rdf="http://www.w3.org/1999/02/22-rdf-syntax-ns#"
   xmlns:svg="http://www.w3.org/2000/svg"
   xmlns="http://www.w3.org/2000/svg"
   xmlns:sodipodi="http://sodipodi.sourceforge.net/DTD/sodipodi-0.dtd"   
   width="220"
   height="235"
   viewBox="0 0 58.208332 62.177085"
   version="1.1"
   id="svg8"   
   sodipodi:docname="headset.svg" >   
  <defs
     id="defs2" />
  <sodipodi:namedview
     id="base"
     pagecolor="#000000"
     bordercolor="#666666"
     borderopacity="1.0"
     showgrid="false"
     units="px" />
  <metadata
     id="metadata5">
    <rdf:RDF>
      <cc:Work
         rdf:about="">
        <dc:format>image/svg+xml</dc:format>
        <dc:type
           rdf:resource="http://purl.org/dc/dcmitype/StillImage" />
        <dc:title></dc:title>
      </cc:Work>
    </rdf:RDF>
  </metadata>
  <g  
     id="layer1"
     transform="translate(0,-234.8229)">
    <path
       style="fill:none;stroke:#ffffff;stroke-width:0.40000001;stroke-miterlimit:4;stroke-dasharray:none;stroke-opacity:1"
       d="m 39.607865,294.56222 c 0.539464,-0.19668 1.396258,-0.50218 1.903989,-0.67888 1.045848,-0.36397 1.521074,-0.59296 2.213457,-1.06658 0.415433,-0.28417 0.527167,-0.31312 0.803248,-0.20816 0.176379,0.0671 0.437295,0.0927 0.57981,0.0569 0.150928,-0.0379 0.473671,0.0392 0.772966,0.18461 0.468331,0.22753 0.560869,0.23648 1.044718,0.10101 0.85368,-0.23901 1.466779,-0.87752 2.166276,-2.25605 0.601778,-1.18594 0.618529,-1.20583 0.961725,-1.14194 0.486474,0.0906 0.886598,-0.25521 1.317088,-1.13818 0.459545,-0.94254 0.66377,-2.15432 0.477143,-2.83113 -0.107723,-0.39067 -0.21715,-0.53229 -0.504722,-0.6532 -0.201947,-0.0849 -0.406637,-0.13 -0.454865,-0.1002 -0.04823,0.0298 -0.08769,-0.073 -0.08769,-0.22856 0,-0.30917 -0.272019,-0.45406 -1.534429,-0.81731 -0.708098,-0.20376 -0.940576,-0.46763 -0.619095,-0.7027 0.259572,-0.18981 0.25102,-0.2639 -0.212167,-1.83799 -0.222204,-0.75514 -0.385019,-1.39196 -0.361811,-1.41517 0.02321,-0.0232 0.131158,0.0936 0.239891,0.25953 0.347289,0.53003 1.323399,0.76616 1.572443,0.38039 0.03612,-0.056 -0.02937,-0.63313 -0.145534,-1.28262 -0.295938,-1.65462 -0.341881,-2.03483 -0.435519,-3.60415 -0.04544,-0.76159 -0.176094,-1.87558 -0.290336,-2.47552 -0.150305,-0.78933 -0.171317,-1.10294 -0.07603,-1.1347 0.205437,-0.0685 0.154583,-0.57736 -0.07025,-0.70301 -0.136288,-0.0762 -0.244702,-0.36878 -0.333476,-0.90004 -0.119784,-0.71684 -0.112409,-0.80529 0.08254,-0.98988 0.27229,-0.25782 0.147278,-0.66072 -0.268585,-0.8656 -0.250146,-0.12324 -0.306814,-0.2501 -0.375292,-0.8401 -0.08386,-0.72255 -0.273047,-1.03412 -0.627916,-1.03412 -0.236534,0 -0.2475,-0.0592 -1.110727,-5.99793 -0.626015,-4.30677 -0.47789,-4.0425 -2.334434,-4.16501 -1.209725,-0.0798 -1.281185,-0.0995 -1.854378,-0.51133 -0.365308,-0.26245 -0.584141,-0.5017 -0.565111,-0.61783 0.02653,-0.1619 -0.118927,-0.19443 -0.997724,-0.22315 -0.723043,-0.0236 -1.05495,0.009 -1.116841,0.10887 -0.04843,0.0784 -0.08806,-0.16491 -0.08806,-0.54061 0,-0.37569 -0.05022,-0.69982 -0.111595,-0.72028 -0.06149,-0.0205 -0.08659,-0.27713 -0.0559,-0.57164 0.04714,-0.45235 0.01687,-0.56373 -0.197002,-0.72506 -0.138982,-0.10484 -0.321519,-0.44599 -0.405638,-0.75812 -0.316971,-1.17616 -0.884442,-3.13092 -1.099881,-3.78874 -0.122949,-0.37541 -0.223544,-0.80381 -0.223544,-0.95199 0,-0.14819 -0.04167,-0.26943 -0.0926,-0.26943 -0.05093,0 -0.18842,-0.27261 -0.305537,-0.60581 -0.117119,-0.3332 -0.53704,-1.28966 -0.933159,-2.12548 -1.961263,-4.13827 -4.726985,-7.05616 -6.982183,-7.36633 -0.329486,-0.0453 -1.073257,-0.0244 -1.652822,0.0465 -0.579565,0.0709 -2.897162,0.25794 -5.150215,0.41562 -2.253053,0.15768 -4.397974,0.30843 -4.766492,0.335 -4.301905,0.31016 -6.400158,8.71727 -5.042808,20.20513 0.12748,1.07893 0.249419,2.22132 0.270973,2.53865 0.06679,0.98326 0.376704,1.47217 0.896929,1.41494 0.208293,-0.0229 0.28364,0.0325 0.311889,0.22942 0.02049,0.1428 0.02066,0.25964 3.47e-4,0.25965 -0.520312,2.3e-4 -2.255477,0.49681 -3.498672,1.00118 -1.8781073,0.76194 -2.1142403,0.89619 -2.2037693,1.2529 -0.03733,0.14874 0.296632,1.78057 0.764556,3.73583 l 0.830841,3.47173 -0.262748,0.21276 c -0.259155,0.20986 -0.260334,0.22234 -0.08629,0.91325 0.167497,0.66494 0.16527,0.71168 -0.04387,0.92082 -0.179773,0.17977 -0.198695,0.27723 -0.102796,0.52946 0.06464,0.17002 0.190316,0.30913 0.279275,0.30913 0.189095,0 0.569368,1.35068 0.4083,1.45022 -0.190068,0.11747 -0.112998,0.64579 0.102425,0.70212 0.1578123,0.0413 0.2654953,0.3385 0.4664073,1.28737 0.143672,0.67855 0.409845,1.59721 0.591496,2.04147 0.181651,0.44426 0.445615,1.32702 0.586587,1.96168 0.507309,2.28394 0.51435,2.30567 0.758807,2.34168 0.126243,0.0186 0.415961,-0.0927 0.643817,-0.24734 l 0.414285,-0.28114 0.318459,1.63205 c 0.413703,2.12017 0.65437,2.75805 1.274599,3.37828 0.552098,0.5521 2.555604,1.57899 4.433391,2.27232 1.26219,0.46604 4.61317,1.49851 5.679516,1.74991 0.923063,0.21763 3.025698,0.22068 4.039355,0.006 l 0.775896,-0.16443 1.185789,0.4463 c 2.5418,0.95667 4.825602,1.52292 6.782363,1.68165 0.643269,0.0522 0.8897,0.01 1.730899,-0.29677 z m 6.087726,-2.59521 c 0.0304,-0.15903 -0.0061,-0.36312 -0.08115,-0.45352 -0.108499,-0.13074 -0.09067,-0.18887 0.08708,-0.284 0.122929,-0.0658 0.495532,-0.43362 0.828006,-0.8174 0.509229,-0.58781 0.581428,-0.72558 0.458115,-0.87416 -0.232291,-0.2799 0.02613,-0.46247 0.43169,-0.30499 0.178062,0.0691 0.646712,0.21285 1.041444,0.31936 l 0.717691,0.19364 -0.544601,0.69372 c -0.909501,1.15853 -1.845149,1.80205 -2.634529,1.81198 -0.321782,0.004 -0.353292,-0.0255 -0.303752,-0.28463 z M 12.302816,277.64652 c -0.468384,-1.00231 -0.501245,-1.12721 -0.342676,-1.30243 0.199963,-0.22095 0.124781,-0.70456 -0.109533,-0.70456 -0.244067,0 -0.471183,-1.20674 -0.290616,-1.54414 0.201801,-0.37707 0.116477,-0.67825 -0.240631,-0.84941 -0.238066,-0.1141 -0.319738,-0.25795 -0.381934,-0.67271 -0.07848,-0.52332 -0.388459,-0.9725 -0.671124,-0.9725 -0.190112,0 -1.8789083,-6.90546 -1.7261533,-7.05821 0.05802,-0.058 0.834008,-0.41017 1.7244093,-0.78254 1.517317,-0.63455 3.358765,-1.14249 3.600428,-0.99313 0.05892,0.0364 0.665549,-0.0122 1.348068,-0.10799 0.682517,-0.0958 1.257867,-0.1742 1.278552,-0.1742 0.02069,0 0.03761,-0.0688 0.03761,-0.15298 0,-0.3346 0.541419,-0.66778 1.194718,-0.7352 0.568297,-0.0587 0.691328,-0.0321 1.023775,0.22132 l 0.377855,0.28799 1.211629,-0.16553 c 0.666396,-0.091 1.414294,-0.19374 1.661996,-0.22824 0.406021,-0.0565 0.441552,-0.0415 0.360834,0.15302 -0.04924,0.11866 -0.140709,0.34556 -0.203257,0.50423 -0.08051,0.20424 -0.0437,0.85953 0.126069,2.24407 0.131887,1.07557 0.220695,1.97468 0.197352,1.99803 -0.02335,0.0233 -0.346888,0.11346 -0.718986,0.20027 -1.684622,0.39299 -3.736159,1.54095 -5.393093,3.01775 -1.857852,1.65588 -2.763299,3.71765 -3.24836,7.39676 -0.110868,0.84093 -0.22347,1.52896 -0.250224,1.52896 -0.02676,0 -0.281774,-0.49888 -0.566708,-1.10863 z m 34.344027,-2.15123 c -8.2e-5,-0.23544 -1.623587,-4.75882 -1.933826,-5.38799 -0.474944,-0.9632 -1.488612,-2.12297 -2.334697,-2.67122 -0.544445,-0.35279 -0.548325,-0.3598 -0.60767,-1.09912 -0.03285,-0.40924 -0.02068,-0.9172 0.02705,-1.12881 0.04772,-0.21161 0.0393,-0.46957 -0.01872,-0.57325 -0.08954,-0.16001 -0.03919,-0.18813 0.332962,-0.18598 0.241152,0.001 0.646166,0.10272 0.900031,0.22516 0.815341,0.39325 1.173647,0.8065 1.505676,1.73655 0.55322,1.54963 0.881208,1.96239 1.422768,1.79051 0.321712,-0.10211 0.421941,0.50756 0.118397,0.72017 -0.328764,0.23028 -0.295314,0.80979 0.05177,0.8969 0.232306,0.0583 0.291785,0.18179 0.412242,0.85582 0.111176,0.62211 0.110923,0.83547 -0.0012,1.01501 -0.176687,0.28292 -0.06288,0.60667 0.241215,0.6862 0.21554,0.0564 0.2302,0.15854 0.2302,1.60455 0,1.29582 -0.02786,1.54435 -0.17309,1.54435 -0.0952,0 -0.173094,-0.013 -0.1731,-0.0288 z M 28.423568,264.82837 c -0.33356,-1.19382 -0.701357,-2.38811 -0.81733,-2.65397 -0.240733,-0.55187 -0.500048,-0.65846 -1.932107,-0.79417 -0.46013,-0.0436 -0.83609,-0.11152 -0.835464,-0.15092 5.67e-4,-0.0394 0.46811,-0.32144 1.038855,-0.62676 0.968246,-0.51796 2.733359,-1.13109 3.278824,-1.13893 0.131569,-0.002 0.927249,-0.15822 1.768177,-0.3474 1.205578,-0.27121 1.529839,-0.38457 1.53311,-0.53597 0.0095,-0.4383 0.494612,-0.79196 1.343928,-0.97972 0.73517,-0.16252 0.867427,-0.16395 1.170639,-0.0127 0.188007,0.0938 0.399464,0.23997 0.469904,0.32485 0.105816,0.1275 0.381887,0.0968 1.588429,-0.17669 0.803193,-0.18205 1.516947,-0.37543 1.586118,-0.42971 0.236596,-0.18569 0.760428,-0.22425 0.760428,-0.056 0,0.11098 0.164638,0.15709 0.56086,0.15709 0.930015,0 1.631611,-0.13079 1.631611,-0.30416 0,-0.49918 0.581711,0.16814 0.90891,1.04266 0.163616,0.4373 1.283562,5.48272 1.283562,5.78252 0,0.0188 -0.272617,-0.0697 -0.605814,-0.19672 -0.744578,-0.28384 -1.568745,-0.23502 -2.050961,0.1215 -0.183758,0.13585 -0.439735,0.24701 -0.56884,0.24701 -0.142723,0 -0.371101,0.18825 -0.582624,0.48025 -0.191339,0.26413 -0.449125,0.55115 -0.572857,0.63782 -0.123732,0.0867 -0.198242,0.22722 -0.165578,0.31234 0.09309,0.24258 -0.394827,0.30913 -1.219653,0.16637 -1.688301,-0.29221 -4.977901,0.12574 -6.523054,0.82878 -2.360594,1.07407 -2.258892,1.13068 -3.049073,-1.6974 z m 17.646319,1.8886 c 0,-0.084 -0.229549,-0.51236 -0.510106,-0.95199 -0.571676,-0.8958 -0.682959,-1.28854 -1.49608,-5.27991 -0.280614,-1.37746 -0.617576,-2.72148 -0.748804,-2.98671 -0.131227,-0.26524 -0.227107,-0.49198 -0.213066,-0.50387 0.01404,-0.0119 0.431383,0.005 0.927428,0.0382 0.756885,0.0502 0.926015,0.0991 1.051875,0.3038 0.08248,0.13419 0.237188,0.89306 0.343783,1.68639 0.106595,0.79333 0.402245,2.81198 0.657001,4.48588 0.254755,1.67391 0.435786,3.11488 0.402292,3.20216 -0.07789,0.20299 -0.414323,0.20789 -0.414323,0.006 z m -23.211124,-2.15912 -0.244511,-2.00072 0.363403,-0.3247 c 0.37548,-0.33549 0.822001,-0.4337 0.820454,-0.18045 -4.8e-4,0.0793 -0.108609,0.48176 -0.240276,0.89429 -0.166725,0.52237 -0.25872,1.19782 -0.303054,2.22511 -0.03501,0.81127 -0.08343,1.45527 -0.107582,1.43111 -0.02416,-0.0242 -0.153953,-0.94424 -0.288434,-2.04464 z m 4.553729,1.35864 c -0.565463,0.004 -1.317995,0.12757 -1.458553,0.23929 -0.07456,0.0593 -0.571848,0.14453 -1.105079,0.18948 l -0.969513,0.0817 0.06574,-1.07685 c 0.03854,-0.63126 0.189033,-1.49998 0.363699,-2.09945 0.163874,-0.56242 0.297954,-1.15309 0.297954,-1.31259 0,-0.26005 0.03541,-0.28292 0.342809,-0.22144 0.188545,0.0377 0.685404,0.10366 1.10413,0.14656 0.422593,0.0433 0.861254,0.1604 0.985928,0.2632 0.149878,0.12357 0.415997,0.85701 0.799859,2.20442 0.316388,1.11059 0.575251,2.03384 0.575251,2.05169 0,0.0178 -0.152422,-0.0802 -0.338717,-0.21797 -0.186294,-0.13774 -0.484874,-0.24937 -0.663511,-0.24807 z m -3.018039,-5.49819 c -0.201548,-0.23156 -1.500228,-0.51634 -1.810922,-0.39712 -0.139425,0.0535 -0.169259,-0.0867 -0.169259,-0.79562 0,-0.47332 -0.049,-1.01113 -0.10888,-1.19513 -0.05989,-0.184 -0.1332,-0.77593 -0.162923,-1.31539 -0.02972,-0.53947 -0.116706,-1.78571 -0.193296,-2.76944 -0.125275,-1.60903 -0.09441,-4.71193 0.05853,-5.88505 0.02896,-0.22214 0.08235,-0.73485 0.118637,-1.13937 0.03629,-0.40452 0.136955,-0.90535 0.223699,-1.11296 0.103779,-0.24838 0.11876,-0.41643 0.0438,-0.49138 -0.07496,-0.075 -0.07359,-0.18763 0.004,-0.32946 0.06484,-0.11855 0.148912,-0.36203 0.18682,-0.54107 0.07792,-0.36804 0.329859,-0.36224 0.384669,0.009 0.01968,0.13322 0.110549,0.30427 0.201939,0.38012 0.09139,0.0758 0.166164,0.21213 0.166164,0.30285 0,0.0907 0.09649,0.35698 0.214415,0.59168 0.520885,1.03669 0.593338,1.20658 0.593338,1.39126 0,0.10767 0.07034,0.29819 0.156299,0.42337 0.08596,0.12519 0.184556,0.35744 0.219093,0.5161 0.07407,0.3403 0.306464,1.01314 0.447828,1.29661 0.05496,0.1102 0.100246,0.29195 0.100637,0.40387 3.46e-4,0.11193 0.07828,0.35224 0.17309,0.53403 0.09481,0.18179 0.173135,0.41546 0.174058,0.51927 0.002,0.21918 0.279897,1.06507 0.522747,1.59091 0.09236,0.19998 0.167933,0.42997 0.167933,0.51107 0,0.1811 0.221401,0.89745 0.364059,1.17792 0.05772,0.11347 0.149407,0.56043 0.20375,0.99323 0.05434,0.43279 0.149213,0.88518 0.210819,1.0053 0.06161,0.12013 0.141776,0.37419 0.178154,0.56459 0.03638,0.1904 0.205152,0.64885 0.375055,1.01878 l 0.308912,0.6726 0.564345,-0.0776 c 0.310389,-0.0427 0.565053,-0.0338 0.565919,0.0197 9.16e-4,0.0536 0.03081,0.20629 0.06655,0.3394 0.05903,0.2199 -0.02967,0.26643 -0.970311,0.50894 -0.619538,0.15972 -1.491956,0.50808 -2.172477,0.86746 -0.625456,0.3303 -1.154831,0.60756 -1.176391,0.61614 -0.02156,0.009 -0.125414,-0.0834 -0.230787,-0.2045 z"
       id="path1187" />       
  </g>
</svg>
