<?xml version="1.0" encoding="UTF-8" standalone="no"?>
<!-- Created with Inkscape (http://www.inkscape.org/) -->

<svg
   xmlns:dc="http://purl.org/dc/elements/1.1/"
   xmlns:cc="http://creativecommons.org/ns#"
   xmlns:rdf="http://www.w3.org/1999/02/22-rdf-syntax-ns#"
   xmlns:svg="http://www.w3.org/2000/svg"
   xmlns="http://www.w3.org/2000/svg"
   xmlns:sodipodi="http://sodipodi.sourceforge.net/DTD/sodipodi-0.dtd"   
   width="220"
   height="235"
   viewBox="0 0 58.208332 62.177085"
   version="1.1"
   id="svg8"   
   sodipodi:docname="radio.svg" >
  <defs
     id="defs2" />
  <sodipodi:namedview
     id="base"
     pagecolor="#000000"
     bordercolor="#666666"
     borderopacity="1.0"
     showgrid="false"
     units="px" />
  <metadata
     id="metadata5">
    <rdf:RDF>
      <cc:Work
         rdf:about="">
        <dc:format>image/svg+xml</dc:format>
        <dc:type
           rdf:resource="http://purl.org/dc/dcmitype/StillImage" />
        <dc:title></dc:title>
      </cc:Work>
    </rdf:RDF>
  </metadata>
  <g    
     id="layer1"
     transform="translate(0,-234.8229)">
    <path
       style="fill:none;stroke:#ffffff;stroke-width:0.4;stroke-opacity:1;stroke-miterlimit:4;stroke-dasharray:none"
       d="m 23.115825,294.15486 c -0.868306,-0.36877 -0.907683,-0.43037 -1.061328,-1.6601 -0.08776,-0.70241 -0.109924,-2.91372 -0.04925,-4.91401 0.08791,-2.89823 0.0488,-3.68794 -0.192557,-3.88825 -0.347468,-0.28838 -0.415982,-1.97816 -0.08021,-1.97816 0.33817,0 0.265981,-0.57751 -0.111332,-0.89065 -0.506661,-0.42049 -0.475249,-4.37347 0.03928,-4.94201 0.286154,-0.3162 0.312137,-0.47358 0.111332,-0.67439 -0.373922,-0.37393 -0.325152,-1.8472 0.07206,-2.17685 0.212107,-0.17603 0.333996,-0.66774 0.333996,-1.34735 0,-0.71325 0.127131,-1.19728 0.3812,-1.45135 0.209661,-0.20966 0.411164,-0.54246 0.447786,-0.73956 0.343369,-1.84801 0.514682,-5.69595 0.719791,-16.16753 0.299041,-15.26716 0.347373,-16.38294 0.719896,-16.61918 0.384809,-0.24404 1.103075,-0.2355 1.503532,0.0178 0.392585,0.2484 0.374044,-0.19625 0.576212,13.81799 0.175518,12.16676 0.210667,13.42149 0.453887,16.20271 0.148638,1.69966 0.202235,1.8512 0.698786,1.97583 0.382245,0.0959 0.665305,-0.002 0.978623,-0.33819 0.432884,-0.46464 0.448953,-0.4656 0.892492,-0.0523 0.660505,0.61535 1.81927,0.21793 1.387381,-0.47583 -0.221177,-0.35529 -0.10412,-1.30433 0.207746,-1.6843 0.144191,-0.17567 0.454496,-0.23886 0.776368,-0.15807 0.294895,0.074 0.482923,0.0484 0.417843,-0.0569 -0.161897,-0.26195 2.0684,-0.11735 2.397062,0.15541 0.319334,0.26503 0.455411,1.79952 0.159579,1.79952 -0.122327,0 -0.104078,0.28141 0.04363,0.67273 0.193295,0.5121 0.189765,0.77547 -0.01479,1.103 -0.172977,0.27698 -0.18971,0.47909 -0.04697,0.56731 0.121956,0.0754 0.154335,0.2461 0.07195,0.3794 -0.0973,0.15742 0.01454,0.19938 0.319136,0.11973 0.412125,-0.10778 0.479688,-0.0109 0.557832,0.79991 0.08236,0.85464 0.08729,0.84468 0.0669,-0.13525 -0.01476,-0.7096 0.0696,-1.05775 0.256311,-1.05766 0.188911,9e-5 0.27833,0.39358 0.27833,1.22479 0,0.94014 -0.07759,1.22466 -0.333996,1.22466 -0.253789,0 -0.333997,0.27626 -0.333997,1.15043 0,0.63273 0.06528,1.08514 0.145073,1.00535 0.07979,-0.0798 0.280189,0.11537 0.445329,0.43368 0.21021,0.40518 0.300255,1.51741 0.300255,3.70872 0,2.63986 -0.05959,3.19583 -0.380533,3.55047 -0.337612,0.37306 -0.374385,0.95263 -0.326034,5.13881 0.02998,2.59508 -0.03071,5.01892 -0.134854,5.38633 -0.333447,1.17632 -0.913676,1.29223 -6.63725,1.32593 -4.422764,0.026 -5.282784,-0.0241 -6.056497,-0.35264 z"
       id="path1174" />       
  </g>
</svg>
