<?xml version="1.0" encoding="UTF-8" standalone="no"?>
<!-- Created with Inkscape (http://www.inkscape.org/) -->

<svg
   xmlns:dc="http://purl.org/dc/elements/1.1/"
   xmlns:cc="http://creativecommons.org/ns#"
   xmlns:rdf="http://www.w3.org/1999/02/22-rdf-syntax-ns#"
   xmlns:svg="http://www.w3.org/2000/svg"
   xmlns="http://www.w3.org/2000/svg"
   xmlns:sodipodi="http://sodipodi.sourceforge.net/DTD/sodipodi-0.dtd"
   xmlns:inkscape="http://www.inkscape.org/namespaces/inkscape"
   width="220"
   height="235"
   viewBox="0 0 58.208332 62.177085"
   version="1.1"
   id="svg8"
   inkscape:version="0.92.3 (2405546, 2018-03-11)"
   sodipodi:docname="pouch.svg">
  <defs
     id="defs2" />
  <sodipodi:namedview
     id="base"
     pagecolor="#000000"
     bordercolor="#666666"
     borderopacity="1.0"
     inkscape:pageopacity="0"
     inkscape:pageshadow="2"
     inkscape:zoom="2.8"
     inkscape:cx="118.29723"
     inkscape:cy="112.95809"
     inkscape:document-units="px"
     inkscape:current-layer="layer1"
     showgrid="false"
     units="px"
     inkscape:window-width="3440"
     inkscape:window-height="1377"
     inkscape:window-x="-8"
     inkscape:window-y="-8"
     inkscape:window-maximized="1" />
  <metadata
     id="metadata5">
    <rdf:RDF>
      <cc:Work
         rdf:about="">
        <dc:format>image/svg+xml</dc:format>
        <dc:type
           rdf:resource="http://purl.org/dc/dcmitype/StillImage" />
        <dc:title></dc:title>
      </cc:Work>
    </rdf:RDF>
  </metadata>
  <g
     inkscape:label="Layer 1"
     inkscape:groupmode="layer"
     id="layer1"
     transform="translate(0,-234.8229)">
    <path
       style="fill:none;stroke:#ffffff;stroke-width:0.4;stroke-opacity:1;stroke-miterlimit:4;stroke-dasharray:none"
       d="m 37.622123,295.39722 c -0.01735,-0.0164 -2.001301,-0.0438 -4.408758,-0.061 -2.933692,-0.021 -4.581328,-0.0671 -4.996195,-0.14002 -1.237688,-0.21744 -1.69496,-0.26157 -2.475988,-0.23899 -1.826429,0.0528 -3.662447,0.0552 -4.20034,0.006 -0.316131,-0.0292 -0.860679,-0.0748 -1.210107,-0.1013 -0.683994,-0.0519 -2.163152,-0.34998 -2.420815,-0.48788 -0.223245,-0.11947 -0.525204,-0.52359 -0.525204,-0.70289 0,-0.0832 -0.0637,-0.27902 -0.141546,-0.43508 -0.07785,-0.15606 -0.156933,-0.49046 -0.175737,-0.74312 -0.101371,-1.36202 -0.131744,-2.48112 -0.132097,-4.86713 -3.68e-4,-2.62744 0.02998,-2.91424 0.303112,-2.86265 0.07202,0.0136 0.09973,-0.24095 0.09415,-0.865 -0.01636,-1.83079 -0.08256,-3.47466 -0.138537,-3.44012 -0.08837,0.0545 -0.169672,-0.74939 -0.12502,-1.23617 0.02817,-0.30709 0.0015,-0.46982 -0.09227,-0.56362 -0.08061,-0.0806 -0.113907,-0.22216 -0.08566,-0.36411 0.146871,-0.7381 0.256065,-8.22893 0.14969,-10.26884 -0.02629,-0.50416 -0.237394,-1.37716 -0.363512,-1.50328 -0.02432,-0.0243 -0.05657,-0.1437 -0.07167,-0.26528 -0.03916,-0.31535 -0.02613,-4.3049 0.01733,-5.3057 0.14933,-3.43858 0.182914,-3.69693 0.466429,-3.58814 0.329174,0.12631 0.339873,0.0363 0.327792,-2.75755 -0.0065,-1.49501 0.01343,-2.89727 0.04421,-3.11613 0.05097,-0.36237 0.07967,-0.40033 0.321253,-0.42482 0.524782,-0.0532 0.972829,-0.28052 1.094451,-0.55528 0.104267,-0.23556 0.09607,-0.76957 -0.01888,-1.2306 -0.01819,-0.073 -0.05893,-0.23212 -0.09054,-0.35372 -0.0316,-0.12158 -0.02741,-0.47922 0.0093,-0.79473 0.05823,-0.50022 0.09649,-0.5879 0.298804,-0.6848 0.14591,-0.0699 0.251508,-0.20857 0.284529,-0.37368 0.06503,-0.32514 0.460861,-0.54216 1.3579,-0.7445 0.727591,-0.16412 2.213437,-0.191 2.532078,-0.0458 0.164445,0.0749 0.552381,0.0529 1.662189,-0.0946 0.796224,-0.10577 1.51188,-0.2104 1.59034,-0.2325 0.101445,-0.0286 0.157524,-0.18648 0.1941,-0.54653 0.02831,-0.27849 0.06931,-0.58592 0.09115,-0.68319 0.08847,-0.39404 0.261317,-1.60314 0.252574,-1.76686 -0.0051,-0.0963 -0.07082,-0.2201 -0.145952,-0.27503 -0.173806,-0.12709 -0.172476,-0.21152 0.0054,-0.34157 0.169484,-0.12393 0.184156,-0.84678 0.03075,-1.51553 -0.05475,-0.2387 -0.117167,-0.53348 -0.138704,-0.65507 -0.02152,-0.12159 -0.0621,-0.28076 -0.09015,-0.35371 -0.07459,-0.19402 -0.160929,-3.195 -0.103036,-3.58134 0.105756,-0.70574 1.047509,-0.97088 1.544336,-0.4348 0.347325,0.37477 0.409736,0.81846 0.247745,1.76122 -0.04178,0.24318 -0.06641,0.49188 -0.05472,0.55268 0.0117,0.0608 -0.01384,0.11053 -0.05673,0.11053 -0.04289,0 -0.08348,0.14629 -0.0902,0.32509 -0.0067,0.17879 -0.06291,0.35725 -0.124864,0.39657 -0.08879,0.0564 -0.08917,0.0718 -0.0017,0.0728 0.06476,6.7e-4 0.105516,0.10242 0.09806,0.24453 -0.01982,0.3772 0.0033,0.46425 0.123253,0.46425 0.147717,0 0.318602,0.40243 0.418225,0.9849 0.105125,0.61463 0.198983,0.91788 0.434502,1.40384 0.339601,0.70073 0.554503,1.71995 0.491025,2.32882 -0.06658,0.63869 -0.06688,0.61218 0.0122,1.10423 0.03389,0.2109 0.105656,0.40003 0.159485,0.42029 0.05383,0.0203 1.421474,-0.14091 3.039214,-0.35815 1.617744,-0.21723 2.997461,-0.37344 3.066046,-0.34713 0.06858,0.0263 0.147907,0.10835 0.176279,0.18228 0.04146,0.10803 0.1513,0.12363 0.559512,0.0794 0.279362,-0.0302 0.5495,-0.0242 0.600307,0.0135 0.335511,0.24873 0.466898,0.75319 0.791469,3.03887 0.182389,1.28442 0.359915,2.36649 0.3945,2.40461 0.03458,0.0381 0.344748,0.0779 0.689252,0.0884 0.344501,0.0105 0.652007,0.0448 0.683343,0.0761 0.03135,0.0313 0.0799,0.27912 0.107915,0.55058 0.03946,0.3823 0.08921,0.50571 0.220707,0.54744 0.249142,0.0791 0.330333,0.38199 0.372779,1.39079 0.02089,0.49659 0.06616,1.11153 0.100592,1.36654 0.043,0.31843 0.02871,0.50449 -0.04556,0.59399 -0.142827,0.1721 -0.0524,1.52342 0.115078,1.71964 0.121939,0.14287 0.133453,1.28473 0.05359,5.31389 -0.01591,0.80249 -3.34e-4,1.91668 0.03464,2.47599 0.09948,1.59152 0.141053,2.83227 0.151728,4.52785 0.0092,1.46229 0.02112,1.56982 0.179682,1.62015 0.174828,0.0555 0.193819,0.15502 0.176713,0.92626 -0.0048,0.21886 -0.02674,1.39274 -0.04865,2.60863 -0.04944,2.74436 -0.128266,4.03067 -0.256933,4.19254 -0.08892,0.11186 -0.10334,3.543 -0.01992,4.73871 0.01357,0.19454 0.03111,0.58252 0.039,0.86218 0.01039,0.3688 0.04816,0.50846 0.137503,0.50846 0.06775,0 0.150294,0.0696 0.183425,0.15475 0.06076,0.15608 0.06439,4.2618 0.0047,5.3278 -0.01771,0.31613 -0.05624,1.21146 -0.08565,1.98963 -0.03045,0.80606 -0.09119,1.42776 -0.141143,1.44486 -0.04822,0.0165 -0.146901,0.0892 -0.219293,0.16162 -0.07239,0.0724 -0.432085,0.21329 -0.799316,0.31312 -0.496767,0.13504 -0.655346,0.21368 -0.619451,0.30722 0.02654,0.0691 0.0123,0.1035 -0.03162,0.0764 -0.04393,-0.0271 -0.09321,-0.0193 -0.109523,0.0175 -0.06908,0.15575 -0.771295,0.44582 -1.191884,0.49234 -0.250138,0.0277 -0.468996,0.0369 -0.486352,0.0206 z"
       id="path836"
       inkscape:connector-curvature="0"
       sodipodi:nodetypes="cccccccscccccccccccsscssccccccsscscccccccccccccsccccsccccccccccssccsccscccccscccccscccccccccccc" />
  </g>
</svg>
