<?xml version="1.0" encoding="UTF-8" standalone="no"?>
<!-- Created with Inkscape (http://www.inkscape.org/) -->

<svg
   xmlns:dc="http://purl.org/dc/elements/1.1/"
   xmlns:cc="http://creativecommons.org/ns#"
   xmlns:rdf="http://www.w3.org/1999/02/22-rdf-syntax-ns#"
   xmlns:svg="http://www.w3.org/2000/svg"
   xmlns="http://www.w3.org/2000/svg"
   xmlns:sodipodi="http://sodipodi.sourceforge.net/DTD/sodipodi-0.dtd"   
   width="220"
   height="235"
   viewBox="0 0 58.208332 62.177085"
   version="1.1"
   id="acr"
   sodipodi:docname="acr.svg">
  <defs
     id="defs2" />
  <sodipodi:namedview
     id="base"
     pagecolor="#000000"
     bordercolor="#666666"
     borderopacity="1.0"
     showgrid="false"
     units="px" />
  <metadata
     id="metadata5">
    <rdf:RDF>
      <cc:Work
         rdf:about="">
        <dc:format>image/svg+xml</dc:format>
        <dc:type
           rdf:resource="http://purl.org/dc/dcmitype/StillImage" />
        <dc:title></dc:title>
      </cc:Work>
    </rdf:RDF>
  </metadata>
  <g
     id="layer1"
     transform="translate(0,-234.8229)">
    <path
       style="fill:none;stroke:#ffffff;stroke-width:0.4;stroke-opacity:1;stroke-miterlimit:4;stroke-dasharray:none"
       d="m 39.855223,275.42281 c 0.616025,-1.05849 1.120038,-1.95418 1.120039,-1.99047 2e-6,-0.0657 -0.946813,-0.6708 -1.942576,-1.24121 -0.289852,-0.16605 -0.717036,-0.44756 -0.949321,-0.62559 -0.232272,-0.178 -0.696396,-0.4972 -1.03138,-0.70929 -0.334984,-0.21208 -0.818005,-0.54964 -1.073383,-0.75018 -0.255387,-0.20051 -0.798818,-0.62686 -1.207644,-0.94748 -1.087007,-0.85244 -1.176261,-0.95941 -1.056647,-1.26672 0.07649,-0.19649 0.04117,-0.31617 -0.131751,-0.44636 -0.129938,-0.0978 -0.575029,-0.48188 -0.989084,-0.85352 -0.884411,-0.79381 -0.886453,-0.71585 0.04834,-1.84378 0.449907,-0.5428 0.69262,-0.95763 0.887281,-1.51648 l 0.267964,-0.76927 6.64415,-6.65559 c 5.846877,-5.85698 6.674471,-6.65562 6.89678,-6.65562 0.138944,0 0.28726,0.0346 0.329595,0.0769 0.04233,0.0423 0.188865,-0.0348 0.325636,-0.17172 l 0.248669,-0.24862 -0.870341,-0.87035 -0.870337,-0.87035 2.979121,-2.97912 c 1.830343,-1.83036 3.029158,-2.96733 3.108908,-2.94847 0.07761,0.0186 0.928743,-0.76661 2.118019,-1.95337 l 1.988299,-1.98387 -0.538233,-0.53828 c -0.453675,-0.45367 -0.562513,-0.51695 -0.692899,-0.40279 -0.141828,0.12423 -0.14547,0.11978 -0.04359,-0.0532 0.07272,-0.12357 0.04024,-0.24191 -0.09399,-0.34266 -0.197037,-0.14791 -0.249267,-0.11154 -1.335791,0.93036 -0.681324,0.65341 -1.137602,1.15859 -1.148074,1.271 -0.0095,0.1027 -0.06072,0.18665 -0.113692,0.18665 -0.157476,0 -1.569523,1.37321 -1.54012,1.49777 0.01489,0.063 -1.308902,1.45049 -2.941722,3.08332 l -2.968759,2.96877 -0.273944,-0.18195 c -0.150673,-0.10007 -0.364477,-0.22197 -0.475123,-0.27089 -0.183458,-0.0812 -0.127399,-0.16275 0.636588,-0.92674 l 0.83776,-0.83776 -0.455894,-0.45586 -0.455889,-0.45591 -1.068687,1.06868 c -0.873487,0.87351 -1.100128,1.05472 -1.24074,0.9921 -0.11239,-0.0502 -0.284568,0.0357 -0.496535,0.24787 -0.254786,0.25479 -0.369423,0.29817 -0.533624,0.20208 -0.195162,-0.11428 -0.278838,-0.0526 -1.253007,0.92142 -0.956388,0.95641 -1.056593,1.03119 -1.195599,0.89214 -0.163321,-0.16331 -1.326918,-0.0274 -1.533426,0.1791 -0.06852,0.0686 -0.09527,0.18326 -0.0594,0.25498 0.03639,0.0728 -0.02042,0.16859 -0.128641,0.21677 -0.165009,0.0735 -0.323673,-0.0435 -1.066778,-0.78658 l -0.872944,-0.87299 -0.207218,0.20722 -0.207222,0.20725 0.906889,0.90689 c 0.515182,0.51517 0.893215,0.9648 0.875233,1.041 -0.01741,0.0737 0.09667,0.26246 0.253552,0.41935 0.242361,0.24232 0.256574,0.31384 0.09459,0.47585 -0.104853,0.10486 -0.190642,0.27141 -0.190641,0.37004 -1e-6,0.12863 -0.08062,0.198 -0.285173,0.24532 -0.229621,0.0531 -0.297311,0.11839 -0.347438,0.33522 -0.04976,0.21532 -0.116222,0.28174 -0.331558,0.33155 -0.215333,0.0498 -0.281786,0.11622 -0.331556,0.33154 -0.04978,0.21537 -0.116223,0.2818 -0.331559,0.33159 -0.215334,0.0501 -0.281781,0.11621 -0.331553,0.33152 -0.04976,0.21539 -0.116222,0.28179 -0.331562,0.33158 -0.215331,0.05 -0.281784,0.11624 -0.331557,0.33155 -0.04977,0.21535 -0.116219,0.28181 -0.331552,0.33157 -0.215335,0.0498 -0.281787,0.11624 -0.331561,0.33158 -0.04977,0.21531 -0.116221,0.28174 -0.331554,0.33155 -0.215337,0.0497 -0.281788,0.11617 -0.331556,0.33152 -0.04978,0.21535 -0.116226,0.28176 -0.331559,0.33159 -0.215332,0.0497 -0.281786,0.11619 -0.331558,0.33153 -0.04976,0.21536 -0.116223,0.28181 -0.331556,0.33157 -0.215335,0.0498 -0.281785,0.11625 -0.331559,0.33157 -0.04976,0.21534 -0.116222,0.28178 -0.331552,0.33155 -0.21534,0.0498 -0.281785,0.1162 -0.33156,0.33156 -0.04977,0.21533 -0.116222,0.28181 -0.331558,0.33153 -0.215334,0.0499 -0.281786,0.11626 -0.331553,0.33158 -0.04977,0.21532 -0.116221,0.28179 -0.33156,0.33154 -0.215332,0.0498 -0.281787,0.11624 -0.331556,0.33156 -0.04976,0.21531 -0.116222,0.2818 -0.331561,0.33159 -0.215332,0.0497 -0.281782,0.11617 -0.331555,0.33151 -0.04977,0.21534 -0.116219,0.2818 -0.331559,0.33156 -0.215331,0.0499 -0.281785,0.11628 -0.331555,0.33155 -0.04977,0.21539 -0.116222,0.28181 -0.331558,0.33158 -0.215333,0.0498 -0.281785,0.11623 -0.331553,0.33158 -0.04976,0.21533 -0.116223,0.28176 -0.331561,0.33153 -0.215337,0.0497 -0.281783,0.11621 -0.331558,0.33158 -0.04976,0.21532 -0.11622,0.28175 -0.331555,0.33155 -0.215337,0.0501 -0.281787,0.11623 -0.331559,0.33151 -0.04977,0.21538 -0.11622,0.28182 -0.331556,0.33165 -0.215335,0.0498 -0.281784,0.11615 -0.331557,0.33153 -0.04976,0.21532 -0.116222,0.28174 -0.331556,0.33151 -0.215334,0.0499 -0.281784,0.11625 -0.33156,0.33156 -0.04975,0.21533 -0.116221,0.28179 -0.331554,0.33155 -0.215335,0.0498 -0.281785,0.11625 -0.331555,0.33156 -0.04975,0.21536 -0.116226,0.28182 -0.331558,0.3316 -0.215333,0.0498 -0.281784,0.11621 -0.331558,0.33151 -0.04975,0.21533 -0.116224,0.28181 -0.331557,0.33159 -0.215336,0.05 -0.281786,0.11621 -0.331558,0.33154 -0.04975,0.21534 -0.116219,0.28176 -0.331558,0.33157 -0.215331,0.0499 -0.281782,0.11621 -0.331552,0.33153 -0.04976,0.21537 -0.116222,0.2818 -0.33156,0.33156 -0.215333,0.0498 -0.281787,0.11623 -0.331559,0.33159 -0.04976,0.21531 -0.116218,0.28177 -0.331555,0.33155 -0.215339,0.0499 -0.281786,0.11622 -0.331556,0.33155 -0.04975,0.21532 -0.116225,0.28176 -0.331558,0.33154 -0.215336,0.0497 -0.281783,0.11623 -0.331557,0.33158 -0.04977,0.21532 -0.116222,0.28175 -0.331559,0.33154 -0.215333,0.0498 -0.281781,0.11624 -0.331557,0.33157 -0.04977,0.21531 -0.11622,0.28178 -0.331552,0.33156 -0.215339,0.0498 -0.281787,0.11624 -0.33156,0.33156 -0.04975,0.21532 -0.116225,0.2818 -0.331555,0.33156 -0.215338,0.0498 -0.281786,0.11622 -0.331559,0.33151 -0.04977,0.21539 -0.11622,0.28183 -0.331557,0.33157 -0.215336,0.05 -0.281786,0.11623 -0.331558,0.33159 -0.04977,0.21531 -0.116221,0.28177 -0.331557,0.33154 -0.215334,0.0498 -0.281787,0.11623 -0.331555,0.33157 -0.04977,0.21534 -0.116227,0.28179 -0.331558,0.33154 -0.215337,0.05 -0.281788,0.11624 -0.33156,0.33156 -0.04977,0.21534 -0.116218,0.28177 -0.331556,0.33151 -0.215337,0.05 -0.281785,0.11629 -0.331556,0.33162 -0.08726,0.37747 -0.489118,0.45178 -0.904953,0.16733 -0.408562,-0.2795 -0.59639,-0.21869 -1.425608,0.46143 l -0.669517,0.54918 -0.388059,-0.49887 c -0.319595,-0.41088 -0.495554,-0.53878 -0.997326,-0.72495 -0.512933,-0.1903 -0.661095,-0.19063 -0.937097,-0.004 -0.180302,0.12337 -0.327816,0.29736 -0.327839,0.38669 0,0.19168 2.254614,2.37861 2.560799,2.48392 0.147661,0.0511 0.174429,0.12889 0.09605,0.28014 -0.05975,0.11534 -0.06113,0.3368 -0.0038,0.49211 0.07479,0.2 0.01732,0.42804 -0.196925,0.7815 -0.166399,0.27448 -0.348335,0.58379 -0.404314,0.6874 -0.07839,0.14501 -0.150666,0.13943 -0.314583,-0.0243 -0.178591,-0.17863 -0.250703,-0.17493 -0.448516,0.0233 -0.609285,0.60925 -7.4997309,9.34553 -7.5169277,9.53054 -0.01294,0.13927 -0.4011971,0.5813 -1.1527834,1.31246 -1.0018243,0.97457 -1.1232567,1.12512 -1.0456529,1.29917 0.048193,0.10823 0.6247001,0.59758 1.2811297,1.08754 1.7755691,1.32523 4.5323108,3.99977 5.6975658,5.52769 l 0.9163027,1.20152 0.4109888,-0.0312 c 0.484698,-0.0365 0.573104,-0.11688 1.487808,-1.35383 1.036515,-1.40161 1.388777,-1.96796 1.388775,-2.23248 1e-6,-0.13065 -0.322469,-0.87767 -0.716596,-1.66011 -0.67617,-1.3423 -0.741365,-1.43507 -1.155656,-1.64372 -0.404354,-0.20366 -0.458678,-0.27388 -0.687325,-0.88869 -0.136548,-0.36715 -0.20796,-0.80063 -0.158693,-0.96337 0.124537,-0.41135 8.412515,-8.48968 8.881423,-8.65682 0.428136,-0.15259 1.100586,0.0947 1.591397,0.58519 0.372954,0.37276 0.478254,0.67331 1.250783,3.5714 0.463937,1.74042 0.898524,3.21941 0.965757,3.28667 0.146444,0.14641 0.835957,0.13791 1.455279,-0.0185 0.32562,-0.0818 0.462725,-0.17214 0.500129,-0.32877 0.07049,-0.29514 1.14904,-0.71718 1.250524,-0.48933 0.05095,0.11441 0.291689,0.0465 0.852708,-0.24139 0.895581,-0.45925 0.948373,-0.61064 0.366953,-1.05222 -0.272812,-0.20715 -0.497534,-0.71259 -1.301172,-2.92617 -1.128272,-3.10781 -1.147269,-2.9232 0.369922,-3.59515 l 0.946379,-0.41915 0.889804,-1.26534 c 0.489389,-0.6959 0.893624,-1.33236 0.898298,-1.41426 0.0049,-0.0821 0.183005,-0.32355 0.396287,-0.53681 l 0.387791,-0.38778 0.718023,0.53204 c 0.394916,0.2927 0.841481,0.65561 0.992376,0.80649 0.150901,0.15092 0.418527,0.34648 0.594741,0.43459 0.17621,0.0881 0.729828,0.45956 1.230265,0.82523 1.078468,0.78824 2.059553,1.42195 3.436084,2.21938 l 1.009232,0.58473 0.342733,-0.58485 c 0.188496,-0.32172 0.84675,-1.45087 1.462778,-2.50939 z m -13.858091,1.20567 c -1.077486,0.47509 -1.12499,0.45559 -1.528332,-0.62892 -0.180044,-0.4841 -0.209343,-0.7513 -0.102031,-0.93054 0.278365,-0.46493 0.45254,-0.44756 0.999204,0.0991 0.53392,0.5339 1.08776,0.78746 1.408302,0.6447 0.287689,-0.12816 0.243283,-0.17757 -0.335495,-0.37314 -0.454376,-0.15358 -0.558565,-0.23488 -0.745454,-0.58167 -0.119489,-0.2217 -0.211672,-0.58185 -0.204852,-0.80036 0.0114,-0.3651 0.07009,-0.44858 0.726004,-1.03267 0.481883,-0.42916 0.775584,-0.6216 0.904469,-0.59264 0.104975,0.0237 0.456087,0.30699 0.78024,0.62977 0.718178,0.71503 0.726286,0.8667 0.09447,1.76881 -0.638356,0.91132 -1.263682,1.47437 -1.996512,1.79751 z"
       id="path4183"       
       sodipodi:nodetypes="ccsccccccccccscsscccscccscccccccscccscccscscsssccscccscsscccssscsscsssssssssssscsscsssssssssssscsscsssssssssssscsscsssssscsccscccscsccsscccssccscccscccsssccccsccccsccscsccccccccscccccccscc" />
  </g>
</svg>
