<?xml version="1.0" encoding="UTF-8" standalone="no"?>
<!-- Created with Inkscape (http://www.inkscape.org/) -->

<svg
   xmlns:dc="http://purl.org/dc/elements/1.1/"
   xmlns:cc="http://creativecommons.org/ns#"
   xmlns:rdf="http://www.w3.org/1999/02/22-rdf-syntax-ns#"
   xmlns:svg="http://www.w3.org/2000/svg"
   xmlns="http://www.w3.org/2000/svg"
   xmlns:sodipodi="http://sodipodi.sourceforge.net/DTD/sodipodi-0.dtd"
   width="220"
   height="235"
   viewBox="0 0 58.208332 62.177085"
   version="1.1"
   id="svg8"   
   sodipodi:docname="ar-308.svg" >
  <defs
     id="defs2" />
  <sodipodi:namedview
     id="base"
     pagecolor="#000000"
     bordercolor="#666666"
     borderopacity="1.0"
     showgrid="false"
     units="px" />
  <metadata
     id="metadata5">
    <rdf:RDF>
      <cc:Work
         rdf:about="">
        <dc:format>image/svg+xml</dc:format>
        <dc:type
           rdf:resource="http://purl.org/dc/dcmitype/StillImage" />
        <dc:title />
      </cc:Work>
    </rdf:RDF>
  </metadata>
  <g    
     id="layer1"
     transform="translate(0,-234.8229)">
    <path
       style="fill:none;stroke:#ffffff;stroke-width:0.4;stroke-opacity:1;stroke-miterlimit:4;stroke-dasharray:none"
       d="m 33.583374,278.30339 c -0.105311,0.0202 -0.371334,-0.21088 -0.719922,-0.62421 -0.05975,-0.0708 -0.337699,-0.30609 -0.617664,-0.52262 -0.279949,-0.21656 -0.601161,-0.47263 -0.713823,-0.56905 -0.451725,-0.38648 -1.042996,-0.87582 -1.221879,-1.01119 -0.104209,-0.0788 -0.400852,-0.33796 -0.659378,-0.57593 -0.818397,-0.75324 -1.260178,-1.13437 -1.314949,-1.13437 -0.02914,-5e-5 -0.152439,0.14651 -0.273859,0.32555 -0.28444,0.41946 -1.218951,1.2904 -1.593281,1.48486 -0.348351,0.18103 -1.276383,0.88709 -1.53031,1.16431 -0.245476,0.26798 -0.353572,0.45409 -0.296749,0.51092 0.02592,0.0257 0.119863,0.34808 0.208799,0.71589 0.250905,1.03788 0.905266,3.49742 1.004999,3.77749 0.08278,0.23248 0.10653,0.25694 0.31386,0.32283 0.302074,0.0961 0.418996,0.22664 0.418997,0.46755 0,0.16819 -0.04024,0.23196 -0.244046,0.38665 -0.374216,0.28396 -2.615188,1.63047 -3.219794,1.93463 -0.677744,0.34096 -0.742038,0.30488 -0.769558,-0.43145 -0.01119,-0.30011 -0.04679,-0.57271 -0.07903,-0.60576 -0.03266,-0.0326 -0.04099,-0.0777 -0.01941,-0.0994 0.02161,-0.0218 0.0049,-0.26049 -0.03929,-0.53085 -0.04318,-0.27039 -0.06087,-0.50926 -0.03926,-0.53087 0.0216,-0.0218 0.01198,-0.0666 -0.02141,-0.1 -0.03339,-0.0333 -0.06677,-0.19504 -0.07418,-0.35928 -0.0071,-0.16423 -0.03002,-0.31506 -0.0502,-0.33524 -0.02017,-0.0207 -0.03547,-0.16257 -0.03402,-0.31642 0.0018,-0.15393 -0.02417,-0.30781 -0.05691,-0.34204 -0.03348,-0.0334 -0.03981,-0.10654 -0.01566,-0.16083 0.02416,-0.0541 0.01643,-0.12611 -0.01717,-0.15969 -0.03361,-0.0336 -0.04133,-0.10548 -0.01719,-0.15975 0.02414,-0.054 0.01959,-0.12289 -0.01016,-0.15262 -0.05655,-0.0565 -0.154448,-0.71799 -0.119539,-0.80779 0.01108,-0.0288 -0.0108,-0.0827 -0.04865,-0.1206 -0.03783,-0.038 -0.04903,-0.11318 -0.02489,-0.16744 0.02417,-0.054 0.0152,-0.12731 -0.01989,-0.16245 -0.0351,-0.035 -0.05421,-0.10763 -0.04243,-0.16122 0.01177,-0.0536 0.0049,-0.16651 -0.01502,-0.25102 -0.02002,-0.0842 -0.06999,-0.29485 -0.111066,-0.4674 -0.218524,-0.91798 -1.041665,-1.41035 -1.93974,-1.16027 -0.216332,0.0603 -0.438502,0.0967 -0.493717,0.0813 -0.06648,-0.0191 -0.235878,0.0926 -0.501301,0.32968 -0.770808,0.68833 -0.859502,0.69678 -1.495912,0.1424 l -0.360682,-0.31416 -0.630579,0.56936 c -0.346812,0.31315 -0.760928,0.69953 -0.920205,0.85862 l -0.289619,0.28928 0.12746,0.22887 c 0.0701,0.12587 0.250695,0.42635 0.401289,0.66771 0.150591,0.2414 0.334207,0.54955 0.408012,0.68477 0.163285,0.29921 0.290582,0.0536 -1.638702,3.16317 -0.210115,0.33868 -0.418329,0.65202 -0.462714,0.69636 -0.04435,0.0444 -0.127759,0.23453 -0.185295,0.42274 -0.112466,0.36783 -0.250815,0.54657 -0.475878,0.61472 -0.135088,0.041 -0.342054,0.31702 -0.872322,1.16377 -0.0805,0.12854 -0.379473,0.5778 -0.664384,0.99827 -0.380988,0.56228 -0.546625,0.86962 -0.626108,1.16164 -0.145871,0.536 -0.129191,0.7168 0.106549,1.15497 0.152082,0.28264 0.246995,0.67161 0.389976,1.59836 0.103941,0.67365 0.172203,1.30535 0.151696,1.40378 -0.03133,0.15042 -0.232616,0.36772 -1.261694,1.36196 -1.178245,1.13835 -1.2375676,1.1874 -1.5732711,1.30063 -0.4994307,0.16844 -0.6299917,0.0891 -1.5135971,-0.91869 -1.1491503,-1.31081 -3.1304341,-3.07044 -4.3199515,-3.83666 -0.9412502,-0.6063 -0.8698173,-0.54161 -1.1251521,-1.01968 -0.2793427,-0.52306 -0.3039841,-0.85314 -0.09306,-1.24656 0.2229411,-0.41584 10.9322688,-11.05696 11.1831028,-11.11188 0.259239,-0.0567 1.752496,-1.55675 1.689827,-1.69748 -0.03273,-0.0734 0.03386,-0.17635 0.261325,-0.40382 0.2275,-0.22754 0.294057,-0.33039 0.261323,-0.4039 -0.03123,-0.0703 0.02829,-0.17154 0.205737,-0.3508 l 0.249666,-0.25218 -0.283837,0.0248 -0.283834,0.0249 -0.23515,-0.328 c -0.129332,-0.18038 -0.226271,-0.37356 -0.215417,-0.42929 0.02738,-0.1407 0.420998,-0.42208 0.603315,-0.43108 0.08286,-0.005 0.191015,-0.0467 0.24039,-0.0946 0.04937,-0.0479 0.632588,-0.6344 1.2959,-1.30337 0.786032,-0.79256 1.228758,-1.20488 1.271078,-1.18374 0.08371,0.042 0.262196,-0.13451 0.199614,-0.19709 -0.06195,-0.0621 0.256125,-0.38002 0.356351,-0.35636 0.09997,0.0236 0.275594,-0.152 0.213801,-0.21382 -0.07647,-0.0765 0.238653,-0.34776 0.378703,-0.326 0.129499,0.0206 0.269057,-0.16652 0.186361,-0.24921 -0.07347,-0.0735 0.238887,-0.33351 0.344245,-0.28653 0.128287,0.0571 0.299944,-0.11456 0.207228,-0.20728 -0.09797,-0.0979 0.214199,-0.41013 0.349775,-0.34975 0.127451,0.0567 0.259958,-0.0757 0.203187,-0.20319 -0.05774,-0.12967 0.202932,-0.39035 0.332591,-0.33262 0.127706,0.0569 0.294442,-0.10984 0.237558,-0.23752 -0.05727,-0.12864 0.190852,-0.37673 0.319445,-0.31946 0.127707,0.0568 0.294441,-0.10985 0.237559,-0.23756 -0.057,-0.12801 0.170214,-0.35523 0.298219,-0.29821 0.127891,0.0569 0.32889,-0.14405 0.271931,-0.27194 -0.05699,-0.12794 0.157121,-0.34206 0.285072,-0.28509 0.127953,0.0569 0.342059,-0.15713 0.285075,-0.28506 -0.0566,-0.12706 0.09984,-0.28351 0.267891,-0.26789 0.140707,0.0133 0.335764,-0.13936 0.266706,-0.2084 -0.07243,-0.0724 0.199076,-0.38339 0.29675,-0.33988 0.101431,0.0451 0.339499,-0.16418 0.268016,-0.23567 -0.0619,-0.0621 0.208676,-0.33248 0.308828,-0.30886 0.100098,0.0235 0.323182,-0.19939 0.261321,-0.2613 -0.02613,-0.026 0.01662,-0.11161 0.09503,-0.19006 0.07838,-0.0784 0.163907,-0.12114 0.190038,-0.0949 0.02614,0.0261 0.111657,-0.0164 0.190057,-0.0949 0.07838,-0.0784 0.12115,-0.16388 0.09502,-0.19001 -0.07935,-0.0793 0.193728,-0.29985 0.342705,-0.27673 0.130997,0.0209 0.141931,0.01 0.181751,-0.18175 0.0524,-0.25159 0.193614,-0.40086 0.324203,-0.34267 0.127795,0.0569 0.307619,-0.12294 0.250722,-0.2507 -0.05727,-0.1286 0.190831,-0.37671 0.319425,-0.31944 0.05429,0.024 0.142721,-1.8e-4 0.196631,-0.0541 0.05392,-0.054 0.07822,-0.14243 0.05409,-0.19669 -0.06473,-0.14528 1.202863,-1.41289 1.395042,-1.39502 0.168397,0.0152 0.358961,-0.17494 0.302242,-0.30224 -0.0569,-0.12781 0.122924,-0.30762 0.250723,-0.25073 0.110541,0.0492 0.330283,-0.13598 0.302257,-0.25474 -0.02354,-0.0997 0.185399,-0.3086 0.285071,-0.28507 0.1001,0.0235 0.323182,-0.19946 0.261318,-0.26133 -0.02612,-0.026 0.01663,-0.11164 0.09501,-0.19004 0.07839,-0.0785 0.163928,-0.12115 0.190056,-0.0949 0.02613,0.026 0.111661,-0.0164 0.190043,-0.0949 0.0784,-0.0786 0.121165,-0.16391 0.09503,-0.19003 -0.02613,-0.026 0.01663,-0.11166 0.09501,-0.19007 0.0784,-0.0784 0.163927,-0.12117 0.190054,-0.0949 0.02613,0.026 0.100958,-0.007 0.166288,-0.0712 0.06532,-0.0653 0.09741,-0.1402 0.07127,-0.16633 -0.0619,-0.0619 0.20866,-0.33243 0.308833,-0.30881 0.100092,0.0234 0.323179,-0.19946 0.261317,-0.26132 -0.05756,-0.0576 0.434775,-0.54858 0.856299,-0.85415 0.823151,-0.59646 1.735161,-1.46268 6.576503,-6.24622 4.789239,-4.73209 5.289396,-5.24103 5.922326,-6.02635 0.587094,-0.72841 0.7191,-0.86613 0.875682,-0.91354 0.141646,-0.043 0.184367,-0.0818 0.18437,-0.16796 9e-6,-0.14305 0.214085,-0.35917 0.355879,-0.35908 0.08163,0 0.129536,-0.0502 0.192145,-0.20139 0.0644,-0.15545 0.133944,-0.2268 0.305224,-0.31307 0.158473,-0.08 0.234295,-0.15304 0.265574,-0.2564 0.06217,-0.20528 0.206425,-0.33135 0.362572,-0.31686 0.09301,0.01 0.134093,-0.0179 0.134088,-0.0865 1.7e-5,-0.13367 0.315142,-0.44112 0.452092,-0.44111 0.08333,0 0.112844,-0.0306 0.121699,-0.1259 0.0072,-0.081 0.149764,-0.25397 0.398379,-0.48464 l 0.386679,-0.35874 0.191747,0.21794 c 0.174823,0.19851 0.236711,0.22056 0.698417,0.24705 0.354601,0.0209 0.546921,0.0694 0.640867,0.16334 0.09576,0.0957 0.176212,0.11498 0.280801,0.0671 0.0806,-0.037 0.746036,-0.64368 1.478728,-1.34825 1.103488,-1.06107 1.331277,-1.30292 1.327015,-1.40869 -0.005,-0.10358 0.249462,-0.38231 1.344649,-1.47749 l 1.34981,-1.34981 0.280114,0.0378 c 0.467914,0.0629 0.982401,0.71011 0.867164,1.09072 -0.06924,0.22872 -2.690898,2.87674 -2.848102,2.87676 -0.08955,0 -0.45584,0.33708 -1.487155,1.36841 l -1.368355,1.36834 0.133904,0.13391 c 0.07719,0.0772 0.152887,0.27917 0.178764,0.47687 l 0.04489,0.34294 -0.749867,0.82879 c -0.412424,0.45586 -4.459227,4.52954 -8.992897,9.0527 l -8.243041,8.22385 -0.208735,0.59702 -0.208734,0.59701 -0.996147,0.95926 -0.996161,0.95929 -0.339328,-0.0143 c -0.186633,-0.01 -0.349743,-0.006 -0.362456,0.01 -0.01275,0.0131 0.02933,0.0755 0.09347,0.13968 0.114673,0.11467 0.114361,0.19132 -0.0039,0.74748 -0.102056,0.48325 0.01115,0.69806 0.71203,1.35126 0.338142,0.31515 0.72219,0.65022 0.853387,0.74463 0.196787,0.14158 0.239977,0.20658 0.246467,0.37119 0.01016,0.25668 0.312447,0.5431 2.424397,2.29673 0.471152,0.39121 0.898179,0.73387 0.948941,0.76151 0.05089,0.0277 0.200993,0.13398 0.333813,0.23635 0.256564,0.19771 0.743873,0.56616 1.259289,0.95206 0.255818,0.19154 0.311544,0.25998 0.302458,0.37143 -0.01229,0.15024 0.01208,0.11475 -1.915978,2.79299 -1.457016,2.02387 -1.859744,2.53094 -2.036526,2.56416 z m -6.531219,-3.9187 c 0.395803,-0.81399 0.157614,-1.64739 -0.535239,-1.87297 -0.237252,-0.0774 -0.352312,-0.0717 -0.514638,0.0238 -0.263065,0.15544 -1.156909,1.13909 -1.2178,1.34014 -0.116354,0.38431 0.348718,0.99738 0.866761,1.14268 0.482473,0.13524 0.29688,0.31735 -0.21682,0.21267 -0.398146,-0.081 -0.787216,-0.31244 -1.002626,-0.59626 -0.166055,-0.21881 -0.178224,-0.22355 -0.219911,-0.0857 -0.02429,0.0801 -0.01561,0.28595 0.01924,0.45726 0.05429,0.26676 0.104289,0.34612 0.348142,0.55265 0.456645,0.38668 0.768837,0.33836 1.669713,-0.25841 0.278748,-0.18465 0.657736,-0.61689 0.803162,-0.91595 z m -15.9278,12.73085 c 0.594414,-0.90809 0.656951,-1.03121 0.648158,-1.2761 -0.0081,-0.22732 -0.05176,-0.31305 -0.270295,-0.53159 -0.305268,-0.3053 -0.280758,-0.31838 -0.692915,0.37006 -0.162711,0.27181 -0.338851,0.55808 -0.39142,0.63617 -0.05256,0.0782 -0.121403,0.20164 -0.152992,0.27462 -0.03157,0.0729 -0.128344,0.25408 -0.215049,0.40258 -0.08669,0.14846 -0.2144617,0.37241 -0.2839057,0.4975 -0.185665,0.33457 -0.3675923,0.41009 -0.784356,0.3254 -0.4810078,-0.0977 -0.6254663,-0.23944 -0.5027847,-0.49343 0.1000245,-0.20706 0.012484,-0.37928 -0.1228164,-0.2416 -0.1441803,0.14673 -0.1331757,0.28367 0.04109,0.51192 0.1187377,0.15555 0.2282635,0.23438 0.3651123,0.2629 0.1075216,0.0224 0.2296594,0.0748 0.2713997,0.11661 0.076808,0.0769 0.5642501,0.34671 0.9072081,0.50239 0.2272017,0.10313 0.2283557,0.10178 1.1835447,-1.35741 z"
       id="path4235"       
       sodipodi:nodetypes="ccccccccccsccccccccscsscscccscscscsscccccccccccsccsccccccccccccccccscccccccccccscscscsccccccccsccscscssssscccccsccccccssssssssscscssccccccccccccccscscsccccscsccssccccccsscccccccccccccccccccccccccccsccccccccccsccc" />
  </g>
</svg>
