<?xml version="1.0" encoding="UTF-8" standalone="no"?>
<!-- Created with Inkscape (http://www.inkscape.org/) -->

<svg
   xmlns:dc="http://purl.org/dc/elements/1.1/"
   xmlns:cc="http://creativecommons.org/ns#"
   xmlns:rdf="http://www.w3.org/1999/02/22-rdf-syntax-ns#"
   xmlns:svg="http://www.w3.org/2000/svg"
   xmlns="http://www.w3.org/2000/svg"
   xmlns:sodipodi="http://sodipodi.sourceforge.net/DTD/sodipodi-0.dtd"   
   width="220"
   height="235"
   viewBox="0 0 58.208332 62.177085"
   version="1.1"
   id="svg8"   
   sodipodi:docname="ar-556.svg" >
  <defs
     id="defs2" />
  <sodipodi:namedview
     id="base"
     pagecolor="#000000"
     bordercolor="#666666"
     borderopacity="1.0"
     showgrid="false"
     units="px" />
  <metadata
     id="metadata5">
    <rdf:RDF>
      <cc:Work
         rdf:about="">
        <dc:format>image/svg+xml</dc:format>
        <dc:type
           rdf:resource="http://purl.org/dc/dcmitype/StillImage" />
        <dc:title></dc:title>
      </cc:Work>
    </rdf:RDF>
  </metadata>
  <g
     id="layer1"
     transform="translate(0,-234.8229)">
    <path
       style="fill:none;stroke:#ffffff;stroke-width:0.4;stroke-opacity:1;stroke-miterlimit:4;stroke-dasharray:none"
       d="m 52.8175,279.45461 c -0.195928,0.12377 -0.394364,0.22064 -0.440974,0.2153 -0.110217,-0.0129 -6.140795,-3.62562 -7.474178,-4.47792 -0.564438,-0.36082 -1.248956,-0.82103 -1.521149,-1.02276 -0.72576,-0.53778 -2.738349,-2.2121 -3.796347,-3.15826 l -0.920555,-0.82322 -0.16857,0.16859 c -0.09271,0.0926 -0.20703,0.16859 -0.254048,0.16858 -0.05925,10e-6 -0.328865,0.38351 -0.879034,1.25039 -0.46318,0.72985 -0.895425,1.35359 -1.038212,1.49818 -0.145239,0.1471 -0.613092,0.4793 -1.151575,0.81785 -0.720298,0.45283 -1.025916,0.67915 -1.485113,1.0998 -0.317982,0.29134 -0.611017,0.5337 -0.651164,0.53869 -0.110435,0.0137 -0.435449,0.51403 -0.47091,0.72486 -0.01719,0.10217 0.009,0.34981 0.05821,0.55034 0.0492,0.20057 0.07486,0.37919 0.05707,0.39699 -0.01778,0.018 -0.0075,0.0569 0.0222,0.087 0.0841,0.0841 2.095836,5.70041 2.074393,5.79121 -0.0104,0.0439 0.03032,0.13377 0.09052,0.19935 0.06017,0.0654 0.172066,0.27813 0.248648,0.47235 0.180584,0.45794 0.334793,0.60657 0.845759,0.81519 0.506971,0.207 0.563048,0.28548 0.587291,0.82206 l 0.01814,0.40094 -0.61918,0.32452 c -0.749987,0.39307 -2.222392,1.05396 -2.378829,1.06771 -0.0622,0.01 -0.539976,0.17393 -1.061686,0.37438 -0.994805,0.38218 -2.731267,0.88412 -3.103389,0.89701 -0.119949,0.01 -0.261314,-0.0358 -0.314149,-0.0884 -0.104231,-0.10427 -0.345832,-0.7761 -0.359901,-1.00087 -0.0049,-0.0763 -0.03064,-0.16835 -0.05745,-0.20435 -0.06691,-0.0899 -0.464781,-1.69368 -0.677491,-2.73078 -0.279719,-1.36388 -0.627588,-4.89251 -0.571476,-5.79689 0.01156,-0.18631 -0.01489,-0.39521 -0.05877,-0.46406 -0.04389,-0.069 -0.149198,-0.27517 -0.234004,-0.45821 -0.708095,-1.52825 -2.531146,-1.88575 -4.158586,-0.81545 -0.315961,0.20774 -0.379641,0.2107 -0.566217,0.0257 -0.164808,-0.16325 -0.18987,-0.148 -0.903952,0.55017 -0.422832,0.41342 -0.611922,0.56786 -0.723644,0.59121 -0.08317,0.0175 -0.43459,-0.0206 -0.780887,-0.0834 l -0.629635,-0.11488 -0.366125,0.41345 c -0.201353,0.22737 -0.453908,0.50145 -0.561198,0.60897 -0.150286,0.15058 -0.191162,0.23221 -0.177994,0.3554 0.05945,0.55609 0.04511,0.76057 -0.06971,0.99411 -0.06892,0.14013 -0.173203,0.30191 -0.231739,0.35944 -0.281443,0.34313 -0.957161,0.1324 -1.095797,0.33666 -0.05288,0.0794 -0.09613,0.21225 -0.09613,0.29549 1e-6,0.14208 -0.05656,0.24502 -0.191832,0.34921 -0.03186,0.0245 -0.03907,0.0636 -0.01596,0.0865 0.05573,0.0555 -0.09219,0.49501 -0.180861,0.53717 -0.03826,0.0182 -0.05098,0.0518 -0.02847,0.074 0.02259,0.0226 -0.01014,0.15549 -0.07271,0.29538 -0.06257,0.13986 -0.109615,0.29893 -0.104548,0.3535 0.0049,0.0543 -0.06012,0.19295 -0.144879,0.30759 -0.08476,0.11465 -0.132207,0.23038 -0.105452,0.25713 0.04051,0.0406 -0.06771,0.36208 -0.149344,0.44371 -0.0132,0.0132 -0.130254,-0.0565 -0.260114,-0.15498 -0.29636,-0.22471 -0.309873,-0.33944 -0.10959,-0.93087 0.07992,-0.23604 0.104829,-0.36511 0.05535,-0.28689 -0.55386,0.87572 -0.729079,1.10484 -0.958547,1.25328 -0.293463,0.1898 -0.620518,0.29789 -0.954277,0.3153 -0.461624,0.0241 -0.557073,0.10287 -2.22505,1.83707 l -1.5206066,1.58103 0.09835,0.37687 c 0.054095,0.20728 0.3998196,1.26932 0.7682806,2.3601 0.368461,1.09077 0.690882,2.14696 0.716485,2.347 l 0.04656,0.36378 -0.571508,0.59428 c -0.457783,0.47599 -0.609331,0.6062 -0.761219,0.65465 -0.1990471,0.0633 -0.5655556,0.01 -0.6795369,-0.10882 -0.036721,-0.0367 -0.1176091,-0.062 -0.1795552,-0.0563 -0.067221,0.01 -0.1817243,-0.0589 -0.2840297,-0.16091 -0.094274,-0.0942 -0.2121063,-0.17144 -0.2618445,-0.17144 -0.04974,-10e-6 -0.1861048,-0.0858 -0.3030203,-0.19082 -0.1169216,-0.10495 -0.272566,-0.20896 -0.345886,-0.23117 -0.073316,-0.0222 -0.2176079,-0.12465 -0.3206388,-0.22767 -0.103035,-0.10306 -0.2034924,-0.17118 -0.223233,-0.15142 -0.052058,0.0519 -0.3438018,-0.1557 -0.354377,-0.25233 -0.00995,-0.0909 -0.2127728,-0.2005 -0.3230992,-0.17446 -0.039072,0.01 -0.1509253,-0.0633 -0.2485635,-0.16077 -0.097637,-0.0976 -0.2579768,-0.20285 -0.356299,-0.23379 -0.1152835,-0.0363 -0.2192242,-0.11518 -0.2926712,-0.2222 -0.087902,-0.1281 -0.1432689,-0.1614 -0.2426249,-0.14595 -0.097646,0.0148 -0.1784154,-0.0321 -0.3345122,-0.19543 -0.1294128,-0.13537 -0.2683058,-0.22838 -0.3742487,-0.2504 -0.1344024,-0.0283 -0.1743414,-0.0606 -0.1975558,-0.161 -0.038943,-0.16847 -0.1294324,-0.25152 -0.2403085,-0.22054 -0.1199696,0.0337 -0.3669955,-0.11588 -0.3450711,-0.20878 0.027972,-0.11849 -0.1543165,-0.25449 -0.296936,-0.22157 -0.1404394,0.0325 -0.3027793,-0.0816 -0.2762197,-0.19411 0.025447,-0.10785 -0.08745,-0.18186 -0.2676176,-0.17551 -0.141778,0.01 -0.1924147,-0.0266 -0.3219517,-0.20196 -0.1195435,-0.1617 -0.1808893,-0.20541 -0.2759959,-0.19658 -0.097397,0.01 -0.1603276,-0.0375 -0.309213,-0.22898 -0.1177798,-0.15134 -0.2129545,-0.23413 -0.2572965,-0.22366 -0.1048892,0.0246 -0.3031965,-0.19813 -0.2911938,-0.32731 0.011769,-0.12635 -0.1213281,-0.28897 -0.1846302,-0.22566 -0.064417,0.0643 -0.2783447,-0.18247 -0.2666993,-0.30774 0.011751,-0.12631 -0.1213357,-0.28895 -0.1846379,-0.22563 -0.06991,0.0701 -0.2115915,-0.12121 -0.2349862,-0.31709 -0.012251,-0.10248 -0.053103,-0.2172 -0.0907428,-0.25483 -0.0376654,-0.0378 -0.0664644,-0.19774 -0.0639996,-0.35575 l 0.004005,-0.28722 1.0747924,-1.07487 c 2.1034298,-2.10354 9.6817033,-9.55432 10.2284383,-10.05649 0.463984,-0.42618 0.588899,-0.51625 0.754362,-0.54411 0.186892,-0.0317 0.296534,-0.12731 1.904721,-1.6649 0.938527,-0.89738 2.250633,-2.17627 2.915791,-2.84205 1.151079,-1.1517 1.209386,-1.21838 1.209381,-1.37326 2e-6,-0.16232 -0.0011,-0.16193 -0.265741,0.10265 -0.146142,0.146 -0.485428,0.46112 -0.753942,0.70038 l -0.488191,0.43498 -0.52162,-0.5216 -0.52162,-0.52167 0.601764,-0.64965 c 0.330992,-0.35728 1.251662,-1.27371 2.046027,-2.03648 l 1.444232,-1.38684 0.125814,0.0998 c 0.111729,0.0887 0.142805,0.083 0.277516,-0.0506 0.08345,-0.0827 0.204371,-0.181 0.268764,-0.21814 0.09755,-0.0563 0.100605,-0.0836 0.01849,-0.16327 -0.05421,-0.0526 -0.171104,-0.11536 -0.259774,-0.13958 -0.08867,-0.0242 -0.203988,-0.0853 -0.256269,-0.13606 -0.05228,-0.0506 -0.133382,-0.0749 -0.180221,-0.0543 -0.109383,0.0488 -0.23464,-0.0763 -0.234655,-0.23433 -10e-7,-0.23023 -0.121569,-0.39334 -0.97109,-1.3027 -0.876831,-0.9386 -1.00958,-1.11891 -0.902654,-1.22582 0.0352,-0.0351 0.02668,-0.0985 -0.01949,-0.14461 -0.04513,-0.0451 -0.0682,-0.0958 -0.05127,-0.11283 0.01694,-0.0169 -0.215713,-0.26434 -0.516998,-0.5498 l -0.547752,-0.51903 0.246942,-0.24695 c 0.390782,-0.39078 0.37101,-0.39293 0.842475,0.0913 0.3972,0.40785 0.730448,0.63359 0.813152,0.5509 0.135936,-0.13593 0.263664,-0.043 1.175805,0.85681 l 0.909188,0.89678 0.190283,-0.13781 c 0.124828,-0.0905 0.330871,-0.15217 0.599003,-0.17958 0.224793,-0.0229 0.435957,-0.069 0.469242,-0.10227 0.03329,-0.0335 0.17512,-0.0758 0.315183,-0.0947 0.217532,-0.0294 0.272171,-0.0123 0.374769,0.11758 0.09667,0.12226 0.134535,0.13746 0.193939,0.0779 0.05701,-0.0571 0.106513,-0.0413 0.21743,0.0699 l 0.143601,0.14362 0.24358,-0.24362 0.24358,-0.24357 -0.120488,-0.14617 c -0.119122,-0.14458 -0.11795,-0.14906 0.103125,-0.39447 0.200426,-0.22248 0.231984,-0.23985 0.30437,-0.16748 0.173656,0.17371 0.253422,0.16773 0.455191,-0.0337 0.184639,-0.18465 0.189839,-0.20378 0.09955,-0.36625 -0.09165,-0.16491 -0.08683,-0.18081 0.126979,-0.41829 l 0.222248,-0.24686 0.145653,0.14564 0.14565,0.14567 0.225667,-0.22565 c 0.221531,-0.22154 0.223496,-0.22786 0.10697,-0.34439 -0.127458,-0.12746 -0.10987,-0.2279 0.07133,-0.40718 0.222594,-0.22015 0.336891,-0.25137 0.46246,-0.12585 0.116045,0.1161 0.122613,0.11404 0.343975,-0.10734 0.223384,-0.22337 0.224424,-0.22689 0.10257,-0.34872 l -0.123088,-0.12311 0.264095,-0.26409 0.2641,-0.26412 0.146199,0.12056 c 0.142579,0.11741 0.151861,0.11541 0.37402,-0.0826 l 0.227814,-0.20296 -0.145756,-0.14578 -0.145746,-0.14573 0.264093,-0.2641 0.2641,-0.26409 0.146206,0.12048 c 0.139848,0.11527 0.155087,0.1127 0.350728,-0.0592 0.202604,-0.17806 0.203397,-0.1811 0.08206,-0.32822 l -0.122468,-0.14852 0.262152,-0.28625 0.26216,-0.28628 0.148153,0.12212 c 0.142493,0.11753 0.156066,0.11523 0.355545,-0.0601 0.203507,-0.17899 0.20516,-0.18463 0.08645,-0.30332 -0.144599,-0.14462 -0.117209,-0.22428 0.178751,-0.52028 0.217886,-0.21788 0.220749,-0.2189 0.365919,-0.0992 0.136961,0.11285 0.157905,0.11035 0.331346,-0.0398 0.176622,-0.15276 0.180526,-0.16794 0.08455,-0.33075 -0.09997,-0.16949 -0.09891,-0.17247 0.161734,-0.45721 l 0.262363,-0.28661 0.145479,0.14546 c 0.145072,0.14509 0.146007,0.14496 0.330118,-0.0392 0.168889,-0.16891 0.176013,-0.19322 0.08351,-0.28574 -0.134112,-0.13416 -0.07799,-0.2942 0.201012,-0.5732 l 0.228366,-0.22835 0.143602,0.14359 c 0.142847,0.14286 0.144568,0.14267 0.328246,-0.0411 0.176277,-0.17629 0.179269,-0.19 0.0659,-0.30332 -0.144207,-0.14421 -0.114766,-0.22225 0.204119,-0.54114 l 0.242821,-0.24283 0.14361,0.14361 c 0.14007,0.14009 0.147626,0.13962 0.306945,-0.0202 0.14414,-0.14411 0.153312,-0.17981 0.07811,-0.3038 -0.116453,-0.19186 -0.09472,-0.25129 0.200242,-0.54772 l 0.25582,-0.25702 0.143604,0.14356 c 0.140183,0.14024 0.147513,0.13971 0.307727,-0.0207 0.147085,-0.14711 0.153608,-0.17463 0.06299,-0.26527 -0.139041,-0.13906 -0.07193,-0.31305 0.223275,-0.57896 0.244175,-0.21992 0.248874,-0.22114 0.393337,-0.1021 0.137791,0.11358 0.155486,0.11118 0.307722,-0.041 0.150663,-0.15063 0.153549,-0.1695 0.04322,-0.27978 -0.139535,-0.13959 -0.09836,-0.2367 0.247821,-0.58454 0.239843,-0.24108 0.310961,-0.25171 0.489293,-0.0733 0.06261,0.0625 0.108092,0.0495 0.222305,-0.0649 0.130823,-0.13081 0.133098,-0.15408 0.02564,-0.26155 -0.09929,-0.0993 -0.101727,-0.14228 -0.01541,-0.2718 0.05641,-0.0846 0.19061,-0.24191 0.298204,-0.34954 0.202048,-0.20199 0.28231,-0.20857 0.453953,-0.0368 0.05961,0.0597 0.10776,0.0497 0.198529,-0.0414 0.09885,-0.0988 0.103596,-0.14523 0.02703,-0.26487 -0.108122,-0.16898 -0.06175,-0.27212 0.274261,-0.60971 0.204793,-0.20603 0.245536,-0.22628 0.314066,-0.15774 0.147173,0.14714 0.256567,0.16043 0.371888,0.045 0.09217,-0.0922 0.09585,-0.14015 0.01955,-0.2546 -0.105329,-0.15798 -0.03587,-0.30351 0.309995,-0.64935 0.190893,-0.1909 0.199436,-0.19274 0.366004,-0.0788 0.14816,0.10138 0.186105,0.10111 0.289056,-0.004 0.09831,-0.0983 0.101764,-0.13965 0.02027,-0.24271 -0.115567,-0.14609 -0.059,-0.27271 0.277756,-0.62157 0.237654,-0.24612 0.306092,-0.25662 0.488486,-0.074 0.127037,0.12703 0.302696,-0.12696 0.201024,-0.29068 -0.09364,-0.15083 0.0244,-0.37621 0.348077,-0.66438 0.219208,-0.19526 0.22785,-0.19698 0.373233,-0.077 0.131601,0.1085 0.159941,0.10872 0.244561,0.004 0.06723,-0.0851 0.07269,-0.15826 0.01827,-0.24586 -0.09284,-0.14954 -0.02389,-0.28799 0.3207,-0.64374 0.223267,-0.23049 0.261436,-0.25142 0.33106,-0.18181 0.140025,0.14 0.256211,0.16078 0.35377,0.0634 0.07326,-0.0732 0.07262,-0.12434 -0.0049,-0.21966 -0.11736,-0.14837 -0.05937,-0.27268 0.300806,-0.64464 l 0.250487,-0.25869 0.170549,0.1167 c 0.20159,0.1379 0.359399,0.0421 0.245074,-0.14895 -0.09861,-0.16473 -0.0049,-0.37984 0.303666,-0.68699 0.271251,-0.27127 0.336361,-0.28404 0.518693,-0.10171 0.136383,0.13639 0.261659,-0.0623 0.147374,-0.23372 -0.05451,-0.0817 -0.07449,-0.19062 -0.04531,-0.24695 0.04794,-0.0924 0.03928,-0.1034 -0.105522,-0.13355 -0.137542,-0.0287 -0.356507,-0.239 -1.713037,-1.64548 -1.713911,-1.77701 -1.633039,-1.66272 -1.444522,-2.04187 0.164798,-0.33143 0.408379,-0.52638 0.72004,-0.57619 0.270628,-0.0432 0.29583,-0.0343 0.590543,0.20958 0.169312,0.14006 0.702793,0.64935 1.18548,1.13173 0.85854,0.85791 0.88125,0.87692 1.049779,0.86481 0.128218,-0.01 0.209469,-0.0589 0.318359,-0.19451 0.128052,-0.1597 0.195987,-0.18881 0.547615,-0.23473 0.220781,-0.0291 0.50748,-0.11143 0.637119,-0.1835 0.33704,-0.18733 0.568632,-0.18821 0.715388,-0.006 0.06479,0.082 0.132744,0.13398 0.150583,0.11615 0.01801,-0.0183 0.08815,0.0229 0.155881,0.0903 0.15401,0.15404 0.27576,0.0593 0.184616,-0.14362 -0.03495,-0.078 -0.03799,-0.1671 -0.0061,-0.1984 0.03125,-0.0313 0.128149,-0.15077 0.215322,-0.26557 0.143656,-0.18935 0.185435,-0.21059 0.44746,-0.22764 0.26776,-0.0172 0.29948,-0.01 0.431511,0.17273 0.07835,0.10534 0.327295,0.32061 0.553185,0.47838 0.225873,0.15772 0.415319,0.29143 0.420992,0.29702 0.0049,0.01 0.155171,-0.13466 0.332205,-0.31169 0.264687,-0.26465 0.348408,-0.32051 0.471129,-0.31442 0.1416,0.01 0.14764,0.0135 0.117968,0.12573 -0.02665,0.10077 -0.02123,0.10857 0.03671,0.0528 0.103073,-0.0993 0.255368,-0.0638 0.580203,0.13586 0.430082,0.26422 0.441833,0.28298 0.312066,0.49849 -0.21521,0.35746 0.154628,0.70486 0.541623,0.50879 0.08472,-0.0431 0.189208,-0.0725 0.232142,-0.0656 0.109106,0.0169 0.707608,0.72161 0.742948,0.87464 0.01602,0.0694 -0.0058,0.16147 -0.05012,0.20508 -0.110338,0.11032 -0.111283,0.34726 -0.0042,0.45673 0.07254,0.0724 0.127785,0.0669 0.264754,-0.0268 0.203353,-0.13912 0.290421,-0.11441 0.392061,0.11128 0.128665,0.28565 0.103988,0.50505 -0.07718,0.68626 -0.162098,0.16209 -0.162135,0.16334 -0.0049,0.17128 0.267257,0.0135 1.118718,-0.31158 1.446619,-0.55198 0.369117,-0.27072 0.611805,-0.29888 0.815924,-0.0947 l 0.139204,0.13923 -7.494009,7.47669 -7.494004,7.47668 -0.01985,0.23041 c -0.01093,0.12669 -0.08664,0.37645 -0.168304,0.55501 -0.238721,0.52201 -0.186748,0.89908 0.174057,1.26267 0.06745,0.068 0.147909,0.20407 0.178837,0.30241 0.06457,0.20536 0.216548,0.37693 0.313546,0.35404 0.08719,-0.0207 0.291316,0.1857 0.291318,0.2944 -1.5e-5,0.0589 0.05101,0.10796 0.164827,0.15909 0.0994,0.0444 0.247653,0.17861 0.373453,0.33741 0.116125,0.14665 0.224845,0.24723 0.24521,0.22688 0.02012,-0.0205 0.159218,0.0436 0.309099,0.14139 0.14988,0.0979 0.41869,0.20503 0.59735,0.23805 0.302345,0.0559 0.355044,0.0877 0.760742,0.45881 l 0.4359,0.39876 -0.296717,0.43979 -0.296721,0.43977 0.840169,0.89582 c 1.684991,1.79657 4.305831,3.87758 6.319379,5.01767 0.259352,0.14684 1.682432,0.99477 3.162404,1.88427 1.479974,0.88954 2.767866,1.64354 2.861982,1.67561 0.161103,0.0547 0.167413,0.0666 0.107799,0.19931 -0.03479,0.0774 -0.0972,0.19751 -0.138587,0.26667 -0.04139,0.0693 -0.04999,0.13167 -0.0191,0.13898 0.07869,0.0189 -0.217926,0.54847 -0.351898,0.62868 -0.179272,0.10736 -1.204928,1.79629 -1.211111,1.99437 -0.0049,0.11844 -0.03142,0.17016 -0.09114,0.17016 -0.05976,0 -0.1048,0.0736 -0.148253,0.24209 -0.04404,0.17083 -0.08807,0.24208 -0.149588,0.24208 -0.06152,-2e-5 -0.114641,0.0792 -0.180538,0.2698 -0.06478,0.18724 -0.116123,0.26468 -0.167642,0.25286 -0.07939,-0.0184 -0.456046,0.6268 -0.430714,0.73762 0.02247,0.0982 -0.359302,0.77024 -0.480818,0.84633 -0.0635,0.04 -0.23718,0.28292 -0.385961,0.54036 -0.333928,0.57768 -0.285337,0.52353 -0.711833,0.7929 z m -16.089393,-8.1162 c 0.358214,-0.70239 0.665802,-1.32495 0.683534,-1.38342 0.01772,-0.0585 -0.03086,-0.29173 -0.108035,-0.51834 -0.132179,-0.38828 -0.165217,-0.43686 -0.572901,-0.84246 -0.38675,-0.38477 -0.469131,-0.44305 -0.776795,-0.54932 -0.391978,-0.13541 -0.942828,-0.1337 -1.309761,0.009 -0.222932,0.0838 -0.355539,0.19921 -1.225353,1.06743 -0.536267,0.53566 -0.961671,0.98758 -0.944974,1.00471 0.01672,0.0173 0.416601,0.52828 0.888628,1.13588 l 0.858226,1.10478 0.188887,0.01 c 0.144856,0.01 0.194703,0.0316 0.213816,0.116 0.04318,0.19073 -0.02261,0.22389 -0.323696,0.1634 -0.280573,-0.0565 -0.338373,-0.0969 -1.408481,-0.98657 -0.613748,-0.51026 -1.133943,-0.92773 -1.155996,-0.92773 -0.09074,0 -0.423938,0.58967 -0.489916,0.86705 -0.09456,0.39749 0.01066,1.12143 0.217802,1.49831 0.223652,0.40696 0.625065,0.74415 1.050211,0.88214 0.580923,0.18861 0.658644,0.17405 1.85137,-0.34543 1.551691,-0.67584 1.522517,-0.64745 2.363432,-2.29644 z m -26.45043,21.71904 c -0.0032,-0.0972 -0.07913,-0.30777 -0.168195,-0.46782 -0.08906,-0.16004 -0.2010793,-0.41799 -0.2489218,-0.57328 -0.1574007,-0.51077 -0.7812456,-1.96262 -0.8901018,-2.07146 -0.058663,-0.0587 -0.1806505,-0.10299 -0.2710678,-0.0986 -0.1443547,0.01 -0.2455195,0.0859 -0.8293807,0.64695 l -0.6649544,0.63881 0.054876,0.14673 c 0.042736,0.11432 0.3262107,0.36232 1.2831891,1.12272 1.1832817,0.94014 1.2356122,0.97544 1.426922,0.96202 0.2496094,-0.0177 0.3155444,-0.0831 0.3074764,-0.30627 z"
       id="path4209"       
       sodipodi:nodetypes="ccssscscsccccccssccssccccccsccscccccccccccccccscscscscsscccccsccsccccccscscssccsccccccccccccccccscsssccscsccccccccccccccccccccsssccsssscccsccsscccccsscccccsscsssccccccccccccccccccssccsccsssscsssscsscccsssscsscssscsssccsscscsccsccccccsscccccsscccscccccccscsscscccccsccccccccsscssccscccccccccccsccscccsssccccccccscsccscccsccccccsccccscccccccccscccccccc" />
  </g>
</svg>
