<?xml version="1.0" encoding="UTF-8" standalone="no"?>
<!-- Created with Inkscape (http://www.inkscape.org/) -->

<svg
   xmlns:dc="http://purl.org/dc/elements/1.1/"
   xmlns:cc="http://creativecommons.org/ns#"
   xmlns:rdf="http://www.w3.org/1999/02/22-rdf-syntax-ns#"
   xmlns:svg="http://www.w3.org/2000/svg"
   xmlns="http://www.w3.org/2000/svg"
   xmlns:sodipodi="http://sodipodi.sourceforge.net/DTD/sodipodi-0.dtd"   
   width="220"
   height="235"
   viewBox="0 0 58.208332 62.177085"
   version="1.1"
   id="svg8"
   sodipodi:docname="ar15.svg">
  <defs
     id="defs2" />
  <sodipodi:namedview
     id="base"
     pagecolor="#000000"
     bordercolor="#666666"
     borderopacity="1.0"
     showgrid="false"
     units="px"/>
  <metadata
     id="metadata5">
    <rdf:RDF>
      <cc:Work
         rdf:about="">
        <dc:format>image/svg+xml</dc:format>
        <dc:type
           rdf:resource="http://purl.org/dc/dcmitype/StillImage" />
        <dc:title></dc:title>
      </cc:Work>
    </rdf:RDF>
  </metadata>
  <g
     id="layer1"
     transform="translate(0,-234.8229)">
    <path
       style="fill:none;stroke:#ffffff;stroke-width:0.4;stroke-miterlimit:4;stroke-dasharray:none;stroke-opacity:1"
       d="m 37.83059,278.14348 c 0.09727,-0.16687 0.230137,-0.35438 0.295274,-0.41666 0.160873,-0.15383 0.406598,-0.60916 0.406598,-0.7533 0,-0.0645 0.126635,-0.3463 0.281417,-0.62613 0.154777,-0.27983 0.393444,-0.72688 0.530365,-0.99349 0.136925,-0.2667 0.319385,-0.56579 0.405468,-0.66477 0.08805,-0.10124 0.169081,-0.26381 0.185233,-0.37161 0.01578,-0.10537 0.05444,-0.21732 0.08593,-0.24881 0.133801,-0.13374 0.186119,-0.0996 -1.636143,-1.06701 -1.477171,-0.7841 -1.84009,-0.99309 -2.671243,-1.53792 -0.678959,-0.44512 -2.149041,-1.58636 -2.527834,-1.96244 l -0.39294,-0.3901 0.117748,-0.17186 c 0.213717,-0.31194 0.143765,-0.48481 -0.191292,-0.47266 -0.106833,0.01 -0.242357,-0.0142 -0.301151,-0.0408 -0.0588,-0.0261 -0.426314,-0.3896 -0.816702,-0.80773 -0.681274,-0.7296 -0.712749,-0.77142 -0.783017,-1.04071 -0.0679,-0.26014 -0.06771,-0.46074 0.0049,-0.97383 0.01553,-0.11606 -0.01796,-0.27701 -0.07978,-0.38358 l -0.106581,-0.18366 0.144616,0.13664 c 0.115428,0.10905 0.166727,0.12341 0.25416,0.071 0.17507,-0.10488 1.415255,-1.43265 1.423789,-1.52442 0.0049,-0.0589 0.135504,-0.075 0.444802,-0.0553 0.469645,0.0304 0.651833,-0.0642 0.504381,-0.26044 -0.05745,-0.0764 -0.04922,-0.12451 0.03591,-0.20967 0.08518,-0.085 0.133206,-0.0933 0.209705,-0.0359 0.08215,0.0617 0.128999,0.0489 0.27212,-0.0748 0.153397,-0.13256 0.164279,-0.1609 0.09654,-0.25098 -0.05909,-0.0788 -0.05074,-0.13264 0.03706,-0.23918 0.101874,-0.1236 0.123695,-0.12732 0.214613,-0.0364 0.09519,0.0951 0.110267,0.0907 0.253453,-0.0747 0.126567,-0.1463 0.139668,-0.19279 0.07771,-0.27528 -0.05792,-0.077 -0.04934,-0.12441 0.03862,-0.21237 0.09559,-0.0955 0.128467,-0.0978 0.211818,-0.0143 0.09362,0.0935 0.107455,0.0886 0.270321,-0.0965 0.146487,-0.16658 0.160727,-0.20974 0.09711,-0.29445 -0.05795,-0.0771 -0.04935,-0.12442 0.03862,-0.21236 0.09632,-0.0963 0.128209,-0.0981 0.214202,-0.0127 0.08594,0.0859 0.110556,0.0846 0.164652,-0.01 0.03498,-0.0607 0.104091,-0.15113 0.15358,-0.2012 0.05746,-0.0581 0.06932,-0.12628 0.03294,-0.18852 -0.08141,-0.13905 0.132631,-0.3531 0.242885,-0.24285 0.06602,0.066 0.102983,0.0516 0.254626,-0.10015 0.144918,-0.14495 0.166949,-0.19525 0.120358,-0.27481 -0.08289,-0.14157 0.09036,-0.2997 0.220884,-0.20159 0.05456,0.041 0.107913,0.057 0.118534,0.036 0.01063,-0.0215 0.08882,-0.10816 0.173766,-0.19311 0.128724,-0.12875 0.141596,-0.16738 0.07725,-0.23169 -0.118921,-0.11895 0.111733,-0.33167 0.248316,-0.22905 0.05458,0.041 0.107916,0.0573 0.118533,0.0357 0.01061,-0.0215 0.08882,-0.10812 0.173765,-0.1931 0.128723,-0.12869 0.141592,-0.16731 0.07726,-0.23165 -0.107491,-0.10752 0.06867,-0.2837 0.204269,-0.2043 0.08132,0.0476 0.129905,0.0243 0.294129,-0.13961 0.168101,-0.16813 0.185938,-0.20751 0.122683,-0.27076 -0.04072,-0.041 -0.05987,-0.10334 -0.04259,-0.13914 0.05163,-0.10695 0.158665,-0.13092 0.236581,-0.0533 0.06201,0.062 0.102497,0.0438 0.267135,-0.12093 0.171447,-0.17143 0.187076,-0.20952 0.134203,-0.3273 -0.07701,-0.17144 0.02178,-0.27024 0.177226,-0.17723 0.108333,0.0648 0.14032,0.0527 0.310623,-0.1175 0.166976,-0.16699 0.182645,-0.20595 0.130019,-0.32312 -0.07693,-0.17133 0.01502,-0.26333 0.170319,-0.17032 0.106471,0.0637 0.14138,0.0518 0.294765,-0.10168 0.150064,-0.1501 0.165759,-0.19231 0.114158,-0.30727 -0.03661,-0.0816 -0.02951,-0.16355 0.01834,-0.21139 0.05766,-0.0577 0.103541,-0.0528 0.174726,0.0185 0.09015,0.0901 0.109358,0.0836 0.290584,-0.0976 0.172903,-0.17286 0.187337,-0.20897 0.132455,-0.33112 -0.07577,-0.16871 0.05451,-0.27975 0.200075,-0.17052 0.09246,0.0694 0.116953,0.0579 0.289228,-0.13558 0.163549,-0.18366 0.178457,-0.22437 0.113684,-0.31057 -0.110432,-0.14703 0.04307,-0.27975 0.173113,-0.14974 0.09461,0.0945 0.106165,0.0901 0.289621,-0.11587 0.158213,-0.17752 0.182582,-0.23617 0.141734,-0.34082 -0.06102,-0.1564 0.05422,-0.24627 0.187567,-0.1462 0.08353,0.0626 0.122739,0.0501 0.253152,-0.0801 0.179324,-0.17931 0.247798,-0.35962 0.167193,-0.44021 -0.09327,-0.0933 0.03622,-0.16402 0.192926,-0.1054 0.09766,0.0366 0.158326,0.027 0.183133,-0.0289 0.02043,-0.0459 0.09447,-0.14069 0.164584,-0.21079 0.09502,-0.0949 0.112967,-0.15232 0.07047,-0.22492 -0.03135,-0.0536 -0.02934,-0.12516 0.0049,-0.159 0.03578,-0.0359 0.09383,-0.0296 0.138773,0.0153 0.06863,0.0688 0.102979,0.0516 0.308933,-0.15447 0.205951,-0.20595 0.223115,-0.24025 0.154464,-0.30897 -0.101264,-0.10118 0.01555,-0.21802 0.14328,-0.14319 0.08351,0.049 0.12991,0.0243 0.324626,-0.1702 0.201442,-0.20143 0.218436,-0.23595 0.149964,-0.30438 -0.05149,-0.0516 -0.05149,-0.10299 -2e-6,-0.15452 0.05147,-0.0515 0.102972,-0.0515 0.154466,0 0.06777,0.0677 0.102974,0.0516 0.287018,-0.13254 0.175873,-0.17587 0.20126,-0.22623 0.15707,-0.31155 -0.06845,-0.13208 0.03491,-0.23538 0.135156,-0.13514 0.0679,0.0681 0.102979,0.0517 0.290583,-0.13613 0.192035,-0.19201 0.20736,-0.22664 0.153511,-0.34661 -0.07894,-0.17581 0.02707,-0.28185 0.154464,-0.15444 l 0.09652,0.0965 0.416188,-0.41624 c 0.564068,-0.56408 0.57005,-0.60404 0.153582,-1.02685 -0.172701,-0.1753 -0.414658,-0.46137 -0.537665,-0.63569 l -0.223649,-0.317 0.283636,-0.3327 c 0.156006,-0.18295 0.313181,-0.40096 0.349291,-0.48445 0.04008,-0.0926 0.34865,-0.43475 0.792131,-0.87823 0.621817,-0.62184 0.742919,-0.72491 0.840665,-0.71587 0.103704,0.0104 0.379161,-0.25682 2.998069,-2.90041 2.238532,-2.25963 2.913433,-2.91917 3.015938,-2.94766 0.187671,-0.0521 0.438752,-0.31808 0.426335,-0.45164 -0.0093,-0.10015 -0.0049,-0.10793 0.08386,-0.0837 0.122576,0.0344 0.256231,-0.10188 0.264631,-0.2702 0.0049,-0.10934 0.0198,-0.12717 0.08071,-0.10005 0.06039,0.0268 0.242438,-0.13632 0.985239,-0.88319 0.895345,-0.90025 0.910649,-0.91862 0.882553,-1.05781 -0.05628,-0.27866 -0.844774,-1.05815 -1.112406,-1.09971 -0.07296,-0.0118 -0.168656,0.0365 -0.267302,0.1337 -0.246857,0.24312 -1.42115,1.41182 -1.540769,1.53348 -0.06021,0.061 -0.100411,0.14912 -0.08949,0.19545 0.01622,0.0689 -0.005,0.0854 -0.119117,0.0912 -0.175027,0.01 -0.240881,0.0738 -0.249523,0.24689 -0.0049,0.10446 -0.02799,0.13629 -0.09763,0.13629 -0.119269,1e-5 -0.379583,0.26311 -0.426064,0.43055 -0.02846,0.10253 -0.688055,0.77742 -2.94767,3.01598 -2.643549,2.6189 -2.910034,2.89432 -2.900394,2.99806 0.0091,0.0978 -0.09373,0.21857 -0.712231,0.83705 -0.529584,0.52955 -0.788903,0.75812 -0.969921,0.85488 -0.135889,0.0728 -0.329799,0.21445 -0.430917,0.31509 -0.133323,0.13277 -0.199006,0.16789 -0.239018,0.12781 -0.03031,-0.0305 -0.108015,-0.0551 -0.172612,-0.0551 -0.218699,0 -1.101551,-0.64565 -1.009165,-0.73802 0.03195,-0.0322 -0.09278,-0.16999 -0.4492,-0.4969 -0.271402,-0.24896 -0.87347,-0.8025 -1.337943,-1.23006 -0.464466,-0.42757 -0.850376,-0.77771 -0.857577,-0.7781 -0.21975,-0.0123 -0.274869,0.0187 -0.567086,0.3106 -0.393632,0.39358 -0.43029,0.53186 -0.338937,1.27813 0.03768,0.3078 0.08809,0.79025 0.11204,1.0722 0.065,0.76496 0.09289,0.87612 0.279281,1.11134 0.09388,0.11853 0.19835,0.2573 0.232136,0.30849 0.03378,0.0512 0.167822,0.20388 0.297855,0.33933 0.177576,0.18498 0.22268,0.26002 0.181186,0.30152 -0.03036,0.0306 -0.09989,0.0218 -0.15446,-0.0198 -0.08199,-0.0615 -0.129037,-0.049 -0.270635,0.0735 -0.142606,0.12315 -0.167864,0.17763 -0.15037,0.32412 0.02501,0.20937 -0.07152,0.33154 -0.177961,0.22514 -0.102731,-0.10276 -0.151256,-0.0817 -0.319345,0.13846 -0.102825,0.1347 -0.129682,0.2162 -0.09227,0.28015 0.07748,0.13235 -0.07094,0.24814 -0.22784,0.17766 -0.18273,-0.0821 -0.37037,0.10557 -0.37037,0.37037 0,0.23289 -0.08492,0.33292 -0.217001,0.25564 -0.141073,-0.0826 -0.449331,0.22565 -0.397354,0.39731 0.04997,0.165 -0.07551,0.26838 -0.247624,0.20403 -0.09643,-0.0359 -0.160417,-0.0256 -0.193217,0.0317 -0.02694,0.0471 -0.0862,0.14393 -0.131606,0.21535 -0.04539,0.0714 -0.05682,0.15551 -0.02534,0.18699 0.03524,0.035 0.02017,0.0941 -0.03936,0.15371 -0.07079,0.0709 -0.117137,0.0759 -0.17377,0.0197 -0.06601,-0.0661 -0.102982,-0.0515 -0.254627,0.10011 -0.14491,0.145 -0.166947,0.1953 -0.120355,0.27486 0.08141,0.13909 -0.132629,0.35316 -0.242886,0.24286 -0.06601,-0.0659 -0.10298,-0.0514 -0.254624,0.1002 -0.144917,0.14484 -0.166943,0.1952 -0.120352,0.27482 0.08139,0.13907 -0.132631,0.35315 -0.242894,0.24289 -0.06415,-0.064 -0.102976,-0.0515 -0.229505,0.075 -0.103448,0.10347 -0.145793,0.19111 -0.132052,0.27341 0.01112,0.0666 -0.008,0.16903 -0.04284,0.22757 -0.04889,0.0824 -0.08433,0.0905 -0.157571,0.0355 -0.07663,-0.0576 -0.127097,-0.0427 -0.267088,0.0783 -0.143765,0.12423 -0.163543,0.16658 -0.118448,0.25356 0.07635,0.14737 -0.138049,0.36533 -0.249601,0.25375 -0.111753,-0.11171 -0.398478,0.17497 -0.356515,0.35649 0.04006,0.17344 -0.154603,0.36811 -0.261353,0.26139 -0.123387,-0.1234 -0.376262,0.16013 -0.359314,0.40288 0.01515,0.21724 -0.102142,0.32248 -0.242329,0.21724 -0.08238,-0.0618 -0.123058,-0.0499 -0.244416,0.0715 -0.118804,0.11881 -0.135656,0.1721 -0.09165,0.2898 0.07108,0.19009 -0.128226,0.37209 -0.281406,0.25702 -0.0764,-0.0575 -0.124552,-0.0494 -0.209236,0.0352 -0.14618,0.1462 -0.196414,0.26793 -0.135629,0.32869 0.05072,0.0508 0.01455,0.17856 -0.07621,0.26926 -0.02782,0.0281 -0.104929,0.0183 -0.171351,-0.0218 -0.09883,-0.0592 -0.144334,-0.0489 -0.25047,0.0573 -0.12411,0.12409 -0.163851,0.31931 -0.065,0.31931 0.06802,-1e-5 -0.08939,0.24615 -0.184533,0.28853 -0.04417,0.0203 -0.115573,0.002 -0.158718,-0.0428 -0.064,-0.0639 -0.103487,-0.0536 -0.214556,0.0577 -0.109653,0.10966 -0.124485,0.16204 -0.07629,0.26938 0.04225,0.094 0.03091,0.16221 -0.0386,0.23166 -0.06948,0.0695 -0.13766,0.0808 -0.231696,0.0388 -0.17469,-0.0784 -0.40647,0.12568 -0.31674,0.27897 0.110328,0.18847 -0.16992,0.4701 -0.319282,0.32072 -0.06398,-0.0639 -0.103488,-0.0533 -0.214559,0.0577 -0.110552,0.11056 -0.124592,0.16176 -0.07476,0.27273 0.05113,0.11387 0.03844,0.15547 -0.0763,0.25007 -0.105497,0.087 -0.1608,0.096 -0.236855,0.039 -0.08105,-0.0609 -0.123687,-0.0501 -0.232654,0.059 -0.106796,0.1068 -0.121484,0.15999 -0.07359,0.26665 0.08226,0.18325 -0.118745,0.39879 -0.26763,0.28698 -0.07864,-0.0593 -0.130252,-0.0485 -0.248537,0.0516 -0.125511,0.10603 -0.140767,0.14898 -0.0957,0.26945 0.07288,0.19495 -0.124366,0.4089 -0.273625,0.29673 -0.07971,-0.0599 -0.130075,-0.0486 -0.256025,0.0585 -0.08866,0.075 -0.1411,0.15272 -0.120673,0.17858 0.01986,0.0251 0.05567,0.0697 0.07959,0.0989 0.0239,0.0295 -0.01507,0.12221 -0.08658,0.20673 -0.112679,0.13315 -0.143597,0.14348 -0.231691,0.0773 -0.08203,-0.0618 -0.131368,-0.0515 -0.255317,0.0534 -0.133146,0.11272 -0.14346,0.14362 -0.07724,0.23174 0.06197,0.0823 0.05131,0.13127 -0.05641,0.25846 -0.12176,0.14372 -0.141059,0.14854 -0.231703,0.0579 -0.07716,-0.0771 -0.117683,-0.0796 -0.184527,-0.0114 -0.166108,0.17086 -0.137436,0.30663 0.118881,0.56298 0.132317,0.13231 0.220026,0.2542 0.198479,0.2757 -0.02226,0.0224 -0.160146,-0.0829 -0.325963,-0.2487 -0.158037,-0.15803 -0.314035,-0.28102 -0.346655,-0.27333 -0.112586,0.0267 -0.632185,0.68467 -0.581002,0.73587 0.116396,0.1164 -0.173654,0.43907 -0.31847,0.35423 -0.05359,-0.0316 -0.108674,-0.0461 -0.122415,-0.0331 -0.01375,0.0131 -0.07417,0.0523 -0.134292,0.087 -0.08631,0.0499 -0.09617,0.0924 -0.04676,0.20235 0.04386,0.0976 0.03437,0.1674 -0.03182,0.23349 -0.134215,0.13427 -0.25477,0.17825 -0.317178,0.11585 -0.03539,-0.0351 -0.09851,-0.01 -0.184446,0.0769 -0.09818,0.0982 -0.116477,0.15489 -0.0736,0.2281 0.08232,0.14064 -0.184519,0.40751 -0.325174,0.32514 -0.138797,-0.0813 -0.373948,0.1539 -0.292694,0.29269 0.08232,0.14066 -0.184515,0.40753 -0.325165,0.32517 -0.135832,-0.0795 -0.333591,0.11827 -0.254083,0.25409 0.08333,0.14232 -0.221432,0.4471 -0.36379,0.36379 -0.06901,-0.0406 -0.129903,-0.0245 -0.208771,0.0542 -0.08559,0.0855 -0.09351,0.12921 -0.03412,0.18862 0.06602,0.0659 0.05147,0.10297 -0.10016,0.25459 -0.144911,0.14489 -0.195224,0.16699 -0.27482,0.12036 -0.135633,-0.0795 -0.335582,0.12055 -0.262193,0.26221 0.04094,0.0791 0.01881,0.13565 -0.09914,0.2536 -0.126117,0.12612 -0.164955,0.13877 -0.229097,0.0745 -0.062,-0.0619 -0.102979,-0.0515 -0.207885,0.0532 -0.09818,0.0982 -0.116478,0.15486 -0.07361,0.22805 0.0453,0.0775 0.02457,0.12999 -0.101044,0.25556 -0.132338,0.13237 -0.170665,0.14549 -0.235317,0.081 -0.06202,-0.0621 -0.102993,-0.0516 -0.207904,0.0532 -0.09818,0.0982 -0.116471,0.15488 -0.07361,0.22812 0.04532,0.0774 0.02458,0.12989 -0.101046,0.25549 -0.132332,0.13232 -0.170665,0.1455 -0.235313,0.0808 -0.112164,-0.11216 -0.364337,0.14002 -0.281503,0.28151 0.04531,0.0775 0.02454,0.12994 -0.101047,0.2555 -0.132338,0.13235 -0.170664,0.14545 -0.235315,0.0809 -0.05663,-0.0566 -0.102976,-0.0516 -0.173773,0.0197 -0.09281,0.0927 -0.105957,0.0871 -0.341545,-0.14847 -0.208536,-0.20853 -0.276505,-0.24689 -0.456745,-0.25763 -0.116459,-0.01 -0.509577,-0.0698 -0.873589,-0.13991 -0.652768,-0.12546 -0.665328,-0.1307 -0.91606,-0.38141 -0.253445,-0.25341 -0.477556,-0.36709 -0.685804,-0.34772 -0.241398,0.0225 -1.626131,1.03032 -1.931242,1.40564 -0.212784,0.26177 -0.339702,0.62033 -0.309397,0.87402 0.01918,0.16046 0.07421,0.23599 0.435114,0.59688 l 0.413168,0.41316 -0.278864,0.34965 -0.278871,0.34956 0.389539,0.80181 c 0.214245,0.44097 0.389518,0.82871 0.389498,0.8616 -1.8e-5,0.033 -0.116448,0.18664 -0.258731,0.34174 l -0.2587,0.28192 0.397773,0.46357 c 0.471551,0.54966 0.485454,0.47907 -0.220477,1.11929 -0.451945,0.40982 -0.453326,0.41168 -0.384755,0.52622 l 0.06881,0.11484 -1.217867,1.1922 c -1.013515,0.99218 -1.238362,1.19328 -1.34004,1.19874 -0.06719,0.01 -0.21254,0.084 -0.322978,0.17902 -0.485869,0.41741 -2.137778,2.02252 -4.6352401,4.504 -1.480859,1.47139 -3.2934822,3.258 -4.0280629,3.97023 l -1.3356054,1.295 -0.232334,0.0205 c -0.2032794,0.0176 -0.2649353,0.0526 -0.4931496,0.28071 -0.2423682,0.24239 -0.2574796,0.27189 -0.2134577,0.41731 0.072968,0.24095 0.7952187,0.9225 2.3191202,2.18825 0.8124929,0.67488 0.9660892,0.80373 1.3860604,1.16264 0.1717658,0.14685 0.3450462,0.28631 0.3850499,0.31005 0.040006,0.0236 0.2221139,0.17037 0.4046893,0.32588 0.182583,0.15553 0.3468731,0.28666 0.3650967,0.29143 0.018228,0.01 0.1708574,0.12415 0.3391855,0.26543 0.4763191,0.39979 0.6903251,0.56873 0.9370151,0.73981 0.1850505,0.12839 0.5419415,0.39647 0.7939083,0.5963 0.023696,0.019 0.1531905,0.11524 0.2877855,0.21428 0.1345911,0.0991 0.277478,0.2074 0.3175225,0.24081 0.040043,0.0334 0.096691,0.0609 0.1258781,0.0609 0.029173,0 0.097907,0.0446 0.1527164,0.0998 0.054827,0.0547 0.2471029,0.1897 0.4273118,0.29955 0.392288,0.23909 0.508821,0.22722 0.767378,-0.0781 l 0.180582,-0.21338 -0.123152,-0.4483 -0.12315,-0.4482 0.29829,-0.012 c 0.386917,-0.0149 0.624684,-0.0654 0.710135,-0.15011 0.03772,-0.0374 0.09411,-0.18088 0.125273,-0.31882 0.08403,-0.37177 -0.0096,-0.42493 -0.728058,-0.41334 -0.596906,0.0103 -0.611977,0.01 -0.602353,-0.13164 0.0051,-0.0779 -0.04662,-0.43263 -0.115582,-0.78842 -0.307155,-1.58382 -0.361488,-1.88583 -0.360646,-2.00474 0.0015,-0.0695 0.06958,-0.26643 0.153528,-0.43735 0.08395,-0.17088 0.290748,-0.60619 0.459561,-0.96738 0.28567,-0.61117 0.304841,-0.64008 0.27692,-0.41818 -0.07114,0.5655 -0.0257,0.66609 0.569816,1.26104 0.380584,0.38025 0.437723,0.40869 0.672322,0.33428 0.151302,-0.0479 0.16057,-0.0684 0.202291,-0.44648 0.04897,-0.44384 0.09367,-0.92358 0.109717,-1.17734 0.0052,-0.0928 0.02504,-0.27009 0.0426,-0.39384 0.01755,-0.12373 0.04269,-0.39215 0.05583,-0.59648 0.06887,-1.0695 0.09062,-1.17189 0.291328,-1.37257 l 0.188888,-0.18891 0.226767,0.22674 0.226762,0.22684 0.186313,-0.13496 c 0.102476,-0.074 0.249737,-0.2208 0.327311,-0.32556 l 0.140943,-0.19069 -0.20647,-0.22937 -0.206471,-0.2294 0.55891,-0.58028 0.558908,-0.58027 -0.110685,-0.11071 c -0.06088,-0.0609 -0.09597,-0.14374 -0.07801,-0.1841 0.018,-0.0406 -0.02179,-0.15197 -0.08842,-0.24805 -0.18803,-0.27119 -0.337818,-0.94338 -0.27691,-1.24268 0.108521,-0.53314 0.257427,-0.78597 0.800936,-1.36012 0.354585,-0.37459 0.498953,-0.5566 0.486322,-0.61308 -0.0099,-0.0444 -0.104562,-0.16755 -0.210408,-0.27412 -0.189468,-0.19073 -0.191207,-0.19818 -0.111603,-0.48181 l 0.08087,-0.28809 0.990058,-1.01451 0.99006,-1.01454 0.157223,0.0552 c 0.147439,0.0516 0.17271,0.0398 0.406123,-0.19372 l 0.248896,-0.24895 0.441579,0.44158 c 0.464742,0.46477 0.676388,0.60305 0.773889,0.50549 0.04543,-0.0453 0.106088,-0.0123 0.265477,0.14771 0.225396,0.22544 0.263298,0.36578 0.298068,1.1037 0.0095,0.20287 0.05407,0.40586 0.09892,0.45109 0.06877,0.0694 0.115424,0.0564 0.297712,-0.0832 0.444765,-0.34055 0.981269,-0.43002 1.489234,-0.24836 0.509527,0.18226 0.942954,0.71941 1.113167,1.37954 0.02938,0.11396 0.07909,0.23288 0.110506,0.26429 0.03138,0.0317 0.07072,0.12039 0.08738,0.19784 0.0167,0.0774 0.110317,0.34512 0.208084,0.59493 0.09777,0.24981 0.231964,0.66517 0.298203,0.92302 0.118727,0.46216 0.387583,1.24586 0.532738,1.55288 0.09861,0.20865 0.481744,0.91208 0.762516,1.40007 0.124116,0.21567 0.266234,0.5356 0.315809,0.71082 0.08901,0.31465 0.160814,0.39584 0.261289,0.29535 0.02835,-0.0285 0.08707,-0.0355 0.130534,-0.0164 0.06583,0.0296 0.144497,-0.0384 0.47209,-0.40504 0.631224,-0.70698 2.064423,-1.89637 2.818912,-2.33946 0.160577,-0.0943 0.342011,-0.20167 0.40319,-0.23863 0.0865,-0.0522 0.09725,-0.0911 0.04824,-0.17475 -0.04874,-0.0832 -0.03876,-0.12031 0.0441,-0.16367 0.316377,-0.16552 0.322249,-0.17566 0.202514,-0.35069 -0.104543,-0.15281 -0.143725,-0.16734 -0.482568,-0.17861 l -0.368743,-0.0126 -0.283555,-0.28355 c -0.155962,-0.15598 -0.284371,-0.3158 -0.285374,-0.35516 -0.0049,-0.0625 -0.341544,-0.69995 -0.490488,-0.91995 -0.02908,-0.0428 -0.108506,-0.1747 -0.17653,-0.2929 -0.06802,-0.11815 -0.223005,-0.36274 -0.344417,-0.54346 -0.588617,-0.87631 -1.193324,-1.99179 -1.244401,-2.29547 -0.05756,-0.34221 0.03323,-0.50487 0.533808,-0.95649 0.246702,-0.22261 0.501272,-0.43883 0.565715,-0.48055 0.06445,-0.042 0.355865,-0.28114 0.6476,-0.53189 0.733559,-0.63052 1.038683,-1.02155 1.336309,-1.71234 0.131037,-0.30419 0.303419,-0.63892 0.383062,-0.74387 l 0.144817,-0.19081 0.473826,0.4226 c 0.618659,0.55183 1.697607,1.38523 2.427981,1.87547 0.6466,0.43394 0.973162,0.62726 2.663423,1.57678 0.639186,0.35904 1.248565,0.70539 1.354171,0.76974 0.431254,0.2626 0.606217,0.32316 0.819323,0.28366 0.118969,-0.0224 0.230628,-0.0722 0.248126,-0.11147 0.01751,-0.0395 0.111387,-0.20797 0.208649,-0.37481 z m -26.707723,15.94504 c -0.178428,0.0122 -0.324417,0.004 -0.324417,-0.0242 0,-0.0253 0.162949,-0.0526 0.362107,-0.061 0.444877,-0.0186 0.412154,0.0556 -0.03769,0.0854 z m 16.360331,-18.25339 c -0.403653,0.2542 -1.110237,0.48134 -1.444679,0.46429 -0.36457,-0.0187 -0.72737,-0.2153 -0.900812,-0.48865 -0.214939,-0.33887 -0.276288,-0.69188 -0.18119,-1.04274 0.11201,-0.41326 0.194708,-0.50142 0.298115,-0.31771 0.04209,0.0747 0.225953,0.28185 0.408624,0.46024 0.374084,0.36535 0.726606,0.52661 1.240856,0.56758 0.382599,0.0308 0.415376,-0.10611 0.0421,-0.17555 -0.353431,-0.0659 -0.702163,-0.28987 -0.874442,-0.562 -0.175792,-0.27772 -0.209269,-0.39759 -0.216449,-0.77515 l -0.0051,-0.32209 0.50109,-0.50111 c 0.427657,-0.42766 0.536975,-0.51356 0.745908,-0.58621 0.854368,-0.29696 1.629376,0.36971 1.567055,1.34807 -0.04622,0.7254 -0.534551,1.52452 -1.180078,1.93103 z m -10.606807,-4.18149 c -0.01998,-0.0203 -0.02887,-0.068 -0.01977,-0.10651 0.01093,-0.0463 -0.0873,-0.16147 -0.287949,-0.33794 -0.256636,-0.22567 -0.293533,-0.27516 -0.234649,-0.31487 0.05653,-0.0382 0.12689,0.0135 0.368298,0.26933 0.164138,0.17408 0.303668,0.33861 0.310064,0.36575 0.01634,0.0692 -0.092,0.16821 -0.135985,0.12424 z"
       id="path3059"       
       sodipodi:nodetypes="cccssccsssccccccccccccccssscccsccssccsscccsscccssccsscsscssccsccscsssccccscccssccscsssscssssscsscscscccccscccccccccccccccccccsccssscscscccccscccscscscccccsssscsscsscccccscsccsccssscsccsscsscssccsssccccccccccscscssscsccccssscsscccssscsssscssscsssssssccscccscccscccscccccccsccscscscccccccsccccccscccccccccccscccsccccccccccscccccccccccscssscccscscscsscscccccccccscccssccssccssscccccscccccccssscccscscscccccss" />
  </g>
</svg>
