<?xml version="1.0" encoding="UTF-8" standalone="no"?>
<!-- Created with Inkscape (http://www.inkscape.org/) -->

<svg
   xmlns:dc="http://purl.org/dc/elements/1.1/"
   xmlns:cc="http://creativecommons.org/ns#"
   xmlns:rdf="http://www.w3.org/1999/02/22-rdf-syntax-ns#"
   xmlns:svg="http://www.w3.org/2000/svg"
   xmlns="http://www.w3.org/2000/svg"
   xmlns:sodipodi="http://sodipodi.sourceforge.net/DTD/sodipodi-0.dtd"   
   width="220"
   height="235"
   viewBox="0 0 58.208332 62.177085"
   version="1.1"
   id="svg8"   
   sodipodi:docname="cz-805.svg" >
  <defs
     id="defs2" />
  <sodipodi:namedview
     id="base"
     pagecolor="#000000"
     bordercolor="#666666"
     borderopacity="1.0"
     showgrid="false"
     units="px"
     showguides="false" />
  <metadata
     id="metadata5">
    <rdf:RDF>
      <cc:Work
         rdf:about="">
        <dc:format>image/svg+xml</dc:format>
        <dc:type
           rdf:resource="http://purl.org/dc/dcmitype/StillImage" />
        <dc:title></dc:title>
      </cc:Work>
    </rdf:RDF>
  </metadata>
  <g
     id="layer1"
     transform="translate(0,-234.8229)">
    <path
       style="fill:none;stroke:#ffffff;stroke-width:0.4;stroke-opacity:1;stroke-miterlimit:4;stroke-dasharray:none"
       d="m 38.92871,275.41646 c 0.07935,-0.15629 0.171004,-0.29607 0.203698,-0.31069 0.07768,-0.0344 0.368428,-0.62201 0.363895,-0.73519 -0.0032,-0.0482 0.09369,-0.26769 0.212525,-0.48784 0.11882,-0.22017 0.354462,-0.67482 0.523642,-1.01035 0.183528,-0.36393 0.329877,-0.61312 0.362812,-0.61767 0.09844,-0.0136 0.246055,-0.28793 0.220641,-0.40997 -0.01298,-0.0621 -0.002,-0.13539 0.02616,-0.16275 0.02734,-0.0274 0.05524,-0.10368 0.06203,-0.16964 l 0.01233,-0.11996 -0.36589,-0.18485 c -0.201239,-0.10161 -0.48064,-0.24652 -0.620899,-0.32195 -0.140253,-0.0754 -0.379053,-0.20223 -0.530671,-0.28178 -0.151615,-0.0795 -0.397654,-0.21166 -0.546753,-0.29368 -0.149097,-0.082 -0.306198,-0.16445 -0.3491,-0.18314 -0.04292,-0.0188 -0.150244,-0.0752 -0.238533,-0.12566 -0.08826,-0.0504 -0.202392,-0.1128 -0.25357,-0.13867 -0.391468,-0.19779 -1.629305,-0.98625 -2.019426,-1.28626 -0.662222,-0.50924 -1.504696,-1.23988 -2.032295,-1.76257 -0.276053,-0.27349 -0.285957,-0.28851 -0.239446,-0.36282 0.02669,-0.0428 0.110456,-0.17568 0.186164,-0.29565 0.211321,-0.33473 0.204883,-0.36374 -0.162638,-0.73222 -0.300418,-0.30123 -0.429818,-0.493 -0.496686,-0.73615 -0.01389,-0.0509 -0.08653,-0.17869 -0.161434,-0.28471 l -0.13617,-0.19283 0.09519,-0.20757 c 0.09924,-0.21633 0.130716,-0.65908 0.05244,-0.73737 -0.03678,-0.0366 0.02933,-0.11487 0.473648,-0.55918 l 0.516409,-0.51639 -0.06817,-0.0859 c -0.05361,-0.0676 -0.05353,-0.10435 1.92e-4,-0.1721 0.05446,-0.0686 0.09576,-0.0786 0.202929,-0.0495 0.15125,0.0416 0.161943,0.0358 0.376533,-0.19735 0.06714,-0.0729 0.06886,-0.0992 0.0105,-0.15754 -0.113076,-0.11309 0.0106,-0.21787 0.247607,-0.2098 0.148383,0.008 0.171716,-0.01 0.262553,-0.1337 0.123889,-0.17301 0.129196,-0.19376 0.06576,-0.25719 -0.02929,-0.0295 -0.03144,-0.0852 -0.0049,-0.13116 0.03477,-0.0608 0.08357,-0.0768 0.199653,-0.0665 0.109738,0.0102 0.189439,-0.0145 0.279104,-0.0849 0.148539,-0.11673 0.166446,-0.17103 0.102977,-0.31238 -0.06196,-0.13796 -0.02786,-0.16514 0.211809,-0.16865 0.153216,-0.004 0.222093,-0.0261 0.299335,-0.10408 0.120252,-0.1213 0.135712,-0.17798 0.07826,-0.28754 -0.05924,-0.11295 0.04408,-0.20655 0.207665,-0.18812 0.171996,0.0194 0.413539,-0.16057 0.413538,-0.30812 3e-6,-0.0534 -0.0239,-0.10802 -0.05315,-0.12106 -0.0975,-0.0432 0.05722,-0.14015 0.243523,-0.15226 0.263362,-0.0171 0.478917,-0.26893 0.344916,-0.4029 -0.07996,-0.08 0.0071,-0.14388 0.215378,-0.15738 0.269319,-0.0175 0.509184,-0.29467 0.372929,-0.43095 -0.08235,-0.0822 0.02077,-0.15713 0.211091,-0.15309 0.125273,0.005 0.18952,-0.0218 0.269086,-0.10099 0.14664,-0.14664 0.169218,-0.21706 0.09373,-0.29252 -0.107041,-0.10706 -0.05584,-0.15882 0.168276,-0.17022 0.15921,-0.01 0.236092,-0.0353 0.31125,-0.11054 0.128236,-0.1282 0.164767,-0.25155 0.09515,-0.32119 -0.08237,-0.0822 0.02075,-0.1572 0.21109,-0.15312 0.132201,0.005 0.187931,-0.0202 0.283384,-0.11529 0.121491,-0.12145 0.154014,-0.25971 0.07881,-0.33492 -0.06324,-0.0631 0.01694,-0.111 0.212026,-0.12627 0.269543,-0.0215 0.497851,-0.28444 0.363284,-0.41899 -0.03638,-0.0364 -0.03603,-0.074 0.0018,-0.1111 0.03083,-0.0309 0.06558,-0.0467 0.07724,-0.0351 0.01153,0.0121 0.09123,0.01 0.176823,-0.01 0.259987,-0.0494 0.449794,-0.31674 0.31824,-0.44829 -0.0533,-0.0533 0.01707,-0.11906 0.117438,-0.10975 0.09998,0.01 0.279705,-0.0536 0.329693,-0.11546 0.0207,-0.0253 0.07119,-0.0832 0.112266,-0.12763 0.04557,-0.0498 0.06173,-0.10646 0.04149,-0.14598 -0.01825,-0.0356 -0.04492,-0.0868 -0.05923,-0.11357 -0.01841,-0.0345 0.0312,-0.0554 0.169429,-0.0714 0.165989,-0.0194 0.219231,-0.0465 0.353202,-0.18045 0.152875,-0.15286 0.155669,-0.16087 0.09054,-0.25858 -0.06341,-0.0951 -0.05983,-0.15942 0.0071,-0.13353 0.104343,0.0403 0.347015,-0.0529 0.476915,-0.18279 0.126686,-0.12669 0.135452,-0.14939 0.08819,-0.2283 -0.02885,-0.0483 -0.03925,-0.10078 -0.02312,-0.11694 0.01613,-0.0159 0.102173,-0.0394 0.191199,-0.0515 0.203205,-0.0273 0.348261,-0.16489 0.370526,-0.35127 0.01537,-0.12869 0.0049,-0.14756 -0.172641,-0.30358 -0.179455,-0.158 -0.185857,-0.16958 -0.126322,-0.22913 0.08849,-0.0885 0.06445,-0.14365 -0.16942,-0.38882 -0.113379,-0.11884 -0.264376,-0.27764 -0.33554,-0.35283 l -0.129386,-0.1368 0.147496,-0.14663 c 0.2755,-0.27401 0.272191,-0.2741 0.554827,0.01 l 0.247519,0.24751 0.200508,-0.0376 c 0.419369,-0.0786 0.435183,-0.0887 1.012093,-0.63946 0.681899,-0.65106 0.672788,-0.62561 0.341955,-0.9564 -0.131344,-0.13137 -0.243549,-0.25892 -0.249354,-0.28347 -0.005,-0.0255 0.148208,-0.20342 0.363969,-0.4192 0.357488,-0.35748 0.373898,-0.37977 0.361044,-0.49008 -0.007,-0.0637 0.0029,-0.15079 0.02031,-0.19387 0.06462,-0.1497 8.193372,-8.20232 8.399001,-8.32036 0.06668,-0.0384 0.125452,-0.0874 0.130583,-0.10909 0.0049,-0.0221 0.136436,-0.0766 0.291792,-0.12164 0.276839,-0.0805 0.288741,-0.0884 0.598055,-0.39768 0.179032,-0.17904 0.315604,-0.34057 0.315604,-0.37323 0,-0.0397 0.03913,-0.0701 0.124491,-0.0968 0.162421,-0.0513 0.201568,-0.0937 0.243068,-0.26494 0.03213,-0.1326 0.0809,-0.1866 0.744193,-0.82464 0.761325,-0.73227 0.812333,-0.8005 0.730162,-0.97733 -0.06482,-0.13951 -0.230912,-0.11796 -0.400799,0.052 l -0.138896,0.1389 -0.270088,-0.30421 c -0.148855,-0.16768 -0.265503,-0.3273 -0.259877,-0.35559 0.0049,-0.0283 0.0825,-0.12409 0.170861,-0.21287 0.158897,-0.15977 0.159747,-0.16244 0.07867,-0.24356 -0.05524,-0.0551 -0.125074,-0.0768 -0.213889,-0.0662 -0.125679,0.0147 -0.165855,0.0498 -0.854873,0.73872 -0.691774,0.69179 -0.730076,0.72483 -0.886993,0.7653 -0.135488,0.0348 -0.17249,0.0611 -0.212908,0.15053 -0.03016,0.0669 -0.192334,0.24046 -0.422962,0.4531 -0.344463,0.31762 -0.380096,0.36098 -0.450446,0.54802 -0.04203,0.11173 -0.07161,0.22473 -0.06578,0.25113 0.0049,0.0263 -0.05921,0.13778 -0.144616,0.24759 -0.168355,0.21649 -7.053575,7.10807 -7.910287,7.9176 l -0.523196,0.49437 -0.112588,-0.0771 c -0.142983,-0.0978 -0.326688,-0.0306 -0.5643,0.2073 -0.141379,0.14137 -0.171943,0.15804 -0.194969,0.10634 -0.01501,-0.0337 -0.03887,-0.073 -0.053,-0.087 -0.01417,-0.014 0.023,-0.0744 0.08256,-0.13398 0.06711,-0.0671 0.11427,-0.1584 0.124032,-0.24018 0.0146,-0.12213 -1.24e-4,-0.14768 -0.199755,-0.34651 -0.118616,-0.11799 -0.238635,-0.21927 -0.266912,-0.2249 -0.08723,-0.0174 -0.234003,0.0436 -0.32555,0.13507 -0.07,0.0701 -0.108004,0.0774 -0.191539,0.0375 -0.122858,-0.0589 -0.395454,-0.0112 -0.493153,0.0869 -0.03782,0.0379 -0.08915,0.0638 -0.114102,0.0582 -0.02781,-0.01 -0.264854,0.20884 -0.613239,0.55723 l -0.567907,0.5679 0.03254,0.10753 c 0.03211,0.10603 0.02764,0.11243 -0.323785,0.46388 l -0.356334,0.3563 -0.12415,-0.0849 c -0.163917,-0.1121 -0.266692,-0.14056 -0.319026,-0.0882 -0.0352,0.035 -0.08308,0.002 -0.270242,-0.19201 -0.125109,-0.12913 -0.2569,-0.26243 -0.292828,-0.29632 -0.09469,-0.0892 -0.327514,-0.0218 -0.492555,0.14343 -0.10728,0.10713 -0.14904,0.127 -0.208928,0.0995 -0.04118,-0.0192 -0.272327,-0.0431 -0.513677,-0.0531 -0.343071,-0.0146 -0.494848,0.004 -0.69564,0.0775 -0.14125,0.0531 -0.26898,0.11436 -0.283838,0.13634 -0.03251,0.0483 -0.435678,-0.34681 -0.788668,-0.77264 -0.214903,-0.25937 -0.25225,-0.28946 -0.534386,-0.43061 -0.443133,-0.22174 -0.535102,-0.20501 -1.004484,0.18278 -0.182193,0.15049 -0.187674,0.16042 -0.174278,0.31596 0.01186,0.13758 0.04048,0.18742 0.200017,0.34826 0.102394,0.10328 0.395496,0.39762 0.651398,0.6541 0.255874,0.25656 0.568962,0.59897 0.695756,0.76099 0.126794,0.16205 0.334975,0.3982 0.462625,0.52479 0.24964,0.24752 0.257066,0.30151 0.04556,0.3309 -0.09988,0.0136 -0.286673,0.17641 -0.304288,0.26488 -0.0049,0.0285 0.01516,0.10155 0.04621,0.16286 0.05628,0.11117 0.05612,0.11142 -0.0402,0.0822 -0.05316,-0.0159 -0.11602,-0.0104 -0.13969,0.0138 -0.02368,0.0236 -0.08085,0.043 -0.127084,0.043 -0.101031,-1e-5 -0.320963,0.20841 -0.320966,0.30418 0,0.037 0.02196,0.0892 0.04879,0.11598 0.07354,0.0733 0.03655,0.15174 -0.04832,0.10207 -0.0408,-0.0239 -0.09645,-0.0216 -0.123565,0.01 -0.02715,0.0272 -0.08391,0.0461 -0.12623,0.0422 -0.04944,-0.008 -0.126522,0.0425 -0.215977,0.13192 -0.128797,0.1288 -0.135206,0.14763 -0.08675,0.25483 0.05424,0.11999 0.01229,0.21929 -0.06146,0.14551 -0.02311,-0.0231 -0.06586,-0.0182 -0.09505,0.0114 -0.02917,0.0293 -0.08007,0.041 -0.113127,0.0263 -0.04666,-0.0211 -0.09423,0.0116 -0.212833,0.14281 -0.12894,0.14312 -0.145398,0.1797 -0.105626,0.23452 0.107614,0.14831 0.103568,0.1678 -0.03494,0.16812 -0.228514,5.9e-4 -0.277189,0.014 -0.380441,0.10643 -0.216837,0.19386 -0.226481,0.21543 -0.136541,0.30537 0.06536,0.0653 0.0716,0.0965 0.02801,0.14005 -0.03115,0.0312 -0.07471,0.0374 -0.09805,0.014 -0.02309,-0.0233 -0.05939,-0.0245 -0.0806,-0.006 -0.02122,0.0217 -0.0726,0.0351 -0.114134,0.0317 -0.0934,-0.01 -0.281713,0.11625 -0.337489,0.2239 -0.02284,0.044 -0.01766,0.12955 0.01148,0.18993 0.05504,0.11394 0.0051,0.21997 -0.06758,0.14634 -0.02311,-0.0231 -0.05268,-0.0316 -0.06576,-0.0184 -0.01304,0.013 -0.07802,0.0276 -0.144358,0.0324 -0.121371,0.01 -0.309536,0.15805 -0.333242,0.26463 -0.0058,0.0296 0.01394,0.0968 0.04557,0.14968 0.05165,0.0861 0.0149,0.20935 -0.04469,0.14981 -0.04575,-0.0458 -0.385075,0.0415 -0.46239,0.11858 -0.107378,0.10742 -0.138053,0.23343 -0.07272,0.29877 0.08054,0.0806 -0.01442,0.15035 -0.22234,0.16346 -0.14101,0.01 -0.204596,0.0376 -0.303141,0.136 -0.112833,0.1128 -0.119729,0.13568 -0.07237,0.24042 0.06649,0.14708 0.0081,0.2044 -0.210076,0.20685 -0.151913,0.003 -0.18866,0.0198 -0.298342,0.14424 -0.108761,0.12379 -0.1181,0.15359 -0.07155,0.22862 0.07854,0.12654 -0.002,0.20715 -0.194107,0.19623 -0.153297,-0.01 -0.178216,0.006 -0.308372,0.1493 -0.132512,0.1486 -0.137227,0.16426 -0.07344,0.24463 0.09287,0.11709 -0.0083,0.21038 -0.208124,0.19179 -0.130088,-0.0123 -0.170981,0.009 -0.288399,0.12268 -0.126294,0.12628 -0.132794,0.14569 -0.08451,0.25256 0.06748,0.14934 -0.0052,0.22303 -0.205833,0.20582 -0.132988,-0.0119 -0.17397,0.01 -0.291354,0.12329 -0.112988,0.11297 -0.131536,0.15332 -0.1073,0.2333 0.01611,0.0532 0.04088,0.0978 0.05506,0.0991 0.01416,0.002 -0.0037,0.0373 -0.03648,0.0802 -0.04616,0.0579 -0.09878,0.0702 -0.203931,0.0483 -0.132902,-0.0281 -0.150742,-0.02 -0.286818,0.13112 -0.130199,0.14424 -0.139583,0.16962 -0.09138,0.24708 0.0794,0.12761 -0.01225,0.22045 -0.193856,0.19643 -0.134927,-0.0178 -0.166456,-0.007 -0.30129,0.13066 -0.144911,0.14492 -0.148056,0.15437 -0.08335,0.25143 0.09095,0.13648 -0.0049,0.23095 -0.203811,0.20111 -0.139227,-0.0212 -0.157961,-0.012 -0.299423,0.14538 -0.142622,0.15836 -0.147163,0.1723 -0.08274,0.25349 0.05552,0.0698 0.05421,0.0999 -0.0067,0.16125 -0.05703,0.0571 -0.105276,0.0638 -0.19848,0.0277 -0.1186,-0.0458 -0.128612,-0.0415 -0.271829,0.11771 -0.13392,0.1489 -0.143348,0.17395 -0.09491,0.25161 0.08493,0.13634 -0.03824,0.26002 -0.213938,0.21482 -0.13116,-0.0337 -0.145571,-0.0274 -0.284298,0.12699 -0.137467,0.1529 -0.142093,0.16764 -0.07798,0.24841 0.05693,0.0719 0.05476,0.0993 -0.01329,0.16738 -0.06246,0.0626 -0.111671,0.0719 -0.21102,0.0404 -0.124224,-0.0399 -0.135801,-0.0341 -0.280865,0.12675 -0.143056,0.15888 -0.147584,0.17274 -0.08311,0.25396 0.05676,0.0717 0.05468,0.0994 -0.01249,0.16657 -0.06035,0.0606 -0.109333,0.0707 -0.194619,0.0407 -0.105549,-0.0372 -0.126346,-0.028 -0.28167,0.12756 -0.162135,0.16215 -0.165443,0.17057 -0.09954,0.2536 0.0574,0.0724 0.05497,0.0992 -0.01546,0.16956 -0.06711,0.0669 -0.105299,0.0731 -0.193223,0.0309 -0.197645,-0.0953 -0.501939,0.19717 -0.373516,0.35922 0.05434,0.0685 0.05133,0.10056 -0.01723,0.1837 -0.0729,0.0885 -0.09716,0.0938 -0.199067,0.0447 -0.127023,-0.0612 -0.22335,-0.0232 -0.360426,0.1429 -0.07237,0.0876 -0.07514,0.11747 -0.01769,0.18986 0.06148,0.0774 0.05739,0.0967 -0.04203,0.19613 -0.0891,0.0891 -0.120258,0.1001 -0.162797,0.0577 -0.08405,-0.0839 -0.188442,-0.0504 -0.325043,0.10483 -0.116292,0.13211 -0.121056,0.15086 -0.05844,0.2298 0.06148,0.0776 0.05739,0.0966 -0.04203,0.19604 -0.08742,0.0875 -0.120619,0.0998 -0.160623,0.0598 -0.083,-0.0829 -0.177256,-0.0579 -0.320066,0.0847 -0.127777,0.12776 -0.131494,0.14066 -0.06793,0.23604 0.06001,0.09 0.0562,0.11187 -0.03515,0.20325 -0.08809,0.088 -0.118637,0.095 -0.218185,0.0503 -0.10783,-0.0489 -0.125578,-0.0426 -0.25897,0.0908 -0.136707,0.13671 -0.140158,0.1478 -0.07595,0.24408 0.0606,0.0908 0.05667,0.1114 -0.03948,0.20756 -0.09555,0.0955 -0.115656,0.0996 -0.192599,0.0386 -0.08304,-0.0659 -0.09146,-0.0627 -0.253992,0.0999 -0.162538,0.16255 -0.165838,0.17091 -0.09991,0.254 0.06149,0.0775 0.05738,0.0966 -0.04204,0.19609 -0.09916,0.0992 -0.117282,0.10311 -0.180928,0.0396 -0.08706,-0.087 -0.247473,-0.0271 -0.357593,0.13405 -0.06016,0.0879 -0.06194,0.12928 -0.0089,0.20875 0.05952,0.0892 0.05529,0.10987 -0.0425,0.20769 -0.09669,0.0967 -0.116092,0.10099 -0.177603,0.0396 -0.07908,-0.0792 -0.198466,-0.0561 -0.313879,0.0606 -0.102701,0.10377 -0.111083,0.16148 -0.0405,0.27779 0.05135,0.0845 0.04509,0.10904 -0.05332,0.20743 -0.104325,0.10431 -0.116755,0.10631 -0.192571,0.0306 -0.08779,-0.0877 -0.154901,-0.0751 -0.283141,0.0531 -0.128948,0.12892 -0.140917,0.19523 -0.05143,0.28475 0.07988,0.0798 0.07839,0.0863 -0.04477,0.19284 -0.09973,0.0862 -0.141847,0.10026 -0.193722,0.0646 -0.110616,-0.0763 -0.188076,-0.0641 -0.299812,0.0477 -0.117336,0.11735 -0.137561,0.25182 -0.05091,0.33848 0.04724,0.0474 0.03846,0.0703 -0.05803,0.15205 -0.09511,0.0807 -0.126838,0.0865 -0.193613,0.0359 -0.100923,-0.0762 -0.15938,-0.0627 -0.288898,0.0654 -0.114773,0.11393 -0.133484,0.24871 -0.04647,0.33571 0.04048,0.0406 0.03925,0.0648 -0.0049,0.0844 -0.03371,0.0149 -0.09094,0.0569 -0.127202,0.0932 -0.05103,0.0513 -0.08523,0.0507 -0.151788,-0.004 -0.07975,-0.0633 -0.09671,-0.0586 -0.237364,0.0666 -0.144182,0.12831 -0.14905,0.14062 -0.101443,0.25553 0.04337,0.10472 0.03582,0.13491 -0.05681,0.22756 -0.09567,0.0956 -0.115737,0.0997 -0.192702,0.0388 -0.08021,-0.0636 -0.09629,-0.059 -0.242419,0.0713 -0.150988,0.13464 -0.154547,0.14358 -0.100787,0.25488 0.04639,0.096 0.0408,0.1303 -0.03346,0.20454 -0.07335,0.0734 -0.109706,0.08 -0.204935,0.037 -0.107505,-0.0488 -0.125831,-0.0424 -0.256744,0.0886 -0.126205,0.1262 -0.136758,0.15292 -0.100691,0.25477 0.02689,0.0758 0.01767,0.14227 -0.02768,0.19948 -0.06545,0.0826 -0.07309,0.0808 -0.206216,-0.0459 -0.07602,-0.0724 -0.147071,-0.14432 -0.157887,-0.15981 -0.06804,-0.0977 -0.649035,-0.17159 -0.728125,-0.0924 -0.01781,0.0178 -0.125729,0.0349 -0.239845,0.0385 -0.178635,0.009 -0.221235,0.0227 -0.306252,0.12563 -0.115497,0.13986 -0.0287,0.2015 -0.753979,-0.53534 l -0.481673,-0.48928 -0.326653,-0.0631 c -0.4225,-0.0814 -0.550898,-0.0593 -0.738079,0.12808 -0.13595,0.136 -0.146432,0.1643 -0.146435,0.39571 2e-6,0.21966 0.01376,0.26116 0.115886,0.34956 0.08798,0.0761 0.121543,0.14233 0.139398,0.27495 0.02722,0.20223 0.06152,0.24721 0.193463,0.25383 0.0952,0.008 0.121503,0.0395 0.146313,0.19127 0.0107,0.0654 0.04444,0.0842 0.187435,0.10345 0.159329,0.0216 0.202653,0.0496 0.501392,0.32333 l 0.326994,0.29981 0.01143,0.17593 c 0.01136,0.17468 0.10662,0.38838 0.227168,0.50952 0.05199,0.0521 0.04746,0.0786 -0.02597,0.15202 -0.09348,0.0935 -0.124615,0.25802 -0.0609,0.32169 0.02319,0.0232 0.0049,0.0701 -0.04637,0.12176 -0.06226,0.0621 -0.09712,0.0711 -0.134469,0.0336 -0.09832,-0.0983 -0.17587,-0.0596 -0.471793,0.23645 -0.161042,0.16105 -0.306778,0.28221 -0.332223,0.27619 -0.02495,-0.01 -0.08212,0.0259 -0.127067,0.0711 -0.06484,0.0648 -0.07557,0.13447 -0.05188,0.337 0.02957,0.25264 0.07378,0.33029 0.30813,0.54128 0.07061,0.0635 0.07069,0.0834 0.0012,0.15335 -0.149542,0.14956 -0.134668,0.42889 0.03494,0.65591 l 0.09176,0.12287 -0.182981,0.19247 c -0.100636,0.10584 -0.182958,0.22015 -0.182939,0.25392 2.1e-5,0.0337 0.09418,0.15811 0.209235,0.27618 l 0.209208,0.2147 -0.169869,0.20015 c -0.09345,0.1101 -0.425158,0.44914 -0.737191,0.75346 -0.579807,0.56546 -1.168433,1.20368 -1.545664,1.67599 -0.116315,0.14561 -0.324125,0.40425 -0.461801,0.57472 -0.236373,0.29267 -0.550458,0.69294 -0.62823,0.80052 -0.0194,0.027 -0.08972,0.0992 -0.156275,0.16098 -0.119143,0.11047 -0.123115,0.11061 -0.257749,0.0112 -0.4346387,-0.32225 -0.8756594,-0.53795 -0.9929858,-0.48571 -0.03024,0.0134 -0.3593574,0.35769 -0.7314502,0.7648 -0.8936235,0.97798 -1.6667099,1.8235 -2.095014,2.29126 -0.1914723,0.20915 -0.4744471,0.5187 -0.6288336,0.68785 -0.1543809,0.1692 -0.4694877,0.50961 -0.7002292,0.75657 -0.2307449,0.24686 -0.4890882,0.5306 -0.5741024,0.63049 -0.085016,0.0999 -0.5137723,0.5662 -0.9527938,1.03623 -0.4390213,0.47006 -0.8258795,0.90258 -0.8596862,0.96124 -0.038161,0.066 -0.045521,0.15306 -0.01941,0.22907 0.042233,0.12291 0.2942444,0.40055 0.5847379,0.64424 l 0.1523491,0.12781 -0.2014139,0.24518 c -0.1107783,0.13483 -0.4206888,0.47625 -0.68869,0.75865 -0.4283433,0.45135 -0.4927565,0.53302 -0.5326143,0.67516 -0.024941,0.089 -0.03587,0.20272 -0.024296,0.25276 0.037081,0.16045 0.2453338,0.38797 0.4501096,0.49182 0.1371176,0.0696 0.1953538,0.11806 0.2135083,0.17804 0.036385,0.12016 0.1543764,0.22478 0.2839726,0.25176 0.087545,0.0184 0.145768,0.0646 0.2562587,0.20412 0.1042156,0.13159 0.1755933,0.19089 0.2633115,0.21866 0.084256,0.0268 0.1654169,0.0922 0.2706849,0.21849 0.101556,0.12177 0.1756318,0.18265 0.2282453,0.18755 0.049711,0.008 0.153616,0.0859 0.2871638,0.22477 0.1234689,0.12833 0.2384293,0.22023 0.2803996,0.22413 0.045633,0.007 0.1137733,0.0624 0.1900817,0.16196 0.080086,0.10455 0.1738037,0.18237 0.2868629,0.2381 0.1083243,0.0534 0.2063343,0.13341 0.2761665,0.22546 0.078058,0.10285 0.1510314,0.15789 0.2616867,0.19731 0.1245512,0.0442 0.1661247,0.0785 0.2208351,0.18176 0.06791,0.12805 0.1621524,0.19685 0.3772921,0.27542 0.093045,0.034 0.1191001,0.061 0.1462698,0.15053 0.027598,0.0912 0.0586,0.12245 0.1879082,0.1898 0.085151,0.0443 0.2382751,0.16907 0.3403003,0.27712 0.1020298,0.10808 0.2128182,0.19899 0.2462122,0.20211 0.057345,0.009 0.3101654,0.21263 0.7752243,0.63568 0.1129605,0.10274 0.2576147,0.20855 0.3214585,0.23512 0.088994,0.037 0.1268353,0.0742 0.1621503,0.15954 0.037099,0.0895 0.083088,0.13003 0.2362963,0.20769 0.1086364,0.0551 0.2165548,0.13763 0.251612,0.19241 0.08574,0.13404 0.3140646,0.25632 0.4694515,0.25149 0.1256287,-0.007 0.1497952,-0.0233 0.612618,-0.48847 0.5256577,-0.52842 0.6057437,-0.64629 0.6377277,-0.93838 0.02311,-0.21084 -0.0049,-0.26804 -0.284083,-0.58709 -0.1106957,-0.12637 -0.2328777,-0.27377 -0.2715107,-0.32761 -0.03864,-0.0537 -0.133566,-0.1732 -0.21096,-0.26528 -0.5361201,-0.63793 -0.7355467,-0.9727 -0.8267989,-1.38798 -0.084134,-0.38286 0.01918,-0.95782 0.1488243,-0.82822 0.056784,0.0569 0.2229758,0.0364 0.3661482,-0.0446 0.1649341,-0.0935 0.2174754,-0.2206 0.3382374,-0.81783 0.05095,-0.25194 0.101102,-0.46654 0.111463,-0.47691 0.01035,-0.0109 0.03599,-0.11163 0.05693,-0.22504 0.02096,-0.11339 0.04553,-0.21361 0.05457,-0.22262 0.009,-0.01 0.05505,-0.18114 0.102223,-0.38237 0.04718,-0.20124 0.0949,-0.37504 0.106051,-0.38621 0.01115,-0.0117 0.09981,-0.31762 0.1970057,-0.68102 0.172768,-0.64592 0.181559,-0.66656 0.392705,-0.92097 0.118789,-0.14316 0.393908,-0.44002 0.611375,-0.65966 0.217465,-0.21964 0.417655,-0.44811 0.444867,-0.50763 0.06225,-0.13619 0.05192,-0.46997 -0.01665,-0.53857 -0.0367,-0.0366 -0.0043,-0.25113 0.116109,-0.73833 0.09233,-0.37761 0.183391,-0.73409 0.202381,-0.79209 0.02397,-0.0732 0.259484,-0.34073 0.769038,-0.87338 0.689434,-0.72074 0.749965,-0.77623 0.986549,-0.90423 0.228661,-0.12373 0.739322,-0.2533 1.212941,-0.30778 0.101485,-0.012 0.204012,-0.0717 0.406505,-0.23779 0.282947,-0.2322 0.556814,-0.45338 1.156172,-0.93368 0.196728,-0.15764 0.481592,-0.41488 0.633026,-0.57161 0.63037,-0.65237 1.113767,-1.19045 1.140128,-1.26912 0.01747,-0.052 0.386169,-0.43612 0.973011,-1.01351 l 0.944888,-0.92955 0.08637,0.0536 c 0.06537,0.0407 0.126308,0.033 0.250472,-0.0323 0.458653,-0.24006 0.905757,-0.30778 1.264002,-0.1916 0.424284,0.13765 0.704872,0.35754 0.864851,0.67793 0.117446,0.23521 0.178694,0.52998 0.134122,0.64556 -0.0191,0.0496 -0.0234,0.10137 -0.0096,0.11517 0.01386,0.0138 0.02595,0.0827 0.02686,0.15291 0.0049,0.34084 0.009,0.38725 0.04072,0.41899 0.01874,0.0189 0.01514,0.0528 -0.0078,0.076 -0.0231,0.0232 -0.02771,0.0563 -0.01022,0.0737 0.01748,0.0176 0.03154,0.0882 0.03123,0.15728 -3.29e-4,0.0691 0.0098,0.23677 0.02254,0.37275 0.01273,0.13599 0.01986,0.30066 0.01585,0.36604 -0.0049,0.0652 0.0034,0.12805 0.01342,0.13942 0.0221,0.0223 0.05175,0.38939 0.04797,0.59426 -0.0021,0.0681 0.009,0.13509 0.0228,0.14886 0.01379,0.0137 0.01558,0.0659 0.0049,0.11607 -0.01158,0.0503 0.0049,0.11614 0.03477,0.1468 0.03141,0.0316 0.03704,0.0745 0.01289,0.0987 -0.0236,0.0236 -0.02906,0.0732 -0.01219,0.1102 0.01692,0.0372 0.02431,0.10668 0.01648,0.15483 -0.0076,0.0481 0.0049,0.10504 0.02477,0.1265 0.02149,0.0218 0.03257,0.0658 0.02465,0.0982 -0.03299,0.13575 0.364789,1.39395 0.446814,1.41329 0.02167,0.009 0.08209,0.0892 0.134344,0.18699 0.116536,0.21804 0.24906,0.35607 0.331796,0.34568 0.07138,-0.01 0.352626,-0.0992 0.49844,-0.15989 0.09589,-0.0401 0.180271,-0.0818 0.449546,-0.22283 0.129298,-0.0677 1.55854,-0.90805 1.817116,-1.06836 0.132971,-0.0824 0.995046,-0.55832 1.230003,-0.67895 0.06255,-0.0323 0.178397,-0.12309 0.257497,-0.20219 0.141055,-0.14106 0.142347,-0.14598 0.06731,-0.25569 -0.04209,-0.0617 -0.140286,-0.14605 -0.218255,-0.18793 -0.07798,-0.0417 -0.200551,-0.11185 -0.272414,-0.1556 -0.07188,-0.0438 -0.189869,-0.11475 -0.262248,-0.15792 -0.279575,-0.16683 -0.591168,-0.38189 -0.646729,-0.4464 -0.182759,-0.21211 -0.282201,-0.41463 -0.419597,-0.85454 -0.08435,-0.26999 -0.207182,-0.66408 -0.272969,-0.87561 -0.06576,-0.21152 -0.210978,-0.6715 -0.32266,-1.02203 -0.238781,-0.74948 -0.266107,-0.90345 -0.197791,-1.11407 0.103902,-0.32033 0.246484,-0.4543 0.856852,-0.80543 0.272467,-0.15675 0.335725,-0.21523 1.489447,-1.37704 1.195374,-1.20377 1.205489,-1.21299 1.281206,-1.17379 0.04197,0.0219 0.110708,0.0192 0.152735,-0.01 0.100466,-0.0604 1.121903,-1.13277 1.214889,-1.27549 0.06892,-0.1058 0.07553,-0.1069 0.146491,-0.0245 0.087,0.10096 0.557391,0.50951 0.955538,0.82985 0.875274,0.70434 1.828747,1.3701 2.589856,1.80842 0.06844,0.0395 0.2834,0.16488 0.477693,0.27871 0.19429,0.1139 0.603271,0.33521 0.908849,0.49188 0.518231,0.2657 1.226482,0.63825 1.780744,0.93667 0.130202,0.0701 0.302472,0.16258 0.382826,0.20549 0.176506,0.0942 0.323882,0.10238 0.549556,0.0305 0.222053,-0.0711 0.285193,-0.13677 0.458212,-0.4776 z m -12.716647,-0.71508 c -0.0697,0.0382 -0.236953,0.13084 -0.371711,0.20593 -0.463864,0.25857 -0.579719,0.17959 -0.817286,-0.55673 -0.131521,-0.40761 -0.160534,-0.5706 -0.15773,-0.88573 l 0.0049,-0.38622 0.09983,0.0447 c 0.08417,0.0378 0.117263,0.0276 0.210933,-0.0661 0.0611,-0.0611 0.136824,-0.10524 0.168267,-0.0982 0.03144,0.01 0.156986,0.12048 0.278982,0.25198 0.323887,0.3492 0.647987,0.50997 1.059969,0.52583 0.170505,0.01 0.375001,-0.0115 0.454429,-0.0396 0.07944,-0.0286 0.150126,-0.0456 0.157109,-0.039 0.02572,0.0255 -0.963835,0.97591 -1.086222,1.04291 z m 1.260623,-1.30617 c 0.0038,-0.0651 -0.02727,-0.14991 -0.06575,-0.18837 -0.056,-0.0561 -0.105141,-0.0559 -0.246828,5.8e-4 -0.366054,0.14642 -0.7785,0.10195 -1.072828,-0.11562 -0.175369,-0.12963 -0.356837,-0.43265 -0.381193,-0.63658 l -0.01589,-0.133 0.713727,-0.71375 c 0.934246,-0.93426 0.935487,-0.93465 1.370176,-0.49995 0.242381,0.2424 0.242893,0.24339 0.399162,0.73914 0.08607,0.27301 0.153965,0.5682 0.150903,0.65603 -0.0049,0.15961 -0.0049,0.15968 -0.430613,0.58468 l -0.425057,0.42508 z"
       id="path4261"       
       sodipodi:nodetypes="cccscccscccccccsccccccccccsscccccscsscccccccccccscscsscsscsscssccsccccccsccscscccsccccsccsscscccccssccccsccccscscccccccccscsscccscscsccsccscccccccccccccscccccsccscscscsscccccsssscccsscccssscsccccccccsccscccccccsccccsccccccscccscscsscccccssccssscscscscscssccssccssssccsscccscscccscccscsccccssccccsccccccccccssssscsccsccccccscccccccccccsccsccccccscccccccccccccccccccccccccccccssccscscsccccsccscccccccccccscscssscccscscssccsccccccccscccccccsccccccssscsccccccsccccscsccsccscsccssccscc" />
  </g>
</svg>
