<?xml version="1.0" encoding="UTF-8" standalone="no"?>
<!-- Created with Inkscape (http://www.inkscape.org/) -->

<svg
   xmlns:dc="http://purl.org/dc/elements/1.1/"
   xmlns:cc="http://creativecommons.org/ns#"
   xmlns:rdf="http://www.w3.org/1999/02/22-rdf-syntax-ns#"
   xmlns:svg="http://www.w3.org/2000/svg"
   xmlns="http://www.w3.org/2000/svg"
   xmlns:sodipodi="http://sodipodi.sourceforge.net/DTD/sodipodi-0.dtd"   
   width="220"
   height="235"
   viewBox="0 0 58.208332 62.177085"
   version="1.1"
   id="svg8"   
   sodipodi:docname="galil.svg" >
  <defs
     id="defs2" />
  <sodipodi:namedview
     id="base"
     pagecolor="#000000"
     bordercolor="#666666"
     borderopacity="1.0"
     showgrid="false"
     units="px"
     showguides="false" />
  <metadata
     id="metadata5">
    <rdf:RDF>
      <cc:Work
         rdf:about="">
        <dc:format>image/svg+xml</dc:format>
        <dc:type
           rdf:resource="http://purl.org/dc/dcmitype/StillImage" />
        <dc:title></dc:title>
      </cc:Work>
    </rdf:RDF>
  </metadata>
  <g
     id="layer1"
     transform="translate(0,-234.8229)">
    <path
       style="fill:none;stroke:#ffffff;stroke-width:0.396;stroke-miterlimit:4;stroke-dasharray:none;stroke-opacity:1"
       d="m 38.123372,275.88168 c -3.116045,-1.09585 -6.568376,-2.91032 -9.320349,-4.89862 -0.868152,-0.62726 -1.169608,-0.6331 -0.550414,-0.011 0.567881,0.57082 1.00084,1.2062 0.846721,1.24259 -0.07262,0.0173 -0.31888,-0.15573 -0.547291,-0.38417 -0.313791,-0.31378 -0.450922,-0.37965 -0.56108,-0.26949 -0.08018,0.0801 -0.161867,0.0778 -0.181506,-0.01 -0.01966,-0.0832 -0.0758,-0.11126 -0.124752,-0.0624 -0.114939,0.11493 -0.01559,0.32956 0.434432,0.93836 0.39245,0.53087 0.438844,0.9137 0.127536,1.05237 -0.14872,0.0661 -0.275636,-0.0215 -0.544512,-0.3756 l -0.350594,-0.462 -0.659167,0.81085 c -0.796347,0.97949 -1.250865,1.32092 -1.735657,1.30374 -0.365169,-0.0131 -0.365251,-0.0131 -0.405697,0.6099 -0.0349,0.53728 0.07619,0.84556 0.808342,2.2436 0.466842,0.89138 0.905979,1.75688 0.975859,1.92325 0.162541,0.38709 0.802709,1.028 1.304662,1.30623 0.357639,0.19821 0.372696,0.23386 0.180005,0.42658 -0.261458,0.26145 -1.246605,0.81028 -2.385634,1.32903 -0.711716,0.32418 -0.904522,0.35789 -1.074294,0.18817 -0.113796,-0.11381 -0.208317,-0.28548 -0.210035,-0.38146 -0.0034,-0.0959 -0.477239,-1.13123 -1.056701,-2.30045 -1.048793,-2.11627 -1.595885,-2.88694 -2.369299,-3.33756 -0.425557,-0.24789 -1.060058,0.1855 -2.193908,1.49873 -0.500461,0.57959 -1.628178,1.80846 -2.50603,2.7307 -0.877837,0.92234 -2.072646,2.23228 -2.6551,2.9111 -1.252454,1.45962 -1.488774,2.01418 -1.683775,3.95104 -0.06953,0.69059 -0.151905,1.28151 -0.183055,1.31316 -0.03116,0.0319 -0.06959,0.34363 -0.08543,0.69324 -0.01581,0.34969 -0.06288,0.89176 -0.104565,1.20465 -0.04169,0.31292 -0.09242,0.74236 -0.112709,0.95433 -0.0203,0.212 -0.0767,0.67767 -0.125338,1.03491 -0.04862,0.35727 -0.04678,0.69509 0.0047,0.75072 0.05091,0.0555 0.05184,0.41244 0.0023,0.7928 -0.103526,0.7912 -0.542806,1.35662 -0.953386,1.22722 -0.136891,-0.0432 -0.8437909,-0.6197 -1.5709081,-1.28126 -1.2288309,-1.11806 -2.015373,-1.74677 -2.8583942,-2.28481 -0.1883653,-0.12027 -0.7919187,-0.50473 -1.3412341,-0.8544 -1.5869304,-1.0102 -1.59304,-0.77148 0.06214,-2.42703 0.7842542,-0.78447 2.0126464,-2.10196 2.7297566,-2.92787 1.9411407,-2.23531 6.5417628,-7.30021 7.5176178,-8.2761 l 0.853632,-0.85365 -0.279648,-0.22577 c -0.221002,-0.17847 -0.246927,-0.29542 -0.123618,-0.55781 0.241752,-0.51447 0.729065,-0.74669 0.999506,-0.47626 0.36084,0.36084 0.689217,0.0822 0.720625,-0.61144 l 0.02691,-0.59461 -0.301382,0.30135 c -0.286936,0.28692 -0.514225,0.28154 -0.445262,-0.011 0.01768,-0.0749 0.178541,-0.32453 0.357527,-0.55497 0.241436,-0.31087 0.325432,-0.61784 0.32543,-1.18974 1e-6,-0.71429 -0.03728,-0.80802 -0.50947,-1.28016 -0.678337,-0.67837 -0.854942,-1.25587 -0.494308,-1.61651 0.214307,-0.21433 0.520433,-0.24676 0.746802,-0.0792 0.176607,0.13073 0.276541,0.0743 0.739746,-0.41677 0.535368,-0.56768 0.535737,-0.56782 1.049928,-0.3808 0.282905,0.1029 0.567813,0.2405 0.633126,0.30579 0.09472,0.0946 0.774713,-0.55837 3.362711,-3.23 1.784162,-1.84183 3.67743,-3.78535 4.207228,-4.31897 l 0.963202,-0.97028 -0.42442,-0.30171 -0.424422,-0.30176 0.312343,-0.40171 c 0.409122,-0.52623 0.514314,-0.54097 0.821143,-0.11526 l 0.256691,0.35612 1.193158,-1.08326 c 0.65623,-0.5958 2.421426,-2.37986 3.922589,-3.96466 1.501198,-1.58475 3.999593,-4.16886 5.551989,-5.74246 1.552399,-1.57361 2.838232,-2.92757 2.857409,-3.00877 0.01918,-0.0812 -0.17546,-0.31541 -0.432529,-0.52038 -0.381461,-0.30421 -0.44564,-0.40991 -0.349059,-0.57483 0.0728,-0.12435 0.0025,-0.38602 -0.185801,-0.67976 -0.294925,-0.46314 -0.292836,-0.48892 0.06899,-0.85075 0.340276,-0.34027 0.402596,-0.35318 0.707607,-0.14651 0.183958,0.12465 0.400352,0.36474 0.48087,0.53353 0.209988,0.44016 0.724737,0.72979 1.005238,0.56562 0.360858,-0.21123 0.872404,0.44588 0.614333,0.7892 -0.148475,0.19751 -0.130032,0.29033 0.0928,0.46688 0.573367,0.45426 0.7418,0.32168 4.933035,-3.88227 2.737756,-2.74601 3.80047,-3.87184 3.771346,-3.9952 -0.02514,-0.1064 0.339229,-0.57314 0.957315,-1.22627 l 0.997849,-1.05455 0.548074,0.54805 0.54807,0.54808 -0.955966,1.03784 c -0.628733,0.68263 -1.011946,1.02474 -1.119462,0.99934 -0.155295,-0.0366 -1.111798,0.93869 -4.538436,4.62792 -0.544874,0.58662 -1.277936,1.35797 -1.629004,1.71413 l -0.638311,0.64746 0.320342,0.21358 c 0.194926,0.12995 0.343263,0.34346 0.378804,0.5454 0.04875,0.27681 0.09201,0.32335 0.260764,0.28078 0.252737,-0.0639 0.967579,0.27994 1.324689,0.63705 0.292425,0.29237 0.237611,0.59914 -0.134659,0.75367 -0.15698,0.0651 -0.207772,0.0443 -0.158073,-0.0645 0.117974,-0.25867 -0.174456,-0.44278 -0.378752,-0.23848 -0.105611,0.10558 -0.124685,0.24938 -0.0438,0.33022 0.233605,0.23359 0.006,0.5168 -0.479702,0.59858 -0.396281,0.0667 -0.629642,0.245 -1.832492,1.40038 -1.286767,1.236 -3.794858,3.86045 -7.153746,7.48564 -1.379442,1.48885 -1.41975,1.54609 -1.304629,1.85394 0.06865,0.18358 0.02861,0.45863 -0.09497,0.65173 -0.117584,0.18378 -0.179906,0.41022 -0.138504,0.50317 0.05813,0.13048 -0.0246,0.22562 -0.362982,0.41763 -0.308796,0.17516 -0.493604,0.36661 -0.625613,0.64813 -0.134154,0.28615 -0.289303,0.44541 -0.546517,0.5609 -0.197688,0.0887 -0.514704,0.37165 -0.705086,0.62922 -0.212016,0.28681 -0.498758,0.53129 -0.740827,0.63151 -0.304624,0.1262 -0.430196,0.24876 -0.549178,0.53604 -0.108975,0.2631 -0.255953,0.41808 -0.50068,0.52799 -0.330215,0.1483 -0.376933,0.12502 -1.000025,-0.49808 -0.577696,-0.57769 -0.642509,-0.69026 -0.558004,-0.96941 0.08169,-0.26987 0.144106,-0.306 0.428923,-0.2485 0.212211,0.0431 0.431104,-0.0305 0.602456,-0.20181 0.244561,-0.24456 0.239657,-0.29863 -0.05388,-0.59215 -0.370684,-0.37069 -0.267682,-0.4615 -1.601413,1.41176 -1.053431,1.47955 -1.025837,1.38481 -0.543696,1.86694 1.873681,1.87366 5.576251,4.01629 9.076289,5.2523 1.361867,0.4809 1.344189,0.45328 0.981119,1.53207 -0.259065,0.76983 -0.805975,2.60423 -0.971905,3.25992 l -0.136985,0.54132 z m -28.122828,16.24174 c 0.04842,-0.38277 0.08481,-0.74118 0.08089,-0.79657 -0.004,-0.0553 0.08413,-0.93511 0.195697,-1.95512 0.306153,-2.79892 0.628499,-4.04875 1.294175,-5.01799 0.242254,-0.35273 0.249072,-0.45231 0.04496,-0.6564 l -0.240605,-0.24064 -0.715258,0.82774 c -0.393393,0.45525 -1.0735697,1.22687 -1.511514,1.71474 -0.4379409,0.4878 -1.2713352,1.42186 -1.8519845,2.07556 -0.5806455,0.65377 -1.1052107,1.21785 -1.1657024,1.25361 -0.060487,0.0356 -0.1865541,0.19294 -0.2801795,0.34925 -0.1497615,0.25011 -0.126701,0.31266 0.1920419,0.52091 0.1992329,0.13009 0.8209279,0.57329 1.3815491,0.98482 1.6246485,1.19256 2.3994145,1.72441 2.4452659,1.67858 0.023449,-0.0234 0.082253,-0.35579 0.1306705,-0.7385 z m 17.053843,-19.67228 c -0.02347,-0.1051 -0.06053,-0.21534 -0.08235,-0.24492 -0.02185,-0.0297 -0.237391,-0.319 -0.479046,-0.64315 -0.241643,-0.32408 -0.44961,-0.68626 -0.462142,-0.8048 -0.01253,-0.11855 -0.07663,-0.21548 -0.142487,-0.21549 -0.137344,0 -1.193716,1.09957 -1.366518,1.42241 -0.176959,0.33064 0.205768,1.13799 0.73015,1.54026 0.247402,0.18975 0.413105,0.38174 0.368246,0.42663 -0.10188,0.10187 -1.069815,-0.305 -1.319451,-0.55464 -0.101821,-0.10182 -0.244195,-0.12607 -0.316381,-0.0539 -0.192258,0.19229 0.655275,1.13811 1.019713,1.13795 0.361175,-9e-5 2.11512,-1.7199 2.05025,-2.01036 z M 15.379308,279.839 c 0.294712,-0.49727 0.289389,-0.68505 -0.01738,-0.61263 -0.08882,0.0212 -0.738462,0.67583 -1.443666,1.45528 -1.243109,1.37389 -1.275909,1.4234 -1.076093,1.62321 0.202273,0.20228 0.224954,0.18595 1.223722,-0.88033 0.559709,-0.59757 1.150742,-1.31103 1.313431,-1.58551 z"
       id="path8029"       
       sodipodi:nodetypes="csccsscsccccccccccscscscsccscsscccccscsccscccsccscccsscccscccccsccccsccccscccccccccccccccccccsccsscccccccccccccsccsscscccccccccsccccccsssccccsscccsssccccccsccc" />
  </g>
</svg>
