<?xml version="1.0" encoding="UTF-8" standalone="no"?>
<!-- Created with Inkscape (http://www.inkscape.org/) -->

<svg
   xmlns:dc="http://purl.org/dc/elements/1.1/"
   xmlns:cc="http://creativecommons.org/ns#"
   xmlns:rdf="http://www.w3.org/1999/02/22-rdf-syntax-ns#"
   xmlns:svg="http://www.w3.org/2000/svg"
   xmlns="http://www.w3.org/2000/svg"
   xmlns:sodipodi="http://sodipodi.sourceforge.net/DTD/sodipodi-0.dtd"
   xmlns:inkscape="http://www.inkscape.org/namespaces/inkscape"
   width="220"
   height="235"
   viewBox="0 0 58.208332 62.177085"
   version="1.1"
   id="svg8"
   inkscape:version="0.92.3 (2405546, 2018-03-11)"
   sodipodi:docname="hk33.svg">
  <defs
     id="defs2" />
  <sodipodi:namedview
     id="base"
     pagecolor="#000000"
     bordercolor="#666666"
     borderopacity="1.0"
     inkscape:pageopacity="0"
     inkscape:pageshadow="2"
     inkscape:zoom="1.4"
     inkscape:cx="195.98672"
     inkscape:cy="125.06421"
     inkscape:document-units="px"
     inkscape:current-layer="layer1"
     showgrid="false"
     units="px"
     inkscape:window-width="1590"
     inkscape:window-height="1226"
     inkscape:window-x="1802"
     inkscape:window-y="123"
     inkscape:window-maximized="0" />
  <metadata
     id="metadata5">
    <rdf:RDF>
      <cc:Work
         rdf:about="">
        <dc:format>image/svg+xml</dc:format>
        <dc:type
           rdf:resource="http://purl.org/dc/dcmitype/StillImage" />
        <dc:title></dc:title>
      </cc:Work>
    </rdf:RDF>
  </metadata>
  <g
     inkscape:label="Layer 1"
     inkscape:groupmode="layer"
     id="layer1"
     transform="translate(0,-234.8229)">
    <path
       style="fill:none;stroke:#ffffff;stroke-width:0.4;stroke-opacity:1;stroke-miterlimit:4;stroke-dasharray:none"
       d="m 43.785086,275.649 c 1.148462,-2.63399 1.174275,-2.713 0.969175,-2.96629 -0.112181,-0.13853 -0.289543,-0.22412 -0.478306,-0.2308 -0.165003,-0.006 -0.513609,-0.10277 -0.774678,-0.21541 -0.261069,-0.11265 -0.777428,-0.3165 -1.147462,-0.45302 -1.048869,-0.38696 -2.582858,-1.04826 -3.514873,-1.51525 -3.195642,-1.60119 -6.667455,-4.05898 -7.050149,-4.99099 l -0.134963,-0.3287 1.920933,-2.01648 c 1.916481,-2.01182 2.76548,-2.94784 5.646775,-6.22551 1.335618,-1.51935 3.003141,-3.40558 5.503969,-6.22584 0.586045,-0.6609 0.813498,-0.85956 1.237039,-1.08041 l 0.518959,-0.27061 -0.01354,-0.35858 c -0.0086,-0.22779 0.0612,-0.43332 0.191364,-0.56348 0.147922,-0.14792 0.175766,-0.26113 0.100131,-0.40709 l -0.104769,-0.2022 0.282345,0.0395 c 0.359786,0.0504 0.531747,-0.19478 0.399704,-0.5699 -0.09182,-0.26086 -0.06587,-0.32205 0.285754,-0.67368 0.212715,-0.21271 0.409527,-0.48526 0.437355,-0.60567 0.03947,-0.17077 0.134307,-0.26108 0.431165,-0.4106 0.342496,-0.17252 0.38693,-0.22491 0.444365,-0.52401 0.05767,-0.30031 0.234474,-0.50744 1.835691,-2.15048 1.57848,-1.61971 1.799109,-1.81951 2.021345,-1.83059 0.205442,-0.0102 0.458809,-0.21108 1.435692,-1.13795 0.652408,-0.61905 1.347805,-1.32633 1.54531,-1.57177 0.326201,-0.40539 0.346633,-0.47204 0.223088,-0.72782 -0.08104,-0.16777 -0.225433,-0.32172 -0.357285,-0.38096 -0.121716,-0.0546 -0.286031,-0.1947 -0.365146,-0.3112 -0.28664,-0.42214 -0.449781,-0.31605 -2.06735,1.3444 -1.381378,1.41801 -1.474057,1.53142 -1.452963,1.77814 0.02172,0.25407 -0.0392,0.32289 -1.696653,1.91653 -1.329226,1.27809 -1.821818,1.70338 -2.171685,1.87507 -0.287577,0.14113 -0.52593,0.3294 -0.653963,0.51656 -0.23922,0.34971 -0.551446,0.42481 -0.638998,0.15369 -0.104418,-0.32333 -0.537377,-0.82226 -0.931194,-1.07306 -0.214246,-0.13644 -0.611018,-0.40918 -0.88171,-0.60607 -0.748972,-0.54479 -1.451232,-0.88241 -1.686961,-0.81103 -0.289653,0.0877 -0.488891,0.59023 -0.335551,0.84633 0.06485,0.10834 0.421761,0.47662 0.793106,0.81844 l 0.675195,0.62148 -0.522011,0.549 c -0.287113,0.30194 -0.936392,0.9508 -1.442901,1.44183 -0.809056,0.78442 -0.963322,0.89921 -1.270483,0.94524 -0.487346,0.073 -1.639244,1.16534 -1.6597,1.57383 -0.01224,0.24444 -0.304314,0.56571 -3.633869,3.99716 -5.957306,6.13961 -18.501601,18.62826 -18.711382,18.62838 -0.139974,7e-5 -0.20153,-0.0725 -0.302092,-0.35646 -0.158354,-0.44706 -0.327459,-0.47951 -0.966897,-0.18556 -0.429631,0.1975 -0.473786,0.24002 -0.613497,0.5909 -0.08281,0.20793 -0.217464,0.47057 -0.29924,0.58361 -0.120646,0.16682 -0.103458,0.16397 0.09121,-0.015 0.187329,-0.17228 0.270945,-0.18956 0.381594,-0.0789 0.103907,0.1039 0.09446,0.18892 -0.03543,0.3188 -0.09741,0.0974 -0.199153,0.2029 -0.226075,0.23444 -0.02682,0.0316 -0.133098,0.005 -0.235942,-0.0583 -0.185258,-0.11449 -0.186886,-0.11237 -0.176214,0.22945 0.0059,0.18975 0.09495,0.47223 0.197823,0.62772 l 0.187049,0.28271 -0.682506,0.79989 c -0.424317,0.49728 -0.748316,0.96869 -0.856472,1.24612 -0.09567,0.24544 -0.221393,0.49367 -0.279364,0.55165 -0.05797,0.058 -0.111996,0.59011 -0.12006,1.18253 -0.0124,0.9105 -0.06614,1.18853 -0.347397,1.79716 l -0.332739,0.72002 -5.1176373,5.15235 c -4.8776124,4.91071 -5.1197714,5.16695 -5.1633877,5.46363 -0.058382,0.3972 0.357458,0.89358 1.1696344,1.39614 1.2690207,0.78525 2.1364257,1.46485 3.421388,2.68063 0.7408084,0.70093 1.4826529,1.3464 1.648541,1.43438 0.4348694,0.23066 0.6724997,0.12194 1.2912632,-0.59078 0.4423914,-0.50958 0.6386944,-0.8602 1.1729294,-2.09494 0.35289,-0.81562 0.906637,-2.0787 1.23055,-2.80686 0.323913,-0.72817 0.889983,-2.0112 1.257934,-2.85119 0.367948,-0.83998 0.788116,-1.7907 0.933708,-2.1127 0.14559,-0.32201 0.495556,-1.11975 0.777702,-1.77278 1.110157,-2.56947 0.87985,-2.22333 2.671188,-4.01467 1.335603,-1.33561 1.631244,-1.59627 1.78494,-1.57383 0.103353,0.0151 0.404351,-0.14084 0.685738,-0.35523 0.545887,-0.41591 0.835599,-0.47611 1.371768,-0.28503 0.601641,0.2144 0.811651,0.52415 1.064475,1.57001 0.127669,0.52813 0.340599,1.39374 0.473174,1.92358 0.132578,0.52985 0.265774,1.06616 0.295991,1.1918 0.03022,0.12565 0.07942,0.29961 0.109343,0.38658 0.02992,0.087 0.106645,0.38936 0.170498,0.67198 0.156437,0.69242 0.329936,0.84033 0.905896,0.7723 0.699352,-0.0826 2.335186,-0.54633 3.006935,-0.8524 0.709356,-0.3232 0.77211,-0.50345 0.330541,-0.9494 -0.207745,-0.20984 -0.494776,-0.819 -1.003533,-2.12993 -0.616272,-1.58796 -0.697237,-1.87892 -0.5992,-2.15336 0.104225,-0.29177 0.156747,-0.33302 0.652323,-0.51251 0.488669,-0.17698 0.629974,-0.2862 1.514119,-1.17035 l 0.975151,-0.97515 0.009,-0.42116 c 0.0063,-0.29387 -0.124162,-0.68741 -0.431586,-1.302 -0.542284,-1.08413 -0.573006,-1.31371 -0.235028,-1.7564 l 0.261594,-0.34264 0.370015,0.46385 0.370017,0.46384 -0.03685,-0.33973 c -0.02027,-0.18685 -0.116887,-0.41977 -0.214708,-0.51759 -0.26977,-0.26977 -0.330128,-0.47386 -0.183504,-0.62048 0.208279,-0.20828 0.627114,-0.0596 1.423613,0.50555 1.320658,0.93696 3.441504,2.24243 4.776608,2.94016 2.260187,1.18119 5.212062,2.40293 6.874911,2.84541 l 0.691282,0.18394 z m -17.290429,1.1895 c -0.743237,0.19488 -0.824045,0.13881 -1.185657,-0.82276 -0.236162,-0.62799 -0.240228,-0.70529 -0.04523,-0.85997 0.203726,-0.16157 0.246372,-0.14626 0.866561,0.3113 0.583688,0.43063 0.702806,0.47918 1.132509,0.46155 0.530138,-0.0217 0.815603,-0.19657 0.548308,-0.33576 -0.08968,-0.0467 -0.361741,-0.17385 -0.604586,-0.28256 -0.491827,-0.22014 -0.868245,-0.67038 -0.868244,-1.03851 0,-0.28768 1.299899,-1.61489 1.55816,-1.59088 0.124009,0.0115 0.279653,0.23785 0.587627,0.85452 0.60559,1.2126 0.617035,1.15709 -0.460914,2.23503 -0.892288,0.89229 -0.912721,0.90657 -1.52854,1.06804 z"
       id="path836"
       inkscape:connector-curvature="0" />
  </g>
</svg>
