<?xml version="1.0" encoding="UTF-8" standalone="no"?>
<!-- Created with Inkscape (http://www.inkscape.org/) -->

<svg
   xmlns:dc="http://purl.org/dc/elements/1.1/"
   xmlns:cc="http://creativecommons.org/ns#"
   xmlns:rdf="http://www.w3.org/1999/02/22-rdf-syntax-ns#"
   xmlns:svg="http://www.w3.org/2000/svg"
   xmlns="http://www.w3.org/2000/svg"
   xmlns:sodipodi="http://sodipodi.sourceforge.net/DTD/sodipodi-0.dtd"   
   width="220"
   height="235"
   viewBox="0 0 58.208334 62.177086"
   version="1.1"
   id="svg877"   
   sodipodi:docname="hk416.svg" >
  <defs
     id="defs871" />
  <sodipodi:namedview
     id="base"
     pagecolor="#000000"
     bordercolor="#666666"
     borderopacity="1.0"
     showgrid="false"     
     fit-margin-top="0"
     fit-margin-left="0"
     fit-margin-right="0"
     fit-margin-bottom="0"
     units="px" />
  <metadata
     id="metadata874">
    <rdf:RDF>
      <cc:Work
         rdf:about="">
        <dc:format>image/svg+xml</dc:format>
        <dc:type
           rdf:resource="http://purl.org/dc/dcmitype/StillImage" />
        <dc:title />
      </cc:Work>
    </rdf:RDF>
  </metadata>
  <g
     id="layer1"
     transform="translate(-50.870517,-264.71581)">
    <path
       style="fill:none;stroke:#fffffd;stroke-width:0.40000001;stroke-miterlimit:4;stroke-dasharray:none;stroke-opacity:1"
       d="m 89.761706,309.65591 c -0.675861,-0.26121 -1.411548,-0.63762 -3.355428,-1.7167 -2.130374,-1.1826 -3.325941,-1.98634 -4.920363,-3.3078 -0.939505,-0.77862 -0.97047,-0.79536 -1.146029,-0.61981 -0.09923,0.0993 -0.208393,0.34661 -0.242543,0.54969 -0.180365,1.07237 -1.299435,2.25258 -2.49774,2.63415 -0.700824,0.22316 -1.058065,0.50029 -1.114645,0.86467 -0.01953,0.12606 0.120298,0.51032 0.310829,0.8539 0.610985,1.10189 1.771514,3.37669 2.084717,4.08635 0.276896,0.62739 0.324742,0.68823 0.541305,0.68824 0.216558,-1e-5 0.237567,0.0408 0.237567,0.46117 v 0.46118 l -1.621353,1.62136 c -0.891746,0.89175 -1.651217,1.59149 -1.687728,1.55496 -0.03657,-0.0366 -0.148294,-0.0185 -0.248423,0.0403 -0.160091,0.0937 -0.208749,0.0631 -0.40337,-0.25288 -0.121716,-0.1977 -0.316913,-0.49494 -0.433763,-0.66051 -0.921226,-1.30536 -1.972403,-3.87372 -2.120449,-5.1809 -0.134129,-1.18437 -0.281865,-1.5292 -0.994172,-2.32049 -0.722799,-0.80296 -1.167061,-1.0319 -1.651097,-0.85089 -0.164337,0.0614 -0.331107,0.0375 -0.430719,-0.0622 -0.125362,-0.12534 -0.242934,-0.11398 -0.513942,0.0497 l -0.351382,0.21219 -0.604319,-0.56041 -0.604301,-0.5604 -0.781521,0.7815 -0.78152,0.78153 0.296241,0.34248 0.296242,0.34246 -0.308307,0.38849 c -0.464515,0.58526 -0.438598,0.94085 0.151291,2.0762 l 0.290055,0.55827 -0.569959,0.61457 c -0.313499,0.33797 -0.569973,0.67901 -0.569973,0.75782 0,0.18959 -0.575152,0.75947 -0.766521,0.75943 -0.138386,1e-5 -1.253525,1.00073 -1.260333,1.13104 -0.0033,0.0314 -0.0071,1.62857 -0.01183,3.54915 l -0.0088,3.49194 -1.269084,1.33001 c -1.320253,1.38364 -1.3542,1.40582 -1.710664,1.11805 -0.10373,-0.0837 -0.501139,-0.36547 -0.883148,-0.62607 -0.382004,-0.26059 -0.762688,-0.54094 -0.845969,-0.62297 -0.08307,-0.0821 -0.321916,-0.283 -0.530315,-0.44655 -0.412407,-0.3237 -1.211525,-0.98333 -1.852362,-1.52906 -0.223215,-0.19007 -0.393816,-0.31274 -0.419012,-0.33242 -0.008,-0.006 -0.156943,-0.11358 -0.332644,-0.2685 -0.175707,-0.15493 -0.54505,-0.46184 -0.820769,-0.68208 -0.758748,-0.60603 -1.034764,-0.83175 -1.593238,-1.30297 -0.281161,-0.2372 -0.563795,-0.44372 -0.628094,-0.4589 -0.06436,-0.0152 -0.214509,-0.17026 -0.333786,-0.34462 -0.407096,-0.59511 -0.486889,-0.49733 3.959557,-4.85213 2.183877,-2.13889 4.058513,-3.97014 4.165829,-4.06946 0.107333,-0.0994 0.825596,-0.82395 1.59612,-1.61037 0.98174,-1.00189 1.459198,-1.43517 1.595455,-1.44782 0.139583,-0.0129 0.170659,-0.0418 0.110078,-0.10241 -0.05868,-0.0588 0.264455,-0.43329 1.061363,-1.23048 l 1.145725,-1.14615 -0.242824,-0.25286 c -0.360948,-0.37585 -0.420529,-0.58574 -0.222487,-0.78379 0.138245,-0.13823 0.137075,-0.21207 -0.0056,-0.33286 -0.303319,-0.2574 -0.313891,-0.39731 -0.05679,-0.75227 0.183948,-0.254 0.210284,-0.37445 0.104925,-0.47981 -0.07738,-0.0775 -0.10687,-0.1745 -0.06557,-0.21582 0.04131,-0.0413 0.0076,-0.14276 -0.07515,-0.22542 -0.118089,-0.1181 -0.0994,-0.20403 0.08729,-0.40117 0.92201,-0.97364 0.987168,-1.06143 1.001552,-1.34992 0.01263,-0.25393 -0.07138,-0.38746 -0.536903,-0.85299 -0.303564,-0.30357 -0.522804,-0.58105 -0.487199,-0.61665 0.03563,-0.0357 -0.03596,-0.13308 -0.15906,-0.21667 -0.130613,-0.0888 -0.188875,-0.18681 -0.139853,-0.23585 0.04611,-0.0463 0.168426,0.002 0.27175,0.10395 0.103324,0.10334 0.221674,0.15405 0.262998,0.11273 0.04367,-0.0436 0.322557,0.17225 0.667085,0.51679 0.382482,0.38249 0.652375,0.58589 0.762714,0.57485 0.09392,-0.009 0.455111,-0.25327 0.802647,-0.54192 0.70884,-0.58873 0.903604,-0.62453 1.424656,-0.26184 0.242595,0.16888 0.369754,0.19383 0.471117,0.0924 0.07637,-0.0763 0.107583,-0.20903 0.06939,-0.29482 -0.09066,-0.20354 0.201436,-0.49562 0.348536,-0.34854 0.146636,0.14666 0.418108,-0.12483 0.327749,-0.32773 -0.101632,-0.22819 0.185882,-0.46272 0.40788,-0.33274 0.104256,0.0611 0.22538,0.0752 0.269116,0.0314 0.04367,-0.0436 0.04807,-0.18337 0.0097,-0.31026 -0.08131,-0.26856 0.172569,-0.57886 0.338144,-0.41328 0.146643,0.14663 0.418115,-0.12486 0.327743,-0.32775 -0.101622,-0.22817 0.185874,-0.46273 0.407893,-0.33273 0.24453,0.14314 0.400182,-0.0125 0.257021,-0.25702 -0.131681,-0.22496 -0.0026,-0.38676 0.311608,-0.38676 0.288812,0 0.465041,-0.17625 0.376054,-0.37607 -0.03812,-0.0857 -0.01664,-0.2088 0.04793,-0.27339 0.06455,-0.0644 0.187626,-0.0861 0.273393,-0.048 0.08578,0.0382 0.219978,0.005 0.298216,-0.0728 0.07824,-0.0784 0.09153,-0.19296 0.02954,-0.25495 -0.1471,-0.1471 0.144986,-0.4392 0.348536,-0.34854 0.201842,0.0899 0.444822,-0.15308 0.354923,-0.35493 -0.03812,-0.0856 -0.01771,-0.20777 0.04556,-0.27105 0.06328,-0.0632 0.165792,-0.0643 0.227787,-0.005 0.07014,0.0702 0.18369,0.0417 0.300581,-0.075 0.116883,-0.11689 0.145274,-0.23044 0.07514,-0.30057 -0.1471,-0.1471 0.144998,-0.43919 0.348537,-0.34853 0.207302,0.0923 0.473259,-0.18225 0.322523,-0.33299 -0.07984,-0.0799 -0.05503,-0.16421 0.07693,-0.26121 0.107148,-0.0789 0.227872,-0.0933 0.268215,-0.0323 0.108231,0.16368 0.370221,-0.1458 0.285134,-0.33683 -0.08554,-0.19204 0.279262,-0.50864 0.391157,-0.33945 0.04496,0.0682 0.160647,0.0236 0.298783,-0.1145 0.123982,-0.12397 0.1916,-0.25924 0.150283,-0.30056 -0.04131,-0.0413 -0.02441,-0.12588 0.03752,-0.18787 0.06198,-0.062 0.146519,-0.079 0.187855,-0.0376 0.04131,0.0413 0.142774,0.007 0.225426,-0.0751 0.08267,-0.0826 0.116471,-0.18411 0.07516,-0.22542 -0.04131,-0.0413 0.0094,-0.15969 0.112707,-0.263 0.103317,-0.10332 0.22168,-0.15406 0.262996,-0.11272 0.04131,0.0413 0.142781,0.007 0.225427,-0.075 0.08267,-0.0826 0.120108,-0.1805 0.08321,-0.21739 -0.130795,-0.13078 0.08992,-0.42594 0.294735,-0.39413 0.237505,0.037 0.461336,-0.1521 0.377879,-0.31901 -0.100616,-0.20122 0.160039,-0.43608 0.356391,-0.32113 0.208114,0.12183 0.520707,-0.12115 0.361129,-0.28072 -0.183564,-0.18357 0.02048,-0.4156 0.355221,-0.40373 l 0.321625,0.0112 -0.04442,-0.31717 c -0.04753,-0.33912 0.203651,-0.55842 0.406825,-0.35523 0.125096,0.1251 0.275299,-0.11376 0.277287,-0.44092 0.0026,-0.19888 0.257366,-0.377 0.374175,-0.26018 0.03691,0.037 0.117831,0.0164 0.179824,-0.0455 0.06198,-0.062 0.07889,-0.14654 0.03751,-0.18785 -0.115809,-0.11583 0.195663,-0.37372 0.537283,-0.44487 0.265911,-0.0553 0.291639,-0.0789 0.19398,-0.17646 -0.17952,-0.17952 0.0638,-0.4723 0.372642,-0.44838 0.27475,0.0212 0.276076,0.0199 0.265322,-0.28394 -0.01372,-0.38652 0.04765,-0.44447 0.398935,-0.37697 l 0.283649,0.0543 -0.0087,-0.3296 c -0.0096,-0.36953 0.156625,-0.60355 0.315696,-0.4445 0.173362,0.17338 0.419778,-0.0117 0.344872,-0.25924 -0.08119,-0.2682 0.09197,-0.47993 0.312269,-0.38183 0.08579,0.0382 0.216368,0.009 0.29018,-0.0646 0.07381,-0.0738 0.102947,-0.20438 0.06476,-0.29017 -0.03812,-0.0856 -0.01664,-0.20882 0.04793,-0.27342 0.06463,-0.0644 0.187625,-0.0861 0.273399,-0.048 0.202911,0.0904 0.394842,-0.10601 0.354938,-0.36312 -0.03176,-0.2048 0.263338,-0.42552 0.394124,-0.29472 0.10406,0.10404 0.228124,-0.0697 0.228124,-0.31937 0,-0.28879 0.175579,-0.46434 0.375385,-0.37536 0.168602,0.075 0.378017,-0.0707 0.312635,-0.21762 -0.02216,-0.0497 0.01242,-0.19022 0.07659,-0.31237 0.08244,-0.1569 0.164646,-0.20083 0.279897,-0.1495 0.171378,0.0764 0.420331,-0.0889 0.306101,-0.20307 -0.11411,-0.11411 0.219142,-0.51042 0.371975,-0.44235 0.184425,0.0821 0.306278,-0.0486 0.306297,-0.32855 0,-0.28334 0.181178,-0.47365 0.31936,-0.33546 0.05749,0.0576 0.178686,0.0718 0.269141,0.0313 0.23241,-0.1035 0.241071,-0.12233 0.114601,-0.2488 -0.06194,-0.062 -0.0816,-0.14377 -0.04367,-0.18172 0.03793,-0.0381 0.101938,-0.14303 0.142253,-0.23347 0.04804,-0.10791 0.114759,-0.12295 0.194003,-0.0436 0.151646,0.15163 0.28178,0.0289 0.28178,-0.26569 0,-0.12397 0.06519,-0.29063 0.144922,-0.37034 0.07965,-0.0797 0.195654,-0.0941 0.257624,-0.032 0.06194,0.062 0.148947,0.0764 0.193234,0.032 0.04423,-0.0441 0.08049,-0.18195 0.08049,-0.30594 0,-0.12398 0.06518,-0.29064 0.144914,-0.37036 0.07965,-0.0797 0.195654,-0.0941 0.257642,-0.032 0.119303,0.11933 0.353708,-0.0372 0.285442,-0.19045 -0.02217,-0.0497 0.01242,-0.1902 0.07659,-0.31238 0.08244,-0.15687 0.164702,-0.20077 0.279897,-0.14947 0.174309,0.0777 0.386459,-0.0645 0.319806,-0.21441 -0.02217,-0.0496 0.01233,-0.19023 0.07659,-0.3124 0.08244,-0.15687 0.164673,-0.20077 0.279887,-0.14948 0.207143,0.0923 0.377899,-0.0723 0.286953,-0.27659 -0.03811,-0.0857 -0.03533,-0.19016 0.0066,-0.232 0.14547,-0.14546 1.443399,-0.37569 1.470512,-0.26084 0.01623,0.069 0.238262,-0.0953 0.548954,-0.40605 0.477518,-0.47751 0.539819,-0.51117 0.73592,-0.39774 0.136679,0.0791 0.203619,0.19727 0.184906,0.32664 -0.01901,0.13161 0.01586,0.19208 0.09954,0.17233 0.07084,-0.0168 0.213681,0.0543 0.317349,0.15807 0.157237,0.15724 0.154048,0.20632 -0.01929,0.29613 -0.225235,0.11672 -0.880129,0.95534 -0.668544,0.85612 0.07066,-0.0331 0.140324,-0.0103 0.154771,0.0509 0.01446,0.0612 0.05999,0.0775 0.101397,0.0362 0.04136,-0.0413 0.06426,-0.12117 0.051,-0.1774 -0.03292,-0.13921 0.619798,-0.80076 0.75786,-0.76814 0.123604,0.0292 0.875344,-0.68802 0.989258,-0.94376 0.04469,-0.1005 -0.01623,-0.25411 -0.157005,-0.39475 -0.126656,-0.12665 -0.235815,-0.34163 -0.242611,-0.47777 -0.0093,-0.17825 -0.219865,-0.47545 -0.753613,-1.06165 -0.40772,-0.44774 -1.207899,-1.3281 -1.778218,-1.95631 l -1.036938,-1.1422 0.218297,-0.26498 c 0.180939,-0.21964 0.254861,-0.24209 0.431904,-0.13133 0.117486,0.0735 0.959272,0.85955 1.870622,1.74671 1.580181,1.53824 1.669393,1.61087 1.923465,1.56611 0.287936,-0.0507 0.66579,0.11651 0.627698,0.2778 -0.01299,0.0546 0.09414,0.16752 0.23791,0.25069 l 0.26142,0.15114 1.775507,-1.73511 c 1.13189,-1.10607 1.77553,-1.79061 1.77553,-1.88822 0,-0.21571 0.4757,-0.6693 0.58609,-0.5589 0.0702,0.0702 0.0903,0.0501 0.0903,-0.0903 1e-5,-0.23683 0.24447,-0.47626 0.36558,-0.35808 0.0728,0.0713 0.0875,0.0584 0.0621,-0.055 -0.0325,-0.14577 1.63994,-1.90826 1.9987,-2.10631 0.12154,-0.0672 0.27239,0.0244 0.68421,0.41619 0.29054,0.27623 0.57185,0.61893 0.62512,0.76153 0.0948,0.25396 0.0767,0.27938 -0.89318,1.24297 -0.72705,0.72262 -1.02359,0.96692 -1.11636,0.92054 -0.0893,-0.0446 -0.11603,0.005 -0.0914,0.17288 0.0293,0.19764 -0.004,0.24561 -0.20883,0.29501 -0.1534,0.0373 -0.23335,0.10314 -0.21562,0.1781 0.0452,0.192 -0.40055,0.57384 -0.57784,0.49489 -0.13921,-0.062 -0.3723,0.15356 -1.852,1.71257 -0.93099,0.98092 -1.69348,1.84699 -1.69441,1.9246 -0.005,0.19588 -0.928949,1.10501 -1.71822,1.68579 -0.776737,0.57152 -1.039627,1.0355 -0.761734,1.34597 0.08808,0.0985 0.198139,0.22543 0.244671,0.28222 0.04793,0.0586 -0.03487,0.2438 -0.190694,0.42733 -0.30524,0.35932 -0.376472,0.65355 -0.179473,0.7413 0.261379,0.11639 0.20233,0.51211 -0.143124,0.95927 -0.257523,0.33333 -0.377966,0.42895 -0.481941,0.38265 -0.188821,-0.084 -0.375016,0.12056 -0.236073,0.25949 0.138764,0.13877 -0.251689,0.50076 -0.446547,0.41396 -0.181383,-0.0808 -0.340846,0.10009 -0.256065,0.29035 0.03811,0.0858 -2.97e-4,0.22571 -0.0855,0.31097 -0.08521,0.0851 -0.225195,0.12374 -0.310968,0.0854 -0.08577,-0.0382 -0.203073,-0.0223 -0.260647,0.0352 -0.05749,0.0576 -0.05387,0.15539 0.0084,0.21739 0.149717,0.14972 -0.216518,0.51595 -0.423679,0.42367 -0.19494,-0.0867 -0.370362,0.0764 -0.285933,0.26599 0.0777,0.17445 -0.282447,0.51226 -0.38301,0.35927 -0.03959,-0.0605 -0.13974,-0.0421 -0.222396,0.0406 -0.08346,0.0834 -0.100182,0.20036 -0.03756,0.26298 0.07019,0.0702 0.04163,0.18368 -0.07511,0.30057 -0.1169,0.11689 -0.230453,0.14527 -0.300565,0.075 -0.06259,-0.0626 -0.179519,-0.046 -0.263011,0.0376 -0.08271,0.0827 -0.108035,0.19257 -0.05638,0.24428 0.05165,0.0516 0.01428,0.18337 -0.08308,0.29261 -0.109039,0.12236 -0.217204,0.15841 -0.281752,0.0938 -0.05758,-0.0577 -0.172379,-0.0373 -0.255036,0.0455 -0.08262,0.0826 -0.100374,0.18329 -0.03931,0.22364 0.16918,0.11188 -0.147418,0.47666 -0.339474,0.39115 -0.208062,-0.0926 -0.409066,0.10019 -0.259896,0.24933 0.149718,0.14971 -0.216536,0.51595 -0.423689,0.42368 -0.201134,-0.0896 -0.369331,0.0787 -0.279776,0.27976 0.03811,0.0858 -2.88e-4,0.22575 -0.0855,0.31101 -0.08522,0.0851 -0.225178,0.12374 -0.310969,0.0854 -0.202545,-0.0903 -0.398977,0.10621 -0.252589,0.2526 0.07019,0.0702 0.04163,0.18368 -0.07511,0.30056 -0.116909,0.1169 -0.230444,0.14528 -0.300601,0.0751 -0.06259,-0.0625 -0.179483,-0.046 -0.262975,0.0376 -0.08346,0.0835 -0.100192,0.20038 -0.03755,0.263 0.07019,0.0702 0.04173,0.18368 -0.07511,0.30058 -0.116883,0.11689 -0.230437,0.14527 -0.300565,0.075 -0.06259,-0.0626 -0.17952,-0.046 -0.263002,0.0377 -0.08346,0.0834 -0.100192,0.20039 -0.03755,0.26302 0.07019,0.0702 0.04172,0.18368 -0.07511,0.30055 -0.116882,0.1169 -0.230435,0.14528 -0.300583,0.075 -0.06259,-0.0625 -0.179501,-0.046 -0.262993,0.0377 -0.08346,0.0834 -0.100192,0.20038 -0.03755,0.263 0.06324,0.0631 0.04562,0.17975 -0.03987,0.26538 -0.08391,0.0839 -0.222832,0.12136 -0.308605,0.0831 -0.202915,-0.0904 -0.474392,0.18112 -0.327754,0.32774 0.06324,0.0631 0.04562,0.17979 -0.03987,0.26539 -0.08391,0.0839 -0.222832,0.12137 -0.308614,0.0831 -0.08577,-0.0382 -0.219976,-0.005 -0.298201,0.0728 -0.07826,0.0783 -0.09153,0.19297 -0.02949,0.25496 0.147102,0.14711 -0.144989,0.43919 -0.348554,0.34853 -0.201125,-0.0896 -0.369343,0.0787 -0.279772,0.27978 0.03814,0.0858 -2.84e-4,0.22573 -0.08554,0.31096 -0.08525,0.0851 -0.225187,0.12377 -0.310977,0.0855 -0.08579,-0.0382 -0.203062,-0.0223 -0.260634,0.0353 -0.05754,0.0576 -0.05392,0.15539 0.008,0.21739 0.07015,0.0702 0.04167,0.18368 -0.07514,0.30058 -0.116899,0.11688 -0.230443,0.14526 -0.300587,0.075 -0.06256,-0.0626 -0.179507,-0.0458 -0.263006,0.0376 -0.08348,0.0834 -0.100182,0.20039 -0.03751,0.263 0.07014,0.0702 0.0417,0.18368 -0.07514,0.30057 -0.116881,0.11688 -0.230434,0.14528 -0.300574,0.0751 -0.0626,-0.0625 -0.179507,-0.046 -0.262996,0.0377 -0.0835,0.0834 -0.100182,0.20037 -0.03751,0.26298 0.07014,0.0702 0.04171,0.18371 -0.07514,0.30057 -0.116896,0.11692 -0.230433,0.14529 -0.300574,0.075 -0.0626,-0.0626 -0.179514,-0.046 -0.263003,0.0376 -0.08348,0.0834 -0.100182,0.20039 -0.03751,0.26299 0.07014,0.0702 0.0417,0.18369 -0.07515,0.30059 -0.116876,0.11688 -0.230428,0.14528 -0.30056,0.0751 -0.0626,-0.0625 -0.179514,-0.0458 -0.262997,0.0376 -0.08351,0.0834 -0.100182,0.20038 -0.03751,0.263 0.07013,0.0702 0.04171,0.18368 -0.07516,0.30059 -0.116897,0.11689 -0.230435,0.14527 -0.300569,0.075 -0.0626,-0.0625 -0.179512,-0.0457 -0.263002,0.0377 -0.0835,0.0834 -0.100182,0.20038 -0.03751,0.26298 0.152602,0.15262 -0.289907,0.58946 -0.663848,0.6553 -0.20889,0.037 -0.370469,-0.0301 -0.611098,-0.25305 -0.287428,-0.26626 -0.30117,-0.26975 -0.113309,-0.0287 0.232978,0.29902 0.186077,0.67773 -0.105033,0.84814 -0.097,0.0569 -0.168177,0.17262 -0.158153,0.25735 0.01,0.0847 0.419826,0.59787 0.910648,1.14027 0.717128,0.79252 0.956661,1.00645 1.219664,1.08936 0.447303,0.14101 0.558469,0.27693 0.438982,0.53671 -0.09476,0.20603 -0.05409,0.26585 0.621463,0.91414 1.041687,0.99966 3.614943,2.72392 5.469959,3.66527 0.84224,0.4274 1.624179,0.78572 1.737631,0.79627 0.113471,0.0106 0.295568,0.0874 0.404671,0.17069 0.173427,0.13247 0.154872,0.2738 -0.147659,1.12437 -0.190333,0.5351 -0.561574,1.59805 -0.825022,2.36214 -0.263446,0.7641 -0.532781,1.44154 -0.598552,1.50544 -0.06565,0.0639 -0.146592,0.26869 -0.179585,0.45511 -0.03301,0.18639 -0.08206,0.3609 -0.108889,0.3878 -0.02689,0.027 -0.329349,-0.0596 -0.672133,-0.19199 z m -10.426098,-4.25489 c 0.250175,-0.52767 0.372385,-1.23584 0.237046,-1.37362 -0.06158,-0.0624 -0.145963,-0.28234 -0.18784,-0.48846 -0.08178,-0.40256 -0.512009,-0.9078 -0.863714,-1.01428 -0.650796,-0.19705 -1.770413,0.48048 -2.093255,1.26671 -0.254318,0.61939 0.243974,1.41789 1.032383,1.65436 0.480887,0.14425 0.536878,0.32673 0.106901,0.34832 -0.610188,0.0307 -1.164601,-0.23345 -1.588969,-0.75687 -0.355124,-0.43803 -0.403478,-0.46836 -0.535686,-0.33617 -0.180087,0.1801 -0.16379,1.03414 0.02392,1.25349 0.380004,0.44405 0.644568,0.57902 1.103742,0.5631 0.264667,-0.009 0.578199,0.0335 0.696727,0.0949 0.292685,0.15166 1.212336,-0.15326 1.585146,-0.52557 0.165387,-0.16523 0.383039,-0.4739 0.483597,-0.68599 z"
       id="path1505"       
       sodipodi:nodetypes="cssscscsccccsscccsscscccccccccscccccccccccccscscccccccscccscsssscssscssssccsscsccssscscccscssccsssscsccccsssssssssscccscccscssscsccccssccscsccssccccsccscsscscsssssscccccccscscccscccscccsccsccccccccccsccccccccccccccsccccscsccscsscccsssssscssccsscscsssssssssssssscsscssccscsssssssssssssssssssssscccccscccscccccsscccccccscsssccccc" />
  </g>
</svg>
