<?xml version="1.0" encoding="UTF-8" standalone="no"?>
<!-- Created with Inkscape (http://www.inkscape.org/) -->

<svg
   xmlns:dc="http://purl.org/dc/elements/1.1/"
   xmlns:cc="http://creativecommons.org/ns#"
   xmlns:rdf="http://www.w3.org/1999/02/22-rdf-syntax-ns#"
   xmlns:svg="http://www.w3.org/2000/svg"
   xmlns="http://www.w3.org/2000/svg"
   xmlns:sodipodi="http://sodipodi.sourceforge.net/DTD/sodipodi-0.dtd"
   xmlns:inkscape="http://www.inkscape.org/namespaces/inkscape"
   width="220"
   height="235"
   viewBox="0 0 58.208332 62.177085"
   version="1.1"
   id="svg8"
   inkscape:version="0.92.3 (2405546, 2018-03-11)"
   sodipodi:docname="m1918-bar.svg">
  <defs
     id="defs2" />
  <sodipodi:namedview
     id="base"
     pagecolor="#000000"
     bordercolor="#666666"
     borderopacity="1.0"
     inkscape:pageopacity="0"
     inkscape:pageshadow="2"
     inkscape:zoom="1.979899"
     inkscape:cx="99.630557"
     inkscape:cy="169.22542"
     inkscape:document-units="px"
     inkscape:current-layer="layer1"
     showgrid="false"
     units="px"
     inkscape:window-width="1534"
     inkscape:window-height="1188"
     inkscape:window-x="1830"
     inkscape:window-y="140"
     inkscape:window-maximized="0" />
  <metadata
     id="metadata5">
    <rdf:RDF>
      <cc:Work
         rdf:about="">
        <dc:format>image/svg+xml</dc:format>
        <dc:type
           rdf:resource="http://purl.org/dc/dcmitype/StillImage" />
        <dc:title></dc:title>
      </cc:Work>
    </rdf:RDF>
  </metadata>
  <g
     inkscape:label="Layer 1"
     inkscape:groupmode="layer"
     id="layer1"
     transform="translate(0,-234.8229)">
    <path
       style="fill:none;stroke:#ffffff;stroke-width:0.4;stroke-opacity:1;stroke-miterlimit:4;stroke-dasharray:none"
       d="m 29.31747,276.90292 c 4e-6,-0.0377 0.115159,-0.23161 0.255907,-0.43096 0.367554,-0.52058 1.485008,-2.47529 1.635908,-2.86162 0.07035,-0.18012 0.174203,-0.36158 0.230781,-0.40325 0.05658,-0.0417 0.173971,-0.19012 0.260843,-0.32991 l 0.157973,-0.25415 -1.839245,-1.83925 -1.839245,-1.83924 0.648148,-0.58822 c 0.735551,-0.66754 1.240534,-0.90879 1.861002,-0.88906 l 0.384674,0.0122 2.888356,-2.88932 c 1.58867,-1.58904 3.104002,-3.14114 3.367437,-3.44907 0.448534,-0.52427 0.482285,-0.5953 0.530942,-1.11754 0.02858,-0.30672 0.120936,-0.73122 0.205237,-0.94334 l 0.153275,-0.38565 -0.348354,-0.34835 -0.348351,-0.34835 2.628608,-2.66556 c 1.445736,-1.46606 2.871146,-2.8896 3.167658,-3.16335 l 0.538954,-0.49788 0.399979,0.23678 c 0.364253,0.21564 0.84805,0.27177 1.003402,0.11641 0.0886,-0.0886 -0.07562,-0.20145 -0.254772,-0.17507 -0.0908,0.0134 -0.318944,-0.0929 -0.506982,-0.23613 l -0.341888,-0.26045 0.220494,-0.22049 c 0.202742,-0.20274 0.247339,-0.20603 0.554029,-0.0407 0.224254,0.12086 0.438526,0.15417 0.653958,0.10167 0.407203,-0.0992 0.420214,-0.22435 0.07923,-0.76194 l -0.265795,-0.41906 1.517591,-1.49996 c 1.614037,-1.59529 1.684191,-1.69449 1.433933,-2.02785 -0.114437,-0.15244 -0.07868,-0.20275 1.070081,-1.50536 0.653661,-0.74121 1.359196,-1.49078 1.567856,-1.66571 0.26703,-0.22385 0.446786,-0.45714 0.606965,-0.78768 0.198076,-0.40872 0.252343,-0.47085 0.418489,-0.47914 0.104994,-0.005 0.267113,-0.0857 0.360266,-0.17889 0.127969,-0.12797 0.200847,-0.13789 0.298162,-0.0406 0.178379,0.17838 0.396144,0.0566 0.410415,-0.22957 0.0102,-0.20461 0.04504,-0.24828 0.246775,-0.30936 0.267065,-0.0809 0.498077,-0.40714 0.51471,-0.72695 0.0092,-0.17637 0.05268,-0.22522 0.28708,-0.32231 0.300985,-0.12467 0.35128,-0.27135 0.174161,-0.50789 -0.07043,-0.0941 -0.04691,-0.20377 0.0758,-0.3536 0.131197,-0.16019 0.15604,-0.30988 0.0946,-0.57013 l -0.08331,-0.3529 0.753436,-0.75343 c 0.67459,-0.67459 0.747585,-0.77275 0.6976,-0.93786 -0.07126,-0.23537 -0.684731,-0.73991 -0.857409,-0.70517 -0.07218,0.0145 -0.505485,0.41077 -0.96291,0.88056 -0.559326,0.57447 -0.879659,0.85417 -0.978187,0.85417 -0.08058,0 -0.237169,0.0907 -0.347976,0.20147 -0.110806,0.11081 -0.279782,0.19419 -0.375502,0.18529 -0.252538,-0.0235 -1.381251,1.11105 -1.440611,1.44805 -0.04,0.22708 -0.05451,0.23438 -0.271846,0.13678 -0.126273,-0.0567 -0.409693,-0.2832 -0.629818,-0.50333 -0.244703,-0.2447 -0.455229,-0.39363 -0.54176,-0.38325 -0.152133,0.0183 -0.93898,0.82483 -0.981859,1.00649 -0.01572,0.0666 0.234359,0.37002 0.636084,0.77174 l 0.661992,0.66199 -1.018848,1.04176 c -1.705354,1.7437 -2.8455,2.84166 -3.439983,3.31246 -0.326365,0.2585 -0.587769,0.51712 -0.617297,0.61073 -0.02822,0.0895 -2.60048,2.71164 -5.729965,5.84112 l -5.678756,5.67875 -0.319155,-0.31915 c -0.297656,-0.29766 -0.342966,-0.31301 -0.672676,-0.228 -0.194434,0.0501 -0.428584,0.0437 -0.520332,-0.0143 -0.09175,-0.058 -0.77389,-0.49699 -1.515875,-0.97552 l -1.349061,-0.87005 -0.323186,0.20541 c -0.242199,0.15393 -0.369322,0.17778 -0.507295,0.0952 -0.286657,-0.17164 -0.410114,0.039 -0.166812,0.28459 0.240827,0.24313 0.327639,0.50214 0.154581,0.46129 -0.185058,-0.0437 -0.232774,0.0721 -0.101649,0.24662 0.09305,0.12386 0.08032,0.20643 -0.05311,0.34443 -0.143334,0.14822 -0.214538,0.1555 -0.388346,0.0396 -0.220048,-0.1467 -0.335287,-0.11882 -0.290639,0.0703 0.01622,0.0687 -0.04858,0.0985 -0.176085,0.081 -0.192501,-0.0265 -0.196074,-0.0218 -0.07794,0.10204 0.0938,0.0983 0.08957,0.12211 -0.01737,0.0981 -0.08534,-0.0191 -0.124114,0.004 -0.09803,0.0585 0.02374,0.0496 -0.01856,0.17114 -0.094,0.27007 -0.07544,0.0989 -0.149288,0.22479 -0.164117,0.2797 -0.01481,0.0549 -0.190175,0.25048 -0.389667,0.43458 -0.221305,0.20424 -0.384108,0.42594 -0.417623,0.56871 -0.03021,0.12868 -0.10432,0.24563 -0.164698,0.25988 -0.06037,0.0143 -0.339847,0.24113 -0.621047,0.50417 -0.57758,0.54029 -0.655209,0.57447 -0.985236,0.43399 l -0.235962,-0.10044 0.161077,0.28274 c 0.08859,0.15551 0.161265,0.30944 0.161495,0.34207 7.45e-4,0.10843 -0.301539,-0.007 -0.479423,-0.18264 -0.128396,-0.12696 -0.207061,-0.14166 -0.293841,-0.0549 -0.138739,0.13874 0.05733,0.45075 0.66895,1.06456 0.381924,0.38332 0.3956,0.38869 0.620562,0.24475 0.127316,-0.0814 0.293494,-0.28256 0.37217,-0.45035 0.118613,-0.25298 0.273024,-0.39824 0.932751,-0.87745 0.974822,-0.70809 1.553844,-1.28173 2.08702,-2.06761 0.456059,-0.67222 0.654671,-0.79498 1.048162,-0.64782 0.198792,0.0743 0.244671,0.0515 0.440536,-0.21889 l 0.218637,-0.30186 0.986073,1.02916 0.986073,1.02915 -0.620351,0.58431 c -0.341202,0.32136 -1.616291,1.55429 -2.833542,2.73982 -1.529138,1.48931 -2.307068,2.20071 -2.516939,2.30171 -0.21369,0.10284 -0.830477,0.67222 -2.080209,1.92031 l -1.776488,1.77409 -0.498512,0.13552 c -0.481426,0.13088 -0.525304,0.16305 -1.28038,0.93873 -0.724743,0.74454 -0.782649,0.8256 -0.792643,1.10946 -0.01723,0.48988 -0.188983,0.89382 -0.521362,1.2262 -0.360384,0.36038 -0.543797,0.34304 -1.042658,-0.0986 l -0.30267,-0.26796 -1.072946,1.07295 -1.072947,1.07295 -0.2395,-0.13788 c -0.131724,-0.0758 -0.239499,-0.18768 -0.239499,-0.24854 0,-0.13316 -1.053572,-1.07616 -1.209709,-1.08276 -0.06044,-0.003 -0.135805,-0.0902 -0.16748,-0.19485 -0.07837,-0.25884 -0.28128,-0.24842 -0.443661,0.0228 -0.118943,0.19865 -0.113037,0.21372 0.08764,0.22373 0.251976,0.0126 1.049054,0.76214 1.223483,1.15056 0.07403,0.16485 0.147898,0.23872 0.238719,0.23872 0.07234,0 0.211407,0.0799 0.309048,0.17753 0.144658,0.14466 0.149616,0.20544 0.02678,0.32827 -0.226944,0.22695 -0.163144,0.45371 0.221965,0.78891 0.233017,0.20282 0.316884,0.32086 0.264913,0.37278 -0.04184,0.0418 -0.05234,0.25224 -0.02335,0.46766 0.07084,0.52628 -0.06767,1.36972 -0.316773,1.92891 -0.16047,0.36023 -0.388744,0.65167 -1.070456,1.36667 -0.476558,0.49985 -1.080496,1.17983 -1.342056,1.51108 -0.877164,1.11092 -2.7474717,3.52057 -3.130856,4.03371 -0.739351,0.98959 -2.102987,2.61566 -3.075533,3.66743 l -0.985424,1.06569 -0.236389,-0.19522 c -0.191997,-0.15855 -0.270188,-0.16946 -0.416314,-0.0581 -0.09895,0.0754 -0.308112,0.14191 -0.464797,0.14778 -0.241669,0.009 -0.345066,0.0762 -0.681692,0.44264 -0.546208,0.59459 -0.583567,0.75415 -0.233646,0.99789 0.151938,0.10583 0.419533,0.26375 0.594655,0.35093 0.175118,0.0872 0.309756,0.19513 0.299191,0.23988 -0.04832,0.20471 0.564695,0.81587 1.681961,1.67688 0.649921,0.50085 1.333193,1.06458 1.518382,1.25274 0.274741,0.27905 0.363664,0.32632 0.483045,0.25644 0.113867,-0.0667 0.241326,-0.009 0.574432,0.26141 0.456302,0.36994 1.0667823,0.6274 1.4431523,0.60863 0.4318967,-0.0216 0.7350287,-0.30063 1.5722507,-1.44754 0.43798,-0.6 0.903198,-1.26509 1.033813,-1.478 0.286864,-0.46759 0.419212,-1.06852 0.303482,-1.37797 -0.07848,-0.20984 -0.05111,-0.26132 0.354726,-0.66715 0.340637,-0.34064 0.512885,-0.60324 0.764154,-1.16496 l 0.324393,-0.72518 0.452426,0.0329 c 0.248838,0.0181 0.490472,0.0709 0.536971,0.11744 0.255198,0.2552 0.944418,-0.0677 1.036209,-0.48546 0.03044,-0.13855 0.0039,-0.16489 -0.237463,-0.23612 -0.149449,-0.0441 -0.405825,-0.0317 -0.569721,0.0276 -0.163897,0.0593 -0.411153,0.0618 -0.549458,0.006 -0.21636,-0.088 -0.247367,-0.13153 -0.222095,-0.3122 0.04213,-0.30122 0.842866,-2.40657 1.184023,-3.11314 0.416774,-0.86316 1.093152,-1.60661 1.746188,-1.91934 0.746805,-0.35764 0.798988,-0.43922 0.713242,-1.11506 -0.04122,-0.32493 -0.07253,-0.9338 -0.06956,-1.35305 0.003,-0.41924 -0.04543,-0.81308 -0.107547,-0.8752 -0.06212,-0.0621 -0.102568,-0.12331 -0.08989,-0.13599 0.01268,-0.0127 0.146792,-0.20667 0.298039,-0.43109 0.152223,-0.22588 0.489351,-0.58468 0.755136,-0.80368 0.576965,-0.47541 0.905961,-0.50542 1.415079,-0.12908 0.41355,0.30569 1.034667,0.36334 1.361844,0.1264 0.128379,-0.093 0.967701,-0.9469 1.865155,-1.89765 0.89746,-0.95074 1.673459,-1.73326 1.724455,-1.73893 0.05097,-0.006 0.758756,0.65615 1.572826,1.47072 0.956339,0.95696 1.532921,1.48593 1.629319,1.49489 0.146253,0.0136 0.556352,-0.32682 0.556353,-0.46181 z m -7.447033,0.61698 c -0.797363,-0.47742 -0.623489,-1.90139 0.26677,-2.18475 0.161537,-0.0514 0.304903,-0.0823 0.318591,-0.0686 0.01368,0.0137 0.08734,0.0527 0.163663,0.0867 0.112663,0.0502 0.08978,0.1108 -0.12162,0.3222 -0.247061,0.24706 -0.250667,0.27013 -0.07019,0.45061 0.179642,0.17964 0.2043,0.17611 0.443822,-0.0634 0.295638,-0.29563 0.385109,-0.25232 0.335566,0.16246 -0.0299,0.25034 -0.125175,0.38799 -0.590856,0.85367 -0.533321,0.53332 -0.562727,0.5507 -0.74575,0.44112 z"
       id="path823"
       inkscape:connector-curvature="0"
       sodipodi:nodetypes="cccsccccccccccccccsccsscccsscscccccccssccscccccsccccscccsccsccccscsccscccccccccccsccccccccccccscccsccccccccccccccsccccccccccscssccccccccccccccccccssccccscccsccsccccccssccccccccccccscssscsc" />
  </g>
</svg>
