<?xml version="1.0" encoding="UTF-8" standalone="no"?>
<!-- Created with Inkscape (http://www.inkscape.org/) -->

<svg
   xmlns:dc="http://purl.org/dc/elements/1.1/"
   xmlns:cc="http://creativecommons.org/ns#"
   xmlns:rdf="http://www.w3.org/1999/02/22-rdf-syntax-ns#"
   xmlns:svg="http://www.w3.org/2000/svg"
   xmlns="http://www.w3.org/2000/svg"
   xmlns:sodipodi="http://sodipodi.sourceforge.net/DTD/sodipodi-0.dtd"   
   width="220"
   height="235"
   viewBox="0 0 58.208332 62.177085"
   version="1.1"
   id="svg8"   
   sodipodi:docname="sa80.svg" >
  <defs
     id="defs2" />
  <sodipodi:namedview
     id="base"
     pagecolor="#000000"
     bordercolor="#666666"
     borderopacity="1.0"
     showgrid="false"
     units="px"
     showguides="false" />
  <metadata
     id="metadata5">
    <rdf:RDF>
      <cc:Work
         rdf:about="">
        <dc:format>image/svg+xml</dc:format>
        <dc:type
           rdf:resource="http://purl.org/dc/dcmitype/StillImage" />
        <dc:title></dc:title>
      </cc:Work>
    </rdf:RDF>
  </metadata>
  <g
     id="layer1"
     transform="translate(0,-234.8229)">
    <path
       style="fill:none;stroke:#ffffff;stroke-width:0.4;stroke-opacity:1;stroke-miterlimit:4;stroke-dasharray:none"
       d="m 29.313285,290.37087 c -0.304991,-0.0418 -4.903211,-2.55525 -6.19324,-3.38535 -0.598336,-0.38498 -1.635513,-1.13568 -2.304837,-1.6682 -0.669324,-0.53256 -1.296865,-0.97324 -1.394543,-0.97939 -0.09766,-0.01 -0.600001,-0.43353 -1.116284,-0.94979 l -0.938695,-0.93873 -1.299685,1.4318 c -0.714812,0.78753 -1.770371,1.98912 -2.345655,2.67034 -0.575286,0.68119 -1.389885,1.58387 -1.810223,2.00602 -0.573162,0.57539 -0.757233,0.83854 -0.73621,1.05168 0.05858,0.59377 0.02366,0.91632 -0.219128,2.02351 -0.343939,1.56858 -1.353044,3.17425 -2.048024,3.25883 -0.230518,0.0281 -0.606075,-0.26584 -2.033775,-1.59164 -2.0245604,-1.88002 -3.1478559,-2.7707 -4.5427863,-3.60197 -1.56677951,-0.93371 -1.93863971,-1.26481 -1.82862531,-1.62815 0.050849,-0.16797 0.53184911,-0.74573 1.06886911,-1.28394 0.5368668,-0.53835 1.2884873,-1.29224 1.6697675,-1.67576 0.3812816,-0.38357 2.5817552,-2.63236 4.88967,-4.99768 2.696195,-2.76324 4.362575,-4.39495 4.661623,-4.56458 0.255974,-0.1452 0.465381,-0.31373 0.465345,-0.37454 -2.2e-5,-0.0609 -0.865982,-0.98764 -1.924313,-2.05964 -2.054107,-2.08054 -2.220619,-2.33075 -2.061066,-3.09673 0.122835,-0.58971 0.679883,-1.08351 1.599133,-1.41744 0.818565,-0.29744 1.244,-0.61486 3.353463,-2.50212 0.634338,-0.5675 1.849807,-1.6141 2.70105,-2.32569 1.45869,-1.21941 1.585885,-1.29792 2.211286,-1.36447 0.968554,-0.1031 1.238137,0.0724 2.166122,1.4115 0.436883,0.63034 0.851169,1.21774 0.920636,1.30536 0.0781,0.0985 0.284631,0.0562 0.541312,-0.11128 0.22826,-0.14879 0.527524,-0.25307 0.665047,-0.23175 0.400681,0.0624 4.872119,-4.28806 5.36182,-5.21655 0.196788,-0.37314 0.357798,-0.74225 0.357799,-0.82038 0,-0.19005 7.940832,-7.8673 8.166372,-7.8953 0.111294,-0.0138 0.02549,-0.17701 -0.231789,-0.44083 -0.22468,-0.23038 -1.064102,-1.14888 -1.8654,-2.04108 -1.663547,-1.85235 -1.734996,-2.03941 -1.043087,-2.73134 0.635196,-0.63518 0.933221,-0.5043 2.860295,1.25622 0.891144,0.8141 1.743256,1.67773 1.893572,1.91912 0.150313,0.2414 0.412654,0.58037 0.582975,0.75331 0.251929,0.25575 0.36971,0.27847 0.631604,0.12167 0.214731,-0.12856 0.351666,-0.12603 0.411193,0.01 0.07639,0.17149 0.376562,-0.0869 2.079199,-1.78953 1.235504,-1.23554 2.106651,-2.02529 2.297794,-2.08316 0.169315,-0.0513 0.52455,-0.008 0.789408,0.10453 l 0.481564,0.19771 1.972113,-1.94856 c 1.08466,-1.07179 2.001683,-2.00845 2.037657,-2.08176 0.07253,-0.14723 0.550979,-0.63317 1.77402,-1.80172 0.446988,-0.42707 1.049758,-1.03115 1.339412,-1.34241 1.04243,-1.11967 2.963217,-2.90257 3.179188,-2.95102 0.121273,-0.0273 0.437826,0.12418 0.703456,0.33645 0.37082,0.29624 0.495088,0.48903 0.535247,0.83022 l 0.05229,0.44434 -1.64991,1.60284 c -0.907454,0.88158 -2.063944,1.94864 -2.569975,2.3713 -0.513845,0.42923 -1.037832,0.96676 -1.186798,1.21754 -0.201546,0.3392 -0.40844,0.50971 -0.846283,0.69725 -0.465799,0.19959 -0.929989,0.59879 -2.365393,2.03417 l -1.785867,1.78588 0.739413,0.73939 c 0.62413,0.62416 0.744797,0.81449 0.773939,1.22095 l 0.03452,0.48147 -3.536467,3.71436 c -1.945065,2.04289 -5.026602,5.26363 -6.847858,7.15717 l -3.311381,3.44279 -0.803474,0.0905 c -0.441908,0.0498 -0.87078,0.15725 -0.953054,0.23883 -0.08223,0.0818 0.08058,0.0926 0.361933,0.0246 0.592461,-0.1436 1.374213,0.22994 1.807848,0.8638 0.85474,1.24949 -0.466015,3.64605 -2.375078,4.30971 -0.817448,0.28416 -1.320415,0.8898 -1.193293,1.43693 0.115652,0.49772 1.156006,2.55492 1.952231,3.86039 l 0.687299,1.12687 0.667257,0.22276 c 0.705607,0.23556 0.862266,0.45202 0.917946,1.26824 0.03921,0.57453 -0.984306,1.44599 -2.382154,2.02828 -1.381657,0.5756 -1.749981,0.60654 -2.320661,0.19523 -0.734581,-0.52949 -1.666506,-2.61545 -2.455101,-5.49549 -0.462166,-1.68789 -0.633863,-1.89306 -1.594355,-1.90547 -1.289033,-0.0164 -1.327534,0.0112 -3.589976,2.54555 -1.122113,1.25722 -2.040206,2.31474 -2.040204,2.35014 -1.4e-5,0.0354 0.926976,1.00326 2.059944,2.15072 2.090665,2.1175 2.600202,2.51299 4.459304,3.4614 0.217051,0.11075 1.052263,0.57174 1.856037,1.02444 0.803765,0.45273 1.610347,0.88785 1.792401,0.96697 0.264915,0.1151 0.33387,0.23525 0.345307,0.60163 0.01557,0.49836 -0.141438,0.80488 -1.234806,2.41094 -0.398287,0.58506 -0.759119,1.16288 -0.801841,1.28399 -0.160949,0.45646 -0.877681,1.26593 -1.09457,1.23623 z m 6.061335,-23.12372 c 0.712714,-1.32243 -0.206689,-2.8209 -1.523034,-2.48222 -0.550631,0.14171 -1.205229,0.77608 -1.268028,1.22893 -0.02583,0.18623 -0.140909,0.43545 -0.255714,0.55371 -0.457667,0.47148 0.727114,1.30226 1.580143,1.108 0.566574,-0.12907 0.80102,-0.0142 0.652357,0.31964 -0.149859,0.33649 -0.657937,0.80059 -0.98479,0.89955 -0.528973,0.16017 -1.919756,-0.58105 -2.07936,-1.1082 -0.06942,-0.22931 -0.121507,-0.25954 -0.24104,-0.13995 -0.124466,0.12441 -0.0049,0.29933 0.64698,0.95189 l 0.799471,0.7995 0.61375,-0.23048 c 0.706174,-0.26531 1.645001,-1.13164 2.059278,-1.90035 z m -19.615827,3.81786 c 0.02511,-0.50343 0.244904,-0.74015 0.625031,-0.67318 0.272278,0.0481 0.447584,-0.062 1.035835,-0.65033 0.584926,-0.58495 0.710423,-0.78382 0.721665,-1.14317 0.01079,-0.34589 0.09879,-0.49337 0.429246,-0.71941 0.228616,-0.15638 0.546244,-0.28435 0.70584,-0.28435 0.457911,0 1.868187,-1.46457 1.845648,-1.91667 -0.01825,-0.36578 -1.244161,-2.21635 -1.562013,-2.35793 -0.310228,-0.13815 -0.723144,0.16965 -3.493259,2.60393 -1.78415,1.56783 -1.858319,1.66535 -2.933474,3.85706 -0.145033,0.29566 -0.348083,0.62193 -0.451209,0.72504 -0.29419,0.2942 -0.25358,0.84834 0.08689,1.18548 0.43499,0.43084 1.255473,0.80143 1.65232,0.74647 0.475803,-0.0659 1.315274,-0.92767 1.337498,-1.37294 z"
       id="path8118" />       
  </g>
</svg>
