<?xml version="1.0" encoding="UTF-8" standalone="no"?>
<!-- Created with Inkscape (http://www.inkscape.org/) -->

<svg
   xmlns:dc="http://purl.org/dc/elements/1.1/"
   xmlns:cc="http://creativecommons.org/ns#"
   xmlns:rdf="http://www.w3.org/1999/02/22-rdf-syntax-ns#"
   xmlns:svg="http://www.w3.org/2000/svg"
   xmlns="http://www.w3.org/2000/svg"
   xmlns:sodipodi="http://sodipodi.sourceforge.net/DTD/sodipodi-0.dtd"
   xmlns:inkscape="http://www.inkscape.org/namespaces/inkscape"
   width="220"
   height="235"
   viewBox="0 0 58.208332 62.177085"
   version="1.1"
   id="svg8"
   inkscape:version="0.92.3 (2405546, 2018-03-11)"
   sodipodi:docname="sl8.svg">
  <defs
     id="defs2" />
  <sodipodi:namedview
     id="base"
     pagecolor="#000000"
     bordercolor="#666666"
     borderopacity="1.0"
     inkscape:pageopacity="0"
     inkscape:pageshadow="2"
     inkscape:zoom="2.8"
     inkscape:cx="141.03783"
     inkscape:cy="117.27263"
     inkscape:document-units="px"
     inkscape:current-layer="layer1"
     showgrid="false"
     units="px"
     inkscape:window-width="1590"
     inkscape:window-height="1226"
     inkscape:window-x="1589"
     inkscape:window-y="149"
     inkscape:window-maximized="0" />
  <metadata
     id="metadata5">
    <rdf:RDF>
      <cc:Work
         rdf:about="">
        <dc:format>image/svg+xml</dc:format>
        <dc:type
           rdf:resource="http://purl.org/dc/dcmitype/StillImage" />
        <dc:title />
      </cc:Work>
    </rdf:RDF>
  </metadata>
  <g
     inkscape:label="Layer 1"
     inkscape:groupmode="layer"
     id="layer1"
     transform="translate(0,-234.8229)">
    <path
       style="fill:none;stroke:#ffffff;stroke-width:0.40000001;stroke-miterlimit:4;stroke-dasharray:none;stroke-opacity:1"
       d="m 26.132816,281.66886 c 0.02909,-0.1794 -0.0128,-0.31596 -0.373594,-1.21798 -0.185111,-0.4628 -0.275705,-0.69791 -0.595652,-1.54589 -0.07583,-0.20097 -0.146311,-0.37385 -0.156629,-0.38416 -0.01032,-0.0103 -0.115909,-0.28236 -0.234651,-0.60454 -0.707009,-1.91831 -0.701731,-1.88158 -0.287044,-1.99775 0.142338,-0.0399 0.463392,-0.1389 0.713452,-0.22005 0.561666,-0.18227 0.699461,-0.31305 1.760024,-1.67043 0.662189,-0.84752 0.771696,-1.01557 0.777227,-1.19274 0.0086,-0.27553 0.09591,-0.2454 0.508099,0.17536 0.298219,0.30441 0.344742,0.33295 0.420052,0.25764 0.08595,-0.0859 -0.01824,-0.42107 -0.291413,-0.93729 -0.158383,-0.2993 -0.131421,-0.6785 0.03632,-0.51076 0.05153,0.0515 0.123678,0.0162 0.345924,-0.16922 0.03606,-0.0301 0.111751,0.0196 0.202606,0.13306 0.128808,0.16081 0.137241,0.16342 0.07532,0.0233 -0.05336,-0.12076 -0.01834,-0.0951 0.149143,0.1091 0.16247,0.19815 0.224171,0.24445 0.239455,0.17971 0.01522,-0.0644 0.05881,-0.0329 0.167079,0.12076 0.09104,0.12925 0.138949,0.16939 0.126567,0.10604 -0.0251,-0.12843 0.812316,0.47156 0.843697,0.60449 0.01228,0.052 0.02865,0.0607 0.03821,0.0202 0.0094,-0.04 0.222508,0.0641 0.490012,0.23958 0.260313,0.17073 0.515608,0.32926 0.567323,0.35229 0.05548,0.0247 0.06275,0.0493 0.01772,0.0599 -0.04197,0.01 -0.07253,0.0936 -0.06793,0.18594 0.0066,0.13281 0.05807,0.20467 0.245923,0.34353 0.227844,0.16842 0.243817,0.16932 0.391024,0.0221 0.08441,-0.0844 0.433736,-0.58243 0.776279,-1.1067 0.342541,-0.52427 0.956274,-1.45936 1.363851,-2.07797 l 0.74105,-1.12475 -0.277868,-0.25286 c -0.152829,-0.13907 -0.317552,-0.2571 -0.366054,-0.26229 -0.132573,-0.0142 -1.857026,-1.18824 -1.931075,-1.31473 -0.03893,-0.0665 -0.07136,-0.0798 -0.08222,-0.0338 -0.01151,0.0487 -0.06933,0.011 -0.161288,-0.10525 -0.08365,-0.10576 -0.15018,-0.15231 -0.159743,-0.11179 -0.0098,0.0415 -0.08077,-0.0149 -0.176399,-0.14012 -0.09246,-0.12111 -0.201973,-0.20957 -0.259431,-0.20957 -0.07189,-1e-5 -0.09943,-0.0302 -0.09943,-0.10922 -10e-7,-0.0601 -0.04018,-0.1494 -0.08929,-0.19851 -0.200193,-0.20019 -0.449157,-1.79757 -0.329878,-2.11652 0.03229,-0.0863 0.04528,-0.1704 0.02888,-0.1868 -0.01641,-0.0164 0.006,-0.15769 0.04985,-0.31398 0.08657,-0.30875 0.45786,-0.94228 1.378145,-2.35148 0.325825,-0.49892 0.643533,-1.00035 0.706018,-1.11428 0.07064,-0.1288 1.430925,-1.5455 3.596923,-3.7461 l 3.483312,-3.53897 0.264219,-0.0681 c 0.374903,-0.0967 0.798165,-0.52424 0.854958,-0.86366 0.04059,-0.24258 0.064,-0.26923 1.712416,-1.94963 1.626848,-1.65843 1.678794,-1.70615 1.955002,-1.79573 0.204934,-0.0665 0.368415,-0.17671 0.588612,-0.39691 l 0.304871,-0.30487 0.524239,-0.0124 c 0.509219,-0.012 0.529505,-0.019 0.708298,-0.24322 0.161791,-0.20289 0.184354,-0.30599 0.186453,-0.85194 0.0012,-0.34161 0.04792,-0.71013 0.103571,-0.81894 0.09707,-0.18979 0.09115,-0.20898 -0.14561,-0.47185 -0.150227,-0.16681 -0.361366,-0.32958 -0.539614,-0.41603 -0.498108,-0.2416 -0.619377,-0.31605 -0.579586,-0.35585 0.02111,-0.0211 0.204606,0.0514 0.407769,0.16107 l 0.369388,0.19946 0.908768,-0.90877 c 0.49982,-0.49982 2.491933,-2.51023 4.426891,-4.4676 l 3.518127,-3.55883 -0.102557,-0.29502 c -0.120608,-0.34695 -0.453646,-0.65796 -0.776595,-0.72523 l -0.203854,-0.0425 -4.101458,4.14854 c -2.255801,2.2817 -4.29981,4.37 -4.542244,4.64066 -0.471848,0.52678 -0.475494,0.54365 -0.149128,0.69021 0.0934,0.0419 0.169822,0.0923 0.169822,0.11181 0,0.0195 -0.460911,-0.19076 -1.024248,-0.46736 -0.563337,-0.27661 -1.11344,-0.50634 -1.222452,-0.51051 -0.109013,-0.004 -0.304357,0.0527 -0.434099,0.12648 -0.171329,0.0974 -1.489649,1.40537 -4.816508,4.77873 -2.519336,2.55455 -4.597049,4.68154 -4.61714,4.72665 0.0557,-0.002 -0.236434,-0.11214 -0.381835,-0.0929 -0.129026,0.0177 -0.123124,-0.002 0.05586,-0.1832 0.181257,-0.184 0.771429,-0.82899 3.938259,-4.30496 0.548877,-0.60246 1.898464,-2.07752 2.99908,-3.27792 2.35042,-2.5635 2.282879,-2.45542 1.729872,-2.76809 -0.126894,-0.0718 -0.277967,-0.12546 -0.335721,-0.11936 -0.05775,0.006 -0.208033,-0.0693 -0.333956,-0.16756 -0.125922,-0.0983 -0.25802,-0.16412 -0.293544,-0.14636 -0.03552,0.0178 -0.124963,-0.0281 -0.198749,-0.10186 -0.07727,-0.0773 -0.174211,-0.11632 -0.228614,-0.0921 -0.05196,0.0231 -0.122433,0.0141 -0.15663,-0.0201 -0.0342,-0.0342 -0.188848,-0.11066 -0.343668,-0.16992 -0.154823,-0.0593 -0.399683,-0.17387 -0.544137,-0.25468 -0.371963,-0.20808 -0.896534,-0.3765 -1.012208,-0.32499 -0.05397,0.0241 -0.215072,0.19729 -0.357967,0.385 -0.235187,0.30894 -0.253993,0.36328 -0.198354,0.5732 0.08837,0.33339 0.345397,0.86597 0.485584,1.00615 0.137768,0.13777 0.137408,0.19609 -0.0042,0.67843 -0.0568,0.19349 -0.107501,0.44302 -0.112674,0.55451 -0.0052,0.11149 -0.02311,0.21642 -0.03987,0.23318 -0.01675,0.0168 -0.0036,0.0521 0.02921,0.0785 0.03761,0.0303 -0.03439,0.16019 -0.194734,0.35136 -0.139922,0.16682 -2.536956,2.60789 -5.326741,5.42461 -5.942996,6.00037 -7.384311,7.49658 -7.301412,7.57948 0.129686,0.12968 -0.104563,0.40135 -0.265059,0.3074 -0.156332,-0.0915 -0.388762,0.13095 -0.265551,0.25416 0.116016,0.11602 -0.09798,0.33002 -0.276088,0.27609 -0.183238,-0.0555 -0.385015,0.15498 -0.264307,0.27569 0.131349,0.13135 -0.122642,0.382 -0.288635,0.28482 -0.107967,-0.0632 -0.146086,-0.0377 -0.483135,0.32386 -0.317137,0.34015 -0.35446,0.40225 -0.279962,0.46579 0.0663,0.0565 0.05068,0.10859 -0.06826,0.22754 -0.126778,0.12677 -0.171384,0.13705 -0.250669,0.0578 l -0.09645,-0.0965 -1.443339,1.49188 c -0.793839,0.82053 -1.446695,1.49876 -1.450797,1.50718 -0.0041,0.008 0.02087,0.0436 0.05549,0.0783 0.03463,0.0346 0.0195,0.12695 -0.03362,0.20518 -0.07297,0.10746 -0.123022,0.12673 -0.204785,0.0789 -0.13593,-0.0796 -0.408398,0.16132 -0.30238,0.26734 0.04551,0.0455 0.02275,0.11377 -0.06826,0.20478 -0.09101,0.091 -0.159275,0.11377 -0.204782,0.0683 -0.04551,-0.0455 -0.113769,-0.0227 -0.204784,0.0683 -0.09101,0.091 -0.113768,0.15928 -0.06826,0.20479 0.0427,0.0427 0.02512,0.11139 -0.04694,0.18345 -0.06336,0.0634 -0.157701,0.0963 -0.209651,0.0731 -0.05384,-0.024 -0.151064,0.0145 -0.226109,0.0896 -0.08669,0.0867 -0.108337,0.15497 -0.06339,0.19992 0.04551,0.0455 0.02275,0.11376 -0.06826,0.20478 -0.09102,0.091 -0.159275,0.11377 -0.204782,0.0683 -0.0427,-0.0427 -0.1114,-0.0251 -0.183458,0.0469 -0.06336,0.0634 -0.09627,0.15771 -0.07313,0.20966 0.02314,0.0519 -0.0069,0.14345 -0.06683,0.20335 -0.06646,0.0665 -0.1355,0.0823 -0.177159,0.0406 -0.05562,-0.0556 -0.144108,0.008 -0.477828,0.3413 -0.389587,0.38959 -0.414364,0.40477 -0.508054,0.31108 -0.05417,-0.0542 -0.364962,-0.17336 -0.690654,-0.26487 -0.447192,-0.12566 -0.681082,-0.14992 -0.955356,-0.0991 -0.297101,0.055 -0.399908,0.0407 -0.564972,-0.0785 -0.153512,-0.11092 -0.216924,-0.12343 -0.265074,-0.0523 -0.04856,0.0717 -0.02205,0.12818 0.113868,0.24254 l 0.17716,0.14905 -0.366278,0.4219 c -0.257455,0.29655 -0.385568,0.49672 -0.43121,0.67373 -0.03571,0.1385 -0.100643,0.26025 -0.14429,0.27056 -0.04422,0.0104 -0.04525,0.0268 -0.0023,0.0369 0.06921,0.0163 -0.218277,1.24335 -0.313669,1.33874 -0.08241,0.0824 -0.01828,0.45338 0.09858,0.57024 0.08979,0.0898 0.127232,0.28337 0.136399,0.70524 l 0.01264,0.58147 0.349872,0.39538 0.349873,0.39538 -0.193422,0.19342 c -0.159328,0.15933 -0.178266,0.20858 -0.107408,0.27941 0.118599,0.11856 0.07624,0.33701 -0.100234,0.51694 -0.08413,0.0858 -0.130944,0.1888 -0.10857,0.23904 0.02162,0.0485 -0.01777,0.1717 -0.08752,0.27367 -0.06975,0.10199 -0.111633,0.20062 -0.09305,0.2192 0.01858,0.0186 0.04336,0.50412 0.05507,1.07898 0.01632,0.80091 -0.0059,1.07232 -0.09522,1.16123 -0.111673,0.11132 -0.133807,0.10253 -0.538663,-0.21307 -0.232182,-0.18099 -0.512972,-0.36096 -0.62398,-0.39993 l -0.201831,-0.0709 -1.96258,1.99505 c -1.0794227,1.09728 -2.7299738,2.77242 -3.6679042,3.72254 -1.2141524,1.22991 -1.7084461,1.76104 -1.7161571,1.84404 -0.01596,0.17169 0.283212,0.70072 0.5697317,1.00747 l 0.250177,0.26783 -1.2409354,1.24878 c -0.6825027,0.68683 -1.3721981,1.41816 -1.5326311,1.62518 -0.242521,0.31295 -0.3696137,0.42428 -0.7539207,0.6604 -0.6054791,0.37201 -0.6903781,0.46296 -0.6432717,0.68911 0.06262,0.30064 0.287306,0.53341 1.2533834,1.29849 0.5028287,0.39822 1.4101194,1.17778 2.0162058,1.73236 1.0632464,0.97291 1.2312624,1.14947 3.1064835,3.26465 0.4967367,0.56029 0.7450294,0.70723 0.9687484,0.57328 0.1482667,-0.0888 0.2072377,-0.17176 0.5609477,-0.7894 0.2647617,-0.46231 0.3580117,-0.50662 0.5861197,-0.27852 0.08147,0.0815 0.204343,0.14291 0.273045,0.13653 0.0687,-0.006 0.145745,0.009 0.171207,0.0347 0.08939,0.0894 0.328363,0.006 0.517841,-0.18054 0.223873,-0.22043 0.296418,-0.64269 0.138039,-0.80309 -0.05358,-0.0546 -0.129137,-0.15342 -0.16752,-0.21999 -0.06798,-0.11787 -0.0384,-0.15401 1.136171,-1.38824 2.314873,-2.43244 2.880817,-3.05104 2.94201,-3.21569 0.03367,-0.0906 0.03441,-0.27418 0.0016,-0.40793 -0.204065,-0.83276 -0.153915,-1.76455 0.131059,-2.43493 0.138851,-0.32664 0.230561,-0.4437 0.752622,-0.96065 0.681896,-0.67522 0.392036,-0.55124 2.932425,-1.25425 0.156832,-0.0434 0.667978,-0.18756 1.135882,-0.32035 1.402227,-0.39796 1.543937,-0.43752 1.956736,-0.54617 0.217954,-0.0574 0.73003,-0.20059 1.137946,-0.31829 0.407916,-0.11769 0.835398,-0.23122 0.949959,-0.25229 0.114562,-0.0211 0.219733,-0.0497 0.233713,-0.0637 0.01398,-0.014 0.247485,-0.0791 0.518901,-0.14464 0.570985,-0.13795 0.839862,-0.31322 0.882335,-0.57518 z m -1.021548,-6.18654 c -0.560456,0.18621 -0.960264,0.26207 -1.077461,0.20445 -0.140187,-0.0689 -0.527449,-1.00344 -0.550896,-1.3294 -0.02441,-0.3393 0.06658,-0.47323 0.342566,-0.50423 l 0.229431,-0.0258 0.105859,0.2579 c 0.124877,0.30424 0.544376,0.68355 0.870912,0.78749 0.349313,0.11118 0.727077,0.11764 0.831968,0.0142 0.08157,-0.0805 0.09515,-0.0775 0.07688,0.0167 -0.0324,0.16716 -0.433819,0.44726 -0.829255,0.57864 z m 0.96316,-0.80041 c 0.01886,-0.0839 -0.04476,-0.10993 -0.32158,-0.13141 -0.602863,-0.0468 -1.175337,-0.47535 -1.333299,-0.99812 -0.14035,-0.46448 -0.116061,-0.5263 0.497805,-1.26698 0.307868,-0.37147 0.581329,-0.6754 0.60769,-0.6754 0.02635,0 0.09108,0.0323 0.143819,0.0717 0.140649,0.10521 0.344745,-0.0731 0.316276,-0.27626 -0.02149,-0.1534 0.03999,-0.10186 0.775173,0.64988 0.695735,0.7114 0.790988,0.82797 0.74003,0.90563 -0.06836,0.10418 -1.238036,1.58699 -1.363907,1.72904 -0.06585,0.0743 -0.08011,0.0725 -0.06201,-0.008 z m -6.472237,5.80635 c -0.721543,0.43296 -1.336358,0.38691 -1.867152,-0.13988 -0.697708,-0.69243 -0.508077,-1.68407 0.516466,-2.70074 1.040908,-1.03289 1.970581,-1.26542 2.654033,-0.6638 0.662579,0.58325 0.635359,1.4135 -0.07816,2.38382 -0.271987,0.36988 -0.840198,0.88958 -1.225187,1.1206 z"
       id="path862"
       inkscape:connector-curvature="0"
       sodipodi:nodetypes="cscssccsccscsccccccccccccccsccccccccccccscscscscccccscccccccsccsccccccccscccscccssccccscscccccsccsccsscscscccsscccsccsssssscssssscsssscsscscccccssscccsccccsscsccccccccccccccccsssccccccccscssssscccccccccccccccccccccccsccscscc" />
  </g>
</svg>
