<?xml version="1.0" encoding="UTF-8" standalone="no"?>
<!-- Created with Inkscape (http://www.inkscape.org/) -->

<svg
   xmlns:dc="http://purl.org/dc/elements/1.1/"
   xmlns:cc="http://creativecommons.org/ns#"
   xmlns:rdf="http://www.w3.org/1999/02/22-rdf-syntax-ns#"
   xmlns:svg="http://www.w3.org/2000/svg"
   xmlns="http://www.w3.org/2000/svg"
   xmlns:sodipodi="http://sodipodi.sourceforge.net/DTD/sodipodi-0.dtd"   
   width="220"
   height="235"
   viewBox="0 0 58.208332 62.177085"
   version="1.1"
   id="svg8"   
   sodipodi:docname="sr-25.svg" >
  <defs
     id="defs2" />
  <sodipodi:namedview
     id="base"
     pagecolor="#000000"
     bordercolor="#666666"
     borderopacity="1.0"
     showgrid="false"
     units="px"
     showguides="false" />
  <metadata
     id="metadata5">
    <rdf:RDF>
      <cc:Work
         rdf:about="">
        <dc:format>image/svg+xml</dc:format>
        <dc:type
           rdf:resource="http://purl.org/dc/dcmitype/StillImage" />
        <dc:title></dc:title>
      </cc:Work>
    </rdf:RDF>
  </metadata>
  <g    
     id="layer1"
     transform="translate(0,-234.8229)">
    <path
       style="fill:none;stroke:#ffffff;stroke-width:0.4;stroke-opacity:1;stroke-miterlimit:4;stroke-dasharray:none"
       d="m 28.757893,276.17777 -1.781447,-1.81725 -0.322485,0.36622 c -0.177357,0.20147 -0.506941,0.63266 -0.732387,0.95823 l -0.409906,0.59198 -0.34188,0.13125 c -0.248835,0.0955 -0.477542,0.25576 -0.840389,0.58876 -0.56506,0.51861 -0.55237,0.4762 -0.353955,1.18226 0.141513,0.50357 0.235941,0.61784 0.540632,0.65423 0.303678,0.0362 0.310224,0.0561 0.09036,0.27613 -0.111376,0.11136 -0.196895,0.26875 -0.204814,0.37688 -0.01511,0.20645 0.537901,2.13043 0.642376,2.23489 0.03645,0.0364 0.169087,0.11446 0.294758,0.1734 0.2047,0.0959 0.225901,0.12484 0.203592,0.27733 -0.01719,0.11756 -0.09494,0.22187 -0.251333,0.33715 -0.431563,0.31808 -2.768529,1.70537 -2.909802,1.72725 -0.141171,0.0221 -0.259871,-0.54541 -1.098803,-5.25169 -0.115928,-0.65036 -0.197358,-0.82902 -0.528896,-1.16056 -0.613823,-0.61382 -1.37311,-0.67824 -2.024316,-0.17167 -0.170949,0.13296 -0.589177,0.5482 -0.929387,0.92266 -0.340211,0.37447 -0.667851,0.70281 -0.728125,0.72958 -0.09188,0.041 -0.188095,-0.0326 -0.598048,-0.458 l -0.488532,-0.50678 -0.780817,0.7808 -0.780824,0.78079 -0.172142,0.5409 -0.172145,0.54092 -0.86557,0.86559 c -0.844057,0.84403 -0.864968,0.8706 -0.841494,1.06713 0.02667,0.2233 -0.08431,0.60507 -0.248803,0.85575 -0.06693,0.10204 -0.07528,0.19528 -0.02223,0.24858 0.08233,0.0828 0.258885,0.56714 0.340937,0.93551 0.03395,0.15246 -0.0048,0.22437 -0.235245,0.45649 -0.213116,0.21314 -0.273438,0.31804 -0.266211,0.46287 0.0077,0.15704 -0.05311,0.24978 -0.376372,0.57307 l -0.385709,0.38572 0.1733,0.17331 c 0.143603,0.14357 0.15909,0.20541 0.09036,0.36077 -0.131162,0.29648 -0.374924,0.37753 -0.608876,0.20238 -0.178962,-0.134 -0.212403,-0.13226 -0.392811,0.0208 -0.175831,0.14885 -0.217975,0.29316 -0.389041,1.33177 -0.22825,1.3858 -0.2576664,1.49287 -0.4402492,1.60219 -0.1615063,0.0966 -0.3243371,0.0194 -0.6593287,-0.31392 L 8.7150907,289.976 8.5679578,290.7854 c -0.2427037,1.33511 -0.4910375,2.78526 -0.5907666,3.44978 -0.051652,0.34416 -0.1120899,0.66656 -0.1343149,0.71645 -0.022213,0.0499 0.022884,0.18326 0.100258,0.29636 l 0.1406586,0.20562 -0.3718088,0.3188 c -0.2045023,0.17531 -0.4287953,0.32408 -0.4984429,0.33055 -0.2761392,0.0254 -0.6268306,-0.28595 -3.2604424,-2.89727 -3.08671986,-3.06061 -2.95456151,-2.88651 -2.5657404,-3.38003 0.1308547,-0.1661 2.1643237,-2.23174 4.5188242,-4.59029 4.0741677,-4.08121 4.2907584,-4.28963 4.4865484,-4.31427 0.187764,-0.0237 0.373138,-0.18775 2.132431,-1.88678 2.022572,-1.95333 2.247616,-2.20123 2.06999,-2.28035 -0.0901,-0.0402 -0.06056,-0.0831 0.205728,-0.29966 0.26225,-0.21316 0.308886,-0.27973 0.29766,-0.42468 -0.0069,-0.0944 0.01641,-0.17891 0.05275,-0.18746 0.03634,-0.01 0.09616,-0.0737 0.132896,-0.14454 0.0576,-0.1112 0.02316,-0.17266 -0.249446,-0.44527 l -0.316269,-0.31628 0.669166,-0.68293 c 0.368052,-0.37559 0.75015,-0.75682 0.849051,-0.8472 0.198027,-0.18069 0.282331,-0.42023 0.140477,-0.39909 -0.132,0.02 -0.368834,-0.22602 -0.321131,-0.3332 0.03185,-0.0715 -0.07087,-0.20758 -0.420482,-0.55716 -0.351224,-0.35124 -0.459583,-0.49508 -0.450063,-0.59755 0.0063,-0.0743 -0.03728,-0.18482 -0.09821,-0.24574 -0.251969,-0.25194 -0.357003,-0.47903 -0.264397,-0.57163 0.07873,-0.0787 0.130842,-0.0537 0.356587,0.17215 0.175035,0.17505 0.310005,0.26019 0.399352,0.25188 0.102405,-0.0101 0.246166,0.0987 0.596015,0.44854 0.391998,0.39196 0.472983,0.44914 0.540611,0.3815 0.10763,-0.1076 0.701225,-0.14048 0.955745,-0.0528 0.227633,0.0784 0.410773,-0.0466 0.483672,-0.32947 0.03411,-0.13243 0.05939,-0.15767 0.126347,-0.12637 0.107543,0.0505 0.350852,-0.19123 0.350918,-0.34831 -10e-7,-0.0949 0.03304,-0.12808 0.156667,-0.15666 0.188577,-0.0436 0.423428,-0.2638 0.354664,-0.33252 -0.02703,-0.027 -0.0049,-0.0932 0.04916,-0.14754 0.05407,-0.0541 0.120458,-0.0762 0.147499,-0.0493 0.02705,0.0271 0.115539,-0.0173 0.196664,-0.0983 0.08112,-0.0811 0.125377,-0.16965 0.09834,-0.19668 -0.02705,-0.0269 -0.0049,-0.0934 0.04917,-0.1475 0.05406,-0.0541 0.120456,-0.0761 0.147498,-0.0492 0.06926,0.0694 0.288704,-0.16628 0.335282,-0.35981 0.0324,-0.13474 0.05942,-0.15626 0.161073,-0.12833 0.129452,0.0354 0.41774,-0.26943 0.333903,-0.35322 -0.02398,-0.0241 -0.0104,-0.0768 0.03017,-0.11736 0.04058,-0.0408 0.09587,-0.0517 0.122919,-0.0245 0.06964,0.0696 0.393276,-0.27057 0.346462,-0.36414 -0.03975,-0.0795 0.05812,-0.13427 0.31672,-0.17724 0.118128,-0.0198 0.152454,-0.0541 0.172083,-0.17214 0.04626,-0.27847 0.09514,-0.34653 0.222749,-0.31055 0.165923,0.047 0.338518,-0.13024 0.309432,-0.31749 -0.0218,-0.14037 -0.01388,-0.1483 0.156791,-0.1568 0.220822,-0.0112 0.412274,-0.18976 0.350881,-0.32763 -0.0586,-0.13159 0.05146,-0.24164 0.18306,-0.18305 0.132457,0.0591 0.3676,-0.17616 0.308609,-0.30861 -0.02498,-0.0563 -0.01395,-0.13355 0.02458,-0.17207 0.03851,-0.0386 0.115954,-0.0498 0.172081,-0.0246 0.135457,0.0605 0.302933,-0.11529 0.31358,-0.32879 0.0077,-0.1594 0.02046,-0.17193 0.179828,-0.17985 0.221576,-0.0113 0.355341,-0.14809 0.326417,-0.33443 -0.02179,-0.14036 -0.01385,-0.14829 0.15679,-0.15677 0.230137,-0.012 0.398986,-0.18005 0.350929,-0.35024 -0.03549,-0.12567 -0.02812,-0.13303 0.141518,-0.14147 0.225333,-0.0117 0.357693,-0.14102 0.368683,-0.36144 0.0077,-0.15938 0.02043,-0.17185 0.179827,-0.17984 0.212892,-0.0108 0.32742,-0.11951 0.311039,-0.29579 -0.02448,-0.26354 0.110508,-0.28279 0.344162,-0.0493 0.121689,0.12171 0.243379,0.19912 0.27042,0.17213 0.02705,-0.0271 -0.01722,-0.11555 -0.09834,-0.19666 -0.115477,-0.11549 -0.125818,-0.1692 -0.04761,-0.24741 0.05492,-0.0549 0.07944,-0.14579 0.05441,-0.2019 -0.05868,-0.13176 0.06491,-0.25537 0.196672,-0.19667 0.137555,0.0612 0.302982,-0.11646 0.314009,-0.33733 0.0084,-0.17063 0.01642,-0.17855 0.156787,-0.15675 0.181394,0.0284 0.413569,-0.18863 0.351429,-0.32817 -0.05867,-0.13176 0.06489,-0.25535 0.196665,-0.19668 0.138957,0.0619 0.320771,-0.13435 0.292601,-0.31581 -0.0218,-0.14038 -0.01387,-0.14834 0.156789,-0.15683 0.22082,-0.0114 0.412275,-0.18976 0.350883,-0.32766 -0.025,-0.0561 -0.01395,-0.13355 0.02458,-0.17204 0.0385,-0.0385 0.115956,-0.0497 0.172082,-0.0245 0.0561,0.0249 0.15569,-0.01 0.221251,-0.0736 0.06557,-0.0654 0.09874,-0.16514 0.07373,-0.22126 -0.02499,-0.0561 -0.01392,-0.13354 0.02458,-0.17206 0.03849,-0.0387 0.115957,-0.0496 0.172082,-0.0245 0.05818,0.0256 0.163212,-0.0154 0.244293,-0.0968 0.09365,-0.0935 0.117047,-0.16742 0.0685,-0.21599 -0.0951,-0.095 0.02264,-0.21282 0.196669,-0.19664 0.17426,0.0161 0.371461,-0.18101 0.312778,-0.31281 -0.02499,-0.0561 -0.01395,-0.13352 0.02459,-0.17208 0.03852,-0.0387 0.115956,-0.0498 0.172089,-0.0245 0.132452,0.0591 0.367594,-0.17615 0.3086,-0.30857 -0.025,-0.0561 -0.01396,-0.1336 0.02457,-0.17211 0.03852,-0.0387 0.115958,-0.0498 0.172088,-0.0245 0.132401,0.0591 0.353961,-0.16259 0.294993,-0.295 -0.05869,-0.13176 0.06491,-0.25532 0.19667,-0.19667 0.135455,0.0603 0.302929,-0.11528 0.313581,-0.32877 0.0077,-0.15941 0.02044,-0.17192 0.179827,-0.17988 0.221576,-0.0114 0.355343,-0.14809 0.326417,-0.33444 -0.0218,-0.14032 -0.01386,-0.14823 0.156789,-0.15679 0.220848,-0.0113 0.398543,-0.17647 0.337276,-0.31402 -0.05868,-0.13175 0.0649,-0.25533 0.196666,-0.19664 0.132459,0.0591 0.367594,-0.17615 0.308606,-0.30861 -0.05822,-0.13072 0.04159,-0.23053 0.214443,-0.21445 0.173904,0.016 0.335786,-0.14572 0.277222,-0.27725 -0.05822,-0.1307 0.04159,-0.23052 0.214449,-0.21439 0.18149,0.0171 0.338577,-0.15203 0.31038,-0.33366 -0.02177,-0.14036 -0.01388,-0.14829 0.156787,-0.15681 0.220851,-0.0114 0.398545,-0.17642 0.337274,-0.314 -0.02498,-0.0559 -0.01397,-0.13357 0.02458,-0.17212 0.03851,-0.0386 0.115955,-0.0497 0.17208,-0.0243 0.132402,0.059 0.353967,-0.16258 0.294999,-0.29499 -0.02497,-0.0559 -0.01088,-0.13665 0.0314,-0.17888 0.04225,-0.0421 0.122758,-0.0564 0.178887,-0.0315 0.05612,0.0248 0.152631,-0.01 0.214448,-0.0669 0.06184,-0.0618 0.09192,-0.15836 0.06695,-0.21446 -0.05834,-0.13092 0.05492,-0.24414 0.228051,-0.22805 0.173898,0.0159 0.335784,-0.14573 0.277218,-0.27722 -0.05882,-0.1321 0.100159,-0.29105 0.232225,-0.23224 0.132241,0.0589 0.318333,-0.12718 0.259438,-0.25944 -0.05823,-0.13077 0.0571,-0.24603 0.246056,-0.24603 0.190523,0 0.35865,-0.16816 0.263393,-0.26341 -0.09543,-0.0953 0.07123,-0.26205 0.245831,-0.24581 0.174609,0.016 0.341252,-0.15043 0.245837,-0.24585 -0.09543,-0.0953 0.07124,-0.26208 0.245831,-0.24584 0.174608,0.016 0.341251,-0.15039 0.245835,-0.24584 -0.09655,-0.0965 0.07209,-0.26198 0.250183,-0.24543 0.15971,0.0148 0.349405,-0.19981 0.240318,-0.272 -0.105574,-0.0698 0.155907,-0.30599 0.278381,-0.25143 0.132068,0.059 0.291045,-0.10017 0.232231,-0.23225 -0.05857,-0.13147 0.103317,-0.29334 0.277214,-0.27723 0.17316,0.0158 0.286368,-0.0971 0.228053,-0.22804 -0.0585,-0.13136 0.08988,-0.27977 0.263616,-0.26361 0.174604,0.016 0.34125,-0.15042 0.245834,-0.24582 -0.09755,-0.0976 0.128614,-0.32374 0.263613,-0.26363 0.133179,0.0593 0.324299,-0.13179 0.228049,-0.22804 -0.09796,-0.098 0.141674,-0.33761 0.27722,-0.27724 0.132762,0.0592 0.31039,-0.11851 0.214448,-0.21445 -0.09796,-0.0979 0.141671,-0.33756 0.277216,-0.27722 0.132762,0.0593 0.310394,-0.11849 0.214449,-0.21447 -0.09702,-0.0969 0.117462,-0.31143 0.294999,-0.29495 0.172871,0.0159 0.272666,-0.0837 0.214448,-0.21445 -0.05896,-0.1324 0.162596,-0.35397 0.294996,-0.29502 0.131896,0.0588 0.269018,-0.0784 0.210277,-0.21028 -0.05896,-0.13238 0.162593,-0.35397 0.294997,-0.29498 0.131761,0.0588 0.255349,-0.0649 0.196667,-0.19667 -0.05895,-0.13234 0.149047,-0.34032 0.281388,-0.2814 0.133187,0.0594 0.324305,-0.13177 0.228055,-0.22803 -0.09795,-0.0979 0.141674,-0.33758 0.277218,-0.27725 0.132762,0.0591 0.310396,-0.11849 0.214453,-0.21444 -0.04275,-0.0427 -0.02919,-0.11824 0.03218,-0.17966 0.102097,-0.1021 0.09927,-0.10633 -0.07751,-0.11512 -0.155127,-0.01 -0.304093,-0.12424 -0.964174,-0.75428 -0.742648,-0.70878 -0.778443,-0.75259 -0.734324,-0.89828 0.0255,-0.0841 0.113015,-0.20602 0.194472,-0.27063 0.133054,-0.1055 0.176384,-0.0957 0.426497,0.0958 0.153126,0.11732 0.470104,0.4011 0.7044,0.63068 l 0.426006,0.41741 0.115507,-0.15493 c 0.145828,-0.1956 0.67253,-0.27852 0.962458,-0.15151 0.112832,0.0495 0.434504,0.30296 0.714827,0.56351 0.280318,0.2605 0.54788,0.49073 0.594577,0.51167 0.06665,0.03 0.739012,-0.61611 3.129045,-3.00615 3.002779,-3.00277 3.043179,-3.04579 2.971507,-3.16815 -0.06063,-0.10359 -0.03126,-0.16543 0.177824,-0.37452 0.13774,-0.13774 0.228307,-0.27253 0.201265,-0.29961 -0.02704,-0.027 -0.01599,-0.0823 0.02458,-0.12291 0.04058,-0.0407 0.09365,-0.0539 0.117964,-0.0298 0.07656,0.0765 0.535791,-0.31554 1.97155,-1.68342 0.766356,-0.73007 1.426283,-1.32734 1.466535,-1.32728 0.09729,1.5e-4 0.817406,0.70913 0.940137,0.92558 l 0.09674,0.17063 -1.32203,1.35643 c -0.727121,0.74603 -1.567949,1.63419 -1.868505,1.9736 -0.525737,0.59374 -0.551295,0.61435 -0.673345,0.5429 -0.1263,-0.0739 -0.14031,-0.0606 -3.168989,2.9932 l -3.042116,3.06746 0.245833,0.29499 0.24583,0.29503 -0.968616,0.9953 c -0.794457,0.8164 -0.962854,1.01574 -0.936607,1.10873 0.02779,0.0983 -0.429852,0.57518 -3.457924,3.60325 -3.056803,3.05681 -3.502587,3.48429 -3.591979,3.44448 -0.08978,-0.0402 -0.700675,0.55318 -5.081463,4.93396 l -4.979424,4.97942 -0.147733,-0.0736 c -0.114101,-0.0567 -0.09192,-0.008 0.09734,0.23173 0.291455,0.36299 0.317396,0.5161 0.133079,0.78556 -0.07582,0.11083 -0.118441,0.26579 -0.09466,0.34429 0.02378,0.0786 0.362784,0.46233 0.753351,0.85288 0.571245,0.57124 0.736526,0.70769 0.845086,0.69759 0.264289,-0.0245 0.303911,0.18775 0.07732,0.41438 -0.08005,0.08 0.01995,0.19869 1.300064,1.54273 0.762731,0.80079 1.569424,1.6083 1.792642,1.79447 0.368617,0.30736 0.400036,0.34957 0.342336,0.46032 -0.03493,0.067 -0.08213,0.18386 -0.10486,0.2595 -0.02275,0.0756 -0.191728,0.32701 -0.375548,0.55861 -0.183821,0.23156 -0.490013,0.66355 -0.680431,0.95987 -0.190408,0.29633 -0.575066,0.8409 -0.854795,1.21019 -0.279727,0.36926 -0.622852,0.82776 -0.7625,1.01885 -0.139653,0.19109 -0.292508,0.38603 -0.339686,0.43316 -0.08036,0.0804 -0.198379,-0.0293 -1.867228,-1.73147 z m -2.908274,-0.97662 c 0.26743,-0.38153 0.511397,-0.76327 0.542142,-0.84826 0.126217,-0.34881 -0.343356,-0.93531 -0.825726,-1.03128 -0.448657,-0.0893 -0.716424,0.0386 -1.296836,0.61871 -0.277224,0.27713 -0.48367,0.52421 -0.458774,0.54911 0.0249,0.0245 -0.0096,0.13099 -0.07663,0.23578 -0.08835,0.13814 -0.15742,0.18499 -0.251074,0.17043 -0.1093,-0.017 -0.141988,0.0124 -0.21234,0.18819 -0.126906,0.31781 -0.08305,0.66507 0.121658,0.96383 0.317677,0.46366 0.840488,0.57008 1.388435,0.2828 0.388254,-0.20368 0.512005,-0.33435 1.069152,-1.1293 z"       
       id="path8155"
       sodipodi:nodetypes="cccccccscscscccccscccccccccsccccscccscccsccccccccccsccccsccccscccccscssscsssccccsssssssccsssccccccccssccccccccccsssscscccccccscscscssccscssccccccccccccccccsccscscsccccscscscccccccscscscscccccccscsscccccccccccscsssscccccscccccccscscccccscsscccssccsccccccscccsccc" />
  </g>
</svg>
