<?xml version="1.0" encoding="UTF-8" standalone="no"?>
<!-- Created with Inkscape (http://www.inkscape.org/) -->

<svg
   xmlns:dc="http://purl.org/dc/elements/1.1/"
   xmlns:cc="http://creativecommons.org/ns#"
   xmlns:rdf="http://www.w3.org/1999/02/22-rdf-syntax-ns#"
   xmlns:svg="http://www.w3.org/2000/svg"
   xmlns="http://www.w3.org/2000/svg"
   xmlns:sodipodi="http://sodipodi.sourceforge.net/DTD/sodipodi-0.dtd"
   xmlns:inkscape="http://www.inkscape.org/namespaces/inkscape"
   width="220"
   height="235"
   viewBox="0 0 58.208332 62.177085"
   version="1.1"
   id="svg8"
   inkscape:version="0.92.3 (2405546, 2018-03-11)"
   sodipodi:docname="sr-3m.svg">
  <defs
     id="defs2" />
  <sodipodi:namedview
     id="base"
     pagecolor="#000000"
     bordercolor="#666666"
     borderopacity="1.0"
     inkscape:pageopacity="0"
     inkscape:pageshadow="2"
     inkscape:zoom="1.979899"
     inkscape:cx="177.96979"
     inkscape:cy="179.26505"
     inkscape:document-units="px"
     inkscape:current-layer="layer1"
     showgrid="false"
     units="px"
     inkscape:window-width="1544"
     inkscape:window-height="1258"
     inkscape:window-x="1843"
     inkscape:window-y="85"
     inkscape:window-maximized="0" />
  <metadata
     id="metadata5">
    <rdf:RDF>
      <cc:Work
         rdf:about="">
        <dc:format>image/svg+xml</dc:format>
        <dc:type
           rdf:resource="http://purl.org/dc/dcmitype/StillImage" />
        <dc:title></dc:title>
      </cc:Work>
    </rdf:RDF>
  </metadata>
  <g
     inkscape:label="Layer 1"
     inkscape:groupmode="layer"
     id="layer1"
     transform="translate(0,-234.8229)">
    <path
       style="fill:none;stroke:#ffffff;stroke-width:0.4;stroke-opacity:1;stroke-miterlimit:4;stroke-dasharray:none"
       d="m 46.740756,269.97725 c -0.122963,-0.029 -0.247864,-0.15572 -0.277574,-0.28154 -0.0297,-0.12583 -0.572047,-0.60942 -1.205199,-1.07464 -1.014577,-0.7455 -2.150047,-1.49893 -7.205691,-4.78132 -1.120127,-0.72724 -1.23042,-0.75627 -1.695348,-0.44632 -0.967113,0.64474 -1.042411,0.82729 -0.708256,1.71697 0.332313,0.88477 0.02556,0.78744 -0.382554,-0.12138 -0.127354,-0.2836 -0.27869,-0.51563 -0.336303,-0.51563 -0.127484,0 -4.194065,4.60248 -4.194065,4.74676 3e-6,0.3204 2.817438,4.72859 3.028554,4.73852 0.391579,0.0184 1.102244,0.82159 1.181662,1.33552 0.06208,0.40166 -0.0948,0.62862 -1.157672,1.67486 -1.247375,1.22785 -2.426823,1.87452 -2.974276,1.6307 -0.719835,-0.32058 -3.228273,-4.12721 -4.261346,-6.46672 -0.65419,-1.48149 -1.423992,-1.41918 -3.370237,0.27264 -1.593837,1.38549 -2.219452,2.04868 -2.355038,2.49649 -0.06271,0.20712 -0.434214,0.69678 -0.825569,1.08814 -0.608435,0.60843 -1.101917,1.6844 -3.405113,7.42447 -2.748109,6.84885 -3.408233,8.23331 -4.394516,9.21636 -0.307534,0.30649 -0.974128,1.12134 -1.481369,1.81074 -1.1100027,1.50862 -1.2545634,1.52764 -2.6961928,0.35485 -1.5929139,-1.29587 -5.4852981,-5.20631 -5.4852996,-5.51074 1.5e-6,-0.28673 2.0401725,-2.45654 9.5740664,-10.18241 3.486293,-3.57518 4.20327,-4.38135 4.297132,-4.83195 0.150555,-0.7228 1.139664,-3.01467 1.423578,-3.29858 0.124354,-0.12436 0.396398,-0.17454 0.60454,-0.11152 0.595832,0.1804 1.483192,-0.98962 1.210724,-1.59637 -0.160425,-0.35724 -0.102957,-0.55712 0.266357,-0.92644 0.392587,-0.39258 0.424445,-0.53935 0.191518,-0.88237 -0.187355,-0.27592 -0.341355,-0.3495 -0.467492,-0.22337 -0.103455,0.10346 -0.305538,0.0707 -0.449073,-0.0729 -0.192351,-0.19236 -0.150015,-0.42248 0.161028,-0.87527 0.232095,-0.33787 0.433376,-0.82507 0.447287,-1.08267 0.02568,-0.47541 2.20147,-2.69489 11.178345,-11.40281 2.60261,-2.52469 3.03353,-3.04606 2.751037,-3.32855 -0.255186,-0.25519 -0.643266,-1.46019 -0.576248,-1.78928 0.115445,-0.56687 0.703839,-0.85019 2.193379,-1.05619 l 1.565123,-0.21643 4.206628,-4.00145 4.206632,-4.00144 -0.645656,-0.64566 -0.64566,-0.64565 0.835957,-0.75303 0.835957,-0.75303 0.999062,1.08964 0.999056,1.08963 0.408598,-0.51662 c 0.30011,-0.37948 0.554144,-0.50933 0.956772,-0.48927 0.450657,0.0224 0.711515,-0.136 1.466332,-0.89082 0.529894,-0.52989 1.058393,-0.91815 1.249773,-0.91816 0.18239,1e-5 0.59679,0.26518 0.920895,0.58928 0.739368,0.73937 0.653681,1.09702 -0.551594,2.3023 -0.665801,0.6658 -0.859989,0.96525 -0.7647,1.17921 0.08046,0.18067 -0.05443,0.46895 -0.364548,0.77907 -0.309275,0.30928 -0.444978,0.59849 -0.365042,0.77797 0.06998,0.15714 0.03717,0.30696 -0.0729,0.33294 -0.110071,0.026 -0.131946,0.11545 -0.04859,0.19881 0.08336,0.0834 -0.03733,0.30464 -0.268187,0.49175 -0.346694,0.281 -0.367974,0.40861 -0.122098,0.73343 0.163708,0.21626 0.311766,0.53722 0.32902,0.71324 0.01843,0.18811 0.998994,1.31501 2.37869,2.73369 3.953478,4.06522 4.209882,4.55031 2.892246,5.47178 -1.312065,0.91757 -0.966451,1.09061 -3.755213,-1.88003 -1.372261,-1.46177 -2.667301,-2.94241 -2.877859,-3.29031 -0.210559,-0.34791 -0.611634,-0.81364 -0.891278,-1.03496 -0.929334,-0.73549 -0.98302,-0.69984 -3.47625,2.3083 l -2.246695,2.7107 -0.314735,1.77339 c -0.396587,2.23456 -0.657504,2.69775 -1.599136,2.83887 -0.834164,0.12501 -1.31936,0.74908 -0.722826,0.9297 0.196788,0.0596 1.052342,0.65685 1.901232,1.32726 2.841327,2.24396 4.934149,3.56802 8.655695,5.47621 0.239439,0.12277 -0.340581,1.42758 -1.836712,4.13186 -1.109954,2.00626 -1.483405,2.49463 -1.842716,2.4098 z m -34.164451,19.79746 c 0.753117,-1.42625 0.764967,-2.05936 0.04715,-2.51864 -0.28428,-0.18189 -0.574116,-0.27348 -0.644073,-0.20352 -0.06996,0.0699 -0.193042,0.0614 -0.273522,-0.0191 -0.08048,-0.0805 -0.06392,-0.16577 0.03679,-0.18956 0.100732,-0.0238 -0.02703,-0.19958 -0.283872,-0.39067 -0.438608,-0.32635 -0.505227,-0.30922 -1.096112,0.28167 -0.6989437,0.69894 -0.8195197,0.58091 -0.269271,-0.26358 0.317469,-0.48724 0.308109,-0.59377 -0.07947,-0.90443 -0.2416237,-0.19368 -0.7186064,-0.44103 -1.0599614,-0.54968 l -0.6206416,-0.19754 -1.4415651,1.58502 c -0.792883,0.87174 -1.4415708,1.67175 -1.4415677,1.77776 -5e-7,0.35856 2.0775353,2.47076 3.4290937,3.4863 l 1.3433711,1.0094 0.869296,-0.8693 c 0.478113,-0.47811 1.146068,-1.39345 1.484348,-2.03409 z m 3.718,-9.07518 c 0.957576,-2.38251 1.899337,-4.57771 2.092802,-4.87822 0.285312,-0.44317 0.284993,-0.61313 -0.0017,-0.89982 l -0.353459,-0.35346 -1.054654,1.22519 c -0.580063,0.67386 -2.306259,2.56012 -3.835996,4.19171 -1.934118,2.06289 -2.717844,2.99565 -2.572895,3.06215 0.114637,0.0526 0.525056,0.24534 0.912042,0.42832 0.38698,0.18298 0.750362,0.28593 0.80751,0.22878 0.05715,-0.0572 0.376996,0.24257 0.710779,0.66603 0.562723,0.71393 1.183376,1.0323 1.464456,0.75122 0.04953,-0.0496 0.873531,-2.0394 1.831113,-4.4219 z m 17.829748,-16.068 0.814578,-0.81457 -1.111194,-1.03048 -1.111189,-1.03049 -0.918746,0.83571 c -0.651773,0.59287 -0.951966,0.99531 -1.033108,1.38491 -0.149301,0.71678 0.386413,1.24623 1.260959,1.24624 0.691323,0 0.652968,0.28252 -0.05092,0.37499 -0.525641,0.0691 -1.105702,-0.13361 -1.838668,-0.6424 -0.571595,-0.39677 -0.62292,-0.39398 -0.754615,0.041 -0.08778,0.2899 -0.05425,0.42317 0.08849,0.35179 0.345481,-0.17273 0.764901,0.35061 0.560581,0.6995 -0.128984,0.22027 -0.08408,0.21937 0.161643,-0.003 0.317457,-0.28758 0.384365,-0.25767 0.999321,0.44663 l 0.659072,0.75483 0.729585,-0.89994 c 0.40128,-0.49497 1.096158,-1.26649 1.544176,-1.71451 z"
       id="path4539"
       inkscape:connector-curvature="0" />
  </g>
</svg>
