<?xml version="1.0" encoding="UTF-8" standalone="no"?>
<!-- Created with Inkscape (http://www.inkscape.org/) -->

<svg
   xmlns:dc="http://purl.org/dc/elements/1.1/"
   xmlns:cc="http://creativecommons.org/ns#"
   xmlns:rdf="http://www.w3.org/1999/02/22-rdf-syntax-ns#"
   xmlns:svg="http://www.w3.org/2000/svg"
   xmlns="http://www.w3.org/2000/svg"
   xmlns:sodipodi="http://sodipodi.sourceforge.net/DTD/sodipodi-0.dtd"
   width="220"
   height="235"
   viewBox="0 0 58.208332 62.177085"
   version="1.1"
   id="svg8"
   sodipodi:docname="tk-45.svg">
  <defs
     id="defs2" />
  <sodipodi:namedview
     id="base"
     pagecolor="#000000"
     bordercolor="#666666"
     borderopacity="1.0"
     showgrid="false"
     units="px"/>
  <metadata
     id="metadata5">
    <rdf:RDF>
      <cc:Work
         rdf:about="">
        <dc:format>image/svg+xml</dc:format>
        <dc:type
           rdf:resource="http://purl.org/dc/dcmitype/StillImage" />
        <dc:title></dc:title>
      </cc:Work>
    </rdf:RDF>
  </metadata>
  <g
     id="layer1"
     transform="translate(0,-234.8229)">
    <path
       style="fill:none;stroke:#ffffff;stroke-width:0.4;stroke-opacity:1;stroke-miterlimit:4;stroke-dasharray:none"
       d="m 43.495537,280.66427 c -0.317246,0.16796 -0.561169,0.2032 -0.425931,0.0615 0.124732,-0.13069 -0.157911,-0.0169 -1.33419,0.53719 -0.632806,0.29807 -1.19729,0.54821 -1.254407,0.55588 -0.07281,0.01 -0.281942,-0.36886 -0.699728,-1.26684 -0.853854,-1.83528 -1.649691,-3.47467 -1.721743,-3.54672 -0.104559,-0.10456 -0.393785,0.27857 -0.42821,0.56724 -0.03137,0.26309 -0.06558,0.30359 -1.293571,1.53158 l -1.261343,1.26134 -0.962738,0.44067 c -0.529507,0.24236 -1.928994,0.90246 -3.109972,1.46688 -2.236211,1.06874 -3.268804,1.53857 -3.401817,1.54785 -0.105922,0.008 -0.89132,-1.94377 -1.244907,-3.09271 -0.305834,-0.99377 -0.717278,-2.73179 -0.809938,-3.42132 -0.09155,-0.68128 -0.238208,-0.98822 -0.688658,-1.44127 -0.593815,-0.59726 -1.020872,-0.78926 -1.768315,-0.79507 -0.338766,-0.003 -0.657616,-0.0465 -0.708559,-0.0974 -0.06524,-0.0652 -0.157594,-0.0458 -0.312441,0.0658 -0.120915,0.0871 -0.38683,0.20203 -0.590949,0.25531 l -0.371126,0.0969 -0.447342,-0.44734 -0.447342,-0.44734 -0.211115,0.21111 c -0.153833,0.15384 -0.25774,0.20034 -0.382957,0.1714 -0.201264,-0.0465 -0.284231,0.009 -0.175966,0.11683 0.112507,0.11251 0.08936,0.15777 -0.490995,0.95998 -0.292746,0.40466 -0.550264,0.81361 -0.572261,0.90878 -0.022,0.0952 0.02322,0.48318 0.10047,0.86224 0.146241,0.71756 0.134495,0.76569 -0.274422,1.12456 -0.110986,0.0974 -0.126954,0.16913 -0.06263,0.28129 0.04749,0.0828 0.09969,0.30071 0.116013,0.48421 l 0.02967,0.33367 -1.361708,1.37539 c -1.298353,1.31142 -1.380167,1.40707 -1.758575,2.05666 -0.218283,0.3747 -0.437661,0.7721 -0.487508,0.88311 -0.04984,0.11099 -0.257411,0.39364 -0.461254,0.62811 -0.203839,0.23446 -0.363225,0.45794 -0.354178,0.49663 0.0091,0.0386 -0.08531,0.25418 -0.209685,0.47889 -0.452421,0.81742 -0.444685,0.97637 0.09228,1.89599 0.436744,0.74798 0.60782,0.92759 1.001525,1.0515 l 0.305061,0.096 0.764961,1.27939 c 0.420729,0.70365 0.764962,1.33168 0.764961,1.39561 0,0.20254 -0.401594,0.90691 -0.753914,1.32232 -0.197771,0.2332 -0.658313,0.649 -1.101819,0.99477 -0.419105,0.32677 -0.774281,0.61422 -0.789276,0.63878 -0.05996,0.0982 -0.601224,0.43952 -0.797616,0.50298 -0.37327,0.12063 -0.63288,-0.037 -1.706449,-1.03602 -0.542451,-0.50479 -1.5816243,-1.44109 -2.3092786,-2.08066 -2.2308529,-1.9608 -4.5851712,-4.22717 -4.920974,-4.73713 -0.335094,-0.50889 -0.3938438,-0.70474 -0.2672983,-0.8911 0.050916,-0.075 3.0610408,-3.11618 6.6891699,-6.75823 l 6.596594,-6.6219 0.17979,0.0659 0.179787,0.0659 -0.09105,-0.2093 c -0.08921,-0.20508 -0.08344,-0.21624 0.287201,-0.55414 0.493765,-0.45016 0.494469,-0.54235 0.0076,-0.99309 -0.33053,-0.30601 -0.368857,-0.3699 -0.386792,-0.64459 -0.01955,-0.29962 -0.0113,-0.31351 0.475738,-0.80054 0.444362,-0.44437 0.508899,-0.48788 0.62381,-0.42061 0.12016,0.0703 0.179361,0.0227 0.947082,-0.76196 l 0.818917,-0.83699 -0.355597,-0.38487 c -0.195581,-0.21168 -0.796537,-0.83644 -1.335458,-1.38835 -1.038601,-1.06364 -1.030885,-1.04971 -0.671429,-1.21113 0.145461,-0.0653 0.280703,-0.0295 0.657059,0.17415 0.260643,0.14102 0.572808,0.35531 0.693699,0.47621 0.12089,0.12088 0.29374,0.23689 0.384111,0.25777 0.127514,0.0295 0.181392,0.0837 0.240574,0.24193 0.04195,0.11218 0.102571,0.20979 0.134713,0.21693 0.07233,0.0161 0.500632,-0.12119 0.861523,-0.27604 0.244363,-0.10485 0.305581,-0.0941 0.627341,0.10995 0.416842,0.2644 0.493282,0.28895 0.615612,0.19772 0.193939,-0.14464 0.260196,-0.26872 0.184137,-0.34477 -0.04937,-0.0494 -0.02939,-0.1293 0.0529,-0.21157 0.08227,-0.0823 0.162198,-0.10225 0.211562,-0.0529 0.124833,0.12483 0.426616,-0.18277 0.398673,-0.40634 -0.02196,-0.17571 0.130721,-0.32405 0.269779,-0.26211 0.150914,0.0672 0.498425,-0.2803 0.389363,-0.38937 -0.05289,-0.0529 -0.02645,-0.13222 0.07933,-0.238 0.105781,-0.10578 0.185117,-0.13223 0.238008,-0.0794 0.05541,0.0554 0.135166,0.0235 0.264454,-0.10578 0.129288,-0.12929 0.161191,-0.20904 0.10578,-0.26445 -0.04937,-0.0494 -0.02938,-0.12929 0.0529,-0.21157 0.07732,-0.0773 0.16261,-0.10184 0.205395,-0.059 0.04024,0.0403 0.12683,0.0417 0.19242,0.004 0.149262,-0.0873 0.285009,-0.37217 0.212133,-0.44506 -0.03002,-0.03 -0.007,-0.10219 0.05118,-0.16037 0.05818,-0.0582 0.130349,-0.0812 0.160377,-0.0512 0.08225,0.0823 0.372385,-0.0748 0.446069,-0.24151 0.03567,-0.0807 0.03282,-0.16685 -0.0063,-0.19146 -0.03965,-0.025 5.09e-4,-0.11644 0.0906,-0.20654 0.08899,-0.089 0.170325,-0.12566 0.180754,-0.0815 0.02806,0.1189 0.270328,0.0276 0.388499,-0.14647 0.05658,-0.0833 0.06995,-0.18443 0.0297,-0.22467 -0.04279,-0.0427 -0.01827,-0.12808 0.05905,-0.20539 0.08455,-0.0846 0.161984,-0.10247 0.214757,-0.0497 0.06302,0.063 0.125522,0.0317 0.264453,-0.13223 0.113758,-0.13431 0.152201,-0.23457 0.102588,-0.26765 -0.04963,-0.0331 -0.01877,-0.11345 0.08246,-0.21468 0.08899,-0.089 0.17023,-0.12606 0.18054,-0.0824 0.01031,0.0437 0.08417,0.0455 0.164145,0.004 0.184346,-0.0956 0.367955,-0.39567 0.257926,-0.42164 -0.04568,-0.0108 -0.02471,-0.078 0.04662,-0.1493 0.07133,-0.0714 0.17909,-0.10769 0.239469,-0.0808 0.145436,0.0648 0.449646,-0.23944 0.384872,-0.38487 -0.06447,-0.14476 0.161392,-0.36565 0.307383,-0.30062 0.140993,0.0628 0.469725,-0.29744 0.346443,-0.37963 -0.04937,-0.0329 -0.01939,-0.11284 0.07933,-0.21156 0.09873,-0.0987 0.178652,-0.1287 0.211562,-0.0793 0.0822,0.12329 0.442429,-0.20544 0.379627,-0.34644 -0.06502,-0.146 0.155875,-0.37185 0.300626,-0.30739 0.113482,0.0505 0.277723,-0.0714 0.367383,-0.27269 0.02826,-0.0634 0.01689,-0.12348 -0.02524,-0.13342 -0.04213,-0.01 -0.0063,-0.0884 0.07953,-0.17423 0.09,-0.09 0.202639,-0.13542 0.265915,-0.10724 0.148805,0.0663 0.458647,-0.24357 0.351109,-0.3511 -0.05323,-0.0533 -0.02609,-0.13258 0.08246,-0.24113 0.08899,-0.089 0.169932,-0.12733 0.179879,-0.0851 0.0099,0.0421 0.06999,0.0535 0.13343,0.0253 0.201322,-0.0896 0.323226,-0.2539 0.272684,-0.36739 -0.07641,-0.17155 0.181611,-0.38555 0.310029,-0.25713 0.08299,0.083 0.14104,0.0705 0.269403,-0.0579 0.119143,-0.11914 0.142389,-0.1999 0.0855,-0.29707 -0.09424,-0.16097 0.178064,-0.48727 0.302659,-0.36268 0.091,0.091 0.313933,-0.0115 0.388334,-0.17856 0.02942,-0.0661 0.02033,-0.15324 -0.02019,-0.19377 -0.04333,-0.0433 -0.01922,-0.12814 0.05855,-0.2059 0.07951,-0.0795 0.162436,-0.10202 0.207998,-0.0564 0.09382,0.0938 0.32994,-0.0213 0.426691,-0.20799 0.03972,-0.0766 0.03811,-0.17346 -0.0035,-0.21514 -0.04556,-0.0455 -0.02305,-0.12849 0.05645,-0.20799 0.08152,-0.0815 0.162266,-0.10219 0.210555,-0.0539 0.08593,0.0859 0.388929,-0.0614 0.422986,-0.20569 0.01176,-0.0497 -0.01295,-0.12474 -0.05487,-0.16666 -0.04975,-0.0497 -0.02003,-0.13239 0.08558,-0.23801 0.08899,-0.089 0.169852,-0.12765 0.179706,-0.0859 0.0098,0.0417 0.08219,0.0699 0.16077,0.0626 0.180888,-0.0168 0.368744,-0.31905 0.263636,-0.42415 -0.04828,-0.0483 -0.02761,-0.12904 0.0539,-0.21055 0.07952,-0.0795 0.162436,-0.10203 0.207998,-0.0564 0.091,0.091 0.313934,-0.0115 0.388333,-0.17855 0.02942,-0.0661 0.02033,-0.15325 -0.02019,-0.19377 -0.0466,-0.0466 -0.01537,-0.13199 0.085,-0.23235 0.102466,-0.10247 0.185513,-0.13183 0.234443,-0.0829 0.091,0.091 0.313934,-0.0115 0.388336,-0.17856 0.02942,-0.066 0.02033,-0.15324 -0.02019,-0.19376 -0.115317,-0.11532 0.124464,-0.29714 0.3593,-0.27245 0.187339,0.0197 0.220858,-0.002 0.288912,-0.18358 0.04235,-0.11322 0.03864,-0.21492 -0.0082,-0.22598 -0.04947,-0.0117 -0.01735,-0.088 0.07658,-0.18191 0.103033,-0.10304 0.188553,-0.13503 0.235472,-0.0881 0.04052,0.0405 0.125464,0.0506 0.188759,0.0224 0.129753,-0.0578 0.236698,-0.33744 0.158827,-0.41531 -0.02806,-0.028 0.0085,-0.11052 0.0812,-0.18325 0.07272,-0.0727 0.155191,-0.10927 0.183257,-0.0812 0.02806,0.028 0.130794,0.0269 0.228282,-0.003 0.150029,-0.0454 0.173956,-0.085 0.15579,-0.25785 -0.0241,-0.22931 0.210072,-0.52053 0.325646,-0.40495 0.08093,0.0809 0.262873,-0.007 0.375262,-0.1801 0.03999,-0.0618 0.03877,-0.14634 -0.0028,-0.18785 -0.04523,-0.0452 -0.02249,-0.12843 0.05677,-0.20768 0.07272,-0.0727 0.155189,-0.10926 0.183256,-0.0812 0.07787,0.0779 0.35752,-0.0291 0.415308,-0.15883 0.02819,-0.0633 0.0181,-0.14823 -0.02242,-0.18876 -0.0466,-0.0466 -0.01537,-0.13198 0.085,-0.23235 0.105782,-0.10578 0.185116,-0.13222 0.238006,-0.0793 0.04874,0.0488 0.128871,0.0298 0.207787,-0.0491 0.07065,-0.0707 0.128449,-0.19985 0.128449,-0.28713 0,-0.0872 0.0612,-0.21986 0.136005,-0.29467 0.08563,-0.0856 0.165389,-0.10662 0.215341,-0.0566 0.0529,0.0529 0.132227,0.0264 0.238009,-0.0793 0.105781,-0.10579 0.132228,-0.18512 0.07934,-0.23802 -0.05289,-0.0529 -0.02645,-0.13222 0.07933,-0.238 0.08726,-0.0872 0.181635,-0.13571 0.209701,-0.10765 0.02807,0.028 0.118854,0.0305 0.201751,0.006 0.115921,-0.0351 0.152655,-0.10023 0.159092,-0.28211 0.01063,-0.30038 0.162368,-0.48202 0.32376,-0.38754 0.163807,0.0959 0.385279,-0.13042 0.324405,-0.33148 -0.05223,-0.1725 0.167227,-0.35583 0.365857,-0.30564 0.163489,0.0413 0.376225,-0.20193 0.324888,-0.37148 -0.05985,-0.19766 0.124675,-0.39183 0.31701,-0.3336 0.20447,0.0619 0.374893,-0.11211 0.312284,-0.31889 -0.06524,-0.21548 0.155598,-0.43633 0.33267,-0.33267 0.171008,0.10011 0.307334,-0.0362 0.287847,-0.28783 -0.01953,-0.2521 0.175918,-0.44754 0.384406,-0.38441 0.08932,0.0271 0.20832,0.003 0.264454,-0.0529 0.05613,-0.0562 0.07994,-0.17514 0.0529,-0.26445 -0.05744,-0.18973 0.170357,-0.46434 0.287775,-0.34691 0.04192,0.0419 0.112957,0.0675 0.15786,0.0569 0.133693,-0.0316 0.289257,-0.3503 0.209766,-0.42979 -0.115022,-0.11502 0.162812,-0.3417 0.349524,-0.28516 0.206346,0.0625 0.303669,-0.0348 0.2909,-0.2909 -0.01314,-0.26372 0.184481,-0.46135 0.359113,-0.35912 0.18524,0.10844 0.448027,-0.15435 0.339588,-0.33959 -0.100779,-0.17214 0.08944,-0.36678 0.339533,-0.34741 0.21015,0.0163 0.400148,-0.21293 0.277861,-0.33521 -0.04836,-0.0484 -0.01041,-0.13593 0.111951,-0.25829 0.173909,-0.17391 0.17462,-0.19561 0.01176,-0.35847 -0.09535,-0.0954 -0.189206,-0.26336 -0.208591,-0.37339 -0.02047,-0.11623 -0.08081,-0.20979 -0.143998,-0.22333 -0.05981,-0.0128 -0.46776,-0.35451 -0.906545,-0.75933 -0.438796,-0.40481 -0.857721,-0.75922 -0.930962,-0.78757 -0.115439,-0.0447 -0.10693,-0.0691 0.06394,-0.18294 0.181633,-0.12108 0.186736,-0.14696 0.06488,-0.32974 -0.131842,-0.19776 -0.07776,-0.34207 0.146992,-0.39219 0.159688,-0.0356 1.270619,0.60155 1.760277,1.00958 0.401912,0.33492 0.443509,0.35277 0.592169,0.25408 0.316734,-0.21023 1.417804,-0.27313 1.599572,-0.0914 0.07275,0.0728 0.137897,0.0472 0.304144,-0.11898 l 0.211565,-0.21155 0.350875,0.35087 c 0.19298,0.19298 0.470456,0.41532 0.616615,0.49409 l 0.265739,0.14321 0.651542,-0.65154 c 0.649844,-0.64984 0.65219,-0.65139 0.888446,-0.6022 0.19499,0.0406 0.354285,0.16673 0.900362,0.71281 0.83119,0.83118 0.918955,1.02732 0.616378,1.37742 -0.112735,0.13045 -0.18423,0.27335 -0.158886,0.31757 0.115143,0.20087 0.276012,1.17068 0.206182,1.24299 -0.04283,0.0444 -0.139288,0.20978 -0.214248,0.36754 -0.118213,0.24879 -0.154167,0.28454 -0.271085,0.26948 -0.145863,-0.0187 -0.369175,0.16123 -0.325446,0.26233 0.01479,0.0342 -0.0354,0.15457 -0.111513,0.26754 -0.105774,0.15699 -0.156778,0.187 -0.216402,0.12738 -0.104309,-0.10431 -0.377492,0.17195 -0.475963,0.48133 -0.06755,0.2122 -0.08372,0.22838 -0.156047,0.15604 -0.0544,-0.0544 -0.132401,-0.029 -0.239368,0.078 -0.09982,0.0998 -0.13154,0.18581 -0.08552,0.23182 0.09924,0.0992 -0.225345,0.38861 -0.393157,0.35049 -0.111227,-0.0252 -0.136685,0.004 -0.198962,0.22755 -0.108168,0.38857 -0.261182,0.4918 -0.711103,0.47969 -0.251997,-0.007 -0.563201,0.0608 -0.821733,0.17855 l -0.416132,0.18945 -5.808847,5.88 c -6.254033,6.33065 -6.144982,6.21051 -6.19814,6.8279 l -0.02526,0.2934 -1.10529,1.10529 -1.10529,1.10529 0.07191,0.22595 c 0.03955,0.12426 0.04397,0.38 0.0098,0.56832 -0.06044,0.33335 0.0098,0.69229 0.202936,1.03668 0.05226,0.0932 0.104601,0.30962 0.116317,0.48094 0.02803,0.40981 0.23727,0.97911 0.692381,1.8838 0.204458,0.40644 0.57512,1.18636 0.823693,1.73317 0.248574,0.54681 0.476774,1.01901 0.507113,1.04936 0.03034,0.0303 0.29722,0.58834 0.59307,1.24001 0.45563,1.0036 0.71798,1.55032 0.815885,1.70022 0.0115,0.0176 0.124614,0.23769 0.251378,0.48909 0.126767,0.25141 0.369934,0.62706 0.540376,0.83479 0.170441,0.20773 0.434109,0.62931 0.585931,0.93684 0.182914,0.37052 0.302781,0.54635 0.355312,0.5212 0.424709,-0.20333 0.641497,0.0662 0.39609,0.49248 -0.08891,0.15443 -0.280751,0.37901 -0.426325,0.49906 l -0.264682,0.21827 0.203922,0.43974 c 0.306429,0.66079 1.841853,3.85776 2.18228,4.54381 0.164008,0.33052 0.339115,0.63144 0.389126,0.66869 0.158205,0.11787 0.321186,0.45398 0.29902,0.61667 -0.02627,0.19276 -0.05097,0.21609 -0.456258,0.43067 z m -7.716773,-2.13387 0.12399,-0.46008 -0.404758,-0.84424 c -0.222618,-0.46433 -0.555683,-1.16934 -0.740146,-1.56667 -0.184463,-0.39733 -0.541499,-1.15894 -0.793416,-1.69245 -0.251916,-0.53351 -0.628561,-1.33306 -0.83699,-1.77679 -0.34131,-0.72661 -0.395157,-0.80677 -0.541945,-0.80677 -0.215179,0 -0.253072,0.0437 -0.723281,0.83347 -0.468161,0.78637 -0.767651,1.05836 -1.426788,1.29578 -0.358054,0.12896 -0.500549,0.22897 -0.923931,0.64845 -0.467356,0.46305 -0.499379,0.51206 -0.482388,0.73807 0.01,0.13315 0.274051,0.79266 0.586759,1.4656 0.312709,0.67293 0.816456,1.76105 1.119436,2.41804 0.780364,1.69215 0.977055,2.10008 1.118387,2.31952 l 0.124323,0.19301 0.799169,-0.39598 c 0.439542,-0.21779 1.001086,-0.47849 1.247876,-0.57934 0.890504,-0.36389 1.551157,-1.03807 1.75371,-1.78961 z m -4.155585,-6.67562 c 0.219414,-0.39979 0.428602,-0.82011 0.464864,-0.93403 0.138289,-0.43448 0.038,-0.95317 -0.327137,-1.69203 -0.343029,-0.6941 -0.361269,-0.71798 -0.584148,-0.7644 -0.207553,-0.0432 -0.262308,-0.0157 -0.559589,0.28125 -0.181247,0.18103 -0.717053,0.68583 -1.190692,1.12175 l -0.861168,0.79257 0.05846,0.19312 c 0.17613,0.58171 0.748192,1.01594 1.350832,1.02535 0.30744,0.005 0.346512,0.0222 0.297497,0.13223 -0.08062,0.18102 -0.67008,0.17258 -1.145306,-0.0164 -0.248705,-0.0989 -0.496483,-0.26267 -0.692157,-0.45751 -0.167648,-0.16688 -0.322994,-0.28525 -0.345257,-0.26298 -0.02226,0.0223 -0.100967,0.19173 -0.174905,0.37661 -0.182466,0.45625 -0.106284,0.84688 0.244166,1.25199 0.373538,0.43178 0.714694,0.54507 1.377165,0.4573 1.176019,-0.1558 1.458929,-0.35976 2.087367,-1.50483 z"
       id="path823"
       sodipodi:nodetypes="ccccsscsccscscccscccccscssssccccccscccsccsccccsssccscccccccssccccccsccccscssscsssssssscsssccsccsssccscccsccccscccccscsscccsscscssscssscssccssscssscscccsscsssccscssscsssssssssssccccsccccscscscscccccssscccccccccsscsccscscccccccscssscccccsccccccccsssscccscccccccccccccccscsccccscccsccccscccccccscscccc" />
  </g>
</svg>
