<?xml version="1.0" encoding="UTF-8" standalone="no"?>
<!-- Created with Inkscape (http://www.inkscape.org/) -->

<svg
   xmlns:dc="http://purl.org/dc/elements/1.1/"
   xmlns:cc="http://creativecommons.org/ns#"
   xmlns:rdf="http://www.w3.org/1999/02/22-rdf-syntax-ns#"
   xmlns:svg="http://www.w3.org/2000/svg"
   xmlns="http://www.w3.org/2000/svg"
   xmlns:sodipodi="http://sodipodi.sourceforge.net/DTD/sodipodi-0.dtd"
   xmlns:inkscape="http://www.inkscape.org/namespaces/inkscape"
   width="220"
   height="235"
   viewBox="0 0 58.208332 62.177085"
   version="1.1"
   id="svg8"
   inkscape:version="0.92.3 (2405546, 2018-03-11)"
   sodipodi:docname="type-89.svg">
  <defs
     id="defs2" />
  <sodipodi:namedview
     id="base"
     pagecolor="#000000"
     bordercolor="#666666"
     borderopacity="1.0"
     inkscape:pageopacity="0"
     inkscape:pageshadow="2"
     inkscape:zoom="1.979899"
     inkscape:cx="90.707522"
     inkscape:cy="81.403114"
     inkscape:document-units="px"
     inkscape:current-layer="layer1"
     showgrid="false"
     units="px"
     inkscape:window-width="1590"
     inkscape:window-height="1226"
     inkscape:window-x="1802"
     inkscape:window-y="123"
     inkscape:window-maximized="0" />
  <metadata
     id="metadata5">
    <rdf:RDF>
      <cc:Work
         rdf:about="">
        <dc:format>image/svg+xml</dc:format>
        <dc:type
           rdf:resource="http://purl.org/dc/dcmitype/StillImage" />
        <dc:title></dc:title>
      </cc:Work>
    </rdf:RDF>
  </metadata>
  <g
     inkscape:label="Layer 1"
     inkscape:groupmode="layer"
     id="layer1"
     transform="translate(0,-234.8229)">
    <path
       style="fill:none;stroke:#ffffff;stroke-width:0.4;stroke-opacity:1;stroke-miterlimit:4;stroke-dasharray:none"
       d="m 37.768558,277.06525 c -0.129099,0.0509 -0.219166,0.0497 -0.242726,-0.003 -0.0206,-0.0463 -0.337792,-0.25795 -0.704861,-0.4704 -0.367069,-0.21246 -1.032627,-0.59752 -1.479018,-0.85569 -2.074786,-1.19994 -3.441675,-2.22007 -4.818685,-3.59627 -0.385642,-0.38538 -0.624109,-0.59065 -0.652867,-0.56189 -0.02492,0.0249 -0.169616,0.50638 -0.321546,1.0699 l -0.276237,1.0246 -1.290912,1.35178 -1.290911,1.35177 -0.0065,0.2353 c -0.0036,0.12942 0.09284,0.49381 0.2142,0.80976 0.121361,0.31595 0.439748,1.15516 0.707526,1.86491 0.291518,0.77267 0.544257,1.34784 0.629897,1.43348 0.08812,0.0881 0.235813,0.15101 0.384703,0.16384 0.458331,0.0395 0.738207,0.57087 0.451604,0.85747 -0.181214,0.18121 -1.84883,1.28386 -2.73566,1.80884 -0.797382,0.47204 -1.156656,0.62549 -1.354235,0.5784 -0.18622,-0.0444 -0.697883,-1.12665 -1.140834,-2.4131 -0.409014,-1.18788 -0.592321,-1.93989 -0.751928,-3.08475 -0.0606,-0.43468 -0.14104,-0.85905 -0.178756,-0.94303 -0.195665,-0.43572 -0.721556,-0.68441 -1.268966,-0.60009 -0.268735,0.0414 -0.370232,0.0253 -0.470217,-0.0747 -0.286613,-0.28662 -0.133292,-0.40573 -2.180493,1.69403 -2.297227,2.35621 -2.761763,2.91709 -3.390106,4.09317 -0.207431,0.38826 -1.580786,3.57199 -2.847217,6.60046 -0.171931,0.41115 -0.5198,1.23607 -0.773038,1.83316 -0.641461,1.51245 -0.831346,1.97233 -0.968177,2.3448 -0.241224,0.65663 -0.677923,1.58876 -0.761835,1.62613 -0.133035,0.0592 -0.3556598,-0.12716 -1.0987608,-0.91997 -1.816712,-1.93824 -2.573915,-2.69426 -3.062412,-3.05763 -0.640108,-0.47615 -1.005375,-0.73256 -1.309441,-0.91921 -0.135488,-0.0832 -0.356902,-0.22685 -0.492033,-0.31929 -0.135127,-0.0924 -0.306746,-0.18657 -0.381368,-0.20916 -0.179477,-0.0543 -0.787035,-0.67811 -0.942445,-0.96759 -0.110307,-0.20547 -0.108003,-0.25054 0.02222,-0.43481 0.266893,-0.37767 0.562383,-0.66242 1.258439,-1.21272 0.379908,-0.30035 1.698447,-1.36715 2.930086,-2.37067 l 2.239342,-1.82457 2.4689498,-2.43426 c 3.010456,-2.96814 3.109555,-3.09075 3.560766,-4.4049 0.120024,-0.34958 0.223634,-0.61165 0.230243,-0.58237 0.0066,0.0293 0.03155,0.009 0.05544,-0.0443 0.02388,-0.0536 0.02117,-0.0975 -0.006,-0.0975 -0.04119,0 0.04439,-0.27732 0.130018,-0.42133 0.01328,-0.0223 0.05163,-0.16219 0.08522,-0.31081 0.03359,-0.14862 0.07654,-0.25537 0.09544,-0.23721 0.01888,0.0182 0.02869,-0.002 0.02174,-0.0445 -0.01488,-0.0914 0.110268,-0.45535 0.169206,-0.49203 0.02246,-0.014 0.02411,-0.0421 0.0037,-0.0626 -0.06073,-0.0607 0.308518,-0.67567 0.530327,-0.8832 0.112967,-0.10569 0.565038,-0.55807 1.004601,-1.00527 l 0.799228,-0.81309 -0.144597,-0.14253 c -0.08706,-0.0858 -0.277205,-0.5089 -0.47789,-1.06338 -0.294361,-0.8133 -0.321327,-0.93596 -0.230871,-1.05014 0.08876,-0.11204 0.08179,-0.14992 -0.05219,-0.2839 -0.1267,-0.1267 -0.139214,-0.17509 -0.06933,-0.26811 0.07645,-0.10175 0.103881,-0.0949 0.265039,0.0663 0.173913,0.17391 0.184506,0.17502 0.325508,0.034 0.128121,-0.12812 0.281279,-0.14503 1.266602,-0.1398 1.060599,0.006 1.208115,0.0325 1.51279,0.27582 l 0.122799,0.0981 0.922373,-0.89853 c 0.780837,-0.76064 0.920673,-0.91733 0.910955,-1.02139 -0.01,-0.10747 0.327038,-0.46131 2.690977,-2.82525 1.84546,-1.84546 2.732109,-2.70239 2.796086,-2.70239 0.05153,-10e-6 0.183911,-0.10257 0.294181,-0.22793 0.174989,-0.19893 0.189752,-0.24527 0.116062,-0.36435 -0.08199,-0.1325 -0.07407,-0.14634 0.274876,-0.47962 0.197626,-0.18875 0.588485,-0.53144 0.86859,-0.76154 0.313504,-0.25752 2.112186,-2.02486 4.67894,-4.59738 3.836207,-3.84483 4.176658,-4.17432 4.256576,-4.12069 0.07927,0.0532 0.282019,-0.13671 2.303553,-2.15791 1.219139,-1.21896 2.483002,-2.45679 2.808564,-2.75076 l 0.591929,-0.53448 -0.376899,-0.3769 c -0.326214,-0.32621 -0.396847,-0.37325 -0.525226,-0.34978 -0.130912,0.0239 -0.20822,-0.03 -0.658458,-0.45968 -0.574105,-0.54785 -0.584484,-0.5794 -0.288689,-0.87751 0.369343,-0.37234 0.504873,-0.38438 1.179847,-0.10534 0.337266,0.13944 0.689759,0.3064 0.783319,0.37105 0.09356,0.0646 0.396208,0.21915 0.672552,0.34336 l 0.50244,0.22582 0.293095,-0.29242 c 0.191838,-0.19151 0.330752,-0.28896 0.402242,-0.28232 0.243628,0.0226 0.851659,0.62105 0.917024,0.9025 0.01324,0.057 -0.05688,0.21435 -0.155827,0.34958 -0.127574,0.17436 -0.06148,0.11869 0.227182,-0.19135 0.472204,-0.50719 0.666195,-0.65394 0.751579,-0.56856 0.10343,0.10343 0.420229,-0.25997 0.37032,-0.42479 -0.03504,-0.11573 0.0041,-0.18084 0.267026,-0.44372 0.253425,-0.25343 0.337185,-0.30584 0.472076,-0.29539 0.157682,0.0122 0.218657,-0.042 1.584747,-1.40805 1.174379,-1.17438 1.431244,-1.45415 1.481294,-1.61327 0.0333,-0.10588 0.103965,-0.23619 0.157047,-0.28957 0.0531,-0.0534 0.09071,-0.1216 0.08364,-0.15159 -0.0099,-0.0418 2.780072,-2.8602 3.044529,-3.07565 0.09542,-0.0777 0.452271,0.1123 0.727241,0.38727 0.29544,0.29543 0.456681,0.61946 0.379327,0.76225 -0.07857,0.14502 -2.93189,3.03216 -3.014619,3.05034 -0.04014,0.009 -0.161587,0.0767 -0.269885,0.15074 -0.108294,0.0741 -0.225421,0.12796 -0.260274,0.11974 -0.07545,-0.0178 -0.666961,0.56772 -1.987584,1.96751 l -0.971897,1.03016 0.125472,0.12548 c 0.06901,0.069 0.146553,0.10439 0.172314,0.0786 0.02712,-0.0271 0.110821,0.0287 0.198779,0.13252 l 0.15194,0.17935 -0.250437,0.27752 c -0.137743,0.15264 -0.241805,0.31408 -0.231259,0.35876 0.01428,0.0605 -0.0231,0.097 -0.146124,0.14311 -0.15477,0.0579 -0.185259,0.0419 -0.47553,-0.24833 l -0.310159,-0.31016 -0.142893,0.14423 c -0.08651,0.0872 -0.107545,0.13636 -0.05344,0.12428 0.04919,-0.011 0.214192,0.065 0.36667,0.16888 0.152475,0.10387 0.306908,0.19585 0.343179,0.20441 0.03627,0.009 0.04331,0.0382 0.01566,0.0659 -0.05658,0.0566 0.234223,0.26906 0.391641,0.28617 0.05138,0.006 0.18326,0.11224 0.29307,0.23701 0.166303,0.18898 0.186381,0.24455 0.120194,0.33279 -0.07058,0.0941 -0.05414,0.12703 0.147066,0.29466 0.150222,0.12515 0.233654,0.23877 0.247728,0.33723 0.02043,0.14312 0.01111,0.14792 -0.257952,0.13279 -0.318044,-0.0179 -0.551562,0.15547 -0.564716,0.41924 -0.0093,0.18726 -0.136866,0.25696 -0.378211,0.20669 -0.167821,-0.035 -0.199335,-0.0141 -0.630611,0.41717 -0.295766,0.29576 -0.491141,0.45396 -0.560649,0.45396 -0.07583,0 -0.522069,0.39572 -1.542846,1.36815 -1.342539,1.27897 -1.827644,1.71612 -3.519753,3.17179 -0.650436,0.55955 -8.252942,8.29388 -8.63319,8.78288 -0.08861,0.11395 -0.15614,0.27882 -0.151587,0.37009 0.0062,0.12425 -0.04966,0.22247 -0.227897,0.4007 -0.267795,0.2678 -0.36223,0.24517 -0.243418,-0.0583 l 0.08078,-0.20635 -0.202985,0.19458 c -0.274609,0.26322 -0.442404,0.3527 -0.518568,0.27654 -0.0528,-0.0528 -0.162476,0.04 -0.649352,0.54922 l -0.585815,0.61277 -0.304876,-0.0237 c -0.640841,-0.0498 -0.852245,-0.0851 -0.921141,-0.154 -0.05366,-0.0537 -0.11483,-0.0277 -0.247931,0.10545 -0.165974,0.16597 -0.168829,0.18455 -0.04715,0.30623 0.09075,0.0908 0.164398,0.11149 0.245928,0.0692 0.350737,-0.18174 0.504257,0.68841 0.178865,1.0138 -0.137678,0.13768 -0.19828,0.46596 -0.112474,0.60927 0.04708,0.0786 0.225541,0.259 0.396588,0.40083 0.266196,0.22073 0.3041,0.27283 0.263127,0.36165 -0.02633,0.0571 -0.0416,0.1356 -0.03393,0.17449 1.52816,1.76543 3.506947,3.46152 5.354166,4.55716 1.037376,0.6101 2.162133,1.26209 2.456945,1.42423 0.154595,0.085 0.303467,0.17698 0.330824,0.20434 0.06354,0.0635 -0.118781,0.5374 -0.280697,0.72953 -0.171998,0.20409 -1.176867,1.9849 -1.249623,2.21454 -0.03274,0.10334 -0.136726,0.29065 -0.231078,0.41625 -0.09435,0.1256 -0.252558,0.36441 -0.351569,0.53071 -0.213548,0.35867 -0.181059,0.32685 -0.436435,0.42749 z m -8.595205,-4.35934 c 0.123051,-0.46903 0.217353,-0.90886 0.209562,-0.97739 -0.02126,-0.18699 -0.465772,-0.60712 -0.6522,-0.61642 -0.140158,-0.007 -0.240183,0.0786 -1.121289,0.95973 l -0.967403,0.9674 0.13706,0.37093 c 0.108028,0.29236 0.219716,0.46139 0.527251,0.79794 0.43735,0.47862 0.451221,0.64892 0.03327,0.40846 -0.247053,-0.14214 -0.957226,-0.88444 -1.036701,-1.0836 -0.03566,-0.0894 -0.06647,-0.0881 -0.161016,0.006 -0.177108,0.17711 -0.295148,0.61819 -0.224681,0.83959 0.08963,0.28161 0.84571,1.03442 1.038913,1.03442 0.117392,0 0.28203,-0.1432 1.066167,-0.92734 l 0.927338,-0.92734 0.223727,-0.85279 z"
       id="path849"
       inkscape:connector-curvature="0"
       sodipodi:nodetypes="ccsscssccccscscsscscscssccsccscsccccsscscccccscccsccccscscsssccccsccccscccccscscccsccccccscscsccccsccccscsscccccscccccsccccccccscscccscccscccssscscccccsscccccccccsccsccsccsccc" />
  </g>
</svg>
