<?xml version="1.0" encoding="UTF-8" standalone="no"?>
<!-- Created with Inkscape (http://www.inkscape.org/) -->

<svg
   xmlns:dc="http://purl.org/dc/elements/1.1/"
   xmlns:cc="http://creativecommons.org/ns#"
   xmlns:rdf="http://www.w3.org/1999/02/22-rdf-syntax-ns#"
   xmlns:svg="http://www.w3.org/2000/svg"
   xmlns="http://www.w3.org/2000/svg"
   xmlns:sodipodi="http://sodipodi.sourceforge.net/DTD/sodipodi-0.dtd"   
   width="220"
   height="235"
   viewBox="0 0 58.208332 62.177085"
   version="1.1"
   id="svg8"   
   sodipodi:docname="uar.svg" >
  <defs
     id="defs2" />
  <sodipodi:namedview
     id="base"
     pagecolor="#000000"
     bordercolor="#666666"
     borderopacity="1.0"
     showgrid="false"
     units="px"
     showguides="false" />
  <metadata
     id="metadata5">
    <rdf:RDF>
      <cc:Work
         rdf:about="">
        <dc:format>image/svg+xml</dc:format>
        <dc:type
           rdf:resource="http://purl.org/dc/dcmitype/StillImage" />
        <dc:title />
      </cc:Work>
    </rdf:RDF>
  </metadata>
  <g
     id="layer1"
     transform="translate(0,-234.8229)">
    <path
       style="fill:none;stroke:#ffffff;stroke-width:0.40000001;stroke-miterlimit:4;stroke-dasharray:none;stroke-opacity:1"
       d="m 29.929907,284.25645 c 2.392036,-3.07753 2.465769,-3.1883 2.454625,-3.68663 -0.01244,-0.55618 -0.268206,-0.84552 -0.747384,-0.84552 -0.185983,0 -0.349845,-0.0497 -0.364135,-0.11004 -0.0143,-0.0607 -0.37899,-0.49232 -0.810442,-0.95951 -0.431439,-0.46724 -0.998968,-1.088 -1.26115,-1.37958 -0.262173,-0.29153 -0.736562,-0.81384 -1.054188,-1.16066 -0.317617,-0.34683 -0.783508,-0.89789 -1.035304,-1.2246 -0.377318,-0.48955 -0.449118,-0.64071 -0.408421,-0.8601 0.02716,-0.14646 0.04225,-0.51498 0.03356,-0.819 -0.0086,-0.304 0.06988,-1.13155 0.174568,-1.83896 0.104706,-0.70741 0.18256,-1.35589 0.17301,-1.44112 -0.0134,-0.11942 0.530505,-0.71415 2.372568,-2.59416 2.685281,-2.74063 2.697314,-2.74944 3.400898,-2.49873 0.494271,0.17613 0.706379,0.50037 0.875368,1.33783 0.0768,0.38076 0.198114,0.83461 0.269561,1.00858 0.07144,0.17402 0.133928,0.62264 0.138847,0.99689 0.0049,0.3743 0.07579,0.86594 0.157502,1.09259 0.08172,0.22666 0.143837,0.74455 0.13805,1.15084 -0.005,0.40629 0.03887,0.87734 0.09925,1.04674 0.06036,0.16942 0.116108,0.67938 0.123857,1.13331 0.0075,0.45386 0.04132,0.85248 0.0746,0.88572 0.03329,0.0334 0.07274,0.24882 0.0877,0.47892 0.01495,0.23011 0.112521,0.54315 0.216845,0.69562 0.33805,0.49418 0.777236,0.3805 2.710619,-0.70164 1.695344,-0.94899 2.849744,-1.72257 3.086141,-2.06812 0.251361,-0.36747 0.174221,-0.64224 -0.311827,-1.11068 -0.448688,-0.43237 -0.983936,-1.38358 -1.089834,-1.93671 -0.108481,-0.56658 -0.35599,-1.34986 -0.459167,-1.453 -0.09601,-0.0959 -0.304159,-0.69011 -0.285887,-0.81598 0.02073,-0.14292 -0.280185,-1.09243 -0.376844,-1.18912 -0.33502,-0.33501 -0.4162,-1.50798 -0.124548,-1.79959 0.08584,-0.0858 0.60191,-0.33531 1.146835,-0.55436 0.54493,-0.21913 1.115076,-0.48547 1.266992,-0.59198 0.163996,-0.11492 0.668864,-0.74465 1.242611,-1.54994 0.798707,-1.121 0.968139,-1.41192 0.976402,-1.67669 0.005,-0.17618 -0.2289,-1.1121 -0.520894,-2.07981 -0.291995,-0.96766 -0.520369,-1.81434 -0.507496,-1.88146 0.01288,-0.067 0.392927,-0.49244 0.844568,-0.94519 0.669817,-0.67134 0.803345,-0.84105 0.724468,-0.91996 -0.08407,-0.0838 -0.06005,-0.10818 0.184068,-0.18506 0.329828,-0.1037 0.623985,-0.37192 0.623983,-0.56896 0,-0.0961 0.07818,-0.17435 0.252708,-0.25271 0.319712,-0.14362 0.581665,-0.40241 0.524322,-0.51798 -0.02877,-0.0581 0.0683,-0.15242 0.280155,-0.27256 0.178307,-0.1011 0.365926,-0.26433 0.416927,-0.36277 0.05099,-0.0984 1.275147,-1.3787 2.720325,-2.84505 1.925064,-1.95328 2.632026,-2.71371 2.644156,-2.84416 0.0119,-0.12728 -0.08232,-0.2581 -0.330174,-0.45875 -0.190719,-0.1544 -0.355093,-0.33729 -0.365325,-0.40641 -0.04428,-0.29903 0.267953,-1.53314 0.42845,-1.69365 0.206947,-0.20698 0.296046,-0.46298 0.368275,-1.05817 l 0.05285,-0.43546 1.637431,-1.72652 c 0.900585,-0.94961 1.645408,-1.77026 1.65515,-1.82365 0.04022,-0.22064 -0.184886,-0.88352 -0.401717,-1.18289 -0.163249,-0.22541 -0.329202,-0.35319 -0.557946,-0.42964 -0.179079,-0.0599 -0.365191,-0.14851 -0.413589,-0.19689 -0.219787,-0.21977 -0.518249,0.0217 -2.131233,1.72217 l -1.585208,1.67152 -0.216372,-0.12957 c -0.118995,-0.0714 -0.406076,-0.10061 -0.637936,-0.0653 -0.672802,0.10257 -1.834278,0.0307 -2.042573,-0.12689 -0.136814,-0.10337 -0.245295,-0.10306 -0.381439,0.003 -0.104642,0.08 -0.246599,0.14639 -0.315458,0.14768 -0.06886,0.004 -0.16532,0.0424 -0.214371,0.0915 -0.04904,0.0491 -0.57388,0.14638 -1.166292,0.21632 l -1.077116,0.12717 -0.389333,-0.38935 c -0.499131,-0.49919 -0.678511,-0.49744 -0.996557,0.01 -0.151064,0.24079 -0.27312,0.36348 -0.361434,0.3635 -0.08822,0 -0.224636,0.13628 -0.403113,0.40268 -0.181757,0.27139 -0.314455,0.40271 -0.406793,0.40277 -0.0933,0 -0.211096,0.11795 -0.368744,0.36918 -0.158096,0.25184 -0.275326,0.36913 -0.369152,0.36913 -0.0938,0 -0.215926,0.12496 -0.384482,0.39361 -0.171223,0.27282 -0.294218,0.39799 -0.400853,0.40789 -0.105483,0.0103 -0.216853,0.1202 -0.354254,0.35121 -0.110258,0.18526 -0.322319,0.41386 -0.471246,0.50794 -0.148929,0.094 -0.316998,0.27163 -0.373474,0.39442 -0.06668,0.14501 -0.179518,0.24654 -0.321896,0.28962 -0.155618,0.0471 -0.270912,0.15755 -0.397492,0.38064 -0.100714,0.17759 -0.283803,0.37281 -0.420793,0.44873 -0.150099,0.0832 -0.303213,0.25876 -0.401867,0.46073 -0.131425,0.26913 -0.18158,0.31647 -0.285996,0.26997 -0.163963,-0.073 -0.369072,0.13645 -0.539132,0.55063 -0.07452,0.18149 -0.160936,0.30457 -0.19202,0.27348 -0.178334,-0.17835 -0.759937,0.57147 -0.590082,0.76075 0.04099,0.0455 -0.02615,0.0402 -0.14908,-0.0131 -0.196237,-0.0839 -0.249134,-0.0602 -0.433332,0.19536 -0.11539,0.16006 -0.197435,0.37068 -0.182329,0.46807 0.03495,0.22493 -0.03001,0.29117 -0.159096,0.16208 -0.166021,-0.16602 -0.587096,0.26403 -0.604737,0.61763 -0.01,0.19954 -0.02718,0.21054 -0.194221,0.12403 -0.100829,-0.0523 -0.240249,-0.0383 -0.309855,0.0318 -0.1622,0.16222 -0.329778,0.60713 -0.256327,0.68062 0.031,0.0311 0.02616,0.0865 -0.01078,0.12346 -0.03693,0.0369 -0.108901,0.0252 -0.159973,-0.0258 -0.192695,-0.19273 -0.688652,0.33813 -0.61347,0.6566 0.04256,0.18027 -0.06733,0.23539 -0.25278,0.12681 -0.230542,-0.13494 -0.517492,0.16517 -0.517484,0.54126 v 0.29222 l -0.243092,-0.0492 c -0.303342,-0.0615 -0.495198,0.12143 -0.495214,0.47144 0,0.33919 -0.07398,0.41318 -0.287917,0.28796 -0.224468,-0.13143 -0.517494,0.16157 -0.517496,0.51748 0,0.33917 -0.07398,0.41318 -0.287915,0.28791 -0.227266,-0.13304 -0.533597,0.1733 -0.465952,0.46593 0.06631,0.28686 -0.14346,0.49659 -0.320017,0.32006 -0.187743,-0.18777 -0.555889,0.18037 -0.485398,0.48535 0.06631,0.28688 -0.143454,0.49659 -0.320013,0.32003 -0.182448,-0.18241 -0.48679,0.1219 -0.418283,0.4183 0.06374,0.27577 -0.193782,0.55828 -0.346129,0.37964 -0.166417,-0.19513 -0.52779,0.1325 -0.445589,0.40402 0.07206,0.23804 -0.148594,0.52686 -0.292545,0.38289 -0.05296,-0.053 -0.196967,-0.0156 -0.334251,0.0864 -0.18771,0.13966 -0.220898,0.21414 -0.149686,0.33578 0.11272,0.19253 -0.179089,0.52564 -0.32908,0.37559 -0.07458,-0.0745 -0.178983,-0.0227 -0.402706,0.20138 l -0.302027,0.30204 0.293317,0.2933 0.293317,0.29332 -0.638264,1.34168 c -2.161438,4.54363 -2.052539,4.33663 -2.287794,4.34836 -0.278093,0.0137 0.15842,-0.41563 -7.345516,7.22755 -2.706714,2.95491 -6.3069983,6.17992 -8.7348973,8.64862 -2.5652738,2.61198 -2.7041685,2.79929 -2.6812855,3.61553 0.020718,0.7392 0.1037984,1.062 0.597076,2.32 l 0.4537225,1.1571 0.7452672,0.66735 c 0.4099109,0.36704 0.8778745,0.71452 1.0399423,0.77225 0.3021329,0.10751 0.4831157,0.26929 6.6257648,5.9221 1.667917,1.5349 2.784456,2.51038 2.936206,2.56526 0.134674,0.0488 0.444165,0.0311 0.687748,-0.0396 0.420976,-0.12161 0.522771,-0.20477 2.057416,-1.68047 2.558591,-2.46033 2.564718,-2.4852 1.369814,-5.56371 -0.410361,-1.05719 -0.917206,-2.38262 -1.126321,-2.94527 l -0.380206,-1.02301 0.953855,-1.38846 c 0.785297,-1.14313 1.009698,-1.41907 1.269813,-1.5613 0.273298,-0.14942 0.332295,-0.23104 0.437043,-0.60462 0.09361,-0.33385 0.157351,-0.43191 0.280816,-0.43191 0.08786,0 0.28254,-0.12279 0.432647,-0.27292 l 0.272922,-0.27291 0.638288,0.73765 c 0.579414,0.66959 1.47675,1.65558 3.181938,3.49628 0.337296,0.36408 0.869285,0.9798 1.182213,1.36829 0.506471,0.62863 0.590486,0.70312 0.76495,0.67802 0.268592,-0.0388 0.736306,-0.54739 2.011671,-2.18828 z m 9.088381,-21.79652 c -1.366398,0.50498 -1.454933,0.4687 -1.860372,-0.7621 -0.275333,-0.83577 -0.303684,-1.2353 -0.117061,-1.64959 0.230462,-0.51166 0.346499,-0.55086 0.670694,-0.22666 0.258645,0.25862 0.415335,0.30978 1.315732,0.42933 0.649531,0.0863 1.068521,0.0895 1.149422,0.01 0.159102,-0.1591 -0.01667,-0.34877 -0.502405,-0.54224 -0.335145,-0.13345 -1.582837,-0.72375 -1.630483,-0.77139 -0.012,-0.0125 0.672938,-0.71658 1.522081,-1.56571 l 1.543898,-1.5439 0.476868,1.50313 c 0.262276,0.82674 0.48048,1.63563 0.48489,1.7976 0.0059,0.24331 -0.138569,0.49718 -0.83559,1.46086 -0.463982,0.64152 -0.963559,1.25303 -1.110172,1.35893 -0.146594,0.10589 -0.644984,0.33238 -1.107504,0.5033 z"
       id="path8196"       
       sodipodi:nodetypes="cscscsssscccscccccscssccccscscssscccsccsccccccccccsccccccssccscccsscscccccccccccccccccsccccsccsssscscccccsccscssccsccssccccccccccccsccssscscccscscsccccscssscsscscsccc" />
  </g>
</svg>
