<?xml version="1.0" encoding="UTF-8" standalone="no"?>
<!-- Created with Inkscape (http://www.inkscape.org/) -->

<svg
   xmlns:dc="http://purl.org/dc/elements/1.1/"
   xmlns:cc="http://creativecommons.org/ns#"
   xmlns:rdf="http://www.w3.org/1999/02/22-rdf-syntax-ns#"
   xmlns:svg="http://www.w3.org/2000/svg"
   xmlns="http://www.w3.org/2000/svg"
   xmlns:sodipodi="http://sodipodi.sourceforge.net/DTD/sodipodi-0.dtd"
   xmlns:inkscape="http://www.inkscape.org/namespaces/inkscape"
   width="220"
   height="235"
   viewBox="0 0 58.208332 62.177085"
   version="1.1"
   id="svg8"
   inkscape:version="0.92.3 (2405546, 2018-03-11)"
   sodipodi:docname="ubacs.svg">
  <defs
     id="defs2" />
  <sodipodi:namedview
     id="base"
     pagecolor="#000000"
     bordercolor="#666666"
     borderopacity="1.0"
     inkscape:pageopacity="0"
     inkscape:pageshadow="2"
     inkscape:zoom="2.8"
     inkscape:cx="60.325149"
     inkscape:cy="84.031447"
     inkscape:document-units="px"
     inkscape:current-layer="layer1"
     showgrid="false"
     units="px"
     inkscape:window-width="3440"
     inkscape:window-height="1377"
     inkscape:window-x="-8"
     inkscape:window-y="-8"
     inkscape:window-maximized="1" />
  <metadata
     id="metadata5">
    <rdf:RDF>
      <cc:Work
         rdf:about="">
        <dc:format>image/svg+xml</dc:format>
        <dc:type
           rdf:resource="http://purl.org/dc/dcmitype/StillImage" />
        <dc:title></dc:title>
      </cc:Work>
    </rdf:RDF>
  </metadata>
  <g
     inkscape:label="Layer 1"
     inkscape:groupmode="layer"
     id="layer1"
     transform="translate(0,-234.8229)">
    <path
       style="fill:none;stroke:#ffffff;stroke-width:0.4;stroke-opacity:1;stroke-miterlimit:4;stroke-dasharray:none"
       d="m 26.858781,295.87115 c -0.747515,-0.0645 -1.809509,-0.26532 -2.641707,-0.49965 -1.525208,-0.42948 -2.496318,-0.62761 -3.399146,-0.69353 -1.048333,-0.0766 -1.166061,-0.13065 -2.927807,-1.34563 -0.678474,-0.4679 -1.549291,-1.01719 -1.935148,-1.22062 -0.835666,-0.44059 -0.844418,-0.45722 -0.975713,-1.85368 -0.113738,-1.2097 -0.04748,-4.23311 0.115818,-5.28512 0.06631,-0.42723 0.135543,-1.30654 0.153841,-1.95405 0.0183,-0.64751 0.0689,-1.30964 0.112462,-1.47139 0.04356,-0.16176 0.08001,-0.76384 0.08102,-1.33795 10e-4,-0.5741 0.04616,-1.45995 0.100358,-1.96854 0.05419,-0.5086 0.119239,-1.32419 0.144537,-1.81244 0.0253,-0.48825 0.09167,-1.33714 0.14749,-1.88642 0.05582,-0.54928 0.138333,-1.46475 0.183364,-2.03438 0.04503,-0.56962 0.128996,-1.56831 0.186591,-2.21931 0.05759,-0.651 0.126353,-1.76621 0.152797,-2.47824 0.02644,-0.71203 0.06615,-1.6275 0.08823,-2.03437 0.02208,-0.40687 0.04376,-2.12129 0.04818,-3.80983 0.0077,-2.96327 -0.04692,-3.90872 -0.247429,-4.27873 -0.02951,-0.0544 -0.07721,0.46154 -0.106015,1.14665 -0.0288,0.68511 -0.08289,1.41212 -0.120194,1.61555 -0.03731,0.20344 -0.101553,0.69463 -0.142765,1.09153 -0.04121,0.3969 -0.125635,0.8197 -0.187607,0.93953 -0.147515,0.28527 -0.143556,0.95622 0.0088,1.49939 0.154624,0.55108 0.08081,0.73232 -0.391361,0.96092 -0.505502,0.24473 -0.535612,0.32989 -0.328164,0.92813 0.145973,0.42096 0.165804,0.5779 0.119474,0.94557 -0.03055,0.24246 -0.04412,0.64057 -0.03015,0.8847 0.06452,1.12731 0.02463,1.77374 -0.139224,2.2563 -0.285384,0.84046 -0.434306,2.53453 -0.495367,5.63505 -0.03754,1.90622 -0.08378,2.21691 -0.524486,3.5238 -0.531036,1.57477 -0.570047,2.37463 -0.253149,5.19059 0.150836,1.34032 0.175823,1.83429 0.102459,2.02548 -0.03876,0.10102 -0.95732,0.89644 -1.204324,1.04288 -0.06739,0.0399 -0.155098,-0.009 -0.265309,-0.1468 l -0.164641,-0.20647 -0.155257,0.15525 c -0.210499,0.2105 -0.544056,0.29465 -1.718386,0.4335 -0.973865,0.11514 -3.26241,0.1185 -3.3759662,0.005 -0.026186,-0.0261 -0.094464,-0.22329 -0.1517286,-0.43801 -0.2344096,-0.87895 -0.293917,-8.39799 -0.091789,-11.59794 0.037266,-0.58997 0.1026993,-1.77176 0.1454065,-2.62619 0.042707,-0.85444 0.1467929,-2.2859 0.2313013,-3.18102 0.1634584,-1.73135 0.2410034,-3.28181 0.3163436,-6.32505 0.043704,-1.76532 0.1726147,-3.87435 0.341072,-5.58002 0.04556,-0.4613 0.2490663,-1.41063 0.5471214,-2.55221 0.620859,-2.37797 0.806642,-2.94992 1.081438,-3.32927 0.18007,-0.24857 0.234663,-0.41007 0.260328,-0.77006 0.0515,-0.72251 0.827603,-2.18344 1.639826,-3.08683 0.27331,-0.30398 0.342579,-0.43236 0.324792,-0.60193 -0.0163,-0.15537 0.0307,-0.26495 0.168372,-0.39254 0.10504,-0.0974 0.190982,-0.25755 0.190982,-0.35602 0,-0.48405 0.760297,-2.34592 1.190826,-2.91619 0.43071,-0.57051 1.332105,-1.30487 2.017623,-1.64375 0.765424,-0.37837 3.231111,-1.29423 4.000171,-1.48582 0.323214,-0.0805 0.772625,-0.16677 0.998693,-0.19167 0.226067,-0.0249 0.567989,-0.12896 0.759827,-0.23124 0.31151,-0.16608 0.371976,-0.24218 0.565673,-0.71195 0.270743,-0.65663 0.421544,-1.19508 0.516884,-1.8456 0.07635,-0.52095 0.345977,-1.04743 0.582998,-1.13839 0.06655,-0.0256 0.37292,-0.008 0.680823,0.0396 0.307903,0.0473 0.992591,0.15232 1.521527,0.23333 1.182558,0.18109 1.92684,0.19687 1.986231,0.0421 0.03539,-0.0922 0.373598,-0.10792 2.245725,-0.10422 2.156618,0.004 2.857498,-0.0384 4.375624,-0.26644 0.910637,-0.13677 1.227288,-0.14159 1.323509,-0.0201 0.115022,0.14522 0.299076,0.76725 0.460218,1.55537 0.144392,0.70619 0.389423,1.33181 0.649747,1.65894 0.09861,0.12391 0.438319,0.24436 1.424107,0.50495 0.71203,0.18821 1.372311,0.35749 1.467291,0.37617 0.09498,0.0187 0.826023,0.25086 1.624539,0.51595 2.293806,0.76152 2.93641,1.11142 3.769744,2.05266 0.428031,0.48345 0.609734,0.83479 1.24028,2.39818 0.266539,0.66085 0.464316,1.05417 0.530089,1.05417 0.0577,0 0.156972,0.12484 0.220595,0.27742 0.06362,0.15257 0.544793,0.92074 1.069264,1.70703 0.524475,0.78629 0.993616,1.50201 1.042541,1.5905 0.04892,0.0885 0.11026,0.47715 0.136299,0.86369 0.0512,0.75993 0.180324,1.12462 0.95606,2.70016 0.20033,0.40687 0.553284,1.3057 0.784345,1.99739 0.231057,0.69168 0.448491,1.31259 0.48318,1.3798 0.03469,0.0672 0.150473,0.53327 0.25729,1.03568 0.148598,0.69894 0.185064,1.0385 0.15525,1.44574 -0.02497,0.34108 -0.0033,0.65075 0.06031,0.86211 0.06302,0.20939 0.102283,0.75793 0.107522,1.50211 0.0045,0.64475 0.03839,1.28879 0.07522,1.43119 0.03683,0.14241 0.104523,0.40873 0.15043,0.59183 0.04591,0.18309 0.112279,0.38716 0.147491,0.45348 0.03521,0.0663 0.116638,0.53239 0.180943,1.03569 0.0643,0.50329 0.198842,1.46436 0.298969,2.1357 0.591117,3.9634 0.735974,5.50099 0.676034,7.17579 -0.125973,3.51975 -0.225272,5.33181 -0.344583,6.28807 -0.162005,1.29844 -0.368473,3.53663 -0.443575,4.80852 -0.04445,0.75272 -0.121654,1.56755 -0.171573,1.81073 -0.07921,0.3859 -0.130179,0.4722 -0.400649,0.6785 -0.781043,0.59572 -2.968728,0.88102 -4.225527,0.55106 -0.294807,-0.0774 -0.594783,-0.19391 -0.666615,-0.25892 -0.07183,-0.065 -0.164972,-0.11819 -0.206979,-0.11819 -0.04201,0 -0.22896,-0.1421 -0.415456,-0.31577 -0.186492,-0.17367 -0.368318,-0.30602 -0.40405,-0.29411 -0.308395,0.1028 -0.708085,-1.36585 -0.80472,-2.95692 -0.04663,-0.76773 -0.06925,-0.86168 -0.298504,-1.23964 -0.571689,-0.94253 -0.810833,-2.27143 -0.732566,-4.07083 0.05729,-1.31705 0.225288,-3.17794 0.340613,-3.77283 0.184277,-0.9506 -0.154542,-7.86601 -0.523738,-10.68972 -0.205594,-1.57241 -0.757778,-4.15853 -1.129377,-5.28937 l -0.230941,-0.70277 -0.0535,1.84942 c -0.06953,2.4035 -0.263061,6.20318 -0.40882,8.02653 -0.06343,0.79341 -0.13022,2.48295 -0.148434,3.75456 -0.03102,2.16573 -0.02107,2.4044 0.15735,3.77283 0.284241,2.18008 0.486332,4.7398 0.48765,6.17665 0.002,2.17921 0.114282,3.09511 0.741428,6.04788 0.39702,1.86927 0.459678,2.82732 0.221169,3.38176 -0.316367,0.7354 -1.21054,1.36723 -2.865136,2.02451 -0.769021,0.30549 -2.08199,0.63322 -2.759196,0.68873 -0.305156,0.025 -1.21087,0.002 -2.012699,-0.0519 -1.796471,-0.11998 -2.301884,-0.0747 -3.077792,0.27562 -0.752841,0.33991 -1.624032,0.54289 -2.719815,0.63367 -0.838329,0.0694 -2.01387,0.0806 -2.657469,0.025 z"
       id="path4539"
       inkscape:connector-curvature="0" />
  </g>
</svg>
