<?xml version="1.0" encoding="UTF-8" standalone="no"?>
<!-- Created with Inkscape (http://www.inkscape.org/) -->

<svg
   xmlns:dc="http://purl.org/dc/elements/1.1/"
   xmlns:cc="http://creativecommons.org/ns#"
   xmlns:rdf="http://www.w3.org/1999/02/22-rdf-syntax-ns#"
   xmlns:svg="http://www.w3.org/2000/svg"
   xmlns="http://www.w3.org/2000/svg"
   xmlns:sodipodi="http://sodipodi.sourceforge.net/DTD/sodipodi-0.dtd"   
   width="220"
   height="235"
   viewBox="0 0 58.208332 62.177085"
   version="1.1"
   id="svg8"   
   sodipodi:docname="pyro-strike.svg" >
  <defs
     id="defs2" />
  <sodipodi:namedview
     id="base"
     pagecolor="#000000"
     bordercolor="#666666"
     borderopacity="1.0"
     showgrid="false"
     units="px" />
  <metadata
     id="metadata5">
    <rdf:RDF>
      <cc:Work
         rdf:about="">
        <dc:format>image/svg+xml</dc:format>
        <dc:type
           rdf:resource="http://purl.org/dc/dcmitype/StillImage" />
        <dc:title></dc:title>
      </cc:Work>
    </rdf:RDF>
  </metadata>
  <g
     id="layer1"
     transform="translate(0,-234.8229)">
    <path
       style="fill:none;stroke:#ffffff;stroke-width:0.4;stroke-opacity:1;stroke-miterlimit:4;stroke-dasharray:none"
       d="m 25.836959,294.76234 c -0.685449,-0.13366 -1.444555,-0.25777 -1.686904,-0.27579 -0.242346,-0.0181 -0.406179,-0.0889 -0.364072,-0.1574 0.0421,-0.0685 -0.06801,-0.12463 -0.244707,-0.12463 -0.436424,0 -3.060106,-1.06862 -4.184929,-1.70452 -2.698909,-1.52577 -5.395736,-3.96104 -7.249041,-6.54599 -1.358038,-1.89416 -3.053471,-5.60939 -3.053471,-6.69111 0,-0.19029 -0.07919,-0.34597 -0.175976,-0.34597 -0.09679,0 -0.140369,-0.0576 -0.09685,-0.12803 0.09776,-0.15818 -0.4573001,-2.5305 -0.6967507,-2.97793 -0.5373768,-1.00409 0.056273,-7.49546 0.8137027,-8.89754 0.08573,-0.1587 0.155874,-0.43657 0.155874,-0.61749 0,-0.34807 0.217278,-0.91225 1.02697,-2.66662 0.691406,-1.49807 0.971801,-2.0239 1.284818,-2.40945 0.415996,-0.51239 1.011603,-1.38873 1.011603,-1.48841 0,-0.0491 0.265204,-0.37002 0.589342,-0.71296 0.791421,-0.83731 1.149368,-1.55211 0.867008,-1.73134 -0.115543,-0.0733 -0.266975,-0.1345 -0.336517,-0.13589 -0.355522,-0.007 -1.750559,-0.77566 -2.089774,-1.15121 -0.50258,-0.55642 -0.746158,-1.15421 -1.202213,-2.95044 -0.629541,-2.47952 -0.517385,-4.29101 0.419834,-6.78097 0.647486,-1.7202 1.467434,-2.94824 3.275743,-4.90604 0.211037,-0.22848 0.364016,-0.47707 0.339956,-0.5524 -0.02406,-0.0753 0.03759,-0.0867 0.13701,-0.0252 0.09942,0.0614 0.308248,-0.004 0.464072,-0.14468 0.365353,-0.33064 1.72184,-0.93914 1.878173,-0.84253 0.06601,0.0408 0.168069,-0.0772 0.226799,-0.26227 0.07976,-0.2513 0.174475,-0.29855 0.374314,-0.18672 0.328525,0.18385 0.717975,-0.15504 0.679811,-0.59156 -0.01456,-0.16639 -0.01461,-0.61799 -1.21e-4,-1.00355 0.01995,-0.53119 0.08356,-0.67904 0.262597,-0.61033 1.129041,0.057 2.280916,0.0543 2.970655,0.0945 7.206614,-0.16697 15.168014,0.34449 17.672058,-0.26156 0.356916,0.0958 0.357021,0.0976 0.28955,4.94128 -0.03713,2.66501 -0.0988,5.72911 -0.137069,6.80911 -0.05058,1.42765 -0.0021,2.19084 0.177638,2.79608 0.135968,0.45785 0.22392,1.02388 0.19545,1.25785 -0.03476,0.28567 0.0551,0.48617 0.273557,0.61039 0.48972,0.27849 0.75478,0.55325 0.75478,0.78242 0,0.11315 0.04764,0.1581 0.10587,0.0999 0.05823,-0.0582 0.312796,0.0414 0.565703,0.22156 0.252908,0.18009 0.51025,0.32744 0.571871,0.32744 0.195971,0 2.466466,1.92364 3.243133,2.7477 1.130661,1.19965 2.652745,3.12469 2.655909,3.35903 0.0015,0.11423 0.06623,0.2077 0.143738,0.2077 0.07751,0 0.278483,0.3178 0.446601,0.70622 0.168118,0.38842 0.395943,0.81839 0.506279,0.95548 0.401453,0.4988 1.910298,4.46823 1.989662,5.23434 0.160148,1.54596 0.439153,2.99187 0.596024,3.08883 0.104531,0.0646 0.146275,0.28488 0.09277,0.4895 -0.06815,0.26063 0.01018,0.45908 0.261578,0.66265 0.271937,0.2202 0.315108,0.34553 0.178216,0.51735 -0.09936,0.12472 -0.231183,0.50717 -0.292937,0.84989 -0.06175,0.34273 -0.171208,0.62314 -0.243228,0.62314 -0.07202,0 -0.130945,0.22104 -0.130945,0.49119 0,0.27016 0.04879,0.46106 0.108408,0.42421 0.05963,-0.0369 0.07606,0.15337 0.03653,0.42273 -0.03953,0.26936 -0.138167,0.48974 -0.219188,0.48974 -0.08102,0 -0.147309,0.0792 -0.147309,0.17597 0,0.0968 0.05944,0.13924 0.132087,0.0943 0.236122,-0.14593 -0.08789,1.93525 -0.539994,3.4685 -0.660673,2.24057 -1.388502,3.79841 -2.672323,5.71979 -3.264007,4.88497 -8.578428,8.28842 -14.422139,9.2362 -1.933213,0.31354 -5.921746,0.30067 -7.589232,-0.0245 z M 15.98999,255.49581 c 0.479032,-0.15872 0.815525,-0.34971 0.747763,-0.42441 -0.06776,-0.0747 0.01153,-0.0874 0.176224,-0.0282 0.178556,0.0642 0.258445,0.0413 0.197905,-0.0566 -0.05584,-0.0903 0.01947,-0.16427 0.167346,-0.16427 0.147877,0 0.22731,-0.0673 0.176515,-0.14942 -0.05079,-0.0822 0.170555,-0.38027 0.491885,-0.6624 0.583968,-0.51273 0.584122,-0.51325 0.332904,-1.11449 -0.138235,-0.33084 -0.203474,-0.67897 -0.144978,-0.77363 0.103672,-0.16774 0.11434,-6.65364 0.01544,-9.38488 -0.06062,-1.67394 -0.195172,-1.85108 -1.059702,-1.39505 -0.777729,0.41024 -1.988295,1.46946 -1.930721,1.68935 0.02285,0.0873 -0.02344,0.13997 -0.102856,0.11711 -0.228727,-0.0658 -1.480705,1.68496 -2.023761,2.83002 -1.748902,3.68763 -1.786438,7.53797 -0.09141,9.37641 0.540043,0.58573 0.607675,0.6115 1.372261,0.52258 0.442322,-0.0514 1.196157,-0.2234 1.675189,-0.38212 z"
       id="path1096"       
       sodipodi:nodetypes="cscscssscccsscsscccssccccccccccccsccccsccsccscsccscscssccsscsssccccccsccscccccccccc" />
  </g>
</svg>
