<?xml version="1.0" encoding="UTF-8" standalone="no"?>
<!-- Created with Inkscape (http://www.inkscape.org/) -->

<svg
   xmlns:dc="http://purl.org/dc/elements/1.1/"
   xmlns:cc="http://creativecommons.org/ns#"
   xmlns:rdf="http://www.w3.org/1999/02/22-rdf-syntax-ns#"
   xmlns:svg="http://www.w3.org/2000/svg"
   xmlns="http://www.w3.org/2000/svg"
   xmlns:sodipodi="http://sodipodi.sourceforge.net/DTD/sodipodi-0.dtd"
   xmlns:inkscape="http://www.inkscape.org/namespaces/inkscape"
   width="220"
   height="235"
   viewBox="0 0 58.208332 62.177085"
   version="1.1"
   id="svg8"
   inkscape:version="0.92.3 (2405546, 2018-03-11)"
   sodipodi:docname="battery.svg">
  <defs
     id="defs2" />
  <sodipodi:namedview
     id="base"
     pagecolor="#000000"
     bordercolor="#666666"
     borderopacity="1.0"
     inkscape:pageopacity="0"
     inkscape:pageshadow="2"
     inkscape:zoom="3.959798"
     inkscape:cx="62.800162"
     inkscape:cy="125.96987"
     inkscape:document-units="px"
     inkscape:current-layer="layer1"
     showgrid="false"
     units="px"
     inkscape:window-width="3440"
     inkscape:window-height="1377"
     inkscape:window-x="-8"
     inkscape:window-y="-8"
     inkscape:window-maximized="1" />
  <metadata
     id="metadata5">
    <rdf:RDF>
      <cc:Work
         rdf:about="">
        <dc:format>image/svg+xml</dc:format>
        <dc:type
           rdf:resource="http://purl.org/dc/dcmitype/StillImage" />
        <dc:title></dc:title>
      </cc:Work>
    </rdf:RDF>
  </metadata>
  <g
     inkscape:label="Layer 1"
     inkscape:groupmode="layer"
     id="layer1"
     transform="translate(0,-234.8229)">
    <path
       style="fill:none;stroke:#ffffff;stroke-width:0.40000001;stroke-miterlimit:4;stroke-dasharray:none;stroke-opacity:1"
       d="m 19.196185,270.6311 c 0.0068,-0.007 0.05752,-0.85249 0.112699,-1.87921 0.07097,-1.32053 0.135829,-2.02152 0.221672,-2.39567 0.06674,-0.2909 0.154277,-0.96293 0.194532,-1.4934 0.04025,-0.53047 0.08122,-1.0625 0.09104,-1.18228 0.0098,-0.11978 0.01952,-0.3219 0.02154,-0.44913 l 0.0037,-0.23135 0.324174,0.0136 0.324176,0.0136 0.137154,-0.28002 c 0.07543,-0.154 0.168694,-0.47602 0.207246,-0.71559 0.03855,-0.23956 0.09298,-0.47782 0.120962,-0.52946 0.02799,-0.0516 0.100092,-0.31765 0.160243,-0.59114 0.143802,-0.65381 0.400386,-1.64255 0.472936,-1.82247 0.0317,-0.0786 0.05764,-0.18804 0.05764,-0.24317 0,-0.0551 0.08105,-0.36883 0.180103,-0.69711 0.09905,-0.32827 0.237406,-0.79287 0.307446,-1.03244 0.198367,-0.6785 0.635039,-1.81113 0.788638,-2.04556 0.05014,-0.0765 0.101838,-0.2216 0.114893,-0.3224 0.01305,-0.10079 0.03841,-0.22527 0.05634,-0.2766 0.04322,-0.12372 0.270671,-0.95405 0.357956,-1.30674 0.03811,-0.154 0.209175,-0.66126 0.380136,-1.12723 0.481852,-1.31334 1.263114,-2.66104 2.006849,-3.46187 0.103305,-0.11122 0.164293,-0.20223 0.135547,-0.20223 -0.02874,0 0.0802,-0.10116 0.242117,-0.22479 0.218629,-0.16694 0.286252,-0.25592 0.262745,-0.3458 -0.02279,-0.0872 -0.01126,-0.10424 0.04124,-0.061 0.05011,0.0412 0.150666,-0.008 0.321787,-0.15822 0.136901,-0.12 0.209577,-0.19707 0.16151,-0.17126 -0.05833,0.0313 -0.07242,0.0227 -0.04237,-0.0259 0.02477,-0.0401 0.07423,-0.0548 0.109913,-0.0328 0.03569,0.0221 0.08275,0.0155 0.104593,-0.0145 0.10801,-0.14862 1.055605,-0.62381 1.533113,-0.76881 0.916252,-0.27823 2.150359,-0.36034 2.955696,-0.19664 0.663943,0.13495 1.821627,0.52055 2.031254,0.67656 0.178388,0.13276 0.248526,0.144 0.796716,0.12769 l 0.601111,-0.0179 -0.212439,-0.23167 c -0.116844,-0.12742 -0.202736,-0.24137 -0.19088,-0.25323 0.01185,-0.0118 -0.07283,-0.12462 -0.18821,-0.25057 -0.115376,-0.12596 -0.196646,-0.22901 -0.180588,-0.22902 0.01604,0 -0.05718,-0.10903 -0.162729,-0.2423 -0.105553,-0.13325 -0.191905,-0.27027 -0.191907,-0.30446 0,-0.0342 -0.03802,-0.0768 -0.08449,-0.0946 -0.04647,-0.0178 -0.102139,-0.1207 -0.123719,-0.22857 -0.02554,-0.12768 -0.06456,-0.18049 -0.1118,-0.1513 -0.04477,0.0277 -0.05586,0.0178 -0.02885,-0.0258 0.02401,-0.0388 -0.05329,-0.27418 -0.171774,-0.52297 -0.18844,-0.39569 -0.410875,-0.88797 -0.443375,-0.98126 -0.0059,-0.0171 -0.03947,-0.10111 -0.07447,-0.18668 -0.035,-0.0856 -0.07465,-0.18356 -0.08812,-0.21778 -0.09078,-0.23064 -0.520799,-0.91055 -0.698558,-1.1045 -0.728343,-0.73975 -1.462834,-1.7183 -2.4683,-2.48517 -0.21374,-0.15827 -0.224137,-0.15961 -0.5592,-0.0723 -0.187776,0.0489 -0.407214,0.13209 -0.487644,0.18479 -0.08043,0.0527 0.0227,0.0227 0,0 -0.269619,-0.81036 -1.473066,-2.62572 -1.223375,-2.77809 0.04041,-0.0654 0.883884,-0.47401 1.274625,-0.61749 0.119782,-0.044 0.798715,-0.14872 0.909965,-0.20169 0.670986,0.58341 1.946045,2.08754 1.58123,2.18974 -0.03303,0 -0.09257,0.0608 -0.132373,0.13503 -0.05878,0.10982 -0.05354,0.14879 0.02795,0.20838 0.05514,0.0403 0.08412,0.0894 0.0644,0.10917 -0.01973,0.0197 0.08495,0.11494 0.232592,0.21163 0.147647,0.0967 0.319246,0.22581 0.381328,0.28694 0.271005,0.13548 0.400299,0.29523 0.655651,0.52665 0.506474,0.31987 1.024863,1.08238 1.305562,1.2729 0.169046,0.15448 0.348989,0.35817 0.760529,0.86092 0.22189,0.27108 0.546165,0.81364 0.853801,1.42857 0.09417,0.18823 0.185604,0.35624 0.203178,0.37335 0.0175,0.0172 0.08494,0.13531 0.14969,0.26267 0.06475,0.12735 0.141433,0.2169 0.170401,0.199 0.02897,-0.0179 0.03423,0.0155 0.01171,0.0742 -0.03,0.0782 -0.01891,0.0931 0.04144,0.0558 0.05302,-0.0328 0.0675,-0.0268 0.04061,0.0167 -0.023,0.0372 0.01343,0.16054 0.08093,0.27407 0.06751,0.11354 0.178403,0.31844 0.246442,0.45533 0.06803,0.1369 0.226949,0.43091 0.35314,0.65337 0.126188,0.22245 0.314787,0.56404 0.419096,0.75907 0.10431,0.19504 0.216991,0.33772 0.250402,0.31707 0.0337,-0.0208 0.04096,-0.006 0.0163,0.0344 -0.02445,0.0396 0.04995,0.24689 0.165305,0.46075 0.115363,0.21386 0.288792,0.60585 0.385404,0.87108 0.09661,0.26524 0.197265,0.48225 0.223676,0.48225 0.05552,0 0.451975,0.79483 0.586189,1.17524 0.05009,0.14197 0.075,0.29999 0.05537,0.35116 -0.01964,0.0512 -4.7e-4,0.13553 0.04267,0.18747 0.174697,0.21049 -0.02103,1.42528 -0.350461,2.1752 -0.156861,0.35707 -0.157154,0.38679 -0.0089,0.90227 0.14987,0.52111 0.156443,0.78511 0.05966,2.39567 -0.03496,0.5818 -0.09549,1.61785 -0.134504,2.30233 -0.03901,0.68447 -0.109712,1.73452 -0.157109,2.33344 -0.0474,0.59892 -0.08721,1.76098 -0.08847,2.58235 -0.01489,9.71315 -0.101612,22.05447 -0.162013,23.05443 -0.01343,0.22245 -0.03009,2.25255 -0.037,4.51133 -0.008,2.59534 -0.03574,4.16411 -0.07552,4.26242 -0.03463,0.0856 -0.05834,0.19756 -0.05271,0.2489 0.0056,0.0513 -0.08657,0.19834 -0.204889,0.32668 l -0.215124,0.23335 -1.014332,0.003 c -0.557879,0.002 -1.140335,0.0133 -1.294344,0.026 -0.154004,0.0127 -0.784034,0.0411 -1.400068,0.0631 -0.616026,0.022 -1.42283,0.0518 -1.792896,0.0662 -0.792735,0.0308 -0.878035,-0.006 -1.151555,-0.49015 l -0.181462,-0.32154 -0.04633,-1.46226 c -0.0573,-1.80826 -0.06605,-23.23942 -0.01004,-24.61002 0.02237,-0.54758 0.05597,-1.47163 0.07467,-2.05343 0.0187,-0.5818 0.04763,-1.25384 0.0643,-1.49341 0.01668,-0.23956 0.04219,-2.77368 0.05671,-5.63138 0.01611,-3.17115 0.05248,-5.4019 0.09334,-5.72471 0.03682,-0.2909 0.07892,-0.79493 0.09357,-1.12005 0.01465,-0.32513 0.04478,-0.82916 0.06696,-1.12006 0.02218,-0.2909 0.0431,-0.57092 0.0465,-0.62225 0.0042,-0.0628 0.0863,-0.0991 0.251227,-0.1111 0.134782,-0.01 0.275777,-0.037 0.313326,-0.0605 0.108271,-0.0677 0.189945,-0.0736 1.406122,-0.10112 1.120939,-0.0254 1.67817,-0.0987 2.474879,-0.32559 0.18046,-0.0514 0.312014,-0.11951 0.292335,-0.15134 -0.01968,-0.0318 0.0014,-0.0436 0.04703,-0.0261 0.04554,0.0175 0.131887,-0.004 0.191888,-0.048 0.101622,-0.0743 0.09581,-0.0978 -0.08495,-0.34361 -0.106718,-0.14512 -0.21406,-0.26385 -0.238532,-0.26384 -0.02448,0 -0.176892,-0.12869 -0.338709,-0.28596 -0.17778,-0.17279 -0.330123,-0.27218 -0.384951,-0.25115 -0.05074,0.0195 -0.08421,0.003 -0.07593,-0.0383 0.0081,-0.0402 -0.12519,-0.14425 -0.296317,-0.2311 -0.171118,-0.0869 -0.325127,-0.17435 -0.342238,-0.19441 -0.05551,-0.0651 -0.436914,-0.17678 -0.515113,-0.15086 -0.04181,0.0139 -0.258036,0.0396 -0.48049,0.0573 -0.426364,0.0338 -0.71615,0.0795 -0.871153,0.13742 -0.05133,0.0192 -0.163342,0.0479 -0.248901,0.0639 -0.289806,0.054 -0.839144,0.22393 -1.017243,0.31468 -0.09746,0.0497 -0.23529,0.10148 -0.306278,0.11515 -0.263812,0.0508 -0.785437,0.2995 -0.749651,0.3574 0.02039,0.033 -0.0019,0.0461 -0.04938,0.029 -0.04753,-0.017 -0.156447,0.003 -0.242004,0.0451 -0.623086,0.30453 -0.891484,0.44881 -0.98543,0.52972 -0.05961,0.0513 -0.144875,0.1012 -0.189486,0.11082 -0.07729,0.0167 -0.767518,0.47372 -0.91328,0.60477 -0.03805,0.0342 -0.191358,0.16023 -0.34064,0.28002 -0.451435,0.3622 -0.693235,0.61664 -0.650983,0.685 0.02201,0.0356 0.01696,0.0608 -0.01126,0.0559 -0.143528,-0.0249 -0.221955,0.0277 -0.393146,0.26406 -0.102885,0.14203 -0.187062,0.23626 -0.187071,0.20939 0,-0.0269 -0.06253,0.0319 -0.138951,0.13067 -0.07642,0.0987 -0.201292,0.24801 -0.277498,0.33173 -0.104619,0.11493 -0.121772,0.17243 -0.07004,0.23477 0.05294,0.0638 0.04638,0.074 -0.02886,0.0452 -0.06283,-0.0241 -0.124425,0.014 -0.173679,0.10746 -0.04197,0.0797 -0.09447,0.15884 -0.116665,0.17595 -0.124374,0.0959 -0.315686,0.44533 -0.277572,0.50699 0.02575,0.0417 0.01766,0.0556 -0.01914,0.0328 -0.15358,-0.0949 -0.599572,0.8605 -0.664207,1.4229 -0.008,0.0699 -0.02906,0.1539 -0.04672,0.18667 -0.09201,0.17075 -0.620173,2.91455 -0.897844,4.66426 -0.175661,1.10691 -0.313865,2.51744 -0.260329,2.65696 0.0245,0.0638 0.153386,0.11503 0.361843,0.1437 l 0.323783,0.0445 -0.03572,0.5375 c -0.04033,0.60683 -0.181121,2.10162 -0.320226,3.39985 -0.05134,0.47914 -0.163449,1.56967 -0.249128,2.42341 -0.09931,0.98951 -0.184402,1.57918 -0.234715,1.62653 -0.0558,0.0525 -0.197552,0.0604 -0.4834,0.0269 -0.222454,-0.0261 -0.824484,-0.0801 -1.337841,-0.12001 -0.513361,-0.0399 -1.068522,-0.0995 -1.233697,-0.13239 -0.165172,-0.0329 -0.380441,-0.0598 -0.478378,-0.0598 -0.141144,0 -0.176066,-0.0265 -0.168452,-0.12756 0.0053,-0.0702 0.01517,-0.13315 0.02199,-0.14001 z"
       id="path870"
       inkscape:connector-curvature="0"
       sodipodi:nodetypes="cccsccccccccscsscccccscsscccccccccccccscscscccccccccccccccccccscccccccccccccccscccsscccccccsscscccccsccccsccccscscccscccccsccccccscccccccsccccccsccscccccccscccccccsscsccc" />
  </g>
</svg>
