<?xml version="1.0" encoding="UTF-8" standalone="no"?>
<!-- Created with Inkscape (http://www.inkscape.org/) -->

<svg
   xmlns:dc="http://purl.org/dc/elements/1.1/"
   xmlns:cc="http://creativecommons.org/ns#"
   xmlns:rdf="http://www.w3.org/1999/02/22-rdf-syntax-ns#"
   xmlns:svg="http://www.w3.org/2000/svg"
   xmlns="http://www.w3.org/2000/svg"
   xmlns:sodipodi="http://sodipodi.sourceforge.net/DTD/sodipodi-0.dtd"   
   width="220"
   height="235"
   viewBox="0 0 58.208332 62.177085"
   version="1.1"
   id="svg8"   
   sodipodi:docname="gopro.svg" >
  <defs
     id="defs2" />
  <sodipodi:namedview
     id="base"
     pagecolor="#000000"
     bordercolor="#666666"
     borderopacity="1.0"
     showgrid="false"
     units="px" />
  <metadata
     id="metadata5">
    <rdf:RDF>
      <cc:Work
         rdf:about="">
        <dc:format>image/svg+xml</dc:format>
        <dc:type
           rdf:resource="http://purl.org/dc/dcmitype/StillImage" />
        <dc:title></dc:title>
      </cc:Work>
    </rdf:RDF>
  </metadata>
  <g
     id="layer1"
     transform="translate(0,-234.8229)">
    <path
       style="fill:none;stroke:#ffffff;stroke-width:0.4;stroke-opacity:1;stroke-miterlimit:4;stroke-dasharray:none"
       d="m 22.775174,292.04629 c -2.369909,-0.30685 -2.254845,-0.16884 -2.174296,-2.60776 0.06838,-2.07015 0.0948,-2.15773 0.744985,-2.46867 0.463726,-0.22177 0.674102,-0.50945 0.674102,-0.92182 0,-0.3297 0.137885,-0.61213 0.306411,-0.62764 0.168525,-0.0154 -0.134822,-0.11945 -0.674102,-0.231 -1.682213,-0.34795 -6.24524,-0.25188 -8.089225,0.17031 -0.943744,0.21608 -2.267435,0.41952 -2.941537,0.45207 -0.9111535,0.0441 -1.5253438,0.26168 -2.3936662,0.84834 -2.0839589,1.40802 -4.9310558,2.14254 -5.5179821,1.4236 -0.687436,-0.84206 -0.6287033,-11.65208 0.068488,-12.60555 0.2876949,-0.39344 0.4565937,-0.40732 1.7235886,-0.14156 1.5835237,0.33214 3.2602899,1.08185 4.2367355,1.89429 0.4540927,0.37782 1.1117291,0.58879 2.1279642,0.6826 0.808923,0.0747 1.663806,0.21298 1.899743,0.30731 0.353305,0.14126 0.428973,0.0372 0.428973,-0.59009 0,-0.69565 -0.06901,-0.76168 -0.796665,-0.76253 -1.069147,-9.1e-4 -2.192063,-0.72521 -2.9059381,-1.87357 l -0.5871373,-0.94448 v -14.21743 c 0,-13.07488 0.034453,-14.28042 0.4287165,-15.00142 0.5207215,-0.95224 1.8019519,-1.96059 2.6353849,-2.07408 0.563371,-0.0767 0.618781,-0.1982 0.686708,-1.50547 0.04332,-0.83372 0.195439,-1.45918 0.367692,-1.51186 0.161592,-0.0494 8.533633,-0.1582 18.604536,-0.24177 l 18.310733,-0.15192 0.256021,0.92839 c 0.140811,0.51062 0.28436,1.25803 0.318998,1.66089 0.05419,0.63032 0.182625,0.75191 0.920923,0.87182 1.205619,0.19582 2.154779,0.88837 2.710531,1.97772 0.454894,0.89168 0.476134,1.55477 0.476134,14.86343 v 13.93013 l -0.551538,1.09176 c -0.629805,1.24667 -1.89269,2.19879 -2.916504,2.19879 -0.663268,0 -0.699136,0.0555 -0.699136,1.08302 0,1.86292 0.007,1.85829 -2.783914,1.86025 -1.367485,9.2e-4 -3.210141,0.0702 -4.09479,0.15371 l -1.608459,0.15194 0.440592,0.89052 c 0.358038,0.72366 0.393533,1.06094 0.189441,1.8001 -0.317577,1.15017 -1.040515,1.65942 -2.355758,1.65942 -1.193645,0 -1.547699,0.33648 -0.827383,0.78633 0.616222,0.38484 0.662354,1.3481 0.07079,1.47823 -0.235937,0.0519 0.220456,0.0942 1.014205,0.0941 1.996018,-2.4e-4 2.411952,0.51065 2.316606,2.84602 -0.03778,0.92553 -0.129569,1.78127 -0.203966,1.90165 -0.315011,0.50969 -3.723915,0.73243 -10.787096,0.70482 -4.112023,-0.0162 -8.184485,-0.12092 -9.049913,-0.23296 z"
       id="path1200"       
       sodipodi:nodetypes="cccscscccccccccscccsccccscccccsccsscccccscccccccc" />
  </g>
</svg>
