<?xml version="1.0" encoding="UTF-8" standalone="no"?>
<svg
   xmlns:dc="http://purl.org/dc/elements/1.1/"
   xmlns:cc="http://creativecommons.org/ns#"
   xmlns:rdf="http://www.w3.org/1999/02/22-rdf-syntax-ns#"
   xmlns:svg="http://www.w3.org/2000/svg"
   xmlns="http://www.w3.org/2000/svg"
   xmlns:sodipodi="http://sodipodi.sourceforge.net/DTD/sodipodi-0.dtd"
   xmlns:inkscape="http://www.inkscape.org/namespaces/inkscape"
   width="220"
   height="235"
   viewBox="0 0 58.208332 62.177085"
   version="1.1"
   id="svg8"
   sodipodi:docname="flash-hider-flat.svg"
   inkscape:version="1.0.2-2 (e86c870879, 2021-01-15)">
  <defs
     id="defs2" />
  <sodipodi:namedview
     id="base"
     pagecolor="#000000"
     bordercolor="#666666"
     borderopacity="1.0"
     showgrid="false"
     fit-margin-top="0"
     fit-margin-left="0"
     fit-margin-right="0"
     fit-margin-bottom="0"
     units="px"
     inkscape:document-rotation="0"
     inkscape:zoom="3.0330367"
     inkscape:cx="73.287858"
     inkscape:cy="126.57736"
     inkscape:window-width="3440"
     inkscape:window-height="1377"
     inkscape:window-x="-8"
     inkscape:window-y="321"
     inkscape:window-maximized="1"
     inkscape:current-layer="svg8" />
  <metadata
     id="metadata5">
    <rdf:RDF>
      <cc:Work
         rdf:about="">
        <dc:format>image/svg+xml</dc:format>
        <dc:type
           rdf:resource="http://purl.org/dc/dcmitype/StillImage" />
        <dc:title></dc:title>
      </cc:Work>
    </rdf:RDF>
  </metadata>
  <g
     id="layer1"
     transform="matrix(1.2458686,0,0,1.2458686,-7.2007176,-326.59058)">
    <path
       style="fill:none;stroke:#ffffff;stroke-width:0.4;stroke-miterlimit:4;stroke-dasharray:none;stroke-opacity:1"
       d="m 40.81235,296.02903 c 0.07213,-0.0266 0.804421,-0.0595 1.786018,-0.08 0.289507,-0.007 0.623683,-0.0247 0.742616,-0.0414 0.200754,-0.0281 0.218412,-0.0387 0.246562,-0.14737 0.01828,-0.0705 0.07498,-0.1431 0.142718,-0.18266 0.121491,-0.0709 0.154036,-0.0743 1.499985,-0.16028 0.496298,-0.0316 0.995416,-0.0669 1.10915,-0.0782 0.113737,-0.0113 0.44366,-0.0284 0.733167,-0.038 0.613786,-0.0202 1.598846,-0.10577 2.1619,-0.18778 0.487003,-0.0708 1.328788,-0.26275 1.497968,-0.34134 0.0691,-0.0321 0.180779,-0.0627 0.248186,-0.0681 0.156456,-0.0125 0.219601,-0.0519 0.193153,-0.12084 -0.01151,-0.0299 -0.0049,-0.0448 0.01464,-0.0326 0.109436,0.0675 0.27672,-0.69719 0.223407,-1.02142 -0.01637,-0.0996 -0.03077,-0.20216 -0.032,-0.228 -0.0013,-0.0259 -0.02555,-0.0469 -0.05404,-0.0469 -0.02849,0 -0.07285,-0.0254 -0.0986,-0.0564 -0.02575,-0.0311 -0.07434,-0.0566 -0.108,-0.0568 -0.08073,-4.1e-4 -0.634649,-0.26813 -0.881409,-0.42598 -0.107342,-0.0687 -0.245874,-0.13737 -0.307847,-0.15267 -0.06197,-0.0154 -0.273414,-0.10692 -0.469865,-0.2036 -0.287928,-0.14169 -0.416098,-0.23414 -0.661038,-0.47677 -0.497246,-0.49254 -0.65327,-0.86564 -0.654346,-1.56478 -7.11e-4,-0.47751 0.04616,-0.70864 0.212647,-1.04799 0.229992,-0.46883 0.663729,-0.82863 1.152266,-0.95589 0.243715,-0.0636 0.239505,-0.0614 0.501834,-0.25352 0.230448,-0.16882 0.821303,-0.46812 1.215758,-0.61585 0.547794,-0.20516 0.586753,-0.27801 0.548023,-1.02474 -0.01441,-0.27778 -0.04423,-0.53393 -0.06628,-0.56923 -0.06949,-0.11126 -0.276167,-0.22953 -0.632823,-0.36213 -0.412106,-0.15322 -0.735793,-0.31402 -1.006582,-0.50008 -0.356305,-0.2448 -0.469481,-0.29985 -0.699734,-0.3404 -0.570542,-0.10051 -0.989145,-0.47357 -1.192088,-1.06244 -0.06451,-0.18719 -0.08222,-0.32617 -0.083,-0.65154 -0.0011,-0.46124 0.0555,-0.70666 0.234159,-1.01515 0.210726,-0.36385 0.353707,-0.49239 0.690301,-0.62058 0.170118,-0.0648 0.419348,-0.19013 0.553844,-0.27853 0.27454,-0.18045 0.497635,-0.28546 0.761765,-0.35855 0.136911,-0.038 0.18448,-0.0708 0.201796,-0.13982 0.02527,-0.10069 0.122545,-0.15899 0.427426,-0.25618 0.113735,-0.0364 0.228599,-0.0863 0.255253,-0.11129 0.02665,-0.0249 0.06654,-0.16147 0.08863,-0.30335 0.06638,-0.42639 -0.06547,-1.01884 -0.26741,-1.2016 -0.08787,-0.0795 -0.335218,-0.13572 -1.223216,-0.27794 -0.741444,-0.11876 -1.338644,-0.16539 -2.932667,-0.22905 -3.005285,-0.12 -3.873471,-0.13621 -3.91314,-0.0731 -0.01818,0.029 -0.02763,0.14987 -0.02101,0.26878 0.0077,0.13856 -0.0026,0.21618 -0.029,0.21618 -0.02258,0 -0.04106,-0.061 -0.04106,-0.1356 0,-0.10823 -0.01201,-0.13101 -0.05946,-0.11281 -0.03271,0.0127 -0.06656,0.0229 -0.0752,0.0229 -0.0087,0 -0.01572,0.0761 -0.01572,0.16919 v 0.16919 l -0.366583,0.008 c -0.201621,0.005 -0.603453,0.009 -0.892959,0.009 l -0.526377,0.003 -0.03067,-0.28173 c -0.01895,-0.17404 -0.05487,-0.30903 -0.094,-0.35307 -0.06198,-0.0698 -0.297045,-0.0708 -11.101383,-0.0504 -10.021386,0.019 -11.051361,0.0263 -11.182594,0.0812 -0.401004,0.16754 -0.644549,0.53178 -0.755805,1.13035 -0.08754,0.47097 -0.116166,0.53567 -0.342873,0.77494 -0.13931,0.14703 -0.282284,0.24955 -0.471742,0.33827 l -0.271849,0.12731 -1.022777,0.0189 c -0.606864,0.0111 -1.037386,0.0343 -1.058699,0.0566 -0.01976,0.0207 -0.0685,0.0968 -0.108312,0.16919 l -0.07239,0.13158 -0.410439,0.011 c -0.471454,0.0127 -0.579156,-0.006 -0.580827,-0.0962 -0.0016,-0.0829 -0.07006,-0.17226 -0.174925,-0.22813 -0.09966,-0.0531 -0.831911,-0.0588 -0.966641,-0.009 -0.05296,0.0201 -0.129413,0.10373 -0.172991,0.18913 l -0.07809,0.15306 -0.459001,-0.0106 -0.459,-0.0106 -0.06692,-0.14227 c -0.03799,-0.0808 -0.10825,-0.15798 -0.162471,-0.17859 -0.113621,-0.0433 -2.6581813,-0.0455 -2.9183603,-0.003 -0.238065,0.0392 -0.464919,0.20433 -0.59698,0.43453 -0.247196,0.43089 -0.31578,0.86006 -0.438884,2.74647 -0.149348,2.2886 -0.131802,4.68986 0.04958,6.78649 0.144096,1.66554 0.345709,2.49623 0.672879,2.77248 0.27622,0.23323 0.280057,0.23372 1.843957,0.23401 1.0637823,1.5e-4 1.4527453,-0.0116 1.5227293,-0.0466 0.0517,-0.0257 0.125,-0.11004 0.162891,-0.18744 l 0.0689,-0.14069 0.457484,1.1e-4 0.45748,1e-4 0.0752,0.14001 c 0.113626,0.21152 0.200415,0.2405 0.682387,0.22777 0.458346,-0.0121 0.525771,-0.0403 0.615879,-0.2579 l 0.04561,-0.11009 h 0.485149 c 0.480791,0 0.48546,7.9e-4 0.520312,0.0925 0.01933,0.0508 0.06968,0.127 0.111865,0.16918 0.07302,0.073 0.121403,0.0768 1.007254,0.0775 0.957236,7.9e-4 1.135741,0.02 1.416612,0.15214 0.407631,0.19161 0.635145,0.48909 0.717433,0.93809 0.07183,0.39196 0.190212,0.72986 0.313171,0.89393 0.119684,0.1597 0.558396,0.42122 0.706643,0.42122 0.06239,0 0.236771,0.0419 0.387535,0.0932 l 0.274111,0.0932 4.742447,1.3e-4 c 2.608345,1.1e-4 5.030074,2e-5 5.381618,-1.3e-4 0.591462,-2.9e-4 6.07219,0.002 6.241317,0.003 0.04137,1.3e-4 1.039592,0.002 2.2183,0.004 1.178705,0.002 2.249579,0.006 2.379714,0.008 0.130138,0.004 0.268946,-0.006 0.308464,-0.0202 z"
       id="path2541"
       sodipodi:nodetypes="cccccccccccccccscccccccccccccccccccccccccccccccsscsscccccccccsccccccccccccccccccscsccccccccccscccccsscccccsccc" />
  </g>
</svg>
