<?xml version="1.0" encoding="UTF-8" standalone="no"?>
<!-- Created with Inkscape (http://www.inkscape.org/) -->

<svg
   xmlns:dc="http://purl.org/dc/elements/1.1/"
   xmlns:cc="http://creativecommons.org/ns#"
   xmlns:rdf="http://www.w3.org/1999/02/22-rdf-syntax-ns#"
   xmlns:svg="http://www.w3.org/2000/svg"
   xmlns="http://www.w3.org/2000/svg"
   xmlns:sodipodi="http://sodipodi.sourceforge.net/DTD/sodipodi-0.dtd"   
   width="220"
   height="79"
   viewBox="0 0 58.208336 20.902083"
   version="1.1"
   id="svg8"   
   sodipodi:docname="tracer.svg" >
  <defs
     id="defs2" />
  <sodipodi:namedview
     id="base"
     pagecolor="#000000"
     bordercolor="#666666"
     borderopacity="1.0"
     showgrid="false"
     fit-margin-top="0"
     fit-margin-left="0"
     fit-margin-right="0"
     fit-margin-bottom="0"
     units="px" />
  <metadata
     id="metadata5">
    <rdf:RDF>
      <cc:Work
         rdf:about="">
        <dc:format>image/svg+xml</dc:format>
        <dc:type
           rdf:resource="http://purl.org/dc/dcmitype/StillImage" />
        <dc:title />
      </cc:Work>
    </rdf:RDF>
  </metadata>
  <g id="layer1"
     transform="translate(0.1032419,-276.41944)">
    <path
       style="fill:none;stroke:#ffffff;stroke-width:0.4;stroke-opacity:1;stroke-miterlimit:4;stroke-dasharray:none"
       d="m 11.113546,294.69171 c -0.0414,-0.0117 -0.262153,-0.0228 -0.490563,-0.0246 l -0.41529,-0.003 -0.07672,-0.0943 c -0.07151,-0.0878 -0.1959091,-0.29503 -0.199442,-0.33214 -8.676e-4,-0.009 -0.047394,-0.0506 -0.1034204,-0.0925 -0.056023,-0.0418 -0.097803,-0.0909 -0.09285,-0.10904 0.00496,-0.0181 -0.00439,-0.0246 -0.020886,-0.0145 -0.044893,0.0278 -0.092067,-0.0458 -0.1350211,-0.21041 -0.021182,-0.0811 -0.058075,-0.20664 -0.081996,-0.2788 -0.023921,-0.0722 -0.053761,-0.21238 -0.066304,-0.31161 -0.012543,-0.0992 -0.029496,-0.19125 -0.037657,-0.20451 -0.00811,-0.0133 -0.019998,-0.16087 -0.026298,-0.32801 -0.012896,-0.34201 -0.077863,-1.06117 -0.1037193,-1.14817 -0.01576,-0.0531 -0.1265026,-0.0577 -1.5623226,-0.0656 l -1.5453593,-0.009 -0.077691,-0.15581 c -0.042726,-0.0857 -0.090158,-0.1558 -0.1053983,-0.1558 -0.015235,0 -0.03656,-0.0353 -0.047394,-0.0785 -0.011951,-0.0476 -0.068699,-0.10269 -0.1444826,-0.14019 -0.1125633,-0.0557 -0.1367059,-0.0572 -0.2462718,-0.0155 -0.066809,0.0254 -0.1214778,0.0598 -0.1214778,0.0765 0,0.0166 -0.012333,0.0226 -0.027415,0.0134 -0.015082,-0.01 -0.1849721,-0.0193 -0.3775424,-0.022 l -0.3501285,-0.005 -0.1226652,-0.23407 c -0.1214616,-0.23178 -0.1242108,-0.23429 -0.2803609,-0.25623 -0.2668473,-0.0375 -0.3808719,-0.1618 -0.5010277,-0.54626 -0.00946,-0.0303 -0.043717,-0.037 -0.1120591,-0.0219 -0.054135,0.0119 -0.098428,0.009 -0.098428,-0.007 0,-0.0156 -0.044583,-0.0795 -0.099074,-0.14201 -0.054491,-0.0624 -0.095822,-0.0914 -0.091847,-0.0643 0.011021,0.075 -0.13211,0.328 -0.1855671,0.328 -0.025933,0 -0.085342,-0.0652 -0.1320208,-0.14482 -0.094579,-0.16139 -0.1932348,-0.26295 -0.1762434,-0.18142 0.012486,0.0598 -0.1397268,0.32565 -0.1867214,0.32598 -0.019285,1.3e-4 -0.087259,-0.0746 -0.151054,-0.16616 l -0.1159901,-0.16641 -0.082778,0.15821 c -0.045528,0.0871 -0.1042155,0.16251 -0.1304167,0.16776 -0.027453,0.006 -0.1015625,-0.0709 -0.1748995,-0.1804 -0.1012898,-0.15119 -0.1298427,-0.17656 -0.1399176,-0.12434 -0.034014,0.17626 -0.1151584,0.13579 -0.2669487,-0.13316 -0.178936,-0.31706 -0.26348,-1.06901 -0.2634601,-2.34328 1.74e-5,-1.03765 0.079197,-1.80862 0.2121526,-2.06573 0.041011,-0.0793 0.3425952,-0.36151 0.3863393,-0.36151 0.00884,0 0.033968,0.0433 0.055845,0.096 0.021878,0.0528 0.066111,0.11986 0.098297,0.14899 0.054475,0.0493 0.064314,0.0461 0.1423388,-0.0467 0.046099,-0.0548 0.093213,-0.12922 0.1046953,-0.16539 0.031421,-0.099 0.062443,-0.0815 0.1739449,0.0978 0.119671,0.19251 0.1634386,0.1896 0.2736753,-0.0182 0.042422,-0.08 0.088794,-0.1454 0.103049,-0.1454 0.014255,0 0.065941,0.066 0.1148583,0.14657 0.048916,0.0806 0.1112843,0.14703 0.1385962,0.14759 0.027312,6.3e-4 0.086147,-0.058 0.130745,-0.13016 0.044597,-0.0722 0.096053,-0.13064 0.114344,-0.12995 0.018292,7.4e-4 0.074443,0.0608 0.1247796,0.13349 0.050337,0.0727 0.1086896,0.12653 0.1296728,0.11953 0.020983,-0.007 0.062235,-0.10765 0.091671,-0.22369 0.1024746,-0.40397 0.2304663,-0.55576 0.4896065,-0.58066 0.1588974,-0.0153 0.1664212,-0.0206 0.2033119,-0.14372 0.021067,-0.0704 0.083829,-0.17896 0.1394703,-0.24142 l 0.101162,-0.11354 0.3690669,-0.005 c 0.372592,-0.005 0.4673432,0.0203 0.4673432,0.12236 0,0.0567 0.00315,0.0565 0.1657559,-0.009 0.1097645,-0.0439 0.1484135,-0.0844 0.2116863,-0.22141 0.042573,-0.0922 0.1189769,-0.21515 0.169786,-0.27318 l 0.092382,-0.1055 1.5088198,-0.0199 c 0.8298513,-0.0109 1.5189132,-0.0299 1.5312499,-0.0421 0.012333,-0.0122 0.045962,-0.31744 0.074713,-0.67825 0.075372,-0.94556 0.1852059,-1.64453 0.2882445,-1.8343 0.022556,-0.0415 0.1541371,-0.19673 0.2923989,-0.34485 l 0.2513812,-0.26931 0.412714,-0.0128 c 0.226992,-0.007 0.441315,-0.0281 0.476272,-0.0468 0.04316,-0.0231 1.830259,-0.0341 5.567985,-0.0341 5.874749,-1.1e-4 22.489445,-0.0506 26.381906,-0.0802 9.992026,-0.076 12.345787,-0.0634 12.553211,0.0673 0.03996,0.0252 0.103656,0.0458 0.14156,0.0458 0.230321,0 0.461305,0.32819 0.650961,0.92491 0.129292,0.40679 0.325245,1.45148 0.383306,2.04353 0.02477,0.25256 0.06859,0.68799 0.09739,0.96761 0.0288,0.27962 0.04513,0.55529 0.03631,0.61258 -0.0088,0.0573 -0.08423,0.28548 -0.167569,0.50707 l -0.151524,0.40288 0.0048,0.4501 c 0.0027,0.24755 -0.0043,0.46481 -0.01541,0.48279 -0.02071,0.0335 0.01611,0.0493 0.20211,0.0868 0.189738,0.0382 0.205092,0.0947 0.204619,0.75336 -7.43e-4,1.10262 -0.101704,3.04182 -0.198045,3.80575 -0.09364,0.74256 -0.137398,1.05165 -0.199654,1.41042 l -0.0683,0.39361 -0.172583,0.1654 -0.172578,0.16538 0.01649,0.31541 c 0.02024,0.3869 0.01124,0.42381 -0.158085,0.64943 -0.194788,0.25952 -0.343047,0.34987 -0.613028,0.37358 -0.318882,0.028 -4.270639,0.0489 -13.177598,0.0697 -4.293577,0.01 -8.40429,0.0244 -9.13492,0.0322 -0.73063,0.008 -5.822897,0.0237 -11.31615,0.0355 -5.493252,0.0118 -10.101462,0.0235 -10.240464,0.026 -0.139002,0.003 -0.286604,-0.005 -0.328004,-0.0169 z"
       id="path2565"       
       sodipodi:nodetypes="ccccccccsccccccccscccscccccccsccscccccsccscccsccccscsccccccccccccsccccccscccccsscsscccccccccccccccccccsccc" />
  </g>
</svg>
