<?xml version="1.0" encoding="UTF-8" standalone="no"?>
<!-- Created with Inkscape (http://www.inkscape.org/) -->

<svg
   xmlns:dc="http://purl.org/dc/elements/1.1/"
   xmlns:cc="http://creativecommons.org/ns#"
   xmlns:rdf="http://www.w3.org/1999/02/22-rdf-syntax-ns#"
   xmlns:svg="http://www.w3.org/2000/svg"
   xmlns="http://www.w3.org/2000/svg"
   xmlns:sodipodi="http://sodipodi.sourceforge.net/DTD/sodipodi-0.dtd"
   xmlns:inkscape="http://www.inkscape.org/namespaces/inkscape"
   width="220"
   height="235"
   viewBox="0 0 58.208332 62.177085"
   version="1.1"
   id="svg8"
   inkscape:version="0.92.3 (2405546, 2018-03-11)"
   sodipodi:docname="tracer-unit.svg"
   inkscape:export-filename="D:\Projects\images\tracer.png"
   inkscape:export-xdpi="96"
   inkscape:export-ydpi="96">
  <defs
     id="defs2" />
  <sodipodi:namedview
     id="base"
     pagecolor="#000000"
     bordercolor="#666666"
     borderopacity="1.0"
     inkscape:pageopacity="0"
     inkscape:pageshadow="2"
     inkscape:zoom="4"
     inkscape:cx="-49.732977"
     inkscape:cy="91.59943"
     inkscape:document-units="mm"
     inkscape:current-layer="layer1"
     showgrid="false"
     fit-margin-top="0"
     fit-margin-left="0"
     fit-margin-right="0"
     fit-margin-bottom="0"
     inkscape:window-width="3440"
     inkscape:window-height="1377"
     inkscape:window-x="-8"
     inkscape:window-y="-8"
     inkscape:window-maximized="1"
     units="px" />
  <metadata
     id="metadata5">
    <rdf:RDF>
      <cc:Work
         rdf:about="">
        <dc:format>image/svg+xml</dc:format>
        <dc:type
           rdf:resource="http://purl.org/dc/dcmitype/StillImage" />
        <dc:title />
      </cc:Work>
    </rdf:RDF>
  </metadata>
  <g
     inkscape:label="Layer 1"
     inkscape:groupmode="layer"
     id="layer1"
     transform="translate(0.1032419,-276.41944)">
    <path
       style="fill:none;stroke:#ffffff;stroke-width:0.47583222;stroke-miterlimit:4;stroke-dasharray:none;stroke-opacity:1"
       d="m 18.553159,330.01927 c -0.04474,0.0249 -0.240102,0.20098 -0.434078,0.39127 l -0.352453,0.34621 -0.144102,-0.0147 c -0.134235,-0.0137 -0.413667,-0.0832 -0.447913,-0.11139 -0.0083,-0.007 -0.08257,-0.002 -0.165084,0.01 -0.08242,0.012 -0.159002,0.006 -0.170114,-0.0135 -0.01108,-0.0193 -0.02443,-0.017 -0.02981,0.006 -0.01441,0.061 -0.116171,0.0388 -0.291062,-0.0633 -0.08618,-0.0504 -0.22305,-0.12475 -0.304008,-0.16525 -0.081,-0.0405 -0.224253,-0.1332 -0.318433,-0.206 -0.09415,-0.0728 -0.186001,-0.13581 -0.204051,-0.1401 -0.01804,-0.005 -0.1524,-0.11828 -0.298541,-0.25335 -0.299046,-0.27637 -0.959754,-0.8257 -1.054848,-0.87705 -0.05802,-0.0314 -0.15521,0.0578 -1.371694,1.25682 l -1.30971,1.29011 -0.196749,-0.0655 c -0.108212,-0.0361 -0.207246,-0.0551 -0.220087,-0.0423 -0.01283,0.0128 -0.06055,0.001 -0.106078,-0.0261 -0.05018,-0.0299 -0.144413,-0.0285 -0.239867,0.004 -0.141779,0.0477 -0.163385,0.0667 -0.220569,0.19379 -0.03489,0.0774 -0.05197,0.15221 -0.03789,0.16624 0.01399,0.0139 0.0087,0.0293 -0.0118,0.0343 -0.02114,0.005 -0.172121,0.13912 -0.336657,0.29855 l -0.2992318,0.28982 -0.3005865,-0.0936 c -0.2976435,-0.0926 -0.3020751,-0.0924 -0.4521338,0.0203 -0.2564443,0.19258 -0.4572578,0.18395 -0.8824502,-0.038 -0.033497,-0.0174 -0.068018,0.006 -0.1128705,0.0758 -0.035594,0.0555 -0.075358,0.0903 -0.088835,0.0767 -0.013144,-0.0131 -0.104553,-0.0293 -0.2031383,-0.0361 -0.098488,-0.007 -0.1577542,0.004 -0.1315707,0.0232 0.072486,0.0537 0.1650588,0.38637 0.1200155,0.43126 -0.021854,0.0217 -0.1268482,0.0169 -0.2332673,-0.0107 -0.2156813,-0.0561 -0.3843841,-0.0586 -0.3013697,-0.005 0.060904,0.0398 0.1566603,0.39078 0.1173391,0.43052 -0.016135,0.0163 -0.1363824,0.0107 -0.2672857,-0.0127 l -0.2379516,-0.0423 0.063561,0.20236 c 0.035034,0.11139 0.049119,0.22398 0.031471,0.2504 -0.018077,0.0281 -0.1453172,0.0258 -0.2993773,-0.005 -0.2127404,-0.0419 -0.2581758,-0.0392 -0.2226642,0.0131 0.119857,0.17657 0.017386,0.21073 -0.3371327,0.11234 -0.4179295,-0.11602 -1.1227623,-0.67641 -2.1964513,-1.74646 -0.8743139,-0.87135 -1.4572195,-1.58524 -1.5618326,-1.91278 -0.032262,-0.10106 -0.015938,-0.59126 0.020921,-0.62799 0.00745,-0.007 0.065107,0.008 0.1279453,0.0337 0.062924,0.026 0.1567,0.0451 0.2083651,0.0425 0.087441,-0.005 0.093035,-0.0153 0.080586,-0.15874 -0.00733,-0.0847 -0.03034,-0.18677 -0.051142,-0.22679 -0.056942,-0.1095 -0.016057,-0.12087 0.2289735,-0.0639 0.2630451,0.0611 0.2974719,0.022 0.2152646,-0.2451 -0.031664,-0.10284 -0.047696,-0.19666 -0.035686,-0.20863 0.012012,-0.012 0.1111736,5e-5 0.2202807,0.0266 0.1091312,0.0266 0.2176568,0.03 0.2411418,0.007 0.023544,-0.0224 0.023717,-0.12105 4.928e-4,-0.21909 -0.023258,-0.0981 -0.029143,-0.19036 -0.013149,-0.20514 0.016037,-0.0147 0.113956,-0.0119 0.2176191,0.007 0.1036712,0.0188 0.1981971,0.015 0.2099794,-0.008 0.011785,-0.0235 -0.038267,-0.14264 -0.1112392,-0.26481 -0.2540414,-0.42527 -0.2740939,-0.66021 -0.076723,-0.89872 0.1209958,-0.14628 0.1228697,-0.15705 0.050213,-0.29141 -0.041569,-0.0768 -0.080158,-0.22067 -0.085903,-0.31984 l -0.010427,-0.18029 0.3067643,-0.3141 c 0.3097347,-0.31708 0.4108903,-0.3754 0.4968865,-0.28969 0.047772,0.0476 0.050263,0.0448 0.1320831,-0.14676 0.055494,-0.12903 0.053933,-0.19549 -0.00822,-0.36367 -0.041814,-0.11318 -0.08103,-0.28057 -0.08712,-0.37196 l -0.011082,-0.16618 1.2545701,-1.28369 c 0.690052,-0.706 1.25465,-1.30056 1.2547644,-1.32117 1.12e-4,-0.0207 -0.2287487,-0.30516 -0.5085429,-0.63228 -0.7332244,-0.8573 -1.229633,-1.53647 -1.3027128,-1.78234 -0.015956,-0.0538 -0.035892,-0.29463 -0.044197,-0.53511 l -0.01511,-0.43723 0.3369695,-0.35731 c 0.1853664,-0.19649 0.3481766,-0.39418 0.3618743,-0.43924 0.016897,-0.0557 1.5134525,-1.56553 4.662876,-4.70417 4.949997,-4.93324 18.90707,-18.92731 22.161935,-22.22074 8.355288,-8.45431 10.349194,-10.42023 10.634098,-10.48466 0.05491,-0.0123 0.125933,-0.0486 0.157871,-0.0804 0.19407,-0.19342 0.665231,-0.11175 1.327836,0.23004 0.451704,0.23302 1.497076,0.94572 2.044862,1.39411 0.23368,0.19128 0.637498,0.52012 0.897374,0.73074 0.259876,0.21063 0.505917,0.4284 0.546758,0.48392 0.04086,0.0555 0.169574,0.31044 0.286065,0.5665 l 0.211794,0.46554 0.3833,0.37392 c 0.210862,0.20561 0.388028,0.39393 0.393817,0.41836 0.01072,0.0455 0.05511,0.0279 0.243436,-0.0968 0.192063,-0.12725 0.252607,-0.0928 0.807198,0.46079 0.928446,0.92651 2.477355,2.63967 3.039868,3.36206 0.546783,0.70217 0.770353,0.99846 1.020197,1.352 l 0.274108,0.38788 -0.0061,0.28381 -0.0061,0.28379 0.279661,0.25101 c 0.343057,0.30789 0.366575,0.34644 0.414009,0.67808 0.05454,0.3815 0.0057,0.58186 -0.20176,0.82848 -0.245099,0.29128 -3.557255,3.62719 -11.044773,11.124 -3.609361,3.6138 -7.060933,7.07774 -7.669993,7.69782 -0.60889,0.62024 -4.886428,4.90948 -9.505125,9.53218 -4.618696,4.6227 -8.491736,8.50213 -8.606753,8.62095 -0.114599,0.11924 -0.245707,0.23648 -0.290617,0.26124 z"
       id="path2565"
       inkscape:connector-curvature="0"
       sodipodi:nodetypes="ccccccccsccccccccscccscccccccsccscccccsccscccsccccscsccccccccccccsccccccscccccsscsscccccccccccccccccccsccc" />
  </g>
</svg>
