<?xml version="1.0" encoding="UTF-8" standalone="no"?>
<!-- Created with Inkscape (http://www.inkscape.org/) -->

<svg
   xmlns:dc="http://purl.org/dc/elements/1.1/"
   xmlns:cc="http://creativecommons.org/ns#"
   xmlns:rdf="http://www.w3.org/1999/02/22-rdf-syntax-ns#"
   xmlns:svg="http://www.w3.org/2000/svg"
   xmlns="http://www.w3.org/2000/svg"
   xmlns:sodipodi="http://sodipodi.sourceforge.net/DTD/sodipodi-0.dtd"
   xmlns:inkscape="http://www.inkscape.org/namespaces/inkscape"
   width="220"
   height="235"
   viewBox="0 0 58.208332 62.177085"
   version="1.1"
   id="svg8"
   inkscape:version="0.92.3 (2405546, 2018-03-11)"
   sodipodi:docname="gloves.svg">
  <defs
     id="defs2" />
  <sodipodi:namedview
     id="base"
     pagecolor="#000000"
     bordercolor="#666666"
     borderopacity="1.0"
     inkscape:pageopacity="0"
     inkscape:pageshadow="2"
     inkscape:zoom="2.8"
     inkscape:cx="112.24195"
     inkscape:cy="78.035384"
     inkscape:document-units="px"
     inkscape:current-layer="layer1"
     showgrid="false"
     units="px"
     inkscape:window-width="3440"
     inkscape:window-height="1377"
     inkscape:window-x="-8"
     inkscape:window-y="-8"
     inkscape:window-maximized="1" />
  <metadata
     id="metadata5">
    <rdf:RDF>
      <cc:Work
         rdf:about="">
        <dc:format>image/svg+xml</dc:format>
        <dc:type
           rdf:resource="http://purl.org/dc/dcmitype/StillImage" />
        <dc:title></dc:title>
      </cc:Work>
    </rdf:RDF>
  </metadata>
  <g
     inkscape:label="Layer 1"
     inkscape:groupmode="layer"
     id="layer1"
     transform="translate(0,-234.8229)">
    <path
       style="fill:none;stroke:#ffffff;stroke-width:0.40000001;stroke-miterlimit:4;stroke-dasharray:none;stroke-opacity:1"
       d="m 26.63514,292.09643 c 0.510655,-0.10619 2.075718,-0.91797 2.075718,-1.07665 0,-0.041 0.04118,-0.0745 0.09151,-0.0745 0.10942,0 1.493577,-0.94843 2.13121,-1.46032 0.249027,-0.19991 0.555331,-0.49955 0.680676,-0.66584 0.125345,-0.1663 0.722824,-0.80248 1.327733,-1.41373 1.027242,-1.038 1.38327,-1.49176 2.107736,-2.68634 0.512766,-0.8455 2.222503,-3.33433 2.523879,-3.67396 0.380991,-0.42935 0.704948,-1.04025 1.647531,-3.10683 0.703958,-1.5434 1.245234,-2.43864 2.712657,-4.48659 0.843513,-1.17722 1.745043,-2.45529 2.003399,-2.84015 0.413492,-0.61595 2.301479,-3.72888 2.596295,-4.28079 0.06047,-0.11319 0.270492,-0.31969 0.466725,-0.45888 0.472265,-0.33498 0.897835,-0.90211 1.351477,-1.80103 0.307013,-0.60837 0.461653,-0.81098 0.886319,-1.16127 1.037033,-0.85539 1.551015,-1.67061 1.585519,-2.51477 0.01794,-0.43882 0.05703,-0.5293 0.458098,-1.06 0.416589,-0.55126 0.45288,-0.57852 0.72662,-0.54595 0.158471,0.0189 0.358913,0.0627 0.445427,0.0975 0.131118,0.0526 0.149759,0.0343 0.112001,-0.11005 -0.05437,-0.2079 0.05113,-0.26708 0.687632,-0.38569 l 0.462993,-0.0863 1.018819,-1.31863 c 1.66004,-2.14855 1.489123,-1.84815 1.391142,-2.44505 -0.07706,-0.46943 -0.07052,-0.52696 0.07088,-0.62392 0.144249,-0.0989 0.147358,-0.13472 0.04209,-0.48452 -0.100027,-0.33237 -0.09741,-0.4235 0.02183,-0.75922 l 0.135502,-0.38152 -0.527115,-0.50235 c -2.765631,-2.63571 -7.628508,-6.77028 -7.822129,-6.65062 -0.05908,0.0365 -0.07673,0.0258 -0.04422,-0.0268 0.07871,-0.12735 -0.41571,-0.51659 -0.586571,-0.46179 -0.09803,0.0314 -0.110352,0.0227 -0.03989,-0.0283 0.180951,-0.13095 -3.584534,-2.82592 -5.588652,-3.99982 -0.436864,-0.25588 -1.084484,-0.56266 -1.439155,-0.68172 -0.629575,-0.21134 -0.651223,-0.21304 -0.91352,-0.0718 -0.328343,0.17683 -1.262594,1.16895 -1.710078,1.81601 -0.18111,0.26188 -0.841164,1.0023 -1.466787,1.64537 l -1.137496,1.16921 -0.296577,-0.0819 c -0.163118,-0.045 -0.486019,-0.0582 -0.717558,-0.0293 -0.529294,0.0661 -0.866106,0.36229 -1.203012,1.05779 -0.340632,0.70319 -0.497383,0.839 -1.258705,1.09056 -0.825397,0.27272 -1.562893,0.64642 -1.979216,1.00289 -0.04072,0.0349 -0.228228,0.051 -0.416694,0.0358 -0.399602,-0.0322 -1.85864,0.20368 -1.974157,0.3192 -0.04339,0.0434 -0.124645,0.0789 -0.180557,0.0789 -0.05591,0 -0.205947,0.043 -0.333408,0.0956 -0.127462,0.0526 -0.258246,0.0901 -0.290634,0.0833 -0.03239,-0.007 -0.159329,0.0259 -0.282092,0.0725 -0.238084,0.0905 -1.152815,0.34244 -1.964063,0.54091 -0.271665,0.0665 -0.623595,0.17159 -0.782067,0.23362 -0.158472,0.062 -0.491879,0.17288 -0.740906,0.24634 -0.249027,0.0735 -0.526867,0.16544 -0.617422,0.2044 -0.09055,0.039 -0.294304,0.11578 -0.452776,0.17071 -0.785394,0.27223 -2.878109,1.40158 -3.045947,1.64376 -0.02264,0.0327 -0.08519,0.0742 -0.138997,0.0923 -0.259035,0.0872 -2.154098,1.94273 -3.522772,3.44933 -0.308494,0.33958 -0.749942,0.81719 -0.980994,1.06135 -0.880962,0.93095 -2.815681,3.34806 -3.630688,4.53595 -0.3169449,0.46195 -0.6315929,0.89825 -0.6992229,0.96956 -0.06763,0.0713 -0.160241,0.1929 -0.205807,0.27021 -0.111909,0.18988 -0.727045,0.98509 -0.920065,1.18941 -0.08555,0.0905 -0.437618,0.51658 -0.782378,0.94671 -0.344761,0.43014 -0.83788,1.00434 -1.095819,1.27601 -0.693252,0.73014 -1.009403,1.24373 -1.076376,1.7486 -0.05094,0.384 -0.03411,0.46134 0.154093,0.70809 0.116202,0.15235 0.315407,0.31437 0.442676,0.36005 0.933021,0.33489 1.117425,0.37151 1.597355,0.31721 0.474513,-0.0537 1.445219,-0.28401 1.741734,-0.41327 0.08265,-0.036 0.144065,-0.0279 0.144065,0.0189 0,0.10398 -0.582355,0.96573 -0.8828,1.30634 -0.383342,0.43459 -1.419705,1.96153 -1.668823,2.4588 -0.0677,0.13514 -0.28878,0.50503 -0.491284,0.82197 -0.202503,0.31694 -0.864737,1.55796 -1.471631,2.75782 -0.606895,1.19985 -1.131567,2.20008 -1.165938,2.22271 -0.185201,0.12198 -0.96056,2.30776 -1.240392,3.49675 -0.09565,0.40641 -0.225979,0.83961 -0.28962,0.96268 -0.151186,0.29236 -0.21503,1.68609 -0.08741,1.90816 0.336858,0.58615 0.726516,0.92529 1.466875,1.27669 0.878785,0.41711 2.564473,0.96169 2.60456,0.84143 0.01627,-0.0488 0.107864,-0.0888 0.203531,-0.0888 0.245185,0 0.749745,-0.36987 0.991652,-0.72694 0.112564,-0.16615 0.359094,-0.72812 0.547839,-1.24881 0.330461,-0.91165 0.889206,-1.98732 1.24504,-2.39691 0.09377,-0.10794 0.201523,-0.25152 0.239439,-0.31906 0.03791,-0.0675 0.09703,-0.0947 0.131364,-0.0604 0.03433,0.0343 0.01861,0.10627 -0.03499,0.15984 -0.05358,0.0536 -0.09741,0.15192 -0.09741,0.21854 0,0.0666 -0.05455,0.1814 -0.121234,0.25508 -0.06668,0.0737 -0.142154,0.30825 -0.167724,0.52128 -0.0322,0.26823 -0.181339,0.60872 -0.485035,1.10736 -0.991279,1.62759 -1.833798,3.74922 -1.757534,4.42583 0.06706,0.59493 0.866275,1.58305 2.136912,2.642 0.7929069,0.66081 1.0559739,0.75076 1.9567599,0.66909 0.38516,-0.0349 0.581341,-0.11364 1.040947,-0.41763 0.311487,-0.20603 0.79504,-0.6 1.074563,-0.87549 0.498953,-0.49176 0.510446,-0.49772 0.630031,-0.32699 0.06699,0.0956 0.410415,0.47245 0.763159,0.83734 0.857377,0.88691 1.383222,1.14123 2.478022,1.1985 0.713408,0.0373 0.820599,0.0225 1.246494,-0.17279 0.25628,-0.11749 0.669714,-0.26941 0.918741,-0.33761 0.427608,-0.11711 1.276443,-0.67582 3.52833,-2.32239 l 0.523545,-0.38282 -0.06291,0.27887 c -0.130016,0.5763 0.04674,1.65919 0.373927,2.29084 0.195888,0.37817 0.959231,1.12197 1.271871,1.23931 0.334491,0.12554 1.248452,0.16998 1.674334,0.0814 z"
       id="path5283"
       inkscape:connector-curvature="0"
       sodipodi:nodetypes="cssccscssssccsccscccccsscsccscccccccsccccccsccscccscscccccccccccccccccsscccccccscsccccccscccsccsscscccccssccc" />
  </g>
</svg>
