<?xml version="1.0" encoding="UTF-8" standalone="no"?>
<!-- Created with Inkscape (http://www.inkscape.org/) -->

<svg
   xmlns:dc="http://purl.org/dc/elements/1.1/"
   xmlns:cc="http://creativecommons.org/ns#"
   xmlns:rdf="http://www.w3.org/1999/02/22-rdf-syntax-ns#"
   xmlns:svg="http://www.w3.org/2000/svg"
   xmlns="http://www.w3.org/2000/svg"
   xmlns:sodipodi="http://sodipodi.sourceforge.net/DTD/sodipodi-0.dtd" 
   width="220"
   height="235"
   viewBox="0 0 58.208332 62.177085"
   version="1.1"
   id="svg8" 
   sodipodi:docname="GL06.svg" >
  <defs
     id="defs2" />
  <sodipodi:namedview
     id="base"
     pagecolor="#000000"
     bordercolor="#666666"
     borderopacity="1.0" 
     showgrid="false"
     units="px" />
  <metadata
     id="metadata5">
    <rdf:RDF>
      <cc:Work
         rdf:about="">
        <dc:format>image/svg+xml</dc:format>
        <dc:type
           rdf:resource="http://purl.org/dc/dcmitype/StillImage" />
        <dc:title></dc:title>
      </cc:Work>
    </rdf:RDF>
  </metadata>
  <g 
     id="layer1"
     transform="translate(0,-234.8229)">
    <path
       style="fill:none;stroke:#ffffff;stroke-width:0.4;stroke-opacity:1;stroke-miterlimit:4;stroke-dasharray:none"
       d="m 56.226281,259.85615 c 0.03128,-0.11851 -0.02354,-0.29588 -0.121844,-0.39416 -0.09828,-0.0983 -0.23734,-0.3584 -0.309025,-0.57802 -0.114062,-0.34947 -0.369781,-0.63568 -2.048892,-2.29323 -2.413243,-2.38224 -3.045509,-2.92827 -4.536553,-3.9178 -1.197406,-0.79465 -1.200162,-0.79718 -1.251824,-1.15328 -0.02848,-0.19628 0.03058,-0.49685 0.131246,-0.66794 0.16692,-0.28367 0.15583,-0.33824 -0.125976,-0.62004 l -0.308999,-0.309 0.499676,-0.49968 c 0.486685,-0.48668 0.498516,-0.51469 0.45485,-1.07729 -0.02465,-0.31768 0.0076,-0.6301 0.07181,-0.69425 0.06416,-0.0641 0.110332,-0.24309 0.102621,-0.39764 -0.01152,-0.2309 -0.153489,-0.41492 -0.796281,-1.03216 l -0.782269,-0.75115 1.866412,-1.94421 c 1.431118,-1.49078 1.871496,-1.99943 1.888228,-2.18092 0.012,-0.13017 -0.108247,-0.4651 -0.267217,-0.74426 -0.717436,-1.25985 -1.978135,-2.38847 -3.007256,-2.69217 -0.503556,-0.14861 -0.618105,-0.23396 -1.34096,-0.9991 l -0.790376,-0.8366 -0.346882,0.29977 c -0.190798,0.16486 -0.422648,0.48426 -0.515241,0.70976 -0.09259,0.22549 -0.226984,0.46863 -0.298654,0.5403 -0.07167,0.0717 -0.21201,0.52474 -0.311869,1.00682 -0.157713,0.76136 -0.234917,0.92854 -0.587639,1.27241 -1.074715,1.04778 -2.168615,2.23987 -2.226729,2.42662 -0.04179,0.13431 -0.09309,0.17924 -0.145189,0.12713 -0.101209,-0.1012 -0.420633,0.21195 -0.581427,0.57002 -0.07809,0.17392 -0.165561,0.26137 -0.243074,0.24308 -0.165318,-0.0391 -0.494276,0.30572 -0.58844,0.61667 -0.05797,0.19147 -0.106885,0.24037 -0.195882,0.19588 -0.168663,-0.0843 -0.52879,0.30846 -0.587284,0.64057 -0.04373,0.24823 -0.06789,0.27239 -0.209385,0.20938 -0.208747,-0.0929 -0.505471,0.20993 -0.571219,0.58311 -0.04712,0.26746 -0.0677,0.28804 -0.220152,0.22015 -0.211962,-0.0944 -0.499378,0.18535 -0.547599,0.53301 -0.04735,0.34137 -0.120052,0.41542 -0.265387,0.27009 -0.156804,-0.15681 -0.456749,0.15615 -0.525898,0.54871 -0.05087,0.28876 -0.0691,0.30698 -0.254595,0.2546 -0.255144,-0.072 -0.453657,0.12724 -0.524023,0.52579 -0.05145,0.29203 -0.07051,0.31109 -0.278759,0.27876 -0.282997,-0.0439 -0.392554,0.0673 -0.507873,0.51546 -0.08815,0.34261 -0.103388,0.35619 -0.356615,0.31774 -0.262657,-0.0398 -0.265492,-0.0371 -0.397323,0.39729 -0.118808,0.39144 -0.152874,0.43179 -0.323798,0.38352 -0.198137,-0.0559 -0.535575,0.31157 -0.484555,0.52773 0.03604,0.15269 -0.257736,0.43104 -0.353679,0.33509 -0.0428,-0.0428 -0.163272,0.008 -0.26773,0.11211 -0.104457,0.10447 -0.176546,0.24658 -0.160201,0.31582 0.01634,0.0692 -0.03824,0.19385 -0.121302,0.27692 -0.08306,0.0831 -0.186032,0.116 -0.228825,0.0732 -0.106982,-0.10698 -0.358042,0.16282 -0.496823,0.53388 -0.0915,0.24467 -0.141446,0.29462 -0.243563,0.24356 -0.153245,-0.0766 -0.585878,0.3265 -0.54341,0.50636 0.01634,0.0692 -0.03824,0.19385 -0.121302,0.27691 -0.08306,0.0831 -0.186031,0.11601 -0.228825,0.0732 -0.126929,-0.12693 -0.414549,0.23739 -0.429868,0.5445 -0.01347,0.27007 -0.02601,0.28261 -0.248121,0.24813 -0.287194,-0.0446 -0.597801,0.24313 -0.499856,0.46303 0.08267,0.18563 -0.179275,0.49945 -0.308784,0.36994 -0.05235,-0.0523 -0.116674,-0.01 -0.164008,0.10831 -0.04284,0.10694 -0.548728,0.68211 -1.124196,1.27816 -0.80333,0.83209 -1.078916,1.06921 -1.186781,1.02117 -0.152231,-0.0678 -0.424624,0.29478 -0.308611,0.41079 0.0378,0.0378 -0.0188,0.15626 -0.125785,0.26325 -0.106982,0.10698 -0.229525,0.1595 -0.272319,0.1167 -0.04873,-0.0487 -0.558421,0.40281 -1.364043,1.20843 -1.075247,1.07525 -1.273076,1.31137 -1.205992,1.43941 0.24661,0.47071 0.246958,0.5343 0.002,0.34821 -0.133772,-0.10159 -0.257153,-0.17077 -0.274176,-0.15376 -0.01703,0.017 -1.041464,0.75607 -2.276533,1.64234 l -2.24558,1.61137 -0.64079,0.009 c -0.743075,0.0104 -0.890208,0.18442 -0.561898,0.66436 0.123507,0.18055 0.179231,0.37359 0.123836,0.42898 -0.09476,0.0948 0.01187,0.78378 0.244961,1.58287 0.09647,0.33072 0.06759,0.39676 -0.426145,0.97437 -0.636477,0.7446 -0.805883,1.13609 -0.976,2.25551 -0.205983,1.35543 -0.380781,1.9643 -0.819793,2.85555 -0.506355,1.02796 -0.486134,1.00607 -7.9243914,8.5855 -6.0718148,6.18705 -5.8321836,5.90144 -5.3532824,6.38035 0.1359774,0.13597 0.2472299,0.3296 0.2472328,0.43028 0,0.14034 0.064077,0.18626 0.2745544,0.19675 0.326353,0.0163 0.5030034,0.16971 0.5048504,0.4385 0.00107,0.15686 0.044094,0.18977 0.2160318,0.16522 0.245295,-0.0351 0.6908164,0.19348 0.584522,0.29977 -0.038794,0.0388 -4.998e-4,0.14055 0.085095,0.22613 0.085583,0.0856 0.1865431,0.12469 0.224348,0.0869 0.1337253,-0.13373 0.5387681,0.24119 0.4868533,0.45062 -0.045549,0.18375 -0.028593,0.19886 0.1920888,0.17127 0.2853589,-0.0356 0.4734746,0.12661 0.5667925,0.48899 0.053974,0.20959 0.093958,0.24957 0.1999432,0.19994 0.072873,-0.0341 0.2316831,0.0372 0.3529308,0.15842 0.1212447,0.12125 0.1927302,0.28026 0.1588525,0.35337 -0.049278,0.10632 -0.021525,0.13409 0.1387537,0.13875 0.2384109,0.007 0.6695638,0.40805 0.5582733,0.51934 -0.042796,0.0428 -0.025293,0.13033 0.038901,0.19451 0.064185,0.0642 0.1517253,0.0817 0.1945186,0.0388 0.1313639,-0.13136 0.4901401,0.31782 0.4631445,0.57985 -0.018509,0.17966 0.012075,0.23144 0.1123165,0.19012 0.1637198,-0.0675 0.6266857,0.36206 0.5128952,0.47585 -0.048409,0.0484 0.061744,0.18047 0.2860119,0.34288 0.2940196,0.21295 0.3572563,0.31239 0.3261109,0.51291 -0.032234,0.20765 -0.00195,0.25216 0.1835257,0.2694 0.2332889,0.0217 0.4934074,0.38677 0.366202,0.51397 -0.1093645,0.10936 0.645382,0.6315 0.942789,0.65223 0.215718,0.015 0.391874,-0.12039 1.153966,-0.88719 1.539154,-1.54862 1.335887,-0.98478 3.343705,-9.27563 0.258627,-1.06796 0.682346,-2.70853 0.941594,-3.64572 0.527224,-1.90591 0.68192,-2.14264 1.62281,-2.48329 0.708212,-0.25641 0.864203,-0.58407 0.611628,-1.28471 -0.291054,-0.80737 -0.174956,-1.00954 1.597883,-2.78238 0.861467,-0.86147 1.573528,-1.50935 1.658864,-1.50935 0.08782,0 1.236413,-1.06833 2.783505,-2.58899 l 2.633986,-2.58899 0.529446,-0.10765 c 0.796534,-0.16193 1.437235,-0.037 1.941254,0.37871 0.430278,0.35483 0.879687,1.06151 0.871306,1.37009 -0.005,0.18394 0.07033,0.55029 0.185146,0.90055 0.04226,0.12892 0.114685,0.40663 0.16094,0.61712 0.146166,0.6652 0.824334,2.69965 0.937689,2.813 0.05979,0.0598 0.07369,0.14371 0.0309,0.18651 -0.0428,0.0428 -0.01362,0.142 0.06484,0.22045 0.07846,0.0785 0.142643,0.18911 0.142646,0.24591 -3e-6,0.0939 0.43742,1.08431 0.58018,1.31357 0.03284,0.0527 0.14733,0.27354 0.254419,0.49066 0.27993,0.56753 0.626488,0.61296 1.451648,0.19029 1.0591,-0.54251 3.769911,-2.18883 4.02634,-2.44526 0.310138,-0.31014 0.301647,-0.66326 -0.02377,-0.98869 -0.341429,-0.34142 -0.53148,-0.77424 -0.545732,-1.24281 -0.01388,-0.45656 -0.08444,-0.56384 -0.625845,-0.95164 -0.451667,-0.32352 -0.73804,-0.90752 -0.814901,-1.6618 -0.03238,-0.31772 -0.08798,-0.39305 -0.467922,-0.63388 -0.728976,-0.46206 -1.052233,-1.29328 -0.80501,-2.07002 0.0953,-0.2994 0.430203,-0.67139 2.03934,-2.26514 1.058922,-1.04881 2.081602,-2.13577 2.272642,-2.41545 0.673331,-0.98588 0.651464,-2.26733 -0.05368,-3.146 l -0.39712,-0.49484 0.812536,-0.78249 c 0.689188,-0.66372 0.794129,-0.80088 0.691381,-0.90364 -0.153524,-0.15352 -0.02331,-0.28786 0.278995,-0.28787 0.316189,0 0.616217,-0.32134 0.547701,-0.58658 -0.0399,-0.1544 -0.01247,-0.20766 0.09574,-0.18587 0.08341,0.0168 0.278473,-0.0454 0.433485,-0.13822 0.217395,-0.13017 0.274041,-0.22846 0.247736,-0.42991 -0.02318,-0.17744 0.0077,-0.2422 0.09633,-0.20201 0.07174,0.0325 0.278508,-0.0422 0.459487,-0.16594 0.259968,-0.17783 0.316423,-0.26985 0.268876,-0.43823 -0.03597,-0.12741 -0.0081,-0.20084 0.06926,-0.18258 0.07119,0.0168 0.284834,-0.0757 0.474762,-0.20566 0.269234,-0.18418 0.328809,-0.2733 0.270412,-0.40442 -0.06185,-0.13888 -0.02929,-0.1812 0.186822,-0.24276 0.143959,-0.041 0.333506,-0.0588 0.421219,-0.0395 0.08771,0.0192 0.210257,-0.0157 0.272321,-0.0778 0.06207,-0.0621 0.182396,-0.0433 0.267408,0.0417 0.102437,0.10243 0.281898,0.10228 0.532093,-4.2e-4 0.207638,-0.0852 0.530929,-0.12306 0.718427,-0.0841 0.320378,0.0668 0.369247,0.1147 0.811502,0.79652 0.886281,1.36635 1.471075,2.06241 2.997192,3.56751 0.840257,0.82868 1.755198,1.7344 2.033199,2.0127 0.662021,0.6628 1.535702,1.27867 1.836803,1.29487 0.131966,0.007 0.264967,0.0491 0.295568,0.0934 0.1557,0.22544 0.310385,0.25068 0.659073,0.1075 0.444381,-0.18247 1.71348,-1.41113 1.801284,-1.74389 z m -44.362555,31.85534 c -0.210078,0 -0.412941,-0.0309 -0.450808,-0.0688 -0.08913,-0.0891 -0.601831,0.10294 -0.797749,0.29886 -0.08357,0.0836 -0.294161,0.15196 -0.467976,0.15196 -0.3000567,0 -0.3986226,-0.0842 -1.9502473,-1.66774 -1.8621273,-1.90029 -2.0086769,-2.14042 -1.5749654,-2.58046 0.2776811,-0.28179 0.2705852,-0.82803 -0.01597,-1.22367 -0.4246153,-0.58626 -0.3708009,-0.67719 1.6849498,-2.84706 1.5913039,-1.67963 1.8540129,-1.92414 2.1157039,-1.9691 0.293661,-0.0505 0.32684,-0.0233 1.931838,1.58171 1.598134,1.59814 1.633064,1.64065 1.633046,1.98932 3e-6,0.34935 -1.234194,5.41864 -1.433002,5.88588 -0.160706,0.37769 -0.268091,0.44915 -0.674824,0.44915 z m 23.700533,-26.43037 c 0.316615,-0.37737 0.590928,-0.75078 0.609587,-0.82982 0.04671,-0.19789 -0.139285,-0.36166 -0.494858,-0.43572 -0.231137,-0.0481 -0.486795,-0.25962 -1.125447,-0.93094 -0.454508,-0.47774 -0.896399,-0.90365 -0.981986,-0.94644 -0.132209,-0.0661 -0.0028,-0.23713 0.860407,-1.13734 l 1.016015,-1.05954 0.598659,10e-6 c 0.625821,0 1.206679,0.24085 1.099212,0.45578 -0.03302,0.0661 0.08717,0.26737 0.267127,0.44732 0.179956,0.17995 0.392635,0.52878 0.472622,0.77516 0.144048,0.44369 0.148413,0.44805 0.459253,0.45909 0.23853,0.009 0.305323,0.0493 0.27831,0.1703 -0.01955,0.0876 -0.845331,0.95998 -1.835072,1.93874 -1.312735,1.29815 -1.643808,1.59393 -1.223866,1.09343 z m -21.352844,17.82703 c -0.238874,0.0119 -0.405121,-0.12055 -1.400504,-1.11594 -0.941779,-0.94178 -1.131686,-1.1745 -1.142968,-1.40051 -0.01213,-0.24325 0.128548,-0.41312 1.372188,-1.65676 1.290379,-1.29037 1.401601,-1.3809 1.616751,-1.31575 0.320779,0.0971 0.983365,0.78145 1.019206,1.05263 0.03718,0.28136 -0.938824,4.15642 -1.085493,4.30976 -0.05935,0.0623 -0.230098,0.11913 -0.37918,0.12657 z"
       id="path836" 
       sodipodi:nodetypes="csccsccscscscscscccscccscccscccccccccsccccccsccsscsscscsscccscccssssccsccccsccscssccccsssccccsccsssccscccscccscssccccccscsssccccsscsccccccccsccccccccccccssscccsccccccsssccccscsccscccccccccscccccccscscccc" />
  </g>
</svg>
