<?xml version="1.0" encoding="UTF-8" standalone="no"?>
<!-- Created with Inkscape (http://www.inkscape.org/) -->

<svg
   xmlns:dc="http://purl.org/dc/elements/1.1/"
   xmlns:cc="http://creativecommons.org/ns#"
   xmlns:rdf="http://www.w3.org/1999/02/22-rdf-syntax-ns#"
   xmlns:svg="http://www.w3.org/2000/svg"
   xmlns="http://www.w3.org/2000/svg"
   xmlns:sodipodi="http://sodipodi.sourceforge.net/DTD/sodipodi-0.dtd" 
   width="220"
   height="235"
   viewBox="0 0 58.208332 62.177085"
   version="1.1"
   id="svg8" 
   sodipodi:docname="glm.svg" >
  <defs
     id="defs2" />
  <sodipodi:namedview
     id="base"
     pagecolor="#000000"
     bordercolor="#666666"
     borderopacity="1.0" 
     showgrid="false"
     units="px" />
  <metadata
     id="metadata5">
    <rdf:RDF>
      <cc:Work
         rdf:about="">
        <dc:format>image/svg+xml</dc:format>
        <dc:type
           rdf:resource="http://purl.org/dc/dcmitype/StillImage" />
        <dc:title></dc:title>
      </cc:Work>
    </rdf:RDF>
  </metadata>
  <g
     id="layer1"
     transform="translate(0,-234.8229)">
    <path
       style="fill:none;stroke:#ffffff;stroke-width:0.4;stroke-opacity:1;stroke-miterlimit:4;stroke-dasharray:none"
       d="m 56.801281,258.73605 c 0.04034,-0.17469 -0.05535,-0.36005 -0.325145,-0.62983 -0.210262,-0.21027 -0.368495,-0.44082 -0.351608,-0.51232 0.02811,-0.1191 -0.386699,-0.59945 -1.294793,-1.49939 -0.192519,-0.19055 -0.385745,-0.42826 -0.429682,-0.52798 -0.111051,-0.25204 -3.056892,-3.22863 -3.169053,-3.20214 -0.05014,0.0118 -0.227918,-0.13591 -0.395022,-0.32834 -0.167098,-0.19244 -0.626612,-0.59522 -1.021153,-0.89506 -0.766058,-0.58221 -0.915607,-0.86895 -0.611763,-1.1728 0.217268,-0.21726 0.157246,-0.719 -0.119067,-0.99532 -0.390342,-0.39033 -0.225038,-1.13351 0.209122,-0.94014 0.196699,0.0876 0.441728,-0.18713 0.342992,-0.38459 -0.0999,-0.19979 0.224025,-0.46951 0.477809,-0.39786 0.412733,0.11655 0.164294,-0.56555 -0.418115,-1.14797 l -0.51605,-0.51605 1.994557,-1.89945 1.99456,-1.89946 -0.796191,-0.91398 c -0.902376,-1.03586 -3.138348,-3.0903 -3.317354,-3.04805 -0.06502,0.0153 -0.87163,0.87919 -1.792543,1.91963 -0.920895,1.04046 -1.729122,1.89175 -1.796062,1.89175 -0.06694,0 -0.408306,-0.24117 -0.758584,-0.53593 -0.504946,-0.42492 -0.674462,-0.51041 -0.818309,-0.41267 -0.09979,0.0678 -0.139389,0.16532 -0.088,0.21671 0.05139,0.0514 0.01509,0.1718 -0.08068,0.26757 -0.09577,0.0958 -0.213296,0.13495 -0.261178,0.0871 -0.04788,-0.0478 -0.16541,-0.008 -0.261174,0.0871 -0.09577,0.0958 -0.134944,0.21329 -0.08706,0.26118 0.04788,0.0478 -0.01088,0.18499 -0.13059,0.3047 -0.119706,0.1197 -0.256824,0.17847 -0.304706,0.13059 -0.04788,-0.0478 -0.165411,-0.008 -0.261175,0.0871 -0.09577,0.0958 -0.134943,0.2133 -0.08706,0.26118 0.04788,0.0478 -0.01088,0.185 -0.130591,0.3047 -0.119705,0.11971 -0.256824,0.17847 -0.304706,0.1306 -0.04788,-0.0479 -0.16541,-0.008 -0.261174,0.0871 -0.09577,0.0958 -0.134944,0.2133 -0.08706,0.26118 0.04788,0.0478 -0.01089,0.185 -0.13059,0.30471 -0.119706,0.1197 -0.256824,0.17847 -0.304706,0.13059 -0.04788,-0.0478 -0.16541,-0.008 -0.261175,0.0871 -0.09577,0.0958 -0.134943,0.2133 -0.08706,0.26118 0.04788,0.0479 -0.01088,0.18501 -0.13059,0.30472 -0.119707,0.1197 -0.256824,0.17847 -0.304706,0.13058 -0.04788,-0.0478 -0.165411,-0.008 -0.261177,0.0871 -0.09576,0.0958 -0.134942,0.2133 -0.08706,0.26118 0.04788,0.0478 -0.01088,0.185 -0.130589,0.3047 -0.119707,0.11971 -0.256825,0.17847 -0.304707,0.13059 -0.04788,-0.0478 -0.16541,-0.008 -0.261176,0.0871 -0.09577,0.0958 -0.134943,0.21328 -0.08706,0.26116 0.04788,0.048 -0.01089,0.18501 -0.13059,0.30471 -0.119707,0.11971 -0.256823,0.17848 -0.304706,0.1306 -0.04788,-0.0478 -0.165411,-0.008 -0.261176,0.0871 -0.09576,0.0958 -0.134943,0.2133 -0.08706,0.26118 0.04788,0.0478 -0.01089,0.185 -0.130589,0.30471 -0.119706,0.11971 -0.256824,0.17847 -0.304706,0.13059 -0.04788,-0.0478 -0.165411,-0.008 -0.261176,0.0871 -0.09577,0.0958 -0.134944,0.21329 -0.08706,0.26118 0.04788,0.0478 -0.01088,0.18499 -0.130591,0.3047 -0.119706,0.1197 -0.256823,0.17847 -0.304705,0.13058 -0.04788,-0.0478 -0.165412,-0.008 -0.261177,0.0871 -0.09576,0.0958 -0.134942,0.2133 -0.08706,0.26118 0.04788,0.0478 -0.01088,0.185 -0.13059,0.3047 -0.119706,0.11971 -0.256824,0.17847 -0.304706,0.13059 -0.04788,-0.0478 -0.165412,-0.008 -0.261176,0.0871 -0.09577,0.0958 -0.134942,0.2133 -0.08706,0.26118 0.04788,0.0478 -0.01088,0.185 -0.130591,0.30471 -0.119706,0.1197 -0.256824,0.17847 -0.304706,0.13059 -0.04788,-0.0478 -0.165411,-0.009 -0.261176,0.0871 -0.09576,0.0958 -0.134942,0.2133 -0.08706,0.26118 0.04788,0.0478 -0.01088,0.18501 -0.13059,0.30471 -0.119706,0.11971 -0.256824,0.17848 -0.304706,0.13059 -0.04788,-0.0478 -0.165412,-0.008 -0.261176,0.0871 -0.09577,0.0958 -0.134942,0.21329 -0.08706,0.26118 0.04788,0.0478 -0.01319,0.18731 -0.135729,0.30983 -0.139379,0.13939 -0.236429,0.16499 -0.259233,0.0684 -0.02262,-0.0959 -0.08644,-0.0809 -0.168217,0.0391 -0.106195,0.156 -0.03901,0.30321 0.346295,0.75867 0.45074,0.53283 0.465952,0.58038 0.266196,0.83208 l -0.211872,0.26696 -1.311671,-1.31167 c -1.273181,-1.27319 -1.317016,-1.30633 -1.493937,-1.1294 -0.111516,0.11151 -0.271136,0.13025 -0.411204,0.0482 -0.125914,-0.0738 -0.217469,-0.0747 -0.203456,-0.002 0.01401,0.0725 -0.300082,0.53978 -0.697986,1.03829 -0.397909,0.49851 -0.708756,0.97119 -0.690773,1.05041 0.01798,0.0792 -0.137214,0.36588 -0.344878,0.63705 -0.441299,0.57623 -1.626336,1.90041 -1.344711,1.50261 0.156028,-0.22039 0.142164,-0.33168 -0.0756,-0.60701 -0.180124,-0.22774 -0.354405,-0.33276 -0.537106,-0.32364 -0.360129,0.0179 -0.776722,0.43744 -0.605114,0.60905 0.08125,0.0812 0.04837,0.21282 -0.08705,0.34824 -0.119706,0.11971 -0.256827,0.17847 -0.304709,0.13059 -0.04788,-0.0478 -0.165412,-0.009 -0.261177,0.0871 -0.09576,0.0958 -0.134942,0.21328 -0.08706,0.26116 0.04788,0.0478 -0.01088,0.18501 -0.130587,0.30472 -0.119706,0.1197 -0.256827,0.17846 -0.304709,0.13058 -0.04788,-0.0478 -0.165411,-0.008 -0.261176,0.0871 -0.09576,0.0958 -0.134942,0.21329 -0.08706,0.26118 0.120416,0.12042 -0.181535,0.40047 -0.431787,0.40047 -0.157818,0 -0.229056,0.0781 -0.307411,0.33682 -0.08615,0.28452 -0.157172,0.35365 -0.457422,0.44518 -0.277569,0.0846 -0.339594,0.1402 -0.28314,0.25373 0.08547,0.17189 -0.308926,0.60572 -0.435574,0.47907 -0.04788,-0.0478 -0.165412,-0.008 -0.261177,0.0871 -0.09576,0.0958 -0.134943,0.2133 -0.08706,0.26118 0.04788,0.0478 -0.01088,0.18499 -0.130587,0.3047 -0.119706,0.11971 -0.256826,0.17847 -0.304709,0.13059 -0.1373,-0.13731 -0.362547,0.15972 -0.273221,0.36029 0.106457,0.23903 -0.294031,0.63952 -0.466779,0.46678 -0.151208,-0.15121 -0.45367,0.10819 -0.568547,0.48761 -0.05683,0.18772 0.01468,0.35146 0.261117,0.5979 0.303414,0.30341 0.368616,0.31786 0.615074,0.13625 0.151617,-0.11173 -0.458555,0.55133 -1.355951,1.47347 -0.897396,0.92214 -2.145242,2.24049 -2.772987,2.92967 -0.627761,0.68915 -1.170685,1.22359 -1.206507,1.18761 -0.03583,-0.036 -0.118592,-0.012 -0.183908,0.0534 -0.112432,0.11243 0.447458,0.99996 0.663656,1.05202 0.0499,0.012 -0.218479,0.32829 -0.596397,0.70284 -0.586503,0.58124 -0.745411,0.68282 -1.085188,0.69343 -0.278822,0.008 -0.506221,0.12057 -0.759073,0.37342 -0.395589,0.39559 -0.437246,0.71383 -0.197892,1.51184 0.130923,0.4365 0.113137,0.48821 -0.31514,0.91649 -0.249639,0.24964 -0.439973,0.51284 -0.422962,0.5849 0.01702,0.072 -0.158828,0.37495 -0.390747,0.67308 -0.338996,0.43581 -0.46921,0.5355 -0.66412,0.50844 -0.219273,-0.0304 -0.305101,0.0535 -0.898029,0.87783 -1.8789973,2.61237 -9.862209,13.02606 -10.1435859,13.2318 -0.1797726,0.13147 -0.2928142,0.27308 -0.2512239,0.31466 0.1066095,0.10662 10.4389708,5.30352 11.4236398,5.74579 0.446063,0.20036 0.859664,0.31565 0.919118,0.25619 0.05946,-0.0594 0.004,-0.39575 -0.123339,-0.74732 l -0.231431,-0.63923 0.521505,0.13151 c 0.842057,0.21234 2.462018,-0.17056 2.370035,-0.5602 -0.01861,-0.0789 -0.309939,-0.24162 -0.647375,-0.36166 -0.56316,-0.20033 -1.223811,-0.16582 -2.368991,0.12377 -0.227974,0.0577 -0.267397,0.007 -0.608011,-0.78494 -0.716013,-1.66422 -0.742813,-1.95567 -0.305884,-3.32646 0.136964,-0.42971 0.141159,-0.43297 0.220366,-0.1714 0.08852,0.29235 0.861614,1.08332 1.301856,1.33192 0.557517,0.31486 0.569376,0.21234 0.362683,-3.13599 -0.04088,-0.66225 -0.08726,-1.29628 -0.103064,-1.40896 -0.01581,-0.11267 0.170626,-0.45603 0.414301,-0.76301 0.442265,-0.55716 0.443445,-0.55773 0.67744,-0.32373 0.225325,0.22532 0.249394,0.21735 0.6214,-0.20566 0.377612,-0.42941 0.380033,-0.44645 0.09968,-0.70337 -0.272861,-0.25005 -0.270709,-0.2873 0.04295,-0.74058 l 0.330261,-0.47729 -0.51877,-0.61663 c -0.87124,-1.0356 -0.909505,-1.92639 -0.124555,-2.89964 l 0.427541,-0.53012 -0.215735,0.48075 c -0.254815,0.56781 -0.21816,1.07848 0.100678,1.40269 0.126516,0.12862 0.707385,0.44881 1.290852,0.71151 1.383786,0.62303 1.582879,0.7509 1.811619,1.1636 0.105254,0.1899 0.494852,1.73345 0.865778,3.43012 1.27176,5.81723 1.333836,6.16259 1.151439,6.40594 -0.201791,0.26921 -0.10366,0.56542 0.196559,0.59332 0.371692,0.0345 4.273418,-2.3709 4.739283,-2.92181 0.252032,-0.29802 0.260156,-0.37625 0.06463,-0.62214 -0.123006,-0.1547 -0.695668,-1.89346 -1.272579,-3.86392 -1.384682,-4.72941 -1.355165,-4.58231 -0.992243,-4.94523 0.247719,-0.24772 0.349906,-0.26841 0.638084,-0.12921 0.610653,0.29495 0.80778,0.16532 2.775978,-1.82543 0.987902,-0.99922 1.81342,-1.79953 1.834445,-1.77851 0.02105,0.0211 0.03827,0.15581 0.03827,0.29946 -1e-6,0.59322 0.521758,0.75008 1.079232,0.32447 0.461654,-0.35245 0.431138,-0.36605 1.782008,0.79413 0.847274,0.72767 1.238176,0.86005 1.826488,0.61848 0.545466,-0.22398 3.848146,-3.0998 5.150027,-4.4844 0.865342,-0.92036 1.065959,-1.0886 1.217567,-1.02107 0.153799,0.0685 0.463491,-0.20116 2.029207,-1.76687 2.0897,-2.0897 3.422167,-3.81638 3.342258,-4.33106 -0.05152,-0.33185 -0.129093,-0.43605 -2.357521,-3.16668 -1.55537,-1.90589 -1.777213,-2.22167 -1.678844,-2.38971 0.09333,-0.15944 0.01523,-0.29174 -0.442383,-0.74935 l -0.555729,-0.55574 0.522355,-0.52235 0.522354,-0.52235 -0.291715,-0.29172 c -0.401905,-0.40191 -0.66597,-0.9877 -0.577279,-1.28062 0.120503,-0.39799 0.647428,-0.84309 1.047693,-0.88498 0.329121,-0.0344 0.445028,0.034 1.003376,0.59232 0.89494,0.89494 1.067543,0.71494 0.24029,-0.25056 -1.0281,-1.19991 -1.370616,-1.24441 -2.314331,-0.3007 -0.576265,0.57627 -0.750849,1.12167 -0.454046,1.41848 0.09459,0.0945 0.01563,0.23875 -0.308098,0.56249 l -0.435296,0.4353 -0.348235,-0.34823 -0.348239,-0.34825 1.233946,-1.24723 c 1.361953,-1.37663 1.543587,-1.59894 1.453555,-1.77899 -0.03366,-0.0673 0.03169,-0.2153 0.145244,-0.32885 0.164007,-0.16401 0.27556,-0.15917 0.542613,0.0234 0.184889,0.12649 0.421734,0.35345 0.526323,0.50436 0.248908,0.35919 0.743636,0.45113 0.745786,0.1386 0.0018,-0.26173 0.278782,-0.56871 0.401995,-0.44548 0.04788,0.0478 0.165412,0.008 0.261177,-0.0871 0.09577,-0.0958 0.134942,-0.2133 0.08706,-0.26118 -0.137645,-0.13763 0.245123,-0.44773 0.552672,-0.44773 0.153478,0 0.4451,0.11973 0.648044,0.26608 0.311219,0.22441 0.431855,0.23394 0.770513,0.0609 0.396201,-0.20253 0.409114,-0.19837 0.973741,0.31446 0.31472,0.28584 0.572218,0.59889 0.572219,0.69567 -1e-6,0.0973 0.185483,0.31674 0.414884,0.49084 0.232521,0.17646 0.452042,0.43759 0.499425,0.59407 0.05562,0.18371 0.132855,0.26782 0.225785,0.24589 0.163776,-0.0386 0.655047,0.41763 0.618103,0.5741 -0.03139,0.13292 2.041403,2.19719 2.20626,2.19719 0.193865,0 0.580035,0.43945 0.580034,0.66006 3e-6,0.13944 0.0622,0.20873 0.201792,0.22481 0.110985,0.0128 0.640208,0.40753 1.176053,0.87721 0.535844,0.4697 1.040739,0.85433 1.121988,0.85474 0.234431,10e-4 2.017404,-1.68622 2.083315,-1.97165 z M 35.51685,274.87633 c -1.062033,0.9136 -2.041683,1.6946 -2.176999,1.73558 -0.186705,0.0566 -0.347228,-0.0267 -0.665672,-0.34515 -0.39878,-0.39877 -0.409602,-0.43772 -0.217716,-0.7836 l 0.201922,-0.36396 -1.560954,-1.65398 c -0.858524,-0.90968 -1.529135,-1.6466 -1.49025,-1.63761 0.0389,0.009 0.742722,0.63717 1.564084,1.39593 1.34895,1.24614 1.544589,1.39151 2.022838,1.50306 l 0.529456,0.12349 4.04115,-4.04116 4.04115,-4.04114 0.309987,0.30998 0.309984,0.30999 -1.4257,1.40372 c -0.784113,0.77207 -1.472106,1.45526 -1.5288,1.51827 -0.179399,0.19921 0.144185,0.37922 0.392414,0.2183 0.130735,-0.0847 0.332605,-0.21587 0.448619,-0.29138 0.572371,-0.37256 -3.106103,3.18638 -4.795513,4.63966 z m -6.496641,-0.28527 c -0.152809,-0.068 -0.467438,0.20627 -2.038562,1.77739 -1.954519,1.95452 -2.192967,2.11959 -2.557157,1.77025 -0.09682,-0.0928 -0.627572,-0.63427 -1.179472,-1.20313 -1.041597,-1.07361 -1.116703,-1.22465 -0.813802,-1.63665 0.08414,-0.11448 0.163711,-0.32333 0.176799,-0.46416 0.0267,-0.28727 0.683255,-0.85088 1.028586,-0.88298 0.125703,-0.0117 0.521165,0.25155 0.991891,0.66021 0.430565,0.3738 0.996764,0.76749 1.258224,0.87488 0.522835,0.21473 1.353124,0.27514 1.517827,0.11044 0.183273,-0.18326 -0.04018,-0.46699 -0.304711,-0.3869 -0.13771,0.0417 -0.473968,0.0231 -0.747245,-0.0415 -0.989494,-0.23359 -1.697484,-1.35059 -1.502815,-2.37099 0.10459,-0.54822 0.857239,-1.41009 1.1998,-1.37391 0.215683,0.0228 3.398107,2.62079 3.442935,2.81067 0.0463,0.19616 -0.279703,0.44213 -0.472298,0.35636 z m -7.085331,-9.65005 c -0.405885,-0.12174 -0.451111,-0.16215 -0.45111,-0.40303 0,-0.22808 0.378395,-0.6482 2.555551,-2.83738 1.405551,-1.41332 3.441404,-3.50563 4.524089,-4.64962 1.082703,-1.14397 1.997869,-2.05051 2.033701,-2.01455 0.03584,0.036 0.238435,-0.0943 0.450202,-0.28955 0.298006,-0.27478 0.268514,-0.21574 -0.130592,0.26118 l -0.515613,0.61615 0.290291,0.34317 0.290294,0.34317 -2.259113,2.3892 c -1.242511,1.31406 -2.997527,3.17579 -3.900035,4.13716 l -1.640923,1.74796 0.0983,0.51112 c 0.09258,0.48135 0.165454,0.5757 1.252008,1.62094 0.634536,0.61041 1.274902,1.30205 1.423034,1.53698 0.204824,0.32483 -0.19034,-0.005 -1.649823,-1.37523 -1.60471,-1.50707 -1.99307,-1.82454 -2.370268,-1.93768 z m -5.418629,11.2281 c -0.01339,-0.12452 -0.23808,-0.36059 -0.613265,-0.64435 -0.32567,-0.2463 -0.592127,-0.47066 -0.592126,-0.49858 6e-6,-0.0279 0.422373,-0.59872 0.938608,-1.26845 0.7199,-0.93397 1.023939,-1.25772 1.304814,-1.38942 0.499553,-0.23421 0.7914,-0.54729 0.84056,-0.90169 0.02472,-0.17819 0.232881,-0.48783 0.52086,-0.77477 0.475339,-0.47337 0.470744,-0.45844 -0.475825,1.61359 -0.525531,1.15036 -1.137596,2.49713 -1.36015,2.99281 -0.464323,1.03418 -0.53428,1.1423 -0.563476,0.87086 z"
       id="path849"       
       sodipodi:nodetypes="csccccccsscccscccsccsccssssssssssssssssssssssssssssssssssssssssssssssssssccsccssccccccccsssssssssccccssssscscscsccscccscscccccscscccccscccccccsccccccccccccccccsssssssscccscscscccsccssssscccccscccsssccccccccccccscccccsccccsscccccccccccsccccccssccccccccccsccccccscsccsccccccccccccc" />
  </g>
</svg>
