<?xml version="1.0" encoding="UTF-8" standalone="no"?>
<!-- Created with Inkscape (http://www.inkscape.org/) -->

<svg
   xmlns:dc="http://purl.org/dc/elements/1.1/"
   xmlns:cc="http://creativecommons.org/ns#"
   xmlns:rdf="http://www.w3.org/1999/02/22-rdf-syntax-ns#"
   xmlns:svg="http://www.w3.org/2000/svg"
   xmlns="http://www.w3.org/2000/svg"
   xmlns:sodipodi="http://sodipodi.sourceforge.net/DTD/sodipodi-0.dtd" 
   width="220"
   height="235"
   viewBox="0 0 58.208332 62.177085"
   version="1.1"
   id="svg8" 
   sodipodi:docname="m052.svg" >
  <defs
     id="defs2" />
  <sodipodi:namedview
     id="base"
     pagecolor="#000000"
     bordercolor="#666666"
     borderopacity="1.0"
     showgrid="false"
     units="px" />     
  <metadata
     id="metadata5">
    <rdf:RDF>
      <cc:Work
         rdf:about="">
        <dc:format>image/svg+xml</dc:format>
        <dc:type
           rdf:resource="http://purl.org/dc/dcmitype/StillImage" />
        <dc:title></dc:title>
      </cc:Work>
    </rdf:RDF>
  </metadata>
  <g     
     id="layer1"
     transform="translate(0,-234.8229)">
    <path
       style="fill:none;stroke:#ffffff;stroke-width:0.4;stroke-opacity:1;stroke-miterlimit:4;stroke-dasharray:none"
       d="m 19.335601,294.99987 c -0.618965,0.26768 -7.814493,-0.10023 -9.8817786,-0.50525 -1.017927,-0.19943 -1.4551376,-0.41976 -1.5280248,-0.77006 -0.065093,-0.31282 -0.289918,0.14369 3.2353124,-6.56921 3.756322,-7.15297 5.439357,-10.49076 5.55623,-11.01914 0.05806,-0.26247 0.08305,-0.9545 0.05554,-1.53785 -0.0275,-0.58334 -0.04666,-2.09528 -0.04256,-3.35986 l 0.0074,-2.29923 -0.473728,-1.15966 c -0.333425,-0.8162 -0.458467,-1.25041 -0.422196,-1.46609 0.02834,-0.16854 0.311946,-0.71827 0.630222,-1.22164 0.805314,-1.27363 0.945359,-1.90616 0.685235,-3.09497 l -0.121996,-0.55753 0.662343,-0.75924 0.662342,-0.75924 -0.392375,0.022 c -0.61897,0.0348 -1.32059,0.50531 -1.564931,1.04941 -0.06054,0.13484 -0.125198,0.63771 -0.143673,1.11752 -0.03923,1.01871 -0.274747,1.75344 -0.836912,2.61083 -0.356509,0.54373 -0.427305,0.61662 -0.596849,0.61451 -0.116111,-0.002 -0.248254,-0.0859 -0.333362,-0.21312 -0.127662,-0.19079 -0.106631,-0.25935 0.222376,-0.72501 0.519582,-0.73537 0.732113,-1.38775 0.767019,-2.35437 0.04037,-1.11807 0.230272,-1.60715 0.80926,-2.08422 0.313571,-0.25838 2.062756,-1.63141 2.233281,-1.75303 0.0053,-0.004 -0.05843,-0.10896 -0.141621,-0.23375 -0.140936,-0.2114 -0.127717,-0.25559 0.19375,-0.64765 0.614492,-0.74946 2.068255,-2.17839 2.282133,-2.24313 0.112337,-0.0341 0.24775,-0.0184 0.300916,0.0348 0.07057,0.0705 0.176831,0.0165 0.393636,-0.20029 0.27277,-0.27277 0.283524,-0.31042 0.131986,-0.46196 -0.15427,-0.15427 -0.143276,-0.18668 0.16932,-0.49927 0.374226,-0.37424 0.676272,-0.50294 0.826877,-0.35232 0.07595,0.076 0.156349,0.0349 0.327642,-0.16731 0.182324,-0.21525 0.201928,-0.30132 0.0996,-0.43753 -0.112699,-0.15001 -0.08936,-0.20761 0.202316,-0.49929 0.369996,-0.36999 0.672219,-0.49779 0.822288,-0.34772 0.07596,0.076 0.156349,0.0349 0.327642,-0.1673 0.182323,-0.21525 0.201929,-0.30132 0.0996,-0.43753 -0.11556,-0.15382 -0.09147,-0.2055 0.259258,-0.55623 0.374348,-0.37435 0.694979,-0.49315 0.866928,-0.32119 0.036,0.036 0.151502,-0.0392 0.256664,-0.1671 0.146546,-0.17822 0.162179,-0.2793 0.06696,-0.43258 -0.113844,-0.18329 -0.09435,-0.2282 0.232994,-0.53699 0.450725,-0.42519 0.67069,-0.53969 0.795959,-0.41443 0.07163,0.0716 0.151917,0.0342 0.292521,-0.13643 0.150385,-0.18246 0.164402,-0.27426 0.0626,-0.40967 -0.12584,-0.1674 -0.111799,-0.19097 0.344064,-0.57746 0.371387,-0.31486 0.528673,-0.39544 0.719637,-0.3687 0.325516,0.0456 0.56884,-0.26528 0.391941,-0.50074 -0.109587,-0.14587 -0.08767,-0.20929 0.156733,-0.45371 0.449665,-0.44966 0.783488,-0.63793 0.954058,-0.53808 0.241429,0.14134 0.49414,-0.17487 0.34236,-0.42836 -0.110194,-0.18404 -0.08951,-0.24046 0.190986,-0.52096 0.476961,-0.47696 0.775358,-0.64695 0.953046,-0.54293 0.262935,0.15392 0.447696,-0.13565 0.266874,-0.41825 l -0.15654,-0.24466 0.446104,-0.36717 c 0.66434,-0.5468 0.768374,-0.60076 0.951556,-0.49351 0.245346,0.14362 0.34139,-0.0176 0.198644,-0.33345 l -0.124575,-0.27563 0.535986,-0.45438 c 0.594055,-0.50358 0.657138,-0.53517 0.794476,-0.39783 0.168669,0.16867 0.367081,-0.14878 0.232977,-0.37276 -0.112244,-0.18746 -0.09171,-0.23826 0.223983,-0.55394 0.511278,-0.51129 0.839836,-0.70552 1.017489,-0.60152 0.2321,0.13587 0.322829,-0.0296 0.184274,-0.33628 -0.116468,-0.2577 -0.103182,-0.29277 0.241549,-0.6375 0.200638,-0.20064 0.412848,-0.35346 0.471575,-0.33959 0.05872,0.0139 0.175807,-0.0438 0.260171,-0.12819 0.102698,-0.10269 0.216269,-0.11813 0.343652,-0.0467 0.186318,0.1045 0.189635,0.10202 0.160061,-0.11931 -0.0166,-0.1243 -0.07257,-0.26837 -0.124359,-0.32016 -0.07509,-0.0751 -0.0095,-0.16324 0.323702,-0.43522 0.229827,-0.18757 0.518226,-0.43928 0.640897,-0.55933 0.165741,-0.16224 0.265786,-0.19325 0.389532,-0.12081 0.229074,0.1341 0.305673,0.0253 0.157006,-0.22299 -0.136895,-0.22864 -0.04175,-0.35752 0.685753,-0.92904 0.546857,-0.4296 0.804869,-0.37503 1.214018,0.25676 0.518247,0.80024 0.52643,0.68782 -0.09531,1.30956 -0.327,0.32699 -0.529277,0.5837 -0.4905,0.62247 0.03754,0.0376 0.259858,-0.12786 0.515598,-0.3836 0.404888,-0.40489 0.485117,-0.44886 0.806781,-0.44196 0.871321,0.0187 2.076829,0.85862 3.98548,2.77693 1.603588,1.61171 2.318697,2.55646 2.644545,3.49381 0.176336,0.50726 0.05403,0.80093 -0.611066,1.46722 -0.322218,0.32271 -0.39048,0.43443 -0.313097,0.5118 0.07443,0.0744 0.178659,0.0194 0.420053,-0.22207 0.224849,-0.22485 0.414129,-0.33218 0.631611,-0.35815 0.297025,-0.0355 0.336625,-0.0104 0.909612,0.57522 0.329489,0.33677 0.715371,0.66321 0.857525,0.72542 0.344122,0.15058 0.633751,0.44948 0.612338,0.63194 -0.0095,0.0812 -0.122992,0.28398 -0.252138,0.45061 -0.181258,0.23387 -0.329713,0.32622 -0.650679,0.40522 -0.53636,0.13187 -0.677016,0.27656 -0.521444,0.5364 0.1079,0.18021 0.0875,0.24247 -0.160843,0.4908 -0.369415,0.36942 -0.544647,0.44174 -0.698228,0.28816 -0.103608,-0.10361 -0.174381,-0.0755 -0.414738,0.16488 -0.254099,0.2541 -0.274592,0.31526 -0.166241,0.4962 0.111749,0.18665 0.09114,0.23885 -0.2154,0.54537 -0.2599,0.25991 -0.427926,0.35095 -0.720263,0.3903 -0.492897,0.0663 -0.687265,0.26071 -0.555073,0.55507 0.08897,0.19813 0.06212,0.26784 -0.206614,0.53658 -0.22993,0.22993 -0.408923,0.32234 -0.700346,0.36156 -0.468523,0.0631 -0.700303,0.31362 -0.516483,0.55829 0.115263,0.15343 0.09122,0.20575 -0.252469,0.54944 -0.319861,0.31986 -0.430405,0.37828 -0.699839,0.36987 -0.420904,-0.0132 -0.736424,0.28366 -0.556338,0.52336 0.112223,0.14938 0.08605,0.21556 -0.219791,0.55559 -0.28485,0.31667 -0.393336,0.38371 -0.604165,0.37319 -0.348926,-0.0174 -0.723764,0.35379 -0.599487,0.59364 0.07551,0.14572 0.03214,0.23184 -0.267858,0.53183 -0.286484,0.28649 -0.400766,0.34806 -0.572368,0.3084 -0.298405,-0.069 -0.764511,0.38802 -0.630042,0.61772 0.07017,0.11988 0.02662,0.23649 -0.177919,0.47637 -0.298993,0.35067 -0.519013,0.45199 -0.66484,0.30616 -0.07068,-0.0706 -0.18081,-0.0107 -0.421083,0.22968 -0.287181,0.28717 -0.310414,0.34527 -0.197979,0.49494 0.103645,0.13795 0.08289,0.22199 -0.111385,0.45081 -0.212964,0.25082 -0.288851,0.27688 -0.701995,0.24083 l -0.463219,-0.0404 -0.114278,0.39473 c -0.110122,0.38038 -0.221864,0.50559 -3.072073,3.44229 -2.309983,2.38009 -2.958162,3.08595 -2.95946,3.22285 -9.26e-4,0.0964 0.559601,1.22833 1.245596,2.51539 1.651833,3.09915 1.671529,3.26311 0.552947,4.60333 -0.997508,1.19515 -2.678739,2.84403 -3.004114,2.94632 -0.150966,0.0474 -1.398927,0.21184 -2.773247,0.36532 -1.374318,0.15347 -2.529536,0.29398 -2.567147,0.31225 -0.03762,0.0183 -0.02932,0.50517 0.01844,1.08201 0.102787,1.24156 -0.0019,1.60946 -0.563811,1.98256 -0.421003,0.27951 -0.19318,-0.22345 -3.250971,7.17702 -2.073869,5.01919 -2.021305,4.8645 -1.770153,5.20981 0.317561,0.43663 0.592414,1.35262 0.495591,1.65165 -0.128378,0.3965 -0.37836,0.72457 -0.63745,0.83661 z m 13.556627,-22.8227 c 0.164568,-0.52113 0.05969,-1.00678 -0.409062,-1.89433 -1.021236,-1.93364 -1.671561,-3.13871 -1.719918,-3.18707 -0.02834,-0.0283 -0.258277,0.11992 -0.510976,0.32945 -0.27213,0.22564 -0.777446,0.51406 -1.239398,0.70739 -0.428972,0.17953 -1.068587,0.50639 -1.421369,0.72635 l -0.641419,0.39994 0.02792,0.6657 c 0.034,0.81081 0.239052,1.19625 1.002115,1.88373 0.80321,0.72365 1.741925,1.03685 3.062691,1.02184 0.526055,-0.006 0.989137,0.0218 1.029069,0.0618 0.120563,0.12056 -0.127016,0.29202 -0.68689,0.47569 -0.7272,0.23857 -1.951324,0.18049 -2.889574,-0.13709 -0.715261,-0.2421 -0.80552,-0.2991 -1.480187,-0.93465 -0.557917,-0.52558 -0.791042,-0.80713 -1.043193,-1.25983 l -0.324719,-0.58299 -0.408003,0.4709 c -0.398475,0.45989 -0.617979,0.93039 -0.65198,1.39753 -0.0093,0.12756 0.05403,1.01383 0.140683,1.96947 0.131904,1.45455 0.186382,1.73719 0.334507,1.73551 0.09732,-7.7e-4 1.114855,-0.10351 2.261194,-0.22753 1.388271,-0.1502 2.215963,-0.29212 2.478688,-0.425 0.576396,-0.29153 2.94685,-2.74404 3.089825,-3.19677 z m -5.098645,-10.43659 c 0.0937,-0.16578 0.165749,-0.45009 0.160124,-0.63181 l -0.01022,-0.33038 -1.661091,-1.6611 -1.661093,-1.66109 -1.666387,1.60039 -1.666387,1.6004 1.930357,1.93022 1.930356,1.93022 1.236868,-1.23786 c 0.680354,-0.68075 1.313657,-1.37337 1.407349,-1.53913 z"
       id="path862" />       
  </g>
</svg>
