<?xml version="1.0" encoding="UTF-8" standalone="no"?>
<!-- Created with Inkscape (http://www.inkscape.org/) -->

<svg
   xmlns:dc="http://purl.org/dc/elements/1.1/"
   xmlns:cc="http://creativecommons.org/ns#"
   xmlns:rdf="http://www.w3.org/1999/02/22-rdf-syntax-ns#"
   xmlns:svg="http://www.w3.org/2000/svg"
   xmlns="http://www.w3.org/2000/svg"
   width="220"
   height="235"
   viewBox="0 0 58.208332 62.177085"
   version="1.1"
   id="svg8">
  <defs
     id="defs2" />
  <metadata
     id="metadata5">
    <rdf:RDF>
      <cc:Work
         rdf:about="">
        <dc:format>image/svg+xml</dc:format>
        <dc:type
           rdf:resource="http://purl.org/dc/dcmitype/StillImage" />
        <dc:title></dc:title>
      </cc:Work>
    </rdf:RDF>
  </metadata>
  <g
     id="layer1"
     transform="translate(0,-234.8229)">
    <path
       style="fill:none;stroke:#ffffff;stroke-width:0.4;stroke-opacity:1;stroke-miterlimit:4;stroke-dasharray:none"
       d="m 45.552585,271.5218 c -0.0087,-0.19683 -0.129166,-0.82557 -0.267632,-1.39721 -0.138462,-0.57164 -0.25528,-1.12756 -0.259594,-1.23537 -0.01895,-0.47353 -0.804768,-2.79211 -0.987384,-2.91329 -0.06764,-0.0449 -0.31662,0.006 -0.55329,0.11222 -0.618125,0.27841 -1.339435,0.38939 -2.732774,0.42048 -2.143955,0.0478 -5.752098,-0.80007 -7.829061,-1.8398 -1.100841,-0.55108 -1.999533,-1.09386 -1.975656,-1.19322 0.009,-0.0374 0.624792,-0.7439 1.368447,-1.56995 3.400145,-3.77688 4.792905,-5.39967 4.757887,-5.54368 -0.04714,-0.19387 0.133516,-0.35964 0.307487,-0.28217 0.07757,0.0345 0.210945,-0.007 0.296382,-0.0925 0.08544,-0.0854 0.127076,-0.21881 0.09253,-0.29638 -0.03455,-0.0776 -0.01599,-0.18788 0.04124,-0.24511 0.05723,-0.0572 0.149931,-0.0582 0.205992,-0.002 0.135387,0.13538 0.466577,-0.19581 0.383142,-0.38315 -0.0811,-0.1821 0.08971,-0.35291 0.27181,-0.27181 0.07757,0.0345 0.210946,-0.007 0.296383,-0.0925 0.08544,-0.0854 0.127075,-0.21881 0.09253,-0.29639 -0.03455,-0.0776 -0.01599,-0.18787 0.04125,-0.2451 0.05723,-0.0572 0.149931,-0.0582 0.205992,-0.002 0.06376,0.0638 0.166341,0.0375 0.273941,-0.0701 0.09461,-0.0946 0.143749,-0.23548 0.1092,-0.31305 -0.03455,-0.0776 -0.01926,-0.1846 0.03397,-0.23784 0.05324,-0.0532 0.160263,-0.0685 0.237836,-0.034 0.191989,0.0855 0.423268,-0.16588 0.390833,-0.42479 -0.02522,-0.20128 -0.01642,-0.21008 0.184864,-0.18486 0.261162,0.0327 0.511231,-0.2015 0.449297,-0.42084 -0.04714,-0.16696 0.215728,-0.36013 0.331936,-0.24393 0.03337,0.0334 0.137128,-0.0158 0.230562,-0.10919 0.09344,-0.0934 0.139304,-0.20046 0.10193,-0.23784 -0.03737,-0.0374 -0.0068,-0.12911 0.06795,-0.20385 0.07475,-0.0748 0.166483,-0.10533 0.203856,-0.068 0.03737,0.0374 0.159688,-0.0238 0.27181,-0.1359 0.112122,-0.11213 0.17328,-0.23444 0.135906,-0.27182 -0.102654,-0.10265 0.121482,-0.28439 0.269456,-0.2185 0.157864,0.0703 0.462848,-0.20629 0.620519,-0.56277 0.130968,-0.29611 0.04365,-0.66164 -0.266271,-1.1147 -0.186381,-0.27246 -0.187126,-0.31935 -0.0068,-0.42733 0.113394,-0.0679 0.245049,-0.25481 0.299092,-0.42455 0.142454,-0.44757 3.185816,-3.48839 3.704423,-3.70134 0.195813,-0.0804 0.658226,-0.40521 1.027587,-0.7218 l 0.671561,-0.57562 0.196836,0.2292 0.196836,0.2292 0.485969,-0.39196 c 0.267282,-0.21557 0.497981,-0.44283 0.512669,-0.50502 0.01468,-0.0622 -0.08618,-0.22592 -0.224132,-0.36387 l -0.250822,-0.2508 2.063198,-2.02364 c 2.57222,-2.52291 2.640408,-2.64246 1.923648,-3.36515 -0.293522,-0.2961 -0.595227,-0.38116 -0.761464,-0.21492 -0.07343,0.0734 -0.164091,0.10293 -0.201465,0.0656 -0.04279,-0.0428 -0.52168,0.38578 -1.293232,1.15733 -1.026453,1.02645 -1.215086,1.24817 -1.162467,1.36632 0.08006,0.17976 -0.319885,0.59127 -0.553537,0.56956 -0.182143,-0.0169 -1.04846,0.83703 -1.187302,1.17036 -0.05983,0.14363 -0.109671,0.12816 -0.344911,-0.10708 -0.268702,-0.2687 -0.269657,-0.28127 -0.04125,-0.5509 0.222623,-0.26279 0.222219,-0.28948 -0.0084,-0.56132 -0.203126,-0.2394 -0.314844,-0.28655 -0.692857,-0.29246 -0.247879,-0.004 -0.485279,0.0276 -0.527557,0.0698 -0.04582,0.0458 -0.432094,-0.18545 -0.956339,-0.5726 -0.987391,-0.72916 -1.114346,-0.75435 -1.559374,-0.30932 -0.202915,0.20292 -0.286451,0.37693 -0.295523,0.61561 -0.01171,0.30821 0.03112,0.37611 0.581265,0.92121 0.326697,0.32362 0.593912,0.64598 0.593912,0.71627 0,0.0789 -1.006158,1.09517 -2.628549,2.655 l -2.628546,2.52722 -0.448003,-0.1296 c -0.431848,-0.12492 -0.459926,-0.11767 -0.778665,0.20107 -0.181863,0.18186 -0.318982,0.38014 -0.304707,0.44061 0.01427,0.0605 -0.03339,0.1693 -0.105937,0.24184 -0.07254,0.0726 -0.162475,0.10132 -0.199849,0.0639 -0.03737,-0.0374 -0.144398,0.008 -0.237833,0.10194 -0.09343,0.0934 -0.139304,0.20045 -0.10193,0.23783 0.03737,0.0374 0.0068,0.12911 -0.06795,0.20386 -0.07475,0.0748 -0.166486,0.10532 -0.20386,0.068 -0.03737,-0.0374 -0.142593,0.007 -0.233823,0.0979 -0.09123,0.0912 -0.154191,0.21535 -0.139916,0.27582 0.01427,0.0605 -0.0334,0.1693 -0.105938,0.24185 -0.07254,0.0725 -0.162475,0.10131 -0.199849,0.0639 -0.03737,-0.0374 -0.144398,0.008 -0.237833,0.10192 -0.09344,0.0934 -0.139304,0.20046 -0.10193,0.23784 0.03737,0.0374 0.0068,0.12911 -0.06795,0.20386 -0.07475,0.0748 -0.163213,0.10859 -0.196588,0.0752 -0.116947,-0.11695 -0.370069,0.0792 -0.380839,0.29507 -0.01389,0.27845 -0.14055,0.40371 -0.371905,0.36779 -0.185215,-0.0288 -0.384812,0.23816 -0.266541,0.35643 0.102562,0.10256 -0.187705,0.32191 -0.33763,0.25514 -0.180965,-0.0806 -0.337432,0.0759 -0.31519,0.31519 0.02232,0.24011 -0.182771,0.4452 -0.364336,0.36434 -0.182287,-0.0812 -0.3718,0.10833 -0.290616,0.29061 0.03455,0.0776 0.0082,0.19566 -0.05855,0.26241 -0.06675,0.0668 -0.184835,0.0931 -0.262409,0.0586 -0.180965,-0.0806 -0.337431,0.0759 -0.315189,0.31519 0.02243,0.24132 -0.207889,0.47164 -0.339763,0.33976 -0.05715,-0.0572 -0.162568,-0.0413 -0.239966,0.0361 -0.07592,0.0759 -0.109772,0.20151 -0.07522,0.27908 0.03455,0.0776 0.004,0.19989 -0.06795,0.27182 -0.07192,0.0719 -0.194239,0.1025 -0.271812,0.068 -0.182102,-0.0811 -0.352912,0.0897 -0.27181,0.27181 0.08146,0.18291 -0.205998,0.47037 -0.388911,0.38891 -0.182286,-0.0812 -0.371799,0.10833 -0.290616,0.29061 0.0831,0.18658 -0.229499,0.49918 -0.364336,0.36434 -0.132452,-0.13245 -0.328863,0.064 -0.247237,0.24724 0.08146,0.18291 -0.205998,0.47037 -0.388911,0.38891 -0.182286,-0.0812 -0.371799,0.10833 -0.290615,0.29061 0.08516,0.19122 -0.230005,0.49867 -0.368857,0.35982 -0.07603,-0.076 -0.153692,-0.0469 -0.271811,0.10193 -0.146996,0.18521 -0.135653,0.24661 0.102046,0.55253 l 0.267418,0.34416 -0.33537,-0.27621 -0.335367,-0.2762 -1.165491,1.21284 c -0.640997,0.6671 -1.148108,1.25063 -1.12688,1.29677 0.05291,0.11501 -0.273244,0.42893 -0.357792,0.34438 -0.03737,-0.0374 -0.129109,-0.007 -0.203858,0.068 -0.07475,0.0747 -0.105327,0.16648 -0.06795,0.20385 0.03737,0.0374 -0.02378,0.1597 -0.135904,0.27182 -0.112121,0.11212 -0.234438,0.17327 -0.271812,0.1359 -0.03737,-0.0374 -0.129109,-0.007 -0.203856,0.0679 -0.07475,0.0747 -0.105328,0.16649 -0.06795,0.20386 0.03737,0.0374 -0.0085,0.1444 -0.101927,0.23784 -0.09343,0.0934 -0.200462,0.1393 -0.237836,0.10192 -0.03737,-0.0374 -0.129109,-0.007 -0.203857,0.068 -0.07475,0.0747 -0.105327,0.16648 -0.06795,0.20385 0.03737,0.0374 -0.02378,0.15969 -0.135904,0.27182 -0.112122,0.11212 -0.234438,0.17327 -0.271812,0.1359 -0.03737,-0.0374 -0.129109,-0.007 -0.203857,0.0679 -0.07475,0.0747 -0.105327,0.16649 -0.06795,0.20386 0.03737,0.0374 -0.0085,0.1444 -0.101927,0.23784 -0.09343,0.0934 -0.19719,0.14257 -0.230565,0.1092 -0.112606,-0.11261 -0.337326,0.061 -0.337326,0.2606 0,0.22458 -0.246354,0.51477 -0.349471,0.41165 -0.03737,-0.0374 -0.129109,-0.007 -0.203857,0.0679 -0.07475,0.0747 -0.105327,0.16649 -0.06795,0.20386 0.03737,0.0374 -0.0067,0.1426 -0.09792,0.23382 -0.09123,0.0912 -0.215351,0.15419 -0.275823,0.13992 -0.06047,-0.0143 -0.169301,0.0334 -0.241843,0.10594 -0.07254,0.0725 -0.101317,0.16247 -0.06394,0.19985 0.03737,0.0374 -0.0085,0.1444 -0.101928,0.23783 -0.09343,0.0934 -0.200462,0.1393 -0.237836,0.10193 -0.03737,-0.0374 -0.129109,-0.007 -0.203856,0.0679 -0.07475,0.0747 -0.105328,0.16649 -0.06795,0.20386 0.104568,0.10457 -0.176749,0.3379 -0.484727,0.40205 -0.253679,0.0528 -0.270623,0.0698 -0.208737,0.20874 0.06972,0.15656 -0.211161,0.52316 -0.318554,0.41577 -0.112607,-0.11261 -0.337326,0.061 -0.337327,0.26061 1e-6,0.25395 -0.147316,0.39961 -0.381993,0.37788 -0.101833,-0.009 -0.193499,0.0182 -0.2037,0.0614 -0.01019,0.0432 -0.26851,0.0562 -0.574026,0.0289 -0.504701,-0.0451 -0.583127,-0.022 -0.857887,0.25275 -0.178441,0.17844 -0.271112,0.33369 -0.22607,0.37873 0.127534,0.12754 -1.37839,1.46453 -1.73254,1.53819 -0.255316,0.0531 -0.292416,0.0867 -0.320709,0.29087 -0.03891,0.28059 -0.448891,0.71759 -0.673221,0.7176 -0.0897,0 -0.246902,-0.0838 -0.349343,-0.18626 -0.298705,-0.2987 -0.398097,-0.17321 -0.234819,0.29648 0.166051,0.47767 0.313407,0.67032 0.482233,0.63046 0.06046,-0.0143 0.145271,0.0115 0.188437,0.0574 0.04318,0.0458 -0.08239,0.0672 -0.279014,0.0475 -0.414831,-0.0416 -0.580399,0.17542 -0.327087,0.42873 0.09879,0.0988 0.141576,0.27282 0.107406,0.43687 -0.03124,0.14996 -0.01449,0.3543 0.03721,0.45408 0.0611,0.11792 0.03506,0.24037 -0.07438,0.34982 -0.171758,0.17176 -0.183828,0.35621 -0.08937,1.36575 0.02947,0.31499 0.0027,0.62452 -0.05963,0.68785 -0.06228,0.0633 -0.133451,0.43682 -0.158182,0.82998 -0.04223,0.67135 -0.0259,0.73451 0.268422,1.03786 0.176478,0.1819 0.31339,0.40781 0.31339,0.51712 0,0.15301 -0.834096,1.12702 -3.939627,4.60045 -2.1667944,2.42348 -4.2344183,4.69254 -4.5947176,5.04234 -1.4950814,1.45153 -2.2506531,2.26627 -2.2672489,2.44477 -0.010653,0.11461 0.058757,0.22647 0.1888659,0.30437 0.1131384,0.0677 0.2131088,0.2028 0.2221524,0.30012 0.012894,0.13872 0.068585,0.17957 0.2576937,0.189 0.1600888,0.008 0.2842019,0.0838 0.3689248,0.22527 0.073057,0.12202 0.1799651,0.2009 0.2499075,0.18439 0.073893,-0.0174 0.1944434,0.0767 0.304822,0.23806 0.1110041,0.16227 0.2308916,0.25552 0.3057882,0.23784 0.076101,-0.018 0.195414,0.0765 0.3121078,0.24707 0.1313918,0.19207 0.2142078,0.25086 0.2719892,0.19308 0.057782,-0.0578 0.1405974,10e-4 0.2719893,0.19309 0.1166938,0.17059 0.2360074,0.26503 0.3121073,0.24707 0.074898,-0.0177 0.1947845,0.0756 0.3057861,0.23783 0.1066019,0.15583 0.2311589,0.25546 0.2992874,0.23937 0.068128,-0.0161 0.1926873,0.0835 0.2992878,0.23937 0.1110012,0.16227 0.2308891,0.25552 0.3057857,0.23784 0.074897,-0.0177 0.1947834,0.0756 0.305786,0.23783 0.1062577,0.15533 0.2311768,0.25545 0.2988117,0.23948 0.065073,-0.0154 0.1870226,0.0788 0.2770669,0.21383 0.094631,0.14194 0.2377567,0.24841 0.347673,0.25863 0.144997,0.0135 0.1905491,0.0573 0.2034289,0.19594 0.012022,0.12936 0.073582,0.19583 0.2233639,0.24118 0.113722,0.0344 0.279191,0.17124 0.367711,0.30402 0.08852,0.13277 0.205833,0.23081 0.260697,0.21786 0.05486,-0.013 0.311277,0.19832 0.569808,0.46949 0.258529,0.27117 0.502575,0.48535 0.542321,0.47597 0.03974,-0.009 0.267735,0.19279 0.506642,0.44927 0.723861,0.77711 0.823778,0.72822 2.568474,-1.25667 l 0.635764,-0.72329 0.398334,-1.4516 c 0.219085,-0.79838 0.445798,-1.49907 0.50381,-1.55708 0.199744,-0.19974 0.800636,-2.58268 0.666341,-2.6425 -0.120919,-0.0539 -0.06482,-0.35713 0.502461,-2.71645 0.09864,-0.41023 0.203453,-0.76999 0.232927,-0.79946 0.02947,-0.0295 0.200282,-0.10263 0.37957,-0.16258 0.582314,-0.19469 0.784353,-0.86101 0.382824,-1.26254 -0.31761,-0.31761 -0.342211,-0.45931 -0.181966,-1.04812 0.24142,-0.88709 0.199971,-1.07707 -0.452357,-2.07342 -0.320662,-0.48977 -0.560115,-0.9363 -0.532119,-0.9923 0.028,-0.056 0.19421,-0.0296 0.369364,0.0586 0.252493,0.12719 0.382224,0.12425 0.626282,-0.0142 0.503542,-0.28564 1.043342,-0.33847 1.479074,-0.14475 0.608732,0.27062 0.83132,0.63898 1.017664,1.68412 0.333623,1.87116 0.967741,3.21573 2.11795,4.49088 0.497081,0.55107 0.714783,0.74619 0.770437,0.69054 0.04267,-0.0427 0.124403,-0.0307 0.181637,0.0265 0.140488,0.14048 0.112617,0.15705 1.998591,-1.18819 1.910939,-1.36306 1.871207,-1.32956 1.73667,-1.4641 -0.05606,-0.0561 -0.132765,-0.0711 -0.170456,-0.0334 -0.04087,0.0409 -0.08891,-0.0197 -0.119017,-0.1499 -0.0404,-0.17479 -0.113124,-0.24464 -0.363945,-0.34956 -0.172402,-0.0721 -0.406495,-0.19525 -0.520206,-0.27363 -0.31326,-0.21592 -0.634454,-0.84255 -0.62047,-1.21051 0.01099,-0.28926 -0.0286,-0.35807 -0.33737,-0.58632 -0.493145,-0.36452 -0.685766,-0.71243 -0.71515,-1.29166 -0.01596,-0.31461 -0.08087,-0.52657 -0.173962,-0.56803 -0.329031,-0.14654 -0.616002,-0.83987 -0.628484,-1.51843 -0.0068,-0.36843 -0.05097,-0.70851 -0.0982,-0.75574 -0.04791,-0.0479 0.05743,-0.0859 0.238261,-0.0859 0.580212,0 0.96689,-0.30132 1.914259,-1.49169 1.120814,-1.40829 1.339126,-1.81444 1.174264,-2.18456 -0.02037,-0.0457 0.155634,-0.24555 0.391121,-0.44404 l 0.428155,-0.3609 0.335717,0.42828 c 0.191344,0.24411 0.337127,0.37854 0.338994,0.31262 0.0044,-0.1538 -0.76032,-1.3501 -1.254584,-1.96271 l -0.394463,-0.48892 1.062292,0.3433 c 0.584262,0.18882 1.542277,0.57626 2.128925,0.86099 3.638403,1.76591 7.594093,2.47032 11.961036,2.13 0.832979,-0.0649 1.852878,-0.11394 2.26644,-0.10894 0.413562,0.005 0.785477,-0.0244 0.826479,-0.0654 0.041,-0.041 0.0674,-0.23559 0.05867,-0.43241 z m -32.141851,18.48337 c -0.276257,-0.0636 -1.901719,-1.32602 -2.004496,-1.55679 -0.03594,-0.0807 0.0059,-0.45943 0.09306,-0.84162 0.104496,-0.45838 0.11724,-0.82863 0.03744,-1.08789 -0.06653,-0.21615 -0.07093,-0.46517 -0.0098,-0.55338 0.1035,-0.14927 0.110643,-0.13921 0.103278,0.14548 -0.0083,0.32141 0.11124,0.441 0.80713,0.80727 l 0.30043,0.15813 0.77762,-0.87111 c 0.618255,-0.69258 0.780251,-0.92419 0.790449,-1.1301 0.007,-0.14244 0.04273,-0.35196 0.07929,-0.46561 0.0664,-0.20646 1.160662,-1.81243 1.56912,-2.3029 l 0.216132,-0.25954 0.336127,0.29528 c 0.298063,0.26185 0.329691,0.33195 0.279355,0.61912 -0.166845,0.95179 -1.124732,4.7164 -1.246103,4.89734 -0.07792,0.11618 -0.499882,0.61749 -0.937678,1.11404 -0.437796,0.49655 -0.829027,0.94482 -0.869402,0.99616 -0.04038,0.0513 -0.185263,0.0676 -0.321971,0.0361 z m 11.180158,-15.1523 c -0.145542,0.0303 -0.390742,0.0136 -0.544885,-0.0371 -0.379066,-0.1247 -1.314112,-0.89306 -1.211578,-0.99559 0.04928,-0.0493 -0.04851,-0.1846 -0.275396,-0.38111 l -0.351796,-0.30471 0.371679,-0.30785 c 0.400731,-0.33191 0.530926,-0.34715 0.78896,-0.0923 0.319754,0.31576 1.015069,0.47441 1.511406,0.34487 0.259398,-0.0677 0.513832,-0.18964 0.565404,-0.27095 0.06966,-0.10984 0.0057,-0.11366 -0.248897,-0.0149 -0.188467,0.0731 -0.464627,0.12596 -0.613688,0.11735 -0.363304,-0.021 -0.925612,-0.41075 -1.112853,-0.7714 -0.177551,-0.34198 -0.09073,-0.47432 1.178601,-1.79656 l 0.832072,-0.86675 0.208373,0.16537 c 0.125116,0.0993 0.175712,0.19803 0.12663,0.24711 -0.06142,0.0614 0.10359,0.2438 0.66375,0.73362 0.410019,0.35854 0.779311,0.72783 0.820643,0.82064 0.109999,0.24699 -0.05211,0.54362 -0.932447,1.70627 -0.858187,1.13339 -1.363289,1.61802 -1.77597,1.70398 z m 17.5798,-27.51402 c -0.176021,0.031 -0.311781,0.1272 -0.421453,0.2986 -0.153265,0.23954 -0.170805,0.2415 -0.333051,0.0373 l -0.171268,-0.21553 1.453199,-1.46877 c 0.799251,-0.80783 1.598003,-1.62974 1.774986,-1.8265 0.176983,-0.19676 0.501569,-0.52961 0.721296,-0.73969 0.396541,-0.37912 0.401028,-0.38042 0.605546,-0.17591 0.150168,0.15017 0.181247,0.26418 0.11461,0.4204 -0.05029,0.11789 -0.854809,0.98159 -1.787814,1.91934 -1.438449,1.44575 -1.735872,1.71193 -1.956042,1.75074 z"
       id="path834" />
  </g>
</svg>
