<?xml version="1.0" encoding="UTF-8" standalone="no"?>
<!-- Created with Inkscape (http://www.inkscape.org/) -->

<svg
   xmlns:dc="http://purl.org/dc/elements/1.1/"
   xmlns:cc="http://creativecommons.org/ns#"
   xmlns:rdf="http://www.w3.org/1999/02/22-rdf-syntax-ns#"
   xmlns:svg="http://www.w3.org/2000/svg"
   xmlns="http://www.w3.org/2000/svg"
   xmlns:sodipodi="http://sodipodi.sourceforge.net/DTD/sodipodi-0.dtd"   
   width="220"
   height="235"
   viewBox="0 0 58.208332 62.177085"
   version="1.1"
   id="svg8"
   sodipodi:docname="ak47.svg">
  <defs
     id="defs2" />
  <metadata
     id="metadata5">
    <rdf:RDF>
      <cc:Work
         rdf:about="">
        <dc:format>image/svg+xml</dc:format>
        <dc:type
           rdf:resource="http://purl.org/dc/dcmitype/StillImage" />
        <dc:title />
      </cc:Work>
    </rdf:RDF>
  </metadata>
  <g
     id="layer1"
     transform="translate(0,-234.8229)">
    <path
       style="color:#000000;font-style:normal;font-variant:normal;font-weight:normal;font-stretch:normal;font-size:medium;line-height:normal;font-family:sans-serif;font-variant-ligatures:normal;font-variant-position:normal;font-variant-caps:normal;font-variant-numeric:normal;font-variant-alternates:normal;font-feature-settings:normal;text-indent:0;text-align:start;text-decoration:none;text-decoration-line:none;text-decoration-style:solid;text-decoration-color:#000000;letter-spacing:normal;word-spacing:normal;text-transform:none;writing-mode:lr-tb;direction:ltr;text-orientation:mixed;dominant-baseline:auto;baseline-shift:baseline;text-anchor:start;white-space:normal;shape-padding:0;clip-rule:nonzero;display:inline;overflow:visible;visibility:visible;opacity:1;isolation:auto;mix-blend-mode:normal;color-interpolation:sRGB;color-interpolation-filters:linearRGB;solid-color:#000000;solid-opacity:1;vector-effect:none;fill:none;fill-opacity:1;fill-rule:nonzero;stroke:#ffffff;stroke-width:0.45;stroke-linecap:butt;stroke-linejoin:miter;stroke-miterlimit:4;stroke-dasharray:none;stroke-dashoffset:0;stroke-opacity:1;color-rendering:auto;image-rendering:auto;shape-rendering:auto;text-rendering:auto;enable-background:accumulate"
       d="m 43.653415,273.78779 c -0.804284,0.14575 -3.087996,0.24683 -4.373477,0.19359 -1.445075,-0.0598 -2.444042,-0.19152 -4.066127,-0.53592 -2.222916,-0.47198 -4.984051,-1.54019 -6.468883,-2.50265 -0.935401,-0.60634 -0.924513,-0.60022 -0.761297,-0.42773 0.07752,0.082 0.155642,0.26676 0.173618,0.41078 0.0194,0.15551 0.174874,0.43281 0.382749,0.6827 0.570531,0.68582 0.463762,0.98725 -0.143764,0.40586 -0.273537,-0.26177 -0.37992,-0.31654 -0.530177,-0.27301 -0.346629,0.10047 -0.431991,0.26447 -0.278159,0.53454 0.207892,0.36495 0.04566,0.60646 -1.401615,2.0862 l -1.244542,1.27247 h -0.481874 -0.481876 l -0.08062,0.34321 c -0.08857,0.37698 0.06093,0.79552 1.212926,3.39582 0.517399,1.16785 0.687558,1.46736 1.099779,1.93557 0.431892,0.49056 0.484932,0.58877 0.463733,0.85867 -0.02031,0.25853 -0.09369,0.37152 -0.483906,0.74494 -0.76772,0.73469 -1.585064,1.02549 -2.423378,0.86221 -0.636786,-0.12404 -0.887018,-0.47369 -1.825667,-2.55102 -0.993746,-2.19929 -1.172523,-2.43059 -2.047386,-2.6491 -0.331129,-0.0828 -0.731193,-0.23488 -0.889033,-0.33821 -0.217932,-0.14267 -0.303956,-0.1568 -0.357519,-0.0587 -0.03879,0.0711 -0.369236,0.71565 -0.734296,1.43248 -0.583577,1.14592 -4.967043,9.65673 -5.245898,10.1853 -0.05841,0.11068 -0.457319,0.90117 -0.886474,1.75659 -1.579878,3.14913 -1.718054,3.40199 -2.098498,3.84004 -0.3393981,0.3908 -0.4159953,0.44388 -0.6250735,0.43338 C 8.8807401,295.8168 8.2502,295.426 6.6468736,294.33171 5.452535,293.51654 4.2033795,292.67369 3.8709722,292.45869 3.538565,292.24371 3.129831,291.93694 2.9626676,291.77697 c -0.2855159,-0.27323 -0.2963772,-0.30845 -0.1792545,-0.58143 0.1293171,-0.30137 0.6250337,-0.95892 2.1286148,-2.82349 0.4852849,-0.60181 1.35217,-1.68047 1.9264035,-2.39705 0.5742366,-0.71658 1.5127961,-1.88153 2.0856878,-2.58874 l 1.0416198,-1.28588 0.771073,-0.37188 c 0.890561,-0.4295 0.913073,-0.45413 2.371859,-2.5959 0.439642,-0.64547 1.068276,-1.55647 1.39697,-2.02441 0.381013,-0.54246 0.569104,-0.87844 0.518951,-0.92701 -0.04325,-0.042 -0.04132,-0.11195 0.0044,-0.15557 0.04658,-0.0445 -0.03382,-0.28674 -0.183246,-0.55207 -0.32007,-0.56828 -0.394155,-0.99784 -0.191661,-1.11127 0.08415,-0.047 0.152605,-0.2221 0.164407,-0.42013 0.09823,-1.64797 -0.06908,-1.37201 2.285046,-3.76895 1.09647,-1.11642 3.95454,-3.94251 6.351264,-6.28021 2.396764,-2.33765 4.366751,-4.28315 4.377843,-4.32323 0.01104,-0.0401 -0.08431,-0.0906 -0.211997,-0.11196 -0.288728,-0.0487 -0.679643,-0.4051 -0.564818,-0.51498 0.121994,-0.11675 0.368347,-0.0955 0.516884,0.0445 0.0961,0.0907 0.122533,0.0882 0.09979,-0.009 -0.01703,-0.0727 -0.01033,-0.14725 0.01486,-0.16567 0.143657,-0.10506 0.162663,-0.16397 0.07867,-0.24436 -0.05156,-0.0494 -0.0424,-0.17179 0.02037,-0.27213 0.118349,-0.18915 0.477845,-0.34152 0.578506,-0.24518 0.03166,0.0303 0.27567,-0.15366 0.542247,-0.40876 0.284986,-0.27273 0.531231,-0.45332 0.597649,-0.43831 0.07716,0.0174 0.107682,-0.0289 0.09631,-0.14602 -0.0092,-0.0944 0.07787,-0.262 0.193415,-0.37256 0.115545,-0.11057 0.19919,-0.24515 0.185893,-0.29907 -0.02999,-0.1216 0.244531,-0.39404 0.368799,-0.36595 0.05027,0.0115 0.197674,-0.10976 0.327578,-0.26918 0.523362,-0.64222 0.839199,-0.74259 1.21253,-0.38532 0.249271,0.23855 0.449767,0.13288 0.27571,-0.14533 -0.08526,-0.13629 -0.06444,-0.24321 0.08669,-0.44511 0.296742,-0.39644 4.348159,-4.24589 5.571548,-5.29379 0.99641,-0.85351 1.080907,-0.90976 1.318787,-0.87789 l 0.254157,0.0342 2.372255,-2.22014 2.372254,-2.22016 0.534606,0.14248 c 0.294038,0.0783 0.757958,0.13926 1.030938,0.13534 0.566823,-0.008 1.426811,-0.26326 1.669164,-0.49519 0.09022,-0.0863 0.211258,-0.14632 0.268975,-0.13327 0.144909,0.0328 3.845039,-3.52752 3.755316,-3.61338 -0.03576,-0.0342 -0.302491,-0.61661 -0.59271,-1.29416 -0.304317,-0.7105 -0.621455,-1.3217 -0.749251,-1.44399 -0.121875,-0.11663 -0.249992,-0.27312 -0.284734,-0.34776 -0.100019,-0.21491 0.08289,-0.62997 0.419655,-0.95224 0.502846,-0.48123 0.561339,-0.45688 1.837887,0.76476 0.58037,0.7001 0.931053,0.85948 1.51177,0.87611 0.170854,0.0957 0.210668,0.0768 0.508335,-0.24077 0.203166,-0.21676 0.212669,-0.21467 0.766445,0.1718 0.120787,0.0842 0.274823,0.28187 0.342266,0.43908 0.100437,0.23411 0.0888,0.31414 -0.06424,0.44244 -0.531859,0.44578 -0.594452,0.55713 -0.438748,0.78062 0.335137,0.4811 0.498573,0.28901 -3.395213,3.99052 -2.456472,2.33508 -3.58107,3.4461 -3.716655,3.67145 -0.138395,0.23005 -0.233531,0.32316 -0.330245,0.32312 -0.15801,2e-5 -0.86481,0.66443 -2.966164,2.78834 -1.470623,1.4864 -1.482581,1.50091 -1.377056,1.66957 0.08808,0.14079 0.05585,0.2316 -0.186785,0.52625 -0.658949,0.80025 -1.836133,2.04546 -3.022143,3.19676 -2.862627,2.77886 -3.387107,3.43708 -3.971178,4.98371 -0.319949,0.84723 -0.554124,1.07713 -1.488149,1.461 l -0.736239,0.3026 -1.313686,1.427 -1.313687,1.42701 0.176487,0.27283 c 0.477427,0.73811 3.48898,2.08044 5.723141,2.55096 1.966107,0.41408 4.315846,0.41896 6.726356,0.0141 0.06938,-0.0118 0.282051,0.84588 0.725686,2.92596 l 0.429865,2.01553 -0.250853,0.36376 c -0.236517,0.34296 -0.277479,0.36858 -0.716374,0.44812 z m -16.924879,-0.306 c 0.498816,-0.53407 0.665837,-0.76154 0.65312,-0.88945 -0.01786,-0.1795 -0.466983,-0.6208 -1.357599,-1.33388 l -0.482527,-0.38635 -0.74331,0.74901 c -0.678921,0.68416 -0.750564,0.78303 -0.826923,1.14201 -0.09199,0.43257 0.009,0.6646 0.409958,0.9411 0.272691,0.1881 0.905649,0.25884 1.053122,0.1177 0.04571,-0.0438 0.127762,-0.0367 0.182333,0.0154 0.07351,0.0704 0.0511,0.11953 -0.08648,0.18985 -0.557184,0.28475 -1.590777,0.12211 -1.883501,-0.29638 -0.151134,-0.21606 -0.588268,-0.3007 -0.750628,-0.14531 -0.08556,0.082 -0.0017,0.1911 0.560311,0.72881 0.372347,0.35633 0.650383,0.67532 0.636763,0.73054 -0.03878,0.15726 0.246856,0.37597 0.475013,0.36371 0.37367,-0.0201 0.409335,-0.052 2.160364,-1.92677 z"
       id="path1384"       
       sodipodi:nodetypes="cccccccccccccccccccccccccccccccsccccccccccccccccccccccccccccccccccccccccccccccccccccccccccccccsccccccccccccccccccccccccccccc" />
  </g>
</svg>
