<?xml version="1.0" encoding="UTF-8" standalone="no"?>
<!-- Created with Inkscape (http://www.inkscape.org/) -->

<svg
   xmlns:dc="http://purl.org/dc/elements/1.1/"
   xmlns:cc="http://creativecommons.org/ns#"
   xmlns:rdf="http://www.w3.org/1999/02/22-rdf-syntax-ns#"
   xmlns:svg="http://www.w3.org/2000/svg"
   xmlns="http://www.w3.org/2000/svg"
   xmlns:sodipodi="http://sodipodi.sourceforge.net/DTD/sodipodi-0.dtd"   
   width="220"
   height="235"
   viewBox="0 0 58.208331 62.177086"
   version="1.1"
   id="svg8"   
   sodipodi:docname="ak74.svg" >
  <defs
     id="defs2" />
  <sodipodi:namedview
     id="base"
     pagecolor="#000000"
     bordercolor="#666666"
     borderopacity="1.0"
     showgrid="false"
     fit-margin-top="0"
     fit-margin-left="0"
     fit-margin-right="0"
     fit-margin-bottom="0"
     units="px" />
  <metadata
     id="metadata5">
    <rdf:RDF>
      <cc:Work
         rdf:about="">
        <dc:format>image/svg+xml</dc:format>
        <dc:type
           rdf:resource="http://purl.org/dc/dcmitype/StillImage" />
        <dc:title></dc:title>
      </cc:Work>
    </rdf:RDF>
  </metadata>
  <g
     id="layer1"
     transform="translate(56.057826,-205.94221)">
    <path
       style="fill:none;stroke:#ffffff;stroke-width:0.4;stroke-opacity:1;stroke-miterlimit:4;stroke-dasharray:none"
       d="m -13.686893,245.25162 c -0.159562,-0.005 -0.666307,-0.12765 -1.1261,-0.27249 -0.459795,-0.14484 -1.317928,-0.39961 -1.906966,-0.56619 -3.06161,-0.86575 -6.003692,-2.0448 -7.9649,-3.19194 -0.467901,-0.27369 -1.258149,-0.67636 -1.756109,-0.89483 l -0.905379,-0.39722 0.321508,0.39372 c 0.201598,0.24688 0.310372,0.47015 0.291656,0.5987 -0.01777,0.12197 0.09951,0.37702 0.289626,0.62991 0.175712,0.23373 0.293931,0.47603 0.262712,0.53847 -0.04038,0.0808 -0.103715,0.0431 -0.219361,-0.13038 -0.337132,-0.50569 -1.054014,-0.37544 -0.940227,0.17084 0.07007,0.33641 -0.136926,0.6771 -1.154345,1.89997 -1.026167,1.23338 -1.249623,1.39243 -1.886842,1.34298 l -0.491606,-0.0382 -0.125449,0.35105 c -0.124048,0.34712 -0.111572,0.3783 1.1163,2.7898 0.943005,1.85204 1.307305,2.48603 1.514222,2.63516 0.911877,0.65724 0.518729,1.42251 -1.19746,2.33088 -0.550111,0.29117 -0.743054,0.34232 -1.059047,0.28076 -0.456933,-0.089 -0.818563,-0.41872 -1.091747,-0.99534 -0.634906,-1.34011 -2.215039,-4.19899 -2.451567,-4.43551 -0.192309,-0.19232 -0.403403,-0.29622 -0.676505,-0.33297 -0.218333,-0.0294 -0.469733,-0.1262 -0.558665,-0.21513 -0.160118,-0.16011 -0.166532,-0.15593 -0.659387,0.42959 -0.273736,0.3252 -0.508569,0.63733 -0.521856,0.69362 -0.01329,0.0563 -0.826279,1.48954 -1.806652,3.18502 -1.365362,2.3613 -4.907306,8.63594 -5.561504,9.85235 -0.04664,0.0868 -0.03922,0.16843 0.01649,0.18158 0.0557,0.0132 0.190965,0.15503 0.300578,0.31528 0.161446,0.23601 0.167998,0.31473 0.03448,0.41446 -0.107732,0.0805 -0.261095,0.0696 -0.442785,-0.0314 l -0.277962,-0.1545 -0.458752,0.79653 c -1.375969,2.38911 -2.28515,3.40728 -2.790583,3.1251 -0.455656,-0.2544 -5.002083,-4.9768 -5.340963,-5.54768 -0.35207,-0.59312 -0.46379,-0.45579 4.311383,-5.29968 l 4.261453,-4.32277 0.646691,-0.15456 c 1.002653,-0.23964 1.25121,-0.50275 2.614678,-2.76779 0.624795,-1.03793 1.338344,-2.13362 1.585652,-2.43484 0.379034,-0.46168 0.443809,-0.59665 0.412428,-0.85938 -0.02644,-0.22151 -0.08228,-0.31586 -0.19292,-0.32615 -0.240066,-0.0223 -0.378247,-0.64753 -0.185867,-0.84099 0.08478,-0.0852 0.191975,-0.11721 0.238201,-0.071 0.04622,0.0462 0.08577,-0.34888 0.08787,-0.87801 l 0.0039,-0.96206 1.828654,-1.84324 c 1.005746,-1.0138 3.178527,-3.21421 4.828344,-4.88986 1.649827,-1.67565 3.422088,-3.45902 3.938373,-3.96305 1.120918,-1.09433 1.422187,-1.47506 1.233642,-1.55903 -0.07314,-0.0326 -0.173603,-0.0186 -0.223241,0.031 -0.129315,0.12931 -0.595838,-0.19203 -0.617523,-0.42536 -0.02057,-0.2213 0.281535,-0.48075 0.38192,-0.32798 0.04705,0.0716 0.087,0.015 0.127882,-0.18131 0.05481,-0.26312 0.08137,-0.29 0.33972,-0.34388 0.343816,-0.0716 1.600163,-1.29096 2.092747,-2.03111 0.28525,-0.42862 0.340905,-0.47582 0.526913,-0.44694 0.174276,0.0271 0.262296,-0.0375 0.543257,-0.39874 0.297941,-0.38303 0.365068,-0.42808 0.60272,-0.40452 0.263607,0.0262 0.311653,-0.0164 3.35373,-2.97199 3.041323,-2.95481 3.09081,-2.99867 3.396727,-3.01029 0.300187,-0.0115 0.381834,-0.0803 2.471995,-2.08511 1.714995,-1.64498 2.201356,-2.07331 2.354216,-2.07331 0.105965,0 0.402917,0.1659 0.659899,0.36867 0.576582,0.45497 0.860806,0.47999 1.3428439,0.11825 0.671117,-0.50364 2.883055,-2.64806 2.898069,-2.80962 0.0078,-0.0839 0.08418,-0.20415 0.169722,-0.26718 0.141932,-0.10459 0.07755,-0.22331 -0.73598,-1.35717 -0.609829,-0.84994 -0.87467,-1.28846 -0.838183,-1.38784 0.02934,-0.08 0.08676,-0.25017 0.127614,-0.37834 0.04086,-0.12819 0.144732,-0.30257 0.23085,-0.38752 0.310068,-0.30592 0.449155,-0.26259 1.066147,0.33207 0.319798,0.30823 0.79003,0.72522 1.044956,0.92665 l 0.463503,0.36623 1.636416,-1.60728 c 0.900015,-0.88402 1.701276,-1.67219 1.780581,-1.7515 0.0793,-0.0794 0.334852,-0.15282 0.567879,-0.16337 0.58515002,-0.0265 0.95915202,0.33674 0.94668402,0.91942 l -0.0087,0.40691 -1.16866002,1.26709 c -0.642765,0.6969 -1.406023,1.50897 -1.69613,1.8046 -0.480438,0.48958 -0.515218,0.54976 -0.390053,0.67492 0.07558,0.0756 0.09924,0.17654 0.05259,0.22435 -0.06241,0.0639 -0.04458,0.0779 0.06747,0.0528 0.219817,-0.0493 0.462424,0.37471 0.508725,0.88909 0.03525,0.39164 0.01705,0.4341 -0.225027,0.52464 -0.345474,0.1292 -0.804507,-0.25624 -0.986632,-0.82844 -0.08668,-0.27233 -0.08675,-0.27233 -0.310133,0.008 -0.122881,0.15425 -0.205654,0.34768 -0.183932,0.42983 0.0251,0.0949 -0.08454,0.27343 -0.300626,0.48952 -0.268407,0.2684 -0.363706,0.31655 -0.451977,0.22828 -0.100148,-0.10016 -0.231361,0.0141 -1.254682,1.09204 -0.683847,0.72036 -1.132719,1.25112 -1.117645,1.32149 0.01385,0.0646 -0.105547,0.28059 -0.265335,0.4798 -0.221392,0.27602 -0.313041,0.33968 -0.385139,0.26758 -0.113139,-0.11314 0.10927,-0.33181 -2.5133399,2.47122 -1.248122,1.334 -2.127805,2.33119 -2.112749,2.39497 0.04809,0.2037 -0.529472,1.05893 -1.052959,1.55917 -0.286537,0.27381 -0.948127,0.99825 -1.470218,1.60984 -0.522081,0.6116 -1.569776,1.79004 -2.328207,2.61876 -1.141287,1.24707 -1.424508,1.60335 -1.643195,2.06705 -0.648942,1.37601 -1.193119,2.03484 -1.778412,2.15311 -0.381496,0.0771 -0.405471,0.0981 -1.55174,1.36541 -1.136069,1.25594 -1.15998,1.28984 -0.987507,1.39976 0.09721,0.0619 0.55362,0.35414 1.014239,0.64931 1.429716,0.91618 4.469687,2.46692 5.914789,3.01725 0.756511,0.28809 3.065483,0.85838 3.750786,0.92639 0.28666,0.0284 0.565452,0.096 0.619536,0.15007 0.181454,0.18145 0.08922,1.58179 -0.275973,4.19004 -0.167327,1.19504 -0.203298,1.27498 -0.568524,1.26346 z m -14.768099,-1.62175 c 0.466982,-0.59113 0.874883,-1.15745 0.906452,-1.2585 0.0508,-0.16263 -0.0439,-0.28102 -0.823941,-1.03007 l -0.881331,-0.84632 -0.77922,0.86977 c -0.772059,0.86178 -0.778955,0.8735 -0.750811,1.27607 0.03892,0.55661 0.359508,0.86866 0.892445,0.86866 0.220923,0 0.450434,-0.0487 0.510025,-0.10834 0.05959,-0.0596 0.154724,-0.062 0.211408,-0.005 0.143612,0.14361 -0.04791,0.30498 -0.518621,0.43696 -0.460222,0.12904 -0.898062,0.0406 -1.462867,-0.2955 -0.373968,-0.22254 -0.413164,-0.22278 -0.672015,-0.004 l -0.274877,0.23224 0.605478,0.6052 c 0.874235,0.87396 1.385515,1.00753 1.972457,0.51538 0.119012,-0.0998 0.598466,-0.66508 1.06545,-1.25619 z"
       id="path936"       
       sodipodi:nodetypes="cccscccccccsscccsscccscsccsccccccsccsccsccscsccccccsccccccccscscscccscscscccscccccsccccsccsscccsccccsccccccsscccccscccssscccccccc" />
  </g>
</svg>
