<?xml version="1.0" encoding="UTF-8" standalone="no"?>
<!-- Created with Inkscape (http://www.inkscape.org/) -->

<svg
   xmlns:dc="http://purl.org/dc/elements/1.1/"
   xmlns:cc="http://creativecommons.org/ns#"
   xmlns:rdf="http://www.w3.org/1999/02/22-rdf-syntax-ns#"
   xmlns:svg="http://www.w3.org/2000/svg"
   xmlns="http://www.w3.org/2000/svg"
   xmlns:sodipodi="http://sodipodi.sourceforge.net/DTD/sodipodi-0.dtd"   
   width="220"
   height="235"
   viewBox="0 0 58.208331 62.177086"
   version="1.1"
   id="svg8"   
   sodipodi:docname="ak74-u.svg" >
  <defs
     id="defs2" />
  <sodipodi:namedview
     id="base"
     pagecolor="#000000"
     bordercolor="#666666"
     borderopacity="1.0"          
     showgrid="false"
     fit-margin-top="0"
     fit-margin-left="0"
     fit-margin-right="0"
     fit-margin-bottom="0"
     units="px" />
  <metadata
     id="metadata5">
    <rdf:RDF>
      <cc:Work
         rdf:about="">
        <dc:format>image/svg+xml</dc:format>
        <dc:type
           rdf:resource="http://purl.org/dc/dcmitype/StillImage" />
        <dc:title></dc:title>
      </cc:Work>
    </rdf:RDF>
  </metadata>
  <g
     id="layer1"
     transform="translate(56.057826,-205.94221)">
    <path
       style="fill:none;stroke:#ffffff;stroke-width:0.4;stroke-opacity:1;stroke-miterlimit:4;stroke-dasharray:none"
       d="m -3.633856,240.49146 c 0.020554,-0.0728 -0.029665,-0.3361 -0.1116028,-0.5851 -0.08194,-0.24899 -0.3572657,-1.71313 -0.611837,-3.25366 -0.2545713,-1.54052 -0.4928011,-2.83089 -0.5293973,-2.86748 -0.036602,-0.0366 -0.1813533,-0.0407 -0.3216804,-0.009 -0.2256513,0.0507 -0.2585843,0.0769 -0.2849232,0.22637 -0.04844,0.27493 -0.086297,0.25604 -0.3046936,-0.15204 -0.1142758,-0.21352 -0.2528539,-0.4083 -0.3079556,-0.43284 -0.055101,-0.0245 -0.3485994,-0.0103 -0.6522179,0.0317 -0.4827306,0.0667 -0.5955202,0.11142 -0.8984371,0.35573 -0.1905176,0.15366 -0.4292583,0.37971 -0.5305307,0.50234 -0.1796902,0.21757 -0.199766,0.22196 -0.8324624,0.18245 -1.013538,-0.0633 -1.4824,-0.12617 -1.580386,-0.21186 -0.04967,-0.0435 -0.367993,-0.1317 -0.707389,-0.19613 -1.594128,-0.30267 -2.798011,-0.6828 -4.199346,-1.32593 -0.893419,-0.41004 -2.509495,-1.3245 -3.060561,-1.73185 -0.238857,-0.17657 -0.251249,-0.20002 -0.156007,-0.29526 0.08759,-0.0875 0.07423,-0.13267 -0.08711,-0.29401 -0.121174,-0.12118 -0.226269,-0.17466 -0.28862,-0.14689 -0.113591,0.0506 -0.565079,-0.078 -0.565079,-0.16088 0,-0.11632 0.980696,-1.13163 1.037844,-1.07448 0.0785,0.0786 0.391022,-0.25325 0.391012,-0.4151 0,-0.0997 0.238517,-0.39224 0.91549,-1.12291 0.573356,-0.61884 0.908128,-1.02069 0.895788,-1.07528 -0.01331,-0.0589 0.03746,-0.09 0.156516,-0.0959 0.143297,-0.007 0.274672,-0.10725 0.703158,-0.53573 0.485772,-0.48577 0.521298,-0.53658 0.454641,-0.65044 -0.103729,-0.17719 0.214409,-0.49532 0.391598,-0.39159 0.08596,0.0503 0.164667,0.0311 0.258931,-0.0632 0.09426,-0.0943 0.113455,-0.17297 0.06313,-0.25893 -0.103728,-0.17719 0.214409,-0.49532 0.391598,-0.3916 0.17772,0.10404 0.469345,-0.18758 0.328465,-0.32847 -0.08158,-0.0816 -0.06527,-0.13052 0.0979,-0.29369 0.163166,-0.16317 0.212116,-0.17948 0.293699,-0.0979 0.0768,0.0768 0.130531,0.0653 0.24933,-0.0536 0.110266,-0.11026 0.131778,-0.185 0.07913,-0.27493 -0.102998,-0.17594 0.195073,-0.47401 0.371014,-0.37101 0.08861,0.0519 0.164666,0.0311 0.269222,-0.0734 0.104557,-0.10456 0.125301,-0.18061 0.07343,-0.26923 -0.102694,-0.17542 0.187808,-0.46593 0.363231,-0.36323 0.179355,0.105 0.499007,-0.21466 0.356831,-0.35683 -0.07861,-0.0787 -0.06527,-0.13054 0.06772,-0.26351 0.124447,-0.12446 0.196313,-0.14765 0.289116,-0.0933 0.0946,0.0553 0.164666,0.0311 0.299406,-0.1036 0.143273,-0.14328 0.157739,-0.19408 0.07801,-0.27381 -0.08196,-0.0819 -0.06527,-0.13053 0.102483,-0.29828 0.159216,-0.15922 0.225755,-0.18553 0.323882,-0.12808 0.0917,0.0537 0.164668,0.0311 0.283406,-0.0876 0.1187384,-0.11874 0.1412926,-0.1917 0.087612,-0.2834 -0.097514,-0.16658 0.1257545,-0.38985 0.3284643,-0.32847 0.1871568,0.0567 0.5339083,-0.24929 0.4160731,-0.36713 -0.051277,-0.0513 -0.02176,-0.12509 0.097899,-0.24474 0.1196554,-0.11966 0.1934693,-0.14919 0.2447488,-0.0979 0.059558,0.0596 0.1526458,-0.006 0.4927142,-0.34587 0.4764596,-0.47646 0.5604399,-0.65686 0.386659,-0.83065 -0.1079495,-0.10795 -0.100218,-0.14109 0.073422,-0.31473 0.2493527,-0.24935 0.216564,-0.35756 -0.2895528,-0.95565 l -0.3940219,-0.46562 0.2809329,-0.30953 0.2809329,-0.30954 0.2085588,0.11374 c 0.2601802,0.14187 0.5267124,-0.0208 0.4658061,-0.28431 -0.044399,-0.19209 0.080606,-0.34514 0.2441707,-0.29896 0.1594701,0.0451 0.8650605,-0.30267 1.0990717,-0.54159 0.1065789,-0.10881 0.8693995,-0.90993 1.695174,-1.78026 l 1.5014101,-1.58242 -0.1114032,-0.30468 c -0.1400287,-0.38294 -0.1418232,-0.38112 1.13298,-1.15621 0.547724,-0.33303 1.03480065,-0.64444 1.08239424,-0.69203 0.0954283,-0.0955 -0.0277184,-0.32317 -0.34789674,-0.64334 -0.1682046,-0.1682 -0.2031298,-0.17623 -0.3085584,-0.0708 -0.065378,0.0654 -0.1880186,0.11888 -0.2725255,0.11888 -0.2275941,0 -0.2827166,-0.24893 -0.096377,-0.43528 0.1418855,-0.14189 0.1395574,-0.1507 -0.1043456,-0.3946 l -0.2494733,-0.24947 -0.2278134,0.26174 c -0.2611704,0.30006 -0.3650318,0.29252 -0.1571222,-0.0114 0.076781,-0.11227 0.1312438,-0.23961 0.1210013,-0.283 -0.02428,-0.10285 -0.2564577,0.21781 -0.827976,1.14349 -0.7762846,1.25736 -0.6869948,1.17327 -1.0933245,1.02958 l -0.3507002,-0.12401 -1.6928537,1.68467 c -0.9310598,0.92659 -1.8091473,1.76806 -1.9512898,1.86995 l -0.258442,0.18525 -1.3819414,-1.4119 c -1.0441885,-1.06684 -1.4145595,-1.41494 -1.5153275,-1.4243 -0.106802,-0.01 -0.200538,0.0675 -0.470437,0.38851 -0.190587,0.2267 -0.33724,0.45993 -0.337476,0.53676 -2.32e-4,0.0757 0.151891,0.3227 0.343485,0.55774 0.509709,0.6253 0.764282,1.07018 0.68197,1.19175 -0.127029,0.18763 -0.486994,0.27745 -0.658043,0.16419 -0.200219,-0.13256 -0.317873,-0.12293 -0.526084,0.0431 -0.153404,0.12228 -0.174008,0.11786 -0.336174,-0.0722 -0.09501,-0.11137 -0.229881,-0.20779 -0.299692,-0.21428 -0.168973,-0.0157 -0.424134,0.2451 -0.366477,0.37458 0.06025,0.13528 -0.196997,0.38793 -0.333221,0.32726 -0.132122,-0.0588 -0.485178,0.32328 -0.369785,0.4002 0.04754,0.0317 0.01305,0.10932 -0.0979,0.22027 -0.119655,0.11966 -0.193471,0.14919 -0.244752,0.0979 -0.101393,-0.10139 -0.436381,0.2336 -0.373894,0.3739 0.02792,0.0626 -0.01836,0.16521 -0.120838,0.26769 -0.115,0.115 -0.188673,0.1435 -0.239513,0.0927 -0.101393,-0.10139 -0.436381,0.23359 -0.373896,0.37389 0.02792,0.0627 -0.01836,0.16522 -0.120837,0.26769 -0.115,0.115 -0.188674,0.1435 -0.239515,0.0927 -0.05128,-0.0513 -0.125092,-0.0217 -0.244746,0.0979 -0.119655,0.11965 -0.149181,0.19347 -0.0979,0.24474 0.05128,0.0513 0.02176,0.1251 -0.0979,0.24475 -0.119654,0.11966 -0.193468,0.14918 -0.244749,0.0979 -0.101393,-0.1014 -0.436381,0.2336 -0.373896,0.3739 0.02792,0.0626 -0.01836,0.16521 -0.120838,0.26769 -0.114999,0.115 -0.188672,0.1435 -0.239512,0.0927 -0.05128,-0.0513 -0.125094,-0.0217 -0.244748,0.0979 -0.119655,0.11965 -0.14918,0.19346 -0.0979,0.24475 0.05303,0.0531 0.01903,0.12781 -0.122374,0.26922 -0.14141,0.14141 -0.216195,0.1754 -0.269224,0.12237 -0.04912,-0.0491 -0.122545,-0.0243 -0.221809,0.075 -0.08674,0.0868 -0.129589,0.19059 -0.103138,0.24998 0.02752,0.0618 -0.01778,0.16463 -0.1156,0.26245 -0.09782,0.0978 -0.200662,0.14313 -0.262451,0.11561 -0.05939,-0.0265 -0.163242,0.0164 -0.249985,0.10314 -0.09926,0.0993 -0.124079,0.17269 -0.07496,0.2218 0.05303,0.0531 0.01903,0.12782 -0.122374,0.26923 -0.14141,0.14141 -0.216196,0.1754 -0.269224,0.12238 -0.08882,-0.0888 -0.298587,0.10032 -0.298597,0.26922 0,0.0646 0.09998,0.21794 0.22218,0.34073 0.299526,0.30097 0.538173,0.64152 0.48608,0.69361 -0.0234,0.0234 -0.125485,-0.0397 -0.226857,-0.14027 -0.101347,-0.10057 -0.235365,-0.19429 -0.29776,-0.20831 -0.169334,-0.038 -0.360714,0.34687 -0.28589,0.575 l 0.05959,0.18181 -0.135331,-0.13389 c -0.124965,-0.12363 -0.150352,-0.11889 -0.331139,0.0619 -0.160845,0.16085 -0.212675,0.17892 -0.290336,0.10126 -0.08488,-0.0849 -0.143029,-0.0508 -0.570801,0.33477 -0.261946,0.23612 -0.604873,0.52097 -0.762073,0.63299 -0.303933,0.21657 -0.330347,0.20871 -0.555009,-0.16505 -0.08182,-0.13612 -0.130904,-0.14053 -0.426241,-0.0383 l -0.333786,0.1155 0.06077,0.2492 c 0.04012,0.16471 -0.0099,0.50454 -0.14622,1.0024 l -0.206934,0.75319 -0.909647,0.9015 c -0.500295,0.49583 -1.160951,1.14549 -1.468136,1.44368 l -0.558508,0.54215 -0.618668,-0.0911 c -0.995786,-0.14663 -1.243374,-0.10276 -1.636076,0.28994 -0.390873,0.39089 -0.443731,0.71265 -0.282915,1.72229 0.07619,0.4784 0.166053,0.89734 0.199671,0.93096 0.05741,0.0574 -1.622063,1.7509 -6.873426,6.93038 -0.893579,0.88134 -1.573851,1.70419 -1.677085,2.02856 -0.04022,0.12636 -0.112999,0.68672 -0.161716,1.24523 -0.06898,0.7909 -0.113877,1.01189 -0.203001,0.99931 -0.364647,-0.0515 -0.610358,0.4172 -0.353432,0.67413 0.07688,0.0769 0.201529,0.13398 0.277066,0.12697 0.122385,-0.0114 0.138374,0.009 0.146734,0.18343 0.01334,0.27924 0.09427,0.50139 0.233437,0.64053 0.06621,0.0662 0.09999,0.16607 0.0751,0.22195 -0.0249,0.0559 -0.01384,0.13298 0.02451,0.17132 0.105705,0.10571 0.01709,0.24124 -0.488259,0.74656 -0.349499,0.3495 -0.452318,0.48555 -0.420667,0.55661 0.06166,0.13847 -0.29175,0.5434 -4.443933,5.09191 -1.143479,1.25262 -3.177306,3.51412 -4.519627,5.02558 -1.698509,1.91253 -2.891526,3.20177 -3.923697,4.24019 -1.31059,1.3185 -1.479726,1.50715 -1.453886,1.62135 0.02065,0.0914 0.383739,0.4028 1.238414,1.06223 1.73185,1.33625 3.322618,2.87446 4.545409,4.39525 0.689273,0.85723 0.90771,1.09661 1.009354,1.10605 0.255839,0.0238 1.095236,-0.94765 0.983612,-1.13833 -0.0669,-0.11429 0.543666,-1.3001 2.338631,-4.54197 1.587299,-2.86681 3.453917,-6.30309 5.117395,-9.42068 2.328531,-4.364 2.335528,-4.37655 2.440858,-4.37655 0.08577,0 0.864418,-1.28312 1.011686,-1.66715 0.02984,-0.0779 0.18136,-0.28978 0.336692,-0.47098 l 0.282431,-0.32944 0.257706,0.2577 c 0.190956,0.19097 0.370834,0.29394 0.694511,0.39758 0.584734,0.18723 1.114892,0.57014 1.448243,1.04603 0.140331,0.20035 0.821976,1.59251 1.514758,3.09369 0.871424,1.88826 1.322161,2.79196 1.462581,2.93238 0.329241,0.32925 0.642207,0.28298 1.983263,-0.29322 1.07657,-0.46254 1.171109,-0.51678 1.534906,-0.88058 0.343965,-0.34397 0.39034,-0.41843 0.411161,-0.66037 0.02322,-0.26995 0.01868,-0.27744 -0.454779,-0.74449 -0.426122,-0.42036 -0.501797,-0.52833 -0.694106,-0.9902 -0.118719,-0.28512 -0.488525,-1.14655 -0.821798,-1.91428 -0.333273,-0.76775 -0.610614,-1.44611 -0.616316,-1.50748 -0.0059,-0.0614 -0.08765,-0.24607 -0.182062,-0.41044 -0.290751,-0.50612 -0.790967,-1.72839 -0.770452,-1.88257 0.01067,-0.0803 -0.003,-0.16887 -0.03133,-0.1968 -0.09447,-0.0945 -7.8e-4,-0.37877 0.186736,-0.56623 0.16721,-0.16721 0.199326,-0.17356 0.311247,-0.0617 0.167763,0.16776 0.499009,0.26619 0.782073,0.23238 0.209889,-0.0251 0.296799,-0.0924 0.905437,-0.701 0.858321,-0.85831 2.278836,-2.45716 2.376666,-2.675 0.08083,-0.17991 -0.04378,-0.57009 -0.246956,-0.77322 -0.11867,-0.11868 -0.111614,-0.13627 0.165994,-0.41388 0.257006,-0.25699 0.323352,-0.28993 0.584181,-0.28993 0.233684,0 0.35863,0.0514 0.606949,0.24968 0.171982,0.13731 0.35941,0.26904 0.416497,0.29271 0.119717,0.0496 -0.324883,-0.51541 -0.765205,-0.97251 -0.165115,-0.17141 -0.278884,-0.33298 -0.252826,-0.35904 0.02609,-0.0261 0.02075,-0.13275 -0.01186,-0.23708 -0.0583,-0.18659 -0.0503,-0.18617 0.488773,0.0252 0.301423,0.11818 0.595377,0.2116 0.653244,0.20758 0.05791,-0.004 0.48564,0.207 0.950607,0.46893 1.527277,0.86043 2.7602,1.43082 4.531923,2.09662 2.58276,0.97059 5.722554,1.46095 8.5953633,1.34241 0.6754825,-0.0279 1.6638477,-0.0555 2.1963696,-0.0615 1.0550899,-0.0118 1.3900465,-0.0793 1.4501484,-0.29206 z m -3.3690704,-5.99157 -0.5026068,0.0277 0.00791,-0.22267 c 0.012283,-0.34702 0.1968894,-0.46819 0.8122581,-0.53311 0.3037094,-0.032 0.567617,-0.0426 0.5864626,-0.0235 0.018825,0.0192 0.038786,0.17422 0.04431,0.34472 l 0.01004,0.31002 -0.2278678,0.0346 c -0.1253275,0.0191 -0.4540418,0.047 -0.7304765,0.0623 z m -40.3243116,28.23476 c -0.835811,-0.86175 -1.376018,-1.36995 -1.895769,-1.78342 -0.542589,-0.43163 -0.743218,-0.62193 -0.791333,-0.75058 -0.03548,-0.0948 -0.04338,-0.19338 -0.01769,-0.2191 0.02569,-0.0257 0.700252,-0.80892 1.498976,-1.74046 0.798724,-0.93155 2.464347,-2.81826 3.701387,-4.19268 1.23704,-1.37443 2.898986,-3.23687 3.693204,-4.13876 1.549947,-1.76005 3.249187,-3.63229 3.299218,-3.6351 0.0169,-9.8e-4 0.05139,0.0666 0.07668,0.15007 0.07876,0.25998 0.361772,0.48345 0.692564,0.54679 0.216035,0.0414 0.304616,0.0874 0.289714,0.15054 -0.01176,0.05 -0.165223,0.35126 -0.340921,0.66942 -0.794782,1.43917 -6.631867,11.94931 -7.11972,12.8196 -0.299793,0.53481 -0.822085,1.46633 -1.160644,2.07005 -0.338559,0.60371 -0.647325,1.13392 -0.686151,1.17823 -0.06226,0.0711 -0.208525,-0.0617 -1.239461,-1.1246 z m 21.046104,-20.30018 c -0.21482,0.0378 -0.596118,-0.0952 -0.769346,-0.2684 -0.06957,-0.0696 -0.08884,-0.1727 -0.05049,-0.27079 0.08231,-0.21099 -0.215482,-0.60042 -0.986775,-1.29046 -0.562618,-0.50336 -0.584971,-0.51653 -0.653798,-0.38561 -0.07046,0.13399 -0.07144,0.13327 -0.08241,-0.0622 -0.0069,-0.12537 0.04733,-0.25611 0.148701,-0.3575 0.140905,-0.1409 0.182625,-0.14492 0.352098,-0.0339 0.105745,0.0693 0.280277,0.14557 0.38786,0.16958 0.107572,0.024 0.323499,0.16194 0.479819,0.30651 0.166715,0.15418 0.407574,0.30286 0.58259,0.35962 0.483703,0.1569 1.338921,0.0586 1.451652,-0.16686 0.01838,-0.0368 -0.10191,-0.035 -0.267371,0.004 -0.439541,0.10376 -0.969728,-0.0342 -1.26465,-0.32914 -0.284318,-0.28433 -0.38196,-0.55681 -0.346455,-0.96684 0.01453,-0.1674 -0.01808,-0.37695 -0.07243,-0.46564 -0.09605,-0.15673 -0.08686,-0.17474 0.32597,-0.64249 0.233635,-0.26467 0.672218,-0.74042 0.97463,-1.05722 0.487853,-0.51106 0.559199,-0.56679 0.63269,-0.49441 0.04556,0.0449 0.113759,0.0816 0.151567,0.0816 0.03775,0 0.09032,0.0714 0.116783,0.15871 0.04733,0.15626 1.223689,1.34698 1.713835,1.73472 0.279951,0.22147 0.404036,0.48834 0.324636,0.69821 -0.08004,0.21162 -1.040788,1.29778 -2.104403,2.37916 -0.715895,0.72784 -0.881592,0.87049 -1.044651,0.89921 z"
       id="path949"       
       sodipodi:nodetypes="ccssscccccccccscsscssccccsccsccssssccsccsscssscsccssssssccccccccccccssscssccccscccccscccsccccccccsscsscsssssscssssssscscssssccscccccsscccccsscscccssccsscsccscsscssccccccssscccsccsssscccccccssscscsscccsscsccssscccccscsccccccsccsccccssscccscsccsccccccscccccccccccc" />
  </g>
</svg>
