<?xml version="1.0" encoding="UTF-8" standalone="no"?>
<!-- Created with Inkscape (http://www.inkscape.org/) -->

<svg
   xmlns:dc="http://purl.org/dc/elements/1.1/"
   xmlns:cc="http://creativecommons.org/ns#"
   xmlns:rdf="http://www.w3.org/1999/02/22-rdf-syntax-ns#"
   xmlns:svg="http://www.w3.org/2000/svg"
   xmlns="http://www.w3.org/2000/svg"
   xmlns:sodipodi="http://sodipodi.sourceforge.net/DTD/sodipodi-0.dtd"   
   width="220"
   height="235"
   viewBox="0 0 58.208332 62.177085"
   version="1.1"
   id="svg8"   
   sodipodi:docname="ar-9mm.svg" >
  <defs
     id="defs2" />
  <sodipodi:namedview
     id="base"
     pagecolor="#000000"
     bordercolor="#666666"
     borderopacity="1.0"
     showgrid="false"
     units="px" />
  <metadata
     id="metadata5">
    <rdf:RDF>
      <cc:Work
         rdf:about="">
        <dc:format>image/svg+xml</dc:format>
        <dc:type
           rdf:resource="http://purl.org/dc/dcmitype/StillImage" />
        <dc:title></dc:title>
      </cc:Work>
    </rdf:RDF>
  </metadata>
  <g
     id="layer1"
     transform="translate(0,-234.8229)">
    <path
       style="fill:none;stroke:#ffffff;stroke-width:0.4;stroke-opacity:1;stroke-miterlimit:4;stroke-dasharray:none"
       d="m 57.383063,282.15835 c -3.3e-5,-0.0373 -0.120014,-0.21992 -0.266627,-0.40573 -0.146616,-0.18572 -0.512051,-0.65199 -0.81208,-1.03614 -0.60564,-0.77537 -0.626184,-0.79127 -0.798946,-0.61852 -0.05204,0.0521 -0.105281,0.0839 -0.118309,0.0712 -0.01303,-0.0131 -0.344657,-0.44407 -0.736956,-0.95793 -0.392299,-0.51382 -1.210417,-1.58425 -1.81803,-2.37881 -0.607626,-0.79448 -1.426368,-1.86669 -1.819443,-2.3827 -0.393068,-0.516 -1.238322,-1.62477 -1.878336,-2.46387 -1.553037,-2.03627 -2.737231,-3.59646 -3.989098,-5.2557 -2.022498,-2.68064 -2.380157,-3.16212 -2.377972,-3.20117 0.002,-0.0221 0.160416,-0.25701 0.353782,-0.52282 0.193367,-0.26578 0.351572,-0.51423 0.351573,-0.55205 -10e-7,-0.0379 -0.06435,-0.15076 -0.143007,-0.25086 -0.07868,-0.10004 -0.272384,-0.36062 -0.430506,-0.57906 l -0.287497,-0.39712 -0.253053,-0.0831 c -0.139174,-0.0459 -0.265195,-0.0954 -0.280036,-0.11025 -0.01484,-0.0147 -0.07719,-0.0478 -0.138552,-0.0731 -0.14411,-0.0597 -0.550311,-0.48659 -0.787138,-0.8274 -0.387696,-0.55781 -0.632713,-0.89483 -0.808951,-1.11275 -0.366726,-0.45333 -0.477449,-1.10297 -0.284105,-1.6667 0.334402,-0.67856 -0.315848,-1.1622 0.391305,-0.46881 l 0.672248,-0.65845 c 0.369737,-0.36212 1.19184,-1.18732 1.826914,-1.83376 0.85788,-0.87327 1.179294,-1.18283 1.250481,-1.20441 0.06557,-0.0202 0.09765,-0.0491 0.101648,-0.0917 0.0049,-0.042 1.243472,-1.30138 3.711992,-3.77168 l 3.706151,-3.70882 0.06117,-0.37573 c 0.03364,-0.2066 0.05923,-0.42772 0.05689,-0.49135 -0.004,-0.0686 -0.09141,-0.25646 -0.2185,-0.46176 l -0.214223,-0.34607 0.1287,-0.14619 c 0.0956,-0.10855 0.146253,-0.14119 0.196941,-0.1269 0.0929,0.0264 0.329964,-0.20801 0.293456,-0.28998 -0.03557,-0.08 0.21263,-0.32809 0.318292,-0.31827 0.06136,0.01 0.152852,-0.0688 0.452933,-0.36886 0.361895,-0.36194 0.376038,-0.38122 0.376038,-0.51359 -2e-6,-0.17734 -0.08713,-0.26692 -0.196152,-0.2016 -0.07631,0.0456 -0.08711,0.0404 -0.141405,-0.0715 -0.03234,-0.0665 -0.066,-0.1817 -0.07486,-0.25617 -0.02344,-0.19749 -0.463402,-0.71002 -0.616009,-0.71761 -0.05685,-0.005 -0.122796,0.0142 -0.146532,0.0381 -0.02372,0.0236 -0.111443,0.0448 -0.194918,0.0464 l -0.151768,0.005 -0.01301,-0.15094 c -0.0097,-0.11259 -0.0461,-0.18433 -0.143308,-0.28245 -0.119397,-0.12045 -0.126251,-0.14264 -0.0819,-0.26399 l 0.04842,-0.13247 -0.32921,-0.34483 c -0.300883,-0.31518 -0.339543,-0.34519 -0.449325,-0.34909 -0.06606,-0.004 -0.144091,0.02 -0.173397,0.049 -0.07027,0.0703 -0.135305,0.0521 -0.127148,-0.0357 0.0049,-0.0387 -0.02609,-0.1189 -0.06594,-0.17847 -0.03987,-0.0597 -0.06624,-0.15409 -0.0586,-0.20993 0.01147,-0.084 -0.0071,-0.11619 -0.109881,-0.18619 -0.239411,-0.16383 -0.275845,-0.14951 -0.714396,0.28103 -0.32219,0.31627 -0.391135,0.39966 -0.39503,0.47785 -0.0059,0.13266 -0.197361,0.30984 -0.348374,0.32362 -0.137559,0.0127 -0.154131,-0.008 -0.721781,-0.75336 l -0.28694,-0.37843 -0.117914,0.0163 c -0.06484,0.01 -0.268076,0.0623 -0.451613,0.11821 -0.255663,0.078 -0.356057,0.12836 -0.42932,0.21561 l -0.09563,0.11389 -0.179268,-0.16279 c -0.152966,-0.13893 -0.202298,-0.16237 -0.336332,-0.15946 -0.09991,0.004 -0.192788,0.0356 -0.255209,0.0925 -0.07418,0.0673 -0.199918,0.0987 -0.515067,0.12837 l -0.416933,0.0394 -0.222811,0.22283 c -0.3459,0.34587 -0.2933,0.36969 -1.170778,-0.53002 -0.397789,-0.40791 -0.926673,-0.91635 -1.175306,-1.12995 -0.515082,-0.44246 -0.551533,-0.45544 -0.91441,-0.32514 -0.287886,0.10339 -0.473652,0.29462 -0.516675,0.5319 -0.01807,0.0997 -0.01193,0.21333 0.01363,0.25247 0.02558,0.0392 0.34894,0.38654 0.718591,0.77188 0.369646,0.38532 1.042982,1.08875 1.496303,1.5632 l 0.824208,0.86258 0.250036,0.0108 0.25004,0.0108 -0.09601,0.0959 c -0.123731,0.12376 -0.121207,0.20532 0.01045,0.33696 l 0.106457,0.10648 -0.224116,0.22408 -0.224116,0.22414 -0.140071,-0.14009 -0.140073,-0.14006 -0.179801,0.17981 c -0.09889,0.0989 -0.202546,0.19062 -0.230331,0.20389 -0.111872,0.0533 -0.07168,0.2267 0.09728,0.41944 0.02308,0.0264 -0.0289,0.0989 -0.175858,0.24586 l -0.208574,0.20857 -0.141604,-0.12454 -0.141614,-0.12451 -0.224938,0.2086 c -0.283055,0.26245 -0.308663,0.33868 -0.168482,0.50133 l 0.107367,0.12459 -0.207154,0.21305 -0.207159,0.2131 -0.154079,-0.12607 -0.154079,-0.12612 -0.227992,0.21159 c -0.138321,0.12832 -0.230536,0.23879 -0.234438,0.28082 -0.0049,0.0383 0.04232,0.12569 0.101935,0.19465 l 0.108364,0.1254 -0.211038,0.22045 -0.211038,0.22043 -0.153147,-0.13643 -0.15315,-0.13637 -0.227992,0.21155 c -0.138319,0.12835 -0.23053,0.23877 -0.234438,0.28081 -0.0049,0.0382 0.04232,0.12571 0.101936,0.19467 l 0.108364,0.12542 -0.224115,0.22412 c -0.158751,0.15873 -0.235356,0.21491 -0.262635,0.19258 -0.0212,-0.0174 -0.09054,-0.0804 -0.154072,-0.14008 l -0.115563,-0.10857 -0.220688,0.22071 c -0.249734,0.24976 -0.258996,0.2909 -0.106041,0.47095 l 0.102614,0.12077 -0.221505,0.23773 -0.221503,0.23774 -0.156701,-0.13965 -0.156686,-0.13972 -0.213973,0.19742 c -0.12824,0.1183 -0.216566,0.22522 -0.220432,0.26685 -0.0049,0.0382 0.04232,0.12578 0.101922,0.19477 l 0.108366,0.12537 -0.221506,0.23776 -0.221504,0.23771 -0.156348,-0.13937 -0.156349,-0.1393 -0.22141,0.20219 c -0.253443,0.23149 -0.26352,0.2753 -0.105995,0.4607 l 0.102609,0.12081 -0.222978,0.23926 -0.222988,0.23925 -0.139073,-0.13907 -0.139071,-0.13906 -0.234784,0.21654 c -0.129132,0.11902 -0.234726,0.24035 -0.234656,0.26956 6.9e-5,0.0294 0.05482,0.10782 0.121684,0.17466 l 0.121555,0.12157 -0.253232,0.23699 -0.253213,0.23707 -0.12875,-0.12339 -0.128759,-0.12337 -0.234965,0.21876 -0.234963,0.21874 0.125589,0.14275 0.125592,0.14275 -0.24881,0.26484 -0.248811,0.26488 -0.171882,-0.12431 -0.171874,-0.12432 -0.195633,0.19562 -0.195625,0.19566 0.126064,0.15407 0.126063,0.15407 -0.251077,0.26719 -0.251071,0.26719 -0.138425,-0.13844 -0.13842,-0.13839 -0.158204,0.13596 c -0.264993,0.22771 -0.283774,0.28772 -0.141011,0.45035 l 0.122645,0.13978 -0.264599,0.26456 -0.264606,0.26461 -0.124411,-0.12443 c -0.06845,-0.0686 -0.140221,-0.12066 -0.159547,-0.11611 -0.01933,0.008 -0.120152,0.0865 -0.224051,0.18213 l -0.188918,0.17387 0.121236,0.17149 0.12124,0.17149 -0.263033,0.24703 -0.263032,0.247 -0.141454,-0.12436 c -0.162659,-0.14304 -0.211771,-0.12963 -0.429309,0.11732 l -0.129337,0.14683 0.125084,0.17214 0.125083,0.17213 -0.265288,0.24823 -0.265283,0.24822 -0.154085,-0.12606 -0.154077,-0.12607 -0.211331,0.19487 -0.211333,0.19487 0.105859,0.10672 c 0.16977,0.17128 0.163125,0.19613 -0.125622,0.46654 l -0.257924,0.24162 -0.141603,-0.12456 -0.141613,-0.1245 -0.208575,0.20857 -0.208572,0.20859 0.10463,0.10548 c 0.168421,0.16989 0.161565,0.19517 -0.126847,0.46531 l -0.257933,0.24161 -0.1383,-0.12148 -0.138304,-0.12148 -0.200721,0.17464 c -0.110397,0.096 -0.204992,0.18933 -0.210227,0.20717 -0.0049,0.0181 0.03942,0.0816 0.09925,0.1413 0.05979,0.06 0.104252,0.12781 0.09875,0.1511 -0.01711,0.0725 -0.279119,0.35912 -0.403045,0.4409 -0.0671,0.0442 -0.136886,0.0615 -0.161734,0.04 -0.02403,-0.0212 -0.08715,-0.0777 -0.140247,-0.12604 l -0.09654,-0.0879 -0.19488,0.21133 c -0.185491,0.20116 -0.191882,0.21511 -0.132682,0.28923 0.183688,0.22999 0.187367,0.21071 -0.08991,0.47028 l -0.252405,0.23624 -0.140069,-0.11203 -0.140071,-0.11209 -0.147771,0.11728 c -0.305544,0.24255 -0.313581,0.25977 -0.188748,0.40401 0.135147,0.15613 0.11515,0.21612 -0.156781,0.47017 l -0.188279,0.1759 -0.130964,-0.099 c -0.07202,-0.0545 -0.156916,-0.099 -0.188636,-0.099 -0.03198,-1e-5 -0.140103,0.0899 -0.242612,0.2017 l -0.18495,0.20171 0.112058,0.14004 0.11206,0.14007 -0.238107,0.23814 c -0.18663,0.1866 -0.244651,0.22807 -0.26832,0.1917 -0.01659,-0.0254 -0.0876,-0.0753 -0.157762,-0.11058 l -0.127559,-0.0641 -0.206433,0.22268 -0.206433,0.2227 0.112058,0.14007 0.112058,0.14006 -0.222991,0.23925 -0.222982,0.23928 -0.103982,-0.10401 c -0.160022,-0.16 -0.266895,-0.14597 -0.475272,0.0623 -0.09685,0.0968 -0.171359,0.19618 -0.165559,0.22076 0.005,0.0242 0.05515,0.10756 0.109653,0.18447 l 0.09912,0.13986 -0.166732,0.18545 c -0.09171,0.10194 -0.197375,0.19733 -0.23482,0.21189 -0.03744,0.0143 -0.07376,0.0344 -0.08073,0.0439 -0.0064,0.0104 -0.05101,-0.031 -0.09788,-0.0901 -0.132208,-0.16718 -0.206537,-0.153 -0.444283,0.0847 l -0.206676,0.20668 0.09574,0.0957 c 0.175958,0.17592 0.172725,0.19602 -0.07073,0.43948 l -0.22112,0.2211 -0.108627,-0.10864 c -0.0642,-0.0643 -0.141312,-0.10556 -0.188524,-0.10118 -0.05387,0.008 -0.106459,-0.0275 -0.161403,-0.0995 -0.05633,-0.0738 -0.116727,-0.10996 -0.195669,-0.11688 -0.06278,-0.009 -0.188228,-0.018 -0.278746,-0.0277 -0.120407,-0.0129 -0.187423,0.009 -0.249697,0.0675 -0.0647,0.0645 -0.187513,0.0935 -0.512205,0.11998 -0.388717,0.0318 -0.438233,0.0461 -0.551122,0.15894 -0.06822,0.0684 -0.151628,0.12402 -0.185364,0.12402 -0.04311,0 -0.312856,-0.26058 -0.907776,-0.87683 -0.838951,-0.86912 -0.847503,-0.87689 -0.966795,-0.87689 -0.06619,0 -0.130837,0.011 -0.143638,0.0233 -0.04082,0.041 -0.231073,-0.0374 -0.275477,-0.11324 -0.02459,-0.0422 -0.08902,-0.0781 -0.151434,-0.0845 -0.08892,-0.0101 -0.130465,-0.0416 -0.228981,-0.17704 -0.137381,-0.18899 -0.676733,-0.75034 -0.720985,-0.75035 -0.06124,0 -0.616538,0.52579 -0.60535,0.57316 0.01558,0.0661 0.645633,0.78556 0.749894,0.85632 0.04704,0.0322 0.102976,0.0407 0.124293,0.0196 0.02785,-0.028 0.07822,5.8e-4 0.178828,0.10128 0.121395,0.12141 0.132601,0.14757 0.08402,0.19612 -0.03082,0.0309 -0.04501,0.0703 -0.03152,0.0876 0.04875,0.0627 0.05889,0.0823 0.07143,0.13866 0.0065,0.0317 -0.01142,0.0814 -0.04106,0.11109 -0.0327,0.033 -0.035,0.0843 -0.0049,0.13189 0.03983,0.0647 0.497146,0.54648 1.490241,1.56986 0.13398,0.13807 0.141358,0.15654 0.07744,0.19397 -0.11645,0.0682 -0.05867,0.27302 0.116359,0.41261 0.119848,0.0955 0.143842,0.13536 0.143843,0.23858 0,0.17391 0.15556,0.27363 0.386365,0.24763 0.09917,-0.0115 0.201621,0.009 0.234154,0.0381 0.05782,0.0579 0.05724,0.0585 -1.373904,1.46954 l -1.431736,1.41174 0.08149,0.099 0.0815,0.0989 -0.347646,0.3633 -0.347645,0.36328 0.508078,0.52341 0.508077,0.52335 c 0.300561,-0.3012 -3.37436,3.51201 -4.160796,4.22201 -0.224766,0.19514 -0.251516,0.20854 -0.326645,0.16355 -0.04502,-0.027 -0.147689,-0.033 -0.228191,-0.0132 -0.160142,0.0394 -0.410488,0.27673 -4.0466847,3.83948 -0.7860446,0.77017 -1.6494606,1.6086 -1.9187094,1.86323 -0.4391124,0.41531 -4.7021712,4.5899 -5.4127757,5.30047 l -0.28600349,0.28604 -0.00269,0.2521 c -0.00186,0.17351 0.020836,0.27525 0.071986,0.32643 0.040868,0.0409 0.08933,0.15274 0.10769689,0.24867 0.038621,0.20177 0.1003582,0.28072 0.2776078,0.35509 0.1150785,0.0483 0.1292356,0.0672 0.1489775,0.19892 0.025013,0.16694 0.136865,0.29418 0.2754572,0.31341 0.1296514,0.018 0.1864384,0.0831 0.2045039,0.2343 0.017837,0.14937 0.1099745,0.25139 0.2437276,0.26996 0.1209641,0.0167 0.2205356,0.1154 0.2489251,0.24657 0.022464,0.10382 0.1857636,0.24651 0.2307039,0.2016 0.013251,-0.0135 0.076966,-0.0132 0.1415736,2.5e-4 0.1095805,0.023 0.1213505,0.0345 0.1751881,0.17712 0.064208,0.16969 0.1441501,0.21966 0.3958822,0.24755 0.1366609,0.0148 0.1427038,0.0204 0.1769738,0.14677 0.039653,0.14646 0.1964635,0.27679 0.2853974,0.23722 0.1009641,-0.0449 0.2574838,0.0555 0.2838778,0.18218 0.029572,0.14199 0.1582348,0.22522 0.3375676,0.21836 0.1521579,-0.01 0.2258308,0.0538 0.2523376,0.20438 0.019446,0.11035 0.1968679,0.26244 0.2473185,0.21199 0.013833,-0.0139 0.07572,-0.0145 0.1375348,-0.003 0.1021687,0.0216 0.1161166,0.0349 0.1533241,0.15203 0.058312,0.18323 0.1535677,0.26238 0.3098624,0.25752 0.141427,-0.007 0.2829451,0.0969 0.2829451,0.20265 0,0.0423 0.055711,0.0798 0.1913081,0.1288 0.1052188,0.0379 0.2093351,0.0645 0.2313706,0.0597 0.057218,-0.0134 0.2037965,0.14243 0.1897586,0.20189 -0.017519,0.0741 0.1770573,0.18891 0.2875181,0.16942 0.1032977,-0.0183 0.2933839,0.13548 0.2732229,0.22089 -0.016383,0.0694 0.1871992,0.18888 0.2906689,0.17068 0.071849,-0.0127 0.1202957,0.021 0.2874056,0.19687 0.1617125,0.17068 0.22211,0.21322 0.3090677,0.21754 0.089654,0.007 0.1310845,0.0349 0.2430522,0.17897 0.1140456,0.1466 0.1620219,0.18111 0.3093547,0.22243 0.1255786,0.035 0.1912361,0.0765 0.2346232,0.1477 0.1018778,0.16724 0.1886558,0.22717 0.3484379,0.24097 0.084392,0.01 0.1842667,0.044 0.2219502,0.0817 0.085842,0.0858 0.5179605,0.10904 0.6938175,0.0373 0.1748292,-0.0712 1.1784502,-1.07017 1.1949252,-1.18918 0.0111,-0.0801 -0.01289,-0.26158 -0.07688,-0.58145 -0.01797,-0.0894 -0.191252,-0.58433 -0.385052,-1.0993 -0.193815,-0.51507 -0.53543,-1.48142 -0.7591622,-2.14761 -0.223771,-0.66614 -0.4437666,-1.26244 -0.4889204,-1.3251 l -0.082088,-0.11388 1.6063196,-1.56484 c 1.811513,-1.76455 1.81886,-1.77042 2.299034,-1.82452 0.610659,-0.0687 0.940675,-0.22281 1.219746,-0.56933 0.142354,-0.17678 0.859558,-1.19612 0.950326,-1.35072 0.02281,-0.0389 -0.05456,0.23463 -0.17194,0.60764 -0.244113,0.77583 -0.243253,0.85366 0.0123,1.10953 0.123998,0.12414 0.176802,0.15494 0.23471,0.13685 0.102443,-0.032 0.16503,-0.18513 0.1016,-0.24859 -0.02836,-0.0284 -0.05816,-0.0939 -0.06619,-0.14572 -0.01302,-0.0836 -6.63e-4,-0.10042 0.111816,-0.15126 0.105286,-0.0477 0.130152,-0.075 0.148687,-0.16399 0.01223,-0.0588 -0.0033,-0.13137 -0.03211,-0.16129 -0.07988,-0.08 -0.02473,-0.22765 0.102779,-0.27534 0.124852,-0.0467 0.178766,-0.22751 0.09334,-0.31294 -0.07808,-0.078 -0.02458,-0.22775 0.09777,-0.27354 0.135235,-0.0506 0.194929,-0.21815 0.108484,-0.30461 -0.08735,-0.0874 -0.04167,-0.23532 0.08762,-0.28368 0.135236,-0.0506 0.194928,-0.21817 0.108483,-0.30463 -0.08907,-0.089 -0.04183,-0.23525 0.09231,-0.28542 0.05581,-0.0215 0.118256,-0.0704 0.13877,-0.10993 0.02801,-0.0539 0.105987,-0.0704 0.31253,-0.0661 0.328363,0.01 0.506897,-0.0808 0.752833,-0.36993 0.30856,-0.36269 0.366304,-0.48333 0.351505,-0.73425 -0.0071,-0.1263 -0.03515,-0.29628 -0.06157,-0.37776 -0.0906,-0.2794 -0.07937,-0.30272 0.36381,-0.75678 0.220702,-0.22611 0.44885,-0.45631 0.506976,-0.51156 0.10243,-0.0973 0.126296,-0.0968 0.771765,0.0152 0.453176,0.0789 0.714751,0.10179 0.818368,0.0719 0.130349,-0.0376 0.235701,-0.12186 0.730957,-0.58569 0.703709,-0.65903 1.217378,-1.10284 1.43443,-1.23937 0.831559,-0.523 1.953124,-0.66289 2.821684,-0.35192 0.170192,0.0611 0.320802,0.1064 0.334699,0.10105 0.02759,-0.0111 0.118171,0.0907 0.733055,0.82027 0.225497,0.26753 0.447863,0.56466 0.494156,0.66032 0.04629,0.0956 0.09943,0.31591 0.118094,0.48942 0.01866,0.17357 0.05683,0.32577 0.0848,0.33827 0.05071,0.0226 0.0594,0.15892 0.01551,0.24335 -0.04809,0.0924 0.327753,2.89857 0.61469,4.58927 0.193459,1.13991 0.763291,3.94136 0.801697,3.94136 0.05014,0 0.08857,0.15498 0.04841,0.19514 -0.03561,0.0354 0.171299,0.99501 0.226506,1.0502 0.08508,0.085 1.090618,-0.0804 1.646347,-0.27089 1.023548,-0.35091 2.303819,-0.80984 2.328805,-0.83487 0.01614,-0.0159 0.08287,-0.0358 0.148274,-0.0439 0.0654,-0.01 0.277508,-0.0832 0.471323,-0.16658 0.657805,-0.28348 2.193024,-1.03321 2.266767,-1.10696 0.05276,-0.0529 0.0734,-0.17307 0.0734,-0.42821 10e-7,-0.35083 -0.0029,-0.35662 -0.156057,-0.5109 -0.125031,-0.12504 -0.226286,-0.18074 -0.509248,-0.28019 -0.567969,-0.19966 -0.841813,-0.48938 -1.008876,-1.06734 -0.03536,-0.12232 -0.0858,-0.23214 -0.112104,-0.244 -0.0263,-0.0121 -0.05518,-0.12168 -0.06419,-0.24393 -0.03243,-0.44019 -1.601897,-5.55099 -1.750152,-5.69925 -0.03935,-0.0396 -0.07478,-0.1545 -0.08096,-0.26303 -0.005,-0.10621 -0.01918,-0.30214 -0.02922,-0.43545 -0.02266,-0.30086 0.02706,-0.53058 0.16691,-0.7716 0.05941,-0.10236 0.120001,-0.21419 0.134658,-0.24853 0.01505,-0.0351 0.06117,-0.0594 0.105872,-0.0549 0.06249,0.01 0.142914,-0.0564 0.380287,-0.29372 0.621977,-0.62195 1.169495,-0.92614 2.145126,-1.1919 l 0.178357,-0.0488 0.08655,-0.23279 c 0.04908,-0.13195 0.06844,-0.25094 0.04467,-0.27469 -0.05982,-0.0599 -0.03206,-0.13539 0.05261,-0.1433 0.08805,-0.01 0.165126,-0.14323 0.112035,-0.19634 -0.05479,-0.0546 -0.02653,-0.13701 0.04712,-0.13701 0.107272,0 0.166698,-0.0975 0.121181,-0.19887 -0.05087,-0.11329 -0.03749,-0.13407 0.09041,-0.14043 0.08788,-0.007 0.09444,-0.0148 0.08947,-0.14551 -0.0049,-0.14318 0.03557,-0.22702 0.08628,-0.17632 0.05095,0.0511 0.138584,-0.0805 0.112058,-0.16812 -0.0268,-0.0885 0.0341,-0.18999 0.08402,-0.14003 0.05448,0.0543 0.165531,-0.10594 0.126067,-0.18212 -0.04495,-0.0868 0.01092,-0.15923 0.09418,-0.12221 0.08234,0.0367 0.147254,-0.0431 0.122436,-0.15042 -0.02582,-0.1117 0.0021,-0.14169 0.133797,-0.14829 0.09809,-0.008 0.102152,-0.0107 0.09075,-0.11873 -0.01375,-0.13087 0.04493,-0.20843 0.129276,-0.17084 0.08417,0.0376 0.14363,-0.0407 0.122467,-0.16062 -0.01725,-0.0979 -0.01256,-0.10422 0.08084,-0.10886 0.12295,-0.01 0.202993,-0.0814 0.168641,-0.1585 -0.0359,-0.0808 0.03399,-0.1391 0.131083,-0.10971 0.131645,0.04 0.368804,-0.17658 0.704966,-0.6433 0.510347,-0.70857 0.516803,-0.71582 0.580565,-0.65204 0.0306,0.0305 0.05319,0.10358 0.05027,0.16227 -0.0049,0.114 0.06554,0.21373 0.14007,0.1961 0.07964,-0.019 0.181385,0.11996 0.154077,0.21016 -0.02736,0.0903 0.04878,0.2003 0.126068,0.18205 0.07654,-0.0179 0.170086,0.1079 0.161586,0.21763 -0.0086,0.11207 0.04552,0.19183 0.118558,0.17459 0.07654,-0.0182 0.170088,0.1079 0.161587,0.2176 -0.0086,0.11203 0.04552,0.19184 0.118559,0.17461 0.07158,-0.0169 0.181342,0.11607 0.159537,0.19329 -0.0391,0.13846 0.0969,0.1633 0.266502,0.0489 0.09741,-0.0659 0.158549,-0.127 0.157107,-0.15714 -0.0022,-0.0273 -0.320468,-0.48522 -0.709269,-1.01796 -0.388806,-0.53273 -0.710344,-0.98313 -0.714541,-1.00087 -0.0049,-0.0178 0.03941,-0.093 0.09693,-0.16717 0.05751,-0.074 0.284383,-0.38081 0.504161,-0.6814 0.219783,-0.30063 0.405512,-0.54539 0.412739,-0.54395 0.0068,0.002 0.300263,0.38355 0.651198,0.84925 1.209294,1.60474 3.980749,5.25215 8.938725,11.76398 1.828054,2.40097 3.252603,4.2938 3.488688,4.63549 0.06295,0.091 0.178994,0.23173 0.25787,0.31246 0.165154,0.16903 0.277966,0.18826 0.398215,0.068 0.06817,-0.0682 0.908658,-0.72404 2.172947,-1.69569 0.526266,-0.40443 0.57707,-0.43817 0.588343,-0.39042 0.02856,0.12105 0.121037,0.0526 0.598673,-0.44297 0.337341,-0.35003 0.490643,-0.53038 0.490607,-0.57708 z m -22.765129,-8.80054 c -0.03244,0.01 0.01642,0.0135 -0.14859,0.12471 -0.06373,0.043 -0.06971,0.0807 -0.05021,0.0444 0.03238,-0.0603 -0.556416,0.19244 -0.796093,0.34178 -0.07528,0.0572 -0.01938,0.007 0,0 0.06377,-0.0132 -0.242907,0.0374 -0.258276,0.0222 -0.01535,-0.0152 -0.08055,-0.0115 -0.144856,0.01 -0.251595,0.08 -0.725954,0.11046 -0.973049,0.0624 -0.548846,-0.10644 -1.074238,-0.51133 -1.313953,-1.01259 -0.151616,-0.31706 -0.264777,-0.85609 -0.250942,-1.19536 0.01334,-0.32707 0.146749,-0.65325 0.350595,-0.85709 l 0.152927,-0.15292 0.116912,0.15269 c 0.08749,0.11425 0.401888,0.35307 1.249772,0.94935 1.491712,1.04907 1.472217,1.03705 1.689355,1.03861 0.161806,0.002 0.197533,-0.0152 0.339754,-0.15767 0.131333,-0.13133 0.149508,-0.16519 0.104659,-0.19507 -0.02995,-0.0202 -0.142444,0.007 -0.250934,0.0538 l -0.196658,0.0899 -0.20502,-0.17207 c -0.112761,-0.0945 -0.439599,-0.41655 -0.72631,-0.71537 -0.484674,-0.50509 -0.638537,-0.67916 -0.854465,-0.96644 -0.04627,-0.0617 -0.140122,-0.18211 -0.208537,-0.26776 -0.06843,-0.0856 -0.177078,-0.23663 -0.241469,-0.3355 l -0.117078,-0.17975 0.990974,-0.96609 0.990971,-0.96602 0.305962,-0.10357 c 0.937692,-0.31741 2.062526,0.21922 2.507499,1.19622 0.0899,0.19735 0.186142,0.60108 0.208393,0.87412 0.01065,0.13076 0.03319,0.0961 -1.370788,2.10458 -0.745979,1.06716 -0.817399,1.16066 -0.900543,1.17941 z m -2.264411,-2.00241 c -0.14503,-0.10922 -0.379381,-0.27877 -0.520782,-0.37676 -0.188083,-0.13033 -0.279423,-0.21569 -0.340312,-0.31802 -0.08164,-0.13718 -0.08082,-0.14223 0.04334,-0.26639 l 0.126559,-0.12657 0.116003,0.15011 c 0.06381,0.0826 0.235629,0.30791 0.381843,0.50064 0.146213,0.19279 0.319175,0.4043 0.384356,0.47009 0.195335,0.19714 0.0907,0.179 -0.191,-0.0331 z M 9.8594278,292.73795 c -0.132174,0.0567 -0.3603216,0.0322 -0.4760733,-0.0513 -0.7016191,-0.5052 -1.9904507,-1.51948 -2.2852222,-1.79843 -0.2972424,-0.28135 -0.3075847,-0.25559 0.3948168,-0.98088 0.6557913,-0.67716 0.7603498,-0.7528 1.0107105,-0.73124 0.2879737,0.0245 0.282655,0.0142 1.2159682,2.38985 0.2957062,0.75267 0.3606312,1.01775 0.269361,1.09979 -0.01935,0.0176 -0.07769,0.0501 -0.129561,0.0722 z M 21.779293,263.64552 c -0.03128,-0.034 -0.03128,-0.0474 -10e-7,-0.0338 0.02832,0.0124 0.05148,0.0374 0.05148,0.0558 -3e-6,0.0189 -0.02315,0.01 -0.05148,-0.0224 z m 21.733739,-22.65357 c -0.08472,-0.0846 -0.114158,-0.12465 -0.06536,-0.0888 0.04878,0.0359 0.118124,0.10527 0.15408,0.15409 0.03594,0.0491 -0.0049,0.0196 -0.08871,-0.0653 z"
       id="path4196"       
       sodipodi:nodetypes="cccsssccsssccccccscccccccccscccccccccscccccsccccccccsccccccccccccccccccsccscccccccsscccccsccsccccccccccccccccccccccscccsccccccccccccccccccccccssccccccccccccccccccccccccccsccccccccccccccccccccccccccccccccsccccccccccccsccccccccscccccccccsssscccccscsscsccccssscscsccccccsssccsccccccsccccccccccsccsccscccccccsccccccccscccscccsscccscccscccccscscsccccscccscscscsccccccccscccccsccccscsscsscsssccscscccccssccscscsccscscccccsccccsscccccccccccccccccsccsccccccscccsccscsccscscscsccccccccccsccsccsccscscccccscccccccsccs" />
  </g>
</svg>
