<?xml version="1.0" encoding="UTF-8" standalone="no"?>
<!-- Created with Inkscape (http://www.inkscape.org/) -->

<svg
   xmlns:dc="http://purl.org/dc/elements/1.1/"
   xmlns:cc="http://creativecommons.org/ns#"
   xmlns:rdf="http://www.w3.org/1999/02/22-rdf-syntax-ns#"
   xmlns:svg="http://www.w3.org/2000/svg"
   xmlns="http://www.w3.org/2000/svg"
   xmlns:sodipodi="http://sodipodi.sourceforge.net/DTD/sodipodi-0.dtd"   
   width="220"
   height="235"
   viewBox="0 0 58.208332 62.177085"
   version="1.1"
   id="svg8"   
   sodipodi:docname="aug.svg" >
  <defs
     id="defs2" />
  <sodipodi:namedview
     id="base"
     pagecolor="#000000"
     bordercolor="#666666"
     borderopacity="1.0"
     showgrid="false"
     units="px"     
     showguides="false" />
  <metadata
     id="metadata5">
    <rdf:RDF>
      <cc:Work
         rdf:about="">
        <dc:format>image/svg+xml</dc:format>
        <dc:type
           rdf:resource="http://purl.org/dc/dcmitype/StillImage" />
        <dc:title></dc:title>
      </cc:Work>
    </rdf:RDF>
  </metadata>
  <g
     id="layer1"
     transform="translate(0,-234.8229)">
    <path
       style="fill:none;stroke:#ffffff;stroke-width:0.4;stroke-opacity:1;stroke-miterlimit:4;stroke-dasharray:none"
       d="m 27.937981,287.6447 c -0.05867,-0.0138 -0.155044,-0.067 -0.21414,-0.11794 -0.05908,-0.051 -0.173963,-0.0822 -0.255278,-0.0698 -0.153989,0.024 -0.483814,-0.1317 -1.844947,-0.87032 -2.627376,-1.42578 -5.855367,-3.53735 -6.32788,-4.13933 -0.181655,-0.23147 -0.203752,-0.24002 -0.319787,-0.12399 -0.06856,0.0687 -0.115677,0.16265 -0.104704,0.20912 0.01096,0.0463 -0.0647,0.16914 -0.168182,0.2726 -0.246448,0.24645 -0.557002,1.56327 -0.368673,1.56327 0.03811,0 0.01966,0.0223 -0.04104,0.0491 -0.06072,0.0272 -0.118843,0.14141 -0.129185,0.25422 -0.06198,0.67579 -0.103544,0.72657 -0.613918,0.74968 l -0.308369,0.0138 -0.223655,0.79919 c -0.123008,0.43958 -0.218076,0.88442 -0.211263,0.98867 0.0062,0.10417 -0.0049,0.19373 -0.02786,0.19897 -0.04427,0.0111 -0.136336,0.53047 -0.206762,1.16804 -0.02499,0.22591 -0.07421,0.61968 -0.109454,0.87503 -0.139769,1.01279 0.082,1.4444 0.799812,1.55653 0.218547,0.0341 0.453036,0.1177 0.521079,0.18574 0.20163,0.20159 0.287515,0.75843 0.156218,1.01279 -0.06447,0.12479 -0.81944,0.95772 -1.677775,1.85089 -0.858322,0.89315 -1.651663,1.75908 -1.762953,1.92416 -0.262934,0.39019 -0.47358,0.50996 -0.744844,0.4236 -0.120831,-0.0385 -0.876105,-0.53775 -1.678382,-1.1096 -2.2596507,-1.61062 -3.321576,-2.3156 -4.8500478,-3.21985 -0.775737,-0.45895 -1.5037469,-0.88204 -1.6177975,-0.9403 -1.2985116,-0.66291 -1.9258716,-1.05306 -2.317542,-1.44125 -0.2307281,-0.2287 -0.4863673,-0.5406 -0.5680813,-0.69317 -0.199773,-0.37297 -0.2557602,-0.88048 -0.1326749,-1.20272 0.055561,-0.14543 0.1070074,-0.40115 0.114336,-0.5683 0.00728,-0.16714 0.022729,-0.32705 0.034221,-0.35543 0.011501,-0.0285 0.070748,-0.17871 0.1317011,-0.33418 0.060933,-0.15541 0.119407,-0.29751 0.1299277,-0.31569 0.1573793,-0.27214 1.4547391,-1.61096 6.4427544,-6.64842 3.2537323,-3.28602 5.9215123,-5.99801 5.9284023,-6.02669 0.0063,-0.029 2.073381,-2.12594 4.592206,-4.66063 2.518822,-2.53467 4.617884,-4.68776 4.664563,-4.78466 0.04669,-0.0968 0.07363,-0.26286 0.05992,-0.36896 -0.0293,-0.22637 0.316528,-0.74632 0.497086,-0.74744 0.08102,-0.002 0.05169,-0.0293 -0.101266,-0.0986 -0.67025,-0.30474 -1.679501,-0.37595 -2.573218,-0.18153 -0.302104,0.0657 -0.577881,0.14811 -0.61285,0.1831 -0.03497,0.0348 -0.219151,0.12369 -0.409302,0.19723 -0.333238,0.12885 -0.442783,0.23089 -3.035277,2.8278 -2.521073,2.52537 -2.69768,2.69073 -2.819354,2.63985 -0.07139,-0.03 -0.535901,-0.46036 -1.032249,-0.95671 -0.744785,-0.74477 -0.897648,-0.92501 -0.874963,-1.0316 0.03373,-0.15847 0.296835,-0.32968 0.470491,-0.30612 0.104934,0.014 0.551067,-0.39524 2.45331,-2.25166 1.278782,-1.24796 3.17564,-3.0933 4.21525,-4.10078 l 1.890197,-1.83166 v -0.26707 c 0,-0.21557 0.05054,-0.31755 0.262196,-0.52924 0.223122,-0.22314 0.294888,-0.25541 0.481517,-0.21651 l 0.219326,0.0456 0.935204,-0.95566 c 1.454173,-1.48603 1.674594,-1.76297 1.682049,-2.11328 0.0049,-0.23615 0.05479,-0.34189 0.254796,-0.54197 0.136704,-0.13669 0.315424,-0.26877 0.397156,-0.29353 0.256597,-0.0777 0.625544,0.17056 1.32584,0.89207 l 0.654886,0.67482 0.816756,0.019 c 0.449214,0.011 0.826052,-0.0211 0.837411,-0.0688 0.01137,-0.0482 0.03022,-0.0468 0.04202,0.01 0.02656,0.11246 1.067592,0.0304 1.784244,-0.14103 0.07546,-0.0184 0.391571,-0.11156 0.70249,-0.2079 0.434898,-0.13479 0.582605,-0.21277 0.640275,-0.33819 0.07268,-0.15796 0.06651,-0.16027 -0.20049,-0.0752 -0.6241,0.19863 -1.050945,0.22816 -1.148628,0.0794 -0.113773,-0.17324 0.183374,-0.37262 0.762382,-0.51158 0.281701,-0.0676 0.537437,-0.11249 0.568311,-0.0998 0.03085,0.013 0.0858,-0.0563 0.122074,-0.15322 0.09253,-0.24735 0.468856,-0.37442 0.621904,-0.21007 0.06133,0.0659 0.129326,0.10207 0.151098,0.0804 0.02177,-0.0219 0.103954,-0.0398 0.182648,-0.0398 0.07871,0 0.252894,-0.0348 0.38712,-0.0777 0.33641,-0.10708 0.841054,-0.14357 0.860257,-0.0622 0.0086,0.0371 0.07699,0.0315 0.151716,-0.0126 0.07473,-0.0436 0.197339,-0.0435 0.272469,0.002 0.133982,0.0785 0.163679,0.0528 1.547361,-1.3308 1.210964,-1.21093 1.430506,-1.40768 1.550157,-1.3891 0.123944,0.0195 0.641772,-0.48255 4.672264,-4.52742 5.229741,-5.24847 4.90488,-4.912 4.904875,-5.08045 -5e-6,-0.19326 0.197515,-0.35561 0.419177,-0.34452 0.178772,0.01 0.20121,-0.01 0.266522,-0.21437 0.08567,-0.26925 0.478224,-0.67706 0.794357,-0.82525 0.196234,-0.0919 0.229308,-0.13457 0.229313,-0.29508 0,-0.2024 -0.06626,-0.13783 1.961431,-1.9114 0.615869,-0.53868 0.747993,-0.68153 0.814636,-0.88089 0.116227,-0.3476 0.349506,-0.50054 0.642242,-0.42105 0.42466,0.11534 0.499673,0.20935 0.350198,0.43883 -0.07311,0.1123 -0.140738,0.17106 -0.150273,0.13071 -0.0097,-0.0405 -0.03962,-0.0511 -0.06707,-0.0238 -0.02736,0.0273 -0.02838,0.0976 -0.0049,0.15625 0.04037,0.0908 -0.103969,0.24916 -0.976471,1.07076 -0.691895,0.65145 -1.006344,0.98172 -0.969715,1.01835 0.02975,0.0298 0.09161,0.0453 0.137269,0.0344 0.04566,-0.0114 0.613151,-0.55049 1.261002,-1.19938 l 1.177854,-1.1798 0.160661,0.19529 c 0.242987,0.29549 0.279659,0.7152 0.07988,0.91499 -0.09019,0.0903 -0.23516,0.16752 -0.322162,0.17185 -0.137676,0.01 -0.31839,0.19044 -1.39564,1.41727 -1.164798,1.32661 -1.246522,1.40801 -1.391787,1.38541 -0.18911,-0.0296 -0.241285,0.0199 -0.332903,0.31065 -0.09125,0.29017 -0.424923,0.62495 -0.713247,0.71564 -0.205491,0.0644 -0.227268,0.0915 -0.262196,0.32468 -0.03669,0.24467 -0.04796,0.25734 -0.29963,0.33747 -0.241903,0.0771 -0.588326,0.41304 -4.616115,4.47773 -2.987504,3.01487 -4.354578,4.42942 -4.354578,4.50573 -2e-6,0.17373 0.22746,0.23199 0.365802,0.0934 0.13926,-0.13924 0.248571,-0.0722 0.287149,0.17639 0.02989,0.1925 -0.421582,0.79666 -0.52102,0.69723 -0.07484,-0.0748 -0.323742,0.16834 -0.274049,0.26775 0.02484,0.0497 -0.320672,0.42894 -1.04354,1.14557 l -1.080671,1.07133 0.210132,0.28427 c 0.115578,0.15637 0.26367,0.40926 0.329104,0.56192 0.150197,0.3506 0.322697,0.38417 0.593586,0.11555 0.337546,-0.33479 0.349268,-0.32946 1.196686,0.542 0.419956,0.43181 0.965642,0.93544 1.212646,1.11911 0.24701,0.18368 1.219681,1.06695 2.161489,1.96275 1.619768,1.5407 1.741217,1.64349 2.245335,1.9001 0.765285,0.38964 0.765,0.42496 -0.0102,1.29334 -0.708775,0.79408 -1.607086,1.54133 -1.868662,1.55435 -0.370569,0.0189 -1.842826,-1.39867 -2.843751,-2.73728 -1.067039,-1.42703 -2.10702,-2.37901 -3.251627,-2.97646 -0.499774,-0.26081 -0.577154,-0.43327 -0.413596,-0.92174 0.07491,-0.22377 0.224168,-0.49473 0.331688,-0.60226 0.107521,-0.10754 0.185462,-0.23799 0.173199,-0.28996 -0.03766,-0.15949 -1.036164,0.98918 -1.138016,1.30918 -0.08099,0.25447 -0.09768,0.27071 -0.370435,0.36042 -0.316587,0.10416 -0.825893,0.59813 -1.425576,1.38258 -0.323403,0.42303 -0.837524,1.46518 -0.84481,1.71246 -0.0049,0.0698 -0.03605,0.22796 -0.07555,0.3519 -0.126234,0.39612 -0.129685,1.43952 -0.0085,2.59983 0.06471,0.62012 0.140885,1.15076 0.169254,1.17909 0.02838,0.0284 0.04713,0.14039 0.04175,0.24887 -0.0049,0.10851 0.05698,0.676 0.138605,1.26106 0.08165,0.58504 0.14624,1.08942 0.143546,1.12083 -0.02217,0.25861 0.391234,2.98341 0.454946,2.9984 0.04528,0.0111 0.05444,0.0342 0.02032,0.0528 -0.09153,0.0493 -0.02454,0.65246 0.07506,0.67597 0.04984,0.0123 0.03864,0.041 -0.0269,0.0701 -0.102207,0.0453 -0.07594,0.1384 0.06773,0.23956 0.02778,0.02 0.01549,0.044 -0.02736,0.0538 -0.04282,0.0109 -0.09025,0.23396 -0.105402,0.49754 -0.03826,0.66587 -0.256636,1.24569 -0.667035,1.7713 -0.188846,0.24183 -1.150274,1.27727 -2.136501,2.30099 -1.671847,1.7353 -1.81193,1.86713 -2.070831,1.949 l -0.277689,0.0878 -0.637517,-0.66762 c -1.574235,-1.64872 -2.535039,-3.50965 -2.687847,-5.20632 -0.08101,-0.89955 -0.193315,-1.24711 -0.503005,-1.55679 -0.464965,-0.46495 -1.166563,-0.5628 -1.723061,-0.24028 -0.541392,0.31373 -1.646181,1.81844 -2.640632,3.5964 -0.704499,1.25961 -0.718331,1.31116 -0.486497,1.81452 0.207882,0.45132 0.213868,0.64898 0.02537,0.83751 -0.113664,0.11365 -0.105289,0.1372 0.102725,0.28881 0.124564,0.0907 0.498408,0.36296 0.830765,0.60489 1.003342,0.73032 3.134152,2.07796 4.085214,2.5837 0.492168,0.26175 1.163762,0.61811 1.492427,0.79194 0.352581,0.18645 0.625565,0.28804 0.665829,0.24775 0.09493,-0.0949 0.586107,0.0358 0.750619,0.19991 0.250263,0.24954 0.18251,0.63819 -0.271113,1.55571 -0.01901,0.0386 -0.05252,0.0989 -0.07444,0.13438 -0.02194,0.0354 -0.09102,0.1778 -0.153528,0.31632 -0.240559,0.53317 -1.795148,3.49684 -1.946126,3.71005 -0.10678,0.15078 -0.193947,0.21618 -0.265638,0.19924 z m 7.246857,-14.53407 c 0.298572,-0.53873 0.340269,-1.28675 0.157202,-2.82019 -0.03059,-0.25655 -0.05475,-0.49087 -0.05361,-0.52066 0.004,-0.0301 -0.01834,-0.19834 -0.04331,-0.37437 -0.02495,-0.17603 -0.0525,-0.41473 -0.06122,-0.53051 -0.04419,-0.58631 -0.461352,-3.53086 -0.568814,-4.01492 -0.132909,-0.59869 -0.314861,-0.91985 -0.510855,-0.90163 -0.06697,0.01 -0.277231,-0.0666 -0.467225,-0.16184 -0.198415,-0.0994 -0.501305,-0.17088 -0.711629,-0.16783 l -0.366177,0.01 -0.772166,0.77217 c -0.725983,0.72595 -0.773214,0.78727 -0.789638,1.02455 -0.01315,0.18992 0.04974,0.34499 0.25404,0.62643 0.235652,0.32466 0.324701,0.39831 0.674206,0.55753 0.453153,0.20634 0.560356,0.35322 0.373667,0.5119 -0.06996,0.0593 -0.316856,0.30301 -0.548651,0.5411 -0.419874,0.43143 -0.420979,0.43361 -0.294406,0.59314 0.120337,0.15162 0.111108,0.17934 -0.174697,0.52552 -0.242753,0.29413 -0.296074,0.40865 -0.272725,0.58601 0.03837,0.2915 0.324671,1.1242 1.055701,3.07034 0.66202,1.7625 0.814757,2.00568 1.312116,2.08933 0.434511,0.0729 0.672511,-0.0573 1.214621,-0.66499 0.261199,-0.29279 0.52831,-0.62871 0.593567,-0.74643 z m -4.693569,-13.88358 c 1.673918,-1.71377 2.527331,-2.62411 2.476987,-2.64221 -0.04224,-0.0148 -0.205904,-0.0262 -0.363681,-0.0243 -0.331422,0.01 -0.409185,-0.0526 -0.421749,-0.30442 -0.0101,-0.20207 0.105908,-0.35366 0.270518,-0.35366 0.107604,0 0.245791,-0.21022 0.180858,-0.27514 -0.01887,-0.0193 -0.415696,0.019 -0.881906,0.0839 -0.466214,0.0648 -0.874173,0.11513 -0.90659,0.11142 -0.07986,-0.01 -2.578343,0.31761 -2.83076,0.37014 -0.110617,0.0233 -0.223695,0.0926 -0.251298,0.15459 -0.02883,0.0646 -0.05856,0.0773 -0.06989,0.0292 -0.02334,-0.0989 -2.148907,2.00202 -2.148905,2.12401 2e-6,0.043 -0.01361,0.0959 -0.03027,0.11765 -0.01667,0.0219 -0.05354,0.099 -0.08197,0.17205 -0.02841,0.073 -0.121155,0.18004 -0.206088,0.23763 -0.118853,0.0807 -0.132463,0.12689 -0.05909,0.20025 0.125177,0.12516 0.391361,0.0483 0.391361,-0.11299 0,-0.17521 0.135266,-0.14437 0.151901,0.0345 0.0082,0.09 -0.045,0.19351 -0.129457,0.25083 -0.07901,0.0537 -0.119436,0.12557 -0.08981,0.15975 0.03752,0.0431 0.02823,0.0516 -0.03066,0.0266 -0.05271,-0.0223 -0.149513,0.0497 -0.25722,0.19086 -0.189799,0.24859 -0.297286,0.25814 -0.525618,0.0466 -0.204467,-0.18936 -0.455804,-0.0763 -0.867652,0.39019 -0.294054,0.33308 -0.342845,0.42822 -0.329187,0.6415 0.01605,0.25031 0.0162,0.25047 0.308657,0.34416 0.16094,0.0514 0.800632,0.22002 1.42153,0.37433 0.6209,0.15436 1.250501,0.34698 1.399111,0.42808 0.610457,0.33313 1.03343,0.33402 1.2299,0.009 0.05341,-0.0901 1.246341,-1.34043 2.650928,-2.77843 z"
       id="path4248" />
  </g>
</svg>
