<?xml version="1.0" encoding="UTF-8" standalone="no"?>
<!-- Created with Inkscape (http://www.inkscape.org/) -->

<svg
   xmlns:dc="http://purl.org/dc/elements/1.1/"
   xmlns:cc="http://creativecommons.org/ns#"
   xmlns:rdf="http://www.w3.org/1999/02/22-rdf-syntax-ns#"
   xmlns:svg="http://www.w3.org/2000/svg"
   xmlns="http://www.w3.org/2000/svg"
   xmlns:sodipodi="http://sodipodi.sourceforge.net/DTD/sodipodi-0.dtd"
   width="220"
   height="235"
   viewBox="0 0 58.208332 62.177085"
   version="1.1"
   id="svg8"   
   sodipodi:docname="fal.svg" >
  <defs
     id="defs2" />
  <sodipodi:namedview
     id="base"
     pagecolor="#000000"
     bordercolor="#666666"
     borderopacity="1.0"
     showgrid="false"
     units="px"
     showguides="false" />
  <metadata
     id="metadata5">
    <rdf:RDF>
      <cc:Work
         rdf:about="">
        <dc:format>image/svg+xml</dc:format>
        <dc:type
           rdf:resource="http://purl.org/dc/dcmitype/StillImage" />
        <dc:title></dc:title>
      </cc:Work>
    </rdf:RDF>
  </metadata>
  <g
     id="layer1"
     transform="translate(0,-234.8229)">
    <path
       style="fill:none;stroke:#ffffff;stroke-width:0.40000001;stroke-miterlimit:4;stroke-dasharray:none;stroke-opacity:1"
       d="m 30.032512,277.72279 c -0.01652,-0.0372 -0.04867,-0.035 -0.08925,0.008 -0.03488,0.0348 -0.08599,0.0581 -0.113559,0.0516 -0.02756,-0.01 -0.03886,-0.0232 -0.02505,-0.037 0.01377,-0.0138 -0.755654,-0.7986 -1.709873,-1.74401 -0.954222,-0.9454 -1.746549,-1.74916 -1.760743,-1.78608 -0.01419,-0.0369 -0.04485,-0.0758 -0.06813,-0.0868 -0.02331,-0.0113 -0.252017,-0.2142 -0.508282,-0.452 l -0.465954,-0.43245 -0.134616,0.1162 c -0.133802,0.11546 -0.133987,0.11715 -0.03098,0.27877 0.09646,0.15137 0.09658,0.171 0.0028,0.28302 -0.07018,0.083 -0.132096,0.11721 -0.199549,0.1102 -0.08436,-0.01 -0.0881,-0.0127 -0.02724,-0.0276 0.05355,-0.0132 0.05252,-0.0252 -0.0049,-0.051 -0.04116,-0.0184 -0.08436,-0.0426 -0.09601,-0.0536 -0.01162,-0.0114 -0.01489,0.0151 -0.0068,0.0588 0.01094,0.0618 0.0048,0.0599 -0.03597,-0.0107 -0.02745,-0.049 -0.0786,-0.0952 -0.113662,-0.10318 -0.03507,-0.01 -0.07792,-0.0281 -0.09521,-0.0446 -0.01726,-0.017 -0.0681,-0.005 -0.112932,0.0307 -0.111784,0.0839 -0.224757,0.0218 -0.514418,-0.28418 -0.136201,-0.1438 -0.251051,-0.24694 -0.255236,-0.22923 -0.0049,0.0178 -0.05151,-0.0234 -0.105179,-0.0913 -0.06756,-0.0854 -0.101667,-0.10604 -0.110887,-0.067 -0.0069,0.0311 -0.02812,0.0418 -0.04612,0.0236 -0.01805,-0.0182 -0.01655,-0.049 0.0049,-0.0689 0.01988,-0.0201 0.01996,-0.0362 1.4e-4,-0.0362 -0.08852,10e-6 -0.0803,0.19215 0.01531,0.35755 0.122252,0.21153 0.09116,0.32969 -0.152507,0.57977 l -0.155683,0.15976 0.184603,0.0973 c 0.101526,0.0534 0.21013,0.11364 0.241337,0.13366 0.03119,0.0202 0.12713,0.0774 0.213176,0.12761 0.187663,0.10931 0.458279,0.49721 0.458277,0.65693 0,0.0558 0.01293,0.11441 0.02876,0.13023 0.06733,0.0673 0.0049,0.59275 -0.08734,0.74466 -0.08893,0.14524 -0.464994,0.53276 -0.644496,0.66418 -0.09732,0.0712 -0.259347,0.19446 -0.360081,0.27383 -0.102758,0.081 -0.270128,0.16399 -0.381284,0.1891 -0.108966,0.0245 -0.211669,0.0674 -0.228229,0.0947 -0.01656,0.0275 -0.025,0.0326 -0.01878,0.0121 0.0053,-0.0214 -0.03432,-0.0337 -0.09013,-0.0282 -0.05581,0.009 -0.0708,6.6e-4 -0.03329,-0.0118 0.04099,-0.0131 0.0044,-0.0326 -0.09543,-0.0491 -0.08996,-0.0149 -0.179701,-0.0435 -0.199375,-0.0633 -0.01967,-0.0199 -0.04201,-0.0101 -0.0496,0.0229 -0.0093,0.0395 -0.02427,0.0351 -0.04563,-0.0129 -0.05682,-0.12757 -0.05749,-0.0521 -0.0028,0.2085 0.02998,0.14041 0.0413,0.26846 0.02515,0.28464 -0.01619,0.0162 0.0049,0.05 0.04886,0.0749 0.04303,0.0249 0.05891,0.0506 0.03529,0.0558 -0.05035,0.0122 -0.008,0.33784 0.04764,0.36873 0.02092,0.012 0.01656,0.0257 -0.0097,0.0323 -0.02627,0.009 -0.0297,0.046 -0.0073,0.0886 0.02203,0.0428 0.04418,0.13936 0.04915,0.21508 0.01769,0.26854 0.08825,0.56997 0.13403,0.57236 0.02552,0.002 0.02008,0.0103 -0.01208,0.0184 -0.0626,0.017 -0.02653,0.21436 0.04827,0.26409 0.02404,0.0159 0.0374,0.0556 0.02973,0.0883 -0.0096,0.0407 -0.0194,0.0374 -0.03126,-0.0111 -0.0148,-0.0598 -0.01873,-0.0559 -0.02736,0.0262 -0.0049,0.0559 0.0203,0.11187 0.06242,0.1337 0.03984,0.0208 0.06695,0.0607 0.06025,0.089 -0.0071,0.0318 -0.02659,0.0228 -0.04934,-0.023 -0.0219,-0.0438 -0.03184,-0.005 -0.02424,0.0984 0.0066,0.095 0.02897,0.20568 0.04859,0.24568 0.01962,0.0401 0.02386,0.0844 0.0094,0.099 -0.01441,0.0141 -0.0044,0.13528 0.0257,0.26855 0.106262,0.49594 0.133643,0.65836 0.125787,0.74618 -0.0057,0.0722 -0.0045,0.0768 0.01792,0.0232 0.01429,-0.0368 0.02262,-0.0125 0.0185,0.0541 -0.0143,0.23159 0.05168,0.6457 0.104893,0.65829 0.02941,0.01 0.04003,0.0223 0.02353,0.0336 -0.07345,0.0517 -0.07029,0.083 0.009,0.0904 0.07,0.01 0.08776,-0.01 0.0967,-0.0812 0.0098,-0.0793 0.01229,-0.0785 0.02278,0.01 0.0096,0.0794 -0.0049,0.0989 -0.07336,0.10532 -0.0708,0.01 -0.08135,0.0371 -0.06281,0.18067 0.01227,0.0949 0.05225,0.26367 0.08885,0.37481 l 0.06652,0.20204 -0.214308,0.21937 c -0.117874,0.12066 -0.22967,0.21792 -0.248437,0.2162 -0.07563,-0.01 -0.286931,0.0984 -0.298887,0.14901 -0.0069,0.0311 -0.01827,0.0311 -0.02558,-1.8e-4 -0.01482,-0.0627 -0.170506,0.008 -0.188724,0.0822 -0.006,0.0286 -0.02171,0.0384 -0.03336,0.0221 -0.05178,-0.0734 -0.08307,-0.0703 -0.09053,0.0103 -0.006,0.0717 -0.01306,0.0749 -0.03764,0.02 -0.01952,-0.0438 -0.05968,-0.0512 -0.117798,-0.0211 -0.0485,0.0247 -0.21861,0.0788 -0.378017,0.11914 -0.171957,0.0435 -0.296747,0.0992 -0.306834,0.13683 -0.0093,0.0347 -0.01808,0.0412 -0.01938,0.0136 -0.0048,-0.0663 -0.64777,0.10729 -0.681785,0.18367 -0.01468,0.0328 -0.03194,0.0377 -0.03839,0.0109 -0.0056,-0.0272 -0.05912,-0.0285 -0.117026,-0.004 -0.05792,0.0259 -0.129613,0.0418 -0.15933,0.0343 -0.02971,-0.01 -0.05899,0.01 -0.06504,0.0337 -0.005,0.0255 -0.02813,0.0298 -0.04898,0.01 -0.02088,-0.021 -0.03798,-0.0224 -0.03798,-0.005 -2e-6,0.0194 -0.132176,0.0404 -0.293729,0.0471 -0.386622,0.0158 -0.493989,-0.0842 -0.401127,-0.37414 0.06271,-0.19573 0.0716,-0.39964 0.01741,-0.39964 -0.02495,0 -0.02729,-0.0106 -0.0049,-0.0221 0.06396,-0.0348 0.108002,-0.24 0.05419,-0.25268 -0.02687,-0.01 -0.03536,-0.0212 -0.01887,-0.0327 0.07489,-0.0527 0.07667,-0.0904 0.0049,-0.0782 -0.06648,0.0114 -0.06727,0.01 -0.0049,-0.0249 0.093,-0.0474 0.102713,-0.36021 0.01323,-0.42676 -0.03398,-0.0251 -0.04084,-0.0511 -0.01523,-0.0571 0.02558,-0.009 0.05148,0.0108 0.05756,0.0358 0.01888,0.0798 0.04456,0.0192 0.05967,-0.14141 0.03443,-0.3656 0.02068,-0.66281 -0.03242,-0.70069 -0.03149,-0.0226 -0.03811,-0.06 -0.01476,-0.0834 0.03188,-0.032 0.04423,-0.0236 0.04949,0.033 0.01286,0.13855 0.05173,0.0333 0.05142,-0.13917 -1.54e-4,-0.0935 0.01166,-0.27457 0.02625,-0.40229 0.01495,-0.13074 0.0037,-0.23789 -0.02861,-0.2452 -0.03456,-0.01 -0.03054,-0.0239 0.01084,-0.0426 0.08705,-0.0388 0.08527,-0.49253 -0.003,-0.51314 -0.03922,-0.01 -0.04188,-0.0198 -0.0066,-0.0279 0.07303,-0.0173 0.146466,-0.42702 0.08213,-0.45827 -0.0275,-0.0135 -0.02697,-0.0346 0.0018,-0.0473 0.06237,-0.0282 -0.08032,-0.52976 -0.155726,-0.54758 -0.02937,-0.01 -0.04818,-0.0346 -0.04179,-0.0617 0.01904,-0.0806 -0.299126,-0.32645 -0.523356,-0.40443 -0.222484,-0.0772 -0.469211,-0.0609 -0.567923,0.0378 -0.07638,0.0764 -0.256701,0.0689 -0.339973,-0.0143 -0.0691,-0.0691 -0.112337,-0.0377 -0.878103,0.63972 -0.162723,0.14393 -0.365095,0.31792 -0.4497,0.38667 -0.0846,0.0687 -0.340388,0.29569 -0.5684,0.5044 -0.360667,0.33015 -0.415293,0.39386 -0.420077,0.48987 -0.0042,0.0609 -0.02962,0.11602 -0.05913,0.123 -0.02949,0.01 -0.0402,0.0429 -0.02379,0.0798 0.0387,0.0869 -0.03909,0.16387 -0.126376,0.12497 -0.05315,-0.0234 -0.08744,-6.5e-4 -0.157624,0.10376 -0.04933,0.0736 -0.110824,0.15464 -0.136661,0.17995 -0.151855,0.14851 -0.506358,0.63973 -0.636217,0.88159 -0.08333,0.15517 -0.177542,0.30554 -0.209366,0.33404 -0.03405,0.0308 -0.03528,0.0573 -0.0039,0.0647 0.03421,0.01 0.0315,0.0189 -0.0068,0.0276 -0.08073,0.0194 -0.582957,1.10355 -0.518142,1.11888 0.02987,0.01 0.01317,0.0303 -0.04299,0.0591 -0.06832,0.0353 -0.07563,0.0516 -0.0286,0.0625 0.03916,0.01 0.04295,0.0198 0.0099,0.0275 -0.0777,0.0185 -0.402168,0.79668 -0.338398,0.81175 0.03277,0.01 0.02507,0.0245 -0.02063,0.0448 -0.04024,0.0182 -0.10619,0.11685 -0.146572,0.21982 -0.144936,0.36965 -0.254802,0.62927 -0.330771,0.78175 -0.04249,0.0852 -0.0653,0.16697 -0.0507,0.18163 0.01462,0.0142 0.0046,0.032 -0.02354,0.0385 -0.02757,0.01 -0.03387,0.028 -0.014,0.0481 0.01987,0.02 0.0083,0.0484 -0.0254,0.0635 -0.03384,0.0147 -0.05623,0.0416 -0.04979,0.0587 0.006,0.0174 -0.04591,0.15477 -0.116372,0.30579 -0.07046,0.15103 -0.156676,0.33687 -0.191585,0.41299 -0.03491,0.0762 -0.04124,0.13953 -0.01407,0.14086 0.02717,0.002 0.02154,0.0105 -0.01251,0.0192 -0.03407,0.01 -0.07912,0.0895 -0.100155,0.17864 -0.02104,0.0892 -0.04767,0.17346 -0.05921,0.18751 -0.01154,0.0137 -0.02343,0.0303 -0.02641,0.0356 -0.0033,0.008 -0.03157,0.0481 -0.06354,0.0945 -0.03196,0.0465 -0.07774,0.14624 -0.101737,0.22165 -0.024,0.0754 -0.176405,0.44948 -0.338682,0.83128 -0.162279,0.38175 -0.306746,0.73298 -0.321043,0.78042 -0.0143,0.0476 -0.08184,0.21169 -0.150071,0.36494 -0.06824,0.15323 -0.16189,0.3802 -0.208102,0.50435 -0.04621,0.12414 -0.09036,0.23337 -0.0981,0.24265 -0.06801,0.0817 -0.179732,0.36674 -0.146785,0.37453 0.02314,0.008 0.01215,0.0235 -0.02445,0.0396 -0.03669,0.0164 -0.05033,0.0457 -0.0304,0.0658 0.01987,0.02 0.01512,0.0412 -0.01054,0.0473 -0.02566,0.009 -0.04124,0.0339 -0.03463,0.0618 0.0066,0.0282 -0.0129,0.0759 -0.04337,0.10632 -0.07603,0.076 -0.09192,0.31774 -0.01866,0.28401 0.03012,-0.0136 -0.02219,0.0727 -0.116239,0.19237 -0.184307,0.23451 -0.199297,0.31424 -0.05908,0.31424 0.07637,0 0.09477,-0.018 0.128823,-0.12541 0.02185,-0.0691 0.01817,-0.12643 -0.0082,-0.12776 -0.02635,-0.002 -0.02331,-0.01 0.0067,-0.0174 0.03009,-0.01 0.105621,-0.13556 0.167871,-0.28304 0.08729,-0.2068 0.134485,-0.27458 0.206282,-0.2963 0.111498,-0.0337 0.265033,0.11333 0.164862,0.15791 -0.04014,0.0182 -0.04147,0.0328 -0.0039,0.0418 0.03554,0.01 0.0389,0.0333 0.0085,0.0639 -0.02757,0.0276 -0.02701,0.0555 0.0013,0.0623 0.02825,0.01 0.03531,0.0206 0.01571,0.031 -0.05661,0.0297 -0.210749,0.48635 -0.167569,0.49654 0.02141,0.008 0.03272,0.0354 0.02508,0.0678 -0.0086,0.0366 -0.01899,0.0371 -0.02752,6.5e-4 -0.02648,-0.11217 -0.07456,0.008 -0.05821,0.14189 0.0091,0.0762 -0.0097,0.20293 -0.04169,0.28147 -0.05359,0.13138 -0.05083,0.1408 0.03445,0.11821 0.05099,-0.0134 0.07899,-0.011 0.0622,0.01 -0.01681,0.0175 -0.06305,0.0388 -0.102819,0.0476 -0.04532,0.011 -0.09851,0.0727 -0.142526,0.16727 -0.146371,0.31474 -0.346686,0.64317 -0.409248,0.67106 -0.110109,0.0493 -0.1831669,-0.0946 -0.1330608,-0.26174 0.025867,-0.0861 0.035444,-0.16842 0.021277,-0.18256 -0.014171,-0.0139 -0.00323,-0.0313 0.024363,-0.0379 0.02756,-0.01 0.03535,-0.0264 0.01732,-0.0444 -0.01804,-0.0185 -0.050441,-0.0154 -0.071998,0.008 -0.028845,0.0282 -0.035122,0.0202 -0.023803,-0.0308 0.010909,-0.0488 -0.00112,-0.0645 -0.040897,-0.0553 -0.030959,0.01 -0.061262,-0.01 -0.067339,-0.0333 -0.00609,-0.0255 -0.036364,-0.0127 -0.067301,0.0301 -0.062588,0.085 -0.049431,0.20857 0.024085,0.22591 0.026247,0.009 0.02658,0.0162 7.325e-4,0.0225 -0.1127167,0.0266 -0.4273722,0.60783 -0.3401987,0.62839 0.026996,0.01 0.017999,0.0246 -0.020553,0.042 -0.037701,0.0171 -0.060217,0.0476 -0.050028,0.0685 0.010191,0.0212 -0.028659,0.10234 -0.086324,0.181 -0.057669,0.0786 -0.1053263,0.16893 -0.1059057,0.20075 -5.629e-4,0.0321 -0.032292,0.089 -0.070473,0.12719 -0.03818,0.0382 -0.06409,0.092 -0.057586,0.11955 0.0065,0.0276 -0.020486,0.0826 -0.059986,0.12196 -0.039502,0.0395 -0.0681,0.11185 -0.063549,0.16078 0.00475,0.0511 -0.02501,0.10846 -0.069677,0.13459 -0.044325,0.0258 -0.072621,0.0799 -0.065609,0.12505 0.00995,0.0639 -0.036761,0.12031 -0.2411297,0.29018 -0.3448134,0.28659 -0.5153958,0.29038 -0.9440662,0.021 -0.16666,-0.10477 -0.3181559,-0.21311 -0.3366552,-0.24071 -0.018504,-0.0277 -0.066391,-0.0633 -0.1064186,-0.0794 -0.040031,-0.016 -0.14023,-0.0872 -0.222671,-0.15816 -0.2238082,-0.19249 -0.2094962,-0.18146 -0.8229965,-0.63291 -0.3140757,-0.23107 -0.7587896,-0.56697 -0.988254,-0.74639 -0.3650643,-0.28547 -1.6168919,-1.19332 -1.777555,-1.28913 -0.032017,-0.0192 -0.1339727,-0.0909 -0.2265719,-0.15943 -0.1013356,-0.075 -0.1732014,-0.10424 -0.1805253,-0.0732 -0.0071,0.0304 -0.017969,0.0267 -0.026078,-0.01 -0.00764,-0.0323 -0.1770121,-0.17345 -0.3763434,-0.31339 -0.3357432,-0.23572 -0.3718981,-0.27124 -0.4910152,-0.48223 -0.099957,-0.17706 -0.1472026,-0.23011 -0.2122052,-0.23825 -0.073041,-0.01 -0.071382,-0.0124 0.013114,-0.0224 0.077211,-0.01 0.098304,-0.0288 0.1045718,-0.096 0.00418,-0.0465 -0.00634,-0.088 -0.02378,-0.0922 -0.01739,-0.007 0.035768,-0.0823 0.1181276,-0.17335 0.08236,-0.0911 0.146099,-0.1847 0.1416335,-0.2081 -0.015397,-0.0807 0.065321,-0.20187 0.1391124,-0.20871 0.051035,-0.007 0.098788,-0.0508 0.1539869,-0.14793 0.058668,-0.10343 0.089938,-0.13168 0.1172161,-0.10584 0.020508,0.0196 0.030615,-0.0124 0.022563,-0.0705 -0.00882,-0.0635 0.00154,-0.0895 0.025758,-0.065 0.030118,0.0303 0.069504,0.002 0.1546291,-0.11411 0.066546,-0.0899 0.1667375,-0.17729 0.2400474,-0.20912 0.071774,-0.0312 0.4774276,-0.38164 0.9442684,-0.81593 0.4501415,-0.41874 0.859402,-0.79939 0.9094671,-0.84585 0.062721,-0.0583 0.086321,-0.0635 0.075905,-0.0171 -0.014703,0.0656 0.047488,0.0319 0.1564955,-0.0854 0.020294,-0.022 0.041165,-0.0223 0.046261,-6.8e-4 0.00768,0.0325 0.080784,0.0205 0.1856822,-0.0314 0.011425,-0.009 0.080494,-0.0339 0.1535002,-0.0633 0.094123,-0.0376 0.3457181,-0.26373 0.8647455,-0.777 0.7697024,-0.76117 3.0278957,-3.10536 3.0397296,-3.1555 0.0038,-0.0161 0.1591824,-0.18818 0.3452977,-0.38245 0.1861114,-0.19424 0.3253019,-0.35628 0.3093029,-0.36007 -0.01599,-0.006 0.06746,-0.10979 0.185453,-0.23556 0.118,-0.12577 0.324581,-0.38345 0.459071,-0.57263 0.134491,-0.18923 0.302562,-0.4115 0.373492,-0.49386 0.07093,-0.0824 0.197331,-0.26271 0.280887,-0.4006 0.08355,-0.13793 0.180899,-0.2915 0.21632,-0.34128 0.09013,-0.12665 0.320789,-0.50846 0.478282,-0.79174 0.07305,-0.13139 0.164163,-0.2842 0.202478,-0.33962 0.03831,-0.0552 0.05635,-0.11398 0.04011,-0.13027 -0.01625,-0.0162 0.0052,-0.0477 0.04863,-0.0703 0.04299,-0.0225 0.07266,-0.0639 0.06586,-0.0926 -0.0064,-0.0289 0.01556,-0.0802 0.04964,-0.11414 0.03895,-0.039 0.04045,-0.0671 0.0047,-0.0756 -0.03376,-0.01 -0.03599,-0.0188 -0.0049,-0.0259 0.0289,-0.01 0.08138,-0.0826 0.116573,-0.16835 0.04889,-0.11907 0.04622,-0.16798 -0.0112,-0.20687 -0.04195,-0.0285 -0.05386,-0.0561 -0.02691,-0.0623 0.02657,-0.01 0.05328,0.0103 0.05933,0.0352 0.04435,0.18791 0.147427,-0.34087 0.147427,-0.75632 0,-0.17855 0.02144,-0.34805 0.04764,-0.37661 0.1001,-0.10906 0.201636,-0.25371 0.201636,-0.28728 0,-0.0193 -0.06315,0.0439 -0.140299,0.14049 -0.134349,0.16799 -0.142442,0.17175 -0.19083,0.0891 -0.0339,-0.0579 -0.08313,-0.0813 -0.149572,-0.0708 -0.05447,0.01 -0.08476,0.002 -0.06732,-0.0164 0.01743,-0.0176 -0.0028,-0.0602 -0.04416,-0.0952 -0.04174,-0.0349 -0.07898,-0.10738 -0.08277,-0.16112 -0.0043,-0.0535 -0.03433,-0.1041 -0.06789,-0.11204 -0.04016,-0.0102 -0.04006,-0.0195 2.64e-4,-0.0292 0.03371,-0.01 0.07497,0.0162 0.09169,0.0538 0.02444,0.0547 0.03158,0.0445 0.0364,-0.0523 0.0062,-0.13164 -0.0406,-0.21418 -0.06545,-0.11457 -0.0121,0.0486 -0.01735,0.044 -0.0242,-0.0207 -0.0049,-0.0478 0.05016,-0.14671 0.130962,-0.23484 0.08376,-0.0915 0.142824,-0.19936 0.14751,-0.26958 0.005,-0.082 0.0136,-0.0949 0.02703,-0.0436 0.01606,0.0617 0.02352,0.0528 0.04532,-0.0526 0.02741,-0.13247 -0.0781,-0.34617 -0.108219,-0.21924 -0.0112,0.0473 -0.02398,0.0304 -0.04343,-0.058 -0.01518,-0.0687 -0.07202,-0.16414 -0.126311,-0.21203 -0.175623,-0.15502 -0.125941,-0.33732 0.07544,-0.27683 0.05991,0.018 0.204286,0.13322 0.327343,0.26123 0.121082,0.12593 0.231706,0.21745 0.245829,0.20334 0.01413,-0.0141 0.05557,0.0187 0.09209,0.0722 0.06583,0.0969 0.06743,0.0964 0.179221,-0.0617 0.06203,-0.0878 0.165048,-0.21884 0.228905,-0.29125 0.06383,-0.0725 0.11291,-0.13492 0.109004,-0.13881 -0.0048,-0.006 0.05764,-0.0748 0.136779,-0.15751 0.07913,-0.0827 0.133007,-0.16126 0.119732,-0.17455 -0.01329,-0.0133 0.0035,-0.0362 0.03581,-0.0511 0.03298,-0.0144 0.05426,-0.0509 0.04729,-0.0805 -0.01275,-0.0541 0.150646,-0.17889 0.240212,-0.18354 0.02591,-0.002 0.123936,0.0715 0.217813,0.1614 0.196153,0.1883 0.276174,0.22639 0.223799,0.1066 -0.03179,-0.0727 -0.02922,-0.0767 0.01995,-0.0314 0.05337,0.0493 0.251572,-0.14319 3.70389,-3.59544 2.00613,-2.00588 4.290678,-4.27252 5.076777,-5.0368 l 1.429272,-1.38957 -0.03995,-0.10189 c -0.037,-0.0943 -0.02167,-0.11979 0.210343,-0.34725 0.13765,-0.13492 0.26669,-0.29336 0.286747,-0.35206 0.02788,-0.0816 0.06072,-0.11239 0.139283,-0.13052 0.08454,-0.0198 0.09111,-0.0267 0.03714,-0.0401 -0.05169,-0.013 -0.04847,-0.0185 0.0151,-0.0247 0.05281,-0.008 0.280188,-0.20079 0.656483,-0.56353 0.504884,-0.4867 0.569756,-0.5609 0.52738,-0.60321 -0.02659,-0.0265 -0.05358,-0.0883 -0.05999,-0.13741 -0.01069,-0.0816 0.460908,-0.56311 5.611495,-5.72948 5.943846,-5.96209 5.704987,-5.73325 5.788618,-5.54546 0.02196,0.0496 0.03373,0.0434 0.05599,-0.0271 0.03217,-0.10229 0.624011,-0.77747 0.718348,-0.81946 0.036,-0.016 0.07499,0.002 0.09246,0.0402 0.01997,0.0448 0.03487,0.048 0.04402,0.01 0.0073,-0.0323 -0.0063,-0.0794 -0.03213,-0.10465 -0.02529,-0.0251 -0.0263,-0.0612 -0.0034,-0.0797 0.193758,-0.14926 0.190964,-0.1653 -0.07507,-0.43133 -0.237013,-0.23699 -0.250546,-0.26049 -0.244945,-0.42499 0.0049,-0.16426 0.118226,-0.43341 0.226841,-0.54202 0.02701,-0.0269 0.136026,-0.10532 0.242286,-0.17407 0.170755,-0.11044 0.220218,-0.11889 0.425769,-0.0728 0.20237,0.0452 0.262059,0.0816 0.459598,0.27908 0.21904,0.21906 0.231192,0.22518 0.345098,0.17474 0.06496,-0.0289 0.198943,-0.14376 0.297787,-0.25551 0.09884,-0.11178 0.183931,-0.18535 0.189098,-0.16349 0.0049,0.0221 0.02408,0.025 0.04218,0.01 0.01805,-0.0183 0.01717,-0.0485 -0.0029,-0.0676 -0.02558,-0.0253 -0.01466,-0.0366 0.04133,-0.0419 0.04182,-0.006 0.07606,-0.0214 0.07606,-0.0387 0,-0.0175 0.03589,0.0106 0.07972,0.0602 0.04382,0.0505 0.11586,0.13227 0.160044,0.18179 0.047,0.0527 0.06244,0.10796 0.0372,0.13316 -0.05015,0.0502 -0.02402,0.11656 0.08753,0.22223 0.05846,0.0553 0.09181,0.0582 0.125917,0.0106 0.04069,-0.0575 0.06691,-0.043 0.213204,0.11558 l 0.16682,0.18089 -0.276144,0.26428 c -0.240084,0.22974 -0.276761,0.28152 -0.280835,0.3966 -0.0049,0.11051 0.01466,0.14189 0.112429,0.19022 0.08793,0.0434 0.136459,0.0382 0.194749,-0.0219 0.04276,-0.0436 0.08648,-0.0598 0.09732,-0.0353 0.02187,0.0491 0.236611,-0.16625 0.413477,-0.41465 0.06544,-0.0919 0.137785,-0.15623 0.180344,-0.16037 0.03909,-0.006 0.108687,-0.053 0.154664,-0.10927 0.367088,-0.44903 0.444425,-0.55578 0.450576,-0.622 0.0075,-0.0838 0.289912,-0.39909 0.371314,-0.41468 0.02859,-0.008 0.103168,-0.0447 0.165714,-0.0877 l 0.11372,-0.0777 -0.179843,-0.19328 c -0.332127,-0.357 -0.354421,-0.56093 -0.09054,-0.82818 0.163038,-0.16514 0.412058,-0.28181 0.472445,-0.22142 0.0176,0.0179 0.03677,0.0122 0.04261,-0.0129 0.005,-0.0245 0.04041,-0.0318 0.07687,-0.0151 0.03645,0.0162 0.04927,0.0333 0.0285,0.0385 -0.02935,0.01 0.432437,0.46044 0.46897,0.46058 0.0049,0 1.174986,-1.15468 2.600376,-2.5659 1.809084,-1.79114 2.580619,-2.57472 2.555221,-2.59499 -0.159825,-0.12778 -0.237479,-0.41185 -0.120137,-0.43957 0.02657,-0.009 0.03306,-0.0266 0.01441,-0.0451 -0.02391,-0.0238 -0.0062,-0.0421 0.05809,-0.0616 0.120042,-0.0363 0.144505,-0.0633 0.07283,-0.0802 -0.03616,-0.01 -0.03584,-0.0191 0.0012,-0.0275 0.03229,-0.01 0.06303,0.007 0.06837,0.027 0.005,0.0228 0.04764,0.0375 0.09408,0.0333 0.04644,-0.006 0.109634,0.0177 0.140474,0.0482 0.03084,0.031 0.08784,0.0391 0.126623,0.0184 0.03883,-0.0209 1.437686,-1.38892 3.108621,-3.04018 2.07905,-2.05459 3.08504,-3.02768 3.186883,-3.08263 0.118267,-0.0641 0.183586,-0.0652 0.318118,-0.01 0.123959,0.0532 0.176744,0.0971 0.197128,0.16445 0.01534,0.0506 0.0693,0.1168 0.120004,0.14712 0.05068,0.0306 0.120525,0.12425 0.155186,0.20867 0.04877,0.11879 0.0443,0.18189 -0.01966,0.27909 -0.0455,0.0692 -1.308573,1.3494 -2.806859,2.84513 -2.444761,2.44054 -2.722818,2.72816 -2.711056,2.80393 0.01097,0.0707 -0.06765,0.1654 -0.481263,0.58013 -0.271912,0.27262 -0.513172,0.51267 -0.536217,0.53346 -0.03257,0.0296 -0.04864,0.0151 -0.07248,-0.0634 -0.03849,-0.12711 -0.141976,-0.11723 -0.229978,0.0223 -0.03298,0.0521 -0.07384,0.10893 -0.09078,0.12606 -0.01695,0.0173 -1.14791,1.13116 -2.513252,2.47569 l -2.482437,2.44456 0.237414,0.24255 c 0.226301,0.23117 0.236928,0.25125 0.22701,0.42758 -0.0087,0.15609 -0.03742,0.21206 -0.183252,0.35788 -0.242401,0.24238 -0.462376,0.28844 -0.666074,0.13946 -0.01966,-0.0141 -0.101982,-0.0892 -0.182889,-0.1661 -0.122453,-0.11653 -0.161243,-0.13169 -0.231567,-0.0904 -0.04647,0.0271 -0.09738,0.0921 -0.113121,0.14406 -0.03502,0.1156 -0.341219,0.44483 -0.378762,0.40724 -0.01485,-0.0145 -0.03055,0.0117 -0.0349,0.0582 -0.0053,0.0667 -0.01608,0.0768 -0.046,0.047 -0.02329,-0.0233 -0.05085,-0.0102 -0.0709,0.0356 -0.01806,0.0408 -0.03284,0.0532 -0.03282,0.0282 -5e-6,-0.0781 -0.268053,0.0593 -0.427997,0.21926 -0.08561,0.0855 -0.163505,0.20563 -0.177728,0.27392 -0.02288,0.10988 -0.04097,0.12799 -0.188552,0.18855 -0.221925,0.0912 -0.378669,0.25782 -0.458893,0.48805 -0.06015,0.17258 -0.05554,0.20465 0.04471,0.31151 0.06148,0.0654 0.120786,0.12635 0.131778,0.13522 0.01101,0.01 0.0049,0.0336 -0.01516,0.0549 -0.437819,0.48309 -1.156549,1.24097 -1.537364,1.62117 -0.269228,0.26879 -0.470028,0.49327 -0.44625,0.49887 0.02378,0.008 0.03176,0.0333 0.01769,0.0619 -0.01408,0.0284 -0.913384,0.94595 -1.998503,2.03918 -1.085123,1.09318 -1.976994,2.00472 -1.981934,2.02567 -0.0049,0.0212 -0.237333,0.26445 -0.516439,0.54115 -1.12494,1.11527 -3.017759,3.04073 -5.4346,5.52825 -1.09066,1.12258 -1.252352,1.27715 -1.335922,1.27715 -0.05864,-1e-5 -0.151171,0.056 -0.241501,0.14639 -0.10571,0.10576 -0.193276,0.15293 -0.314925,0.16968 -0.16094,0.0225 -0.189876,0.0447 -0.645056,0.50694 -0.32346,0.32825 -0.486457,0.519 -0.507369,0.59353 -0.01694,0.0604 -0.05292,0.11507 -0.07989,0.12149 -0.027,0.01 -0.03433,0.0262 -0.01628,0.0444 0.01805,0.0183 0.05857,0.0105 0.09008,-0.0184 0.03652,-0.0327 0.03722,-0.0147 0.0029,0.0485 -0.03827,0.0689 -0.0337,0.11968 0.01486,0.16483 0.03862,0.0359 0.05977,0.0758 0.04699,0.0886 -0.01278,0.013 0.01085,0.0764 0.05251,0.14161 0.04466,0.0696 0.05199,0.11276 0.01787,0.10471 -0.04071,-0.0103 -0.06067,0.0255 -0.06732,0.11952 l -0.0095,0.13315 2.59548,2.553 c 1.427513,1.40412 2.626065,2.56662 2.663446,2.58325 0.04232,0.019 0.04761,0.0351 0.01401,0.0431 -0.03346,0.01 -0.02709,0.0286 0.01672,0.0541 0.103544,0.0606 0.111904,0.28823 0.01475,0.40133 -0.139461,0.16235 -0.302826,0.46715 -0.256266,0.47815 0.02407,0.009 0.01594,0.0228 -0.01811,0.038 -0.03403,0.0149 -0.121513,0.11726 -0.194461,0.22694 -0.07291,0.10964 -0.180934,0.26261 -0.239991,0.33979 -0.173075,0.22641 -1.312116,1.89001 -1.485534,2.16974 -0.02608,0.0422 -0.132647,0.1786 -0.236813,0.30343 -0.104164,0.12487 -0.173303,0.23077 -0.153649,0.23544 0.01965,0.007 -0.0022,0.0337 -0.047,0.0645 -0.04555,0.031 -0.120578,0.13375 -0.166793,0.22856 -0.06946,0.14247 -0.08852,0.16231 -0.10986,0.11442 z m -6.004242,-1.75442 c 0.08011,-0.0928 0.0984,-0.4784 0.03262,-0.68757 -0.04847,-0.15412 -0.404559,-0.59792 -0.421918,-0.52582 -0.005,0.0246 -0.06414,-0.004 -0.129313,-0.0615 -0.06517,-0.0586 -0.138229,-0.0966 -0.162336,-0.0844 -0.02411,0.0124 -0.04847,0.004 -0.05413,-0.022 -0.0049,-0.024 -0.07464,-0.0712 -0.153296,-0.10473 -0.07865,-0.0335 -0.170374,-0.0926 -0.203832,-0.13102 -0.05654,-0.065 -0.0816,-0.0518 -0.353529,0.1871 -0.338755,0.29753 -0.441155,0.4945 -0.435289,0.83715 0.0053,0.36398 0.16842,0.63325 0.491478,0.81587 0.150978,0.0853 0.505237,0.17475 0.505239,0.12747 0,-0.0139 0.02686,0.002 0.05972,0.0343 0.09939,0.0994 0.02308,0.16677 -0.170604,0.15063 -0.100665,-0.01 -0.190906,-6.4e-4 -0.200534,0.0171 -0.0096,0.018 -0.0317,3.2e-4 -0.04903,-0.0387 -0.02286,-0.0513 -0.03587,-0.0526 -0.04719,-0.007 -0.0099,0.0419 -0.02026,0.0469 -0.02809,0.0138 -0.0062,-0.0291 -0.07868,-0.0798 -0.159679,-0.11319 -0.08099,-0.0334 -0.222398,-0.11629 -0.314214,-0.18428 -0.0918,-0.0679 -0.215482,-0.12113 -0.274814,-0.1182 -0.05932,0.005 -0.119082,-0.0203 -0.132784,-0.0507 -0.03502,-0.0787 -0.116902,-0.0494 -0.186445,0.0667 -0.04591,0.0767 -0.03951,0.11824 0.02868,0.18642 0.04825,0.0485 0.08296,0.10809 0.07709,0.13294 -0.005,0.0247 0.0622,0.13719 0.15129,0.24967 0.125317,0.15824 0.199025,0.21771 0.32579,0.26287 0.09008,0.0322 0.175243,0.0469 0.189188,0.033 0.01395,-0.0137 0.06007,-0.01 0.102527,0.0144 0.106304,0.0551 0.500195,-0.11039 0.720823,-0.30286 0.100291,-0.0874 0.236691,-0.18837 0.303112,-0.22414 0.101803,-0.0548 0.249983,-0.1992 0.489509,-0.4768 z m 21.259132,-26.69686 c 0.0049,-0.081 -0.03961,-0.15294 -0.17557,-0.28888 l -0.180954,-0.18096 -0.213535,0.22015 -0.213537,0.22012 0.172274,0.17228 c 0.116828,0.1168 0.207,0.17402 0.280187,0.17763 0.136429,0.01 0.323862,-0.17452 0.331139,-0.32034 z m -1.327697,-1.38861 c -0.108107,-0.0963 -0.2368,-0.17756 -0.285983,-0.18041 -0.122724,-0.01 -0.26014,0.11875 -0.300629,0.27558 -0.03177,0.12305 -0.02169,0.14126 0.177454,0.32068 l 0.211132,0.19027 0.197294,-0.2155 0.197289,-0.21547 z"
       id="path7990"       
       sodipodi:nodetypes="csccscccccccccccccsccccccssccccccccscccscscccsccsscccccccccccccccccscccccccccccccccccccccccccccsccsccccccccccccccscccccccscccssscccccccccccccccccccccscsccccccccccscscccccsccsccscccccccsccccccccccccsscsccccccccccccscscccscccccscccccccccccsccccsccccccccccccccccccccsccsccccccscscccsccccccccccccccccsscccscsccsccsscccccccccccccccccscscsccscccssccccsccccccccccccccccccscccccccscccccscsscccccsccccccscccsccccccsccscsccccccccccccsccccscccsccccccccccccccccccccccccccccssccsccccccccccscscsscscccscccsccccccccccc" />
  </g>
</svg>
