<?xml version="1.0" encoding="UTF-8" standalone="no"?>
<!-- Created with Inkscape (http://www.inkscape.org/) -->

<svg
   xmlns:dc="http://purl.org/dc/elements/1.1/"
   xmlns:cc="http://creativecommons.org/ns#"
   xmlns:rdf="http://www.w3.org/1999/02/22-rdf-syntax-ns#"
   xmlns:svg="http://www.w3.org/2000/svg"
   xmlns="http://www.w3.org/2000/svg"
   xmlns:sodipodi="http://sodipodi.sourceforge.net/DTD/sodipodi-0.dtd"
   width="220"
   height="235"
   viewBox="0 0 58.208332 62.177085"
   version="1.1"
   id="svg8"   
   sodipodi:docname="famas.svg" >
  <defs
     id="defs2" />
  <sodipodi:namedview
     id="base"
     pagecolor="#000000"
     bordercolor="#666666"
     borderopacity="1.0"
     showgrid="false"
     units="px"
     showguides="false" />
  <metadata
     id="metadata5">
    <rdf:RDF>
      <cc:Work
         rdf:about="">
        <dc:format>image/svg+xml</dc:format>
        <dc:type
           rdf:resource="http://purl.org/dc/dcmitype/StillImage" />
        <dc:title></dc:title>
      </cc:Work>
    </rdf:RDF>
  </metadata>
  <g
     id="layer1"
     transform="translate(0,-234.8229)">
    <path
       style="fill:none;stroke:#ffffff;stroke-width:0.40000001;stroke-miterlimit:4;stroke-dasharray:none;stroke-opacity:1"
       d="m 27.253407,290.28747 c -0.06385,0.0343 -0.12011,0.0798 -0.125101,0.10103 -0.0049,0.0216 -0.03508,0.0155 -0.06689,-0.0129 -0.144709,-0.12708 -6.782087,-6.78598 -7.412799,-7.43684 -0.389879,-0.40234 -0.649405,-0.65997 -0.576732,-0.57246 0.09104,0.10951 0.118363,0.17271 0.08786,0.20325 -0.04606,0.046 -0.106357,0.006 -0.355922,-0.26611 -0.140673,-0.15053 -0.267684,-0.17747 -0.239227,-0.0507 0.0084,0.038 0.0026,0.055 -0.01644,0.038 -0.02086,-0.0204 -0.107547,0.0587 -0.249415,0.22659 -0.119616,0.14162 -0.235593,0.26225 -0.257741,0.2681 -0.05302,0.0137 -0.243596,0.3537 -0.203851,0.36353 0.01689,0.01 -0.02925,0.0735 -0.102589,0.15408 -0.07331,0.0805 -0.129911,0.1659 -0.125761,0.18961 -0.671816,1.39574 -1.781592,3.14057 -2.623881,4.64202 -0.106684,0.20105 -0.192015,0.34879 -0.695677,1.20439 -0.149902,0.25463 -0.349579,0.60663 -0.443732,0.78218 -0.09415,0.17555 -0.334323,0.59732 -0.533714,0.93728 -0.38237,0.72099 -0.572279,1.02216 -0.959881,1.6345 -0.05761,0.0879 -0.109738,0.18099 -0.115839,0.20682 -0.01398,0.0592 0.101096,0.43166 0.140327,0.45418 0.01606,0.01 0.01663,0.0248 0.0024,0.0346 -0.01537,0.0105 -0.05193,0.0753 -0.08124,0.1457 -0.03608,0.0865 -0.243238,0.31553 -0.640408,0.7081 -0.322905,0.31912 -0.598759,0.59623 -0.613007,0.6157 -0.01426,0.0196 -0.117231,0.12331 -0.228808,0.23086 -0.535334,0.51558 -0.753211,0.70204 -0.8753012,0.74898 -0.073044,0.0282 -0.1409234,0.0636 -0.1508446,0.079 -0.00991,0.0152 -0.032641,0.0134 -0.050485,-0.01 -0.017844,-0.018 -0.039782,-0.01 -0.048719,0.028 -0.00893,0.0332 -0.017329,0.0394 -0.01862,0.0138 -0.00224,-0.0256 -0.071608,-0.0543 -0.1562308,-0.0643 -0.2873676,-0.0329 -0.4428609,-0.0675 -0.4953212,-0.11009 -0.3673516,-0.41291 -0.9879297,-0.468 -1.2810619,-0.73481 -0.1925982,-0.19419 -0.5199718,-0.46521 -0.7597533,-0.62874 -0.060122,-0.0412 -0.1932974,-0.16275 -0.2959335,-0.2705 -0.1026359,-0.10779 -0.2107896,-0.20164 -0.240328,-0.20861 -0.029538,-0.01 -0.1309918,-0.0781 -0.2254355,-0.15818 -0.4207008,-0.35653 -0.869161,-0.72159 -0.9857736,-0.80251 -0.059724,-0.0416 -0.1507757,-0.11586 -0.2023643,-0.16534 -0.117002,-0.11242 -0.9269843,-0.7786 -1.3621469,-1.12028 -0.1793918,-0.14089 -0.4239457,-0.33765 -0.5434515,-0.43725 -0.3676202,-0.30619 -0.9033982,-0.98535 -1.3341344,-1.69092 -0.1551561,-0.25419 -0.3666211,-0.59325 -0.469923,-0.75351 -0.1141115,-0.177 -0.1862262,-0.33683 -0.1837448,-0.40705 0.00318,-0.0635 -0.017764,-0.13131 -0.044567,-0.15044 -0.026777,-0.0194 -0.061705,-0.063 -0.077766,-0.0976 -0.0159556,-0.0343 -0.0928935,-0.15954 -0.17087889,-0.27788 -0.32775079,-0.497 -0.38479981,-0.97838 -0.14857926,-1.25355 0.0489438,-0.0569 0.0845586,-0.12244 0.0791395,-0.14541 1.11053655,-0.86838 0.55851295,-0.41395 1.62803505,-1.48951 0.8060979,-0.81091 1.530539,-1.54743 1.6098555,-1.63665 0.079333,-0.0893 0.599702,-0.62257 1.1563819,-1.18517 1.0862228,-1.09785 1.1378891,-1.13815 1.4000321,-1.09199 0.067025,0.0123 0.1158318,-0.01 0.1246234,-0.0419 0.00873,-0.037 0.019264,-0.0408 0.026644,-0.0101 0.00672,0.0286 0.2319571,0.0541 0.500561,0.0573 0.2685993,0.01 0.4883622,0.0212 0.4883622,0.0398 0,0.019 0.013956,0.0204 0.030984,0.01 0.033888,-0.034 0.2433996,-0.048 0.4467638,-0.0305 0.1276948,0.0116 0.1283013,0.0123 0.04982,0.051 -0.054556,0.0274 -0.036679,0.0329 0.0571,0.0168 0.1949749,-0.0327 0.6366987,-0.0314 0.669898,0.01 0.085201,0.0851 0.2360617,-0.0393 1.1711852,-0.96625 l 0.960264,-0.95221 -0.107572,-0.094 c -0.219127,-0.19244 -0.245619,-0.43246 -0.07719,-0.69949 0.0916,-0.14512 1.880053,-1.97175 7.28259,-7.4379 l 0.507739,-0.51374 0.289032,0.01 c 0.297226,0.01 0.377272,-0.0525 0.226485,-0.15507 -0.04723,-0.0325 -0.06917,-0.0623 -0.04875,-0.0673 -0.01258,-0.25665 0.049,-0.29264 0.19406,-0.43474 0.142949,-0.13975 0.284368,-0.2599 0.31427,-0.26693 0.03192,-0.01 0.03114,-0.0344 -0.0045,-0.0652 -0.128629,-0.11982 -1.108658,-1.21883 -1.134671,-1.27238 -0.0049,-0.0118 -0.02165,-0.0295 -0.03585,-0.0396 -0.0142,-0.0109 -0.07875,-0.0976 -0.143387,-0.19368 -0.06465,-0.0963 -0.206049,-0.27954 -0.314196,-0.40739 -0.108142,-0.12783 -0.266683,-0.32783 -0.352318,-0.44446 -0.08563,-0.11666 -0.325462,-0.42847 -0.53296,-0.6929 -0.397736,-0.50697 -0.618064,-0.90696 -0.695914,-1.26358 -0.02435,-0.11151 -0.06848,-0.21999 -0.09803,-0.24098 -0.04169,-0.0298 -0.03879,-0.0351 0.01298,-0.0254 0.05311,0.0106 0.06496,-0.01 0.05808,-0.0801 -0.01438,-0.15491 0.104153,-0.66825 0.182661,-0.79094 0.04053,-0.0633 0.0588,-0.11874 0.04054,-0.12302 -0.07753,-0.0184 0.716476,-0.83779 1.565334,-1.61554 0.299074,-0.27397 0.763102,-0.70639 1.031178,-0.96088 0.268072,-0.25442 0.63304,-0.59279 0.811039,-0.75192 0.177994,-0.15912 0.578197,-0.53122 0.889325,-0.82686 0.311127,-0.29569 1.036115,-0.97737 1.611089,-1.5149 0.574968,-0.53749 1.361389,-1.28857 1.747599,-1.66902 0.575913,-0.5617 1.232435,-1.12529 1.704277,-1.57535 0.530253,-0.50635 1.017652,-0.96368 1.083094,-1.01626 0.113139,-0.0908 0.522999,-0.47306 1.950373,-1.8191 0.346989,-0.32726 1.145586,-1.07481 1.77464,-1.66135 0.629057,-0.58644 1.442205,-1.34544 1.806999,-1.68669 0.364795,-0.34121 0.778449,-0.72582 0.91923,-0.85471 0.140789,-0.12894 0.561214,-0.52217 0.93429,-0.87386 0.373077,-0.35176 0.800554,-0.75174 0.949951,-0.88888 0.149399,-0.13714 0.555429,-0.5172 0.902297,-0.84458 0.346865,-0.32736 0.795936,-0.74709 0.997936,-0.93279 0.201992,-0.18566 0.650464,-0.60605 0.996602,-0.93412 1.101666,-1.04423 1.388473,-1.29961 1.620215,-1.44287 0.124464,-0.0768 0.230387,-0.15715 0.235388,-0.17831 0.0049,-0.0213 0.02371,-0.0238 0.04153,-0.01 0.01784,0.0179 0.04691,0.0183 0.06457,0.002 1.091051,-0.35477 1.735311,0.0289 2.525771,0.8071 0.155113,0.15514 0.297063,0.282 0.315429,0.282 0.05981,0 2.418826,2.39183 2.570911,2.60669 0.332385,0.4695 0.314232,0.45054 0.36786,0.38445 0.0273,-0.0337 0.129635,-0.13798 0.227354,-0.2318 0.148878,-0.14299 0.190855,-0.16385 0.259017,-0.12852 0.04471,0.0232 0.08529,0.0251 0.09011,0.01 0.0049,-0.0206 0.03813,-0.01 0.07398,0.0326 0.06245,0.0668 0.07976,0.0563 0.41653,-0.25107 0.378641,-0.34559 0.383973,-0.34721 0.655196,-0.20279 0.07307,0.039 0.143341,-0.0292 2.468626,-2.39218 l 2.393419,-2.4323 -0.01136,-0.1212 c -0.0052,-0.0668 -0.03773,-0.13304 -0.07004,-0.14745 -0.03234,-0.0143 -0.03671,-0.0316 -0.0099,-0.0379 0.02703,-0.01 0.03443,-0.026 0.01655,-0.0439 -0.01785,-0.0177 -0.0049,-0.0637 0.03602,-0.10183 0.05611,-0.0569 0.0545,-0.0668 -0.0085,-0.0544 -0.05522,0.0114 -0.04423,-0.01 0.03879,-0.0532 0.06374,-0.0375 0.218537,-0.17221 0.344023,-0.29952 2.57168,-2.60935 2.786562,-2.81941 2.870726,-2.80633 0.04608,0.01 0.09858,-0.0103 0.116707,-0.0375 0.02263,-0.0345 0.05627,-0.0219 0.107322,0.0412 0.04089,0.0505 0.145992,0.12101 0.233584,0.15695 0.217238,0.0892 0.646761,0.52402 0.818,0.82802 0.07366,0.13083 0.136642,0.31263 0.139937,0.40401 l 0.0049,0.16612 -1.528616,1.5649 c -1.192371,1.22068 -1.563057,1.5823 -1.685199,1.64381 -0.104021,0.0522 -0.151582,0.0578 -0.141737,0.0161 0.01101,-0.0465 -0.02678,-0.0625 -0.14644,-0.0625 h -0.161148 l -0.871477,0.89101 c -0.479327,0.49037 -1.555045,1.58028 -2.390504,2.42196 -1.3748,1.38494 -1.514366,1.53496 -1.469619,1.57968 0.02722,0.0273 0.06582,0.11318 0.08585,0.19099 0.03641,0.14159 0.03632,0.14172 -0.275753,0.45382 l -0.312177,0.31214 0.05608,0.11619 c 0.09191,0.19033 0.06991,0.29245 -0.102178,0.47435 -0.279134,0.29486 -0.519447,0.46026 -0.668878,0.46026 h -0.137483 l 0.121395,0.1932 c 0.387448,0.61649 0.536416,0.99899 0.536416,1.37736 0,0.28411 -0.04387,0.4741 -0.157465,0.68185 -0.07266,0.13281 -1.772831,1.88125 -6.256899,6.43435 -0.03347,0.0337 -0.384571,0.38621 -0.780285,0.78269 -0.395758,0.39647 -0.770108,0.78059 -0.832026,0.85357 -0.101971,0.1201 -0.503926,0.52463 -1.512182,1.52181 -0.435454,0.43067 -1.276504,1.35038 -1.290977,1.41165 -0.0049,0.0246 0.0086,0.0642 0.03218,0.0877 0.02558,0.0256 0.0049,0.0965 -0.05304,0.17681 -0.155036,0.21682 -0.155763,0.2273 -0.02495,0.35812 l 0.123547,0.12356 -0.227302,0.23242 c -0.125016,0.12779 -0.275565,0.28061 -0.334564,0.33961 -0.202929,0.203 -0.196816,0.20163 -0.326898,0.0715 -0.328092,-0.14705 -0.203197,0.15577 -0.115795,0.29526 0.391724,0.14068 0.604371,0.13113 0.944184,0.29063 -0.02061,-0.0874 0.58274,0.46399 0.704472,0.64372 0.12953,0.19127 0.272531,0.71657 0.285288,1.04798 0.02647,0.68717 -0.296116,1.24666 -0.983599,1.70599 -0.159303,0.10641 -0.295023,0.2163 -0.301603,0.24416 -0.006,0.0285 -0.01769,0.0265 -0.02494,-0.01 -0.0079,-0.034 -0.06846,-0.0226 -0.159542,0.0305 -0.169543,0.0985 -0.613738,0.41776 -0.641633,0.46115 -0.0104,0.0162 -0.04714,0.0426 -0.08161,0.0588 -0.03449,0.0159 -0.251539,0.17137 -0.482333,0.3451 -0.6236,0.46945 -1.029019,0.70467 -1.29929,0.75408 -0.128294,0.0232 -0.240329,0.0561 -0.248976,0.0729 -0.0086,0.0167 -0.02286,0.0162 -0.03163,-0.006 -0.0322,-0.0631 -0.32378,-0.0687 -0.341021,-0.01 -0.0134,0.0485 -0.01781,0.0451 -0.0201,-0.014 -0.0049,-0.0591 -0.02555,-0.0749 -0.105546,-0.0722 -0.05641,0.01 -0.07269,-0.01 -0.0361,-0.01 0.05231,-0.0108 0.03955,-0.03 -0.05985,-0.0934 -0.06947,-0.0439 -0.208184,-0.16402 -0.308254,-0.26617 -0.20038,-0.20466 -0.283274,-0.4015 -0.291085,-0.69131 -0.005,-0.21555 -0.110137,-0.38262 -0.270261,-0.43291 -0.120407,-0.0379 -0.203711,0.01 -0.219671,0.11101 -0.0049,0.0334 -0.08269,0.1215 -0.172499,0.19525 -0.08984,0.0736 -0.196056,0.16511 -0.236058,0.20308 -0.05031,0.0478 -0.0872,0.0506 -0.119721,0.01 -0.02585,-0.0331 -0.08171,-0.0739 -0.124145,-0.0907 -0.04243,-0.0169 -0.118909,-0.0832 -0.16995,-0.14775 l -0.09278,-0.11733 -0.118237,0.12944 -0.118237,0.12952 0.383082,0.38305 0.383084,0.38309 0.180827,-0.16274 0.180824,-0.16266 0.453528,0.41709 c 0.415617,0.38226 0.727191,0.60317 0.778471,0.55186 0.01121,-0.0118 0.03972,-0.01 0.06328,0.0135 0.449688,0.27289 0.27539,0.64171 0.308092,1.09366 0.01557,0.0156 0.04586,0.1136 0.06727,0.21787 0.05595,0.27187 0.270592,0.61259 0.568182,0.90195 0.282088,0.2743 0.344135,0.41674 0.268987,0.6177 -0.02453,0.0654 -0.01764,0.12146 0.01676,0.13682 0.03314,0.0145 0.03618,0.0314 0.0065,0.0378 -0.06325,0.0147 -0.08253,0.17039 -0.02284,0.18445 0.02386,0.01 0.01907,0.0223 -0.01065,0.0359 -0.0873,0.0417 0.0049,0.48741 0.162106,0.80518 0.163077,0.32456 0.44495,0.69138 0.569343,0.74087 0.190326,0.0757 0.206334,0.11883 0.172804,0.46537 -0.05973,0.61728 -0.0049,0.92971 0.252918,1.40351 0.08713,0.16099 0.131477,0.29095 0.107485,0.31496 -0.05342,0.0533 0.08525,0.19085 0.242508,0.24029 0.204293,0.0643 0.310902,0.20499 0.306618,0.4049 -0.0066,0.33096 -0.413581,0.64854 -1.531741,1.19674 -0.416285,0.27533 -0.745321,0.35172 -1.200921,0.5659 4e-6,0.0228 -0.01691,0.024 -0.03756,0.01 -0.02066,-0.0209 -0.04237,-0.0172 -0.04826,0.01 -0.005,0.0247 -0.0258,0.0395 -0.04422,0.0324 -0.0613,-0.0234 -0.528348,0.14092 -0.539944,0.19 -0.0054,0.0265 -0.01957,0.0325 -0.02961,0.0133 -0.01001,-0.0194 -0.129271,-0.0358 -0.26503,-0.0368 -0.433383,-0.01 -0.324756,0.0697 -1.243366,-0.83185 -0.585726,-0.57496 -0.667706,-0.66911 -0.833912,-0.95818 -0.101381,-0.17631 -0.218016,-0.36308 -0.259189,-0.41515 -0.103646,-0.13098 -0.501637,-0.95414 -0.588443,-1.21704 -0.140979,-0.22529 -0.152594,-0.37689 -0.211387,-0.59103 -0.05988,-0.18337 -0.108167,-0.34779 -0.107342,-0.36544 0.0049,-0.0179 -0.02681,-0.1556 -0.06138,-0.30644 -0.03457,-0.15081 -0.05685,-0.28945 -0.04953,-0.30799 0.0069,-0.0188 -0.0049,-0.0521 -0.02756,-0.0745 -0.02247,-0.0228 -0.03384,-0.0571 -0.02523,-0.077 0.0085,-0.0202 -0.0056,-0.19333 -0.03329,-0.38556 -0.0269,-0.19223 -0.04955,-0.53687 -0.05031,-0.76589 -0.115793,-0.37023 0.01335,-0.57363 -0.04055,-0.82732 -0.07749,-0.35982 -0.198047,-0.57558 -0.431477,-0.77241 -0.294211,-0.24808 -0.300806,-0.25169 -0.332043,-0.18153 -0.0226,0.0508 -0.0293,0.0471 -0.03554,-0.0206 -0.487709,-0.28915 -1.477598,-0.0503 -1.957428,0.33434 -1.820477,1.75703 -2.313904,4.0773 -1.508952,6.36655 0.0049,0.01 0.03559,0.0628 0.06649,0.13302 0.03089,0.0703 0.08507,0.16086 0.120413,0.20132 0.0353,0.0404 0.05391,0.0839 0.04127,0.0966 -0.01261,0.0128 0.01564,0.0617 0.06284,0.10879 0.04718,0.047 0.08695,0.11088 0.08833,0.14151 0.0049,0.0468 0.180132,0.43345 0.216192,0.46948 0.0056,0.01 0.01617,-0.01 0.02167,-0.0307 0.0049,-0.0234 0.0351,-0.01 0.06572,0.0398 0.03822,0.0564 0.143923,0.0919 0.337335,0.11399 0.279016,0.0318 0.484098,0.15255 0.456574,0.26914 -0.0058,0.028 0.0049,0.0544 0.02599,0.0594 0.02085,0.01 0.02295,0.0276 0.0049,0.0498 -0.01827,0.0226 -0.08692,0.12491 -0.15254,0.22786 -0.137181,0.21512 -0.343503,0.45597 -0.45551,0.53176 -0.04776,0.0325 -0.163208,0.0246 -0.303941,-0.0209 -0.124789,-0.04 -0.227953,-0.0521 -0.22925,-0.0268 -0.133082,-0.11279 -0.489792,-0.19673 -0.674003,-0.23133 -0.03144,0.0304 0.504595,0.57869 2.66256,2.72389 1.356231,1.74945 2.96116,1.612 2.319916,3.56038 -0.01236,0.0382 -0.08055,0.13551 -0.151565,0.2162 -0.802025,1.1333 -1.271699,2.60741 -1.971787,3.63647 -0.17092,0.24247 -0.330316,0.49411 -0.552157,0.66842 z m 10.68248,-24.10559 c 0.05755,-0.0999 0.06777,-0.15749 0.02989,-0.16811 -0.04424,-0.0129 -0.04021,-0.017 0.01727,-0.0194 0.05769,-0.01 0.08739,-0.0382 0.129066,-0.15574 0.02977,-0.0839 0.04207,-0.16485 0.02733,-0.17954 -0.01475,-0.0148 -0.0074,-0.0318 0.01555,-0.0368 0.06534,-0.0152 0.07609,-0.4452 0.01152,-0.46042 -0.03097,-0.01 -0.04297,-0.023 -0.02668,-0.0341 0.0696,-0.0491 0.09942,-0.10914 0.05889,-0.11871 -0.02405,-0.01 -0.05139,-0.068 -0.06075,-0.13842 -0.04903,-0.36978 -0.390394,-0.84332 -0.750536,-1.0412 -0.124141,-0.0681 -0.230723,-0.10285 -0.236842,-0.0769 -0.524455,-0.1456 -0.848673,-0.39797 -0.961747,-0.75707 0.01271,-0.0906 -0.0097,-0.0747 -0.200864,0.14254 -0.2891,0.32859 -0.324453,0.39101 -0.272126,0.4804 0.197618,0.083 0.189963,-0.19351 0.419247,-0.24341 l 0.310552,0.39684 c 0.105831,0.10133 0.296617,0.27996 0.423943,0.3969 0.265272,0.24367 0.267711,0.27661 0.03668,0.49567 -0.101438,0.0961 -0.171197,0.12827 -0.258809,0.11905 -0.08482,-0.01 -0.113843,0.01 -0.09911,0.0436 0.01147,0.0313 -0.0031,0.0215 -0.02658,-0.0214 -0.06018,-0.0985 -0.449715,-0.3281 -0.695629,-0.41027 -0.341717,-0.11404 -0.757732,-0.0767 -0.792637,0.0711 -0.007,0.0317 -0.01807,0.0303 -0.02604,-0.01 -0.007,-0.0316 -0.02578,-0.0447 -0.04078,-0.0304 -0.015,0.0145 -0.07736,0.0124 -0.138574,-0.01 -0.103869,-0.0314 -0.129548,-0.0157 -0.384495,0.23644 -0.150205,0.14855 -0.290876,0.27417 -0.312493,0.27934 -0.02163,0.01 -0.140015,0.1005 -0.263109,0.21199 l -0.2238,0.20272 0.06953,0.12552 c 0.03823,0.0691 0.08787,0.30539 0.110275,0.52535 0.100422,0.35889 0.07878,0.85407 0.302669,1.1095 0.0667,0.0668 0.11728,0.13824 0.112388,0.15895 -0.0049,0.021 0.04949,0.0747 0.120881,0.11966 0.14305,0.1546 0.370742,0.22875 0.524436,0.27134 0.0049,-0.0235 0.02325,-0.0132 0.03938,0.0232 0.01612,0.0362 0.04458,0.0505 0.06321,0.032 0.210641,0.11511 0.120468,0.13927 -0.05589,0.15286 -0.327892,-0.0439 -0.856355,-0.32387 -1.10531,-0.58507 -0.169626,-0.17794 -0.43533,-0.60662 -0.496515,-0.80104 -0.03119,-0.0992 -0.06893,-0.1883 -0.08384,-0.19808 -0.01492,-0.0104 -0.03992,-0.0461 -0.05556,-0.0811 -0.117599,-0.26167 -0.101648,-0.26607 -0.508829,0.1411 l -0.372773,0.37272 0.149038,0.1271 c 0.08969,0.0882 0.118244,0.23828 0.10289,0.36315 0.147766,-0.0322 0.171122,0.004 0.279669,0.0791 0.131784,0.1203 0.157884,0.17182 0.16902,0.33361 0.01486,0.21559 0.08421,0.45501 0.174957,0.60393 0.176843,0.29022 0.566607,0.53022 0.915302,0.56363 0.119389,0.012 0.137806,0.01 0.126012,-0.0645 -0.01158,-0.0654 -0.0049,-0.0673 0.0354,-0.0115 0.03571,0.0489 0.106351,0.0488 0.25731,-0.004 0.223881,-0.0729 1.015185,-0.58973 1.061258,-0.69315 0.0154,-0.0343 0.03218,-0.0448 0.03732,-0.0233 0.0073,0.0323 0.447993,-0.29062 1.304493,-0.95664 0.0569,-0.0442 0.191879,-0.13972 0.299968,-0.21214 0.108088,-0.0724 0.200877,-0.15016 0.206187,-0.17273 0.0049,-0.0226 0.02743,-0.0367 0.04911,-0.0318 0.06136,0.0144 0.362272,-0.27852 0.459559,-0.44754 z m -9.441084,-4.49758 c 0.07466,-0.0939 0.148269,-0.19791 0.163591,-0.2311 0.01529,-0.0331 0.170214,-0.21659 0.344199,-0.40753 0.267354,-0.29338 0.32648,-0.34262 0.381824,-0.318 0.05677,0.025 0.172143,-0.0778 0.86607,-0.77265 0.440305,-0.441 0.877525,-0.90414 0.97155,-1.02923 0.09403,-0.12509 0.245468,-0.31845 0.336522,-0.42963 0.09103,-0.11126 0.211628,-0.26649 0.267941,-0.34496 0.0563,-0.0786 0.1352,-0.17799 0.175301,-0.22107 0.07574,-0.0813 0.04893,-0.14709 -0.186702,-0.45791 -0.110001,-0.14505 -0.516733,-0.71361 -0.727908,-1.01744 -0.150499,-0.21649 -0.250398,-0.4625 -0.296969,-0.73117 -0.0229,-0.1321 -0.04803,-0.14947 -0.10318,-0.071 -0.01148,0.0165 -0.02605,0.01 -0.03238,-0.0192 -0.0054,-0.0268 0.01653,-0.0611 0.05076,-0.0764 0.03425,-0.015 0.04754,-0.0425 0.0295,-0.0605 -0.01799,-0.0182 -0.03071,-0.0895 -0.02828,-0.15874 0.0049,-0.0707 -0.02356,-0.1385 -0.05937,-0.15442 -0.04137,-0.0185 -0.04413,-0.0373 -0.0076,-0.0535 0.0308,-0.0135 0.05598,-0.0679 0.05598,-0.12044 2e-6,-0.0524 0.01401,-0.10939 0.03112,-0.12651 0.01708,-0.0171 0.02286,-0.0778 0.01279,-0.13501 -0.0101,-0.057 0.0049,-0.10388 0.02549,-0.10388 0.02407,0 0.03926,-0.0238 0.03373,-0.0527 -0.0049,-0.0292 0.03651,-0.15493 0.09347,-0.27987 0.328917,-0.59289 -0.676506,0.56386 -0.806231,0.69543 -0.50036,0.50749 -2.513793,2.54571 -4.4743,4.52943 -1.960501,1.98372 -3.652305,3.71701 -3.759563,3.85181 -0.250329,0.31454 -0.37809,0.66198 -0.388446,1.05642 -0.007,0.2833 0.02271,0.42953 0.173537,0.8411 0.07189,0.19621 0.736083,0.83261 0.838723,0.80365 0.04133,-0.0121 0.113336,0.0149 0.160031,0.0595 0.0467,0.0442 0.120203,0.0959 0.163328,0.1147 0.04314,0.0193 0.145274,0.11753 0.226976,0.21944 0.113065,0.141 0.154215,0.17256 0.172258,0.13204 0.01403,-0.0318 0.03409,-0.0301 0.04917,0.01 0.04121,0.0924 0.113076,0.0508 0.58868,-0.34317 0.248414,-0.20573 0.471184,-0.37405 0.495047,-0.37404 0.04975,0 3.957762,-3.95866 4.163538,-4.21753 z m 12.708806,-13.55541 c 0.07133,-0.15059 0.209161,-0.33731 0.403471,-0.54653 l 0.295138,-0.31781 -0.553192,-0.53582 c -0.596578,-0.57775 -0.596885,-0.57802 -0.949651,-0.70993 -0.434379,-0.16247 -0.923938,-0.12406 -1.414383,0.11096 l -0.245274,0.11752 -3.762901,3.80684 c -2.069591,2.09376 -3.791609,3.83324 -3.826698,3.86562 -0.08625,0.0546 0.119694,0.0754 0.175984,0.0839 0.05747,0.0575 0.05287,0.11616 -0.02332,0.29845 -0.222648,0.53271 -0.06137,1.2311 0.358272,1.55142 0.225022,0.17184 0.595391,0.26639 0.906943,0.23165 0.302268,-0.0339 0.388861,-0.0881 1.118022,-0.70228 0.10064,-0.0847 0.420824,-0.34909 0.711527,-0.58726 0.411619,-0.24492 0.644502,-0.68545 0.974193,-0.91421 0.528607,-0.60565 1.030857,-1.10252 1.49583,-1.57067 0.747083,-0.60965 1.332511,-1.50998 2.042137,-2.09338 0.130161,-0.1058 0.318969,-0.26174 0.419577,-0.34662 0.362271,-0.30529 0.739852,-0.58082 0.849364,-0.61966 0.333208,-0.35759 0.813809,-0.72214 1.024961,-1.12219 z"
       id="path7977"       
       sodipodi:nodetypes="cccccccccccccccccccccccccccccccccccccccccccccccccccccccccscccccccccccccccccccccccccccccccccccccccccccccccccccsccccccccccccccccccccccccccccscccccccccsccsccccscccccccccccccccccccccccccccccccccccccccccccccccccccccccccccccccccccccccccccccccccccccccccccccccccccccccccccccccccccccccccccccccccccccccccccccccccccccccccccccccccccccccccccccccccccccccccccccccccccsccccccccccccccccccccccccsccccccccccccc" />
  </g>
</svg>
