<?xml version="1.0" encoding="UTF-8" standalone="no"?>
<!-- Created with Inkscape (http://www.inkscape.org/) -->

<svg
   xmlns:dc="http://purl.org/dc/elements/1.1/"
   xmlns:cc="http://creativecommons.org/ns#"
   xmlns:rdf="http://www.w3.org/1999/02/22-rdf-syntax-ns#"
   xmlns:svg="http://www.w3.org/2000/svg"
   xmlns="http://www.w3.org/2000/svg"
   xmlns:sodipodi="http://sodipodi.sourceforge.net/DTD/sodipodi-0.dtd"
   xmlns:inkscape="http://www.inkscape.org/namespaces/inkscape"
   width="220"
   height="235"
   viewBox="0 0 58.208332 62.177085"
   version="1.1"
   id="svg8"
   inkscape:version="0.92.3 (2405546, 2018-03-11)"
   sodipodi:docname="fnc.svg">
  <defs
     id="defs2" />
  <sodipodi:namedview
     id="base"
     pagecolor="#000000"
     bordercolor="#666666"
     borderopacity="1.0"
     inkscape:pageopacity="0"
     inkscape:pageshadow="2"
     inkscape:zoom="1.979899"
     inkscape:cx="229.80256"
     inkscape:cy="97.955457"
     inkscape:document-units="px"
     inkscape:current-layer="layer1"
     showgrid="false"
     units="px"
     inkscape:window-width="1590"
     inkscape:window-height="1226"
     inkscape:window-x="1802"
     inkscape:window-y="123"
     inkscape:window-maximized="0" />
  <metadata
     id="metadata5">
    <rdf:RDF>
      <cc:Work
         rdf:about="">
        <dc:format>image/svg+xml</dc:format>
        <dc:type
           rdf:resource="http://purl.org/dc/dcmitype/StillImage" />
        <dc:title></dc:title>
      </cc:Work>
    </rdf:RDF>
  </metadata>
  <g
     inkscape:label="Layer 1"
     inkscape:groupmode="layer"
     id="layer1"
     transform="translate(0,-234.8229)">
    <path
       style="fill:none;stroke:#ffffff;stroke-width:0.4;stroke-opacity:1;stroke-miterlimit:4;stroke-dasharray:none"
       d="m 36.311702,275.24687 c -0.05849,-0.0152 -0.577382,-0.28019 -1.153095,-0.58885 -0.575712,-0.30866 -1.11706,-0.57127 -1.202998,-0.5836 -0.08594,-0.0123 -0.914924,-0.5099 -1.842188,-1.10571 -0.980978,-0.63032 -1.770552,-1.06343 -1.888299,-1.0358 -0.15679,0.0368 -0.192863,0.007 -0.160176,-0.1312 0.02968,-0.12573 -0.03083,-0.19931 -0.204169,-0.24826 -0.213197,-0.0602 -0.218584,-0.0144 -0.04003,0.34005 0.184764,0.36679 0.172175,0.44527 -0.12044,0.75084 -0.179719,0.18769 -0.489374,0.54043 -0.688118,0.78387 -0.289307,0.35433 -0.427928,0.43839 -0.695203,0.42142 -0.183615,-0.0116 -0.387993,-0.0753 -0.454174,-0.14152 -0.07595,-0.0759 -0.227848,-0.0137 -0.411868,0.16878 -0.471899,0.46785 -0.76486,0.58255 -1.050986,0.41123 -0.147849,-0.0885 -0.30289,-0.12688 -0.344536,-0.0852 -0.07562,0.0756 0.381807,1.29552 0.548162,1.46187 0.04834,0.0483 0.349466,0.75444 0.669164,1.56909 0.507545,1.29333 0.637797,1.52298 1.026961,1.81065 0.310372,0.22942 0.413891,0.36126 0.34095,0.4342 -0.05761,0.0576 -0.0397,0.1201 0.03979,0.13886 0.211982,0.05 -0.03297,0.24882 -0.479744,0.38932 -0.214121,0.0673 -0.565613,0.29872 -0.781089,0.51419 -0.216184,0.21619 -0.434173,0.34938 -0.486373,0.29718 -0.05203,-0.052 -0.111293,-0.0239 -0.131687,0.0625 -0.02041,0.0864 -0.246367,0.24232 -0.502397,0.34624 -0.25592,0.10403 -0.629388,0.30646 -0.829925,0.44984 -0.656507,0.46939 -0.752883,0.435 -0.948668,-0.3386 -0.261743,-1.03422 -0.261536,-1.03337 -0.724617,-3.00169 -0.236724,-1.00618 -0.517553,-1.95517 -0.62407,-2.10888 -0.106514,-0.1537 -0.193665,-0.31407 -0.193664,-0.35638 -1.7e-5,-0.0423 -0.09872,-0.0861 -0.219375,-0.0973 -0.120656,-0.0112 -0.184569,-0.0557 -0.142029,-0.0989 0.04254,-0.0432 -0.122799,-0.0375 -0.367423,0.0127 -0.389025,0.0798 -0.531031,0.19181 -1.133048,0.8939 -0.40701,0.47467 -0.746932,0.79184 -0.831825,0.77612 -0.247604,-0.0458 -1.512471,0.53792 -1.478382,0.68232 0.07051,0.29867 -0.302468,0.6998 -0.675318,0.7263 -0.39733,0.0282 -0.629474,-0.13336 -0.746412,-0.51959 -0.05445,-0.17983 -0.106739,-0.20906 -0.202566,-0.11323 -0.08637,0.0864 -0.03226,0.22608 0.163324,0.42166 0.160872,0.16088 0.27793,0.35421 0.260122,0.42963 -0.06052,0.25636 -1.371918,1.70542 -1.518939,1.67838 -0.09015,-0.0166 -0.809053,0.72421 -1.935604,1.99455 -2.361637,2.66301 -2.781223,3.44621 -2.876725,5.36973 -0.007,0.14042 -0.137553,1.37659 -0.290181,2.74704 -0.152628,1.37045 -0.24544,2.91031 -0.206252,3.42191 0.05584,0.72892 0.01569,0.98576 -0.185566,1.18701 -0.304499,0.3045 -0.40179,0.26386 -1.3862534,-0.57901 -1.7049421,-1.45972 -2.6603715,-2.12033 -4.7305053,-3.27078 -0.7759407,-0.43122 -1.4470941,-0.86552 -1.4914511,-0.96512 -0.04436,-0.0996 -2.5e-5,-0.26172 0.09852,-0.36026 0.1122997,-0.1123 0.1259217,-0.34263 0.03649,-0.61715 -0.179799,-0.55194 -0.182679,-0.48874 0.03673,-0.80535 0.197048,-0.28434 0.7241734,-0.29154 1.0020254,-0.0137 0.1593517,0.15936 -0.08851,0.4203 3.2637599,-3.43599 1.3251914,-1.52444 3.2116385,-3.69204 4.1921065,-4.81689 0.980467,-1.12486 1.782669,-2.12757 1.782667,-2.22826 10e-7,-0.10068 0.142356,-0.32611 0.316348,-0.50095 0.174079,-0.17476 0.502031,-0.5543 0.728995,-0.84322 l 0.412653,-0.52531 -0.328165,-0.32816 c -0.543975,-0.54398 -0.445309,-1.10783 0.361357,-2.06509 0.651297,-0.77289 0.657769,-0.78889 0.475969,-1.17664 -0.101367,-0.2162 -0.248929,-0.45772 -0.32791,-0.5367 -0.249921,-0.24992 -0.168579,-0.68069 0.178972,-0.9478 0.177416,-0.13636 0.355808,-0.27572 0.396418,-0.3097 0.108189,-0.0905 1.199101,-0.10066 1.246981,-0.0116 0.02243,0.0417 0.146726,-0.0498 0.276223,-0.20334 0.177881,-0.21097 0.296284,-0.24767 0.484303,-0.15025 0.247451,0.12822 0.261735,0.11545 2.529825,-2.26109 1.254543,-1.3145 3.348053,-3.50738 4.652262,-4.87306 l 2.371289,-2.48303 -0.169284,-0.28274 -0.169288,-0.28274 1.273145,-1.17347 c 0.700235,-0.6454 1.443576,-1.24423 1.651878,-1.33072 0.287719,-0.11945 1.857698,-1.63197 6.532876,-6.29377 l 6.154147,-6.13652 -0.176372,-0.27028 c -0.391876,-0.60053 -0.423333,-0.82729 -0.152365,-1.09825 0.435572,-0.43558 0.736648,-0.35166 1.511939,0.42142 0.3778,0.37671 0.862572,0.81077 1.077269,0.96456 l 0.390358,0.27961 0.829505,-0.8295 c 0.576256,-0.57626 0.811321,-0.8795 0.769948,-0.99327 -0.03996,-0.1099 -0.01234,-0.14751 0.08396,-0.11435 0.08828,0.0304 0.316112,-0.15436 0.591918,-0.48005 0.299292,-0.35344 0.481775,-0.49609 0.548777,-0.42908 0.06853,0.0685 0.429139,-0.22836 1.136238,-0.93546 0.818758,-0.81876 1.058144,-1.12243 1.142166,-1.44907 0.08384,-0.32583 0.17805,-0.44565 0.445456,-0.56651 0.341299,-0.15424 0.492038,-0.30635 2.60978,-2.63348 l 1.158626,-1.27316 0.264377,0.1527 c 0.145422,0.084 0.457493,0.34472 0.69352,0.57941 l 0.429274,0.42657 -2.207519,2.13553 c -1.258708,1.21765 -2.321476,2.17062 -2.472648,2.21718 -0.145813,0.0449 -0.721245,0.52517 -1.278739,1.06724 -0.925593,0.9 -1.006471,1.00917 -0.931377,1.2572 0.04524,0.14941 0.185384,0.37478 0.311439,0.50083 0.195114,0.19512 0.189344,0.26906 -0.03879,0.49719 -0.147394,0.1474 -0.227792,0.30819 -0.178661,0.35732 0.04913,0.0491 0.03349,0.14517 -0.03474,0.2134 -0.06824,0.0682 -0.07196,0.17246 -0.0083,0.23159 0.273496,0.25391 0.394876,0.45375 0.320686,0.52794 -0.14975,0.14976 -1.005229,-0.32645 -1.348563,-0.75069 l -0.339641,-0.41966 -0.781306,0.7813 c -0.559878,0.55988 -0.774084,0.84446 -0.756152,1.00455 0.01895,0.16917 -0.362516,0.63798 -1.571812,1.93176 -2.566155,2.74541 -3.723985,4.03942 -3.72585,4.16407 -9.55e-4,0.0641 0.144331,0.33218 0.322869,0.59583 0.261114,0.3856 0.290111,0.52541 0.148244,0.71475 -0.09699,0.12947 -0.313332,0.24221 -0.480742,0.25056 -0.271231,0.0135 -0.730494,0.44281 -4.217138,3.94183 -2.15202,2.15966 -3.987054,3.9978 -4.077859,4.08475 -0.0909,0.0869 -0.180846,0.0915 -0.200074,0.01 -0.01922,-0.0814 -0.185964,-0.24468 -0.37053,-0.36277 -0.296795,-0.1899 -0.35831,-0.18062 -0.532234,0.0803 -0.108154,0.16224 -0.266362,0.29729 -0.3516,0.30008 -0.08521,0.003 -0.26523,0.15611 -0.400025,0.34067 -0.226349,0.30988 -0.219377,0.36127 0.09114,0.67179 0.411207,0.4112 0.400752,0.607 -0.06821,1.27712 -0.216349,0.30915 -0.313332,0.55636 -0.237604,0.60565 0.07037,0.0458 0.08349,0.12775 0.02914,0.1821 -0.0695,0.0695 0.155219,0.31559 0.757337,0.82938 0.470879,0.40181 0.842727,0.78741 0.826322,0.8569 -0.03142,0.13309 1.504629,1.67044 1.892758,1.89438 0.124624,0.0719 0.330776,0.22754 0.458115,0.34585 0.174754,0.16237 0.220074,0.16419 0.184826,0.007 -0.03167,-0.14087 0.08504,-0.076 0.36262,0.20158 0.225129,0.22513 0.57047,0.4429 0.76742,0.48392 0.196954,0.041 0.358096,0.12847 0.358097,0.19432 -6e-6,0.0659 0.04927,0.0705 0.109488,0.0103 0.06022,-0.0602 0.123583,-0.0498 0.140806,0.0232 0.01722,0.0729 0.41165,0.31133 0.876502,0.52973 0.464854,0.21839 0.884978,0.43686 0.933607,0.48549 0.04863,0.0486 -0.106979,0.46402 -0.345795,0.9231 -0.238816,0.45908 -0.434213,0.98055 -0.434213,1.15884 3e-6,0.17829 -0.03435,0.32416 -0.07635,0.32416 -0.042,-1e-5 -0.18774,0.23284 -0.323887,0.51743 -0.27513,0.57512 -0.430229,0.76602 -0.588864,0.72477 z M 9.7763823,290.3926 c 0.160271,-1.39125 0.179885,-1.35639 -1.2676874,-2.25349 -0.9049184,-0.56081 -1.0002464,-0.59235 -1.1347244,-0.37542 -0.08075,0.13024 -0.5044777,0.64957 -0.9416234,1.15405 l -0.7948134,0.91723 0.3992547,0.25171 c 0.9731204,0.61352 2.5942405,1.67618 2.8753355,1.88482 0.1692037,0.12559 0.3783617,0.26479 0.4648007,0.30934 0.1751477,0.0903 0.1672117,0.12779 0.3994577,-1.88824 z M 29.21886,272.46873 c 0.248047,-0.24804 0.264767,-0.35068 0.1095,-0.67214 -0.286341,-0.59281 -1.040954,-1.27921 -1.467504,-1.33484 -0.352649,-0.046 -0.398887,-0.0125 -1.044991,0.7571 -0.668624,0.79642 -0.674124,0.80984 -0.502878,1.22689 0.255795,0.62297 0.577443,0.88474 1.064356,0.86623 0.236663,-0.009 0.473935,0.0273 0.527276,0.0806 0.162908,0.16291 0.587212,-0.009 0.810294,-0.32866 0.116168,-0.16634 0.342935,-0.43419 0.503947,-0.59521 z m -14.602261,7.8749 c 0.378962,-0.4799 0.396271,-0.54749 0.192402,-0.75136 l -0.224018,-0.22402 -1.167488,1.28909 c -1.409634,1.55646 -1.660091,1.90197 -1.553018,2.14238 0.175648,0.3944 0.370182,0.27489 1.36122,-0.83621 0.535951,-0.60091 1.161873,-1.32984 1.390902,-1.61988 z"
       id="path875"
       inkscape:connector-curvature="0"
       sodipodi:nodetypes="cscscccccccsccssscsccsscccscccccccccccssccccscsssssccscsccccsccsccccccscccccsccscccscccsscccccccccccsssscsscscccccccccccccsccscccccsccsscsscccccsscscscssssccccscscsccccc" />
  </g>
</svg>
