<?xml version="1.0" encoding="UTF-8" standalone="no"?>
<!-- Created with Inkscape (http://www.inkscape.org/) -->

<svg
   xmlns:dc="http://purl.org/dc/elements/1.1/"
   xmlns:cc="http://creativecommons.org/ns#"
   xmlns:rdf="http://www.w3.org/1999/02/22-rdf-syntax-ns#"
   xmlns:svg="http://www.w3.org/2000/svg"
   xmlns="http://www.w3.org/2000/svg"
   xmlns:sodipodi="http://sodipodi.sourceforge.net/DTD/sodipodi-0.dtd"   
   width="220"
   height="235"
   viewBox="0 0 58.208332 62.177085"
   version="1.1"
   id="svg8"   
   sodipodi:docname="g3.svg" >
  <defs
     id="defs2" />
  <sodipodi:namedview
     id="base"
     pagecolor="#000000"
     bordercolor="#666666"
     borderopacity="1.0"
     showgrid="false"
     units="px"     
     showguides="false" />
  <metadata
     id="metadata5">
    <rdf:RDF>
      <cc:Work
         rdf:about="">
        <dc:format>image/svg+xml</dc:format>
        <dc:type
           rdf:resource="http://purl.org/dc/dcmitype/StillImage" />
        <dc:title></dc:title>
      </cc:Work>
    </rdf:RDF>
  </metadata>
  <g
     id="layer1"
     transform="translate(0,-234.8229)">
    <path
       style="fill:none;stroke:#ffffff;stroke-width:0.4;stroke-opacity:1;stroke-miterlimit:4;stroke-dasharray:none"
       d="m 34.667575,274.8905 c 1.34e-4,-0.0139 0.102066,-0.14677 0.226526,-0.2949 0.313819,-0.37349 1.614209,-2.1048 1.691638,-2.25217 0.01945,-0.0371 0.12546,-0.18197 0.235546,-0.32206 0.462709,-0.58866 0.969615,-1.29146 1.001842,-1.389 0.04144,-0.12533 -0.08452,-0.27083 -0.317116,-0.36637 -0.13646,-0.0561 -0.492656,-0.34146 -1.264278,-1.01321 -0.136624,-0.11891 -0.547252,-0.47495 -0.912516,-0.79118 -0.365258,-0.3162 -1.194168,-1.03455 -1.842024,-1.59632 -0.647853,-0.5618 -1.2477,-1.08105 -1.332991,-1.15396 -0.0853,-0.0728 -0.170239,-0.18262 -0.188782,-0.24386 -0.01939,-0.0639 -0.06427,-0.12071 -0.105629,-0.13338 -0.03956,-0.0123 -0.204704,-0.13797 -0.367004,-0.27967 -0.227699,-0.19883 -0.29638,-0.27874 -0.300749,-0.3498 -0.0047,-0.0508 -0.07174,-0.19212 -0.152528,-0.31442 -0.08077,-0.1223 -0.157393,-0.27288 -0.170252,-0.33459 -0.0478,-0.22948 0.01567,-0.30696 1.203576,-1.46898 l 1.117966,-1.09365 -0.0594,-0.1729 c -0.03267,-0.095 -0.04999,-0.18214 -0.0385,-0.1934 0.01144,-0.0117 0.08634,-0.004 0.166375,0.0197 0.09673,0.0265 0.169861,0.0154 0.218188,-0.0328 0.03999,-0.0402 0.102168,-0.0728 0.138203,-0.0728 0.112418,0 0.462872,-0.30971 0.451949,-0.3994 -0.0074,-0.0633 0.165933,-0.25589 0.927675,-1.03004 1.60983,-1.63612 5.347224,-5.4857 5.767971,-5.9411 0.220901,-0.23905 1.08573,-1.14454 1.92185,-2.01216 0.836114,-0.86756 1.884497,-1.95859 2.329744,-2.42442 1.174668,-1.22905 2.12723,-2.18592 2.176093,-2.18592 0.06848,0 0.432399,-0.38365 0.418753,-0.44145 -0.0079,-0.0342 0.181133,-0.24205 0.542023,-0.59493 0.418119,-0.40887 0.562847,-0.57125 0.588506,-0.66039 0.01873,-0.0648 0.04524,-0.12457 0.05899,-0.1324 0.01373,-0.01 0.0067,-0.0307 -0.01459,-0.0498 -0.0218,-0.0196 -0.067,-0.0986 -0.10053,-0.17581 -0.05996,-0.13802 -0.05769,-0.14369 0.137755,-0.33909 0.109306,-0.10931 0.243236,-0.20904 0.297626,-0.22162 0.07755,-0.018 0.112186,-0.0521 0.160534,-0.15912 0.04782,-0.1058 0.08084,-0.13895 0.147446,-0.14814 0.04723,-0.01 0.06405,-0.0134 0.03737,-0.0158 -0.0689,-0.009 -0.03055,-0.25342 0.052,-0.33601 0.03804,-0.0382 0.10878,-0.063 0.157231,-0.0555 0.06693,0.011 0.142202,-0.0398 0.313326,-0.20743 0.213204,-0.20939 0.224244,-0.22996 0.206638,-0.38587 l -0.01861,-0.16469 1.609825,-1.66298 c 1.523548,-1.57378 1.61446,-1.66164 1.696198,-1.63965 0.260296,0.0701 0.170763,0.14372 1.718878,-1.41461 0.788592,-0.7938 1.445867,-1.47453 1.460598,-1.5127 0.0672,-0.17415 -0.190452,-0.66162 -0.451806,-0.85484 -0.182777,-0.13505 -0.4149,-0.1758 -0.502566,-0.0881 -0.03385,0.0338 -0.06694,0.0387 -0.07355,0.0112 -0.0059,-0.0281 0.01124,-0.0565 0.03964,-0.0633 0.03412,-0.01 0.01959,-0.0222 -0.04289,-0.0409 -0.06049,-0.0185 -0.141914,0.01 -0.22628,0.0742 -0.0725,0.0566 -0.727575,0.70276 -1.455762,1.43611 -1.457327,1.46754 -1.341565,1.31958 -1.281077,1.63738 0.01265,0.0665 -0.203017,0.28871 -1.637068,1.68707 l -1.651621,1.61056 -0.1755,-0.0149 c -0.167049,-0.014 -0.185529,-0.007 -0.383664,0.20361 -0.114487,0.12037 -0.21147,0.25435 -0.215514,0.29785 -0.01198,0.12885 -0.133989,0.27461 -0.222947,0.26631 -0.04435,-0.006 -0.09987,0.012 -0.123338,0.0351 -0.06711,0.067 -0.247333,-0.13983 -0.237085,-0.27217 0.02647,-0.34187 -0.654664,-1.07291 -1.020236,-1.09498 -0.0894,-0.008 -0.181498,-0.0793 -0.515778,-0.41352 -0.36312,-0.36314 -0.445199,-0.42631 -0.762107,-0.58675 -0.195339,-0.0989 -0.441228,-0.18752 -0.546423,-0.19696 -0.18804,-0.0171 -0.195464,-0.0131 -0.440393,0.23188 -0.231072,0.23108 -0.249413,0.26208 -0.253007,0.42774 -0.0049,0.24441 0.187135,0.53497 0.575039,0.86816 0.162848,0.13988 0.417134,0.37024 0.565083,0.51193 l 0.269002,0.2576 -1.224386,1.22275 c -0.67343,0.67247 -2.93526,2.92698 -5.02633,5.00998 -2.091061,2.08303 -4.749916,4.75406 -5.908564,5.93561 -1.895268,1.93285 -2.119107,2.15098 -2.230918,2.17428 -0.10917,0.023 -0.311834,0.21299 -1.6663,1.56422 -0.848147,0.84602 -1.56031,1.5426 -1.582672,1.5479 -0.02237,0.008 -2.375093,2.34101 -5.228279,5.19056 -4.471725,4.46598 -5.212359,5.19316 -5.366916,5.26936 -0.138724,0.0684 -0.180983,0.10664 -0.186781,0.169 -0.0088,0.0955 -0.688348,0.77187 -0.758816,0.75526 -0.0249,-0.009 -0.101655,0.0387 -0.170568,0.0988 -0.06891,0.0603 -0.140548,0.10585 -0.159179,0.10146 -0.04567,-0.0114 -0.156776,-0.23522 -0.253382,-0.51187 -0.137049,-0.39246 -0.166161,-0.39596 -0.819066,-0.0983 -0.560902,0.25579 -0.648417,0.33325 -0.605808,0.53644 0.03254,0.15518 0.02579,0.16868 -0.218596,0.43846 -0.288171,0.31807 -0.350791,0.48131 -0.314871,0.82073 0.02104,0.19864 0.0432,0.23728 0.287909,0.50201 l 0.265132,0.28677 -0.25839,0.25842 c -0.142115,0.14211 -0.280941,0.25305 -0.308507,0.24654 -0.03094,-0.01 -0.309965,0.248 -0.729407,0.66745 -0.668609,0.66862 -0.682336,0.68525 -0.873997,1.05837 -0.107096,0.20851 -0.211388,0.46746 -0.231754,0.57546 -0.02036,0.108 -0.05773,0.20129 -0.08302,0.20726 -0.04967,0.0121 -0.145532,0.30672 -0.160257,0.49315 -0.01332,0.16845 -0.09946,0.53917 -0.133116,0.57283 -0.01598,0.0159 -0.02176,0.0456 -0.01285,0.0659 0.02155,0.0492 -0.18251,0.77875 -0.321781,1.15087 -0.172743,0.46146 -0.618837,1.33749 -0.884089,1.73615 -0.416088,0.62538 -1.0525827,1.29792 -4.9483458,5.22852 -2.0862212,2.10489 -3.8606042,3.90416 -3.9430682,3.99834 -0.7637994,0.87259 -0.8187421,1.02981 -0.5170203,1.47929 0.138455,0.20631 0.1846023,0.24402 0.6067271,0.49553 0.6413902,0.38213 1.1601652,0.7298 1.7347844,1.16262 0.6728322,0.50683 1.9434467,1.72025 2.6045186,2.48734 l 0.4945844,0.57389 0.2528129,0.0866 c 0.1641943,0.0563 0.3150546,0.0721 0.4303806,0.0446 0.1684266,-0.0399 0.1999708,-0.0664 0.6126839,-0.51491 0.3911603,-0.42528 0.4635558,-0.526 0.7166091,-0.99697 0.2465849,-0.4589 0.8586596,-1.75933 1.1896476,-2.52752 0.06156,-0.14287 0.2417097,-0.53419 0.4003297,-0.86969 0.42428,-0.89729 1.049077,-2.27021 1.24008,-2.7249 0.04535,-0.10797 0.365487,-0.81934 0.711402,-1.58085 0.345916,-0.7615 0.666528,-1.47236 0.712469,-1.57979 0.04596,-0.10739 0.23562,-0.53099 0.421518,-0.94146 0.674886,-1.4899 0.766085,-1.69335 0.987415,-2.20312 0.123789,-0.2851 0.264252,-0.59069 0.312136,-0.67911 0.11972,-0.22102 4.501597,-4.65954 4.467922,-4.52565 -0.01254,0.05 -0.05512,0.10957 -0.09461,0.1327 -0.06368,0.0374 -0.05417,0.0565 0.08351,0.16961 0.08542,0.0703 0.186753,0.13056 0.225189,0.13412 0.03844,0.005 0.200582,-0.0497 0.360323,-0.11809 0.323202,-0.13861 0.425317,-0.16 0.441289,-0.0923 0.0049,0.0248 0.02546,0.0235 0.04331,-0.006 0.01789,-0.0271 0.04713,-0.0271 0.06502,0 0.01789,0.0273 0.03728,0.0295 0.04303,0.007 0.02591,-0.10973 0.427627,0.01 0.723185,0.21057 0.147403,0.1014 0.25416,0.20999 0.374117,0.38054 0.232627,0.33073 0.298656,0.591 0.308986,1.21809 0.01277,0.77458 0.104273,1.43234 0.321574,2.31138 0.08801,0.35598 0.363743,1.16666 0.466642,1.37189 0.09834,0.19615 0.119284,0.21763 0.274975,0.28168 0.307086,0.12627 0.760414,0.0834 1.527977,-0.14476 0.210137,-0.0626 0.583738,-0.16797 0.830217,-0.23451 0.769469,-0.20766 1.283719,-0.4736 1.46233,-0.75622 0.120374,-0.19051 0.116244,-0.21228 -0.08646,-0.45634 -0.277166,-0.33363 -0.489915,-0.69455 -0.556898,-0.9448 -0.03238,-0.12095 -0.05646,-0.23624 -0.0535,-0.25624 0.01721,-0.11664 -0.143855,-0.52593 -0.337794,-0.85836 -0.210919,-0.36159 -0.283757,-0.56372 -0.352828,-0.97936 -0.0161,-0.0967 -0.123144,-0.35444 -0.237928,-0.57269 -0.212845,-0.40467 -0.26369,-0.61596 -0.238924,-0.99283 0.01032,-0.1572 0.03128,-0.20863 0.08493,-0.20863 0.03918,0 0.176087,-0.0419 0.304233,-0.0929 0.128151,-0.0513 0.243081,-0.077 0.255409,-0.0575 0.01234,0.0198 0.03799,0.0175 0.05703,-0.007 0.05729,-0.0668 0.71174,-0.27143 0.683865,-0.21379 -0.01421,0.0296 0.01653,0.0122 0.06828,-0.0383 0.05169,-0.0508 0.216693,-0.16432 0.366529,-0.25297 0.214113,-0.12672 0.402155,-0.29006 0.878487,-0.76329 l 0.606072,-0.60181 0.09393,-0.27465 c 0.123303,-0.3605 0.113171,-0.72237 -0.02907,-1.03894 -0.102562,-0.2282 -0.168279,-0.30766 -0.667132,-0.8065 l -0.55337,-0.55338 0.45062,-0.41367 c 0.4299,-0.39461 0.448697,-0.41737 0.408664,-0.49466 -0.02672,-0.0516 -0.01759,-0.0942 0.02504,-0.11735 0.03688,-0.0203 0.11614,-0.0666 0.176167,-0.10349 0.09246,-0.0568 0.119312,-0.0523 0.175552,0.0289 0.06394,0.0923 0.443933,0.74231 0.547507,0.93661 0.0436,0.0818 0.05842,0.0837 0.110457,0.0135 0.05156,-0.0696 0.02241,-0.1577 -0.205382,-0.62096 -0.146012,-0.29694 -0.265726,-0.56538 -0.266036,-0.59648 -3.16e-4,-0.0313 0.03516,-0.0983 0.07884,-0.14926 0.158801,-0.18532 0.186772,-0.18235 0.46518,0.0502 0.143172,0.11934 0.278889,0.21294 0.3016,0.20799 0.05293,-0.012 1.064374,0.84215 2.402781,2.0281 1.929201,1.70953 2.631836,2.31429 2.719275,2.34081 0.06056,0.0185 0.122218,-0.01 0.20437,-0.0913 0.0647,-0.0646 0.117758,-0.12915 0.117891,-0.14324 z m -8.099617,0.81898 c -0.202292,0.1366 -0.439175,0.2701 -0.526399,0.29668 -0.08723,0.0264 -0.166816,0.054 -0.176876,0.0611 -0.01007,0.01 -0.156171,0.0561 -0.32469,0.10899 -0.168522,0.0529 -0.421493,0.13455 -0.562156,0.1813 -0.300793,0.0999 -0.438078,0.11949 -0.488097,0.0694 -0.05655,-0.0568 -0.186838,-0.47394 -0.314738,-1.00836 l -0.116649,-0.48737 0.218218,-0.22536 c 0.258955,-0.26744 0.340729,-0.33702 0.395095,-0.33616 0.02227,3.3e-4 0.236284,0.18362 0.4756,0.40731 0.380186,0.35534 0.466975,0.41853 0.687435,0.50055 0.430266,0.16002 0.958794,0.14005 1.141966,-0.0431 0.114315,-0.11435 0.07876,-0.16504 -0.157951,-0.22533 -0.796738,-0.2031 -1.173818,-0.56612 -1.279436,-1.23178 l -0.04427,-0.27912 0.189053,-0.19093 c 0.167633,-0.16928 0.198558,-0.18535 0.272678,-0.14196 0.07376,0.0432 0.09706,0.0314 0.19818,-0.10116 0.06303,-0.0825 0.108716,-0.18788 0.101547,-0.2341 -0.01022,-0.0659 0.04919,-0.14624 0.273916,-0.37095 l 0.286954,-0.28695 0.534501,0.56518 c 0.686241,0.72558 0.750197,0.8502 0.670934,1.30715 -0.05056,0.29142 -0.213683,0.53444 -0.664348,0.98969 -0.298559,0.3016 -0.530669,0.49989 -0.790479,0.67533 z"
       id="path8016" />       
  </g>
</svg>
