<?xml version="1.0" encoding="UTF-8" standalone="no"?>
<!-- Created with Inkscape (http://www.inkscape.org/) -->

<svg
   xmlns:dc="http://purl.org/dc/elements/1.1/"
   xmlns:cc="http://creativecommons.org/ns#"
   xmlns:rdf="http://www.w3.org/1999/02/22-rdf-syntax-ns#"
   xmlns:svg="http://www.w3.org/2000/svg"
   xmlns="http://www.w3.org/2000/svg"
   xmlns:sodipodi="http://sodipodi.sourceforge.net/DTD/sodipodi-0.dtd"   
   width="220"
   height="235"
   viewBox="0 0 58.208332 62.177085"
   version="1.1"
   id="svg8"
   sodipodi:docname="g36.svg">
  <defs
     id="defs2" />
  <sodipodi:namedview
     id="base"
     pagecolor="#000000"
     bordercolor="#666666"
     borderopacity="1.0"
     showgrid="false"
     units="px" />
  <metadata
     id="metadata5">
    <rdf:RDF>
      <cc:Work
         rdf:about="">
        <dc:format>image/svg+xml</dc:format>
        <dc:type
           rdf:resource="http://purl.org/dc/dcmitype/StillImage" />
        <dc:title />
      </cc:Work>
    </rdf:RDF>
  </metadata>
  <g
     id="layer1"
     transform="translate(0,-234.8229)">
    <path
       style="fill:none;stroke:#ffffff;stroke-width:0.4;stroke-miterlimit:4;stroke-dasharray:none;stroke-opacity:1"
       d="m 35.958007,278.43653 c -0.19363,0.043 -0.643713,-0.23519 -0.610183,-0.37722 0.01524,-0.0645 -0.737565,-0.53505 -1.739938,-1.08757 -0.971729,-0.5356 -2.345675,-1.37317 -3.053214,-1.86133 -2.543062,-1.75446 -3.092793,-1.91806 -2.506711,-0.74611 0.215198,0.43034 0.251791,0.60553 0.141735,0.6789 -0.114548,0.0764 -0.227107,0.0163 -0.493889,-0.26383 -0.3733,-0.39181 -0.417442,-0.39795 -0.441792,-0.0617 -0.0087,0.12178 -0.323384,0.60431 -0.702,1.07681 -1.099974,1.37267 -1.278645,1.52025 -2.132558,1.76168 -0.633336,0.17899 -0.753761,0.24539 -0.751665,0.4143 0.0034,0.11066 0.401621,1.24278 0.889436,2.51586 0.658305,1.71801 0.949575,2.35646 1.129935,2.47672 0.155837,0.10387 0.236152,0.23586 0.223864,0.36787 -0.01577,0.16978 -0.22349,0.27403 -1.181572,0.59303 -1.293749,0.43077 -2.636124,0.73928 -2.833835,0.6512 -0.07109,-0.0318 -0.148187,-0.1948 -0.17127,-0.36252 -0.02309,-0.16771 -0.158559,-0.79555 -0.301069,-1.39516 -0.142502,-0.59965 -0.411664,-1.73585 -0.598155,-2.52491 -0.283037,-1.19756 -0.389838,-1.48151 -0.646416,-1.71876 -0.329901,-0.30503 -0.799273,-0.45285 -1.063813,-0.33501 -0.08982,0.0399 -0.844728,0.71469 -1.677627,1.49932 -0.874237,0.82358 -1.588628,1.4342 -1.690061,1.44459 -0.107603,0.0116 -0.577988,0.43033 -1.213522,1.08173 -0.808965,0.82916 -1.05168,1.13026 -1.100704,1.36565 -0.0346,0.16608 -0.131119,0.33231 -0.21451,0.36946 -0.0834,0.0372 -0.785529,1.44388 -1.560313,3.12604 l -1.408702,3.05855 0.02078,2.04479 c 0.01144,1.12457 -0.04331,2.19312 -0.121641,2.37449 -0.07833,0.18128 -0.3003113,0.49906 -0.4932883,0.70612 -0.3339284,0.35828 -0.3696765,0.36997 -0.7410097,0.24181 -0.2145703,-0.074 -0.9213576,-0.48045 -1.5706357,-0.90314 -1.0807453,-0.70359 -1.319977,-0.90782 -2.8308526,-2.41661 -1.2730779,-1.2713 -1.7744215,-1.83237 -2.1931162,-2.45459 -0.6769553,-1.00597 -1.0221233,-1.67464 -0.9980687,-1.93351 0.010205,-0.10968 0.2208512,-0.45198 0.4681124,-0.76056 l 0.4495741,-0.56103 0.5871355,-0.0128 c 0.3229248,-0.01 0.7926453,-0.11064 1.0438318,-0.2305 0.5024296,-0.23986 2.0462441,-1.55202 1.9450294,-1.65327 -0.034883,-0.0351 -0.24476,-0.0674 -0.4663652,-0.0721 -0.7324712,-0.0155 -0.6685825,-0.15404 0.7952936,-1.72176 1.6594499,-1.7772 2.3067987,-2.59135 3.6751963,-4.622 0.8793003,-1.30488 1.1272103,-1.75111 1.3003043,-2.34063 0.117628,-0.40053 0.314552,-0.82897 0.437606,-0.95204 0.193731,-0.19374 0.241058,-0.19584 0.352986,-0.0153 0.251769,0.40538 1.106301,1.6328 1.206532,1.73307 0.06481,0.0648 0.130118,0.0379 0.179967,-0.0737 0.06748,-0.15146 0.08031,-0.13462 0.09311,0.12222 0.01015,0.2035 0.03632,0.24973 0.08258,0.14589 0.03726,-0.0836 0.04128,-0.26629 0.009,-0.40598 -0.03228,-0.13966 -0.07253,-0.19535 -0.08945,-0.12371 -0.05205,0.22049 -0.135016,0.0444 -0.19737,-0.41879 -0.04924,-0.36596 -0.01,-0.49145 0.228535,-0.72997 0.329014,-0.32903 0.305089,-0.45294 -0.181314,-0.93936 -0.342242,-0.34222 -0.341504,-0.48687 0.0043,-0.83262 0.126225,-0.12621 0.139274,-0.22328 0.04296,-0.31955 -0.194984,-0.19498 -0.149204,-0.6237 0.09243,-0.86532 0.126405,-0.12637 0.154996,-0.21636 0.07478,-0.23534 -0.156874,-0.0371 -0.716019,-0.77307 -0.642143,-0.8453 0.08778,-0.0861 0.630799,0.15271 0.853108,0.375 0.173967,0.17396 0.242061,0.17783 0.397355,0.0226 0.103075,-0.10302 0.221146,-0.15363 0.26237,-0.11242 0.04123,0.0416 0.125561,0.024 0.187407,-0.0376 0.06186,-0.0619 0.07873,-0.14615 0.0375,-0.18742 -0.108602,-0.10863 0.262006,-0.44648 0.42478,-0.38734 0.109947,0.0402 0.12744,0.0226 0.08744,-0.0874 -0.05919,-0.16277 0.278716,-0.53339 0.387327,-0.42477 0.04121,0.0413 0.125562,0.0242 0.187406,-0.0376 0.06185,-0.0619 0.07872,-0.14617 0.03747,-0.18741 -0.108601,-0.10859 0.262008,-0.44651 0.42478,-0.38732 0.109943,0.0399 0.127443,0.0228 0.08744,-0.0874 -0.02748,-0.0756 0.02875,-0.21613 0.124942,-0.31234 0.09621,-0.0962 0.236758,-0.15246 0.312348,-0.12494 0.109947,0.0402 0.127439,0.0226 0.08744,-0.0874 -0.0592,-0.16281 0.278711,-0.53342 0.387324,-0.42482 0.04122,0.0415 0.125564,0.0243 0.187408,-0.0378 0.06186,-0.0619 0.07874,-0.14614 0.03747,-0.18737 -0.04123,-0.0414 -0.0071,-0.14246 0.07498,-0.22491 0.08246,-0.0824 0.183662,-0.11616 0.224892,-0.0749 0.04123,0.0413 0.125564,0.0243 0.187409,-0.0376 0.06186,-0.062 0.07872,-0.14621 0.03748,-0.1874 -0.108601,-0.10861 0.262007,-0.44653 0.424781,-0.38737 0.10995,0.04 0.127438,0.0228 0.08745,-0.0874 -0.0592,-0.16283 0.278714,-0.53343 0.387324,-0.42479 0.04121,0.0414 0.12556,0.0242 0.187408,-0.0376 0.06186,-0.0619 0.07872,-0.14618 0.03747,-0.1874 -0.04122,-0.0414 -0.0071,-0.14243 0.07498,-0.22492 0.08246,-0.0825 0.183661,-0.11615 0.224892,-0.0749 0.04121,0.0415 0.125564,0.0242 0.18741,-0.0376 0.06187,-0.0618 0.07874,-0.14617 0.03749,-0.18742 -0.108602,-0.10859 0.262007,-0.44652 0.424784,-0.38733 0.109944,0.0403 0.127436,0.0227 0.08745,-0.0874 -0.05919,-0.16282 0.278714,-0.53342 0.387324,-0.42479 0.04122,0.0411 0.125567,0.0241 0.187409,-0.0376 0.06187,-0.0617 0.07872,-0.14617 0.03746,-0.18737 -0.04123,-0.0414 -0.0071,-0.14245 0.07499,-0.22491 0.08246,-0.0824 0.183662,-0.11621 0.224895,-0.0748 0.04123,0.0411 0.125563,0.024 0.187409,-0.0375 0.06185,-0.0621 0.07873,-0.14616 0.03746,-0.18741 -0.04121,-0.0414 -0.0071,-0.14246 0.07495,-0.22489 0.08247,-0.0824 0.183669,-0.11623 0.224893,-0.0748 0.04122,0.0414 0.125566,0.0241 0.187412,-0.0374 0.06184,-0.0619 0.07872,-0.14621 0.03746,-0.18743 -0.04123,-0.0415 0.0094,-0.15929 0.112442,-0.26236 0.116607,-0.11662 0.22989,-0.14495 0.299857,-0.075 0.145706,0.14568 0.287575,0.01 0.197781,-0.19776 -0.07666,-0.17222 0.170528,-0.48342 0.28948,-0.36448 0.04122,0.0413 0.125565,0.0242 0.187409,-0.0373 0.06185,-0.0619 0.07871,-0.14616 0.03748,-0.18735 -0.123757,-0.12378 0.154228,-0.3234 0.398679,-0.28629 0.216954,0.0331 0.223978,0.0259 0.147468,-0.14741 -0.08457,-0.19166 0.222675,-0.5966 0.353413,-0.46587 0.04123,0.0414 0.125563,0.0243 0.187412,-0.0376 0.06185,-0.0619 0.07874,-0.14617 0.03748,-0.18736 -0.04121,-0.0414 -0.0071,-0.14248 0.07497,-0.22488 0.08246,-0.0825 0.183666,-0.11622 0.224894,-0.075 0.04121,0.0414 0.125562,0.0243 0.187407,-0.0379 0.06187,-0.0619 0.07871,-0.14616 0.03748,-0.1874 -0.04123,-0.0414 -0.0071,-0.14249 0.07494,-0.22493 0.08246,-0.0824 0.183665,-0.11616 0.224895,-0.075 0.04124,0.0414 0.14243,0.01 0.224891,-0.0748 0.08245,-0.0824 0.116193,-0.18365 0.07497,-0.22486 -0.04123,-0.0415 -0.0072,-0.14247 0.07497,-0.22495 0.08246,-0.0824 0.183663,-0.11615 0.22489,-0.0747 0.04121,0.0414 0.125564,0.0245 0.187409,-0.0378 0.06185,-0.062 0.07872,-0.14618 0.03747,-0.18742 -0.04122,-0.041 -0.0071,-0.14237 0.07495,-0.22494 0.08246,-0.0824 0.183665,-0.11616 0.224896,-0.0747 0.0412,0.0414 0.125561,0.0242 0.187409,-0.0374 0.06185,-0.0619 0.07872,-0.14615 0.03748,-0.18736 -0.04122,-0.0411 -0.0072,-0.14246 0.07495,-0.22492 0.08246,-0.0824 0.183665,-0.1162 0.224898,-0.0749 0.04122,0.0414 0.142428,0.01 0.224886,-0.075 0.08246,-0.0826 0.116195,-0.18365 0.07497,-0.22489 -0.04122,-0.0413 -0.0072,-0.14245 0.07497,-0.22487 0.08246,-0.0825 0.183662,-0.11619 0.224893,-0.0749 0.04123,0.0414 0.125567,0.0243 0.187412,-0.0377 0.06187,-0.0617 0.07871,-0.14618 0.03748,-0.18739 -0.04121,-0.0415 -0.0071,-0.14245 0.07496,-0.22488 0.08246,-0.0826 0.183665,-0.11622 0.224892,-0.0749 0.04121,0.0415 0.125565,0.0243 0.187408,-0.0375 0.06187,-0.062 0.07872,-0.14622 0.03748,-0.18745 -0.04123,-0.0413 0.0093,-0.15926 0.112444,-0.26235 0.103075,-0.10303 0.221142,-0.15368 0.262375,-0.11247 0.04122,0.0412 0.125564,0.024 0.187408,-0.0374 0.06186,-0.0618 0.07873,-0.14614 0.03748,-0.18736 -0.04124,-0.0414 -0.0071,-0.14242 0.07498,-0.22487 0.08246,-0.0824 0.183658,-0.1162 0.224892,-0.0752 0.04121,0.0414 0.125557,0.0243 0.187408,-0.0375 0.06184,-0.0619 0.07872,-0.14619 0.03746,-0.18745 -0.04122,-0.0414 -0.0071,-0.1424 0.07495,-0.22489 0.08247,-0.0823 0.183663,-0.11617 0.224891,-0.0749 0.04122,0.0414 0.125562,0.0245 0.187413,-0.0376 0.06184,-0.0616 0.07871,-0.1462 0.03748,-0.18743 -0.04121,-0.0415 0.0094,-0.15932 0.112447,-0.26238 0.182054,-0.18207 0.17242,-0.20239 -0.337336,-0.71213 -0.474765,-0.4748 -0.510465,-0.53904 -0.374818,-0.67467 0.135649,-0.13566 0.199903,-0.0999 0.674672,0.37482 0.455338,0.45526 0.542596,0.50687 0.659679,0.38979 0.13698,-0.137 0.448345,-0.18134 0.551155,-0.0786 0.03101,0.0312 0.211213,-0.0633 -0.01023,0.18925 -0.154715,0.16451 0.544179,-0.44989 2.133045,-0.46526 l 0.97153,-0.007 0.749842,-0.74945 c 0.543483,-0.54323 0.759594,-0.81977 0.785291,-1.005 0.01949,-0.14059 0.110997,-0.33112 0.203316,-0.42343 0.117016,-0.11706 0.12403,-0.22625 0.02314,-0.36052 -0.131488,-0.17502 -0.100504,-0.24088 0.339124,-0.72078 0.302376,-0.33011 0.51323,-0.49877 0.562225,-0.44979 0.04312,0.0431 0.128989,0.0277 0.190836,-0.0339 0.06184,-0.0619 0.07873,-0.14618 0.03748,-0.18742 -0.04123,-0.0412 -0.0071,-0.14246 0.07498,-0.22488 0.08245,-0.0824 0.183661,-0.11623 0.224892,-0.0748 0.04122,0.0414 0.125563,0.0244 0.18741,-0.0375 0.06185,-0.062 0.05957,-0.16532 -0.0049,-0.22994 -0.08739,-0.0874 -0.06086,-0.14728 0.103615,-0.23371 0.121612,-0.0639 0.261627,-0.0982 0.311153,-0.0762 0.149747,0.0667 0.23535,-0.0896 0.115029,-0.20985 -0.06997,-0.07 -0.04165,-0.18321 0.07497,-0.29981 0.116614,-0.11663 0.22989,-0.14494 0.299846,-0.0749 0.06186,0.0619 0.163055,0.0619 0.224901,0 0.06184,-0.0618 0.05823,-0.16661 -0.0078,-0.23286 -0.07903,-0.079 -0.06407,-0.14561 0.04362,-0.19352 0.09022,-0.0403 0.197039,-0.10607 0.237335,-0.14635 0.04029,-0.0403 0.08615,-0.019 0.101878,0.048 0.01577,0.0666 0.08124,0.0687 0.145505,0.01 0.06428,-0.0642 0.08311,-0.15065 0.04191,-0.19182 -0.04121,-0.0414 0.01137,-0.16132 0.11687,-0.26682 0.108801,-0.10878 0.204226,-0.13934 0.220466,-0.0705 0.01576,0.0666 0.08123,0.0686 0.145506,0.01 0.06429,-0.0641 0.08311,-0.15063 0.0419,-0.19185 -0.04124,-0.0412 0.0094,-0.15934 0.112446,-0.26235 0.103076,-0.10311 0.221143,-0.1537 0.262372,-0.1125 0.04122,0.0416 0.12756,0.0225 0.191836,-0.0422 0.06428,-0.0643 0.06226,-0.12973 -0.0049,-0.14552 -0.06878,-0.0162 -0.03826,-0.11165 0.07056,-0.22045 0.105508,-0.10551 0.225564,-0.1581 0.266789,-0.11687 0.04122,0.0414 0.125569,0.0241 0.187416,-0.0376 0.06184,-0.0619 0.07871,-0.14611 0.03746,-0.18738 -0.108802,-0.10883 0.263175,-0.4475 0.419103,-0.38161 0.105227,0.0444 0.126236,0.0235 0.104438,-0.1041 -0.015,-0.0879 0.106298,-0.32594 0.269568,-0.52896 0.75367,-0.90227 0.894543,0.15465 1.139552,-0.25019 0.07796,-0.13017 0.261069,-0.2669 0.414622,-0.30947 0.151254,-0.0421 0.426281,-0.15817 0.611181,-0.25819 0.410091,-0.22187 0.884968,-0.11518 1.728522,0.38847 l 0.612128,0.36542 0.927392,-0.92911 c 0.544318,-0.54543 0.915356,-0.9799 0.898332,-1.05199 -0.03675,-0.1557 1.234642,-1.43569 1.389645,-1.39912 0.159098,0.0378 3.854683,-3.66528 3.817096,-3.82456 -0.01745,-0.0743 0.54092,-0.69087 1.437461,-1.58745 1.429205,-1.42917 1.468906,-1.4613 1.576839,-1.27694 0.06088,0.10401 0.14127,0.15859 0.178663,0.12121 0.03739,-0.0374 0.254316,0.11842 0.482119,0.34618 0.373423,0.37343 0.402659,0.43975 0.297301,0.67435 -0.165043,0.3675 -2.791658,2.87524 -2.935976,2.80302 -0.07843,-0.0394 -0.656226,0.48848 -1.933039,1.76532 -1.565667,1.56567 -1.818399,1.85144 -1.80112,2.03717 0.01333,0.14256 -0.08879,0.31422 -0.30036,0.50508 -0.590103,0.53247 -0.680713,0.67677 -0.582377,0.92869 0.11733,0.30075 -0.07375,0.51645 -0.290934,0.32838 -0.08837,-0.0765 -0.223327,-0.19458 -0.299839,-0.26238 -0.122949,-0.10882 -0.228755,-0.0337 -0.907538,0.64518 l -0.768372,0.76836 0.374813,0.37479 0.374818,0.37482 0.263512,-0.26119 c 0.375179,-0.37237 0.674678,-0.52474 0.794834,-0.40454 0.07357,0.0736 0.002,0.20744 -0.251228,0.46088 -0.407339,0.4102 -0.463506,0.566 -0.293355,0.8158 0.09732,0.1429 0.06201,0.23779 -0.177342,0.4772 -0.252822,0.25283 -0.328467,0.27655 -0.491449,0.15411 -0.105943,-0.0797 -0.225995,-0.11132 -0.266796,-0.0706 -0.04081,0.041 -0.02453,0.0859 0.03619,0.1002 0.06068,0.0144 0.143404,0.1003 0.183809,0.19098 0.05907,0.13271 -0.04972,0.28816 -0.5557,0.79416 -0.369472,0.36949 -0.660112,0.59821 -0.704136,0.55422 -0.04278,-0.0428 -0.298415,0.14848 -0.595391,0.44548 l -0.520437,0.52043 0.295533,0.34164 c 0.306491,0.35432 0.272459,0.5484 -0.105611,0.6021 -0.134277,0.019 -0.168301,0.0609 -0.123296,0.15152 0.03421,0.069 -0.01935,0.20677 -0.118993,0.30642 -0.157664,0.15768 -0.276954,0.14729 -0.425344,-0.0371 -0.0215,-0.0266 -0.08586,-0.004 -0.14313,0.0555 -0.05725,0.0572 -0.08228,0.12167 -0.05568,0.14313 0.187187,0.15074 0.193205,0.26047 0.02107,0.38453 -0.111938,0.0807 -0.241846,0.0873 -0.302774,0.0153 -0.06404,-0.0753 -0.132133,-0.0687 -0.170265,0.0172 -0.03495,0.0785 -0.01422,0.19208 0.04608,0.25237 0.07081,0.0709 0.04147,0.16083 -0.083,0.2543 -0.117764,0.0885 -0.237678,0.0923 -0.308454,0.0107 -0.07163,-0.0832 -0.140039,-0.0801 -0.179352,0.01 -0.03497,0.0785 -0.01658,0.18972 0.04088,0.24713 0.06139,0.0615 0.02723,0.18164 -0.08298,0.29184 -0.103071,0.10307 -0.221145,0.15365 -0.262374,0.11246 -0.04123,-0.0412 -0.125562,-0.0242 -0.187409,0.0375 -0.06184,0.0617 -0.07873,0.1462 -0.03747,0.18744 0.10593,0.10591 -0.157305,0.34372 -0.387929,0.35042 -0.154427,0.01 -0.181165,0.0316 -0.133682,0.13374 0.07576,0.16346 -0.08731,0.32656 -0.399985,0.39995 -0.201712,0.0474 -0.237459,0.0895 -0.202688,0.23874 0.03693,0.15835 -0.0049,0.19302 -0.320545,0.27458 -0.316042,0.0813 -0.347747,0.1084 -0.246108,0.21002 0.1505,0.15048 -0.13619,0.44423 -0.343489,0.35189 -0.20136,-0.0897 -0.322552,0.0318 -0.177036,0.17709 0.146751,0.14675 -0.144644,0.43812 -0.347706,0.34768 -0.08556,-0.0383 -0.185717,-0.0394 -0.222538,-0.006 -0.03682,0.037 -0.01635,0.11755 0.04552,0.17943 0.06995,0.0699 0.04166,0.18318 -0.07496,0.29982 -0.136436,0.13643 -0.227545,0.14728 -0.334986,0.04 -0.100376,-0.1004 -0.169733,-0.0978 -0.216863,0.01 -0.0381,0.0855 -0.0223,0.20258 0.03513,0.26 0.143595,0.14358 -0.07757,0.34003 -0.382851,0.34003 -0.235607,0 -0.245183,0.0102 -0.150073,0.15007 0.11937,0.17631 -0.180903,0.52639 -0.387167,0.4514 -0.109948,-0.0402 -0.127438,-0.0229 -0.08744,0.0874 0.05919,0.1628 -0.278714,0.53337 -0.3873,0.42479 -0.04121,-0.0414 -0.125562,-0.0242 -0.187406,0.0374 -0.06185,0.0619 -0.07872,0.14617 -0.03747,0.18741 0.04123,0.0414 0.0071,0.14244 -0.07496,0.22489 -0.08246,0.0824 -0.183665,0.11619 -0.224894,0.0748 -0.04123,-0.0414 -0.12556,-0.0242 -0.187408,0.0374 -0.06184,0.0619 -0.07871,0.14615 -0.03748,0.18738 0.10341,0.10339 -0.100868,0.28874 -0.404352,0.36694 -0.201931,0.0521 -0.240455,0.0906 -0.192641,0.19257 0.08465,0.18079 -0.204517,0.4381 -0.340023,0.30262 -0.06184,-0.0619 -0.163043,-0.0619 -0.224886,0 -0.06184,0.0617 -0.06184,0.16304 -2e-6,0.22485 0.06249,0.0625 0.04584,0.17911 -0.03747,0.26239 -0.08328,0.0832 -0.199902,0.1 -0.262376,0.0375 -0.06185,-0.0619 -0.163042,-0.0619 -0.224887,0 -0.06186,0.0617 -0.06186,0.1631 -2e-6,0.22497 0.07133,0.0712 0.04068,0.18417 -0.08371,0.30856 -0.154817,0.1548 -0.218001,0.15879 -0.299851,0.0192 -0.07973,-0.13626 -0.127657,-0.13626 -0.207408,0 -0.05704,0.0974 -0.05705,0.22379 2e-6,0.28088 0.05704,0.057 0.03232,0.17508 -0.05495,0.2623 -0.123776,0.12382 -0.183986,0.11547 -0.273764,-0.0381 -0.08643,-0.14763 -0.132454,-0.15763 -0.1848,-0.0403 -0.03833,0.0861 -0.08382,0.17057 -0.10105,0.18782 -0.01723,0.0174 0.01925,0.0819 0.08111,0.14376 0.06247,0.0626 0.0458,0.17913 -0.03747,0.26242 -0.09916,0.0991 -0.199904,0.0999 -0.297504,0.006 -0.100378,-0.10039 -0.169737,-0.0978 -0.21687,0.01 -0.03809,0.0855 -0.01998,0.20492 0.04037,0.26521 0.0708,0.071 0.04145,0.16081 -0.08301,0.25427 -0.120604,0.0906 -0.23719,0.0927 -0.311731,0.01 -0.09588,-0.11211 -0.131861,-0.097 -0.184733,0.0776 -0.03614,0.11925 -0.0331,0.2494 0.0059,0.28919 0.03978,0.0402 0.0049,0.1398 -0.0776,0.22224 -0.08328,0.0832 -0.199901,0.1 -0.262372,0.0376 -0.06184,-0.0619 -0.163042,-0.0619 -0.224891,10e-6 -0.06184,0.0619 -0.06184,0.16304 -2e-6,0.22486 0.156591,0.15658 -0.131288,0.41395 -0.353395,0.31595 -0.170926,-0.0753 -0.179782,-0.0656 -0.145019,0.1632 0.02737,0.18017 -0.02773,0.2823 -0.211678,0.39244 -0.22319,0.13365 -0.275187,0.11684 -0.50707,-0.1639 l -0.258377,-0.31289 -0.311821,0.55675 c -0.392055,0.69997 -0.488943,1.51264 -0.299637,2.51306 l 0.147627,0.78023 0.71172,0.53439 c 1.649992,1.23891 5.342727,3.48845 6.105715,3.71944 0.135912,0.0412 0.347737,0.17547 0.470729,0.29843 0.258935,0.25899 0.315945,0.10546 -1.074953,2.89446 -0.89029,1.78523 -1.070171,2.07003 -1.346191,2.13142 z m -11.076041,-1.65624 c -0.399516,0.0257 -0.454555,-0.01 -1.014422,-0.55357 -0.325602,-0.31956 -0.632547,-0.58095 -0.682106,-0.58095 -0.247356,0 -0.268247,0.44209 -0.04821,1.02042 0.132883,0.34926 0.271418,0.66422 0.307859,0.69992 0.08456,0.0829 1.597765,-0.35064 1.747073,-0.50049 0.07145,-0.0719 -0.04115,-0.10274 -0.31019,-0.0852 z m 1.824384,-1.81658 0.276867,-0.36551 -0.743341,-0.70064 c -0.721173,-0.67972 -0.74767,-0.69491 -0.888558,-0.50851 -0.101378,0.13412 -0.183538,0.15379 -0.272177,0.065 -0.105001,-0.10498 -0.167563,-0.0703 -0.361616,0.20063 -0.129056,0.18018 -0.379177,0.47289 -0.555827,0.65045 -0.240653,0.24178 -0.321176,0.41514 -0.321172,0.69081 -3e-6,0.53239 0.54056,1.0538 1.253972,1.20968 l 0.527532,0.11523 0.403727,-0.49585 c 0.222051,-0.27271 0.528318,-0.66034 0.680593,-0.8614 z m -13.655387,6.4365 0.267437,-0.37337 -1.133929,-0.0434 -1.133929,-0.0432 -1.9084798,1.92927 c -1.6340757,1.65187 -1.9387946,1.92647 -2.1192262,1.9097 -0.3032008,-0.0283 -1.9808043,1.64483 -1.9809172,1.97524 7e-7,0.1546 -0.1550646,0.37996 -0.4960426,0.7209 l -0.4960409,0.49608 0.5281664,0.48382 0.528169,0.48385 2.923579,-2.92357 c 2.7048373,-2.70483 3.1997363,-3.14526 3.2577703,-2.89946 0.02811,0.11906 1.417347,-1.23285 1.763335,-1.71588 z m 18.639669,-23.11147 0.915226,-0.99628 -0.25062,-0.25066 c -0.196388,-0.1964 -0.386459,-0.24857 -0.878329,-0.24113 -0.345237,0.01 -0.870639,0.0701 -1.167568,0.1443 l -0.539871,0.13478 -4.724417,4.68258 c -5.48779,5.43926 -5.215969,5.09245 -4.529472,5.77894 l 0.412564,0.41257 3.503697,-3.50538 c 1.926933,-1.92808 4.068119,-4.05416 4.757992,-4.72493 l 1.254323,-1.21944 0.224892,0.22485 0.224887,0.22495 c -0.183735,0.33671 0.961814,-0.8424 0.796704,-0.66513 z"
       id="path1946"       
       sodipodi:nodetypes="ccsscccccsccccccccccccccccscssccscscccccscsscscscccsccsssssccsssssccsssccsccsssssssccsssssssccssssssssssssscsssccssssssssssssssssssssssssssssssssssssssssssssssssscccccsscsssssssccssssscscssscssssscssssccccccccccccscssccscccccsccccsccscsccsssccccscsccccscccssssscccccscscsssscsccccsssssssccssssssssscssccsssscscccsssssccccccccccsscccccscccccscscccscccccccccccscccscccccsscccscccccccc" />
  </g>
</svg>
