<?xml version="1.0" encoding="UTF-8" standalone="no"?>
<!-- Created with Inkscape (http://www.inkscape.org/) -->

<svg
   xmlns:dc="http://purl.org/dc/elements/1.1/"
   xmlns:cc="http://creativecommons.org/ns#"
   xmlns:rdf="http://www.w3.org/1999/02/22-rdf-syntax-ns#"
   xmlns:svg="http://www.w3.org/2000/svg"
   xmlns="http://www.w3.org/2000/svg"
   xmlns:sodipodi="http://sodipodi.sourceforge.net/DTD/sodipodi-0.dtd"
   xmlns:inkscape="http://www.inkscape.org/namespaces/inkscape"
   width="220"
   height="235"
   viewBox="0 0 58.208332 62.177085"
   version="1.1"
   id="svg8"
   inkscape:version="0.92.3 (2405546, 2018-03-11)"
   sodipodi:docname="hk417.svg">
  <defs
     id="defs2" />
  <sodipodi:namedview
     id="base"
     pagecolor="#000000"
     bordercolor="#666666"
     borderopacity="1.0"
     inkscape:pageopacity="0"
     inkscape:pageshadow="2"
     inkscape:zoom="1.4"
     inkscape:cx="154.67338"
     inkscape:cy="122.46344"
     inkscape:document-units="px"
     inkscape:current-layer="layer1"
     showgrid="false"
     units="px"
     inkscape:window-width="1796"
     inkscape:window-height="1258"
     inkscape:window-x="1591"
     inkscape:window-y="85"
     inkscape:window-maximized="0" />
  <metadata
     id="metadata5">
    <rdf:RDF>
      <cc:Work
         rdf:about="">
        <dc:format>image/svg+xml</dc:format>
        <dc:type
           rdf:resource="http://purl.org/dc/dcmitype/StillImage" />
        <dc:title></dc:title>
      </cc:Work>
    </rdf:RDF>
  </metadata>
  <g
     inkscape:label="Layer 1"
     inkscape:groupmode="layer"
     id="layer1"
     transform="translate(0,-234.8229)">
    <path
       style="fill:none;stroke:#ffffff;stroke-width:0.4;stroke-opacity:1;stroke-miterlimit:4;stroke-dasharray:none"
       d="m 39.315431,275.16647 c 0.461733,-0.72261 1.300651,-2.02148 1.864267,-2.88638 1.229075,-1.88611 1.228628,-1.87973 0.174746,-2.50281 -0.721871,-0.42678 -3.958975,-2.67901 -4.70719,-3.27503 -0.404594,-0.3223 -0.457461,-0.39646 -0.355404,-0.49851 0.06594,-0.0659 0.08969,-0.26487 0.05279,-0.44206 -0.06397,-0.3071 -0.07844,-0.32041 -0.309492,-0.28453 -0.133314,0.0207 -0.270386,0.0656 -0.304605,0.0999 -0.03422,0.0342 -0.49563,-0.38985 -1.025355,-0.94236 l -0.963137,-1.00458 0.216404,-0.26265 c 0.12827,-0.15572 0.201421,-0.38802 0.179626,-0.5705 -0.03251,-0.2722 -0.0086,-0.3122 0.206189,-0.34556 0.336188,-0.0522 0.767658,-0.4958 0.622972,-0.64048 -0.144732,-0.14473 0.06989,-0.35936 0.270161,-0.27016 0.203877,0.0908 0.545456,-0.25078 0.398119,-0.39812 -0.06188,-0.0619 -0.04538,-0.17739 0.03712,-0.25989 0.0825,-0.0825 0.19801,-0.099 0.259888,-0.0371 0.150545,0.15055 0.356478,-0.0748 0.373121,-0.40825 0.01286,-0.25774 0.02482,-0.26971 0.236793,-0.23679 0.274172,0.0426 0.403124,-0.0751 0.403114,-0.36798 -2e-6,-0.28475 0.106903,-0.39166 0.249278,-0.24928 0.0693,0.0693 0.181506,0.0413 0.297012,-0.0743 0.115506,-0.1155 0.143556,-0.2277 0.07426,-0.29701 -0.06188,-0.0619 -0.04538,-0.17738 0.03712,-0.25989 0.0825,-0.0825 0.198008,-0.099 0.259887,-0.0371 0.06188,0.0619 0.177382,0.0454 0.259885,-0.0371 0.0825,-0.0825 0.099,-0.19801 0.03713,-0.25989 -0.06188,-0.0619 -0.04538,-0.17738 0.03712,-0.25989 0.0825,-0.0825 0.198009,-0.099 0.259888,-0.0371 0.0693,0.0693 0.181506,0.0413 0.297012,-0.0742 0.115506,-0.11551 0.143557,-0.22771 0.07425,-0.29701 -0.06188,-0.0619 -0.04538,-0.17739 0.03713,-0.25989 0.0825,-0.0825 0.198009,-0.099 0.259888,-0.0371 0.0693,0.0693 0.181506,0.0413 0.297012,-0.0742 0.115505,-0.11551 0.143556,-0.22771 0.07426,-0.29701 -0.06188,-0.0619 -0.04538,-0.17739 0.03713,-0.2599 0.0825,-0.0825 0.198009,-0.099 0.259888,-0.0371 0.144898,0.1449 0.413161,-0.12337 0.323865,-0.32387 -0.03776,-0.0848 -0.01642,-0.20634 0.0474,-0.27016 0.06382,-0.0638 0.185393,-0.0851 0.270162,-0.0474 0.200501,0.0893 0.468764,-0.17897 0.323865,-0.32387 -0.06188,-0.0619 -0.04538,-0.17738 0.03713,-0.25988 0.0825,-0.0825 0.19801,-0.099 0.259888,-0.0371 0.0693,0.0693 0.181507,0.0412 0.297012,-0.0743 0.115506,-0.1155 0.143557,-0.22771 0.07426,-0.29701 -0.06188,-0.0619 -0.04538,-0.17738 0.03712,-0.25989 0.0825,-0.0825 0.198009,-0.099 0.259888,-0.0371 0.0693,0.0693 0.181506,0.0412 0.297011,-0.0743 0.115506,-0.11551 0.143557,-0.22771 0.07426,-0.29702 -0.06188,-0.0619 -0.04538,-0.17738 0.03713,-0.25988 0.0825,-0.0825 0.198009,-0.099 0.259888,-0.0371 0.06188,0.0619 0.177381,0.0454 0.259885,-0.0371 0.0825,-0.0825 0.099,-0.19801 0.03713,-0.25988 -0.06188,-0.0619 -0.04538,-0.17739 0.03712,-0.25989 0.0825,-0.0825 0.198009,-0.099 0.259888,-0.0371 0.0693,0.0693 0.181506,0.0412 0.297012,-0.0743 0.115505,-0.1155 0.143556,-0.22771 0.07425,-0.29701 -0.144901,-0.1449 0.123362,-0.41316 0.323866,-0.32386 0.199188,0.0887 0.406273,-0.11838 0.317562,-0.31756 -0.0893,-0.20051 0.178964,-0.46877 0.323865,-0.32387 0.06188,0.0619 0.177382,0.0454 0.259885,-0.0371 0.0825,-0.0825 0.099,-0.19801 0.03713,-0.25989 -0.06245,-0.0624 -0.04512,-0.17764 0.03945,-0.26221 0.08296,-0.083 0.220191,-0.11996 0.304959,-0.0822 0.200502,0.0893 0.468764,-0.17897 0.323866,-0.32387 -0.06188,-0.0619 -0.04538,-0.17738 0.03713,-0.25988 0.08168,-0.0817 0.191518,-0.1055 0.244085,-0.0529 0.132839,0.13283 0.438392,-0.15308 0.357548,-0.3346 -0.08928,-0.20045 0.185186,-0.45923 0.331695,-0.31272 0.07891,0.0789 0.162262,0.0544 0.258125,-0.076 0.07786,-0.10591 0.09225,-0.22518 0.03196,-0.26505 -0.06329,-0.0419 -0.03116,-0.15094 0.07602,-0.25812 0.10718,-0.10718 0.21627,-0.13931 0.258125,-0.076 0.03987,0.0603 0.159142,0.0459 0.265051,-0.0319 0.130382,-0.0959 0.154919,-0.17922 0.07602,-0.25812 -0.06704,-0.067 -0.05347,-0.17962 0.03196,-0.26505 0.0825,-0.0825 0.198009,-0.099 0.259888,-0.0371 0.0693,0.0693 0.181506,0.0413 0.297012,-0.0743 0.115506,-0.1155 0.143557,-0.22771 0.07426,-0.29701 -0.06188,-0.0619 -0.04538,-0.17738 0.03712,-0.25989 0.0825,-0.0825 0.198009,-0.099 0.259888,-0.0371 0.154157,0.15415 0.41346,-0.13306 0.344907,-0.38201 -0.04736,-0.17195 -0.01795,-0.21295 0.188315,-0.26257 0.303001,-0.0729 0.69745,-0.45981 1.021531,-1.00205 0.235192,-0.39351 0.234147,-0.42571 -0.02217,-0.68325 -0.147932,-0.14866 -0.416008,-0.4574 -0.595699,-0.6861 l -0.326711,-0.41583 2.73431,-2.6261 c 2.128611,-2.04438 2.727185,-2.6594 2.702171,-2.77643 -0.02523,-0.11802 0.0014,-0.14312 0.123904,-0.11683 0.118215,0.0254 0.437737,-0.25815 1.317994,-1.16948 l 1.16195,-1.20298 -0.598094,-0.64149 c -0.328955,-0.35281 -0.670848,-0.64822 -0.759755,-0.65649 -0.239026,-0.0222 -2.397856,2.21325 -2.358058,2.44176 0.02282,0.13102 9.92e-4,0.15508 -0.101402,0.11179 -0.144248,-0.061 -1.797711,1.52009 -1.695933,1.62168 0.03066,0.0306 -0.822479,0.91498 -1.895866,1.96531 l -1.951601,1.90967 -0.180899,-0.1809 c -0.130412,-0.13041 -0.137819,-0.20008 -0.02655,-0.24964 0.0849,-0.0378 0.213111,-0.16686 0.285014,-0.2867 0.11709,-0.19556 0.08652,-0.26483 -0.296264,-0.67129 l -0.426829,-0.45324 -0.346311,0.2462 -0.346311,0.24621 -0.665029,-0.6223 -0.665027,-0.6223 -0.412282,0.36738 c -0.226754,0.20206 -0.443943,0.33572 -0.482646,0.29701 -0.03871,-0.0387 -0.02025,-0.12049 0.04101,-0.18175 0.06683,-0.0668 0.04084,-0.18934 -0.06497,-0.30629 -0.09699,-0.10721 -0.211767,-0.24303 -0.255059,-0.30185 -0.04329,-0.0588 -0.205439,-0.0957 -0.360332,-0.0819 -0.185779,0.0165 -0.247505,-0.0102 -0.181369,-0.0785 0.0725,-0.0747 0.05264,-0.10798 -0.07131,-0.1195 -0.09436,-0.009 -0.315645,-0.13833 -0.491738,-0.28792 -0.281032,-0.23873 -0.342858,-0.24929 -0.505801,-0.0863 -0.157913,0.15791 -0.150546,0.22807 0.04933,0.46985 0.129228,0.15632 0.242517,0.36556 0.251755,0.46496 0.01233,0.13262 0.05447,0.17186 0.158258,0.14736 0.0778,-0.0184 0.268849,0.10292 0.424555,0.26953 0.155708,0.16661 0.377281,0.34905 0.492389,0.40542 0.193951,0.095 0.178963,0.1399 -0.20456,0.61296 -0.227608,0.28076 -0.592723,0.68933 -0.811349,0.90795 l -0.397501,0.3975 0.297013,0.29702 c 0.267311,0.26731 0.27845,0.31558 0.111381,0.48264 -0.102098,0.1021 -0.15222,0.21905 -0.111381,0.25989 0.04084,0.0408 0.0074,0.14108 -0.07425,0.22276 -0.08168,0.0817 -0.181921,0.11509 -0.22276,0.0743 -0.04084,-0.0408 -0.14108,-0.007 -0.222759,0.0743 -0.0825,0.0825 -0.099,0.19801 -0.03713,0.25988 0.145359,0.14536 -0.143276,0.434 -0.344414,0.34442 -0.200501,-0.0893 -0.468764,0.17897 -0.323865,0.32386 0.06188,0.0619 0.04538,0.17739 -0.03713,0.25989 -0.0825,0.0825 -0.198009,0.099 -0.259888,0.0371 -0.0693,-0.0693 -0.181506,-0.0413 -0.297012,0.0742 -0.115505,0.11551 -0.143556,0.22772 -0.07425,0.29702 0.06188,0.0619 0.04538,0.17738 -0.03712,0.25988 -0.0825,0.0825 -0.19801,0.099 -0.259888,0.0371 -0.06188,-0.0619 -0.177382,-0.0454 -0.259886,0.0371 -0.0825,0.0825 -0.099,0.19801 -0.03713,0.25989 0.06245,0.0625 0.04512,0.17764 -0.03945,0.26221 -0.08296,0.083 -0.220193,0.11995 -0.304959,0.0822 -0.08477,-0.0377 -0.217372,-0.005 -0.294682,0.0719 -0.07731,0.0773 -0.09044,0.19068 -0.02918,0.25194 0.06188,0.0619 0.04538,0.17738 -0.03713,0.25988 -0.0825,0.0825 -0.198009,0.099 -0.259888,0.0371 -0.0693,-0.0693 -0.181506,-0.0412 -0.297012,0.0743 -0.115505,0.1155 -0.143556,0.22771 -0.07425,0.29701 0.06188,0.0619 0.04538,0.17738 -0.03713,0.25989 -0.0825,0.0825 -0.198009,0.099 -0.259888,0.0371 -0.0693,-0.0693 -0.181507,-0.0412 -0.297012,0.0743 -0.115505,0.11551 -0.143556,0.22771 -0.07426,0.29701 0.06188,0.0619 0.04538,0.17739 -0.03712,0.25989 -0.0825,0.0825 -0.19801,0.099 -0.259888,0.0371 -0.06188,-0.0619 -0.177382,-0.0454 -0.259886,0.0371 -0.0825,0.0825 -0.099,0.19801 -0.03713,0.25988 0.06188,0.0619 0.04538,0.17739 -0.03712,0.25989 -0.0825,0.0825 -0.198009,0.099 -0.259888,0.0371 -0.06245,-0.0625 -0.177641,-0.0451 -0.262215,0.0394 -0.08296,0.083 -0.119951,0.22019 -0.0822,0.30496 0.03775,0.0848 0.0054,0.21737 -0.07192,0.29468 -0.07731,0.0773 -0.190684,0.0904 -0.251943,0.0292 -0.143338,-0.14334 -0.323531,0.0368 -0.323532,0.32353 -10e-7,0.24082 -0.225151,0.53683 -0.268533,0.35306 -0.01452,-0.0615 -0.08184,-0.0988 -0.149584,-0.0828 -0.171279,0.0404 -0.351398,0.41557 -0.214994,0.44777 0.06132,0.0145 0.02704,0.11078 -0.07619,0.21401 -0.136325,0.13632 -0.20647,0.14551 -0.256326,0.0336 -0.04782,-0.10738 -0.116784,-0.10597 -0.22742,0.005 -0.08733,0.0873 -0.127894,0.22813 -0.09014,0.31289 0.08929,0.2005 -0.178967,0.46877 -0.323866,0.32387 -0.145358,-0.14536 -0.433994,0.14328 -0.344414,0.34441 0.03775,0.0848 0.0034,0.21935 -0.0763,0.29907 -0.07972,0.0797 -0.157799,0.0905 -0.173509,0.0239 -0.05107,-0.21631 -0.381704,0.0214 -0.346364,0.24904 0.03611,0.23256 -0.164726,0.50283 -0.284588,0.38296 -0.04084,-0.0408 -0.157788,0.009 -0.259886,0.11139 -0.102098,0.10209 -0.15222,0.21904 -0.111381,0.25988 0.04084,0.0408 0.0074,0.14109 -0.07425,0.22277 -0.08168,0.0817 -0.181922,0.11509 -0.222761,0.0742 -0.04084,-0.0408 -0.157787,0.009 -0.259886,0.11137 -0.102098,0.1021 -0.15222,0.21905 -0.111381,0.25989 0.04084,0.0408 0.0074,0.14109 -0.07425,0.22276 -0.08168,0.0817 -0.181923,0.1151 -0.222762,0.0743 -0.04084,-0.0408 -0.157787,0.009 -0.259885,0.11137 -0.102099,0.1021 -0.152221,0.21905 -0.111382,0.25989 0.04084,0.0408 0.02413,0.12438 -0.03712,0.18564 -0.06126,0.0613 -0.144796,0.078 -0.185635,0.0371 -0.04084,-0.0408 -0.157788,0.009 -0.259886,0.11138 -0.102098,0.10209 -0.15222,0.21904 -0.111381,0.25988 0.04084,0.0408 0.0074,0.14108 -0.07425,0.22276 -0.08168,0.0817 -0.181923,0.11509 -0.222762,0.0743 -0.04084,-0.0408 -0.157787,0.009 -0.259886,0.11138 -0.102098,0.1021 -0.152219,0.21904 -0.11138,0.25988 0.04084,0.0408 0.02413,0.12438 -0.03712,0.18563 -0.06126,0.0613 -0.144797,0.078 -0.185636,0.0371 -0.04084,-0.0408 -0.157787,0.009 -0.259885,0.11139 -0.102098,0.1021 -0.15222,0.21904 -0.111381,0.25988 0.04084,0.0408 0.0074,0.14108 -0.07425,0.22276 -0.08168,0.0817 -0.181923,0.11509 -0.222762,0.0743 -0.04084,-0.0408 -0.157788,0.009 -0.259886,0.11139 -0.102098,0.10209 -0.15222,0.21904 -0.111381,0.25988 0.04084,0.0408 0.0074,0.14109 -0.07425,0.22276 -0.08168,0.0817 -0.181923,0.11509 -0.222762,0.0743 -0.04084,-0.0408 -0.157787,0.009 -0.259885,0.11139 -0.102099,0.10209 -0.15222,0.21904 -0.111381,0.25988 0.04084,0.0408 0.0055,0.14306 -0.07863,0.22715 -0.08409,0.0841 -0.165654,0.0988 -0.181253,0.0327 -0.01655,-0.0701 -0.122983,-0.0255 -0.255503,0.107 -0.124928,0.12493 -0.193729,0.26055 -0.15289,0.30139 0.04084,0.0408 0.02414,0.12438 -0.03712,0.18564 -0.06126,0.0613 -0.144796,0.078 -0.185635,0.0371 -0.04084,-0.0408 -0.157788,0.009 -0.259886,0.11138 -0.102098,0.1021 -0.15222,0.21905 -0.111381,0.25989 0.04084,0.0408 0.0074,0.14108 -0.07425,0.22276 -0.08168,0.0817 -0.181923,0.11509 -0.222762,0.0742 -0.04084,-0.0408 -0.157787,0.009 -0.259886,0.11138 -0.102098,0.1021 -0.152219,0.21905 -0.11138,0.25989 0.04084,0.0408 0.02413,0.12437 -0.03712,0.18563 -0.06126,0.0613 -0.144796,0.078 -0.185635,0.0371 -0.04084,-0.0408 -0.174495,0.026 -0.297013,0.14851 -0.148506,0.1485 -0.185633,0.25988 -0.111378,0.33414 0.06126,0.0613 0.06126,0.1615 -2e-6,0.22276 -0.06126,0.0613 -0.161499,0.0613 -0.222758,0 -0.14794,-0.14794 -0.509839,0.21396 -0.418667,0.41867 0.08883,0.19945 -0.03122,0.3195 -0.17536,0.17535 -0.07426,-0.0743 -0.185634,-0.0371 -0.334141,0.11138 -0.148506,0.14851 -0.185633,0.25989 -0.111378,0.33415 0.06126,0.0613 0.06126,0.16149 -2e-6,0.22275 -0.06126,0.0613 -0.161499,0.0613 -0.222758,0 -0.07426,-0.0743 -0.185635,-0.0371 -0.334141,0.11138 -0.148507,0.14851 -0.185634,0.25989 -0.111379,0.33414 0.144323,0.14433 0.0038,0.28485 -0.195908,0.19591 -0.08477,-0.0377 -0.230507,0.008 -0.323866,0.1011 -0.09336,0.0934 -0.138858,0.2391 -0.101104,0.32387 0.08894,0.19971 -0.05159,0.34024 -0.195908,0.19591 -0.07425,-0.0743 -0.185635,-0.0371 -0.334141,0.11138 -0.148507,0.14851 -0.185634,0.25989 -0.111379,0.33414 0.06126,0.0613 0.06126,0.1615 -1e-6,0.22276 -0.06126,0.0613 -0.1615,0.0613 -0.222759,0 -0.07426,-0.0743 -0.185634,-0.0371 -0.334141,0.11138 -0.148507,0.1485 -0.185634,0.25989 -0.111379,0.33414 0.06126,0.0613 0.06126,0.1615 -1e-6,0.22276 -0.06126,0.0613 -0.1615,0.0613 -0.222759,0 -0.06967,-0.0697 -0.181768,-0.041 -0.299344,0.0766 -0.103381,0.10338 -0.157077,0.25732 -0.119323,0.34209 0.03775,0.0848 0.02209,0.20066 -0.0348,0.25755 -0.05689,0.0569 -0.153555,0.0533 -0.214814,-0.008 -0.0693,-0.0693 -0.181509,-0.0413 -0.297015,0.0742 -0.115505,0.11551 -0.143556,0.22771 -0.07425,0.29702 0.06126,0.0613 0.06126,0.16149 -1e-6,0.22275 -0.06126,0.0613 -0.1615,0.0613 -0.222758,0 -0.06967,-0.0697 -0.181769,-0.041 -0.299345,0.0766 -0.103381,0.10338 -0.157077,0.25731 -0.119323,0.34208 0.03775,0.0848 0.02209,0.20066 -0.0348,0.25755 -0.05689,0.0569 -0.153555,0.0533 -0.214814,-0.008 -0.06126,-0.0613 -0.176288,-0.0465 -0.255618,0.0329 -0.116608,0.11661 -0.209065,0.0882 -0.482647,-0.1485 l -0.33841,-0.29275 -0.357405,0.31088 c -0.368274,0.32034 -0.774766,0.45 -0.476858,0.15209 0.326122,-0.32613 -0.06793,-0.92558 -0.423124,-0.64368 -0.226922,0.18011 -0.229918,0.17861 -0.898864,-0.44757 l -0.67117,-0.62826 -0.257008,0.25701 -0.256996,0.257 0.371267,0.37127 c 0.280511,0.2805 0.398491,0.34403 0.482645,0.25988 0.0855,-0.0855 0.206259,-0.0165 0.519773,0.29701 0.323067,0.32307 0.38383,0.43296 0.290826,0.52596 -0.06466,0.0647 -0.06341,0.14465 0.0028,0.17775 0.253969,0.12698 -0.01537,0.85867 -0.518036,1.40732 -0.447335,0.48825 -0.47022,0.53926 -0.327166,0.72939 0.23397,0.31096 0.186356,0.56921 -0.170782,0.92635 -0.347017,0.34701 -0.406176,0.59942 -0.190937,0.81466 0.07858,0.0786 0.07926,0.18805 0.0017,0.26564 -0.27253,0.27253 -0.247123,0.67696 0.06194,0.98603 0.18061,0.18061 0.260202,0.33133 0.207726,0.39336 -0.545683,0.64497 -2.008816,2.27157 -2.162481,2.40409 -0.109648,0.0945 -2.709454,2.6805 -5.7773767,5.74651 -6.0059846,6.00206 -5.8684958,5.84627 -5.6549378,6.41732 0.1233723,0.3299 0.4380194,0.65248 0.5384603,0.55204 0.041618,-0.0416 0.1320999,0.0183 0.2010743,0.13307 0.068971,0.1148 0.5033095,0.48773 0.965193,0.82872 0.4618858,0.34099 0.8669551,0.68097 0.9001544,0.75552 0.033204,0.0745 0.1145555,0.12274 0.1807886,0.10711 0.066249,-0.0156 0.2178821,0.10679 0.3369982,0.27205 0.1191129,0.16527 0.2476472,0.26941 0.2856294,0.23142 0.037982,-0.038 0.1723547,0.0615 0.2986044,0.22117 0.1262526,0.15963 0.2582584,0.26151 0.2933596,0.22641 0.035097,-0.0351 0.1914216,0.0592 0.3473844,0.20952 0.155964,0.15033 0.523979,0.46731 0.8178089,0.70438 0.2938323,0.23709 0.6124045,0.50995 0.7079435,0.60637 0.095531,0.0964 0.235835,0.18999 0.3117728,0.20791 0.075938,0.0179 0.2203373,0.13415 0.3208873,0.25826 0.1005485,0.12412 0.2129623,0.19552 0.2498059,0.15868 0.036843,-0.0368 0.1525194,0.048 0.257055,0.18846 0.1045391,0.1405 0.2191085,0.2268 0.2546042,0.19176 0.03549,-0.0351 0.2037989,0.0654 0.3740045,0.22328 0.1702068,0.15784 0.3923438,0.31959 0.4936388,0.35944 0.101295,0.0399 0.235409,0.13816 0.298034,0.21847 0.06263,0.0803 0.152953,0.10694 0.200729,0.0592 0.04778,-0.0478 0.115245,-0.0231 0.14993,0.0547 0.134714,0.30248 0.39257,0.14529 1.377638,-0.83977 l 0.98137,-0.98137 -0.04375,-1.07005 c -0.02406,-0.58853 -0.0082,-1.10559 0.03524,-1.14904 0.04344,-0.0434 0.05924,-1.22872 0.0351,-2.63396 l -0.04389,-2.55498 0.56737,-0.56736 c 0.312054,-0.31206 0.621438,-0.55461 0.687517,-0.53901 0.06608,0.0156 0.266563,-0.11806 0.445519,-0.29702 0.178956,-0.17895 0.312613,-0.37944 0.297014,-0.44551 -0.0156,-0.0661 0.234725,-0.38324 0.556277,-0.70479 0.508785,-0.50879 0.572169,-0.60871 0.488518,-0.77015 -0.05287,-0.10203 -0.129753,-0.20892 -0.17086,-0.23754 -0.402531,-0.2802 -0.688399,-0.74179 -0.711274,-1.14849 -0.02445,-0.43478 -0.0027,-0.47484 0.639936,-1.17927 0.365877,-0.40107 0.673388,-0.80459 0.683332,-0.89675 0.0099,-0.0922 -0.06979,-0.25527 -0.17719,-0.36249 l -0.195254,-0.19495 0.719282,-0.67242 0.719282,-0.67241 0.598882,0.46805 0.598884,0.46806 0.88257,-0.84093 0.882571,-0.84092 0.148318,0.21842 c 0.101748,0.14989 0.181609,0.18513 0.254442,0.1123 0.05838,-0.0584 0.306719,-0.10185 0.551867,-0.0966 0.420434,0.009 0.480025,0.0442 1.050195,0.6205 0.785248,0.79367 1.006742,1.22113 1.093044,2.10943 0.138013,1.42056 1.260004,4.11141 2.343214,5.61969 0.13656,0.19015 0.289591,0.42139 0.340065,0.51385 0.06104,0.11181 0.132525,0.12736 0.21346,0.0464 0.06693,-0.0669 0.23152,-0.12168 0.365766,-0.12168 0.217453,0 0.400489,-0.16782 1.678129,-1.53864 1.211246,-1.29958 1.432659,-1.57622 1.425068,-1.78052 -0.01356,-0.36504 -0.150165,-0.60349 -0.377484,-0.65892 -0.156233,-0.0381 -0.36233,-0.3802 -0.877148,-1.45596 -0.370116,-0.7734 -0.950031,-1.89759 -1.288705,-2.49822 -0.338673,-0.60063 -0.603988,-1.18737 -0.589587,-1.30387 0.04143,-0.33517 0.447696,-0.66595 1.129213,-0.91941 1.156168,-0.43001 2.184742,-1.57231 2.361358,-2.62246 0.03145,-0.18701 0.15556,-0.4384 0.275795,-0.55864 0.218575,-0.21857 0.218697,-0.21854 0.956845,0.34259 0.970883,0.73806 3.120947,2.27391 4.179739,2.9857 0.464008,0.31195 0.937555,0.69589 1.05233,0.85322 0.117744,0.1614 0.333024,0.3237 0.494027,0.37245 0.343506,0.104 0.376205,0.0664 1.581915,-1.82055 z m -10.223022,-0.38581 c -0.539216,0.24854 -0.997608,0.32687 -1.204398,0.20582 -0.09779,-0.0572 -0.20781,-0.0741 -0.244486,-0.0374 -0.139925,0.13993 -0.851569,-0.12964 -1.163004,-0.44053 -0.250149,-0.2497 -0.31628,-0.40093 -0.305013,-0.69741 0.01559,-0.41025 0.156285,-0.63064 0.315165,-0.49371 0.05484,0.0473 0.232026,0.22897 0.393753,0.4038 0.33311,0.36007 1.058723,0.70021 1.102068,0.51659 0.01664,-0.0705 0.05785,-0.0556 0.09858,0.0358 0.04607,0.10345 0.165974,0.12116 0.351222,0.0519 0.397486,-0.14865 0.34973,-0.27016 -0.152797,-0.38879 -0.352309,-0.0832 -0.504496,-0.18563 -0.807947,-0.54396 -0.205633,-0.24282 -0.373702,-0.53578 -0.373487,-0.65102 2.59e-4,-0.13842 0.19046,-0.40848 0.560458,-0.79578 0.607887,-0.63629 0.913925,-0.7703 1.48676,-0.65099 0.37522,0.0782 0.897365,0.68457 0.916296,1.06417 0.0069,0.13911 0.06315,0.30346 0.124913,0.36523 0.148069,0.14807 -0.146066,1.12628 -0.465424,1.54786 -0.144809,0.19117 -0.414473,0.40791 -0.632666,0.50847 z"
       id="path4565"
       inkscape:connector-curvature="0"
       sodipodi:nodetypes="ccscsscscccccscssscccssssssssssssssssscscsssssssssssssssssccsssscssscsccsccsssssssccccccsccscccsccccsccccccccsssccccccsscccccscssssssscsssssssssscssssssssssssssssscssscccscscscsccsssssssssssssssssssssssssssssssscsssssssssssssssscssssssscscsssssssssscssssssscssssccscccccssssccsssssccccscccccscscccscscccscsssccsscscscsscccscccccccccsscsccscccccssccscsccccccscccccccccccccsccc" />
  </g>
</svg>
