<?xml version="1.0" encoding="UTF-8" standalone="no"?>
<!-- Created with Inkscape (http://www.inkscape.org/) -->

<svg
   xmlns:dc="http://purl.org/dc/elements/1.1/"
   xmlns:cc="http://creativecommons.org/ns#"
   xmlns:rdf="http://www.w3.org/1999/02/22-rdf-syntax-ns#"
   xmlns:svg="http://www.w3.org/2000/svg"
   xmlns="http://www.w3.org/2000/svg"
   xmlns:sodipodi="http://sodipodi.sourceforge.net/DTD/sodipodi-0.dtd"   
   width="220"
   height="235"
   viewBox="0 0 58.208332 62.177085"
   version="1.1"
   id="svg8"   
   sodipodi:docname="l1a1.svg" >
  <defs
     id="defs2" />
  <sodipodi:namedview
     id="base"
     pagecolor="#000000"
     bordercolor="#666666"
     borderopacity="1.0"
     showgrid="false"
     units="px"
     showguides="false" />
  <metadata
     id="metadata5">
    <rdf:RDF>
      <cc:Work
         rdf:about="">
        <dc:format>image/svg+xml</dc:format>
        <dc:type
           rdf:resource="http://purl.org/dc/dcmitype/StillImage" />
        <dc:title></dc:title>
      </cc:Work>
    </rdf:RDF>
  </metadata>
  <g
     id="layer1"
     transform="translate(0,-234.8229)">
    <path
       style="fill:none;stroke:#ffffff;stroke-width:0.40000001;stroke-miterlimit:4;stroke-dasharray:none;stroke-opacity:1"
       d="m 31.832357,275.58566 c 0.617706,-0.94299 1.242101,-1.89167 1.38754,-2.10812 l 0.264447,-0.39355 -1.023616,-0.92614 c -0.562988,-0.50943 -1.739668,-1.59347 -2.614842,-2.40897 l -1.591221,-1.48278 0.260466,-0.40218 c 0.350275,-0.54085 0.360608,-0.80878 0.04341,-1.12592 l -0.266303,-0.26626 7.042255,-7.04224 7.042257,-7.04229 0.391575,0.1891 c 0.215364,0.10401 0.407978,0.25861 0.428033,0.34356 0.06093,0.25816 0.646254,0.53506 0.801933,0.37938 0.11291,-0.11291 -0.03678,-0.34209 -0.660658,-1.01147 l -0.806654,-0.86554 4.876939,-4.92954 c 4.542225,-4.59124 4.897962,-4.92637 5.183334,-4.88201 0.290959,0.0452 0.307337,0.029 0.325053,-0.32276 0.02509,-0.50382 0.307309,-0.75915 0.55988,-0.50659 0.135125,0.13513 0.270253,0.13513 0.405374,0 0.135124,-0.1351 0.135124,-0.27022 -2e-6,-0.40536 -0.194794,-0.19478 -0.13467,-0.2708 1.543933,-1.95238 0.960724,-0.96226 1.768823,-1.84884 1.795952,-1.96998 0.02803,-0.12508 -0.09171,-0.33241 -0.277136,-0.47984 l -0.326469,-0.25957 -7.456845,7.4406 c -4.101238,4.09235 -7.601405,7.54683 -7.778084,7.67674 -0.420993,0.30942 -0.516132,0.19236 -0.219916,-0.2706 0.19184,-0.29985 0.18515,-0.42232 -0.03494,-0.63988 -0.393157,-0.38873 -0.610515,-0.39596 -1.047136,-0.0351 -0.368242,0.30443 -0.411928,0.30072 -0.883816,-0.0747 -0.599591,-0.47718 -0.983108,-0.44114 -1.189901,0.11184 -0.120888,0.32325 -0.07657,0.44589 0.295661,0.81812 l 0.437868,0.43788 -0.397664,0.31449 c -0.218722,0.17302 -0.409209,0.43858 -0.42329,0.59017 -0.01778,0.19155 -0.0603,0.24093 -0.139357,0.16188 -0.08271,-0.0826 -1.594297,1.3668 -5.535611,5.30811 -2.982022,2.98201 -5.387816,5.45622 -5.346213,5.49821 0.352549,-0.37805 -1.997289,2.18192 -8.436452,8.53777 -3.199496,3.158 -3.926397,3.82639 -4.038854,3.71392 -0.103493,-0.10346 -0.249502,-0.002 -0.595167,0.4183 l -0.458022,0.55539 -0.576263,-0.57624 c -0.358363,-0.35835 -0.590894,-0.51421 -0.614963,-0.41226 -0.0213,0.0901 0.114586,0.31726 0.301953,0.50463 0.293465,0.29348 0.30891,0.39033 0.111454,0.6989 -0.350667,0.54807 0.137392,1.1642 0.593501,0.74922 0.177902,-0.16187 0.180127,-0.12142 0.0098,0.17879 -0.121058,0.21335 -0.51091,1.08794 -0.866336,1.9435 -0.99895,2.40465 -1.694689,3.3542 -4.4256883,6.04042 -1.264501,1.2437 -2.5517049,2.41919 -2.8604672,2.61206 -0.3087639,0.19292 -1.2402449,1.02733 -2.0699511,1.85431 l -1.5083867,1.50378 0.4527533,0.30731 c 1.1496555,0.78035 1.8831851,1.35359 3.6514188,2.85361 1.0460684,0.8874 1.9358452,1.61344 1.9772817,1.61344 0.041443,0 0.55353,-0.41536 1.1379828,-0.92307 l 1.0626394,-0.92305 0.4819823,0.61963 c 0.435641,0.56006 0.49632,0.59847 0.631106,0.39935 0.109921,-0.16238 0.0368,-0.37006 -0.278314,-0.79039 -0.370568,-0.49425 -0.426469,-0.72572 -0.420204,-1.73986 0.0068,-1.11939 0.07512,-1.33717 1.585623,-5.06385 1.68987,-4.16909 1.815057,-4.41973 3.09659,-6.20031 0.697711,-0.96943 1.044345,-1.33349 2.081257,-2.1859 0.684264,-0.56253 1.29139,-1.07004 1.349165,-1.12785 0.155863,-0.15584 0.807769,0.12728 1.202922,0.52243 0.422275,0.42227 0.487119,1.10289 0.301043,3.15971 -0.07302,0.8072 -0.05509,1.54535 0.03988,1.64028 0.117851,0.11787 0.651179,0.0102 1.680308,-0.34065 0.829214,-0.28233 1.50574,-0.55207 1.503392,-0.59937 -0.0043,-0.0473 -0.154542,-0.98469 -0.338218,-2.08305 -0.424929,-2.5409 -0.415419,-2.66736 0.240373,-3.19585 0.345664,-0.27856 0.391253,-0.33933 0.138349,-0.18447 -0.364459,0.22321 -0.392913,0.2128 -0.847777,-0.30878 -0.258862,-0.29683 -0.472514,-0.61657 -0.474785,-0.71049 -0.0072,-0.31157 0.347412,-0.2599 0.710818,0.10349 0.461116,0.46111 1.286179,0.60799 1.607945,0.28623 0.670822,-0.67083 0.53505,-1.65058 -0.281814,-2.03359 -0.591049,-0.27712 -0.615327,-0.31225 -0.379046,-0.54854 0.111473,-0.11146 0.136968,-0.26839 0.05665,-0.34874 -0.185666,-0.18566 -0.112384,-0.52164 0.10385,-0.47617 0.09007,0.0194 0.256547,-0.0103 0.369895,-0.0634 0.163569,-0.0777 0.180861,-0.0398 0.08381,0.18514 -0.156041,0.36131 -0.110773,0.59166 0.172759,0.87906 0.267983,0.2717 0.294619,0.25055 0.743509,-0.58932 0.190616,-0.3566 0.354365,-0.65716 0.363892,-0.6679 0.0094,-0.0112 1.070742,1.02484 2.358258,2.30128 1.287512,1.27639 2.435622,2.36293 2.551337,2.41442 0.271514,0.12097 0.320247,0.0627 1.651254,-1.96903 z m -8.537969,0.87601 c -0.429753,-0.17802 -0.749616,-0.73671 -0.838565,-1.46478 -0.07971,-0.65214 1.030647,-0.76447 1.630295,-0.1648 0.312584,0.31256 0.265566,1.15409 -0.084,1.50368 -0.230745,0.23071 -0.387394,0.25861 -0.707715,0.1259 z"
       id="path8055"       
       sodipodi:nodetypes="cccssccccccccscccscssscccccccccscscccssccsccscsccccccccccsccsccsccsssssccsccccsscssccccccccccccsscc" />
  </g>
</svg>
