<?xml version="1.0" encoding="UTF-8" standalone="no"?>
<!-- Created with Inkscape (http://www.inkscape.org/) -->

<svg
   xmlns:dc="http://purl.org/dc/elements/1.1/"
   xmlns:cc="http://creativecommons.org/ns#"
   xmlns:rdf="http://www.w3.org/1999/02/22-rdf-syntax-ns#"
   xmlns:svg="http://www.w3.org/2000/svg"
   xmlns="http://www.w3.org/2000/svg"
   xmlns:sodipodi="http://sodipodi.sourceforge.net/DTD/sodipodi-0.dtd"   
   width="220"
   height="235"
   viewBox="0 0 58.208332 62.177085"
   version="1.1"
   id="svg8"   
   sodipodi:docname="l85a1.svg" >
  <defs
     id="defs2" />
  <sodipodi:namedview
     id="base"
     pagecolor="#000000"
     bordercolor="#666666"
     borderopacity="1.0"
     showgrid="false"
     units="px"
     showguides="false" />
  <metadata
     id="metadata5">
    <rdf:RDF>
      <cc:Work
         rdf:about="">
        <dc:format>image/svg+xml</dc:format>
        <dc:type
           rdf:resource="http://purl.org/dc/dcmitype/StillImage" />
        <dc:title></dc:title>
      </cc:Work>
    </rdf:RDF>
  </metadata>
  <g
     id="layer1"
     transform="translate(0,-234.8229)">
    <path
       style="fill:none;stroke:#ffffff;stroke-width:0.4;stroke-opacity:1;stroke-miterlimit:4;stroke-dasharray:none"
       d="m 30.83134,288.79104 c 0.0728,-0.14294 0.199903,-0.34844 0.282431,-0.45665 0.08254,-0.10824 0.219383,-0.34399 0.304127,-0.52393 0.300446,-0.63782 1.500805,-2.79441 1.56364,-2.80927 0.06212,-0.0144 0.267966,-0.52071 0.293545,-0.72165 0.0065,-0.0553 -0.01596,-0.0945 -0.05109,-0.0877 -0.07866,0.0154 -4.924588,-2.39364 -5.652271,-2.81001 -0.669792,-0.38325 -1.891762,-1.2502 -2.469427,-1.75196 -0.388297,-0.33731 -0.437363,-0.3966 -0.37765,-0.45632 0.07253,-0.0726 0.04464,-0.62829 -0.03556,-0.70846 -0.02591,-0.026 -0.108559,-0.0568 -0.183662,-0.0683 -0.118431,-0.0185 -0.141184,-0.002 -0.171491,0.12995 -0.01921,0.0831 -0.0039,0.19791 0.0387,0.25493 0.0405,0.0572 -0.266725,-0.20486 -0.682717,-0.58209 -0.415982,-0.37726 -0.787268,-0.73159 -0.825083,-0.78742 -0.09465,-0.13973 -0.150809,-0.0725 3.619416,-4.32982 1.074056,-1.21277 1.146887,-1.28552 1.256045,-1.25473 0.06374,0.0182 0.260125,-0.0141 0.43642,-0.0721 0.54861,-0.17956 1.213354,-0.10428 1.681717,0.19063 0.238254,0.14997 0.316069,0.35483 0.5846,1.53927 0.360852,1.59154 0.978337,3.30322 1.702548,4.71936 0.375545,0.73434 0.402701,0.76661 0.706775,0.84036 0.126329,0.0309 0.254964,0.0809 0.285856,0.11185 0.08158,0.0814 0.476917,0.0555 0.803562,-0.0529 0.155697,-0.0518 0.660556,-0.27242 1.121913,-0.49055 0.706028,-0.3338 0.895637,-0.45011 1.197695,-0.73494 0.197385,-0.18614 0.472693,-0.40474 0.611803,-0.48578 0.210124,-0.12248 0.268351,-0.18497 0.344032,-0.36932 0.110148,-0.26824 0.04259,-0.50051 -0.253545,-0.87182 -0.207009,-0.25957 -0.25905,-0.29109 -0.746741,-0.45243 l -0.524236,-0.17342 -0.334286,-0.55841 c -0.85098,-1.42151 -2.072745,-3.82162 -2.232957,-4.38666 -0.07574,-0.26703 0.02952,-0.62175 0.249809,-0.84208 0.06559,-0.0656 0.165565,-0.20281 0.222168,-0.3049 0.0912,-0.16457 0.14265,-0.19242 0.451928,-0.2448 0.849085,-0.14375 1.400107,-0.43818 2.055514,-1.09816 0.654285,-0.65889 0.822691,-1.01327 0.817384,-1.71996 -0.0049,-0.64605 -0.187813,-1.07573 -0.665178,-1.56226 -0.276779,-0.28208 -0.398725,-0.36778 -0.614253,-0.43169 -0.382275,-0.11333 -0.958016,-0.10347 -1.204411,0.0208 -0.207776,0.10469 -0.901784,0.83761 -1.059927,1.11941 -0.05126,0.0913 -0.0889,0.10722 -0.137918,0.0581 -0.03707,-0.0372 -0.02957,-0.11783 0.0167,-0.17942 0.08338,-0.11099 0.07094,-0.13819 -0.19288,-0.42329 -0.15373,-0.16613 -0.07941,-0.22267 0.265007,-0.20172 0.352957,0.0216 0.515619,-0.0627 1.092948,-0.56605 l 0.455527,-0.39711 0.500479,-0.0414 c 0.766538,-0.0635 0.732272,-0.0435 1.611551,-0.94287 0.428844,-0.43867 0.819367,-0.85233 0.867827,-0.91928 0.04847,-0.067 0.50779,-0.5649 1.020719,-1.10664 0.512923,-0.54172 1.188244,-1.25884 1.500696,-1.59356 0.312452,-0.3347 0.940093,-1.00138 1.394754,-1.4815 0.763406,-0.80623 4.968645,-5.28897 6.581392,-7.01575 0.803888,-0.86073 0.84011,-0.9436 0.615163,-1.40754 -0.107386,-0.22145 -0.294369,-0.44393 -0.802694,-0.9552 l -0.662688,-0.66655 1.956109,-1.9561 1.95611,-1.95609 0.180338,0.0375 c 0.158181,0.0329 0.210834,0.01 0.428536,-0.21336 0.140593,-0.14226 0.256412,-0.31074 0.267152,-0.38888 0.0151,-0.10999 0.188884,-0.29811 0.85799,-0.92883 0.728034,-0.68625 0.864685,-0.79473 1.032864,-0.81999 0.167125,-0.025 0.244422,-0.0859 0.561091,-0.44127 0.588007,-0.65988 2.060496,-2.10215 2.184604,-2.13973 0.171683,-0.052 0.358024,-0.26288 0.389353,-0.44072 0.0727,-0.41261 -0.641799,-1.27741 -1.112025,-1.34598 -0.223962,-0.0326 -0.603508,0.18685 -0.641523,0.37109 -0.02474,0.11992 -1.694754,1.76209 -1.773164,1.74361 -0.03333,-0.01 -0.253117,0.17826 -0.488461,0.4136 -0.331883,0.33184 -0.425338,0.45536 -0.416501,0.5505 0.0096,0.10298 -0.118897,0.25126 -0.800444,0.9239 -0.709701,0.70039 -0.841957,0.81029 -1.051135,0.87348 -0.3518,0.10628 -0.573533,0.3532 -0.563126,0.62709 l 0.0083,0.22249 -0.97601,0.91944 c -0.536795,0.50572 -1.392005,1.33109 -1.900447,1.83424 -0.50845,0.50309 -0.984007,0.95518 -1.056809,1.00462 -0.109657,0.0745 -0.168344,0.0631 -0.342098,-0.0649 -0.290321,-0.2146 -0.629476,-0.28328 -0.883655,-0.17891 -0.210391,0.0864 -0.912906,0.7439 -3.398508,3.18081 -0.399413,0.39157 -0.700851,0.66866 -0.669859,0.61574 0.03098,-0.0528 0.03227,-0.12024 0.0049,-0.14964 -0.101202,-0.1012 -0.26307,-0.0532 -0.450041,0.13395 l -0.187399,0.1874 -0.451865,-0.44153 c -0.248519,-0.24289 -0.465733,-0.46692 -0.482707,-0.49787 -0.01696,-0.0313 -0.516167,-0.55155 -1.109334,-1.15686 -0.593169,-0.60529 -1.164623,-1.21049 -1.269889,-1.34492 -0.126305,-0.16128 -0.369797,-0.36245 -0.715951,-0.59147 -0.741763,-0.49079 -0.793292,-0.48367 -1.444953,0.20018 l -0.495835,0.52031 0.292814,0.36092 c 0.161047,0.1985 0.744498,0.80154 1.296554,1.34015 0.552056,0.53856 0.993473,0.98946 0.980927,1.00196 -0.03401,0.0338 0.310016,0.56955 0.466054,0.72558 0.07589,0.0759 0.172783,0.11916 0.219881,0.0982 0.05973,-0.0265 0.159794,0.0397 0.344533,0.22778 0.143186,0.1459 0.233725,0.2716 0.201181,0.27929 -0.03255,0.01 0.0018,0.0738 0.07415,0.14728 0.129088,0.12913 0.128265,0.1333 -0.02589,0.1333 -0.08756,0 -0.20502,-0.0206 -0.261021,-0.0452 -0.219306,-0.0977 -0.155413,-0.15606 -4.069887,3.71823 -0.58195,0.57603 -1.063711,1.02346 -1.07058,0.99434 -0.0063,-0.0293 -0.04304,-0.0224 -0.08043,0.0146 -0.03736,0.0373 -0.05064,0.0851 -0.02955,0.10638 0.02114,0.0214 -0.294311,0.37315 -0.700964,0.78236 -0.406592,0.40923 -0.745283,0.71887 -0.752508,0.68824 -0.0068,-0.0307 -0.05019,-0.01 -0.09549,0.0555 -0.04527,0.0612 -0.298418,0.34039 -0.56252,0.62062 -0.397081,0.42135 -0.474564,0.52938 -0.447764,0.62433 0.02294,0.0812 -0.02498,0.17212 -0.163921,0.31109 -0.120819,0.12084 -0.26422,0.3648 -0.372831,0.63434 -0.106426,0.26407 -0.252539,0.51402 -0.368046,0.62951 -0.122552,0.12256 -0.173029,0.21226 -0.140137,0.24908 0.02828,0.0319 -0.0049,0.0353 -0.07371,0.01 -0.124218,-0.049 -0.12468,-0.0486 -0.06262,0.0678 0.06179,0.11567 0.04489,0.1343 -1.441246,1.59268 -1.670564,1.63933 -2.694273,2.59292 -2.731579,2.54441 -0.01353,-0.0177 -0.04903,-0.0466 -0.07889,-0.0648 -0.02988,-0.0182 -0.125352,-0.0991 -0.212167,-0.18007 l -0.157876,-0.14721 -0.296464,0.27012 c -0.163062,0.14852 -0.327953,0.27012 -0.366429,0.27018 -0.03844,8e-5 -0.438438,-0.54693 -0.888796,-1.21564 -0.450362,-0.66869 -0.904382,-1.3013 -1.008928,-1.40587 -0.132744,-0.13272 -0.1655,-0.19591 -0.108573,-0.20935 0.125872,-0.03 -0.218165,-0.23817 -0.50468,-0.30582 -0.354551,-0.0836 -0.734426,0.016 -1.103806,0.29016 -0.175643,0.1303 -1.075064,0.87357 -1.998726,1.65171 -0.923657,0.77818 -2.405503,2.0223 -3.292986,2.76473 l -1.613606,1.34985 -0.344026,0.01 c -0.524074,0.01 -0.847011,0.15389 -1.275192,0.57978 -0.551618,0.54866 -0.702804,1.04363 -0.509561,1.66796 l 0.106885,0.34531 1.732834,1.7254 c 1.936435,1.92808 1.775584,1.707 1.531642,2.10564 -0.06323,0.10328 -0.05358,0.1706 0.041,0.28552 0.106204,0.12907 0.106626,0.17538 0.004,0.32689 -0.129202,0.18887 -0.599601,0.57515 -0.645059,0.52972 -0.01504,-0.0147 -0.136744,0.0301 -0.270435,0.10001 -0.315179,0.16509 -1.154558,0.97442 -5.8020307,5.59426 -3.8277662,3.80497 -4.3226835,4.31353 -4.1052869,4.21855 0.08461,-0.0369 0.051261,0.0223 -0.1101446,0.19495 -0.127303,0.13637 -0.2566678,0.26193 -0.2874574,0.27909 -0.030784,0.0174 -0.2307054,0.20944 -0.4442384,0.42736 -0.3138885,0.32026 -0.3688606,0.36075 -0.287026,0.21105 0.057729,-0.10554 0.069529,-0.19263 0.027457,-0.20256 -0.049495,-0.0121 -0.3036296,0.23043 -0.7716683,0.73499 -1.28886897,1.38948 -1.40072237,1.66258 -0.8897073,2.17234 0.1547081,0.15476 0.4393615,0.36078 0.6481111,0.46991 1.1714336,0.61236 2.1211834,1.18313 3.1305885,1.88114 0.6676394,0.46175 0.8038429,0.57377 1.7891237,1.47144 0.5165534,0.47058 0.9987963,0.89406 1.0716504,0.94107 0.07285,0.047 0.456992,0.38848 0.8536427,0.75883 l 0.7211737,0.67342 0.2476558,-0.01 c 0.226197,-0.01 0.276959,-0.0372 0.5857747,-0.34614 0.323028,-0.32303 0.344618,-0.36261 0.483939,-0.88743 0.08019,-0.30215 0.179761,-0.58092 0.221244,-0.61944 0.04151,-0.0386 0.0604,-0.10385 0.042,-0.14513 -0.01839,-0.0414 0.0648,-0.4221 0.184878,-0.84631 0.392034,-1.38491 0.467258,-1.77876 0.40455,-2.11806 -0.04553,-0.24622 -0.03179,-0.34906 0.05861,-0.43901 0.06494,-0.0645 1.653601,-1.87115 3.530379,-4.01459 1.876781,-2.14337 3.425311,-3.89708 3.441184,-3.89708 0.04477,0 1.166166,0.96055 1.538872,1.31819 0.183473,0.17607 0.362864,0.378 0.398637,0.44874 0.05176,0.1024 0.09708,0.1166 0.222388,0.0698 0.140915,-0.0528 0.19532,-0.0272 0.52069,0.24446 0.610927,0.50999 1.772707,1.31038 2.705864,1.86415 0.722572,0.42882 2.383766,1.26297 6.064295,3.04518 0.201672,0.0976 0.282696,0.10195 0.403481,0.0218 0.08309,-0.0554 0.168292,-0.0836 0.189269,-0.0627 0.04869,0.0489 0.06953,0.0222 0.230062,-0.29288 z m 4.332653,-20.31266 c -0.412728,0.24458 -0.928175,0.4443 -1.322657,0.51245 l -0.207962,0.0358 -0.742502,-0.75211 c -0.826345,-0.83705 -1.128376,-1.19426 -1.064098,-1.25854 0.02368,-0.0238 0.08564,0.02 0.137748,0.0964 0.14738,0.21702 0.236934,0.22621 0.420196,0.0429 0.09188,-0.0919 0.196724,-0.16013 0.232954,-0.15154 0.03623,0.01 0.113698,0.12718 0.172153,0.26361 0.127709,0.29809 0.191517,0.33932 1.035527,0.66922 0.863475,0.33746 0.965334,0.31407 1.492527,-0.34298 0.34892,-0.43489 0.360623,-0.61259 0.03722,-0.56472 -0.119793,0.0178 -0.420165,0.0346 -0.667495,0.0381 -0.497631,0.01 -1.006878,-0.18022 -1.304242,-0.47757 -0.167517,-0.16753 -0.168229,-0.17719 -0.02373,-0.3216 0.18817,-0.18824 0.249506,-0.32427 0.178308,-0.39543 -0.07973,-0.08 0.02702,-0.24382 0.51615,-0.79303 0.385932,-0.43334 0.460508,-0.49424 0.700113,-0.57197 0.734428,-0.23821 1.385412,0.0885 1.821339,0.91409 0.177251,0.33563 0.314951,1.05335 0.202099,1.05335 -0.02421,0 -0.08308,0.12272 -0.130868,0.27277 -0.203164,0.63804 -0.785138,1.31743 -1.482771,1.73093 z m -15.784008,0.41976 c -0.675384,0.69519 -0.891547,0.89138 -0.992873,0.90073 -0.278501,0.0259 -0.440354,0.13323 -0.650885,0.43138 -0.135584,0.19203 -0.185045,0.31243 -0.144847,0.35264 0.04946,0.0496 -0.05529,0.17735 -0.550821,0.67288 -0.903796,0.90381 -0.966248,0.91538 -2.093156,0.38747 -0.315655,-0.14789 -0.641191,-0.33614 -0.723415,-0.41835 -0.175179,-0.17518 -0.28751,-0.48588 -0.236527,-0.65427 0.04748,-0.15679 0.725569,-1.43335 1.185517,-2.23185 0.201497,-0.34979 0.463942,-0.81295 0.583215,-1.02922 0.203625,-0.36929 0.918315,-1.16629 1.141092,-1.27254 0.04248,-0.0206 0.941497,-0.7595 1.997828,-1.64272 1.166676,-0.97553 1.986589,-1.62693 2.088709,-1.65945 0.256848,-0.0816 0.477851,-0.0506 0.681159,0.0959 0.34,0.24507 1.254544,1.61519 1.31203,1.96562 0.01691,0.10296 -0.01142,0.31924 -0.06295,0.48064 -0.08858,0.27757 -0.13476,0.33317 -0.850636,1.02497 -0.748356,0.72314 -0.760541,0.73221 -1.068785,0.79478 -0.162043,0.01 -0.996016,0.50249 -0.49925,0.31445 0.111449,-0.0424 0.268588,-0.0539 0.349195,-0.0261 0.12414,0.0431 0.127281,0.0491 0.02053,0.0386 -0.353341,-0.0344 -0.657865,0.29139 -0.524576,0.56124 0.04362,0.0883 0.0384,0.111 -0.01736,0.0754 -0.06835,-0.0435 -0.203825,0.0766 -0.94318,0.83779 z"
       id="path8068"       
       sodipodi:nodetypes="cccccccssscccccsccssscsccccccccscsccccccccscccccsccsccccsccccccsccsccccssccsccccsccssscccscccccccscccsccccsscccccssscccccsccccsscccscccccccsccsccccsccccccscccccsccccccssccccsccscccccsscsccscccsssccscccccccssssccccsccccscccccccc" />
  </g>
</svg>
