<?xml version="1.0" encoding="UTF-8" standalone="no"?>
<!-- Created with Inkscape (http://www.inkscape.org/) -->

<svg
   xmlns:dc="http://purl.org/dc/elements/1.1/"
   xmlns:cc="http://creativecommons.org/ns#"
   xmlns:rdf="http://www.w3.org/1999/02/22-rdf-syntax-ns#"
   xmlns:svg="http://www.w3.org/2000/svg"
   xmlns="http://www.w3.org/2000/svg"
   xmlns:sodipodi="http://sodipodi.sourceforge.net/DTD/sodipodi-0.dtd"   
   width="220"
   height="235"
   viewBox="0 0 58.208332 62.177085"
   version="1.1"
   id="svg8"   
   sodipodi:docname="m1-garand.svg" >
  <defs
     id="defs2" />
  <sodipodi:namedview
     id="base"
     pagecolor="#000000"
     bordercolor="#666666"
     borderopacity="1.0"
     showgrid="false"
     units="px"
     showguides="false" />
  <metadata
     id="metadata5">
    <rdf:RDF>
      <cc:Work
         rdf:about="">
        <dc:format>image/svg+xml</dc:format>
        <dc:type
           rdf:resource="http://purl.org/dc/dcmitype/StillImage" />
        <dc:title></dc:title>
      </cc:Work>
    </rdf:RDF>
  </metadata>
  <g     
     id="layer1"
     transform="translate(0,-234.8229)">
    <path
       style="fill:none;stroke:#ffffff;stroke-width:0.4;stroke-opacity:1;stroke-miterlimit:4;stroke-dasharray:none"
       d="m 11.605847,294.33055 c 0.267561,-0.47248 0.680743,-1.24613 0.918179,-1.71921 0.479448,-0.95536 0.48667,-0.96637 0.574471,-0.87854 0.09205,0.0921 0.646613,0.1523 0.935618,0.10163 0.302642,-0.0531 0.684935,-0.30591 0.723914,-0.47883 0.03914,-0.1736 -0.306573,-0.24929 -0.994837,-0.21766 -0.378056,0.0172 -0.514981,-0.01 -0.478077,-0.0826 0.121441,-0.25095 1.158076,-2.3655 1.681051,-3.42905 1.20419,-2.44891 2.150613,-3.80882 2.674838,-3.84354 0.219422,-0.0145 0.223804,-0.0186 0.09082,-0.0801 -0.132344,-0.0615 -0.11408,-0.087 0.344861,-0.48555 0.266532,-0.23139 0.762929,-0.59318 1.103108,-0.80402 l 0.618507,-0.38329 -0.02274,-0.2982 c -0.0125,-0.16399 -0.05337,-0.54542 -0.09082,-0.84759 -0.144747,-1.1674 0.121285,-2.37267 0.871521,-3.94858 l 0.182266,-0.38285 0.295791,0.2958 c 0.340598,0.34059 0.630588,0.45393 1.065624,0.4165 0.757789,-0.0652 1.779058,-0.96938 2.077288,-1.83895 0.08612,-0.25109 0.139287,-0.53128 0.11817,-0.62267 -0.02603,-0.11267 0.02325,-0.22777 0.153173,-0.35769 0.264498,-0.26448 0.242109,-0.39936 -0.127665,-0.76916 l -0.319243,-0.31925 0.451206,-0.38299 c 0.948246,-0.80499 2.582811,-2.30937 3.492281,-3.2141 0.899058,-0.89442 0.975929,-0.98969 1.514186,-1.87656 0.311877,-0.51389 0.783052,-1.2269 1.047058,-1.58456 1.240272,-1.68007 4.611838,-5.71982 7.100442,-8.50766 0.767874,-0.86021 1.456008,-1.64946 1.529179,-1.75394 0.120119,-0.17143 0.131247,-0.17338 0.114597,-0.0205 -0.01016,0.0935 0.0098,0.19816 0.04422,0.2326 0.03446,0.0342 0.0251,0.14634 -0.02082,0.24863 -0.226863,0.50523 -0.334656,0.88429 -0.283871,0.99832 0.116808,0.26228 0.254856,0.12292 0.477462,-0.482 0.12311,-0.33461 0.254026,-0.61549 0.290917,-0.62419 0.100672,-0.0238 0.311273,-0.47841 0.294459,-0.63572 -0.0079,-0.0756 -0.196738,-0.32511 -0.419206,-0.55434 -0.222469,-0.22928 -0.404484,-0.43176 -0.404493,-0.44987 0,-0.0182 2.189848,-2.23601 4.866339,-4.92854 l 4.866325,-4.89543 0.14495,0.14492 c 0.208452,0.20849 0.49365,0.14289 0.642107,-0.14767 0.0633,-0.12395 0.33476,-0.45133 0.603196,-0.72754 0.311143,-0.32018 0.488074,-0.551 0.488083,-0.63677 2.1e-5,-0.25625 -0.232788,-0.15358 -0.716024,0.31573 -0.255023,0.24766 -0.499314,0.45033 -0.542887,0.45032 -0.04357,0 0.229121,-0.29471 0.605997,-0.65483 l 0.685216,-0.65482 0.135368,0.13377 c 0.132091,0.13041 0.146588,0.12324 0.594208,-0.29388 0.372048,-0.3467 0.44395,-0.44234 0.380351,-0.50594 -0.04314,-0.0432 -0.116437,-0.0594 -0.162891,-0.0363 -0.04938,0.0245 -0.09553,-0.008 -0.111076,-0.0708 -0.02114,-0.0895 0.338191,-0.4697 1.748439,-1.84976 l 1.775063,-1.73693 -0.324924,-0.35725 c -0.195436,-0.21486 -0.3804,-0.3624 -0.464077,-0.37017 -0.07654,-0.01 -0.11997,-0.036 -0.09654,-0.0642 0.02342,-0.0284 0.0928,-0.12223 0.154223,-0.20878 0.0614,-0.0867 0.23042,-0.30513 0.375588,-0.48558 0.145174,-0.18046 0.269528,-0.38306 0.276345,-0.45025 0.01281,-0.12619 -0.360016,-0.54447 -0.567806,-0.637 -0.09577,-0.0428 -0.211726,0.0414 -0.620171,0.44987 -0.276856,0.27684 -0.541458,0.49317 -0.589453,0.48185 -0.04792,-0.0119 -0.156333,0.049 -0.240968,0.13328 -0.301327,0.30136 -0.356532,0.29183 -0.783886,-0.13556 -0.538384,-0.5384 -0.696715,-0.5992 -0.991137,-0.38061 -0.310367,0.23045 -0.681866,0.74979 -0.647093,0.90465 0.01513,0.0673 0.251156,0.34681 0.524517,0.62109 0.360678,0.36193 0.478901,0.51748 0.430982,0.56719 -1.218478,1.26409 -4.124491,4.09194 -4.177988,4.06562 -0.03883,-0.0194 -0.125275,0.0203 -0.192066,0.0868 -0.07506,0.0749 -0.191391,0.0951 -0.304694,0.0527 -0.178225,-0.0666 -0.209187,-0.0446 -1.126603,0.8013 -0.518833,0.47846 -2.822434,2.72056 -5.119111,4.98257 -2.296675,2.26197 -4.21544,4.12145 -4.263929,4.13218 -0.08791,0.0198 -8.403444,8.23707 -11.504707,11.36929 -1.383261,1.39703 -1.701981,1.7509 -2.081223,2.31065 -0.754993,1.11433 -1.774659,1.99791 -2.6333,2.28189 -0.477145,0.15779 -0.481963,0.16146 -0.445872,0.34023 0.03387,0.16771 0.01342,0.19396 -0.284362,0.36546 -0.645659,0.37186 -0.931544,0.41618 -1.377364,0.21353 -0.106679,-0.0486 -0.170277,-0.0118 -0.330584,0.19138 -0.109172,0.13824 -0.221753,0.30365 -0.250208,0.36751 -0.07094,0.15928 0.05762,0.47291 0.341454,0.83303 0.368078,0.46694 0.345788,0.55112 -0.390521,1.47469 -0.352846,0.44257 -0.717037,0.90795 -0.809315,1.03411 l -0.167777,0.22939 0.33857,0.46882 c 0.331433,0.45891 0.409254,0.70417 0.268214,0.84525 -0.0387,0.0387 -0.07179,0.45019 -0.07352,0.91448 -0.0049,1.30334 -0.290898,2.08073 -1.038613,2.82266 -0.314551,0.31213 -0.553382,0.48365 -0.877121,0.62986 -1.063408,0.48045 -0.799179,0.2393 -6.0110318,5.4853 -3.634022,3.65782 -4.8588,4.92282 -4.919233,5.08081 -0.132821,0.34732 0.01519,0.64807 0.642585,1.30584 1.195881,1.25373 4.594656,4.17481 5.014262,4.30949 0.09295,0.0301 0.2731508,0.0592 0.4004228,0.0652 0.33682,0.0155 0.719202,-0.40839 1.311771,-1.45475 z m 10.836269,-17.35668 c -0.463225,0.12944 -1.005983,-0.0289 -1.320726,-0.38512 l -0.227207,-0.2572 0.349842,-0.34981 0.349838,-0.34984 0.346411,0.38467 c 0.305319,0.33901 0.388407,0.39318 0.700442,0.45669 0.194711,0.0398 0.37647,0.0499 0.403902,0.0223 0.108672,-0.1087 -0.0049,-0.22732 -0.244054,-0.25591 -0.48456,-0.0579 -0.851453,-0.65031 -0.671606,-1.08445 0.109281,-0.2639 1.27275,-1.3214 1.358927,-1.23522 0.02819,0.0282 0.05125,0.12601 0.05125,0.21747 0,0.11256 0.08838,0.24687 0.273799,0.41609 0.240631,0.21963 0.271153,0.28545 0.251899,0.54319 -0.0199,0.26643 -0.09563,0.46523 -0.32443,0.85183 -0.04402,0.0745 -0.275237,0.31349 -0.51382,0.53132 -0.325014,0.2968 -0.521701,0.42066 -0.784451,0.49411 z"
       id="path8081"       
       sodipodi:nodetypes="ccsccccccccccccccsccsssccccccccsccccccccccccsccccccscccccccccccscsscccscscccccsccccccccsccscccccccccccccccccsccsccccccc" />
  </g>
</svg>
