<?xml version="1.0" encoding="UTF-8" standalone="no"?>
<!-- Created with Inkscape (http://www.inkscape.org/) -->

<svg
   xmlns:dc="http://purl.org/dc/elements/1.1/"
   xmlns:cc="http://creativecommons.org/ns#"
   xmlns:rdf="http://www.w3.org/1999/02/22-rdf-syntax-ns#"
   xmlns:svg="http://www.w3.org/2000/svg"
   xmlns="http://www.w3.org/2000/svg"
   xmlns:sodipodi="http://sodipodi.sourceforge.net/DTD/sodipodi-0.dtd"   
   width="220"
   height="235"
   viewBox="0 0 58.208332 62.177085"
   version="1.1"
   id="svg8"   
   sodipodi:docname="m14.svg" >
  <defs
     id="defs2" />
  <sodipodi:namedview
     id="base"
     pagecolor="#000000"
     bordercolor="#666666"
     borderopacity="1.0"
     showgrid="false"
     units="px"
     showguides="false" />
  <metadata
     id="metadata5">
    <rdf:RDF>
      <cc:Work
         rdf:about="">
        <dc:format>image/svg+xml</dc:format>
        <dc:type
           rdf:resource="http://purl.org/dc/dcmitype/StillImage" />
        <dc:title></dc:title>
      </cc:Work>
    </rdf:RDF>
  </metadata>
  <g
     id="layer1"
     transform="translate(0,-234.8229)">
    <path
       style="fill:none;stroke:#ffffff;stroke-width:0.4;stroke-opacity:1;stroke-miterlimit:4;stroke-dasharray:none"
       d="m 30.323315,276.0847 c -0.04898,-0.0117 -0.223136,-0.15212 -1.039084,-0.83858 -0.385466,-0.32428 -0.922664,-0.77554 -1.193792,-1.0028 -0.271119,-0.22721 -0.968784,-0.81454 -1.550368,-1.30513 -1.337694,-1.12846 -1.243775,-1.06263 -1.355797,-0.95057 l -0.08967,0.0896 0.258443,0.35937 c 0.312879,0.43503 0.330069,0.47989 0.224389,0.58558 -0.09911,0.0991 -0.138997,0.0659 -0.430502,-0.35649 -0.120194,-0.17423 -0.21778,-0.28696 -0.248385,-0.28697 -0.02773,0 -0.269827,0.1329 -0.537998,0.29533 -0.391436,0.23712 -0.541426,0.34919 -0.760602,0.5684 -0.215058,0.21503 -0.264901,0.2811 -0.234772,0.31123 0.04749,0.0476 0.01197,0.13118 -0.105405,0.24858 l -0.0901,0.09 0.39757,0.42394 c 0.266822,0.2845 0.399937,0.44944 0.404767,0.50132 0.005,0.0599 -0.05284,0.13744 -0.259395,0.34398 l -0.266584,0.26654 0.04898,0.22938 c 0.111004,0.51963 -0.03309,0.93782 -0.472142,1.37034 -0.478361,0.47128 -0.972642,0.66539 -1.508095,0.59222 -0.345206,-0.0471 -0.556046,-0.15204 -0.886474,-0.44098 l -0.280193,-0.24504 0.0312,0.29435 c 0.01869,0.1762 0.124736,0.5614 0.264271,0.95983 0.243808,0.69618 0.276791,0.77955 1.241686,3.13888 0.774334,1.89333 0.775022,1.89546 0.686367,2.12477 -0.09057,0.23422 -0.803321,1.02735 -1.766068,1.96515 -0.910638,0.88702 -0.881126,0.88824 -1.301388,-0.0524 -0.502182,-1.1239 -0.713325,-1.88297 -0.999826,-3.59445 -0.08661,-0.51738 -0.198295,-1.06035 -0.248186,-1.20659 -0.07958,-0.2333 -0.117907,-0.29291 -0.31252,-0.486 -0.191789,-0.19033 -0.249699,-0.22739 -0.42788,-0.2739 -0.465947,-0.12163 -0.850261,-0.0364 -1.131039,0.25085 -0.126617,0.1295 -0.214354,0.28014 -0.394105,0.67666 -0.296055,0.65314 -0.887819,2.3624 -1.09308,3.1573 -0.08738,0.33847 -0.240726,0.84816 -0.340718,1.13265 -0.100001,0.28455 -0.269358,0.80709 -0.37635,1.16125 -0.489174,1.6192 -0.774833,2.52642 -0.924052,2.93468 l -0.161685,0.44239 0.263307,0.30405 c 0.305263,0.35245 0.349108,0.44023 0.345199,0.69086 -0.0049,0.34922 -0.335031,0.54157 -0.706628,0.4124 -0.09655,-0.0337 -0.227663,-0.11314 -0.291331,-0.17677 -0.08543,-0.0854 -0.132786,-0.10768 -0.180837,-0.0846 -0.0358,0.0169 -0.100362,0.034 -0.143473,0.0373 -0.06725,0.009 -0.07201,0.0275 -0.03343,0.15617 0.08299,0.27663 -0.112632,0.65422 -0.815302,1.57381 -0.54349,0.71129 -0.833819,1.06419 -1.412713,1.71738 -0.2483417,0.2802 -0.4967627,0.5695 -0.5520477,0.64284 -0.05703,0.0753 -0.1277706,0.13591 -0.1635374,0.13922 -0.035796,0.006 -0.2544529,0.18957 -0.5061727,0.43121 l -0.443148,0.42538 -0.1868076,-0.013 c -0.6129498,-0.0418 -0.6733411,-0.0603 -1.028036,-0.31007 -0.3261523,-0.22984 -0.9374497,-0.70854 -1.2934703,-1.01268 -0.1302968,-0.11132 -0.3676193,-0.31089 -0.5273762,-0.44353 -0.1597598,-0.13259 -0.6499098,-0.58361 -1.0892269,-1.00222 -0.616721,-0.58769 -0.8121485,-0.79049 -0.8575284,-0.88983 -0.034474,-0.0754 -0.2436508,-0.32518 -0.5060369,-0.604 l -0.4472663,-0.47533 0.063844,-0.0957 c 0.078737,-0.1181 0.05698,-0.26345 -0.056416,-0.37684 -0.051116,-0.0512 -0.097502,-0.16089 -0.1146027,-0.27126 -0.055566,-0.35866 -0.016413,-0.48213 0.2645993,-0.83445 0.1683372,-0.21102 0.179769,-0.24062 0.1836669,-0.47527 0.00234,-0.13767 0.018598,-0.29514 0.036252,-0.34999 0.07483,-0.23242 0.9494106,-1.069 1.9253808,-1.84171 0.9096452,-0.72019 1.9557905,-1.60332 3.3499107,-2.82789 0.5064871,-0.44492 1.112017,-0.97611 1.3456197,-1.18043 1.3352597,-1.16797 3.6552937,-3.54257 4.8508767,-4.96503 0.313769,-0.37336 0.706329,-0.83947 0.872344,-1.03588 0.166017,-0.1964 0.622226,-0.69871 1.013792,-1.1162 0.391575,-0.41751 0.71195,-0.7746 0.71195,-0.79354 0,-0.0193 -0.124083,-0.24994 -0.275744,-0.51325 l -0.275744,-0.47886 0.07417,-0.11178 c 0.04079,-0.0616 0.343588,-0.42311 0.672893,-0.80359 0.511057,-0.59045 0.612151,-0.72432 0.690403,-0.91417 0.05043,-0.12232 0.113588,-0.24453 0.140377,-0.27148 0.02681,-0.0272 0.03333,-0.11381 0.0145,-0.19297 -0.02811,-0.11818 -0.09594,-0.21057 -0.379515,-0.51681 -0.329748,-0.35608 -0.346408,-0.38104 -0.369769,-0.55471 -0.03723,-0.27663 0.01487,-0.43099 0.211989,-0.62837 0.164887,-0.1651 0.176767,-0.16985 0.456758,-0.18241 0.158104,-0.01 0.366395,0.0152 0.462872,0.0504 0.166554,0.0601 0.190451,0.0558 0.473615,-0.0869 0.357103,-0.17966 0.786812,-0.49455 0.987849,-0.72386 l 0.1462,-0.16673 -0.116879,-0.13337 c -0.07224,-0.0826 -0.108882,-0.15692 -0.09591,-0.19488 0.08796,-0.25766 0.102202,-0.27502 0.5837,-0.71062 l 0.485903,-0.43962 0.09892,0.0659 c 0.0544,0.0362 0.214026,0.19166 0.354708,0.3455 l 0.255792,0.27959 -0.11017,0.11663 c -0.0606,0.0641 -0.138315,0.1627 -0.172717,0.21889 l -0.06256,0.10221 0.09596,-0.0414 c 0.06191,-0.0268 0.449787,-0.40866 1.092855,-1.07627 l 0.996888,-1.03494 0.311878,-0.56672 c 0.286786,-0.52115 0.336166,-0.59107 0.613787,-0.86889 0.361217,-0.36142 0.717218,-0.80251 0.797184,-0.98756 0.03476,-0.0803 0.221211,-0.31234 0.464907,-0.57844 0.494239,-0.53959 0.641146,-0.6786 0.725548,-0.68644 0.04466,-0.007 0.06652,-0.0253 0.0706,-0.0689 0.0049,-0.0432 0.516409,-0.5565 1.638915,-1.6422 0.898152,-0.86867 2.156268,-2.09406 2.795821,-2.72304 0.639545,-0.62891 1.214285,-1.1909 1.277188,-1.24883 0.06292,-0.0579 0.56982,-0.5616 1.126506,-1.11935 0.580203,-0.58127 1.043693,-1.02359 1.086059,-1.03643 0.0467,-0.0144 0.09292,-0.0618 0.125576,-0.12933 0.04105,-0.0849 1.095161,-1.14354 2.173033,-2.18215 0.02309,-0.0224 0.346571,-0.35638 0.718903,-0.74254 0.37233,-0.38615 0.84917,-0.84834 1.059733,-1.02699 0.210529,-0.1787 0.610975,-0.54147 0.889875,-0.80625 0.278904,-0.26473 0.767798,-0.71487 1.086423,-1.00028 0.318632,-0.28544 0.759247,-0.69736 0.979149,-0.91541 0.460018,-0.45613 0.564003,-0.51551 0.786039,-0.44892 0.148961,0.0444 0.159411,0.0411 0.306606,-0.10612 0.08381,-0.0837 0.193528,-0.15999 0.243812,-0.16929 0.139252,-0.0255 1.078412,-0.91558 1.097747,-1.04014 0.01096,-0.0707 0.127921,-0.20515 0.514796,-0.59201 0.486195,-0.48623 0.504702,-0.50096 0.643161,-0.51328 l 0.142558,-0.0129 2.469007,-2.42864 c 2.23962,-2.20302 2.470743,-2.43856 2.487793,-2.5353 0.01239,-0.0704 0.07764,-0.16556 0.191839,-0.27975 0.16048,-0.16049 0.169865,-0.18009 0.129387,-0.27026 -0.02401,-0.0534 -0.123161,-0.17673 -0.220335,-0.27388 -0.160112,-0.16009 -0.171371,-0.18199 -0.120106,-0.23327 0.05337,-0.0532 0.04501,-0.066 -0.148157,-0.22457 -0.253148,-0.20774 -0.26009,-0.27925 -0.04608,-0.47537 0.08082,-0.0742 0.158379,-0.18124 0.179744,-0.24839 0.05321,-0.16718 0.132944,-0.23314 0.281761,-0.23314 0.116472,0 0.1452,0.0192 0.29325,0.19276 0.151648,0.17813 0.169721,0.1895 0.237729,0.14971 0.06487,-0.0381 0.09343,-0.0234 0.240912,0.12423 0.09324,0.0932 0.17947,0.15514 0.194774,0.13983 0.0151,-0.0152 0.0689,0.014 0.119523,0.0647 l 0.09206,0.0922 0.227829,-0.19232 c 0.125304,-0.10579 0.817366,-0.78184 1.537915,-1.50238 1.30234,-1.30233 1.310849,-1.31025 1.445286,-1.32629 0.277188,-0.033 0.57611,0.18413 0.685187,0.49789 0.111206,0.31989 0.152071,0.26739 -1.309865,1.68347 -0.709187,0.6869 -1.378198,1.3549 -1.486689,1.48451 -0.1692,0.20203 -0.192521,0.2477 -0.163936,0.32107 0.02165,0.0555 0.0066,0.11696 -0.04153,0.17536 -0.197454,0.23718 -0.198531,0.22662 0.04577,0.44955 l 0.221237,0.20193 -0.383649,0.39886 -0.383642,0.39888 -0.06938,-0.0695 c -0.03816,-0.0383 -0.06001,-0.0789 -0.04854,-0.0902 0.01147,-0.012 0.01203,-0.0593 0.002,-0.10582 -0.02206,-0.0954 -0.222854,-0.21303 -0.325461,-0.19043 -0.03095,0.01 -0.08654,-0.0181 -0.123557,-0.0552 -0.0625,-0.0627 -0.07712,-0.0575 -0.205532,0.071 -0.08215,0.0821 -0.184618,0.14788 -0.252524,0.16204 -0.102904,0.0216 -0.357225,0.26264 -2.556591,2.4249 -1.343276,1.32062 -2.442964,2.4198 -2.443742,2.4427 -0.0038,0.0647 0.241543,0.30198 0.317756,0.30907 0.04966,0.008 0.185293,-0.10264 0.496639,-0.39263 0.395977,-0.3689 0.438081,-0.39929 0.557862,-0.40302 0.0975,-0.005 0.158184,0.0243 0.245348,0.11171 0.115789,0.11578 0.11579,0.11582 0.01429,0.27514 l -0.101534,0.15928 0.122362,-0.13849 c 0.133862,-0.15148 0.16305,-0.15157 0.15552,-5.3e-4 -0.0049,0.082 -0.07748,0.17774 -0.410991,0.53625 -0.360584,0.38764 -0.406642,0.44968 -0.411577,0.55482 -0.0079,0.17186 -0.182223,0.3772 -0.799939,0.94322 -0.299465,0.27438 -0.801221,0.75455 -1.115023,1.06708 l -0.570544,0.56816 0.05572,0.13571 c 0.08173,0.19907 5.8e-5,0.52241 -0.176577,0.69904 -0.120337,0.12034 -0.135886,0.15819 -0.129033,0.31442 0.0087,0.20074 -0.02522,0.2485 -0.698093,0.97953 -0.276187,0.30002 -0.401627,0.41308 -0.563257,0.50753 -0.259603,0.15175 -1.036948,0.85762 -0.992928,0.9016 0.05477,0.0549 -0.11615,0.30088 -0.270781,0.38984 -0.07725,0.0444 -0.144951,0.0619 -0.150448,0.0386 -0.0052,-0.0261 -0.152159,0.0998 -0.379351,0.32702 -0.285651,0.28566 -0.364152,0.38104 -0.346394,0.42091 0.03516,0.0789 -0.158741,0.30926 -0.31404,0.37303 -0.197957,0.0812 -0.816765,0.70768 -0.87696,0.88766 -0.0482,0.14421 -0.303926,0.37947 -0.412402,0.37947 -0.136414,0 -0.127318,0.0718 0.02913,0.23025 0.187409,0.18973 0.231767,0.31916 0.170529,0.49746 -0.03237,0.0941 -0.02428,0.17484 0.02796,0.27879 0.08988,0.17876 0.08089,0.78841 -0.01444,0.97761 -0.05953,0.11817 -0.217888,0.26202 -0.43605,0.39613 -0.2068,0.12714 -0.342105,-0.0933 -0.339855,-0.55403 0.003,-0.35895 0.04082,-0.53645 0.139885,-0.63585 0.07221,-0.0725 0.06456,-0.14555 -0.01129,-0.10789 -0.02,0.0105 -0.348451,0.34252 -0.729898,0.73907 l -0.693557,0.72101 0.103095,0.17062 c 0.121905,0.2018 0.151548,0.36095 0.10232,0.54931 -0.04089,0.1565 -0.146203,0.27744 -0.444114,0.51015 -0.159122,0.1243 -0.231796,0.2065 -0.309168,0.34977 -0.08429,0.1561 -0.427687,0.52503 -2.0593,2.2124 -1.472656,1.52298 -1.980533,2.03185 -2.04841,2.0524 -0.07764,0.0234 -0.09025,0.0504 -0.09025,0.19187 10e-7,0.17836 -0.05706,0.25272 -0.380544,0.49561 -0.243521,0.18282 -0.410231,0.17448 -0.605655,-0.0306 -0.169888,-0.17805 -0.2772,-0.37095 -0.309831,-0.5571 l -0.02267,-0.12936 -0.132966,0.15983 c -0.07312,0.0879 -0.256064,0.29617 -0.406528,0.4628 -0.150458,0.16668 -0.42221,0.488 -0.603895,0.71404 -1.260596,1.56849 -1.505124,1.87669 -1.512188,1.90624 -0.01617,0.0676 0.06568,0.13818 3.105416,2.67929 0.830751,0.6945 1.622334,1.3551 1.759068,1.46797 0.136736,0.11289 0.254164,0.22886 0.260956,0.25756 0.0062,0.0288 -0.03916,0.10766 -0.102097,0.17525 -0.240647,0.25837 -1.14775,1.45858 -1.189526,1.57383 -0.0541,0.14928 -1.232347,1.71131 -1.339558,1.7759 -0.04271,0.0256 -0.193637,0.20079 -0.335353,0.38898 -0.300795,0.39947 -0.289447,0.38679 -0.335663,0.37586 z m -16.960899,14.38307 c -0.01276,-0.0401 -0.10424,-0.17101 -0.203299,-0.29091 -0.171676,-0.20779 -0.18281,-0.21534 -0.237573,-0.16057 -0.03161,0.0319 -0.08309,0.11994 -0.114482,0.19633 l -0.05702,0.13888 0.191382,0.15238 c 0.10526,0.0836 0.219315,0.15525 0.253461,0.15888 0.09098,0.0103 0.194342,-0.11064 0.167531,-0.19499 z m 9.868638,-14.11109 c 0.0711,-0.20451 0.06542,-0.50986 -0.01401,-0.75475 -0.04297,-0.13254 -0.129248,-0.25326 -0.393261,-0.55045 l -0.338177,-0.38063 0.008,-0.18799 0.008,-0.18797 -0.31548,0.29635 c -0.297108,0.27908 -0.315388,0.30349 -0.313828,0.41893 0.002,0.0888 -0.03063,0.15556 -0.115138,0.24181 -0.345927,0.35308 -0.360204,0.83798 -0.03673,1.24725 0.109185,0.13808 0.172271,0.18562 0.325145,0.24469 0.231614,0.0896 0.240927,0.0982 0.192893,0.18029 -0.05547,0.0947 -0.109937,0.0969 -0.331181,0.0131 -0.145855,-0.0554 -0.248265,-0.1261 -0.390875,-0.26999 -0.169053,-0.17055 -0.204366,-0.23129 -0.282071,-0.48494 -0.04886,-0.15946 -0.118809,-0.31995 -0.155453,-0.3566 l -0.0666,-0.0666 -0.207836,0.24524 c -0.24696,0.29137 -0.368846,0.49168 -0.339388,0.55782 0.04533,0.1018 0.662506,0.57547 0.877231,0.67326 0.528193,0.24056 1.158692,0.0486 1.649947,-0.50276 0.108566,-0.12185 0.200484,-0.26675 0.238422,-0.37588 z"
       id="path8094"       
       sodipodi:nodetypes="cssssccscscssscccscscssccssccssccscsccccccccsccccccccccccccccccscccccsccssccccccccscccsccccccccscccccccccccccccccccccccsccsccsccscscssccccccsssccsccscccccccssccssccccccsccccccscccscscsccsccccccccscccccccccscccssccsccsccccccccccscccccccscccccccsscccsccccccc" />
  </g>
</svg>
