<?xml version="1.0" encoding="UTF-8" standalone="no"?>
<!-- Created with Inkscape (http://www.inkscape.org/) -->

<svg
   xmlns:dc="http://purl.org/dc/elements/1.1/"
   xmlns:cc="http://creativecommons.org/ns#"
   xmlns:rdf="http://www.w3.org/1999/02/22-rdf-syntax-ns#"
   xmlns:svg="http://www.w3.org/2000/svg"
   xmlns="http://www.w3.org/2000/svg"
   xmlns:sodipodi="http://sodipodi.sourceforge.net/DTD/sodipodi-0.dtd"   
   width="220"
   height="235"
   viewBox="0 0 58.208332 62.177085"
   version="1.1"
   id="svg8"   
   sodipodi:docname="m16.svg" >   
  <defs
     id="defs2" />
  <sodipodi:namedview
     id="base"
     pagecolor="#000000"
     bordercolor="#666666"
     borderopacity="1.0"
     showgrid="false"
     units="px" />
  <metadata
     id="metadata5">
    <rdf:RDF>
      <cc:Work
         rdf:about="">
        <dc:format>image/svg+xml</dc:format>
        <dc:type
           rdf:resource="http://purl.org/dc/dcmitype/StillImage" />
        <dc:title></dc:title>
      </cc:Work>
    </rdf:RDF>
  </metadata>
  <g
     id="layer1"
     transform="translate(0,-234.8229)">
    <path
       style="fill:none;stroke:#ffffff;stroke-width:0.4;stroke-opacity:1;stroke-miterlimit:4;stroke-dasharray:none"
       d="m 35.051983,278.30903 c 0.08758,-0.15748 0.197532,-0.31997 0.244346,-0.36117 0.10478,-0.0922 0.361256,-0.57863 0.350953,-0.66566 -0.01045,-0.0885 1.010259,-1.98493 1.090758,-2.02664 0.108528,-0.0562 0.23582,-0.27292 0.198139,-0.33729 -0.01897,-0.0324 -0.0019,-0.12871 0.03959,-0.21406 0.04076,-0.0852 0.0662,-0.18897 0.05655,-0.23027 -0.02202,-0.0943 -0.191854,-0.19443 -1.809974,-1.06688 -1.400813,-0.75529 -2.136449,-1.18983 -2.729782,-1.61245 -0.542462,-0.3864 -1.250592,-0.96842 -1.68893,-1.3882 l -0.355488,-0.34041 0.07227,-0.12383 c 0.09705,-0.16625 0.09759,-0.22037 0.0049,-0.35771 -0.05986,-0.0875 -0.117599,-0.12567 -0.230503,-0.15233 -0.143631,-0.0338 -0.191429,-0.0763 -1.029341,-0.91512 -0.483324,-0.48375 -0.884752,-0.90654 -0.892118,-0.93945 -0.0082,-0.0375 0.05221,-0.12952 0.161922,-0.24596 0.317958,-0.33754 0.291402,-0.56376 -0.112989,-0.96238 -0.139622,-0.13766 -0.219882,-0.22762 -0.178242,-0.19991 0.04164,0.028 0.09203,0.037 0.112008,0.0209 0.01998,-0.0162 0.0569,-0.0472 0.08208,-0.0681 0.0334,-0.0281 0.08989,0.002 0.208476,0.10721 0.08949,0.08 0.186505,0.1456 0.215605,0.14567 0.0735,3.7e-4 0.867396,-0.82417 0.852875,-0.88565 -0.0053,-0.0264 0.01661,-0.0671 0.05076,-0.0901 0.04406,-0.0299 0.111899,-0.0106 0.233604,0.0672 0.229238,0.14591 0.299234,0.1634 0.612757,0.15294 0.182159,-0.01 0.334142,-0.0438 0.47733,-0.1183 0.20389,-0.10615 0.238104,-0.14113 1.161477,-1.18598 0.523268,-0.59212 1.525401,-1.7254 2.226964,-2.51842 2.120309,-2.39668 3.075127,-3.49413 3.72766,-4.28448 0.132397,-0.16036 0.404561,-0.4555 0.604807,-0.65584 0.200248,-0.20038 0.41386,-0.44058 0.474695,-0.53384 0.06081,-0.0933 0.355681,-0.42872 0.655235,-0.74549 0.299549,-0.31675 0.582675,-0.63877 0.629169,-0.71553 0.0465,-0.0767 0.349236,-0.42953 0.672772,-0.784 0.32353,-0.35441 0.690695,-0.76883 0.815918,-0.92096 0.125226,-0.15213 0.371539,-0.42268 0.547356,-0.60122 0.175827,-0.17856 0.477419,-0.51991 0.670209,-0.75852 0.192797,-0.23864 0.476351,-0.56018 0.630133,-0.71457 0.153762,-0.15441 0.418514,-0.45695 0.588293,-0.67237 0.169784,-0.21539 0.57846,-0.68751 0.908183,-1.04904 l 0.599482,-0.65738 0.16204,0.01 c 0.149021,0.01 0.176903,-0.01 0.347052,-0.1777 0.157639,-0.15764 0.18445,-0.20383 0.181222,-0.31218 -0.0049,-0.14639 0.134132,-0.39523 0.328502,-0.59014 0.171776,-0.17218 0.605188,-0.91241 0.611793,-1.04482 0.0049,-0.062 -0.02425,-0.12062 -0.07129,-0.15255 -0.06432,-0.0435 -0.06437,-0.053 -1.31e-4,-0.0591 0.06117,-0.01 0.12764,0.0498 0.337271,0.28043 0.333801,0.36761 0.358914,0.37253 0.635509,0.12554 0.283068,-0.25281 0.329746,-0.3377 0.244614,-0.44497 -0.06704,-0.0845 -0.0646,-0.0898 0.150093,-0.33202 0.154312,-0.17413 0.213658,-0.26628 0.202676,-0.31474 -0.02325,-0.10252 -0.346464,-0.41399 -0.421077,-0.40576 -0.0347,0.006 -0.156352,0.0588 -0.270348,0.12191 -0.180409,0.1 -0.216251,0.10588 -0.276526,0.0457 l -0.06923,-0.0694 1.53326,-1.53431 c 0.843269,-0.84391 2.167047,-2.18388 2.941638,-2.97785 l 1.408352,-1.44356 0.193265,-0.0644 c 0.106294,-0.0354 0.240029,-0.0806 0.297185,-0.10054 0.142446,-0.0497 2.433555,-2.35814 2.474498,-2.49339 0.0153,-0.0506 -0.0049,-0.19042 -0.04544,-0.3108 -0.06088,-0.1819 -0.111445,-0.25677 -0.299511,-0.44381 -0.247785,-0.24652 -0.455161,-0.34985 -0.682622,-0.34029 -0.128288,0.009 -0.13404,0.0112 -1.323962,1.19236 -1.181086,1.17296 -1.195794,1.18901 -1.251809,1.36701 -0.03115,0.0991 -0.05235,0.19839 -0.04708,0.22072 0.005,0.0236 -1.261512,1.31172 -3.014324,3.06459 l -3.023908,3.02386 -0.146758,-0.14737 c -0.469561,-0.47147 -2.859558,-2.67874 -2.968364,-2.74139 -0.07419,-0.0427 -0.209634,-0.0698 -0.315359,-0.063 -0.208689,0.0137 -0.309964,0.0947 -0.57378,0.46009 -0.184532,0.25559 -0.210087,0.35998 -0.157746,0.64451 0.02212,0.12014 0.07189,0.491 0.110605,0.82409 0.113352,0.97489 0.262628,2.1142 0.333526,2.54545 l 0.06578,0.40027 -0.311556,0.28399 c -0.297128,0.27083 -0.313106,0.29213 -0.345098,0.45974 -0.03124,0.16379 -0.05183,0.19237 -0.301887,0.41924 -0.205049,0.18599 -0.327102,0.26696 -0.517403,0.34293 -0.334406,0.13354 -0.543888,0.34033 -0.613043,0.6053 -0.04649,0.17807 -0.06838,0.2077 -0.302178,0.40814 -0.164553,0.14115 -0.326562,0.24478 -0.466635,0.29858 -0.292139,0.11217 -0.56638,0.37026 -0.616296,0.58 -0.03303,0.13871 -0.06184,0.17357 -0.339872,0.41076 -0.202537,0.17279 -0.35922,0.27763 -0.470036,0.3144 -0.09144,0.0304 -0.246805,0.11938 -0.345303,0.19786 -0.146703,0.11696 -0.191367,0.17685 -0.247097,0.33146 -0.05992,0.16618 -0.100793,0.21747 -0.3425,0.42934 -0.184862,0.16208 -0.359488,0.27917 -0.534873,0.35862 -0.330575,0.14979 -0.533383,0.34472 -0.562801,0.54102 -0.01983,0.13238 -0.0432,0.16135 -0.348105,0.43133 -0.223215,0.19762 -0.385611,0.3129 -0.512193,0.36352 -0.236481,0.0945 -0.551528,0.39857 -0.579885,0.55955 -0.02891,0.16405 -0.597292,0.67962 -0.861884,0.78178 -0.246513,0.0951 -0.525167,0.34977 -0.552472,0.50481 -0.03089,0.17534 -0.6498,0.78339 -0.870094,0.85486 -0.08804,0.0286 -0.244815,0.1194 -0.348375,0.20192 -0.155293,0.12373 -0.193145,0.17315 -0.216002,0.28215 -0.03954,0.18845 -0.641541,0.76636 -0.93623,0.89872 -0.241815,0.10863 -0.481909,0.33944 -0.538692,0.51784 -0.05973,0.18768 -0.731441,0.82531 -0.940508,0.8928 -0.18111,0.0587 -0.420477,0.29364 -0.48,0.47169 -0.06414,0.19189 -0.778542,0.8738 -0.9535,0.91014 -0.09259,0.0197 -0.217287,0.11609 -0.56633,0.43958 -1.060746,0.98327 -1.308957,1.22728 -1.414387,1.39028 -0.136517,0.21103 -0.164802,0.49809 -0.05953,0.60443 0.125285,0.12658 0.166387,0.2287 0.124553,0.30943 -0.02355,0.0454 -0.05761,0.0687 -0.08242,0.0563 -0.02915,-0.0143 -0.181249,0.11777 -0.48909,0.42562 -0.371293,0.37127 -0.442408,0.45654 -0.420881,0.50492 0.0144,0.0324 -0.0085,0.0926 -0.05189,0.13592 -0.105768,0.10579 -0.144073,0.079 -0.749271,-0.52539 -0.488,-0.48737 -0.527147,-0.51883 -0.847875,-0.68346 -0.694786,-0.35666 -1.095156,-0.29507 -1.776144,0.27334 -0.201554,0.16827 -0.51167,0.42543 -0.689145,0.57151 -0.616786,0.50774 -1.593918,1.3156 -3.864552,3.19512 -1.256084,1.03969 -2.412169,1.99318 -2.569088,2.11886 -0.576961,0.46211 -0.717794,0.66048 -0.724603,1.0208 -0.0046,0.16711 0.114944,0.71813 0.219539,1.02429 0.05159,0.15099 0.511699,1.89933 0.581233,2.20855 0.07248,0.32239 0.03759,0.39428 -0.407165,0.83906 -0.36809,0.36808 -0.37899,0.38297 -0.342482,0.46856 0.05316,0.12451 0.398467,0.58368 0.447715,0.59531 0.138817,0.0328 -0.168341,0.34599 -7.0792572,7.21872 -6.4752143,6.43943 -6.9374224,6.90541 -7.0267105,7.08352 -0.1825652,0.36425 -0.1353515,0.77146 0.1433788,1.23663 0.1784988,0.2979 1.4211821,1.50861 2.2136355,2.15664 1.4319827,1.17107 3.0942191,2.35749 3.9682452,2.8323 0.8051292,0.43737 1.1729445,0.43087 1.6327694,-0.029 0.2538299,-0.25385 0.333182,-0.39613 0.8382868,-1.50301 0.18458,-0.40447 0.343595,-0.74344 0.353367,-0.7532 0.257612,-0.34278 0.23461,-0.71031 0.375102,-0.85109 0.700575,-1.44003 1.412136,-2.93752 3.13573,-6.5993 0.369855,-0.78571 0.943487,-2.0022 1.274746,-2.70328 l 0.602276,-1.2747 0.878378,-1.27872 c 0.483108,-0.70331 1.066946,-1.55664 1.297416,-1.89621 0.309641,-0.45628 0.459877,-0.64885 0.575476,-0.73748 0.36265,-0.27802 0.994243,-0.36174 1.415042,-0.18755 0.12262,0.0509 0.230071,0.085 0.238774,0.0765 0.01971,-0.0203 0.582657,0.56057 0.676152,0.69698 0.0377,0.055 0.125527,0.43357 0.195217,0.84131 0.541647,3.1692 0.934951,5.1807 1.107042,5.66186 0.177048,0.4949 0.331976,0.4857 1.260687,-0.075 1.026854,-0.62001 1.423082,-0.8676 1.636845,-1.02291 0.116853,-0.0847 0.29384,-0.19786 0.393305,-0.25105 0.09946,-0.0531 0.217689,-0.13321 0.262726,-0.1779 0.115955,-0.11512 0.188987,-0.43603 0.151946,-0.6678 -0.04385,-0.27442 -0.181101,-0.40679 -0.439117,-0.42355 l -0.193809,-0.0127 -0.14673,-0.47522 c -0.178043,-0.57668 -0.984701,-3.35519 -1.094394,-3.76968 -0.0433,-0.16356 -0.07006,-0.32799 -0.05948,-0.36538 0.01056,-0.0376 0.18807,-0.22512 0.394465,-0.41712 0.293235,-0.2728 0.391743,-0.3846 0.450632,-0.51145 0.06036,-0.13003 0.273646,-0.36796 1.071626,-1.19548 0.881998,-0.91465 1.00857,-1.03528 1.103548,-1.05202 0.06655,-0.0119 0.166568,-0.0781 0.263512,-0.17516 l 0.156239,-0.15622 0.483426,0.41508 c 0.842954,0.72387 2.056923,1.58768 3.141378,2.23536 0.241162,0.14404 0.880201,0.50089 1.420086,0.79304 0.539884,0.29213 1.148688,0.62465 1.352902,0.73881 0.204211,0.11418 0.43728,0.21768 0.517934,0.22994 0.153683,0.0234 0.433027,-0.0417 0.466532,-0.10868 0.01077,-0.0216 0.09122,-0.16798 0.178802,-0.32544 z M 24.462211,276.4477 c -0.428101,0.017 -0.666598,-0.0629 -0.904802,-0.30298 -0.17898,-0.18044 -0.293655,-0.44002 -0.300661,-0.68091 -0.0049,-0.14562 0.136026,-0.59311 0.185899,-0.59311 0.01248,0 0.0742,0.0936 0.137154,0.20822 0.08212,0.14942 0.187067,0.27427 0.371545,0.44189 0.2235,0.2031 0.297377,0.24711 0.565263,0.33669 0.354271,0.11849 0.687255,0.14418 0.771851,0.0598 0.08388,-0.0836 0.02494,-0.17708 -0.126425,-0.19979 -0.670617,-0.10052 -1.11526,-0.61519 -1.088985,-1.26057 l 0.0099,-0.24337 0.302469,-0.27539 c 0.763638,-0.69527 0.824754,-0.7328 1.178302,-0.72363 0.384704,0.0106 0.596172,0.12883 0.854597,0.48034 0.124976,0.16994 0.181497,0.2953 0.227967,0.50553 l 0.0618,0.27958 -0.531953,0.56878 c -0.292578,0.31285 -0.716202,0.7524 -0.941406,0.97681 l -0.409451,0.40794 z M 44.5689,245.76703 c -0.349553,0.30467 -0.417564,0.25172 -0.523383,-0.40774 -0.281271,-1.75288 -0.290359,-1.8601 -0.168005,-1.98244 0.144487,-0.14451 0.276865,-0.11255 0.522536,0.12619 0.243958,0.23703 0.309611,0.25315 0.51986,0.12748 0.08353,-0.05 0.182846,-0.088 0.220725,-0.0844 0.04492,0.007 0.182006,0.12605 0.394089,0.35037 0.460958,0.48754 0.472696,0.42351 -0.205805,1.12232 -0.298011,0.30693 -0.640019,0.6436 -0.760017,0.74821 z M 20.078323,269.2491 c -1.800828,1.77512 -1.972385,1.93632 -2.100174,1.97383 -0.192507,0.0563 -0.382836,-0.0468 -0.489412,-0.26568 -0.134628,-0.27626 -0.261425,-0.82142 -0.267764,-1.15112 -0.0099,-0.51253 -0.02826,-0.48797 1.607441,-2.14307 0.758193,-0.7672 1.428864,-1.44545 1.490391,-1.50721 0.06151,-0.0616 0.776364,-0.75881 1.58854,-1.54908 1.429488,-1.39089 1.482636,-1.4389 1.662833,-1.50276 0.232825,-0.0826 0.43953,-0.0877 0.658915,-0.0165 0.52618,0.17067 0.834463,0.77212 0.651376,1.27085 -0.06573,0.179 -0.108256,0.22496 -1.454416,1.5711 -0.762698,0.7627 -2.269173,2.25659 -3.347728,3.31971 z"
       id="path3072"       
       sodipodi:nodetypes="cccccccccccccccccccccccccccccsccccsssccccccsscccsccccccccsccccsccccccccscccccccscccccccccccccsccccccccccccccccscccscscccssscccsccssccsssccssccsccccccscsccccscsccssscccccscccccsscccsccccccscccccccscccsccccccccsccccscc" />
  </g>
</svg>
