<?xml version="1.0" encoding="UTF-8" standalone="no"?>
<!-- Created with Inkscape (http://www.inkscape.org/) -->

<svg
   xmlns:dc="http://purl.org/dc/elements/1.1/"
   xmlns:cc="http://creativecommons.org/ns#"
   xmlns:rdf="http://www.w3.org/1999/02/22-rdf-syntax-ns#"
   xmlns:svg="http://www.w3.org/2000/svg"
   xmlns="http://www.w3.org/2000/svg"
   xmlns:sodipodi="http://sodipodi.sourceforge.net/DTD/sodipodi-0.dtd"   
   width="220"
   height="235"
   viewBox="0 0 58.208332 62.177085"
   version="1.1"
   id="m4"
   sodipodi:docname="m4.svg">
  <defs
     id="defs2" />
  <metadata
     id="metadata5">
    <rdf:RDF>
      <cc:Work
         rdf:about="">
        <dc:format>image/svg+xml</dc:format>
        <dc:type
           rdf:resource="http://purl.org/dc/dcmitype/StillImage" />
        <dc:title />
      </cc:Work>
    </rdf:RDF>
  </metadata>
  <g
     id="layer1"
     transform="translate(36.667504,-247.91945)">
    <path
       style="color:#000000;font-style:normal;font-variant:normal;font-weight:normal;font-stretch:normal;font-size:medium;line-height:normal;font-family:sans-serif;font-variant-ligatures:normal;font-variant-position:normal;font-variant-caps:normal;font-variant-numeric:normal;font-variant-alternates:normal;font-feature-settings:normal;text-indent:0;text-align:start;text-decoration:none;text-decoration-line:none;text-decoration-style:solid;text-decoration-color:#000000;letter-spacing:normal;word-spacing:normal;text-transform:none;writing-mode:lr-tb;direction:ltr;text-orientation:mixed;dominant-baseline:auto;baseline-shift:baseline;text-anchor:start;white-space:normal;shape-padding:0;clip-rule:nonzero;display:inline;overflow:visible;visibility:visible;opacity:1;isolation:auto;mix-blend-mode:normal;color-interpolation:sRGB;color-interpolation-filters:linearRGB;solid-color:#000000;solid-opacity:1;vector-effect:none;fill:none;fill-opacity:1;fill-rule:nonzero;stroke:#ffffff;stroke-width:0.27;stroke-linecap:butt;stroke-linejoin:miter;stroke-miterlimit:4;stroke-dasharray:none;stroke-dashoffset:0;stroke-opacity:1;color-rendering:auto;image-rendering:auto;shape-rendering:auto;text-rendering:auto;enable-background:accumulate"
       d="m -20.507785,281.09059 c -0.199452,0.20051 -0.309006,0.33952 -0.324552,0.4889 -0.01553,0.14939 0.06618,0.29303 0.224079,0.49546 0.227863,0.29212 0.664477,0.72529 1.070326,1.08759 0.202926,0.18115 0.397857,0.34427 0.55519,0.46266 0.07867,0.0592 0.148275,0.10708 0.20509,0.14087 0.05681,0.0338 0.09698,0.0556 0.13776,0.0556 0.0244,0 0.04381,0.001 0.05352,0.005 0.0097,0.003 0.0057,0.001 0.0055,0.001 -1.41e-4,-5e-4 2.75e-4,0.0108 -0.01069,0.0321 -0.01098,0.0214 -0.03111,0.0519 -0.06145,0.0912 -0.121359,0.1569 -0.404669,0.45738 -0.937399,1.01405 -0.537248,0.56139 -0.809661,0.84632 -0.965367,1.04132 -0.155704,0.19501 -0.194317,0.30241 -0.256878,0.49235 -0.0778,0.23619 -0.120319,0.35904 -0.09736,0.46611 0.01148,0.0535 0.04036,0.0991 0.08424,0.14571 0.04388,0.0466 0.103238,0.0955 0.181265,0.15985 0.06329,0.0522 0.110169,0.0914 0.138796,0.12223 0.02862,0.0308 0.03713,0.0496 0.03625,0.068 -9e-4,0.0183 -0.01347,0.0453 -0.04661,0.0853 -0.03314,0.04 -0.08493,0.0918 -0.153994,0.16088 -0.111938,0.11194 -0.181315,0.1898 -0.221661,0.26034 -0.04034,0.0705 -0.04898,0.13548 -0.03763,0.20543 -2.12e-4,-0.002 -0.0062,0.0298 -0.0297,0.0704 -0.02348,0.0407 -0.06047,0.0939 -0.108758,0.1571 -0.0966,0.1264 -0.238223,0.29223 -0.410523,0.48303 -0.344599,0.38161 -0.81137,0.86304 -1.286119,1.331 -0.47475,0.46797 -0.957589,0.92273 -1.334457,1.25229 -0.188432,0.16478 -0.350567,0.29848 -0.470945,0.38601 -0.06018,0.0437 -0.110287,0.0761 -0.146392,0.0946 -0.01806,0.009 -0.03266,0.0147 -0.04177,0.0169 -0.0091,0.002 -0.01028,-5e-4 -0.0049,0.003 -0.01897,-0.0114 -0.03841,-0.0233 -0.06284,-0.0297 -0.02444,-0.006 -0.05283,-0.005 -0.08355,0.006 -0.06145,0.022 -0.137129,0.0786 -0.269309,0.19887 -0.264364,0.2405 -0.75084,0.74013 -1.724613,1.74049 -3.725616,3.82733 -5.59782,5.75057 -6.578026,6.72165 -0.490104,0.48555 -0.757483,0.7332 -0.919791,0.86041 -0.162296,0.12722 -0.211615,0.13298 -0.290716,0.14363 -0.364298,0.049 -0.603847,0.16105 -0.715047,0.33802 -0.111202,0.17696 -0.08431,0.40952 0.06284,0.67741 0.29429,0.53577 1.070256,1.23969 2.292919,2.05745 0.311355,0.20824 1.667839,1.14537 1.963188,1.3562 0.106569,0.0761 0.347474,0.23446 0.537579,0.3539 0.189278,0.11892 0.548227,0.34903 0.797569,0.511 0.250254,0.16256 0.653712,0.41014 0.898039,0.55139 0.121666,0.0703 0.238752,0.13864 0.329383,0.19197 0.09063,0.0533 0.156785,0.0932 0.169182,0.10151 0.06024,0.0402 0.249274,0.14542 0.903909,0.50616 0.218861,0.1206 0.414988,0.21394 0.569345,0.27241 0.07718,0.0292 0.144064,0.0499 0.198873,0.0608 0.05481,0.0109 0.09738,0.0146 0.133273,-0.002 0.04961,-0.0221 0.09655,-0.0694 0.144665,-0.13017 0.04812,-0.0608 0.09573,-0.13596 0.137415,-0.21407 0.04169,-0.0781 0.07712,-0.15898 0.100818,-0.23271 0.0237,-0.0737 0.03703,-0.13925 0.02762,-0.19265 -0.0067,-0.0382 -0.0069,-0.0635 -0.0059,-0.0811 0.01035,0.003 0.01948,0.0102 0.03107,0.0111 0.02333,10e-4 0.05035,2e-4 0.08114,-0.003 0.06157,-0.007 0.137189,-0.0215 0.214066,-0.0414 0.07688,-0.0198 0.154875,-0.0446 0.220626,-0.0708 0.06575,-0.0262 0.118188,-0.0512 0.15019,-0.0832 0.319026,-0.31903 0.304949,-0.71634 0.09529,-0.98747 -0.209656,-0.27113 -0.611463,-0.41871 -1.053409,-0.26136 -0.08064,0.0287 -0.136828,0.0535 -0.170562,0.0546 -0.01688,5e-4 -0.02767,-0.003 -0.04178,-0.0135 -0.01412,-0.0111 -0.03124,-0.0321 -0.04972,-0.0677 -0.07397,-0.14219 -0.168265,-0.50198 -0.378759,-1.2661 -0.117042,-0.42488 -0.157465,-0.87194 -0.127748,-1.25194 0.02878,-0.36802 0.128033,-0.66562 0.274142,-0.82449 0.0044,0.003 0.0066,0.005 0.0121,0.009 0.02534,0.019 0.06189,0.0482 0.106344,0.0849 0.0889,0.0735 0.209793,0.17759 0.340778,0.29382 0.142689,0.12662 0.252455,0.22237 0.340433,0.28934 0.08798,0.067 0.153624,0.10646 0.214757,0.1167 0.06113,0.0102 0.115467,-0.0179 0.153988,-0.0691 0.03852,-0.0512 0.06957,-0.12458 0.108069,-0.22131 0.02982,-0.075 0.06972,-0.26297 0.118081,-0.51997 0.04836,-0.25701 0.10302,-0.57877 0.154335,-0.90495 0.05131,-0.32617 0.09976,-0.65681 0.134998,-0.93118 0.03524,-0.27438 0.05766,-0.49081 0.05766,-0.59628 8e-6,-0.0256 0.02251,-0.086 0.0618,-0.15157 0.03929,-0.0655 0.09345,-0.13883 0.149846,-0.20509 0.0564,-0.0663 0.115567,-0.12536 0.16332,-0.16261 0.02387,-0.0186 0.04525,-0.0317 0.05939,-0.0373 0.01413,-0.006 0.01502,-0.002 0.01173,-0.005 0.240885,0.19328 0.362831,0.29616 0.484064,0.30245 0.06062,0.003 0.115793,-0.0222 0.171598,-0.0673 0.0558,-0.0451 0.115885,-0.1108 0.194352,-0.19718 0.139504,-0.15344 0.21479,-0.22911 0.226149,-0.31592 0.0057,-0.0434 -0.0092,-0.0846 -0.03625,-0.12603 -0.0271,-0.0414 -0.06645,-0.0863 -0.118426,-0.14535 -0.05198,-0.0591 -0.09047,-0.10305 -0.110832,-0.13777 -0.02035,-0.0347 -0.02422,-0.0562 -0.01518,-0.087 0.01807,-0.0615 0.112614,-0.16303 0.309014,-0.35943 0.295515,-0.29551 0.452373,-0.46351 0.480266,-0.62528 0.01395,-0.0809 -0.0089,-0.15706 -0.06042,-0.23374 -0.0515,-0.0767 -0.13085,-0.1565 -0.236508,-0.25515 -0.374274,-0.34946 -0.518904,-0.68318 -0.436764,-1.06032 0.08214,-0.37714 0.398698,-0.8035 0.965023,-1.31788 0.265552,-0.24119 0.452335,-0.44357 0.55795,-0.6056 0.05281,-0.081 0.0857,-0.15199 0.09667,-0.21545 0.01098,-0.0634 -0.0028,-0.1223 -0.0435,-0.16296 0.01004,0.01 0.0083,0.0211 0.0079,0.0231 -3.25e-4,0.002 1.98e-4,10e-6 0.0017,-0.003 0.003,-0.006 0.01028,-0.0179 0.02071,-0.0325 0.02088,-0.0292 0.05467,-0.0709 0.09805,-0.12085 0.08677,-0.1 0.212133,-0.23352 0.354597,-0.37599 0.519692,-0.51969 0.528212,-0.53521 0.67983,-1.14939 0.03895,-0.15778 0.170207,-0.40105 0.350792,-0.66982 0.180586,-0.26877 0.410326,-0.56498 0.64634,-0.839 0.236014,-0.27402 0.478633,-0.52592 0.683619,-0.70504 0.102498,-0.0896 0.19583,-0.16087 0.273105,-0.20751 0.07727,-0.0466 0.139138,-0.0659 0.169527,-0.0618 0.05115,0.007 0.11003,-0.0127 0.175741,-0.0459 0.06571,-0.0333 0.137175,-0.082 0.204399,-0.14087 0.05608,-0.0491 0.09713,-0.0848 0.131205,-0.10289 0.03407,-0.0181 0.05872,-0.0216 0.09806,-0.01 0.07867,0.0238 0.210069,0.12669 0.467837,0.33664 0.282268,0.2299 0.447394,0.35705 0.565892,0.41328 0.05925,0.0281 0.109183,0.0387 0.15468,0.0304 0.04549,-0.008 0.082,-0.0351 0.1167,-0.0697 0.07676,-0.0768 0.144637,-0.11653 0.201292,-0.12533 0.05666,-0.009 0.105795,0.009 0.158823,0.0621 0.08908,0.0891 0.184198,0.1448 0.282427,0.16297 0.09823,0.0181 0.198036,-0.002 0.292787,-0.0587 0.414062,-0.24791 0.873532,-0.15501 1.266784,0.1792 0.393253,0.33421 0.714524,0.91126 0.831403,1.62275 0.329285,2.0045 0.645369,3.4131 1.084828,4.83236 0.14163,0.4574 0.222156,0.70096 0.32766,0.8207 0.05275,0.0599 0.116787,0.0867 0.187478,0.0832 0.07069,-0.003 0.147359,-0.0322 0.24307,-0.0732 0.322844,-0.13832 1.093642,-0.59319 1.83164,-1.05824 0.369,-0.23253 0.7289294,-0.46721 1.0185394,-0.66568 0.289607,-0.19846 0.507003,-0.35854 0.598347,-0.44988 0.215107,-0.21511 0.3029,-0.44988 0.264819,-0.64185 -0.03808,-0.19197 -0.206505,-0.33264 -0.471634,-0.35148 -0.05476,-0.004 -0.106402,-0.009 -0.144667,-0.0142 -0.01914,-0.002 -0.03488,-0.005 -0.04558,-0.008 -0.0024,-5e-4 -0.0033,-5e-4 -0.0052,-10e-4 -7.5e-4,-0.002 -0.0012,-0.002 -0.0021,-0.005 -0.0042,-0.01 -0.01015,-0.0243 -0.01727,-0.0428 -0.01425,-0.0369 -0.03402,-0.0899 -0.058,-0.15675 -0.04797,-0.13364 -0.1135,-0.32219 -0.190935,-0.54725 -0.154869,-0.45013 -0.356719,-1.04698 -0.556914,-1.64589 -0.2001974,-0.59891 -0.3988514,-1.19982 -0.5479394,-1.65901 -0.07454,-0.22959 -0.136581,-0.42371 -0.18023,-0.56416 -0.02182,-0.0702 -0.03932,-0.12687 -0.0511,-0.1678 -0.0059,-0.0205 -0.0101,-0.037 -0.01312,-0.049 -0.003,-0.012 -0.0043,-0.022 -0.0041,-0.0187 -0.002,-0.0376 0.03387,-0.12178 0.105997,-0.22132 0.07213,-0.0995 0.176973,-0.21718 0.301764,-0.33974 0.249583,-0.24513 0.5788944,-0.5101 0.8863004,-0.69571 0.631055,-0.38102 1.319554,-1.06909 1.672129,-1.67213 0.232615,-0.39786 0.40603,-0.63666 0.54863,-0.74198 0.0713,-0.0527 0.132655,-0.072 0.193005,-0.0673 0.06035,0.005 0.122885,0.0348 0.192655,0.0918 0.13577,0.11098 0.415515,0.3225 0.6239,0.47198 0.206475,0.14812 0.597805,0.45185 0.867655,0.67293 0.271695,0.22259 0.659985,0.50931 0.867655,0.64047 0.20345,0.12849 0.602545,0.40352 0.883885,0.60974 0.628875,0.46097 2.023045,1.36005 2.563265,1.65245 0.21611,0.11697 0.48196,0.27377 0.585915,0.34492 0.05542,0.0379 0.115115,0.0703 0.168145,0.0922 0.05303,0.0219 0.09575,0.0365 0.13638,0.0279 0.0109,-0.002 0.04125,0.002 0.07389,0.0152 0.0326,0.0134 0.06821,0.0341 0.09667,0.0587 0.104795,0.0906 0.2623,0.21703 0.396365,0.32041 0.06704,0.0517 0.128085,0.0976 0.174015,0.13051 0.023,0.0165 0.04195,0.03 0.05663,0.0394 0.0073,0.005 0.01355,0.008 0.01935,0.011 0.003,0.002 0.0056,0.003 0.0094,0.005 0.0015,0.001 0.004,0.002 0.0072,0.002 0.0015,2.3e-4 0.0035,2.5e-4 0.0059,2.5e-4 0.0025,4e-5 0.0091,-10e-4 0.0093,-10e-4 -0.004,10e-4 0.0084,-0.002 0.0224,-0.004 0.01405,-0.002 0.03355,-0.005 0.05662,-0.008 0.044,-0.006 0.10272,-0.015 0.16435,-0.0235 h 5e-4 l 0.0076,-0.002 c 0.09312,-0.0128 0.16306,-0.009 0.242375,-0.0552 0.07931,-0.0466 0.16081,-0.13804 0.29106,-0.33456 0.260485,-0.39306 0.71696,-1.21356 1.70355,-2.96516 0.172905,-0.30698 0.32753,-0.60003 0.439525,-0.82898 0.05599,-0.11448 0.101105,-0.21286 0.13293,-0.28968 0.0318,-0.0768 0.0511,-0.12684 0.05248,-0.16573 0.0073,-0.20495 -0.15617,-0.44412 -0.344235,-0.61423 -0.09403,-0.085 -0.19482,-0.1521 -0.288985,-0.1861 -0.09417,-0.034 -0.18828,-0.0348 -0.25032,0.0273 -0.0089,0.009 -0.03915,0.0172 -0.0946,0.006 -0.05542,-0.011 -0.13156,-0.0383 -0.222695,-0.0811 -0.182265,-0.0857 -0.426605,-0.23325 -0.710905,-0.43193 -0.144275,-0.10083 -0.514225,-0.32944 -0.826225,-0.51134 -0.310235,-0.18088 -0.733295,-0.45293 -0.936705,-0.6018 -0.206375,-0.15104 -0.552935,-0.38999 -0.77202,-0.5324 -0.216595,-0.1408 -0.59546,-0.41515 -0.838655,-0.60733 -0.2447,-0.19336 -0.614455,-0.47582 -0.82277,-0.62873 -0.465495,-0.34168 -0.81976,-0.63247 -1.056515,-0.86524 -0.118445,-0.11632 -0.207365,-0.21821 -0.265855,-0.30383 -0.05848,-0.0856 -0.08528,-0.15481 -0.08528,-0.20129 0,-0.13903 -0.05905,-0.27319 -0.143285,-0.36771 -0.08423,-0.0945 -0.197355,-0.15272 -0.30625,-0.12188 -0.0452,0.0128 -0.109805,0.002 -0.18748,-0.0328 -0.07767,-0.0352 -0.167535,-0.0942 -0.26275,-0.17091 -0.190435,-0.15352 -0.40315,-0.37801 -0.597995,-0.62356 -0.194845,-0.24554 -0.372175,-0.51232 -0.492695,-0.75095 -0.12052,-0.23863 -0.181315,-0.45032 -0.155715,-0.5728 0.0233,-0.11151 0.03785,-0.23616 0.04245,-0.34838 0.0045,-0.11221 5e-5,-0.2107 -0.01795,-0.27621 -0.01615,-0.0587 -0.0255,-0.10704 -0.029,-0.14363 -0.0035,-0.0366 5e-4,-0.0617 0.004,-0.0691 0.0015,-0.003 0.001,-0.002 -2.5e-4,-0.002 -0.0015,10e-4 -0.0015,-1.7e-4 0.003,10e-4 0.0093,0.002 0.0326,0.0165 0.06112,0.0446 0.05057,0.0498 0.09423,0.087 0.142595,0.106 0.04835,0.0189 0.10157,0.0151 0.1533,-0.0131 0.103455,-0.0564 0.2167,-0.19719 0.413625,-0.45645 0.1432,-0.18852 0.23408,-0.31838 0.286575,-0.41708 0.0525,-0.0987 0.06759,-0.17061 0.0487,-0.23305 -0.0285,-0.0942 -0.0051,-0.15552 0.04385,-0.18817 0.04885,-0.0326 0.132705,-0.0374 0.233745,0.0114 0.02885,0.014 0.05946,0.0276 0.09668,0.0297 0.0372,0.002 0.07824,-0.008 0.12844,-0.0338 0.10039,-0.0521 0.24242,-0.16828 0.49235,-0.40604 0.49987,-0.47551 1.427545,-1.43921 3.258975,-3.34322 1.223395,-1.27188 2.957785,-3.07338 3.854215,-4.00337 0.863885,-0.8962 1.288985,-1.33545 1.48465,-1.56958 0.09783,-0.11707 0.14068,-0.18138 0.149845,-0.23824 0.0045,-0.0284 -0.003,-0.0552 -0.01555,-0.0749 -0.0126,-0.0197 -0.0283,-0.0338 -0.0435,-0.049 -0.02445,-0.0245 -0.0292,-0.0385 -0.01935,-0.0711 0.0099,-0.0327 0.0423,-0.0822 0.10116,-0.1495 0.109005,-0.12474 0.169605,-0.2204 0.16987,-0.32662 2.5e-4,-0.10623 -0.05882,-0.21064 -0.166765,-0.35667 -0.04495,-0.0608 -0.07778,-0.10596 -0.09529,-0.14086 -0.0175,-0.0349 -0.02085,-0.0561 -0.01245,-0.0829 0.01685,-0.0535 0.102475,-0.13695 0.2814,-0.29865 0.210035,-0.18985 0.376675,-0.29653 0.501325,-0.32524 0.06233,-0.0144 0.113225,-0.0104 0.15848,0.01 0.04525,0.0204 0.08591,0.058 0.123255,0.11636 0.06553,0.10242 0.12269,0.17927 0.18748,0.22684 0.06479,0.0475 0.1403,0.062 0.22235,0.0373 0.16411,-0.0494 0.36381,-0.23399 0.70987,-0.58005 0.293975,-0.29397 0.449555,-0.45202 0.526875,-0.55519 0.03865,-0.0516 0.05908,-0.0906 0.06353,-0.12913 0.0045,-0.0385 -0.0096,-0.0712 -0.02695,-0.10081 -0.0135,-0.0231 -0.02045,-0.0408 -0.02175,-0.057 -10e-4,-0.0161 0.002,-0.0327 0.01485,-0.057 0.0255,-0.0486 0.09048,-0.12223 0.208205,-0.23995 0.08843,-0.0884 0.155255,-0.16003 0.20059,-0.22616 0.04535,-0.0661 0.0694,-0.12866 0.06595,-0.1937 -0.0069,-0.13007 -0.113645,-0.24968 -0.31005,-0.44608 -0.0399,-0.0399 -0.07215,-0.0728 -0.08943,-0.10668 -0.01735,-0.0337 -0.0228,-0.0682 -0.0076,-0.12361 0.0304,-0.11071 0.154735,-0.29674 0.4485,-0.62804 0.58753,-0.6626 1.84641,-1.91327 4.3634846,-4.41251 2.7688,-2.74918 5.2406,-5.20939 5.497,-5.47144 0.30313,-0.30981 0.75059,-0.75635 1.144905,-1.14491 0.39432,-0.38855 0.738165,-0.72112 0.825185,-0.79619 0.05036,-0.0434 0.08951,-0.0779 0.11393,-0.11877 0.02445,-0.0408 0.02895,-0.0899 0.009,-0.14087 -0.04,-0.10201 -0.15868,-0.22864 -0.390495,-0.4782 -0.329735,-0.35497 -0.61059,-0.56487 -0.82795,-0.6201 -0.10868,-0.0276 -0.205545,-0.0144 -0.275525,0.0455 -0.06998,0.06 -0.109875,0.16071 -0.12257,0.29728 -5e-4,0.005 -0.0139,0.0373 -0.0473,0.0811 -0.0334,0.0439 -0.08466,0.10205 -0.155025,0.17574 -0.14073,0.14738 -0.358055,0.35628 -0.663955,0.63977 -0.476585,0.44165 -0.986565,0.93229 -1.138,1.09519 -0.07082,0.0762 -0.69798,0.71343 -1.644165,1.6704 -0.946185,0.95696 -2.214335,2.23675 -3.575595,3.60872 -2.4750046,2.49449 -3.7153696,3.74164 -4.5229946,4.15908 -0.403815,0.20872 -0.693245,0.21276 -0.98781,0.0694 -0.294565,-0.14336 -0.59438,-0.44126 -0.99506,-0.84176 -0.87657,-0.87623 -1.320975,-1.31956 -1.607565,-1.53161 -0.14327,-0.10604 -0.24922,-0.15524 -0.349405,-0.1678 -0.10019,-0.0126 -0.189945,0.0117 -0.301075,0.0435 -0.127095,0.0364 -0.22974,0.082 -0.30867,0.15192 -0.07893,0.07 -0.132355,0.16418 -0.162275,0.28933 -0.05983,0.25033 -0.0321,0.62777 0.05352,1.24193 0.07912,0.56745 0.215095,1.63827 0.301765,2.37889 0.0434,0.37096 0.09243,0.71806 0.136725,0.97918 0.02215,0.13056 0.0429,0.23955 0.06146,0.31971 0.0093,0.0401 0.01805,0.0734 0.02625,0.0987 0.0082,0.0254 0.01205,0.0411 0.0283,0.058 0.0157,0.0164 0.02565,0.0285 0.0314,0.0369 -0.01055,0.003 -0.02795,0.006 -0.05213,0.008 -0.0469,0.005 -0.09682,0.0315 -0.14881,0.0687 -0.05198,0.0373 -0.104255,0.0862 -0.146385,0.13949 -0.04545,0.0574 -0.08526,0.0961 -0.113585,0.11429 -0.0142,0.009 -0.02515,0.0127 -0.0304,0.0131 -0.0052,5e-4 -0.0045,2.5e-4 -0.0069,-0.002 -0.02105,-0.0211 -0.04525,-0.0421 -0.07906,-0.0501 -0.0338,-0.008 -0.07277,-0.001 -0.11912,0.019 -0.09268,0.0415 -0.225445,0.1418 -0.457475,0.347 -0.464065,0.41038 -1.319845,1.24129 -2.973095,2.85156 -1.80724,1.76024 -3.91186,3.80562 -4.676985,4.54509 -0.73379,0.70918 -1.12479,1.09488 -1.30788,1.33687 -0.09154,0.121 -0.13311,0.20759 -0.133615,0.28554 -5e-4,0.0779 0.04305,0.13767 0.10116,0.19576 -0.0045,-0.005 -0.003,-0.009 -0.004,-0.004 -5e-4,0.005 -0.0035,0.0144 -0.0097,0.0263 -0.0121,0.0237 -0.0355,0.0555 -0.06561,0.0856 -0.0298,0.0298 -0.06209,0.0492 -0.08734,0.057 -0.02525,0.008 -0.0387,0.004 -0.0449,-0.002 -0.0221,-0.0222 -0.05356,-0.0231 -0.08459,-0.0162 -0.03105,0.007 -0.06686,0.0217 -0.11014,0.0445 -0.08657,0.0457 -0.2032,0.12331 -0.353555,0.23478 -0.121657,0.0902 -0.244174,0.17905 -0.343541,0.24893 -0.09937,0.0699 -0.177992,0.12208 -0.202327,0.13535 -0.02275,0.0124 -0.04201,0.0268 -0.05593,0.0456 -0.01393,0.0188 -0.02099,0.0426 -0.02037,0.0666 0.0012,0.048 0.0267,0.0967 0.07043,0.16227 0.05375,0.0806 0.08312,0.14334 0.09253,0.1823 0.0047,0.0195 0.0041,0.0326 0.0027,0.0373 -0.0014,0.005 5e-4,0.002 -0.0027,0.002 -0.0065,0.002 -0.04461,-0.004 -0.09598,-0.0352 -0.05137,-0.0316 -0.117192,-0.0847 -0.192314,-0.15985 -0.08466,-0.0847 -0.197761,-0.11739 -0.314192,-0.11187 -0.11643,0.006 -0.237004,0.048 -0.344921,0.11497 -0.215837,0.13391 -0.3852304,0.36837 -0.342162,0.61285 0.01461,0.0829 -0.01413,0.14664 -0.05283,0.17643 -0.0387,0.0298 -0.08511,0.0329 -0.135689,-0.0176 -0.03913,-0.0392 -0.09708,-0.0396 -0.146739,-0.019 -0.04966,0.0206 -0.09777,0.06 -0.140525,0.10807 -0.08551,0.0962 -0.153509,0.22878 -0.119807,0.34009 0.01992,0.0658 -0.0025,0.16477 -0.04005,0.20233 -0.02629,0.0263 -0.04854,0.0358 -0.0687,0.0356 -0.02017,-2e-4 -0.04311,-0.01 -0.07008,-0.0369 -0.04217,-0.0422 -0.101613,-0.0507 -0.155716,-0.0356 -0.0541,0.0151 -0.106658,0.0507 -0.152608,0.0967 -0.0919,0.0919 -0.161326,0.22874 -0.132237,0.35459 0.02098,0.0908 -0.0036,0.16588 -0.03936,0.20164 -0.01788,0.0179 -0.03714,0.0262 -0.05765,0.0259 -0.0205,-2.5e-4 -0.0443,-0.009 -0.07043,-0.0352 -0.04217,-0.0421 -0.101957,-0.0503 -0.15606,-0.0352 -0.0541,0.0151 -0.106313,0.0504 -0.152263,0.0963 -0.0919,0.0919 -0.161326,0.22874 -0.132238,0.35459 0.02098,0.0908 -0.0036,0.16588 -0.03936,0.20164 -0.01788,0.0179 -0.03715,0.0262 -0.05765,0.0259 -0.0205,-2.5e-4 -0.0443,-0.009 -0.07043,-0.0352 -0.02053,-0.0205 -0.0409,-0.0371 -0.06422,-0.047 -0.02332,-0.01 -0.04992,-0.0117 -0.07527,-0.005 -0.0507,0.0138 -0.09723,0.0544 -0.164346,0.12153 -0.116668,0.11667 -0.163762,0.229 -0.136728,0.34596 0.0084,0.0362 0.008,0.0797 3.5e-4,0.11773 -0.0077,0.038 -0.02329,0.0703 -0.03867,0.0856 -0.02015,0.0202 -0.0396,0.0268 -0.06008,0.0255 -0.02047,-10e-4 -0.04419,-0.0117 -0.06905,-0.0366 -0.04217,-0.0421 -0.101958,-0.0503 -0.15606,-0.0352 -0.0541,0.0151 -0.106314,0.0504 -0.152264,0.0963 -0.0919,0.0919 -0.161326,0.22874 -0.132237,0.35459 0.02098,0.0908 -0.0036,0.16588 -0.03936,0.20164 -0.01788,0.0179 -0.03715,0.0262 -0.05765,0.0259 -0.0205,-2.5e-4 -0.0443,-0.009 -0.07043,-0.0352 -0.03984,-0.0399 -0.09406,-0.0523 -0.143977,-0.0411 -0.04992,0.0112 -0.09693,0.0423 -0.138798,0.0849 -0.08367,0.0854 -0.148119,0.2196 -0.148118,0.36081 -2e-6,0.0973 -0.03352,0.16822 -0.07182,0.19887 -0.01914,0.0153 -0.03823,0.0211 -0.05869,0.0193 -0.02046,-0.002 -0.04385,-0.0121 -0.06871,-0.0369 -0.03654,-0.0365 -0.09017,-0.0401 -0.136036,-0.0227 -0.04586,0.0172 -0.08953,0.052 -0.128785,0.0963 -0.07851,0.0886 -0.140474,0.21659 -0.131203,0.33629 0.0082,0.10636 -0.01022,0.1725 -0.03418,0.19646 -0.01199,0.012 -0.02447,0.0165 -0.04523,0.0155 -0.02076,-10e-4 -0.0493,-0.01 -0.0839,-0.0301 -0.04761,-0.0279 -0.102486,-0.0312 -0.153297,-0.0166 -0.05081,0.0146 -0.09896,0.0458 -0.141216,0.088 -0.08452,0.0845 -0.147341,0.2135 -0.152262,0.35252 -0.0039,0.11202 -0.02558,0.18706 -0.04661,0.21372 -0.01051,0.0134 -0.01604,0.0154 -0.02486,0.0145 -0.0088,-5e-4 -0.02552,-0.008 -0.04662,-0.0294 -0.01891,-0.019 -0.04532,-0.0269 -0.07043,-0.0263 -0.02512,5e-4 -0.04994,0.009 -0.07527,0.0207 -0.05067,0.0239 -0.103686,0.065 -0.1533,0.11463 -0.04961,0.0496 -0.09535,0.10734 -0.128439,0.16573 -0.03308,0.0584 -0.05486,0.11728 -0.04972,0.17263 0.0067,0.0725 -0.01627,0.13351 -0.0442,0.16297 -0.01399,0.0147 -0.02787,0.0213 -0.04006,0.0221 -0.01219,0.001 -0.02501,-0.003 -0.04143,-0.0193 -0.04279,-0.0428 -0.102799,-0.0519 -0.158131,-0.0373 -0.05533,0.0146 -0.109297,0.0498 -0.157097,0.0963 -0.09554,0.0931 -0.169211,0.23309 -0.148809,0.36633 0.0093,0.061 0.0069,0.10371 -10e-7,0.12223 -0.0034,0.009 -0.0064,0.0117 -0.009,0.0131 -0.0025,0.001 -0.0072,0.003 -0.01796,0.001 -0.0215,-0.004 -0.06201,-0.024 -0.113248,-0.0628 -0.05124,-0.0388 -0.114166,-0.0955 -0.188515,-0.16987 -0.209187,-0.20919 -0.523701,-0.25277 -0.870072,-0.15468 -0.346372,0.0981 -0.728634,0.33624 -1.088973,0.69606 -0.03736,0.0373 -0.06312,0.061 -0.08562,0.0684 -0.02245,0.007 -0.04883,0.005 -0.102197,-0.0235 -0.106739,-0.0573 -0.299485,-0.21746 -0.680522,-0.53689 -0.39263,-0.32914 -0.635327,-0.51024 -0.829677,-0.57072 -0.09718,-0.0303 -0.183563,-0.0283 -0.264129,0.003 -0.08057,0.0314 -0.154121,0.0901 -0.234091,0.17056 z m 0.04661,0.0466 c 0.077,-0.0774 0.144713,-0.12965 0.211648,-0.15571 0.06694,-0.026 0.13391,-0.0283 0.22028,-0.002 0.17274,0.0538 0.415496,0.23018 0.80689,0.55829 0.381042,0.31944 0.569684,0.47904 0.69157,0.54449 0.06094,0.0327 0.110626,0.0425 0.154334,0.028 0.04371,-0.0145 0.07411,-0.0466 0.111517,-0.0839 0.354005,-0.35365 0.729093,-0.58559 1.060659,-0.67949 0.331566,-0.0939 0.615711,-0.0513 0.804817,0.13777 0.07567,0.0757 0.140678,0.13402 0.195767,0.17574 0.05509,0.0417 0.0992,0.0676 0.141214,0.0749 0.02102,0.004 0.0428,0.002 0.06146,-0.008 0.01866,-0.0103 0.03172,-0.0282 0.03902,-0.048 0.0147,-0.0395 0.01357,-0.0893 0.0034,-0.15537 -0.01548,-0.10112 0.04644,-0.22755 0.129821,-0.30867 0.04165,-0.0406 0.08813,-0.0696 0.127749,-0.0801 0.03962,-0.0104 0.06915,-0.005 0.0946,0.0201 0.02671,0.0267 0.05979,0.041 0.09218,0.039 0.0324,-0.002 0.06159,-0.0189 0.08425,-0.0428 0.04531,-0.0478 0.07007,-0.12547 0.0618,-0.21441 -0.003,-0.0322 0.01205,-0.0821 0.04143,-0.13396 0.02939,-0.0519 0.07168,-0.10623 0.117382,-0.15193 0.0457,-0.0457 0.09489,-0.0828 0.134646,-0.10152 0.01987,-0.009 0.03757,-0.0138 0.04937,-0.0141 0.0118,-2.5e-4 0.01675,0.002 0.02176,0.007 0.02741,0.0274 0.05593,0.0455 0.0877,0.0483 0.03176,0.003 0.06256,-0.0137 0.08252,-0.039 0.03992,-0.0506 0.05658,-0.1344 0.06077,-0.25273 0.0042,-0.12022 0.06086,-0.23557 0.132928,-0.30764 0.03604,-0.036 0.07564,-0.0612 0.112558,-0.0718 0.03691,-0.0106 0.07025,-0.008 0.101507,0.0104 0.04058,0.0238 0.07795,0.0376 0.113939,0.0394 0.03599,0.002 0.07063,-0.0106 0.09529,-0.0352 0.04932,-0.0493 0.06241,-0.13338 0.05352,-0.24825 -0.0071,-0.0918 0.04653,-0.21033 0.114974,-0.28761 0.03422,-0.0387 0.07168,-0.0666 0.102206,-0.078 0.03051,-0.0115 0.0488,-0.01 0.06629,0.008 0.03328,0.0333 0.07105,0.0529 0.10945,0.0563 0.0384,0.003 0.07573,-0.01 0.105998,-0.0342 0.06053,-0.0484 0.09667,-0.13795 0.09667,-0.24998 1e-6,-0.12061 0.0582,-0.24189 0.12913,-0.31419 0.03545,-0.0361 0.0736,-0.0594 0.105997,-0.0666 0.03239,-0.007 0.05787,-0.002 0.08286,0.0228 0.03539,0.0354 0.07561,0.0543 0.115664,0.0549 0.04006,5e-4 0.07773,-0.017 0.105998,-0.0453 0.05654,-0.0565 0.08219,-0.15432 0.05697,-0.26344 -0.02101,-0.0909 0.03484,-0.213 0.11463,-0.29278 0.03989,-0.0399 0.08484,-0.069 0.123259,-0.0798 0.03843,-0.0107 0.06695,-0.006 0.0915,0.0183 0.03323,0.0333 0.07138,0.0537 0.111522,0.0563 0.04014,0.002 0.07987,-0.0143 0.110831,-0.0453 0.02988,-0.0299 0.04719,-0.0726 0.05662,-0.11947 0.0094,-0.0469 0.0106,-0.098 -3.5e-4,-0.14535 -0.02142,-0.0927 0.01014,-0.17587 0.118772,-0.2845 0.06501,-0.065 0.109575,-0.0973 0.135346,-0.10427 0.01287,-0.004 0.02083,-0.003 0.0321,0.002 0.0113,0.005 0.02585,0.0155 0.04316,0.0328 0.03539,0.0354 0.07561,0.0543 0.115664,0.0549 0.04005,0.001 0.07773,-0.017 0.105996,-0.0453 0.05654,-0.0565 0.08219,-0.15432 0.05697,-0.26344 -0.02101,-0.0909 0.03485,-0.21301 0.114629,-0.29279 0.03989,-0.0399 0.08483,-0.069 0.123259,-0.0797 0.03844,-0.0108 0.06695,-0.006 0.0915,0.0183 0.03539,0.0354 0.07561,0.0543 0.115663,0.0549 0.04006,0.001 0.07773,-0.017 0.105997,-0.0453 0.05654,-0.0565 0.08219,-0.15432 0.05697,-0.26344 -0.02101,-0.0909 0.03484,-0.213 0.114627,-0.29278 0.03989,-0.0399 0.08484,-0.069 0.123261,-0.0798 0.03843,-0.0108 0.06695,-0.006 0.0915,0.0183 0.03483,0.0349 0.07408,0.0563 0.11601,0.0566 0.04192,2.5e-4 0.08158,-0.0208 0.116008,-0.0552 0.06353,-0.0635 0.08488,-0.1761 0.05697,-0.26827 -0.02097,-0.0693 0.02985,-0.19167 0.10565,-0.27691 0.03791,-0.0426 0.08109,-0.0757 0.116698,-0.0905 0.03561,-0.0147 0.05674,-0.0137 0.07458,0.004 0.0688,0.0688 0.161288,0.071 0.223043,0.0235 0.06176,-0.0476 0.09517,-0.13749 0.077,-0.24065 -0.03655,-0.20749 0.112618,-0.42106 0.312122,-0.54483 0.09975,-0.0619 0.210842,-0.10046 0.313157,-0.10531 0.102315,-0.005 0.194428,0.0225 0.264475,0.0925 0.07775,0.0777 0.146852,0.13391 0.204741,0.16952 0.05789,0.0356 0.103399,0.0553 0.147775,0.0428 0.02219,-0.006 0.04163,-0.0256 0.04835,-0.0477 0.0067,-0.0221 0.005,-0.0454 -0.0014,-0.0718 -0.01273,-0.0527 -0.046,-0.11941 -0.102198,-0.20371 -0.04139,-0.0621 -0.0588,-0.10457 -0.05939,-0.12706 -2.75e-4,-0.0112 0.0018,-0.0176 0.0076,-0.0255 0.0058,-0.008 0.01697,-0.0173 0.03453,-0.0269 0.0343,-0.0187 0.108611,-0.0692 0.208543,-0.13948 0.09994,-0.0703 0.222825,-0.15912 0.34492,-0.24963 0.149015,-0.11048 0.26419,-0.18702 0.34492,-0.22961 0.04035,-0.0213 0.07271,-0.0337 0.09356,-0.0383 0.02085,-0.004 0.025,-5e-4 0.02385,-10e-4 0.02885,0.0288 0.07219,0.0306 0.11118,0.0186 0.039,-0.012 0.07844,-0.037 0.114625,-0.0732 0.0342,-0.0342 0.0608,-0.0697 0.07734,-0.10219 0.0083,-0.0162 0.01405,-0.0318 0.0162,-0.048 0.0025,-0.0162 5e-4,-0.0367 -0.0145,-0.0518 -0.05419,-0.0542 -0.08252,-0.0949 -0.08217,-0.14847 2.5e-4,-0.0535 0.03215,-0.12947 0.12015,-0.24583 0.176055,-0.2327 0.567375,-0.62028 1.300965,-1.32928 0.765365,-0.7397 2.87039,-2.7848 4.677675,-4.54509 1.65323,-1.61024 2.50958,-2.44208 2.97068,-2.84984 0.23054,-0.20388 0.36381,-0.30142 0.440905,-0.33594 0.03855,-0.0172 0.06059,-0.0186 0.0763,-0.0149 0.0157,0.004 0.02935,0.0142 0.04765,0.0325 0.0153,0.0153 0.03835,0.0225 0.05938,0.0207 0.02105,-0.002 0.04065,-0.0104 0.06043,-0.0231 0.03955,-0.0254 0.08188,-0.0685 0.129825,-0.12912 0.0377,-0.0477 0.08618,-0.0932 0.132935,-0.12671 0.04675,-0.0335 0.09327,-0.0541 0.116355,-0.0563 0.0271,-0.002 0.049,-0.005 0.06733,-0.0107 0.01835,-0.005 0.0375,-0.014 0.0466,-0.0362 0.0091,-0.0222 0.001,-0.043 -0.0093,-0.059 -0.01005,-0.0159 -0.0241,-0.0317 -0.0425,-0.0507 0.0045,0.005 -0.0056,-0.0104 -0.01275,-0.0328 -0.0073,-0.0223 -0.0155,-0.0539 -0.02455,-0.0929 -0.018,-0.078 -0.03875,-0.1858 -0.06077,-0.31557 -0.044,-0.25954 -0.09308,-0.60611 -0.13638,-0.97607 -0.08674,-0.74123 -0.222505,-1.81181 -0.30176,-2.38028 -0.08538,-0.61232 -0.110045,-0.987 -0.0549,-1.21775 0.02755,-0.11538 0.07327,-0.19428 0.14156,-0.25481 0.06829,-0.0605 0.16111,-0.10318 0.28312,-0.13811 0.11046,-0.0316 0.190045,-0.0521 0.27483,-0.0414 0.08479,0.0106 0.179685,0.0528 0.318335,0.15537 0.27731,0.20525 0.72378,0.64885 1.600315,1.52505 0.40068,0.4005 0.702145,0.70356 1.01301,0.85488 0.31089,0.1513 0.631575,0.14421 1.046855,-0.0704 0.830555,-0.42929 2.064905,-1.67668 4.5399146,-4.17117 1.36128,-1.37199 2.629015,-2.65207 3.57524,-3.60907 0.94622,-0.95701 1.567655,-1.58799 1.645545,-1.67178 0.145995,-0.15706 0.65897,-0.65035 1.13489,-1.09139 0.30634,-0.28389 0.523735,-0.49354 0.666365,-0.64289 0.07123,-0.0748 0.12385,-0.134 0.15985,-0.18127 0.036,-0.0473 0.05743,-0.0795 0.06077,-0.11532 0.0118,-0.12675 0.0481,-0.20876 0.09943,-0.25274 0.05132,-0.0439 0.12071,-0.056 0.216135,-0.0317 0.190855,0.0485 0.470155,0.2505 0.79584,0.60111 0.23167,0.24938 0.347945,0.38171 0.37738,0.45679 0.0147,0.0375 0.01225,0.0564 -0.004,0.0832 -0.01605,0.0268 -0.05071,0.0596 -0.10045,0.10257 -0.09468,0.0817 -0.43375,0.41052 -0.82829,0.7993 -0.39454,0.38878 -0.841935,0.83522 -1.145595,1.14559 -0.252475,0.25806 -2.72789,2.72195 -5.496655,5.4711 -2.5170696,2.49925 -3.7753596,3.74814 -4.3665946,4.41493 -0.295615,0.33339 -0.4255,0.51939 -0.462655,0.65462 -0.01855,0.0676 -0.01125,0.12477 0.0128,0.1716 0.02405,0.0469 0.06162,0.083 0.101495,0.12292 0.194975,0.19498 0.285745,0.30958 0.290715,0.40328 0.0025,0.0469 -0.01385,0.0933 -0.05455,0.1526 -0.04065,0.0593 -0.105095,0.12929 -0.19265,0.21684 -0.1186,0.1186 -0.18677,0.19162 -0.22028,0.2555 -0.01675,0.0319 -0.02455,0.063 -0.0221,0.0932 0.0025,0.0302 0.0143,0.0575 0.0304,0.0849 0.015,0.0257 0.02095,0.0404 0.01865,0.0601 -0.002,0.0197 -0.01525,0.0496 -0.05076,0.097 -0.07097,0.0948 -0.22685,0.25446 -0.520665,0.54828 -0.345125,0.34513 -0.54966,0.52357 -0.68225,0.56347 -0.06629,0.0199 -0.11247,0.0104 -0.164345,-0.0276 -0.05187,-0.0381 -0.10692,-0.10868 -0.170905,-0.20888 -0.0422,-0.066 -0.09227,-0.11405 -0.15191,-0.14088 -0.05966,-0.0268 -0.127525,-0.031 -0.2006,-0.0142 -0.14615,0.0337 -0.31671,0.14735 -0.53033,0.34043 -0.17892,0.1617 -0.272335,0.23953 -0.30004,0.32766 -0.01385,0.0441 -0.0056,0.0886 0.0162,0.13223 0.02185,0.0436 0.05622,0.0901 0.101165,0.15088 0.105605,0.14288 0.1535,0.23597 0.1533,0.31696 -2.05e-4,0.081 -0.0474,0.16195 -0.1533,0.28312 -0.06119,0.07 -0.09894,0.12347 -0.114285,0.17436 -0.01535,0.0509 -2.5e-4,0.10114 0.03555,0.13707 0.0161,0.0161 0.02885,0.0281 0.03485,0.0377 0.006,0.01 0.0078,0.0148 0.0055,0.029 -0.0045,0.0283 -0.03925,0.0915 -0.135,0.20613 -0.191535,0.22918 -0.617295,0.6699 -1.481195,1.56613 -0.89647,0.93002 -2.631145,2.73181 -3.85456,4.00371 -1.83142,1.90401 -2.75976,2.86823 -3.256905,3.34115 -0.24858,0.23645 -0.39029,0.34988 -0.47716,0.39499 -0.04345,0.0225 -0.07159,0.0275 -0.0946,0.0263 -0.023,-0.001 -0.04355,-0.01 -0.07112,-0.0228 -0.11557,-0.0558 -0.225205,-0.0567 -0.299695,-0.007 -0.07449,0.0498 -0.104365,0.14884 -0.07009,0.26205 0.01215,0.0401 0.0051,0.0908 -0.04385,0.18265 -0.04885,0.0919 -0.138235,0.22088 -0.280705,0.40845 -0.196265,0.2584 -0.313955,0.39527 -0.392565,0.43814 -0.0393,0.0215 -0.06517,0.0228 -0.09771,0.01 -0.03255,-0.0127 -0.0716,-0.0441 -0.12016,-0.0918 -0.0325,-0.0318 -0.05972,-0.0524 -0.08976,-0.0608 -0.015,-0.004 -0.0322,-0.005 -0.04765,0.002 -0.01545,0.007 -0.02695,0.0202 -0.0335,0.0342 -0.0131,0.028 -0.01375,0.0606 -0.0097,0.10289 0.004,0.0423 0.01465,0.0939 0.0314,0.15503 0.01395,0.0508 0.01965,0.14763 0.0152,0.25618 -0.0045,0.10856 -0.01835,0.23052 -0.04075,0.33768 -0.0325,0.15536 0.0379,0.37213 0.16124,0.6163 0.123315,0.24416 0.302725,0.51382 0.499945,0.76235 0.197215,0.24853 0.412195,0.47576 0.608355,0.63391 0.09809,0.0791 0.191465,0.14082 0.276905,0.17954 0.08543,0.0387 0.1642,0.0553 0.23271,0.0359 0.07544,-0.0214 0.16569,0.0199 0.23927,0.10255 0.07358,0.0826 0.126365,0.20316 0.126365,0.32317 0,0.0697 0.0344,0.14776 0.09668,0.23892 0.06227,0.0912 0.153475,0.19555 0.2738,0.31385 0.240655,0.23659 0.59676,0.52832 1.063765,0.87111 0.207065,0.15199 0.577175,0.43499 0.821045,0.62769 0.245375,0.1939 0.623555,0.46782 0.843485,0.61078 0.21745,0.14135 0.56453,0.38049 0.76926,0.53033 0.207685,0.15201 0.63005,0.42339 0.942575,0.6056 0.31077,0.18119 0.68217,0.41129 0.82139,0.50858 0.2863,0.20008 0.53289,0.34873 0.72092,0.43711 0.09402,0.0442 0.173115,0.0736 0.237545,0.0863 0.06442,0.0127 0.11922,0.0113 0.15468,-0.0242 0.0384,-0.0384 0.09907,-0.042 0.180915,-0.0125 0.08185,0.0296 0.1779,0.0925 0.26724,0.17333 0.17869,0.16161 0.328345,0.39702 0.32248,0.56278 -5e-4,0.0111 -0.01665,0.0682 -0.04765,0.14294 -0.03095,0.0748 -0.07559,0.1722 -0.1312,0.28588 -0.111215,0.22736 -0.265445,0.51919 -0.4378,0.82519 -0.98664,1.75169 -1.444425,2.57401 -1.70113,2.96136 -0.128355,0.19367 -0.2061,0.27711 -0.26931,0.31419 -0.0632,0.0371 -0.119575,0.0334 -0.218205,0.047 -0.06531,0.009 -0.126515,0.0177 -0.17298,0.0245 -0.02325,0.003 -0.04255,0.006 -0.05697,0.009 -0.0083,10e-4 -0.0121,0.002 -0.01695,0.003 -0.003,-10e-4 -0.0057,-0.003 -0.0107,-0.007 -0.0128,-0.008 -0.03175,-0.0209 -0.05421,-0.037 -0.04485,-0.0322 -0.105305,-0.0777 -0.17194,-0.12913 -0.13327,-0.10277 -0.290275,-0.22895 -0.39326,-0.31799 -0.03465,-0.0299 -0.07573,-0.0542 -0.11532,-0.0704 -0.0396,-0.0162 -0.07699,-0.0261 -0.112555,-0.0187 -0.0058,0.001 -0.049,-0.004 -0.09702,-0.0245 -0.04805,-0.0199 -0.10493,-0.05 -0.15641,-0.0853 -0.109845,-0.0752 -0.37394,-0.23081 -0.591785,-0.34872 -0.532145,-0.28804 -1.93135,-1.19 -2.555665,-1.64762 -0.282735,-0.20724 -0.680845,-0.48209 -0.887335,-0.6125 -0.202275,-0.12775 -0.592125,-0.415 -0.861445,-0.63564 -0.27116,-0.22215 -0.662065,-0.52504 -0.871105,-0.67499 -0.207135,-0.14859 -0.48727,-0.36105 -0.620445,-0.46991 -0.07595,-0.0621 -0.15107,-0.10059 -0.229605,-0.10669 -0.07854,-0.006 -0.157295,0.0215 -0.2372,0.0804 -0.159805,0.11802 -0.332625,0.36186 -0.56658,0.762 -0.344645,0.58947 -1.029984,1.27455 -1.649004,1.6483 -0.313319,0.18918 -0.6450624,0.45623 -0.8983834,0.70503 -0.126592,0.12447 -0.233578,0.24426 -0.309016,0.34837 -0.07544,0.10412 -0.122711,0.18984 -0.118771,0.26379 6e-4,0.0112 0.0029,0.0179 0.0062,0.0311 0.0033,0.0131 0.0078,0.0302 0.01381,0.0511 0.01201,0.0418 0.02955,0.0991 0.05145,0.16952 0.0438,0.14095 0.105639,0.33512 0.180229,0.56486 0.149184,0.45949 0.348042,1.061 0.548285,1.66004 0.2002434,0.59905 0.4019434,1.19547 0.5569164,1.64589 0.07748,0.22522 0.143465,0.41378 0.191622,0.54794 0.02408,0.0671 0.04375,0.12064 0.05835,0.15848 0.0073,0.0189 0.01345,0.034 0.0183,0.0453 0.0024,0.006 0.0045,0.0101 0.0066,0.0141 0.0021,0.004 0.0016,0.006 0.0097,0.0145 0.01089,0.0109 0.01492,0.01 0.02036,0.0114 0.0054,0.002 0.01092,0.003 0.01761,0.004 0.01337,0.003 0.03029,0.006 0.05041,0.008 0.04023,0.005 0.0928,0.0109 0.14881,0.0148 0.244779,0.0174 0.379331,0.13585 0.411558,0.29831 0.03222,0.16245 -0.04213,0.37772 -0.24652,0.58212 -0.08105,0.081 -0.300434,0.24417 -0.589027,0.44194 -0.288592,0.19777 -0.6480444,0.43213 -1.0164654,0.66429 -0.736846,0.46432 -1.51292,0.92051 -1.822319,1.05307 -0.0939,0.0403 -0.166184,0.0653 -0.220626,0.068 -0.05444,0.002 -0.09178,-0.0121 -0.134655,-0.0608 -0.08576,-0.0973 -0.172435,-0.33983 -0.313847,-0.79653 -0.438456,-1.41602 -0.753767,-2.82068 -1.082757,-4.82338 -0.119087,-0.72493 -0.445553,-1.31547 -0.853846,-1.66246 -0.408293,-0.347 -0.904688,-0.44866 -1.343779,-0.18576 -0.08337,0.0499 -0.164874,0.0659 -0.246866,0.0508 -0.08199,-0.0152 -0.165369,-0.0625 -0.247556,-0.14467 -0.06322,-0.0632 -0.1379,-0.0932 -0.215793,-0.0811 -0.07789,0.0121 -0.155334,0.0621 -0.237543,0.14432 -0.03032,0.0303 -0.05526,0.0464 -0.08252,0.0514 -0.02727,0.005 -0.06168,-6e-5 -0.113938,-0.0249 -0.104522,-0.0496 -0.270774,-0.17594 -0.552426,-0.40535 -0.25777,-0.20995 -0.383971,-0.31663 -0.49028,-0.34872 -0.05315,-0.016 -0.102975,-0.009 -0.148121,0.0149 -0.04514,0.024 -0.08789,0.0624 -0.143977,0.11152 -0.0633,0.0555 -0.131239,0.10133 -0.190933,0.13155 -0.05968,0.0303 -0.112657,0.0426 -0.136725,0.0394 -0.06128,-0.008 -0.130409,0.0209 -0.213029,0.0708 -0.08262,0.0499 -0.177758,0.12326 -0.282084,0.21441 -0.208649,0.18231 -0.452645,0.43578 -0.690179,0.7116 -0.237552,0.27581 -0.468662,0.57358 -0.651174,0.84522 -0.182511,0.27163 -0.31682,0.5155 -0.360112,0.69088 -0.151617,0.61418 -0.142875,0.59863 -0.662567,1.11832 -0.143365,0.14336 -0.269391,0.27805 -0.357696,0.37979 -0.04415,0.0509 -0.07873,0.093 -0.101855,0.12533 -0.01157,0.0162 -0.02015,0.0297 -0.02624,0.0421 -0.0031,0.006 -0.0058,0.0122 -0.0072,0.0204 -0.0015,0.008 -0.0026,0.023 0.01001,0.0356 0.02465,0.0247 0.03372,0.0554 0.0252,0.10462 -0.0085,0.0492 -0.03709,0.11401 -0.08701,0.19059 -0.09983,0.15316 -0.283595,0.35332 -0.546904,0.59248 -0.570656,0.51831 -0.897657,0.95186 -0.985046,1.3531 -0.08739,0.40124 0.07244,0.76424 0.456097,1.12246 0.104659,0.0977 0.181194,0.17614 0.22684,0.2441 0.04565,0.068 0.06127,0.12278 0.05041,0.18576 -0.02172,0.12595 -0.16737,0.29512 -0.461967,0.58971 -0.1964,0.1964 -0.297784,0.29157 -0.325932,0.38739 -0.01408,0.0479 -0.0041,0.0951 0.02175,0.13915 0.02584,0.044 0.06576,0.089 0.117736,0.14812 0.05198,0.0591 0.09059,0.10277 0.113247,0.13741 0.02266,0.0346 0.02944,0.057 0.02624,0.0815 -0.0064,0.049 -0.07077,0.12658 -0.210267,0.28002 -0.07838,0.0862 -0.137226,0.15009 -0.186403,0.18994 -0.04923,0.0398 -0.08561,0.055 -0.126712,0.0528 -0.08222,-0.005 -0.20535,-0.0948 -0.446085,-0.28795 -0.02351,-0.0188 -0.05308,-0.0144 -0.07734,-0.005 -0.02426,0.01 -0.04916,0.0254 -0.07596,0.0462 -0.05358,0.0418 -0.114497,0.10357 -0.172987,0.17228 -0.05849,0.0687 -0.114241,0.14433 -0.156061,0.21406 -0.04181,0.0697 -0.07147,0.13098 -0.07147,0.18541 2e-6,0.0957 -0.02219,0.31415 -0.05731,0.58764 -0.03513,0.2735 -0.08273,0.6038 -0.133963,0.92946 -0.05123,0.32566 -0.106158,0.64684 -0.154334,0.90288 -0.04818,0.25603 -0.09213,0.451 -0.114628,0.50754 -0.0381,0.0957 -0.0697,0.16615 -0.09978,0.20612 -0.03008,0.04 -0.05054,0.0505 -0.09012,0.0438 -0.03957,-0.007 -0.100163,-0.0396 -0.185064,-0.10427 -0.0849,-0.0646 -0.19453,-0.15947 -0.33698,-0.28588 -0.131459,-0.11665 -0.252356,-0.22095 -0.342159,-0.2952 -0.0449,-0.0371 -0.0822,-0.0668 -0.109105,-0.087 -0.01345,-0.0101 -0.02419,-0.0179 -0.03315,-0.0234 -0.0044,-0.003 -0.0083,-0.005 -0.01347,-0.007 -0.0026,-10e-4 -0.0052,-0.002 -0.01071,-0.003 -0.0013,-1.2e-4 -0.0029,7e-5 -0.0049,0 -0.0018,3e-5 -0.0064,2.5e-4 -0.0066,2.5e-4 -1.2e-4,2e-5 -0.0089,0.003 -0.009,0.003 -9.4e-5,4e-5 -0.0093,0.006 -0.0094,0.007 -0.174803,0.1748 -0.274136,0.49941 -0.304526,0.88802 -0.03039,0.38862 0.01032,0.84181 0.129474,1.27438 0.210407,0.7638 0.300092,1.11771 0.383938,1.27887 0.02096,0.0403 0.04199,0.0696 0.06733,0.0894 0.02534,0.0199 0.05578,0.0285 0.08494,0.0276 0.05831,-0.002 0.113448,-0.0312 0.190586,-0.0587 0.417822,-0.14875 0.787347,-0.008 0.979178,0.23962 0.19183,0.24807 0.209532,0.60115 -0.08977,0.90045 -0.0161,0.0161 -0.06581,0.0439 -0.128094,0.0687 -0.06229,0.0248 -0.138166,0.0484 -0.212685,0.0677 -0.07452,0.0192 -0.147804,0.034 -0.204398,0.0401 -0.02829,0.003 -0.05257,0.004 -0.0694,0.002 -0.01684,-10e-4 -0.02508,-0.007 -0.02071,-0.002 -0.0056,-0.006 -0.01245,-0.0112 -0.02279,-0.0145 -0.01035,-0.003 -0.02526,-0.001 -0.03521,0.005 -0.01993,0.0133 -0.02157,0.0291 -0.02383,0.0439 -0.0045,0.0295 -0.0013,0.0675 0.0072,0.11636 0.0056,0.0318 -0.0027,0.0922 -0.02485,0.16089 -0.02209,0.0687 -0.05658,0.14724 -0.09667,0.22236 -0.04009,0.0751 -0.08634,0.147 -0.131201,0.2037 -0.04486,0.0567 -0.09006,0.0976 -0.11981,0.11083 -0.0096,0.005 -0.0441,0.007 -0.09322,-0.002 -0.04913,-0.01 -0.113216,-0.0292 -0.18817,-0.0577 -0.149911,-0.0568 -0.343873,-0.14912 -0.560715,-0.26862 -0.654555,-0.3607 -0.848159,-0.46944 -0.899074,-0.5034 -0.01945,-0.0129 -0.08181,-0.0501 -0.172633,-0.10358 -0.09083,-0.0534 -0.207929,-0.12189 -0.32973,-0.19231 -0.242613,-0.14026 -0.646161,-0.38807 -0.894932,-0.54966 -0.249687,-0.1622 -0.608711,-0.39204 -0.798603,-0.51134 -0.189067,-0.11879 -0.430563,-0.2779 -0.534128,-0.35183 -0.297858,-0.21263 -1.651152,-1.14739 -1.964914,-1.35725 -1.21877,-0.81515 -1.989223,-1.52073 -2.271514,-2.03466 -0.141144,-0.25696 -0.160086,-0.45917 -0.06525,-0.61008 0.09483,-0.15092 0.312953,-0.26023 0.667747,-0.30798 0.0802,-0.0108 0.15518,-0.0256 0.322479,-0.15675 0.167297,-0.13113 0.435008,-0.3795 0.925661,-0.86559 0.981301,-0.97218 2.853444,-2.89535 6.579062,-6.72269 0.973772,-1.00036 1.461378,-1.50077 1.72185,-1.73772 0.130226,-0.11849 0.204774,-0.17038 0.246866,-0.18541 0.02105,-0.008 0.03267,-0.007 0.04489,-0.004 0.01223,0.003 0.02626,0.0111 0.04523,0.0224 0.01871,0.0112 0.03717,0.009 0.05455,0.005 0.01738,-0.004 0.0358,-0.0121 0.05662,-0.0227 0.04165,-0.0213 0.09333,-0.0549 0.155025,-0.0998 0.123385,-0.0897 0.28618,-0.22432 0.475433,-0.38981 0.378503,-0.33098 0.861764,-0.78639 1.337219,-1.25505 0.475449,-0.46866 0.942897,-0.95064 1.28888,-1.33376 0.172997,-0.19156 0.315398,-0.35817 0.413975,-0.48717 0.04929,-0.0645 0.08768,-0.11915 0.113593,-0.16401 0.02593,-0.0448 0.04378,-0.0764 0.03764,-0.11428 -0.0097,-0.0598 -0.0043,-0.10192 0.03003,-0.16193 0.03434,-0.06 0.09995,-0.13585 0.210613,-0.24652 0.06906,-0.0691 0.121496,-0.12079 0.158138,-0.16503 0.03666,-0.0442 0.05979,-0.0824 0.0618,-0.12464 0.002,-0.0422 -0.01958,-0.0798 -0.05352,-0.11636 -0.03394,-0.0365 -0.08207,-0.0759 -0.145358,-0.12809 -0.07794,-0.0643 -0.136152,-0.1123 -0.175396,-0.15399 -0.03925,-0.0417 -0.05925,-0.0754 -0.06767,-0.11463 -0.01684,-0.0786 0.01789,-0.19519 0.09564,-0.43124 0.06242,-0.18949 0.09401,-0.28149 0.24583,-0.47163 0.151823,-0.19014 0.423993,-0.47582 0.961224,-1.03718 0.532845,-0.55679 0.815151,-0.85538 0.941888,-1.01923 0.03169,-0.0409 0.05381,-0.0735 0.06803,-0.10116 0.01422,-0.0277 0.02263,-0.0521 0.01657,-0.078 -0.0061,-0.0259 -0.03013,-0.0428 -0.05179,-0.0491 -0.02165,-0.006 -0.04513,-0.007 -0.07181,-0.007 -0.0083,0 -0.05087,-0.0145 -0.10427,-0.0462 -0.0534,-0.0317 -0.121384,-0.0784 -0.198874,-0.13672 -0.154983,-0.11662 -0.348767,-0.27929 -0.550701,-0.45955 -0.403871,-0.36054 -0.840278,-0.79422 -1.062389,-1.07896 -0.155288,-0.19908 -0.223185,-0.32657 -0.210611,-0.44747 0.01257,-0.1209 0.108588,-0.25112 0.305561,-0.44919 z M 2.7735704,259.89464 c -0.041,0.0279 -0.06792,0.0757 -0.08563,0.14018 -0.0354,0.12896 -0.03795,0.33167 -0.0162,0.62873 0.02175,0.29706 0.06875,0.68785 0.13776,1.18599 0.05412,0.39071 0.09416,0.68339 0.136035,0.89355 0.04185,0.21017 0.0822,0.33888 0.15503,0.40431 0.0364,0.0327 0.08341,0.0455 0.131545,0.0377 0.04815,-0.008 0.09807,-0.0326 0.15468,-0.0704 0.113205,-0.0756 0.254265,-0.20555 0.443665,-0.37738 0.251405,-0.22807 0.378965,-0.34183 0.46024,-0.38566 0.04065,-0.0219 0.06759,-0.0272 0.0984,-0.0245 0.0308,0.002 0.06735,0.0154 0.11877,0.0338 0.18291,0.0657 0.428115,-0.0244 0.638745,-0.1754 0.21063,-0.15094 0.389065,-0.36619 0.42226,-0.5797 0.0059,-0.0378 0.0055,-0.0761 -0.0076,-0.11808 -0.0131,-0.042 -0.038,-0.0868 -0.07941,-0.14363 -0.08279,-0.11359 -0.232515,-0.27658 -0.498565,-0.55726 -0.32467,-0.34253 -0.494395,-0.51982 -0.62735,-0.58661 -0.06649,-0.0334 -0.12893,-0.0364 -0.184715,-0.012 -0.05578,0.0243 -0.10472,0.0702 -0.165385,0.13016 -0.08833,0.0873 -0.173205,0.11681 -0.281045,0.0932 -0.10784,-0.0236 -0.24009,-0.10625 -0.40362,-0.25378 -0.166005,-0.14974 -0.294075,-0.24724 -0.4012,-0.27828 -0.05356,-0.0155 -0.10539,-0.0128 -0.14639,0.0152 z m 0.0373,0.0546 c 0.0223,-0.0152 0.04875,-0.0183 0.09046,-0.006 0.08343,0.0242 0.21158,0.11642 0.375305,0.26413 0.16748,0.15107 0.306405,0.24106 0.434005,0.26896 0.12759,0.0279 0.242685,-0.0125 0.34181,-0.11049 0.05968,-0.059 0.105595,-0.0997 0.14536,-0.11704 0.03975,-0.0174 0.07325,-0.0169 0.128095,0.0107 0.1097,0.0551 0.28498,0.23053 0.609395,0.5728 0.26576,0.28039 0.41533,0.44358 0.49339,0.5507 0.03905,0.0536 0.05948,0.0929 0.0694,0.12464 0.0099,0.0318 0.01045,0.0567 0.0055,0.0884 -0.02855,0.18366 -0.19487,0.39186 -0.39533,0.53551 -0.200465,0.14365 -0.432885,0.21926 -0.577975,0.16711 -0.05151,-0.0185 -0.09253,-0.0333 -0.135695,-0.0369 -0.04315,-0.004 -0.0869,0.006 -0.13534,0.0317 -0.09689,0.0523 -0.22161,0.1669 -0.47302,0.39498 -0.189485,0.17192 -0.331275,0.30126 -0.436415,0.37151 -0.05257,0.0352 -0.09593,0.0548 -0.12844,0.0601 -0.0325,0.005 -0.05354,-5e-4 -0.077,-0.0217 -0.0469,-0.0421 -0.09281,-0.16153 -0.133965,-0.36806 -0.04115,-0.20652 -0.08122,-0.49865 -0.135345,-0.8894 -0.06892,-0.49755 -0.115875,-0.8872 -0.137415,-1.18151 -0.02155,-0.2943 -0.01665,-0.49454 0.01415,-0.60663 0.0154,-0.056 0.0368,-0.0881 0.05904,-0.10324 z m -13.3072964,25.80734 c -0.200517,0.26425 -0.308782,0.55682 -0.322135,0.83244 -0.01335,0.27562 0.06922,0.53506 0.25101,0.72955 0.181792,0.19449 0.46149,0.32218 0.8358914,0.34009 0.07795,0.004 0.154633,0.0443 0.198529,0.0908 0.02195,0.0233 0.03539,0.0475 0.03901,0.0666 0.0037,0.0192 5e-4,0.0319 -0.01381,0.0462 -0.05936,0.0594 -0.174823,0.0806 -0.326279,0.0604 -0.151454,-0.0201 -0.3353794,-0.0799 -0.5230784,-0.16745 -0.375403,-0.17509 -0.767364,-0.46244 -0.965712,-0.75786 -0.04181,-0.0623 -0.07592,-0.10858 -0.110485,-0.1388 -0.01727,-0.0151 -0.03505,-0.0268 -0.05559,-0.0321 -0.02054,-0.005 -0.04316,-0.002 -0.06215,0.008 -0.03798,0.0199 -0.06394,0.0597 -0.09357,0.11843 -0.02962,0.0587 -0.06149,0.13818 -0.100473,0.24203 -0.117455,0.31292 -0.024,0.64762 0.19404,0.9046 0.218039,0.25698 0.561037,0.43934 0.949485,0.45299 0.406215,0.0143 0.8909124,-0.18189 1.3348014,-0.49442 0.443889,-0.31254 0.84682,-0.74255 1.082758,-1.2043 0.267545,-0.52359 0.168405,-1.07545 -0.128095,-1.4401 -0.2965,-0.36466 -0.793607,-0.54255 -1.309253,-0.3211 -0.3813654,0.16378 -0.6743894,0.40004 -0.8749064,0.66429 z m 0.409832,-0.3173 c 0.1413064,-0.10913 0.3052544,-0.20612 0.4909704,-0.28588 0.489874,-0.21038 0.95142,-0.0432 1.231912,0.30176 0.280492,0.34497 0.376497,0.86729 0.120497,1.3683 -0.229607,0.44935 -0.625798,0.87355 -1.061696,1.18046 -0.435897,0.30691 -0.9118764,0.49545 -1.2947494,0.482 -0.369126,-0.0129 -0.695312,-0.18692 -0.901149,-0.42952 -0.205835,-0.24259 -0.290612,-0.551 -0.182646,-0.83865 0.03869,-0.10308 0.07033,-0.18156 0.09771,-0.23581 0.02739,-0.0543 0.05195,-0.0823 0.0649,-0.0891 0.0065,-0.003 0.009,-0.003 0.01519,-0.002 0.0062,0.002 0.0162,0.007 0.02866,0.0176 0.02493,0.0218 0.05864,0.0649 0.09944,0.12568 0.209585,0.31215 0.607881,0.60169 0.992297,0.78099 0.192208,0.0896 0.38073,0.15188 0.5420694,0.17332 0.161339,0.0214 0.299283,0.004 0.382211,-0.0791 0.02884,-0.0288 0.03865,-0.0693 0.03177,-0.10565 -0.0069,-0.0364 -0.02733,-0.0698 -0.05559,-0.0998 -0.05652,-0.0599 -0.146049,-0.1065 -0.243758,-0.11117 -0.3610304,-0.0173 -0.6217044,-0.13898 -0.7903174,-0.31937 -0.168612,-0.1804 -0.246367,-0.4207 -0.233746,-0.68122 0.01893,-0.39077 0.242117,-0.82543 0.666021,-1.15284 z m -16.225822,21.28877 c -0.110499,0.11736 -0.139582,0.26469 -0.101163,0.38152 0.03842,0.11683 0.148796,0.20164 0.297275,0.18886 0.08268,-0.007 0.14512,-0.0121 0.194731,-0.0214 0.04961,-0.009 0.08844,-0.0233 0.117391,-0.0511 0.0289,-0.0279 0.04381,-0.0657 0.05352,-0.11359 0.0062,-0.0304 0.01023,-0.0768 0.0145,-0.11878 l 0.0017,0.002 0.0066,-0.0701 c 0.01346,-0.14427 -0.08353,-0.25309 -0.20578,-0.29278 -0.122246,-0.0397 -0.273954,-0.0156 -0.378758,0.0956 z m 0.04833,0.0456 c 0.08624,-0.0916 0.210458,-0.11037 0.310049,-0.078 0.09959,0.0324 0.170385,0.11051 0.159858,0.22338 -0.0074,0.0794 -0.01259,0.1381 -0.02106,0.17989 -0.0085,0.0418 -0.01905,0.0646 -0.03452,0.0794 -0.01552,0.0148 -0.04,0.0253 -0.0839,0.0335 -0.0439,0.008 -0.105414,0.0139 -0.188171,0.0211 -0.122032,0.0105 -0.198787,-0.0524 -0.228912,-0.14398 -0.03013,-0.0916 -0.009,-0.21362 0.08666,-0.31523 z m 0.08666,0.94775 c 0.0016,0.002 0.0036,5e-4 0.0052,0.002 -2.75e-4,-6e-5 -8e-4,5e-4 -0.001,2.5e-4 -0.0049,-0.002 -0.0052,-0.003 -0.0041,-0.002 z"
       id="path4591"
       sodipodi:nodetypes="cssscccccccsscccccccsccccscccccccccscccsssssccccccccsscccccccssccccccccccccccscsccccccscccccscscscsccccccccscssccccsscsccscsccssscccscsscccccccccccccccsccccscsscccccccccccccccsccccccccccccscsscccccccssccccccccccsccccccccccccccsccsccccscccccccscccccsscsccscssccscsccccccsssccccccsscccccccccccsccssssccscscsccccccccccccsscccccccscscscscscscscsccsccscscscscscccccscccscccssccsccsccccsccsccccsscccscccccccscccsscccccccsccccsccscssscccssssscscccscscscscsccsccscscscscscscscscssscccsssccccccccsssccsccsccsscccscccccccccccscccccccccssscscscccccccssccccsccscccccscccccccccsccsccccscccccccccccccccccccsccccsccccccccccscccccssccccccccccccccccscccccccccccscscccccssccscssccccscsccscsscssccccccsssssccsscscscscscccccccccccsccccccccccccccccccssscccccscccccccccccscscccsccccsscccsscccccccsscccscscccccccssccccccssccccccssccscccccsccccccccccccccccscccccscccccccsscccccsscccsccccscscscssscccccscsscccccccccsccccccccscccccccccccscccccccsccss" />
  </g>
</svg>
