<?xml version="1.0" encoding="UTF-8" standalone="no"?>
<!-- Created with Inkscape (http://www.inkscape.org/) -->

<svg
   xmlns:dc="http://purl.org/dc/elements/1.1/"
   xmlns:cc="http://creativecommons.org/ns#"
   xmlns:rdf="http://www.w3.org/1999/02/22-rdf-syntax-ns#"
   xmlns:svg="http://www.w3.org/2000/svg"
   xmlns="http://www.w3.org/2000/svg"
   xmlns:sodipodi="http://sodipodi.sourceforge.net/DTD/sodipodi-0.dtd"
   xmlns:inkscape="http://www.inkscape.org/namespaces/inkscape"
   width="220"
   height="235"
   viewBox="0 0 58.208332 62.177085"
   version="1.1"
   id="svg8"
   inkscape:version="0.92.3 (2405546, 2018-03-11)"
   sodipodi:docname="magpul-pdr.svg">
  <defs
     id="defs2" />
  <sodipodi:namedview
     id="base"
     pagecolor="#000000"
     bordercolor="#666666"
     borderopacity="1.0"
     inkscape:pageopacity="0"
     inkscape:pageshadow="2"
     inkscape:zoom="1.979899"
     inkscape:cx="202.45683"
     inkscape:cy="35.547544"
     inkscape:document-units="px"
     inkscape:current-layer="layer1"
     showgrid="false"
     units="px"
     inkscape:window-width="1534"
     inkscape:window-height="1188"
     inkscape:window-x="1830"
     inkscape:window-y="140"
     inkscape:window-maximized="0" />
  <metadata
     id="metadata5">
    <rdf:RDF>
      <cc:Work
         rdf:about="">
        <dc:format>image/svg+xml</dc:format>
        <dc:type
           rdf:resource="http://purl.org/dc/dcmitype/StillImage" />
        <dc:title></dc:title>
      </cc:Work>
    </rdf:RDF>
  </metadata>
  <g
     inkscape:label="Layer 1"
     inkscape:groupmode="layer"
     id="layer1"
     transform="translate(0,-234.8229)">
    <path
       style="fill:none;stroke:#ffffff;stroke-width:0.4;stroke-opacity:1;stroke-miterlimit:4;stroke-dasharray:none"
       d="m 31.833852,286.08577 c 2.194297,-2.82274 3.093852,-4.0305 3.186519,-4.27828 0.04553,-0.12172 0.04574,-0.3652 4.8e-4,-0.54106 -0.114569,-0.44529 -0.753812,-0.99925 -0.939178,-0.81388 -0.06863,0.0687 -0.606955,-0.4367 -2.867005,-2.69136 l -2.782504,-2.77586 0.106983,-0.17868 c 0.277052,-0.46273 0.758071,-0.98701 1.032287,-1.12513 0.400248,-0.20162 0.775758,-0.17548 2.106934,0.14663 1.253124,0.30322 1.885612,0.35233 2.497667,0.19391 0.223792,-0.0579 1.202887,-0.43299 2.175767,-0.83347 0.97288,-0.4005 2.368966,-0.9348 3.10241,-1.18736 2.898969,-0.99826 3.920822,-1.48231 4.633253,-2.19474 0.34104,-0.34104 0.38207,-0.42156 0.350276,-0.68767 -0.01979,-0.16577 -0.06251,-0.32791 -0.0949,-0.3603 -0.05097,-0.051 -0.178704,-0.3535 -0.467986,-1.10838 -0.0826,-0.21556 -0.544378,-1.2771 -0.640491,-1.47238 -0.01162,-0.0236 -0.06917,-0.16773 -0.12789,-0.32029 -0.05873,-0.15257 -0.117732,-0.29524 -0.13113,-0.31706 -0.03019,-0.0491 -0.486799,-1.30124 -0.545788,-1.49662 -0.02368,-0.0784 -0.02386,-0.27497 -3.77e-4,-0.43676 l 0.04267,-0.29416 0.907208,-0.53879 c 0.850045,-0.50485 1.005529,-0.6341 2.467747,-2.05152 1.340767,-1.29968 1.592316,-1.5145 1.786146,-1.52534 0.124083,-0.007 1.219351,0.18315 2.433929,0.42242 1.214582,0.23928 2.40082,0.41652 2.636092,0.39386 0.587766,-0.0566 1.048413,-0.34404 1.389173,-0.86678 0.147399,-0.22612 0.27504,-0.47612 0.283646,-0.55555 0.0086,-0.0794 0.03934,-0.12072 0.0683,-0.0918 0.02896,0.0289 0.05265,-0.0165 0.05266,-0.101 1e-6,-0.0846 0.04448,-0.1985 0.09885,-0.2533 0.0544,-0.0548 0.138333,-0.2252 0.186593,-0.37868 0.04826,-0.15346 0.12767,-0.31895 0.176467,-0.36775 0.0488,-0.0488 0.06082,-0.11662 0.0267,-0.15073 -0.03411,-0.0341 -0.0023,-0.0886 0.07088,-0.12121 0.0731,-0.0326 0.101,-0.0911 0.06201,-0.13006 -0.03898,-0.039 -0.01325,-0.1285 0.05718,-0.19893 0.07043,-0.0704 0.104628,-0.15148 0.07597,-0.18013 -0.02864,-0.0286 0.0092,-0.19249 0.08409,-0.36409 0.07489,-0.17162 0.112731,-0.33545 0.08409,-0.36411 -0.02864,-0.0286 -0.0089,-0.0953 0.04397,-0.14811 0.05283,-0.0528 0.06723,-0.12485 0.03201,-0.16006 -0.03522,-0.0352 -0.0199,-0.10814 0.03402,-0.16208 0.05393,-0.054 0.07151,-0.15762 0.03909,-0.23043 -0.03244,-0.0728 -0.01689,-0.14231 0.03451,-0.15445 0.05143,-0.0121 0.06571,-0.0844 0.03179,-0.16058 -0.03393,-0.0762 -0.03206,-0.16813 0.0041,-0.20434 0.03621,-0.0362 0.06056,-0.20462 0.05412,-0.37425 -0.0064,-0.16963 0.0027,-0.32282 0.0203,-0.34044 0.0418,-0.0418 0.0418,-1.31496 0,-1.35676 -0.01761,-0.0177 -0.02675,-0.17081 -0.0203,-0.34043 0.0064,-0.16962 -0.01791,-0.33804 -0.05412,-0.37425 -0.03621,-0.0362 -0.03666,-0.13136 -9.87e-4,-0.21141 0.03565,-0.0801 0.03405,-0.14558 -0.0036,-0.14558 -0.0376,0 -0.07624,-0.17611 -0.08583,-0.39135 -0.02292,-0.51423 -0.236609,-1.1153 -0.484715,-1.36341 -0.109472,-0.10947 -0.501337,-0.32846 -0.870813,-0.48666 -1.085116,-0.46458 -1.536382,-1.09305 -1.474033,-2.05286 0.03967,-0.61085 0.204618,-0.98784 0.609243,-1.39246 0.43102,-0.43102 0.998392,-0.62814 1.682556,-0.58456 0.677945,0.0432 1.01505,-0.066 1.405022,-0.45497 0.27258,-0.27209 0.311068,-0.36546 0.298233,-0.72618 -0.0081,-0.22771 -0.154246,-0.97756 -0.324763,-1.66636 l -0.310035,-1.25234 -0.887238,-0.61721 c -1.060788,-0.73793 -1.067853,-0.74446 -0.941869,-0.87045 0.217038,-0.21704 -0.117143,-0.74167 -1.096207,-1.72094 -1.192029,-1.19228 -1.341835,-1.25649 -1.882292,-0.80682 l -0.381204,0.31719 -0.371067,-0.20518 c -0.204086,-0.11284 -0.513204,-0.2559 -0.68693,-0.31793 -0.200812,-0.0716 -0.377996,-0.20358 -0.486442,-0.36211 -0.260912,-0.38141 -0.571539,-0.46612 -1.225198,-0.33412 -0.62232,0.12568 -0.609817,0.11696 -1.487441,1.03781 -0.376736,0.39532 -0.408122,0.45623 -0.293732,0.57062 0.0939,0.0939 0.08537,0.17074 -0.03202,0.28812 -0.117382,0.11739 -0.194213,0.12592 -0.288117,0.032 -0.112532,-0.11253 -0.170738,-0.0854 -0.480198,0.22409 -0.302191,0.30219 -0.335036,0.36926 -0.23156,0.47273 0.06632,0.0663 0.07926,0.19118 0.02876,0.27744 -0.110245,0.18833 -0.194576,0.197 -0.355439,0.0361 -0.105413,-0.10542 -0.160913,-0.0757 -0.437514,0.23475 -0.275969,0.30971 -0.300862,0.3767 -0.193185,0.52002 0.08832,0.11755 0.08045,0.20767 -0.02756,0.31568 -0.108011,0.10801 -0.19812,0.11587 -0.315676,0.0275 -0.139935,-0.10514 -0.212115,-0.0818 -0.483074,0.15632 -0.287792,0.2529 -0.306336,0.29617 -0.192079,0.44818 0.184752,0.24579 -0.106206,0.60269 -0.344998,0.4232 -0.144959,-0.10895 -0.213781,-0.0873 -0.487342,0.15304 -0.287795,0.2529 -0.306337,0.29617 -0.192082,0.44819 0.08983,0.11949 0.08337,0.22267 -0.02227,0.35601 -0.119123,0.15034 -0.189524,0.16334 -0.353363,0.0652 -0.181342,-0.10858 -0.237254,-0.0899 -0.491517,0.16439 -0.263341,0.26334 -0.273758,0.30003 -0.126833,0.44696 0.133833,0.13383 0.129725,0.19041 -0.02507,0.3452 -0.145163,0.14517 -0.229341,0.15868 -0.389855,0.0626 -0.184552,-0.11049 -0.229378,-0.094 -0.455124,0.16702 -0.207783,0.2403 -0.229373,0.31758 -0.126808,0.45409 0.09528,0.12683 0.08164,0.20649 -0.05958,0.3477 -0.141211,0.1412 -0.220862,0.15486 -0.347691,0.0596 -0.136194,-0.10231 -0.213877,-0.0809 -0.451176,0.12417 -0.254329,0.21982 -0.272374,0.26675 -0.160065,0.41617 0.09725,0.12938 0.08407,0.22006 -0.05686,0.39125 -0.153982,0.18705 -0.210555,0.20248 -0.352143,0.096 -0.141007,-0.106 -0.215735,-0.0861 -0.455348,0.12095 -0.254328,0.21982 -0.272373,0.26676 -0.160065,0.41617 0.09801,0.13038 0.08413,0.21993 -0.06143,0.39656 -0.167957,0.20377 -0.205545,0.21063 -0.352147,0.064 -0.148959,-0.14897 -0.187929,-0.14031 -0.421812,0.0935 -0.215957,0.21595 -0.241621,0.29346 -0.158481,0.4786 0.07565,0.16845 0.05321,0.26693 -0.09445,0.41459 -0.163891,0.16389 -0.218273,0.16906 -0.353731,0.0336 -0.143586,-0.14358 -0.185973,-0.13416 -0.411719,0.0916 -0.212225,0.21223 -0.232278,0.27744 -0.128052,0.41617 0.101292,0.13482 0.08316,0.20496 -0.100491,0.38861 -0.183645,0.18364 -0.253786,0.20178 -0.388612,0.10049 -0.138743,-0.10424 -0.203945,-0.0842 -0.416171,0.12806 -0.225744,0.22574 -0.235172,0.26813 -0.09158,0.41171 0.140081,0.14008 0.132241,0.18789 -0.0628,0.38294 -0.184333,0.18434 -0.257498,0.20214 -0.423112,0.10298 -0.163319,-0.0978 -0.239458,-0.0807 -0.412938,0.0928 -0.171829,0.17183 -0.188948,0.24431 -0.0891,0.37722 0.09928,0.13214 0.08028,0.21566 -0.09662,0.42448 -0.201882,0.23832 -0.233879,0.24632 -0.384157,0.096 -0.148567,-0.14857 -0.187931,-0.13992 -0.420036,0.0922 -0.232105,0.23211 -0.240738,0.27147 -0.09217,0.42004 0.15028,0.15028 0.142282,0.18227 -0.09604,0.38416 -0.208832,0.17689 -0.292337,0.1959 -0.424489,0.0966 -0.133343,-0.10018 -0.205294,-0.0828 -0.379703,0.0916 -0.17441,0.1744 -0.191764,0.24635 -0.09158,0.3797 0.10465,0.1393 0.08434,0.20378 -0.132504,0.42062 -0.216844,0.21685 -0.281335,0.23715 -0.420626,0.13251 -0.134098,-0.10074 -0.20513,-0.083 -0.384157,0.096 -0.191597,0.1916 -0.199191,0.24009 -0.05957,0.37971 0.143587,0.14358 0.134159,0.18596 -0.09158,0.41171 -0.212226,0.21223 -0.277435,0.23228 -0.416171,0.12806 -0.134826,-0.1013 -0.204966,-0.0832 -0.388612,0.10049 -0.185263,0.18526 -0.202138,0.2533 -0.09739,0.39265 0.109798,0.14606 0.09271,0.19733 -0.128051,0.38416 -0.203487,0.17222 -0.287859,0.19072 -0.419276,0.0919 -0.133343,-0.10017 -0.205294,-0.0828 -0.379703,0.0916 -0.17441,0.17441 -0.191765,0.24636 -0.09158,0.3797 0.09928,0.13216 0.08028,0.21567 -0.09662,0.4245 -0.201882,0.23832 -0.233878,0.24631 -0.384156,0.096 -0.148567,-0.14856 -0.187931,-0.13992 -0.420035,0.0922 -0.232106,0.23211 -0.24074,0.27147 -0.09218,0.42003 0.15028,0.15028 0.142282,0.18227 -0.09604,0.38416 -0.208833,0.1769 -0.292338,0.19591 -0.424489,0.0966 -0.133343,-0.10018 -0.205295,-0.0828 -0.379704,0.0916 -0.17441,0.17441 -0.191764,0.24636 -0.09158,0.37971 0.06798,0.0905 0.09479,0.17892 0.05958,0.19652 -0.03522,0.0176 -0.15045,0.11846 -0.256093,0.22411 -0.149395,0.1494 -0.220535,0.16362 -0.32013,0.064 -0.106713,-0.10672 -0.170738,-0.0853 -0.384159,0.12805 -0.213421,0.21342 -0.234762,0.27744 -0.128052,0.38415 0.103661,0.10366 0.08537,0.17075 -0.09604,0.35215 -0.181408,0.18141 -0.248482,0.1997 -0.352143,0.096 -0.106071,-0.10607 -0.170738,-0.0854 -0.376691,0.12059 -0.194791,0.19479 -0.228158,0.28362 -0.15407,0.41017 0.138109,0.23592 -0.306643,0.68068 -0.493659,0.49366 -0.121108,-0.12111 -0.170738,-0.0853 -0.915052,0.65894 l -0.786998,0.787 0.0053,0.57088 c 0.003,0.31399 -0.03121,0.60745 -0.07588,0.65213 -0.04468,0.0447 -0.0575,0.19516 -0.02849,0.33442 l 0.05274,0.25319 -5.379166,5.33982 c -6.247688,6.202 -11.7509219,11.58966 -12.7486551,12.48089 -0.6695088,0.59805 -0.6937659,0.63026 -0.5979672,0.79391 0.1406005,0.24016 -0.031725,0.47358 -0.6207989,0.84086 -0.2802404,0.17473 -0.7971969,0.58871 -1.1487951,0.91997 -0.5696231,0.53667 -0.6356232,0.62574 -0.6058318,0.81765 0.080863,0.52084 0.9858733,1.76522 1.2401484,1.7052 0.056695,-0.0134 0.1932524,0.0696 0.303464,0.18428 0.1103009,0.11467 0.3761066,0.32103 0.5908793,0.4584 0.4582911,0.29313 0.6982623,0.4783 1.4456045,1.11545 0.3041488,0.25928 0.6793142,0.57559 0.8337201,0.7029 0.5854688,0.48273 2.5955394,2.45609 2.6238352,2.57593 0.016269,0.0689 0.1265652,0.16155 0.2450963,0.20589 0.1550352,0.058 0.2197552,0.12619 0.2306082,0.24305 0.00857,0.0923 0.1154288,0.22932 0.2472742,0.31722 0.1326102,0.0884 0.2209676,0.20224 0.2060563,0.26542 -0.014733,0.0625 0.072902,0.17666 0.2012066,0.26219 0.130261,0.0868 0.234015,0.22352 0.242991,0.32011 0.01183,0.12734 0.06679,0.18402 0.22481,0.23187 0.157665,0.0478 0.212966,0.10437 0.224644,0.23007 0.0089,0.096 0.104074,0.21976 0.224438,0.29183 0.120875,0.0724 0.215517,0.19591 0.224554,0.29311 0.01166,0.12545 0.07309,0.1895 0.242517,0.25287 0.164058,0.0614 0.219493,0.11626 0.200153,0.19822 -0.01804,0.0764 0.153946,0.26626 0.527403,0.58222 0.54195,0.45852 0.84969,0.6212 1.086011,0.57412 0.222962,-0.0444 0.895174,-0.79797 1.365051,-1.53021 0.35911,-0.55964 0.519089,-0.74893 0.672084,-0.79525 0.137026,-0.0414 0.880579,-0.75229 2.341434,-2.23834 l 2.140657,-2.17753 0.0029,-0.99581 0.0029,-0.99582 1.526578,-1.9742 c 0.839616,-1.08582 1.547114,-1.99475 1.572216,-2.01985 0.0251,-0.0252 1.454858,1.38999 3.17723,3.14466 3.129776,3.18844 3.13175,3.1903 3.404411,3.1903 0.15005,0 0.342493,-0.0697 0.427649,-0.15483 0.08516,-0.0851 0.204089,-0.18231 0.264323,-0.21587 0.06024,-0.0336 0.777375,-0.9202 1.593667,-1.97027 z m 4.781109,-13.89684 c -2.274136,0.93426 -2.751146,0.88615 -5.328982,-0.53749 -1.688146,-0.9323 -2.007155,-1.18536 -2.153861,-1.70859 -0.208087,-0.74215 -0.257442,-0.67402 2.447169,-3.37863 1.525418,-1.52542 2.537993,-2.48681 2.757185,-2.61782 0.963914,-0.57613 2.229308,-0.14684 2.690735,0.91285 0.161211,0.37023 0.312098,1.08757 0.258222,1.22765 -0.01467,0.0382 0.01414,0.11017 0.06403,0.16006 0.04989,0.0499 0.06189,0.11951 0.02668,0.15473 -0.03521,0.0352 -0.02321,0.10484 0.02668,0.15473 0.04989,0.0499 0.07642,0.1242 0.05895,0.16514 -0.01746,0.0409 0.05458,0.42027 0.160088,0.84298 0.169159,0.67773 0.350362,1.23268 0.827763,2.5351 0.179452,0.48958 0.119446,0.99953 -0.149228,1.26821 -0.124719,0.12472 -0.847605,0.47689 -1.685433,0.82108 z m 13.2359,-15.70376 c -0.372408,0.21049 -1.144988,0.25561 -1.832888,0.10702 -0.740455,-0.15993 -0.90969,-0.002 -1.064285,0.99573 -0.065,0.41934 -0.192257,0.89988 -0.282799,1.06788 -0.108114,0.20061 -0.678803,0.80008 -1.662672,1.74649 -1.270271,1.22192 -1.585991,1.48857 -2.076394,1.75359 -0.614174,0.33192 -0.869045,0.35185 -1.134987,0.0887 -0.272465,-0.26956 -1.209538,-2.62156 -1.209538,-3.0359 0,-0.4506 0.08202,-0.55714 0.233774,-0.30368 0.102711,0.17154 0.158627,0.16576 0.60703,-0.0628 l 0.493898,-0.25176 0.356198,0.28406 c 0.458311,0.3655 0.861435,0.51846 1.58595,0.60176 0.944861,0.10865 1.950547,-0.18155 1.866277,-0.53851 -0.01408,-0.0597 -0.276698,-0.0924 -0.583598,-0.0729 -1.217902,0.0775 -2.129359,-0.50032 -2.416355,-1.53208 l -0.153055,-0.55024 1.053226,-1.08841 1.053228,-1.08841 0.493225,0.0221 c 0.271272,0.0121 0.547236,-0.0319 0.613253,-0.0979 0.06602,-0.066 0.306762,-0.48668 0.534988,-0.93482 0.474688,-0.93205 1.330267,-1.95766 1.91071,-2.29043 0.951309,-0.54539 2.223565,-0.0392 2.631334,1.04695 0.374712,0.99807 0.05472,3.16572 -0.561309,3.80239 -0.08658,0.0895 -0.291442,0.23846 -0.455233,0.33104 z"
       id="path836"
       inkscape:connector-curvature="0"
       sodipodi:nodetypes="cccsscccccscscscccccccssccccsscccsscssscsssscccscsscscscsccscccccssccccccccssssscsccsccccccccssscccsccccccccsscssscscssscsccsssccscscssscscccsccsssccsccssssssssssccscccccccccccccccccccccccccccccccccccsscsccccscscscssscccsccscccscccccsscccccccsccsccc" />
  </g>
</svg>
