<?xml version="1.0" encoding="UTF-8" standalone="no"?>
<!-- Created with Inkscape (http://www.inkscape.org/) -->

<svg
   xmlns:dc="http://purl.org/dc/elements/1.1/"
   xmlns:cc="http://creativecommons.org/ns#"
   xmlns:rdf="http://www.w3.org/1999/02/22-rdf-syntax-ns#"
   xmlns:svg="http://www.w3.org/2000/svg"
   xmlns="http://www.w3.org/2000/svg"
   xmlns:sodipodi="http://sodipodi.sourceforge.net/DTD/sodipodi-0.dtd"   
   width="220"
   height="235"
   viewBox="0 0 58.208332 62.177085"
   version="1.1"
   id="scar"
   sodipodi:docname="scar.svg">
  <defs
     id="defs2" />
  <sodipodi:namedview
     id="base"
     pagecolor="#000000"
     bordercolor="#666666"
     borderopacity="1.0"
     showgrid="false"
     units="px" />
  <metadata
     id="metadata5">
    <rdf:RDF>
      <cc:Work
         rdf:about="">
        <dc:format>image/svg+xml</dc:format>
        <dc:type
           rdf:resource="http://purl.org/dc/dcmitype/StillImage" />
        <dc:title />
      </cc:Work>
    </rdf:RDF>
  </metadata>
  <g
     id="layer1"
     transform="translate(0,-234.8229)">
    <path
       style="fill:none;stroke:#ffffff;stroke-width:0.45;stroke-miterlimit:4;stroke-dasharray:none;stroke-opacity:1"
       d="m 38.168418,274.27867 c -0.162223,-0.11804 -0.960878,-0.62768 -1.774789,-1.13254 -1.660597,-1.03005 -3.157617,-2.14293 -4.059628,-3.01795 -0.332662,-0.32273 -0.619921,-0.57115 -0.638349,-0.5521 -0.01843,0.0192 -0.07091,0.19497 -0.116613,0.39087 -0.07449,0.31933 -0.248233,0.53488 -1.676284,2.07967 -0.876244,0.94791 -1.595857,1.73036 -1.599138,1.73876 -0.0035,0.01 0.04919,0.23497 0.116604,0.50335 0.129389,0.51515 0.40532,0.8871 0.658116,0.8871 0.242863,0 0.319408,0.30527 0.108686,0.43347 -0.30658,0.18648 -0.301394,0.43874 0.03425,1.66562 0.316466,1.15676 0.500467,1.51401 0.779809,1.51402 0.198488,0 0.297866,0.29821 0.185799,0.55751 -0.146975,0.34012 -3.48501,2.41187 -3.634316,2.25569 -0.06638,-0.0695 -0.973326,-4.89424 -1.181955,-6.28768 -0.07879,-0.5263 -0.17057,-0.75509 -0.450898,-1.12429 -0.405349,-0.53382 -0.708799,-0.67915 -1.19763,-0.57366 -0.291505,0.063 -0.562238,0.32679 -4.497869,4.38453 -2.854261,2.94286 -4.233088,4.31763 -4.330256,4.31763 -0.09338,0 -0.72045,0.6007 -1.81729,1.7408 -1.551641,1.6128 -1.680971,1.76753 -1.759541,2.10431 -0.06549,0.28071 -0.03889,0.41124 0.116763,0.573 0.127723,0.13271 0.167451,0.24493 0.108435,0.30624 -0.102712,0.10675 -0.01571,0.38944 0.130913,0.42542 0.05116,0.013 0.06464,0.12016 0.02996,0.23914 -0.04156,0.14262 0.0048,0.28646 0.135213,0.4223 0.124873,0.12977 0.163773,0.24185 0.1051,0.30281 -0.111177,0.11553 -0.02199,0.36094 0.162164,0.44615 0.07543,0.0346 0.104101,0.15568 0.06712,0.28258 -0.03855,0.13234 0.0025,0.29059 0.100238,0.39287 0.0963,0.10006 0.126089,0.21149 0.07166,0.26806 -0.109297,0.11358 -0.01208,0.39032 0.151185,0.43036 0.06229,0.0149 0.09575,0.15771 0.07435,0.31648 -0.0214,0.15881 0.02241,0.35404 0.09736,0.43386 0.07495,0.0799 0.106583,0.1712 0.07029,0.20304 -0.09443,0.0829 0.0071,0.39908 0.138881,0.43131 0.06094,0.0145 0.111337,0.3974 0.112011,0.84988 0.0013,0.65669 -0.04603,0.89052 -0.232881,1.15862 -0.129841,0.18629 -0.196891,0.37455 -0.15054,0.42273 0.150428,0.15631 0.05742,0.43843 -0.322855,0.97932 -0.485448,0.69047 -0.642822,0.72218 -1.008637,0.20304 -0.141698,-0.20106 -0.442746,-0.5797 -0.668992,-0.8414 -0.22625,-0.2617 -0.573004,-0.68303 -0.7705657,-0.93633 -0.4986528,-0.63937 -3.3038884,-3.58457 -3.3593072,-3.52698 -0.024889,0.0255 -0.1889897,-0.11631 -0.3646754,-0.31588 -0.1756861,-0.1996 -0.3385429,-0.34304 -0.361901,-0.31875 -0.023364,0.024 -0.180984,-0.10898 -0.3502854,-0.29611 -0.169297,-0.1871 -0.3538299,-0.35494 -0.4100722,-0.37292 -0.1683877,-0.0538 -0.3286986,-0.18069 -0.6453625,-0.51058 -0.1652756,-0.17219 -0.4488152,-0.40187 -0.6300754,-0.51038 -0.1812643,-0.10855 -0.3828867,-0.28985 -0.4480513,-0.40297 -0.106743,-0.18525 -0.083043,-0.24082 0.2391981,-0.56085 0.5425021,-0.53879 0.8185125,-0.6942 1.0596188,-0.59658 l 0.2159305,0.0874 2.6993785,-2.89456 c 1.6562794,-1.77603 2.6838172,-2.93088 2.6591092,-2.98851 -0.124514,-0.29054 0.01691,-0.67816 0.615929,-1.6884 0.623884,-1.05205 1.183535,-1.8025 3.554054,-4.76562 0.567608,-0.70949 1.15033,-1.51102 1.294937,-1.78112 0.14461,-0.27007 0.369482,-0.61413 0.499718,-0.76454 0.142781,-0.16491 0.240532,-0.39791 0.246212,-0.5869 0.0081,-0.27417 0.08452,-0.39148 0.608661,-0.93616 l 0.599246,-0.62269 -0.296626,-0.25459 c -0.210396,-0.18053 -0.300207,-0.32925 -0.308955,-0.51151 -0.01567,-0.32643 -0.594718,-1.09601 -0.980493,-1.30306 -0.11545,-0.0621 -0.170509,-0.1355 -0.131682,-0.17588 0.0367,-0.0384 0.0085,-0.14964 -0.06236,-0.24785 -0.09399,-0.13001 -0.08286,-0.23896 0.04099,-0.40091 0.09356,-0.12228 0.226197,-0.22233 0.294781,-0.22234 0.06858,0 0.454354,0.30756 0.857273,0.6834 0.77939,0.72711 0.9477,0.80729 1.182359,0.56343 0.0813,-0.0844 0.184477,-0.1536 0.229264,-0.1536 0.04476,0 0.222626,-0.13551 0.395187,-0.30109 0.172562,-0.16562 0.358219,-0.30111 0.412559,-0.30111 0.05434,0 0.208988,0.12885 0.343664,0.28639 0.251939,0.29461 0.52066,0.34799 0.406081,0.0808 -0.07027,-0.16392 0.147191,-0.45653 0.255599,-0.34386 0.03676,0.0384 0.127043,0.008 0.200594,-0.0696 0.07355,-0.0764 0.103644,-0.17025 0.06686,-0.20847 -0.03678,-0.0383 -0.0063,-0.13201 0.06687,-0.20843 0.07356,-0.0765 0.16382,-0.10769 0.200595,-0.0696 0.03677,0.0384 0.127044,0.008 0.200595,-0.0695 0.07356,-0.0764 0.103643,-0.17021 0.06686,-0.20841 -0.03679,-0.0385 0.0082,-0.14767 0.100296,-0.2432 0.09192,-0.0955 0.197252,-0.14244 0.23403,-0.10424 0.03679,0.0385 0.127043,0.008 0.200594,-0.0695 0.07356,-0.0765 0.103642,-0.17025 0.06686,-0.20846 -0.03678,-0.0384 -0.0063,-0.13203 0.06687,-0.20846 0.07356,-0.0764 0.163821,-0.10769 0.200596,-0.0696 0.03679,0.0383 0.127044,0.008 0.200597,-0.0696 0.07355,-0.0765 0.103641,-0.17025 0.06686,-0.20848 -0.03678,-0.0384 -0.0063,-0.13202 0.06686,-0.20846 0.07356,-0.0764 0.163821,-0.10769 0.200599,-0.0695 0.03677,0.0384 0.127043,0.008 0.200595,-0.0696 0.07356,-0.0764 0.103641,-0.17023 0.06686,-0.20846 -0.03677,-0.0383 0.0082,-0.14766 0.100293,-0.24315 0.09192,-0.0955 0.197258,-0.14246 0.234034,-0.10427 0.03677,0.0384 0.128818,0.006 0.204543,-0.0736 0.07573,-0.0787 0.08899,-0.15501 0.02948,-0.16961 -0.06135,-0.0147 -0.03412,-0.1035 0.06291,-0.20435 0.09411,-0.0978 0.201202,-0.14653 0.237976,-0.10834 0.03679,0.0384 0.127045,0.008 0.200596,-0.0695 0.07356,-0.0765 0.103642,-0.17025 0.06687,-0.20846 -0.03678,-0.0384 -0.0063,-0.13203 0.06686,-0.20846 0.07356,-0.0764 0.163822,-0.10769 0.200597,-0.0695 0.03677,0.0385 0.127044,0.008 0.200597,-0.0696 0.07356,-0.0765 0.103642,-0.17025 0.06686,-0.20847 -0.03677,-0.0386 0.01013,-0.14949 0.104243,-0.24729 0.09705,-0.10085 0.182167,-0.12915 0.196651,-0.0653 0.01406,0.0619 0.08749,0.0481 0.163218,-0.0308 0.07573,-0.0788 0.107588,-0.17436 0.07081,-0.21257 -0.03676,-0.0383 0.0082,-0.14765 0.100295,-0.24319 0.09192,-0.0955 0.197256,-0.14244 0.23403,-0.10422 0.03678,0.0385 0.127045,0.008 0.200596,-0.0696 0.07356,-0.0765 0.103643,-0.17023 0.06686,-0.20846 -0.03677,-0.0383 -0.0063,-0.13201 0.06686,-0.20845 0.07356,-0.0764 0.163823,-0.1077 0.2006,-0.0696 0.03677,0.0384 0.127041,0.008 0.200594,-0.0695 0.07356,-0.0764 0.103642,-0.17023 0.06686,-0.20844 -0.03677,-0.0385 -0.0063,-0.13201 0.06686,-0.20845 0.07355,-0.0764 0.163822,-0.10771 0.200596,-0.0696 0.03677,0.0385 0.127043,0.008 0.200596,-0.0694 0.07356,-0.0764 0.103641,-0.17023 0.06686,-0.20846 -0.03676,-0.0384 0.0082,-0.14764 0.100298,-0.24318 0.09192,-0.0955 0.197253,-0.14244 0.234028,-0.10424 0.03677,0.0383 0.127047,0.008 0.200598,-0.0695 0.07356,-0.0764 0.103642,-0.17024 0.06686,-0.20844 -0.03677,-0.0384 -0.0063,-0.132 0.06686,-0.20845 0.07355,-0.0763 0.163823,-0.1077 0.200597,-0.0696 0.03677,0.0385 0.127043,0.008 0.200597,-0.0696 0.07356,-0.0765 0.103644,-0.17026 0.06687,-0.20847 -0.03677,-0.0383 -0.0062,-0.13202 0.06686,-0.20844 0.07356,-0.0764 0.163825,-0.10771 0.200599,-0.0696 0.03677,0.0383 0.127042,0.008 0.200594,-0.0696 0.07354,-0.0765 0.103643,-0.17022 0.06686,-0.20841 -0.03677,-0.0384 -0.0063,-0.13204 0.06686,-0.20849 0.07355,-0.0765 0.163821,-0.10771 0.200597,-0.0696 0.03677,0.0384 0.143863,-0.0108 0.237976,-0.10833 0.09704,-0.10085 0.124281,-0.1893 0.06292,-0.20433 -0.06135,-0.0146 -0.03413,-0.10349 0.06293,-0.20436 0.09411,-0.0978 0.201201,-0.14652 0.237975,-0.10831 0.03678,0.0383 0.127043,0.008 0.200597,-0.0695 0.07355,-0.0765 0.103642,-0.17021 0.06686,-0.20842 -0.03677,-0.0383 -0.0063,-0.13205 0.06686,-0.20848 0.07355,-0.0764 0.16382,-0.10768 0.200596,-0.0695 0.03678,0.0385 0.127045,0.008 0.200596,-0.0696 0.07355,-0.0764 0.103643,-0.1702 0.06686,-0.20846 -0.03677,-0.0383 -0.0063,-0.13199 0.06686,-0.20842 0.07356,-0.0764 0.163825,-0.10768 0.200597,-0.0695 0.03678,0.0384 0.127046,0.008 0.200597,-0.0695 0.07355,-0.0764 0.103642,-0.17024 0.06686,-0.20843 -0.03677,-0.0384 0.0082,-0.14768 0.100295,-0.24321 0.09192,-0.0954 0.197255,-0.14243 0.234031,-0.10421 0.03677,0.0383 0.127046,0.008 0.200595,-0.0696 0.07356,-0.0765 0.103641,-0.17023 0.06686,-0.20845 -0.09689,-0.10068 0.168469,-0.34605 0.303289,-0.28043 0.09107,0.0441 0.125449,0.01 0.17183,-0.17858 0.06972,-0.2813 0.235026,-0.47064 0.327266,-0.37479 0.03677,0.0385 0.127041,0.008 0.200594,-0.0694 0.07355,-0.0765 0.103644,-0.17023 0.06686,-0.20845 -0.03677,-0.0383 0.0082,-0.14765 0.100296,-0.24319 0.09192,-0.0955 0.197254,-0.14244 0.234032,-0.10424 0.03676,0.0384 0.111996,0.0227 0.167162,-0.0345 0.05516,-0.0573 0.07019,-0.13549 0.03343,-0.1737 -0.03677,-0.0384 0.0082,-0.14764 0.100298,-0.24317 0.09192,-0.0955 0.197249,-0.14247 0.234029,-0.10423 0.03677,0.0383 0.111997,0.0226 0.16716,-0.0345 0.05517,-0.0573 0.0702,-0.13549 0.03343,-0.1737 -0.03678,-0.0383 0.0082,-0.14766 0.100296,-0.2432 0.09192,-0.0955 0.197256,-0.14245 0.234031,-0.10425 0.03678,0.0384 0.127043,0.008 0.200594,-0.0696 0.07354,-0.0765 0.103643,-0.17022 0.06686,-0.20845 -0.03676,-0.0384 0.0082,-0.14766 0.100296,-0.2432 0.09192,-0.0955 0.197253,-0.14242 0.234031,-0.10422 0.03678,0.0385 0.111997,0.0226 0.167161,-0.0344 0.05516,-0.0573 0.07022,-0.13548 0.03342,-0.1737 -0.03676,-0.0385 0.0082,-0.14766 0.100299,-0.24321 0.09192,-0.0954 0.197255,-0.14245 0.23403,-0.10423 0.03678,0.0384 0.111996,0.0229 0.167163,-0.0346 0.05517,-0.0574 0.0702,-0.13549 0.03342,-0.1737 -0.03678,-0.0384 0.0082,-0.14766 0.100294,-0.2432 0.09192,-0.0955 0.197257,-0.14244 0.234034,-0.10424 0.03677,0.0384 0.111998,0.0227 0.16716,-0.0346 0.05517,-0.0573 0.07021,-0.1355 0.03343,-0.1737 -0.09737,-0.10116 0.302385,-0.48482 0.437398,-0.41982 0.0914,0.044 0.115234,0.0194 0.119245,-0.12388 0.0054,-0.21329 0.284286,-0.52796 0.379472,-0.42905 0.03678,0.0386 0.111999,0.0227 0.16716,-0.0344 0.05516,-0.0573 0.0702,-0.13547 0.03342,-0.17369 -0.03679,-0.0384 0.0082,-0.14766 0.100299,-0.2432 0.09192,-0.0954 0.197252,-0.14245 0.234029,-0.10423 0.102434,0.10648 0.260895,-0.10601 0.194541,-0.26085 -0.06232,-0.14542 0.242579,-0.39664 0.348184,-0.28688 0.09931,0.10319 0.249381,-0.12283 0.18354,-0.27644 -0.08449,-0.19712 0.161188,-0.43051 0.390395,-0.37098 0.178286,0.0464 0.18497,0.0396 0.140374,-0.14587 -0.05734,-0.23817 0.16729,-0.49345 0.356985,-0.40565 0.182809,0.0845 0.354184,-0.0991 0.221289,-0.23724 -0.147056,-0.15278 0.583337,-0.83713 0.751085,-0.70373 0.06249,0.0499 0.335974,0.28144 0.607737,0.51496 0.356128,0.30601 0.520638,0.397 0.589093,0.32587 0.06622,-0.0689 0.01403,-0.18283 -0.17249,-0.37661 -0.147104,-0.15287 -0.23737,-0.30922 -0.200595,-0.34744 0.0369,-0.0386 -0.106985,-0.25013 -0.320952,-0.47246 -0.2133,-0.22167 -0.387822,-0.47719 -0.387822,-0.56784 2e-6,-0.1033 -0.175771,-0.33284 -0.471114,-0.6152 -0.259119,-0.24771 -0.76161,-0.74265 -1.116653,-1.09978 -0.611504,-0.61516 -0.637154,-0.65535 -0.486596,-0.76215 0.08741,-0.0619 0.264267,-0.22219 0.392981,-0.35595 0.128715,-0.13375 0.282863,-0.31752 0.34254,-0.40835 0.08662,-0.13189 0.140072,-0.12793 0.265022,0.0198 1.264351,1.49277 1.544159,1.85699 1.625973,2.11658 0.142815,0.45318 0.82177,0.974 1.247728,0.9572 0.217316,-0.01 0.359886,0.0464 0.426339,0.16434 0.08259,0.14656 0.132088,0.14368 0.28638,-0.0163 0.130303,-0.13539 0.156768,-0.24667 0.08778,-0.36914 -0.0758,-0.13455 -0.04252,-0.23375 0.143187,-0.42673 0.253013,-0.2629 0.337936,-0.25417 0.882053,0.0909 0.203323,0.12894 0.2099,0.16403 0.05993,0.31988 -0.123857,0.12867 -0.133045,0.21178 -0.03472,0.31399 0.08913,0.0926 0.178308,0.0926 0.267459,0 0.08913,-0.0926 0.17831,-0.0926 0.267462,0 0.07431,0.0773 0.08913,0.18528 0.03343,0.24318 -0.0624,0.0648 -0.03713,0.16985 0.06686,0.27795 0.167034,0.17355 0.167669,0.17315 0.828018,-0.51305 0.739521,-0.76844 0.739644,-0.77017 0.19077,-1.34471 -0.243612,-0.25522 -0.21495,-0.50045 0.05105,-0.4352 0.05949,0.0142 0.2252,-0.0949 0.36821,-0.24364 l 0.260022,-0.27023 0.371259,0.34377 0.371264,0.34379 2.181355,-2.23009 c 2.097768,-2.14461 2.184623,-2.24434 2.266064,-2.60291 0.07245,-0.31881 0.154893,-0.43218 0.569347,-0.78282 0.266551,-0.22551 0.515246,-0.37824 0.552641,-0.33934 0.03739,0.039 0.0752,-0.0315 0.08402,-0.15588 0.02198,-0.31058 1.743766,-2.09128 2.050701,-2.1209 0.252434,-0.0241 0.419936,0.13721 0.286248,0.27612 -0.0624,0.0649 -0.03713,0.16988 0.06686,0.27794 0.104013,0.1081 0.205054,0.13435 0.267459,0.0696 0.122819,-0.12764 0.474745,0.20715 0.474753,0.45164 -4e-6,0.19212 -1.916981,2.23418 -2.044926,2.17832 -0.04224,-0.0184 -0.298337,0.25981 -0.569057,0.61834 -0.437415,0.57929 -0.51404,0.64834 -0.688328,0.62023 -0.177368,-0.0288 -0.404312,0.18469 -2.373808,2.2313 -1.846574,1.91887 -2.177705,2.29462 -2.177694,2.47139 0,0.23892 -0.768051,1.09777 -0.878802,0.98269 -0.03982,-0.0415 -0.320455,0.19405 -0.693903,0.58211 -0.475789,0.49441 -0.622925,0.69756 -0.609975,0.84228 0.01366,0.1527 -0.167177,0.38217 -0.906921,1.15088 -0.508193,0.52809 -0.966856,0.94964 -1.019254,0.9368 -0.05239,-0.0134 -0.181856,0.0378 -0.287676,0.11238 -0.17828,0.12579 -0.169221,0.17167 0.123175,0.62433 0.173571,0.26871 0.393544,0.53053 0.488832,0.58185 0.141095,0.0758 0.141872,0.12591 0.0049,0.269 -0.09297,0.0966 -0.165075,0.29273 -0.160201,0.43581 0.0085,0.25153 -0.131361,0.40674 -4.256307,4.71948 -3.900029,4.07761 -4.276382,4.45155 -4.396047,4.3683 -0.09362,-0.065 -0.203256,-0.0154 -0.385087,0.17306 -0.231212,0.24029 -0.276883,0.24844 -0.504944,0.0904 -0.137911,-0.0954 -0.337252,-0.26361 -0.442987,-0.37346 -0.147656,-0.15347 -0.223247,-0.16754 -0.325968,-0.0608 -0.113119,0.11752 -0.08912,0.18527 0.155509,0.43952 0.358044,0.37204 0.378078,0.81251 0.05235,1.15101 -0.152998,0.15899 -0.218143,0.35059 -0.218144,0.64159 v 0.41492 l 0.747892,0.71869 c 0.411346,0.3953 0.852417,0.78025 0.980169,0.85545 0.199976,0.11774 0.218345,0.17544 0.132119,0.415 l -0.100149,0.27833 0.847262,0.7907 c 1.127764,1.05245 1.986797,1.68521 3.777775,2.78265 0.821386,0.50325 1.538097,0.95126 1.592692,0.99546 0.125341,0.10152 -0.03813,0.45259 -0.887939,1.90702 -0.374388,0.64075 -0.822134,1.40893 -0.994984,1.70697 -0.172854,0.29806 -0.288659,0.56858 -0.25734,0.60112 0.03131,0.0326 -0.02999,0.14952 -0.136215,0.2599 -0.170765,0.17744 -0.227341,0.17585 -0.4881,-0.0138 z m -6.861936,-4.47539 c -0.04993,-0.33252 -0.819242,-1.25734 -1.145367,-1.37692 -0.266651,-0.0977 -0.287971,-0.0851 -0.935347,0.54877 -0.576155,0.56434 -0.675513,0.70147 -0.762619,1.05243 -0.171116,0.68958 0.159914,1.31934 0.805808,1.53296 0.347061,0.11481 0.400599,0.25253 0.124335,0.31983 -0.348456,0.0848 -0.844923,-0.16875 -1.355882,-0.69272 -0.472914,-0.48496 -0.493076,-0.49514 -0.652797,-0.32915 -0.229555,0.23853 -0.124505,0.50084 0.432274,1.07943 0.523914,0.5444 0.779017,0.66951 1.092696,0.53579 0.113941,-0.0486 0.707028,-0.62153 1.317974,-1.27319 0.975492,-1.04055 1.106921,-1.21072 1.078925,-1.39723 z M 42.192803,245.7805 c -0.153212,0.12913 -0.363587,0.34826 -0.467552,0.48691 -0.103945,0.13868 0.0214,0.033 0.278553,-0.23476 0.257181,-0.26778 0.342169,-0.38131 0.188966,-0.25219 z"
       id="path823"       
       sodipodi:nodetypes="csccccccscccccccccscccccccccccccccccccccccccccccccccccccccccccccccccccccscscccccccccccccccccccccccccccccccccccccccccccccccccccccccccccccccccccccccccccccccccccccccccccccccccccccccccccccccccccccccccccccccccccccccccccccccccccccccccccccccscccccccccccccccccccccccccccccccccccccccccccccccccccccccccccccc" />
  </g>
</svg>
