<?xml version="1.0" encoding="UTF-8" standalone="no"?>
<!-- Created with Inkscape (http://www.inkscape.org/) -->

<svg
   xmlns:dc="http://purl.org/dc/elements/1.1/"
   xmlns:cc="http://creativecommons.org/ns#"
   xmlns:rdf="http://www.w3.org/1999/02/22-rdf-syntax-ns#"
   xmlns:svg="http://www.w3.org/2000/svg"
   xmlns="http://www.w3.org/2000/svg"
   xmlns:sodipodi="http://sodipodi.sourceforge.net/DTD/sodipodi-0.dtd"
   xmlns:inkscape="http://www.inkscape.org/namespaces/inkscape"
   width="220"
   height="235"
   viewBox="0 0 58.208332 62.177085"
   version="1.1"
   id="svg8"
   inkscape:version="0.92.3 (2405546, 2018-03-11)"
   sodipodi:docname="scorpion-evo.svg">
  <defs
     id="defs2" />
  <sodipodi:namedview
     id="base"
     pagecolor="#000000"
     bordercolor="#666666"
     borderopacity="1.0"
     inkscape:pageopacity="0"
     inkscape:pageshadow="2"
     inkscape:zoom="1.4"
     inkscape:cx="195.98672"
     inkscape:cy="125.06421"
     inkscape:document-units="px"
     inkscape:current-layer="layer1"
     showgrid="false"
     units="px"
     inkscape:window-width="1590"
     inkscape:window-height="1226"
     inkscape:window-x="1802"
     inkscape:window-y="123"
     inkscape:window-maximized="0" />
  <metadata
     id="metadata5">
    <rdf:RDF>
      <cc:Work
         rdf:about="">
        <dc:format>image/svg+xml</dc:format>
        <dc:type
           rdf:resource="http://purl.org/dc/dcmitype/StillImage" />
        <dc:title></dc:title>
      </cc:Work>
    </rdf:RDF>
  </metadata>
  <g
     inkscape:label="Layer 1"
     inkscape:groupmode="layer"
     id="layer1"
     transform="translate(0,-234.8229)">
    <path
       style="fill:none;stroke:#ffffff;stroke-width:0.4;stroke-opacity:1;stroke-miterlimit:4;stroke-dasharray:none"
       d="m 42.008935,274.60144 c 0.824286,-1.89761 0.897787,-1.72039 -1.014579,-2.44622 -1.305423,-0.49546 -3.632679,-1.76415 -5.668309,-3.09003 -1.783774,-1.16185 -2.038901,-1.39492 -1.79448,-1.63934 0.138933,-0.13893 0.07473,-0.34013 -0.281328,-0.88156 -0.737068,-1.1208 -0.591502,-2.04617 0.492379,-3.13005 0.458365,-0.45836 0.573987,-0.6601 0.558323,-0.97415 l -0.01975,-0.39607 8.295793,-8.15004 8.295788,-8.15006 -0.198503,-0.33153 -0.198502,-0.33153 2.969509,-2.96952 2.96951,-2.9695 -0.212041,-0.45226 c -0.286054,-0.61011 -0.948189,-1.25099 -1.546135,-1.49654 l -0.491758,-0.20192 -3.40894,3.40894 -3.40894,3.40894 h -0.66659 c -0.417848,0 -0.895821,0.13535 -1.280884,0.3627 -0.337857,0.19948 -0.852166,0.43986 -1.142905,0.53418 -0.849355,0.27553 -2.309808,1.0606 -2.358757,1.26795 -0.02598,0.11005 -0.06137,0.12131 -0.08375,0.0266 -0.0213,-0.0902 -0.287719,-0.0555 -0.592041,0.0771 -0.467064,0.20362 -0.598357,0.19617 -0.84229,-0.0477 -0.462701,-0.4627 -0.780804,-0.41474 -1.5644,0.23587 -0.896485,0.74434 -1.030206,1.12212 -0.727685,2.05577 0.227053,0.70074 0.222295,0.72399 -0.243635,1.18991 -0.289347,0.28935 -0.54182,0.44402 -0.645506,0.39547 -0.136045,-0.0637 -0.187839,-0.0115 -0.257616,0.25913 -0.0701,0.27239 -0.151836,0.35413 -0.416178,0.41618 -0.267321,0.0627 -0.319453,0.11802 -0.278249,0.29503 0.04154,0.17851 -0.0095,0.2317 -0.282861,0.29488 -0.250062,0.0578 -0.33934,0.1396 -0.356737,0.32688 -0.01277,0.13737 -0.104845,0.26904 -0.204619,0.29259 -0.09977,0.0236 -1.1819,1.05372 -2.404733,2.28926 -1.222835,1.23553 -2.316731,2.25753 -2.430865,2.27112 -0.128116,0.0152 -0.1922,0.0896 -0.167471,0.19439 0.05549,0.23507 -0.29221,0.55557 -0.514889,0.47459 -0.146687,-0.0533 -0.170024,-0.03 -0.116684,0.11669 0.03667,0.10084 -0.01583,0.26587 -0.116683,0.36672 -0.100848,0.10084 -0.265873,0.15335 -0.366722,0.11668 -0.146687,-0.0533 -0.170024,-0.03 -0.116683,0.11668 0.03667,0.10085 -0.03834,0.28838 -0.166692,0.41673 -0.128352,0.12835 -0.31588,0.20336 -0.416728,0.16669 -0.146687,-0.0533 -0.170025,-0.03 -0.116684,0.11669 0.03667,0.10085 -0.01583,0.26587 -0.116684,0.36672 -0.100848,0.10085 -0.265873,0.15335 -0.366721,0.11668 -0.146687,-0.0533 -0.170024,-0.03 -0.116683,0.11668 0.03667,0.10085 -0.03834,0.28838 -0.166692,0.41673 -0.128352,0.12835 -0.31588,0.20337 -0.416729,0.16669 -0.146686,-0.0533 -0.170024,-0.03 -0.116683,0.11669 0.08638,0.23756 -0.24954,0.57348 -0.470904,0.4709 -0.136684,-0.0633 -0.172357,-0.0277 -0.178359,0.17836 -0.0096,0.33118 -0.298459,0.61999 -0.534246,0.53425 -0.146687,-0.0533 -0.170024,-0.03 -0.116683,0.11668 0.07908,0.21748 -0.272362,0.6111 -0.416746,0.46672 -0.05501,-0.055 -0.167528,-0.0325 -0.25004,0.05 -0.08251,0.0825 -0.105012,0.19503 -0.05,0.25004 0.144365,0.14437 -0.249253,0.49581 -0.466719,0.41675 -0.146686,-0.0533 -0.170023,-0.03 -0.116682,0.11668 0.07908,0.21749 -0.272362,0.6111 -0.416747,0.46672 -0.05501,-0.055 -0.167527,-0.0325 -0.250039,0.05 -0.08251,0.0825 -0.105013,0.19502 -0.05,0.25003 0.138464,0.13847 -0.248262,0.50096 -0.434879,0.40767 -0.107826,-0.0539 -0.17889,0.0315 -0.246453,0.29642 -0.07438,0.29168 -0.131757,0.35495 -0.265225,0.29244 -0.202005,-0.0946 -0.497853,0.15945 -0.353598,0.30371 0.144369,0.14436 -0.249253,0.49581 -0.466718,0.41674 -0.146687,-0.0533 -0.170024,-0.03 -0.116683,0.11668 0.07909,0.21749 -0.272358,0.61111 -0.416747,0.46672 -0.05501,-0.055 -0.167523,-0.0325 -0.250035,0.05 -0.08251,0.0825 -0.105017,0.19503 -0.05001,0.25004 0.144369,0.14437 -0.249253,0.49581 -0.466718,0.41675 -0.146686,-0.0534 -0.170024,-0.03 -0.116683,0.11668 0.07909,0.21748 -0.272358,0.61111 -0.416746,0.46671 -0.05501,-0.055 -0.167524,-0.0325 -0.250036,0.05 -0.08251,0.0825 -0.105017,0.19502 -0.05001,0.25003 0.138465,0.13847 -0.248262,0.50096 -0.434878,0.40767 -0.107827,-0.0539 -0.178891,0.0315 -0.246453,0.29642 -0.07438,0.29169 -0.131754,0.35495 -0.265225,0.29244 -0.202052,-0.0946 -0.497899,0.1594 -0.353636,0.30366 0.145076,0.14508 -0.252653,0.49866 -0.450454,0.40049 -0.129763,-0.0644 -0.173669,-0.0142 -0.19653,0.22503 -0.03478,0.36392 -0.170747,0.38236 -0.743842,0.10088 -0.394027,-0.19352 -0.471414,-0.17237 -1.021058,0.27914 -0.647946,0.53225 -1.009188,0.67612 -1.621052,0.6456 -0.249844,-0.0125 -0.520893,0.10231 -0.725972,0.30739 -0.386941,0.38694 -0.359092,1.32629 0.0676,2.28026 0.162246,0.36275 0.200408,0.65221 0.09931,0.75331 -0.0903,0.0903 -0.192458,0.32464 -0.227009,0.52075 -0.03455,0.19611 -0.322158,0.80616 -0.639128,1.35566 -0.316972,0.54951 -0.874386,1.55616 -1.238698,2.237 -0.364309,0.68085 -1.106808,2.00865 -1.649996,2.95068 l -0.9876099,1.71279 -2.5602728,2.44047 c -1.4081658,1.34224 -3.1451745,2.97014 -3.8600525,3.61751 l -1.2997819,1.17704 0.4042462,0.27144 c 0.2223296,0.1493 0.5025436,0.37121 0.6226862,0.49315 0.1202859,0.1218 0.2869652,0.20553 0.370724,0.18576 0.083744,-0.0198 0.1933481,0.0563 0.2435286,0.16899 0.050192,0.11272 0.2033154,0.21533 0.3402681,0.22807 0.1369489,0.0127 0.2913162,0.11815 0.3430314,0.23427 0.051716,0.11613 0.168645,0.19351 0.2598243,0.172 0.091168,-0.0216 0.2051796,0.0493 0.253319,0.15739 0.048139,0.10809 0.1719332,0.21646 0.275122,0.2408 0.1031701,0.0244 0.3672545,0.19214 0.5868508,0.37287 0.2195893,0.18073 0.6027991,0.4851 0.8515553,0.67641 0.9352089,0.71921 2.1086041,1.7643 3.2004255,2.85048 1.0812067,1.07591 1.1368457,1.11348 1.3398817,0.91029 0.250293,-0.25048 0.351213,-1.49973 0.167899,-2.07833 -0.07086,-0.22367 -0.237325,-0.51515 -0.369919,-0.64774 -0.15786,-0.15786 -0.193074,-0.34844 -0.102016,-0.55208 0.113848,-0.25463 0.02067,-0.49598 -0.5139798,-1.33135 -0.3591719,-0.56118 -0.7321844,-1.31602 -0.8289208,-1.67742 -0.215179,-0.80389 -0.054613,-1.18977 1.4648256,-3.52029 0.607869,-0.93236 1.298941,-2.12364 1.535716,-2.6473 l 0.430495,-0.952 2.982662,-2.89175 c 1.880404,-1.82309 3.068904,-2.89976 3.216031,-2.91343 0.128354,-0.0119 0.624818,-0.20704 1.103256,-0.43359 0.655464,-0.31037 1.010046,-0.38452 1.438488,-0.30082 0.884804,0.17285 1.068145,0.47287 1.415573,2.31644 0.67726,3.59378 0.764588,4.36952 0.60054,5.33454 -0.10388,0.61106 -0.09286,1.01381 0.03004,1.09795 0.280926,0.19233 3.180619,-0.25404 3.792505,-0.58381 0.285586,-0.15391 0.756346,-0.46683 1.046132,-0.69539 0.438582,-0.34591 0.523552,-0.48137 0.506992,-0.80825 -0.01688,-0.33331 -0.08522,-0.42425 -0.451922,-0.60137 -0.402989,-0.19465 -0.464883,-0.32497 -0.920772,-1.93877 -0.461494,-1.63364 -1.203912,-4.51441 -1.209991,-4.69506 -0.0015,-0.0456 0.373749,-0.22287 0.83396,-0.39398 0.614998,-0.22865 1.314596,-0.67509 2.639869,-1.68462 1.968087,-1.49917 1.987474,-1.5276 1.427774,-2.0935 -0.254937,-0.25774 -0.240158,-0.70683 0.02324,-0.70683 0.06032,1e-5 0.997509,0.58164 2.082656,1.29254 3.208265,2.1018 7.753792,4.46511 8.096272,4.20943 0.09347,-0.0698 0.491846,-0.8679 0.88525,-1.77355 z m -13.57106,-0.51794 c -0.803933,0.60878 -1.115501,0.76061 -1.788972,0.8718 -0.448524,0.074 -0.867501,0.0818 -0.931062,0.0172 -0.06358,-0.0646 -0.217546,-0.49366 -0.342194,-0.95348 -0.326815,-1.20561 -0.06236,-1.3176 0.979372,-0.41474 0.441424,0.38258 0.893688,0.71701 1.005033,0.74319 0.405649,0.0954 0.354905,-0.12498 -0.115095,-0.49977 -0.592004,-0.47207 -0.97604,-1.49472 -0.721154,-1.92037 0.129924,-0.21696 1.186921,-1.2223 1.844094,-1.75401 0.04561,-0.0369 0.29173,0.14171 0.546935,0.39692 0.344374,0.34437 0.515059,0.67654 0.661995,1.28829 0.289264,1.20432 0.340156,1.10491 -1.138952,2.22496 z"
       id="path823"
       inkscape:connector-curvature="0" />
  </g>
</svg>
