<?xml version="1.0" encoding="UTF-8" standalone="no"?>
<!-- Created with Inkscape (http://www.inkscape.org/) -->

<svg
   xmlns:dc="http://purl.org/dc/elements/1.1/"
   xmlns:cc="http://creativecommons.org/ns#"
   xmlns:rdf="http://www.w3.org/1999/02/22-rdf-syntax-ns#"
   xmlns:svg="http://www.w3.org/2000/svg"
   xmlns="http://www.w3.org/2000/svg"
   xmlns:sodipodi="http://sodipodi.sourceforge.net/DTD/sodipodi-0.dtd"   
   width="220"
   height="235"
   viewBox="0 0 58.208332 62.177085"
   version="1.1"
   id="svg8"   
   sodipodi:docname="sg553.svg" >
  <defs
     id="defs2" />
  <sodipodi:namedview
     id="base"
     pagecolor="#000000"
     bordercolor="#666666"
     borderopacity="1.0"
     showgrid="false"
     units="px"
     showguides="false" />
  <metadata
     id="metadata5">
    <rdf:RDF>
      <cc:Work
         rdf:about="">
        <dc:format>image/svg+xml</dc:format>
        <dc:type
           rdf:resource="http://purl.org/dc/dcmitype/StillImage" />
        <dc:title></dc:title>
      </cc:Work>
    </rdf:RDF>
  </metadata>
  <g
     id="layer1"
     transform="translate(0,-234.8229)">
    <path
       style="fill:none;stroke:#ffffff;stroke-width:0.4;stroke-opacity:1;stroke-miterlimit:4;stroke-dasharray:none"
       d="m 39.04091,270.58443 c 0.519253,-0.74065 2.604735,-4.41089 2.628249,-4.62547 0.0169,-0.15425 -0.136811,-0.27602 -0.952548,-0.75443 -1.39119,-0.81594 -2.948437,-1.88617 -4.605305,-3.16505 -0.618754,-0.47759 -0.62098,-0.48004 -0.655272,-0.70883 -0.07078,-0.47233 0.48078,-1.77261 1.062563,-2.50496 0.453579,-0.571 1.130348,-1.24894 1.152586,-1.15463 0.0096,0.041 0.03506,0.0315 0.05876,-0.0223 0.02926,-0.0656 0.08917,-0.0645 0.19977,0.007 0.304865,0.18763 0.416371,0.15319 0.823927,-0.25435 0.204689,-0.20465 0.364443,-0.40486 0.355009,-0.4448 -0.02556,-0.10828 0.268939,-0.37815 0.365648,-0.33509 0.110869,0.0496 0.342564,-0.25925 0.258062,-0.34373 -0.04121,-0.0413 -0.0091,-0.11542 0.09492,-0.21946 0.10979,-0.1098 0.177527,-0.13692 0.224573,-0.0898 0.09303,0.093 0.40041,-0.21433 0.343077,-0.3431 -0.02317,-0.052 0.01382,-0.14853 0.08363,-0.21833 0.06979,-0.0699 0.166358,-0.10677 0.218357,-0.0837 0.05775,0.0255 0.151748,-0.0172 0.247029,-0.11229 0.09529,-0.0952 0.138011,-0.18926 0.112286,-0.24702 -0.02425,-0.0546 0.01505,-0.14977 0.09463,-0.22939 0.09106,-0.0912 0.158454,-0.11384 0.203521,-0.0688 0.09302,0.0929 0.400408,-0.21432 0.343073,-0.34306 -0.02367,-0.0531 0.01436,-0.14913 0.08841,-0.22318 0.08555,-0.0854 0.152953,-0.10692 0.197314,-0.0624 0.04864,0.0488 0.117274,0.0177 0.247028,-0.11235 0.129754,-0.12971 0.160945,-0.19835 0.112282,-0.24701 -0.04702,-0.0471 -0.01996,-0.11477 0.08984,-0.22455 0.10979,-0.10981 0.177522,-0.13688 0.224575,-0.0899 0.09302,0.093 0.400404,-0.21431 0.343075,-0.34308 -0.0231,-0.052 0.01383,-0.14855 0.08362,-0.21838 0.06979,-0.0697 0.166362,-0.10674 0.218359,-0.0836 0.05777,0.0256 0.151743,-0.017 0.247025,-0.1123 0.0953,-0.0952 0.138012,-0.18928 0.112293,-0.24705 -0.02426,-0.0546 0.01506,-0.14976 0.09461,-0.22937 0.09107,-0.0912 0.158459,-0.11385 0.20353,-0.0688 0.09303,0.0931 0.400405,-0.21431 0.343073,-0.34304 -0.05708,-0.12816 0.238031,-0.42326 0.330645,-0.33064 0.04706,0.047 0.11478,0.0204 0.224571,-0.0897 0.10979,-0.10982 0.136888,-0.17757 0.08984,-0.22462 -0.04726,-0.0473 -0.01966,-0.11505 0.0925,-0.22721 0.08793,-0.0879 0.166762,-0.13056 0.175207,-0.0947 0.02576,0.10912 0.193738,-0.01 0.586816,-0.39781 0.337165,-0.33712 0.372498,-0.39281 0.34565,-0.54525 -0.01642,-0.0933 -0.11258,-0.25239 -0.213625,-0.35343 -0.245518,-0.2456 -0.248147,-0.60209 -0.0053,-0.84401 0.135152,-0.13519 0.155113,-0.19856 0.104864,-0.33293 -0.0369,-0.0986 -0.02741,-0.18138 0.02332,-0.20398 0.04697,-0.0212 0.05307,-0.0456 0.01352,-0.0549 -0.03952,-0.01 -0.03023,-0.0585 0.02062,-0.10946 0.08343,-0.0833 0.120033,-0.0649 0.37388,0.18756 0.154736,0.15404 0.320734,0.28878 0.368801,0.29943 0.06212,0.014 0.168841,-0.0799 0.369164,-0.32417 l 0.28177,-0.34375 -0.150096,-0.20919 c -0.08256,-0.11508 -0.268284,-0.30561 -0.412724,-0.42346 -0.252788,-0.2062 -0.262865,-0.22756 -0.269418,-0.57096 -0.0086,-0.45271 0.0902,-0.91161 0.207616,-0.96388 0.04989,-0.0222 0.06232,-0.047 0.02766,-0.0553 -0.122243,-0.029 0.17382,-0.36338 1.459108,-1.64867 1.210064,-1.21009 1.316841,-1.30462 1.564606,-1.38495 0.287068,-0.093 0.610314,-0.37449 0.674766,-0.58733 0.02203,-0.0728 0.146854,-0.24814 0.277384,-0.38966 0.130525,-0.14163 0.222335,-0.27271 0.204011,-0.29147 -0.06841,-0.07 0.635967,-0.70486 0.908999,-0.81919 0.240052,-0.10047 0.449332,-0.29211 1.86486,-1.70765 l 1.594461,-1.59447 -0.08826,-0.25684 c -0.132414,-0.38522 -0.559075,-0.7945 -0.973495,-0.93386 l -0.329567,-0.11078 -0.910015,0.90902 c -0.50057,0.49986 -0.892386,0.9266 -0.870838,0.94816 0.02152,0.0219 -0.005,0.0446 -0.06122,0.0512 -0.126352,0.0148 -0.998751,0.85978 -1.011326,0.9793 -0.0128,0.12142 -0.298418,0.48584 -0.946116,1.20707 l -0.547418,0.60957 -0.39651,0.1201 -0.396503,0.12002 -0.116296,0.36603 -0.116297,0.36609 -1.352871,1.35712 c -1.330547,1.33469 -1.53271,1.51239 -1.564993,1.37564 -0.0089,-0.038 -0.0977,-0.17723 -0.197304,-0.30983 l -0.181084,-0.24106 0.231386,-0.25927 c 0.127261,-0.14254 0.235786,-0.30656 0.241167,-0.36443 0.01427,-0.15354 -0.516831,-0.67041 -0.673871,-0.65584 -0.06699,0.01 -0.230675,0.11448 -0.36378,0.24055 l -0.242003,0.22915 -0.260644,-0.18578 c -0.356847,-0.25437 -0.445524,-0.25196 -0.680124,0.0188 -0.107431,0.12385 -0.236261,0.22382 -0.286301,0.22205 -0.05002,-0.004 -0.247911,-0.13915 -0.439719,-0.30536 -0.875303,-0.82512 -1.981137,1.19538 -1.278003,1.60801 0.132183,0.0763 0.170308,0.0458 0.284248,-0.22658 0.04031,-0.0963 0.06454,-0.0953 0.14088,0.01 0.08572,0.11398 0.07479,0.13788 -0.15669,0.34111 -0.13687,0.12021 -0.257384,0.25501 -0.267963,0.2994 -0.01048,0.0445 -2.061321,2.11715 -4.557385,4.60593 -4.528316,4.51509 -4.538225,4.52536 -4.503775,4.67443 0.04348,0.18821 -0.218268,0.48219 -0.32993,0.37057 -0.0394,-0.0394 -0.172164,-0.0886 -0.295001,-0.10923 -0.251549,-0.0424 -0.455588,0.10806 -0.49078,0.36176 -0.02846,0.20508 -0.158347,0.33042 -0.248796,0.23998 -0.06071,-0.0608 -0.105341,-0.033 -0.261207,0.16249 -0.103389,0.12967 -0.173191,0.26538 -0.155103,0.30156 0.05233,0.10469 -0.166657,0.28364 -0.265794,0.21714 -0.128564,-0.0863 -0.349937,0.11953 -0.357465,0.33223 -0.0081,0.23281 -0.148594,0.36977 -0.292593,0.28546 -0.137771,-0.0807 -0.352715,0.10694 -0.352715,0.30784 0,0.0807 0.02039,0.11431 0.05079,0.0838 0.02792,-0.028 0.05718,-0.0236 0.06507,0.0102 0.0269,0.11399 -0.291777,0.29352 -0.411172,0.23163 -0.122505,0.15023 -0.174804,0.46597 -0.368017,0.4503 0.05512,0.1297 -0.159144,0.29359 -0.286441,0.21908 -0.129895,-0.0761 -0.34765,0.0986 -0.353961,0.28402 -0.0049,0.13163 0.131752,0.15414 0.31878,0.0527 0.109898,-0.0597 -0.06181,0.0668 -0.34797,0.25659 -0.07956,0.0527 -0.191742,0.0671 -0.251332,0.0323 -0.145881,-0.0853 -0.366569,0.14064 -0.375196,0.38417 -0.0086,0.24645 -0.160974,0.39874 -0.279832,0.27989 -0.121738,-0.12174 -0.340031,0.0965 -0.348973,0.34894 -0.0083,0.23945 -0.147179,0.37813 -0.292845,0.29287 -0.156639,-0.0917 -0.40335,0.15502 -0.356728,0.35671 0.04662,0.2017 -0.179818,0.42814 -0.303976,0.30399 -0.132121,-0.1321 -0.396476,0.13894 -0.29858,0.3062 0.05259,0.0898 0.04566,0.11282 -0.02879,0.0961 -0.0733,-0.0165 -0.08395,-0.01 -0.04248,0.0349 0.09473,0.097 -0.146096,0.27827 -0.271964,0.20462 -0.156637,-0.0916 -0.403349,0.15498 -0.356724,0.35669 0.04403,0.19052 -0.127026,0.36156 -0.281519,0.28157 -0.158157,-0.0818 -0.417715,0.16347 -0.330476,0.31247 0.04071,0.0696 0.01389,0.15442 -0.08423,0.26672 -0.119915,0.13722 -0.15913,0.14947 -0.235156,0.0736 -0.07431,-0.0742 -0.120374,-0.0621 -0.24844,0.0659 -0.132874,0.13286 -0.141668,0.17294 -0.05682,0.2589 0.08117,0.0822 0.07914,0.0972 -0.01053,0.0781 -0.07395,-0.0156 -0.09245,-0.01 -0.05545,0.033 0.09473,0.097 -0.146098,0.27827 -0.271963,0.20457 -0.156635,-0.0917 -0.403349,0.15501 -0.356723,0.35672 0.04663,0.20171 -0.179823,0.42815 -0.303978,0.304 -0.128129,-0.12816 -0.417852,0.16162 -0.36974,0.36974 0.04416,0.19095 -0.123779,0.35891 -0.272079,0.2721 -0.193436,-0.11329 -0.500769,0.28303 -0.321293,0.41423 0.06159,0.0452 0.04119,0.0887 -0.08986,0.19236 -0.125852,0.0995 -0.191421,0.11221 -0.254454,0.0492 -0.07781,-0.0777 -0.123436,-0.0462 -0.544602,0.37617 -0.443209,0.44455 -0.564842,0.62939 -0.448642,0.68187 0.03023,0.0136 -0.0049,0.0968 -0.07695,0.18486 -0.110309,0.13379 -0.14699,0.14496 -0.224569,0.0673 -0.08966,-0.0897 -0.115489,-0.07 -0.789746,0.60439 -0.676278,0.67628 -0.699189,0.70627 -0.768061,1.00603 -0.08195,0.35669 -0.07385,0.43768 0.057,0.5704 0.06603,0.067 0.06709,0.13779 0.0049,0.23156 -0.05044,0.0741 -0.119999,0.12832 -0.154617,0.12014 -0.106471,-0.0251 -0.92493,0.82992 -0.914122,0.95496 0.0049,0.06 -0.0964,0.26609 -0.225729,0.45786 -0.279927,0.41513 -0.412544,0.83593 -0.311956,0.98994 0.03999,0.0614 0.104577,0.16022 0.143534,0.22006 0.05083,0.0781 0.03445,0.0753 -0.05789,-0.0101 -0.07081,-0.0648 -0.148522,-0.0985 -0.172725,-0.0743 -0.0242,0.0239 -0.158569,0.34111 -0.29861,0.70421 -0.554714,1.43844 -1.541234,3.08691 -2.67128,4.46372 -0.332467,0.40506 -1.523257,1.69739 -2.646206,2.87178 -1.122945,1.17445 -3.142979,3.29781 -4.4889607,4.71855 -1.3459807,1.42073 -2.5907606,2.72263 -2.7661744,2.89302 -0.3241275,0.31495 -0.7398692,0.79171 -0.989236,1.13445 -0.1641779,0.22563 -0.1687325,0.54789 -0.010467,0.73965 0.062942,0.0761 0.1357197,0.19004 0.161739,0.25286 0.031723,0.0764 0.092433,0.10721 0.1842645,0.0928 0.1029615,-0.0158 0.203541,0.044 0.4051973,0.24174 0.1476205,0.14457 0.3040722,0.25617 0.3478664,0.24782 0.043784,-0.01 0.2097958,0.11865 0.3688866,0.28233 0.1590933,0.16371 0.3037136,0.28315 0.3213752,0.2655 0.052303,-0.0524 0.4516538,0.26411 0.4857604,0.38495 0.02004,0.0711 0.095923,0.1314 0.2097961,0.16722 0.2114991,0.0666 0.4978425,0.33564 0.4978425,0.46802 0,0.0649 0.038824,0.0901 0.1267683,0.0819 0.1513407,-0.0138 0.5020372,0.31366 0.5020283,0.46918 1e-6,0.081 0.036988,0.10752 0.1584934,0.11356 0.1877391,0.01 0.5434359,0.33724 0.4898949,0.45158 -0.028657,0.0613 -0.00554,0.0842 0.1154187,0.11541 0.1925384,0.0498 0.5387144,0.3929 0.5387104,0.53425 -1.6e-6,0.0837 0.023965,0.10778 0.1077948,0.10778 0.1447525,0 0.5421279,0.40097 0.4956823,0.5002 -0.028655,0.0612 -0.00559,0.0841 0.1154185,0.11543 0.1996791,0.0512 0.3850662,0.24364 0.4576397,0.47452 0.034085,0.10846 0.087118,0.18006 0.1264432,0.1708 0.1152082,-0.0271 0.5018699,0.40282 0.4887861,0.54361 -0.00817,0.088 0.016895,0.12675 0.081854,0.12675 0.1416945,0 0.4110455,0.29895 0.4454815,0.49444 0.01953,0.11083 0.06473,0.1777 0.12581,0.1861 0.120678,0.0167 0.498148,0.46366 0.440308,0.52148 -0.03999,0.0403 0.292109,0.32722 0.542471,0.46912 0.126209,0.0714 0.407632,-0.0155 0.748724,-0.2318 0.218759,-0.13868 0.317941,-0.25431 0.595256,-0.69397 0.3028,-0.4801 0.358925,-0.63489 0.623371,-1.71919 0.643874,-2.64003 1.675397,-6.60553 3.05034,-11.72651 0.40605,-1.51235 0.671967,-2.25375 0.844588,-2.35481 0.05878,-0.0344 0.07958,-0.069 0.04615,-0.0769 -0.08391,-0.02 0.555596,-0.99908 1.171598,-1.794 0.172567,-0.22266 1.009154,-1.10404 1.859081,-1.95863 1.881137,-1.8914 1.948932,-1.95717 1.948928,-1.89031 4e-6,0.0296 0.129318,0.045 0.287377,0.0346 0.158057,-0.0108 0.482397,0.0479 0.720752,0.12873 0.37108,0.12626 0.480472,0.19519 0.761035,0.47936 0.460575,0.46655 0.543731,0.79837 0.702984,2.80531 0.07265,0.91545 0.157276,1.97608 0.188068,2.35691 0.04425,0.54738 0.07792,0.68752 0.160657,0.66887 0.08551,-0.0194 0.09043,-0.01 0.02678,0.0557 -0.105812,0.10744 0.126229,0.33736 0.330267,0.32718 0.08392,-0.009 0.342722,-0.0991 0.575084,-0.21088 1.232901,-0.59332 3.404112,-1.60425 3.748777,-1.74546 0.21718,-0.089 0.413571,-0.20376 0.436422,-0.25502 0.02284,-0.0516 0.01021,-0.19177 -0.02814,-0.31217 -0.06318,-0.19855 -0.08944,-0.22585 -0.282622,-0.29429 -0.199477,-0.0708 -0.220672,-0.0964 -0.334686,-0.40734 -0.06697,-0.18254 -0.283139,-0.94176 -0.480425,-1.68713 -0.888195,-3.35584 -1.017606,-3.80835 -1.118205,-3.91016 -0.03932,-0.0397 0.08897,-0.0291 0.285108,0.0242 0.196127,0.0533 0.434377,0.0677 0.529431,0.0319 0.194287,-0.0726 1.362066,-1.22381 2.134843,-2.10445 0.409921,-0.46715 0.475578,-0.57109 0.530115,-0.83902 0.09321,-0.45792 -0.0049,-0.81589 -0.325436,-1.20411 -0.188851,-0.22774 -0.252975,-0.34597 -0.210631,-0.38829 0.05562,-0.0554 0.123683,-0.0135 0.416652,0.25709 0.05137,0.0476 0.136684,0.0955 0.189624,0.10697 0.08882,0.0194 0.494216,0.3494 0.913136,0.74401 0.131412,0.12381 0.192254,0.14463 0.250951,0.0859 0.115557,-0.11555 0.04405,-0.21984 -0.578453,-0.84368 -0.743775,-0.74536 -0.766908,-0.78733 -0.537712,-0.97401 l 0.179663,-0.14636 0.342206,0.27715 c 1.344472,1.08896 3.167719,2.3741 4.995946,3.52148 1.165417,0.73148 1.486751,0.85949 1.618421,0.64484 0.03803,-0.0621 0.177414,-0.26714 0.309765,-0.4559 z m -27.306761,19.72472 c -0.108746,0.043 -0.342476,0.0611 -0.519399,0.0408 -0.35038,-0.0408 -0.547593,0.0242 -0.882868,0.29052 -0.147057,0.11682 -0.301296,0.17522 -0.4723743,0.1789 l -0.2540243,0.01 -1.2653364,-1.26534 -1.2653387,-1.26532 -0.024735,-0.38857 c -0.027868,-0.43732 0.1745357,-1.41573 0.3288432,-1.58977 0.055736,-0.0627 0.081169,-0.11897 0.056543,-0.12481 -0.069259,-0.0164 0.3322585,-0.59128 0.5998773,-0.8589 0.1317467,-0.13175 0.2562418,-0.22289 0.2766745,-0.20239 0.020429,0.0207 0.084827,-0.0264 0.1431117,-0.10396 0.058293,-0.0776 0.9568133,-0.86672 1.996722,-1.75365 1.039909,-0.8869 2.069932,-1.76685 2.288943,-1.95546 0.219008,-0.18858 0.414771,-0.32632 0.435031,-0.30609 0.02025,0.0209 0.05567,-0.01 0.07871,-0.057 0.09183,-0.20626 0.270113,-0.13299 0.684444,0.28136 l 0.398093,0.39809 -0.05922,0.27764 c -0.03258,0.15268 -0.222589,0.88231 -0.422262,1.62134 -0.199674,0.73908 -0.635516,2.38499 -0.968544,3.65766 -0.819281,3.13092 -0.757857,2.96466 -1.152864,3.12 z M 28.69627,271.70077 c -0.04561,0.01 -0.229477,-0.0242 -0.408603,-0.0718 -0.275102,-0.073 -0.378812,-0.13956 -0.667717,-0.42846 -0.188118,-0.18812 -0.370052,-0.41698 -0.404299,-0.50853 -0.06858,-0.18347 0.01718,-0.32779 0.128538,-0.2164 0.04743,0.0473 0.09888,0.0327 0.1572,-0.0448 0.06579,-0.0876 0.05587,-0.15292 -0.04094,-0.27054 -0.08443,-0.10262 -0.10647,-0.19135 -0.0651,-0.26202 0.08024,-0.13709 0.135011,-0.13467 0.282188,0.0128 0.295765,0.29576 1.487681,0.73772 1.885667,0.69918 0.149939,-0.0141 0.243091,-0.1874 0.15073,-0.27974 -0.03594,-0.036 -0.198101,-0.13267 -0.360351,-0.21492 -0.415841,-0.21086 -1.10139,-0.95716 -1.11414,-1.21291 -0.0049,-0.0984 0.02924,-0.19597 0.07589,-0.21674 0.05294,-0.0235 0.05318,-0.0453 0.0014,-0.0578 -0.05672,-0.0133 -0.04943,-0.0351 0.02245,-0.0673 0.05866,-0.026 0.07804,-0.0541 0.04308,-0.0625 -0.03496,-0.01 -0.03047,-0.0726 0.01002,-0.14252 0.105442,-0.18267 1.405999,-1.47246 1.499097,-1.48668 0.04289,-0.01 0.341342,0.23906 0.663317,0.54585 0.498711,0.47521 0.601582,0.59968 0.694742,0.84061 0.114577,0.29635 0.09439,0.59327 -0.06187,0.90935 -0.107266,0.21696 -2.362475,2.5134 -2.490581,2.53611 z"
       id="path8142"       
       sodipodi:nodetypes="ccsscccccsccssscscscsscsssssscscscsscsssscscsscccsccccccsccssccccsccccccccccccccscccsccsccccccccccccscsscccccsscccccccccsccsscccsscccssccccssccccscccsscccccccccssscscccsccsssccccccccccccccccccsccscsccccccccsccccccccccccccccsscccscccsscccccccccccccssccsscsccssccccscscscscsccccccccccccc" />
  </g>
</svg>
