<?xml version="1.0" encoding="UTF-8" standalone="no"?>
<!-- Created with Inkscape (http://www.inkscape.org/) -->

<svg
   xmlns:dc="http://purl.org/dc/elements/1.1/"
   xmlns:cc="http://creativecommons.org/ns#"
   xmlns:rdf="http://www.w3.org/1999/02/22-rdf-syntax-ns#"
   xmlns:svg="http://www.w3.org/2000/svg"
   xmlns="http://www.w3.org/2000/svg"
   xmlns:sodipodi="http://sodipodi.sourceforge.net/DTD/sodipodi-0.dtd"   
   width="220"
   height="235"
   viewBox="0 0 58.208332 62.177085"
   version="1.1"
   id="svg8"   
   sodipodi:docname="tar-21.svg" >
  <defs
     id="defs2" />
  <sodipodi:namedview
     id="base"
     pagecolor="#000000"
     bordercolor="#666666"
     borderopacity="1.0"
     showgrid="false"
     units="px"     
     showguides="false" />
  <metadata
     id="metadata5">
    <rdf:RDF>
      <cc:Work
         rdf:about="">
        <dc:format>image/svg+xml</dc:format>
        <dc:type
           rdf:resource="http://purl.org/dc/dcmitype/StillImage" />
        <dc:title></dc:title>
      </cc:Work>
    </rdf:RDF>
  </metadata>
  <g
     id="layer1"
     transform="translate(0,-234.8229)">
    <path
       style="fill:none;stroke:#ffffff;stroke-width:0.4;stroke-miterlimit:4;stroke-dasharray:none;stroke-opacity:1"
       d="m 34.096791,286.20595 c 0.257622,-0.34632 0.512347,-0.77661 0.56605,-0.95619 0.119331,-0.39901 1.266952,-2.40352 1.645702,-2.87448 0.151201,-0.18806 0.274905,-0.49155 0.274904,-0.67439 4e-6,-0.29839 -0.233627,-0.46394 -2.275273,-1.6125 -2.561014,-1.44073 -4.102783,-2.48529 -5.165645,-3.4999 -1.282251,-1.22399 -1.325098,-1.2844 -1.082923,-1.52659 0.139517,-0.1395 0.160592,-0.4559 0.05711,-0.85729 l -0.164031,-0.63611 0.454464,0.18257 c 0.249959,0.10049 0.521241,0.24504 0.602849,0.32125 0.08942,0.0833 0.230767,0.0265 0.355692,-0.14344 0.231969,-0.31548 0.262128,-0.28741 -0.918783,-0.85504 l -0.860822,-0.41373 -0.353429,-0.85348 c -0.194386,-0.46937 -0.362609,-1.12208 -0.373824,-1.4504 l -0.0204,-0.59694 2.727273,-2.72723 2.727264,-2.72729 0.669384,-0.0378 c 0.973558,-0.0546 1.40685,0.45678 1.755806,2.07281 0.389091,1.80184 0.852201,3.11347 1.699221,4.81241 1.075803,2.15786 1.861373,2.8228 3.282649,2.77865 0.90894,-0.0283 7.624998,-2.9487 7.827715,-3.40384 0.05065,-0.11379 -0.04753,-0.58795 -0.218244,-1.05386 -0.439271,-1.19886 -2.122381,-11.43982 -2.088243,-12.70604 0.03432,-1.27298 0.217283,-1.62547 1.963122,-3.78176 0.749155,-0.92527 1.580641,-1.95307 1.847753,-2.28392 0.267117,-0.33095 0.641003,-0.78884 0.830873,-1.01759 0.189871,-0.22876 0.54736,-0.67855 0.794423,-0.99959 1.432028,-1.86091 1.207582,-1.7004 2.31177,-1.65326 0.915731,0.0391 1.014059,0.01 1.198452,-0.36816 0.265924,-0.54376 -0.147952,-1.75306 -1.261423,-3.68584 -0.471502,-0.81836 -0.857273,-1.53627 -0.857274,-1.5952 1.2e-5,-0.0589 0.183766,-0.18948 0.408082,-0.29046 0.402878,-0.18091 3.420465,-3.30559 3.49428,-3.6183 0.0559,-0.2368 -1.091247,-1.31055 -1.35847,-1.27158 -0.266453,0.039 -3.211771,3.00793 -3.600754,3.62979 -0.246922,0.39476 -0.258822,0.39414 -0.724757,-0.0381 -0.280138,-0.25983 -0.692382,-0.4721 -1.008832,-0.51953 -0.328755,-0.0493 -0.699405,-0.24451 -0.961125,-0.50623 -0.45205,-0.45204 -0.950958,-0.52119 -1.114307,-0.15442 -0.162211,0.36423 -0.613812,0.19641 -1.190079,-0.44238 -0.301875,-0.33463 -0.889433,-0.92833 -1.305688,-1.31941 -0.664577,-0.62434 -0.78239,-0.68544 -0.966523,-0.50134 -0.11533,0.11539 -0.356361,0.20969 -0.535616,0.2097 -0.2896,-1e-5 -0.306782,0.0572 -0.154158,0.51377 0.224337,0.67098 1.163771,1.62951 1.382583,1.41071 0.442151,-0.44215 2.001976,0.63291 2.116537,1.45876 0.02829,0.20389 0.167391,0.48662 0.309126,0.62837 0.240358,0.24037 0.222456,0.28467 -0.266019,0.65822 -0.288057,0.22023 -2.162191,1.79552 -4.164766,3.50063 -3.519113,2.99643 -5.566104,4.71465 -6.886492,5.78055 l -0.631714,0.50992 -0.481457,-0.48141 c -0.48839,-0.48844 -0.689034,-0.47745 -0.806234,0.0442 -0.03444,0.15331 -0.176735,0.27831 -0.366857,0.32223 -0.230368,0.0532 -0.317746,0.14901 -0.338348,0.37082 -0.02219,0.23886 -0.09876,0.31541 -0.380554,0.38056 -0.2838,0.0654 -0.358485,0.14303 -0.382006,0.39617 -0.02276,0.2448 -0.09258,0.32046 -0.314957,0.34114 -0.219271,0.0208 -0.311492,0.11164 -0.396438,0.39232 -0.08762,0.2894 -0.160567,0.35417 -0.349461,0.3102 -0.194265,-0.0452 -0.254355,0.0114 -0.322678,0.30202 -0.06566,0.27966 -0.157842,0.37471 -0.422873,0.43594 -0.264925,0.0613 -0.344993,0.14363 -0.366734,0.37737 -0.02219,0.23882 -0.09875,0.31543 -0.380555,0.38052 -0.281791,0.0651 -0.358349,0.14173 -0.380553,0.3806 -0.02219,0.23885 -0.09875,0.31539 -0.380551,0.3805 -0.281796,0.0652 -0.358359,0.14171 -0.380556,0.38058 -0.02224,0.2394 -0.101851,0.31637 -0.399232,0.38615 -0.312519,0.0732 -0.361777,0.12922 -0.310432,0.35236 0.05043,0.2193 -0.0015,0.27968 -0.296615,0.34913 -0.279643,0.0654 -0.374692,0.15781 -0.435944,0.42284 -0.06167,0.26687 -0.145237,0.34519 -0.392962,0.36816 -0.259648,0.0241 -0.319711,0.0842 -0.343844,0.34385 -0.02234,0.24071 -0.105021,0.33213 -0.351648,0.38913 -0.418125,0.0966 -0.704963,0.81585 -0.434302,1.08892 0.104198,0.10508 0.138967,0.24153 0.0773,0.30325 -0.219925,0.21992 -0.572268,-0.1029 -1.147216,-1.05113 -0.458273,-0.7558 -0.630335,-0.95103 -0.80244,-0.91039 -0.172391,0.0409 -0.306725,-0.10959 -0.630353,-0.70526 -0.380664,-0.70066 -0.434894,-0.7536 -0.728744,-0.71136 -0.475989,0.0686 -0.611638,0.28234 -0.377076,0.59456 0.150282,0.20002 0.13475,0.37408 -0.05471,0.6128 -0.310513,0.39122 -0.07021,0.74613 0.341826,0.50491 0.150873,-0.0884 0.31355,-0.12138 0.361485,-0.0734 0.206903,0.2069 0.288095,0.57416 0.156096,0.70614 -0.152959,0.153 0.02735,0.5565 0.873038,1.95392 1.072874,1.77281 1.07568,1.78312 0.597856,2.18667 -0.337968,0.28542 -0.49259,0.31864 -0.747133,0.16055 -0.31273,-0.19421 -0.346379,-0.17276 -1.31097,0.83514 -0.544501,0.56902 -1.028954,1.12195 -1.076546,1.22883 -0.04761,0.10685 -0.233117,0.1943 -0.412314,0.19429 -0.199756,0 -0.397199,0.12201 -0.51042,0.31542 -0.148679,0.25397 -0.206324,0.26673 -0.295921,0.0653 -0.09659,-0.2169 -0.203607,-0.15757 -0.811193,0.45008 -0.547453,0.54744 -0.655103,0.71984 -0.494105,0.79156 0.290117,0.12921 -0.853423,1.27573 -1.452848,1.45695 -0.386918,0.11686 -1.422682,1.12525 -7.1848565,6.99497 -3.7030208,3.77215 -6.8618505,7.03396 -7.0196185,7.24848 -0.3828233,0.5205 -0.3490224,0.81964 0.3171261,2.80686 0.5572775,1.66251 0.5834288,1.70776 1.3931599,2.40937 5.102559,4.42159 8.960718,7.62591 9.19043,7.63294 0.197591,0.01 0.755601,-0.47473 2.079132,-1.79127 1.799864,-1.7903 1.811064,-1.80449 2.165247,-2.82199 0.296196,-0.85038 0.328607,-1.34318 0.192449,-2.92601 -0.09003,-1.0469 -0.08373,-1.94008 0.01404,-1.98492 0.09776,-0.0446 0.797579,-0.20741 1.5551,-0.36135 1.318157,-0.26787 1.383539,-0.29943 1.522217,-0.73516 0.07969,-0.25037 0.131416,-0.60031 0.114932,-0.77766 -0.05945,-0.63952 0.113182,-0.86256 1.134259,-1.46585 0.704477,-0.4162 1.044531,-0.69614 1.161168,-0.95586 0.09073,-0.20201 0.205588,-0.40792 0.25527,-0.45766 0.04967,-0.0497 0.527604,0.27974 1.062048,0.73199 1.854799,1.56971 3.330054,2.54033 6.458274,4.24923 1.491168,0.81461 1.996842,0.99419 2.145625,0.76201 0.02335,-0.0364 0.253247,-0.34963 0.510873,-0.69595 z m 9.329685,-15.12371 c -1.793537,0.79962 -1.873394,0.80864 -2.28615,0.25873 -0.388341,-0.51741 -2.783819,-6.68913 -2.811469,-7.2435 -0.01041,-0.20881 0.09198,-0.57034 0.227587,-0.80327 0.216761,-0.37238 0.201649,-0.46038 -0.125128,-0.72864 -0.45115,-0.37031 -0.705039,-1.1054 -0.621981,-1.8008 0.107115,-0.8968 0.34178,-0.96266 1.008329,-0.28299 0.629073,0.64148 1.177735,0.81437 2.140862,0.67466 0.682055,-0.099 0.638777,-0.2501 -0.142278,-0.49694 -0.723862,-0.22875 -1.207739,-0.7577 -1.359468,-1.48616 -0.082,-0.39371 -0.02368,-0.50068 0.558752,-1.02503 l 0.650307,-0.58545 1.221895,0.3003 c 0.672045,0.16515 1.344453,0.42243 1.494236,0.57163 0.149833,0.14918 0.367816,0.73179 0.484511,1.29462 0.236977,1.14293 1.583422,9.14462 1.630864,9.69192 0.04565,0.52668 -0.489537,0.95593 -2.070877,1.66092 z"
       id="path8003"       
       sodipodi:nodetypes="ccccscsccccccccsccccssccssscccscscccccccscccscsscsccccscccccccccccccccccccccccsscccccccsscccccccsccscssccccccccccssscccccccsccscccccccccc" />
  </g>
</svg>
