<?xml version="1.0" encoding="UTF-8" standalone="no"?>
<!-- Created with Inkscape (http://www.inkscape.org/) -->

<svg
   xmlns:dc="http://purl.org/dc/elements/1.1/"
   xmlns:cc="http://creativecommons.org/ns#"
   xmlns:rdf="http://www.w3.org/1999/02/22-rdf-syntax-ns#"
   xmlns:svg="http://www.w3.org/2000/svg"
   xmlns="http://www.w3.org/2000/svg"
   xmlns:sodipodi="http://sodipodi.sourceforge.net/DTD/sodipodi-0.dtd"
   xmlns:inkscape="http://www.inkscape.org/namespaces/inkscape"
   width="220"
   height="235"
   viewBox="0 0 58.208332 62.177085"
   version="1.1"
   id="svg8"
   inkscape:version="0.92.3 (2405546, 2018-03-11)"
   sodipodi:docname="type-56.svg">
  <defs
     id="defs2" />
  <sodipodi:namedview
     id="base"
     pagecolor="#000000"
     bordercolor="#666666"
     borderopacity="1.0"
     inkscape:pageopacity="0"
     inkscape:pageshadow="2"
     inkscape:zoom="1.4"
     inkscape:cx="123.96521"
     inkscape:cy="50.805212"
     inkscape:document-units="px"
     inkscape:current-layer="layer1"
     showgrid="false"
     units="px"
     inkscape:window-width="1534"
     inkscape:window-height="1188"
     inkscape:window-x="1830"
     inkscape:window-y="140"
     inkscape:window-maximized="0" />
  <metadata
     id="metadata5">
    <rdf:RDF>
      <cc:Work
         rdf:about="">
        <dc:format>image/svg+xml</dc:format>
        <dc:type
           rdf:resource="http://purl.org/dc/dcmitype/StillImage" />
        <dc:title></dc:title>
      </cc:Work>
    </rdf:RDF>
  </metadata>
  <g
     inkscape:label="Layer 1"
     inkscape:groupmode="layer"
     id="layer1"
     transform="translate(0,-234.8229)">
    <path
       style="fill:none;stroke:#ffffff;stroke-width:0.4;stroke-opacity:1;stroke-miterlimit:4;stroke-dasharray:none"
       d="m 43.475881,272.99836 c -2.057678,0.23206 -5.672476,0.17607 -5.830596,-0.0903 -0.03695,-0.0623 -0.108587,-0.0718 -0.159186,-0.0212 -0.0506,0.0506 -0.150651,0.0333 -0.222332,-0.0384 -0.07168,-0.0717 -0.176899,-0.11136 -0.233815,-0.0882 -0.159342,0.0649 -2.564348,-0.56315 -3.789465,-0.98959 -0.602523,-0.20972 -1.790347,-0.72881 -2.639611,-1.15352 -0.812909,-0.19342 -1.765205,-1.45913 -1.383221,-0.27229 0.221265,0.68748 0.01056,1.82798 -0.283407,1.53401 -0.04835,-0.0483 -0.32108,-0.13256 -0.606062,-0.18712 -0.513808,-0.0984 -0.518993,-0.0958 -0.618978,0.31033 -0.07443,0.30229 -0.384134,0.71554 -1.182702,1.57809 -1.059965,1.1449 -1.084558,1.18401 -1.214664,1.93132 -0.07304,0.41951 -0.105905,0.85908 -0.07304,0.97682 0.05428,0.19444 0.718763,1.97217 0.975636,2.61016 0.513824,1.27618 0.649737,1.56804 0.894003,1.91987 0.40254,0.57978 0.463226,0.86234 0.281093,1.30876 -0.311534,0.76359 -2.052735,1.59918 -2.612081,1.25351 -0.08254,-0.051 -0.347191,-0.10355 -0.588101,-0.11676 -0.240907,-0.0132 -0.548447,-0.13445 -0.683419,-0.26942 -0.134972,-0.13498 -0.654147,-1.27515 -1.15372,-2.53371 -0.970371,-2.44465 -1.278997,-2.91137 -1.96655,-2.97393 l -0.396444,-0.0361 -0.614799,1.2727 c -0.338142,0.69998 -0.962845,2.00104 -1.388231,2.89124 -0.425387,0.89021 -0.884314,1.83887 -1.019837,2.10814 -0.135523,0.26928 -0.63308,1.30351 -1.105679,2.2983 -1.219007,2.56592 -1.487023,3.10769 -1.79752,3.63347 -0.150911,0.25555 -0.344492,0.90936 -0.430177,1.45291 -0.137647,0.87314 -0.21209,1.04483 -0.639054,1.4739 -0.26575,0.26714 -0.663431,0.83033 -0.883642,1.25163 -0.581677,1.11286 -1.012389,1.50407 -1.530593,1.39022 -0.228168,-0.0501 -0.510982,-0.0792 -0.6284765,-0.0646 -0.135738,0.0169 -0.747882,-0.41078 -1.679022,-1.17295 -1.208741,-0.9894 -2.792494,-2.19629 -4.609859,-3.51293 -0.156262,-0.11321 -0.275,-0.3039 -0.263862,-0.42375 0.01114,-0.11985 0.616128,-0.98104 1.34442,-1.91374 0.728293,-0.93271 1.809611,-2.3463 2.402927,-3.14131 1.407255,-1.88564 1.803167,-2.26801 2.830009,-2.73325 1.6737465,-0.75832 2.3821245,-1.55784 3.9801405,-4.49224 0.428164,-0.78623 1.081205,-1.81516 1.451205,-2.28652 0.654386,-0.83365 0.856474,-1.38576 0.600814,-1.64142 -0.122045,-0.12204 -0.142764,-1.09128 -0.04232,-1.97983 l 0.06917,-0.61189 6.169284,-6.11664 c 3.929039,-3.89553 6.156863,-6.16925 6.135077,-6.26151 -0.0188,-0.0797 -0.146996,-0.13437 -0.284867,-0.12155 -0.283081,0.0263 -0.645359,-0.27296 -0.502895,-0.41542 0.05129,-0.0513 0.222692,-0.12317 0.380904,-0.15974 0.227597,-0.0526 0.31071,-0.14263 0.398056,-0.43116 0.08482,-0.28016 0.160713,-0.36466 0.327508,-0.36464 0.257322,0 1.117204,-0.83849 1.516529,-1.47877 0.176765,-0.28345 0.348165,-0.4532 0.457483,-0.45331 0.09623,0 0.371329,-0.19637 0.611338,-0.43638 0.338723,-0.33873 0.509744,-0.42345 0.764212,-0.37863 0.251906,0.0444 0.36106,-0.009 0.471305,-0.22912 0.166982,-0.33389 3.31002,-3.4161 5.119068,-5.02 0.931861,-0.82619 1.32392,-1.10774 1.558848,-1.11945 0.262744,-0.0131 0.687088,-0.36849 2.605251,-2.18185 l 2.291381,-2.16619 0.73296,0.11162 c 1.050488,0.15996 1.468649,0.11049 2.179491,-0.25787 0.824103,-0.42705 2.099055,-1.68537 2.066155,-2.03924 -0.01746,-0.18787 0.17483,-0.45082 0.751108,-1.0271 l 0.774578,-0.77458 -0.336378,-0.90561 c -0.210246,-0.56605 -0.539402,-1.15104 -0.87784,-1.56015 l -0.541465,-0.65452 0.502866,-0.50913 c 0.54426,-0.55121 0.698952,-0.5819 1.071398,-0.21377 0.133682,0.13222 0.356777,0.22976 0.495668,0.21685 0.331781,-0.0308 2.005251,1.60145 1.886126,1.83971 -0.0421,0.0842 0.12321,0.008 0.367332,-0.16842 0.418204,-0.3029 0.468733,-0.30379 0.874273,-0.0155 0.236731,0.1683 0.468177,0.26824 0.51433,0.22209 0.192881,-0.19289 0.51157,0.37906 0.483412,0.86758 -0.02958,0.51316 0.01782,0.63992 0.338215,0.9046 0.221264,0.18279 0.161168,0.603 -0.127527,0.89169 -0.16724,0.16724 -0.489945,0.23136 -1.062001,0.21101 -0.786356,-0.028 -0.843731,-0.007 -1.331727,0.48073 -0.569105,0.5691 -0.580038,0.82084 -0.05831,1.34257 0.673372,0.67337 0.25882,1.53628 -1.474904,3.07008 -0.892897,0.78992 -1.027444,0.9532 -1.167479,1.41672 -0.171165,0.56656 -0.388027,0.73723 -1.065859,0.83882 -0.407805,0.0611 -0.614913,0.25644 -6.23121,5.87703 -3.195337,3.19742 -6.110852,6.17288 -6.479295,6.61176 -0.553971,0.65985 -0.77525,0.8434 -1.278574,1.06063 -0.465971,0.2011 -0.845928,0.49994 -1.620663,1.27467 -1.148493,1.1485 -1.416878,1.54847 -1.252243,1.86621 0.06328,0.12213 0.487092,0.47458 0.941793,0.78323 2.131122,1.44659 6.028516,2.1302 9.124474,1.60043 0.612755,-0.10484 0.951015,-0.0901 1.091487,0.0477 0.111939,0.10979 0.270538,0.18377 0.352408,0.16444 0.459149,-0.10839 0.79445,0.75249 1.263637,3.24434 0.326174,1.73233 0.225576,1.87235 -1.483806,2.06513 z m -15.973145,-0.97003 c 0.02705,-0.29109 -0.674543,-1.08194 -1.030634,-1.16175 -0.276175,-0.0619 -1.064933,0.93203 -1.492258,1.8804 -0.349044,0.77466 -0.277628,1.51919 0.164616,1.71615 0.199775,0.089 0.333902,-0.0195 1.278283,-1.0337 0.694376,-0.7457 1.0636,-1.22473 1.079993,-1.4011 z"
       id="path862"
       inkscape:connector-curvature="0"
       sodipodi:nodetypes="ccssccccssccccsccccsscccsssccccccsscscsccsccsccscccccsccccsccccsccscccscscsccscssscccccscccccccccccccc" />
  </g>
</svg>
