<?xml version="1.0" encoding="UTF-8" standalone="no"?>
<!-- Created with Inkscape (http://www.inkscape.org/) -->

<svg
   xmlns:dc="http://purl.org/dc/elements/1.1/"
   xmlns:cc="http://creativecommons.org/ns#"
   xmlns:rdf="http://www.w3.org/1999/02/22-rdf-syntax-ns#"
   xmlns:svg="http://www.w3.org/2000/svg"
   xmlns="http://www.w3.org/2000/svg"
   xmlns:sodipodi="http://sodipodi.sourceforge.net/DTD/sodipodi-0.dtd"   
   width="220"
   height="235"
   viewBox="0 0 58.208332 62.177085"
   version="1.1"
   id="svg8"   
   sodipodi:docname="type 95.svg" >
  <defs
     id="defs2" />
  <sodipodi:namedview
     id="base"
     pagecolor="#000000"
     bordercolor="#666666"
     borderopacity="1.0"
     showgrid="false"
     units="px"
     showguides="false" />
  <metadata
     id="metadata5">
    <rdf:RDF>
      <cc:Work
         rdf:about="">
        <dc:format>image/svg+xml</dc:format>
        <dc:type
           rdf:resource="http://purl.org/dc/dcmitype/StillImage" />
        <dc:title></dc:title>
      </cc:Work>
    </rdf:RDF>
  </metadata>
  <g    
     id="layer1"
     transform="translate(0,-234.8229)">
    <path
       style="fill:none;stroke:#ffffff;stroke-width:0.4;stroke-opacity:1;stroke-miterlimit:4;stroke-dasharray:none"
       d="m 34.004109,288.43443 c -0.233472,0.0412 -2.347477,-0.15181 -3.813889,-0.34811 -1.017141,-0.13612 -2.536818,-0.53471 -4.230355,-1.10954 -2.626637,-0.89163 -6.837421,-3.02162 -7.721918,-3.90611 -0.201647,-0.20163 -0.391327,-0.34195 -0.421511,-0.31173 -0.07141,0.0716 -0.04175,0.49881 0.07528,1.08492 0.133943,0.67075 0.118845,0.72192 -0.283832,0.96155 -0.386033,0.22971 -0.446837,0.2101 -0.52598,-0.16983 -0.02946,-0.14151 -0.189635,-0.4299 -0.355916,-0.64085 -0.263407,-0.3342 -0.343278,-0.38486 -0.620344,-0.39351 l -0.318013,-0.0104 -1.571586,1.57158 c -1.238499,1.2385 -1.625772,1.67044 -1.827227,2.038 -0.561415,1.02428 -0.572371,1.78173 -0.04909,3.39441 l 0.268679,0.82801 -1.709168,1.70922 -1.7091693,1.70914 -0.4212434,-0.0116 c -0.7050424,-0.0185 -1.4473887,-0.52201 -2.4564785,-1.66757 -0.1976665,-0.22438 -0.4015243,-0.39804 -0.4530297,-0.38588 -0.052801,0.0126 -0.1165349,-0.0531 -0.1461416,-0.14995 -0.028873,-0.0945 -0.2389771,-0.34457 -0.466883,-0.55532 -0.2279087,-0.2108 -0.4415038,-0.46463 -0.4746624,-0.5641 -0.038967,-0.11692 -0.11978,-0.18639 -0.228589,-0.19649 -0.1137059,-0.0113 -0.1848084,-0.074 -0.2191875,-0.19585 -0.033586,-0.11894 -0.1279045,-0.20901 -0.277395,-0.2649 -0.1618456,-0.0605 -0.2265144,-0.1263 -0.2265208,-0.23036 1.7e-6,-0.1042 -0.064608,-0.16978 -0.2271606,-0.23056 -0.1665371,-0.0622 -0.2314937,-0.1317 -0.2434319,-0.26022 -0.010485,-0.1129 -0.054561,-0.16613 -0.123915,-0.14977 -0.062997,0.0145 -0.2856007,-0.17761 -0.5367425,-0.4641 -0.2486116,-0.28358 -0.4739497,-0.47894 -0.5356923,-0.46435 -0.065373,0.0151 -0.1287266,-0.0813 -0.1638524,-0.24978 -0.043124,-0.20705 -0.094996,-0.27498 -0.2099713,-0.27498 -0.083971,0 -0.3368094,-0.18415 -0.5618346,-0.40915 L 0.80819795,287.7072 1.2144863,287.21614 c 0.223452,-0.27007 1.1619608,-1.24713 2.0855629,-2.17125 l 1.6792453,-1.68025 0.4272504,-0.087 c 0.269018,-0.0547 0.6051073,-0.22222 0.9075148,-0.45223 0.2641465,-0.20089 2.8181663,-2.74354 5.6755903,-5.65032 l 5.195332,-5.28493 -0.02465,-0.32706 c -0.01467,-0.19461 -0.206651,-0.62843 -0.474415,-1.07197 -0.247372,-0.40973 -0.490009,-0.87621 -0.53919,-1.03666 -0.04918,-0.16041 -0.327548,-0.72508 -0.618582,-1.25479 -0.605164,-1.10142 -0.699186,-1.42319 -0.50876,-1.74124 0.133786,-0.22342 1.644676,-1.57817 4.083154,-3.6611 0.690063,-0.58946 2.093561,-1.81808 3.118886,-2.73031 1.025323,-0.91222 2.312398,-2.04793 2.860167,-2.52375 0.547773,-0.47585 1.357035,-1.19205 1.798366,-1.59155 0.947067,-0.85726 1.399008,-1.14552 1.771554,-1.12992 0.150173,0.009 0.953193,0.19868 1.784491,0.42757 0.831302,0.22885 1.820297,0.48115 2.197774,0.56065 l 0.686319,0.1445 3.246146,-3.24614 c 3.576862,-3.57686 3.513439,-3.49776 3.335375,-4.16139 -0.05086,-0.18943 -0.21504,-0.67049 -0.364898,-1.06899 -0.149858,-0.39852 -0.434434,-1.1751 -0.632393,-1.72571 -0.355055,-0.98762 -0.36891,-1.01016 -1.023025,-1.66428 -0.795842,-0.79582 -0.795935,-0.81108 -0.0092,-1.55503 0.505805,-0.47828 0.548358,-0.50065 0.714327,-0.37589 0.340769,0.33576 0.126122,0.14242 0.285356,0.26954 l 0.873386,0.88804 c 0.692596,0.7042 0.897281,0.96045 0.988825,1.23788 0.170281,0.51602 0.606561,1.36874 0.902471,1.76386 0.200331,0.2675 0.303331,0.34233 0.452167,0.3285 0.213472,-0.0201 0.581848,0.29571 0.542043,0.46428 -0.05985,0.25353 0.170688,0.29465 0.394888,0.0706 0.125792,-0.12577 0.277111,-0.21731 0.336261,-0.20331 0.05915,0.0137 0.210473,-0.0777 0.336265,-0.20335 0.184405,-0.18441 0.254472,-0.20297 0.361652,-0.0957 0.08864,0.0887 0.08864,0.17726 0,0.26588 -0.08673,0.0868 -0.08863,0.17727 -0.0049,0.26044 0.07012,0.0701 0.156657,0.19298 0.192296,0.27299 0.0469,0.10526 0.104856,0.10541 0.209712,7e-4 0.222369,-0.22236 0.373398,0.0815 0.168694,0.33943 -0.234902,0.29595 -0.01036,0.35805 0.311517,0.086 0.202244,-0.17083 0.326326,-0.20492 0.50404,-0.13844 0.229298,0.0857 0.256028,0.068 0.976178,-0.65227 0.490411,-0.49043 0.740423,-0.79472 0.740423,-0.90119 0,-0.12571 0.05442,-0.15114 0.249697,-0.11678 0.248124,0.0435 0.262283,0.0316 2.237642,-1.94393 1.919914,-1.91992 1.985826,-1.99494 1.926149,-2.19202 -0.05976,-0.19746 0.0054,-0.27212 2.031708,-2.29759 1.931295,-1.93128 2.106215,-2.08816 2.257579,-2.02494 0.228047,0.0952 1.249747,1.12958 1.249668,1.26507 -3e-5,0.0611 -0.943562,1.05431 -2.096737,2.2075 l -2.096676,2.0967 -0.248836,-0.0503 c -0.248667,-0.0501 -0.250184,-0.0491 -2.203187,1.9041 l -1.95435,1.95435 0.102992,0.22936 c 0.06307,0.1404 0.05081,0.28152 -0.03159,0.36392 -0.105223,0.10524 -0.09107,0.17807 0.06484,0.33399 0.16659,0.1666 0.172955,0.22586 0.03868,0.36015 -0.0884,0.0884 -0.188821,0.22376 -0.223142,0.30089 -0.04967,0.11151 -0.132136,0.0788 -0.404248,-0.16077 l -0.341851,-0.30086 -0.557275,0.51899 c -0.435172,0.40528 -0.553451,0.55998 -0.539883,0.70608 0.02338,0.25164 -0.06741,0.32486 -0.37566,0.30298 -0.453267,-0.0323 -0.495229,0.21331 -0.119096,0.69681 0.407202,0.52348 0.493037,0.78 0.3387,1.01239 -0.06484,0.0975 -0.453437,0.54713 -0.863611,0.99901 -0.682597,0.75198 -0.781736,0.83301 -1.170347,0.95662 -0.693854,0.2207 -0.739349,0.24333 -0.841924,0.41855 -0.05407,0.0924 -0.149921,0.15569 -0.213003,0.14081 -0.0797,-0.019 -0.132064,0.0402 -0.171532,0.19318 -0.04443,0.17226 -0.08078,0.20906 -0.166822,0.16883 -0.08625,-0.0402 -0.120671,-0.008 -0.159512,0.15951 -0.04022,0.17127 -0.08135,0.20525 -0.218743,0.18072 -0.127259,-0.0228 -0.156965,-0.002 -0.11982,0.0867 0.02716,0.064 0.0095,0.15664 -0.03925,0.20537 -0.04875,0.0487 -0.138593,0.0638 -0.199673,0.0335 -0.08555,-0.0426 -0.115677,-0.009 -0.131208,0.1559 -0.01744,0.18267 -0.04076,0.20612 -0.173705,0.17472 -0.122258,-0.0289 -0.153506,-0.004 -0.1535,0.12881 2e-5,0.22225 -0.08478,0.29296 -0.206037,0.17169 -0.05484,-0.0547 -0.126413,-0.073 -0.159061,-0.0404 -0.03262,0.033 -0.0317,0.12144 0.0029,0.19731 0.07445,0.16721 -0.08793,0.3519 -0.242117,0.27534 -0.08555,-0.0426 -0.115673,-0.009 -0.131203,0.15589 -0.01744,0.18267 -0.04078,0.20613 -0.17371,0.17471 -0.122255,-0.0288 -0.153507,-0.003 -0.153498,0.12882 -2e-6,0.23181 -0.155535,0.36316 -0.230564,0.1947 -0.0443,-0.0995 -0.08066,-0.0968 -0.127913,0.01 -0.03628,0.0815 -0.03928,0.17494 -0.0059,0.20763 0.03266,0.0327 0.01451,0.10417 -0.04035,0.159 -0.05484,0.0547 -0.149206,0.0503 -0.209706,-0.0111 -0.102362,-0.10234 -0.110811,-0.0939 -0.121555,0.12157 -0.0146,0.29288 -0.07164,0.34992 -0.210785,0.21078 -0.102363,-0.10237 -0.110807,-0.0938 -0.121556,0.12154 -0.0143,0.28709 -0.07144,0.35009 -0.200486,0.22109 -0.132229,-0.13225 -0.190899,-0.0613 -0.157592,0.1908 0.02333,0.17639 0.0049,0.20076 -0.133554,0.17211 -0.138385,-0.0289 -0.162458,7.1e-4 -0.173118,0.21505 -0.0065,0.14107 -0.05698,0.23786 -0.11564,0.22401 -0.05872,-0.0138 -0.190459,0.23972 -0.305487,0.58806 -0.207563,0.62862 -0.188654,1.79637 0.03729,2.30298 0.298382,0.66901 1.431242,2.73933 1.58071,2.88882 0.09439,0.0942 0.352552,0.22035 0.573719,0.27996 0.339002,0.0913 0.416615,0.1471 0.494568,0.35557 0.155576,0.416 0.0253,0.73676 -0.578384,1.4241 -0.48789,0.55549 -0.612249,0.65402 -0.98887,0.78381 -0.236944,0.0817 -0.566453,0.11063 -0.732253,0.0647 -0.329509,-0.0917 -0.933968,0.10014 -3.941612,1.25169 -2.485563,0.95161 -2.534959,1.04028 -1.43828,2.58155 0.303965,0.42717 0.898446,1.26836 1.321075,1.86939 1.214311,1.72676 1.226618,1.7405 1.822587,2.03257 0.494003,0.24209 0.533264,0.27717 0.509014,0.45477 -0.03502,0.25656 -0.539683,0.74859 -1.431172,1.39546 -1.494219,1.08419 -1.903146,1.28731 -2.131554,1.05894 -0.04671,-0.0466 -0.163732,-0.0439 -0.26005,0.008 -0.09634,0.0498 -0.211985,0.0538 -0.25703,0.01 -0.121882,-0.12187 -2.132791,-3.67309 -2.62575,-4.63697 -0.23503,-0.45957 -0.506263,-0.96602 -0.60274,-1.12543 -0.222147,-0.3671 -0.686943,-0.64142 -1.155066,-0.68176 -0.657056,-0.0564 -0.859617,0.11456 -3.661286,3.09274 -1.389088,1.4766 -2.581802,2.77081 -2.650469,2.87601 -0.120679,0.1849 -0.107709,0.20618 0.387935,0.63552 1.160509,1.00525 4.182842,2.42596 6.52886,3.06895 1.841357,0.50471 4.319933,0.88684 4.370236,0.67377 0.01292,-0.0546 0.101941,-0.14018 0.197842,-0.18987 0.128828,-0.0668 0.227848,-0.0335 0.379277,0.12783 0.179232,0.19079 0.197483,0.52996 0.145521,2.70452 -0.04795,2.00662 -0.167206,3.9218 -0.249319,4.0039 -0.0074,0.01 -0.12563,0.0335 -0.262015,0.0577 z m 3.694251,-23.24836 c -0.04304,-0.36034 -0.548569,-1.33407 -0.970491,-1.86934 -0.350438,-0.44465 -0.710072,-0.61088 -1.171669,-0.54172 -0.474084,0.0711 -0.678368,0.23272 -1.474913,1.16683 -0.674306,0.79085 -0.69828,0.8337 -0.677103,1.21018 0.0264,0.46939 0.30763,1.02395 0.611583,1.20593 0.121847,0.0729 0.484741,0.12888 0.806429,0.12435 0.654536,-0.01 0.718783,0.0142 0.535365,0.19781 -0.362061,0.36204 -1.643469,0.0926 -2.355991,-0.49527 l -0.440776,-0.36374 -0.438249,0.47575 c -0.241046,0.26165 -0.464178,0.56133 -0.495854,0.66593 -0.08804,0.29077 0.07937,0.68588 0.521602,1.23134 0.38697,0.47726 0.415363,0.49533 0.777414,0.495 0.290389,-2.6e-4 0.552465,-0.11075 1.153393,-0.48635 1.284019,-0.80245 2.791683,-1.87462 3.237451,-2.30227 0.376964,-0.36164 0.415364,-0.43349 0.381811,-0.71442 z m -8.563358,-4.51029 c 0.09868,-0.21974 0.07667,-0.26431 -0.332384,-0.67337 -0.454927,-0.45494 -0.569655,-0.68035 -0.592214,-1.16372 -0.01183,-0.25326 0.05054,-0.34969 0.547807,-0.84692 0.631466,-0.63149 0.538096,-0.64748 0.978062,0.16754 0.180269,0.33392 0.225846,0.36491 0.75163,0.51127 0.307851,0.0856 0.623732,0.1129 0.701963,0.0604 0.07822,-0.0526 0.339646,-0.33352 0.58094,-0.62473 0.385639,-0.46534 0.431607,-0.56527 0.379978,-0.82573 -0.118808,-0.59937 -0.463749,-0.80228 -1.96181,-1.1542 -0.969002,-0.22758 -1.487569,-0.29619 -1.757466,-0.23247 l -0.382866,0.0904 -4.82276,4.81873 c -5.250886,5.24635 -5.16852,5.15191 -4.98604,5.72525 0.131148,0.41202 1.894848,2.1703 2.237584,2.23067 0.220065,0.039 0.234669,0.0564 0.155914,0.18915 -0.04781,0.0806 0.0044,0.0573 0.113927,-0.0516 0.110426,-0.10893 0.379922,-0.318 0.598826,-0.46467 0.53205,-0.3565 7.648156,-7.44252 7.788934,-7.75599 z"
       id="path8183"
       sodipodi:nodetypes="ccsssscccscscccccssccccsccccccccccscccccccccccsccsscccccsccssccccscccscsssscscccsscscsccsccsccsssccccccsccccccccccsccccsscccccccssscscscccccsscccccscscccscscccscssccccsccccccscssscccsscccccscscccccccccccccccc" />
  </g>
</svg>
