<?xml version="1.0" encoding="UTF-8" standalone="no"?>
<!-- Created with Inkscape (http://www.inkscape.org/) -->

<svg
   xmlns:dc="http://purl.org/dc/elements/1.1/"
   xmlns:cc="http://creativecommons.org/ns#"
   xmlns:rdf="http://www.w3.org/1999/02/22-rdf-syntax-ns#"
   xmlns:svg="http://www.w3.org/2000/svg"
   xmlns="http://www.w3.org/2000/svg"
   xmlns:sodipodi="http://sodipodi.sourceforge.net/DTD/sodipodi-0.dtd"   
   width="220"
   height="235"
   viewBox="0 0 58.208332 62.177085"
   version="1.1"
   id="svg8"   
   sodipodi:docname="type-64.svg" >
  <defs
     id="defs2" />
  <sodipodi:namedview
     id="base"
     pagecolor="#000000"
     bordercolor="#666666"
     borderopacity="1.0"
     showgrid="false"
     units="px"
     showguides="false" />
  <metadata
     id="metadata5">
    <rdf:RDF>
      <cc:Work
         rdf:about="">
        <dc:format>image/svg+xml</dc:format>
        <dc:type
           rdf:resource="http://purl.org/dc/dcmitype/StillImage" />
        <dc:title></dc:title>
      </cc:Work>
    </rdf:RDF>
  </metadata>
  <g
     id="layer1"
     transform="translate(0,-234.8229)">
    <path
       style="fill:none;stroke:#ffffff;stroke-width:0.4;stroke-opacity:1;stroke-miterlimit:4;stroke-dasharray:none"
       d="m 33.369872,278.11225 c -0.369931,0.28948 -0.50188,0.3177 -0.607095,0.13002 -0.07395,-0.1319 -1.282816,-1.43778 -2.686399,-2.90192 -1.403575,-1.46412 -2.489424,-2.54989 -2.412997,-2.41276 0.237973,0.42694 -0.03245,0.45911 -0.503695,0.0599 l -0.450442,-0.38156 -0.517006,0.51701 c -0.504458,0.50446 -0.509162,0.52804 -0.194071,0.9706 0.596997,0.8386 0.592621,0.84902 -1.054331,2.50219 -1.029109,1.03332 -1.496151,1.58662 -1.496153,1.77353 0,0.14941 -0.140456,0.41209 -0.312126,0.58383 -0.312524,0.3125 -0.511721,0.82224 -0.534631,1.36806 -0.0141,0.33646 1.224486,3.21948 1.682269,3.9157 0.219796,0.33433 0.252141,0.54678 0.11184,0.73484 -0.281722,0.37764 -3.10822,1.60627 -3.454252,1.50149 -0.220647,-0.0669 -0.447,-0.71651 -0.951678,-2.73162 -0.721234,-2.87972 -1.067674,-3.49577 -2.037803,-3.62355 -0.257157,-0.0339 -0.581174,-0.11456 -0.720035,-0.17926 -0.221632,-0.10332 -0.414033,0.0543 -1.575012,1.29165 -2.482918,2.64585 -3.278457,3.78727 -4.1024,5.886 -0.450328,1.14703 -1.035063,3.73683 -1.105394,4.89573 -0.0262,0.43174 -0.100368,0.83772 -0.164811,0.90219 -0.06444,0.0643 -0.01885,0.14367 0.10131,0.17603 0.12016,0.0325 0.139405,0.0627 0.04275,0.0674 -0.09664,0.008 -0.215111,0.19767 -0.263269,0.42881 -0.116094,0.55738 -1.2649853,2.17157 -1.6556983,2.32627 -0.168183,0.0666 -0.337779,0.17141 -0.376876,0.23289 -0.0391,0.0615 -0.08649,0.0501 -0.105304,-0.0259 -0.06729,-0.27072 -2.1924553,-1.92909 -2.4071606,-1.8784 -0.1638785,0.0388 -0.6990343,-0.46529 -2.1829262,-2.05567 -1.0812075,-1.15878 -2.0734045,-2.24898 -2.2048873,-2.42253 -0.1314825,-0.1736 -0.33991017,-0.43211 -0.46317117,-0.57447 -0.1232596,-0.14236 -0.1556943,-0.36516 -0.072081,-0.49509 0.2083402,-0.32372 1.05779987,-0.80759 1.46004977,-0.83163 0.2736275,-0.0163 1.2488497,-0.9381 5.6653155,-5.35457 5.0882983,-5.08827 5.3484353,-5.36898 5.6305273,-6.07426 0.222581,-0.55654 0.542235,-0.98597 1.292144,-1.73594 0.97092,-0.97086 0.99505,-1.01203 0.943629,-1.60923 -0.03093,-0.35942 0.05458,-0.72016 0.206827,-0.87245 0.221087,-0.22106 0.204543,-0.3115 -0.111513,-0.60954 -0.204113,-0.19251 -0.506724,-0.52221 -0.672471,-0.73261 -0.279194,-0.35451 -0.271409,-0.40243 0.105821,-0.65154 0.444609,-0.29362 0.960822,-0.0753 1.449091,0.61261 l 0.253268,0.35694 0.877404,-0.86989 c 0.691154,-0.68528 0.97449,-0.87873 1.335163,-0.9113 0.251818,-0.0228 0.51168,0.0125 0.577487,0.0782 0.140293,0.14022 -0.107472,0.36042 3.480446,-3.09307 l 2.840732,-2.73432 -0.30541,-0.44643 c -0.16797,-0.24557 -0.330705,-0.60947 -0.361638,-0.80869 -0.04805,-0.30956 -0.008,-0.3667 0.274168,-0.39294 0.244647,-0.0229 0.41138,0.0877 0.642381,0.42538 l 0.31198,0.45604 0.596692,-0.70792 c 0.328167,-0.38944 4.071756,-4.19419 8.319059,-8.45504 7.494411,-7.51839 7.719442,-7.75679 7.62339,-8.07401 -0.137576,-0.45446 0.13508,-0.90886 0.60975,-1.01626 0.219033,-0.0496 0.573606,-0.24411 0.787938,-0.43234 l 0.389712,-0.34228 -0.502112,-0.33425 c -1.130482,-0.75258 -1.410285,-1.37683 -0.749134,-1.6713 0.242494,-0.10797 0.376657,-0.003 1.251075,0.98921 l 0.979449,1.11016 0.334784,-0.26553 c 0.277435,-0.22008 0.402475,-0.20972 0.730089,0.0604 0.335366,0.27638 0.441898,0.28201 0.702548,0.0371 0.168999,-0.15887 1.56932,-1.52286 3.111815,-3.03117 1.542537,-1.5082 3.396243,-3.32027 4.119327,-4.0267 1.176148,-1.14919 1.349445,-1.27401 1.644187,-1.18476 0.215946,0.0654 0.389056,0.23243 0.502416,0.48476 0.172085,0.38321 0.164949,0.39361 -1.467962,2.13759 -0.902479,0.96385 -1.877214,1.99037 -2.166045,2.28118 -0.516927,0.52026 -0.519607,0.53471 -0.17391,0.90557 0.691937,0.74237 0.688724,0.70498 0.110067,1.28368 l -0.544116,0.54407 -0.544514,-0.45166 c -0.299472,-0.24842 -0.594983,-0.4517 -0.656677,-0.4517 -0.178467,0 -2.704426,2.4162 -2.943641,2.81574 -0.180714,0.30182 -0.158808,0.40085 0.13238,0.5986 0.435098,0.29546 0.575297,0.59337 0.373972,0.79469 -0.08499,0.085 -0.07965,0.22944 0.01187,0.32096 0.171936,0.17191 -0.112816,0.57314 -0.406789,0.57318 -0.241635,3e-5 -2.664077,2.57758 -4.470039,4.75624 -0.857277,1.03419 -1.809178,2.17902 -2.115329,2.54402 -1.454601,1.73429 -3.113844,3.70328 -5.606015,6.65255 l -2.718284,3.21688 0.295046,0.295 c 0.300337,0.30038 0.363564,0.83996 0.09842,0.83996 -0.08033,-2e-5 -0.23395,-0.088 -0.341452,-0.19546 -0.107503,-0.10749 -0.351359,-0.19543 -0.541894,-0.19543 -0.190543,0 -0.454342,-0.0928 -0.586223,-0.20623 -0.210177,-0.18073 -0.318254,-0.12769 -0.875251,0.42929 -0.349506,0.3495 -0.709095,0.61809 -0.799085,0.59684 -0.09576,-0.0224 -0.249394,0.15121 -0.370508,0.41916 l -0.206893,0.45774 1.110103,1.11547 c 1.175944,1.18165 5.635978,5.87991 5.641918,5.9433 0.009,0.0965 -3.49567,3.731 -3.911892,4.05668 z m -7.446161,-3.24106 c -0.01839,-0.17091 -0.217472,-0.49478 -0.442401,-0.71973 -0.224928,-0.22495 -0.520549,-0.39576 -0.656941,-0.37965 -0.13638,0.0158 -0.620066,0.38111 -1.074844,0.81097 -0.797308,0.7536 -0.820384,0.79596 -0.645857,1.18464 0.197087,0.43887 0.738982,0.70351 0.969167,0.47332 0.09552,-0.0954 0.129225,-0.0592 0.129223,0.13955 0,0.39923 -0.832311,0.35228 -1.332814,-0.0752 -0.22147,-0.18912 -0.421549,-0.30008 -0.444616,-0.2465 -0.02305,0.0536 -0.112788,0.16824 -0.19935,0.25479 -0.119822,0.11984 -0.0011,0.30522 0.499215,0.77656 l 0.656613,0.61915 1.073627,-1.0169 c 0.590502,-0.55929 1.116121,-1.01694 1.168037,-1.01695 0.158552,1e-5 0.336306,-0.47496 0.300909,-0.804 z"
       id="path8170" />
  </g>
</svg>
