<?xml version="1.0" encoding="UTF-8" standalone="no"?>
<!-- Created with Inkscape (http://www.inkscape.org/) -->

<svg
   xmlns:dc="http://purl.org/dc/elements/1.1/"
   xmlns:cc="http://creativecommons.org/ns#"
   xmlns:rdf="http://www.w3.org/1999/02/22-rdf-syntax-ns#"
   xmlns:svg="http://www.w3.org/2000/svg"
   xmlns="http://www.w3.org/2000/svg"
   xmlns:sodipodi="http://sodipodi.sourceforge.net/DTD/sodipodi-0.dtd"
   xmlns:inkscape="http://www.inkscape.org/namespaces/inkscape"
   width="220"
   height="235"
   viewBox="0 0 58.208332 62.177085"
   version="1.1"
   id="svg8"
   inkscape:version="0.92.3 (2405546, 2018-03-11)"
   sodipodi:docname="type-97.svg">
  <defs
     id="defs2" />
  <sodipodi:namedview
     id="base"
     pagecolor="#000000"
     bordercolor="#666666"
     borderopacity="1.0"
     inkscape:pageopacity="0"
     inkscape:pageshadow="2"
     inkscape:zoom="1.979899"
     inkscape:cx="245.69637"
     inkscape:cy="31.526029"
     inkscape:document-units="px"
     inkscape:current-layer="layer1"
     showgrid="false"
     units="px"
     inkscape:window-width="1534"
     inkscape:window-height="1188"
     inkscape:window-x="1830"
     inkscape:window-y="140"
     inkscape:window-maximized="0" />
  <metadata
     id="metadata5">
    <rdf:RDF>
      <cc:Work
         rdf:about="">
        <dc:format>image/svg+xml</dc:format>
        <dc:type
           rdf:resource="http://purl.org/dc/dcmitype/StillImage" />
        <dc:title></dc:title>
      </cc:Work>
    </rdf:RDF>
  </metadata>
  <g
     inkscape:label="Layer 1"
     inkscape:groupmode="layer"
     id="layer1"
     transform="translate(0,-234.8229)">
    <path
       style="fill:none;stroke:#ffffff;stroke-width:0.4;stroke-miterlimit:4;stroke-dasharray:none;stroke-opacity:1"
       d="m 28.411844,290.17783 c -0.581623,-0.0541 -5.416344,-3.33676 -7.223192,-4.90434 -0.989272,-0.85827 -1.920496,-1.56049 -2.069387,-1.56049 -0.148892,0 -0.362255,-0.0915 -0.474141,-0.20344 -0.354412,-0.35441 -2.038046,-0.49718 -2.874361,-0.24373 -0.699228,0.21191 -1.000988,0.43959 -2.286993,1.72559 -1.750316,1.75032 -1.883183,2.1203 -1.337014,3.72295 0.188345,0.55267 0.313334,1.13451 0.27775,1.29299 -0.07325,0.32622 -2.9970801,3.31268 -3.4334766,3.50705 -0.690633,0.30758 -1.2174854,-0.0845 -4.5638159,-3.39697 -1.8600893,-1.84123 -3.2184734,-3.28643 -3.2184762,-3.42416 -2e-6,-0.13108 0.7700702,-1.07719 1.7112681,-2.10249 1.5749869,-1.71573 1.7835311,-1.89298 2.6187355,-2.22574 0.8791936,-0.35029 1.0681636,-0.52225 6.0636781,-5.51775 3.121493,-3.1215 5.198791,-5.29686 5.264124,-5.51265 0.06401,-0.21138 -0.09925,-0.69366 -0.401175,-1.18513 -0.280007,-0.45579 -0.54956,-0.95957 -0.599016,-1.1195 -0.04946,-0.15995 -0.356149,-0.80364 -0.681539,-1.43046 -0.3966,-0.76399 -0.540373,-1.25108 -0.436156,-1.47767 0.08551,-0.1859 1.090435,-1.13274 2.23315,-2.10411 1.14273,-0.97137 3.85995,-3.35961 6.038264,-5.30722 2.178318,-1.94759 4.219917,-3.6959 4.536892,-3.88512 0.521826,-0.31149 0.793375,-0.28727 2.871809,0.25623 1.262517,0.33013 2.402114,0.55276 2.532437,0.49471 0.130345,-0.058 1.616853,-1.47401 3.303405,-3.14659 2.921703,-2.89753 3.066411,-3.06546 3.066457,-3.55683 4e-6,-0.28366 -0.08999,-0.60574 -0.199976,-0.71573 -0.109991,-0.10999 -0.329321,-0.92779 -0.487409,-1.81732 -0.246349,-1.38618 -0.371942,-1.70222 -0.878718,-2.21122 l -0.591288,-0.59387 0.564142,-0.64147 0.56414,-0.64145 1.145481,1.14547 c 0.94594,0.94594 1.215184,1.32573 1.545607,2.18014 0.220069,0.56906 0.588354,1.22288 0.818419,1.45294 0.361558,0.36156 0.481252,0.37801 0.882497,0.12128 0.397916,-0.2546 0.497063,-0.24213 0.694304,0.0873 0.145712,0.24337 0.284825,0.32959 0.379317,0.2351 0.08669,-0.0867 0.215456,-0.0214 0.307283,0.15584 0.1102,0.21268 0.304506,0.26073 0.641595,0.15868 0.477773,-0.14467 3.335514,-2.93615 9.081978,-8.87138 1.077681,-1.11308 2.041265,-2.0238 2.141344,-2.02378 0.282613,0 1.050478,0.73289 1.172216,1.1188 0.100777,0.31948 -0.05821,0.50246 -2.020794,2.32567 -2.748963,2.55375 -7.655812,7.3608 -8.759769,8.58163 l -0.859899,0.95093 0.418184,0.57738 0.418183,0.57738 -1.057698,1.0577 c -0.70305,0.70304 -1.256695,1.12423 -1.651188,1.25612 -0.504849,0.1688 -1.136644,0.7532 -4.230073,3.91282 -4.333336,4.42599 -4.244406,4.25591 -3.165277,6.05769 0.898362,1.49994 0.847875,1.79679 -0.539657,3.17292 -0.605396,0.6006 -1.519222,1.34889 -2.030527,1.66306 -0.95745,0.58832 -1.239464,1.00073 -1.020503,1.49238 0.06157,0.13822 0.8229,1.20428 1.691856,2.369 1.153927,1.54668 1.683004,2.14888 1.962251,2.23343 0.893238,0.27045 0.747087,0.64001 -0.667107,1.68693 -2.438123,1.80492 -2.617433,1.80554 -3.71263,0.0125 -0.415297,-0.67992 -1.095389,-1.92386 -1.511318,-2.76429 -0.833489,-1.68418 -1.317682,-2.27461 -1.945248,-2.37204 -0.462395,-0.0718 -0.444197,-0.0877 -3.61821,3.1813 -1.906006,1.96307 -1.961344,2.03808 -2.021573,2.73736 -0.04646,0.53956 0.04426,0.82517 0.363485,1.1444 0.233969,0.23397 0.403585,0.5178 0.376925,0.63074 -0.06238,0.26422 1.988815,2.30814 3.3054,3.29367 0.558842,0.41833 1.874915,1.27233 2.924597,1.8978 l 1.908517,1.13721 -0.09581,0.47653 c -0.07267,0.36143 -2.371502,4.3181 -2.798494,4.81664 -0.04044,0.0472 -0.204091,0.0737 -0.363732,0.0588 z m 7.921094,-25.0973 c 0.22177,-0.49385 0.142067,-0.71924 -0.594475,-1.68108 -0.489362,-0.63905 -0.586889,-0.6952 -1.025163,-0.59015 -0.351656,0.0843 -0.670603,0.34421 -1.164181,0.94874 -0.604046,0.73981 -0.653328,0.87687 -0.442123,1.22945 0.285504,0.4766 0.959376,0.82638 1.460255,0.75796 0.568027,-0.0776 0.427982,0.2648 -0.158256,0.3869 -0.304097,0.0633 -0.888531,-0.0666 -1.397521,-0.31091 l -0.874837,-0.41977 -0.482515,0.63403 c -0.5629,0.73966 -0.624487,1.06908 -0.300906,1.60951 0.281476,0.47012 0.845244,0.67074 1.40694,0.50067 0.90171,-0.27302 3.207055,-2.25095 3.572782,-3.06535 z m -7.797167,-5.1833 c -0.408913,-0.40892 -0.683551,-1.07509 -0.605243,-1.46812 0.02552,-0.12808 0.265866,-0.4541 0.534105,-0.72447 0.461103,-0.46494 0.50102,-0.46936 0.732434,-0.0829 0.134598,0.2248 0.511073,0.53362 0.83662,0.68624 0.545363,0.25571 0.63357,0.23585 1.121937,-0.25252 0.584151,-0.58415 0.636937,-1.05637 0.170245,-1.52307 -0.428569,-0.42856 -2.852781,-1.03345 -3.368636,-0.84053 -0.290371,0.10858 -1.974537,1.6989 -4.945768,4.67013 -5.558749,5.55874 -5.433083,5.32931 -3.808762,6.95364 0.83122,0.83121 1.307247,1.00991 1.828574,0.68642 0.172308,-0.10688 2.018816,-1.8867 4.1034,-3.95508 l 3.790156,-3.76071 z"
       id="path849"
       inkscape:connector-curvature="0" />
  </g>
</svg>
