<?xml version="1.0" encoding="UTF-8" standalone="no"?>
<!-- Created with Inkscape (http://www.inkscape.org/) -->

<svg
   xmlns:dc="http://purl.org/dc/elements/1.1/"
   xmlns:cc="http://creativecommons.org/ns#"
   xmlns:rdf="http://www.w3.org/1999/02/22-rdf-syntax-ns#"
   xmlns:svg="http://www.w3.org/2000/svg"
   xmlns="http://www.w3.org/2000/svg"
   xmlns:sodipodi="http://sodipodi.sourceforge.net/DTD/sodipodi-0.dtd"   
   width="220"
   height="235"
   viewBox="0 0 58.208332 62.177085"
   version="1.1"
   id="svg8"   
   sodipodi:docname="vz58.svg" >
  <defs
     id="defs2" />
  <sodipodi:namedview
     id="base"
     pagecolor="#000000"
     bordercolor="#666666"
     borderopacity="1.0"     
     showgrid="false"
     units="px"
     showguides="false" />
  <metadata
     id="metadata5">
    <rdf:RDF>
      <cc:Work
         rdf:about="">
        <dc:format>image/svg+xml</dc:format>
        <dc:type
           rdf:resource="http://purl.org/dc/dcmitype/StillImage" />
        <dc:title></dc:title>
      </cc:Work>
    </rdf:RDF>
  </metadata>
  <g     
     id="layer1"
     transform="translate(0,-234.8229)">
    <path
       style="fill:none;stroke:#ffffff;stroke-width:0.4;stroke-opacity:1;stroke-miterlimit:4;stroke-dasharray:none"
       d="m 45.261546,270.66326 c -0.07912,-0.51789 -0.499449,-2.54292 -0.813314,-3.91842 -0.102359,-0.44857 -0.179083,-0.61875 -0.291138,-0.64579 -0.0837,-0.0206 -0.459015,0.01 -0.834073,0.0609 -2.076639,0.29743 -4.002541,0.23704 -5.848641,-0.18341 -1.28525,-0.29268 -2.225652,-0.63431 -3.472284,-1.26128 -1.339305,-0.6736 -2.08048,-1.1683 -2.164108,-1.4445 -0.07293,-0.24094 0.139711,-0.50679 0.437954,-0.54759 0.114754,-0.0154 0.386524,-0.21933 0.714485,-0.53524 0.442893,-0.42665 0.556948,-0.58541 0.698661,-0.97252 l 0.169367,-0.46264 3.967098,-4.10602 c 2.181907,-2.25831 4.214487,-4.3776 4.516846,-4.70956 0.619509,-0.68014 0.649074,-0.80771 0.274097,-1.1827 -0.34424,-0.34424 -0.183681,-0.6417 0.758925,-1.40588 0.402346,-0.32622 0.418378,-0.33027 0.791512,-0.20052 0.575226,0.19991 0.765929,0.16648 0.988999,-0.17361 0.166812,-0.25433 0.167705,-0.33051 0.0082,-0.70838 -0.09823,-0.23284 -0.174455,-0.55449 -0.16938,-0.71473 l 0.0092,-0.29134 3.012118,-2.93942 c 1.656678,-1.61665 4.020551,-3.93828 5.253077,-5.15913 2.554837,-2.53064 2.448737,-2.36648 1.892886,-2.92968 -0.444609,-0.45053 -0.591513,-0.4628 -0.973156,-0.0812 -0.177249,0.17723 -0.631127,0.59555 -1.008635,0.92946 l -0.686366,0.60728 -1.050894,-1.05093 c -0.976861,-0.97685 -1.063601,-1.04703 -1.231135,-0.99631 -0.300109,0.0908 -0.594042,0.4484 -0.632361,0.76913 -0.03284,0.27503 -0.01059,0.31618 0.287927,0.53154 0.416045,0.30022 1.160752,1.07797 1.274331,1.33091 0.07743,0.17241 0.03969,0.25398 -0.315883,0.68184 -0.388187,0.46719 -0.497569,0.60227 -1.11344,1.37487 -0.16902,0.21206 -0.257094,0.39644 -0.224402,0.46983 0.0457,0.10261 -0.357509,0.53214 -2.676808,2.85151 l -2.730625,2.73057 -0.764241,0.01 c -0.420332,0.009 -0.88926,-0.0472 -1.042055,-0.11118 -0.275513,-0.11581 -0.281273,-0.11333 -0.695348,0.30075 -0.23789,0.23788 -0.443651,0.39144 -0.478234,0.35687 -0.0366,-0.0364 -0.312255,0.19082 -0.693959,0.57256 -0.579953,0.57993 -0.646714,0.62628 -0.793193,0.55038 -0.106405,-0.0549 -0.215151,-0.0294 -0.324939,0.0778 -0.09072,0.0883 -1.171942,1.14772 -2.402635,2.35415 -1.230691,1.2064 -2.70246,2.64782 -3.270577,3.20316 -0.568118,0.55529 -1.032939,1.04194 -1.032944,1.08141 0,0.0396 -0.07569,0.14743 -0.168136,0.23991 -0.145326,0.1453 -0.197479,0.14396 -0.384434,-0.0106 -0.214709,-0.17698 -0.218778,-0.17582 -0.553871,0.15187 -0.185681,0.18158 -0.346004,0.38757 -0.356312,0.45778 -0.02591,0.17663 -1.481499,1.34295 -1.730757,1.38683 -0.134406,0.0239 -0.214348,0.0876 -0.2477,0.19769 -0.03551,0.11733 -0.08391,0.14715 -0.173698,0.10718 -0.06845,-0.0307 -0.166275,-0.0135 -0.217406,0.0374 -0.142134,0.14217 0.186167,0.41597 0.525306,0.43806 0.160733,0.0109 0.248634,0.0237 0.195343,0.0294 -0.05328,0.01 -0.120625,0.0885 -0.149607,0.18424 -0.03593,0.11863 -0.07303,0.15379 -0.116448,0.11038 -0.03505,-0.0348 -0.204459,-0.0297 -0.376479,0.0129 l -0.312746,0.0762 -0.04652,0.34557 -0.04651,0.34549 -3.057266,3.05725 c -2.151767,2.15176 -3.097009,3.05729 -3.191475,3.05729 -0.09485,0 -1.068736,0.93734 -3.321911,3.19749 -2.691274,2.69958 -3.200792,3.23863 -3.271727,3.46152 -0.0462,0.14514 -0.03244,0.50032 0.03061,0.78908 0.09034,0.41392 0.176543,0.58595 0.406915,0.81221 l 0.292286,0.28713 -0.280306,0.28033 c -0.391666,0.39161 -1.312301,1.73026 -2.001948,2.91081 -0.608689,1.04203 -1.557066,2.33236 -3.034223,4.12836 -0.482125,0.58624 -1.0554052,1.29674 -1.2739636,1.57896 -0.2185568,0.28221 -1.2302441,1.51037 -2.2481937,2.72923 -1.0179478,1.21885 -2.1488273,2.57362 -2.5130699,3.01068 -0.6157965,0.73876 -0.9376364,1.22442 -0.9601784,1.44891 -0.00487,0.0512 0.343698,0.33312 0.775203,0.62645 1.2979107,0.88221 1.7413305,1.24343 2.7146711,2.21116 0.9029676,0.89773 1.6840939,1.85148 2.4600132,3.00358 0.2075723,0.30823 0.4327283,0.58504 0.5003513,0.61516 0.180383,0.0803 0.812317,-0.44417 1.243415,-1.03198 0.541036,-0.73775 0.579221,-0.79748 1.001333,-1.5665 0.471703,-0.85942 0.771847,-1.76701 1.282223,-3.87734 0.214554,-0.88714 0.534916,-2.15104 0.711911,-2.80872 0.177001,-0.65757 0.357817,-1.37814 0.401818,-1.60127 0.044,-0.22302 0.210675,-0.90314 0.370385,-1.51124 0.159711,-0.60817 0.370682,-1.43521 0.468821,-1.83784 0.272072,-1.11617 0.73842,-2.46389 1.118216,-3.23158 0.489855,-0.99009 1.80512,-2.86968 1.97934,-2.82852 0.04555,0.0112 0.260888,-0.18602 0.478563,-0.43725 0.328888,-0.37953 0.411354,-0.44118 0.487997,-0.36455 0.05072,0.0505 0.198493,0.0702 0.328387,0.0432 0.354174,-0.0738 0.86213,0.13677 1.10854,0.45954 0.114124,0.14951 0.254995,0.50631 0.31302,0.79304 0.366701,1.81171 0.670317,2.64038 1.445624,3.94556 0.638854,1.07546 0.512388,1.11128 2.181047,-0.61772 0.876114,-0.90783 1.304918,-1.39845 1.314754,-1.50437 0.0089,-0.0958 -0.151584,-0.35496 -0.411768,-0.66482 -0.997812,-1.18806 -1.753207,-2.72911 -1.864632,-3.80397 -0.04527,-0.43689 0.140907,-1.28116 0.268612,-1.21803 0.03666,0.0182 0.207759,0.0672 0.380246,0.10901 0.481843,0.11688 0.970849,-0.0845 1.642258,-0.67633 1.055504,-0.93033 1.366678,-1.50073 1.222511,-2.24072 -0.07386,-0.37917 -0.565499,-1.02424 -0.972885,-1.27654 -0.271639,-0.16822 -0.316122,-0.32793 -0.05953,-0.21366 0.0693,0.0311 0.181482,0.002 0.249298,-0.0671 0.161744,-0.16174 0.249013,-0.0603 0.388614,0.4519 0.107905,0.39584 0.32087,0.64313 0.371003,0.43079 0.01235,-0.0524 -0.04835,-0.34889 -0.134876,-0.65892 l -0.157345,-0.56364 0.543692,0.38724 c 0.786912,0.56052 2.709425,1.68524 3.70123,2.16534 1.197884,0.57979 3.306125,1.26757 4.825502,1.57419 2.159089,0.4357 4.709217,0.5383 6.789869,0.27317 0.38377,-0.0488 0.729133,-0.0644 0.76747,-0.0345 0.03832,0.0302 0.08678,0.0648 0.107624,0.0772 0.02086,0.0127 0.255593,-0.19492 0.521626,-0.46094 l 0.483683,-0.48371 -0.08449,-0.55279 z m -19.160814,1.22829 c -0.745906,0.60754 -0.994536,0.58233 -1.960318,-0.19889 l -0.55369,-0.44787 0.232794,-0.2328 c 0.198065,-0.19805 0.244111,-0.21093 0.308708,-0.0863 0.04699,0.0906 0.164575,0.14208 0.30882,0.1349 0.128096,-0.01 0.284381,0.04 0.347309,0.10276 0.327064,0.32707 1.503796,0.41367 1.634465,0.12026 0.07042,-0.15809 -0.148265,-0.26239 -0.340913,-0.1626 -0.150777,0.0783 -0.676293,-0.0689 -0.843255,-0.23574 -0.05287,-0.053 -0.186507,-0.25252 -0.296911,-0.44353 l -0.200734,-0.34728 0.476025,-0.47601 c 0.314971,-0.31498 0.57115,-0.50629 0.757184,-0.5655 0.232852,-0.0739 0.299179,-0.13304 0.386146,-0.34302 0.149358,-0.36056 0.37489,-0.35537 0.391865,0.01 0.0219,0.46985 0.112639,0.64506 0.410669,0.79294 0.149439,0.074 0.332538,0.14227 0.406903,0.15141 0.179519,0.0222 0.203166,0.30204 0.05582,0.66102 -0.119492,0.29115 -0.742707,0.93332 -1.520879,1.5671 z"
       id="path8244"       
       sodipodi:nodetypes="cscscccccccscssccccccccsccscccccccscccsssccsscsscccccscscsccccsccccccscscsssccscccsccccsccssccccccccccsccsccccccccccsccccccsccsccsccscccscccc" />
  </g>
</svg>
